<?xml version="1.0" encoding="UTF-8"?>
<svg xmlns="http://www.w3.org/2000/svg" xmlns:xlink="http://www.w3.org/1999/xlink" version="1.2" >
<font id="Informative City">
<font-face  font-family="Informative" units-per-em="1000" ascent="750" descent="-250" font-style="normal" font-weight="900" font-stretch="normal" cap-height="700" x-height="400" underline-position="-75" underline-thickness="50" />
<missing-glyph  horiz-adv-x="500" d="M410 750 L93 750 L93 -250 L410 -250 L410 750 Z M333 683 L333 650 L267 650 L267 613 L333 613 L333 580 L167 580 L167 613 L233 613 L233 650 L168 650 L168 683 L333 683 Z M267 554 L267 484 L333 484 L333 450 L167 450 L167 554 L267 554 Z M233 520 L200 520 L200 484 L233 484 L233 520 Z M333 423 L333 390 L267 390 L267 320 L167 320 L167 353 L233 353 L233 390 L167 390 L167 423 L333 423 Z M333 363 L333 263 L167 263 L167 297 L300 297 L300 363 L333 363 Z M333 241 L333 128 L167 128 L167 241 L200 241 L200 161 L300 161 L300 208 L267 208 L267 185 L233 185 L233 241 L333 241 Z M333 68 L333 -45 L167 -45 L167 68 L333 68 Z M300 35 L200 35 L200 -12 L300 -12 L300 35 Z M333 -68 L333 -101 L301 -101 L231 -148 L333 -148 L333 -181 L167 -181 L167 -148 L237 -101 L167 -101 L167 -68 L333 -68 Z " />
<glyph glyph-name="NULL" d="" />
<glyph glyph-name="CR" unicode="&#xd;" horiz-adv-x="250" d="" />
<glyph glyph-name="space" unicode="&#x20;" horiz-adv-x="600" d="" />
<glyph glyph-name="exclam" unicode="&#x21;" horiz-adv-x="1000" d="M850 -80 L400 -80 L400 302 L427 348 L343 348 L343 368 L438 368 L454 396 L618 396 L618 317 L605 317 L607 287 L550 149 L493 149 L493 129 L763 129 L763 149 L706 149 L650 288 L651 317 L638 317 L638 396 L848 396 L782 479 L410 587 L410 566 L706 479 L447 479 L400 420 L400 596 L305 596 L305 479 L245 479 L245 534 L185 534 L185 479 L157 479 L157 396 L185 396 L185 341 L245 341 L245 396 L278 396 L278 302 L305 302 L305 -80 L150 -80 L150 -100 L850 -100 L850 -80 Z M325 576 L380 576 L380 416 L370 416 L325 473 L325 576 Z M344 416 L177 416 L177 459 L310 459 L344 416 Z M423 416 L457 459 L472 459 L506 416 L423 416 Z M581 459 L547 416 L532 416 L498 459 L581 459 Z M622 459 L656 416 L573 416 L607 459 L622 459 Z M682 416 L648 459 L731 459 L697 416 L682 416 Z M772 459 L806 416 L723 416 L757 459 L772 459 Z M325 302 L380 302 L380 294 L325 258 L325 302 Z M684 149 L572 149 L622 273 L635 273 L684 149 Z M380 270 L380 183 L325 219 L325 234 L380 270 Z M325 108 L325 195 L380 159 L380 144 L325 108 Z M380 120 L380 33 L325 69 L325 84 L380 120 Z M493 99 L493 79 L763 79 L763 99 L493 99 Z M325 -42 L325 45 L380 9 L380 -6 L325 -42 Z M325 -80 L325 -66 L380 -30 L380 -80 L325 -80 Z " />
<glyph glyph-name="numbersign" unicode="&#x23;" horiz-adv-x="1000" d="M499 2 L499 42 L481 85 L748 470 L732 482 L706 444 L696 504 L755 546 L786 546 L786 222 L773 222 L773 163 C773 151 784 140 796 140 C809 140 819 151 819 163 L819 222 L806 222 L806 566 L749 566 L159 144 L159 101 L150 99 L150 79 L260 103 L293 158 L427 158 L479 38 L479 2 L150 2 L150 -18 L496 -18 C508 -18 519 -29 519 -42 C519 -54 508 -65 496 -65 L150 -65 L150 -85 L496 -85 C518 -85 539 -64 539 -42 C539 -20 520 0 499 2 L499 2 Z M677 490 L687 434 L608 441 L677 490 Z M685 414 L610 306 L586 423 L685 414 Z M592 295 L463 337 L568 412 L592 295 Z M451 319 L588 275 L509 161 L451 319 Z M441 178 L281 178 L248 121 L179 106 L179 134 L432 315 L496 142 L471 107 L441 178 Z M404 128 L323 128 L323 31 L404 31 L404 128 Z M850 44 L835 44 L827 6 L796 6 C779 6 764 20 764 38 C764 58 786 76 806 68 L806 122 L786 122 L786 89 C763 84 744 62 744 38 C744 10 769 -14 796 -14 L850 -14 L850 44 Z M384 108 L384 51 L343 51 L343 108 L384 108 Z " />
<glyph glyph-name="dollar" unicode="&#x24;" horiz-adv-x="1000" d="M824 242 L830 381 L755 429 L718 544 L517 544 L517 523 L286 603 L182 547 L168 572 L150 562 L286 323 C264 309 247 284 247 256 C247 213 287 176 327 176 L368 176 L368 229 L337 248 L337 335 C326 337 315 336 305 332 L214 491 L295 527 L517 425 L517 247 C495 243 477 222 477 201 C477 191 481 181 487 173 C411 172 387 101 375 55 C353 -33 252 -73 150 -73 L150 -93 C258 -93 369 -49 395 50 C407 95 425 153 489 153 L803 153 C828 153 850 176 850 201 C850 218 839 234 824 242 L824 242 Z M517 446 L295 549 L203 510 L192 529 L288 581 L517 502 L517 446 Z M537 524 L704 524 L739 415 L810 371 L804 248 L537 248 L537 524 Z M667 307 L667 484 L567 484 L567 307 L667 307 Z M647 464 L647 327 L587 327 L587 464 L647 464 Z M317 236 L348 217 L348 196 L327 196 C297 196 267 224 267 256 C267 284 290 310 317 315 L317 236 Z M803 173 L525 173 C510 173 497 186 497 201 C497 215 510 228 525 228 L803 228 C817 228 830 215 830 201 C830 186 817 173 803 173 L803 173 Z M336 112 C336 122 327 131 317 131 C307 131 298 122 298 112 C298 102 307 93 317 93 C327 93 336 102 336 112 L336 112 Z M202 106 C202 116 193 125 183 125 C173 125 164 116 164 106 C164 96 173 87 183 87 C193 87 202 96 202 106 L202 106 Z M242 62 C249 62 255 68 255 75 C255 82 249 87 242 87 C235 87 230 82 230 75 C230 68 235 62 242 62 L242 62 Z M154 32 C154 21 163 13 173 13 C183 13 192 21 192 32 C192 42 183 50 173 50 C163 50 154 42 154 32 L154 32 Z M279 25 C279 12 290 0 304 0 C318 0 329 12 329 25 C329 39 318 50 304 50 C290 50 279 39 279 25 L279 25 Z M209 -16 C209 -23 214 -28 221 -28 C228 -28 234 -23 234 -16 C234 -9 228 -3 221 -3 C214 -3 209 -9 209 -16 L209 -16 Z " />
<glyph glyph-name="percent" unicode="&#x25;" horiz-adv-x="1000" d="M598 144 L598 164 L541 164 L485 302 C485 304 486 307 486 310 L486 331 L473 331 L473 399 L630 399 L564 481 L265 588 L265 567 L507 481 L245 481 L245 598 L150 598 L150 -90 L170 -90 L170 -76 L225 -40 L225 -90 L245 -90 L245 304 L272 350 L224 350 L224 370 L283 370 L298 399 L453 399 L453 331 L440 331 L440 310 C440 308 440 305 441 303 L385 164 L328 164 L328 144 L598 144 Z M170 578 L225 578 L225 476 L181 421 L170 421 L170 578 Z M850 443 L799 443 L799 519 L779 519 L779 443 L717 443 L717 406 L737 406 L737 423 L850 423 L850 443 Z M207 421 L239 461 L254 461 L286 421 L207 421 Z M314 419 L280 461 L363 461 L329 419 L314 419 Z M355 419 L389 461 L404 461 L438 419 L355 419 Z M464 419 L430 461 L513 461 L479 419 L464 419 Z M554 461 L588 419 L505 419 L539 461 L554 461 Z M649 381 L649 -3 L575 -3 L575 -99 L595 -99 L595 -23 L669 -23 L669 361 L850 361 L850 381 L649 381 Z M698 333 L698 -99 L718 -99 L718 333 L698 333 Z M760 333 L760 -99 L780 -99 L780 333 L760 333 Z M823 333 L823 -99 L843 -99 L843 333 L823 333 Z M170 304 L225 304 L225 284 L170 248 L170 304 Z M519 164 L407 164 L456 288 C458 287 461 287 463 287 L469 288 L519 164 Z M225 173 L170 209 L170 224 L225 260 L225 173 Z M225 134 L170 98 L170 185 L225 149 L225 134 Z M170 59 L170 74 L225 110 L225 23 L170 59 Z M225 -16 L170 -52 L170 35 L225 -1 L225 -16 Z M635 -56 L635 -99 L655 -99 L655 -56 L635 -56 Z " />
<glyph glyph-name="ampersand" unicode="&#x26;" horiz-adv-x="1000" d="M673 483 L327 483 C296 483 267 454 267 423 L267 77 C267 46 296 17 327 17 L673 17 C705 17 733 46 733 77 L733 423 C733 454 705 483 673 483 L673 483 Z M673 37 L500 37 L500 250 L287 250 L287 423 C287 444 306 463 327 463 L500 463 L500 250 L713 250 L713 77 C713 56 695 37 673 37 L673 37 Z " />
<glyph glyph-name="quotesingle" unicode="&#x27;" horiz-adv-x="1000" d="M402 496 L597 496 L572 553 L425 553 L402 496 Z M308 496 L361 496 L359 543 L310 543 L308 496 Z M451 510 C443 510 435 516 435 526 C435 533 443 539 451 539 C459 539 464 533 464 526 C464 516 459 510 451 510 L451 510 Z M488 514 L488 537 L562 537 L562 514 L488 514 Z M273 171 L728 171 C736 171 746 181 746 189 L746 460 C746 472 736 476 728 476 L273 476 C263 476 255 472 255 460 L255 189 C255 181 263 171 273 171 L273 171 Z M695 417 C683 417 673 427 673 439 C673 450 683 461 695 461 C706 461 717 450 717 439 C717 427 706 417 695 417 L695 417 Z M500 216 C443 216 397 262 397 319 C397 376 443 422 500 422 C557 422 603 376 603 319 C603 262 557 216 500 216 L500 216 Z M275 261 L275 398 L410 398 C393 378 380 350 380 318 C380 299 385 280 394 261 L275 261 Z M608 261 C616 279 620 299 620 318 C620 348 609 377 592 398 L726 398 L726 261 L608 261 Z M500 252 C537 252 567 282 567 319 C567 356 537 386 500 386 C463 386 433 356 433 319 C433 282 463 252 500 252 L500 252 Z M402 -100 L425 -100 L458 131 L543 131 L584 -100 L607 -100 L566 131 L615 131 L615 151 L386 151 L386 131 L435 131 L402 -100 Z " />
<glyph glyph-name="parenleft" unicode="&#x28;" horiz-adv-x="1000" d="M500 -62 C670 -62 810 79 810 248 C810 418 670 558 500 558 C331 558 190 418 190 248 C190 79 331 -62 500 -62 L500 -62 Z M500 -42 C341 -42 210 89 210 248 C210 408 341 538 500 538 C660 538 790 408 790 248 C790 89 660 -42 500 -42 L500 -42 Z M439 88 C553 88 646 172 652 297 L692 332 L692 339 L654 339 L654 347 C671 355 683 369 683 381 C683 383 682 386 681 388 L629 364 C616 377 598 384 578 384 C537 384 504 351 504 310 C504 304 505 297 506 292 C426 297 378 336 351 371 C344 358 341 345 341 332 C341 308 353 286 372 271 C356 271 345 276 340 280 C340 244 363 213 399 206 C391 203 385 201 379 201 C374 201 370 202 366 204 C375 177 401 153 435 153 C410 134 382 121 343 121 L325 121 C358 101 398 88 439 88 L439 88 Z " />
<glyph glyph-name="parenright" unicode="&#x29;" horiz-adv-x="1000" d="M495 545 C326 545 185 404 185 235 C185 79 303 -51 452 -73 L452 176 L390 176 L390 233 L452 233 L452 310 C452 353 488 389 532 389 L595 389 L596 330 L532 330 C522 330 511 319 511 310 L511 233 L587 233 L578 176 L511 176 L511 -75 C674 -67 805 70 805 235 C805 404 665 545 495 545 L495 545 Z M531 -53 L531 156 L596 156 L611 253 L531 253 L531 310 L616 310 L614 409 L532 409 C478 409 432 363 432 310 L432 253 L370 253 L370 156 L432 156 L432 -49 C303 -19 205 97 205 235 C205 394 336 525 495 525 C655 525 785 394 785 235 C785 88 674 -35 531 -53 L531 -53 Z " />
<glyph glyph-name="asterisk" unicode="&#x2a;" horiz-adv-x="1000" d="M826 270 L791 413 C779 430 759 446 740 458 L739 473 C732 495 701 518 664 522 C664 549 660 557 643 580 C634 592 617 593 606 593 C568 593 532 573 523 539 C526 525 529 512 533 500 L467 491 L486 550 C480 577 435 603 407 603 C384 603 358 586 355 563 L341 470 L336 469 L331 488 C329 497 319 505 309 505 C253 505 241 461 240 441 L242 431 L184 341 C177 331 174 320 174 310 C174 277 205 253 232 262 L340 299 L334 317 L226 280 C210 275 195 287 195 307 C195 314 197 322 202 331 L249 407 C254 393 263 384 276 388 L330 405 C341 409 347 418 345 427 L341 449 L386 460 L410 454 C423 451 442 456 455 470 L540 481 C546 468 552 458 560 451 L477 417 L450 375 L444 -86 L407 -86 L400 159 L359 163 L308 -87 L276 -83 L299 138 L304 248 L284 242 L279 139 L254 -101 L324 -109 L375 141 L380 141 L387 -106 L464 -106 L470 355 L532 323 L551 -106 L627 -106 L638 120 L636 166 L640 166 L691 -112 L756 -84 L736 139 L721 241 L721 306 L725 309 L752 263 L759 165 L784 161 C801 158 819 173 820 189 L826 270 Z M375 559 C377 573 392 583 406 583 C421 583 457 569 465 550 L448 496 C441 475 426 471 413 474 L363 486 L375 559 Z M543 538 C552 561 576 573 606 573 C617 573 624 572 627 568 C641 551 645 541 645 521 L645 476 C627 468 599 461 588 461 C564 461 555 487 543 538 L543 538 Z M719 469 L723 424 C719 420 711 417 700 417 C689 417 681 419 678 424 L678 467 L664 476 L664 501 C693 498 714 482 719 469 L719 469 Z M326 424 L270 406 L260 443 C262 462 273 485 311 485 L326 424 Z M806 268 L800 191 C800 185 796 180 790 181 L777 183 L772 269 L733 337 L701 318 L701 239 L716 137 L734 -72 L707 -84 L656 188 L614 184 L618 120 L607 -86 L571 -86 L552 335 L475 376 L491 401 L588 441 C610 442 633 449 653 458 L658 454 L658 424 C658 405 678 397 699 397 C721 397 739 406 743 421 L742 433 C753 425 764 415 773 404 L806 268 Z " />
<glyph glyph-name="plus" unicode="&#x2b;" horiz-adv-x="1000" d="M737 415 L684 432 L699 472 C702 481 704 489 703 497 C702 504 702 510 701 514 C693 547 616 564 590 564 L564 509 L405 600 L366 600 L236 564 C204 555 192 532 192 506 C192 494 195 482 199 471 L242 345 C223 257 208 98 210 34 L223 -100 L293 -100 L294 42 L346 47 L465 -100 L560 -100 L602 118 L608 118 L684 -100 L760 -100 L693 223 L701 315 L735 294 L743 173 L773 173 C795 173 809 187 809 207 L809 320 C809 374 784 400 737 415 L737 415 Z M789 320 L789 207 C789 201 781 193 773 193 L761 193 L755 306 L685 349 L673 221 L736 -80 L698 -80 L622 138 L596 171 L580 161 L590 133 L544 -80 L506 -80 L555 330 L511 457 L406 531 C396 533 387 534 377 534 C338 534 309 518 276 497 L293 462 L288 404 C290 372 300 346 316 337 L326 337 L403 372 L459 301 C474 282 478 264 474 241 L460 161 L440 157 L431 253 L397 305 L377 309 C373 278 363 263 362 223 C361 164 421 120 433 76 L230 55 C231 129 245 269 262 347 L218 477 C214 488 213 498 212 507 C210 525 221 538 242 544 L368 580 L399 580 L556 489 C553 479 552 469 551 461 C549 441 561 426 581 415 C599 405 617 402 633 402 C649 402 661 405 673 413 L731 395 C774 382 789 366 789 320 L789 320 Z M578 490 L602 543 C631 540 676 524 681 509 C682 506 684 501 683 495 C682 490 682 484 680 478 L663 431 C654 424 645 421 634 421 C621 421 607 426 590 433 C578 438 572 449 571 461 C570 469 573 479 578 490 L578 490 Z M386 399 C380 394 367 388 353 394 L309 413 L315 471 C317 495 337 511 356 511 C389 511 414 493 420 468 C408 429 395 406 386 399 L386 399 Z M424 501 L495 445 L535 328 L494 -18 L440 56 L455 58 C455 87 441 111 426 134 L478 145 L494 237 C499 264 492 292 475 313 L409 396 C420 409 431 431 441 467 C440 477 432 491 424 501 L424 501 Z M391 278 L411 247 L421 140 C402 166 383 192 382 223 C381 246 387 260 391 278 L391 278 Z M486 -80 L475 -80 L367 49 L417 54 L490 -48 L486 -80 Z M273 39 L273 -80 L241 -80 L230 35 L273 39 Z " />
<glyph glyph-name="comma" unicode="&#x2c;" horiz-adv-x="1000" d="M500 570 C324 570 180 426 180 250 C180 74 324 -70 500 -70 C676 -70 820 74 820 250 C820 427 677 570 500 570 L500 570 Z M500 -50 C470 -50 442 -46 415 -38 L436 5 L465 114 C474 96 489 76 532 76 C597 76 704 124 704 273 C704 400 593 446 500 446 C426 446 296 395 296 265 C296 181 346 147 368 147 L381 187 C354 211 346 228 346 265 C346 329 407 396 500 396 C593 396 634 343 634 273 C634 203 593 125 533 125 C499 125 484 143 478 164 L505 262 C507 271 509 280 509 289 C509 312 499 332 474 332 C447 332 413 303 413 265 C413 245 419 231 424 214 L378 30 L380 -25 C274 22 200 128 200 250 C200 416 335 550 500 550 C666 550 800 416 800 250 C800 85 666 -50 500 -50 L500 -50 Z " />
<glyph glyph-name="hyphen" unicode="&#x2d;" horiz-adv-x="1000" d="M673 483 L327 483 C296 483 267 454 267 423 L267 77 C267 46 296 17 327 17 L673 17 C704 17 733 46 733 77 L733 423 C733 454 704 483 673 483 L673 483 Z M327 463 L673 463 C694 463 713 444 713 423 L713 260 L595 260 C590 308 549 346 500 346 C451 346 410 308 405 260 L287 260 L287 423 C287 444 306 463 327 463 L327 463 Z M672 360 L672 423 L609 423 L609 360 L672 360 Z M576 250 C576 208 542 174 500 174 C458 174 424 208 424 250 C424 292 458 326 500 326 C542 326 576 292 576 250 L576 250 Z M673 37 L327 37 C306 37 287 56 287 77 L287 240 L405 240 C410 192 451 154 500 154 C549 154 590 192 595 240 L713 240 L713 77 C713 56 694 37 673 37 L673 37 Z " />
<glyph glyph-name="period" unicode="&#x2e;" horiz-adv-x="1000" d="M500 570 C324 570 180 426 180 250 C180 74 324 -70 500 -70 C676 -70 820 74 820 250 C820 427 677 570 500 570 L500 570 Z M500 -50 C335 -50 200 85 200 250 C200 416 335 550 500 550 C666 550 800 416 800 250 C800 85 666 -50 500 -50 L500 -50 Z M580 172 C560 172 541 163 529 150 L422 225 C424 233 427 241 427 250 C427 258 425 267 421 275 L527 352 C540 337 559 328 580 328 C619 328 651 360 651 399 C651 438 619 470 580 470 C541 470 509 438 509 399 C509 388 511 378 516 369 L410 292 C399 303 383 310 367 310 C333 310 306 284 306 250 C306 216 333 190 367 190 C384 190 399 196 411 209 L516 132 C512 122 509 112 509 101 C509 62 541 30 580 30 C620 30 652 62 652 101 C652 140 620 172 580 172 L580 172 Z M580 450 C608 450 631 427 631 399 C631 371 608 348 580 348 C551 348 529 371 529 399 C529 427 551 450 580 450 L580 450 Z M580 50 C552 50 529 73 529 101 C529 129 552 152 580 152 C609 152 632 129 632 101 C632 73 609 50 580 50 L580 50 Z " />
<glyph glyph-name="slash" unicode="&#x2f;" horiz-adv-x="1000" d="M772 231 L796 231 L796 471 L850 471 L850 491 L150 491 L150 471 L179 471 L179 231 L223 231 L223 32 L150 32 L150 12 L850 12 L850 32 L772 32 L772 231 Z M352 32 L243 32 L243 231 L267 231 L267 471 L308 471 L308 231 L352 231 L352 32 Z M490 32 L372 32 L372 231 L396 231 L396 471 L446 471 L446 231 L490 231 L490 32 Z M615 32 L510 32 L510 231 L533 231 L533 471 L615 471 L615 32 Z M752 231 L752 32 L635 32 L635 471 L708 471 L708 231 L752 231 Z " />
<glyph glyph-name="zero" unicode="0" horiz-adv-x="1000" d="M477 509 L477 534 L448 534 L448 571 L428 571 L428 534 L369 534 L369 599 L349 599 L349 534 L335 534 L335 509 L477 509 Z M548 5 L548 481 L277 481 L277 79 L152 79 L152 -100 L172 -100 L172 59 L339 59 L339 -100 L359 -100 L359 79 L297 79 L297 461 L528 461 L528 -5 L586 -55 L586 -100 L606 -100 L606 -45 L548 5 Z M339 434 L339 106 L359 106 L359 434 L339 434 Z M402 434 L402 373 L422 373 L422 434 L402 434 Z M464 434 L464 -100 L484 -100 L484 434 L464 434 Z M402 353 L402 102 L422 102 L422 353 L402 353 Z M833 317 L833 342 L595 342 L595 317 L833 317 Z M848 289 L580 289 L580 10 L600 -7 L600 269 L828 269 L828 -100 L848 -100 L848 289 Z M642 242 L642 -43 L662 -60 L662 242 L642 242 Z M703 242 L703 45 L723 45 L723 242 L703 242 Z M765 242 L765 139 L785 139 L785 242 L765 242 Z M765 119 L765 -100 L785 -100 L785 119 L765 119 Z M402 82 L402 -100 L422 -100 L422 82 L402 82 Z M214 31 L214 -100 L234 -100 L234 31 L214 31 Z M277 31 L277 -100 L297 -100 L297 31 L277 31 Z M703 25 L703 -100 L723 -100 L723 25 L703 25 Z M524 -37 L524 -100 L544 -100 L544 -54 L524 -37 Z " />
<glyph glyph-name="one" unicode="1" horiz-adv-x="1000" d="M298 545 L298 566 L354 566 L354 545 C418 532 467 475 468 408 L394 408 L394 388 L507 388 L507 408 L488 408 C487 479 438 540 374 561 L374 586 L278 586 L278 561 C214 540 165 478 165 406 L185 406 C185 474 235 532 298 545 L298 545 Z M635 394 L635 541 L615 541 L615 394 L635 394 Z M850 365 L847 365 L847 466 L827 466 L827 365 L790 365 L790 297 L753 297 L753 190 L720 190 L678 148 L678 78 L698 78 L698 140 L728 170 L753 170 L753 26 L773 26 L773 277 L810 277 L810 345 L850 345 L850 365 Z M585 394 L585 429 L565 429 L565 394 L585 394 Z M685 394 L685 429 L665 429 L665 394 L685 394 Z M165 345 L165 277 L202 277 L202 76 L222 76 L222 297 L185 297 L185 365 L150 365 L150 345 L165 345 Z M367 362 L367 230 L387 230 L387 253 L431 253 L431 273 L387 273 L387 342 L504 342 L504 315 L463 315 L463 295 L504 295 L504 91 L524 91 L524 362 L367 362 Z M585 319 L585 354 L565 354 L565 319 L585 319 Z M635 319 L635 354 L615 354 L615 319 L635 319 Z M685 319 L685 354 L665 354 L665 319 L685 319 Z M585 244 L585 279 L565 279 L565 244 L585 244 Z M635 244 L635 279 L615 279 L615 244 L635 244 Z M685 244 L685 279 L665 279 L665 244 L685 244 Z M847 221 L847 251 L827 251 L827 221 L847 221 Z M635 73 L635 219 L615 219 L615 73 L635 73 Z M253 73 L273 73 L273 205 L253 205 L253 73 Z M310 73 L330 73 L330 205 L310 205 L310 73 Z M367 205 L367 73 L387 73 L387 205 L367 205 Z M444 205 L424 205 L424 13 L611 13 L646 -28 L662 -14 L621 33 L444 33 L444 205 Z M827 201 L827 171 L847 171 L847 201 L827 201 Z M827 151 L827 121 L847 121 L847 151 L827 151 Z M827 101 L827 71 L847 71 L847 101 L827 101 Z M732 57 L712 57 L712 -13 L732 -13 L732 57 Z M827 51 L827 21 L847 21 L847 51 L827 51 Z M150 -64 L150 -84 L850 -84 L850 -64 L150 -64 Z " />
<glyph glyph-name="two" unicode="2" horiz-adv-x="1000" d="M164 345 L164 277 L202 277 L202 36 L182 36 L182 16 L222 16 L291 221 L265 418 L359 448 L359 388 L315 388 L315 368 L359 368 L359 338 L315 338 L315 318 L359 318 L359 288 L315 288 L315 268 L359 268 L359 87 L379 87 L379 476 L243 432 L270 223 L222 79 L222 297 L184 297 L184 365 L150 365 L150 345 L164 345 Z M850 365 L847 365 L847 429 L827 429 L827 365 L789 365 L789 297 L752 297 L752 78 L772 78 L772 277 L809 277 L809 345 L850 345 L850 365 Z M506 69 L506 28 L557 28 L557 -12 L577 -12 L577 150 L605 175 L605 312 L651 384 L697 312 L697 174 L717 150 L717 78 L737 78 L737 158 L717 182 L717 318 L651 422 L585 318 L585 183 L557 158 L557 48 L526 48 L526 309 C526 359 500 404 467 404 C434 404 409 359 409 309 L409 139 L429 144 L429 309 C429 351 448 384 467 384 C486 384 506 351 506 309 L506 89 L409 89 L409 69 L506 69 Z M664 255 L664 280 L639 280 L639 255 L664 255 Z M847 221 L847 253 L827 253 L827 221 L847 221 Z M664 205 L664 230 L639 230 L639 205 L664 205 Z M827 201 L827 169 L847 169 L847 201 L827 201 Z M639 180 L639 155 L664 155 L664 180 L639 180 Z M827 149 L827 117 L847 117 L847 149 L827 149 Z M827 97 L827 65 L847 65 L847 97 L827 97 Z M150 -64 L150 -84 L850 -84 L850 -64 L150 -64 Z " />
<glyph glyph-name="three" unicode="3" horiz-adv-x="1000" d="M753 26 L773 26 L773 277 L810 277 L810 345 L850 345 L850 365 L790 365 L790 297 L753 297 L753 104 L650 104 L650 342 L710 342 L739 487 L694 487 L694 600 L674 600 L674 487 L625 487 L625 508 L605 508 L605 487 L532 487 L561 342 L630 342 L630 277 L615 277 L615 257 L630 257 L630 191 L523 270 L408 186 L408 416 L263 416 L263 133 L222 133 L222 297 L185 297 L185 365 L150 365 L150 345 L165 345 L165 277 L202 277 L202 59 L248 13 L505 13 L505 -64 L150 -64 L150 -84 L850 -84 L850 -64 L525 -64 L525 84 L753 84 L753 26 Z M556 467 L715 467 L706 424 L565 424 L556 467 Z M847 367 L847 429 L827 429 L827 367 L847 367 Z M694 362 L577 362 L569 404 L702 404 L694 362 Z M283 396 L326 396 L326 272 L283 272 L283 396 Z M388 396 L388 352 L346 352 L346 396 L388 396 Z M630 104 L505 104 L505 33 L256 33 L222 67 L222 113 L283 113 L283 182 L326 182 L326 118 L346 118 L346 332 L388 332 L388 118 L408 118 L408 167 L411 163 L523 246 L630 167 L630 104 Z M326 252 L326 202 L283 202 L283 252 L326 252 Z M588 24 L588 49 L563 49 L563 24 L588 24 Z M650 24 L650 49 L625 49 L625 24 L650 24 Z M713 24 L713 49 L688 49 L688 24 L713 24 Z M563 -1 L563 -26 L588 -26 L588 -1 L563 -1 Z M625 -1 L625 -26 L650 -26 L650 -1 L625 -1 Z M688 -1 L688 -26 L713 -26 L713 -1 L688 -1 Z " />
<glyph glyph-name="four" unicode="4" horiz-adv-x="1000" d="M649 227 L649 565 L629 565 L629 308 C622 332 610 355 593 374 L593 565 L573 565 L573 391 C563 399 551 405 538 408 L538 565 L518 565 L518 413 C512 414 506 414 499 414 C493 414 487 414 482 413 L482 580 L747 580 L747 456 L767 456 L767 600 L462 600 L462 409 C442 403 424 393 410 380 L410 557 L276 557 L276 600 L256 600 L256 557 L150 557 L150 537 L390 537 L390 357 C372 332 362 301 361 272 L313 272 L313 235 L351 235 C344 228 338 219 333 209 L313 209 L313 172 L324 172 C324 162 325 152 328 142 C335 117 362 90 390 79 L390 20 L150 20 L150 0 L410 0 L410 75 L413 75 C422 75 433 77 443 82 L443 38 L431 -100 L451 -100 L463 38 L463 93 C467 96 471 100 475 104 C485 106 494 108 504 111 L507 49 L529 70 L536 101 C547 96 559 93 570 92 L561 59 L493 -8 L491 -100 L511 -100 L513 -16 L579 49 L590 91 C637 93 677 125 677 164 C677 186 666 209 649 227 L649 227 Z M704 476 L704 565 L684 565 L684 476 L704 476 Z M213 485 L213 522 L163 522 L163 485 L213 485 Z M363 485 L363 522 L313 522 L313 485 L363 485 Z M163 459 L163 422 L213 422 L213 459 L163 459 Z M288 422 L288 459 L238 459 L238 422 L288 422 Z M313 459 L313 422 L363 422 L363 459 L313 459 Z M830 333 L850 333 L850 430 L687 430 L687 0 L850 0 L850 20 L707 20 L707 410 L830 410 L830 333 Z M163 397 L163 360 L213 360 L213 397 L163 397 Z M238 397 L238 360 L288 360 L288 397 L238 397 Z M657 167 C657 131 625 111 586 111 C560 111 533 120 512 137 C499 129 482 125 464 123 C451 104 430 95 413 95 C380 95 344 129 344 169 C344 198 359 224 385 234 C382 243 381 254 381 264 C381 324 424 394 499 394 C578 394 616 322 616 261 C616 250 614 240 612 230 C618 227 624 223 629 219 C647 204 657 185 657 167 L657 167 Z M765 352 L765 389 L728 389 L728 352 L765 352 Z M163 334 L163 297 L213 297 L213 334 L163 334 Z M238 334 L238 297 L288 297 L288 334 L238 334 Z M313 334 L313 297 L363 297 L363 334 L313 334 Z M765 290 L765 327 L728 327 L728 290 L765 290 Z M163 272 L163 235 L213 235 L213 272 L163 272 Z M238 272 L238 235 L288 235 L288 272 L238 272 Z M765 228 L765 265 L728 265 L728 228 L765 228 Z M828 228 L828 265 L791 265 L791 228 L828 228 Z M163 209 L163 172 L213 172 L213 209 L163 209 Z M238 209 L238 172 L288 172 L288 209 L238 209 Z M765 166 L765 203 L728 203 L728 166 L765 166 Z M828 166 L828 203 L791 203 L791 166 L828 166 Z M163 147 L163 110 L213 110 L213 147 L163 147 Z M238 147 L238 110 L288 110 L288 147 L238 147 Z M765 103 L765 140 L728 140 L728 103 L765 103 Z M828 103 L828 140 L791 140 L791 103 L828 103 Z M238 84 L238 28 L288 28 L288 84 L238 84 Z M728 78 L728 41 L765 41 L765 78 L728 78 Z M791 78 L791 41 L828 41 L828 78 L791 78 Z " />
<glyph glyph-name="five" unicode="5" horiz-adv-x="1000" d="M226 600 L226 450 L246 450 L246 580 L530 580 L530 63 L350 63 L350 43 L550 43 L550 600 L226 600 Z M850 537 L850 557 L721 557 L721 593 L701 593 L701 557 L596 557 L596 0 L850 0 L850 20 L759 20 L759 82 L709 82 L709 20 L616 20 L616 537 L850 537 Z M328 555 L308 555 L308 474 L328 474 L328 555 Z M384 555 L364 555 L364 133 L384 133 L384 555 Z M439 555 L419 555 L419 120 L439 120 L439 555 Z M495 555 L475 555 L475 170 L495 170 L495 555 Z M684 483 L684 520 L634 520 L634 483 L684 483 Z M834 483 L834 520 L784 520 L784 483 L834 483 Z M684 420 L684 457 L634 457 L634 420 L684 420 Z M759 420 L759 457 L709 457 L709 420 L759 420 Z M834 420 L834 457 L784 457 L784 420 L834 420 Z M175 430 L175 353 L150 353 L150 333 L195 333 L195 410 L310 410 L310 20 L150 20 L150 0 L330 0 L330 430 L175 430 Z M759 358 L759 395 L709 395 L709 358 L759 358 Z M834 358 L834 395 L784 395 L784 358 L834 358 Z M277 351 L277 388 L240 388 L240 351 L277 351 Z M634 332 L634 295 L684 295 L684 332 L634 332 Z M759 295 L759 332 L709 332 L709 295 L759 295 Z M834 295 L834 332 L784 332 L784 295 L834 295 Z M240 326 L240 289 L277 289 L277 326 L240 326 Z M759 233 L759 270 L709 270 L709 233 L759 233 Z M834 233 L834 270 L784 270 L784 233 L834 233 Z M214 227 L214 264 L177 264 L177 227 L214 227 Z M240 264 L240 227 L277 227 L277 264 L240 264 Z M759 170 L759 207 L709 207 L709 170 L759 170 Z M834 170 L834 207 L784 207 L784 170 L834 170 Z M177 202 L177 165 L214 165 L214 202 L177 202 Z M240 202 L240 165 L277 165 L277 202 L240 202 Z M709 145 L709 108 L759 108 L759 145 L709 145 Z M784 145 L784 108 L834 108 L834 145 L784 145 Z M177 139 L177 102 L214 102 L214 139 L177 139 Z M240 139 L240 102 L277 102 L277 139 L240 139 Z M177 77 L177 40 L214 40 L214 77 L177 77 Z M240 77 L240 40 L277 40 L277 77 L240 77 Z " />
<glyph glyph-name="six" unicode="6" horiz-adv-x="1000" d="M850 365 L709 365 L709 55 L658 105 L658 565 L638 565 L638 124 L603 159 L603 565 L583 565 L583 178 L563 198 L547 198 L547 565 L527 565 L527 198 L492 198 L492 580 L756 580 L756 385 L776 385 L776 600 L472 600 L472 198 L410 198 L410 557 L296 557 L296 600 L276 600 L276 557 L150 557 L150 537 L390 537 L390 198 L363 198 L363 209 L313 209 L313 172 L332 172 L288 123 L288 147 L238 147 L238 110 L276 110 L253 84 L238 84 L238 68 L220 48 L220 -115 L294 -115 L294 1 L356 1 L356 -115 L711 -115 L711 -7 L850 -7 L850 13 L729 13 L729 345 L850 345 L850 365 Z M694 476 L714 476 L714 565 L694 565 L694 476 Z M163 521 L163 484 L213 484 L213 521 L163 521 Z M363 484 L363 521 L313 521 L313 484 L363 484 Z M163 459 L163 422 L213 422 L213 459 L163 459 Z M288 422 L288 459 L238 459 L238 422 L288 422 Z M313 459 L313 422 L363 422 L363 459 L313 459 Z M163 397 L163 360 L213 360 L213 397 L163 397 Z M238 397 L238 360 L288 360 L288 397 L238 397 Z M313 397 L313 360 L363 360 L363 397 L313 397 Z M163 334 L163 297 L213 297 L213 334 L163 334 Z M238 334 L238 297 L288 297 L288 334 L238 334 Z M313 334 L313 297 L363 297 L363 334 L313 334 Z M787 290 L787 327 L749 327 L749 290 L787 290 Z M812 327 L812 290 L850 290 L850 327 L812 327 Z M163 272 L163 235 L213 235 L213 272 L163 272 Z M238 272 L238 235 L288 235 L288 272 L238 272 Z M787 227 L787 264 L749 264 L749 227 L787 227 Z M812 264 L812 227 L850 227 L850 264 L812 264 Z M163 209 L163 172 L213 172 L213 209 L163 209 Z M238 209 L238 172 L288 172 L288 209 L238 209 Z M787 165 L787 202 L749 202 L749 165 L787 165 Z M812 202 L812 165 L850 165 L850 202 L812 202 Z M482 45 L482 -95 L376 -95 L376 21 L274 21 L274 -95 L240 -95 L240 40 L359 172 L368 172 L482 45 Z M163 147 L163 110 L213 110 L213 147 L163 147 Z M787 103 L787 140 L749 140 L749 103 L787 103 Z M812 140 L812 103 L850 103 L850 140 L812 140 Z M163 84 L163 47 L213 47 L213 84 L163 84 Z M749 78 L749 41 L787 41 L787 78 L749 78 Z M812 78 L812 41 L850 41 L850 78 L812 78 Z M691 -95 L502 -95 L502 38 L507 33 L691 33 L691 -95 Z M150 20 L150 0 L200 0 L200 20 L150 20 Z M459 -50 L459 1 L406 1 L406 -50 L459 -50 Z M566 1 L566 -50 L619 -50 L619 1 L566 1 Z " />
<glyph glyph-name="seven" unicode="7" horiz-adv-x="1000" d="M850 422 L850 468 L812 388 C797 447 749 493 690 500 L687 515 C674 526 665 531 656 531 C646 531 637 526 623 517 L617 488 C586 474 560 447 546 415 C528 446 499 471 458 475 C436 516 393 544 346 544 C277 544 218 481 218 406 C202 384 193 358 193 336 C166 326 153 305 153 276 C153 259 159 231 201 226 L216 161 L276 110 L282 -18 L145 -18 L145 -38 L850 -38 L850 -18 L817 -18 L823 108 L850 108 L850 128 L748 128 L811 231 L774 231 L836 333 L808 333 L850 422 Z M346 524 C384 524 414 506 434 475 C407 472 386 461 369 444 C356 450 336 456 312 456 C287 456 261 446 240 429 C250 483 294 524 346 524 L346 524 Z M669 503 L739 193 L655 176 L574 193 L580 218 C590 226 601 239 601 258 C601 268 599 278 594 287 L641 505 C648 509 652 511 656 511 C659 511 663 508 669 503 L669 503 Z M800 313 L751 232 L695 479 C751 469 794 418 797 357 L776 313 L800 313 Z M611 462 L579 310 C574 315 568 320 561 324 C562 331 563 338 563 346 C563 360 562 374 557 388 C565 420 585 446 611 462 L611 462 Z M538 314 C564 302 581 280 581 260 C581 237 560 219 526 219 C495 219 486 223 458 246 C447 236 431 231 410 231 C400 212 383 205 370 205 C340 205 316 235 316 264 C316 288 332 313 356 315 C352 324 351 335 351 347 C351 396 383 456 447 456 C510 456 544 396 544 346 C544 335 542 324 538 314 L538 314 Z M173 276 C173 299 180 311 198 317 L213 322 L213 338 C213 358 223 382 241 402 C261 425 285 436 312 436 C331 436 345 433 356 428 C339 404 331 374 331 347 C331 340 331 334 332 328 C309 316 296 289 296 262 C296 257 297 251 298 245 L217 245 C177 245 173 260 173 276 L173 276 Z M274 137 L234 171 L222 225 L270 225 L274 137 Z M303 -18 L290 225 L306 225 C317 207 334 192 353 187 L364 -18 L303 -18 Z M384 -18 L374 185 C388 186 408 195 421 211 C431 213 441 215 449 218 L439 -18 L384 -18 Z M459 -18 L470 212 C486 202 501 199 526 199 C537 199 547 201 556 204 L550 177 L559 175 L522 111 L521 -18 L459 -18 Z M712 108 L803 108 L797 -18 L686 -18 L687 112 L692 163 L753 175 L712 108 Z M541 -18 L542 105 L580 171 L610 165 L603 72 L603 -18 L541 -18 Z M667 114 L666 -18 L623 -18 L623 71 L629 161 L655 156 L671 159 L667 114 Z " />
<glyph glyph-name="eight" unicode="8" horiz-adv-x="1000" d="M855 -18 L787 -18 L784 157 C806 166 822 185 822 208 C822 230 810 253 789 270 C827 289 851 330 851 376 C851 449 804 550 737 550 C677 550 653 490 630 420 C619 416 609 410 601 403 L528 581 L430 308 L396 471 C389 505 365 526 344 526 C323 526 299 505 291 472 L238 249 L200 313 L224 313 L150 468 L150 422 L192 333 L164 333 L226 231 L189 231 L252 128 L150 128 L150 108 L177 108 L183 -18 L150 -18 L150 -38 L855 -38 L855 -18 Z M737 530 C792 530 831 440 831 375 C831 338 813 306 784 290 C784 351 749 425 668 425 L654 425 C673 489 693 530 737 530 L737 530 Z M438 273 L530 525 L585 388 C558 357 548 313 553 278 C538 269 527 254 522 237 L445 237 L444 244 L438 273 Z M257 240 L311 468 C317 494 335 506 344 506 C353 506 370 495 376 467 L424 240 C429 215 413 195 388 195 L291 195 C266 195 251 215 257 240 L257 240 Z M802 210 C802 187 782 169 747 169 C716 169 708 173 681 195 C667 186 651 181 631 181 C624 162 605 155 591 155 C560 155 538 185 538 214 C538 239 554 262 576 265 C573 274 571 284 571 295 C571 345 603 406 668 406 C733 406 764 346 764 294 C764 283 763 273 760 264 C785 252 802 229 802 210 L802 210 Z M461 217 L475 217 L476 202 L461 217 Z M506 -18 L495 217 L518 217 C518 208 518 200 521 191 C530 159 560 135 591 135 C600 135 612 138 623 144 L615 -18 L506 -18 Z M203 -18 L197 108 L288 108 L225 211 L239 211 C246 190 266 175 291 175 L305 175 L294 -18 L203 -18 Z M387 -18 L377 175 L388 175 C412 175 432 189 441 209 L477 174 L486 -18 L387 -18 Z M325 175 L357 175 L367 -18 L314 -18 L325 175 Z M635 -18 L644 161 C652 162 660 164 668 167 L671 41 L667 36 L671 33 L672 -18 L635 -18 Z M690 68 L688 164 C700 156 711 152 725 150 L713 99 L690 68 Z M764 151 L767 -18 L692 -18 L691 35 L731 91 L745 149 C753 149 759 150 764 151 L764 151 Z " />
<glyph glyph-name="nine" unicode="9" horiz-adv-x="1000" d="M282 0 C210 0 150 61 150 133 C150 204 210 265 282 265 C301 265 320 260 337 252 L412 360 L672 360 L651 436 L581 461 L587 479 L657 455 C664 453 669 446 672 435 L720 266 C792 264 850 205 850 133 C850 60 790 0 717 0 C644 0 584 60 584 133 C584 200 635 256 699 265 L679 335 L482 129 L414 129 C412 59 352 0 282 0 L282 0 Z M340 400 L340 427 C340 436 343 444 355 444 L465 444 C465 422 447 400 420 400 L340 400 Z M483 158 L656 340 L428 340 L483 158 Z M413 149 L464 149 L411 324 L354 242 C386 221 408 187 413 149 L413 149 Z M717 20 C779 20 830 71 830 133 C830 195 779 246 717 246 C655 246 604 195 604 133 C604 71 655 20 717 20 L717 20 Z M282 20 C342 20 392 69 394 129 L272 129 L272 159 L326 236 C312 242 297 245 282 245 C220 245 170 194 170 133 C170 71 220 20 282 20 L282 20 Z M292 149 L393 149 C388 181 369 209 343 226 L292 149 Z " />
<glyph glyph-name="colon" unicode="&#x3a;" horiz-adv-x="1000" d="M500 570 C324 570 180 426 180 250 C180 74 324 -70 500 -70 C676 -70 820 74 820 250 C820 427 677 570 500 570 L500 570 Z M500 -50 C335 -50 200 85 200 250 C200 416 335 550 500 550 C666 550 800 416 800 250 C800 85 666 -50 500 -50 L500 -50 Z M324 138 L676 74 L676 426 L324 362 L324 138 Z M656 260 L510 260 L510 375 L656 402 L656 260 Z M490 372 L490 260 L344 260 L344 345 L490 372 Z M344 240 L490 240 L490 128 L344 155 L344 240 Z M508 125 L510 125 L510 240 L656 240 L656 98 L508 125 Z " />
<glyph glyph-name="semicolon" unicode="&#x3b;" horiz-adv-x="1000" d="M500 -70 C676 -70 820 74 820 250 C820 427 677 570 500 570 C324 570 180 426 180 250 C180 74 324 -70 500 -70 L500 -70 Z M500 -50 C335 -50 200 85 200 250 C200 416 335 550 500 550 C666 550 800 416 800 250 C800 85 666 -50 500 -50 L500 -50 Z M500 59 C608 121 677 209 677 285 C677 343 637 381 577 381 C546 381 522 371 500 348 C478 371 454 381 423 381 C363 381 323 343 323 285 C323 209 392 121 500 59 L500 59 Z M500 79 C403 139 343 217 343 282 C343 330 374 362 421 362 C453 362 480 347 500 318 C520 347 547 362 579 362 C626 362 657 330 657 282 C657 217 597 139 500 79 L500 79 Z " />
<glyph glyph-name="equal" unicode="&#x3d;" horiz-adv-x="1000" d="M251 464 L315 485 C332 491 352 512 345 542 L332 599 C322 611 305 615 288 615 C241 615 202 585 217 548 L251 464 Z M799 422 C799 453 774 496 739 499 C704 487 658 457 658 436 C658 432 659 427 662 421 L683 377 L584 489 L584 603 L537 603 L360 466 L319 466 C274 466 254 446 254 395 C254 369 262 340 277 319 L292 223 L207 -35 C202 -51 209 -69 223 -77 L263 -100 L369 107 L390 -100 L466 -100 L466 234 L484 229 L484 197 L526 -100 L592 -100 L595 32 L634 32 L703 -100 L769 -100 L734 33 C700 110 688 136 636 211 L636 227 C690 299 693 351 693 364 C738 371 799 372 799 422 L799 422 Z M237 554 C228 577 254 595 288 595 C298 595 307 593 314 589 L325 537 C329 519 318 507 307 503 L263 488 L237 554 Z M385 460 L543 583 L564 583 L564 481 L632 403 C625 405 618 406 610 406 C599 406 587 405 576 401 L537 467 L531 532 L464 476 L418 429 C408 441 397 452 385 460 L385 460 Z M616 233 L616 205 C663 137 678 110 704 53 L524 53 L504 193 L504 224 L532 216 C544 213 558 215 569 230 L637 317 L633 337 L555 239 C549 232 545 231 532 235 L371 280 C363 282 351 289 346 294 L281 356 C276 368 274 382 274 394 C274 432 285 446 319 446 L370 446 C412 419 438 367 441 325 L442 310 L462 304 L461 326 C460 353 449 384 430 412 L478 462 L515 492 L517 461 L557 392 C548 387 540 380 533 372 C514 351 498 325 489 296 L508 291 C516 317 532 338 549 360 C563 378 588 387 609 387 C619 387 628 385 634 381 L674 354 C672 338 661 292 616 233 L616 233 Z M779 420 C779 394 732 390 701 386 L682 427 C681 430 681 434 681 437 C681 450 714 467 741 479 C764 473 779 443 779 420 L779 420 Z M446 240 L446 -80 L408 -80 L385 139 L407 185 L391 196 L381 177 L255 -72 L233 -58 C226 -54 223 -48 226 -40 L312 221 L299 311 L333 277 C339 271 350 267 359 264 L446 240 Z M713 33 L743 -80 L715 -80 L657 33 L713 33 Z M575 32 L572 -80 L544 -80 L527 32 L575 32 Z " />
<glyph glyph-name="question" unicode="&#x3f;" horiz-adv-x="1000" d="M500 -70 C676 -70 820 74 820 250 C820 427 677 570 500 570 C324 570 180 426 180 250 C180 74 324 -70 500 -70 L500 -70 Z M500 -50 C335 -50 200 85 200 250 C200 416 335 550 500 550 C666 550 800 416 800 250 C800 85 666 -50 500 -50 L500 -50 Z M735 295 L718 278 C658 339 580 369 501 369 C421 369 343 339 282 278 L265 295 C328 358 413 392 501 392 C588 392 673 357 735 295 L735 295 Z M673 234 L657 217 C613 260 557 282 500 282 C444 282 387 261 343 217 L327 233 C372 279 435 305 500 305 C565 305 627 279 673 234 L673 234 Z M612 172 L595 156 C569 181 535 195 501 195 C465 195 432 182 405 156 L388 172 C418 202 458 218 501 218 C542 218 583 201 612 172 L612 172 Z M499 134 C475 134 455 114 455 89 C455 64 475 44 499 44 C524 44 545 64 545 89 C545 114 524 134 499 134 L499 134 Z " />
<glyph glyph-name="at" unicode="&#x40;" horiz-adv-x="1000" d="M499 2 L499 42 L481 85 L748 470 L732 482 L706 444 L695 508 L756 552 L785 552 L728 245 L718 247 L707 189 C704 173 715 162 730 162 C741 162 750 169 752 180 L763 238 L748 241 L809 572 L750 572 L160 150 L160 102 L150 99 L150 79 L260 103 L293 158 L427 158 L479 38 L479 2 L150 2 L150 -18 L496 -18 C508 -18 519 -29 519 -42 C519 -54 508 -65 496 -65 L150 -65 L150 -85 L496 -85 C518 -85 539 -64 539 -42 C539 -20 520 0 499 2 L499 2 Z M677 495 L687 434 L601 441 L677 495 Z M685 414 L610 306 L586 423 L685 414 Z M592 295 L458 339 L567 417 L592 295 Z M441 178 L281 178 L248 121 L180 106 L180 140 L430 319 L496 142 L471 107 L441 178 Z M451 319 L588 275 L509 161 L451 319 Z M710 136 C665 136 626 97 626 52 C626 7 665 -32 710 -32 C755 -32 794 7 794 52 C794 97 755 136 710 136 L710 136 Z M404 128 L323 128 L323 31 L404 31 L404 128 Z M710 -12 C675 -12 646 17 646 52 C646 87 675 116 710 116 C745 116 774 87 774 52 C774 17 745 -12 710 -12 L710 -12 Z M384 108 L384 51 L343 51 L343 108 L384 108 Z " />
<glyph glyph-name="A" unicode="A" horiz-adv-x="1000" d="M765 292 L510 458 L510 485 C482 478 457 501 457 527 C457 550 476 570 500 570 C523 570 543 550 543 527 L563 527 C563 560 533 590 500 590 C466 590 437 560 437 527 C437 497 460 470 490 465 L490 457 L236 292 C222 283 216 269 216 255 C216 232 233 210 261 210 L325 210 L325 -126 L588 -126 L588 210 L655 210 L655 12 L608 12 L608 -8 L675 -8 L675 210 L739 210 C766 210 784 234 784 257 C784 271 778 284 765 292 L765 292 Z M739 230 L568 230 L568 -106 L345 -106 L345 230 C345 244 358 257 372 257 L666 257 C657 269 642 277 627 277 L372 277 C348 277 325 255 325 230 L261 230 C245 230 236 242 236 255 C236 263 240 271 247 276 L500 440 L754 276 C761 272 763 263 763 255 C763 242 754 230 739 230 L739 230 Z " />
<glyph glyph-name="B" unicode="B" horiz-adv-x="1000" d="M387 419 L410 419 L329 580 L311 570 L387 419 Z M566 419 L588 419 L665 570 L647 580 L566 419 Z M849 -85 L849 399 L151 399 L151 -85 L849 -85 Z M171 379 L829 379 L829 -65 L171 -65 L171 379 Z M626 336 L263 336 C238 336 214 312 214 287 L214 27 C214 1 238 -23 263 -23 L626 -23 C652 -23 676 1 676 27 L676 287 C676 312 652 336 626 336 L626 336 Z M795 114 L795 320 L710 320 L710 114 L795 114 Z M263 316 L626 316 C642 316 656 302 656 287 L656 27 C656 11 642 -3 626 -3 L263 -3 C248 -3 234 11 234 27 L234 287 C234 302 248 316 263 316 L263 316 Z M752 276 C761 276 767 269 767 260 C767 252 761 245 752 245 C744 245 737 252 737 260 C737 269 744 276 752 276 L752 276 Z M752 188 C761 188 767 181 767 173 C767 165 761 158 752 158 C744 158 737 165 737 173 C737 181 744 188 752 188 L752 188 Z M710 87 L710 67 L795 67 L795 87 L710 87 Z M710 37 L710 17 L795 17 L795 37 L710 37 Z " />
<glyph glyph-name="C" unicode="C" horiz-adv-x="1000" d="M661 598 L192 598 L192 -98 L661 -98 C685 -98 708 -75 708 -50 L708 550 C708 575 685 598 661 598 L661 598 Z M688 550 L688 -50 C688 -65 675 -78 661 -78 L212 -78 L212 578 L661 578 C675 578 688 565 688 550 L688 550 Z M738 559 L738 -67 L758 -67 L758 559 L738 559 Z M808 547 L788 547 L788 -54 L808 -54 L808 547 Z M608 533 L608 493 L645 493 L645 533 L608 533 Z M583 503 L583 523 L240 523 L240 503 L583 503 Z M240 446 L240 386 L645 386 L645 446 L240 446 Z M386 352 L386 -61 L406 -61 L406 352 L386 352 Z M530 352 L530 -61 L550 -61 L550 352 L530 352 Z M240 340 L240 152 L358 152 L358 340 L240 340 Z M433 337 L433 317 L501 317 L501 337 L433 337 Z M578 337 L578 317 L645 317 L645 337 L578 337 Z M433 276 L433 256 L501 256 L501 276 L433 276 Z M578 276 L578 256 L645 256 L645 276 L578 276 Z M433 216 L433 196 L501 196 L501 216 L433 216 Z M578 216 L578 196 L645 196 L645 216 L578 216 Z M433 156 L433 136 L501 136 L501 156 L433 156 Z M578 156 L578 136 L645 136 L645 156 L578 156 Z M240 114 L240 94 L358 94 L358 114 L240 114 Z M433 95 L433 75 L501 75 L501 95 L433 95 Z M578 95 L578 75 L645 75 L645 95 L578 95 Z M240 44 L240 24 L358 24 L358 44 L240 44 Z M433 35 L433 15 L501 15 L501 35 L433 35 Z M578 35 L578 15 L645 15 L645 35 L578 35 Z M240 -26 L240 -46 L358 -46 L358 -26 L240 -26 Z M433 -26 L433 -46 L501 -46 L501 -26 L433 -26 Z M578 -26 L578 -46 L645 -46 L645 -26 L578 -26 Z " />
<glyph glyph-name="D" unicode="D" horiz-adv-x="1000" d="M765 -1 L846 37 L716 392 L620 418 C623 431 625 445 625 460 C625 541 568 609 500 609 C432 609 375 541 375 460 C375 445 377 431 380 418 L285 392 L154 61 L235 23 L348 258 L339 -22 C339 -36 347 -49 359 -55 L359 -109 L641 -109 L641 -55 C653 -49 660 -36 660 -21 L652 258 L765 -1 Z M500 589 C556 589 605 531 605 460 C605 400 571 331 500 331 C430 331 395 401 395 460 C395 531 444 589 500 589 L500 589 Z M500 358 C552 358 576 407 576 448 C576 496 542 538 500 538 C458 538 424 496 424 448 C424 407 448 358 500 358 L500 358 Z M500 518 C530 518 556 486 556 448 C556 416 540 378 500 378 C463 378 444 414 444 448 C444 486 470 518 500 518 L500 518 Z M666 276 L631 284 L640 -22 C640 -32 635 -39 625 -39 L375 -39 C365 -39 359 -32 359 -23 L369 284 L334 276 L225 49 L180 71 L299 376 L386 398 C395 373 411 352 430 337 L436 207 C436 201 440 197 446 197 C452 197 456 202 456 208 L451 323 C466 315 483 311 500 311 C517 311 534 315 549 323 L544 208 C544 202 548 197 554 197 C560 197 564 201 564 207 L570 337 C589 352 604 373 614 398 L700 376 L820 47 L775 25 L666 276 Z M574 90 C574 104 578 113 585 123 L585 145 L415 145 L415 123 C422 113 426 104 426 90 C426 62 402 39 384 50 L384 -11 L616 -11 L616 50 C598 39 574 62 574 90 L574 90 Z M596 28 L596 9 L404 9 L404 28 C427 34 446 61 446 90 C446 102 443 115 437 125 L563 125 C557 115 554 102 554 90 C554 61 573 34 596 28 L596 28 Z M621 -89 L379 -89 L379 -59 L621 -59 L621 -89 Z " />
<glyph glyph-name="E" unicode="E" horiz-adv-x="1000" d="M783 -5 L783 200 C796 204 806 217 806 232 C806 247 796 259 783 263 L783 469 C791 475 796 484 796 495 C796 514 781 529 763 529 C752 529 742 524 735 515 L603 515 L508 584 L492 584 L397 515 L265 515 C258 524 248 529 237 529 C219 529 204 514 204 495 C204 484 209 475 217 469 L217 264 C203 259 194 247 194 232 C194 217 203 204 217 199 L217 -5 C209 -11 204 -20 204 -31 C204 -50 219 -65 237 -65 C248 -65 258 -60 265 -51 L468 -51 C473 -65 485 -75 500 -75 C515 -75 527 -65 532 -51 L735 -51 C742 -60 752 -65 763 -65 C781 -65 796 -50 796 -31 C796 -20 791 -11 783 -5 L783 -5 Z M431 515 L498 564 L502 564 L569 515 L431 515 Z M763 -31 L237 -31 L237 495 L763 495 L763 -31 Z M292 422 L292 42 L708 42 L708 422 L292 422 Z M312 62 L312 402 L688 402 L688 62 L664 62 L648 162 C640 169 619 170 607 172 L582 150 L556 172 C545 171 524 167 516 162 L507 149 L520 62 L500 62 L483 164 C476 171 455 172 443 174 L417 152 L392 174 C380 172 359 171 351 164 L335 62 L312 62 Z M383 208 C392 200 408 194 420 194 C432 194 450 200 457 208 L443 259 C439 273 433 282 417 282 C402 282 394 273 390 260 L379 227 C376 217 378 212 383 208 L383 208 Z M582 188 C592 190 605 194 611 201 C613 208 618 244 618 250 C613 271 601 277 582 277 C562 277 551 271 546 250 C546 244 551 208 553 201 C559 194 572 190 582 188 L582 188 Z " />
<glyph glyph-name="F" unicode="F" horiz-adv-x="1000" d="M539 601 L539 549 L364 549 L364 208 L255 99 C232 76 221 47 221 15 C221 -52 276 -102 342 -102 C373 -102 401 -91 424 -68 L537 45 C582 90 604 149 604 206 L604 549 L559 549 L559 581 L759 581 L759 514 L624 514 L624 494 L759 494 L759 264 L650 215 L693 106 L592 5 L559 37 L545 23 L578 -9 C559 -24 538 -31 517 -31 C509 -31 502 -31 494 -29 L478 -46 C489 -49 501 -51 514 -51 C544 -51 576 -39 599 -16 L712 97 C757 142 779 201 779 258 L779 601 L539 601 Z M584 458 L384 458 L384 529 L584 529 L584 458 Z M584 212 L475 163 L518 54 L417 -47 L276 92 L384 200 L384 438 L584 438 L584 212 Z M708 122 L676 205 L758 241 C755 199 738 157 708 122 L708 122 Z M533 70 L501 153 L583 189 C580 147 563 105 533 70 L533 70 Z M341 -83 C287 -83 240 -40 240 15 C240 38 247 60 262 78 L403 -61 C385 -76 364 -83 341 -83 L341 -83 Z " />
<glyph glyph-name="G" unicode="G" horiz-adv-x="1000" d="M745 301 L710 301 L398 412 L389 412 C370 380 328 362 288 362 C259 362 232 371 217 392 C208 404 192 412 178 412 C164 412 152 404 152 386 L152 96 L807 96 C829 96 848 115 848 137 L848 206 C848 251 802 301 745 301 L745 301 Z M201 380 C220 354 252 343 287 343 C324 343 364 357 390 382 L400 391 L458 370 L424 330 L444 322 L479 363 L528 345 L494 305 L513 298 L548 338 L600 319 L566 279 L586 272 L620 312 L677 292 L615 238 C598 223 593 206 591 192 L272 192 L272 229 C272 285 228 330 172 331 L172 386 C172 390 176 392 181 392 C187 391 196 387 201 380 L201 380 Z M172 192 L172 311 C218 310 252 275 252 229 L252 192 L172 192 Z M706 281 L745 281 C791 281 828 241 828 206 L828 192 L611 192 C613 202 616 212 629 223 L700 283 L706 281 Z M172 116 L172 172 L252 172 L252 116 L172 116 Z M272 172 L364 172 L364 116 L272 116 L272 172 Z M384 116 L384 172 L477 172 L477 116 L384 116 Z M497 116 L497 172 L590 172 L590 116 L497 116 Z M610 116 L610 172 L702 172 L702 116 L610 116 Z M807 116 L722 116 L722 172 L828 172 L828 137 C828 125 819 116 807 116 L807 116 Z " />
<glyph glyph-name="H" unicode="H" horiz-adv-x="1000" d="M814 16 L814 88 C814 135 773 162 740 162 L709 162 C633 187 500 228 474 271 C450 310 447 427 447 486 C419 518 367 532 316 532 C260 532 206 515 186 486 L186 -25 L774 -25 C796 -25 814 -6 814 16 L814 16 Z M427 478 C427 458 427 432 429 405 L378 405 L378 385 L430 385 C431 369 433 352 435 337 L378 337 L378 317 L439 317 C441 302 445 289 449 278 L391 244 L401 227 L458 260 C464 251 473 242 485 233 L440 188 L461 180 L502 222 C514 215 527 209 541 202 L503 164 L524 157 L561 194 C574 188 587 183 601 178 L564 141 L585 134 L621 170 C647 161 672 153 693 146 L641 100 C624 85 618 68 616 54 L297 54 L297 91 C297 144 258 187 206 192 L206 479 C225 500 270 512 316 512 C358 512 401 502 427 478 L427 478 Z M206 54 L206 172 C247 167 277 134 277 91 L277 54 L206 54 Z M794 88 L794 54 L636 54 C638 64 643 75 654 85 L720 142 L740 142 C765 142 793 122 794 88 L794 88 Z M206 -5 L206 34 L277 34 L277 -5 L206 -5 Z M297 34 L389 34 L389 -5 L297 -5 L297 34 Z M409 -5 L409 34 L502 34 L502 -5 L409 -5 Z M522 -5 L522 34 L615 34 L615 -5 L522 -5 Z M635 -5 L635 34 L727 34 L727 -5 L635 -5 Z M774 -5 L747 -5 L747 34 L795 34 L795 16 C795 4 786 -5 774 -5 L774 -5 Z " />
<glyph glyph-name="I" unicode="I" horiz-adv-x="1000" d="M684 590 L316 590 C299 590 281 573 281 555 L281 -55 C281 -73 299 -90 316 -90 L684 -90 C701 -90 719 -73 719 -55 L719 555 C719 573 701 590 684 590 L684 590 Z M316 570 L684 570 C693 570 699 564 699 555 L699 -55 C699 -64 693 -70 684 -70 L316 -70 C307 -70 301 -64 301 -55 L301 555 C301 564 307 570 316 570 L316 570 Z M662 50 L662 534 L338 534 L338 50 L662 50 Z M358 514 L642 514 L642 70 L358 70 L358 514 Z M500 16 C485 16 473 4 473 -11 C473 -26 485 -38 500 -38 C515 -38 527 -26 527 -11 C527 4 515 16 500 16 L500 16 Z " />
<glyph glyph-name="J" unicode="J" horiz-adv-x="1000" d="M837 511 L163 511 L163 340 L316 302 L316 -11 L684 -11 L684 302 L837 340 L837 511 Z M817 491 L817 356 L664 318 L664 9 L336 9 L336 318 L183 356 L183 491 L385 491 C392 459 431 419 500 419 C570 419 608 458 615 491 L817 491 Z M405 491 L594 491 C588 467 557 439 500 439 C443 439 412 468 405 491 L405 491 Z " />
<glyph glyph-name="K" unicode="K" horiz-adv-x="1000" d="M838 506 L162 506 L162 337 L313 300 L313 -14 L687 -14 L687 300 L838 337 L838 506 Z M182 353 L182 486 L222 486 L222 343 L182 353 Z M758 338 L667 316 L667 6 L333 6 L333 316 L242 338 L242 486 L350 486 L490 307 L490 203 L510 203 L510 307 L651 486 L758 486 L758 338 Z M377 486 L414 486 L505 378 L587 486 L625 486 L500 326 L377 486 Z M818 486 L818 353 L778 343 L778 486 L818 486 Z " />
<glyph glyph-name="L" unicode="L" horiz-adv-x="1000" d="M836 512 L164 512 L164 338 L317 300 L317 -10 L685 -10 L685 300 L836 338 L836 512 Z M816 492 L816 354 L665 316 L665 10 L510 10 L510 48 L490 48 L490 10 L337 10 L337 316 L184 354 L184 492 L309 492 L424 354 L500 420 L576 354 L693 492 L816 492 Z M334 492 L373 492 L487 435 L426 382 L334 492 Z M417 492 L583 492 L500 450 L417 492 Z M627 492 L666 492 L574 382 L513 435 L627 492 Z M500 343 C490 343 481 335 481 325 C481 314 490 306 500 306 C510 306 519 314 519 325 C519 335 510 343 500 343 L500 343 Z M500 239 C490 239 481 231 481 220 C481 210 490 201 500 201 C510 201 519 210 519 220 C519 231 510 239 500 239 L500 239 Z M500 134 C490 134 481 126 481 116 C481 105 490 97 500 97 C510 97 519 105 519 116 C519 126 510 134 500 134 L500 134 Z " />
<glyph glyph-name="M" unicode="M" horiz-adv-x="1000" d="M777 583 L679 583 L617 507 C600 515 582 519 563 519 L519 576 C513 584 505 587 496 587 C488 587 479 583 473 576 L430 519 C413 518 397 514 382 507 L320 583 L222 583 C186 469 155 307 155 202 C155 109 185 55 278 49 L277 30 C273 -41 339 -100 412 -100 L587 -100 C659 -100 726 -41 722 30 L721 49 C811 55 845 108 845 202 C845 306 813 468 777 583 L777 583 Z M458 519 L492 564 C494 567 497 568 499 568 C502 568 504 566 506 564 L541 519 L458 519 Z M260 563 L310 563 L364 498 C350 490 338 479 328 467 L260 563 Z M635 498 L689 563 L739 563 L671 466 C661 479 648 489 635 498 L635 498 Z M279 69 C200 74 174 119 174 202 C174 298 202 449 237 561 L274 509 C248 419 219 269 219 182 C219 139 240 116 281 113 L279 69 Z M826 202 C826 121 802 74 720 69 L718 113 C759 116 780 139 780 182 C780 269 751 419 725 509 L762 561 C797 449 826 298 826 202 L826 202 Z M586 291 L413 291 C401 291 384 297 374 304 L311 349 L313 384 C317 446 374 499 438 499 L562 499 C624 499 681 446 685 383 L687 349 L625 304 C615 297 597 291 586 291 L586 291 Z M293 384 L282 132 C251 135 239 150 239 182 C239 262 265 398 289 487 L315 450 C303 431 294 412 293 384 L293 384 Z M717 132 L705 384 C704 412 696 430 683 449 L710 487 C734 398 760 262 760 182 C760 150 748 135 717 132 L717 132 Z M695 -8 L303 -8 C299 4 296 16 297 30 L310 325 L362 288 C374 279 397 271 413 271 L470 271 L470 225 L423 225 L423 143 L470 143 L470 101 C470 85 484 71 500 71 C517 71 530 85 530 101 L530 143 L580 143 L580 225 L530 225 L530 271 L586 271 C601 271 625 279 637 288 L688 325 L702 30 C703 16 700 4 695 -8 L695 -8 Z M560 163 L443 163 L443 205 L560 205 L560 163 Z M587 -80 L412 -80 C371 -80 334 -59 314 -28 L685 -28 C664 -59 627 -80 587 -80 L587 -80 Z " />
<glyph glyph-name="N" unicode="N" horiz-adv-x="1000" d="M704 248 L533 248 L533 285 L514 285 C533 423 822 358 822 575 L802 575 C802 383 510 450 494 285 L473 285 L473 248 L296 248 C206 248 130 172 130 81 C130 -9 206 -85 296 -85 C348 -85 392 -57 421 -29 C452 1 476 16 500 16 C524 16 549 1 579 -29 C608 -58 652 -85 704 -85 C794 -85 870 -9 870 81 C870 172 794 248 704 248 L704 248 Z M704 -65 C658 -65 620 -41 593 -15 C559 18 530 36 500 36 C471 36 441 19 407 -15 C380 -42 342 -65 296 -65 C216 -65 150 1 150 81 C150 162 216 228 296 228 L704 228 C784 228 850 162 850 81 C850 1 784 -65 704 -65 L704 -65 Z M704 119 C721 119 734 132 734 149 C734 166 721 179 704 179 C687 179 674 166 674 149 C674 132 687 119 704 119 L704 119 Z M309 94 L309 152 L284 152 L284 94 L226 94 L226 69 L284 69 L284 11 L309 11 L309 69 L367 69 L367 94 L309 94 Z M606 81 C606 64 619 51 636 51 C653 51 666 64 666 81 C666 98 653 111 636 111 C619 111 606 98 606 81 L606 81 Z M743 81 C743 64 756 51 773 51 C790 51 803 64 803 81 C803 98 790 111 773 111 C756 111 743 98 743 81 L743 81 Z M704 -18 C721 -18 734 -5 734 12 C734 29 721 42 704 42 C687 42 674 29 674 12 C674 -5 687 -18 704 -18 L704 -18 Z " />
<glyph glyph-name="O" unicode="O" horiz-adv-x="1000" d="M727 -51 L727 551 C727 576 704 599 680 599 L320 599 C296 599 273 576 273 551 L273 -51 C273 -76 296 -99 320 -99 L680 -99 C704 -99 727 -76 727 -51 L727 -51 Z M707 551 L707 -51 C707 -66 694 -79 680 -79 L320 -79 C306 -79 293 -66 293 -51 L293 551 C293 566 306 579 320 579 L680 579 C694 579 707 566 707 551 L707 551 Z M335 269 L665 269 L665 536 L335 536 L335 269 Z M645 516 L645 289 L355 289 L355 516 L645 516 Z M379 177 C391 177 400 186 400 198 C400 210 391 219 379 219 C367 219 358 210 358 198 C358 186 367 177 379 177 L379 177 Z M500 177 C512 177 521 186 521 198 C521 210 512 219 500 219 C488 219 479 210 479 198 C479 186 488 177 500 177 L500 177 Z M621 177 C633 177 642 186 642 198 C642 210 633 219 621 219 C609 219 600 210 600 198 C600 186 609 177 621 177 L621 177 Z M611 29 C639 29 661 51 661 79 C661 107 639 129 611 129 C583 129 561 107 561 79 C561 51 583 29 611 29 L611 29 Z M368 72 C383 72 396 85 396 100 C396 115 383 128 368 128 C353 128 340 115 340 100 C340 85 353 72 368 72 L368 72 Z M466 72 C481 72 494 85 494 100 C494 115 481 128 466 128 C451 128 438 115 438 100 C438 85 451 72 466 72 L466 72 Z M417 12 C432 12 445 25 445 40 C445 55 432 68 417 68 C402 68 389 55 389 40 C389 25 402 12 417 12 L417 12 Z " />
<glyph glyph-name="P" unicode="P" horiz-adv-x="1000" d="M500 147 C560 147 612 199 612 259 L612 485 C612 545 560 597 500 597 C440 597 388 545 388 485 L388 259 C388 199 440 147 500 147 L500 147 Z M500 577 C550 577 592 535 592 485 L592 287 L408 287 L408 485 C408 535 450 577 500 577 L500 577 Z M500 508 C512 508 521 517 521 529 C521 540 512 550 500 550 C489 550 479 540 479 529 C479 517 489 508 500 508 L500 508 Z M455 448 C467 448 476 458 476 469 C476 481 467 490 455 490 C444 490 434 481 434 469 C434 458 444 448 455 448 L455 448 Z M545 448 C557 448 566 458 566 469 C566 481 557 490 545 490 C534 490 524 481 524 469 C524 458 534 448 545 448 L545 448 Z M500 382 C512 382 521 391 521 402 C521 414 512 423 500 423 C489 423 479 414 479 402 C479 391 489 382 500 382 L500 382 Z M732 -77 L510 -77 L510 75 C606 81 684 162 684 259 L684 397 L664 397 L664 259 C664 169 590 95 500 95 C410 95 336 169 336 259 L336 397 L316 397 L316 259 C316 162 394 81 490 75 L490 -77 L268 -77 L268 -97 L732 -97 L732 -77 Z M455 315 C467 315 476 324 476 336 C476 347 467 357 455 357 C444 357 434 347 434 336 C434 324 444 315 455 315 L455 315 Z M545 315 C557 315 566 324 566 336 C566 347 557 357 545 357 C534 357 524 347 524 336 C524 324 534 315 545 315 L545 315 Z M408 259 L408 267 L592 267 L592 259 C592 209 550 167 500 167 C450 167 408 209 408 259 L408 259 Z " />
<glyph glyph-name="Q" unicode="Q" horiz-adv-x="1000" d="M719 -66 L714 52 L844 52 L769 173 L819 173 L743 301 L780 301 L669 507 L558 301 L595 301 L519 173 L558 173 L496 52 L623 52 L619 -66 L360 -66 L363 54 L404 118 L442 241 C448 240 455 240 461 240 C509 240 542 266 542 305 C542 335 519 365 485 383 C489 396 491 411 491 426 C491 516 429 586 348 586 C264 586 208 523 208 427 C208 413 209 399 212 385 C176 375 153 345 153 305 C153 259 190 222 236 222 C248 222 260 225 270 229 L268 107 L253 -66 L150 -66 L150 -86 L850 -86 L850 -66 L719 -66 Z M236 242 C201 242 173 270 173 305 C173 345 201 368 236 368 C231 387 228 407 228 427 C228 498 264 566 348 566 C428 566 471 492 471 426 C471 407 467 388 459 372 C498 359 522 329 522 305 C522 275 494 260 461 260 C425 260 384 278 367 303 C353 287 328 276 292 276 C281 255 260 242 236 242 L236 242 Z M590 193 L555 193 L631 321 L592 321 L669 465 L746 321 L707 321 L783 193 L733 193 L808 72 L528 72 L590 193 Z M340 -66 L273 -66 L288 106 L290 242 C294 247 298 251 301 256 C314 257 326 259 338 263 L331 130 L354 151 L385 261 C394 255 409 249 422 245 L386 126 L343 60 L340 -66 Z M639 -66 L644 52 L694 52 L699 -66 L639 -66 Z " />
<glyph glyph-name="R" unicode="R" horiz-adv-x="1001" d="M527 91 L836 417 L788 461 C777 443 758 434 739 434 C709 434 680 462 680 493 C680 511 689 529 705 542 L658 586 L528 448 C515 461 498 469 483 469 C472 469 457 463 444 453 L288 325 C273 313 263 301 259 289 L164 2 L182 -3 L278 283 C280 290 287 298 302 310 L456 437 C466 446 476 448 484 448 C495 448 505 443 515 435 L353 267 C345 258 342 247 342 235 C342 216 362 191 389 191 C399 191 409 195 417 203 L481 267 C489 275 498 278 506 278 C515 277 523 274 529 268 C535 262 538 254 538 245 C538 236 535 228 527 220 L428 122 C428 93 416 42 386 18 L259 -85 L273 -100 L400 4 C411 13 421 26 428 38 C444 29 467 31 481 45 L527 91 Z M503 169 L541 206 C554 218 559 232 559 245 C559 259 553 272 543 282 C534 291 520 298 505 298 C492 298 478 293 466 281 L427 241 L391 277 L658 557 L675 540 C665 526 661 510 661 494 C661 454 693 415 740 415 C757 415 775 421 790 433 L807 417 L541 133 L503 169 Z M598 426 L611 440 L596 455 L582 441 L598 426 Z M631 395 L645 409 L628 424 L614 410 L631 395 Z M663 364 L677 378 L661 393 L647 379 L663 364 Z M696 333 L710 347 L693 362 L679 348 L696 333 Z M413 227 L403 217 C399 213 394 211 390 211 C376 211 361 225 361 238 C361 243 363 248 367 252 L377 262 L413 227 Z M527 119 L510 103 C502 95 491 95 483 103 L460 126 L488 154 L527 119 Z M487 79 L466 59 C458 51 445 51 435 57 C442 76 446 95 447 110 L469 88 C474 83 481 80 487 79 L487 79 Z " />
<glyph glyph-name="S" unicode="S" horiz-adv-x="1000" d="M704 607 L296 607 L296 -107 L431 -107 L458 346 C460 378 480 392 500 392 C520 392 541 377 543 346 L570 -107 L704 -107 L704 607 Z M438 348 L431 222 L374 222 L374 202 L430 202 L416 -27 L316 -27 L316 412 C377 412 422 458 422 512 C422 522 421 531 418 540 L453 540 L463 560 L316 560 L316 587 L490 587 L490 468 L510 468 L510 540 L585 540 C582 531 581 521 581 512 C581 461 625 412 684 412 L684 -27 L585 -27 L578 92 L614 92 L614 112 L577 112 L563 348 C560 391 530 412 500 412 C470 412 440 391 438 348 L438 348 Z M684 560 L510 560 L510 587 L684 587 L684 560 Z M316 540 L397 540 C400 531 402 522 402 512 C402 470 370 432 316 432 L316 540 Z M684 540 L684 432 C638 432 601 468 601 512 C601 522 603 531 606 540 L684 540 Z M413 -87 L316 -87 L316 -47 L415 -47 L413 -87 Z M684 -87 L588 -87 L586 -47 L684 -47 L684 -87 Z " />
<glyph glyph-name="T" unicode="T" horiz-adv-x="1000" d="M674 -62 L674 457 L662 609 L586 609 L575 479 L374 479 C349 479 327 456 327 431 L327 -62 C327 -87 349 -109 374 -109 L626 -109 C651 -109 674 -87 674 -62 L674 -62 Z M644 589 L654 456 L654 -62 C654 -76 641 -89 626 -89 L374 -89 C359 -89 347 -77 347 -62 L347 431 C347 446 360 459 374 459 L593 459 L604 589 L644 589 Z M389 204 L611 204 L611 417 L389 417 L389 204 Z M591 397 L591 224 L409 224 L409 397 L591 397 Z M443 140 C443 128 433 118 420 118 C407 118 397 128 397 140 C397 153 407 163 420 163 C433 163 443 153 443 140 L443 140 Z M523 140 C523 128 513 118 500 118 C487 118 477 128 477 140 C477 153 487 163 500 163 C513 163 523 153 523 140 L523 140 Z M603 140 C603 128 593 118 580 118 C567 118 557 128 557 140 C557 153 567 163 580 163 C593 163 603 153 603 140 L603 140 Z M443 55 C443 42 433 32 420 32 C407 32 397 42 397 55 C397 68 407 78 420 78 C433 78 443 68 443 55 L443 55 Z M523 55 C523 42 513 32 500 32 C487 32 477 42 477 55 C477 68 487 78 500 78 C513 78 523 68 523 55 L523 55 Z M603 55 C603 42 593 32 580 32 C567 32 557 42 557 55 C557 68 567 78 580 78 C593 78 603 68 603 55 L603 55 Z M443 -31 C443 -43 433 -54 420 -54 C407 -54 397 -43 397 -31 C397 -18 407 -8 420 -8 C433 -8 443 -18 443 -31 L443 -31 Z M523 -31 C523 -43 513 -54 500 -54 C487 -54 477 -43 477 -31 C477 -18 487 -8 500 -8 C513 -8 523 -18 523 -31 L523 -31 Z M603 -31 C603 -43 593 -54 580 -54 C567 -54 557 -43 557 -31 C557 -18 567 -8 580 -8 C593 -8 603 -18 603 -31 L603 -31 Z " />
<glyph glyph-name="U" unicode="U" horiz-adv-x="1000" d="M261 214 L740 214 L740 185 L760 185 L760 462 C760 480 742 497 725 497 L276 497 C258 497 241 480 241 462 L241 185 L261 185 L261 214 Z M261 462 C261 471 267 477 276 477 L725 477 C734 477 740 471 740 462 L740 234 L261 234 L261 462 Z M322 383 L342 383 L342 415 L322 415 L322 383 Z M758 165 L242 165 L160 67 L160 0 L841 0 L841 67 L758 165 Z M821 20 L180 20 L180 59 L251 145 L749 145 L821 59 L821 20 Z M295 68 L706 68 L706 88 L295 88 L295 68 Z " />
<glyph glyph-name="V" unicode="V" horiz-adv-x="1000" d="M224 298 L224 539 L774 539 L774 298 L794 298 L794 559 L204 559 L204 298 L224 298 Z M150 278 L150 -72 L328 -72 L328 278 L150 278 Z M850 278 L669 278 L669 -72 L850 -72 L850 278 Z M170 -52 L170 258 L308 258 L308 -52 L170 -52 Z M830 258 L830 -52 L689 -52 L689 258 L830 258 Z M349 240 L349 180 L489 180 L489 80 L366 80 L366 60 L633 60 L633 80 L509 80 L509 180 L652 180 L652 240 L349 240 Z M240 212 C228 212 219 202 219 191 C219 179 228 170 240 170 C251 170 260 179 260 191 C260 202 251 212 240 212 L240 212 Z M759 170 C771 170 780 179 780 191 C780 202 771 212 759 212 C748 212 739 202 739 191 C739 179 748 170 759 170 L759 170 Z M240 124 C228 124 219 115 219 103 C219 92 228 82 240 82 C251 82 260 92 260 103 C260 115 251 124 240 124 L240 124 Z M759 82 C771 82 780 92 780 103 C780 115 771 124 759 124 C748 124 739 115 739 103 C739 92 748 82 759 82 L759 82 Z M240 37 C228 37 219 27 219 16 C219 4 228 -5 240 -5 C251 -5 260 4 260 16 C260 27 251 37 240 37 L240 37 Z M759 -5 C771 -5 780 4 780 16 C780 27 771 37 759 37 C748 37 739 27 739 16 C739 4 748 -5 759 -5 L759 -5 Z " />
<glyph glyph-name="W" unicode="W" horiz-adv-x="1000" d="M685 266 L673 282 L620 236 L712 141 L850 271 L850 287 C831 313 818 342 809 373 C804 372 799 371 794 371 C772 371 751 382 740 400 C732 395 721 391 709 391 C677 393 656 423 656 451 C656 495 682 526 725 526 C739 526 752 520 762 506 C765 556 801 585 850 597 L850 617 C805 607 765 580 750 540 C742 544 733 545 725 545 C671 545 637 505 637 451 C637 426 647 406 665 388 L711 223 L731 228 L690 375 C697 372 705 371 712 371 C719 371 725 372 730 374 L756 316 L765 315 L793 353 C800 330 805 318 830 281 L712 169 L650 234 L685 266 Z M448 488 L458 508 C457 551 404 590 363 590 C346 590 333 581 324 561 L282 462 L362 424 C379 416 401 415 411 433 L421 451 L405 461 L394 443 C389 434 379 437 369 442 L304 473 L340 550 C347 565 355 570 364 570 C388 570 434 543 438 512 L432 501 L410 517 L398 501 L457 457 L469 473 L448 488 Z M371 255 L371 360 L287 437 C273 450 257 457 241 457 C217 457 195 442 188 411 L154 260 C151 246 150 233 150 222 C150 206 155 192 161 180 L161 49 L155 -92 L201 -95 C218 -96 235 -84 238 -67 L259 47 L258 81 L286 54 L294 -100 L342 -100 C360 -100 376 -84 377 -66 L386 67 C387 78 384 93 377 103 L351 141 L374 146 C381 148 389 153 394 160 L410 160 L410 180 L404 180 L405 187 L405 211 L410 211 L410 231 L403 231 C398 244 385 254 371 255 L371 255 Z M385 220 L385 187 C385 177 378 168 368 166 L310 153 C303 151 298 155 298 162 L298 170 L312 184 L226 270 L203 383 L208 407 C212 428 226 438 241 438 C251 438 262 433 273 423 L351 352 L351 255 L327 255 L327 313 L307 313 L307 254 C300 253 294 249 289 246 L301 230 C305 234 308 235 313 235 L370 235 C377 235 385 227 385 220 L385 220 Z M330 136 L360 93 C366 84 367 78 366 68 L357 -66 C356 -75 352 -80 342 -80 L314 -80 L306 62 L257 109 L190 174 C177 187 170 201 169 224 C169 233 171 243 174 256 L192 335 L208 260 L278 190 L278 162 C278 143 295 129 314 133 L330 136 Z M431 231 L431 211 L461 211 L461 231 L431 231 Z M481 231 L481 211 L509 211 L509 231 L481 231 Z M549 231 L530 231 L530 211 L549 211 C560 211 565 203 565 195 C565 187 560 179 549 179 L530 179 L530 159 L549 159 C574 159 586 177 586 195 C586 213 574 231 549 231 L549 231 Z M431 179 L431 159 L461 159 L461 179 L431 179 Z M481 179 L481 159 L509 159 L509 179 L481 179 Z M237 101 L239 49 L218 -63 C216 -72 212 -75 203 -75 L175 -74 L181 49 L181 155 L237 101 Z M756 -15 L744 4 L742 102 C739 114 720 120 697 120 C659 120 605 102 602 75 L594 0 L583 -15 L539 -29 L539 -83 L635 -83 L661 -113 L683 -113 L702 -83 L802 -83 L802 -28 L756 -15 Z M622 77 C622 88 683 102 702 102 C714 102 722 100 722 98 C722 89 661 73 643 73 C630 73 622 75 622 77 L622 77 Z M782 -44 L782 -63 L690 -63 L671 -93 L645 -63 L559 -63 L559 -43 L595 -33 L614 -8 L620 58 C628 56 637 55 648 55 C657 55 668 56 678 58 C695 61 711 67 723 74 L724 -2 L744 -33 L782 -44 Z " />
<glyph glyph-name="X" unicode="X" horiz-adv-x="1000" d="M845 415 L825 415 L825 13 C825 -4 811 -19 794 -19 L760 -19 C755 -19 745 -5 745 13 L745 550 L155 550 L155 13 C155 -14 179 -39 206 -39 L794 -39 C821 -39 845 -14 845 13 L845 415 Z M175 13 L175 530 L725 530 L725 13 C725 2 728 -10 733 -19 L695 -19 L695 -9 L640 -9 L640 -19 L612 -19 L612 300 L592 300 L592 -19 L563 -19 L563 -9 L508 -9 L508 -19 L480 -19 L480 300 L460 300 L460 -19 L433 -19 L433 -9 L378 -9 L378 -19 L340 -19 L340 -9 L215 -9 L215 -19 L206 -19 C189 -19 175 -4 175 13 L175 13 Z M245 453 L245 493 L208 493 L208 453 L245 453 Z M695 453 L695 493 L658 493 L658 453 L695 453 Z M795 5 L795 493 L775 493 L775 5 L795 5 Z M633 463 L633 483 L270 483 L270 463 L633 463 Z M695 346 L695 406 L202 406 L202 346 L695 346 Z M353 93 L353 288 L202 288 L202 93 L353 93 Z M378 285 L378 265 L433 265 L433 285 L378 285 Z M508 285 L508 265 L563 265 L563 285 L508 285 Z M640 285 L640 265 L695 265 L695 285 L640 285 Z M378 224 L378 204 L433 204 L433 224 L378 224 Z M508 224 L508 204 L563 204 L563 224 L508 224 Z M640 224 L640 204 L695 204 L695 224 L640 224 Z M378 164 L378 144 L433 144 L433 164 L378 164 Z M508 164 L508 144 L563 144 L563 164 L508 164 Z M640 164 L640 144 L695 144 L695 164 L640 164 Z M328 157 L328 137 L227 137 L227 157 L328 157 Z M378 103 L378 83 L433 83 L433 103 L378 103 Z M508 103 L508 83 L563 83 L563 103 L508 103 Z M640 103 L640 83 L695 83 L695 103 L640 103 Z M215 43 L215 23 L340 23 L340 43 L215 43 Z M378 43 L378 23 L433 23 L433 43 L378 43 Z M508 43 L508 23 L563 23 L563 43 L508 43 Z M640 43 L640 23 L695 23 L695 43 L640 43 Z " />
<glyph glyph-name="Y" unicode="Y" horiz-adv-x="1000" d="M822 158 L822 560 L667 560 L667 158 L822 158 Z M802 540 L802 178 L687 178 L687 540 L802 540 Z M408 255 L408 188 L340 178 L340 158 L496 158 L496 178 L428 188 L428 255 L625 255 L625 515 L211 515 L211 255 L408 255 Z M231 275 L231 495 L605 495 L605 275 L231 275 Z M779 467 L779 487 L711 487 L711 467 L779 467 Z M272 459 L272 428 L292 428 L292 459 L272 459 Z M779 377 L779 397 L711 397 L711 377 L779 377 Z M745 228 C734 228 725 220 725 210 C725 199 734 191 745 191 C755 191 764 199 764 210 C764 220 755 228 745 228 L745 228 Z M211 156 L211 190 C184 189 173 176 173 156 L211 156 Z M231 156 L271 156 C271 174 254 186 231 189 L231 156 Z M850 131 L150 131 L150 -50 L170 -50 L170 111 L830 111 L830 -50 L850 -50 L850 131 Z " />
<glyph glyph-name="Z" unicode="Z" horiz-adv-x="1000" d="M800 289 L732 289 L410 471 L400 453 L690 289 L200 289 C175 289 153 266 153 242 L153 -124 C153 -149 175 -172 200 -172 L800 -172 C825 -172 847 -149 847 -124 L847 242 C847 266 825 289 800 289 L800 289 Z M827 242 L827 -124 C827 -139 814 -152 800 -152 L200 -152 C186 -152 173 -139 173 -124 L173 242 C173 256 186 269 200 269 L800 269 C814 269 827 256 827 242 L827 242 Z M276 146 L276 174 L296 174 L296 146 L346 146 L346 174 L366 174 L366 146 L416 146 L416 229 L225 229 L225 146 L276 146 Z M436 146 L486 146 L486 174 L506 174 L506 146 L556 146 L556 174 L576 174 L576 146 L626 146 L626 174 L646 174 L646 146 L711 146 L711 229 L436 229 L436 146 Z M767 219 C750 219 736 205 736 188 C736 170 750 156 767 156 C784 156 798 170 798 188 C798 205 784 219 767 219 L767 219 Z M250 97 L250 69 L774 69 L774 97 L250 97 Z M250 49 L250 20 L774 20 L774 49 L250 49 Z M250 0 L250 -29 L774 -29 L774 0 L250 0 Z M250 -49 L250 -78 L774 -78 L774 -49 L250 -49 Z M250 -98 L250 -118 L774 -118 L774 -98 L250 -98 Z " />
<glyph glyph-name="bracketleft" unicode="&#x5b;" horiz-adv-x="1000" d="M542 581 L542 601 L457 601 L457 581 L542 581 Z M405 448 L593 448 C600 503 553 553 499 553 C446 553 398 503 405 448 L405 448 Z M499 533 C536 533 568 504 573 468 L425 468 C430 504 462 533 499 533 L499 533 Z M613 322 L613 421 L593 421 L593 393 L406 393 L406 421 L386 421 L386 322 L339 322 L339 178 L386 178 L386 -54 L406 -54 L406 198 L359 198 L359 302 L406 302 L406 373 L593 373 L593 302 L640 302 L640 198 L593 198 L593 -54 L613 -54 L613 178 L660 178 L660 322 L613 322 Z M499 329 C456 329 420 294 420 250 C420 206 456 171 499 171 C543 171 579 206 579 250 C579 294 543 329 499 329 L499 329 Z M289 310 L289 285 L276 285 L276 215 L289 215 L289 190 L309 190 L309 310 L289 310 Z M723 215 L723 285 L710 285 L710 310 L690 310 L690 190 L710 190 L710 215 L723 215 Z M551 250 L525 206 L474 206 L448 250 L474 294 L525 294 L551 250 Z M443 117 L443 -42 L463 -42 L463 117 L443 117 Z M536 117 L536 -42 L556 -42 L556 117 L536 117 Z M341 -82 L341 -102 L658 -102 L658 -82 L341 -82 Z " />
<glyph glyph-name="backslash" unicode="&#x5c;" horiz-adv-x="1000" d="M500 -70 C676 -70 820 74 820 250 C820 427 677 570 500 570 C324 570 180 426 180 250 C180 74 324 -70 500 -70 L500 -70 Z M500 -50 C335 -50 200 85 200 250 C200 416 335 550 500 550 C666 550 800 416 800 250 C800 85 666 -50 500 -50 L500 -50 Z M381 140 C441 140 490 189 490 250 C490 310 441 360 381 360 C320 360 271 310 271 250 C271 189 320 140 381 140 L381 140 Z M620 140 C680 140 729 189 729 250 C729 310 680 360 620 360 C559 360 510 310 510 250 C510 189 559 140 620 140 L620 140 Z M381 160 C331 160 291 200 291 250 C291 300 331 340 381 340 C430 340 470 299 470 250 C470 200 430 160 381 160 L381 160 Z M620 160 C570 160 530 200 530 250 C530 300 570 340 620 340 C669 340 709 299 709 250 C709 200 669 160 620 160 L620 160 Z " />
<glyph glyph-name="bracketright" unicode="&#x5d;" horiz-adv-x="1000" d="M660 452 C674 454 710 465 716 479 C722 492 729 547 729 572 C717 597 691 609 660 609 C629 609 604 597 592 572 C592 542 598 493 604 480 C611 465 646 454 660 452 L660 452 Z M763 184 L769 164 L816 180 L808 391 C806 432 774 448 744 448 L626 448 C595 448 567 433 550 401 L477 267 C467 274 454 278 443 278 L335 278 C311 278 284 265 279 238 L265 168 L227 413 C296 415 319 465 391 452 L366 600 C245 600 262 562 205 559 L204 568 L184 566 L254 118 L251 103 L285 93 L291 113 L275 117 L299 234 C303 251 316 258 335 258 L443 258 C461 258 478 248 480 230 L497 94 L451 89 L450 167 L430 167 L431 -80 L396 -80 L396 72 L376 72 L376 -80 L341 -80 L341 120 L338 190 L318 190 L321 120 L321 -100 L451 -100 L451 68 L519 76 L508 168 L589 296 L593 250 L571 -100 L639 -100 L669 148 L698 -100 L767 -100 L746 250 L749 361 L729 361 L726 250 L745 -80 L716 -80 L687 168 L650 168 L621 -80 L593 -80 L613 250 L603 364 L583 362 L586 327 L504 197 L500 232 C499 239 496 246 492 252 L568 391 C583 418 601 428 626 428 L744 428 C767 428 787 418 788 391 L796 194 L763 184 Z M660 589 C685 589 700 583 709 567 C709 541 702 493 698 487 C696 484 675 476 660 472 C646 475 624 483 622 487 C619 495 612 541 612 567 C621 583 635 589 660 589 L660 589 Z M350 580 L367 474 C306 474 280 435 224 433 L208 539 C264 543 271 578 350 580 L350 580 Z M379 433 C350 433 328 418 319 393 C319 379 327 333 336 317 C343 305 378 297 391 297 C405 301 438 313 442 328 C450 355 449 376 446 403 C433 426 408 433 379 433 L379 433 Z M426 397 C429 374 429 355 422 332 C422 330 402 321 389 317 C376 318 355 324 354 326 C347 339 340 375 339 389 C346 404 358 413 381 413 C404 413 417 410 426 397 L426 397 Z M669 347 C669 337 676 330 686 330 C695 330 703 337 703 347 C703 356 695 364 686 364 C676 364 669 356 669 347 L669 347 Z M422 207 C422 216 414 224 405 224 C396 224 388 216 388 207 C388 197 396 190 405 190 C414 190 422 197 422 207 L422 207 Z " />
<glyph glyph-name="asciicircum" unicode="&#x5e;" horiz-adv-x="1000" d="M216 269 L252 233 C263 222 284 210 299 206 L412 175 C427 171 451 171 465 175 L515 188 C530 192 549 210 553 226 L576 310 C581 327 573 350 561 362 L525 398 C514 409 494 421 479 425 L366 455 C350 459 327 460 312 456 L262 443 C247 439 229 420 225 404 L202 320 C197 302 203 282 216 269 L216 269 Z M345 438 L473 405 C486 402 502 393 511 384 L547 348 C555 340 559 327 556 315 L533 232 C530 220 520 211 509 208 L460 195 C449 192 429 192 417 195 L304 226 C300 227 295 228 290 231 L345 438 Z M222 314 L245 399 C248 410 257 420 268 423 L323 437 L272 242 L266 247 L230 283 C222 291 219 304 222 314 L222 314 Z M173 330 L194 410 L174 416 L153 336 L173 330 Z M850 12 L850 315 L608 315 L608 209 L572 209 L524 32 L493 32 C489 68 456 99 418 99 C380 99 347 68 343 32 L320 32 C316 68 282 99 245 99 C235 99 226 97 217 93 L170 183 L170 220 L278 127 L394 127 L394 147 L286 147 L170 248 L170 307 L150 307 L150 179 L199 83 C181 68 169 46 169 23 C169 -18 204 -54 245 -54 C281 -54 314 -24 320 12 L343 12 C348 -24 381 -54 418 -54 C455 -54 488 -24 493 12 L628 12 L628 295 L830 295 L830 256 L715 256 L715 159 L830 159 L830 32 L803 32 C799 68 765 99 728 99 C687 99 652 63 652 23 C652 -18 687 -54 728 -54 C764 -54 797 -24 803 12 L850 12 Z M830 179 L735 179 L735 236 L830 236 L830 179 Z M608 32 L546 32 L588 189 L608 189 L608 32 Z M245 -34 C214 -34 189 -8 189 23 C189 53 214 79 245 79 C275 79 301 53 301 23 C301 -8 275 -34 245 -34 L245 -34 Z M418 -34 C387 -34 362 -8 362 23 C362 53 387 79 418 79 C449 79 474 53 474 23 C474 -8 449 -34 418 -34 L418 -34 Z M728 -34 C697 -34 672 -8 672 23 C672 53 697 79 728 79 C758 79 784 53 784 23 C784 -8 758 -34 728 -34 L728 -34 Z " />
<glyph glyph-name="underscore" unicode="&#x5f;" horiz-adv-x="1000" d="M784 396 L850 521 L820 552 C812 561 796 564 789 552 L733 452 L657 397 L547 428 C524 480 513 543 507 600 L441 600 L409 506 L349 419 L244 401 C200 393 178 370 174 336 L150 141 L207 136 C210 111 215 84 223 57 L184 -54 C176 -77 193 -100 217 -100 L241 -100 L319 47 L352 47 L338 -100 L379 -100 C395 -100 410 -89 413 -75 L443 56 C443 113 411 169 374 234 L390 325 L462 434 L511 339 L550 215 L471 76 L495 -72 C497 -87 512 -100 529 -100 L572 -100 L572 60 L624 139 L628 139 L602 -100 L681 -100 L728 134 C739 189 742 226 723 253 L691 298 L784 396 Z M454 458 L372 333 L352 230 C389 167 419 117 423 67 L242 67 C224 131 221 192 227 224 L239 291 L219 295 L207 228 C204 211 203 185 205 156 L172 159 L194 330 C198 362 214 375 248 381 L361 401 L427 498 L455 580 L485 580 L454 458 Z M226 420 L284 435 C311 442 323 463 315 502 L304 556 C289 572 276 577 258 577 C212 577 198 565 188 525 L172 463 C169 451 188 410 226 420 L226 420 Z M612 436 C626 435 654 438 666 447 C673 457 692 502 696 523 C691 554 659 574 626 574 C608 574 592 568 580 554 C574 532 570 483 570 473 C574 463 600 441 612 436 L612 436 Z M192 461 L208 520 C216 550 220 558 260 558 C270 558 277 554 286 546 L296 499 C302 471 296 459 280 455 L222 440 C203 435 189 449 192 461 L192 461 Z M617 456 C607 461 594 472 589 478 C589 491 594 526 598 544 C605 551 615 554 628 554 C646 554 670 544 676 523 C671 507 658 474 651 461 C644 458 628 456 617 456 L617 456 Z M768 408 L665 300 L641 265 L657 253 L678 282 L707 241 C722 220 718 191 708 138 L665 -80 L624 -80 L650 159 L614 159 L552 66 L552 -80 L529 -80 C520 -80 516 -76 515 -68 L491 72 L572 213 L529 347 L474 456 L495 539 C502 495 514 450 533 412 L661 375 L749 438 L805 540 L826 517 L768 408 Z M296 47 L229 -80 L217 -80 C205 -80 198 -71 202 -60 L241 47 L296 47 Z M420 47 L392 -70 C390 -77 387 -80 379 -80 L360 -80 L372 47 L420 47 Z " />
<glyph glyph-name="a" unicode="a" horiz-adv-x="1000" d="M399 483 L399 500 L596 500 L596 483 L616 483 L616 520 L565 520 L565 564 L545 564 L545 520 L461 520 L461 600 L441 600 L441 520 L379 520 L379 483 L399 483 Z M760 73 L685 73 L685 458 L314 458 L314 73 L240 73 L240 -100 L260 -100 L260 53 L334 53 L334 438 L665 438 L665 53 L740 53 L740 -100 L760 -100 L760 73 Z M363 410 L363 -100 L383 -100 L383 410 L363 410 Z M425 410 L425 -100 L445 -100 L445 410 L425 410 Z M488 410 L488 -100 L508 -100 L508 410 L488 410 Z M550 410 L550 -100 L570 -100 L570 410 L550 410 Z M613 410 L613 -100 L633 -100 L633 410 L613 410 Z M300 21 L300 -100 L320 -100 L320 21 L300 21 Z M675 21 L675 -100 L695 -100 L695 21 L675 21 Z " />
<glyph glyph-name="b" unicode="b" horiz-adv-x="1000" d="M171 435 L353 563 L535 435 L547 451 L353 587 L159 451 L171 435 Z M865 332 L877 348 L663 500 L508 390 L508 434 L488 448 L488 376 L452 350 L452 403 L367 403 L367 306 L358 299 L329 299 L329 400 L243 400 L243 299 L208 299 L208 441 L188 427 L188 279 L263 279 L263 380 L309 380 L309 279 L330 279 L123 132 L135 116 L418 318 L722 101 L734 117 L683 153 L828 153 L828 338 L808 352 L808 173 L655 173 L640 184 L640 317 L553 317 L553 246 L452 318 L452 326 L663 476 L865 332 Z M432 332 L418 342 L387 320 L387 383 L432 383 L432 332 Z M679 234 L771 234 L771 317 L679 317 L679 234 Z M573 232 L573 297 L620 297 L620 198 L573 232 Z M699 254 L699 297 L751 297 L751 254 L699 254 Z M622 154 L622 -65 L382 -65 L382 103 L269 103 L269 -65 L213 -65 L213 153 L193 138 L193 -85 L289 -85 L289 83 L362 83 L362 -85 L642 -85 L642 140 L622 154 Z M586 103 L475 103 L475 -5 L586 -5 L586 103 Z M566 83 L566 15 L495 15 L495 83 L566 83 Z " />
<glyph glyph-name="c" unicode="c" horiz-adv-x="1000" d="M664 580 L664 598 L644 598 L644 354 L171 452 L171 23 L422 23 L422 208 L523 208 L523 23 L777 23 L777 327 L664 350 L664 465 C669 464 674 464 678 464 C717 465 736 484 786 484 C798 484 812 483 829 480 L829 596 C812 599 798 600 786 600 C732 600 715 580 678 579 C674 579 669 579 664 580 L664 580 Z M809 578 L809 503 C800 504 792 505 785 505 C738 505 719 484 679 484 C674 484 669 484 664 485 L664 560 L675 560 C716 560 732 580 785 580 C792 580 800 579 809 578 L809 578 Z M191 43 L191 428 L757 311 L757 43 L543 43 L543 228 L402 228 L402 43 L191 43 Z M242 266 L242 146 L362 146 L362 266 L242 266 Z M706 146 L706 266 L586 266 L586 146 L706 146 Z M262 166 L262 246 L342 246 L342 166 L262 166 Z M686 246 L686 166 L606 166 L606 246 L686 246 Z M767 -15 L181 -15 L181 -73 L201 -73 L201 -35 L370 -35 L370 -73 L390 -73 L390 -35 L558 -35 L558 -73 L578 -73 L578 -35 L747 -35 L747 -73 L767 -73 L767 -15 Z " />
<glyph glyph-name="d" unicode="d" horiz-adv-x="1000" d="M823 -56 L748 -56 L748 44 L710 44 L710 162 L750 162 L750 182 L706 182 C706 276 642 356 558 382 L558 414 L506 414 L506 471 C538 474 558 490 604 490 C616 490 630 489 647 486 L647 596 C630 599 616 600 604 600 C555 600 537 583 506 580 L506 600 L486 600 L486 414 L439 414 L439 382 C354 356 290 276 290 182 L250 182 L250 162 L290 162 L290 44 L252 44 L252 -56 L177 -56 L177 -103 L197 -103 L197 -76 L803 -76 L803 -103 L823 -103 L823 -56 Z M627 578 L627 509 C618 510 610 511 603 511 C560 511 540 493 506 490 L506 561 C537 564 556 580 601 580 C608 580 617 579 627 578 L627 578 Z M459 366 L459 394 L538 394 L538 366 C622 348 686 272 686 182 L310 182 C310 272 374 348 459 366 L459 366 Z M310 44 L310 162 L690 162 L690 44 L310 44 Z M351 138 L351 73 L411 73 L411 138 L351 138 Z M470 138 L470 73 L530 73 L530 138 L470 138 Z M589 138 L589 73 L649 73 L649 138 L589 138 Z M728 -56 L272 -56 L272 24 L728 24 L728 -56 Z M361 4 L361 -40 L401 -40 L401 4 L361 4 Z M480 4 L480 -40 L520 -40 L520 4 L480 4 Z M599 4 L599 -40 L639 -40 L639 4 L599 4 Z " />
<glyph glyph-name="e" unicode="e" horiz-adv-x="1000" d="M548 514 L548 620 L224 620 L224 514 L548 514 Z M528 600 L528 534 L244 534 L244 600 L528 600 Z M619 359 L619 428 C639 431 670 435 697 513 C700 500 702 488 702 475 C702 448 694 422 680 401 C666 380 645 365 619 359 L619 359 Z M167 484 L167 -100 L604 -100 L604 484 L167 484 Z M631 309 C666 327 685 365 707 400 C731 438 757 466 805 466 C781 437 769 404 753 376 C732 338 704 309 631 309 L631 309 Z M187 -80 L187 464 L584 464 L584 -80 L421 -80 L421 79 L347 79 L347 -80 L187 -80 Z M298 399 L224 399 L224 301 L298 301 L298 399 Z M421 301 L421 399 L347 399 L347 301 L421 301 Z M544 301 L544 399 L471 399 L471 301 L544 301 Z M619 209 L619 271 C691 278 759 311 787 378 C789 370 789 363 789 356 C789 320 770 289 742 266 C705 235 687 226 619 209 L619 209 Z M627 165 C665 175 693 193 716 210 C744 230 767 248 795 248 C807 248 819 245 833 238 C799 217 776 196 755 181 C734 166 714 157 684 156 C669 156 650 159 627 165 L627 165 Z M224 238 L224 140 L298 140 L298 238 L224 238 Z M421 140 L421 238 L347 238 L347 140 L421 140 Z M544 140 L544 238 L471 238 L471 140 L544 140 Z M619 62 L619 137 C638 132 656 129 674 129 C715 129 752 143 786 171 C781 131 753 101 717 85 C686 71 650 62 619 62 L619 62 Z M224 79 L224 -19 L298 -19 L298 79 L224 79 Z M544 -19 L544 79 L471 79 L471 -19 L544 -19 Z " />
<glyph glyph-name="f" unicode="f" horiz-adv-x="1000" d="M850 276 L749 276 L749 357 L729 357 L729 276 L661 276 C655 341 607 396 547 415 L548 440 L508 440 L508 483 C533 489 553 500 593 500 C606 500 619 499 636 496 L636 596 C619 599 605 600 593 600 C551 600 532 588 508 583 L508 594 L488 594 L488 440 L452 440 L451 415 C392 396 346 341 340 276 L271 276 L271 357 L251 357 L251 276 L150 276 L150 256 L850 256 L850 276 Z M616 578 L616 519 C608 520 600 520 593 520 C555 520 535 509 508 503 L508 563 C532 568 552 580 591 580 C599 580 607 579 616 578 L616 578 Z M471 399 L471 420 L528 420 L527 399 C586 388 634 337 641 276 L360 276 C366 337 413 388 471 399 L471 399 Z M850 220 L150 220 L150 9 L244 9 L244 91 L288 91 L288 9 L459 9 L459 91 L542 91 L542 9 L710 9 L710 91 L753 91 L753 9 L850 9 L850 220 Z M308 111 L224 111 L224 29 L170 29 L170 200 L210 200 L210 171 L230 171 L230 200 L281 200 L281 171 L301 171 L301 200 L351 200 L351 29 L308 29 L308 111 Z M562 111 L439 111 L439 29 L371 29 L371 200 L414 200 L414 171 L434 171 L434 200 L490 200 L490 171 L510 171 L510 200 L566 200 L566 171 L586 171 L586 200 L629 200 L629 29 L562 29 L562 111 Z M830 200 L830 29 L773 29 L773 111 L690 111 L690 29 L649 29 L649 200 L699 200 L699 171 L719 171 L719 200 L770 200 L770 171 L790 171 L790 200 L830 200 Z M763 -28 L237 -28 L237 -48 L763 -48 L763 -28 Z M187 -84 L187 -104 L813 -104 L813 -84 L187 -84 Z " />
<glyph glyph-name="g" unicode="g" horiz-adv-x="1000" d="M860 112 L765 112 L765 595 L235 595 L235 112 L140 112 L140 -100 L160 -100 L160 92 L840 92 L840 -100 L860 -100 L860 112 Z M255 112 L255 575 L745 575 L745 112 L608 112 L608 454 L388 454 L388 112 L255 112 Z M282 531 L282 482 L302 482 L302 531 L282 531 Z M362 531 L342 531 L342 482 L362 482 L362 531 Z M421 482 L421 531 L401 531 L401 482 L421 482 Z M480 482 L480 531 L460 531 L460 482 L480 482 Z M540 482 L540 531 L520 531 L520 482 L540 482 Z M599 482 L599 531 L579 531 L579 482 L599 482 Z M658 482 L658 531 L638 531 L638 482 L658 482 Z M718 482 L718 531 L698 531 L698 482 L718 482 Z M282 444 L282 394 L302 394 L302 444 L282 444 Z M342 444 L342 394 L362 394 L362 444 L342 444 Z M658 394 L658 444 L638 444 L638 394 L658 394 Z M718 394 L718 444 L698 444 L698 394 L718 394 Z M546 392 L451 392 L451 112 L408 112 L408 434 L588 434 L588 112 L546 112 L546 392 Z M526 372 L526 112 L471 112 L471 372 L526 372 Z M282 357 L282 307 L302 307 L302 357 L282 357 Z M342 357 L342 307 L362 307 L362 357 L342 357 Z M658 307 L658 357 L638 357 L638 307 L658 307 Z M718 307 L718 357 L698 357 L698 307 L718 307 Z M282 269 L282 219 L302 219 L302 269 L282 269 Z M342 269 L342 219 L362 219 L362 269 L342 269 Z M658 219 L658 269 L638 269 L638 219 L658 219 Z M718 219 L718 269 L698 269 L698 219 L718 219 Z M282 182 L282 132 L302 132 L302 182 L282 182 Z M342 182 L342 132 L362 132 L362 182 L342 182 Z M658 132 L658 182 L638 182 L638 132 L658 132 Z M718 132 L718 182 L698 182 L698 132 L718 132 Z M190 53 L190 3 L210 3 L210 53 L190 53 Z M247 53 L247 3 L267 3 L267 53 L247 53 Z M733 53 L733 3 L753 3 L753 53 L733 53 Z M790 53 L790 3 L810 3 L810 53 L790 53 Z M302 50 L302 -100 L322 -100 L322 30 L384 30 L384 11 L399 11 L399 -85 L419 -85 L419 11 L434 11 L434 30 L566 30 L566 11 L581 11 L581 -85 L601 -85 L601 11 L616 11 L616 30 L678 30 L678 -100 L698 -100 L698 50 L302 50 Z M190 -22 L190 -72 L210 -72 L210 -22 L190 -22 Z M247 -22 L247 -72 L267 -72 L267 -22 L247 -22 Z M733 -22 L733 -72 L753 -72 L753 -22 L733 -22 Z M790 -22 L790 -72 L810 -72 L810 -22 L790 -22 Z M471 -25 L471 -85 L529 -85 L529 -25 L471 -25 Z " />
<glyph glyph-name="h" unicode="h" horiz-adv-x="1000" d="M674 504 L674 610 L326 610 L326 504 L674 504 Z M654 590 L654 524 L346 524 L346 590 L654 590 Z M719 454 L761 454 L761 474 L240 474 L240 454 L281 454 L281 314 L254 314 L254 294 L281 294 L281 153 L254 153 L254 133 L281 133 L281 -6 L254 -6 L254 -26 L281 -26 L281 -110 L719 -110 L719 -26 L746 -26 L746 -6 L719 -6 L719 133 L746 133 L746 153 L719 153 L719 294 L746 294 L746 314 L719 314 L719 454 Z M699 454 L699 -90 L535 -90 L535 69 L461 69 L461 -90 L301 -90 L301 454 L699 454 Z M412 291 L412 389 L338 389 L338 291 L412 291 Z M535 291 L535 389 L461 389 L461 291 L535 291 Z M659 291 L659 389 L585 389 L585 291 L659 291 Z M412 130 L412 228 L338 228 L338 130 L412 130 Z M535 130 L535 228 L461 228 L461 130 L535 130 Z M659 130 L659 228 L585 228 L585 130 L659 130 Z M412 -29 L412 69 L338 69 L338 -29 L412 -29 Z M659 -29 L659 69 L585 69 L585 -29 L659 -29 Z " />
<glyph glyph-name="i" unicode="i" horiz-adv-x="1000" d="M325 540 L313 458 L382 449 C400 446 424 463 428 483 L440 539 C433 563 398 579 372 579 C350 579 329 562 325 540 L325 540 Z M345 537 C347 549 360 559 373 559 C391 559 412 550 419 537 L409 490 C406 476 391 468 384 469 L336 475 L345 537 Z M850 516 L557 516 L557 222 L577 222 L577 496 L830 496 L830 -29 L850 -29 L850 516 Z M442 327 L382 406 C378 412 372 417 365 420 C331 433 321 437 310 437 C296 437 284 433 266 424 L202 392 L160 298 C151 279 161 254 181 248 L200 242 L242 313 L262 328 L230 225 L212 98 L150 -19 L188 -35 C201 -41 220 -34 228 -22 L294 82 L303 121 L318 100 L334 -44 L365 -44 C383 -44 400 -27 400 -9 L400 123 L367 233 L375 289 L389 265 L435 220 C447 209 467 208 480 218 L512 242 L442 327 Z M347 231 L380 121 L380 -9 C380 -18 374 -24 365 -24 L352 -24 L338 108 L281 185 L265 173 L287 143 L276 90 L212 -10 C206 -19 204 -20 196 -17 L178 -9 L232 92 L250 221 L288 347 L265 355 L226 327 L192 266 L188 267 C178 269 174 281 178 290 L218 378 L274 406 C292 415 301 417 310 417 C317 417 318 417 357 402 C368 398 370 389 368 375 L347 231 Z M484 246 L468 234 C461 229 455 228 449 234 L405 277 L380 319 L387 367 L426 315 L484 246 Z M662 255 L642 234 L677 199 L526 199 L526 170 L677 170 L642 134 L662 114 L733 184 L662 255 Z M560 145 L560 -29 L584 -29 L584 145 L560 145 Z " />
<glyph glyph-name="j" unicode="j" horiz-adv-x="1000" d="M716 495 L736 493 C737 499 737 504 737 510 C737 520 736 531 734 540 C757 528 768 503 766 470 C791 470 808 450 808 424 L828 424 C828 452 812 478 786 487 C783 525 763 554 725 566 C716 582 703 596 685 607 L675 591 C705 571 717 549 717 514 C717 508 717 502 716 495 L716 495 Z M211 429 C232 404 266 393 298 393 C322 393 344 399 359 410 C372 399 391 392 412 392 C435 392 459 400 476 418 C495 398 518 388 541 388 C566 388 591 400 607 423 C624 410 641 405 662 405 C687 405 713 418 731 442 L715 454 C701 435 681 425 662 425 C634 425 607 441 596 472 C587 467 577 463 566 463 C517 463 480 497 480 546 C480 554 481 563 484 572 L466 578 C462 569 461 557 460 548 C448 529 428 517 407 517 C385 517 362 529 346 556 C335 543 317 537 302 537 C291 537 281 540 278 545 L262 533 C269 523 284 518 302 518 C315 518 330 521 342 528 C346 523 351 519 356 515 C343 503 336 484 336 465 C336 451 340 437 347 425 C336 418 318 413 298 413 C268 413 248 420 231 438 C249 450 260 472 260 492 L240 492 C240 466 221 448 195 448 C186 448 178 450 171 455 L159 439 C170 431 184 428 198 428 C202 428 207 428 211 429 L211 429 Z M374 504 C385 500 396 497 407 497 C428 497 448 506 463 521 C472 477 513 443 566 443 C573 443 583 445 586 446 L592 439 C580 418 561 408 541 408 C522 408 503 417 488 435 L494 449 L476 455 C465 424 437 412 412 412 C396 412 380 417 371 426 C360 436 355 451 355 465 C355 482 362 498 374 504 L374 504 Z M261 348 L249 364 C241 359 233 356 225 356 C203 356 180 372 180 400 L160 400 C160 368 185 337 225 337 C238 337 251 341 261 348 L261 348 Z M821 -98 L841 -98 L829 332 L716 332 L708 66 L640 66 L640 114 L569 114 L569 134 L549 134 L549 114 L507 114 L507 134 L487 134 L487 114 L444 114 L444 134 L424 134 L424 114 L382 114 L382 134 L362 134 L362 114 L268 114 L268 31 L208 59 L208 -98 L228 -98 L228 27 L288 -1 L288 94 L620 94 L620 46 L708 46 L708 -16 L728 -16 L728 55 L732 170 L754 170 L754 190 L732 190 L736 312 L809 312 L810 271 L789 271 L789 251 L811 251 L819 -27 L800 -27 L800 -47 L820 -47 L821 -98 Z M763 122 L763 102 L788 102 L788 122 L763 122 Z M331 66 L331 -98 L351 -98 L351 66 L331 66 Z M393 66 L393 -98 L413 -98 L413 66 L393 66 Z M456 66 L456 -98 L476 -98 L476 66 L456 66 Z M518 66 L518 -98 L538 -98 L538 66 L518 66 Z M581 66 L581 -98 L601 -98 L601 66 L581 66 Z M643 13 L643 -98 L663 -98 L663 13 L643 13 Z M268 -24 L268 -98 L288 -98 L288 -24 L268 -24 Z " />
<glyph glyph-name="k" unicode="k" horiz-adv-x="1000" d="M283 312 L283 288 L337 288 L337 41 L357 41 L357 308 L303 308 L303 335 L500 484 L697 335 L697 308 L643 308 L643 41 L663 41 L663 288 L717 288 L717 312 L850 312 L850 475 L548 475 L500 510 L452 475 L150 475 L150 312 L283 312 Z M283 332 L170 332 L170 455 L428 455 L283 345 L283 332 Z M572 455 L830 455 L830 332 L717 332 L717 345 L572 455 Z M500 325 C518 325 533 340 533 359 C533 377 518 392 500 392 C482 392 467 377 467 359 C467 340 482 325 500 325 L500 325 Z M209 170 L209 229 L150 229 L150 170 L209 170 Z M302 170 L302 229 L243 229 L243 170 L302 170 Z M477 170 L477 229 L418 229 L418 170 L477 170 Z M582 170 L582 229 L523 229 L523 170 L582 170 Z M758 170 L758 229 L699 229 L699 170 L758 170 Z M850 229 L791 229 L791 170 L850 170 L850 229 Z M209 70 L209 129 L150 129 L150 70 L209 70 Z M243 129 L243 70 L302 70 L302 129 L243 129 Z M418 129 L418 70 L477 70 L477 129 L418 129 Z M582 70 L582 129 L523 129 L523 70 L582 70 Z M699 129 L699 70 L758 70 L758 129 L699 129 Z M791 129 L791 70 L850 70 L850 129 L791 129 Z M150 13 L150 -7 L850 -7 L850 13 L150 13 Z " />
<glyph glyph-name="l" unicode="l" horiz-adv-x="1000" d="M810 143 L850 143 L850 163 L662 163 L610 233 L610 434 L500 596 L390 434 L390 233 L338 163 L150 163 L150 143 L190 143 L190 82 L150 82 L150 62 L310 62 L310 -60 L242 -60 L242 2 L200 2 L200 -60 L150 -60 L150 -80 L850 -80 L850 -60 L800 -60 L800 2 L758 2 L758 -60 L690 -60 L690 62 L850 62 L850 82 L810 82 L810 143 Z M670 -60 L584 -60 L584 78 L610 78 L610 98 L388 98 L388 78 L414 78 L414 -60 L330 -60 L330 119 L410 227 L410 428 L500 560 L590 428 L590 227 L670 119 L670 -60 Z M499 438 C482 438 468 424 468 407 C468 390 482 376 499 376 C516 376 530 390 530 407 C530 424 516 438 499 438 L499 438 Z M478 297 L478 255 L520 255 L520 297 L478 297 Z M478 203 L478 161 L520 161 L520 203 L478 203 Z M210 82 L210 143 L250 143 L250 82 L210 82 Z M310 82 L270 82 L270 143 L323 143 L310 125 L310 82 Z M690 125 L677 143 L730 143 L730 82 L690 82 L690 125 Z M790 143 L790 82 L750 82 L750 143 L790 143 Z M434 78 L564 78 L564 -60 L520 -60 L520 2 L478 2 L478 -60 L434 -60 L434 78 Z " />
<glyph glyph-name="m" unicode="m" horiz-adv-x="1000" d="M134 277 L146 261 L500 513 L854 261 L866 277 L500 537 L134 277 Z M211 282 L191 268 L191 -35 L324 -35 L324 215 L441 215 L441 -35 L809 -35 L809 268 L789 282 L789 -15 L461 -15 L461 235 L304 235 L304 -15 L211 -15 L211 282 Z M580 128 L712 128 L712 266 L580 266 L580 128 Z M692 246 L692 148 L600 148 L600 246 L692 246 Z " />
<glyph glyph-name="n" unicode="n" horiz-adv-x="1000" d="M866 241 L696 362 L696 449 C730 451 749 468 797 468 C809 468 823 467 839 464 L839 574 C823 577 809 578 796 578 C746 578 727 560 696 558 L696 581 L676 581 L676 376 L500 501 L134 241 L146 225 L500 477 L854 225 L866 241 Z M819 556 L819 487 C811 488 803 489 796 489 C751 489 731 471 696 468 L696 538 C729 541 747 558 793 558 C801 558 810 557 819 556 L819 556 Z M757 270 L757 127 L699 127 L699 188 L674 188 L674 328 L654 342 L654 188 L510 188 L510 194 L642 350 L626 363 L510 225 L510 444 L500 451 L490 444 L490 225 L374 362 L358 350 L359 349 L359 188 L317 188 L317 -8 L243 203 L243 270 L223 256 L223 -71 L337 -71 L337 168 L446 168 L446 -71 L777 -71 L777 256 L757 270 Z M490 188 L379 188 L379 325 L490 194 L490 188 Z M466 168 L567 168 L466 -21 L466 168 Z M594 168 L679 168 L679 68 L594 68 L594 168 Z M243 -51 L243 146 L312 -51 L243 -51 Z M574 48 L626 48 L626 -51 L473 -51 L574 138 L574 48 Z M757 -51 L646 -51 L646 48 L699 48 L699 107 L757 107 L757 -51 Z " />
<glyph glyph-name="o" unicode="o" horiz-adv-x="1000" d="M481 465 L500 524 L508 522 L538 594 L503 609 L489 572 L471 579 L471 608 C439 616 432 619 416 619 C389 619 371 607 365 580 L305 511 L344 502 C351 500 359 502 363 506 L347 445 L306 445 C239 445 219 403 225 356 L232 305 C194 294 166 275 150 252 L150 171 C161 215 182 246 238 265 C238 255 242 246 248 239 L150 -72 L173 -91 C189 -105 215 -102 227 -81 L337 115 L404 53 L404 -100 L447 -100 C465 -100 481 -84 482 -66 L489 61 C491 92 482 114 471 134 L461 152 L495 160 L495 278 L475 278 L475 176 L425 164 L425 299 L451 304 C461 301 472 299 483 299 C504 299 523 305 530 315 L530 377 L435 377 L435 342 L307 319 L304 354 L363 358 L361 378 L282 372 L290 256 L269 250 C265 249 260 254 259 259 L245 358 C239 397 253 425 306 425 L398 425 L493 410 L497 430 L458 436 C468 442 476 451 481 465 L481 465 Z M837 572 C844 572 850 578 850 585 C850 592 844 598 837 598 C830 598 824 592 824 585 C824 578 830 572 837 572 L837 572 Z M763 537 C773 537 782 546 782 556 C782 566 773 575 763 575 C753 575 744 566 744 556 C744 546 753 537 763 537 L763 537 Z M424 449 L372 462 L396 553 L480 527 L462 471 C456 452 436 446 424 449 L424 449 Z M831 508 C841 508 850 517 850 527 C850 537 841 546 831 546 C821 546 812 537 812 527 C812 517 821 508 831 508 L831 508 Z M800 462 L793 499 C791 510 785 514 778 515 C773 515 767 513 763 510 L681 450 C640 420 593 395 560 387 L560 367 C595 377 649 403 693 434 L774 491 L780 458 C783 441 799 437 814 439 L850 444 L850 463 L812 458 C805 457 801 457 800 462 L800 462 Z M607 459 C614 459 620 465 620 472 C620 479 614 485 607 485 C600 485 594 479 594 472 C594 465 600 459 607 459 L607 459 Z M759 403 C766 403 772 409 772 416 C772 423 766 429 759 429 C752 429 746 423 746 416 C746 409 752 403 759 403 L759 403 Z M731 362 C738 362 744 368 744 375 C744 382 738 388 731 388 C724 388 718 382 718 375 C718 368 724 362 731 362 L731 362 Z M850 356 L850 386 C834 386 821 381 821 371 C821 361 834 356 850 356 L850 356 Z M455 322 L455 357 L510 357 L510 322 C507 320 495 318 482 318 C470 318 458 319 455 322 L455 322 Z M731 331 C683 331 645 324 598 324 C583 324 570 325 560 327 L560 307 C570 305 583 304 598 304 C633 304 696 311 732 311 C770 311 800 307 850 295 L850 315 C799 328 785 331 731 331 L731 331 Z M266 227 L312 242 L309 278 L388 292 L342 162 L244 157 L266 227 Z M405 138 L441 146 L453 124 C464 106 470 88 469 62 L462 -65 C461 -75 457 -80 447 -80 L424 -80 L424 61 L339 141 L356 142 L405 281 L405 138 Z M831 221 C841 221 850 230 850 240 C850 250 841 259 831 259 C821 259 812 250 812 240 C812 230 821 221 831 221 L831 221 Z M850 104 C824 110 803 125 789 146 C775 167 767 193 767 220 C767 233 769 245 772 258 C799 180 830 176 850 173 L850 104 Z M838 54 C765 54 737 83 716 121 C700 149 688 182 664 211 C712 211 738 183 762 145 C784 110 803 72 838 54 L838 54 Z M327 141 L210 -71 C205 -80 193 -82 185 -75 L174 -66 L237 136 L327 141 Z M850 -46 C782 -29 764 -20 727 11 C699 34 680 65 680 101 C680 108 680 115 682 123 C710 56 778 23 850 16 L850 -46 Z M842 -90 C819 -96 800 -99 785 -99 C755 -98 735 -89 714 -74 C693 -59 670 -38 636 -17 C650 -10 662 -7 674 -7 C702 -7 725 -25 753 -45 C776 -62 804 -80 842 -90 L842 -90 Z " />
<glyph glyph-name="p" unicode="p" horiz-adv-x="1000" d="M176 380 L196 384 L187 431 L238 442 L255 364 L764 469 L760 489 L733 483 L721 542 L748 548 L744 568 L163 447 L176 380 Z M701 538 L713 479 L641 464 L628 523 L701 538 Z M548 445 L536 504 L608 519 L621 460 L548 445 Z M516 500 L528 441 L456 426 L443 484 L516 500 Z M423 480 L436 422 L363 407 L351 465 L423 480 Z M331 461 L343 403 L271 388 L258 446 L331 461 Z M850 12 L850 327 L752 327 L752 358 C752 383 729 406 704 406 L662 406 C638 406 615 383 615 358 L615 327 L534 327 L534 292 L357 292 L357 327 L150 327 L150 15 L181 15 C186 -23 219 -54 257 -54 C294 -54 327 -24 332 12 L646 12 C652 -24 685 -54 721 -54 C758 -54 791 -24 796 12 L850 12 Z M830 32 L796 32 C792 68 759 99 721 99 L554 99 L554 307 L635 307 L635 358 C635 373 648 386 662 386 L673 386 L673 311 L693 311 L693 386 L704 386 C719 386 732 373 732 358 L732 307 L830 307 L830 268 L690 268 L690 147 L830 147 L830 32 Z M170 35 L170 307 L337 307 L337 272 L534 272 L534 32 L332 32 C330 47 324 61 314 72 L478 72 L478 92 L288 92 C278 96 268 99 257 99 C220 99 188 70 182 35 L170 35 Z M830 248 L830 167 L710 167 L710 248 L830 248 Z M355 134 L355 222 L478 222 L478 242 L335 242 L335 134 L355 134 Z M391 192 L391 172 L478 172 L478 192 L391 192 Z M391 142 L391 122 L478 122 L478 142 L391 142 Z M257 -34 C226 -34 201 -8 201 23 C201 53 226 79 257 79 C288 79 313 53 313 23 C313 -8 288 -34 257 -34 L257 -34 Z M554 32 L554 79 L671 79 C658 67 648 50 646 32 L554 32 Z M721 -34 C691 -34 665 -8 665 23 C665 53 691 79 721 79 C752 79 777 53 777 23 C777 -8 752 -34 721 -34 L721 -34 Z " />
<glyph glyph-name="q" unicode="q" horiz-adv-x="1000" d="M357 497 L357 527 L479 527 L479 497 L499 497 L499 547 L460 547 L460 568 L440 568 L440 547 L381 547 L381 599 L361 599 L361 547 L337 547 L337 497 L357 497 Z M628 404 L628 473 C648 476 679 480 706 558 C709 545 711 533 711 520 C711 493 703 467 689 446 C675 425 654 410 628 404 L628 404 Z M640 354 C675 372 694 410 716 445 C740 483 766 511 814 511 C790 482 778 449 762 421 C741 383 713 354 640 354 L640 354 Z M603 74 L603 472 L233 472 L233 74 L158 74 L158 -99 L178 -99 L178 54 L253 54 L253 452 L583 452 L583 54 L658 54 L658 -99 L678 -99 L678 74 L603 74 Z M281 424 L281 -99 L301 -99 L301 424 L281 424 Z M343 424 L343 -99 L363 -99 L363 424 L343 424 Z M406 424 L406 -99 L426 -99 L426 424 L406 424 Z M468 424 L468 -99 L488 -99 L488 424 L468 424 Z M531 424 L531 -99 L551 -99 L551 424 L531 424 Z M628 254 L628 316 C700 323 768 356 796 423 C798 415 798 408 798 401 C798 365 779 334 751 311 C714 280 696 271 628 254 L628 254 Z M636 210 C674 220 702 238 725 255 C753 275 776 293 804 293 C816 293 828 290 842 283 C808 262 785 241 764 226 C743 211 723 202 693 201 C678 201 659 204 636 210 L636 210 Z M628 107 L628 182 C647 177 665 174 683 174 C724 174 761 188 795 216 C790 176 762 146 726 130 C695 116 659 107 628 107 L628 107 Z M206 21 L206 -99 L226 -99 L226 21 L206 21 Z M606 21 L606 -99 L626 -99 L626 21 L606 21 Z " />
<glyph glyph-name="r" unicode="r" horiz-adv-x="1000" d="M188 133 L213 133 L213 153 L188 153 C179 153 170 162 170 171 L170 559 C170 568 179 577 188 577 L213 577 L213 597 L188 597 C169 597 150 579 150 559 L150 171 C150 152 169 133 188 133 L188 133 Z M525 597 L500 597 L500 577 L525 577 C534 577 543 568 543 559 L543 171 C543 162 534 153 525 153 L500 153 L500 133 L525 133 C544 133 563 152 563 171 L563 559 C563 579 544 597 525 597 L525 597 Z M263 74 L263 520 C263 526 259 530 253 530 C247 530 243 526 243 520 L243 74 L263 74 Z M306 167 C312 167 316 171 316 177 L316 520 C316 526 312 530 306 530 C300 530 296 526 296 520 L296 177 C296 171 300 167 306 167 L306 167 Z M360 530 C354 530 350 526 350 520 L350 177 C350 171 354 167 360 167 C366 167 370 171 370 177 L370 520 C370 526 366 530 360 530 L360 530 Z M413 530 C407 530 403 526 403 520 L403 177 C403 171 407 167 413 167 C419 167 423 171 423 177 L423 520 C423 526 419 530 413 530 L413 530 Z M466 530 C460 530 456 526 456 520 L456 177 C456 171 460 167 466 167 C472 167 476 171 476 177 L476 520 C476 526 472 530 466 530 L466 530 Z M739 487 C682 487 634 443 629 387 L585 387 L585 366 L628 366 C634 310 681 265 739 265 C800 265 850 315 850 376 C850 437 800 487 739 487 L739 487 Z M729 466 L729 387 L649 387 C654 429 686 462 729 466 L729 466 Z M829 387 L750 387 L750 466 C792 462 825 429 829 387 L829 387 Z M649 366 L729 366 L729 286 C686 290 653 323 649 366 L649 366 Z M750 286 L750 366 L829 366 C825 323 792 291 750 286 L750 286 Z M292 49 L210 49 L176 -100 L326 -100 L292 49 Z M301 -80 L201 -80 L226 29 L276 29 L301 -80 Z " />
<glyph glyph-name="s" unicode="s" horiz-adv-x="999" d="M401 486 L401 503 L598 503 L598 486 L618 486 L618 523 L567 523 L567 564 L547 564 L547 523 L463 523 L463 600 L443 600 L443 523 L381 523 L381 486 L401 486 Z M760 124 L685 124 L685 461 L314 461 L314 124 L240 124 L240 -100 L260 -100 L260 104 L334 104 L334 441 L665 441 L665 104 L740 104 L740 -100 L760 -100 L760 124 Z M438 421 L438 376 L488 376 L488 421 L438 421 Z M512 421 L512 376 L562 376 L562 421 L512 421 Z M587 421 L587 376 L637 376 L637 421 L587 421 Z M363 346 L363 308 L413 308 L413 346 L363 346 Z M438 346 L438 308 L488 308 L488 346 L438 346 Z M512 346 L512 308 L562 308 L562 346 L512 346 Z M587 346 L587 308 L637 308 L637 346 L587 346 Z M363 278 L363 240 L413 240 L413 278 L363 278 Z M438 278 L438 240 L488 240 L488 278 L438 278 Z M512 278 L512 240 L562 240 L562 278 L512 278 Z M363 210 L363 172 L413 172 L413 210 L363 210 Z M438 210 L438 172 L488 172 L488 210 L438 210 Z M512 210 L512 172 L562 172 L562 210 L512 210 Z M587 210 L587 172 L637 172 L637 210 L587 210 Z M363 142 L363 104 L413 104 L413 142 L363 142 Z M438 142 L438 104 L488 104 L488 142 L438 142 Z M512 142 L512 104 L562 104 L562 142 L512 142 Z M587 142 L587 104 L637 104 L637 142 L587 142 Z M288 74 L288 36 L338 36 L338 74 L288 74 Z M363 74 L363 36 L413 36 L413 74 L363 74 Z M438 74 L438 36 L488 36 L488 74 L438 74 Z M512 74 L512 36 L562 36 L562 74 L512 74 Z M587 74 L587 36 L637 36 L637 74 L587 74 Z M662 74 L662 36 L712 36 L712 74 L662 74 Z M288 6 L288 -32 L338 -32 L338 6 L288 6 Z M363 6 L363 -32 L413 -32 L413 6 L363 6 Z M438 6 L438 -32 L488 -32 L488 6 L438 6 Z M512 6 L512 -32 L562 -32 L562 6 L512 6 Z M587 6 L587 -32 L637 -32 L637 6 L587 6 Z M662 6 L662 -32 L712 -32 L712 6 L662 6 Z M288 -62 L288 -100 L338 -100 L338 -62 L288 -62 Z M363 -62 L363 -100 L413 -100 L413 -62 L363 -62 Z M438 -62 L438 -100 L488 -100 L488 -62 L438 -62 Z M512 -62 L512 -100 L562 -100 L562 -62 L512 -62 Z M587 -62 L587 -100 L637 -100 L637 -62 L587 -62 Z M662 -62 L662 -100 L712 -100 L712 -62 L662 -62 Z " />
<glyph glyph-name="t" unicode="t" horiz-adv-x="1000" d="M349 515 L349 560 L251 604 L219 604 L219 584 L247 584 L329 548 L329 535 L246 535 L214 510 L226 494 L252 515 L349 515 Z M786 138 L670 213 L652 196 C620 240 615 284 615 411 C615 488 554 549 477 549 L444 549 C440 560 429 568 417 568 C401 568 388 555 388 539 C388 523 401 510 417 510 C429 510 440 518 444 529 L477 529 C544 529 595 478 595 411 C595 278 601 230 638 182 L619 163 L694 46 L786 138 Z M405 466 C345 466 291 417 291 358 L291 -4 L519 -4 L519 358 C519 418 464 466 405 466 L405 466 Z M499 358 L499 339 L411 339 L411 84 L499 84 L499 16 L311 16 L311 358 C311 406 355 446 405 446 C454 446 499 406 499 358 L499 358 Z M499 319 L499 104 L431 104 L431 319 L499 319 Z M698 78 L645 161 L672 187 L754 134 L698 78 Z M499 -31 L499 -65 C499 -74 493 -80 484 -80 L325 -80 C316 -80 310 -74 310 -65 L310 -31 L290 -31 L290 -65 C290 -83 307 -100 325 -100 L484 -100 C502 -100 519 -83 519 -65 L519 -31 L499 -31 Z " />
<glyph glyph-name="u" unicode="u" horiz-adv-x="1000" d="M776 392 C790 402 808 421 828 453 C830 487 816 503 783 526 C758 543 740 538 722 517 C702 494 679 462 674 436 L732 393 C746 382 763 383 776 392 L776 392 Z M150 366 L150 435 C170 438 201 442 228 520 C231 507 233 495 233 482 C233 455 225 429 211 408 C197 387 176 372 150 366 L150 366 Z M737 504 C750 519 756 520 771 510 C800 489 808 481 808 459 C790 431 776 416 764 408 C757 403 753 403 744 409 L697 444 C705 464 722 486 737 504 L737 504 Z M162 316 C197 334 216 372 238 407 C262 445 288 473 336 473 C312 444 300 411 284 383 C263 345 235 316 162 316 L162 316 Z M850 300 L734 310 L712 355 C696 388 673 399 664 403 C655 407 647 409 639 409 L552 423 C526 427 498 419 478 403 L400 340 L421 276 L518 333 L548 329 C534 299 516 257 505 218 C489 161 486 131 482 99 L412 87 L416 67 L500 81 C505 120 507 149 525 212 C542 270 571 334 583 351 C599 373 618 389 639 389 C658 389 681 373 694 347 L722 290 L830 282 L830 265 C830 257 824 251 815 251 L733 247 C717 246 705 249 692 257 L649 285 L614 197 L682 104 C693 88 698 71 695 51 L679 -68 C678 -75 673 -80 665 -80 L653 -80 L653 48 L579 143 L544 47 C540 37 527 32 517 32 L412 32 L412 12 L517 12 C531 12 554 19 562 41 L585 103 L633 42 L633 -100 L665 -100 C681 -100 697 -86 699 -71 L715 49 C718 73 712 97 698 116 L636 199 L659 255 L682 241 C699 231 715 226 734 227 L816 231 C833 232 850 248 850 265 L850 300 Z M598 395 C579 381 565 361 558 348 L514 353 L433 306 L424 334 L490 387 C509 402 526 407 548 403 L598 395 Z M150 216 L150 278 C222 285 290 318 318 385 C320 377 320 370 320 363 C320 327 301 296 273 273 C236 242 218 233 150 216 L150 216 Z M158 172 C196 182 224 200 247 217 C275 237 298 255 326 255 C338 255 350 252 364 245 C330 224 307 203 286 188 C265 173 245 164 215 163 C200 163 181 166 158 172 L158 172 Z M150 69 L150 144 C169 139 187 136 205 136 C246 136 283 150 317 178 C312 138 284 108 248 92 C217 78 181 69 150 69 L150 69 Z " />
<glyph glyph-name="v" unicode="v" horiz-adv-x="1000" d="M850 564 L347 564 L265 501 L265 600 L185 600 L185 440 L150 413 L150 164 L367 164 L367 353 L459 353 L459 164 L592 164 C568 149 545 129 526 110 C515 99 502 92 478 85 C453 78 422 66 384 52 C376 49 368 44 368 27 L368 -37 L444 -37 C444 -73 474 -103 507 -103 C540 -103 570 -73 570 -37 L787 -37 C787 -73 817 -103 850 -103 L850 -83 C827 -83 807 -63 807 -40 C807 -17 827 3 850 3 L850 23 C825 23 802 6 792 -17 L565 -17 C555 6 532 23 507 23 C482 23 459 6 449 -17 L388 -17 L388 33 C431 48 455 58 484 67 C507 74 526 81 540 96 C563 121 593 144 620 157 C631 162 638 164 657 164 L850 164 L850 564 Z M205 455 L205 580 L245 580 L245 486 L205 455 Z M830 431 L529 431 L374 544 L830 544 L830 431 Z M534 403 L534 184 L479 184 L479 373 L347 373 L347 184 L170 184 L170 403 L347 539 L534 403 Z M830 411 L830 184 L785 184 L785 378 L554 378 L554 411 L830 411 Z M206 373 L206 275 L305 275 L305 373 L206 373 Z M765 358 L765 315 L554 315 L554 358 L765 358 Z M226 295 L226 353 L285 353 L285 295 L226 295 Z M554 249 L554 295 L765 295 L765 249 L554 249 Z M765 184 L554 184 L554 229 L765 229 L765 184 Z M507 3 C530 3 550 -17 550 -40 C550 -63 530 -83 507 -83 C484 -83 464 -63 464 -40 C464 -17 484 3 507 3 L507 3 Z " />
<glyph glyph-name="w" unicode="w" horiz-adv-x="1000" d="M609 330 C609 372 567 477 567 506 C567 525 572 544 586 564 C600 505 642 468 642 411 C642 388 633 362 609 330 L609 330 Z M562 350 L506 391 C511 400 516 410 516 426 C516 444 509 469 484 505 C536 479 571 441 571 389 C571 376 568 363 562 350 L562 350 Z M683 261 L633 298 C655 335 669 376 669 416 C669 444 662 472 646 497 C654 494 660 490 665 486 C700 460 711 419 711 370 C711 337 704 314 683 261 L683 261 Z M723 242 C737 278 739 311 739 340 C739 375 739 404 756 426 C763 436 772 444 786 451 C785 438 785 426 785 414 C785 391 786 371 786 354 C786 329 781 307 764 282 C755 269 741 257 723 242 L723 242 Z M801 174 L741 219 C756 231 768 244 780 258 C807 289 812 329 812 373 C835 352 844 324 844 294 C844 259 823 205 801 174 L801 174 Z M156 139 L168 123 L483 347 L798 123 L810 139 L483 371 L156 139 Z M255 164 L235 151 L235 -97 L376 -97 L376 101 L459 101 L459 -97 L732 -97 L732 151 L712 165 L712 -77 L479 -77 L479 121 L356 121 L356 -77 L255 -77 L255 164 Z M548 -8 L661 -8 L661 110 L548 110 L548 -8 Z M641 90 L641 12 L568 12 L568 90 L641 90 Z " />
<glyph glyph-name="x" unicode="x" horiz-adv-x="1000" d="M772 396 L772 302 L792 302 L792 404 L735 457 L773 495 L674 593 L634 554 L578 606 L564 592 L772 396 Z M648 540 L674 565 L745 495 L721 471 L648 540 Z M483 525 C492 525 499 532 499 541 C499 550 492 557 483 557 C474 557 467 550 467 541 C467 532 474 525 483 525 L483 525 Z M399 530 L399 552 L327 552 L327 530 L399 530 Z M335 468 L275 509 L270 494 L199 476 L256 436 L295 464 L335 468 Z M482 490 L496 442 L526 451 L513 499 L482 490 Z M398 456 L421 433 L435 447 L412 470 L398 456 Z M717 81 L717 264 L742 264 L742 387 L313 387 L313 264 L340 264 L410 -97 L633 -97 C651 -112 674 -122 698 -122 C753 -122 801 -74 801 -19 C801 29 764 72 717 81 L717 81 Z M333 284 L333 367 L722 367 L722 284 L333 284 Z M426 -77 L360 264 L697 264 L697 83 C643 82 596 35 596 -19 C596 -40 603 -60 615 -77 L426 -77 Z M698 -102 C654 -102 616 -64 616 -19 C616 25 654 63 698 63 C743 63 781 25 781 -19 C781 -64 743 -102 698 -102 L698 -102 Z " />
<glyph glyph-name="y" unicode="y" horiz-adv-x="1000" d="M150 346 L150 415 C170 418 201 422 228 500 C231 487 233 475 233 462 C233 435 225 409 211 388 C197 367 176 352 150 346 L150 346 Z M582 478 C619 478 653 470 684 455 L692 473 C659 488 621 498 582 498 C548 498 515 492 485 479 L493 461 C521 472 550 478 582 478 L582 478 Z M162 296 C197 314 216 352 238 387 C262 425 288 453 336 453 C312 424 300 391 284 363 C263 325 235 296 162 296 L162 296 Z M508 427 L514 409 C536 416 558 421 582 421 C610 421 635 415 659 404 L667 422 C641 435 612 441 582 441 C556 441 530 436 508 427 L508 427 Z M850 239 C850 257 835 271 818 271 C800 271 786 257 786 239 C786 225 795 213 808 209 L808 79 L754 79 L754 107 C754 131 732 153 706 153 C724 178 734 207 734 239 C734 333 653 391 582 391 C513 391 431 335 431 239 C431 207 441 178 459 153 C433 153 411 131 411 107 L411 35 C411 12 433 -10 457 -10 L708 -10 C732 -10 754 12 754 35 L734 35 C734 22 722 10 708 10 L457 10 C443 10 431 22 431 35 L431 107 C431 121 443 133 457 133 L476 133 C503 105 541 88 582 88 C624 88 662 105 689 133 L708 133 C722 133 734 121 734 107 L734 59 L828 59 L828 209 C840 213 850 225 850 239 L850 239 Z M582 108 C510 108 451 167 451 239 C451 323 521 371 582 371 C645 371 714 321 714 239 C714 167 655 108 582 108 L582 108 Z M150 196 L150 258 C222 265 290 298 318 365 C320 357 320 350 320 343 C320 307 301 276 273 253 C236 222 218 213 150 196 L150 196 Z M582 291 C557 291 531 265 531 239 C531 214 556 187 582 187 C609 187 634 214 634 239 C634 265 608 291 582 291 L582 291 Z M582 207 C565 207 551 222 551 239 C551 257 565 271 582 271 C600 271 614 257 614 239 C614 222 600 207 582 207 L582 207 Z M158 152 C196 162 224 180 247 197 C275 217 298 235 326 235 C338 235 350 232 364 225 C330 204 307 183 286 168 C265 153 245 144 215 143 C200 143 181 146 158 152 L158 152 Z M150 49 L150 124 C169 119 187 116 205 116 C246 116 283 130 317 158 C312 118 284 88 248 72 C217 58 181 49 150 49 L150 49 Z " />
<glyph glyph-name="z" unicode="z" horiz-adv-x="1000" d="M675 576 C675 583 681 595 694 591 L707 587 L707 556 L686 562 C679 564 675 569 675 576 L675 576 Z M727 556 L727 587 L739 591 C751 595 759 585 759 576 C759 570 754 564 747 562 L727 556 Z M149 575 C149 582 155 594 168 590 L181 586 L181 555 L160 561 C153 563 149 568 149 575 L149 575 Z M201 555 L201 586 L213 590 C225 594 233 584 233 575 C233 569 228 563 221 561 L201 555 Z M314 185 C250 185 200 234 200 295 C200 339 236 372 313 396 C367 413 395 443 395 490 C395 536 356 575 310 575 L310 555 C346 555 375 526 375 490 C375 453 353 429 307 416 C221 392 180 350 180 295 C180 223 239 165 314 165 L314 185 Z M432 391 C463 430 498 453 541 462 C601 475 663 460 699 485 L688 501 C659 481 601 496 537 482 C497 473 455 452 416 403 L432 391 Z M712 263 L728 314 C735 337 715 362 690 366 L616 377 C580 382 571 355 578 331 L599 261 L689 261 L816 69 C825 55 830 40 830 27 C830 5 815 -13 784 -13 L687 -13 L682 -4 L574 163 L617 238 L594 238 L561 182 L522 242 L539 305 C547 334 534 366 502 357 L382 324 C368 320 361 308 361 295 C361 289 363 282 367 277 C378 261 392 256 392 248 L392 231 L505 231 L665 -15 C671 -25 674 -34 674 -43 C673 -64 655 -80 631 -80 L299 -80 C275 -80 256 -64 256 -42 C256 -33 259 -24 265 -15 L406 208 L384 208 L248 -4 C240 -17 236 -30 236 -42 C237 -74 262 -100 299 -100 L631 -100 C668 -100 693 -74 694 -43 L693 -33 L784 -33 C825 -33 850 -6 850 28 C850 44 845 62 833 80 L712 263 Z M709 320 L696 281 L614 281 L598 337 C593 353 596 360 614 357 L688 346 C702 344 712 331 709 320 L709 320 Z M383 289 C381 292 380 294 380 296 C380 300 383 303 388 304 L507 337 C520 341 525 331 519 311 L502 251 L412 251 C408 270 392 277 383 289 L383 289 Z M456 208 L436 208 C436 186 416 122 397 97 L413 85 C434 112 456 182 456 208 L456 208 Z " />
<glyph glyph-name="braceleft" unicode="&#x7b;" horiz-adv-x="1000" d="M233 188 L233 265 C242 260 251 258 260 258 C272 258 285 263 297 273 L297 349 L703 349 L703 273 C715 263 728 258 741 258 C750 258 758 261 767 265 L767 188 C781 178 792 173 803 173 C814 173 825 178 839 188 L827 204 C817 197 810 193 804 193 C799 193 794 195 787 199 L787 494 L767 494 L767 289 C758 282 750 278 742 278 C735 278 729 280 723 283 L723 595 L703 595 L703 538 L297 538 L297 595 L277 595 L277 283 C271 280 265 278 259 278 C251 278 242 281 233 289 L233 494 L213 494 L213 199 C205 195 198 193 190 193 C181 193 171 197 161 204 L149 188 C163 178 177 173 191 173 C205 173 219 178 233 188 L233 188 Z M297 518 L703 518 L703 369 L297 369 L297 518 Z M364 85 C364 117 333 148 302 148 C270 148 239 117 239 85 C239 54 270 23 302 23 C333 23 364 54 364 85 L364 85 Z M698 148 C667 148 636 117 636 85 C636 54 667 23 698 23 C730 23 761 54 761 85 C761 117 730 148 698 148 L698 148 Z M302 43 C278 43 259 62 259 85 C259 109 278 128 302 128 C325 128 344 109 344 85 C344 62 325 43 302 43 L302 43 Z M698 43 C675 43 656 62 656 85 C656 109 675 128 698 128 C722 128 741 109 741 85 C741 62 722 43 698 43 L698 43 Z M500 127 C469 127 438 96 438 65 C438 33 469 2 500 2 C531 2 562 33 562 65 C562 96 531 127 500 127 L500 127 Z M500 22 C477 22 458 41 458 65 C458 88 477 107 500 107 C523 107 542 88 542 65 C542 41 523 22 500 22 L500 22 Z M184 25 C152 25 121 -6 121 -38 C121 -69 152 -100 184 -100 C215 -100 246 -69 246 -38 C246 -6 215 25 184 25 L184 25 Z M816 25 C785 25 754 -6 754 -38 C754 -69 785 -100 816 -100 C848 -100 879 -69 879 -38 C879 -6 848 25 816 25 L816 25 Z M184 -80 C160 -80 141 -61 141 -38 C141 -14 160 5 184 5 C207 5 226 -14 226 -38 C226 -61 207 -80 184 -80 L184 -80 Z M816 -80 C793 -80 774 -61 774 -38 C774 -14 793 5 816 5 C840 5 859 -14 859 -38 C859 -61 840 -80 816 -80 L816 -80 Z M382 4 C351 4 320 -27 320 -58 C320 -90 351 -121 382 -121 C413 -121 444 -90 444 -58 C444 -27 413 4 382 4 L382 4 Z M618 4 C587 4 556 -27 556 -58 C556 -90 587 -121 618 -121 C649 -121 680 -90 680 -58 C680 -27 649 4 618 4 L618 4 Z M382 -101 C359 -101 340 -82 340 -58 C340 -35 359 -16 382 -16 C405 -16 424 -35 424 -58 C424 -82 405 -101 382 -101 L382 -101 Z M618 -101 C595 -101 576 -82 576 -58 C576 -35 595 -16 618 -16 C641 -16 660 -35 660 -58 C660 -82 641 -101 618 -101 L618 -101 Z " />
<glyph glyph-name="braceright" unicode="&#x7d;" horiz-adv-x="1000" d="M789 75 L789 421 C789 453 761 481 729 481 L271 481 C239 481 211 453 211 421 L211 75 C211 44 239 15 271 15 L729 15 C761 15 789 44 789 75 L789 75 Z M769 421 L769 75 C769 54 751 35 729 35 L271 35 C249 35 231 54 231 75 L231 421 C231 443 249 461 271 461 L729 461 C751 461 769 443 769 421 L769 421 Z M584 237 L453 161 C444 156 435 160 435 171 L435 326 C435 337 444 341 453 336 L584 259 C589 256 591 252 591 248 C591 245 589 240 584 237 L584 237 Z " />
</font>
</svg>
