<?xml version="1.0" encoding="UTF-8"?>
<svg xmlns="http://www.w3.org/2000/svg" xmlns:xlink="http://www.w3.org/1999/xlink" version="1.2" >
<font id="Informative Politics Black">
<font-face  font-family="Informative" units-per-em="1000" ascent="750" descent="-250" font-style="normal" font-weight="900" font-stretch="normal" cap-height="700" x-height="400" underline-position="-75" underline-thickness="50" />
<missing-glyph  horiz-adv-x="500" d="M410 750 L93 750 L93 -250 L410 -250 L410 750 Z M333 683 L333 650 L267 650 L267 613 L333 613 L333 580 L167 580 L167 613 L233 613 L233 650 L168 650 L168 683 L333 683 Z M267 554 L267 484 L333 484 L333 450 L167 450 L167 554 L267 554 Z M233 520 L200 520 L200 484 L233 484 L233 520 Z M333 423 L333 390 L267 390 L267 320 L167 320 L167 353 L233 353 L233 390 L167 390 L167 423 L333 423 Z M333 363 L333 263 L167 263 L167 297 L300 297 L300 363 L333 363 Z M333 241 L333 128 L167 128 L167 241 L200 241 L200 161 L300 161 L300 208 L267 208 L267 185 L233 185 L233 241 L333 241 Z M333 68 L333 -45 L167 -45 L167 68 L333 68 Z M300 35 L200 35 L200 -12 L300 -12 L300 35 Z M333 -68 L333 -101 L301 -101 L231 -148 L333 -148 L333 -181 L167 -181 L167 -148 L237 -101 L167 -101 L167 -68 L333 -68 Z " />
<glyph glyph-name="NULL" d="" />
<glyph glyph-name="CR" unicode="&#xd;" horiz-adv-x="250" d="" />
<glyph glyph-name="space" unicode="&#x20;" horiz-adv-x="600" d="" />
<glyph glyph-name="exclam" unicode="&#x21;" horiz-adv-x="1000" d="M100 -250 L900 -250 C955 -250 1000 -205 1000 -150 L1000 650 C1000 705 955 750 900 750 L100 750 C45 750 0 705 0 650 L0 -150 C0 -205 45 -250 100 -250 L100 -250 Z M372 -100 L372 12 C352 32 305 57 281 154 L239 325 C276 340 308 327 317 299 L343 216 L436 139 L438 175 L410 198 C384 219 359 240 359 294 L359 545 C359 564 374 579 392 579 C411 579 426 564 426 545 L426 286 C434 285 442 284 451 282 L451 574 C451 592 466 607 484 607 C502 607 517 592 517 574 L517 271 C526 270 534 268 542 266 L542 534 C542 553 557 567 576 567 C594 567 609 553 609 534 L609 250 C616 248 623 246 630 243 L634 464 C634 481 648 495 665 495 C682 495 695 481 695 464 L695 127 C695 70 676 39 646 -1 L646 -100 L372 -100 Z " />
<glyph glyph-name="numbersign" unicode="&#x23;" horiz-adv-x="1000" d="M100 -250 L900 -250 C955 -250 1000 -205 1000 -150 L1000 650 C1000 705 955 750 900 750 L100 750 C45 750 0 705 0 650 L0 -150 C0 -205 45 -250 100 -250 L100 -250 Z M347 286 L347 562 C347 583 364 599 384 599 C405 599 418 583 419 562 L429 294 L382 294 C369 294 356 292 347 286 L347 286 Z M690 472 L692 98 C692 46 670 23 648 10 L648 -100 L365 -100 L365 22 C335 52 298 83 310 142 L326 218 C334 257 357 269 394 269 L541 269 C541 221 521 195 474 195 L399 195 L386 121 L411 121 L427 171 L514 171 C522 151 542 134 568 134 C600 134 626 160 626 192 L628 472 C628 490 641 505 659 505 C677 505 690 490 690 472 L690 472 Z M449 294 L449 388 C449 406 464 421 482 421 C500 421 515 406 515 388 L515 294 L449 294 Z M568 159 C550 159 535 174 535 192 C555 208 565 237 565 269 L565 294 L535 294 L535 388 C535 406 550 421 568 421 C586 421 601 406 601 388 L601 192 C601 174 586 159 568 159 L568 159 Z " />
<glyph glyph-name="dollar" unicode="&#x24;" horiz-adv-x="1000" d="M0 -150 L0 650 C0 705 45 750 100 750 L900 750 C955 750 1000 705 1000 650 L1000 -150 C1000 -205 955 -250 900 -250 L100 -250 C45 -250 0 -205 0 -150 L0 -150 Z M655 301 L629 306 L629 349 C629 367 614 382 596 382 C578 382 563 367 563 349 L563 319 L537 324 L537 377 C537 396 521 412 502 412 C483 412 467 396 467 377 L467 331 L440 331 L436 562 C436 584 419 601 400 601 C380 601 364 584 364 562 L363 247 L356 168 L329 168 L339 247 L339 276 C302 276 297 265 294 241 L279 123 C273 76 324 26 366 -4 L366 -100 L660 -100 L660 9 C694 32 721 75 721 139 L721 321 C721 339 706 354 688 354 C670 354 655 339 655 321 L655 301 Z " />
<glyph glyph-name="percent" unicode="&#x25;" horiz-adv-x="1000" d="M900 750 L100 750 C45 750 0 705 0 650 L0 -150 C0 -205 45 -250 100 -250 L900 -250 C955 -250 1000 -205 1000 -150 L1000 650 C1000 705 955 750 900 750 L900 750 Z M517 600 C539 600 552 581 549 561 L511 307 L375 307 C352 307 334 303 320 294 L299 553 C298 571 311 589 329 589 C348 589 363 577 365 558 L392 342 C394 322 435 322 439 342 L484 574 C487 590 501 600 517 600 L517 600 Z M558 393 C562 408 577 419 593 419 C609 419 629 400 624 377 L587 218 C584 203 569 191 554 191 C544 191 532 198 528 206 C548 230 557 260 551 307 L538 307 L558 393 Z M643 356 C647 372 662 383 678 383 C694 383 714 364 709 341 L675 196 C672 181 657 170 642 170 C620 170 604 192 609 212 L643 356 Z M528 282 C528 234 508 208 461 208 L380 208 L367 134 L392 134 L408 183 L442 183 C514 183 662 152 662 101 C662 49 618 23 618 23 L618 -100 L346 -100 L346 35 C346 35 279 96 291 155 L307 231 C315 270 338 282 375 282 L528 282 Z " />
<glyph glyph-name="ampersand" unicode="&#x26;" horiz-adv-x="1000" d="M900 750 L100 750 C45 750 0 705 0 650 L0 -150 C0 -205 45 -250 100 -250 L900 -250 C955 -250 1000 -205 1000 -150 L1000 650 C1000 705 955 750 900 750 L900 750 Z M365 600 C386 600 401 584 402 563 L412 294 L363 294 C350 294 337 292 328 286 L328 563 C328 584 345 600 365 600 L365 600 Z M438 294 L438 388 C438 406 453 421 471 421 C489 421 504 406 504 388 L504 294 L438 294 Z M524 192 C544 208 554 237 554 269 L554 294 L524 294 L524 378 C524 396 539 411 557 411 C575 411 590 396 590 378 L590 192 C590 174 575 159 557 159 C539 159 524 174 524 192 L524 192 Z M610 215 L610 358 C610 376 625 391 643 391 C661 391 676 376 676 358 L676 215 C676 197 661 182 643 182 C625 182 610 197 610 215 L610 215 Z M375 269 L528 269 C528 221 508 195 461 195 L380 195 L367 121 L392 121 L408 171 L488 171 C497 171 505 166 510 158 C521 142 538 134 557 134 C585 134 604 153 611 171 C635 171 662 139 662 88 C662 46 635 26 618 10 L618 -100 L346 -100 L346 22 C326 42 279 83 291 142 L307 218 C315 257 338 269 375 269 L375 269 Z " />
<glyph glyph-name="quotesingle" unicode="&#x27;" horiz-adv-x="1000" d="M900 750 L100 750 C45 750 0 705 0 650 L0 -150 C0 -205 45 -250 100 -250 L900 -250 C955 -250 1000 -205 1000 -150 L1000 650 C1000 705 955 750 900 750 L900 750 Z M215 495 L230 542 C236 561 248 574 269 574 C293 574 301 561 307 541 L328 469 C316 457 291 449 274 449 C257 449 234 456 221 468 C214 474 211 480 215 495 L215 495 Z M697 495 L712 542 C718 561 730 574 751 574 C775 574 783 561 789 541 L810 469 C798 457 773 449 756 449 C739 449 716 456 703 468 C696 474 692 480 697 495 L697 495 Z M850 183 L816 176 L808 227 L808 337 L788 337 L788 226 L796 172 C798 157 813 94 809 54 L662 63 C657 89 652 119 652 153 C652 176 661 231 674 278 L689 334 L669 336 L629 205 L552 183 L552 -100 L514 -100 L512 58 L488 58 L486 -100 L448 -100 L440 183 L372 203 L331 336 L311 334 L327 279 C337 244 348 203 348 153 C348 118 343 89 338 63 L191 54 C187 94 202 157 204 172 L212 226 L212 337 L192 337 L192 227 L184 176 L150 183 L155 352 C156 395 184 408 217 408 L291 408 C320 408 354 393 363 368 L403 259 L452 230 L540 230 L603 263 L637 368 C645 393 680 408 709 408 L783 408 C816 408 844 395 845 352 L850 183 Z M545 342 C545 324 545 305 537 286 C525 275 510 269 500 267 C489 269 475 275 462 286 C455 304 454 326 454 343 C462 359 481 367 499 367 C519 367 538 359 545 342 L545 342 Z M324 42 L304 -95 L262 -95 L272 32 L324 42 Z M738 -95 L696 -95 L676 42 L728 32 L738 -95 Z M248 39 L243 -42 L233 -42 L208 35 L248 39 Z M792 35 L767 -42 L757 -42 L752 39 L792 35 Z " />
<glyph glyph-name="parenleft" unicode="&#x28;" horiz-adv-x="1000" d="M900 750 L100 750 C45 750 0 705 0 650 L0 -150 C0 -205 45 -250 100 -250 L900 -250 C955 -250 1000 -205 1000 -150 L1000 650 C1000 705 955 750 900 750 L900 750 Z M174 600 L218 600 L218 448 L212 447 C199 444 186 441 174 437 L174 600 Z M405 600 L405 406 L355 406 L355 600 L405 600 Z M595 600 L645 600 L645 406 L595 406 L595 600 Z M826 600 L826 437 C814 441 801 444 788 447 L782 448 L782 600 L826 600 Z M150 76 L150 400 C168 413 190 424 214 427 L286 436 C309 439 327 427 329 401 L337 264 C297 262 265 281 262 315 L257 375 L233 374 L195 322 C195 293 191 269 184 248 L202 240 C210 261 215 285 215 315 L239 349 L242 313 C244 286 260 265 282 254 C264 249 252 230 252 208 C252 184 264 167 283 162 C278 154 275 144 275 133 C275 105 292 86 317 86 L325 86 L325 76 L150 76 Z M850 76 L675 76 L675 86 L683 86 C708 86 725 105 725 133 C725 144 722 154 717 162 C736 167 748 184 748 208 C748 230 736 249 718 254 C740 265 756 286 758 313 L761 349 L785 315 C785 285 790 261 798 240 L816 248 C809 269 805 293 805 322 L767 374 L743 375 L738 315 C735 281 703 262 663 264 L671 401 C673 427 691 439 714 436 L786 427 C810 424 832 413 850 400 L850 76 Z M445 358 C445 342 433 331 422 331 L353 331 L350 386 L422 386 C433 386 445 376 445 358 L445 358 Z M555 358 C555 376 567 386 578 386 L650 386 L647 331 L578 331 C567 331 555 342 555 358 L555 358 Z M445 283 C445 267 433 256 422 256 L357 256 L354 311 L422 311 C433 311 445 301 445 283 L445 283 Z M555 283 C555 301 567 311 578 311 L646 311 L643 256 L578 256 C567 256 555 267 555 283 L555 283 Z M432 181 L294 181 C280 181 272 192 272 208 C272 221 280 236 294 236 L432 236 C443 236 455 226 455 208 C455 192 443 181 432 181 L432 181 Z M568 181 C557 181 545 192 545 208 C545 226 557 236 568 236 L706 236 C720 236 728 221 728 208 C728 192 720 181 706 181 L568 181 Z M432 106 L317 106 C303 106 295 117 295 133 C295 146 303 161 317 161 L432 161 C443 161 455 151 455 133 C455 117 443 106 432 106 L432 106 Z M568 106 C557 106 545 117 545 133 C545 151 557 161 568 161 L683 161 C697 161 705 146 705 133 C705 117 697 106 683 106 L568 106 Z M403 -100 L353 -100 L353 46 L403 66 L403 -100 Z M597 -100 L597 66 L647 46 L647 -100 L597 -100 Z M150 56 L200 56 L200 -100 L150 -100 L150 56 Z M850 56 L850 -100 L800 -100 L800 56 L850 56 Z " />
<glyph glyph-name="parenright" unicode="&#x29;" horiz-adv-x="1000" d="M1000 650 L1000 -150 C1000 -205 955 -250 900 -250 L100 -250 C45 -250 0 -205 0 -150 L0 650 C0 705 45 750 100 750 L900 750 C955 750 1000 705 1000 650 L1000 650 Z M655 311 L655 298 L629 303 L629 346 C629 374 614 388 598 388 C582 388 566 374 566 346 L566 316 L537 321 L533 559 C533 581 517 598 497 598 C477 598 461 581 461 559 L461 328 L434 328 L434 349 C434 377 417 391 400 391 C383 391 363 377 363 349 L363 204 L356 165 L331 165 L339 239 L339 273 C302 273 297 263 294 238 L281 138 C272 72 337 33 367 -7 L367 -100 L640 -100 L640 0 C661 19 721 66 721 139 L721 311 C721 338 704 352 688 352 C671 352 655 338 655 311 L655 311 Z " />
<glyph glyph-name="asterisk" unicode="&#x2a;" horiz-adv-x="1000" d="M100 -250 L900 -250 C955 -250 1000 -205 1000 -150 L1000 650 C1000 705 955 750 900 750 L100 750 C45 750 0 705 0 650 L0 -150 C0 -205 45 -250 100 -250 L100 -250 Z M660 318 L618 123 L618 0 L402 0 L402 40 L283 190 L283 354 L299 354 C331 354 347 332 347 292 L347 248 L404 185 C415 173 429 166 444 166 C478 166 505 206 505 249 C505 258 504 266 502 275 L426 342 L372 292 C372 319 366 339 355 352 L387 407 C395 421 408 426 422 426 C431 426 442 423 452 417 L509 385 L513 404 L489 433 L457 534 C448 561 459 590 492 590 L586 358 L603 368 L589 410 L575 556 C572 584 590 598 622 602 L660 318 Z M672 377 L653 515 L665 561 C670 581 685 590 700 590 C706 590 712 588 717 584 L672 377 Z " />
<glyph glyph-name="plus" unicode="&#x2b;" horiz-adv-x="1000" d="M900 750 L100 750 C45 750 0 705 0 650 L0 -150 C0 -205 45 -250 100 -250 L900 -250 C955 -250 1000 -205 1000 -150 L1000 650 C1000 705 955 750 900 750 L900 750 Z M244 518 L267 578 C272 591 288 602 305 602 C312 602 318 600 320 593 L244 518 Z M735 578 L758 518 L682 593 C684 601 691 602 700 602 C716 602 730 590 735 578 L735 578 Z M236 99 L182 326 C172 364 174 385 187 405 L244 490 L343 589 C359 576 368 561 368 546 C368 535 363 523 353 512 L304 457 L280 373 C280 353 315 271 332 265 L365 276 L353 339 C346 378 359 400 400 408 L432 242 L343 71 L236 99 Z M820 326 L766 99 L659 71 L570 242 L602 408 C643 400 656 378 649 339 L637 276 L670 265 C687 271 722 353 722 373 L698 457 L649 512 C639 523 634 534 634 545 C634 561 643 576 659 589 L758 490 L815 405 C828 385 830 364 820 326 L820 326 Z M752 -23 L752 -43 L712 -43 L712 -67 C712 -84 696 -100 679 -100 L575 -100 C559 -100 542 -84 542 -67 L542 -43 L407 -43 L407 -23 L435 -23 L435 6 C435 14 430 19 422 19 L318 19 C310 19 305 14 305 6 L305 4 L285 4 L285 6 C285 23 301 39 318 39 L422 39 C438 39 455 23 455 6 L455 -23 L591 -23 L591 -43 L562 -43 L562 -67 C562 -75 567 -80 575 -80 L679 -80 C687 -80 692 -75 692 -67 L692 -43 L677 -43 L677 -23 L752 -23 Z M542 4 L542 6 C542 23 559 39 575 39 L679 39 C696 39 712 23 712 6 L712 4 L692 4 L692 6 C692 14 687 19 679 19 L575 19 C567 19 562 14 562 6 L562 4 L542 4 Z M455 -65 L455 -67 C455 -84 438 -100 422 -100 L318 -100 C301 -100 285 -84 285 -67 L285 -43 L245 -43 L245 -23 L320 -23 L320 -43 L305 -43 L305 -67 C305 -75 310 -80 318 -80 L422 -80 C430 -80 435 -75 435 -67 L435 -65 L455 -65 Z " />
<glyph glyph-name="comma" unicode="&#x2c;" horiz-adv-x="1000" d="M900 750 L100 750 C45 750 0 705 0 650 L0 -150 C0 -205 45 -250 100 -250 L900 -250 C955 -250 1000 -205 1000 -150 L1000 650 C1000 705 955 750 900 750 L900 750 Z M754 600 L691 548 L676 563 L722 600 L754 600 Z M315 433 L325 465 L337 528 C341 550 359 560 393 560 C412 560 426 552 428 542 L428 535 L441 537 L445 517 L395 510 L401 475 C403 465 408 461 418 463 L450 468 L454 448 L417 441 C397 437 384 448 381 467 L377 494 L360 489 L360 453 L315 433 Z M669 527 L625 482 L618 455 L605 468 L545 414 L561 394 L469 327 C452 315 431 313 422 318 L368 347 L364 326 L397 309 L390 230 L290 216 L306 319 C309 339 298 349 298 370 C298 402 317 420 348 416 L457 402 L518 430 L505 445 L574 500 L584 490 L655 542 L669 527 Z M592 389 L573 412 L604 440 L625 419 C625 408 605 389 592 389 L592 389 Z M604 370 L594 339 C587 319 572 313 553 317 L504 328 L574 378 C581 370 591 366 604 370 L604 370 Z M469 304 L469 249 L449 219 L410 229 L417 299 C430 295 451 296 469 304 L469 304 Z M475 -92 L448 -92 L425 83 L382 145 L364 145 L306 -66 C301 -84 290 -92 273 -92 L247 -92 L287 194 L399 211 L457 196 L495 84 L504 -61 C505 -81 495 -92 475 -92 L475 -92 Z " />
<glyph glyph-name="hyphen" unicode="&#x2d;" horiz-adv-x="1000" d="M900 750 L100 750 C45 750 0 705 0 650 L0 -150 C0 -205 45 -250 100 -250 L900 -250 C955 -250 1000 -205 1000 -150 L1000 650 C1000 705 955 750 900 750 L900 750 Z M668 592 L713 612 L721 594 L676 574 L668 592 Z M588 556 L633 576 L641 558 L596 538 L588 556 Z M508 521 L553 541 L561 523 L516 503 L508 521 Z M345 411 L345 484 C345 496 355 506 366 506 L393 506 C405 506 415 496 415 484 L415 470 L405 470 C395 470 387 462 387 452 C387 442 395 434 405 434 L415 434 L415 411 L345 411 Z M445 445 L445 465 L487 465 L487 445 L445 445 Z M571 465 L571 445 L521 445 L521 465 L571 465 Z M658 465 L658 445 L608 445 L608 465 L658 465 Z M745 465 L745 445 L696 445 L696 465 L745 465 Z M561 388 L553 370 L508 390 L516 408 L561 388 Z M505 265 L255 265 C255 324 295 372 349 387 L413 387 C466 372 505 323 505 265 L505 265 Z M641 352 L633 334 L588 355 L596 373 L641 352 Z M721 317 L713 299 L668 319 L676 337 L721 317 Z M505 241 L505 -100 L255 -100 L255 241 L505 241 Z " />
<glyph glyph-name="period" unicode="&#x2e;" horiz-adv-x="1000" d="M900 750 L100 750 C45 750 0 705 0 650 L0 -150 C0 -205 45 -250 100 -250 L900 -250 C955 -250 1000 -205 1000 -150 L1000 650 C1000 705 955 750 900 750 L900 750 Z M263 569 C284 569 315 562 326 545 L321 490 C319 468 299 455 286 455 L227 455 L227 532 C227 552 243 569 263 569 L263 569 Z M728 569 C749 569 764 552 764 532 L764 455 L703 455 C691 455 669 468 668 490 L666 545 C676 562 707 569 728 569 L728 569 Z M629 205 L552 183 L572 -2 L421 -2 L440 183 L372 203 L331 336 L311 334 L342 221 L346 179 L312 -100 L263 -100 L278 151 L258 153 L248 7 C225 27 209 76 210 95 L212 147 L222 226 L222 337 L202 337 L202 227 L192 152 L150 162 L150 356 C150 405 191 422 223 417 L299 406 C343 400 359 383 370 343 L391 265 L452 230 L540 230 L603 263 L624 350 C634 390 652 405 695 413 L772 420 C802 423 850 419 850 370 L850 162 L809 152 L799 227 L799 337 L779 337 L779 226 L791 84 C794 52 776 17 754 4 L743 153 L723 151 L738 -100 L689 -100 L654 183 L659 221 L690 334 L670 336 L629 205 Z M454 299 L467 334 C473 349 481 357 499 357 C519 357 525 348 530 333 L548 280 C538 271 517 264 503 264 C489 264 469 270 458 279 C453 283 450 288 454 299 L454 299 Z M488 -22 L486 -100 L448 -100 L450 -22 L488 -22 Z M552 -100 L514 -100 L512 -22 L550 -22 L552 -100 Z " />
<glyph glyph-name="slash" unicode="&#x2f;" horiz-adv-x="1000" d="M900 750 L100 750 C45 750 0 705 0 650 L0 -150 C0 -205 45 -250 100 -250 L900 -250 C955 -250 1000 -205 1000 -150 L1000 650 C1000 705 955 750 900 750 L900 750 Z M215 495 L230 542 C236 561 248 574 269 574 C293 574 301 561 307 541 L328 469 C316 457 291 449 274 449 C257 449 234 456 221 468 C214 474 210 480 215 495 L215 495 Z M728 569 C749 569 764 552 764 532 L764 455 L703 455 C691 455 669 468 668 490 L666 545 C676 562 707 569 728 569 L728 569 Z M603 263 L624 350 C634 390 651 409 695 413 L772 420 C802 423 850 419 850 370 L850 162 L809 152 L799 227 L799 337 L779 337 L779 226 L791 84 C794 53 776 17 754 4 L743 153 L723 151 L738 -100 L689 -100 L654 183 L659 221 L690 334 L670 336 L629 205 L552 183 L552 -100 L514 -100 L512 58 L488 58 L486 -100 L448 -100 L440 183 L372 203 L331 336 L311 334 L329 272 C340 233 348 193 348 153 C348 118 343 89 338 63 L191 54 C187 94 197 159 204 172 L212 226 L212 337 L192 337 L192 227 L184 176 L150 183 L155 352 C156 395 184 408 217 408 L291 408 C320 408 354 393 363 368 L403 259 L452 230 L540 230 L603 263 Z M545 342 C545 324 545 305 537 286 C525 275 510 269 500 267 C490 269 475 275 462 286 C455 304 454 326 454 343 C462 359 481 367 499 367 C519 367 538 359 545 342 L545 342 Z M324 42 L304 -95 L262 -95 L272 32 L324 42 Z M248 39 L243 -42 L233 -42 L208 35 L248 39 Z " />
<glyph glyph-name="zero" unicode="0" horiz-adv-x="1000" d="M900 750 L100 750 C45 750 0 705 0 650 L0 -150 C0 -205 45 -250 100 -250 L900 -250 C955 -250 1000 -205 1000 -150 L1000 650 C1000 705 955 750 900 750 L900 750 Z M170 168 L170 589 L231 570 L231 270 L170 168 Z M769 568 L830 587 L830 166 L769 268 L769 568 Z M251 565 L288 553 L288 364 L251 304 L251 565 Z M712 362 L712 551 L749 563 L749 302 L712 362 Z M308 397 L308 535 L373 527 L373 502 L308 397 Z M627 525 L692 533 L692 395 L627 500 L627 525 Z M429 491 C424 491 420 495 420 500 C420 504 424 508 429 508 C433 508 437 504 437 500 C437 495 433 491 429 491 L429 491 Z M573 491 C568 491 564 495 564 500 C564 504 568 508 573 508 C577 508 581 504 581 500 C581 495 577 491 573 491 L573 491 Z M500 483 C495 483 491 487 491 492 C491 496 495 500 500 500 C504 500 508 496 508 492 C508 487 504 483 500 483 L500 483 Z M392 458 C387 458 383 462 383 467 C383 471 387 475 392 475 C396 475 400 471 400 467 C400 462 396 458 392 458 L392 458 Z M609 457 C604 457 600 461 600 466 C600 471 604 475 609 475 C614 475 618 471 618 466 C618 461 614 457 609 457 L609 457 Z M442 442 C438 442 434 446 434 450 C434 454 438 458 442 458 C446 458 450 454 450 450 C450 446 446 442 442 442 L442 442 Z M549 441 C544 441 540 445 540 450 C540 454 544 458 549 458 C553 458 557 454 557 450 C557 445 553 441 549 441 L549 441 Z M500 430 C495 430 491 434 491 439 C491 443 495 447 500 447 C504 447 508 443 508 439 C508 434 504 430 500 430 L500 430 Z M363 390 C356 390 350 396 350 403 C350 409 356 415 363 415 C369 415 375 409 375 403 C375 396 369 390 363 390 L363 390 Z M652 388 C644 388 638 394 638 402 C638 409 644 415 652 415 C659 415 665 409 665 402 C665 394 659 388 652 388 L652 388 Z M499 388 L429 388 L429 408 L499 408 L499 388 Z M575 379 C568 379 562 385 562 392 C562 399 568 405 575 405 C582 405 588 399 588 392 C588 385 582 379 575 379 L575 379 Z M509 355 C515 355 521 349 521 343 C521 336 515 330 509 330 C502 330 496 336 496 343 C496 349 502 355 509 355 L509 355 Z M666 355 C673 355 679 349 679 342 C679 335 673 329 666 329 C659 329 653 335 653 342 C653 349 659 355 666 355 L666 355 Z M337 352 C343 352 349 346 349 340 C349 333 343 327 337 327 C330 327 324 333 324 340 C324 346 330 352 337 352 L337 352 Z M425 352 C431 352 437 346 437 340 C437 333 431 327 425 327 C418 327 412 333 412 340 C412 346 418 352 425 352 L425 352 Z M586 344 C592 344 598 338 598 332 C598 325 592 319 586 319 C579 319 573 325 573 332 C573 338 579 344 586 344 L586 344 Z M477 298 L680 298 L670 262 L487 262 L477 298 Z M366 296 C372 296 378 290 378 284 C378 277 372 271 366 271 C359 271 353 277 353 284 C353 290 359 296 366 296 L366 296 Z M289 287 C295 287 301 281 301 275 C301 268 295 262 289 262 C282 262 276 268 276 275 C276 281 282 287 289 287 L289 287 Z M710 236 C719 236 726 229 726 220 C726 212 719 205 710 205 C702 205 695 212 695 220 C695 229 702 236 710 236 L710 236 Z M597 228 C605 228 612 221 612 212 C612 204 605 197 597 197 C588 197 581 204 581 212 C581 221 588 228 597 228 L597 228 Z M256 220 C264 220 271 213 271 205 C271 196 264 189 256 189 C247 189 240 196 240 205 C240 213 247 220 256 220 L256 220 Z M369 220 C378 220 385 213 385 205 C385 196 378 189 369 189 C361 189 354 196 354 205 C354 213 361 220 369 220 L369 220 Z M483 220 C492 220 499 213 499 204 C499 195 492 188 483 188 C474 188 467 195 467 204 C467 213 474 220 483 220 L483 220 Z M332 161 C341 161 348 154 348 145 C348 136 341 129 332 129 C323 129 316 136 316 145 C316 154 323 161 332 161 L332 161 Z M542 156 C551 156 558 149 558 140 C558 132 551 125 542 125 C534 125 527 132 527 140 C527 149 534 156 542 156 L542 156 Z M437 148 C446 148 453 141 453 132 C453 123 446 117 437 117 C428 117 421 123 421 132 C421 141 428 148 437 148 L437 148 Z M647 148 C656 148 663 141 663 132 C663 123 656 117 647 117 C639 117 632 123 632 132 C632 141 639 148 647 148 L647 148 Z M752 148 C761 148 768 141 768 132 C768 123 761 117 752 117 C744 117 737 123 737 132 C737 141 744 148 752 148 L752 148 Z M227 135 C236 135 243 128 243 120 C243 111 236 104 227 104 C218 104 211 111 211 120 C211 128 218 135 227 135 L227 135 Z M823 89 C834 89 844 79 844 68 C844 56 834 47 823 47 C811 47 802 56 802 68 C802 79 811 89 823 89 L823 89 Z M497 75 C509 75 518 66 518 55 C518 43 509 34 497 34 C486 34 477 43 477 55 C477 66 486 75 497 75 L497 75 Z M172 74 C183 74 193 64 193 53 C193 41 183 32 172 32 C160 32 151 41 151 53 C151 64 160 74 172 74 L172 74 Z M280 64 C292 64 301 54 301 43 C301 31 292 22 280 22 C269 22 260 31 260 43 C260 54 269 64 280 64 L280 64 Z M714 64 C726 64 735 54 735 43 C735 31 726 22 714 22 C703 22 694 31 694 43 C694 54 703 64 714 64 L714 64 Z M389 39 C400 39 410 30 410 18 C410 7 400 -2 389 -2 C377 -2 368 7 368 18 C368 30 377 39 389 39 L389 39 Z M606 39 C617 39 627 30 627 18 C627 7 617 -2 606 -2 C594 -2 585 7 585 18 C585 30 594 39 606 39 L606 39 Z M150 -28 C165 -28 177 -41 177 -55 C177 -70 165 -83 150 -83 C135 -83 123 -70 123 -55 C123 -41 135 -28 150 -28 L150 -28 Z M851 -28 C866 -28 878 -41 878 -55 C878 -70 866 -83 851 -83 C836 -83 823 -70 823 -55 C823 -41 836 -28 851 -28 L851 -28 Z M290 -37 C305 -37 317 -49 317 -64 C317 -79 305 -91 290 -91 C275 -91 263 -79 263 -64 C263 -49 275 -37 290 -37 L290 -37 Z M710 -37 C725 -37 738 -49 738 -64 C738 -79 725 -91 710 -91 C695 -91 683 -79 683 -64 C683 -49 695 -37 710 -37 L710 -37 Z M430 -45 C445 -45 457 -57 457 -72 C457 -87 445 -99 430 -99 C415 -99 403 -87 403 -72 C403 -57 415 -45 430 -45 L430 -45 Z M570 -45 C585 -45 597 -57 597 -72 C597 -87 585 -99 570 -99 C555 -99 543 -87 543 -72 C543 -57 555 -45 570 -45 L570 -45 Z " />
<glyph glyph-name="one" unicode="1" horiz-adv-x="1000" d="M900 750 L100 750 C45 750 0 705 0 650 L0 -150 C0 -205 45 -250 100 -250 L900 -250 C955 -250 1000 -205 1000 -150 L1000 650 C1000 705 955 750 900 750 L900 750 Z M486 586 C492 598 504 601 519 601 C535 601 546 595 551 583 C550 569 545 541 542 535 C538 530 525 527 515 525 C507 527 494 533 489 538 C488 544 486 571 486 586 L486 586 Z M277 585 C277 570 275 543 274 537 C269 532 256 526 248 524 C238 526 225 529 221 534 C218 540 213 568 212 582 C217 594 228 600 244 600 C259 600 271 597 277 585 L277 585 Z M741 585 C747 597 759 600 774 600 C790 600 801 594 806 582 C805 568 800 540 797 534 C793 529 780 526 770 524 C762 526 749 532 744 537 C743 543 741 570 741 585 L741 585 Z M663 515 C663 500 661 473 660 467 C655 462 642 456 634 454 C624 456 611 459 607 464 C604 470 599 498 598 512 C603 524 614 530 630 530 C645 530 657 527 663 515 L663 515 Z M416 512 C416 497 414 470 413 464 C408 459 395 453 387 451 C377 453 364 456 360 461 C357 467 352 495 351 509 C356 521 367 527 383 527 C398 527 410 524 416 512 L416 512 Z M231 477 C256 477 264 465 270 445 L291 373 C279 362 254 352 237 352 C200 352 170 370 179 399 L194 446 C200 465 211 477 231 477 L231 477 Z M734 470 C759 470 767 458 773 438 L794 366 C782 355 757 345 740 345 C703 345 673 363 682 392 L697 439 C703 458 714 470 734 470 L734 470 Z M494 463 C517 463 532 456 541 439 C541 419 535 379 531 371 C527 364 506 356 494 354 C482 356 461 364 457 371 C453 379 448 419 448 439 C457 456 472 463 494 463 L494 463 Z M209 274 L189 274 L188 214 L222 145 L200 125 L159 180 C153 189 150 198 150 209 L150 281 C150 311 181 329 203 328 L284 326 C309 325 327 297 327 268 L327 255 L209 254 L209 274 Z M697 313 L769 322 C792 325 808 299 825 253 L652 259 C661 290 670 310 697 313 L697 313 Z M454 319 L541 319 C566 319 589 300 596 257 L398 255 C408 294 424 319 454 319 L454 319 Z M208 234 L850 233 L850 24 L150 18 L150 125 L199 95 L242 145 L208 214 L208 234 Z M280 -2 L339 -1 L334 -100 L289 -100 L280 -2 Z M530 -2 L589 -1 L584 -100 L539 -100 L530 -2 Z M761 -2 L820 -1 L815 -100 L770 -100 L761 -2 Z M174 -2 L233 -2 L224 -100 L179 -100 L174 -2 Z M424 -2 L483 -2 L474 -100 L429 -100 L424 -2 Z M655 -2 L714 -2 L705 -100 L660 -100 L655 -2 Z " />
<glyph glyph-name="two" unicode="2" horiz-adv-x="1000" d="M900 750 L100 750 C45 750 0 705 0 650 L0 -150 C0 -205 45 -250 100 -250 L900 -250 C955 -250 1000 -205 1000 -150 L1000 650 C1000 705 955 750 900 750 L900 750 Z M472 586 C478 598 490 601 505 601 C521 601 532 595 537 583 C536 569 531 541 528 535 C524 530 511 527 501 525 C493 527 480 533 475 538 C474 544 472 571 472 586 L472 586 Z M263 585 C263 570 261 543 260 537 C255 532 242 526 234 524 C224 526 211 529 207 534 C204 540 199 568 198 582 C203 594 214 600 230 600 C245 600 257 597 263 585 L263 585 Z M727 585 C733 597 745 600 760 600 C776 600 787 594 792 582 C791 568 786 540 783 534 C779 529 766 526 756 524 C748 526 735 532 730 537 C729 543 727 570 727 585 L727 585 Z M649 515 C649 500 647 473 646 467 C641 462 628 456 620 454 C610 456 597 459 593 464 C590 470 585 498 584 512 C589 524 600 530 616 530 C631 530 643 527 649 515 L649 515 Z M402 512 C402 497 400 470 399 464 C394 459 381 453 373 451 C363 453 350 456 346 461 C343 467 338 495 337 509 C342 521 353 527 369 527 C384 527 396 524 402 512 L402 512 Z M493 464 C518 464 526 452 532 432 L553 360 C541 349 516 339 499 339 C462 339 431 356 441 386 L456 433 C462 452 473 464 493 464 L493 464 Z M243 463 C266 463 281 456 290 439 C290 419 284 379 280 371 C276 364 255 356 243 354 C231 356 210 364 206 371 C202 379 197 419 197 439 C206 456 221 463 243 463 L243 463 Z M734 463 C757 463 772 456 781 439 C781 419 775 379 771 371 C767 364 746 356 734 354 C722 356 701 364 697 371 C693 379 688 419 688 439 C697 456 712 463 734 463 L734 463 Z M203 328 L284 326 C309 325 327 297 327 268 L327 255 L150 253 L154 286 C158 316 181 329 203 328 L203 328 Z M697 313 L769 322 C793 325 807 305 825 259 L652 259 C661 290 670 310 697 313 L697 313 Z M454 319 L541 319 C566 319 589 300 596 257 L398 255 C408 294 424 319 454 319 L454 319 Z M150 233 L850 239 L850 24 L150 24 L150 233 Z M280 -2 L339 -1 L334 -100 L289 -100 L280 -2 Z M530 -2 L589 -1 L584 -100 L539 -100 L530 -2 Z M761 -2 L820 -1 L815 -100 L770 -100 L761 -2 Z M174 -2 L233 -2 L224 -100 L179 -100 L174 -2 Z M424 -2 L483 -2 L474 -100 L429 -100 L424 -2 Z M655 -2 L714 -2 L705 -100 L660 -100 L655 -2 Z " />
<glyph glyph-name="three" unicode="3" horiz-adv-x="1000" d="M900 750 L100 750 C45 750 0 705 0 650 L0 -150 C0 -205 45 -250 100 -250 L900 -250 C955 -250 1000 -205 1000 -150 L1000 650 C1000 705 955 750 900 750 L900 750 Z M472 586 C478 598 490 601 505 601 C521 601 532 595 537 583 C536 569 531 541 528 535 C524 530 511 527 501 525 C493 527 480 533 475 538 C474 544 472 571 472 586 L472 586 Z M263 585 C263 570 261 543 260 537 C255 532 242 526 234 524 C224 526 211 529 207 534 C204 540 199 568 198 582 C203 594 214 600 230 600 C245 600 257 597 263 585 L263 585 Z M727 585 C733 597 745 600 760 600 C776 600 787 594 792 582 C791 568 786 540 783 534 C779 529 766 526 756 524 C748 526 735 532 730 537 C729 543 727 570 727 585 L727 585 Z M649 515 C649 500 647 473 646 467 C641 462 628 456 620 454 C610 456 597 459 593 464 C590 470 585 498 584 512 C589 524 600 530 616 530 C631 530 643 527 649 515 L649 515 Z M402 512 C402 497 400 470 399 464 C394 459 381 453 373 451 C363 453 350 456 346 461 C343 467 338 495 337 509 C342 521 353 527 369 527 C384 527 396 524 402 512 L402 512 Z M764 477 C789 477 797 465 803 445 L824 373 C812 362 787 352 770 352 C733 352 703 370 712 399 L727 446 C733 465 744 477 764 477 L764 477 Z M261 470 C286 470 294 458 300 438 L321 366 C309 355 284 345 267 345 C230 345 199 362 209 392 L224 439 C230 458 241 470 261 470 L261 470 Z M506 463 C528 463 543 456 552 439 C552 419 547 379 543 371 C541 364 518 356 506 354 C494 356 471 364 469 371 C465 379 459 419 459 439 C468 456 483 463 506 463 L506 463 Z M812 214 L811 274 L791 274 L791 254 L673 255 L673 268 C673 297 691 325 716 326 L797 328 C819 329 850 311 850 281 L850 209 C850 198 847 189 841 180 L800 125 L778 145 L812 214 Z M220 313 L292 322 C315 325 330 305 348 259 L175 259 C184 290 193 310 220 313 L220 313 Z M459 319 L546 319 C575 319 602 292 602 263 L602 255 L404 257 C411 300 434 319 459 319 L459 319 Z M150 24 L150 239 L792 234 L792 214 L758 145 L801 95 L850 125 L850 18 L150 24 Z M185 -100 L180 -1 L239 -2 L230 -100 L185 -100 Z M416 -100 L411 -1 L470 -2 L461 -100 L416 -100 Z M666 -100 L661 -1 L720 -2 L711 -100 L666 -100 Z M295 -100 L286 -2 L345 -2 L340 -100 L295 -100 Z M526 -100 L517 -2 L576 -2 L571 -100 L526 -100 Z M776 -100 L767 -2 L826 -2 L821 -100 L776 -100 Z " />
<glyph glyph-name="four" unicode="4" horiz-adv-x="1000" d="M900 750 L100 750 C45 750 0 705 0 650 L0 -150 C0 -205 45 -250 100 -250 L900 -250 C955 -250 1000 -205 1000 -150 L1000 650 C1000 705 955 750 900 750 L900 750 Z M536 609 C545 609 552 602 552 593 C552 584 545 577 536 577 C527 577 520 584 520 593 C520 602 527 609 536 609 L536 609 Z M714 609 C723 609 730 602 730 593 C730 584 723 577 714 577 C706 577 699 584 699 593 C699 602 706 609 714 609 L714 609 Z M357 599 C366 599 373 592 373 583 C373 574 366 567 357 567 C349 567 342 574 342 583 C342 592 349 599 357 599 L357 599 Z M192 587 C200 587 207 580 207 571 C207 562 200 555 192 555 C183 555 176 562 176 571 C176 580 183 587 192 587 L192 587 Z M850 574 L850 463 L704 442 L704 367 L684 357 L684 439 L615 431 L615 544 L850 574 Z M282 523 C291 523 298 516 298 507 C298 499 291 492 282 492 C273 492 266 499 266 507 C266 516 273 523 282 523 L282 523 Z M455 515 C464 515 471 508 471 500 C471 491 464 484 455 484 C447 484 440 491 440 500 C440 508 447 515 455 515 L455 515 Z M414 437 L424 375 C355 375 361 350 323 350 L315 413 C351 413 345 437 414 437 L414 437 Z M183 433 C195 433 204 424 204 413 C204 401 195 392 183 392 C172 392 162 401 162 413 C162 424 172 433 183 433 L183 433 Z M524 430 C535 430 545 420 545 409 C545 397 535 388 524 388 C512 388 503 397 503 409 C503 420 512 430 524 430 L524 430 Z M270 425 L290 427 L306 263 L286 261 L270 425 Z M783 348 C795 348 804 339 804 327 C804 316 795 306 783 306 C772 306 763 316 763 327 C763 339 772 348 783 348 L783 348 Z M583 326 C601 326 615 312 615 294 C615 277 601 263 583 263 C566 263 552 277 552 294 C552 312 566 326 583 326 L583 326 Z M265 237 C288 237 310 215 310 191 C310 168 288 146 265 146 C242 146 220 168 220 191 C220 215 242 237 265 237 L265 237 Z M489 227 C514 227 536 204 536 179 C536 154 514 132 489 132 C464 132 441 154 441 179 C441 204 464 227 489 227 L489 227 Z M723 207 C748 207 770 184 770 159 C770 134 748 112 723 112 C698 112 675 134 675 159 C675 184 698 207 723 207 L723 207 Z M211 67 C244 67 271 40 271 7 C271 -26 244 -53 211 -53 C178 -53 151 -26 151 7 C151 40 178 67 211 67 L211 67 Z M414 42 C447 42 474 15 474 -18 C474 -51 447 -78 414 -78 C381 -78 354 -51 354 -18 C354 15 381 42 414 42 L414 42 Z M617 30 C651 30 677 3 677 -30 C677 -63 651 -90 617 -90 C584 -90 557 -63 557 -30 C557 3 584 30 617 30 L617 30 Z M850 -101 C819 -101 792 -74 792 -43 C792 -12 819 15 850 15 L850 -101 Z " />
<glyph glyph-name="five" unicode="5" horiz-adv-x="1000" d="M900 750 L100 750 C45 750 0 705 0 650 L0 -150 C0 -205 45 -250 100 -250 L900 -250 C955 -250 1000 -205 1000 -150 L1000 650 C1000 705 955 750 900 750 L900 750 Z M306 617 C315 617 322 610 322 602 C322 593 315 586 306 586 C297 586 291 593 291 602 C291 610 297 617 306 617 L306 617 Z M528 617 C537 617 544 610 544 601 C544 592 537 585 528 585 C519 585 512 592 512 601 C512 610 519 617 528 617 L528 617 Z M649 617 C658 617 665 610 665 601 C665 592 658 585 649 585 C640 585 633 592 633 601 C633 610 640 617 649 617 L649 617 Z M255 480 L211 473 L211 383 L191 373 L191 470 L150 463 L150 574 L255 586 L255 480 Z M850 463 L783 455 L783 368 L763 358 L763 452 L727 448 L727 558 L850 574 L850 463 Z M476 523 C485 523 492 516 492 508 C492 499 485 492 476 492 C467 492 460 499 460 508 C460 516 467 523 476 523 L476 523 Z M613 480 C624 480 633 471 633 460 C633 448 624 439 613 439 C601 439 592 448 592 460 C592 471 601 480 613 480 L613 480 Z M395 418 C406 418 416 408 416 397 C416 385 406 376 395 376 C383 376 374 385 374 397 C374 408 383 418 395 418 L395 418 Z M524 359 C541 359 555 345 555 328 C555 311 541 297 524 297 C507 297 493 311 493 328 C493 345 507 359 524 359 L524 359 Z M674 337 C691 337 705 323 705 306 C705 289 691 275 674 275 C657 275 643 289 643 306 C643 323 657 337 674 337 L674 337 Z M314 325 C331 325 345 311 345 294 C345 277 331 262 314 262 C296 262 282 277 282 294 C282 311 296 325 314 325 L314 325 Z M278 201 C303 201 325 178 325 153 C325 128 303 106 278 106 C253 106 230 128 230 153 C230 178 253 201 278 201 L278 201 Z M503 198 C527 198 548 177 548 153 C548 130 527 108 503 108 C480 108 458 130 458 153 C458 177 480 198 503 198 L503 198 Z M725 198 C749 198 770 177 770 153 C770 130 749 108 725 108 C702 108 680 130 680 153 C680 177 702 198 725 198 L725 198 Z M385 23 C416 23 443 -4 443 -35 C443 -66 416 -93 385 -93 C353 -93 327 -66 327 -35 C327 -4 353 23 385 23 L385 23 Z M618 23 C649 23 676 -4 676 -35 C676 -66 649 -93 618 -93 C587 -93 560 -66 560 -35 C560 -4 587 23 618 23 L618 23 Z M150 -100 L150 16 C181 16 208 -11 208 -42 C208 -73 181 -100 150 -100 L150 -100 Z M850 16 L850 -100 C819 -100 792 -73 792 -42 C792 -11 819 16 850 16 L850 16 Z " />
<glyph glyph-name="six" unicode="6" horiz-adv-x="1000" d="M900 750 L100 750 C45 750 0 705 0 650 L0 -150 C0 -205 45 -250 100 -250 L900 -250 C955 -250 1000 -205 1000 -150 L1000 650 C1000 705 955 750 900 750 L900 750 Z M353 607 C362 607 369 600 369 591 C369 582 362 575 353 575 C345 575 338 582 338 591 C338 600 345 607 353 607 L353 607 Z M544 607 C553 607 560 600 560 591 C560 582 553 575 544 575 C536 575 529 582 529 591 C529 600 536 607 544 607 L544 607 Z M753 597 C762 597 769 590 769 581 C769 572 762 565 753 565 C745 565 738 572 738 581 C738 590 745 597 753 597 L753 597 Z M255 480 L234 477 L234 372 L214 370 L214 473 L150 463 L150 574 L255 587 L255 480 Z M674 540 C683 540 690 533 690 524 C690 516 683 509 674 509 C665 509 658 516 658 524 C658 533 665 540 674 540 L674 540 Z M446 527 C455 527 462 520 462 512 C462 503 455 496 446 496 C438 496 431 503 431 512 C431 520 438 527 446 527 L446 527 Z M550 501 C561 501 571 492 571 481 C571 469 561 460 550 460 C538 460 529 469 529 481 C529 492 538 501 550 501 L550 501 Z M807 481 C818 481 828 472 828 461 C828 449 818 440 807 440 C795 440 786 449 786 461 C786 472 795 481 807 481 L807 481 Z M341 474 C352 474 362 465 362 453 C362 442 352 433 341 433 C329 433 320 442 320 453 C320 465 329 474 341 474 L341 474 Z M401 405 L737 405 L728 316 L415 316 L401 405 Z M312 339 C329 339 344 325 344 307 C344 290 329 276 312 276 C295 276 281 290 281 307 C281 325 295 339 312 339 L312 339 Z M819 338 C837 338 851 324 851 307 C851 290 837 276 819 276 C802 276 788 290 788 307 C788 324 802 338 819 338 L819 338 Z M725 237 C748 237 770 215 770 191 C770 168 748 146 725 146 C702 146 680 168 680 191 C680 215 702 237 725 237 L725 237 Z M501 227 C526 227 549 204 549 179 C549 154 526 132 501 132 C476 132 454 154 454 179 C454 204 476 227 501 227 L501 227 Z M267 207 C292 207 315 184 315 159 C315 134 292 112 267 112 C242 112 220 134 220 159 C220 184 242 207 267 207 L267 207 Z M775 73 C806 73 833 46 833 15 C833 -16 806 -43 775 -43 C744 -43 717 -16 717 15 C717 46 744 73 775 73 L775 73 Z M588 48 C619 48 646 21 646 -10 C646 -41 619 -68 588 -68 C557 -68 530 -41 530 -10 C530 21 557 48 588 48 L588 48 Z M374 36 C405 36 432 9 432 -22 C432 -53 405 -80 374 -80 C342 -80 315 -53 315 -22 C315 9 342 36 374 36 L374 36 Z M150 -100 L150 16 C181 16 208 -11 208 -42 C208 -73 181 -100 150 -100 L150 -100 Z " />
<glyph glyph-name="seven" unicode="7" horiz-adv-x="1000" d="M900 750 L100 750 C45 750 0 705 0 650 L0 -150 C0 -205 45 -250 100 -250 L900 -250 C955 -250 1000 -205 1000 -150 L1000 650 C1000 705 955 750 900 750 L900 750 Z M683 581 C710 581 720 568 726 546 L748 467 C735 454 708 444 689 444 C670 444 645 453 631 465 C623 472 620 479 625 495 L642 547 C649 568 661 581 683 581 L683 581 Z M255 536 C265 554 283 560 307 560 C331 560 348 550 357 532 C356 509 348 465 343 456 C333 448 315 442 301 440 C288 443 269 452 261 460 C258 469 255 513 255 536 L255 536 Z M603 414 L768 414 L768 396 L749 390 L749 352 L553 351 L553 370 C553 390 570 414 603 414 L603 414 Z M226 405 L382 404 L383 348 L217 344 L213 300 L187 300 C177 300 172 296 164 291 C171 355 207 405 226 405 L226 405 Z M403 311 L402 385 C408 389 424 393 441 393 C457 393 473 390 482 383 L483 311 L403 311 Z M769 312 L769 375 C781 379 795 383 810 383 C823 383 837 380 850 373 L850 312 L769 312 Z M503 331 L751 331 L751 292 L850 292 L850 74 L213 67 L222 178 L262 178 L262 297 L233 299 L235 324 L384 327 L383 291 L503 291 L503 331 Z M186 280 L242 278 L242 198 L187 198 C172 200 164 218 164 238 C164 259 171 279 186 280 L186 280 Z M585 51 L775 54 L781 9 L585 11 L585 51 Z M332 48 L411 49 L407 -100 L356 -100 L332 48 Z M235 47 L304 48 L288 -100 L228 -100 L235 47 Z M704 -16 L766 -14 L774 -100 L714 -100 L704 -16 Z M595 -21 L660 -18 L656 -100 L596 -100 L595 -21 Z " />
<glyph glyph-name="eight" unicode="8" horiz-adv-x="1000" d="M900 750 L100 750 C45 750 0 705 0 650 L0 -150 C0 -205 45 -250 100 -250 L900 -250 C955 -250 1000 -205 1000 -150 L1000 650 C1000 705 955 750 900 750 L900 750 Z M683 581 C710 581 719 568 725 546 L748 467 C735 454 708 444 689 444 C670 444 645 453 631 465 C623 472 619 480 624 495 L641 547 C648 568 661 581 683 581 L683 581 Z M258 537 C268 555 286 561 310 561 C333 561 351 551 360 533 C359 510 351 466 346 457 C337 450 318 443 304 441 C291 444 272 453 264 461 C261 470 258 514 258 537 L258 537 Z M603 414 L768 414 L768 396 L749 390 L749 352 L553 351 L553 370 C553 390 570 414 603 414 L603 414 Z M251 411 L345 411 C366 411 381 397 382 380 L384 347 L193 350 L194 367 C195 390 230 411 251 411 L251 411 Z M402 311 L402 385 C409 389 426 392 444 392 C459 392 473 390 482 383 L482 311 L402 311 Z M769 312 L769 375 C783 379 798 382 814 382 C826 382 838 380 850 373 L850 312 L769 312 Z M503 331 L751 331 L751 292 L850 292 L850 74 L150 74 L150 292 L170 292 L170 331 L384 327 L384 291 L503 291 L503 331 Z M235 52 L304 53 L288 -100 L228 -100 L235 52 Z M332 51 L411 52 L407 -100 L356 -100 L332 51 Z M585 52 L775 52 L781 9 L585 11 L585 52 Z M704 -16 L766 -14 L774 -100 L714 -100 L704 -16 Z M595 -21 L660 -18 L656 -100 L596 -100 L595 -21 Z " />
<glyph glyph-name="nine" unicode="9" horiz-adv-x="1000" d="M900 750 L100 750 C45 750 0 705 0 650 L0 -150 C0 -205 45 -250 100 -250 L900 -250 C955 -250 1000 -205 1000 -150 L1000 650 C1000 705 955 750 900 750 L900 750 Z M311 581 C325 581 330 575 337 563 L372 498 C383 478 372 452 342 452 L280 452 C265 452 257 457 252 470 C246 484 243 513 243 553 C257 578 272 581 311 581 L311 581 Z M642 544 C652 562 670 568 694 568 C718 568 735 558 744 540 C743 517 735 473 730 464 C725 455 702 450 688 448 C675 451 656 460 648 468 C645 477 642 521 642 544 L642 544 Z M186 351 L186 370 C186 390 203 414 236 414 L401 414 L401 405 L382 394 L382 352 L186 351 Z M850 339 L850 65 C647 73 219 73 150 74 L150 292 L170 292 L170 330 L383 331 L383 291 L503 291 L503 319 L728 319 L718 339 L569 339 L569 365 C569 395 591 403 614 403 L770 403 L786 276 C789 254 781 239 766 237 L681 223 L681 202 L776 215 C801 218 815 240 815 263 L814 339 L850 339 Z M482 383 L483 311 L403 311 L402 385 C414 392 463 398 482 383 L482 383 Z M398 9 L202 11 L202 53 L392 53 L398 9 Z M609 7 L618 -100 L586 -100 C567 -100 556 -91 553 -73 L538 11 L541 51 L623 51 L609 7 Z M788 -61 L761 -83 C746 -95 731 -93 719 -78 L656 -4 L663 48 L747 46 L742 3 L788 -61 Z M391 -100 L331 -100 L321 -16 L383 -14 L391 -100 Z M277 -18 L273 -100 L213 -100 L212 -21 L277 -18 Z " />
<glyph glyph-name="colon" unicode="&#x3a;" horiz-adv-x="1000" d="M901 752 L101 752 C46 752 1 707 1 652 L1 -148 C1 -203 46 -248 101 -248 L901 -248 C956 -248 1001 -203 1001 -148 L1001 652 C1001 707 956 752 901 752 L901 752 Z M850 600 L837 488 L757 488 L577 254 L567 168 L589 -100 L536 -100 L505 105 L493 105 L461 -100 L409 -100 L432 168 L422 254 L242 488 L163 488 L149 600 L850 600 Z M452 312 L543 312 L692 488 L308 488 L452 312 Z M449 434 C459 452 477 458 501 458 C525 458 542 448 551 430 C550 407 542 363 537 354 C531 344 509 338 495 338 C482 338 462 344 455 354 C452 367 449 411 449 434 L449 434 Z " />
<glyph glyph-name="semicolon" unicode="&#x3b;" horiz-adv-x="1000" d="M900 750 L100 750 C45 750 0 705 0 650 L0 -150 C0 -205 45 -250 100 -250 L900 -250 C955 -250 1000 -205 1000 -150 L1000 650 C1000 705 955 750 900 750 L900 750 Z M842 600 L828 488 L738 488 L567 245 L575 54 L421 54 L432 245 L259 488 L173 488 L158 600 L842 600 Z M555 326 L688 488 L309 488 L441 327 C479 317 517 316 555 326 L555 326 Z M448 407 L461 445 C466 462 479 476 499 476 C523 476 534 461 539 445 L556 381 C549 369 521 358 504 358 C488 358 467 365 454 375 C447 383 444 395 448 407 L448 407 Z M574 -100 L532 -100 L511 30 L562 33 L574 -100 Z M466 -100 L424 -100 L434 25 L486 28 L466 -100 Z " />
<glyph glyph-name="equal" unicode="&#x3d;" horiz-adv-x="1000" d="M100 -250 L900 -250 C955 -250 1000 -205 1000 -150 L1000 650 C1000 705 955 750 900 750 L100 750 C45 750 0 705 0 650 L0 -150 C0 -205 45 -250 100 -250 L100 -250 Z M158 300 L158 407 L500 594 L842 407 L842 301 L772 301 L772 344 L822 344 L822 395 L500 572 L178 395 L178 344 L228 344 L228 300 L158 300 Z M270 95 L270 380 L205 380 L500 533 L794 380 L730 380 L730 95 L700 95 L700 380 L659 380 L659 343 L630 343 L630 95 L600 95 L600 343 L571 343 L571 380 L430 380 L430 343 L401 343 L401 95 L371 95 L371 343 L342 343 L342 380 L300 380 L300 95 L270 95 Z M500 419 C521 419 537 436 537 456 C537 477 521 494 500 494 C479 494 462 477 462 456 C462 436 479 419 500 419 L500 419 Z M160 108 L160 270 L210 270 L210 108 L160 108 Z M790 108 L790 270 L840 270 L840 108 L790 108 Z M287 29 L287 49 L713 49 L713 29 L287 29 Z M237 -34 L237 -14 L763 -14 L763 -34 L237 -34 Z M187 -96 L187 -76 L813 -76 L813 -96 L187 -96 Z " />
<glyph glyph-name="question" unicode="&#x3f;" horiz-adv-x="1000" d="M900 750 L100 750 C45 750 0 705 0 650 L0 -150 C0 -205 45 -250 100 -250 L900 -250 C955 -250 1000 -205 1000 -150 L1000 650 C1000 705 955 750 900 750 L900 750 Z M563 572 C558 588 570 613 594 613 C609 613 622 603 627 589 L646 535 L585 504 L563 572 Z M479 537 C475 552 487 578 509 578 C525 578 539 568 543 554 L563 492 L502 461 L479 537 Z M396 503 C391 520 403 544 426 544 C440 544 454 535 458 521 L495 391 C500 373 485 349 467 349 C451 349 435 358 431 374 L396 503 Z M698 477 L722 408 C728 392 731 375 731 358 C731 338 725 317 710 294 L639 181 L639 89 L403 89 L403 164 C383 184 339 219 330 313 C344 296 360 288 380 288 C407 288 429 299 435 333 C443 328 454 324 466 324 C488 324 515 343 520 371 C541 367 563 360 580 356 C565 347 547 332 534 315 C512 286 497 252 499 235 L524 238 C523 246 534 273 554 300 C575 328 596 339 622 351 L641 387 L641 406 L604 391 C595 388 586 386 576 386 C550 386 522 400 511 438 L619 494 C658 514 687 509 698 477 L698 477 Z M317 447 C312 467 327 488 347 488 C362 488 375 478 379 465 L410 355 C415 337 400 313 381 313 C363 313 350 322 346 338 L317 447 Z M152 63 L285 50 L205 130 L219 144 L345 18 L331 4 L308 27 L150 43 L152 63 Z M530 -72 L699 98 L727 98 L558 -72 L530 -72 Z M268 -100 L429 64 L458 64 L296 -100 L268 -100 Z M374 -72 L508 64 L537 64 L402 -72 L374 -72 Z M452 -72 L586 64 L615 64 L480 -72 L452 -72 Z M831 -102 L715 14 L680 11 L703 33 L823 43 L825 23 L741 16 L845 -88 L831 -102 Z " />
<glyph glyph-name="at" unicode="&#x40;" horiz-adv-x="1000" d="M100 -250 L900 -250 C955 -250 1000 -205 1000 -150 L1000 650 C1000 705 955 750 900 750 L100 750 C45 750 0 705 0 650 L0 -150 C0 -205 45 -250 100 -250 L100 -250 Z M224 518 L247 578 C253 593 273 602 287 602 C293 602 298 599 300 593 L224 518 Z M777 518 L701 593 C703 600 709 602 716 602 C730 602 748 594 754 578 L777 518 Z M323 71 L216 99 L162 326 C152 364 154 385 167 405 L224 490 L323 589 C339 576 348 561 348 545 C348 534 343 523 333 512 L284 457 L260 373 C260 353 295 271 312 265 L345 276 L333 339 C326 378 339 400 380 408 L412 242 L323 71 Z M678 71 L589 242 L621 408 C662 400 675 378 668 339 L656 276 L689 265 C706 271 741 353 741 373 L717 457 L668 512 C658 523 653 534 653 544 C653 560 662 576 678 589 L777 490 L834 405 C847 385 849 364 839 326 L785 99 L678 71 Z M363 582 L637 582 C630 571 627 558 627 545 C627 529 634 511 648 495 L694 445 L715 371 L702 335 L692 335 C703 396 671 432 600 436 L579 331 L421 331 L400 436 C329 432 297 396 308 335 L298 335 L285 371 L306 445 L352 495 C366 511 373 528 373 545 C373 558 370 571 363 582 L363 582 Z M488 351 L488 374 C469 377 453 385 440 398 L458 416 C467 406 477 398 503 398 C517 398 528 405 528 414 C528 425 517 432 494 445 C470 458 452 472 452 497 C452 518 465 532 488 537 L488 561 L513 561 L513 538 C529 536 544 528 556 517 L541 497 C527 510 520 514 504 514 C487 514 477 508 477 497 C477 485 482 478 505 467 C535 453 553 435 553 414 C553 394 536 377 513 373 L512 351 L488 351 Z M585 -100 C569 -100 552 -84 552 -67 L552 -43 L397 -43 L397 -23 L425 -23 L425 6 C425 14 420 19 412 19 L298 19 C290 19 285 14 285 6 L285 4 L265 4 L265 6 C265 23 281 39 298 39 L412 39 C428 39 445 23 445 6 L445 -23 L601 -23 L601 -43 L572 -43 L572 -67 C572 -75 577 -80 585 -80 L699 -80 C707 -80 712 -75 712 -67 L712 -43 L697 -43 L697 -23 L782 -23 L782 -43 L732 -43 L732 -67 C732 -84 716 -100 699 -100 L585 -100 Z M552 4 L552 6 C552 23 569 39 585 39 L699 39 C716 39 732 23 732 6 L732 4 L712 4 L712 6 C712 14 707 19 699 19 L585 19 C577 19 572 14 572 6 L572 4 L552 4 Z M298 -100 C281 -100 265 -84 265 -67 L265 -43 L215 -43 L215 -23 L300 -23 L300 -43 L285 -43 L285 -67 C285 -75 290 -80 298 -80 L412 -80 C420 -80 425 -75 425 -67 L425 -65 L445 -65 L445 -67 C445 -84 428 -100 412 -100 L298 -100 Z " />
<glyph glyph-name="A" unicode="A" horiz-adv-x="1000" d="M900 750 L100 750 C45 750 0 705 0 650 L0 -150 C0 -205 45 -250 100 -250 L900 -250 C955 -250 1000 -205 1000 -150 L1000 650 C1000 705 955 750 900 750 L900 750 Z M215 574 L259 599 L309 486 L291 478 L249 571 L237 564 L258 446 L238 442 L215 574 Z M721 449 L768 588 L815 574 L804 494 L784 496 L793 560 L780 564 L739 443 L721 449 Z M663 546 C663 531 661 504 660 498 C655 493 642 487 634 485 C624 487 611 490 607 495 C604 501 599 529 598 543 C603 555 614 561 630 561 C645 561 657 558 663 546 L663 546 Z M351 544 C357 556 369 559 384 559 C400 559 411 553 416 541 C415 527 410 499 407 493 C403 488 390 485 380 483 C372 485 359 491 354 496 C353 502 351 529 351 544 L351 544 Z M482 395 C488 407 500 410 515 410 C531 410 542 404 547 392 C546 378 541 350 538 344 C534 339 521 336 511 334 C503 336 490 342 485 347 C484 353 482 380 482 395 L482 395 Z M273 394 C273 379 271 352 270 346 C265 341 252 335 244 333 C234 335 221 338 217 343 C214 349 209 377 208 391 C213 403 224 409 240 409 C255 409 267 406 273 394 L273 394 Z M737 394 C743 406 755 409 770 409 C786 409 797 403 802 391 C801 377 796 349 793 343 C789 338 776 335 766 333 C758 335 745 341 740 346 C739 352 737 379 737 394 L737 394 Z M659 324 C659 309 657 282 656 276 C651 271 638 265 630 263 C620 265 607 268 603 273 C600 279 595 307 594 321 C599 333 610 339 626 339 C641 339 653 336 659 324 L659 324 Z M412 321 C412 306 410 279 409 273 C404 268 391 262 383 260 C373 262 360 265 356 270 C353 276 348 304 347 318 C352 330 363 336 379 336 C394 336 406 333 412 321 L412 321 Z M498 239 C521 239 536 232 545 215 C545 195 539 155 535 147 C530 138 510 132 498 130 C486 132 465 138 461 147 C457 155 452 195 452 215 C461 232 476 239 498 239 L498 239 Z M260 232 C278 232 293 222 299 208 C297 191 289 158 285 152 C278 146 263 142 253 142 C243 146 229 153 223 159 L223 217 C231 229 242 232 260 232 L260 232 Z M746 232 C764 232 775 229 783 217 L783 159 C777 153 763 146 753 142 C743 142 728 146 721 152 C717 158 709 191 707 208 C713 222 728 232 746 232 L746 232 Z M841 -54 L659 -54 L673 52 C676 71 686 84 693 87 C703 92 727 94 751 94 C778 94 806 88 814 82 C820 78 831 63 833 43 L841 -54 Z M342 -55 L160 -55 L168 42 C170 62 181 77 187 81 C196 87 226 93 255 93 C277 93 298 90 308 86 C315 83 325 70 328 51 L342 -55 Z M613 -56 L388 -56 L397 38 C400 65 417 79 443 79 L553 79 C577 79 592 74 598 37 L613 -56 Z " />
<glyph glyph-name="B" unicode="B" horiz-adv-x="1000" d="M900 750 L100 750 C45 750 0 705 0 650 L0 -150 C0 -205 45 -250 100 -250 L900 -250 C955 -250 1000 -205 1000 -150 L1000 650 C1000 705 955 750 900 750 L900 750 Z M215 574 L259 599 L309 486 L291 478 L249 571 L237 564 L258 446 L238 442 L215 574 Z M721 449 L768 588 L815 574 L804 494 L784 496 L793 560 L780 564 L739 443 L721 449 Z M663 546 C663 531 661 504 660 498 C655 493 642 487 634 485 C624 487 611 490 607 495 C604 501 599 529 598 543 C603 555 614 561 630 561 C645 561 657 558 663 546 L663 546 Z M351 544 C357 556 369 559 384 559 C400 559 411 553 416 541 C415 527 410 499 407 493 C403 488 390 485 380 483 C372 485 359 491 354 496 C353 502 351 529 351 544 L351 544 Z M482 395 C488 407 500 410 515 410 C531 410 542 404 547 392 C546 378 541 350 538 344 C534 339 521 336 511 334 C503 336 490 342 485 347 C484 353 482 380 482 395 L482 395 Z M273 394 C273 379 271 352 270 346 C265 341 252 335 244 333 C234 335 221 338 217 343 C214 349 209 377 208 391 C213 403 224 409 240 409 C255 409 267 406 273 394 L273 394 Z M737 394 C743 406 755 409 770 409 C786 409 797 403 802 391 C801 377 796 349 793 343 C789 338 776 335 766 333 C758 335 745 341 740 346 C739 352 737 379 737 394 L737 394 Z M659 324 C659 309 657 282 656 276 C651 271 638 265 630 263 C620 265 607 268 603 273 C600 279 595 307 594 321 C599 333 610 339 626 339 C641 339 653 336 659 324 L659 324 Z M412 321 C412 306 410 279 409 273 C404 268 391 262 383 260 C373 262 360 265 356 270 C353 276 348 304 347 318 C352 330 363 336 379 336 C394 336 406 333 412 321 L412 321 Z M388 -86 L343 -86 L331 -17 L320 -17 L313 -86 L197 -86 L197 23 L158 234 C156 245 160 253 167 254 L201 261 C206 262 211 259 212 255 L222 220 L211 202 L228 110 L336 87 C358 82 368 70 371 50 L388 -86 Z M836 229 L824 24 L824 -84 L721 -84 L714 -15 L703 -15 L691 -59 L662 -14 L675 49 C679 69 690 73 712 81 L780 104 L791 199 L777 206 L782 244 C783 252 789 256 799 254 L827 249 C834 248 837 241 836 229 L836 229 Z M685 -85 L444 -85 L460 4 L388 220 C384 233 387 240 396 242 L433 251 C439 252 447 250 449 241 L459 201 L452 193 L490 88 L560 71 C584 65 597 48 622 10 L685 -85 Z M307 224 C325 224 340 214 346 200 C344 183 336 150 332 144 C325 138 310 134 300 134 C290 138 276 145 270 151 L270 209 C278 221 289 224 307 224 L307 224 Z M555 219 C577 219 594 203 598 191 C595 170 585 131 582 124 C574 117 555 112 543 111 C532 115 514 124 508 131 C506 141 505 181 507 201 C517 217 533 219 555 219 L555 219 Z M707 212 C725 212 736 209 744 197 L744 139 C738 133 724 126 714 122 C704 122 689 126 682 132 C678 138 670 171 668 188 C674 202 689 212 707 212 L707 212 Z " />
<glyph glyph-name="C" unicode="C" horiz-adv-x="1000" d="M900 750 L100 750 C45 750 0 705 0 650 L0 -150 C0 -205 45 -250 100 -250 L900 -250 C955 -250 1000 -205 1000 -150 L1000 650 C1000 705 955 750 900 750 L900 750 Z M258 569 C277 569 284 559 288 544 L304 488 C295 478 275 471 262 471 C248 471 231 478 221 486 C215 491 212 497 216 508 L228 545 C232 559 242 569 258 569 L258 569 Z M746 569 C765 569 772 559 776 544 L792 488 C783 478 763 471 750 471 C736 471 719 478 709 486 C703 491 701 499 704 508 L716 545 C720 559 730 569 746 569 L746 569 Z M614 141 L590 139 L578 249 L586 282 L566 286 L558 251 L579 93 L423 93 L435 285 L367 517 C363 529 367 538 375 540 L401 547 C407 549 413 546 414 541 L425 502 L418 494 L472 375 L551 359 C593 351 614 326 614 282 L614 141 Z M543 516 C559 516 576 503 578 480 L584 413 C574 407 558 402 543 402 C526 402 501 415 489 428 C483 434 482 441 489 454 L509 493 C516 507 528 516 543 516 L543 516 Z M355 268 L334 266 L320 382 L300 380 L319 222 L192 222 L216 380 L196 382 L178 258 L153 264 L173 407 C177 434 197 441 216 441 L298 441 C318 441 329 429 335 408 L352 346 L355 268 Z M850 264 L825 258 L807 382 L787 380 L811 222 L684 222 L703 380 L683 382 L669 266 L648 268 L651 346 L668 408 C674 429 685 441 705 441 L787 441 C806 441 826 434 830 407 L850 264 Z M792 79 L761 79 L761 194 L800 200 L792 79 Z M294 79 L262 79 L262 193 L301 199 L294 79 Z M709 79 L703 185 L741 191 L741 79 L709 79 Z M211 79 L204 184 L242 190 L242 79 L211 79 Z M583 -90 L533 -90 L518 65 L574 71 L583 -90 Z M470 -90 L420 -90 L428 55 L486 61 L470 -90 Z " />
<glyph glyph-name="D" unicode="D" horiz-adv-x="1000" d="M100 -250 L900 -250 C955 -250 1000 -205 1000 -150 L1000 650 C1000 705 955 750 900 750 L100 750 C45 750 0 705 0 650 L0 -150 C0 -205 45 -250 100 -250 L100 -250 Z M452 507 C452 533 473 555 500 555 C527 555 548 533 548 507 L452 507 Z M342 -100 L342 -75 L490 -64 L490 459 L342 459 L378 260 L357 260 L321 459 L264 459 L229 260 L209 260 L243 459 L234 459 L234 479 L765 479 L765 459 L757 459 L791 260 L771 260 L736 459 L679 459 L643 260 L623 260 L658 459 L510 459 L510 -64 L658 -75 L658 -100 L342 -100 Z M293 154 C219 154 162 186 162 235 L423 235 C423 186 367 154 293 154 L293 154 Z M708 154 C634 154 577 186 577 235 L838 235 C838 186 782 154 708 154 L708 154 Z " />
<glyph glyph-name="E" unicode="E" horiz-adv-x="1000" d="M900 750 L100 750 C45 750 0 705 0 650 L0 -150 C0 -205 45 -250 100 -250 L900 -250 C955 -250 1000 -205 1000 -150 L1000 650 C1000 705 955 750 900 750 L900 750 Z M557 528 L557 548 L625 548 L614 600 L748 600 L748 528 L557 528 Z M334 525 C359 525 373 519 382 504 C382 476 376 427 371 422 C359 420 347 418 334 418 C322 418 309 419 296 422 C293 431 286 477 286 503 C295 519 309 525 334 525 L334 525 Z M635 508 L744 508 C735 486 714 471 689 471 C664 471 643 486 635 508 L635 508 Z M467 273 L433 232 L423 388 L403 386 L413 231 L256 231 L265 374 L245 376 L235 223 L203 260 C193 272 188 282 190 298 L204 425 C207 452 226 475 244 479 L269 484 L278 416 C279 407 297 403 317 402 L326 291 L346 291 L355 402 C373 404 388 409 390 416 L400 483 L424 479 C451 474 476 450 477 413 L479 310 C479 295 476 284 467 273 L467 273 Z M539 316 L502 301 L501 362 L530 380 L569 414 C584 427 604 441 622 441 L741 441 L609 297 L608 365 L539 316 Z M781 176 L769 227 L774 347 L754 347 L750 251 L619 251 L781 423 L812 404 L812 199 C812 189 793 180 781 176 L781 176 Z M751 -100 L731 -100 L722 29 L694 143 L675 143 L638 -100 L588 -100 L611 231 L749 231 L761 171 L779 36 L781 -70 C781 -89 770 -100 751 -100 L751 -100 Z M434 -100 L378 -100 L343 139 L324 139 L286 -100 L234 -100 L255 211 L414 211 L434 -100 Z " />
<glyph glyph-name="F" unicode="F" horiz-adv-x="1000" d="M100 -250 L900 -250 C955 -250 1000 -205 1000 -150 L1000 650 C1000 705 955 750 900 750 L100 750 C45 750 0 705 0 650 L0 -150 C0 -205 45 -250 100 -250 L100 -250 Z M545 491 L451 509 C455 532 475 548 498 548 C528 548 551 520 545 491 L545 491 Z M342 -100 L342 -75 L490 -64 L490 460 L345 488 L377 310 L356 310 L323 492 L262 503 L228 310 L207 310 L242 507 L232 509 L236 529 L767 429 L763 409 L756 410 L790 210 L770 210 L735 414 L682 424 L642 210 L621 210 L662 428 L510 457 L510 -64 L658 -75 L658 -100 L342 -100 Z M293 204 C219 204 162 236 162 285 L423 285 C423 236 367 204 293 204 L293 204 Z M708 104 C634 104 577 136 577 185 L838 185 C838 136 782 104 708 104 L708 104 Z " />
<glyph glyph-name="G" unicode="G" horiz-adv-x="1000" d="M100 -250 L900 -250 C955 -250 1000 -205 1000 -150 L1000 650 C1000 705 955 750 900 750 L100 750 C45 750 0 705 0 650 L0 -150 C0 -205 45 -250 100 -250 L100 -250 Z M455 491 C449 520 472 548 502 548 C525 548 545 532 549 509 L455 491 Z M342 -100 L342 -75 L490 -64 L490 457 L338 428 L379 210 L358 210 L318 424 L265 414 L230 210 L210 210 L244 410 L237 409 L233 429 L764 529 L768 509 L758 507 L793 310 L772 310 L738 503 L677 492 L644 310 L623 310 L655 488 L510 461 L510 -64 L658 -75 L658 -100 L342 -100 Z M708 204 C634 204 577 236 577 285 L838 285 C838 236 782 204 708 204 L708 204 Z M294 104 C220 104 163 136 163 185 L424 185 C424 136 368 104 294 104 L294 104 Z " />
<glyph glyph-name="H" unicode="H" horiz-adv-x="1000" d="M900 750 L100 750 C45 750 0 705 0 650 L0 -150 C0 -205 45 -250 100 -250 L900 -250 C955 -250 1000 -205 1000 -150 L1000 650 C1000 705 955 750 900 750 L900 750 Z M693 595 L718 593 L713 557 L819 546 L790 291 L683 302 L662 119 L637 121 L658 305 L546 316 L576 572 L689 560 L693 595 Z M695 72 L689 34 C687 21 674 15 661 15 L650 15 L642 -40 L617 -38 L625 16 L477 22 L462 123 L442 120 L470 -100 L244 -100 L245 55 C245 96 222 224 197 337 L181 508 L181 547 C181 558 190 567 201 567 L244 567 C255 567 264 558 264 547 L264 503 L247 485 C253 445 265 396 279 350 C308 285 322 241 331 234 L459 199 C490 169 514 134 533 94 L695 72 Z M403 437 C437 437 487 428 505 398 L497 310 C494 274 462 252 441 252 L352 252 L334 294 L343 376 C347 413 370 437 403 437 L403 437 Z " />
<glyph glyph-name="I" unicode="I" horiz-adv-x="1000" d="M900 750 L100 750 C45 750 0 705 0 650 L0 -150 C0 -205 45 -250 100 -250 L900 -250 C955 -250 1000 -205 1000 -150 L1000 650 C1000 705 955 750 900 750 L900 750 Z M389 430 L421 528 C434 568 458 593 502 593 C552 593 569 568 581 525 L624 374 C601 349 548 331 512 331 C477 331 429 348 401 371 C386 383 379 398 389 430 L389 430 Z M237 -100 L239 81 L287 264 L388 302 L492 178 L352 26 L349 98 L329 96 L323 -7 L237 -100 Z M334 -100 L263 -100 L633 299 L672 281 L334 -100 Z M415 -100 L362 -100 L688 267 L725 248 L415 -100 Z M763 19 L739 -100 L672 -100 L665 -61 L673 70 L653 85 L633 -63 L633 -100 L443 -100 L740 234 L763 19 Z " />
<glyph glyph-name="J" unicode="J" horiz-adv-x="1000" d="M900 750 L100 750 C45 750 0 705 0 650 L0 -150 C0 -205 45 -250 100 -250 L900 -250 C955 -250 1000 -205 1000 -150 L1000 650 C1000 705 955 750 900 750 L900 750 Z M692 559 L692 592 L717 592 L717 569 L692 559 Z M722 45 L710 -1 L710 -51 L685 -52 L685 -1 L521 23 L459 69 L439 -36 L455 -100 L206 -100 L215 87 L163 297 C161 305 160 312 160 319 L166 519 L166 571 C166 580 172 586 181 586 L232 586 C241 586 247 580 247 571 L247 523 L230 505 L247 312 L367 119 L456 183 L570 83 L722 45 Z M837 292 L710 292 L710 89 L685 94 L685 291 L556 291 L556 539 L837 539 L837 292 Z M316 329 L344 402 C355 432 379 452 417 452 C459 452 476 424 483 391 L507 270 C488 249 442 238 411 238 C383 238 346 254 325 275 C314 286 307 306 316 329 L316 329 Z " />
<glyph glyph-name="K" unicode="K" horiz-adv-x="1000" d="M100 -250 L900 -250 C955 -250 1000 -205 1000 -150 L1000 650 C1000 705 955 750 900 750 L100 750 C45 750 0 705 0 650 L0 -150 C0 -205 45 -250 100 -250 L100 -250 Z M692 559 L692 592 L717 592 L717 569 L692 559 Z M194 -100 L208 83 L160 314 L166 561 C166 575 172 586 186 586 L219 586 C233 586 244 575 244 561 L244 523 L227 506 L247 315 L285 210 L309 210 C372 210 414 199 464 186 L580 84 L719 51 L710 -1 L710 -51 L685 -52 L685 -1 L524 22 L469 70 L461 70 L446 -36 L464 -100 L194 -100 Z M837 292 L710 292 L710 89 L685 94 L685 291 L556 291 L556 539 L837 539 L837 292 Z M380 256 C358 263 324 280 315 293 C310 309 307 382 310 420 C327 445 351 456 384 456 C424 456 463 442 479 404 C475 367 458 294 451 280 C435 267 402 258 380 256 L380 256 Z " />
<glyph glyph-name="L" unicode="L" horiz-adv-x="1000" d="M900 750 L100 750 C45 750 0 705 0 650 L0 -150 C0 -205 45 -250 100 -250 L900 -250 C955 -250 1000 -205 1000 -150 L1000 650 C1000 705 955 750 900 750 L900 750 Z M707 574 L713 603 L733 598 L727 570 L707 574 Z M830 535 L790 267 L676 283 L618 -73 L598 -68 L605 -26 L440 -32 C408 -33 381 -23 368 0 L336 55 L318 45 L355 -100 L170 -100 L170 44 L199 189 C206 224 238 244 271 244 C309 244 343 233 356 207 L440 40 L615 43 L656 286 L531 304 L572 574 L830 535 Z M258 478 C293 485 347 485 371 458 L381 365 C385 327 356 298 335 294 L241 276 L206 403 C197 437 224 471 258 478 L258 478 Z M387 195 L471 161 L604 178 L593 108 L508 93 C498 91 487 92 477 94 L433 104 L387 195 Z " />
<glyph glyph-name="M" unicode="M" horiz-adv-x="1000" d="M900 750 L100 750 C45 750 0 705 0 650 L0 -150 C0 -205 45 -250 100 -250 L900 -250 C955 -250 1000 -205 1000 -150 L1000 650 C1000 705 955 750 900 750 L900 750 Z M644 138 L609 138 L593 251 L592 301 L582 301 L573 251 L589 138 L599 33 L416 33 L436 303 L384 447 L358 565 C355 578 358 586 367 589 L402 601 C406 602 412 604 416 594 L427 565 L418 543 L434 489 L467 412 L592 384 C621 378 637 357 638 325 L644 138 Z M486 483 L508 536 C514 550 527 558 545 558 C565 558 589 545 589 519 L589 454 C589 441 573 433 553 433 C519 433 500 443 486 459 C482 464 481 472 486 483 L486 483 Z M590 -100 L545 -100 L527 9 L588 12 L590 -100 Z M473 -100 L428 -100 L429 4 L490 7 L473 -100 Z " />
<glyph glyph-name="N" unicode="N" horiz-adv-x="1000" d="M900 750 L100 750 C45 750 0 705 0 650 L0 -150 C0 -205 45 -250 100 -250 L900 -250 C955 -250 1000 -205 1000 -150 L1000 650 C1000 705 955 750 900 750 L900 750 Z M644 138 L609 138 L592 251 L592 301 L582 301 L573 251 L589 138 L607 -100 L549 -100 L540 23 L516 152 L503 152 L457 -100 L398 -100 L436 303 L384 447 L358 565 C355 578 358 586 367 589 L402 601 C406 602 412 604 416 594 L427 565 L418 543 L434 489 L467 412 L592 384 C621 378 637 357 638 325 L644 138 Z M497 534 C508 549 523 555 544 555 C572 555 594 545 603 522 C600 499 589 453 584 444 C575 437 553 431 539 430 C526 434 505 445 499 454 C497 464 495 510 497 534 L497 534 Z " />
<glyph glyph-name="O" unicode="O" horiz-adv-x="1000" d="M900 750 L100 750 C45 750 0 705 0 650 L0 -150 C0 -205 45 -250 100 -250 L900 -250 C955 -250 1000 -205 1000 -150 L1000 650 C1000 705 955 750 900 750 L900 750 Z M509 565 C558 565 593 550 612 513 C612 468 600 378 592 360 C580 346 547 332 509 324 C472 332 439 346 426 360 C418 378 406 466 406 513 C425 550 460 565 509 565 L509 565 Z M244 224 L391 307 L477 160 L352 25 L349 98 L329 96 L323 -6 L264 -70 L246 0 L244 224 Z M263 -100 L629 295 L665 275 L334 -100 L263 -100 Z M362 -100 L687 263 L718 245 L415 -100 L362 -100 Z M739 -100 L669 -100 L665 -61 L673 70 L653 85 L630 -100 L443 -100 L740 234 L753 226 L764 20 L739 -100 Z " />
<glyph glyph-name="P" unicode="P" horiz-adv-x="1000" d="M900 750 L100 750 C45 750 0 705 0 650 L0 -150 C0 -205 45 -250 100 -250 L900 -250 C955 -250 1000 -205 1000 -150 L1000 650 C1000 705 955 750 900 750 L900 750 Z M429 595 C461 595 483 585 495 562 C495 533 487 476 482 464 C474 456 457 447 439 443 L439 343 L419 343 L419 443 C401 447 384 456 376 464 C371 476 364 532 364 562 C376 585 398 595 429 595 L429 595 Z M744 509 L656 418 L547 312 L539 170 L466 170 L466 210 C466 221 460 230 452 236 L502 411 L627 490 L721 583 L753 555 C770 540 759 524 744 509 L744 509 Z M278 401 L358 411 L403 251 L349 260 L326 328 L306 328 L333 238 L408 229 C431 226 441 213 441 193 L441 170 L277 170 L240 346 C234 375 253 397 278 401 L278 401 Z M665 201 L705 201 L705 181 L602 181 L602 201 L644 201 L644 223 L650 218 L596 264 L619 287 L665 233 L665 201 Z M710 151 L710 131 L676 131 L676 -100 L586 -100 C589 -89 591 -78 591 -66 C591 -1 539 51 475 51 C410 51 358 -1 358 -66 C358 -78 360 -89 364 -100 L274 -100 L274 131 L240 131 L240 151 L710 151 Z " />
<glyph glyph-name="Q" unicode="Q" horiz-adv-x="1000" d="M900 750 L100 750 C45 750 0 705 0 650 L0 -150 C0 -205 45 -250 100 -250 L900 -250 C955 -250 1000 -205 1000 -150 L1000 650 C1000 705 955 750 900 750 L900 750 Z M212 381 L212 505 L343 571 C348 574 355 575 369 573 L515 555 C537 552 544 539 544 511 L370 511 C354 511 342 502 342 486 C342 471 349 457 370 457 L438 457 C456 457 471 443 471 426 C471 407 456 393 438 393 L337 393 C321 379 291 377 262 377 C244 377 228 381 212 381 L212 381 Z M596 491 L596 285 L438 285 L438 373 C464 373 491 398 491 426 C491 452 464 477 438 477 L410 477 L410 491 L596 491 Z M788 225 L261 225 L311 325 L418 325 L418 285 L370 285 L370 265 L666 265 L666 285 L616 285 L616 325 L738 325 L788 225 Z M788 205 L788 150 L261 150 L261 205 L788 205 Z M763 130 L763 -100 L286 -100 L286 130 L374 130 L374 -6 L675 -6 L675 130 L763 130 Z " />
<glyph glyph-name="R" unicode="R" horiz-adv-x="1000" d="M900 750 L100 750 C45 750 0 705 0 650 L0 -150 C0 -205 45 -250 100 -250 L900 -250 C955 -250 1000 -205 1000 -150 L1000 650 C1000 705 955 750 900 750 L900 750 Z M420 578 C431 594 447 602 469 602 C495 602 517 597 529 571 C528 547 519 500 514 490 C505 482 483 475 468 473 C454 476 433 487 426 495 C423 505 420 553 420 578 L420 578 Z M538 499 L551 568 C554 569 557 570 561 570 C585 570 596 561 604 541 L633 471 C625 457 599 443 581 443 C567 443 545 447 532 453 L538 499 Z M451 -100 L444 187 L421 189 L391 -100 L334 -100 L339 151 L365 251 L360 378 L342 377 L347 251 L323 165 L303 231 L298 391 C297 419 308 435 324 441 L411 474 L454 407 L454 305 L474 305 L474 402 L507 445 L520 427 L523 324 L543 340 L543 360 L572 417 L648 383 L609 363 L575 315 C564 300 553 285 544 276 C527 259 466 263 442 266 L440 246 C458 244 496 240 525 247 L527 183 L503 -100 L451 -100 Z M692 316 L658 302 L632 359 L668 377 C683 384 702 353 702 333 C702 326 699 319 692 316 L692 316 Z M568 -7 L562 -100 L520 -100 L547 184 L542 252 C548 254 554 258 558 262 C568 272 581 288 592 304 L619 341 L647 278 L660 279 C672 186 680 73 680 14 L568 -7 Z M618 -100 L610 -21 L660 -21 L663 -100 L618 -100 Z " />
<glyph glyph-name="S" unicode="S" horiz-adv-x="1000" d="M900 750 L100 750 C45 750 0 705 0 650 L0 -150 C0 -205 45 -250 100 -250 L900 -250 C955 -250 1000 -205 1000 -150 L1000 650 C1000 705 955 750 900 750 L900 750 Z M386 532 L407 578 C416 597 427 606 449 606 C468 606 481 591 485 570 L500 494 C487 483 461 478 443 478 C426 478 403 490 390 503 C384 509 380 518 386 532 L386 532 Z M539 574 C565 574 584 568 596 550 C597 525 594 477 590 467 C579 456 564 448 548 445 L521 451 L525 489 L509 567 C517 571 527 574 539 574 L539 574 Z M610 435 L654 389 L605 363 L574 319 C562 302 550 286 540 276 C523 259 462 263 438 266 L436 246 C454 244 492 240 521 247 L523 186 L512 37 L325 37 L348 179 L369 274 L369 372 L349 372 L349 276 L330 185 L305 193 L301 305 L320 399 C325 425 354 439 373 445 L400 454 L432 363 L462 363 L501 458 L518 427 L519 330 L550 374 L573 426 L610 435 Z M688 316 L654 302 L628 359 L664 377 C679 384 698 353 698 333 C698 326 695 319 688 316 L688 316 Z M693 -100 L648 -100 L625 58 L619 140 L599 123 L585 -100 L541 -100 L535 71 L543 186 L541 253 C546 256 550 258 554 262 C564 272 577 288 590 306 L615 341 L643 278 L679 292 L693 -100 Z M412 17 L399 -100 L342 -100 L345 17 L412 17 Z M510 17 L502 -100 L459 -100 L456 17 L510 17 Z " />
<glyph glyph-name="T" unicode="T" horiz-adv-x="1000" d="M900 750 L100 750 C45 750 0 705 0 650 L0 -150 C0 -205 45 -250 100 -250 L900 -250 C955 -250 1000 -205 1000 -150 L1000 650 C1000 705 955 750 900 750 L900 750 Z M420 578 C432 596 451 602 477 602 C503 602 520 591 529 571 C528 547 519 500 514 490 C505 482 483 475 468 473 C454 476 437 484 426 495 C422 505 420 553 420 578 L420 578 Z M549 575 L546 584 C551 585 562 587 570 587 C586 587 599 582 608 570 C612 548 612 504 611 495 C603 484 587 475 574 471 C561 471 541 474 532 482 C543 513 548 547 549 575 L549 575 Z M614 435 L658 389 L609 363 L576 315 C566 300 553 285 544 276 C527 259 466 263 442 266 L440 246 C458 244 496 240 525 247 L527 183 L500 -100 L451 -100 L444 187 L421 189 L391 -100 L334 -100 L339 151 L365 251 L360 378 L342 377 L347 251 L323 165 L303 231 L298 391 C297 419 308 435 324 441 L411 474 L454 407 L454 305 L474 314 L474 402 L507 445 L520 427 L523 330 L554 374 L577 426 L614 435 Z M692 316 L658 302 L632 359 L668 377 C683 384 702 353 702 333 C702 326 699 319 692 316 L692 316 Z M697 -100 L652 -100 L629 58 L623 140 L603 123 L589 -100 L545 -100 L536 71 L547 183 L545 253 C550 256 554 258 558 262 C568 272 581 288 592 304 L619 341 L647 278 L683 292 L697 -100 Z " />
<glyph glyph-name="U" unicode="U" horiz-adv-x="1000" d="M900 750 L100 750 C45 750 0 705 0 650 L0 -150 C0 -205 45 -250 100 -250 L900 -250 C955 -250 1000 -205 1000 -150 L1000 650 C1000 705 955 750 900 750 L900 750 Z M379 531 L399 578 C407 597 416 606 441 606 C465 606 473 591 477 570 L492 494 C479 483 453 478 435 478 C418 478 395 490 382 503 C376 509 373 517 379 531 L379 531 Z M525 483 L534 534 C538 557 558 570 577 570 C595 570 604 559 612 542 L643 471 C633 458 609 444 591 444 C574 444 549 446 534 456 C527 460 522 468 525 483 L525 483 Z M637 391 L648 383 L609 363 L572 311 C562 297 552 284 544 276 C535 267 514 263 492 263 C473 263 453 265 442 266 L440 246 C456 244 486 241 513 245 L515 186 L504 37 L317 37 L340 179 L361 274 L361 372 L341 372 L341 276 L322 185 L297 193 L293 305 L312 399 C317 425 346 439 365 445 L392 454 L424 363 L454 363 L493 458 L510 427 L512 324 L532 340 L532 360 L572 417 L637 391 Z M691 315 L658 302 L632 359 L668 377 C683 384 702 354 702 334 C702 327 700 318 691 315 L691 315 Z M680 14 L568 -6 L562 -100 L513 -100 L535 187 L533 249 C543 252 552 256 558 262 C566 270 576 283 586 296 L619 341 L647 278 L660 279 C670 186 680 73 680 14 L680 14 Z M404 17 L391 -100 L334 -100 L337 17 L404 17 Z M502 17 L494 -100 L451 -100 L448 17 L502 17 Z M663 -100 L618 -100 L610 -21 L660 -21 L663 -100 Z " />
<glyph glyph-name="V" unicode="V" horiz-adv-x="1000" d="M900 750 L100 750 C45 750 0 705 0 650 L0 -150 C0 -205 45 -250 100 -250 L900 -250 C955 -250 1000 -205 1000 -150 L1000 650 C1000 705 955 750 900 750 L900 750 Z M339 224 L307 224 L296 337 L276 335 L304 59 L264 59 L240 234 L220 234 L203 59 L163 59 L181 318 L158 445 L150 565 C149 576 151 583 158 584 L190 587 C195 587 200 583 200 579 L203 549 L197 544 L203 471 L218 416 L292 403 C312 399 330 390 331 368 L339 224 Z M850 565 L842 445 L819 318 L837 59 L797 59 L780 234 L760 234 L736 59 L696 59 L724 335 L704 337 L693 224 L661 224 L669 368 C670 390 688 399 708 403 L782 416 L797 471 L803 544 L797 549 L801 579 C802 583 805 586 810 586 L842 583 C849 582 851 576 850 565 L850 565 Z M621 135 L587 126 L571 196 L571 262 L551 262 L551 194 L565 120 L586 -100 L536 -100 L502 132 L487 132 L460 -100 L410 -100 L432 298 L390 415 L357 541 C353 555 356 563 364 565 L402 574 C411 576 415 572 418 563 L429 524 L422 516 C435 471 448 416 468 386 L568 366 C593 361 610 345 609 321 L607 236 L621 135 Z M263 528 C284 528 302 520 308 503 C306 485 298 452 294 446 C288 440 271 436 261 435 C251 438 235 446 231 453 C230 460 229 495 230 512 C238 523 249 528 263 528 L263 528 Z M692 503 C698 520 716 528 737 528 C751 528 762 523 770 512 C771 495 770 460 769 453 C765 446 749 438 739 435 C729 436 712 440 706 446 C702 452 694 485 692 503 L692 503 Z M488 495 C497 509 511 511 530 511 C549 511 562 502 568 486 C566 468 557 435 553 428 C549 421 530 418 519 417 C509 420 492 427 489 435 C486 443 487 478 488 495 L488 495 Z " />
<glyph glyph-name="W" unicode="W" horiz-adv-x="1000" d="M900 750 L100 750 C45 750 0 705 0 650 L0 -150 C0 -205 45 -250 100 -250 L900 -250 C955 -250 1000 -205 1000 -150 L1000 650 C1000 705 955 750 900 750 L900 750 Z M788 242 L801 -17 L500 -5 L199 -17 L213 244 L199 481 L500 507 L800 481 L788 242 Z M510 456 L490 456 L490 394 L510 394 L510 456 Z M705 383 L687 391 L627 255 L572 285 L562 267 L637 227 L705 383 Z M510 334 L490 334 L490 272 L510 272 L510 334 Z M510 222 L490 222 L490 160 L510 160 L510 222 Z M577 170 L577 150 L710 150 L710 170 L577 170 Z M420 148 L420 168 L286 168 L286 148 L420 148 Z M510 110 L490 110 L490 48 L510 48 L510 110 Z " />
<glyph glyph-name="X" unicode="X" horiz-adv-x="1000" d="M900 750 L100 750 C45 750 0 705 0 650 L0 -150 C0 -205 45 -250 100 -250 L900 -250 C955 -250 1000 -205 1000 -150 L1000 650 C1000 705 955 750 900 750 L900 750 Z M387 152 L366 209 L364 275 L345 277 L347 209 L366 60 L207 60 L232 281 L173 421 L151 529 C148 543 150 552 159 554 L189 560 C195 561 201 560 204 550 L210 527 L203 519 L249 388 L360 368 C385 364 403 351 403 324 L404 206 L453 183 L526 183 L567 217 L581 333 C584 360 596 372 622 377 L731 398 L761 467 L779 528 L771 537 L777 558 C779 566 785 571 790 570 L827 562 C837 560 838 550 835 537 L810 426 L764 316 L793 -101 L740 -101 L699 162 L687 162 L666 29 L661 -101 L613 -101 L612 35 L635 208 L637 285 L618 284 L616 218 L596 164 L538 141 L548 11 L408 11 L418 141 L387 152 Z M318 529 C343 529 351 517 357 497 L377 426 C365 414 341 405 324 405 C307 405 285 413 270 424 C263 429 261 436 266 451 L281 498 C287 517 298 529 318 529 L318 529 Z M654 526 C677 526 694 524 704 507 C706 486 705 444 703 435 C697 427 679 418 666 414 C654 415 634 420 626 426 C622 435 611 476 609 497 C616 515 631 526 654 526 L654 526 Z M438 248 L451 289 C455 303 464 313 481 313 C500 313 507 303 511 288 L528 229 C519 221 499 215 485 215 C471 215 455 219 443 227 C437 231 435 237 438 248 L438 248 Z M269 41 L253 -100 L205 -100 L216 41 L269 41 Z M370 -100 L323 -100 L305 41 L359 41 L370 -100 Z M466 -11 L464 -100 L426 -100 L428 -11 L466 -11 Z M530 -100 L492 -100 L490 -11 L528 -11 L530 -100 Z " />
<glyph glyph-name="Y" unicode="Y" horiz-adv-x="1000" d="M900 750 L100 750 C45 750 0 705 0 650 L0 -150 C0 -205 45 -250 100 -250 L900 -250 C955 -250 1000 -205 1000 -150 L1000 650 C1000 705 955 750 900 750 L900 750 Z M648 593 C673 593 689 591 701 574 C704 551 703 505 701 495 C699 487 675 475 662 471 C648 472 621 477 617 484 C612 493 600 537 597 560 C605 580 623 593 648 593 L648 593 Z M289 566 C300 585 316 591 341 591 C366 591 385 581 393 562 C392 539 384 493 380 484 C369 475 350 469 337 467 C323 470 305 478 295 488 C292 497 289 543 289 566 L289 566 Z M799 298 L798 170 L761 170 L752 247 L752 324 L732 324 L732 246 L761 -100 L710 -100 L673 163 L660 163 L632 18 L616 -100 L567 -100 L569 25 L596 247 L596 304 L588 304 L516 188 C509 177 499 170 490 170 C481 170 472 174 468 185 L415 314 L408 314 L441 -100 L391 -100 L355 157 L342 157 L315 15 L299 -100 L251 -100 L253 22 L280 233 L280 311 L260 311 L260 234 L251 158 L201 161 L206 277 L231 365 C240 397 249 412 280 417 L335 426 L335 288 L355 284 L355 429 L392 435 C419 439 437 432 454 381 L491 270 L497 270 L552 383 C567 413 584 431 616 434 L654 438 L654 284 L674 288 L674 440 L722 446 C749 449 777 446 785 392 L799 298 Z " />
<glyph glyph-name="Z" unicode="Z" horiz-adv-x="1000" d="M900 750 L100 750 C45 750 0 705 0 650 L0 -150 C0 -205 45 -250 100 -250 L900 -250 C955 -250 1000 -205 1000 -150 L1000 650 C1000 705 955 750 900 750 L900 750 Z M835 537 L810 426 L764 316 L793 -101 L740 -101 L699 162 L687 162 L666 29 L661 -101 L613 -101 L612 35 L635 208 L637 285 L618 284 L616 218 L596 164 L536 128 L526 -101 L494 -101 L483 51 L474 51 L463 -101 L431 -101 L422 128 L387 152 L366 209 L364 275 L345 277 L347 209 L366 60 L207 60 L232 281 L173 421 L151 529 C148 543 150 552 159 554 L189 560 C195 561 201 560 204 550 L210 527 L203 519 L249 388 L360 368 C385 364 403 351 403 324 L404 206 L453 183 L526 183 L567 217 L581 333 C584 360 596 372 622 377 L731 398 L761 467 L779 528 L771 537 L777 558 C779 566 785 571 790 570 L827 562 C837 560 838 550 835 537 L835 537 Z M318 529 C343 529 351 517 357 497 L377 426 C365 414 341 405 324 405 C307 405 285 413 270 424 C263 429 261 436 266 451 L281 498 C287 517 298 529 318 529 L318 529 Z M654 526 C677 526 694 524 704 507 C706 486 705 444 703 435 C697 427 679 418 666 414 C654 415 634 420 626 426 C622 435 611 476 609 497 C616 515 631 526 654 526 L654 526 Z M526 279 C526 262 526 246 519 228 C515 218 493 210 483 210 C473 210 450 218 447 228 C441 245 440 264 440 280 C447 295 466 303 484 303 C502 303 520 295 526 279 L526 279 Z M269 41 L253 -100 L205 -100 L216 41 L269 41 Z M370 -100 L323 -100 L305 41 L359 41 L370 -100 Z " />
<glyph glyph-name="bracketleft" unicode="&#x5b;" horiz-adv-x="1000" d="M100 -250 L900 -250 C955 -250 1000 -205 1000 -150 L1000 650 C1000 705 955 750 900 750 L100 750 C45 750 0 705 0 650 L0 -150 C0 -205 45 -250 100 -250 L100 -250 Z M557 453 C545 455 526 463 521 470 C516 477 512 517 512 538 C520 554 535 561 557 561 C579 561 594 554 602 538 C602 518 598 477 594 470 C590 463 569 455 557 453 L557 453 Z M583 255 L457 255 L470 391 C472 413 486 424 500 424 L622 424 L706 384 L767 384 L785 416 L750 437 L760 455 L850 401 L840 383 L803 405 L778 355 C775 349 769 342 756 341 L736 339 L730 301 L672 334 L630 367 L635 331 L663 255 L604 255 L604 298 L541 320 L529 378 L511 373 L519 305 L583 284 L583 255 Z M320 215 C309 215 291 226 290 245 L287 290 C296 306 321 310 339 310 C356 310 369 297 369 279 L369 215 L320 215 Z M791 255 L791 280 L850 280 L850 255 L791 255 Z M150 -12 L150 8 L483 8 L483 235 L850 235 L850 215 L503 215 L503 -12 L150 -12 Z M583 -99 L583 186 L603 186 L603 -99 L583 -99 Z M683 -99 L683 186 L703 186 L703 -99 L683 -99 Z M783 -99 L783 186 L803 186 L803 -99 L783 -99 Z M421 28 L372 28 L397 85 L376 111 L352 28 L277 28 L273 112 L200 88 L150 87 L150 131 L198 136 L277 185 L366 185 C390 185 405 167 414 148 L444 88 L421 28 Z M483 -99 L483 -43 L503 -41 L503 -99 L483 -99 Z M383 -99 L383 -52 L403 -50 L403 -99 L383 -99 Z M283 -99 L283 -61 L303 -59 L303 -99 L283 -99 Z M183 -99 L183 -71 L203 -69 L203 -99 L183 -99 Z " />
<glyph glyph-name="backslash" unicode="&#x5c;" horiz-adv-x="1000" d="M900 750 C955 750 1000 705 1000 650 L1000 -150 C1000 -205 955 -250 900 -250 L100 -250 C45 -250 0 -205 0 -150 L0 650 C0 705 45 750 100 750 L900 750 Z M255 528 L205 361 L642 235 L744 384 L255 528 Z M652 373 C662 373 670 365 670 355 C670 345 662 337 652 337 C642 337 634 345 634 355 C634 365 642 373 652 373 L652 373 Z M840 354 L821 360 L812 331 L745 351 L682 258 L783 230 L774 200 L793 194 L840 354 Z M400 97 L441 241 L421 247 L380 103 C358 103 339 88 334 67 L186 67 L175 214 L150 214 L150 -101 L175 -101 L186 47 L334 47 C339 27 358 11 379 11 C403 11 425 33 425 57 C425 73 415 89 400 97 L400 97 Z M379 83 C393 83 405 71 405 57 C405 43 393 31 379 31 C365 31 353 43 353 57 C353 71 365 83 379 83 L379 83 Z " />
<glyph glyph-name="bracketright" unicode="&#x5d;" horiz-adv-x="1000" d="M900 750 C955 750 1000 705 1000 650 L1000 -150 C1000 -205 955 -250 900 -250 L100 -250 C45 -250 0 -205 0 -150 L0 650 C0 705 45 750 100 750 L900 750 Z M752 509 L677 509 L677 489 L692 489 L692 459 C692 451 687 446 679 446 L575 446 C567 446 562 451 562 459 L562 489 L591 489 L591 509 L455 509 L455 538 C455 555 438 571 422 571 L318 571 C301 571 285 555 285 538 L285 536 L305 536 L305 538 C305 546 310 551 318 551 L422 551 C430 551 435 546 435 538 L435 509 L407 509 L407 489 L542 489 L542 459 C542 442 559 426 575 426 L679 426 C696 426 712 442 712 459 L712 489 L752 489 L752 509 Z M562 536 L562 538 C562 546 567 551 575 551 L679 551 C687 551 692 546 692 538 L692 536 L712 536 L712 538 C712 555 696 571 679 571 L575 571 C559 571 542 555 542 538 L542 536 L562 536 Z M435 461 L435 459 C435 451 430 446 422 446 L318 446 C310 446 305 451 305 459 L305 489 L320 489 L320 509 L245 509 L245 489 L285 489 L285 459 C285 442 301 426 318 426 L422 426 C438 426 455 442 455 459 L455 461 L435 461 Z M490 151 C490 195 473 236 443 266 L462 336 L296 380 L277 312 C207 291 158 225 158 151 C158 84 196 26 253 0 L244 -39 L262 -43 L280 30 C231 47 196 90 196 151 C196 220 253 278 324 278 C394 278 452 223 452 151 C452 80 394 23 324 23 C315 23 306 24 297 26 L289 -11 C300 -13 312 -15 323 -15 C415 -15 490 59 490 151 L490 151 Z M841 151 C841 224 792 288 723 310 L704 380 L538 336 L557 266 C541 248 527 226 519 203 C524 186 527 169 527 152 C527 135 521 118 516 101 C539 26 607 -14 676 -14 C687 -14 698 -13 709 -11 L699 25 C691 24 684 23 676 23 C609 23 548 74 548 151 C548 219 601 278 675 278 C746 278 803 221 803 151 C803 97 770 50 718 31 L738 -44 L757 -41 L747 1 C803 28 841 86 841 151 L841 151 Z M632 306 C640 306 646 312 646 320 C646 328 640 335 632 335 C624 335 617 328 617 320 C617 312 624 306 632 306 L632 306 Z M369 306 C377 306 383 312 383 320 C383 328 377 334 369 334 C361 334 355 328 355 320 C355 312 361 306 369 306 L369 306 Z " />
<glyph glyph-name="asciicircum" unicode="&#x5e;" horiz-adv-x="1000" d="M100 -250 L900 -250 C955 -250 1000 -205 1000 -150 L1000 650 C1000 705 955 750 900 750 L100 750 C45 750 0 705 0 650 L0 -150 C0 -205 45 -250 100 -250 L100 -250 Z M353 -16 C321 -16 295 -12 275 28 L150 28 L150 252 C172 289 303 368 314 399 L367 550 C421 532 429 474 412 415 L396 358 C390 336 404 317 427 316 L813 303 C834 302 850 286 850 266 C850 245 834 229 813 229 L453 228 C421 228 399 207 399 175 C399 159 405 146 414 136 C399 125 389 108 389 89 C389 61 405 44 423 37 C415 27 412 14 412 1 C412 -4 413 -10 415 -16 L353 -16 Z M453 142 C435 142 420 157 420 175 C420 193 435 208 453 208 L629 208 C647 208 662 193 662 175 C662 157 647 142 629 142 L453 142 Z M443 56 C425 56 410 71 410 89 C410 107 425 122 443 122 L619 122 C637 122 652 107 652 89 C652 71 637 56 619 56 L443 56 Z M466 -30 C448 -30 433 -15 433 3 C433 21 448 36 466 36 L599 36 C617 36 632 21 632 3 C632 -15 617 -30 599 -30 L466 -30 Z " />
<glyph glyph-name="underscore" unicode="&#x5f;" horiz-adv-x="1000" d="M900 750 L100 750 C45 750 0 705 0 650 L0 -150 C0 -205 45 -250 100 -250 L900 -250 C955 -250 1000 -205 1000 -150 L1000 650 C1000 705 955 750 900 750 L900 750 Z M215 495 L230 542 C236 561 248 574 269 574 C293 574 301 561 307 541 L328 469 C316 457 291 449 274 449 C257 449 234 456 221 468 C214 474 211 480 215 495 L215 495 Z M728 569 C749 569 764 552 764 532 L764 455 L703 455 C691 455 669 468 668 490 L666 545 C676 562 707 569 728 569 L728 569 Z M850 370 L850 162 L809 152 L799 227 L799 337 L779 337 L779 226 L791 84 C794 53 776 17 754 4 L743 153 L723 151 L738 -100 L689 -100 L654 183 L659 221 L690 334 L670 336 L629 205 L552 183 L572 -2 L421 -2 L440 183 L372 203 L331 336 L311 334 L327 277 C338 235 348 185 348 153 C348 119 343 89 338 63 L191 54 C187 94 197 159 204 172 L212 226 L212 337 L192 337 L192 227 L184 176 L150 183 L155 352 C156 395 184 408 217 408 L291 408 C320 408 354 393 363 368 L403 259 L452 230 L540 230 L603 263 L624 350 C634 390 651 409 695 413 L772 420 C802 423 850 419 850 370 L850 370 Z M454 299 L467 334 C473 349 481 357 499 357 C519 357 525 348 530 333 L548 280 C538 271 517 264 503 264 C489 264 469 270 458 279 C453 283 450 288 454 299 L454 299 Z M324 42 L304 -95 L262 -95 L272 32 L324 42 Z M248 39 L243 -42 L233 -42 L208 35 L248 39 Z M488 -22 L486 -100 L448 -100 L450 -22 L488 -22 Z M552 -100 L514 -100 L512 -22 L550 -22 L552 -100 Z " />
<glyph glyph-name="a" unicode="a" horiz-adv-x="1000" d="M900 750 L100 750 C45 750 0 705 0 650 L0 -150 C0 -205 45 -250 100 -250 L900 -250 C955 -250 1000 -205 1000 -150 L1000 650 C1000 705 955 750 900 750 L900 750 Z M429 537 C429 577 504 605 538 588 L567 531 C579 508 566 485 551 476 L490 442 L436 515 C431 521 429 529 429 537 L429 537 Z M850 509 L850 475 C850 459 842 451 826 451 L723 451 L662 401 L698 260 L801 122 C813 105 817 92 816 72 L810 -61 C809 -80 799 -90 780 -90 L743 -90 L745 68 L646 144 L620 144 L428 -91 L380 -65 L546 219 L509 283 L455 250 C423 230 393 236 372 267 L315 351 L301 348 L258 361 L211 351 C179 349 154 380 154 421 C154 441 157 461 157 480 C157 493 155 505 150 515 C194 521 272 506 273 453 L253 450 C253 480 212 495 175 496 C176 489 176 482 176 476 C176 458 174 440 174 424 C174 397 187 370 208 370 L253 383 L286 412 L394 437 L408 372 L367 363 L411 321 L400 289 L412 283 L426 308 C476 398 627 509 729 509 L850 509 Z " />
<glyph glyph-name="b" unicode="b" horiz-adv-x="1000" d="M900 750 L100 750 C45 750 0 705 0 650 L0 -150 C0 -205 45 -250 100 -250 L900 -250 C955 -250 1000 -205 1000 -150 L1000 650 C1000 705 955 750 900 750 L900 750 Z M353 474 L353 529 C353 539 361 547 371 547 L448 547 L448 474 L353 474 Z M555 547 L632 547 C642 547 650 539 650 529 L650 474 L555 474 L555 547 Z M817 199 L817 122 C817 57 782 22 717 22 L285 22 C220 22 185 57 185 122 L185 199 C185 218 195 229 215 229 L239 229 L279 383 C290 425 316 444 356 444 L649 444 C689 444 715 425 726 383 L765 229 L787 229 C807 229 817 219 817 199 L817 199 Z M734 229 L697 375 C690 402 676 414 648 414 L357 414 C329 414 315 402 308 375 L270 229 L734 229 Z M290 175 C268 175 252 159 252 137 C252 116 268 99 290 99 C311 99 328 116 328 137 C328 159 311 175 290 175 L290 175 Z M709 175 C687 175 671 159 671 137 C671 116 687 99 709 99 C731 99 747 116 747 137 C747 159 731 175 709 175 L709 175 Z M396 164 L396 144 L606 144 L606 164 L396 164 Z M396 114 L396 94 L606 94 L606 114 L396 114 Z M347 -8 L347 -53 C347 -63 339 -72 328 -72 L269 -72 C258 -72 249 -63 249 -53 L249 -8 L347 -8 Z M753 -8 L753 -53 C753 -63 745 -72 734 -72 L675 -72 C664 -72 655 -63 655 -53 L655 -8 L753 -8 Z " />
<glyph glyph-name="c" unicode="c" horiz-adv-x="1000" d="M900 750 L100 750 C45 750 0 705 0 650 L0 -150 C0 -205 45 -250 100 -250 L900 -250 C955 -250 1000 -205 1000 -150 L1000 650 C1000 705 955 750 900 750 L900 750 Z M374 580 L374 556 L150 569 L150 599 L374 580 Z M850 442 L850 342 L779 361 C779 368 773 374 767 374 C760 374 754 368 754 361 C754 360 754 359 755 358 L737 352 C679 421 523 517 415 545 L400 549 L400 587 C528 581 753 508 764 501 C775 494 790 472 800 465 C806 461 818 454 850 442 L850 442 Z M740 561 C746 561 752 555 752 548 C752 541 746 536 740 536 C733 536 727 541 727 548 C727 555 733 561 740 561 L740 561 Z M150 492 L150 528 L182 534 L193 492 L150 492 Z M830 531 C836 531 842 525 842 518 C842 511 836 506 830 506 C823 506 817 511 817 518 C817 525 823 531 830 531 L830 531 Z M474 479 C474 472 470 459 456 459 C438 459 387 496 387 511 C387 515 390 517 396 517 C413 517 474 500 474 479 L474 479 Z M620 509 C613 509 607 503 607 496 C607 489 613 484 620 484 C626 484 632 489 632 496 C632 503 626 509 620 509 L620 509 Z M702 312 L702 289 L650 293 C620 358 576 428 525 480 C603 440 681 386 718 342 C711 336 705 327 702 312 L702 312 Z M755 476 C748 476 742 470 742 463 C742 456 748 451 755 451 C761 451 767 456 767 463 C767 470 761 476 755 476 L755 476 Z M690 471 C683 471 677 465 677 458 C677 451 683 446 690 446 C696 446 702 451 702 458 C702 465 696 471 690 471 L690 471 Z M372 408 L372 106 L261 106 L261 8 L150 8 L150 48 L217 48 L217 68 L150 68 L150 454 L336 454 L372 408 Z M170 409 L170 247 L190 247 L190 409 L170 409 Z M220 409 L220 247 L240 247 L240 409 L220 409 Z M290 384 L290 409 L270 409 L270 247 L290 247 L290 272 L317 272 L317 384 L290 384 Z M830 376 C836 376 842 381 842 388 C842 395 836 401 830 401 C823 401 817 395 817 388 C817 381 823 376 830 376 L830 376 Z M640 391 C633 391 627 385 627 378 C627 371 633 366 640 366 C646 366 652 371 652 378 C652 385 646 391 640 391 L640 391 Z M667 343 C660 343 654 337 654 330 C654 323 660 318 667 318 C673 318 679 323 679 330 C679 337 673 343 667 343 L667 343 Z M779 341 L842 323 C837 282 816 262 805 255 C791 271 774 288 747 288 C738 288 729 286 722 282 L722 310 C722 324 736 332 752 332 C762 332 772 337 779 341 L779 341 Z M666 214 L632 226 L561 183 L554 194 C548 203 550 209 557 215 L614 261 C626 271 637 274 653 272 L700 266 C684 250 674 233 666 214 L666 214 Z M850 196 L850 156 L803 152 C796 152 791 152 785 161 L758 204 L741 194 L764 157 L744 143 L744 117 L794 45 C783 33 761 20 747 20 C713 21 674 43 645 55 L619 66 C620 84 654 107 660 131 C674 192 692 223 701 236 C710 249 726 268 746 268 C764 268 777 256 789 241 L820 200 L850 196 Z M285 203 C269 203 254 189 254 172 C254 155 269 141 285 141 C302 141 317 155 317 172 C317 189 302 203 285 203 L285 203 Z M372 76 L372 -70 C372 -75 367 -80 362 -80 L291 -80 C285 -80 281 -75 281 -70 L281 76 C281 82 285 86 291 86 L362 86 C367 86 372 82 372 76 L372 76 Z M689 15 L680 -3 C672 -18 661 -25 643 -23 L557 -12 C544 -10 537 -2 540 11 L544 27 L629 27 L637 37 L689 15 Z M799 22 L786 -81 C784 -94 778 -100 765 -100 L743 -100 L743 0 C762 -3 782 9 799 22 L799 22 Z " />
<glyph glyph-name="d" unicode="d" horiz-adv-x="1000" d="M100 -250 L900 -250 C955 -250 1000 -205 1000 -150 L1000 650 C1000 705 955 750 900 750 L100 750 C45 750 0 705 0 650 L0 -150 C0 -205 45 -250 100 -250 L100 -250 Z M272 425 L329 441 L357 517 C361 528 370 534 381 534 C403 534 435 517 438 488 C424 459 413 442 403 433 C399 429 396 427 393 427 C390 427 387 428 381 430 L374 415 C383 412 389 410 395 410 C403 410 410 414 416 423 L445 463 L469 474 L446 576 L274 554 L272 574 L477 600 C497 603 514 594 520 571 L547 467 C552 448 538 425 524 416 L451 370 L435 274 L451 108 L449 12 C449 -7 438 -18 418 -18 L393 -18 L391 96 L360 218 L349 218 L318 108 L237 56 C221 46 207 49 195 63 L182 79 L269 153 L297 274 L291 342 L258 330 L222 271 C210 251 194 243 180 253 L150 275 L200 369 C213 394 223 400 243 410 L272 425 Z M452 392 L514 433 C524 439 530 451 527 462 L500 566 C496 580 493 582 479 580 L466 578 L491 466 L452 434 L452 392 Z M289 363 L244 346 L205 281 C198 269 194 267 188 272 L175 281 L218 360 C226 375 232 381 252 392 L277 405 L289 363 Z M319 276 L413 276 L419 292 L389 297 L398 359 L378 361 L368 295 L321 292 L319 276 Z M736 233 L670 270 C674 298 692 329 707 350 C715 354 717 356 730 356 C759 356 794 322 789 290 C774 269 748 240 736 233 L736 233 Z M755 154 L569 221 C546 229 544 257 558 271 L619 332 C641 354 654 355 683 352 C669 329 657 305 649 282 L633 291 L623 273 L755 199 C767 192 768 184 763 172 L755 154 Z M702 -42 L513 -30 L513 5 C513 44 519 72 534 99 L587 194 L745 137 L737 121 L668 139 C653 143 627 137 616 116 L605 95 L623 85 L634 106 C639 116 650 122 664 119 L747 99 L781 162 C793 184 786 205 765 217 L757 221 C776 240 794 262 807 282 L825 270 C852 252 854 216 844 194 L798 93 C784 60 764 39 725 50 L677 64 L669 44 L703 24 C704 9 705 -2 705 -11 C705 -21 704 -29 702 -42 L702 -42 Z M545 -100 L535 -51 L606 -56 L606 -100 L545 -100 Z M626 -100 L626 -56 L701 -61 L693 -100 L626 -100 Z " />
<glyph glyph-name="e" unicode="e" horiz-adv-x="1000" d="M100 750 L900 750 C955 750 1000 705 1000 650 L1000 -150 C1000 -205 955 -250 900 -250 L100 -250 C45 -250 0 -205 0 -150 L0 650 C0 705 45 750 100 750 L100 750 Z M685 300 L685 280 L793 280 L694 366 L744 469 L617 461 L589 581 L499 507 L409 581 L381 461 L254 469 L304 366 L205 280 L346 280 L346 300 L259 300 L328 360 L286 447 L397 441 L421 545 L499 481 L577 545 L601 441 L712 447 L670 360 L739 300 L685 300 Z M500 208 C522 212 563 225 568 238 C574 253 584 327 584 363 C568 394 540 406 500 406 C460 406 431 394 416 363 C416 326 426 253 432 238 C437 225 478 212 500 208 L500 208 Z M370 -100 L628 -100 L608 51 L661 51 C683 51 702 58 720 72 L834 160 C846 169 845 182 834 191 L802 217 L680 136 L594 169 L404 169 L318 136 L197 217 L165 191 C154 182 153 169 166 159 L276 73 C295 58 315 51 337 51 L390 51 L370 -100 Z " />
<glyph glyph-name="f" unicode="f" horiz-adv-x="1000" d="M900 750 L100 750 C45 750 0 705 0 650 L0 -150 C0 -205 45 -250 100 -250 L900 -250 C955 -250 1000 -205 1000 -150 L1000 650 C1000 705 955 750 900 750 L900 750 Z M270 226 L259 226 L228 116 L150 68 L150 136 L179 161 L207 282 L201 352 L168 340 L150 309 L150 349 L154 356 L199 373 L187 415 L150 395 L150 419 L181 435 L239 449 L268 521 C273 534 283 542 295 542 C320 542 345 524 348 496 C334 467 323 451 313 442 C305 434 303 434 291 438 L284 423 C293 420 299 419 305 419 C314 419 320 423 326 431 L355 471 L379 482 L356 584 L184 562 L182 582 L387 608 C407 611 424 602 430 579 L457 475 C462 455 457 438 440 428 L361 378 L345 282 L361 106 C332 103 311 81 303 59 L301 104 L270 226 Z M437 470 C440 458 438 451 429 445 L362 400 L362 442 L401 474 L376 586 L389 588 C403 590 406 588 410 574 L437 470 Z M850 552 L850 392 L839 409 C828 427 814 433 799 433 C787 433 775 430 766 423 L736 402 C732 414 731 425 731 437 C731 500 782 551 850 552 L850 552 Z M776 404 C785 411 794 414 801 414 C825 411 852 362 838 330 C812 311 793 297 778 297 C766 297 756 303 747 316 L717 359 L776 404 Z M625 348 C634 367 661 382 690 382 C697 382 704 381 710 379 C701 371 694 362 689 353 C681 355 673 356 666 356 C653 356 639 353 625 348 L625 348 Z M323 284 L329 300 L299 305 L308 367 L288 369 L278 303 L231 300 L229 284 L323 284 Z M850 275 L850 264 C850 249 845 237 825 233 L752 218 C739 215 728 221 722 225 L669 263 L631 249 L637 230 L661 239 L671 233 L650 209 L644 173 L727 89 C732 84 736 78 735 70 L725 -63 L674 -63 L674 41 L634 82 L643 124 L622 132 L592 40 C588 27 568 16 552 10 L433 -36 L418 7 L537 82 C533 104 530 133 530 163 C530 205 537 249 556 272 C583 305 626 336 666 336 C684 336 705 331 717 313 L751 264 L850 275 Z M276 -63 L276 -38 C276 -7 296 13 319 18 C313 58 338 86 371 87 C377 87 384 86 391 84 C405 110 426 123 454 123 C446 178 474 227 521 244 C514 219 510 190 510 161 C510 137 512 112 515 92 L394 15 L421 -62 L559 -9 C580 -1 602 10 609 32 L621 67 L654 33 L654 -63 L276 -63 Z M779 105 L797 97 C806 117 826 131 850 131 L850 -7 C837 -33 808 -63 755 -63 L746 -63 L755 72 C756 83 750 94 742 102 L665 180 L669 200 L689 224 L714 206 C723 199 740 195 755 198 L830 214 C838 216 844 220 850 224 L850 151 C818 151 791 132 779 105 L779 105 Z M239 -9 L239 -72 L167 -72 L167 -9 L239 -9 Z " />
<glyph glyph-name="g" unicode="g" horiz-adv-x="1000" d="M900 750 L100 750 C45 750 0 705 0 650 L0 -150 C0 -205 45 -250 100 -250 L900 -250 C955 -250 1000 -205 1000 -150 L1000 650 C1000 705 955 750 900 750 L900 750 Z M809 289 L701 214 L700 236 L799 307 C821 323 831 341 825 373 L790 560 C785 587 768 597 741 591 L719 586 L753 368 L700 323 C709 341 714 353 718 369 L731 376 L700 574 L385 543 L383 563 L739 611 C774 616 803 603 810 564 L845 377 C852 339 837 308 809 289 L809 289 Z M658 -69 L651 -100 L369 -100 L389 118 L326 94 L268 -8 C252 -36 224 -50 196 -32 L150 -2 L230 156 C249 194 269 208 305 223 L370 250 L421 266 L418 219 L437 216 L447 242 L514 424 C529 465 550 479 577 479 C638 479 712 424 698 367 L682 376 C687 379 690 384 690 390 C690 400 682 408 673 408 C663 408 655 400 655 390 L587 426 L578 409 L691 348 C688 342 683 335 680 328 L590 376 L564 323 L675 263 C680 235 682 202 682 168 C682 59 660 -62 658 -69 L658 -69 Z M628 239 C619 230 609 226 598 225 C591 225 583 227 573 231 L527 251 L519 233 L566 212 C576 207 586 205 596 205 C613 205 629 212 642 224 C649 231 655 238 661 248 L644 257 C639 250 634 244 628 239 L628 239 Z M374 228 L312 205 C281 194 264 179 248 147 L176 4 L206 -16 C222 -26 238 -20 251 2 L312 110 L386 139 L374 228 Z M633 -70 L599 -39 L622 116 L602 120 L580 -29 L487 -29 L425 -55 L393 -55 L390 -80 L634 -80 L633 -70 Z " />
<glyph glyph-name="h" unicode="h" horiz-adv-x="1000" d="M900 750 L100 750 C45 750 0 705 0 650 L0 -150 C0 -205 45 -250 100 -250 L900 -250 C955 -250 1000 -205 1000 -150 L1000 650 C1000 705 955 750 900 750 L900 750 Z M413 512 L413 555 C413 580 454 600 506 600 C557 600 598 580 598 555 L598 512 L413 512 Z M506 569 C495 569 487 561 487 551 C487 541 495 533 506 533 C516 533 524 541 524 551 C524 561 516 569 506 569 L506 569 Z M688 341 L672 -100 L647 -100 L647 -59 L591 0 L517 0 L517 122 L497 122 L497 0 L411 0 L355 -59 L355 -100 L330 -100 L310 111 L281 78 L281 -100 L261 -100 L261 86 L307 142 L293 305 L202 145 C185 115 179 86 183 52 L202 -100 L183 -100 L163 50 C158 86 166 124 184 155 L290 341 L381 353 L381 492 L631 492 L631 353 L688 341 Z M461 451 L475 437 L411 373 L456 373 L505 422 L519 408 L484 373 L611 373 L611 472 L401 472 L401 391 L461 451 Z M576 345 L576 329 C576 320 564 309 545 302 C540 311 524 316 506 316 C487 316 471 310 466 302 C447 309 435 320 435 329 L435 346 L415 346 L415 329 C415 300 458 276 506 276 C553 276 596 300 596 329 L596 345 L576 345 Z M838 -4 L838 -90 L714 -90 L714 -35 C714 -12 732 -6 750 -6 L772 -6 L793 346 L813 345 L794 27 L807 27 C825 27 838 14 838 -4 L838 -4 Z " />
<glyph glyph-name="i" unicode="i" horiz-adv-x="1000" d="M900 750 L100 750 C45 750 0 705 0 650 L0 -150 C0 -205 45 -250 100 -250 L900 -250 C955 -250 1000 -205 1000 -150 L1000 650 C1000 705 955 750 900 750 L900 750 Z M729 467 L763 525 C769 536 775 540 791 540 C820 540 834 508 834 480 C819 455 808 440 797 433 C789 428 779 427 770 434 L729 467 Z M559 450 C554 442 546 439 535 441 L492 450 C469 455 466 475 476 486 L511 527 C518 535 522 538 532 536 C559 531 569 527 576 508 C570 479 565 460 559 450 L559 450 Z M176 402 C168 422 197 443 222 443 C228 443 234 441 240 436 C250 413 255 397 255 386 C255 376 248 370 241 365 L202 339 L176 402 Z M850 309 C850 289 840 278 820 278 L776 278 C763 278 754 281 744 289 L716 312 L692 252 L763 175 C776 161 779 152 777 137 L762 28 C759 9 750 0 731 0 L712 0 L712 124 L677 155 L684 207 L665 212 L640 111 C637 99 624 92 611 92 L547 92 L570 156 L592 162 L590 183 C588 205 594 235 606 266 L653 384 C660 401 679 420 702 420 C720 420 742 406 754 379 L774 334 L850 318 L850 309 Z M485 414 C500 414 517 410 522 399 L549 337 L604 320 L589 281 L506 294 C498 295 493 300 490 308 L484 327 L465 321 L487 247 L548 154 C538 144 511 131 482 130 C470 130 457 132 444 138 C401 157 379 199 379 237 C379 247 380 258 383 268 L420 384 C427 405 449 414 485 414 L485 414 Z M604 405 L639 409 L620 348 L592 355 L567 352 L558 378 L604 405 Z M343 66 L334 26 C330 9 319 0 301 0 L282 0 L297 77 L265 125 L260 151 L240 151 L240 114 C240 99 235 88 227 77 L186 22 C180 13 171 13 163 20 L149 33 L190 134 L190 235 C190 258 197 285 218 299 L348 386 L405 399 L385 337 L347 337 L237 244 L247 232 L292 266 L312 268 L360 253 C359 246 359 239 360 232 L290 238 L290 196 L331 132 C345 110 349 91 343 66 L343 66 Z M411 95 L365 81 C366 97 365 112 350 140 L386 144 L392 153 C405 139 415 129 436 120 L411 95 Z M493 24 C487 8 476 0 458 0 L437 0 L467 112 C472 111 477 111 483 111 C497 111 511 115 526 119 L493 24 Z M852 -70 L152 -70 L152 -50 L852 -50 L852 -70 Z " />
<glyph glyph-name="j" unicode="j" horiz-adv-x="1000" d="M900 750 L100 750 C45 750 0 705 0 650 L0 -150 C0 -205 45 -250 100 -250 L900 -250 C955 -250 1000 -205 1000 -150 L1000 650 C1000 705 955 750 900 750 L900 750 Z M499 562 L499 577 C499 590 531 600 557 600 C582 600 618 590 618 577 L618 562 L499 562 Z M697 297 L697 547 L717 547 L717 297 L697 297 Z M654 452 L640 259 L489 259 L465 443 L489 458 L489 542 L628 542 L628 458 L654 452 Z M608 478 L608 522 L509 522 L509 478 L608 478 Z M479 -16 L313 -40 C297 -42 287 -34 285 -18 L228 409 C226 425 234 435 250 437 L418 460 C434 462 444 454 446 438 L501 12 C503 -4 495 -14 479 -16 L479 -16 Z M557 431 C539 431 526 441 526 451 L506 451 C506 429 531 411 557 411 C582 411 607 429 607 451 L587 451 C587 441 574 431 557 431 L557 431 Z M427 270 L417 286 L401 276 L411 260 C416 252 413 243 405 239 L392 231 L360 299 L402 414 L384 420 L338 299 L382 203 L415 221 C431 230 439 252 427 270 L427 270 Z M773 318 L773 209 L707 209 C699 209 695 216 695 221 L695 265 C695 272 701 277 708 277 L729 277 L753 281 L753 318 C753 340 741 353 727 365 L727 391 C746 376 773 356 773 318 L773 318 Z M644 -100 L575 -100 L549 153 L526 165 L515 52 L491 239 L632 239 L644 -100 Z M434 181 L422 10 L442 8 L454 179 L434 181 Z M498 -35 L494 -100 L421 -100 L424 -45 L498 -35 Z " />
<glyph glyph-name="k" unicode="k" horiz-adv-x="1000" d="M900 750 L100 750 C45 750 0 705 0 650 L0 -150 C0 -205 45 -250 100 -250 L900 -250 C955 -250 1000 -205 1000 -150 L1000 650 C1000 705 955 750 900 750 L900 750 Z M203 585 C203 593 227 600 244 600 C261 600 285 593 285 585 L285 569 L203 569 L203 585 Z M446 585 C446 593 471 600 487 600 C504 600 528 593 528 585 L528 569 L446 569 L446 585 Z M696 585 C696 593 721 600 737 600 C754 600 778 593 778 585 L778 569 L696 569 L696 585 Z M162 497 L193 501 L193 549 L295 549 L295 499 L308 497 L306 459 L296 459 C271 459 228 448 228 421 L228 372 L176 372 L162 497 Z M418 497 L438 502 L438 549 L535 549 L535 502 L555 497 L535 372 L438 372 L418 497 Z M782 419 L767 437 C754 452 724 459 705 459 C693 459 673 457 662 450 L658 497 L686 502 L686 549 L788 549 L788 500 L801 497 L801 419 L782 419 Z M361 454 L361 548 L381 548 L381 454 L361 454 Z M587 454 L587 548 L607 548 L607 454 L587 454 Z M830 453 L830 547 L850 547 L850 453 L830 453 Z M275 476 L275 529 L213 529 L213 476 L275 476 Z M515 470 L515 529 L458 529 L458 470 L515 470 Z M706 529 L706 476 L768 476 L768 529 L706 529 Z M354 323 L360 323 L360 196 L286 209 L239 203 L223 334 L238 336 L238 402 L248 402 L248 421 C248 431 276 439 296 439 C316 439 344 431 344 421 L344 402 L354 402 L354 323 Z M657 402 L657 421 C657 431 685 439 705 439 C725 439 753 431 753 421 L753 402 L657 402 Z M571 426 C571 431 575 434 579 434 L607 434 L607 392 L579 392 C573 392 571 396 571 399 L571 426 Z M814 426 C814 431 817 434 822 434 L850 434 L850 392 L822 392 C816 392 814 396 814 399 L814 426 Z M258 382 L258 296 L334 296 L334 382 L258 382 Z M632 334 L647 336 L647 382 L763 382 L763 323 L769 323 L769 196 L695 209 L648 203 L632 334 Z M381 277 L381 375 L401 375 L401 277 L381 277 Z M790 277 L790 375 L810 375 L810 277 L790 277 Z M743 296 L743 362 L667 362 L667 296 L743 296 Z M150 -47 L150 341 L187 346 C195 347 202 342 203 333 L249 -17 C250 -26 245 -33 236 -34 L150 -47 Z M514 -38 L468 313 C467 321 473 328 481 329 L596 346 C604 347 611 342 612 333 L658 -17 C659 -26 654 -33 645 -34 L531 -51 C523 -52 515 -46 514 -38 L514 -38 Z M441 266 L441 207 L393 207 C386 207 383 212 383 216 L383 248 C383 253 388 257 393 257 L421 257 L421 285 L426 281 L441 266 Z M850 266 L850 207 L802 207 C795 207 792 212 792 216 L792 248 C792 253 797 257 802 257 L830 257 L830 285 L835 281 L850 266 Z M365 -92 L315 -92 L291 106 L282 106 L267 2 L246 159 L354 159 L365 -92 Z M774 -92 L724 -92 L700 106 L691 106 L676 2 L655 159 L763 159 L774 -92 Z M257 -45 L251 -92 L201 -92 L203 -59 L238 -54 C245 -53 252 -50 257 -45 L257 -45 Z M666 -45 L660 -92 L610 -92 L612 -59 L647 -54 C654 -53 661 -50 666 -45 L666 -45 Z " />
<glyph glyph-name="l" unicode="l" horiz-adv-x="1000" d="M900 750 L100 750 C45 750 0 705 0 650 L0 -150 C0 -205 45 -250 100 -250 L900 -250 C955 -250 1000 -205 1000 -150 L1000 650 C1000 705 955 750 900 750 L900 750 Z M183 313 L231 449 L231 546 C231 576 276 600 331 600 C387 600 432 576 432 545 L432 534 L315 534 L315 514 L462 514 L462 494 L325 494 L387 432 L373 418 L316 475 L316 443 L361 398 L347 384 L316 415 C316 373 327 354 370 354 L457 354 L457 336 L420 336 L420 313 L183 313 Z M673 386 L727 298 L713 284 L609 383 L541 381 L530 448 L666 500 L755 583 L798 348 L688 386 L673 386 Z M837 464 L813 450 L805 493 L832 492 L837 464 Z M578 438 L559 434 L564 405 L583 409 L578 438 Z M641 288 L532 83 C523 66 508 63 492 69 L474 76 L254 181 L246 163 L469 26 L457 -100 L193 -100 L163 52 L163 216 L218 300 L374 287 L483 192 L574 314 C585 329 606 329 620 312 L641 288 Z " />
<glyph glyph-name="m" unicode="m" horiz-adv-x="1000" d="M900 750 L100 750 C45 750 0 705 0 650 L0 -150 C0 -205 45 -250 100 -250 L900 -250 C955 -250 1000 -205 1000 -150 L1000 650 C1000 705 955 750 900 750 L900 750 Z M845 580 L813 564 L805 582 L837 598 L845 580 Z M281 531 C287 562 318 582 348 576 C379 569 423 551 433 521 L409 442 C400 409 365 395 345 399 L259 417 L281 531 Z M754 555 L786 572 L796 554 L764 537 L754 555 Z M689 521 L730 543 L740 525 L699 503 L689 521 Z M670 472 L670 452 L612 452 L612 432 L639 419 L639 234 L561 234 L561 265 L573 268 C627 290 581 362 581 362 L561 371 L561 419 L588 432 L589 498 L612 498 L612 472 L670 472 Z M710 474 L761 474 L761 454 L710 454 L710 474 Z M787 474 L846 474 L846 454 L787 454 L787 474 Z M739 399 L729 383 L686 410 L696 426 L739 399 Z M793 366 L783 348 L752 367 L762 385 L793 366 Z M394 -87 L195 -87 L214 -5 C234 -17 260 -24 290 -25 C314 -25 341 -21 370 -11 L391 -31 L405 -16 L375 12 C343 0 314 -5 290 -5 C191 -5 154 84 154 177 C154 241 174 307 205 346 C238 386 276 390 303 372 L379 331 L564 351 C564 351 597 300 567 287 L374 235 L299 257 L289 239 L326 217 L320 188 L324 132 L418 76 C469 46 485 11 486 -24 C486 -58 460 -87 394 -87 L394 -87 Z M841 335 L831 319 L805 336 L815 352 L841 335 Z " />
<glyph glyph-name="n" unicode="n" horiz-adv-x="1000" d="M900 750 L100 750 C45 750 0 705 0 650 L0 -150 C0 -205 45 -250 100 -250 L900 -250 C955 -250 1000 -205 1000 -150 L1000 650 C1000 705 955 750 900 750 L900 750 Z M372 527 C425 534 421 600 500 600 C579 600 575 534 628 527 C645 525 653 509 644 486 C608 493 544 498 500 498 C456 498 392 493 356 486 C347 509 355 525 372 527 L372 527 Z M500 521 C514 521 525 532 525 546 C525 560 514 571 500 571 C486 571 475 560 475 546 C475 532 486 521 500 521 L500 521 Z M498 398 C426 398 376 415 360 436 L360 466 C359 466 429 478 498 478 C565 478 636 466 636 466 L636 437 C626 412 581 398 498 398 L498 398 Z M499 265 C469 271 417 288 405 306 C401 318 393 356 389 395 C417 385 454 378 498 378 C542 378 581 386 608 395 C604 355 597 318 592 306 C580 288 529 271 499 265 L499 265 Z M319 -100 L311 65 L286 65 L280 -100 L180 -100 L176 -33 L196 188 L243 202 L243 116 L353 136 L353 234 L384 243 L488 46 L450 -38 L450 -100 L319 -100 Z M824 -100 L722 -100 L715 52 L690 52 L683 -100 L470 -100 L470 -42 L500 23 L623 240 L647 234 L647 136 L758 116 L758 204 L802 192 L824 -30 L824 -100 Z M263 208 L333 228 L333 153 L263 140 L263 208 Z M667 228 L738 209 L738 140 L667 153 L667 228 Z M529 115 L501 65 L474 115 L489 227 L513 227 L529 115 Z M601 57 L598 57 L582 29 L550 23 L549 20 L572 -3 L568 -35 L570 -37 L600 -23 L630 -37 L632 -35 L628 -3 L650 20 L650 23 L617 29 L601 57 Z M353 -8 L427 -8 L427 12 L353 12 L353 -8 Z " />
<glyph glyph-name="o" unicode="o" horiz-adv-x="1000" d="M900 750 L100 750 C45 750 0 705 0 650 L0 -150 C0 -205 45 -250 100 -250 L900 -250 C955 -250 1000 -205 1000 -150 L1000 650 C1000 705 955 750 900 750 L900 750 Z M850 474 L500 604 L149 474 L142 493 L500 625 L857 493 L850 474 Z M729 367 L763 425 C769 436 775 440 791 440 C820 440 834 408 834 380 C819 355 808 340 797 333 C789 328 779 327 770 334 L729 367 Z M559 350 C554 342 546 339 535 341 L492 350 C469 355 466 375 476 386 L511 427 C518 435 522 438 532 436 C559 431 569 427 576 408 C570 379 565 360 559 350 L559 350 Z M176 302 C168 322 197 343 222 343 C228 343 234 341 240 336 C250 313 255 297 255 286 C255 276 248 270 241 265 L202 239 L176 302 Z M850 209 C850 189 840 178 820 178 L776 178 C763 178 754 181 744 189 L716 212 L692 152 L763 75 C776 61 779 52 777 37 L762 -72 C759 -91 750 -100 731 -100 L712 -100 L712 24 L677 55 L684 107 L665 112 L640 11 C637 -1 624 -8 611 -8 L547 -8 L570 56 L592 62 L590 83 C588 105 594 135 606 166 L653 284 C660 301 679 320 702 320 C720 320 742 306 754 279 L774 234 L850 218 L850 209 Z M485 314 C500 314 517 310 522 299 L549 237 L604 220 L589 181 L506 194 C498 195 493 200 490 208 L484 227 L465 221 L487 147 L548 54 C538 44 511 31 482 30 C470 30 457 32 444 38 C401 57 379 99 379 137 C379 147 380 158 383 168 L420 284 C427 305 449 314 485 314 L485 314 Z M604 305 L639 309 L620 248 L592 255 L567 252 L558 278 L604 305 Z M343 -34 L334 -74 C330 -91 319 -100 301 -100 L282 -100 L297 -23 L265 25 L260 51 L240 51 L240 14 C240 -1 235 -12 227 -23 L186 -78 C180 -87 171 -87 163 -80 L149 -67 L190 34 L190 135 C190 158 197 185 218 199 L348 286 L405 299 L385 237 L347 237 L237 144 L247 132 L292 166 L312 168 L360 153 C359 146 359 139 360 132 L290 138 L290 96 L331 32 C345 10 349 -9 343 -34 L343 -34 Z M411 -5 L365 -19 C366 -3 365 12 350 40 L386 44 L392 53 C405 39 415 29 436 20 L411 -5 Z M493 -76 C487 -92 476 -100 458 -100 L437 -100 L467 12 C472 11 477 11 483 11 C497 11 511 15 526 19 L493 -76 Z " />
<glyph glyph-name="p" unicode="p" horiz-adv-x="1000" d="M900 750 L100 750 C45 750 0 705 0 650 L0 -150 C0 -205 45 -250 100 -250 L900 -250 C955 -250 1000 -205 1000 -150 L1000 650 C1000 705 955 750 900 750 L900 750 Z M245 573 C267 573 285 555 285 532 C285 510 267 492 245 492 C223 492 205 510 205 532 C205 555 223 573 245 573 L245 573 Z M421 443 L369 458 C345 465 339 487 355 503 L398 548 C407 557 415 562 427 558 C458 549 468 543 474 519 C464 485 456 463 448 452 C441 443 434 439 421 443 L421 443 Z M634 524 C639 539 654 548 670 548 C689 548 730 523 735 499 L710 449 C703 434 688 427 676 427 C672 427 667 428 664 429 L611 449 L634 524 Z M155 287 L264 318 L322 368 L322 383 L271 351 L276 378 L292 412 C300 429 319 444 339 444 C347 444 356 441 364 433 L405 391 L305 276 L189 252 C170 248 162 256 160 266 L155 287 Z M171 326 L176 368 C180 402 199 442 232 442 C253 442 270 428 274 421 L257 384 L247 336 L171 326 Z M657 -84 L634 -86 L619 81 L557 182 L544 164 L577 114 L570 49 L523 -47 C515 -64 500 -70 483 -63 L451 -50 L507 73 L529 229 L566 337 L510 315 L466 233 L440 242 C433 244 432 255 437 265 L490 371 L528 391 C548 402 573 407 590 401 L651 381 C666 376 671 362 668 341 L649 217 L685 101 L686 -52 C686 -71 676 -82 657 -84 L657 -84 Z M737 279 L787 225 L716 233 L677 266 L689 346 L737 279 Z M239 116 L202 234 L315 258 L390 339 L390 314 C390 300 375 287 358 276 L349 224 L405 126 C383 105 347 92 312 92 C285 92 259 99 239 116 L239 116 Z M813 -8 L705 4 L705 104 L694 136 L711 174 L756 159 C757 136 752 89 743 75 L760 64 C772 84 778 132 776 152 L779 177 L722 196 L726 214 L797 205 L842 54 C844 47 845 40 845 34 C844 10 831 -10 813 -8 L813 -8 Z M398 96 L395 -41 C395 -60 384 -71 365 -71 L344 -71 L340 75 C360 78 381 86 398 96 L398 96 Z M289 74 L255 -24 C248 -44 234 -50 216 -41 L201 -33 L236 93 C254 82 266 78 289 74 L289 74 Z " />
<glyph glyph-name="q" unicode="q" horiz-adv-x="1000" d="M100 -250 L900 -250 C955 -250 1000 -205 1000 -150 L1000 650 C1000 705 955 750 900 750 L100 750 C45 750 0 705 0 650 L0 -150 C0 -205 45 -250 100 -250 L100 -250 Z M385 488 C375 490 358 497 352 503 C349 510 344 546 344 565 C352 580 365 586 385 586 C405 586 419 580 427 565 C427 547 422 510 419 503 C413 497 396 490 385 488 L385 488 Z M289 303 L301 418 C303 440 321 451 338 451 L454 451 L541 411 L598 411 L622 454 L587 475 L597 493 L687 439 L677 421 L640 443 L612 394 L610 382 C609 376 607 369 598 368 L571 366 L566 328 L504 361 L462 394 L467 358 L493 303 L436 303 L436 335 L374 357 L361 405 L344 400 L351 342 L415 321 L415 303 L289 303 Z M639 303 L639 323 L698 323 L698 303 L639 303 Z M281 258 L281 278 L619 278 L619 258 L281 258 Z M815 130 L777 130 C768 130 754 138 753 153 L750 191 C757 203 778 207 793 207 C806 207 818 196 818 182 C818 164 817 156 815 130 L815 130 Z M236 122 C235 135 233 151 233 161 C240 175 252 180 270 180 C288 180 300 175 307 161 C307 151 305 134 303 122 L236 122 Z M150 -19 L156 50 L211 102 L329 102 L389 29 L398 -19 L360 -19 L350 16 L326 29 L323 -19 L223 -19 L220 29 L196 16 L186 -19 L150 -19 Z M630 -19 L676 24 L726 102 L803 102 C814 102 822 92 821 78 L817 -19 L728 -19 L748 30 L728 30 L698 -19 L630 -19 Z M598 46 C588 46 583 51 583 61 L582 84 L694 95 L664 46 L598 46 Z M378 -100 L378 -64 L150 -64 L150 -44 L398 -44 L398 -100 L378 -100 Z M609 -100 L609 -44 L850 -44 L850 -64 L629 -64 L629 -100 L609 -100 Z " />
<glyph glyph-name="r" unicode="r" horiz-adv-x="1000" d="M900 750 L100 750 C45 750 0 705 0 650 L0 -150 C0 -205 45 -250 100 -250 L900 -250 C955 -250 1000 -205 1000 -150 L1000 650 C1000 705 955 750 900 750 L900 750 Z M501 507 L591 581 L618 461 L745 469 L695 366 L794 280 L687 280 L687 300 L740 300 L671 360 L713 447 L602 441 L579 545 L501 481 L422 545 L399 441 L288 447 L330 360 L261 300 L347 300 L347 280 L207 280 L306 366 L256 469 L383 461 L410 581 L501 507 Z M499 419 C539 419 552 399 562 365 L596 244 C578 224 536 210 507 210 C478 210 440 223 418 242 C407 251 401 262 409 287 L435 367 C445 398 464 419 499 419 L499 419 Z M680 136 L802 217 L834 191 C845 182 846 170 834 160 L721 72 C704 58 683 51 661 51 L608 51 L628 -100 L370 -100 L390 51 L337 51 C315 51 295 58 276 73 L166 159 C153 169 154 182 165 191 L197 217 L318 136 L404 170 L456 170 L488 85 L510 85 L542 170 L594 170 L680 136 Z " />
<glyph glyph-name="s" unicode="s" horiz-adv-x="1000" d="M900 750 L100 750 C45 750 0 705 0 650 L0 -150 C0 -205 45 -250 100 -250 L900 -250 C955 -250 1000 -205 1000 -150 L1000 650 C1000 705 955 750 900 750 L900 750 Z M547 480 C552 461 538 438 524 429 L451 382 L435 287 L451 121 L448 62 L394 27 L406 -5 L383 -5 L391 109 L360 231 L349 231 L318 121 L233 69 C220 61 208 63 198 74 L182 92 L269 166 L297 287 L291 357 L258 345 L222 286 C210 266 194 258 180 268 L150 290 L200 384 C213 409 223 415 243 425 L272 440 L329 454 L360 533 C364 544 371 548 381 548 C401 548 435 529 438 501 C424 472 413 456 403 447 C399 443 395 441 393 441 C390 441 387 441 381 443 L374 428 C383 425 390 424 397 424 C404 424 410 428 416 436 L445 476 L452 473 L469 487 L446 589 L274 567 L272 587 L477 613 C497 616 514 607 520 584 L547 480 Z M514 446 L450 405 L452 447 L491 479 L466 591 L479 593 C493 595 497 593 501 579 L527 475 C530 464 524 452 514 446 L514 446 Z M778 419 C788 424 795 427 802 427 C822 427 850 373 838 343 C812 324 793 310 778 310 C766 310 756 316 747 329 L717 372 C731 391 757 407 778 419 L778 419 Z M289 378 L244 361 L205 296 C198 284 194 282 188 287 L175 296 L218 375 C226 390 232 396 252 407 L277 420 L289 378 Z M419 305 L389 310 L398 372 L378 374 L368 308 L321 305 L319 289 L413 289 L419 305 Z M666 349 C706 349 731 318 751 277 L850 288 L850 277 C850 262 845 250 825 246 L752 232 C739 230 728 234 722 239 L686 263 L661 271 L631 262 L637 243 L661 250 L672 246 L650 222 L644 186 L717 111 C730 97 734 84 733 66 L726 -38 C725 -57 714 -67 695 -67 L674 -67 L674 54 L636 93 L643 137 L625 145 L590 53 C585 40 568 29 552 23 L447 -17 C438 -21 431 -18 428 -9 L418 20 L537 95 C533 116 530 143 530 171 C530 216 536 261 556 285 C583 318 626 349 666 349 L666 349 Z " />
<glyph glyph-name="t" unicode="t" horiz-adv-x="1000" d="M900 750 L100 750 C45 750 0 705 0 650 L0 -150 C0 -205 45 -250 100 -250 L900 -250 C955 -250 1000 -205 1000 -150 L1000 650 C1000 705 955 750 900 750 L900 750 Z M357 550 C392 550 417 539 430 513 C430 481 422 418 416 405 C410 393 376 382 357 378 C339 382 305 393 299 405 C293 418 285 480 285 513 C298 539 323 550 357 550 L357 550 Z M715 343 L725 359 L848 279 L838 263 L783 299 L756 251 L756 235 C756 222 748 210 732 209 L693 206 L691 276 L745 273 L766 310 L715 343 Z M171 60 L182 281 C184 318 209 341 236 341 L315 341 L383 230 L396 341 L463 341 L563 293 L671 279 L651 129 C631 142 580 169 545 204 L462 238 L460 213 L500 60 L418 60 L418 130 L286 167 L282 261 L262 258 L249 145 L396 109 L398 60 L171 60 Z M691 80 L829 80 L829 60 L691 60 L691 80 Z M850 30 L850 -100 L830 -100 L830 10 L170 10 L170 -100 L150 -100 L150 30 L850 30 Z " />
<glyph glyph-name="u" unicode="u" horiz-adv-x="1000" d="M900 750 L100 750 C45 750 0 705 0 650 L0 -150 C0 -205 45 -250 100 -250 L900 -250 C955 -250 1000 -205 1000 -150 L1000 650 C1000 705 955 750 900 750 L900 750 Z M802 420 L786 397 L698 444 C691 477 660 501 620 501 L605 521 L644 572 C649 575 667 581 686 581 C711 581 740 562 740 527 C788 527 808 479 808 449 C808 441 806 429 802 420 L802 420 Z M556 416 L608 478 C611 480 617 481 621 481 C644 481 670 468 677 446 C671 412 666 389 658 378 C652 369 645 366 632 368 L579 378 C555 383 546 404 556 416 L556 416 Z M279 387 C282 403 297 414 313 414 C335 414 364 400 371 382 L357 333 C352 314 332 305 320 307 L268 317 L279 387 Z M777 379 L758 298 C750 264 721 252 695 252 L626 252 L619 164 L655 81 C641 70 614 65 585 65 C545 65 502 73 480 87 C480 127 485 161 500 201 L534 293 C542 315 567 332 614 326 L702 314 L744 397 L777 379 Z M261 182 L325 104 L349 31 L344 -81 C344 -92 335 -100 324 -100 L299 -100 L296 18 L252 69 C220 106 220 123 224 171 L229 235 C231 264 250 274 273 270 L300 265 C312 263 324 251 333 227 L346 191 L438 174 L435 229 C433 264 456 292 489 299 L517 305 L495 245 L480 245 L480 203 C471 181 466 156 462 132 L355 142 C331 144 314 155 302 167 L272 197 L261 182 Z M200 -84 L191 -76 L233 62 L273 14 L236 -70 C228 -89 210 -92 200 -84 L200 -84 Z M562 45 L508 -67 C500 -84 489 -87 472 -83 L456 -79 L501 56 C520 50 537 47 562 45 L562 45 Z M646 55 L625 -73 C622 -91 611 -97 594 -97 L577 -97 L588 45 C607 44 627 47 646 55 L646 55 Z " />
<glyph glyph-name="v" unicode="v" horiz-adv-x="1000" d="M900 750 L100 750 C45 750 0 705 0 650 L0 -150 C0 -205 45 -250 100 -250 L900 -250 C955 -250 1000 -205 1000 -150 L1000 650 C1000 705 955 750 900 750 L900 750 Z M333 489 L344 505 C348 502 356 502 367 502 C384 502 408 504 431 503 C413 531 384 557 362 569 C392 595 431 605 472 605 C530 605 591 583 635 551 C621 541 618 527 614 513 C591 528 566 537 543 537 C520 537 498 529 481 512 C526 488 553 471 568 428 L526 432 C505 470 477 483 441 483 C427 483 404 482 383 482 C362 482 342 483 333 489 L333 489 Z M195 552 C188 552 183 557 183 564 C183 571 188 576 195 576 C201 576 207 571 207 564 C207 557 201 552 195 552 L195 552 Z M679 547 C701 547 745 526 751 501 L730 442 C722 418 695 409 680 413 L615 430 L638 516 C643 535 660 547 679 547 L679 547 Z M258 503 C248 503 240 511 240 521 C240 531 248 539 258 539 C268 539 276 531 276 521 C276 511 268 503 258 503 L258 503 Z M497 439 L477 442 L402 384 C386 387 375 393 361 406 C334 431 328 444 327 470 C349 462 369 461 388 461 C407 461 424 463 440 463 C461 463 480 458 497 439 L497 439 Z M197 444 C191 444 187 448 187 454 C187 460 191 464 197 464 C202 464 207 460 207 454 C207 448 202 444 197 444 L197 444 Z M482 421 L565 408 C536 391 525 370 515 345 L487 350 L391 300 L378 319 C374 325 372 336 379 341 L482 421 Z M172 357 C199 344 230 340 261 340 C276 340 291 341 306 343 C283 363 274 389 270 418 L290 420 C294 388 304 365 335 347 L364 302 C335 295 304 286 275 293 C277 244 387 259 452 228 L432 177 C363 211 306 187 260 212 C203 243 166 293 172 357 L172 357 Z M224 384 L203 409 L221 419 L237 394 L224 384 Z M829 279 L829 261 C829 247 822 240 808 241 L688 248 C673 249 661 254 651 266 L594 336 L578 323 L618 271 L503 63 C486 32 462 21 427 27 L302 49 C282 53 275 64 280 84 L283 97 L425 102 L470 220 L540 352 C559 388 585 406 626 399 L663 393 L699 309 L829 279 Z M609 33 C591 40 587 51 587 67 L557 104 L599 183 L633 147 L643 168 L621 204 L646 204 C683 204 698 187 698 163 C698 113 640 34 609 33 L609 33 Z M676 62 L664 -74 C663 -85 656 -91 646 -91 L608 -91 L605 13 C624 10 655 30 676 62 L676 62 Z " />
<glyph glyph-name="w" unicode="w" horiz-adv-x="1000" d="M100 -250 L900 -250 C955 -250 1000 -205 1000 -150 L1000 650 C1000 705 955 750 900 750 L100 750 C45 750 0 705 0 650 L0 -150 C0 -205 45 -250 100 -250 L100 -250 Z M581 496 L561 516 L661 617 L681 597 L581 496 Z M191 279 L289 365 L239 469 L366 461 L393 581 L490 501 L478 485 L405 545 L382 441 L271 447 L313 361 L243 299 L355 299 L355 279 L191 279 Z M643 435 L623 455 L664 496 L684 476 C692 468 701 464 710 464 C729 464 751 485 751 502 C751 518 734 538 719 541 C712 541 706 536 699 529 L680 549 C691 562 704 568 720 568 C750 568 779 532 779 502 C779 470 746 436 713 436 C694 436 676 444 664 456 L643 435 Z M543 457 L523 477 L546 500 L566 480 L543 457 Z M605 396 L585 416 L607 439 L628 419 L605 396 Z M636 279 L636 299 L749 299 L679 360 L701 407 L719 399 L703 366 L801 279 L636 279 Z M500 208 C478 212 443 223 432 238 C426 253 416 326 416 363 C431 394 460 406 500 406 C540 406 568 394 584 363 C584 327 574 253 568 238 C557 223 522 212 500 208 L500 208 Z M370 -100 L390 51 L337 51 C316 51 296 58 276 73 L166 159 C153 169 154 182 165 191 L197 217 L318 136 L404 169 L594 169 L680 136 L802 217 L834 191 C845 182 846 170 834 160 L720 72 C703 59 683 51 661 51 L608 51 L628 -100 L370 -100 Z " />
<glyph glyph-name="x" unicode="x" horiz-adv-x="1000" d="M900 750 L100 750 C45 750 0 705 0 650 L0 -150 C0 -205 45 -250 100 -250 L900 -250 C955 -250 1000 -205 1000 -150 L1000 650 C1000 705 955 750 900 750 L900 750 Z M850 585 L850 560 L634 514 L634 547 L850 585 Z M583 454 L583 475 L643 475 L650 496 L673 489 L677 475 L749 475 L749 454 L583 454 Z M850 207 L850 131 L808 131 L808 167 L788 167 L788 131 L774 131 C768 163 737 200 689 200 C642 200 611 163 605 133 L332 133 C325 164 295 200 248 200 C200 200 168 162 163 131 L150 131 L150 375 L515 375 L515 285 L535 285 L535 422 L773 422 L786 359 L764 359 L764 372 L744 372 L744 256 L764 256 L764 269 L803 269 L808 246 L808 207 L850 207 Z M608 372 L608 359 L570 359 L570 269 L608 269 L608 256 L628 256 L628 372 L608 372 Z M658 372 L658 256 L678 256 L678 372 L658 372 Z M708 372 L708 256 L728 256 L728 372 L708 372 Z M210 323 L210 285 L248 285 L248 323 L210 323 Z M288 323 L288 285 L326 285 L326 323 L288 323 Z M366 323 L366 285 L404 285 L404 323 L366 323 Z M444 323 L444 285 L482 285 L482 323 L444 323 Z M248 47 C211 47 181 77 181 114 C181 150 211 180 248 180 C284 180 314 150 314 114 C314 77 284 47 248 47 L248 47 Z M689 47 C653 47 623 77 623 114 C623 150 653 180 689 180 C726 180 756 150 756 114 C756 77 726 47 689 47 L689 47 Z " />
<glyph glyph-name="y" unicode="y" horiz-adv-x="1000" d="M900 750 L100 750 C45 750 0 705 0 650 L0 -150 C0 -205 45 -250 100 -250 L900 -250 C955 -250 1000 -205 1000 -150 L1000 650 C1000 705 955 750 900 750 L900 750 Z M435 472 C434 477 434 483 434 489 C434 546 481 593 538 593 C595 593 642 546 642 489 C642 432 595 385 538 385 C504 385 467 403 447 438 L491 482 L522 451 L574 505 L555 517 L529 490 L491 525 L435 472 Z M377 -100 L316 -100 L316 143 L460 383 L478 373 L343 139 L377 -100 Z M300 249 L286 235 L207 316 L221 330 L300 249 Z M850 325 L850 -46 L722 -46 C709 3 662 43 610 43 C558 43 511 3 499 -46 L408 -46 L403 3 C429 6 438 24 433 38 L420 74 L438 105 L517 107 L574 147 C618 163 636 172 660 196 C704 241 761 290 813 314 C824 319 835 323 850 325 L850 325 Z M150 141 L150 161 L272 161 L272 141 L150 141 Z M275 54 L196 -27 L182 -13 L261 68 L275 54 Z M701 -100 L520 -100 C518 -91 516 -81 516 -71 C516 -19 558 23 610 23 C662 23 705 -19 705 -71 C705 -81 703 -91 701 -100 L701 -100 Z " />
<glyph glyph-name="z" unicode="z" horiz-adv-x="1000" d="M900 750 L100 750 C45 750 0 705 0 650 L0 -150 C0 -205 45 -250 100 -250 L900 -250 C955 -250 1000 -205 1000 -150 L1000 650 C1000 705 955 750 900 750 L900 750 Z M750 357 L766 340 L780 354 L758 377 C755 387 754 398 754 408 C754 467 797 523 850 526 L850 277 C831 284 812 287 793 287 C741 287 695 262 669 219 C656 222 644 223 631 223 C629 233 628 243 628 253 C629 308 666 359 727 359 C735 359 742 359 750 357 L750 357 Z M711 -74 L395 -74 C407 -57 426 -50 450 -50 C450 -21 469 -2 494 -2 C506 -2 520 -6 533 -17 C545 -3 562 7 575 7 C580 7 584 6 587 4 L597 22 C591 25 584 26 577 26 C561 26 544 19 531 8 C519 15 506 17 494 17 C465 17 440 -2 433 -31 C405 -35 384 -49 371 -74 L339 -74 L339 -39 C339 -16 351 0 380 9 C381 57 406 76 440 76 C444 76 448 76 452 75 C465 99 484 111 511 114 C510 109 510 104 510 98 C510 92 511 84 513 77 L533 79 C531 85 530 92 530 98 C530 160 579 203 636 203 C650 203 665 201 679 195 C699 241 742 268 793 268 C811 268 830 264 850 256 L850 119 C834 135 813 145 789 145 C756 145 724 125 709 98 L726 88 C739 111 761 125 789 125 C817 125 838 110 850 87 L850 -7 C831 -44 805 -74 711 -74 L711 -74 Z M302 13 L302 -7 L170 -7 L170 -50 L302 -50 L302 -70 L150 -70 L150 13 L302 13 Z " />
<glyph glyph-name="braceleft" unicode="&#x7b;" horiz-adv-x="1000" d="M900 750 L100 750 C45 750 0 705 0 650 L0 -150 C0 -205 45 -250 100 -250 L900 -250 C955 -250 1000 -205 1000 -150 L1000 650 C1000 705 955 750 900 750 L900 750 Z M474 553 L446 459 L385 490 L409 573 C413 588 427 597 443 597 C463 597 480 574 474 553 L474 553 Z M560 510 L532 416 L471 447 L495 530 C499 545 513 554 528 554 C550 554 566 531 560 510 L560 510 Z M645 470 L606 340 C602 325 589 316 574 316 C549 316 535 339 541 360 L580 490 C584 505 599 514 614 514 C634 514 651 491 645 470 L645 470 Z M633 94 L633 -77 L373 -77 L373 113 L295 237 C279 263 273 285 273 308 C273 326 277 344 282 363 L309 439 C321 474 353 479 396 457 L514 396 C498 339 448 329 412 344 L371 361 L371 340 L392 300 C409 300 430 287 451 264 C483 229 501 187 500 176 L525 173 C527 196 502 246 470 281 C462 290 452 300 440 308 C460 312 494 327 518 331 C526 307 548 291 573 291 C583 291 592 293 597 296 C598 267 621 239 656 239 C681 239 702 255 710 275 C710 180 662 121 633 94 L633 94 Z M727 414 L688 288 C683 273 671 264 656 264 C632 264 616 287 623 308 L662 434 C667 449 681 458 696 458 C716 458 734 435 727 414 L727 414 Z " />
<glyph glyph-name="braceright" unicode="&#x7d;" horiz-adv-x="1000" d="M100 -250 L900 -250 C955 -250 1000 -205 1000 -150 L1000 650 C1000 705 955 750 900 750 L100 750 C45 750 0 705 0 650 L0 -150 C0 -205 45 -250 100 -250 L100 -250 Z M478 560 L478 600 L519 600 L519 560 L478 560 Z M243 55 L243 535 L757 535 L757 55 L243 55 Z M518 29 L518 -100 L478 -100 L478 29 L518 29 Z " />
</font>
</svg>
