<?xml version="1.0" encoding="UTF-8"?>
<svg xmlns="http://www.w3.org/2000/svg" xmlns:xlink="http://www.w3.org/1999/xlink" version="1.2" >
<font id="Informative Light It">
<font-face  font-family="Informative" units-per-em="1000" ascent="770" descent="-230" font-style="normal" font-weight="300" font-stretch="normal" slope="-8" cap-height="642" x-height="469" underline-position="-75" underline-thickness="50" />
<missing-glyph  horiz-adv-x="824" d="M569 750 L259 750 C204 750 159 705 159 650 L159 -150 C159 -205 204 -250 259 -250 L569 -250 C624 -250 669 -205 669 -150 L669 650 C669 705 624 750 569 750 L569 750 Z M572 485 L513 530 L501 514 L530 492 L509 470 C504.6 465.4 499 462 492 462 C486.9 462 481.1 463.2 476 467 L409 517 L452 577 C463.7 593.3 477 600 497 600 C524 600 562 572 561 537 L554 525 L585 502 L572 485 Z M450 -94 L409 -94 L366 131 C323 185 296.7 230 301 286 L309 389 C312.7 436 345 476 385 476 C417 476 458 450 460 408 C462 367 452 293 446 247 L427 231 L396 309 C391.2 321.1 390.9 332 393 345 L402 402 L382 406 L373 349 C370.3 331.9 372.7 314.9 378 301 L410 217 L391 201 L344 272 L326 262 L388 171 L448 222 L469 -69 C469.9 -81 461 -94 450 -94 L450 -94 Z M370 -65 C364.8 -91 353 -94 336 -94 L307 -94 L327 56 L318 160 L347 123 L376 -35 L370 -65 Z " />
<glyph glyph-name="NULL" d="" />
<glyph glyph-name="CR" unicode="&#xd;" horiz-adv-x="250" d="" />
<glyph glyph-name="space" unicode="&#x20;" horiz-adv-x="272" d="" />
<glyph glyph-name="exclam" unicode="&#x21;" horiz-adv-x="243" d="M192.88 646.3 L127.68 150.78 L157.78 150.78 L231.34 646.3 L192.88 646.3 Z M119.76 -9.56999 C141.54 -9.56999 162.3 9.58 162.3 32.51 C162.3 51.23 148.95 65.82 130.71 65.82 C108.89 65.82 88.05 46.58 88.05 23.47 C88.05 5.04999 101.56 -9.59001 119.76 -9.59001 L119.76 -9.56999 Z " />
<glyph glyph-name="quotedbl" unicode="&#x22;" horiz-adv-x="309" d="M152.03 462.5 L174.28 462.5 L211.37 649.79 L168.51 649.79 L152.03 462.5 Z M262.93 462.5 L285.18 462.5 L322.37 649.79 L279.49 649.79 L262.93 462.5 Z " />
<glyph glyph-name="numbersign" unicode="&#x23;" horiz-adv-x="650" d="M645.38 379.91 L659.38 411.72 L557.76 411.72 L650.57 615 L615 615 L522.17 411.72 L328.36 411.72 L421.18 615 L385.61 615 L292.78 411.72 L184.09 411.72 L170.09 379.91 L278.25 379.91 L188.65 183.72 L82.85 183.72 L68.75 151.91 L174.13 151.91 L83.29 -47 L118.9 -47 L209.72 151.91 L403.51 151.91 L312.67 -47 L348.31 -47 L439.13 151.91 L543.93 151.91 L558.03 183.72 L453.65 183.72 L543.22 379.91 L645.38 379.91 Z M418.03 183.72 L224.24 183.72 L313.82 379.91 L507.62 379.91 L418.03 183.72 Z " />
<glyph glyph-name="dollar" unicode="&#x24;" horiz-adv-x="505" d="M488.48 562.19 L512.86 592.36 C478.73 625.36 435.49 649.89 368.22 654.09 L377.26 718.39 L345.66 718.39 L336.68 654.53 C219.35 650.31 141.16 575.94 141.16 483.76 C141.16 379.06 216.18 349.87 289.86 321.54 L248.32 26.16 C168.59 28.43 122.11 59.18 91.3 97.4 L64.33 69.87 C96.58 31.04 150.56 -6.95999 243.31 -9.42 L234.34 -73.21 L265.94 -73.21 L275 -8.78999 C394.54 -0.449997 468.88 75.96 468.88 180.8 C468.88 286.59 397.03 321.95 325.52 350.58 L363.18 618.39 C418.89 614.22 454.52 593.36 488.46 562.22 L488.48 562.19 Z M180.02 487.65 C180.02 552.42 240.09 614.6 331.65 618.92 L295.57 362.33 C234.4 386.41 180.02 411.95 180.02 487.65 L180.02 487.65 Z M430.45 175.6 C430.45 98.92 374.49 35.58 280.03 27.03 L319.79 309.8 C379.16 285.51 430.46 255.39 430.46 175.61 L430.45 175.6 Z " />
<glyph glyph-name="percent" unicode="&#x25;" horiz-adv-x="724" d="M229.55 349.38 C317.88 349.38 382.16 427.22 382.16 517 C382.16 584.3 340.99 635.05 269.69 635.05 C181.16 635.05 116.79 559.15 116.79 467.65 C116.79 400.22 157.7 349.39 229.49 349.39 L229.55 349.38 Z M126.99 -33.67 L165.14 -33.67 L667.34 622.66 L629.19 622.66 L126.99 -33.67 Z M233.78 379.72 C176.52 379.72 148.71 418.59 148.71 469.8 C148.71 538.93 193.22 604.72 265.33 604.72 C322.89 604.72 350.06 564.85 350.06 514.22 C350.06 444.26 305.6 379.72 233.66 379.72 L233.78 379.72 Z M542.36 -6.82999 C630.69 -6.82999 694.97 71.01 694.97 160.79 C694.97 228.09 653.86 278.84 582.56 278.84 C494.03 278.84 429.66 202.93 429.66 111.43 C429.66 44 470.57 -6.82999 542.36 -6.82999 L542.36 -6.82999 Z M546.65 23.5 C489.39 23.5 461.58 62.37 461.58 113.58 C461.58 182.71 506.02 248.5 578.13 248.5 C635.69 248.5 662.86 208.63 662.86 158 C662.86 88.04 618.31 23.5 546.37 23.5 L546.65 23.5 Z " />
<glyph glyph-name="ampersand" unicode="&#x26;" horiz-adv-x="595" d="M568.06 0 L477.14 115.02 C504.89 162.53 523.38 222.24 532.55 291.73 L535.55 314.6 L498.27 314.6 L495.27 291.73 C487.89 234.98 473.75 185.67 453.1 145.43 L297.56 342.19 C380.37 387.16 462.47 432.68 462.47 534.48 C462.47 602.07 413.69 654.71 335.69 654.71 C243.03 654.71 174.71 590.78 174.71 505.31 C174.71 457.74 196.24 413.18 244.37 350.84 C166.69 307.89 93.45 255.3 93.45 143.25 C93.45 44.42 166.71 -9.57999 261.12 -9.57999 C345.42 -9.57999 410.71 24.22 456.78 84.55 L524.36 -0.00997925 L568.06 0 Z M211.76 507.46 C211.76 570.5 260.83 622.52 330.92 622.52 C390.46 622.52 425.39 583.4 425.39 531.08 C425.39 447.33 353.74 409.17 277.02 368.4 C229.93 429.67 211.77 466.65 211.77 507.45 L211.76 507.46 Z M267.16 25.43 C179.85 25.43 128.3 73.69 128.3 147.91 C128.3 237.91 192.8 283.8 265.13 324.38 L433.85 113.24 C394.65 56.97 338.74 25.43 267.15 25.43 L267.16 25.43 Z " />
<glyph glyph-name="quotesingle" unicode="&#x27;" horiz-adv-x="197" d="M152.03 462.5 L174.28 462.5 L211.37 649.79 L168.51 649.79 L152.03 462.5 Z " />
<glyph glyph-name="parenleft" unicode="&#x28;" horiz-adv-x="260" d="M264.02 663.39 C152.88 492.37 95.85 333.02 95.85 142.89 C95.85 41.81 112.94 -65.44 148.25 -159.65 L183.78 -144.82 C153.64 -60.2 133.72 44.58 133.72 129.28 C133.72 324.93 192.51 486.96 295.53 648.41 L264.02 663.39 Z " />
<glyph glyph-name="parenright" unicode="&#x29;" horiz-adv-x="259" d="M181.25 663.39 L145.82 648.55 C179.14 558.18 194.71 471.2 194.71 368.87 C194.71 184.08 138.11 17.77 33.95 -144.43 L65.56 -159.66 C176.89 11.76 233.63 176.33 233.63 363.23 C233.63 463.35 216.23 569.92 181.23 663.39 L181.25 663.39 Z " />
<glyph glyph-name="asterisk" unicode="&#x2a;" horiz-adv-x="354" d="M361.6 559.48 L353.49 599.38 L265.65 557.43 L288.53 652.62 L247.32 652.62 L245.13 557.8 L168.5 599.39 L149.2 559.8 L236.52 537.86 L163.43 464.58 L193.59 440.41 L250.46 525.03 L283.41 440.41 L320.57 464.58 L267.93 537.63 L361.6 559.48 Z " />
<glyph glyph-name="plus" unicode="&#x2b;" horiz-adv-x="497" d="M469.13 260.13 L302.15 260.13 L326.94 435.85 L291.57 435.85 L266.82 260.13 L100.27 260.13 L95.47 227.4 L262.2 227.4 L237.41 51.4 L272.68 51.4 L297.51 227.4 L464.24 227.4 L469.13 260.13 Z " />
<glyph glyph-name="comma" unicode="&#x2c;" horiz-adv-x="231" d="M122.28 65.83 C98.93 65.83 81.58 46.68 81.58 23.76 C81.58 7.01001 92.3 -8.85999 112.77 -9.50998 C108.57 -34.9 96.86 -68.11 68.6 -104.36 L84.9 -116.93 C130.33 -63.73 155.51 -9.64 155.51 31.08 C155.51 53.34 141.95 65.85 122.28 65.85 L122.28 65.83 Z " />
<glyph glyph-name="hyphen" unicode="&#x2d;" horiz-adv-x="388" d="M117.48 235.07 L336.74 235.07 L341.32 266.95 L122.06 266.95 L117.48 235.07 Z " />
<glyph glyph-name="period" unicode="&#x2e;" horiz-adv-x="228" d="M155.17 32.78 C155.17 51.19 141.71 65.83 123.39 65.83 C101.61 65.83 80.91 46.68 80.91 23.75 C80.91 5.03001 94.42 -9.55998 112.58 -9.55998 C134.43 -9.55998 155.16 9.71002 155.16 32.79 L155.17 32.78 Z " />
<glyph glyph-name="slash" unicode="&#x2f;" horiz-adv-x="499" d="M15.32 -179.91 L51.63 -179.91 L551.13 661.07 L514.89 661.07 L15.32 -179.91 Z " />
<glyph glyph-name="zero" unicode="0" horiz-adv-x="572" d="M553.3 419.97 C553.3 567.01 496.99 654.72 378.05 654.72 C194.97 654.72 109.9 433.91 109.9 222.33 C109.9 77.97 167.3 -9.56 284.65 -9.56 C468.13 -9.56 553.3 210.19 553.3 419.98 L553.3 419.97 Z M289.7 26.03 C189.55 26.03 148.6 101.29 148.6 224.89 C148.6 409.69 213.24 619.15 373 619.15 C473.38 619.15 514.71 544.67 514.6 422.21 C514.43 232.81 445.79 26.03 289.7 26.03 L289.7 26.03 Z " />
<glyph glyph-name="one" unicode="1" horiz-adv-x="327" d="M279.73 642 L112.18 544.08 L123.5 512.2 L266.61 592.75 L183.38 0 L219.49 0 L309.72 642 L279.73 642 Z " />
<glyph glyph-name="two" unicode="2" horiz-adv-x="494" d="M112.88 35.83 L123.46 44.2 C349.44 252.4 484.01 353.19 484.01 499.99 C484.01 598.09 421.15 654.72 326.31 654.72 C248.78 654.72 181.58 611.45 142.33 569.18 L163.42 544.96 C198.8 579.47 252.11 619.28 320.18 619.28 C405.65 619.28 445.14 567.76 445.14 497.42 C445.14 387.53 384.21 324.46 66.94 43.22 L60.74 -0.010025 L433.8 -0.010025 L439.09 36.14 L124.51 36.14 L112.88 35.83 Z " />
<glyph glyph-name="three" unicode="3" horiz-adv-x="514" d="M366.36 343.38 C429.8 365.7 483.38 428.96 483.38 513.34 C483.38 600.22 420.14 654.71 326.7 654.71 C261.79 654.71 199.23 626.99 152.72 581.54 L174.77 557.69 C213.96 592.97 265.61 619.62 320.35 619.62 C402.57 619.62 444.79 574.16 444.79 506.57 C444.79 425.37 383.81 360.08 280.2 360.08 L239.64 360.08 L234.67 325.53 L276.33 325.53 C379.34 325.53 434.44 281.36 434.44 199.18 C434.44 94.08 353.12 25.41 245.98 25.41 C176.44 25.41 136.28 42.33 93.28 83.9 L67.95 55.73 C107.89 14.6 161.17 -9.60999 241.06 -9.60999 C380.17 -9.60999 472.16 76.72 472.16 201.28 C472.16 280.46 426.11 327.49 366.4 343.34 L366.36 343.38 Z " />
<glyph glyph-name="four" unicode="4" horiz-adv-x="522" d="M496.29 215.22 L420.87 215.22 L480.83 641.99 L444.71 641.99 L71.99 214.71 L67.04 180.62 L379.89 180.62 L354.51 -0.00999451 L390.63 -0.00999451 L416.01 180.62 L491.28 180.62 L496.29 215.22 Z M117.47 215.28 L436.01 580.1 L384.75 215.23 L117.47 215.28 Z " />
<glyph glyph-name="five" unicode="5" horiz-adv-x="507" d="M238.55 -9.57001 C378.21 -9.57001 471.59 72.26 471.59 220.21 C471.59 328.89 404.34 393.37 291.1 393.37 C242.87 393.37 198.88 377.68 179.2 368.35 L213.02 604.99 L502.79 604.99 L508.2 641.99 L181.86 641.99 L137.89 329.92 L160.07 325.48 C160.07 325.48 216.76 356.65 280.58 356.65 C384.04 356.65 434.37 307.59 434.37 215.36 C434.37 94.36 355.82 24.15 242.05 24.15 C169.2 24.15 128.56 56.15 101.94 83.42 L76.33 54.67 C106.94 26.53 155.48 -9.59003 238.55 -9.59003 L238.55 -9.57001 Z " />
<glyph glyph-name="six" unicode="6" horiz-adv-x="519" d="M327.79 379.23 C253.79 379.23 185.61 341.15 147.32 299.41 C193.84 489.03 363.09 589.72 495.04 620.9 L487.95 655.68 C306.05 613.12 97.89 464.93 97.89 188.59 C97.89 65.99 168.52 -9.58003 274.52 -9.58003 C401.81 -9.58003 489.91 77.67 489.91 214.59 C489.91 322.81 416.93 379.23 327.8 379.23 L327.79 379.23 Z M279.24 24.96 C191.8 24.96 135.04 89.85 135.04 194.52 C135.04 215.16 136.35 234.99 138.85 254.03 C178.16 300.62 244.74 342.49 321.81 342.49 C392.45 342.49 453.25 301.16 453.25 207.9 C453.25 92.5399 376.57 24.9699 279.24 24.9699 L279.24 24.96 Z " />
<glyph glyph-name="seven" unicode="7" horiz-adv-x="454" d="M507.65 642 L126.37 642 L121.03 605 L462.46 605 C274.2 417.76 181.44 228.81 149.43 0.00999451 L188.49 0.00999451 C221.98 243.55 326.47 422.48 508.65 604.79 L507.65 642 Z " />
<glyph glyph-name="eight" unicode="8" horiz-adv-x="530" d="M392.71 334.69 C452.59 359.43 509.42 417.47 509.42 509.27 C509.42 595.63 447.37 654.77 355.69 654.77 C244.3 654.77 157.25 578.4 157.25 466.58 C157.25 402.5 191.09 358.78 232.48 337.46 C149.48 309.12 92.91 239.75 92.91 145.13 C92.91 45.46 167.28 -9.54999 264.19 -9.54999 C391.24 -9.54999 484.14 72.76 484.14 193.88 C484.14 264.74 445.16 311.67 392.72 334.71 L392.71 334.69 Z M193.24 468.71 C193.24 559.29 264.57 619.95 350.62 619.95 C421.84 619.95 473 577.29 473 504.19 C473 409.4 392.94 350.66 316.11 350.66 L312 350.66 C249.97 350.66 193.23 394.37 193.23 468.71 L193.24 468.71 Z M268.33 25.24 C189.7 25.24 129.41 68.4 129.41 149.3 C129.41 248.14 209.73 316.21 308.96 316.21 C395 316.21 447.34 262.49 447.34 187.65 C447.34 89.17 363.81 25.24 268.33 25.24 L268.33 25.24 Z " />
<glyph glyph-name="nine" unicode="9" horiz-adv-x="519" d="M335.35 654.72 C210.2 654.72 115.91 567.46 115.91 430.54 C115.91 330.94 177.13 264.71 274.35 264.71 C354.8 264.71 425.44 303.94 464.37 359.16 C431.85 168.33 284.3 67.3 143.23 26.05 L152.52 -8.87 C334.42 44.42 508.12 188.62 508.12 444.84 C508.12 566.13 452.79 654.72 335.35 654.72 L335.35 654.72 Z M282.21 301.72 C202.35 301.72 152.49 351.93 152.49 435.18 C152.49 544.5 227.78 619.25 328.79 619.97 C424.11 620.61 470.96 546.15 470.96 439.58 C470.96 429.11 470.65 418.86 470.04 408.83 C428.28 345.05 362.32 301.71 282.21 301.71 L282.21 301.72 Z " />
<glyph glyph-name="colon" unicode="&#x3a;" horiz-adv-x="241" d="M213.25 398.61 C213.25 417.03 199.86 431.67 181.53 431.67 C159.78 431.67 139.07 412.52 139.07 389.59 C139.07 370.87 152.51 356.28 170.74 356.28 C192.56 356.28 213.24 375.55 213.24 398.63 L213.25 398.61 Z M162 32.8 C162 51.21 148.54 65.85 130.31 65.85 C108.53 65.85 87.74 46.7 87.74 23.77 C87.74 5.05003 101.25 -9.53996 119.41 -9.53996 C141.26 -9.53996 161.99 9.73004 161.99 32.81 L162 32.8 Z " />
<glyph glyph-name="semicolon" unicode="&#x3b;" horiz-adv-x="251" d="M186.29 431.67 C164.11 431.67 143.08 412.62 143.08 389.79 C143.08 370.97 156.97 356.28 175.63 356.28 C197.85 356.28 218.85 375.45 218.85 398.43 C218.85 416.94 204.99 431.68 186.29 431.68 L186.29 431.67 Z M134.27 65.85 C112.12 65.85 91.04 46.8 91.04 23.98 C91.04 7.12996 102.09 -8.84004 123.36 -9.49004 C119.13 -34.88 107.42 -68.09 77.97 -104.34 L94.59 -116.91 C141.32 -63.9801 166.53 -10.0601 166.53 30.8799 C166.53 53.2599 152.57 65.8699 134.27 65.8699 L134.27 65.85 Z " />
<glyph glyph-name="less" unicode="&#x3c;" horiz-adv-x="550" d="M87.33 217.63 L474.66 34.7 L480.01 71.82 L129.03 236.27 L525.92 401.49 L531.95 441.72 L93.28 258.8 L87.33 217.63 Z " />
<glyph glyph-name="equal" unicode="&#x3d;" horiz-adv-x="515" d="M129 298.37 L468.97 298.37 L473.81 331.82 L133.84 331.82 L129 298.37 Z M105.63 132.91 L445.6 132.91 L450.44 166.36 L110.5 166.36 L105.63 132.91 Z " />
<glyph glyph-name="greater" unicode="&#x3e;" horiz-adv-x="550" d="M523.24 217.13 L528.83 256.43 L141.53 439.36 L136.44 403.39 L487.04 238.29 L90.22 73.07 L84.57 34.21 L523.24 217.13 Z " />
<glyph glyph-name="question" unicode="&#x3f;" horiz-adv-x="438" d="M447.06 479.58 C447.06 576.17 383.12 646.83 285.6 646.83 C226.18 646.83 170.93 622.14 126.75 578.51 L146.75 552.13 C182.58 586.54 228.02 611.25 279.78 611.25 C361.58 611.25 409.58 555.79 409.58 475.92 C409.58 365.23 319.31 289.11 213.34 289.11 L206.21 289.11 L186.63 150.79 L223.43 150.79 L238.18 255.54 C368.25 268.98 447.05 369.97 447.05 479.59 L447.06 479.58 Z M149.56 23.5 C149.56 5.08 163.09 -9.56 181.32 -9.56 C203.07 -9.56 223.88 9.59 223.88 32.52 C223.88 51.21 210.26 65.83 192.1 65.83 C170.31 65.83 149.55 46.56 149.55 23.48 L149.56 23.5 Z " />
<glyph glyph-name="at" unicode="&#x40;" horiz-adv-x="797" d="M501.33 631.12 C255.73 631.12 100.33 442.77 100.33 213.51 C100.33 36 209.91 -93.24 397.54 -93.24 C453.25 -93.24 512.31 -81.68 569.79 -50.23 L559.96 -16.24 C506.5 -46.39 453.1 -58.22 402.57 -58.22 C235.65 -58.22 136.78 58.18 136.78 216.85 C136.78 427.71 280.66 596.1 496.21 596.1 C654.34 596.1 747.01 488.56 747.01 342.03 C747.01 216.99 689.06 127.94 614.89 127.94 C576.95 127.94 552.7 152.69 558.67 195.24 L578.54 334.17 C591.81 428.17 539.23 463.47 467.12 463.47 C415.92 463.47 376.69 448.92 350.31 435.41 L355.97 406.3 C394.88 424.87 424.07 431.38 459.9 431.38 C517.66 431.38 555.51 404.19 545.36 334 L540.64 301.55 L444.3 301.55 C353.11 301.55 297.14 259.43 297.14 185.8 C297.14 130.31 337.89 97.6 397.3 97.6 C456.58 97.6 500.46 130.58 526.05 166.2 C530.14 123.14 560.36 96.62 608.47 96.62 C709.37 96.62 782.8 200.37 782.8 345.18 C782.8 504.94 676.97 631.11 501.31 631.11 L501.33 631.12 Z M408.34 127.66 C358.38 127.66 332.61 150.65 332.61 190.88 C332.61 236.88 362.73 275.07 441.09 275.07 L536.44 275.07 L526.99 206.78 C510.02 169.02 464.26 127.67 408.33 127.67 L408.34 127.66 Z " />
<glyph glyph-name="A" unicode="A" horiz-adv-x="581" d="M502.29 0 L543.3 0 L396.69 642 L360.19 642 L42.33 0 L84.06 0 L184.23 204.23 L457.13 204.23 L502.29 0 Z M200.64 237.68 L359.18 560.9 L372.62 589.15 L378.29 560.78 L449.73 237.67 L200.64 237.68 Z " />
<glyph glyph-name="B" unicode="B" horiz-adv-x="557" d="M395.97 333.54 C487.27 360.28 530.21 425.03 530.21 507.6 C530.21 592.08 467.06 641.99 346.17 641.99 L199.4 641.99 L109.23 -0.00999451 L282.29 -0.00999451 C429.4 -0.00999451 514.04 72.06 514.04 196.24 C514.04 269.5 472.42 315.65 395.97 333.53 L395.97 333.54 Z M231.95 608.54 L342.17 608.54 C445.28 608.54 492.11 565.53 492.11 501.68 C492.11 417.75 429.02 349.8 306.32 349.8 L195.6 349.8 L231.95 608.54 Z M281.82 34.02 L151.24 34.02 L190.79 315.5 L310.43 315.5 C419.31 315.5 475.6 270.29 475.6 190.92 C475.6 97.57 409.84 34.03 281.82 34.03 L281.82 34.02 Z " />
<glyph glyph-name="C" unicode="C" horiz-adv-x="581" d="M444.67 654.72 C257.4 654.72 109.33 496.49 109.33 266.86 C109.33 106.36 195.77 -9.56999 351.83 -9.56999 C437.76 -9.56999 498.01 22.71 543.45 58.87 L527.65 89.73 C484.66 55.47 430.11 26.01 356 26.01 C225.82 26.01 148.6 126.31 148.6 271.06 C148.6 474.19 279.88 619.12 439.55 619.12 C505.9 619.12 547.24 599.57 585.97 564.45 L610.88 593.56 C573.76 629.21 523.17 654.71 444.67 654.71 L444.67 654.72 Z " />
<glyph glyph-name="D" unicode="D" horiz-adv-x="644" d="M362.46 642 L198.68 642 L108.45 0 L274.81 0 C488.62 0 623.39 157.73 623.39 375.1 C623.39 533.73 529.98 642.01 362.46 642.01 L362.46 642 Z M280.9 34.31 L150.5 34.31 L231.03 607.14 L357.6 607.14 C507.39 607.14 583.74 512.15 583.74 370.89 C583.74 174.41 459.25 34.3 280.9 34.3 L280.9 34.31 Z " />
<glyph glyph-name="E" unicode="E" horiz-adv-x="525" d="M538.32 607.42 L543.39 642 L199.07 642 L108.77 0 L465.44 0 L470.48 34.58 L150.74 34.58 L190.32 316.65 L468.88 316.65 L473.85 351.23 L195.18 351.23 L231.13 607.41 L538.32 607.42 Z " />
<glyph glyph-name="F" unicode="F" horiz-adv-x="502" d="M540.38 606.85 L545.5 642 L199.5 642 L109.2 0 L146.46 0 L187.99 295.65 L463.26 295.65 L468.3 330.23 L192.85 330.23 L231.7 606.85 L540.38 606.85 Z " />
<glyph glyph-name="G" unicode="G" horiz-adv-x="625" d="M439.83 619.13 C510.69 619.13 551.67 600.41 593.51 563.47 L618.35 592.58 C578.41 629.43 526.55 654.72 444.95 654.72 C257.75 654.72 109.61 496.49 109.61 266.86 C109.61 106.36 197.24 -9.56999 359.16 -9.56999 C437.21 -9.56999 509.67 16.25 555.83 52.13 L591.67 306.41 L400.58 306.41 L395.4 270.98 L549.13 270.98 L520.71 69.01 C476.28 40.94 422.75 26.02 363.33 26.02 C226.99 26.02 148.86 127.75 148.86 271.07 C148.86 472.77 278.78 619.13 439.81 619.13 L439.83 619.13 Z " />
<glyph glyph-name="H" unicode="H" horiz-adv-x="663" d="M607.02 642 L565.28 344.93 L194.92 344.93 L236.66 642 L199.41 642 L109.21 0 L146.47 0 L190.03 310.07 L560.39 310.07 L516.83 0 L554.06 0 L644.26 642 L607.02 642 Z " />
<glyph glyph-name="I" unicode="I" horiz-adv-x="296" d="M318.8 608.55 L323.77 642 L151.87 642 L146.97 608.55 L214.41 608.55 L133.54 33.45 L66.45 33.45 L61.58 0 L233.48 0 L238.35 33.45 L170.76 33.45 L251.65 608.55 L318.8 608.55 Z " />
<glyph glyph-name="J" unicode="J" horiz-adv-x="412" d="M398.59 642 L233.7 642 L228.9 608.55 L356.69 608.55 L292.87 153.23 C279.63 58.95 225.76 25.73 165.58 25.73 C121.48 25.73 91.66 46.35 71.68 69.92 L44.58 41.96 C62.94 20.75 99.97 -9.57002 162.05 -9.57002 C239.87 -9.57002 312.34 28.57 330.14 155.09 L398.59 642 Z " />
<glyph glyph-name="K" unicode="K" horiz-adv-x="542" d="M436.76 93.63 L303.73 347.44 L591.91 641.99 L544.72 641.99 L185.06 274.75 L236.66 641.99 L199.41 641.99 L109.21 -0.00999451 L146.47 -0.00999451 L177.1 217.99 L274.68 317.73 L402.61 75.59 C431.13 21.85 461.98 -0.00999451 513.67 -0.00999451 L518.54 33.44 C482.28 33.44 457.19 54.7 436.79 93.63 L436.76 93.63 Z " />
<glyph glyph-name="L" unicode="L" horiz-adv-x="470" d="M151.35 34.3 L236.65 642 L199.4 642 L109.2 0 L433.88 0 L438.88 34.3 L151.35 34.3 Z " />
<glyph glyph-name="M" unicode="M" horiz-adv-x="755" d="M696.44 642 L411.46 132.72 L397.57 106.58 L390.72 132.72 L235.41 642 L199.76 642 L109.49 0 L145.75 0 L219.04 524.45 L223.82 566.34 L229.12 544.72 L374.83 62 L407.88 62 L678.18 543.58 L690.97 569.35 L682.94 524.45 L609.58 1.52588e-05 L646.07 1.52588e-05 L736.34 642 L696.44 642 Z " />
<glyph glyph-name="N" unicode="N" horiz-adv-x="659" d="M602.84 642 L524.82 84.17 L522.42 62.27 L515.45 78.2 L235.64 642 L199.43 642 L109.2 0 L145.46 0 L223.39 557.13 L226.47 582.94 L235.34 561.12 L513.15 -0.0100098 L548.91 -0.0100098 L639.11 641.99 L602.84 642 Z " />
<glyph glyph-name="O" unicode="O" horiz-adv-x="700" d="M441 654.72 C245.21 654.72 108.15 472.26 108.15 264.04 C108.15 106.49 195.21 -9.57001 347.6 -9.57001 C546.99 -9.57001 681.34 174.43 681.34 382.98 C681.34 542.99 593.42 654.71 441 654.71 L441 654.72 Z M435.98 619.38 C569.79 619.38 642.61 525.27 642.61 381.7 C642.61 194.22 528.89 28.15 352.63 25.79 C219.73 24 146.89 123.04 146.89 264.35 C146.89 452.06 262.39 619.38 435.98 619.38 L435.98 619.38 Z " />
<glyph glyph-name="P" unicode="P" horiz-adv-x="541" d="M349.39 642 L199.74 642 L109.48 0 L146.73 0 L180.74 242.02 L296.39 242.02 C460.97 242.02 552.83 328.51 552.83 472.85 C552.83 574.53 482.99 642 349.36 642 L349.39 642 Z M301.05 275.75 L185.47 275.75 L232.12 607.7 L344.39 607.7 C463.82 607.7 513.08 550.25 513.08 466.98 C513.08 350.17 439.85 275.75 301.05 275.75 L301.05 275.75 Z " />
<glyph glyph-name="Q" unicode="Q" horiz-adv-x="700" d="M425.34 0.289993 C581.12 41.06 681.34 202.87 681.34 383 C681.34 543.01 593.42 654.73 441 654.73 C245.21 654.73 108.15 472.27 108.15 264.05 C108.15 106.5 195.21 -9.56001 347.6 -9.56001 C361.34 -9.56001 374.77 -8.69002 387.87 -6.99002 C431.27 -101.44 513.41 -142.91 589.8 -142.91 L594.64 -108.23 C536.38 -108.23 467.87 -78.96 425.32 0.299973 L425.34 0.289993 Z M146.87 264.36 C146.87 452.07 262.37 619.39 435.96 619.39 C569.77 619.39 642.59 525.28 642.59 381.71 C642.59 194.23 528.87 28.16 352.61 25.8 C219.71 24.01 146.87 123.05 146.87 264.36 L146.87 264.36 Z " />
<glyph glyph-name="R" unicode="R" horiz-adv-x="547" d="M415.73 93.63 L350.27 278.72 C464.85 296.05 538.72 371.36 538.72 481.84 C538.72 583.2 473.92 641.99 357.01 641.99 L198.69 641.99 L108.49 -0.0100098 L145.74 -0.0100098 L184.37 274.91 L297.87 274.91 C301.98 274.91 306.05 274.98 310.08 275.11 L380.8 78.54 C402.69 17.12 437.59 -0.0100098 487.82 -0.0100098 L492.62 33.44 C458.46 33.44 431.46 48.62 415.73 93.62 L415.73 93.63 Z M189.18 309.2 L231.06 607.25 L351.42 607.25 C456.18 607.25 499.91 557.25 499.91 476.51 C499.91 381.72 432.17 309.2 303.06 309.2 L189.18 309.2 Z " />
<glyph glyph-name="S" unicode="S" horiz-adv-x="510" d="M349.82 654.72 C226.64 654.72 143.73 578.69 143.73 483.77 C143.73 373.33 227.19 346.91 304.51 316.89 C371.06 290.98 433.04 263.28 433.04 175.58 C433.04 93.08 368.26 26.02 260.45 26.02 C174.85 26.02 125.9 57.67 93.88 97.39 L66.91 69.86 C100.26 29.71 156.85 -9.56 255.52 -9.56 C387.92 -9.56 471.48 69.64 471.48 180.78 C471.48 287.32 398.61 322.43 326.61 351.17 C254.95 379.75 182.63 400.34 182.63 487.64 C182.63 554.78 247.18 619.14 344.45 619.14 C412.77 619.14 452.98 597.14 491.07 562.19 L515.45 592.36 C477.9 628.66 429.33 654.72 349.85 654.72 L349.82 654.72 Z " />
<glyph glyph-name="T" unicode="T" horiz-adv-x="526" d="M580.15 642 L126.15 642 L121.18 608.13 L329.31 608.13 L243.99 0 L281.17 0 L366.55 608.13 L575.18 608.13 L580.15 642 Z " />
<glyph glyph-name="U" unicode="U" horiz-adv-x="645" d="M321.27 -9.57001 C458.11 -9.57001 556.05 89.45 578.8 251.7 L633.52 642 L596.52 642 L541.8 251.7 C523.58 121.95 444.75 26.86 326.58 26.86 C205.95 26.86 156.68 121.41 174.9 251.69 L229.62 641.99 L191.77 641.99 L137.05 251.69 C114.58 91.95 186.69 -9.58 321.26 -9.58 L321.27 -9.57001 Z " />
<glyph glyph-name="V" unicode="V" horiz-adv-x="576" d="M582.3 642 L299.3 53.63 L296.11 46.74 L294.74 53.63 L169.38 642 L128.88 642 L269.04 0 L309.75 0 L624.51 642 L582.3 642 Z " />
<glyph glyph-name="W" unicode="W" horiz-adv-x="855" d="M862.43 642 L616.51 60.61 L610.82 46.86 L609.39 60.88 L533.8 584.86 L493.18 584.86 L260.88 57.45 L256.24 45.82 L254.91 57.79 L173.91 641.99 L132.87 641.99 L226.69 -0.0100098 L271.87 -0.0100098 L493.12 498.87 L506.8 530.95 L510.06 499.3 L582.02 -0.00999451 L625.36 -0.00999451 L901.61 641.99 L862.43 642 Z " />
<glyph glyph-name="X" unicode="X" horiz-adv-x="548" d="M593.6 642 L550.14 642 L322.62 355.23 L184.08 642 L140.67 642 L296.85 326.21 L31.04 0 L76.71 0 L317.85 296.22 L467.83 0 L511.76 0 L343.51 325.75 L593.6 642 Z " />
<glyph glyph-name="Y" unicode="Y" horiz-adv-x="566" d="M608.89 642 L564.09 642 L333.39 316.95 L326.83 307.11 L323.13 316.57 L174.69 642 L131.48 642 L302.83 268.57 L265.05 0 L302.28 0 L340.02 268.1 L608.89 642 Z " />
<glyph glyph-name="Z" unicode="Z" horiz-adv-x="532" d="M563.33 608.32 L568.23 642 L145.15 642 L140.2 607.98 L517.41 608.25 L498.67 586.53 L52.42 33.27 L47.58 -0.00999451 L483.04 -0.00999451 L487.89 33.72 L99.75 33.72 L115.4 51.99 L563.33 608.32 Z " />
<glyph glyph-name="bracketleft" unicode="&#x5b;" horiz-adv-x="277" d="M324.14 647.98 L328.99 682 L198.94 682 L79.48 -168 L209.53 -168 L214.46 -133.98 L121.68 -133.98 L231.47 647.99 L324.14 647.98 Z " />
<glyph glyph-name="backslash" unicode="&#x5c;" horiz-adv-x="499" d="M433.33 -179.91 L170.2 661.07 L133.89 661.07 L397.02 -179.91 L433.33 -179.91 Z " />
<glyph glyph-name="bracketright" unicode="&#x5d;" horiz-adv-x="277" d="M139.47 682 L134.62 647.98 L227.4 647.98 L117.54 -133.99 L24.94 -133.99 L20.01 -168.01 L150.03 -168.01 L269.49 681.99 L139.47 682 Z " />
<glyph glyph-name="asciicircum" unicode="&#x5e;" horiz-adv-x="495" d="M451.63 369.2 L487.06 369.2 L360.46 674.93 L323.71 674.93 L111.05 369.2 L148.9 369.2 L339.38 643.86 L451.63 369.2 Z " />
<glyph glyph-name="underscore" unicode="&#x5f;" horiz-adv-x="465" d="M26.9 -65.3 L418.78 -65.3 L423.29 -34.13 L31.41 -34.13 L26.9 -65.3 Z " />
<glyph glyph-name="grave" unicode="&#x60;" horiz-adv-x="253" d="M261.64 530.47 L280.22 551.03 L160.55 678.06 L131.19 646.24 L261.64 530.47 Z " />
<glyph glyph-name="a" unicode="a" horiz-adv-x="543" d="M463.33 104.1 L509.76 431.7 C463.64 466.13 414.25 480.85 353.39 480.85 C199.18 480.85 93.77 364.55 93.77 184.91 C93.77 65.48 152.11 -9.56999 254.13 -9.56999 C319.17 -9.56999 382.57 21.95 423.25 77.34 C419.59 37.01 424.99 7.44 430.93 -7.78999 L468.22 1.55 C462.55 19.74 454.97 44.77 463.34 104.1 L463.33 104.1 Z M264.67 25.73 C180.35 26.04 132.37 87.06 132.37 189.97 C132.37 349.6 223.56 446.4 347.04 446.4 C401.61 446.4 436.84 433.5 469.78 411.22 L429.3 124.84 C390.7 64.58 332.87 25.47 264.67 25.74 L264.67 25.73 Z " />
<glyph glyph-name="b" unicode="b" horiz-adv-x="541" d="M353.1 480.85 C289.25 480.85 224.23 448.37 182.87 392.46 L220.22 658.14 L183.22 658.14 L96.21 39.14 C143.84 6.31999 192.66 -9.55 252.15 -9.55 C409.89 -9.55 513.08 109.45 513.08 290.97 C513.08 409.64 458.66 480.86 353.11 480.86 L353.1 480.85 Z M258.59 24.89 C205.42 24.89 170.46 37.53 136.21 60.43 L176.11 344.25 C213.43 401.25 276.43 445.57 342.55 445.57 C430.38 445.57 474.49 387.11 474.49 286.33 C474.49 124.45 385.5 24.9 258.59 24.9 L258.59 24.89 Z " />
<glyph glyph-name="c" unicode="c" horiz-adv-x="478" d="M477.81 438.85 C449.36 461.92 408.32 480.85 350.01 480.85 C215.69 480.85 94.06 368.36 94.06 194.58 C94.06 64.88 169.83 -9.56999 277.44 -9.56999 C342.42 -9.56999 392.03 12.21 433.33 44.58 L419.17 75.49 C386.59 50.49 342.92 25.74 282.63 25.74 C186.71 25.74 132.71 97.44 132.71 199.97 C132.71 336.99 229.07 445.84 345.05 445.84 C399.49 445.84 435.53 428.53 464.95 405.04 L477.81 438.85 Z " />
<glyph glyph-name="d" unicode="d" horiz-adv-x="544" d="M463.4 104.01 L540.95 658.13 L504.23 658.13 L475.23 450.36 C439.11 469.88 399.53 480.84 352.56 480.84 C198.41 480.84 93.34 366.55 93.34 187.19 C93.34 67.14 152.79 -9.58 255 -9.58 C319.92 -9.58 384.49 24.64 423.61 78.4 C419.92 40.32 423.83 9.89999 430.39 -7.8 L467 1.53999 C462.1 19.73 455.02 44.65 463.39 104 L463.4 104.01 Z M265.68 25.72 C181.05 26.03 131.95 89.82 131.95 192.36 C131.95 351.59 222.77 446.38 346.3 446.38 C400.15 446.38 435.81 432.53 469.67 410.65 L430.14 127.41 C391.72 67.39 330.47 25.4299 265.68 25.7099 L265.68 25.72 Z " />
<glyph glyph-name="e" unicode="e" horiz-adv-x="481" d="M291.55 25.73 C186.8 25.73 132.8 95.58 132.68 200.46 C149.84 199.33 167.32 198.7 186.61 198.7 C329.83 198.7 472.09 241.9 472.09 364.67 C472.09 436.74 419.9 480.85 337.72 480.85 C207.31 480.85 94.04 372.92 94.04 195.43 C94.04 63.18 169.87 -9.56999 286.2 -9.56999 C345.09 -9.56999 393.55 9.55 436.65 46.02 L422.09 76.21 C386.31 44.03 343.53 25.72 291.53 25.72 L291.55 25.73 Z M334.14 445.82 C396.42 445.82 433.38 414.18 433.38 359.72 C433.38 264.99 310.09 231.87 192.13 231.76 C171.06 231.74 152.12 232.57 134.32 233.94 C146.75 356.48 227.78 445.84 334.15 445.84 L334.14 445.82 Z " />
<glyph glyph-name="f" unicode="f" horiz-adv-x="317" d="M339.59 626.68 C370.21 626.68 389.87 618.56 412.97 601.36 L428.01 633.3 C411.49 646.53 385.42 661.12 345.23 661.12 C277.84 661.12 200.8 620.29 184.07 501.85 L179.38 468.55 L113.37 468.55 L108.47 435.1 L174.67 435.1 L113.36 -0.0200043 L150.79 -0.0200043 L211.76 435.1 L348.38 435.1 L353.25 468.55 L216.45 468.55 L221.51 504.65 C234.55 597.79 293.58 626.67 339.6 626.67 L339.59 626.68 Z " />
<glyph glyph-name="g" unicode="g" horiz-adv-x="541" d="M353.29 480.85 C199.11 480.85 93.77 364.55 93.77 184.91 C93.77 65.48 152.13 -9.56999 254.05 -9.56999 C319.35 -9.56999 382.96 22.14 423.57 77.84 L412.62 -0.269989 C399.4 -94.39 329.34 -156.77 232.11 -156.77 C176.45 -156.77 136.81 -144.68 98.56 -112.97 L79.59 -145.49 C120.46 -177.4 167.07 -190.5 227.13 -190.5 C341.96 -190.5 433.35 -118.36 449.89 -0.270004 L510.46 431.7 C462.84 465.48 414.23 480.85 353.27 480.85 L353.29 480.85 Z M430.38 126.55 C391.63 65.31 331.05 25.45 264.57 25.72 C180.17 26 132.27 88.07 132.27 189.9 C132.27 349.58 223.56 446.38 346.94 446.38 C401.87 446.38 437.17 433.35 470.25 410.86 L430.38 126.55 Z " />
<glyph glyph-name="h" unicode="h" horiz-adv-x="545" d="M356.35 480.85 C285.11 480.85 222.26 440.62 185.65 392.87 L222.91 658.13 L185.68 658.13 L93.21 0 L130.47 0 L178.91 344.9 C203.88 383.88 263.72 445.27 347.17 445.27 C439.27 445.27 472.98 390.1 457.9 280.05 L419.47 -1.52588e-05 L456.75 -1.52588e-05 L496.32 283.68 C514.84 416.12 464.97 480.84 356.35 480.84 L356.35 480.85 Z " />
<glyph glyph-name="i" unicode="i" horiz-adv-x="234" d="M237 608.53 C237 624.98 225.26 638.55 208.61 638.55 C187.41 638.55 170 620.74 170 600.45 C170 583.45 182.57 570.42 198.83 570.42 C218.89 570.42 237.01 587.65 237.01 608.53 L237 608.53 Z M205.74 468.56 L121.01 468.56 L116.11 435.11 L163.59 435.11 L102.6 -0.00997925 L139.83 -0.00997925 L205.74 468.56 Z " />
<glyph glyph-name="j" unicode="j" horiz-adv-x="211" d="M232.19 608.53 C232.19 624.98 220.44 638.55 203.79 638.55 C182.59 638.55 165.18 620.74 165.18 600.45 C165.18 583.45 177.75 570.42 194.01 570.42 C214.07 570.42 232.19 587.65 232.19 608.53 L232.19 608.53 Z M200.95 468.56 L108.84 468.56 L103.94 435.11 L158.63 435.11 L93.35 -36.17 C82.62 -113.54 32.81 -159.7 -15.54 -159.7 C-51.52 -159.7 -70.51 -145.22 -87.37 -127.34 L-109.2 -156.17 C-97.2 -168.2 -69.35 -194.15 -17.16 -194.15 C47.24 -194.15 114.33 -145.86 129.94 -35.26 L200.95 468.56 Z " />
<glyph glyph-name="k" unicode="k" horiz-adv-x="462" d="M379.45 71.3 L257.6 263.52 L482.05 468.57 L433.67 468.57 L161.26 221.04 L222.67 658.14 L185.67 658.14 L93.2 0.0100098 L130.2 0.0100098 L153.92 168.82 L228.96 237.38 L348.98 49.13 C371.1 14.82 398.32 0.0400085 434.74 0.0400085 L439.58 33.46 C418.41 33.46 398.28 41.8 379.45 71.31 L379.45 71.3 Z " />
<glyph glyph-name="l" unicode="l" horiz-adv-x="245" d="M222.48 658.13 L184.91 658.13 L104.18 80.28 C95.36 17.65 120.63 -7.57001 169.36 -7.57001 C191.57 -7.57001 207.39 -2.29001 214.02 -0.0900116 L218.77 32.61 C212.43 30.41 200.02 25.24 178.95 25.24 C148.04 25.24 135.52 38.1 141.42 80.24 L222.48 658.13 Z " />
<glyph glyph-name="m" unicode="m" horiz-adv-x="829" d="M651.33 480.85 C574.33 480.85 514.46 434.2 476.83 384.9 C462.98 449.96 418.38 480.85 349.05 480.85 C279.27 480.85 221.62 441 186.98 393.55 C190.39 430.8 186.15 461.01 179.6 478.51 L142.8 469.17 C147.66 450.98 154.64 426.06 146.27 366.7 L94.92 1.52588e-05 L132.17 1.52588e-05 L180.5 344.79 C204.76 383.76 257.77 445.26 339.86 445.26 C421.2 445.26 454.53 392.24 439.02 280.04 L400.59 -0.00999451 L437.87 -0.00999451 L477.44 283.67 C480.49 305.41 481.78 325.27 481.38 343.29 C505.54 382.41 559.41 445.24 642.15 445.24 C723.49 445.24 756.67 392.22 741.31 280.02 L702.88 -0.0299988 L740.16 -0.0299988 L779.73 283.65 C798.51 418.24 750.03 480.81 651.35 480.81 L651.33 480.85 Z " />
<glyph glyph-name="n" unicode="n" horiz-adv-x="547" d="M358.35 480.85 C286.78 480.85 223.68 440.25 187.14 392.22 C190.78 430.08 186.52 460.8 179.89 478.51 L143.09 469.17 C147.95 450.98 154.93 426.06 146.56 366.7 L95.21 1.52588e-05 L132.47 1.52588e-05 L180.78 344.69 C205.67 383.66 265.57 445.27 349.17 445.27 C441.27 445.27 474.98 390.1 459.9 280.05 L421.47 1.52588e-05 L458.75 1.52588e-05 L498.32 283.68 C516.84 416.12 466.97 480.84 358.35 480.84 L358.35 480.85 Z " />
<glyph glyph-name="o" unicode="o" horiz-adv-x="559" d="M289.03 -9.57001 C428.91 -9.57001 530.83 105.9 530.83 270.73 C530.83 392.03 458.53 480.84 336.15 480.84 C202.18 480.84 94.34 364.98 94.34 199.19 C94.34 76.66 167.33 -9.56999 289.04 -9.56999 L289.03 -9.57001 Z M294.14 25.73 C186.95 25.73 132.86 101.89 132.86 203.19 C132.86 339.8 215.71 445.54 331.07 445.54 C437.69 445.54 492.24 369.25 492.24 266.46 C492.24 130.22 411.32 25.71 294.15 25.71 L294.14 25.73 Z " />
<glyph glyph-name="p" unicode="p" horiz-adv-x="546" d="M357.52 480.85 C293.71 480.85 228.28 448.17 186.86 391.94 C190.68 430.19 186.85 460.75 179.78 478.51 L143.14 469.17 C148.07 450.98 155.07 426.06 146.77 366.7 L68.48 -188.85 L105.54 -188.85 L134.68 18.6 C171.04 -0.0899963 210.6 -9.56999 256.57 -9.56999 C413.39 -9.56999 517.36 110.57 517.36 290.96 C517.36 409.63 463.08 480.85 357.53 480.85 L357.52 480.85 Z M262.94 24.88 C208.87 24.88 173.41 37.74 140.48 59.87 L180.4 344.03 C218.82 402.55 280.64 445.55 346.96 445.55 C434.79 445.55 478.83 387.09 478.83 286.31 C478.83 125.56 388.99 24.88 262.93 24.88 L262.94 24.88 Z " />
<glyph glyph-name="q" unicode="q" horiz-adv-x="541" d="M353.32 480.85 C199.21 480.85 93.77 364.55 93.77 184.91 C93.77 65.48 152.13 -9.56999 254.13 -9.56999 C319.4 -9.56999 383.04 22.17 423.65 77.93 L386.15 -188.85 L423.15 -188.85 L510.39 431.73 C462.8 465.34 414.26 480.86 353.33 480.86 L353.32 480.85 Z M264.63 25.74 C180.23 25.74 132.3 88.09 132.3 189.92 C132.3 349.6 223.52 446.4 347.07 446.4 C401.02 446.4 436.27 433.92 470.5 411.2 L430.5 126.71 C392.37 66.63 331.14 25.72 264.63 25.72 L264.63 25.74 Z " />
<glyph glyph-name="r" unicode="r" horiz-adv-x="354" d="M350.08 480.88 C277.05 480.88 219.77 434.12 184.71 375.3 L185.17 378.6 C191.3 422.65 187.28 458.73 179.88 478.51 L142.94 469.17 C147.8 450.98 154.92 426.06 146.55 366.7 L95.2 1.52588e-05 L132.46 1.52588e-05 L176.35 315.19 C201.31 371.2 252.78 443.74 340.68 443.74 C356.07 443.74 370.23 440.42 380.1 436.58 L394.77 473.58 C382.42 477.91 364.81 480.88 350.08 480.88 L350.08 480.88 Z " />
<glyph glyph-name="s" unicode="s" horiz-adv-x="442" d="M294.63 480.85 C193.69 480.85 118.02 431.85 118.02 351.25 C118.02 190.55 363.63 259.06 363.63 128.47 C363.63 73.28 312.82 24.88 221.55 24.88 C149.29 24.88 106.74 52.3 84.2 74.66 L64.2 42.99 C93.95 15.01 145.23 -9.56999 216.28 -9.56999 C327.42 -9.56999 400.98 48 400.98 133.73 C400.98 295.45 156.09 231.02 156.09 354.06 C156.09 409.23 210.36 446.4 289.49 446.4 C347.73 446.4 383.63 432.2 414.19 413.71 L426.71 447.07 C402.91 461.5 361.9 480.84 294.64 480.84 L294.63 480.85 Z " />
<glyph glyph-name="t" unicode="t" horiz-adv-x="356" d="M209.68 436.53 L364.42 436.53 L368.99 468.56 L214.2 468.56 L232.13 595.43 L192.73 585.94 L176.28 468.56 L101.49 468.56 L96.89 436.53 L171.79 436.53 L129.81 136.99 C115.01 31.36 168.35 -9.57001 235.01 -9.57001 C287.47 -9.57001 321.24 13.06 340.07 28.78 L326.56 57.81 C306.52 41.54 280.11 24.88 242.53 24.88 C196.32 24.88 154.52 48.68 168.29 143.64 L209.68 436.53 Z " />
<glyph glyph-name="u" unicode="u" horiz-adv-x="542" d="M461.14 103.94 L512.17 468.56 L474.92 468.56 L427.33 131.2 C402.37 91.78 344.08 26.03 258.6 26.03 C169.14 26.03 139.26 80.48 154.28 190.3 L192.43 468.56 L155.15 468.56 L115.87 186.67 C97.38 54.76 145.82 -9.55 249.45 -9.55 C323.34 -9.55 384.58 33.59 420.74 83.47 C416.21 43.32 420.69 10.61 427.58 -7.87 L465.05 1.54001 C460.19 19.73 452.83 44.58 461.16 103.93 L461.14 103.94 Z " />
<glyph glyph-name="v" unicode="v" horiz-adv-x="485" d="M464.97 468.57 L248.39 39.84 L149.42 468.57 L107.77 468.57 L220.34 0 L265.49 0 L508.05 468.57 L464.97 468.57 Z " />
<glyph glyph-name="w" unicode="w" horiz-adv-x="708" d="M690.03 468.57 L503.99 39.31 L440.41 468.57 L396.61 468.57 L216.07 39.75 L150.23 468.5 L110.04 468.5 L187.92 -0.0700073 L233.74 -0.0700073 L412.97 420.19 L475.24 -0.0700073 L521.19 -0.0700073 L729.83 468.5 L690.03 468.57 Z " />
<glyph glyph-name="x" unicode="x" horiz-adv-x="462" d="M474.72 468.57 L431.38 468.57 L267.35 265.66 L152.26 468.57 L109.48 468.57 L239.4 238.68 L41.48 1.52588e-05 L85.07 1.52588e-05 L260.51 210.87 L381.82 1.52588e-05 L425.71 1.52588e-05 L287.09 238.5 L474.72 468.57 Z " />
<glyph glyph-name="y" unicode="y" horiz-adv-x="539" d="M472.79 468.57 L425.53 130.65 C400.27 91.16 341.34 26.05 256.1 26.05 C167.69 26.05 137.45 80.57 152.61 190.39 L191.04 468.57 L153.76 468.57 L114.19 186.75 C95.55 54.85 142.57 -9.53 246.87 -9.53 C321.06 -9.53 382.5 33.34 418.85 83 L407.21 -0.259995 C394.06 -94.38 324.73 -156.76 227.5 -156.76 C171.84 -156.76 132.17 -144.67 93.95 -112.96 L74.89 -145.48 C115.76 -177.39 162.47 -190.49 222.53 -190.49 C337.29 -190.49 428.02 -117.92 444.49 -0.259995 L510.06 468.57 L472.79 468.57 Z " />
<glyph glyph-name="z" unicode="z" horiz-adv-x="455" d="M463.94 468.57 L124.28 468.57 L119.64 436.4 L418.06 436.4 L56.42 37.29 L51.01 1.52588e-05 L404.57 1.52588e-05 L409.38 32.17 L98.85 32.17 L458.57 431.06 L463.94 468.57 Z " />
<glyph glyph-name="braceleft" unicode="&#x7b;" horiz-adv-x="299" d="M318.45 682 C248.22 682 214.01 643.19 204.51 573.97 L176.21 367 C167.75 305.05 144.7 275.5 104.19 275.5 L86.8 275.5 L81.49 238.5 L98.81 238.5 C140.75 238.5 153.85 208.85 145.22 147 L115.92 -59.97 C107.57 -118.99 130.37 -167.99 199.01 -167.99 L231.57 -167.99 L236.5 -133.97 L204.31 -133.97 C161.7 -133.97 147.66 -105.31 153.93 -59.96 L182.51 147.01 C189.37 195.88 182.14 238.55 151.91 256.91 C187.76 275.18 206.71 317.99 213.51 367.01 L241.81 573.98 C248.18 620.5 271.57 648 314.02 648 L346.21 648 L351.03 682.02 L318.45 682 Z " />
<glyph glyph-name="bar" unicode="&#x7c;" horiz-adv-x="241" d="M92.48 -75.85 L126.8 -75.85 L232.9 678.55 L198.58 678.55 L92.48 -75.85 Z " />
<glyph glyph-name="braceright" unicode="&#x7d;" horiz-adv-x="299" d="M271.97 275.5 C230.03 275.5 217.69 305.15 226.2 367 L254.5 573.97 C262.83 634.84 239.54 682 171.75 682 L139.19 682 L134.34 647.98 L166.53 647.98 C209.15 647.98 223.61 619.82 217.22 573.97 L188.92 367 C182.13 317.99 189.06 275.28 219.26 256.99 C183.87 238.66 164.82 195.92 157.92 147 L128.62 -59.97 C122.21 -104.83 96.54 -133.98 56.86 -133.98 L24.67 -133.98 L19.74 -168 L52.3 -168 C123.01 -168 156.7 -124.75 165.9 -59.97 L195.2 147 C203.84 208.85 224.66 238.5 266.57 238.5 L283.96 238.5 L289.3 275.5 L271.97 275.5 Z " />
<glyph glyph-name="asciitilde" unicode="&#x7e;" horiz-adv-x="537" d="M140.68 189.92 C162.39 221.15 186.37 235.99 222.95 235.99 C276.9 235.99 313.51 190.99 374.57 190.99 C421.83 190.99 463.97 214.41 489.22 256.61 L461.06 272.27 C441.94 244.13 416.1 225.56 379.62 225.56 C328.81 225.56 288.49 270.56 226.27 270.56 C179.06 270.56 139.09 247.68 114 206.16 L140.68 189.92 Z " />
<glyph glyph-name="exclamdown" unicode="&#xa1;" horiz-adv-x="233" d="M216.58 457.18 C216.58 475.59 203.02 490.23 184.82 490.23 C163.04 490.23 142.28 471.08 142.28 448.15 C142.28 429.43 155.84 414.84 174 414.84 C195.82 414.84 216.58 434.11 216.58 457.19 L216.58 457.18 Z M73.48 -165.63 L111.95 -165.63 L177.43 329.89 L147.26 329.89 L73.48 -165.63 Z " />
<glyph glyph-name="cent" unicode="&#xa2;" horiz-adv-x="490" d="M358.07 521.81 C413.85 521.81 448.68 506.98 477.97 481.77 L490.9 515.87 C462.33 539.59 421.38 557.87 362.93 557.87 L361.06 557.87 L374.33 652.21 L342.77 652.21 L329.22 555.87 C205.23 540.91 108.63 442.91 108.63 283.95 C108.63 170.29 172.01 100.47 263.45 88.26 L249.13 -13.57 L280.69 -13.57 L294.74 86.34 C359.04 86.73 407.27 109.31 449.17 140.48 L434.95 172.49 C401.48 146.58 357.09 123.45 299.86 122.78 L355.98 521.81 C356.68 521.81 357.38 521.81 358.08 521.81 L358.07 521.81 Z M268.6 124.88 C190.95 136.86 147.25 198.67 147.25 289.35 C147.25 407.85 216.61 502.72 324.06 519.26 L268.6 124.88 Z " />
<glyph glyph-name="sterling" unicode="&#xa3;" horiz-adv-x="538" d="M395.32 618.98 C452.43 618.98 494.74 601.39 526.94 570.54 L551.92 598.16 C519.03 630.07 476.65 653.99 399.71 653.99 C270.29 653.99 181.88 565.3 181.88 421.73 C181.88 391.49 184.03 356.7 185.23 323.8 L109.52 323.8 L104.78 290.35 L186 290.35 L186 287.09 C186 222.86 168.35 119.39 127.36 35.01 L69.09 35.01 L64.01 -0.0100098 L473.47 -0.0100098 L478.55 35.01 L166.68 35.01 C203.96 117.05 223.24 217.15 223.24 287.66 L223.24 290.36 L422.47 290.36 L427.21 323.81 L222.52 323.81 C221.39 356.84 219.34 392.24 219.34 422.93 C219.34 530.19 284.6 618.98 395.33 618.98 L395.32 618.98 Z " />
<glyph glyph-name="currency" unicode="&#xa4;" horiz-adv-x="617" d="M543.35 474.53 L607.06 532.91 L582.72 560.99 L520.15 503.93 C487.2 537.67 440.99 557.67 386.06 557.67 C328.41 557.67 275.8 539.7 233.66 508.25 L188.47 564.02 L158.37 537.56 L203.52 481.6 C159.6 435.76 132.89 372 132.89 298.17 C132.89 253.06 144.69 212.64 165.89 180.23 L105.05 124.66 L128.76 96.88 L188.99 151.76 C221.8 118.95 267.41 99.56 321.51 99.56 C378.31 99.56 430.96 118.38 473.38 150.62 L517.8 95.97 L547.83 122.43 L503.38 177.45 C547.53 223.73 574.82 287.3 574.82 358.91 C574.82 402.93 563.57 442.49 543.31 474.51 L543.35 474.53 Z M169.49 302.69 C169.49 431.69 265.43 522.37 380.26 522.37 C475.51 522.37 537.72 452.45 537.72 354.99 C537.72 230.56 437.4 135.43 326.13 135.43 C231.68 135.43 169.49 204.64 169.49 302.69 L169.49 302.69 Z " />
<glyph glyph-name="yen" unicode="&#xa5;" horiz-adv-x="552" d="M600.27 642 L556.66 642 L327.6 327.43 L322.18 318.79 L319.05 327.36 L173.66 642.01 L132.27 642.01 L287.15 307.32 L161.41 307.32 L156.88 275.85 L297.09 275.85 L285.23 191.62 L145.14 191.62 L140.64 160.15 L280.79 160.15 L258.23 0 L296.05 0 L318.61 160.15 L457.34 160.15 L461.84 191.62 L323.04 191.62 L334.9 275.85 L473.58 275.85 L478.11 307.32 L353.36 307.32 L600.27 642 Z " />
<glyph glyph-name="brokenbar" unicode="&#xa6;" horiz-adv-x="240" d="M155.6 374.69 L189.78 374.12 L232.62 678.55 L198.3 678.55 L155.6 374.69 Z M92.21 -75.85 L126.53 -75.85 L169.3 228.58 L134.98 228.58 L92.21 -75.85 Z " />
<glyph glyph-name="section" unicode="&#xa7;" horiz-adv-x="522" d="M348 619.45 C413.58 619.45 456.26 601.62 495.97 572.26 L520.37 602.43 C480.98 633.03 429.7 654.72 353.2 654.72 C227.89 654.72 150.65 590.93 150.65 502.43 C150.65 461.63 166.97 433.48 191.93 412.4 C147.95 384.26 121.78 343.52 121.78 296.25 C121.78 125.94 417.92 183.15 417.92 37.86 C417.92 -26.45 351.94 -76.98 257.55 -76.98 C164.59 -76.98 120.41 -49.98 87.12 -20.76 L61.58 -49.86 C96.99 -82.25 152.4 -112.25 252.38 -112.25 C378.38 -112.25 455.75 -45.57 455.75 44.06 C455.75 79.76 443.31 105.83 423.54 125.92 C462.78 156.03 483.32 198.63 483.32 246.48 C483.32 417.22 188.75 366.79 188.75 507.63 C188.75 571.52 253.41 619.48 348 619.48 L348 619.45 Z M445.35 239.62 C445.35 204.78 428.55 171.73 394.57 148.69 C307.93 202.66 159.88 203.97 159.88 302.57 C159.88 335.81 182.83 371.05 221.03 392.64 C308.21 343.92 445.36 338.2 445.36 239.63 L445.35 239.62 Z " />
<glyph glyph-name="dieresis" unicode="&#xa8;" horiz-adv-x="365" d="M193.89 606.48 C193.89 622.28 182.84 635.23 166.94 635.23 C147.69 635.23 129.78 618.19 129.78 598.46 C129.78 581.88 141.73 569.5 157.54 569.5 C176.79 569.5 193.9 586.03 193.9 606.48 L193.89 606.48 Z M386.58 606.48 C386.58 622.33 375.25 635.31 359.32 635.31 C340.41 635.31 322.41 618.27 322.41 598.54 C322.41 581.96 334.29 569.58 349.84 569.58 C369.1 569.58 386.58 586.05 386.58 606.48 L386.58 606.48 Z " />
<glyph glyph-name="copyright" unicode="&#xa9;" horiz-adv-x="736" d="M715.21 371.06 C715.21 526.76 615.07 642.37 458.4 642.37 C250.71 642.37 107.67 463.38 107.67 256.55 C107.67 97.42 208.52 -19.48 365.37 -19.48 C569.06 -19.48 715.2 159.21 715.2 371.05 L715.21 371.06 Z M681.6 361.55 C681.6 179.75 549.35 12.61 369.88 12.61 C226.86 12.61 141.26 119.2 141.26 262.5 C141.26 444.92 272.69 610.27 453.87 610.27 C597.68 610.27 681.59 505.63 681.59 361.56 L681.6 361.55 Z M556.92 474.41 C534.86 493.46 500.94 509.35 452.43 509.35 C340.25 509.35 246.08 424.16 246.08 280.12 C246.08 178.6 306.76 117.02 394.84 117.02 C448.39 117.02 489.03 135.84 521.28 160.72 L507.66 190.81 C480.41 169.24 447.24 151.89 400.03 151.89 C327.3 151.89 285.77 206.25 285.77 285.53 C285.77 392.71 351.04 474.62 448.85 474.62 C491.39 474.62 518.77 462.98 543.88 440.98 L556.92 474.41 Z " />
<glyph glyph-name="ordfeminine" unicode="&#xaa;" horiz-adv-x="391" d="M276.75 664.78 C232.81 664.78 198.54 653.39 174.87 641.66 L178.36 612.81 C212.15 628.35 238 633.85 269.97 633.85 C321.32 633.85 353 609.69 345.48 550.14 L342.05 523.11 L258.26 523.11 C177.44 523.11 127.63 484.75 127.63 419.62 C127.63 369.99 162.87 341.66 216.27 341.66 C264.92 341.66 301.76 368.28 324.9 398.1 C323.24 371.41 326.71 351.97 331.92 342.44 L364.96 351.01 C359.96 363.39 355.09 379.55 360.62 418.41 L374.34 514.71 L373.85 514.71 L378.77 549.76 C390.51 633.49 344.62 664.79 276.76 664.79 L276.75 664.78 Z M227.96 370.05 C185.59 370.05 162.59 390.69 162.59 424.65 C162.59 464.18 189.67 497.86 257.1 497.86 L338.28 497.86 L330.21 440.55 C317.19 406.31 279.15 370 227.95 370 L227.96 370.05 Z " />
<glyph glyph-name="guillemotleft" unicode="&#xab;" horiz-adv-x="421" d="M95.33 256.58 L194.81 111.35 L222.3 131.01 L139.75 254.45 L260.07 379.49 L235.73 401.82 L95.33 256.58 Z M227.43 256.59 L326.91 111.36 L354.4 131.02 L271.85 254.46 L392.17 379.5 L367.83 401.83 L227.43 256.59 Z " />
<glyph glyph-name="registered" unicode="&#xae;" horiz-adv-x="736" d="M458.39 642.37 C250.7 642.37 107.66 463.38 107.66 256.55 C107.66 97.42 208.51 -19.48 365.36 -19.48 C569.05 -19.48 715.19 159.21 715.19 371.05 C715.19 526.75 615.05 642.36 458.38 642.36 L458.39 642.37 Z M369.87 12.61 C226.85 12.61 141.25 119.2 141.25 262.5 C141.25 444.92 272.68 610.27 453.86 610.27 C597.67 610.27 681.58 505.63 681.58 361.56 C681.58 179.76 549.33 12.62 369.86 12.62 L369.87 12.61 Z M563.32 414.88 C563.32 477.63 523.71 513.88 447.06 513.88 L338 513.88 L283.57 126.9 L317.21 126.9 L339.74 287.28 L411.69 287.28 L413.76 287.28 L456.36 173.58 C470.89 135.14 492.44 126.05 527.92 126.05 L532.43 157.45 C511.56 157.45 496.79 166.88 487.67 192.21 L451.49 290.74 C520.13 303.32 563.29 349.28 563.29 414.89 L563.32 414.88 Z M416.55 317.52 L343.96 317.69 L367.32 483.59 L443.43 483.59 C500.26 483.59 527.73 456.84 527.73 410.46 C527.73 359.25 493.26 317.31 416.54 317.51 L416.55 317.52 Z " />
<glyph glyph-name="macron" unicode="&#xaf;" horiz-adv-x="347" d="M126.4 573.47 L364.23 573.47 L368.74 604.64 L130.91 604.64 L126.4 573.47 Z " />
<glyph glyph-name="degree" unicode="&#xb0;" horiz-adv-x="343" d="M236.11 451.3 C303.88 451.3 359.25 507.89 359.25 577.29 C359.25 632.46 319.72 676.14 266.19 676.14 C200.97 676.14 142.05 622.31 142.05 550.06 C142.05 495.45 181.19 451.32 236.11 451.32 L236.11 451.3 Z M239.42 479.1 C198.67 479.1 170.85 513.21 170.85 553.67 C170.85 605.85 213.7 648.37 262.77 648.37 C304.64 648.37 330.82 615.8 330.82 574.76 C330.82 524.72 291.15 479.1 239.42 479.1 L239.42 479.1 Z " />
<glyph glyph-name="plusminus" unicode="&#xb1;" horiz-adv-x="536" d="M329.27 313.68 L352.49 478.91 L317.72 478.91 L294.51 313.68 L127.66 313.68 L122.86 280.95 L289.91 280.95 L266.5 114.3 L301.25 114.3 L324.67 280.95 L491.5 280.95 L496.22 313.68 L329.27 313.68 Z M84.19 6.34999 L453.04 6.34999 L457.81 39.08 L88.89 39.08 L84.19 6.34999 Z " />
<glyph glyph-name="acute" unicode="&#xb4;" horiz-adv-x="247" d="M129.47 530.75 L292.03 646.23 L268.91 679.34 L113.86 553.73 L129.47 530.75 Z " />
<glyph glyph-name="paragraph" unicode="&#xb6;" horiz-adv-x="561" d="M450 642 L347.08 642 C205.46 642 111.2 539.98 111.2 412.77 C111.2 306.69 182.58 237.01 288.96 237.01 L358.83 237.01 L328.33 20.01 L362.61 20.01 L450 642 Z M513.4 642.01 L429.2 42.84 C418.76 -31.69 387 -70.86 313.02 -70.86 L308.08 -105.03 C406.04 -105.03 450.16 -52.23 463.56 42.84 L547.69 642.01 L513.4 642.01 Z " />
<glyph glyph-name="periodcentered" unicode="&#xb7;" horiz-adv-x="238" d="M159.9 292.5 C180.98 292.5 201.07 310.78 201.07 333.18 C201.07 350.86 187.87 364.79 170.23 364.79 C149.19 364.79 129.19 346.66 129.19 324.55 C129.19 306.37 142.26 292.51 159.88 292.51 L159.9 292.5 Z " />
<glyph glyph-name="cedilla" unicode="&#xb8;" horiz-adv-x="251" d="M106.03 3.12 L72.25 -62.38 C121.79 -65 146.85 -80.29 146.85 -110.01 C146.85 -145.39 118.27 -160.37 79.95 -160.37 C57.81 -160.37 41.59 -152.45 32.87 -146.94 L17.69 -173.72 C25.28 -179.57 49.47 -189.26 78.66 -189.26 C131.28 -189.26 181.58 -167.21 181.58 -106.98 C181.58 -66.73 151.36 -45.97 112.72 -40.3 L135.12 3.10999 L106.03 3.12 Z " />
<glyph glyph-name="ordmasculine" unicode="&#xba;" horiz-adv-x="415" d="M255.42 342.14 C346.74 342.14 422.04 420.23 422.04 528.89 C422.04 609.69 376.44 664.63 301.93 664.63 C209.78 664.63 135.04 586.65 135.04 476.94 C135.04 395.71 181.07 342.13 255.42 342.13 L255.42 342.14 Z M260.53 373.02 C200.72 373.02 168.46 417.76 168.46 480.76 C168.46 564.5 219.59 633.72 297.01 633.72 C356.82 633.72 388.5 587.49 388.5 525.07 C388.5 439.59 338.35 373.01 260.54 373.01 L260.53 373.02 Z " />
<glyph glyph-name="guillemotright" unicode="&#xbb;" horiz-adv-x="422" d="M265.4 256.58 L165.85 401.81 L137.71 381.75 L220.5 259.32 L100.43 133.97 L124.94 111.33 L265.4 256.58 Z M397.51 256.56 L297.96 401.79 L269.82 381.73 L352.61 259.3 L232.54 133.95 L257.05 111.31 L397.51 256.56 Z " />
<glyph glyph-name="onequarter" unicode="&#xbc;" horiz-adv-x="693" d="M629.07 642 L124.43 0 L162.58 0 L667.25 642 L629.07 642 Z M224.58 602.43 L176.98 263.29 L211.88 263.29 L265.07 641.65 L236.07 641.65 L126.86 582.28 L137.14 555.3 L224.58 602.43 Z M642.45 378.44 L609.47 378.44 L384.91 119.87 L380.22 87.12 L568.47 87.12 L556.22 0.0800018 L589.22 0.0800018 L601.46 87.12 L648.14 87.12 L652.77 119.25 L605.98 119.25 L642.45 378.44 Z M423.23 119.25 L601.65 322.96 L572.98 119.25 L423.23 119.25 Z " />
<glyph glyph-name="onehalf" unicode="&#xbd;" horiz-adv-x="735" d="M622.97 642 L118.33 0 L156.48 0 L661.12 642 L622.97 642 Z M224.35 602.47 L176.72 263.28 L211.59 263.28 L264.83 641.64 L235.8 641.64 L126.59 582.27 L136.84 555.29 L224.35 602.47 Z M495.68 30.11 L505.74 37.52 C630.34 152.35 699.43 208.07 699.43 291.11 C699.43 342.71 660.35 380.56 603.07 380.56 C556.06 380.56 515.01 354.57 491.24 330.14 L508.96 307.5 C529.56 327.94 559.67 348.37 598.33 348.37 C643.41 348.37 664.86 321.52 664.86 285.86 C664.86 225.16 630.67 193.59 449.32 27.05 L445.42 0.0500183 L679.11 0.0500183 L683.75 31.95 L511.87 31.95 L495.68 30.11 Z " />
<glyph glyph-name="threequarters" unicode="&#xbe;" horiz-adv-x="750" d="M352.67 393.72 C352.67 439.09 325.27 469.54 286.57 478.49 C326.6 488.78 359.07 523.23 359.07 574.21 C359.07 621.56 318.74 657.93 259.97 657.93 C212.06 657.93 174.44 637.51 149.04 611.95 L168.39 591.06 C191.86 610.96 219.46 627.79 253.83 627.79 C299.8 627.79 325.72 601.16 325.72 567.38 C325.72 502.17 260.7 490.2 223.59 490.2 L203.33 490.2 L199.49 463.52 L224.44 463.69 C284.84 463.35 320.76 443.14 320.76 392.85 C320.76 326.77 264.76 296.05 213.56 296.05 C164.89 296.05 142.27 311.85 123.14 332.31 L100.6 308.78 C115.76 291.24 152.34 266.95 209.38 266.95 C282.01 266.95 352.66 306.14 352.66 393.79 L352.67 393.72 Z M681.64 642.07 L177 0.0699921 L215.08 0.0699921 L719.72 642.07 L681.64 642.07 Z M702.63 378.43 L669.63 378.43 L445.1 119.86 L440.39 87.11 L628.66 87.11 L616.42 0.0699921 L649.4 0.0699921 L661.65 87.11 L708.32 87.11 L712.95 119.24 L666.17 119.24 L702.63 378.43 Z M483.41 119.24 L661.84 322.99 L633.18 119.24 L483.41 119.24 Z " />
<glyph glyph-name="questiondown" unicode="&#xbf;" horiz-adv-x="433" d="M352.45 457.18 C352.45 475.59 338.99 490.23 320.64 490.23 C298.86 490.23 278.22 471.08 278.22 448.15 C278.22 429.43 291.81 414.84 309.97 414.84 C331.79 414.84 352.45 434.11 352.45 457.19 L352.45 457.18 Z M375.74 -98.37 L355.74 -71.45 C322.13 -105.14 276.32 -130.68 222.32 -130.68 C141.42 -130.68 92.5 -74.2 92.5 5.68002 C92.5 114.64 177.06 191.59 288.87 191.59 L295.92 191.59 L315.44 329.79 L278.67 329.79 L263.98 224.34 C135.7 210.5 55.03 119.04 55.03 2.29002 C55.03 -99.13 123.77 -166.13 217.85 -166.13 C277.3 -166.16 333.56 -141.98 375.73 -98.35 L375.74 -98.37 Z " />
<glyph glyph-name="Agrave" unicode="&#xc0;" horiz-adv-x="581" d="M466.66 705.93 L314.14 789.38 L293.39 753 L454.72 682.68 L466.66 705.93 Z M502.28 -0.010025 L543.29 -0.010025 L396.68 641.99 L360.18 641.99 L42.32 -0.010025 L84.05 -0.010025 L184.22 204.22 L457.12 204.22 L502.28 -0.010025 Z M200.63 237.67 L359.17 560.89 L372.61 589.14 L378.28 560.77 L449.72 237.66 L200.63 237.67 Z " />
<glyph glyph-name="Aacute" unicode="&#xc1;" horiz-adv-x="581" d="M492 752.66 L480.92 792.37 L305.59 709.72 L312.69 682.69 L492 752.66 Z M502.27 1.52588e-05 L543.28 1.52588e-05 L396.67 642 L360.17 642 L42.31 1.52588e-05 L84.04 1.52588e-05 L184.21 204.23 L457.11 204.23 L502.27 1.52588e-05 Z M200.62 237.68 L359.16 560.9 L372.6 589.15 L378.27 560.78 L449.71 237.67 L200.62 237.68 Z " />
<glyph glyph-name="Acircumflex" unicode="&#xc2;" horiz-adv-x="581" d="M397.24 761.95 L486.32 679.24 L504.17 698.88 L413.16 792.86 L386.4 792.86 L269.05 699.08 L285.33 678.96 L397.24 761.95 Z M502.29 -1.52588e-05 L543.3 -1.52588e-05 L396.69 642 L360.19 642 L42.33 -1.52588e-05 L84.06 -1.52588e-05 L184.23 204.23 L457.13 204.23 L502.29 -1.52588e-05 Z M200.64 237.68 L359.18 560.9 L372.62 589.15 L378.29 560.78 L449.73 237.67 L200.64 237.68 Z " />
<glyph glyph-name="Atilde" unicode="&#xc3;" horiz-adv-x="581" d="M331.54 749.8 C370.37 749.8 400.88 705.77 450.63 705.77 C489.18 705.77 518.25 725.03 537.02 759.38 L510.35 770.83 C497.55 750.25 480.02 737.66 452.42 737.66 C412.86 737.66 380.8 781.98 332.84 781.98 C295.77 781.98 264.27 761.22 244.13 724.94 L272.57 713.95 C288.61 736.37 305.12 749.82 331.53 749.82 L331.54 749.8 Z M502.28 0.0200043 L543.29 0.0200043 L396.68 642.02 L360.18 642.02 L42.32 0.0200043 L84.05 0.0200043 L184.22 204.25 L457.12 204.25 L502.28 0.0200043 Z M200.63 237.7 L359.17 560.92 L372.61 589.17 L378.28 560.8 L449.72 237.69 L200.63 237.7 Z " />
<glyph glyph-name="Adieresis" unicode="&#xc4;" horiz-adv-x="581" d="M301.52 716.23 C321.08 716.23 338.3 732.53 338.3 752.76 C338.3 768.41 327.25 781.25 310.84 781.25 C290.38 781.25 274.01 764.38 274.01 744.88 C274.01 728.5 285.9 716.24 301.51 716.24 L301.52 716.23 Z M476.33 716.24 C495.89 716.24 513.11 732.54 513.11 752.77 C513.11 768.42 502.06 781.26 485.58 781.26 C465.19 781.26 448.82 764.39 448.82 744.89 C448.82 728.51 460.64 716.25 476.32 716.25 L476.33 716.24 Z M502.26 0.019989 L543.27 0.019989 L396.66 642.02 L360.16 642.02 L42.3 0.019989 L84.03 0.019989 L184.2 204.25 L457.1 204.25 L502.26 0.019989 Z M200.61 237.7 L359.15 560.92 L372.59 589.17 L378.26 560.8 L449.7 237.69 L200.61 237.7 Z " />
<glyph glyph-name="Aring" unicode="&#xc5;" horiz-adv-x="581" d="M381.22 653.71 C434.42 653.71 475.56 696.51 475.56 752.92 C475.56 795.71 446.59 829.94 405.59 829.94 C351.03 829.94 310.55 785.89 310.55 730.68 C310.55 687.96 339.09 653.7 381.21 653.7 L381.22 653.71 Z M401.36 802.23 C430.72 802.23 446.86 778.84 446.86 750.67 C446.86 715.27 422.66 681.69 384.79 681.69 C356.12 681.69 339.11 705.81 339.11 733.76 C339.11 768.14 364.28 802.24 401.36 802.24 L401.36 802.23 Z M502.27 0 L543.28 0 L396.67 642 L360.17 642 L42.31 0 L84.04 0 L184.21 204.23 L457.11 204.23 L502.27 0 Z M200.62 237.68 L359.16 560.9 L372.6 589.15 L378.27 560.78 L449.71 237.67 L200.62 237.68 Z " />
<glyph glyph-name="AE" unicode="&#xc6;" horiz-adv-x="824" d="M837.17 607.42 L842.24 642 L479.53 642 L5.99001 0 L49.86 0 L200.38 204.23 L436.35 204.23 L407.62 0 L764.29 0 L769.33 34.58 L449.59 34.58 L489.17 316.65 L767.73 316.65 L772.7 351.23 L494.03 351.23 L529.98 607.41 L837.17 607.42 Z M225.03 237.67 L492 599.89 L441.05 237.67 L225.03 237.67 Z " />
<glyph glyph-name="Ccedilla" unicode="&#xc7;" horiz-adv-x="581" d="M439.54 619.13 C505.89 619.13 547.23 599.58 585.96 564.46 L610.87 593.57 C573.75 629.22 523.16 654.72 444.66 654.72 C257.39 654.72 109.32 496.49 109.32 266.86 C109.32 115.14 186.56 3.25 326.83 -8.53999 L299.06 -62.38 C348.6 -65 373.66 -80.29 373.66 -110.01 C373.66 -145.39 345.08 -160.37 306.76 -160.37 C284.62 -160.37 268.4 -152.45 259.68 -146.94 L244.51 -173.72 C252.1 -179.57 276.29 -189.26 305.48 -189.26 C358.1 -189.26 408.4 -167.21 408.4 -106.98 C408.4 -66.73 378.18 -45.97 339.54 -40.3 L355.4 -9.55 C439.43 -8.67 498.63 23.21 543.43 58.86 L527.63 89.72 C484.64 55.46 430.09 26 355.98 26 C225.8 26 148.58 126.3 148.58 271.05 C148.58 474.18 279.86 619.11 439.53 619.11 L439.54 619.13 Z " />
<glyph glyph-name="Egrave" unicode="&#xc8;" horiz-adv-x="525" d="M468.49 705.93 L315.98 789.38 L295.23 753 L456.56 682.68 L468.49 705.93 Z M538.32 607.41 L543.39 641.99 L199.07 641.99 L108.77 -0.010025 L465.44 -0.010025 L470.48 34.57 L150.74 34.57 L190.32 316.64 L468.88 316.64 L473.85 351.22 L195.18 351.22 L231.13 607.4 L538.32 607.41 Z " />
<glyph glyph-name="Eacute" unicode="&#xc9;" horiz-adv-x="525" d="M493.84 752.66 L482.76 792.37 L307.43 709.72 L314.54 682.69 L493.84 752.66 Z M538.32 607.42 L543.39 642 L199.07 642 L108.77 1.52588e-05 L465.44 1.52588e-05 L470.48 34.58 L150.74 34.58 L190.32 316.65 L468.88 316.65 L473.85 351.23 L195.18 351.23 L231.13 607.41 L538.32 607.42 Z " />
<glyph glyph-name="Ecircumflex" unicode="&#xca;" horiz-adv-x="525" d="M399.07 761.95 L488.15 679.24 L506 698.88 L414.99 792.86 L388.23 792.86 L270.88 699.08 L287.16 678.96 L399.07 761.95 Z M538.32 607.42 L543.39 642 L199.07 642 L108.77 0 L465.44 0 L470.48 34.58 L150.74 34.58 L190.32 316.65 L468.88 316.65 L473.85 351.23 L195.18 351.23 L231.13 607.41 L538.32 607.42 Z " />
<glyph glyph-name="Edieresis" unicode="&#xcb;" horiz-adv-x="525" d="M303.36 716.23 C322.92 716.23 340.14 732.53 340.14 752.76 C340.14 768.41 329.09 781.25 312.68 781.25 C292.22 781.25 275.85 764.38 275.85 744.88 C275.85 728.5 287.74 716.24 303.35 716.24 L303.36 716.23 Z M478.17 716.24 C497.73 716.24 514.95 732.54 514.95 752.77 C514.95 768.42 503.9 781.26 487.42 781.26 C467.03 781.26 450.66 764.39 450.66 744.89 C450.66 728.51 462.48 716.25 478.16 716.25 L478.17 716.24 Z M538.3 607.43 L543.37 642.01 L199.05 642.01 L108.75 0.00997925 L465.42 0.00997925 L470.46 34.59 L150.72 34.59 L190.3 316.66 L468.86 316.66 L473.83 351.24 L195.16 351.24 L231.11 607.42 L538.3 607.43 Z " />
<glyph glyph-name="Igrave" unicode="&#xcc;" horiz-adv-x="296" d="M322.92 705.93 L170.38 789.38 L149.6 753 L310.93 682.68 L322.92 705.93 Z M318.8 608.55 L323.77 642 L151.87 642 L146.97 608.55 L214.41 608.55 L133.54 33.45 L66.45 33.45 L61.58 -3.05176e-05 L233.48 -3.05176e-05 L238.35 33.45 L170.76 33.45 L251.65 608.55 L318.8 608.55 Z " />
<glyph glyph-name="Iacute" unicode="&#xcd;" horiz-adv-x="295" d="M354.71 752.66 L343.63 792.37 L168.3 709.72 L175.41 682.69 L354.71 752.66 Z M323.78 642.01 L151.88 642.01 L146.98 608.56 L214.42 608.56 L133.55 33.46 L66.46 33.46 L61.59 0.010025 L233.49 0.010025 L238.36 33.46 L170.77 33.46 L251.66 608.56 L318.79 608.56 L323.78 642.01 Z " />
<glyph glyph-name="Icircumflex" unicode="&#xce;" horiz-adv-x="296" d="M270.96 792.86 L245.63 792.86 L139.24 698.86 L154.73 679.32 L255.75 761.95 L333.87 679.24 L350.93 698.46 L270.96 792.86 Z M323.76 642.01 L151.86 642.01 L146.96 608.56 L214.4 608.56 L133.53 33.46 L66.44 33.46 L61.57 0.0100098 L233.47 0.0100098 L238.34 33.46 L170.75 33.46 L251.64 608.56 L318.77 608.56 L323.76 642.01 Z " />
<glyph glyph-name="Idieresis" unicode="&#xcf;" horiz-adv-x="297" d="M184.23 716.23 C203.76 716.23 220.98 732.53 220.98 752.76 C220.98 768.41 210.1 781.25 193.19 781.25 C173.45 781.25 156.73 764.38 156.73 744.88 C156.73 728.5 168.52 716.24 184.23 716.24 L184.23 716.23 Z M327.95 781.26 C308.31 781.26 291.23 764.39 291.23 744.89 C291.23 728.51 303.02 716.25 318.73 716.25 C338.26 716.25 355.48 732.55 355.48 752.78 C355.48 768.43 344.46 781.27 327.95 781.27 L327.95 781.26 Z M324.41 642.02 L152.51 642.02 L147.69 608.57 L215.07 608.57 L134.27 33.47 L67.19 33.47 L62.32 0.019989 L234.22 0.019989 L239.09 33.47 L171.5 33.47 L252.33 608.57 L319.53 608.57 L324.41 642.02 Z " />
<glyph glyph-name="Eth" unicode="&#xd0;" horiz-adv-x="644" d="M362.46 642 L198.68 642 L156.26 340.17 L87.44 340.17 L82.92 308.7 L151.84 308.7 L108.45 0 L274.81 0 C488.62 0 623.39 157.73 623.39 375.1 C623.39 533.73 529.98 642.01 362.46 642.01 L362.46 642 Z M280.9 34.31 L150.5 34.31 L189.08 308.71 L303.68 308.71 L308.23 340.18 L193.5 340.18 L231.03 607.14 L357.6 607.14 C507.39 607.14 583.74 512.15 583.74 370.89 C583.74 174.41 459.25 34.3 280.9 34.3 L280.9 34.31 Z " />
<glyph glyph-name="Ntilde" unicode="&#xd1;" horiz-adv-x="659" d="M381.07 749.8 C419.9 749.8 450.41 705.77 500.16 705.77 C538.71 705.77 567.78 725.03 586.55 759.38 L559.88 770.83 C547.08 750.25 529.55 737.66 501.95 737.66 C462.39 737.66 430.33 781.98 382.37 781.98 C345.3 781.98 313.8 761.22 293.66 724.94 L322.1 713.95 C338.14 736.37 354.64 749.82 381.05 749.82 L381.07 749.8 Z M602.82 642.02 L524.8 84.19 L522.4 62.29 L515.43 78.22 L235.62 642.02 L199.41 642.02 L109.18 0.0200043 L145.44 0.0200043 L223.37 557.15 L226.45 582.96 L235.32 561.14 L513.13 0.00999451 L548.89 0.00999451 L639.09 642.01 L602.82 642.02 Z " />
<glyph glyph-name="Ograve" unicode="&#xd2;" horiz-adv-x="700" d="M516.08 682.69 L528.02 705.93 L375.5 789.38 L354.75 753 L516.08 682.69 Z M441 654.71 C245.21 654.71 108.15 472.25 108.15 264.03 C108.15 106.48 195.21 -9.58 347.6 -9.58 C546.99 -9.58 681.34 174.42 681.34 382.97 C681.34 542.98 593.42 654.7 441 654.7 L441 654.71 Z M435.98 619.37 C569.79 619.37 642.61 525.26 642.61 381.69 C642.61 194.21 528.89 28.14 352.63 25.78 C219.73 23.99 146.89 123.03 146.89 264.34 C146.89 452.05 262.39 619.37 435.98 619.37 L435.98 619.37 Z " />
<glyph glyph-name="Oacute" unicode="&#xd3;" horiz-adv-x="700" d="M374.06 682.69 L553.37 752.67 L542.29 792.38 L366.96 709.73 L374.06 682.69 Z M441 654.73 C245.21 654.73 108.15 472.27 108.15 264.05 C108.15 106.5 195.21 -9.56 347.6 -9.56 C546.99 -9.56 681.34 174.44 681.34 382.99 C681.34 543 593.42 654.72 441 654.72 L441 654.73 Z M435.98 619.39 C569.79 619.39 642.61 525.28 642.61 381.71 C642.61 194.23 528.89 28.16 352.63 25.8 C219.73 24.01 146.89 123.05 146.89 264.36 C146.89 452.07 262.39 619.39 435.98 619.39 L435.98 619.39 Z " />
<glyph glyph-name="Ocircumflex" unicode="&#xd4;" horiz-adv-x="700" d="M474.52 792.86 L447.76 792.86 L330.41 699.08 L346.69 678.96 L458.6 761.95 L547.68 679.24 L565.53 698.88 L474.52 792.86 Z M441 654.72 C245.21 654.72 108.15 472.26 108.15 264.04 C108.15 106.49 195.21 -9.57001 347.6 -9.57001 C546.99 -9.57001 681.34 174.43 681.34 382.98 C681.34 542.99 593.42 654.71 441 654.71 L441 654.72 Z M435.98 619.38 C569.79 619.38 642.61 525.27 642.61 381.7 C642.61 194.22 528.89 28.15 352.63 25.79 C219.73 24 146.89 123.04 146.89 264.35 C146.89 452.06 262.39 619.38 435.98 619.38 L435.98 619.38 Z " />
<glyph glyph-name="Otilde" unicode="&#xd5;" horiz-adv-x="700" d="M571.71 770.83 C558.91 750.25 541.38 737.66 513.78 737.66 C474.22 737.66 442.16 781.98 394.2 781.98 C357.13 781.98 325.63 761.22 305.49 724.94 L333.93 713.95 C349.97 736.37 366.48 749.82 392.89 749.82 C431.72 749.82 462.23 705.79 511.98 705.79 C550.53 705.79 579.6 725.05 598.37 759.4 L571.71 770.83 Z M440.99 654.74 C245.2 654.74 108.14 472.28 108.14 264.06 C108.14 106.51 195.2 -9.55 347.59 -9.55 C546.98 -9.55 681.33 174.45 681.33 383 C681.33 543.01 593.41 654.73 440.99 654.73 L440.99 654.74 Z M435.97 619.4 C569.78 619.4 642.6 525.29 642.6 381.72 C642.6 194.24 528.88 28.17 352.62 25.81 C219.72 24.02 146.88 123.06 146.88 264.37 C146.88 452.08 262.38 619.4 435.97 619.4 L435.97 619.4 Z " />
<glyph glyph-name="Odieresis" unicode="&#xd6;" horiz-adv-x="700" d="M399.67 752.76 C399.67 768.41 388.62 781.25 372.21 781.25 C351.75 781.25 335.38 764.38 335.38 744.88 C335.38 728.5 347.27 716.24 362.88 716.24 C382.44 716.24 399.66 732.54 399.66 752.77 L399.67 752.76 Z M574.48 752.77 C574.48 768.42 563.43 781.26 546.95 781.26 C526.56 781.26 510.19 764.39 510.19 744.89 C510.19 728.51 522.01 716.25 537.69 716.25 C557.25 716.25 574.47 732.55 574.47 752.78 L574.48 752.77 Z M440.98 654.74 C245.19 654.74 108.13 472.28 108.13 264.06 C108.13 106.51 195.19 -9.55002 347.58 -9.55002 C546.97 -9.55002 681.32 174.45 681.32 383 C681.32 543.01 593.4 654.73 440.98 654.73 L440.98 654.74 Z M435.96 619.4 C569.77 619.4 642.59 525.29 642.59 381.72 C642.59 194.24 528.87 28.17 352.61 25.81 C219.71 24.02 146.87 123.06 146.87 264.37 C146.87 452.08 262.37 619.4 435.96 619.4 L435.96 619.4 Z " />
<glyph glyph-name="multiply" unicode="&#xd7;" horiz-adv-x="474" d="M446.01 382.72 L424.6 407.74 L275.3 272.1 L164.74 407.1 L138.28 383.83 L249.2 248.39 L98.62 111.58 L119.95 86.49 L270.08 222.89 L380.7 87.8 L407.13 111.14 L296.18 246.6 L446.01 382.72 Z " />
<glyph glyph-name="Oslash" unicode="&#xd8;" horiz-adv-x="707" d="M733.9 631.41 L710.93 655.81 L625.43 570.93 C584.53 623.47 523.34 654.73 445.28 654.73 C252.48 654.73 113.04 483.5 113.04 270.33 C113.04 206.61 127.15 148.93 153.83 102.72 L64.75 14.28 L87.24 -11.54 L173.24 73.96 C214.07 21.98 274.65 -9.57002 351.83 -9.57002 C543.76 -9.57002 684.15 165.78 684.15 376.06 C684.15 440.02 670.41 496.98 644.45 542.47 L733.9 631.41 Z M151.76 271.22 C151.76 468.92 267.88 619.42 440.02 619.42 C510.35 619.42 563.6 591.51 598.23 543.91 L181.9 130.57 C162.06 169.53 151.77 217.49 151.77 271.22 L151.76 271.22 Z M645.4 374.18 C645.4 177.85 528.17 25.79 357.03 25.79 C287.99 25.79 235.06 53.7 200.25 100.79 L616.16 514.31 C635.48 475.64 645.41 427.97 645.41 374.18 L645.4 374.18 Z " />
<glyph glyph-name="Ugrave" unicode="&#xd9;" horiz-adv-x="645" d="M493.43 682.69 L505.37 705.93 L352.86 789.38 L332.11 753 L493.43 682.69 Z M321.29 -9.57001 C458.13 -9.57001 556.07 89.45 578.82 251.7 L633.54 642 L596.54 642 L541.82 251.7 C523.6 121.95 444.77 26.86 326.6 26.86 C205.97 26.86 156.7 121.41 174.92 251.69 L229.64 641.99 L191.79 641.99 L137.07 251.69 C114.6 91.95 186.71 -9.58 321.28 -9.58 L321.29 -9.57001 Z " />
<glyph glyph-name="Uacute" unicode="&#xda;" horiz-adv-x="645" d="M351.41 682.69 L530.72 752.67 L519.64 792.38 L344.31 709.73 L351.41 682.69 Z M321.28 -9.55998 C458.12 -9.55998 556.06 89.46 578.81 251.71 L633.53 642.01 L596.53 642.01 L541.81 251.71 C523.59 121.96 444.76 26.87 326.59 26.87 C205.96 26.87 156.69 121.42 174.91 251.7 L229.63 642 L191.78 642 L137.06 251.7 C114.59 91.96 186.7 -9.56998 321.27 -9.56998 L321.28 -9.55998 Z " />
<glyph glyph-name="Ucircumflex" unicode="&#xdb;" horiz-adv-x="645" d="M451.86 792.86 L425.1 792.86 L307.75 699.08 L324.03 678.96 L435.94 761.95 L525.02 679.24 L542.87 698.88 L451.86 792.86 Z M321.27 -9.56999 C458.11 -9.56999 556.05 89.45 578.8 251.7 L633.52 642 L596.52 642 L541.8 251.7 C523.58 121.95 444.75 26.86 326.58 26.86 C205.95 26.86 156.68 121.41 174.9 251.69 L229.62 641.99 L191.77 641.99 L137.05 251.69 C114.58 91.95 186.69 -9.57999 321.26 -9.57999 L321.27 -9.56999 Z " />
<glyph glyph-name="Udieresis" unicode="&#xdc;" horiz-adv-x="645" d="M377.01 752.76 C377.01 768.41 365.96 781.25 349.55 781.25 C329.09 781.25 312.72 764.38 312.72 744.88 C312.72 728.5 324.61 716.24 340.22 716.24 C359.78 716.24 377 732.54 377 752.77 L377.01 752.76 Z M551.82 752.77 C551.82 768.42 540.77 781.26 524.29 781.26 C503.9 781.26 487.53 764.39 487.53 744.89 C487.53 728.51 499.35 716.25 515.03 716.25 C534.59 716.25 551.81 732.55 551.81 752.78 L551.82 752.77 Z M321.24 -9.55002 C458.08 -9.55002 556.02 89.47 578.77 251.72 L633.49 642.02 L596.49 642.02 L541.77 251.72 C523.55 121.97 444.72 26.88 326.55 26.88 C205.92 26.88 156.65 121.43 174.87 251.71 L229.59 642.01 L191.74 642.01 L137.02 251.71 C114.55 91.97 186.66 -9.56001 321.23 -9.56001 L321.24 -9.55002 Z " />
<glyph glyph-name="Yacute" unicode="&#xdd;" horiz-adv-x="566" d="M487.25 752.66 L476.17 792.37 L300.84 709.72 L307.94 682.69 L487.25 752.66 Z M608.89 642.01 L564.09 642.01 L333.39 316.96 L326.83 307.12 L323.13 316.58 L174.69 642.01 L131.48 642.01 L302.83 268.58 L265.05 0.010025 L302.28 0.010025 L340.02 268.11 L608.89 642.01 Z " />
<glyph glyph-name="Thorn" unicode="&#xde;" horiz-adv-x="540" d="M330.58 529.72 L221.16 529.72 L237.13 643.44 L199.9 643.44 L109.48 0.0100098 L146.73 0.0100098 L164.95 129.74 L277.58 129.74 C442.16 129.74 534.02 216.23 534.02 360.57 C534.02 462.25 464.18 529.72 330.55 529.72 L330.58 529.72 Z M282.24 163.47 L169.68 163.47 L216.31 495.42 L325.59 495.42 C445.02 495.42 494.28 437.97 494.28 354.7 C494.28 237.89 421.05 163.47 282.25 163.47 L282.24 163.47 Z " />
<glyph glyph-name="germandbls" unicode="&#xdf;" horiz-adv-x="560" d="M383.08 663.56 C264.89 663.56 177.2 596.71 159.91 473.59 L93.19 0.00999451 L129.91 0.00999451 L196.63 473.59 C210.12 569.36 277.45 628.84 378.01 628.84 C458.67 628.84 505.23 595.25 505.23 543.29 C505.23 430.23 303.88 471.5 303.88 329.68 C303.88 204.92 490.66 237.24 490.66 122 C490.66 67.6 445.27 25.35 370.32 25.35 C327.36 25.35 289.46 41.78 265.6 73.5 L239.6 46.6 C262.21 14.94 310.36 -8.09999 366.54 -8.09999 C465.36 -8.09999 527.86 48.09 527.86 127.65 C527.86 262.56 342.17 239.92 341.45 333.03 C340.66 436.14 542.14 402.49 542.14 545.82 C542.14 616.53 479.51 663.58 383.1 663.58 L383.08 663.56 Z " />
<glyph glyph-name="agrave" unicode="&#xe0;" horiz-adv-x="543" d="M435.23 551.02 L315.56 678.05 L286.2 646.23 L416.66 530.46 L435.23 551.02 Z M463.34 104.09 L509.77 431.69 C463.65 466.12 414.26 480.84 353.4 480.84 C199.19 480.84 93.78 364.54 93.78 184.9 C93.78 65.47 152.12 -9.58 254.14 -9.58 C319.18 -9.58 382.58 21.94 423.26 77.33 C419.6 37 425 7.42999 430.94 -7.8 L468.23 1.53999 C462.56 19.73 454.98 44.76 463.35 104.09 L463.34 104.09 Z M264.68 25.72 C180.36 26.03 132.38 87.05 132.38 189.96 C132.38 349.59 223.57 446.39 347.05 446.39 C401.62 446.39 436.85 433.49 469.79 411.21 L429.31 124.83 C390.71 64.57 332.88 25.46 264.68 25.73 L264.68 25.72 Z " />
<glyph glyph-name="aacute" unicode="&#xe1;" horiz-adv-x="543" d="M456.9 646.23 L433.78 679.34 L278.73 553.73 L294.35 530.75 L456.9 646.23 Z M463.35 104.1 L509.78 431.7 C463.66 466.13 414.27 480.85 353.41 480.85 C199.2 480.85 93.79 364.55 93.79 184.91 C93.79 65.48 152.13 -9.56999 254.15 -9.56999 C319.19 -9.56999 382.59 21.95 423.27 77.34 C419.61 37.01 425.01 7.44 430.95 -7.78999 L468.24 1.55 C462.57 19.74 454.99 44.77 463.36 104.1 L463.35 104.1 Z M264.69 25.73 C180.37 26.04 132.39 87.06 132.39 189.97 C132.39 349.6 223.58 446.4 347.06 446.4 C401.63 446.4 436.86 433.5 469.8 411.22 L429.32 124.84 C390.72 64.58 332.89 25.47 264.69 25.74 L264.69 25.73 Z " />
<glyph glyph-name="acircumflex" unicode="&#xe2;" horiz-adv-x="543" d="M375.14 637.04 L460.83 533.63 L483.7 553.67 L393.05 671.04 L364.54 671.04 L240.82 556.53 L260.48 535.78 L375.14 637.04 Z M463.34 104.1 L509.77 431.7 C463.65 466.13 414.26 480.85 353.4 480.85 C199.19 480.85 93.78 364.55 93.78 184.91 C93.78 65.48 152.12 -9.57001 254.14 -9.57001 C319.18 -9.57001 382.58 21.95 423.26 77.34 C419.6 37.01 425 7.43999 430.94 -7.79001 L468.23 1.54999 C462.56 19.74 454.98 44.77 463.35 104.1 L463.34 104.1 Z M264.68 25.73 C180.36 26.04 132.38 87.06 132.38 189.97 C132.38 349.6 223.57 446.4 347.05 446.4 C401.62 446.4 436.85 433.5 469.79 411.22 L429.31 124.84 C390.71 64.58 332.88 25.47 264.68 25.74 L264.68 25.73 Z " />
<glyph glyph-name="atilde" unicode="&#xe3;" horiz-adv-x="543" d="M314.98 609.22 C350.59 609.22 375.51 567.34 423.26 567.34 C463.89 567.34 493.53 589.76 511.59 629.2 L483.27 640.14 C471.62 615.54 453.52 599.94 424.49 599.94 C386.87 599.94 363.19 642.11 316.74 642.11 C279.67 642.11 247.02 619.41 227.88 579.97 L257.25 568.69 C270.64 593.26 289.51 609.22 314.99 609.22 L314.98 609.22 Z M509.78 431.7 C463.66 466.13 414.27 480.85 353.41 480.85 C199.2 480.85 93.79 364.55 93.79 184.91 C93.79 65.48 152.13 -9.57001 254.15 -9.57001 C319.19 -9.57001 382.59 21.95 423.27 77.34 C419.61 37.01 425.01 7.43999 430.95 -7.79001 L468.24 1.54999 C462.57 19.74 454.99 44.77 463.36 104.1 L509.78 431.7 Z M429.33 124.84 C390.73 64.58 332.9 25.47 264.7 25.74 C180.38 26.05 132.4 87.07 132.4 189.98 C132.4 349.61 223.59 446.41 347.07 446.41 C401.64 446.41 436.87 433.51 469.81 411.23 L429.33 124.84 Z " />
<glyph glyph-name="adieresis" unicode="&#xe4;" horiz-adv-x="543" d="M268.59 569.5 C287.84 569.5 304.95 586.03 304.95 606.48 C304.95 622.28 293.9 635.23 278 635.23 C258.75 635.23 240.84 618.19 240.84 598.46 C240.84 581.88 252.79 569.5 268.6 569.5 L268.59 569.5 Z M460.89 569.5 C480.15 569.5 497.63 585.97 497.63 606.4 C497.63 622.25 486.3 635.23 470.37 635.23 C451.46 635.23 433.46 618.19 433.46 598.46 C433.46 581.88 445.34 569.5 460.89 569.5 L460.89 569.5 Z M463.34 104.1 L509.77 431.7 C463.65 466.13 414.26 480.85 353.4 480.85 C199.19 480.85 93.78 364.55 93.78 184.91 C93.78 65.48 152.12 -9.56999 254.14 -9.56999 C319.18 -9.56999 382.58 21.95 423.26 77.34 C419.6 37.01 425 7.44 430.94 -7.78999 L468.23 1.55 C462.56 19.74 454.98 44.77 463.35 104.1 L463.34 104.1 Z M264.68 25.73 C180.36 26.04 132.38 87.06 132.38 189.97 C132.38 349.6 223.57 446.4 347.05 446.4 C401.62 446.4 436.85 433.5 469.79 411.22 L429.31 124.84 C390.71 64.58 332.88 25.47 264.68 25.74 L264.68 25.73 Z " />
<glyph glyph-name="aring" unicode="&#xe5;" horiz-adv-x="543" d="M357.12 514.32 C412.74 514.32 453.98 560.37 453.98 614.14 C453.98 657.36 424.57 691.98 382.25 691.98 C327.69 691.98 284.31 648.79 284.31 592.15 C284.31 548.93 313.87 514.31 357.12 514.31 L357.12 514.32 Z M378.11 663.63 C408.29 663.63 425.26 640.08 425.26 611.56 C425.26 576.04 398.65 542.94 361.26 542.94 C331.65 542.94 313.44 567.22 313.44 595.52 C313.44 631.3 338.96 663.62 378.12 663.62 L378.11 663.63 Z M463.34 104.09 L509.77 431.69 C463.65 466.12 414.26 480.84 353.4 480.84 C199.19 480.84 93.78 364.54 93.78 184.9 C93.78 65.47 152.12 -9.57999 254.14 -9.57999 C319.18 -9.57999 382.58 21.94 423.26 77.33 C419.6 37 425 7.43001 430.94 -7.79999 L468.23 1.54001 C462.56 19.73 454.98 44.76 463.35 104.09 L463.34 104.09 Z M264.68 25.72 C180.36 26.03 132.38 87.05 132.38 189.96 C132.38 349.59 223.57 446.39 347.05 446.39 C401.62 446.39 436.85 433.49 469.79 411.21 L429.31 124.83 C390.71 64.57 332.88 25.46 264.68 25.73 L264.68 25.72 Z " />
<glyph glyph-name="ae" unicode="&#xe6;" horiz-adv-x="813" d="M433.39 236.42 L783.48 236.42 C785.07 242.62 793.08 262.42 793.08 303.85 C793.08 411.79 730.42 480.92 633.93 480.92 C561.17 480.92 489 441.79 442.42 372.37 C431.5 450.49 370.36 480.85 294.1 480.85 C230.99 480.85 181.09 465.54 143.87 447.15 L147.67 413.19 C202.87 438.37 240.46 445.27 286.69 445.27 C365.49 445.27 418.27 407.72 404.21 308.42 L397.97 264.18 L397.7 262.82 L266.03 262.82 C144.33 262.82 70.9 206.06 70.9 108.37 C70.9 34.6 122.11 -9.56004 204.8 -9.56004 C285.33 -9.56004 361.5 37.18 398.32 122.86 C419.61 35.97 484.21 -9.48004 573.51 -9.48004 C647.23 -9.48004 699.72 17.61 739.14 46.6 L727.49 77.41 C697.96 54.9 653.09 25.82 579.36 25.82 C469.5 25.82 414.8 104.13 432.86 233.38 L433.39 236.42 Z M628.93 446.2 C705.75 446.2 768.59 391.18 751.33 267.62 L439.12 267.62 C462.48 370.32 535.3 446.2 628.93 446.2 L628.93 446.2 Z M215.94 24.61 C148.12 24.61 109.78 57.9 109.78 113.48 C109.78 177.66 151.73 231.05 261.8 231.36 L392.71 231.64 L381.77 153.07 C363.31 82.2399 297.5 24.5999 215.93 24.5999 L215.94 24.61 Z " />
<glyph glyph-name="ccedilla" unicode="&#xe7;" horiz-adv-x="478" d="M345.05 445.83 C399.49 445.83 435.53 428.52 464.95 405.03 L477.81 438.84 C449.36 461.91 408.32 480.84 350.01 480.84 C215.69 480.84 94.06 368.35 94.06 194.57 C94.06 72.53 161.15 -0.589996 258.72 -8.8 L231.08 -62.39 C280.62 -65.01 305.68 -80.3 305.68 -110.02 C305.68 -145.4 277.1 -160.38 238.78 -160.38 C216.64 -160.38 200.42 -152.46 191.7 -146.95 L176.52 -173.73 C184.11 -179.58 208.3 -189.27 237.49 -189.27 C290.11 -189.27 340.41 -167.22 340.41 -106.99 C340.41 -66.74 310.19 -45.98 271.55 -40.31 L287.49 -9.41002 C347.57 -7.28001 394.17 13.88 433.32 44.56 L419.16 75.47 C386.58 50.47 342.91 25.72 282.62 25.72 C186.7 25.72 132.7 97.42 132.7 199.95 C132.7 336.97 229.06 445.82 345.04 445.82 L345.05 445.83 Z " />
<glyph glyph-name="egrave" unicode="&#xe8;" horiz-adv-x="481" d="M422.32 551.02 L302.65 678.05 L273.29 646.23 L403.75 530.46 L422.32 551.02 Z M291.56 25.73 C186.81 25.73 132.81 95.58 132.69 200.46 C149.85 199.33 167.33 198.7 186.62 198.7 C329.84 198.7 472.1 241.9 472.1 364.67 C472.1 436.74 419.91 480.85 337.73 480.85 C207.32 480.85 94.05 372.92 94.05 195.43 C94.05 63.18 169.88 -9.56999 286.21 -9.56999 C345.1 -9.56999 393.56 9.55 436.66 46.02 L422.1 76.21 C386.32 44.03 343.54 25.72 291.54 25.72 L291.56 25.73 Z M334.15 445.82 C396.43 445.82 433.39 414.18 433.39 359.72 C433.39 264.99 310.1 231.87 192.14 231.76 C171.07 231.74 152.13 232.57 134.33 233.94 C146.76 356.48 227.79 445.84 334.16 445.84 L334.15 445.82 Z " />
<glyph glyph-name="eacute" unicode="&#xe9;" horiz-adv-x="481" d="M443.99 646.23 L420.87 679.34 L265.82 553.73 L281.44 530.75 L443.99 646.23 Z M291.56 25.73 C186.81 25.73 132.81 95.58 132.69 200.46 C149.85 199.33 167.33 198.7 186.62 198.7 C329.84 198.7 472.1 241.9 472.1 364.67 C472.1 436.74 419.91 480.85 337.73 480.85 C207.32 480.85 94.05 372.92 94.05 195.43 C94.05 63.18 169.88 -9.56999 286.21 -9.56999 C345.1 -9.56999 393.56 9.55 436.66 46.02 L422.1 76.21 C386.32 44.03 343.54 25.72 291.54 25.72 L291.56 25.73 Z M334.15 445.82 C396.43 445.82 433.39 414.18 433.39 359.72 C433.39 264.99 310.1 231.87 192.14 231.76 C171.07 231.74 152.13 232.57 134.33 233.94 C146.76 356.48 227.79 445.84 334.16 445.84 L334.15 445.82 Z " />
<glyph glyph-name="ecircumflex" unicode="&#xea;" horiz-adv-x="481" d="M362.23 637.04 L447.92 533.63 L470.79 553.67 L380.13 671.04 L351.62 671.04 L227.9 556.53 L247.56 535.78 L362.23 637.04 Z M291.56 25.73 C186.81 25.73 132.81 95.58 132.69 200.46 C149.85 199.33 167.33 198.7 186.62 198.7 C329.84 198.7 472.1 241.9 472.1 364.67 C472.1 436.74 419.91 480.85 337.73 480.85 C207.32 480.85 94.05 372.92 94.05 195.43 C94.05 63.18 169.88 -9.57001 286.21 -9.57001 C345.1 -9.57001 393.56 9.54999 436.66 46.02 L422.1 76.21 C386.32 44.03 343.54 25.72 291.54 25.72 L291.56 25.73 Z M334.15 445.82 C396.43 445.82 433.39 414.18 433.39 359.72 C433.39 264.99 310.1 231.87 192.14 231.76 C171.07 231.74 152.13 232.57 134.33 233.94 C146.76 356.48 227.79 445.84 334.16 445.84 L334.15 445.82 Z " />
<glyph glyph-name="edieresis" unicode="&#xeb;" horiz-adv-x="481" d="M255.68 569.5 C274.93 569.5 292.04 586.03 292.04 606.48 C292.04 622.28 280.99 635.23 265.09 635.23 C245.84 635.23 227.93 618.19 227.93 598.46 C227.93 581.88 239.88 569.5 255.69 569.5 L255.68 569.5 Z M457.46 635.22 C438.55 635.22 420.55 618.18 420.55 598.45 C420.55 581.87 432.43 569.49 447.98 569.49 C467.24 569.49 484.72 585.96 484.72 606.39 C484.72 622.24 473.39 635.22 457.46 635.22 L457.46 635.22 Z M472.11 364.67 C472.11 436.74 419.92 480.85 337.74 480.85 C207.33 480.85 94.06 372.92 94.06 195.43 C94.06 63.18 169.89 -9.56999 286.22 -9.56999 C345.11 -9.56999 393.57 9.55 436.67 46.02 L422.11 76.21 C386.33 44.03 343.55 25.72 291.55 25.72 C186.8 25.72 132.8 95.57 132.68 200.45 C149.84 199.32 167.32 198.69 186.61 198.69 C329.83 198.69 472.09 241.89 472.09 364.66 L472.11 364.67 Z M334.15 445.82 C396.43 445.82 433.39 414.18 433.39 359.72 C433.39 264.99 310.1 231.87 192.14 231.76 C171.07 231.74 152.13 232.57 134.33 233.94 C146.76 356.48 227.79 445.84 334.16 445.84 L334.15 445.82 Z " />
<glyph glyph-name="igrave" unicode="&#xec;" horiz-adv-x="233" d="M245.81 530.47 L264.36 551.03 L144.64 678.06 L115.35 646.24 L245.81 530.47 Z M205.74 468.57 L121.01 468.57 L116.11 435.12 L163.59 435.12 L102.6 0 L139.83 0 L205.74 468.57 Z " />
<glyph glyph-name="iacute" unicode="&#xed;" horiz-adv-x="234" d="M129.57 530.75 L292.13 646.23 L269.01 679.34 L113.96 553.73 L129.57 530.75 Z M207.17 468.57 L122.44 468.57 L117.54 435.12 L165.02 435.12 L104.03 0 L141.26 0 L207.17 468.57 Z " />
<glyph glyph-name="icircumflex" unicode="&#xee;" horiz-adv-x="233" d="M219.23 671.04 L192.58 671.04 L80.25 556.17 L99.12 535.77 L202.25 637.03 L276.48 533.62 L298.13 553.66 L219.23 671.04 Z M205.35 468.56 L120.62 468.56 L115.75 435.11 L163.23 435.11 L102.24 -0.0100098 L139.47 -0.0100098 L205.35 468.56 Z " />
<glyph glyph-name="idieresis" unicode="&#xef;" horiz-adv-x="234" d="M154.72 606.03 C154.72 621.68 143.61 634.52 127.71 634.52 C108.46 634.52 90.65 617.65 90.65 598.18 C90.65 581.77 102.56 569.51 118.47 569.51 C137.62 569.51 154.73 585.84 154.73 606.04 L154.72 606.03 Z M285.6 606.04 C285.6 621.75 274.17 634.62 258.24 634.62 C239.34 634.62 221.43 617.75 221.43 598.28 C221.43 581.87 233.34 569.61 249.28 569.61 C268.47 569.61 285.61 585.88 285.61 606.05 L285.6 606.04 Z M205.11 468.67 L120.38 468.67 L115.48 435.22 L163.06 435.22 L102.04 0.100006 L139.29 0.100006 L205.11 468.67 Z " />
<glyph glyph-name="eth" unicode="&#xf0;" horiz-adv-x="546" d="M387.4 576.93 L468.44 635.5 L454.21 657.61 L366.21 594.01 C335.15 617.29 298.85 637.3 257.02 653.39 L239.65 619.93 C275.57 606.69 307.46 590.59 335.29 571.67 L256.1 514.43 L270.22 492.25 L357.47 555.31 C416.33 508.19 453.66 446.17 469.1 369.67 C438.01 409.24 390.88 433.1 334.44 433.1 C202.84 433.1 91.84 322.91 91.84 178.4 C91.84 67.74 160.73 -9.57002 267.19 -9.57002 C394 -9.57002 493.59 84.58 507.76 212.48 C527.47 353.7 492.14 486.13 387.4 576.92 L387.4 576.93 Z M273.46 26.0099 C180.63 26.0099 129.99 90.8699 129.99 182.12 C129.99 300.07 215.93 397.5 328.22 397.5 C420.28 397.5 471.36 332.69 471.36 240.07 C471.36 123.79 388.9 26.0199 273.45 26.0199 L273.46 26.0099 Z " />
<glyph glyph-name="ntilde" unicode="&#xf1;" horiz-adv-x="547" d="M302.42 609.22 C338.03 609.22 362.95 567.34 410.69 567.34 C451.32 567.34 480.96 589.76 499.02 629.2 L470.7 640.14 C459.05 615.54 440.95 599.94 411.92 599.94 C374.3 599.94 350.62 642.11 304.17 642.11 C267.1 642.11 234.45 619.41 215.31 579.97 L244.68 568.69 C258.07 593.26 276.94 609.22 302.42 609.22 L302.42 609.22 Z M358.35 480.85 C286.78 480.85 223.68 440.25 187.14 392.22 C190.78 430.08 186.52 460.8 179.89 478.51 L143.09 469.17 C147.95 450.98 154.93 426.06 146.56 366.7 L95.21 1.52588e-05 L132.47 1.52588e-05 L180.78 344.69 C205.67 383.66 265.57 445.27 349.17 445.27 C441.27 445.27 474.98 390.1 459.9 280.05 L421.47 1.52588e-05 L458.75 1.52588e-05 L498.32 283.68 C516.84 416.12 466.97 480.84 358.35 480.84 L358.35 480.85 Z " />
<glyph glyph-name="ograve" unicode="&#xf2;" horiz-adv-x="559" d="M412.2 530.47 L430.78 551.03 L311.11 678.06 L281.75 646.24 L412.2 530.47 Z M289.04 -9.56001 C428.92 -9.56001 530.84 105.91 530.84 270.74 C530.84 392.04 458.54 480.85 336.16 480.85 C202.19 480.85 94.35 364.99 94.35 199.2 C94.35 76.67 167.34 -9.56 289.05 -9.56 L289.04 -9.56001 Z M294.15 25.74 C186.96 25.74 132.87 101.9 132.87 203.2 C132.87 339.81 215.72 445.55 331.08 445.55 C437.7 445.55 492.25 369.26 492.25 266.47 C492.25 130.23 411.33 25.72 294.16 25.72 L294.15 25.74 Z " />
<glyph glyph-name="oacute" unicode="&#xf3;" horiz-adv-x="559" d="M289.89 530.75 L452.45 646.23 L429.33 679.34 L274.28 553.73 L289.89 530.75 Z M289.03 -9.57001 C428.91 -9.57001 530.83 105.9 530.83 270.73 C530.83 392.03 458.53 480.84 336.15 480.84 C202.18 480.84 94.34 364.98 94.34 199.19 C94.34 76.66 167.33 -9.56999 289.04 -9.56999 L289.03 -9.57001 Z M294.14 25.73 C186.95 25.73 132.86 101.89 132.86 203.19 C132.86 339.8 215.71 445.54 331.07 445.54 C437.69 445.54 492.24 369.25 492.24 266.46 C492.24 130.22 411.32 25.71 294.15 25.71 L294.14 25.73 Z " />
<glyph glyph-name="ocircumflex" unicode="&#xf4;" horiz-adv-x="559" d="M388.6 671.04 L360.09 671.04 L236.37 556.53 L256.03 535.78 L370.7 637.04 L456.39 533.63 L479.26 553.67 L388.6 671.04 Z M289.04 -9.56001 C428.92 -9.56001 530.84 105.91 530.84 270.74 C530.84 392.04 458.54 480.85 336.16 480.85 C202.19 480.85 94.35 364.99 94.35 199.2 C94.35 76.67 167.34 -9.56 289.05 -9.56 L289.04 -9.56001 Z M294.15 25.74 C186.96 25.74 132.87 101.9 132.87 203.2 C132.87 339.81 215.72 445.55 331.08 445.55 C437.7 445.55 492.25 369.26 492.25 266.47 C492.25 130.23 411.33 25.72 294.16 25.72 L294.15 25.74 Z " />
<glyph glyph-name="otilde" unicode="&#xf5;" horiz-adv-x="559" d="M478.81 640.13 C467.16 615.53 449.06 599.93 420.03 599.93 C382.41 599.93 358.73 642.1 312.28 642.1 C275.21 642.1 242.56 619.4 223.42 579.96 L252.79 568.68 C266.18 593.25 285.05 609.21 310.53 609.21 C346.14 609.21 371.06 567.33 418.8 567.33 C459.43 567.33 489.07 589.75 507.13 629.19 L478.81 640.13 Z M289.03 -9.56 C428.91 -9.56 530.83 105.91 530.83 270.74 C530.83 392.04 458.53 480.85 336.15 480.85 C202.18 480.85 94.34 364.99 94.34 199.2 C94.34 76.67 167.33 -9.55998 289.04 -9.55998 L289.03 -9.56 Z M294.14 25.74 C186.95 25.74 132.86 101.9 132.86 203.2 C132.86 339.81 215.71 445.55 331.07 445.55 C437.69 445.55 492.24 369.26 492.24 266.47 C492.24 130.23 411.32 25.72 294.15 25.72 L294.14 25.74 Z " />
<glyph glyph-name="odieresis" unicode="&#xf6;" horiz-adv-x="559" d="M300.5 606.48 C300.5 622.28 289.45 635.23 273.55 635.23 C254.3 635.23 236.39 618.19 236.39 598.46 C236.39 581.88 248.34 569.5 264.15 569.5 C283.4 569.5 300.51 586.03 300.51 606.48 L300.5 606.48 Z M493.19 606.48 C493.19 622.33 481.86 635.31 465.93 635.31 C447.02 635.31 429.02 618.27 429.02 598.54 C429.02 581.96 440.9 569.58 456.45 569.58 C475.71 569.58 493.19 586.05 493.19 606.48 L493.19 606.48 Z M289.04 -9.48001 C428.92 -9.48001 530.84 105.99 530.84 270.82 C530.84 392.12 458.54 480.93 336.16 480.93 C202.19 480.93 94.35 365.07 94.35 199.28 C94.35 76.75 167.34 -9.48 289.05 -9.48 L289.04 -9.48001 Z M294.15 25.82 C186.96 25.82 132.87 101.98 132.87 203.28 C132.87 339.89 215.72 445.63 331.08 445.63 C437.7 445.63 492.25 369.34 492.25 266.55 C492.25 130.31 411.33 25.8 294.16 25.8 L294.15 25.82 Z " />
<glyph glyph-name="divide" unicode="&#xf7;" horiz-adv-x="534" d="M316.82 351.63 C337.91 351.63 356.82 369.63 356.82 391.02 C356.82 408.09 344.34 422.46 326.78 422.46 C306.36 422.46 286.31 403.75 286.31 382.79 C286.31 365.29 298.92 351.64 316.82 351.64 L316.82 351.63 Z M113.52 219.42 L482.28 219.42 L487.02 252.15 L118.18 252.15 L113.52 219.42 Z M274.01 49.11 C295.03 49.11 314.22 67.25 314.22 88.64 C314.22 105.71 301.67 120.22 284.4 120.22 C263.96 120.22 243.72 101.36 243.72 80.47 C243.72 62.9 256.73 49.11 274.01 49.11 L274.01 49.11 Z " />
<glyph glyph-name="oslash" unicode="&#xf8;" horiz-adv-x="567" d="M574.24 471.05 L552.98 494.75 L480.46 422.12 C447.11 458.98 398.71 480.85 337.98 480.85 C204.01 480.85 96.17 364.99 96.17 199.2 C96.17 149.6 108.13 105.95 130.44 71.56 L58.85 -0.139999 L79.9 -24.98 L150.59 45.95 C183.95 10.85 231.64 -9.58 290.87 -9.58 C430.75 -9.58 532.67 105.89 532.67 270.72 C532.67 318.9 521.26 361.96 499.83 396.36 L574.24 471.05 Z M134.68 203.17 C134.68 339.78 217.53 445.52 332.89 445.52 C386.05 445.52 426.26 426.56 453.22 394.81 L158.84 99.98 C142.76 128.67 134.69 164.05 134.69 203.18 L134.68 203.17 Z M494.06 266.47 C494.06 130.23 413.13 25.72 295.97 25.72 C244.17 25.72 204.77 43.51 177.88 73.33 L471.41 367.85 C486.46 339.47 494.05 304.81 494.05 266.46 L494.06 266.47 Z " />
<glyph glyph-name="ugrave" unicode="&#xf9;" horiz-adv-x="542" d="M421.93 551.02 L302.26 678.05 L272.9 646.23 L403.36 530.46 L421.93 551.02 Z M461.15 103.94 L512.18 468.56 L474.93 468.56 L427.34 131.2 C402.38 91.78 344.09 26.03 258.61 26.03 C169.15 26.03 139.27 80.48 154.29 190.3 L192.44 468.56 L155.16 468.56 L115.88 186.67 C97.39 54.76 145.83 -9.55002 249.46 -9.55002 C323.35 -9.55002 384.59 33.59 420.75 83.47 C416.22 43.32 420.7 10.61 427.59 -7.87001 L465.06 1.53999 C460.2 19.73 452.84 44.58 461.17 103.93 L461.15 103.94 Z " />
<glyph glyph-name="uacute" unicode="&#xfa;" horiz-adv-x="542" d="M443.6 646.23 L420.48 679.34 L265.43 553.73 L281.05 530.75 L443.6 646.23 Z M461.15 103.94 L512.18 468.56 L474.93 468.56 L427.34 131.2 C402.38 91.78 344.09 26.03 258.61 26.03 C169.15 26.03 139.27 80.48 154.29 190.3 L192.44 468.56 L155.16 468.56 L115.88 186.67 C97.39 54.76 145.83 -9.55 249.46 -9.55 C323.35 -9.55 384.59 33.59 420.75 83.47 C416.22 43.32 420.7 10.61 427.59 -7.87 L465.06 1.54001 C460.2 19.73 452.84 44.58 461.17 103.93 L461.15 103.94 Z " />
<glyph glyph-name="ucircumflex" unicode="&#xfb;" horiz-adv-x="542" d="M361.84 637.04 L447.53 533.63 L470.4 553.67 L379.75 671.04 L351.24 671.04 L227.52 556.53 L247.18 535.78 L361.84 637.04 Z M461.15 103.95 L512.18 468.57 L474.93 468.57 L427.34 131.21 C402.38 91.79 344.09 26.04 258.61 26.04 C169.15 26.04 139.27 80.49 154.29 190.31 L192.44 468.57 L155.16 468.57 L115.88 186.68 C97.39 54.77 145.83 -9.54002 249.46 -9.54002 C323.35 -9.54002 384.59 33.6 420.75 83.48 C416.22 43.33 420.7 10.62 427.59 -7.86002 L465.06 1.54999 C460.2 19.74 452.84 44.59 461.17 103.94 L461.15 103.95 Z " />
<glyph glyph-name="udieresis" unicode="&#xfc;" horiz-adv-x="542" d="M255.29 569.5 C274.54 569.5 291.65 586.03 291.65 606.48 C291.65 622.28 280.6 635.23 264.7 635.23 C245.45 635.23 227.54 618.19 227.54 598.46 C227.54 581.88 239.49 569.5 255.3 569.5 L255.29 569.5 Z M447.59 569.5 C466.85 569.5 484.33 585.97 484.33 606.4 C484.33 622.25 473 635.23 457.07 635.23 C438.16 635.23 420.16 618.19 420.16 598.46 C420.16 581.88 432.04 569.5 447.59 569.5 L447.59 569.5 Z M461.14 103.94 L512.17 468.56 L474.92 468.56 L427.33 131.2 C402.37 91.78 344.08 26.03 258.6 26.03 C169.14 26.03 139.26 80.48 154.28 190.3 L192.43 468.56 L155.15 468.56 L115.87 186.67 C97.38 54.76 145.82 -9.55 249.45 -9.55 C323.34 -9.55 384.58 33.59 420.74 83.47 C416.21 43.32 420.69 10.61 427.58 -7.87 L465.05 1.54001 C460.19 19.73 452.83 44.58 461.16 103.93 L461.14 103.94 Z " />
<glyph glyph-name="yacute" unicode="&#xfd;" horiz-adv-x="539" d="M435.63 646.23 L412.51 679.34 L257.46 553.73 L273.08 530.75 L435.63 646.23 Z M472.8 468.56 L425.54 130.64 C400.28 91.15 341.35 26.04 256.11 26.04 C167.7 26.04 137.46 80.56 152.62 190.38 L191.05 468.56 L153.77 468.56 L114.2 186.74 C95.56 54.84 142.58 -9.54001 246.88 -9.54001 C321.07 -9.54001 382.51 33.33 418.86 82.99 L407.22 -0.270004 C394.07 -94.39 324.74 -156.77 227.51 -156.77 C171.85 -156.77 132.18 -144.68 93.96 -112.97 L74.9 -145.49 C115.77 -177.4 162.48 -190.5 222.54 -190.5 C337.3 -190.5 428.03 -117.93 444.5 -0.270004 L510.07 468.56 L472.8 468.56 Z " />
<glyph glyph-name="thorn" unicode="&#xfe;" horiz-adv-x="544" d="M355.86 480.85 C292.3 480.85 227.13 448.42 185.68 392.59 L223.04 658.19 L185.97 658.19 L66.91 -188.62 L103.91 -188.62 L133.07 18.69 C169.17 -0.0499878 209.06 -9.56999 254.89 -9.56999 C411.71 -9.56999 515.68 110.57 515.68 290.96 C515.68 409.63 461.4 480.85 355.85 480.85 L355.86 480.85 Z M261.26 24.88 C208.51 24.88 172.12 36.91 138.83 59.6 L178.87 344.26 C217.3 402.67 279.04 445.55 345.28 445.55 C433.11 445.55 477.15 387.09 477.15 286.31 C477.15 125.56 387.31 24.88 261.25 24.88 L261.26 24.88 Z " />
<glyph glyph-name="ydieresis" unicode="&#xff;" horiz-adv-x="539" d="M247.32 569.5 C266.57 569.5 283.68 586.03 283.68 606.48 C283.68 622.28 272.63 635.23 256.73 635.23 C237.48 635.23 219.57 618.19 219.57 598.46 C219.57 581.88 231.52 569.5 247.33 569.5 L247.32 569.5 Z M439.62 569.5 C458.88 569.5 476.36 585.97 476.36 606.4 C476.36 622.25 465.03 635.23 449.1 635.23 C430.19 635.23 412.19 618.19 412.19 598.46 C412.19 581.88 424.07 569.5 439.62 569.5 L439.62 569.5 Z M472.79 468.57 L425.53 130.65 C400.27 91.16 341.34 26.05 256.1 26.05 C167.69 26.05 137.45 80.57 152.61 190.39 L191.04 468.57 L153.76 468.57 L114.19 186.75 C95.55 54.85 142.57 -9.53 246.87 -9.53 C321.06 -9.53 382.5 33.34 418.85 83 L407.21 -0.259995 C394.06 -94.38 324.73 -156.76 227.5 -156.76 C171.84 -156.76 132.17 -144.67 93.95 -112.96 L74.89 -145.48 C115.76 -177.39 162.47 -190.49 222.53 -190.49 C337.29 -190.49 428.02 -117.92 444.49 -0.259995 L510.06 468.57 L472.79 468.57 Z " />
<glyph glyph-name="Amacron" unicode="&#x100;" horiz-adv-x="581" d="M514.74 754.23 L274.36 754.23 L269.78 722.35 L510.19 722.35 L514.74 754.23 Z M502.29 -1.52588e-05 L543.3 -1.52588e-05 L396.69 642 L360.19 642 L42.33 -1.52588e-05 L84.06 -1.52588e-05 L184.23 204.23 L457.13 204.23 L502.29 -1.52588e-05 Z M200.64 237.68 L359.18 560.9 L372.62 589.15 L378.29 560.78 L449.73 237.67 L200.64 237.68 Z " />
<glyph glyph-name="amacron" unicode="&#x101;" horiz-adv-x="543" d="M488.7 604.63 L250.87 604.63 L246.36 573.46 L484.19 573.46 L488.7 604.63 Z M463.33 104.09 L509.76 431.69 C463.64 466.12 414.25 480.84 353.39 480.84 C199.18 480.84 93.77 364.54 93.77 184.9 C93.77 65.47 152.11 -9.57999 254.13 -9.57999 C319.17 -9.57999 382.57 21.94 423.25 77.33 C419.59 37 424.99 7.43001 430.93 -7.79999 L468.22 1.54001 C462.55 19.73 454.97 44.76 463.34 104.09 L463.33 104.09 Z M264.67 25.72 C180.35 26.03 132.37 87.05 132.37 189.96 C132.37 349.59 223.56 446.39 347.04 446.39 C401.61 446.39 436.84 433.49 469.78 411.21 L429.3 124.83 C390.7 64.57 332.87 25.46 264.67 25.73 L264.67 25.72 Z " />
<glyph glyph-name="Abreve" unicode="&#x102;" horiz-adv-x="581" d="M385.33 684.88 C445.93 684.88 495.48 720.43 516.59 780.61 L481.78 786.15 C464.86 742.45 429.44 716.92 389.3 716.92 C347.57 716.92 320.57 739.18 312.87 785.97 L280.58 780.62 C285.94 721.98 330.05 684.89 385.33 684.89 L385.33 684.88 Z M502.28 0.00997925 L543.29 0.00997925 L396.68 642.01 L360.18 642.01 L42.32 0.00997925 L84.05 0.00997925 L184.22 204.24 L457.12 204.24 L502.28 0.00997925 Z M200.63 237.69 L359.17 560.91 L372.61 589.16 L378.28 560.79 L449.72 237.68 L200.63 237.69 Z " />
<glyph glyph-name="abreve" unicode="&#x103;" horiz-adv-x="543" d="M361.1 539.32 C424.31 539.32 476.49 578.96 495.16 653.11 L462.27 657.66 C445.59 598.44 406.57 570.71 364.95 570.71 C319.29 570.71 288.38 598.55 286.03 657.31 L255.7 652.11 C256.02 581.01 299.89 539.31 361.1 539.31 L361.1 539.32 Z M463.33 104.09 L509.76 431.69 C463.64 466.12 414.25 480.84 353.39 480.84 C199.18 480.84 93.77 364.54 93.77 184.9 C93.77 65.47 152.11 -9.58 254.13 -9.58 C319.17 -9.58 382.57 21.94 423.25 77.33 C419.59 37 424.99 7.42999 430.93 -7.8 L468.22 1.53999 C462.55 19.73 454.97 44.76 463.34 104.09 L463.33 104.09 Z M264.67 25.72 C180.35 26.03 132.37 87.05 132.37 189.96 C132.37 349.59 223.56 446.39 347.04 446.39 C401.61 446.39 436.84 433.49 469.78 411.21 L429.3 124.83 C390.7 64.57 332.87 25.46 264.67 25.73 L264.67 25.72 Z " />
<glyph glyph-name="Aogonek" unicode="&#x104;" horiz-adv-x="581" d="M484.31 -145.08 C462.75 -145.08 450.63 -129.3 450.63 -106.74 C450.63 -70.48 478.61 -33.54 543.3 -1.52588e-05 L396.69 642 L360.19 642 L42.33 -1.52588e-05 L84.06 -1.52588e-05 L184.23 204.23 L457.13 204.23 L501.91 1.67998 C433.27 -36.32 413.43 -78.68 413.43 -116.62 C413.43 -152.47 437.23 -178.53 475.87 -178.53 C499.6 -178.53 520.49 -170.49 541.61 -154.21 L530.4 -126.29 C516.62 -136.6 502.26 -145.08 484.31 -145.08 L484.31 -145.08 Z M200.64 237.68 L359.18 560.9 L372.62 589.15 L378.29 560.78 L449.73 237.67 L200.64 237.68 Z " />
<glyph glyph-name="aogonek" unicode="&#x105;" horiz-adv-x="543" d="M414.77 -145.08 C392.98 -145.08 380.69 -129.75 380.69 -105.58 C380.69 -70.3 403.22 -32.35 468.19 1.53999 C462.52 19.73 454.94 44.76 463.31 104.09 L509.74 431.69 C463.62 466.12 414.23 480.84 353.37 480.84 C199.16 480.84 93.75 364.54 93.75 184.9 C93.75 65.47 152.09 -9.58 254.11 -9.58 C319.15 -9.58 382.55 21.94 423.23 77.33 C420.28 44.85 423.2 19.35 427.55 2.70001 C362.46 -34.9 343.68 -77.39 343.68 -116.1 C343.68 -152.57 367.51 -178.55 406.29 -178.55 C429.88 -178.55 450.57 -170.51 471.57 -154.23 L460.47 -126.31 C446.72 -136.62 432.56 -145.1 414.76 -145.1 L414.77 -145.08 Z M264.65 25.72 C180.33 26.03 132.35 87.05 132.35 189.96 C132.35 349.59 223.54 446.39 347.02 446.39 C401.59 446.39 436.82 433.49 469.76 411.21 L429.28 124.83 C390.68 64.57 332.85 25.46 264.65 25.73 L264.65 25.72 Z " />
<glyph glyph-name="Cacute" unicode="&#x106;" horiz-adv-x="581" d="M360.35 682.69 L539.66 752.67 L528.58 792.38 L353.25 709.73 L360.35 682.69 Z M444.67 654.73 C257.4 654.73 109.33 496.5 109.33 266.87 C109.33 106.37 195.77 -9.55998 351.83 -9.55998 C437.76 -9.55998 498.01 22.72 543.45 58.88 L527.65 89.74 C484.66 55.48 430.11 26.02 356 26.02 C225.82 26.02 148.6 126.32 148.6 271.07 C148.6 474.2 279.88 619.13 439.55 619.13 C505.9 619.13 547.24 599.58 585.97 564.46 L610.88 593.57 C573.76 629.22 523.17 654.72 444.67 654.72 L444.67 654.73 Z " />
<glyph glyph-name="cacute" unicode="&#x107;" horiz-adv-x="478" d="M282.86 530.75 L445.42 646.23 L422.3 679.34 L267.25 553.73 L282.86 530.75 Z M477.82 438.85 C449.37 461.92 408.33 480.85 350.02 480.85 C215.7 480.85 94.07 368.36 94.07 194.58 C94.07 64.88 169.84 -9.57001 277.45 -9.57001 C342.43 -9.57001 392.04 12.21 433.34 44.58 L419.18 75.49 C386.6 50.49 342.93 25.74 282.64 25.74 C186.72 25.74 132.72 97.44 132.72 199.97 C132.72 336.99 229.08 445.84 345.06 445.84 C399.5 445.84 435.54 428.53 464.96 405.04 L477.82 438.85 Z " />
<glyph glyph-name="Cdotaccent" unicode="&#x10a;" horiz-adv-x="581" d="M436.28 711.92 C456.05 711.92 473.84 728.84 473.84 749.38 C473.84 765.6 462.34 778.92 445.89 778.92 C426.44 778.92 407.87 761.43 407.87 741.45 C407.87 724.7 420.25 711.93 436.28 711.93 L436.28 711.92 Z M444.67 654.73 C257.4 654.73 109.33 496.5 109.33 266.87 C109.33 106.37 195.77 -9.56 351.83 -9.56 C437.76 -9.56 498.01 22.72 543.45 58.88 L527.65 89.74 C484.66 55.48 430.11 26.02 356 26.02 C225.82 26.02 148.6 126.32 148.6 271.07 C148.6 474.2 279.88 619.13 439.55 619.13 C505.9 619.13 547.24 599.58 585.97 564.46 L610.88 593.57 C573.76 629.22 523.17 654.72 444.67 654.72 L444.67 654.73 Z " />
<glyph glyph-name="cdotaccent" unicode="&#x10b;" horiz-adv-x="478" d="M391.24 608.53 C391.24 624.98 379.49 638.55 362.84 638.55 C341.64 638.55 324.22 620.74 324.22 600.45 C324.22 583.45 336.79 570.42 353.05 570.42 C373.11 570.42 391.23 587.65 391.23 608.53 L391.24 608.53 Z M477.79 438.85 C449.34 461.92 408.3 480.85 349.99 480.85 C215.67 480.85 94.04 368.36 94.04 194.58 C94.04 64.88 169.81 -9.56998 277.42 -9.56998 C342.4 -9.56998 392.01 12.21 433.31 44.58 L419.15 75.49 C386.57 50.49 342.9 25.74 282.61 25.74 C186.69 25.74 132.69 97.44 132.69 199.97 C132.69 336.99 229.05 445.84 345.03 445.84 C399.47 445.84 435.51 428.53 464.93 405.04 L477.79 438.85 Z " />
<glyph glyph-name="Ccaron" unicode="&#x10c;" horiz-adv-x="581" d="M445.11 680.03 L561.85 773.58 L547.21 794.56 L434.96 710.93 L345.39 793.64 L328.06 773.57 L418.56 680.02 L445.11 680.03 Z M444.67 654.7 C257.4 654.7 109.33 496.47 109.33 266.84 C109.33 106.34 195.77 -9.59001 351.83 -9.59001 C437.76 -9.59001 498.01 22.69 543.45 58.85 L527.65 89.71 C484.66 55.45 430.11 25.99 356 25.99 C225.82 25.99 148.6 126.29 148.6 271.04 C148.6 474.17 279.88 619.1 439.55 619.1 C505.9 619.1 547.24 599.55 585.97 564.43 L610.88 593.54 C573.76 629.19 523.17 654.69 444.67 654.69 L444.67 654.7 Z " />
<glyph glyph-name="ccaron" unicode="&#x10d;" horiz-adv-x="478" d="M333.72 534.12 L362.26 534.12 L486.96 655.72 L467.78 676.47 L350.85 568.05 L266.37 678.62 L244.07 658.58 L333.72 534.12 Z M477.81 438.84 C449.36 461.91 408.32 480.84 350.01 480.84 C215.69 480.84 94.06 368.35 94.06 194.57 C94.06 64.87 169.83 -9.57999 277.44 -9.57999 C342.42 -9.57999 392.03 12.2 433.33 44.57 L419.17 75.48 C386.59 50.48 342.92 25.73 282.63 25.73 C186.71 25.73 132.71 97.43 132.71 199.96 C132.71 336.98 229.07 445.83 345.05 445.83 C399.49 445.83 435.53 428.52 464.95 405.03 L477.81 438.84 Z " />
<glyph glyph-name="Dcaron" unicode="&#x10e;" horiz-adv-x="644" d="M402.87 680.03 L519.61 773.58 L504.97 794.56 L392.72 710.93 L303.15 793.64 L285.82 773.57 L376.32 680.02 L402.87 680.03 Z M362.46 641.99 L198.68 641.99 L108.45 -0.0100098 L274.81 -0.0100098 C488.62 -0.0100098 623.39 157.72 623.39 375.09 C623.39 533.72 529.98 642 362.46 642 L362.46 641.99 Z M280.9 34.3 L150.5 34.3 L231.03 607.13 L357.6 607.13 C507.39 607.13 583.74 512.14 583.74 370.88 C583.74 174.4 459.25 34.29 280.9 34.29 L280.9 34.3 Z " />
<glyph glyph-name="dcaron" unicode="&#x10f;" horiz-adv-x="573" d="M659.25 671.6 L619.16 671.6 C619.76 669.22 620.7 657.32 620.7 644.79 C620.7 621.73 617.37 589.22 589.5 533.14 L609.78 521.33 C642.62 567 659.71 613.44 659.71 657.86 C659.71 665.52 659.41 670.02 659.24 671.6 L659.25 671.6 Z M540.96 658.13 L504.85 658.13 L475.56 450.18 C439.36 469.82 399.7 480.85 352.58 480.85 C198.43 480.85 93.33 366.56 93.33 187.2 C93.33 67.15 151.4 -9.56998 253.61 -9.56998 C319.23 -9.56998 382.97 22.46 423.53 78.69 C419.69 40.48 423.09 9.96001 429.67 -7.78 L467 1.56 C462.1 19.75 455.05 44.67 463.4 104.02 L540.96 658.13 Z M430.09 127.22 C391.51 65.61 333.29 25.46 264.47 25.74 C179.84 26.05 131.95 89.84 131.95 192.38 C131.95 351.61 222.77 446.4 346.3 446.4 C400.44 446.4 436.2 432.4 469.9 410.02 L430.09 127.22 Z " />
<glyph glyph-name="Dcroat" unicode="&#x110;" horiz-adv-x="644" d="M362.46 642 L198.68 642 L156.26 340.17 L87.44 340.17 L82.92 308.7 L151.84 308.7 L108.45 0 L274.81 0 C488.62 0 623.39 157.73 623.39 375.1 C623.39 533.73 529.98 642.01 362.46 642.01 L362.46 642 Z M280.9 34.31 L150.5 34.31 L189.08 308.71 L303.68 308.71 L308.23 340.18 L193.5 340.18 L231.03 607.14 L357.6 607.14 C507.39 607.14 583.74 512.15 583.74 370.89 C583.74 174.41 459.25 34.3 280.9 34.3 L280.9 34.31 Z " />
<glyph glyph-name="dcroat" unicode="&#x111;" horiz-adv-x="544" d="M527.35 561 L599.41 561 L603.87 591.6 L531.64 591.6 L540.95 658.14 L504.95 658.14 L495.58 591.6 L389.17 591.6 L384.74 561 L491.27 561 L475.66 450.15 C439.43 469.81 399.73 480.86 352.58 480.86 C198.43 480.86 93.36 366.57 93.36 187.21 C93.36 67.16 151.4 -9.56 253.61 -9.56 C319.3 -9.56 383.12 22.53 423.67 78.86 C419.79 40.58 423.12 10 429.71 -7.77 L467.04 1.56999 C462.14 19.76 455.06 44.68 463.43 104.03 L527.35 561 Z M430.23 127.41 C391.62 65.7 333.19 25.47 264.31 25.75 C179.68 26.06 131.99 89.85 131.99 192.39 C131.99 351.62 222.81 446.41 346.34 446.41 C400.53 446.41 436.3 432.38 470.01 409.97 L430.23 127.41 Z " />
<glyph glyph-name="Emacron" unicode="&#x112;" horiz-adv-x="525" d="M516.57 754.23 L276.19 754.23 L271.61 722.35 L512.02 722.35 L516.57 754.23 Z M538.32 607.42 L543.39 642 L199.07 642 L108.77 0 L465.44 0 L470.48 34.58 L150.74 34.58 L190.32 316.65 L468.88 316.65 L473.85 351.23 L195.18 351.23 L231.13 607.41 L538.32 607.42 Z " />
<glyph glyph-name="emacron" unicode="&#x113;" horiz-adv-x="481" d="M475.79 604.63 L237.96 604.63 L233.45 573.46 L471.28 573.46 L475.79 604.63 Z M472.11 364.67 C472.11 436.74 419.92 480.85 337.74 480.85 C207.33 480.85 94.06 372.92 94.06 195.43 C94.06 63.18 169.89 -9.56998 286.22 -9.56998 C345.11 -9.56998 393.57 9.55002 436.67 46.02 L422.11 76.21 C386.33 44.03 343.55 25.72 291.55 25.72 C186.8 25.72 132.8 95.57 132.68 200.45 C149.84 199.32 167.32 198.69 186.61 198.69 C329.83 198.69 472.09 241.89 472.09 364.66 L472.11 364.67 Z M334.15 445.82 C396.43 445.82 433.39 414.18 433.39 359.72 C433.39 264.99 310.1 231.87 192.14 231.76 C171.07 231.74 152.13 232.57 134.33 233.94 C146.76 356.48 227.79 445.84 334.16 445.84 L334.15 445.82 Z " />
<glyph glyph-name="Edotaccent" unicode="&#x116;" horiz-adv-x="525" d="M390.46 711.92 C410.23 711.92 428.02 728.84 428.02 749.38 C428.02 765.6 416.52 778.92 400.07 778.92 C380.62 778.92 362.05 761.43 362.05 741.45 C362.05 724.7 374.43 711.93 390.46 711.93 L390.46 711.92 Z M538.32 607.43 L543.39 642.01 L199.07 642.01 L108.77 0.00999451 L465.44 0.00999451 L470.48 34.59 L150.74 34.59 L190.32 316.66 L468.88 316.66 L473.85 351.24 L195.18 351.24 L231.13 607.42 L538.32 607.43 Z " />
<glyph glyph-name="edotaccent" unicode="&#x117;" horiz-adv-x="481" d="M351.64 570.42 C371.7 570.42 389.82 587.65 389.82 608.53 C389.82 624.98 378.08 638.55 361.43 638.55 C340.23 638.55 322.82 620.74 322.82 600.45 C322.82 583.45 335.39 570.42 351.65 570.42 L351.64 570.42 Z M291.56 25.73 C186.81 25.73 132.81 95.58 132.69 200.46 C149.85 199.33 167.33 198.7 186.62 198.7 C329.84 198.7 472.1 241.9 472.1 364.67 C472.1 436.74 419.91 480.85 337.73 480.85 C207.32 480.85 94.05 372.92 94.05 195.43 C94.05 63.18 169.88 -9.56998 286.21 -9.56998 C345.1 -9.56998 393.56 9.55002 436.66 46.02 L422.1 76.21 C386.32 44.03 343.54 25.72 291.54 25.72 L291.56 25.73 Z M334.15 445.82 C396.43 445.82 433.39 414.18 433.39 359.72 C433.39 264.99 310.1 231.87 192.14 231.76 C171.07 231.74 152.13 232.57 134.33 233.94 C146.76 356.48 227.79 445.84 334.16 445.84 L334.15 445.82 Z " />
<glyph glyph-name="Eogonek" unicode="&#x118;" horiz-adv-x="525" d="M538.32 607.42 L543.39 642 L199.07 642 L108.77 0 L425.72 0 C357.51 -37.4 339.53 -78.73 339.53 -116.09 C339.53 -152.56 363.36 -178.54 402.14 -178.54 C425.73 -178.54 446.68 -170.5 467.68 -154.22 L456.33 -126.3 C442.58 -136.61 428.42 -145.09 410.62 -145.09 C388.83 -145.09 376.54 -129.76 376.54 -105.59 C376.54 -71 400.91 -35.08 465.44 -0.00999451 L470.48 34.57 L150.74 34.57 L190.32 316.64 L468.88 316.64 L473.85 351.22 L195.18 351.22 L231.13 607.4 L538.32 607.42 Z " />
<glyph glyph-name="eogonek" unicode="&#x119;" horiz-adv-x="481" d="M368.17 4.86 C392.72 14.2 415.35 27.99 436.67 46.03 L422.11 76.22 C386.33 44.04 343.55 25.73 291.55 25.73 C186.8 25.73 132.8 95.58 132.68 200.46 C149.84 199.33 167.32 198.7 186.61 198.7 C329.83 198.7 472.09 241.9 472.09 364.67 C472.09 436.74 419.9 480.85 337.72 480.85 C207.31 480.85 94.04 372.92 94.04 195.43 C94.04 63.18 169.87 -9.56999 286.2 -9.56999 C294.58 -9.56999 302.75 -9.17999 310.72 -8.40999 C261.15 -45.29 246.05 -80.32 246.05 -116.09 C246.05 -152.56 269.88 -178.54 308.66 -178.54 C332.87 -178.54 352.94 -170.5 373.94 -154.22 L362.84 -126.3 C349.09 -136.61 334.93 -145.09 317.12 -145.09 C295.33 -145.09 283.04 -129.76 283.04 -105.59 C283.04 -70.74 307.7 -32.18 368.12 4.85001 L368.17 4.86 Z M334.12 445.83 C396.4 445.83 433.36 414.19 433.36 359.73 C433.36 265 310.07 231.88 192.11 231.77 C171.04 231.75 152.1 232.58 134.3 233.95 C146.73 356.49 227.76 445.85 334.13 445.85 L334.12 445.83 Z " />
<glyph glyph-name="Ecaron" unicode="&#x11a;" horiz-adv-x="525" d="M399.29 680.03 L516.03 773.58 L501.39 794.56 L389.14 710.93 L299.57 793.64 L282.24 773.57 L372.74 680.02 L399.29 680.03 Z M538.31 607.4 L543.38 641.98 L199.06 641.98 L108.76 -0.0200043 L465.43 -0.0200043 L470.47 34.56 L150.73 34.56 L190.31 316.63 L468.87 316.63 L473.84 351.21 L195.17 351.21 L231.12 607.39 L538.31 607.4 Z " />
<glyph glyph-name="ecaron" unicode="&#x11b;" horiz-adv-x="481" d="M360.83 534.12 L485.53 655.72 L466.35 676.47 L349.42 568.05 L264.94 678.62 L242.64 658.58 L332.29 534.11 L360.83 534.12 Z M472.1 364.66 C472.1 436.73 419.91 480.84 337.73 480.84 C207.32 480.84 94.05 372.91 94.05 195.42 C94.05 63.17 169.88 -9.57997 286.21 -9.57997 C345.1 -9.57997 393.56 9.54002 436.66 46.01 L422.1 76.2 C386.32 44.02 343.54 25.71 291.54 25.71 C186.79 25.71 132.79 95.56 132.67 200.44 C149.83 199.31 167.31 198.68 186.6 198.68 C329.82 198.68 472.08 241.88 472.08 364.65 L472.1 364.66 Z M334.14 445.81 C396.42 445.81 433.38 414.17 433.38 359.71 C433.38 264.98 310.09 231.86 192.13 231.75 C171.06 231.73 152.12 232.56 134.32 233.93 C146.75 356.47 227.78 445.83 334.15 445.83 L334.14 445.81 Z " />
<glyph glyph-name="Gbreve" unicode="&#x11e;" horiz-adv-x="625" d="M432.95 684.88 C493.55 684.88 543.1 720.43 564.21 780.61 L529.41 786.15 C512.49 742.45 477.07 716.92 436.93 716.92 C395.2 716.92 368.2 739.18 360.5 785.97 L328.21 780.62 C333.57 721.98 377.68 684.89 432.96 684.89 L432.95 684.88 Z M439.83 619.14 C510.69 619.14 551.67 600.42 593.51 563.48 L618.35 592.59 C578.41 629.44 526.55 654.73 444.95 654.73 C257.75 654.73 109.61 496.5 109.61 266.87 C109.61 106.37 197.24 -9.56001 359.16 -9.56001 C437.21 -9.56001 509.67 16.26 555.83 52.14 L591.67 306.42 L400.58 306.42 L395.4 270.99 L549.13 270.99 L520.71 69.02 C476.28 40.95 422.75 26.03 363.33 26.03 C226.99 26.03 148.86 127.76 148.86 271.08 C148.86 472.78 278.78 619.14 439.81 619.14 L439.83 619.14 Z " />
<glyph glyph-name="gbreve" unicode="&#x11f;" horiz-adv-x="541" d="M357.5 539.32 C420.71 539.32 472.89 578.96 491.56 653.11 L458.67 657.66 C441.99 598.44 402.97 570.71 361.35 570.71 C315.69 570.71 284.78 598.55 282.43 657.31 L252.1 652.11 C252.42 581.01 296.29 539.31 357.5 539.31 L357.5 539.32 Z M353.29 480.84 C199.11 480.84 93.77 364.54 93.77 184.9 C93.77 65.47 152.13 -9.58 254.05 -9.58 C319.35 -9.58 382.96 22.13 423.57 77.83 L412.62 -0.279999 C399.4 -94.4 329.34 -156.78 232.11 -156.78 C176.45 -156.78 136.81 -144.69 98.56 -112.98 L79.59 -145.5 C120.46 -177.41 167.07 -190.51 227.13 -190.51 C341.96 -190.51 433.35 -118.37 449.89 -0.280014 L510.46 431.69 C462.84 465.47 414.23 480.84 353.27 480.84 L353.29 480.84 Z M430.38 126.54 C391.63 65.3 331.05 25.44 264.57 25.71 C180.17 25.99 132.27 88.06 132.27 189.89 C132.27 349.57 223.56 446.37 346.94 446.37 C401.87 446.37 437.17 433.34 470.25 410.85 L430.38 126.54 Z " />
<glyph glyph-name="Gdotaccent" unicode="&#x120;" horiz-adv-x="625" d="M436.25 711.92 C456.02 711.92 473.81 728.84 473.81 749.38 C473.81 765.6 462.31 778.92 445.86 778.92 C426.41 778.92 407.84 761.43 407.84 741.45 C407.84 724.7 420.22 711.93 436.25 711.93 L436.25 711.92 Z M439.83 619.15 C510.69 619.15 551.67 600.43 593.51 563.49 L618.35 592.6 C578.41 629.45 526.55 654.74 444.95 654.74 C257.75 654.74 109.61 496.51 109.61 266.88 C109.61 106.38 197.24 -9.55 359.16 -9.55 C437.21 -9.55 509.67 16.27 555.83 52.15 L591.67 306.43 L400.58 306.43 L395.4 271 L549.13 271 L520.71 69.03 C476.28 40.96 422.75 26.04 363.33 26.04 C226.99 26.04 148.86 127.77 148.86 271.09 C148.86 472.79 278.78 619.15 439.81 619.15 L439.83 619.15 Z " />
<glyph glyph-name="gdotaccent" unicode="&#x121;" horiz-adv-x="541" d="M360.96 570.42 C381.02 570.42 399.14 587.65 399.14 608.53 C399.14 624.98 387.4 638.55 370.75 638.55 C349.55 638.55 332.13 620.74 332.13 600.45 C332.13 583.45 344.7 570.42 360.96 570.42 L360.96 570.42 Z M353.29 480.85 C199.11 480.85 93.77 364.55 93.77 184.91 C93.77 65.48 152.13 -9.56999 254.05 -9.56999 C319.35 -9.56999 382.96 22.14 423.57 77.84 L412.62 -0.269989 C399.4 -94.39 329.34 -156.77 232.11 -156.77 C176.45 -156.77 136.81 -144.68 98.56 -112.97 L79.59 -145.49 C120.46 -177.4 167.07 -190.5 227.13 -190.5 C341.96 -190.5 433.35 -118.36 449.89 -0.270004 L510.46 431.7 C462.84 465.48 414.23 480.85 353.27 480.85 L353.29 480.85 Z M430.38 126.55 C391.63 65.31 331.05 25.45 264.57 25.72 C180.17 26 132.27 88.07 132.27 189.9 C132.27 349.58 223.56 446.38 346.94 446.38 C401.87 446.38 437.17 433.35 470.25 410.86 L430.38 126.55 Z " />
<glyph glyph-name="Gcommaaccent" unicode="&#x122;" horiz-adv-x="625" d="M439.83 619.13 C510.69 619.13 551.67 600.41 593.51 563.47 L618.35 592.58 C578.41 629.43 526.55 654.72 444.95 654.72 C257.75 654.72 109.61 496.49 109.61 266.86 C109.61 106.36 197.24 -9.56999 359.16 -9.56999 C437.21 -9.56999 509.67 16.25 555.83 52.13 L591.67 306.41 L400.58 306.41 L395.4 270.98 L549.13 270.98 L520.71 69.01 C476.28 40.94 422.75 26.02 363.33 26.02 C226.99 26.02 148.86 127.75 148.86 271.07 C148.86 472.77 278.78 619.13 439.81 619.13 L439.83 619.13 Z M347.76 -42 C326.79 -42 306.87 -60.36 306.87 -82.14 C306.87 -98.18 317.52 -113.51 336.96 -114.27 C333.88 -134.02 324.49 -164.47 298.42 -197.56 L313.39 -209.17 C356.56 -161.24 378.39 -110.14 378.39 -74.91 C378.39 -54.55 365.19 -41.99 347.77 -41.99 L347.76 -42 Z " />
<glyph glyph-name="gcommaaccent" unicode="&#x123;" horiz-adv-x="540" d="M357.38 537 C378.35 537 398.27 555.36 398.27 577.14 C398.27 593.18 387.62 608.52 368.18 609.28 C371.26 629.03 380.65 659.48 406.72 692.57 L391.75 704.18 C348.58 656.25 326.75 605.15 326.75 569.92 C326.75 549.56 339.95 536.99 357.37 536.99 L357.38 537 Z M353.29 480.83 C199.11 480.83 93.77 364.53 93.77 184.89 C93.77 65.46 152.13 -9.59003 254.05 -9.59003 C319.35 -9.59003 382.96 22.12 423.57 77.82 L412.62 -0.290024 C399.4 -94.41 329.34 -156.79 232.11 -156.79 C176.45 -156.79 136.81 -144.7 98.56 -112.99 L79.59 -145.51 C120.46 -177.42 167.07 -190.52 227.13 -190.52 C341.96 -190.52 433.35 -118.38 449.89 -0.290039 L510.46 431.68 C462.84 465.46 414.23 480.83 353.27 480.83 L353.29 480.83 Z M430.38 126.53 C391.63 65.2899 331.05 25.4299 264.57 25.7 C180.17 25.9799 132.27 88.05 132.27 189.88 C132.27 349.56 223.56 446.36 346.94 446.36 C401.87 446.36 437.17 433.33 470.25 410.84 L430.38 126.53 Z " />
<glyph glyph-name="Hbar" unicode="&#x126;" horiz-adv-x="666" d="M688.72 485.71 L623.71 485.71 L645.67 642 L608.44 642 L586.48 485.71 L216.19 485.71 L238.15 642 L200.9 642 L178.94 485.71 L114.44 485.71 L110.13 455.68 L174.73 455.68 L110.71 1.52588e-05 L147.96 1.52588e-05 L191.52 310.07 L561.81 310.07 L518.25 1.52588e-05 L555.48 1.52588e-05 L619.5 455.68 L684.42 455.68 L688.72 485.71 Z M566.72 344.94 L196.43 344.94 L211.99 455.68 L582.28 455.68 L566.72 344.94 Z " />
<glyph glyph-name="hbar" unicode="&#x127;" horiz-adv-x="545" d="M360.74 480.85 C285.59 480.85 221.99 440.01 185.49 391.79 L209.26 560.99 L316.06 560.99 L320.49 591.59 L213.57 591.59 L222.92 658.13 L185.69 658.13 L176.34 591.59 L105.79 591.59 L101.36 560.99 L172.04 560.99 L93.22 -0.00999451 L130.48 -0.00999451 L178.84 344.29 C203.32 383.24 261.05 445.26 350 445.26 C437.39 445.26 473.67 390.02 458.31 280.05 L419.16 0 L456.44 0 L496.01 283.68 C514.5 416.12 466.87 480.84 360.77 480.84 L360.74 480.85 Z " />
<glyph glyph-name="Itilde" unicode="&#x128;" horiz-adv-x="306" d="M361.33 770.83 C349.23 750.25 334.63 737.66 310.27 737.66 C275.23 737.66 246.86 781.98 204.37 781.98 C171.33 781.98 143.35 761.22 125.5 724.94 L151.8 713.88 C165.94 736.3 179.85 749.82 203.11 749.82 C237.48 749.82 264.62 705.79 310.27 705.79 C342.01 705.79 368.84 725.05 385.5 759.4 L361.33 770.83 Z M332.21 642.02 L154.46 642.02 L149.72 608.57 L219.97 608.57 L139.1 33.47 L68.9 33.47 L64.19 0.0200195 L241.94 0.0200195 L246.65 33.47 L176.33 33.47 L257.22 608.57 L327.47 608.57 L332.21 642.02 Z " />
<glyph glyph-name="itilde" unicode="&#x129;" horiz-adv-x="234" d="M97.59 568.83 C110.33 593.4 125.62 608.5 149.89 608.5 C180.83 608.5 199.48 568.05 240.93 568.05 C272.77 568.05 299.99 589.75 317.51 629.19 L293.7 640.18 C281.18 615.61 266.89 599.94 242.33 599.94 C210.65 599.94 191.35 641.39 151.25 641.39 C119.55 641.39 91.52 619.41 73.64 579.97 L97.59 568.83 Z M205.6 468.57 L120.8 468.57 L115.9 435.12 L163.38 435.12 L102.39 3.05176e-05 L139.72 3.05176e-05 L205.6 468.57 Z " />
<glyph glyph-name="Imacron" unicode="&#x12a;" horiz-adv-x="296" d="M141.81 754.23 L137.15 722.35 L360.86 722.35 L365.51 754.23 L141.81 754.23 Z M323.75 642 L151.85 642 L146.95 608.55 L214.39 608.55 L133.52 33.45 L66.43 33.45 L61.56 0 L233.46 0 L238.33 33.45 L170.74 33.45 L251.63 608.55 L318.76 608.55 L323.75 642 Z " />
<glyph glyph-name="imacron" unicode="&#x12b;" horiz-adv-x="234" d="M102.28 573.47 L280.66 573.47 L285.27 604.64 L106.79 604.64 L102.28 573.47 Z M205.76 468.57 L121.06 468.57 L116.16 435.12 L163.64 435.12 L102.65 0 L139.88 0 L205.76 468.57 Z " />
<glyph glyph-name="Iogonek" unicode="&#x12e;" horiz-adv-x="306" d="M327.47 608.55 L332.21 642 L154.46 642 L149.72 608.55 L219.97 608.55 L139.1 33.45 L68.9 33.45 L64.19 0 L134.05 0 C75.39 -38.53 57.41 -78.73 57.41 -116.09 C57.41 -152.56 81.24 -178.54 120.02 -178.54 C143.61 -178.54 164.3 -170.5 185.3 -154.22 L174.2 -126.3 C160.45 -136.61 146.29 -145.09 128.48 -145.09 C106.69 -145.09 94.4 -129.76 94.4 -105.59 C94.4 -71 118.77 -32.69 173.75 -0.0200043 L241.91 -0.0200043 L246.62 33.43 L176.3 33.43 L257.19 608.53 L327.47 608.55 Z " />
<glyph glyph-name="iogonek" unicode="&#x12f;" horiz-adv-x="234" d="M208.6 638.55 C187.4 638.55 169.99 620.74 169.99 600.45 C169.99 583.45 182.56 570.42 198.82 570.42 C218.88 570.42 237 587.65 237 608.53 C237 624.98 225.26 638.55 208.61 638.55 L208.6 638.55 Z M139.82 1.52588e-05 L205.73 468.57 L121 468.57 L116.1 435.12 L163.58 435.12 L102.59 3.05176e-05 C36.12 -36.35 18.59 -78.31 18.59 -116.08 C18.59 -152.55 42.42 -178.53 81.2 -178.53 C104.79 -178.53 125.48 -170.49 146.48 -154.21 L135.38 -126.29 C121.63 -136.6 107.47 -145.08 89.66 -145.08 C67.87 -145.08 55.58 -129.21 55.58 -105.57 C55.58 -71.14 77.09 -34.29 139.8 0.0100098 L139.82 1.52588e-05 Z " />
<glyph glyph-name="Idotaccent" unicode="&#x130;" horiz-adv-x="296" d="M247.77 711.92 C267.57 711.92 285.29 728.84 285.29 749.38 C285.29 765.6 273.79 778.92 257.31 778.92 C237.93 778.92 219.36 761.43 219.36 741.45 C219.36 724.7 231.76 711.93 247.76 711.93 L247.77 711.92 Z M318.79 608.56 L323.76 642.01 L151.86 642.01 L146.96 608.56 L214.4 608.56 L133.53 33.46 L66.44 33.46 L61.57 0.00999451 L233.47 0.00999451 L238.34 33.46 L170.75 33.46 L251.64 608.56 L318.79 608.56 Z " />
<glyph glyph-name="dotlessi" unicode="&#x131;" horiz-adv-x="234" d="M205.73 468.57 L121 468.57 L116.1 435.12 L163.58 435.12 L102.59 1.52588e-05 L139.82 1.52588e-05 L205.73 468.57 Z " />
<glyph glyph-name="IJ" unicode="&#x132;" horiz-adv-x="651" d="M251.7 608.55 L318.83 608.55 L323.8 642 L151.9 642 L147 608.55 L214.44 608.55 L133.55 33.45 L66.49 33.45 L61.59 0 L233.49 0 L238.39 33.45 L170.8 33.45 L251.7 608.55 Z M637.92 642 L473.46 642 L468.56 608.55 L596.64 608.55 L532.49 153.23 C518.12 50.58 466.01 25.73 405.86 25.73 C361.23 25.73 331.44 46.35 311.33 69.92 L284.36 41.96 C302.67 20.75 339.41 -9.57002 400.92 -9.57002 C478.95 -9.57002 551.99 29.96 569.49 155.09 L637.92 642 Z " />
<glyph glyph-name="ij" unicode="&#x133;" horiz-adv-x="445" d="M237.18 608.53 C237.18 624.98 225.44 638.55 208.79 638.55 C187.12 638.55 170.18 620.74 170.18 600.45 C170.18 583.45 182.75 570.42 199.01 570.42 C219.07 570.42 237.19 587.65 237.19 608.53 L237.18 608.53 Z M466.24 608.53 C466.24 624.98 454.4 638.55 437.86 638.55 C416.19 638.55 399.38 620.74 399.38 600.45 C399.38 583.45 412.14 570.42 428.5 570.42 C448.56 570.42 466.25 587.65 466.25 608.53 L466.24 608.53 Z M205.93 468.63 L121.2 468.63 L116.33 435.18 L163.81 435.18 L102.82 0.0600433 L140.05 0.0600433 L205.93 468.63 Z M434.8 468.63 L342.76 468.63 L337.86 435.18 L392.48 435.18 L327.2 -36.0999 C315.04 -123.79 264.95 -159.63 218.39 -159.63 C182.41 -159.63 163.57 -144.94 146.71 -127.06 L124.74 -156.1 C136.74 -168.13 161.08 -194.08 216.78 -194.08 C281.18 -194.08 348.41 -144.43 363.8 -35.1899 L434.8 468.63 Z " />
<glyph glyph-name="Kcommaaccent" unicode="&#x136;" horiz-adv-x="542" d="M436.76 93.63 L303.73 347.44 L591.91 641.99 L544.72 641.99 L185.06 274.75 L236.66 641.99 L199.41 641.99 L109.21 -0.00999451 L146.47 -0.00999451 L177.1 217.99 L274.68 317.73 L402.61 75.59 C431.13 21.85 461.98 -0.00999451 513.67 -0.00999451 L518.54 33.44 C482.28 33.44 457.19 54.7 436.79 93.63 L436.76 93.63 Z M303.19 -42 C282.22 -42 262.3 -60.36 262.3 -82.14 C262.3 -98.18 272.95 -113.51 292.39 -114.27 C289.31 -134.02 279.92 -164.47 253.85 -197.56 L268.82 -209.17 C311.99 -161.24 333.82 -110.14 333.82 -74.91 C333.82 -54.55 320.62 -41.99 303.2 -41.99 L303.19 -42 Z " />
<glyph glyph-name="kcommaaccent" unicode="&#x137;" horiz-adv-x="462" d="M379.45 71.3 L257.6 263.52 L482.05 468.57 L433.67 468.57 L161.26 221.04 L222.67 658.14 L185.67 658.14 L93.2 0.0100098 L130.2 0.0100098 L153.92 168.82 L228.96 237.38 L348.98 49.13 C371.1 14.82 398.32 0.0400085 434.74 0.0400085 L439.58 33.46 C418.41 33.46 398.28 41.8 379.45 71.31 L379.45 71.3 Z M243.73 -41.99 C222.76 -41.99 202.84 -60.35 202.84 -82.13 C202.84 -98.17 213.49 -113.5 232.93 -114.26 C229.85 -134.01 220.46 -164.46 194.39 -197.55 L209.36 -209.16 C252.53 -161.23 274.36 -110.13 274.36 -74.9 C274.36 -54.54 261.16 -41.98 243.74 -41.98 L243.73 -41.99 Z " />
<glyph glyph-name="kgreenlandic" unicode="&#x138;" horiz-adv-x="462" d="M379.45 71.3 L257.6 263.52 L482.05 468.57 L433.67 468.57 L161.25 221.03 L196.02 468.57 L159.02 468.57 L93.21 0 L130.21 0 L153.92 168.8 L228.97 237.36 L348.99 49.11 C371.11 14.8 398.33 0.0200043 434.75 0.0200043 L439.59 33.44 C418.42 33.44 398.29 41.78 379.46 71.29 L379.45 71.3 Z " />
<glyph glyph-name="Lacute" unicode="&#x139;" horiz-adv-x="470" d="M359.66 752.66 L349.04 790.54 L174.42 708.08 L180.29 682.68 L359.66 752.66 Z M151.43 34.29 L236.66 641.99 L199.41 641.99 L109.21 -0.00999451 L433.89 -0.00999451 L438.89 34.29 L151.43 34.29 Z " />
<glyph glyph-name="lacute" unicode="&#x13a;" horiz-adv-x="245" d="M138.6 682.69 L317.98 752.67 L307.43 790.55 L132.73 708.09 L138.6 682.69 Z M222.48 658.14 L184.91 658.14 L104.18 80.29 C95.36 17.66 120.63 -7.56001 169.36 -7.56001 C191.57 -7.56001 207.39 -2.28001 214.02 -0.0800171 L218.77 32.62 C212.43 30.42 200.02 25.25 178.95 25.25 C148.04 25.25 135.52 38.11 141.42 80.25 L222.48 658.14 Z " />
<glyph glyph-name="Lcommaaccent" unicode="&#x13b;" horiz-adv-x="470" d="M151.35 34.3 L236.65 642 L199.4 642 L109.2 0 L433.88 0 L438.88 34.3 L151.35 34.3 Z M275.09 -42 C254.12 -42 234.2 -60.36 234.2 -82.14 C234.2 -98.18 244.85 -113.51 264.29 -114.27 C261.21 -134.02 251.82 -164.47 225.75 -197.56 L240.72 -209.17 C283.9 -161.24 305.73 -110.14 305.73 -74.91 C305.73 -54.55 292.53 -41.99 275.11 -41.99 L275.09 -42 Z " />
<glyph glyph-name="lcommaaccent" unicode="&#x13c;" horiz-adv-x="245" d="M222.48 658.13 L184.91 658.13 L104.18 80.28 C95.36 17.65 120.63 -7.57001 169.36 -7.57001 C191.57 -7.57001 207.39 -2.29001 214.02 -0.0900116 L218.77 32.61 C212.43 30.41 200.02 25.24 178.95 25.24 C148.04 25.24 135.52 38.1 141.42 80.24 L222.48 658.13 Z M151.67 -42.01 C130.7 -42.01 110.78 -60.37 110.78 -82.15 C110.78 -98.19 121.43 -113.52 140.87 -114.28 C137.79 -134.03 128.4 -164.48 102.33 -197.57 L117.3 -209.18 C160.47 -161.25 182.3 -110.15 182.3 -74.92 C182.3 -54.56 169.1 -42 151.68 -42 L151.67 -42.01 Z " />
<glyph glyph-name="Lcaron" unicode="&#x13d;" horiz-adv-x="472" d="M405.47 521.33 C438.31 567 455.4 613.44 455.4 657.86 C455.4 665.52 455.1 670.02 454.93 671.6 L414.85 671.6 C415.45 669.22 416.39 657.32 416.39 644.79 C416.39 621.73 413.06 589.22 385.19 533.14 L405.47 521.33 Z M236.66 642 L199.41 642 L109.21 1.52588e-05 L433.89 1.52588e-05 L438.89 34.3 L151.42 34.3 L236.66 642 Z " />
<glyph glyph-name="lcaron" unicode="&#x13e;" horiz-adv-x="260" d="M291.37 521.33 C324.21 567 341.3 613.44 341.3 657.86 C341.3 665.52 341 670.02 340.8 671.6 L300.74 671.6 C301.41 669.22 302.28 657.32 302.28 644.79 C302.28 621.73 298.95 589.22 271.08 533.14 L291.37 521.33 Z M222.47 658.13 L184.9 658.13 L104.17 80.28 C95.35 17.65 120.62 -7.56999 169.35 -7.56999 C191.56 -7.56999 207.38 -2.28999 214.01 -0.0899963 L218.76 32.61 C212.42 30.41 200.01 25.24 178.94 25.24 C148.03 25.24 135.51 38.1 141.41 80.24 L222.47 658.13 Z " />
<glyph glyph-name="Ldot" unicode="&#x13f;" horiz-adv-x="472" d="M151.42 34.3 L236.65 642 L199.4 642 L109.2 0 L433.88 0 L438.88 34.3 L151.42 34.3 Z M385.18 306.5 C406.26 306.5 426.35 324.78 426.35 347.18 C426.35 364.86 413.08 378.79 395.45 378.79 C374.48 378.79 354.39 360.66 354.39 338.55 C354.39 320.37 367.56 306.51 385.18 306.51 L385.18 306.5 Z " />
<glyph glyph-name="ldot" unicode="&#x140;" horiz-adv-x="263" d="M222.48 658.13 L184.91 658.13 L104.18 80.28 C95.36 17.65 120.63 -7.57001 169.36 -7.57001 C191.57 -7.57001 207.39 -2.29001 214.02 -0.0900116 L218.77 32.61 C212.43 30.41 200.02 25.24 178.95 25.24 C148.04 25.24 135.52 38.1 141.42 80.24 L222.48 658.13 Z M266.49 290.49 C287.6 290.49 307.66 308.77 307.66 331.17 C307.66 348.85 294.51 362.78 276.89 362.78 C255.83 362.78 235.81 344.65 235.81 322.54 C235.81 304.36 248.91 290.5 266.47 290.5 L266.49 290.49 Z " />
<glyph glyph-name="Lslash" unicode="&#x141;" horiz-adv-x="474" d="M155.54 34.3 L194.93 315.14 L314.93 374.45 L304.56 402.34 L199.9 350.59 L240.77 642 L203.52 642 L159.79 330.75 L76.05 289.34 L86.46 261.52 L154.81 295.3 L113.32 -0.0100098 L438.03 -0.0100098 L443.04 34.29 L155.54 34.3 Z " />
<glyph glyph-name="lslash" unicode="&#x142;" horiz-adv-x="292" d="M169.93 80.25 L203.12 316.84 L285.54 357.85 L275.74 384.04 L207.8 350.21 L251 658.12 L213.43 658.12 L167.62 330.2 L85.18 289.15 L95.02 263.03 L162.96 296.84 L132.7 80.26 C123.95 17.63 149.15 -7.59001 197.87 -7.59001 C220.08 -7.59001 235.9 -2.31001 242.53 -0.110016 L247.28 32.59 C240.94 30.39 228.53 25.22 207.46 25.22 C176.54 25.22 164.05 38.08 169.92 80.22 L169.93 80.25 Z " />
<glyph glyph-name="Nacute" unicode="&#x143;" horiz-adv-x="664" d="M547.83 752.66 L536.75 792.37 L361.42 709.72 L368.53 682.69 L547.83 752.66 Z M602.84 642.01 L524.82 84.18 L522.42 62.28 L515.45 78.21 L235.64 642.01 L199.43 642.01 L109.2 0.010025 L145.46 0.010025 L223.39 557.14 L226.47 582.95 L235.34 561.13 L513.15 1.52588e-05 L548.91 1.52588e-05 L639.11 642 L602.84 642.01 Z " />
<glyph glyph-name="nacute" unicode="&#x144;" horiz-adv-x="547" d="M444.34 646.23 L421.22 679.34 L266.17 553.73 L281.79 530.75 L444.34 646.23 Z M358.36 480.85 C286.79 480.85 223.69 440.25 187.15 392.22 C190.79 430.08 186.53 460.8 179.9 478.51 L143.1 469.17 C147.96 450.98 154.94 426.06 146.57 366.7 L95.22 1.52588e-05 L132.48 1.52588e-05 L180.79 344.69 C205.68 383.66 265.58 445.27 349.18 445.27 C441.28 445.27 474.99 390.1 459.91 280.05 L421.48 1.52588e-05 L458.76 1.52588e-05 L498.33 283.68 C516.85 416.12 466.98 480.84 358.36 480.84 L358.36 480.85 Z " />
<glyph glyph-name="Ncommaaccent" unicode="&#x145;" horiz-adv-x="659" d="M602.84 642 L524.82 84.17 L522.42 62.27 L515.45 78.2 L235.64 642 L199.43 642 L109.2 0 L145.46 0 L223.39 557.13 L226.47 582.94 L235.34 561.12 L513.15 -0.0100098 L548.91 -0.0100098 L639.11 641.99 L602.84 642 Z M325.57 -42.01 C304.6 -42.01 284.68 -60.37 284.68 -82.15 C284.68 -98.19 295.33 -113.52 314.77 -114.28 C311.69 -134.03 302.3 -164.48 276.23 -197.57 L291.2 -209.18 C334.37 -161.25 356.2 -110.15 356.2 -74.92 C356.2 -54.56 343 -42 325.58 -42 L325.57 -42.01 Z " />
<glyph glyph-name="ncommaaccent" unicode="&#x146;" horiz-adv-x="547" d="M358.35 480.85 C286.78 480.85 223.68 440.25 187.14 392.22 C190.78 430.08 186.52 460.8 179.89 478.51 L143.09 469.17 C147.95 450.98 154.93 426.06 146.56 366.7 L95.21 1.52588e-05 L132.47 1.52588e-05 L180.78 344.69 C205.67 383.66 265.57 445.27 349.17 445.27 C441.27 445.27 474.98 390.1 459.9 280.05 L421.47 1.52588e-05 L458.75 1.52588e-05 L498.32 283.68 C516.84 416.12 466.97 480.84 358.35 480.84 L358.35 480.85 Z M269.33 -42.01 C248.36 -42.01 228.44 -60.37 228.44 -82.15 C228.44 -98.19 239.09 -113.52 258.53 -114.28 C255.45 -134.03 246.06 -164.48 219.99 -197.57 L234.96 -209.18 C278.14 -161.25 299.97 -110.15 299.97 -74.92 C299.97 -54.56 286.77 -42 269.35 -42 L269.33 -42.01 Z " />
<glyph glyph-name="Ncaron" unicode="&#x147;" horiz-adv-x="659" d="M447 680.03 L563.74 773.58 L549.1 794.56 L436.85 710.93 L347.28 793.64 L329.95 773.57 L420.45 680.02 L447 680.03 Z M602.84 641.99 L524.82 84.16 L522.42 62.26 L515.45 78.19 L235.64 641.99 L199.43 641.99 L109.2 -0.0100098 L145.46 -0.0100098 L223.39 557.12 L226.47 582.93 L235.34 561.11 L513.15 -0.0200195 L548.91 -0.0200195 L639.11 641.98 L602.84 641.99 Z " />
<glyph glyph-name="ncaron" unicode="&#x148;" horiz-adv-x="547" d="M361.18 534.12 L485.88 655.72 L466.7 676.47 L349.77 568.05 L265.29 678.62 L242.99 658.58 L332.64 534.11 L361.18 534.12 Z M358.35 480.84 C286.78 480.84 223.68 440.24 187.14 392.21 C190.78 430.07 186.52 460.79 179.89 478.5 L143.09 469.16 C147.95 450.97 154.93 426.05 146.56 366.69 L95.21 -0.00997925 L132.47 -0.00997925 L180.78 344.68 C205.67 383.65 265.57 445.26 349.17 445.26 C441.27 445.26 474.98 390.09 459.9 280.04 L421.47 -0.00997925 L458.75 -0.00997925 L498.32 283.67 C516.84 416.11 466.97 480.83 358.35 480.83 L358.35 480.84 Z " />
<glyph glyph-name="napostrophe" unicode="&#x149;" horiz-adv-x="577" d="M141.12 493.7 C186.52 546.9 211.7 600.99 211.7 641.71 C211.7 663.97 198.14 676.48 180.27 676.48 C158.55 676.48 137.84 657.33 137.84 634.41 C137.84 617.66 148.49 601.79 169.03 601.14 C164.8 575.75 153.09 542.53 124.86 506.28 L141.12 493.7 Z M393.13 480.85 C318.02 480.85 254.43 440.19 217.9 392.11 C221.68 430 218.05 460.8 211.42 478.52 L173.9 469.18 C178.76 450.99 186.02 426.07 177.65 366.71 L126.3 0.0100098 L162.81 0.0100098 L211.46 344.51 C236.16 383.47 293.77 445.28 382.48 445.28 C469.91 445.28 505.71 390.04 490.28 280.07 L451.13 0.0200043 L489.13 0.0200043 L528.7 283.7 C547.22 416.14 499.49 480.86 393.13 480.86 L393.13 480.85 Z " />
<glyph glyph-name="Eng" unicode="&#x14a;" horiz-adv-x="659" d="M639.1 642 L602.84 642 L524.82 84.17 L522.42 62.27 L515.45 78.2 L235.64 642 L199.43 642 L109.2 0 L145.46 0 L223.39 557.13 L226.47 582.94 L235.34 561.12 L512.78 0.73999 L508.16 -33.28 C496.32 -121.45 434.25 -162.12 377.92 -162.12 C336.47 -162.12 311.06 -145.8 292.59 -126.72 L265.25 -152.2 C275.02 -164.38 311.43 -196 374.07 -196 C450.93 -196 528.23 -148.51 544.6 -31.33 L557.35 60.1 L639.1 642 Z " />
<glyph glyph-name="eng" unicode="&#x14b;" horiz-adv-x="547" d="M358.35 480.85 C286.78 480.85 223.68 440.25 187.14 392.22 C190.78 430.08 186.52 460.8 179.89 478.51 L143.09 469.17 C147.95 450.98 154.93 426.06 146.56 366.7 L95.21 1.52588e-05 L132.47 1.52588e-05 L180.78 344.69 C205.67 383.66 265.57 445.27 349.17 445.27 C441.27 445.27 474.98 390.1 459.9 280.05 L421.47 1.52588e-05 L415.85 -36.39 C403.04 -118.93 355.81 -161.25 299.06 -161.25 C265.68 -161.25 243.6 -151.11 220.08 -127.23 L195.54 -155 C215.14 -173.69 242.32 -194.85 294.32 -194.85 C368.52 -194.85 434.98 -148.51 453.27 -34.04 L458.74 0 L498.31 283.68 C516.83 416.12 466.96 480.84 358.34 480.84 L358.35 480.85 Z " />
<glyph glyph-name="Omacron" unicode="&#x14c;" horiz-adv-x="700" d="M331.14 722.35 L571.55 722.35 L576.1 754.23 L335.72 754.23 L331.14 722.35 Z M441 654.71 C245.21 654.71 108.15 472.25 108.15 264.03 C108.15 106.48 195.21 -9.58 347.6 -9.58 C546.99 -9.58 681.34 174.42 681.34 382.97 C681.34 542.98 593.42 654.7 441 654.7 L441 654.71 Z M435.98 619.37 C569.79 619.37 642.61 525.26 642.61 381.69 C642.61 194.21 528.89 28.14 352.63 25.78 C219.73 23.99 146.89 123.03 146.89 264.34 C146.89 452.05 262.39 619.37 435.98 619.37 L435.98 619.37 Z " />
<glyph glyph-name="omacron" unicode="&#x14d;" horiz-adv-x="559" d="M241.91 573.47 L479.74 573.47 L484.25 604.64 L246.42 604.64 L241.91 573.47 Z M289.03 -9.56 C428.91 -9.56 530.83 105.91 530.83 270.74 C530.83 392.04 458.53 480.85 336.15 480.85 C202.18 480.85 94.34 364.99 94.34 199.2 C94.34 76.67 167.33 -9.55998 289.04 -9.55998 L289.03 -9.56 Z M294.14 25.74 C186.95 25.74 132.86 101.9 132.86 203.2 C132.86 339.81 215.71 445.55 331.07 445.55 C437.69 445.55 492.24 369.26 492.24 266.47 C492.24 130.23 411.32 25.72 294.15 25.72 L294.14 25.74 Z " />
<glyph glyph-name="Ohungarumlaut" unicode="&#x150;" horiz-adv-x="700" d="M342.6 670.52 L496.62 780 L476.41 810.57 L330.22 690.23 L342.6 670.52 Z M479.01 670.52 L633.03 780 L612.82 810.57 L466.63 690.23 L479.01 670.52 Z M441 654.72 C245.21 654.72 108.15 472.26 108.15 264.04 C108.15 106.49 195.21 -9.56999 347.6 -9.56999 C546.99 -9.56999 681.34 174.43 681.34 382.98 C681.34 542.99 593.42 654.71 441 654.71 L441 654.72 Z M435.98 619.38 C569.79 619.38 642.61 525.27 642.61 381.7 C642.61 194.22 528.89 28.15 352.63 25.79 C219.73 24 146.89 123.04 146.89 264.35 C146.89 452.06 262.39 619.38 435.98 619.38 L435.98 619.38 Z " />
<glyph glyph-name="ohungarumlaut" unicode="&#x151;" horiz-adv-x="559" d="M259.5 519.94 L382.39 665.35 L352.55 688.01 L239.81 533.82 L259.5 519.94 Z M398.65 519.94 L521.56 665.35 L491.69 688.01 L378.95 533.82 L398.65 519.94 Z M289.03 -9.56 C428.91 -9.56 530.83 105.91 530.83 270.74 C530.83 392.04 458.53 480.85 336.15 480.85 C202.18 480.85 94.34 364.99 94.34 199.2 C94.34 76.67 167.33 -9.55998 289.04 -9.55998 L289.03 -9.56 Z M294.14 25.74 C186.95 25.74 132.86 101.9 132.86 203.2 C132.86 339.81 215.71 445.55 331.07 445.55 C437.69 445.55 492.24 369.26 492.24 266.47 C492.24 130.23 411.32 25.72 294.15 25.72 L294.14 25.74 Z " />
<glyph glyph-name="OE" unicode="&#x152;" horiz-adv-x="873" d="M886.97 607.42 L892.04 642 L551.83 642 C522.9 649.72 490.55 654.72 450.86 654.72 C243.27 654.72 107.91 473.14 107.91 263.28 C107.91 108.5 195.2 -9.57001 362.8 -9.57001 C390.14 -9.57001 428.43 -7.5 460.28 0 L814.08 0 L819.12 34.58 L499.38 34.58 L538.96 316.65 L817.52 316.65 L822.49 351.23 L543.82 351.23 L579.77 607.41 L886.97 607.42 Z M146.87 265.5 C146.87 449.93 259.13 619.38 445.8 619.38 C484.65 619.38 516.04 614.79 542.61 605.74 L462.66 37.33 C429.49 27.12 392.66 26.05 367.83 26.05 C223.13 26.05 146.88 124.06 146.88 265.51 L146.87 265.5 Z " />
<glyph glyph-name="oe" unicode="&#x153;" horiz-adv-x="903" d="M691.43 25.73 C586.68 25.73 532.68 95.58 532.56 200.46 C549.72 199.33 567.2 198.7 586.49 198.7 C729.71 198.7 871.98 241.9 871.98 364.67 C871.98 436.74 819.79 480.85 737.61 480.85 C646.97 480.85 564.61 428.71 522.8 337.32 C500.85 423.18 434.75 480.84 336.14 480.84 C202.17 480.84 94.33 364.98 94.33 199.19 C94.33 76.66 167.32 -9.56998 289.03 -9.56998 C383.88 -9.56998 461.28 43.53 501.28 129.11 C522.93 39.08 590.97 -9.55997 686.09 -9.55997 C744.98 -9.55997 793.44 9.56003 836.54 46.03 L821.98 76.22 C786.2 44.04 743.42 25.73 691.42 25.73 L691.43 25.73 Z M734.03 445.83 C796.31 445.83 833.27 414.19 833.27 359.73 C833.27 265 709.98 231.88 592.02 231.77 C570.95 231.75 552.01 232.58 534.21 233.95 C546.64 356.49 627.67 445.85 734.04 445.85 L734.03 445.83 Z M294.13 25.75 C186.94 25.75 132.85 101.91 132.85 203.21 C132.85 339.82 215.7 445.56 331.06 445.56 C437.68 445.56 492.23 369.27 492.23 266.48 C492.23 130.24 411.31 25.7301 294.14 25.7301 L294.13 25.75 Z " />
<glyph glyph-name="Racute" unicode="&#x154;" horiz-adv-x="547" d="M469.5 752.66 L458.42 792.37 L283.09 709.72 L290.2 682.69 L469.5 752.66 Z M415.73 93.64 L350.27 278.73 C464.85 296.06 538.72 371.37 538.72 481.85 C538.72 583.21 473.92 642 357.01 642 L198.69 642 L108.49 0 L145.74 0 L184.37 274.92 L297.87 274.92 C301.98 274.92 306.05 274.99 310.08 275.12 L380.8 78.55 C402.69 17.13 437.59 0 487.82 0 L492.62 33.45 C458.46 33.45 431.46 48.63 415.73 93.63 L415.73 93.64 Z M189.18 309.21 L231.06 607.26 L351.42 607.26 C456.18 607.26 499.91 557.26 499.91 476.52 C499.91 381.73 432.17 309.21 303.06 309.21 L189.18 309.21 Z " />
<glyph glyph-name="racute" unicode="&#x155;" horiz-adv-x="354" d="M379.25 646.23 L356.13 679.34 L201.08 553.73 L216.7 530.75 L379.25 646.23 Z M350.09 480.87 C277.06 480.87 219.78 434.11 184.72 375.29 L185.18 378.59 C191.31 422.64 187.29 458.72 179.89 478.5 L142.95 469.16 C147.81 450.97 154.93 426.05 146.56 366.69 L95.21 -0.00999451 L132.47 -0.00999451 L176.36 315.18 C201.32 371.19 252.79 443.73 340.69 443.73 C356.08 443.73 370.24 440.41 380.11 436.57 L394.78 473.57 C382.43 477.9 364.82 480.87 350.09 480.87 L350.09 480.87 Z " />
<glyph glyph-name="Rcommaaccent" unicode="&#x156;" horiz-adv-x="547" d="M415.73 93.63 L350.27 278.72 C464.85 296.05 538.72 371.36 538.72 481.84 C538.72 583.2 473.92 641.99 357.01 641.99 L198.69 641.99 L108.49 -0.0100098 L145.74 -0.0100098 L184.37 274.91 L297.87 274.91 C301.98 274.91 306.05 274.98 310.08 275.11 L380.8 78.54 C402.69 17.12 437.59 -0.0100098 487.82 -0.0100098 L492.62 33.44 C458.46 33.44 431.46 48.62 415.73 93.62 L415.73 93.63 Z M189.18 309.2 L231.06 607.25 L351.42 607.25 C456.18 607.25 499.91 557.25 499.91 476.51 C499.91 381.72 432.17 309.2 303.06 309.2 L189.18 309.2 Z M279.81 -42.02 C258.84 -42.02 238.92 -60.38 238.92 -82.16 C238.92 -98.2 249.57 -113.53 269.01 -114.29 C265.93 -134.04 256.54 -164.49 230.47 -197.58 L245.44 -209.19 C288.61 -161.26 310.44 -110.16 310.44 -74.93 C310.44 -54.57 297.24 -42.01 279.82 -42.01 L279.81 -42.02 Z " />
<glyph glyph-name="rcommaaccent" unicode="&#x157;" horiz-adv-x="354" d="M350.08 480.88 C277.05 480.88 219.77 434.12 184.71 375.3 L185.17 378.6 C191.3 422.65 187.28 458.73 179.88 478.51 L142.94 469.17 C147.8 450.98 154.92 426.06 146.55 366.7 L95.2 1.52588e-05 L132.46 1.52588e-05 L176.35 315.19 C201.31 371.2 252.78 443.74 340.68 443.74 C356.07 443.74 370.23 440.42 380.1 436.58 L394.77 473.58 C382.42 477.91 364.81 480.88 350.08 480.88 L350.08 480.88 Z M106.57 -42 C85.6 -42 65.68 -60.36 65.68 -82.14 C65.68 -98.18 76.33 -113.51 95.77 -114.27 C92.69 -134.02 83.3 -164.47 57.23 -197.56 L72.2 -209.17 C115.37 -161.24 137.2 -110.14 137.2 -74.91 C137.2 -54.55 124 -41.99 106.58 -41.99 L106.57 -42 Z " />
<glyph glyph-name="Rcaron" unicode="&#x158;" horiz-adv-x="547" d="M374.96 680.03 L491.7 773.58 L477.06 794.56 L364.81 710.93 L275.24 793.64 L257.91 773.57 L348.41 680.02 L374.96 680.03 Z M415.73 93.62 L350.27 278.71 C464.85 296.04 538.72 371.35 538.72 481.83 C538.72 583.19 473.92 641.98 357.01 641.98 L198.69 641.98 L108.49 -0.0200195 L145.74 -0.0200195 L184.37 274.9 L297.87 274.9 C301.98 274.9 306.05 274.97 310.08 275.1 L380.8 78.53 C402.69 17.11 437.59 -0.0200195 487.82 -0.0200195 L492.62 33.43 C458.46 33.43 431.46 48.61 415.73 93.61 L415.73 93.62 Z M189.18 309.19 L231.06 607.24 L351.42 607.24 C456.18 607.24 499.91 557.24 499.91 476.5 C499.91 381.71 432.17 309.19 303.06 309.19 L189.18 309.19 Z " />
<glyph glyph-name="rcaron" unicode="&#x159;" horiz-adv-x="354" d="M296.1 534.12 L420.8 655.72 L401.62 676.47 L284.69 568.05 L200.21 678.62 L177.91 658.58 L267.56 534.11 L296.1 534.12 Z M184.72 375.29 L185.18 378.59 C191.31 422.64 187.29 458.72 179.89 478.5 L142.95 469.16 C147.81 450.97 154.93 426.05 146.56 366.69 L95.21 -0.00997925 L132.47 -0.00997925 L176.36 315.18 C201.32 371.19 252.79 443.73 340.69 443.73 C356.08 443.73 370.24 440.41 380.11 436.57 L394.78 473.57 C382.43 477.9 364.82 480.87 350.09 480.87 C277.06 480.87 219.78 434.11 184.72 375.29 L184.72 375.29 Z " />
<glyph glyph-name="Sacute" unicode="&#x15a;" horiz-adv-x="510" d="M285.5 682.69 L464.81 752.67 L453.73 792.38 L278.4 709.73 L285.5 682.69 Z M349.82 654.73 C226.64 654.73 143.73 578.7 143.73 483.78 C143.73 373.34 227.19 346.92 304.51 316.9 C371.06 290.99 433.04 263.29 433.04 175.59 C433.04 93.09 368.26 26.03 260.45 26.03 C174.85 26.03 125.9 57.68 93.88 97.4 L66.91 69.87 C100.26 29.72 156.85 -9.54999 255.52 -9.54999 C387.92 -9.54999 471.48 69.65 471.48 180.79 C471.48 287.33 398.61 322.44 326.61 351.18 C254.95 379.76 182.63 400.35 182.63 487.65 C182.63 554.79 247.18 619.15 344.45 619.15 C412.77 619.15 452.98 597.15 491.07 562.2 L515.45 592.37 C477.9 628.67 429.33 654.73 349.85 654.73 L349.82 654.73 Z " />
<glyph glyph-name="sacute" unicode="&#x15b;" horiz-adv-x="442" d="M234.38 530.75 L396.94 646.23 L373.82 679.34 L218.77 553.73 L234.38 530.75 Z M294.63 480.85 C193.69 480.85 118.02 431.85 118.02 351.25 C118.02 190.55 363.63 259.06 363.63 128.47 C363.63 73.28 312.82 24.88 221.55 24.88 C149.29 24.88 106.74 52.3 84.2 74.66 L64.2 42.99 C93.95 15.01 145.23 -9.57001 216.28 -9.57001 C327.42 -9.57001 400.98 48 400.98 133.73 C400.98 295.45 156.09 231.02 156.09 354.06 C156.09 409.23 210.36 446.4 289.49 446.4 C347.73 446.4 383.63 432.2 414.19 413.71 L426.71 447.07 C402.91 461.5 361.9 480.84 294.64 480.84 L294.63 480.85 Z " />
<glyph glyph-name="Scedilla" unicode="&#x15e;" horiz-adv-x="510" d="M344.43 619.13 C412.75 619.13 452.96 597.13 491.05 562.18 L515.43 592.35 C477.88 628.65 429.31 654.71 349.83 654.71 C226.65 654.71 143.74 578.68 143.74 483.76 C143.74 373.32 227.2 346.9 304.52 316.88 C371.07 290.97 433.05 263.27 433.05 175.57 C433.05 93.07 368.27 26.01 260.46 26.01 C174.86 26.01 125.91 57.66 93.89 97.38 L66.92 69.85 C98.46 31.87 150.8 -5.31999 239.87 -9.23999 L212.45 -62.4 C261.99 -65.02 287.05 -80.31 287.05 -110.03 C287.05 -145.41 258.47 -160.39 220.15 -160.39 C198.01 -160.39 181.79 -152.47 173.07 -146.96 L157.9 -173.74 C165.49 -179.59 189.68 -189.28 218.87 -189.28 C271.49 -189.28 321.79 -167.23 321.79 -107 C321.79 -66.75 291.57 -45.99 252.93 -40.32 L268.93 -9.32001 C393.54 -4.15001 471.49 73.4 471.49 180.75 C471.49 287.29 398.62 322.4 326.62 351.14 C254.96 379.72 182.64 400.31 182.64 487.61 C182.64 554.75 247.19 619.11 344.46 619.11 L344.43 619.13 Z " />
<glyph glyph-name="scedilla" unicode="&#x15f;" horiz-adv-x="442" d="M289.49 446.4 C347.73 446.4 383.63 432.2 414.19 413.71 L426.71 447.07 C402.91 461.5 361.9 480.84 294.64 480.84 C193.7 480.84 118.03 431.84 118.03 351.24 C118.03 190.54 363.64 259.05 363.64 128.46 C363.64 73.27 312.83 24.87 221.56 24.87 C149.3 24.87 106.75 52.29 84.21 74.65 L64.21 42.98 C92.8 16.09 141.27 -7.66002 208.07 -9.47002 L180.77 -62.4 C230.31 -65.02 255.37 -80.31 255.37 -110.03 C255.37 -145.41 226.8 -160.39 188.48 -160.39 C166.34 -160.39 150.12 -152.47 141.4 -146.96 L126.23 -173.74 C133.82 -179.59 158.01 -189.28 187.2 -189.28 C239.82 -189.28 290.12 -167.23 290.12 -107 C290.12 -66.75 259.9 -45.99 221.26 -40.32 L237.49 -8.87003 C336.68 -1.98003 400.98 53.55 400.98 133.7 C400.98 295.42 156.09 230.99 156.09 354.03 C156.09 409.2 210.36 446.37 289.49 446.37 L289.49 446.4 Z " />
<glyph glyph-name="Scaron" unicode="&#x160;" horiz-adv-x="510" d="M370.26 680.03 L487 773.58 L472.36 794.56 L360.11 710.93 L270.54 793.64 L253.2 773.57 L343.7 680.02 L370.26 680.03 Z M349.81 654.7 C226.63 654.7 143.72 578.67 143.72 483.75 C143.72 373.31 227.18 346.89 304.5 316.87 C371.05 290.96 433.03 263.26 433.03 175.56 C433.03 93.06 368.25 26 260.44 26 C174.84 26 125.89 57.65 93.87 97.37 L66.9 69.84 C100.25 29.69 156.84 -9.58002 255.51 -9.58002 C387.91 -9.58002 471.47 69.62 471.47 180.76 C471.47 287.3 398.6 322.41 326.6 351.15 C254.94 379.73 182.62 400.32 182.62 487.62 C182.62 554.76 247.17 619.12 344.44 619.12 C412.76 619.12 452.97 597.12 491.06 562.17 L515.44 592.34 C477.89 628.64 429.32 654.7 349.84 654.7 L349.81 654.7 Z " />
<glyph glyph-name="scaron" unicode="&#x161;" horiz-adv-x="442" d="M285.24 534.12 L313.78 534.12 L438.48 655.72 L419.3 676.47 L302.37 568.05 L217.89 678.62 L195.59 658.58 L285.24 534.12 Z M294.63 480.84 C193.69 480.84 118.02 431.84 118.02 351.24 C118.02 190.54 363.63 259.05 363.63 128.46 C363.63 73.27 312.82 24.87 221.55 24.87 C149.29 24.87 106.74 52.29 84.2 74.65 L64.2 42.98 C93.95 15 145.23 -9.57999 216.28 -9.57999 C327.42 -9.57999 400.98 47.99 400.98 133.72 C400.98 295.44 156.09 231.01 156.09 354.05 C156.09 409.22 210.36 446.39 289.49 446.39 C347.73 446.39 383.63 432.19 414.19 413.7 L426.71 447.06 C402.91 461.49 361.9 480.83 294.64 480.83 L294.63 480.84 Z " />
<glyph glyph-name="uni0162" unicode="&#x162;" horiz-adv-x="526" d="M281.18 0 L366.56 608.13 L575.19 608.13 L580.16 642 L126.16 642 L121.19 608.13 L329.32 608.13 L244 0 L247.92 0 L215.74 -62.38 C265.28 -65 290.34 -80.29 290.34 -110.01 C290.34 -145.39 261.76 -160.37 223.44 -160.37 C201.3 -160.37 185.08 -152.45 176.36 -146.94 L161.18 -173.72 C168.77 -179.57 192.96 -189.26 222.15 -189.26 C274.77 -189.26 325.07 -167.21 325.07 -106.98 C325.07 -66.73 294.85 -45.97 256.21 -40.3 L277 -0.010025 L281.18 0 Z " />
<glyph glyph-name="uni0163" unicode="&#x163;" horiz-adv-x="356" d="M209.68 436.53 L364.42 436.53 L368.99 468.56 L214.2 468.56 L232.13 595.43 L192.73 585.94 L176.28 468.56 L101.49 468.56 L96.89 436.53 L171.79 436.53 L129.81 136.99 C117.01 45.67 155.14 2.69998 208.78 -7.27002 L180.34 -62.4 C229.88 -65.02 254.94 -80.31 254.94 -110.03 C254.94 -145.41 226.37 -160.39 188.05 -160.39 C165.91 -160.39 149.69 -152.47 140.97 -146.96 L125.79 -173.74 C133.38 -179.59 157.57 -189.28 186.76 -189.28 C239.38 -189.28 289.68 -167.23 289.68 -107 C289.68 -66.75 259.46 -45.99 220.82 -40.32 L236.68 -9.59004 C288.19 -9.11005 321.44 13.2 340.07 28.7599 L326.56 57.7899 C306.52 41.5199 280.11 24.8599 242.53 24.8599 C196.32 24.8599 154.52 48.6599 168.29 143.62 L209.68 436.53 Z " />
<glyph glyph-name="Tcaron" unicode="&#x164;" horiz-adv-x="526" d="M371.8 680.03 L488.54 773.58 L473.9 794.56 L361.65 710.93 L272.08 793.64 L254.75 773.57 L345.25 680.02 L371.8 680.03 Z M580.15 641.99 L126.15 641.99 L121.18 608.12 L329.31 608.12 L243.99 -0.0100098 L281.17 -0.0100098 L366.55 608.12 L575.18 608.12 L580.15 641.99 Z " />
<glyph glyph-name="tcaron" unicode="&#x165;" horiz-adv-x="356" d="M332.7 521.33 C365.54 567 382.66 613.44 382.66 657.86 C382.66 665.52 382.36 670.02 382.13 671.6 L342.07 671.6 C342.74 669.22 343.68 657.32 343.68 644.79 C343.68 621.73 340.3 589.22 312.43 533.14 L332.7 521.33 Z M232.12 595.43 L192.72 585.94 L176.27 468.56 L101.48 468.56 L96.88 436.53 L171.78 436.53 L129.8 136.99 C115 31.36 168.34 -9.56999 235 -9.56999 C287.46 -9.56999 321.23 13.06 340.06 28.78 L326.55 57.81 C306.51 41.54 280.1 24.88 242.52 24.88 C196.31 24.88 154.51 48.68 168.28 143.64 L209.67 436.52 L364.41 436.52 L368.98 468.55 L214.19 468.55 L232.12 595.43 Z " />
<glyph glyph-name="Tbar" unicode="&#x166;" horiz-adv-x="526" d="M575.18 608.13 L580.15 642 L126.15 642 L121.18 608.13 L329.31 608.13 L291.21 336.58 L198.29 336.58 L193.72 305.11 L286.8 305.11 L243.99 -0.00999451 L281.17 -0.00999451 L324.01 305.11 L416.85 305.11 L421.45 336.58 L328.43 336.58 L366.55 608.13 L575.18 608.13 Z " />
<glyph glyph-name="tbar" unicode="&#x167;" horiz-adv-x="360" d="M368 436.53 L372.6 468.56 L217.78 468.56 L235.71 595.43 L196.31 585.94 L179.86 468.56 L105.07 468.56 L100.47 436.53 L175.37 436.53 L154.75 289.44 L83.99 289.44 L79.59 258.84 L150.46 258.84 L133.38 136.99 C118.58 31.36 171.92 -9.57002 238.58 -9.57002 C291.04 -9.57002 324.8 13.06 343.64 28.78 L330.13 57.81 C310.08 41.54 283.67 24.88 246.09 24.88 C199.88 24.88 158.08 48.68 171.85 143.64 L188.13 258.83 L300.86 258.83 L305.26 289.43 L192.45 289.43 L213.23 436.52 L368 436.53 Z " />
<glyph glyph-name="Utilde" unicode="&#x168;" horiz-adv-x="645" d="M549.05 770.83 C536.25 750.25 518.72 737.66 491.12 737.66 C451.56 737.66 419.5 781.98 371.54 781.98 C334.47 781.98 302.97 761.22 282.83 724.94 L311.27 713.95 C327.31 736.37 343.81 749.82 370.22 749.82 C409.05 749.82 439.56 705.79 489.31 705.79 C527.86 705.79 556.93 725.05 575.7 759.4 L549.05 770.83 Z M321.24 -9.53999 C458.08 -9.53999 556.02 89.48 578.77 251.73 L633.49 642.03 L596.49 642.03 L541.77 251.73 C523.55 121.98 444.72 26.89 326.55 26.89 C205.92 26.89 156.65 121.44 174.87 251.72 L229.59 642.02 L191.74 642.02 L137.02 251.72 C114.55 91.98 186.66 -9.54999 321.23 -9.54999 L321.24 -9.53999 Z " />
<glyph glyph-name="utilde" unicode="&#x169;" horiz-adv-x="542" d="M301.68 609.22 C337.28 609.22 362.2 567.34 409.94 567.34 C450.57 567.34 480.21 589.76 498.27 629.2 L469.95 640.14 C458.3 615.54 440.2 599.94 411.17 599.94 C373.55 599.94 349.87 642.11 303.42 642.11 C266.35 642.11 233.7 619.41 214.56 579.97 L243.93 568.69 C257.32 593.26 276.19 609.22 301.67 609.22 L301.68 609.22 Z M461.13 103.95 L512.16 468.57 L474.91 468.57 L427.32 131.21 C402.36 91.79 344.07 26.04 258.59 26.04 C169.13 26.04 139.25 80.49 154.27 190.31 L192.42 468.57 L155.14 468.57 L115.86 186.68 C97.37 54.77 145.81 -9.54001 249.44 -9.54001 C323.33 -9.54001 384.57 33.6 420.73 83.48 C416.2 43.33 420.68 10.62 427.57 -7.86 L465.04 1.55 C460.18 19.74 452.82 44.59 461.15 103.94 L461.13 103.95 Z " />
<glyph glyph-name="Umacron" unicode="&#x16a;" horiz-adv-x="645" d="M308.48 722.35 L548.89 722.35 L553.45 754.23 L313.07 754.23 L308.48 722.35 Z M321.28 -9.56999 C458.12 -9.56999 556.06 89.45 578.81 251.7 L633.53 642 L596.53 642 L541.81 251.7 C523.59 121.95 444.76 26.86 326.59 26.86 C205.96 26.86 156.69 121.41 174.91 251.69 L229.63 641.99 L191.78 641.99 L137.06 251.69 C114.59 91.95 186.7 -9.57999 321.27 -9.57999 L321.28 -9.56999 Z " />
<glyph glyph-name="umacron" unicode="&#x16b;" horiz-adv-x="542" d="M475.4 604.63 L237.57 604.63 L233.06 573.46 L470.89 573.46 L475.4 604.63 Z M461.14 103.94 L512.17 468.56 L474.92 468.56 L427.33 131.2 C402.37 91.78 344.08 26.03 258.6 26.03 C169.14 26.03 139.26 80.48 154.28 190.3 L192.43 468.56 L155.15 468.56 L115.87 186.67 C97.38 54.76 145.82 -9.55 249.45 -9.55 C323.34 -9.55 384.58 33.59 420.74 83.47 C416.21 43.32 420.69 10.61 427.58 -7.87 L465.05 1.54001 C460.19 19.73 452.83 44.58 461.16 103.93 L461.14 103.94 Z " />
<glyph glyph-name="Uring" unicode="&#x16e;" horiz-adv-x="645" d="M514.26 752.92 C514.26 795.71 485.3 829.94 444.3 829.94 C389.74 829.94 349.26 785.89 349.26 730.68 C349.26 687.96 377.8 653.7 419.92 653.7 C473.12 653.7 514.26 696.5 514.26 752.91 L514.26 752.92 Z M440.07 802.23 C469.43 802.23 485.57 778.84 485.57 750.67 C485.57 715.27 461.37 681.69 423.5 681.69 C394.83 681.69 377.82 705.81 377.82 733.76 C377.82 768.14 402.99 802.24 440.07 802.24 L440.07 802.23 Z M321.27 -9.56 C458.11 -9.56 556.05 89.46 578.8 251.71 L633.52 642.01 L596.52 642.01 L541.8 251.71 C523.58 121.96 444.75 26.87 326.58 26.87 C205.95 26.87 156.68 121.42 174.9 251.7 L229.62 642 L191.77 642 L137.05 251.7 C114.58 91.96 186.69 -9.56999 321.26 -9.56999 L321.27 -9.56 Z " />
<glyph glyph-name="uring" unicode="&#x16f;" horiz-adv-x="542" d="M343.82 514.32 C399.44 514.32 440.68 560.37 440.68 614.14 C440.68 657.36 411.27 691.98 368.94 691.98 C314.38 691.98 271 648.79 271 592.15 C271 548.93 300.56 514.31 343.81 514.31 L343.82 514.32 Z M364.8 663.63 C394.98 663.63 411.95 640.08 411.95 611.56 C411.95 576.04 385.34 542.94 347.95 542.94 C318.34 542.94 300.13 567.22 300.13 595.52 C300.13 631.3 325.65 663.62 364.81 663.62 L364.8 663.63 Z M461.14 103.93 L512.17 468.55 L474.92 468.55 L427.33 131.19 C402.37 91.77 344.08 26.02 258.6 26.02 C169.14 26.02 139.26 80.47 154.28 190.29 L192.43 468.55 L155.15 468.55 L115.87 186.66 C97.38 54.75 145.82 -9.56 249.45 -9.56 C323.34 -9.56 384.58 33.58 420.74 83.46 C416.21 43.31 420.69 10.6 427.58 -7.87999 L465.05 1.53001 C460.19 19.72 452.83 44.57 461.16 103.92 L461.14 103.93 Z " />
<glyph glyph-name="Uhungarumlaut" unicode="&#x170;" horiz-adv-x="645" d="M319.94 670.52 L473.95 780 L453.74 810.57 L307.55 690.23 L319.94 670.52 Z M456.34 670.52 L610.35 780 L590.14 810.57 L443.95 690.23 L456.34 670.52 Z M321.25 -9.55998 C458.09 -9.55998 556.03 89.46 578.78 251.71 L633.5 642.01 L596.5 642.01 L541.78 251.71 C523.56 121.96 444.73 26.87 326.56 26.87 C205.93 26.87 156.66 121.42 174.88 251.7 L229.6 642 L191.75 642 L137.03 251.7 C114.56 91.96 186.67 -9.56998 321.24 -9.56998 L321.25 -9.55998 Z " />
<glyph glyph-name="uhungarumlaut" unicode="&#x171;" horiz-adv-x="542" d="M373.53 665.35 L343.69 688.01 L230.95 533.82 L250.64 519.94 L373.53 665.35 Z M389.79 519.94 L512.7 665.35 L482.83 688.01 L370.09 533.82 L389.79 519.94 Z M512.16 468.57 L474.91 468.57 L427.32 131.21 C402.36 91.79 344.07 26.04 258.59 26.04 C169.13 26.04 139.25 80.49 154.27 190.31 L192.42 468.57 L155.14 468.57 L115.86 186.68 C97.37 54.77 145.81 -9.53999 249.44 -9.53999 C323.33 -9.53999 384.57 33.6 420.73 83.48 C416.2 43.33 420.68 10.62 427.57 -7.85999 L465.04 1.55002 C460.18 19.74 452.82 44.59 461.15 103.94 L512.16 468.57 Z " />
<glyph glyph-name="Uogonek" unicode="&#x172;" horiz-adv-x="645" d="M596.52 642 L541.8 251.7 C523.58 121.95 444.75 26.86 326.58 26.86 C205.95 26.86 156.68 121.41 174.9 251.69 L229.62 641.99 L191.77 641.99 L137.05 251.69 C114.58 91.95 186.69 -9.58 321.26 -9.58 C330.18 -9.58 338.94 -9.16 347.52 -8.33 C297.85 -45.24 282.73 -80.3 282.73 -116.1 C282.73 -152.57 306.56 -178.55 345.34 -178.55 C369.55 -178.55 389.62 -170.51 410.62 -154.23 L399.52 -126.31 C385.77 -136.62 371.61 -145.1 353.81 -145.1 C332.02 -145.1 319.73 -129.77 319.73 -105.6 C319.73 -71.23 343.71 -33.26 402.32 3.28999 C496.07 35 560.83 123.66 578.78 251.68 L633.5 641.98 L596.52 642 Z " />
<glyph glyph-name="uogonek" unicode="&#x173;" horiz-adv-x="540" d="M411.6 -145.08 C389.81 -145.08 377.52 -129.75 377.52 -105.58 C377.52 -70.3 400.06 -32.35 465.03 1.53999 C460.17 19.73 452.81 44.58 461.14 103.93 L512.17 468.55 L474.92 468.55 L427.33 131.19 C402.37 91.77 344.08 26.02 258.6 26.02 C169.14 26.02 139.26 80.47 154.28 190.29 L192.43 468.55 L155.15 468.55 L115.87 186.66 C97.38 54.75 145.82 -9.56 249.45 -9.56 C323.34 -9.56 384.58 33.58 420.74 83.46 C416.98 50.08 419.44 21.84 424.34 2.64999 C359.31 -34.94 340.55 -77.41 340.55 -116.1 C340.55 -152.57 364.38 -178.55 403.16 -178.55 C426.75 -178.55 447.44 -170.51 468.44 -154.23 L457.34 -126.31 C443.59 -136.62 429.43 -145.1 411.63 -145.1 L411.6 -145.08 Z " />
<glyph glyph-name="Wcircumflex" unicode="&#x174;" horiz-adv-x="855" d="M536.53 761.95 L625.61 679.24 L643.46 698.88 L552.45 792.86 L525.69 792.86 L408.34 699.08 L424.62 678.96 L536.53 761.95 Z M862.44 642 L616.52 60.61 L610.83 46.86 L609.4 60.88 L533.81 584.86 L493.19 584.86 L260.89 57.45 L256.25 45.82 L254.92 57.79 L173.92 641.99 L132.88 641.99 L226.7 -0.010025 L271.88 -0.010025 L493.13 498.87 L506.81 530.95 L510.07 499.3 L582.03 -0.0100098 L625.37 -0.0100098 L901.62 641.99 L862.44 642 Z " />
<glyph glyph-name="wcircumflex" unicode="&#x175;" horiz-adv-x="708" d="M445.68 637.04 L531.37 533.63 L554.24 553.67 L463.58 671.04 L435.07 671.04 L311.35 556.53 L331.01 535.78 L445.68 637.04 Z M690.03 468.57 L503.99 39.31 L440.41 468.57 L396.61 468.57 L216.07 39.75 L150.23 468.5 L110.04 468.5 L187.92 -0.0700378 L233.74 -0.0700378 L412.97 420.19 L475.24 -0.0700378 L521.19 -0.0700378 L729.83 468.5 L690.03 468.57 Z " />
<glyph glyph-name="Ycircumflex" unicode="&#x176;" horiz-adv-x="566" d="M392.48 761.95 L481.56 679.24 L499.4 698.88 L408.39 792.86 L381.63 792.86 L264.28 699.08 L280.56 678.96 L392.48 761.95 Z M608.88 642 L564.08 642 L333.38 316.95 L326.82 307.11 L323.12 316.57 L174.68 642 L131.47 642 L302.82 268.57 L265.04 -1.52588e-05 L302.27 -1.52588e-05 L340.01 268.1 L608.88 642 Z " />
<glyph glyph-name="ycircumflex" unicode="&#x177;" horiz-adv-x="539" d="M353.87 637.04 L439.56 533.63 L462.43 553.67 L371.78 671.04 L343.27 671.04 L219.55 556.53 L239.21 535.78 L353.87 637.04 Z M472.8 468.57 L425.54 130.65 C400.28 91.16 341.35 26.05 256.11 26.05 C167.7 26.05 137.46 80.57 152.62 190.39 L191.05 468.57 L153.77 468.57 L114.2 186.75 C95.56 54.85 142.58 -9.53003 246.88 -9.53003 C321.07 -9.53003 382.51 33.34 418.86 83 L407.22 -0.260025 C394.07 -94.38 324.74 -156.76 227.51 -156.76 C171.85 -156.76 132.18 -144.67 93.96 -112.96 L74.9 -145.48 C115.77 -177.39 162.48 -190.49 222.54 -190.49 C337.3 -190.49 428.03 -117.92 444.5 -0.260025 L510.07 468.57 L472.8 468.57 Z " />
<glyph glyph-name="Ydieresis" unicode="&#x178;" horiz-adv-x="566" d="M296.76 716.23 C316.32 716.23 333.54 732.53 333.54 752.76 C333.54 768.41 322.49 781.25 306.08 781.25 C285.62 781.25 269.25 764.38 269.25 744.88 C269.25 728.5 281.14 716.24 296.75 716.24 L296.76 716.23 Z M471.57 716.24 C491.13 716.24 508.35 732.54 508.35 752.77 C508.35 768.42 497.3 781.26 480.82 781.26 C460.43 781.26 444.06 764.39 444.06 744.89 C444.06 728.51 455.88 716.25 471.56 716.25 L471.57 716.24 Z M608.87 642.02 L564.07 642.02 L333.37 316.97 L326.81 307.13 L323.11 316.59 L174.67 642.02 L131.46 642.02 L302.81 268.59 L265.03 0.019989 L302.26 0.019989 L340 268.12 L608.87 642.02 Z " />
<glyph glyph-name="Zacute" unicode="&#x179;" horiz-adv-x="532" d="M465.95 752.66 L454.87 792.37 L279.54 709.72 L286.64 682.69 L465.95 752.66 Z M563.32 608.33 L568.22 642.01 L145.14 642.01 L140.19 607.99 L517.4 608.26 L498.66 586.54 L52.41 33.28 L47.57 1.52588e-05 L483.03 1.52588e-05 L487.88 33.73 L99.74 33.73 L115.39 52 L563.32 608.33 Z " />
<glyph glyph-name="zacute" unicode="&#x17a;" horiz-adv-x="455" d="M395.49 646.23 L372.37 679.34 L217.32 553.73 L232.93 530.75 L395.49 646.23 Z M463.95 468.56 L124.29 468.56 L119.65 436.39 L418.07 436.39 L56.43 37.28 L51.02 -0.00999451 L404.58 -0.00999451 L409.39 32.16 L98.86 32.16 L458.58 431.05 L463.95 468.56 Z " />
<glyph glyph-name="Zdotaccent" unicode="&#x17b;" horiz-adv-x="532" d="M362.57 711.92 C382.34 711.92 400.13 728.84 400.13 749.38 C400.13 765.6 388.63 778.92 372.18 778.92 C352.73 778.92 334.16 761.43 334.16 741.45 C334.16 724.7 346.54 711.93 362.57 711.93 L362.57 711.92 Z M563.33 608.34 L568.23 642.02 L145.15 642.02 L140.2 608 L517.41 608.27 L498.67 586.55 L52.42 33.29 L47.58 0.00999451 L483.04 0.00999451 L487.89 33.74 L99.75 33.74 L115.4 52.01 L563.33 608.34 Z " />
<glyph glyph-name="zdotaccent" unicode="&#x17c;" horiz-adv-x="455" d="M303.14 570.42 C323.2 570.42 341.32 587.65 341.32 608.53 C341.32 624.98 329.58 638.55 312.93 638.55 C291.73 638.55 274.32 620.74 274.32 600.45 C274.32 583.45 286.89 570.42 303.15 570.42 L303.14 570.42 Z M463.95 468.57 L124.29 468.57 L119.65 436.4 L418.07 436.4 L56.43 37.29 L51.02 1.52588e-05 L404.58 1.52588e-05 L409.39 32.17 L98.86 32.17 L458.58 431.06 L463.95 468.57 Z " />
<glyph glyph-name="Zcaron" unicode="&#x17d;" horiz-adv-x="532" d="M371.41 680.03 L488.15 773.58 L473.51 794.56 L361.26 710.93 L271.69 793.64 L254.36 773.57 L344.86 680.02 L371.41 680.03 Z M563.33 608.31 L568.23 641.99 L145.15 641.99 L140.2 607.97 L517.41 608.24 L498.67 586.52 L52.42 33.26 L47.58 -0.0200195 L483.04 -0.0200195 L487.89 33.71 L99.75 33.71 L115.4 51.98 L563.33 608.31 Z " />
<glyph glyph-name="zcaron" unicode="&#x17e;" horiz-adv-x="455" d="M312.33 534.12 L437.03 655.72 L417.85 676.47 L300.92 568.05 L216.44 678.62 L194.14 658.58 L283.79 534.11 L312.33 534.12 Z M463.95 468.56 L124.29 468.56 L119.65 436.39 L418.07 436.39 L56.43 37.28 L51.02 -0.00997925 L404.58 -0.00997925 L409.39 32.16 L98.86 32.16 L458.58 431.05 L463.95 468.56 Z " />
<glyph glyph-name="uni01EA" unicode="&#x1ea;" horiz-adv-x="700" d="M457.61 10.74 C594.82 64.08 681.33 215.62 681.33 382.98 C681.33 542.99 593.41 654.71 440.99 654.71 C245.2 654.71 108.14 472.25 108.14 264.03 C108.14 106.48 195.2 -9.58002 347.59 -9.58002 C363.19 -9.58002 378.39 -8.45001 393.16 -6.27002 C341.26 -43.94 325.57 -79.63 325.57 -116.09 C325.57 -152.56 349.4 -178.54 388.18 -178.54 C412.39 -178.54 432.46 -170.5 453.46 -154.22 L442.36 -126.3 C428.61 -136.61 414.45 -145.09 396.65 -145.09 C374.86 -145.09 362.57 -129.76 362.57 -105.59 C362.57 -68.89 389.92 -28.08 457.59 10.72 L457.61 10.74 Z M146.86 264.33 C146.86 452.04 262.36 619.36 435.95 619.36 C569.76 619.36 642.58 525.25 642.58 381.68 C642.58 194.2 528.86 28.13 352.6 25.77 C219.7 23.98 146.86 123.02 146.86 264.33 L146.86 264.33 Z " />
<glyph glyph-name="uni01EB" unicode="&#x1eb;" horiz-adv-x="559" d="M351.52 -1.38 C458.24 27.69 530.82 131.64 530.82 270.74 C530.82 392.04 458.52 480.85 336.14 480.85 C202.17 480.85 94.33 364.99 94.33 199.2 C94.33 76.67 167.32 -9.55998 289.03 -9.55998 C293.69 -9.55998 298.31 -9.42998 302.88 -9.17998 C254.14 -45.77 239.26 -80.56 239.26 -116.08 C239.26 -152.55 263.09 -178.53 301.87 -178.53 C326.08 -178.53 346.15 -170.49 367.15 -154.21 L356.05 -126.29 C342.3 -136.6 328.14 -145.08 310.34 -145.08 C288.55 -145.08 276.26 -129.75 276.26 -105.58 C276.26 -72.68 298.23 -36.48 351.52 -1.37997 L351.52 -1.38 Z M132.84 203.19 C132.84 339.8 215.69 445.54 331.05 445.54 C437.67 445.54 492.22 369.25 492.22 266.46 C492.22 130.22 411.3 25.7101 294.13 25.7101 C186.94 25.7101 132.85 101.87 132.85 203.17 L132.84 203.19 Z " />
<glyph glyph-name="AEacute" unicode="&#x1fc;" horiz-adv-x="824" d="M690.96 752.66 L679.88 792.37 L504.55 709.72 L511.66 682.69 L690.96 752.66 Z M837.18 607.42 L842.25 642 L479.54 642 L6.00002 1.52588e-05 L49.87 1.52588e-05 L200.39 204.23 L436.36 204.23 L407.63 1.52588e-05 L764.3 1.52588e-05 L769.34 34.58 L449.6 34.58 L489.18 316.65 L767.74 316.65 L772.71 351.23 L494.04 351.23 L529.99 607.41 L837.18 607.42 Z M225.04 237.67 L492.01 599.89 L441.06 237.67 L225.04 237.67 Z " />
<glyph glyph-name="aeacute" unicode="&#x1fd;" horiz-adv-x="813" d="M563.76 646.23 L540.64 679.34 L385.59 553.73 L401.2 530.75 L563.76 646.23 Z M433.39 236.42 L783.48 236.42 C785.07 242.62 793.08 262.42 793.08 303.85 C793.08 411.79 730.42 480.92 633.93 480.92 C561.17 480.92 489 441.79 442.42 372.37 C431.5 450.49 370.36 480.85 294.1 480.85 C230.99 480.85 181.09 465.54 143.87 447.15 L147.67 413.19 C202.87 438.37 240.46 445.27 286.69 445.27 C365.49 445.27 418.27 407.72 404.21 308.42 L397.97 264.18 L397.7 262.82 L266.03 262.82 C144.33 262.82 70.9 206.06 70.9 108.37 C70.9 34.6 122.11 -9.56004 204.8 -9.56004 C285.33 -9.56004 361.5 37.18 398.32 122.86 C419.61 35.97 484.21 -9.48004 573.51 -9.48004 C647.23 -9.48004 699.72 17.61 739.14 46.6 L727.49 77.41 C697.96 54.9 653.09 25.82 579.36 25.82 C469.5 25.82 414.8 104.13 432.86 233.38 L433.39 236.42 Z M628.93 446.2 C705.75 446.2 768.59 391.18 751.33 267.62 L439.12 267.62 C462.48 370.32 535.3 446.2 628.93 446.2 L628.93 446.2 Z M215.94 24.61 C148.12 24.61 109.78 57.9 109.78 113.48 C109.78 177.66 151.73 231.05 261.8 231.36 L392.71 231.64 L381.77 153.07 C363.31 82.2399 297.5 24.5999 215.93 24.5999 L215.94 24.61 Z " />
<glyph glyph-name="Oslashacute" unicode="&#x1fe;" horiz-adv-x="707" d="M557.93 752.66 L547.31 790.54 L372.68 708.08 L378.55 682.68 L557.93 752.66 Z M733.9 631.41 L710.93 655.81 L625.43 570.93 C584.53 623.47 523.34 654.73 445.28 654.73 C252.48 654.73 113.04 483.5 113.04 270.33 C113.04 206.61 127.15 148.93 153.83 102.72 L64.75 14.28 L87.24 -11.54 L173.24 73.96 C214.07 21.98 274.65 -9.57002 351.83 -9.57002 C543.76 -9.57002 684.15 165.78 684.15 376.06 C684.15 440.02 670.41 496.98 644.45 542.47 L733.9 631.41 Z M151.76 271.22 C151.76 468.92 267.88 619.42 440.02 619.42 C509.74 619.42 563.1 591.4 597.94 543.62 L181.9 130.57 C162.06 169.53 151.77 217.49 151.77 271.22 L151.76 271.22 Z M645.4 374.18 C645.4 177.85 528.88 25.79 357.02 25.79 C287.98 25.79 235.05 53.7 200.24 100.79 L615.9 514.06 C635.32 475.43 645.4 427.85 645.4 374.17 L645.4 374.18 Z " />
<glyph glyph-name="oslashacute" unicode="&#x1ff;" horiz-adv-x="567" d="M457.05 646.23 L434 679.27 L279.38 553.08 L294.49 530.75 L457.05 646.23 Z M574.24 471.05 L552.98 494.75 L480.46 422.12 C447.11 458.98 398.71 480.85 337.98 480.85 C204.01 480.85 96.17 364.99 96.17 199.2 C96.17 149.6 108.13 105.95 130.44 71.56 L58.85 -0.140015 L79.9 -24.98 L150.59 45.95 C183.95 10.85 231.64 -9.58002 290.87 -9.58002 C430.75 -9.58002 532.67 105.89 532.67 270.72 C532.67 318.9 521.26 361.96 499.83 396.36 L574.24 471.05 Z M134.68 203.17 C134.68 339.78 217.53 445.52 332.89 445.52 C386.05 445.52 426.26 426.56 453.22 394.81 L158.84 99.98 C142.76 128.67 134.69 164.05 134.69 203.18 L134.68 203.17 Z M494.06 266.47 C494.06 130.23 413.13 25.72 295.97 25.72 C244.17 25.72 204.77 43.51 177.88 73.33 L471.41 367.85 C486.46 339.47 494.05 304.81 494.05 266.46 L494.06 266.47 Z " />
<glyph glyph-name="Scommaaccent" unicode="&#x218;" horiz-adv-x="510" d="M349.82 654.72 C226.64 654.72 143.73 578.69 143.73 483.77 C143.73 373.33 227.19 346.91 304.51 316.89 C371.06 290.98 433.04 263.28 433.04 175.58 C433.04 93.08 368.26 26.02 260.45 26.02 C174.85 26.02 125.9 57.67 93.88 97.39 L66.91 69.86 C100.26 29.71 156.85 -9.56 255.52 -9.56 C387.92 -9.56 471.48 69.64 471.48 180.78 C471.48 287.32 398.61 322.43 326.61 351.17 C254.95 379.75 182.63 400.34 182.63 487.64 C182.63 554.78 247.18 619.14 344.45 619.14 C412.77 619.14 452.98 597.14 491.07 562.19 L515.45 592.36 C477.9 628.66 429.33 654.72 349.85 654.72 L349.82 654.72 Z M253.96 -42 C232.99 -42 213.07 -60.36 213.07 -82.14 C213.07 -98.18 223.72 -113.51 243.16 -114.27 C240.08 -134.02 230.69 -164.47 204.62 -197.56 L219.59 -209.17 C262.76 -161.24 284.59 -110.14 284.59 -74.91 C284.59 -54.55 271.39 -41.99 253.97 -41.99 L253.96 -42 Z " />
<glyph glyph-name="scommaaccent" unicode="&#x219;" horiz-adv-x="442" d="M294.63 480.85 C193.69 480.85 118.02 431.85 118.02 351.25 C118.02 190.55 363.63 259.06 363.63 128.47 C363.63 73.28 312.82 24.88 221.55 24.88 C149.29 24.88 106.74 52.3 84.2 74.66 L64.2 42.99 C93.95 15.01 145.23 -9.56999 216.28 -9.56999 C327.42 -9.56999 400.98 48 400.98 133.73 C400.98 295.45 156.09 231.02 156.09 354.06 C156.09 409.23 210.36 446.4 289.49 446.4 C347.73 446.4 383.63 432.2 414.19 413.71 L426.71 447.07 C402.91 461.5 361.9 480.84 294.64 480.84 L294.63 480.85 Z M222.29 -42.01 C201.32 -42.01 181.4 -60.37 181.4 -82.15 C181.4 -98.19 192.05 -113.52 211.49 -114.28 C208.41 -134.03 199.02 -164.48 172.95 -197.57 L187.92 -209.18 C231.1 -161.25 252.93 -110.15 252.93 -74.92 C252.93 -54.56 239.73 -42 222.31 -42 L222.29 -42.01 Z " />
<glyph glyph-name="uni021A" unicode="&#x21a;" horiz-adv-x="526" d="M580.15 642 L126.15 642 L121.18 608.13 L329.31 608.13 L243.99 0 L281.17 0 L366.55 608.13 L575.18 608.13 L580.15 642 Z M257.24 -42 C236.27 -42 216.35 -60.36 216.35 -82.14 C216.35 -98.18 227 -113.51 246.44 -114.27 C243.36 -134.02 233.97 -164.47 207.9 -197.56 L222.87 -209.17 C266.05 -161.24 287.88 -110.14 287.88 -74.91 C287.88 -54.55 274.68 -41.99 257.26 -41.99 L257.24 -42 Z " />
<glyph glyph-name="uni021B" unicode="&#x21b;" horiz-adv-x="356" d="M209.68 436.53 L364.42 436.53 L368.99 468.56 L214.2 468.56 L232.13 595.43 L192.73 585.94 L176.28 468.56 L101.49 468.56 L96.89 436.53 L171.79 436.53 L129.81 136.99 C115.01 31.36 168.35 -9.57001 235.01 -9.57001 C287.47 -9.57001 321.24 13.06 340.07 28.78 L326.56 57.81 C306.52 41.54 280.11 24.88 242.53 24.88 C196.32 24.88 154.52 48.68 168.29 143.64 L209.68 436.53 Z M221.85 -42.01 C200.88 -42.01 180.96 -60.37 180.96 -82.15 C180.96 -98.19 191.61 -113.52 211.05 -114.28 C207.97 -134.03 198.58 -164.48 172.51 -197.57 L187.48 -209.18 C230.65 -161.25 252.48 -110.15 252.48 -74.92 C252.48 -54.56 239.28 -42 221.86 -42 L221.85 -42.01 Z " />
<glyph glyph-name="uni0237" unicode="&#x237;" horiz-adv-x="211" d="M200.95 468.57 L108.84 468.57 L103.94 435.12 L158.63 435.12 L93.35 -36.16 C82.62 -113.53 32.81 -159.69 -15.54 -159.69 C-51.52 -159.69 -70.51 -145.21 -87.37 -127.33 L-109.2 -156.16 C-97.2 -168.19 -69.35 -194.14 -17.16 -194.14 C47.24 -194.14 114.33 -145.85 129.94 -35.25 L200.95 468.57 Z " />
<glyph glyph-name="circumflex" unicode="&#x2c6;" horiz-adv-x="332" d="M267.12 671.04 L238.61 671.04 L114.89 556.53 L134.55 535.78 L249.22 637.04 L334.91 533.63 L357.78 553.67 L267.12 671.04 Z " />
<glyph glyph-name="caron" unicode="&#x2c7;" horiz-adv-x="330" d="M219.55 534.12 L248.09 534.12 L372.79 655.72 L353.61 676.47 L236.68 568.05 L152.2 678.62 L129.9 658.58 L219.55 534.12 Z " />
<glyph glyph-name="breve" unicode="&#x2d8;" horiz-adv-x="334" d="M236.24 539.32 C299.45 539.32 351.63 578.96 370.3 653.11 L337.4 657.66 C320.71 598.44 281.69 570.71 240.07 570.71 C194.41 570.71 163.5 598.55 161.15 657.31 L130.82 652.11 C131.14 581.01 175.01 539.31 236.22 539.31 L236.24 539.32 Z " />
<glyph glyph-name="dotaccent" unicode="&#x2d9;" horiz-adv-x="176" d="M203.52 608.53 C203.52 624.98 191.77 638.55 175.12 638.55 C153.92 638.55 136.51 620.74 136.51 600.45 C136.51 583.45 149.08 570.42 165.34 570.42 C185.4 570.42 203.52 587.65 203.52 608.53 L203.52 608.53 Z " />
<glyph glyph-name="ring" unicode="&#x2da;" horiz-adv-x="265" d="M296 614.15 C296 657.37 266.59 691.99 224.27 691.99 C169.71 691.99 126.34 648.8 126.34 592.16 C126.34 548.94 155.9 514.32 199.15 514.32 C254.77 514.32 296.01 560.37 296.01 614.14 L296 614.15 Z M203.28 542.94 C173.67 542.94 155.46 567.22 155.46 595.52 C155.46 631.3 180.98 663.62 220.14 663.62 C250.32 663.62 267.29 640.07 267.29 611.55 C267.29 576.03 240.68 542.93 203.28 542.93 L203.28 542.94 Z " />
<glyph glyph-name="ogonek" unicode="&#x2db;" horiz-adv-x="256" d="M96.1 -178.53 C120.31 -178.53 140.38 -170.49 161.38 -154.21 L150.28 -126.29 C136.53 -136.6 122.37 -145.08 104.56 -145.08 C82.77 -145.08 70.48 -129.75 70.48 -105.58 C70.48 -65.14 103.67 -19.71 187.42 22.52 L154.96 26.61 C59.41 -23.58 33.47 -69.2 33.47 -116.09 C33.47 -152.56 57.3 -178.54 96.08 -178.54 L96.1 -178.53 Z " />
<glyph glyph-name="tilde" unicode="&#x2dc;" horiz-adv-x="402" d="M385.92 640.13 C374.27 615.53 356.17 599.93 327.14 599.93 C289.52 599.93 265.84 642.1 219.39 642.1 C182.32 642.1 149.67 619.4 130.53 579.96 L159.9 568.68 C173.29 593.25 192.16 609.21 217.64 609.21 C253.24 609.21 278.16 567.33 325.9 567.33 C366.53 567.33 396.17 589.75 414.23 629.19 L385.92 640.13 Z " />
<glyph glyph-name="hungarumlaut" unicode="&#x2dd;" horiz-adv-x="351" d="M127.66 519.94 L250.55 665.35 L220.71 688.01 L107.97 533.82 L127.66 519.94 Z M266.81 519.94 L389.73 665.35 L359.86 688.01 L247.12 533.82 L266.81 519.94 Z " />
<glyph glyph-name="gravecomb" unicode="&#x300;" d="M20.09 530.47 L38.67 551.03 L-81 678.06 L-110.36 646.24 L20.09 530.47 Z " />
<glyph glyph-name="acutecomb" unicode="&#x301;" d="M-111 530.75 L51.56 646.23 L28.44 679.34 L-126.61 553.73 L-111 530.75 Z " />
<glyph glyph-name="uni0302" unicode="&#x302;" d="M-50.84 671.04 L-79.35 671.04 L-203.07 556.53 L-183.41 535.78 L-68.74 637.04 L16.95 533.63 L39.82 553.67 L-50.84 671.04 Z " />
<glyph glyph-name="tildecomb" unicode="&#x303;" d="M12.88 640.13 C1.23001 615.53 -16.87 599.93 -45.9 599.93 C-83.52 599.93 -107.2 642.1 -153.65 642.1 C-190.72 642.1 -223.37 619.4 -242.51 579.96 L-213.14 568.68 C-199.75 593.25 -180.88 609.21 -155.4 609.21 C-119.8 609.21 -94.88 567.33 -47.14 567.33 C-6.50998 567.33 23.13 589.75 41.19 629.19 L12.88 640.13 Z " />
<glyph glyph-name="uni0304" unicode="&#x304;" d="M-203.96 573.47 L33.87 573.47 L38.38 604.64 L-199.45 604.64 L-203.96 573.47 Z " />
<glyph glyph-name="uni0306" unicode="&#x306;" d="M-82.82 539.32 C-19.61 539.32 32.57 578.96 51.24 653.11 L18.34 657.66 C1.64999 598.44 -37.37 570.71 -78.99 570.71 C-124.65 570.71 -155.56 598.55 -157.91 657.31 L-188.24 652.11 C-187.92 581.01 -144.05 539.31 -82.84 539.31 L-82.82 539.32 Z " />
<glyph glyph-name="uni0307" unicode="&#x307;" d="M33.48 608.53 C33.48 624.98 21.73 638.55 5.08 638.55 C-16.12 638.55 -33.53 620.74 -33.53 600.45 C-33.53 583.45 -20.96 570.42 -4.7 570.42 C15.36 570.42 33.48 587.65 33.48 608.53 L33.48 608.53 Z " />
<glyph glyph-name="uni0308" unicode="&#x308;" d="M-153.88 606.48 C-153.88 622.28 -164.93 635.23 -180.83 635.23 C-200.08 635.23 -217.99 618.19 -217.99 598.46 C-217.99 581.88 -206.04 569.5 -190.23 569.5 C-170.98 569.5 -153.87 586.03 -153.87 606.48 L-153.88 606.48 Z M38.81 606.48 C38.81 622.33 27.48 635.31 11.55 635.31 C-7.36002 635.31 -25.36 618.27 -25.36 598.54 C-25.36 581.96 -13.48 569.58 2.06999 569.58 C21.33 569.58 38.81 586.05 38.81 606.48 L38.81 606.48 Z " />
<glyph glyph-name="uni030A" unicode="&#x30a;" d="M42.95 614.15 C42.95 657.37 13.54 691.99 -28.78 691.99 C-83.34 691.99 -126.71 648.8 -126.71 592.16 C-126.71 548.94 -97.15 514.32 -53.9 514.32 C1.71999 514.32 42.96 560.37 42.96 614.14 L42.95 614.15 Z M-49.77 542.94 C-79.38 542.94 -97.59 567.22 -97.59 595.52 C-97.59 631.3 -72.07 663.62 -32.91 663.62 C-2.73001 663.62 14.24 640.07 14.24 611.55 C14.24 576.03 -12.37 542.93 -49.77 542.93 L-49.77 542.94 Z " />
<glyph glyph-name="uni030B" unicode="&#x30b;" d="M-203.8 519.94 L-80.91 665.35 L-110.75 688.01 L-223.49 533.82 L-203.8 519.94 Z M-64.65 519.94 L58.27 665.35 L28.4 688.01 L-84.34 533.82 L-64.65 519.94 Z " />
<glyph glyph-name="uni030C" unicode="&#x30c;" d="M-98.55 534.12 L-70.01 534.12 L54.69 655.72 L35.51 676.47 L-81.42 568.05 L-165.9 678.62 L-188.2 658.58 L-98.55 534.12 Z " />
<glyph glyph-name="uni0326" unicode="&#x326;" d="M-97.57 -42 C-118.54 -42 -138.46 -60.36 -138.46 -82.14 C-138.46 -98.18 -127.81 -113.51 -108.37 -114.27 C-111.45 -134.02 -120.84 -164.47 -146.91 -197.56 L-131.94 -209.17 C-88.76 -161.24 -66.93 -110.14 -66.93 -74.91 C-66.93 -54.55 -80.13 -41.99 -97.55 -41.99 L-97.57 -42 Z " />
<glyph glyph-name="uni0327" unicode="&#x327;" d="M-122 3.12 L-155.78 -62.38 C-106.24 -65 -81.18 -80.29 -81.18 -110.01 C-81.18 -145.39 -109.76 -160.37 -148.08 -160.37 C-170.22 -160.37 -186.44 -152.45 -195.16 -146.94 L-210.34 -173.72 C-202.75 -179.57 -178.56 -189.26 -149.37 -189.26 C-96.75 -189.26 -46.45 -167.21 -46.45 -106.98 C-46.45 -66.73 -76.67 -45.97 -115.31 -40.3 L-92.91 3.10999 L-122 3.12 Z " />
<glyph glyph-name="uni0328" unicode="&#x328;" d="M-147.83 -178.53 C-123.62 -178.53 -103.55 -170.49 -82.55 -154.21 L-93.65 -126.29 C-107.4 -136.6 -121.56 -145.08 -139.37 -145.08 C-161.16 -145.08 -173.45 -129.75 -173.45 -105.58 C-173.45 -65.14 -140.26 -19.71 -56.51 22.52 L-88.97 26.61 C-184.52 -23.58 -210.46 -69.2 -210.46 -116.09 C-210.46 -152.56 -186.63 -178.54 -147.85 -178.54 L-147.83 -178.53 Z " />
<glyph glyph-name="uni0335" unicode="&#x335;" d="M-195 453.48 L19.68 453.48 L24.11 484.08 L-190.59 484.08 L-195 453.48 Z " />
<glyph glyph-name="uni0336" unicode="&#x336;" d="M-545.47 454.62 L9.75999 454.62 L14.07 484.65 L-541.16 484.65 L-545.47 454.62 Z " />
<glyph glyph-name="uni0337" unicode="&#x337;" d="M-177.45 280.72 L13.04 375.53 L3.24001 401.72 L-187.32 306.84 L-177.45 280.72 Z " />
<glyph glyph-name="uni0338" unicode="&#x338;" d="M-514.76 -25.35 L-20.4 470.67 L-38.54 490.82 L-532.68 -4.07001 L-514.76 -25.35 Z " />
<glyph glyph-name="Wgrave" unicode="&#x1e80;" horiz-adv-x="855" d="M605.94 705.93 L453.42 789.38 L432.67 753 L594 682.68 L605.94 705.93 Z M862.43 642 L616.51 60.61 L610.82 46.86 L609.39 60.88 L533.8 584.86 L493.18 584.86 L260.88 57.45 L256.24 45.82 L254.91 57.79 L173.91 641.99 L132.87 641.99 L226.69 -0.010025 L271.87 -0.010025 L493.12 498.87 L506.8 530.95 L510.06 499.3 L582.02 -0.0100098 L625.36 -0.0100098 L901.61 641.99 L862.43 642 Z " />
<glyph glyph-name="wgrave" unicode="&#x1e81;" horiz-adv-x="708" d="M505.77 551.02 L386.1 678.05 L356.74 646.23 L487.2 530.46 L505.77 551.02 Z M690.04 468.56 L504 39.3 L440.42 468.56 L396.62 468.56 L216.08 39.74 L150.24 468.49 L110.05 468.49 L187.93 -0.0800171 L233.75 -0.0800171 L412.98 420.18 L475.25 -0.0800171 L521.2 -0.0800171 L729.84 468.49 L690.04 468.56 Z " />
<glyph glyph-name="Wacute" unicode="&#x1e82;" horiz-adv-x="855" d="M631.29 752.66 L620.21 792.37 L444.88 709.72 L451.99 682.69 L631.29 752.66 Z M862.44 642.01 L616.52 60.62 L610.83 46.87 L609.4 60.89 L533.81 584.87 L493.19 584.87 L260.89 57.46 L256.25 45.83 L254.92 57.8 L173.92 642 L132.88 642 L226.7 1.52588e-05 L271.88 1.52588e-05 L493.13 498.88 L506.81 530.96 L510.07 499.31 L582.03 3.05176e-05 L625.37 3.05176e-05 L901.62 642 L862.44 642.01 Z " />
<glyph glyph-name="wacute" unicode="&#x1e83;" horiz-adv-x="708" d="M527.44 646.23 L504.32 679.34 L349.27 553.73 L364.89 530.75 L527.44 646.23 Z M690.04 468.56 L504 39.3 L440.42 468.56 L396.62 468.56 L216.08 39.74 L150.24 468.49 L110.05 468.49 L187.93 -0.0800171 L233.75 -0.0800171 L412.98 420.18 L475.25 -0.0800171 L521.2 -0.0800171 L729.84 468.49 L690.04 468.56 Z " />
<glyph glyph-name="Wdieresis" unicode="&#x1e84;" horiz-adv-x="855" d="M440.81 716.23 C460.37 716.23 477.59 732.53 477.59 752.76 C477.59 768.41 466.54 781.25 450.13 781.25 C429.67 781.25 413.3 764.38 413.3 744.88 C413.3 728.5 425.19 716.24 440.8 716.24 L440.81 716.23 Z M615.62 716.24 C635.18 716.24 652.4 732.54 652.4 752.77 C652.4 768.42 641.35 781.26 624.87 781.26 C604.48 781.26 588.11 764.39 588.11 744.89 C588.11 728.51 599.93 716.25 615.61 716.25 L615.62 716.24 Z M862.41 642.02 L616.49 60.63 L610.8 46.88 L609.37 60.9 L533.78 584.88 L493.16 584.88 L260.86 57.47 L256.22 45.84 L254.89 57.81 L173.89 642.01 L132.85 642.01 L226.67 0.00997925 L271.85 0.00997925 L493.1 498.89 L506.78 530.97 L510.04 499.32 L582 0.00999451 L625.34 0.00999451 L901.59 642.01 L862.41 642.02 Z " />
<glyph glyph-name="wdieresis" unicode="&#x1e85;" horiz-adv-x="708" d="M339.14 569.5 C358.39 569.5 375.5 586.03 375.5 606.48 C375.5 622.28 364.45 635.23 348.55 635.23 C329.3 635.23 311.39 618.19 311.39 598.46 C311.39 581.88 323.34 569.5 339.15 569.5 L339.14 569.5 Z M531.44 569.5 C550.7 569.5 568.18 585.97 568.18 606.4 C568.18 622.25 556.85 635.23 540.92 635.23 C522.01 635.23 504.01 618.19 504.01 598.46 C504.01 581.88 515.89 569.5 531.44 569.5 L531.44 569.5 Z M690.05 468.57 L504.01 39.31 L440.43 468.57 L396.63 468.57 L216.09 39.75 L150.25 468.5 L110.06 468.5 L187.94 -0.0700073 L233.76 -0.0700073 L412.99 420.19 L475.26 -0.0700073 L521.21 -0.0700073 L729.85 468.5 L690.05 468.57 Z " />
<glyph glyph-name="uni1E9E" unicode="&#x1e9e;" horiz-adv-x="615" d="M394.2 355.92 L579.2 607.13 L584.27 642 L412.1 642 C291.33 642 183.64 577.51 163.07 431.51 L103.07 0 L140.07 0 L199.93 428.97 C216.16 545.46 306.18 607.14 405.72 607.14 L534.39 607.14 L352.09 358.52 L346.68 320.65 L355.73 320.83 L355.73 320.65 L380.28 320.65 C460.71 320.87 545.92 289.36 545.92 185.07 C545.92 98.62 483.64 25.96 382.85 25.96 C327.03 25.96 290.36 48 265.13 73.1 L238.14 44.1 C266.4 16.27 312.43 -9.62997 380.52 -9.62997 C508.01 -9.62997 583.75 79.32 583.75 189.32 C583.75 304.18 490.51 354.72 394.27 355.84 L394.2 355.92 Z " />
<glyph glyph-name="Ygrave" unicode="&#x1ef2;" horiz-adv-x="566" d="M461.89 705.93 L309.38 789.38 L288.63 753 L449.96 682.68 L461.89 705.93 Z M608.89 642 L564.09 642 L333.39 316.95 L326.83 307.11 L323.13 316.57 L174.69 642 L131.48 642 L302.83 268.57 L265.05 -1.52588e-05 L302.28 -1.52588e-05 L340.02 268.1 L608.89 642 Z " />
<glyph glyph-name="ygrave" unicode="&#x1ef3;" horiz-adv-x="539" d="M413.96 551.02 L294.29 678.05 L264.93 646.23 L395.39 530.46 L413.96 551.02 Z M472.8 468.56 L425.54 130.64 C400.28 91.15 341.35 26.04 256.11 26.04 C167.7 26.04 137.46 80.56 152.62 190.38 L191.05 468.56 L153.77 468.56 L114.2 186.74 C95.56 54.84 142.58 -9.54001 246.88 -9.54001 C321.07 -9.54001 382.51 33.33 418.86 82.99 L407.22 -0.270004 C394.07 -94.39 324.74 -156.77 227.51 -156.77 C171.85 -156.77 132.18 -144.68 93.96 -112.97 L74.9 -145.49 C115.77 -177.4 162.48 -190.5 222.54 -190.5 C337.3 -190.5 428.03 -117.93 444.5 -0.270004 L510.07 468.56 L472.8 468.56 Z " />
<glyph glyph-name="uni1EF8" unicode="&#x1ef8;" horiz-adv-x="566" d="M326.77 749.8 C365.6 749.8 396.11 705.77 445.86 705.77 C484.41 705.77 513.48 725.03 532.25 759.38 L505.58 770.83 C492.78 750.25 475.25 737.66 447.65 737.66 C408.09 737.66 376.03 781.98 328.07 781.98 C291 781.98 259.5 761.22 239.36 724.94 L267.8 713.95 C283.84 736.37 300.35 749.82 326.76 749.82 L326.77 749.8 Z M608.88 642.02 L564.08 642.02 L333.38 316.97 L326.82 307.13 L323.12 316.59 L174.68 642.02 L131.47 642.02 L302.82 268.59 L265.04 0.0200043 L302.27 0.0200043 L340.01 268.12 L608.88 642.02 Z " />
<glyph glyph-name="uni1EF9" unicode="&#x1ef9;" horiz-adv-x="539" d="M293.71 609.22 C329.31 609.22 354.23 567.34 401.97 567.34 C442.6 567.34 472.24 589.76 490.3 629.2 L461.98 640.14 C450.33 615.54 432.23 599.94 403.2 599.94 C365.58 599.94 341.9 642.11 295.45 642.11 C258.38 642.11 225.73 619.41 206.59 579.97 L235.96 568.69 C249.35 593.26 268.22 609.22 293.7 609.22 L293.71 609.22 Z M472.78 468.57 L425.52 130.65 C400.26 91.16 341.33 26.05 256.09 26.05 C167.68 26.05 137.44 80.57 152.6 190.39 L191.03 468.57 L153.75 468.57 L114.18 186.75 C95.54 54.85 142.56 -9.53 246.86 -9.53 C321.05 -9.53 382.49 33.34 418.84 83 L407.2 -0.259995 C394.05 -94.38 324.72 -156.76 227.49 -156.76 C171.83 -156.76 132.16 -144.67 93.94 -112.96 L74.88 -145.48 C115.75 -177.39 162.46 -190.49 222.52 -190.49 C337.28 -190.49 428.01 -117.92 444.48 -0.259995 L510.05 468.57 L472.78 468.57 Z " />
<glyph glyph-name="endash" unicode="&#x2013;" horiz-adv-x="575" d="M117.48 232.92 L522.81 232.92 L527.51 265.52 L122.21 265.52 L117.48 232.92 Z " />
<glyph glyph-name="emdash" unicode="&#x2014;" horiz-adv-x="1033" d="M117.48 233.63 L981.97 233.63 L986.7 266.23 L122.21 266.23 L117.48 233.63 Z " />
<glyph glyph-name="quoteleft" unicode="&#x2018;" horiz-adv-x="216" d="M175.9 485.12 C197.62 485.12 218.33 504.27 218.33 527.19 C218.33 543.94 207.68 559.81 187.14 560.46 C191.37 585.85 203.01 619.06 231.31 655.31 L215.04 667.88 C169.61 614.68 144.48 560.59 144.48 519.87 C144.48 497.61 158.01 485.1 175.88 485.1 L175.9 485.12 Z " />
<glyph glyph-name="quoteright" unicode="&#x2019;" horiz-adv-x="212" d="M203.78 667.95 C182.03 667.95 161.22 648.85 161.22 625.86 C161.22 609.19 171.94 593.32 192.51 592.64 C188.21 567.25 176.57 534.03 148.34 497.78 L164.51 485.2 C209.94 538.43 235.12 592.45 235.12 633.24 C235.12 655.47 221.75 667.95 203.79 667.95 L203.78 667.95 Z " />
<glyph glyph-name="quotesinglbase" unicode="&#x201a;" horiz-adv-x="230" d="M124.12 65.83 C102.37 65.83 81.59 46.68 81.59 23.76 C81.59 7.01001 92.31 -8.85999 112.78 -9.50998 C108.55 -34.9 96.87 -68.11 68.61 -104.36 L84.88 -116.93 C130.28 -63.73 155.46 -9.64 155.46 31.08 C155.46 53.34 141.9 65.85 124.13 65.85 L124.12 65.83 Z " />
<glyph glyph-name="quotedblleft" unicode="&#x201c;" horiz-adv-x="335" d="M175.9 485.12 C197.62 485.12 218.33 504.27 218.33 527.19 C218.33 543.94 207.68 559.81 187.14 560.46 C191.37 585.85 203.01 619.06 231.31 655.31 L215.04 667.88 C169.61 614.68 144.48 560.59 144.48 519.87 C144.48 497.61 158.01 485.1 175.88 485.1 L175.9 485.12 Z M295.35 485.1 C317.07 485.1 337.71 504.25 337.71 527.17 C337.71 543.92 327.13 559.79 306.52 560.44 C310.85 585.83 322.46 619.04 350.76 655.29 L334.52 667.86 C289.07 614.66 263.94 560.57 263.94 519.85 C263.94 497.59 277.4 485.08 295.34 485.08 L295.35 485.1 Z " />
<glyph glyph-name="quotedblright" unicode="&#x201d;" horiz-adv-x="330" d="M322.51 667.98 C300.79 667.98 280.05 648.85 280.05 625.86 C280.05 609.19 290.7 593.32 311.27 592.64 C307.04 567.25 295.33 534.03 267.1 497.78 L283.34 485.2 C328.76 538.43 353.87 592.45 353.87 633.24 C353.87 655.47 340.38 667.98 322.51 667.98 L322.51 667.98 Z M203.06 667.98 C181.31 667.98 160.5 648.88 160.5 625.89 C160.5 609.22 171.22 593.35 191.79 592.67 C187.49 567.28 175.85 534.06 147.62 497.81 L163.79 485.23 C209.22 538.46 234.4 592.48 234.4 633.27 C234.4 655.5 221.03 667.98 203.07 667.98 L203.06 667.98 Z " />
<glyph glyph-name="quotedblbase" unicode="&#x201e;" horiz-adv-x="350" d="M124.12 65.83 C102.37 65.83 81.59 46.68 81.59 23.76 C81.59 7.01001 92.31 -8.85999 112.78 -9.50998 C108.55 -34.9 96.87 -68.11 68.61 -104.36 L84.88 -116.93 C130.28 -63.73 155.46 -9.64 155.46 31.08 C155.46 53.34 141.9 65.85 124.13 65.85 L124.12 65.83 Z M243.6 65.85 C221.85 65.85 201.07 46.7 201.07 23.78 C201.07 7.03 211.79 -8.84 232.33 -9.48999 C228.03 -34.88 216.42 -68.09 188.16 -104.34 L204.36 -116.91 C249.76 -63.71 274.94 -9.62001 274.94 31.1 C274.94 53.36 261.38 65.87 243.61 65.87 L243.6 65.85 Z " />
<glyph glyph-name="dagger" unicode="&#x2020;" horiz-adv-x="498" d="M492.07 480.5 L334.28 480.5 L356.97 642 L321.68 642 L298.99 480.5 L142.14 480.5 L137.06 445.65 L294.1 445.65 L231.49 0 L266.78 0 L329.39 445.65 L487 445.65 L492.07 480.5 Z " />
<glyph glyph-name="daggerdbl" unicode="&#x2021;" horiz-adv-x="498" d="M486.76 445.65 L491.88 480.5 L333.96 480.5 L356.65 642 L321.36 642 L298.67 480.5 L141.95 480.5 L136.8 445.65 L293.78 445.65 L259.16 199.22 L102.4 199.22 L97.35 164.37 L254.27 164.37 L231.18 0 L266.47 0 L289.56 164.37 L447.29 164.37 L452.34 199.22 L294.46 199.22 L329.08 445.65 L486.76 445.65 Z " />
<glyph glyph-name="bullet" unicode="&#x2022;" horiz-adv-x="380" d="M319.11 281.27 C319.11 327.44 286.5 363.88 241.44 363.88 C186.99 363.88 136.92 315.83 136.92 258.7 C136.92 212.73 169.56 176.27 214.99 176.27 C269.01 176.27 319.11 224.26 319.11 281.27 L319.11 281.27 Z " />
<glyph glyph-name="ellipsis" unicode="&#x2026;" horiz-adv-x="550" d="M155.17 32.78 C155.17 51.19 141.71 65.83 123.39 65.83 C101.61 65.83 80.91 46.68 80.91 23.75 C80.91 5.03001 94.42 -9.55998 112.58 -9.55998 C134.43 -9.55998 155.16 9.71002 155.16 32.79 L155.17 32.78 Z M315.87 32.79 C315.87 51.2 302.48 65.84 284.21 65.84 C262.43 65.84 241.69 46.69 241.69 23.76 C241.69 5.04004 255.16 -9.54996 273.39 -9.54996 C295.21 -9.54996 315.87 9.72005 315.87 32.8 L315.87 32.79 Z M476.68 32.8 C476.68 51.2101 463.22 65.8501 444.99 65.8501 C423.21 65.8501 402.42 46.7001 402.42 23.7701 C402.42 5.05006 415.94 -9.53993 434.1 -9.53993 C455.92 -9.53993 476.68 9.73007 476.68 32.8101 L476.68 32.8 Z " />
<glyph glyph-name="perthousand" unicode="&#x2030;" horiz-adv-x="1052" d="M229.55 349.38 C317.88 349.38 382.16 427.22 382.16 517 C382.16 584.3 340.99 635.05 269.69 635.05 C181.16 635.05 116.79 559.15 116.79 467.65 C116.79 400.22 157.7 349.39 229.49 349.39 L229.55 349.38 Z M126.99 -33.67 L165.14 -33.67 L667.34 622.66 L629.19 622.66 L126.99 -33.67 Z M233.78 379.72 C176.52 379.72 148.71 418.59 148.71 469.8 C148.71 538.93 193.22 604.72 265.33 604.72 C322.89 604.72 350.06 564.85 350.06 514.22 C350.06 444.26 305.6 379.72 233.66 379.72 L233.78 379.72 Z M542.36 -6.82999 C630.69 -6.82999 694.97 71.01 694.97 160.79 C694.97 228.09 653.86 278.84 582.56 278.84 C494.03 278.84 429.66 202.93 429.66 111.43 C429.66 44 470.57 -6.82999 542.36 -6.82999 L542.36 -6.82999 Z M871.34 -6.82999 C959.67 -6.82999 1023.95 71.01 1023.95 160.79 C1023.95 228.09 982.84 278.84 911.54 278.84 C823.01 278.84 758.64 202.93 758.64 111.43 C758.64 44 799.55 -6.82999 871.34 -6.82999 L871.34 -6.82999 Z M546.64 23.5 C489.38 23.5 461.57 62.37 461.57 113.58 C461.57 182.71 506.01 248.5 578.12 248.5 C635.68 248.5 662.85 208.63 662.85 158 C662.85 88.04 618.3 23.5 546.36 23.5 L546.64 23.5 Z M875.34 23.5 C818.08 23.5 790.27 62.37 790.27 113.58 C790.27 182.71 834.71 248.5 906.82 248.5 C964.38 248.5 991.55 208.63 991.55 158 C991.55 88.04 947 23.5 875.06 23.5 L875.34 23.5 Z " />
<glyph glyph-name="guilsinglleft" unicode="&#x2039;" horiz-adv-x="289" d="M95.33 256.58 L194.81 111.35 L222.3 131.01 L139.75 254.45 L260.07 379.49 L235.73 401.82 L95.33 256.58 Z " />
<glyph glyph-name="guilsinglright" unicode="&#x203a;" horiz-adv-x="290" d="M265.4 256.58 L165.85 401.81 L137.71 381.75 L220.5 259.32 L100.43 133.97 L124.94 111.33 L265.4 256.58 Z " />
<glyph glyph-name="fraction" unicode="&#x2044;" horiz-adv-x="498" d="M23.03 0 L61.25 0 L565.92 642 L527.77 642 L23.03 0 Z " />
<glyph glyph-name="Euro" unicode="&#x20ac;" horiz-adv-x="657" d="M498.26 619.13 C564.61 619.13 606.17 599.79 644.9 564.67 L669.59 593.56 C632.47 629.21 581.88 654.71 503.37 654.71 C358.6 654.71 237.26 560.16 189.64 411.16 L116.91 411.16 L112.38 379.69 L180.89 379.69 C172.51 344.54 168.03 306.78 168.03 266.86 C168.03 265.86 168.03 264.86 168.03 263.86 L96.18 263.86 L91.72 232.39 L169.4 232.39 C181.04 90.03 265.87 -9.54999 410.51 -9.54999 C496.44 -9.54999 556.69 22.73 602.13 58.89 L586.33 89.75 C543.34 55.49 488.79 26.03 414.68 26.03 C296.45 26.03 221.9 108.76 209.21 232.39 L431.19 232.39 L435.68 263.86 L207.34 263.86 C207.3 266.26 207.28 268.67 207.28 271.09 C207.28 309.59 211.99 346 220.72 379.72 L451.84 379.72 L456.37 411.19 L230.29 411.19 C274.7 537.64 378.48 619.16 498.23 619.16 L498.26 619.13 Z " />
<glyph glyph-name="trademark" unicode="&#x2122;" horiz-adv-x="723" d="M681.9 654.75 L548.67 405.4 L537.11 384.51 L531.41 405.4 L455.09 654.75 L420.84 654.75 L372.82 313.19 L404.99 313.19 L440.38 565.95 L442.95 589.71 L448.14 567.26 L517.86 340.42 L546.22 340.42 L669 566.95 L680.72 590.34 L676.51 565.95 L641.14 313.19 L673.29 313.19 L721.31 654.75 L681.9 654.75 Z M376.58 623.57 L381.01 654.04 L140.19 654.04 L135.73 623.57 L242.11 623.57 L198.55 313.19 L232.35 313.19 L275.91 623.57 L376.58 623.57 Z " />
<glyph glyph-name="arrowleft" unicode="&#x2190;" horiz-adv-x="1314" d="M1059 750 L259 750 C204 750 159 705 159 650 L159 -150 C159 -205 204 -250 259 -250 L1059 -250 C1114 -250 1159 -205 1159 -150 L1159 650 C1159 705 1114 750 1059 750 L1059 750 Z M1044.69 714.68 C1091.66 714.68 1123.67 682.67 1123.67 635.7 L1123.67 -135.47 C1123.67 -182.66 1091.66 -214.66 1044.69 -214.66 L273.31 -214.66 C226.33 -214.66 194.33 -182.66 194.33 -135.68 L194.33 635.7 C194.33 682.67 226.33 714.68 273.31 714.68 L1044.69 714.68 Z M655.73 527.05 L685.95 498.32 L456.13 271.62 L988.85 271.62 L988.85 229.02 L456.06 229.02 L685.95 2.31999 L655.73 -26.41 L378.54 250.28 L655.73 527.05 Z " />
<glyph glyph-name="arrowup" unicode="&#x2191;" horiz-adv-x="1314" d="M1059 750 L259 750 C204 750 159 705 159 650 L159 -150 C159 -205 204 -250 259 -250 L1059 -250 C1114 -250 1159 -205 1159 -150 L1159 650 C1159 705 1114 750 1059 750 L1059 750 Z M1044.69 714.68 C1091.66 714.68 1123.67 682.67 1123.67 635.7 L1123.67 -135.47 C1123.67 -182.66 1091.66 -214.66 1044.69 -214.66 L273.31 -214.66 C226.33 -214.66 194.33 -182.66 194.33 -135.68 L194.33 635.7 C194.33 682.67 226.33 714.68 273.31 714.68 L1044.69 714.68 Z M937.55 270.4 L660.78 547.59 L384.01 270.4 L412.74 240.18 L639.44 470.07 L639.44 -63.01 L682.11 -63.01 L682.11 470.07 L908.81 240.18 L937.55 270.4 Z " />
<glyph glyph-name="arrowright" unicode="&#x2192;" horiz-adv-x="1314" d="M1059 750 L259 750 C204 750 159 705 159 650 L159 -150 C159 -205 204 -250 259 -250 L1059 -250 C1114 -250 1159 -205 1159 -150 L1159 650 C1159 705 1114 750 1059 750 L1059 750 Z M1044.69 714.68 C1091.66 714.68 1123.67 682.67 1123.67 635.7 L1123.67 -135.47 C1123.67 -182.66 1091.66 -214.66 1044.69 -214.66 L273.31 -214.66 C226.33 -214.66 194.33 -182.66 194.33 -135.68 L194.33 635.7 C194.33 682.67 226.33 714.68 273.31 714.68 L1044.69 714.68 Z M701.33 526.55 L978.52 249.78 L701.33 -26.99 L671.11 1.73997 L901 228.44 L368.21 228.44 L368.21 271.11 L901 271.11 L671.11 497.81 L701.33 526.55 Z " />
<glyph glyph-name="arrowdown" unicode="&#x2193;" horiz-adv-x="1314" d="M1059 750 L259 750 C204 750 159 705 159 650 L159 -150 C159 -205 204 -250 259 -250 L1059 -250 C1114 -250 1159 -205 1159 -150 L1159 650 C1159 705 1114 750 1059 750 L1059 750 Z M1044.69 714.68 C1091.66 714.68 1123.67 682.67 1123.67 635.7 L1123.67 -135.47 C1123.67 -182.66 1091.66 -214.66 1044.69 -214.66 L273.31 -214.66 C226.33 -214.66 194.33 -182.66 194.33 -135.68 L194.33 635.7 C194.33 682.67 226.33 714.68 273.31 714.68 L1044.69 714.68 Z M937.48 229.24 L908.75 259.46 L682.05 29.57 L682.05 562.65 L639.46 562.65 L639.46 29.65 L412.76 259.47 L384.03 229.25 L660.87 -47.94 L937.48 229.24 Z " />
<glyph glyph-name="uni2196" unicode="&#x2196;" horiz-adv-x="1314" d="M1059 750 L259 750 C204 750 159 705 159 650 L159 -150 C159 -205 204 -250 259 -250 L1059 -250 C1114 -250 1159 -205 1159 -150 L1159 650 C1159 705 1114 750 1059 750 L1059 750 Z M1044.69 714.68 C1091.66 714.68 1123.67 682.67 1123.67 635.7 L1123.67 -135.47 C1123.67 -182.66 1091.66 -214.66 1044.69 -214.66 L273.31 -214.66 C226.33 -214.66 194.33 -182.66 194.33 -135.68 L194.33 635.7 C194.33 682.67 226.33 714.68 273.31 714.68 L1044.69 714.68 Z M840.43 469.55 L840.22 427.67 L520.71 427.89 L895.22 53.31 L865.28 23.09 L490.7 397.67 L490.99 78.16 L449.11 78.16 L448.68 469.56 L840.43 469.55 Z " />
<glyph glyph-name="uni2197" unicode="&#x2197;" horiz-adv-x="1314" d="M1059 750 L259 750 C204 750 159 705 159 650 L159 -150 C159 -205 204 -250 259 -250 L1059 -250 C1114 -250 1159 -205 1159 -150 L1159 650 C1159 705 1114 750 1059 750 L1059 750 Z M1044.69 714.68 C1091.66 714.68 1123.67 682.67 1123.67 635.7 L1123.67 -135.47 C1123.67 -182.66 1091.66 -214.66 1044.69 -214.66 L273.31 -214.66 C226.33 -214.66 194.33 -182.66 194.33 -135.68 L194.33 635.7 C194.33 682.67 226.33 714.68 273.31 714.68 L1044.69 714.68 Z M496.14 467.83 L887.82 467.97 L887.46 76.5 L845.58 76.5 L845.8 396.01 L471.22 21.5 L441.28 51.72 L815.86 426.3 L496.35 426.01 L496.14 467.83 Z " />
<glyph glyph-name="uni2198" unicode="&#x2198;" horiz-adv-x="1314" d="M1059 750 L259 750 C204 750 159 705 159 650 L159 -150 C159 -205 204 -250 259 -250 L1059 -250 C1114 -250 1159 -205 1159 -150 L1159 650 C1159 705 1114 750 1059 750 L1059 750 Z M1044.69 714.68 C1091.66 714.68 1123.67 682.67 1123.67 635.7 L1123.67 -135.47 C1123.67 -182.66 1091.66 -214.66 1044.69 -214.66 L273.31 -214.66 C226.33 -214.66 194.33 -182.66 194.33 -135.68 L194.33 635.7 C194.33 682.67 226.33 714.68 273.31 714.68 L1044.69 714.68 Z M494.99 23.54 L495.2 65.42 L814.71 65.2 L440.2 439.78 L470.14 470 L844.72 95.42 L844.43 414.93 L886.31 414.93 L886.74 23.53 L494.99 23.54 Z " />
<glyph glyph-name="uni2199" unicode="&#x2199;" horiz-adv-x="1314" d="M1059 750 L259 750 C204 750 159 705 159 650 L159 -150 C159 -205 204 -250 259 -250 L1059 -250 C1114 -250 1159 -205 1159 -150 L1159 650 C1159 705 1114 750 1059 750 L1059 750 Z M1044.69 714.68 C1091.66 714.68 1123.67 682.67 1123.67 635.7 L1123.67 -135.47 C1123.67 -182.66 1091.66 -214.66 1044.69 -214.66 L273.31 -214.66 C226.33 -214.66 194.33 -182.66 194.33 -135.68 L194.33 635.7 C194.33 682.67 226.33 714.68 273.31 714.68 L1044.69 714.68 Z M822.72 21.96 L431.04 21.82 L431.39 413.29 L473.27 413.29 L473.06 93.78 L847.64 468.29 L877.58 438.07 L503 63.49 L822.51 63.78 L822.72 21.96 Z " />
<glyph glyph-name="minus" unicode="&#x2212;" horiz-adv-x="543" d="M117.77 219.42 L486.55 219.42 L491.25 252.15 L122.47 252.15 L117.77 219.42 Z " />
<glyph glyph-name="approxequal" unicode="&#x2248;" horiz-adv-x="539" d="M152.83 271.49 C174.54 302.72 198.52 317.56 235.1 317.56 C289.04 317.56 325.65 272.56 386.71 272.56 C433.97 272.56 476.11 295.98 501.36 338.18 L473.2 353.85 C454.08 325.71 428.24 307.14 391.76 307.14 C340.95 307.14 300.63 352.14 238.41 352.14 C191.19 352.14 151.22 329.26 126.13 287.74 L152.83 271.49 Z M127.84 92.21 C149.55 123.44 173.53 138.28 210.11 138.28 C264.05 138.28 300.66 93.28 361.72 93.28 C408.98 93.28 451.12 116.7 476.37 158.9 L448.21 174.57 C429.09 146.43 403.25 127.86 366.77 127.86 C315.96 127.86 275.64 172.86 213.42 172.86 C166.2 172.86 126.23 149.98 101.14 108.46 L127.84 92.21 Z " />
<glyph glyph-name="notequal" unicode="&#x2260;" horiz-adv-x="515" d="M469.57 298.37 L474.41 331.82 L389.78 331.82 L459.8 432.64 L434.99 449.58 L353.21 331.82 L134.44 331.82 L129.6 298.37 L329.98 298.37 L240.27 169.19 L111.5 169.19 L106.63 135.74 L217.04 135.74 L144.86 31.8 L169.67 14.86 L253.61 135.73 L446.6 135.73 L451.44 169.18 L276.84 169.18 L366.55 298.36 L469.57 298.37 Z " />
<glyph glyph-name="uniF8FF" unicode="&#xf8ff;" horiz-adv-x="1471" d="M731 583 C731 549 758 522 792 522 C827 522 854 549 854 583 C854 618 827 645 792 645 C758 645 731 618 731 583 L731 583 Z M259 270 C259 425 251 544 249 584 L149 584 C147 544 140 423 140 270 L259 270 Z M734 270 L852 270 C852 351 849 464 842 509 L664 509 L663 526 L544 496 L544 417 L566 417 C566 411 562 351 562 330 C562 287 590 264 644 264 C673 264 702 268 712 279 L712 353 C708 349 700 348 694 348 C687 348 681 350 679 352 L676 417 L737 417 C735 380 734 332 734 270 L734 270 Z M368 265 C416 265 435 290 443 331 L451 270 L534 270 L534 397 C534 471 495 514 410 514 C318 514 276 464 276 379 C276 301 311 265 368 265 L368 265 Z M1130 270 L1127 408 C1125 479 1109 514 1050 514 C984 514 972 450 970 433 C970 453 967 487 964 509 L884 509 C877 464 874 351 874 270 L988 270 C988 316 985 343 985 363 C985 380 987 392 1003 392 C1016 392 1018 383 1018 363 C1018 343 1016 316 1016 270 L1130 270 Z M1391 391 C1391 454 1367 514 1270 514 C1172 514 1146 453 1146 389 C1146 313 1183 265 1268 265 C1353 265 1391 312 1391 391 L1391 391 Z M430 375 C430 356 421 345 406 345 C391 345 384 356 384 375 C384 394 391 401 406 401 C421 401 430 394 430 375 L430 375 Z M1291 375 C1291 356 1282 345 1268 345 C1254 345 1247 356 1247 375 C1247 394 1254 401 1268 401 C1282 401 1291 394 1291 375 L1291 375 Z M468 238 L468 119 C468 99 464 92 452 92 C440 92 437 98 437 119 L437 238 L260 238 L261 256 L144 227 L144 147 L162 147 C161 133 159 81 159 66 C159 18 179 -5 240 -5 C290 -5 303 6 308 10 L308 83 C306 81 301 78 290 78 C282 78 278 80 275 82 L272 147 L327 147 L327 134 C327 77 358 51 417 51 C447 51 460 58 466 62 C466 56 458 34 412 34 C369 34 348 46 342 50 L342 -33 C350 -38 371 -50 430 -50 C545 -50 582 -6 582 100 C582 153 576 217 572 238 L468 238 Z M773 243 C710 243 696 176 693 162 C693 180 688 226 686 238 L608 238 C606 210 598 126 598 -44 L717 -44 C717 -37 717 -20 716 -5 C808 -5 853 40 853 130 C853 204 822 243 773 243 L773 243 Z M1110 127 C1110 202 1067 243 994 243 C914 243 869 195 869 117 C869 38 915 -5 1010 -5 C1053 -5 1078 4 1088 11 L1088 86 C1074 78 1052 74 1033 74 C1002 74 988 84 983 92 L1107 92 C1109 101 1110 116 1110 127 L1110 127 Z M1018 109 L978 109 C978 127 987 136 1001 136 C1014 136 1020 127 1018 109 L1018 109 Z M710 72 C709 75 705 85 705 101 C705 123 713 132 727 132 C739 132 747 125 747 109 C747 78 717 72 710 72 L710 72 Z M1114 13 C1114 27 1124 36 1138 36 C1152 36 1162 27 1162 13 C1162 -1 1152 -10 1138 -10 C1124 -10 1114 -1 1114 13 L1114 13 Z M1120 13 C1120 1 1127 -5 1138 -5 C1149 -5 1156 1 1156 13 C1156 25 1149 31 1138 31 C1127 31 1120 25 1120 13 L1120 13 Z M1148 2 L1142 2 L1138 11 L1133 11 L1133 2 L1128 2 L1128 25 L1139 25 C1146 25 1149 22 1149 18 C1149 13 1145 11 1142 11 L1148 2 Z M1140 15 C1143 15 1144 16 1144 18 C1144 20 1143 21 1140 21 L1133 21 L1133 15 L1140 15 Z " />
<glyph glyph-name="fi" unicode="&#xfb01;" horiz-adv-x="522" d="M486.38 468.57 L216.97 468.57 L219.09 483.65 C231.78 574.06 290.75 626.68 376.02 626.68 C424.41 626.68 451.15 609.95 479.54 584.78 L502.42 612.17 C477.84 636.72 436.63 661.13 381.59 661.13 C276.52 661.13 197.45 591.63 181.66 478.94 L180.2 468.56 L113.34 468.56 L108.47 435.11 L175.5 435.11 L114.36 -0.00997925 L151.23 -0.00997925 L212.29 435.11 L444.27 435.11 L383.28 -0.00997925 L420.51 -0.00997925 L486.38 468.57 Z " />
<glyph glyph-name="fl" unicode="&#xfb02;" horiz-adv-x="528" d="M461.45 25.25 C430.44 25.25 418.67 42.03 424.34 82.71 L498.79 614.29 C475.56 639.35 433.69 661.12 382.1 661.12 C276.81 661.12 196.92 591.62 181.1 478.93 L179.64 468.55 L113.62 468.55 L108.75 435.1 L174.93 435.1 L113.79 -0.0200043 L150.66 -0.0200043 L211.72 435.1 L348.58 435.1 L353.45 468.55 L216.42 468.55 L218.54 483.63 C231.23 574.04 291.05 626.66 376.46 626.66 C413.18 626.66 438.34 615.95 459.57 599.4 L386.77 80.26 C377.77 15.79 403.86 -7.59003 451.85 -7.59003 C474.06 -7.59003 489.91 -2.31003 496.54 -0.110031 L501.27 32.59 C494.88 30.39 482.45 25.22 461.48 25.22 L461.45 25.25 Z " />
</font>
</svg>
