<?xml version="1.0" encoding="UTF-8"?>
<svg xmlns="http://www.w3.org/2000/svg" xmlns:xlink="http://www.w3.org/1999/xlink" version="1.2" >
<font id="Informative Work Black">
<font-face  font-family="Informative" units-per-em="1000" ascent="750" descent="-250" font-style="normal" font-weight="900" font-stretch="normal" cap-height="700" x-height="400" underline-position="-75" underline-thickness="50" />
<missing-glyph  horiz-adv-x="500" d="M410 750 L93 750 L93 -250 L410 -250 L410 750 Z M333 683 L333 650 L267 650 L267 613 L333 613 L333 580 L167 580 L167 613 L233 613 L233 650 L168 650 L168 683 L333 683 Z M267 554 L267 484 L333 484 L333 450 L167 450 L167 554 L267 554 Z M233 520 L200 520 L200 484 L233 484 L233 520 Z M333 423 L333 390 L267 390 L267 320 L167 320 L167 353 L233 353 L233 390 L167 390 L167 423 L333 423 Z M333 363 L333 263 L167 263 L167 297 L300 297 L300 363 L333 363 Z M333 241 L333 128 L167 128 L167 241 L200 241 L200 161 L300 161 L300 208 L267 208 L267 185 L233 185 L233 241 L333 241 Z M333 68 L333 -45 L167 -45 L167 68 L333 68 Z M300 35 L200 35 L200 -12 L300 -12 L300 35 Z M333 -68 L333 -101 L301 -101 L231 -148 L333 -148 L333 -181 L167 -181 L167 -148 L237 -101 L167 -101 L167 -68 L333 -68 Z " />
<glyph glyph-name="NULL" d="" />
<glyph glyph-name="CR" unicode="&#xd;" horiz-adv-x="250" d="" />
<glyph glyph-name="space" unicode="&#x20;" horiz-adv-x="600" d="" />
<glyph glyph-name="exclam" unicode="&#x21;" horiz-adv-x="1000" d="M900 750 L100 750 C45 750 0 705 0 650 L0 -150 C0 -205 45 -250 100 -250 L900 -250 C955 -250 1000 -205 1000 -150 L1000 650 C1000 705 955 750 900 750 L900 750 Z M713 468 C765 468 805 428 805 376 C805 324 765 284 713 284 C703 284 694 285 685 288 L602 252 L541 280 L638 322 C627 337 621 355 621 376 C621 428 661 468 713 468 L713 468 Z M713 448 C754 448 785 417 785 376 C785 335 754 304 713 304 C672 304 641 335 641 376 C641 417 672 448 713 448 L713 448 Z M256 414 C256 428 267 439 281 439 L318 439 L318 378 L256 404 L256 414 Z M488 439 C501 439 513 428 513 414 L513 292 L467 312 L467 344 L442 344 L442 323 L365 357 L365 439 L488 439 Z M713 197 C765 197 805 157 805 105 C805 53 765 13 713 13 C661 13 621 53 621 105 C621 126 627 144 638 159 L197 356 C211 386 227 397 263 381 L686 193 C694 196 703 197 713 197 L713 197 Z M281 33 C267 33 256 44 256 58 L256 102 C223 89 207 100 195 130 L256 156 L256 308 L318 280 L318 33 L281 33 Z M513 58 C513 44 501 33 488 33 L365 33 L365 260 L442 225 L442 112 L467 112 L467 214 L513 194 L513 58 Z M515 253 C508 253 503 248 503 241 C503 234 508 229 515 229 C522 229 527 234 527 241 C527 248 522 253 515 253 L515 253 Z M713 177 C754 177 785 146 785 105 C785 64 754 33 713 33 C672 33 641 64 641 105 C641 146 672 177 713 177 L713 177 Z " />
<glyph glyph-name="numbersign" unicode="&#x23;" horiz-adv-x="1000" d="M900 750 L100 750 C45 750 0 705 0 650 L0 -150 C0 -205 45 -250 100 -250 L900 -250 C955 -250 1000 -205 1000 -150 L1000 650 C1000 705 955 750 900 750 L900 750 Z M538 501 L513 477 L542 448 L566 472 L588 451 L564 427 L593 397 L617 421 L639 400 L615 376 L809 180 C821 168 820 152 810 141 L595 -73 C584 -84 568 -85 557 -72 L168 315 C158 325 157 343 168 354 L193 379 C203 372 214 366 222 360 L197 335 L212 320 L417 525 L402 540 L375 513 L359 544 L383 569 C393 579 412 579 422 569 L492 499 L516 523 L538 501 Z M273 572 C296 533 332 508 356 492 L238 374 C212 390 175 413 155 454 L273 572 Z M436 468 L578 327 L410 159 L269 301 L436 468 Z M613 242 C625 242 635 252 635 265 C635 278 625 288 612 288 C599 288 589 278 589 265 C589 253 600 242 613 242 L613 242 Z M666 189 C678 189 688 199 688 212 C688 225 678 235 665 235 C652 235 642 225 642 212 C642 200 653 189 666 189 L666 189 Z M543 172 C555 172 565 182 565 195 C565 208 555 218 542 218 C529 218 519 208 519 195 C519 183 530 172 543 172 L543 172 Z M719 136 C731 136 741 146 741 159 C741 172 731 182 718 182 C705 182 695 172 695 159 C695 147 706 136 719 136 L719 136 Z M596 119 C608 119 618 129 618 142 C618 155 608 165 595 165 C582 165 572 155 572 142 C572 130 583 119 596 119 L596 119 Z M473 102 C485 102 495 112 495 125 C495 138 485 148 472 148 C459 148 449 138 449 125 C449 113 460 102 473 102 L473 102 Z M649 66 C661 66 671 76 671 89 C671 102 661 112 648 112 C635 112 625 102 625 89 C625 77 636 66 649 66 L649 66 Z M526 49 C538 49 548 59 548 72 C548 85 538 95 525 95 C512 95 502 85 502 72 C502 60 513 49 526 49 L526 49 Z M740 33 L778 81 L834 23 C839 17 840 10 834 4 L803 -28 L740 33 Z M579 -4 C591 -4 601 6 601 19 C601 32 591 42 578 42 C565 42 555 32 555 19 C555 7 566 -4 579 -4 L579 -4 Z M714 -99 L669 -56 L724 13 L784 -47 L733 -98 C726 -105 719 -104 714 -99 L714 -99 Z " />
<glyph glyph-name="dollar" unicode="&#x24;" horiz-adv-x="1000" d="M1000 -150 C1000 -205 955 -250 900 -250 L100 -250 C45 -250 0 -205 0 -150 L0 650 C0 705 45 750 100 750 L900 750 C955 750 1000 705 1000 650 L1000 -150 Z M204 581 L204 421 C204 409 213 400 225 400 L377 400 L377 478 L322 478 L322 498 L678 498 L678 478 L623 478 L623 400 L775 400 C786 400 796 409 796 421 L796 581 L204 581 Z M510 133 L603 133 L603 458 L397 440 L397 133 L423 133 L423 170 C423 191 444 214 466 214 C487 214 510 191 510 170 L510 133 Z M327 99 C326 88 326 80 329 73 L394 -56 L518 -56 C518 -41 523 -24 523 -7 C523 22 504 53 490 68 L490 170 C490 183 479 194 466 194 C453 194 443 183 443 170 L443 104 C443 83 423 73 408 73 C391 73 377 87 377 105 L377 275 C361 275 348 268 345 246 L327 99 Z " />
<glyph glyph-name="percent" unicode="&#x25;" horiz-adv-x="1000" d="M900 750 L100 750 C45 750 0 705 0 650 L0 -150 C0 -205 45 -250 100 -250 L900 -250 C955 -250 1000 -205 1000 -150 L1000 650 C1000 705 955 750 900 750 L900 750 Z M793 13 C793 -8 777 -25 756 -25 L691 -25 L681 -80 L661 -80 L651 -25 L367 -25 L357 -80 L337 -80 L327 -25 L260 -25 L260 54 L207 54 L207 154 L260 154 L260 385 L207 385 L207 485 L260 485 L260 570 L756 570 C777 570 793 554 793 533 L793 13 Z M310 498 L721 498 L721 48 L310 48 L310 28 L741 28 L741 518 L310 518 L310 498 Z M315 445 L240 445 L240 425 L315 425 L315 445 Z M619 268 C619 341 557 403 484 403 C411 403 349 341 349 268 C349 195 411 133 484 133 C557 133 619 195 619 268 L619 268 Z M369 268 C369 331 421 383 484 383 C547 383 599 331 599 268 C599 205 547 153 484 153 C421 153 369 205 369 268 L369 268 Z M659 381 L659 154 L679 154 L679 381 L659 381 Z M494 184 L494 206 C504 207 513 211 521 217 L537 201 L551 215 L535 232 C540 239 544 248 545 258 L569 258 L569 278 L545 278 C544 287 540 296 535 304 L551 320 L537 334 L521 318 C513 324 504 328 494 329 L494 350 L474 350 L474 329 C464 328 455 324 447 318 L430 335 L416 321 L433 304 C427 296 423 288 422 278 L399 278 L399 258 L422 258 C423 248 427 238 433 230 L418 215 L432 201 L448 216 C455 211 464 207 474 206 L474 184 L494 184 Z M442 268 C442 291 461 309 484 309 C507 309 526 291 526 268 C526 245 507 226 484 226 C461 226 442 245 442 268 L442 268 Z M315 110 L240 110 L240 90 L315 90 L315 110 Z " />
<glyph glyph-name="ampersand" unicode="&#x26;" horiz-adv-x="1000" d="M900 750 L100 750 C45 750 0 705 0 650 L0 -150 C0 -205 45 -250 100 -250 L900 -250 C955 -250 1000 -205 1000 -150 L1000 650 C1000 705 955 750 900 750 L900 750 Z M574 429 C602 423 627 410 641 396 L627 382 C607 402 562 411 520 411 L520 391 C543 391 567 388 587 383 C635 315 747 205 747 69 C747 52 745 36 740 23 L670 10 L674 -10 L753 4 C770 -5 781 -21 781 -43 L781 -80 L653 -68 L347 -68 L219 -80 L219 -43 C219 -21 230 -5 246 5 L327 -10 L331 10 L261 22 C257 36 254 51 254 69 C254 225 400 346 430 411 L400 411 L400 431 L417 431 C404 459 373 488 373 537 C385 542 396 544 406 544 C420 544 431 539 439 535 L439 481 L459 471 L459 545 C471 551 484 554 496 554 C508 554 521 551 533 545 L533 471 L553 481 L553 535 C561 539 572 544 586 544 C596 544 607 542 619 537 C619 488 587 457 574 429 L574 429 Z M501 236 C517 236 525 232 538 221 L550 237 C538 247 524 254 507 256 L507 321 L487 309 L487 255 C468 251 451 240 451 217 C451 193 469 180 492 167 C513 155 527 148 527 134 C527 124 516 115 500 115 C475 115 464 123 455 132 L441 118 C450 109 464 99 487 96 L487 30 L507 42 L507 95 C530 98 547 114 547 134 C547 158 523 174 501 185 C479 196 471 203 471 217 C471 230 484 236 501 236 L501 236 Z " />
<glyph glyph-name="quotesingle" unicode="&#x27;" horiz-adv-x="1000" d="M1000 -150 L1000 650 C1000 705 955 750 900 750 L100 750 C45 750 0 705 0 650 L0 -150 C0 -205 45 -250 100 -250 L900 -250 C955 -250 1000 -205 1000 -150 L1000 -150 Z M746 465 L779 498 L840 437 L807 404 L746 465 Z M710 457 L614 361 L160 361 L160 432 C160 445 172 457 185 457 L710 457 Z M512 170 L512 231 L732 451 L793 390 L573 170 L512 170 Z M587 233 L569 251 L674 355 L691 337 L587 233 Z M720 289 L790 289 L790 86 C790 72 778 61 765 61 L185 61 C172 61 160 72 160 86 L160 289 L542 289 L492 239 L492 150 L581 150 L720 289 Z M457 137 L457 162 L223 162 L223 137 L457 137 Z " />
<glyph glyph-name="parenleft" unicode="&#x28;" horiz-adv-x="1000" d="M900 750 L100 750 C45 750 0 705 0 650 L0 -150 C0 -205 45 -250 100 -250 L900 -250 C955 -250 1000 -205 1000 -150 L1000 650 C1000 705 955 750 900 750 L900 750 Z M379 593 L526 575 C547 572 555 559 555 543 L386 543 C368 543 353 527 353 510 C353 495 364 477 386 477 L450 477 C463 477 474 467 474 454 C474 441 463 430 450 430 L348 430 C333 416 302 397 273 397 C256 397 239 402 224 402 L224 526 L345 587 C355 592 368 594 379 593 L379 593 Z M587 523 L587 352 C563 358 538 360 512 360 C484 360 456 356 431 349 L431 410 L450 410 C471 410 494 433 494 454 C494 476 471 498 450 498 L431 498 L431 523 L587 523 Z M512 340 C559 340 602 329 640 311 L649 329 C712 298 758 247 771 187 C777 185 785 184 792 184 C805 185 818 187 830 190 L830 174 C822 166 802 153 774 152 C774 84 734 22 667 -18 L651 -99 L610 -99 L592 -47 C566 -54 539 -57 513 -57 C491 -57 471 -56 452 -51 L436 -99 L397 -99 L390 -37 C344 -24 267 75 218 75 L185 75 L170 165 L176 165 C199 165 250 201 261 237 L208 288 L208 292 L313 292 C331 308 352 321 375 332 L385 311 C423 329 465 340 512 340 L512 340 Z M534 164 C512 175 504 182 504 196 C504 209 517 215 534 215 C550 215 558 211 571 200 L583 216 C571 226 557 233 540 235 L540 300 L520 288 L520 234 C501 230 484 219 484 196 C484 172 502 159 525 146 C546 134 560 127 560 113 C560 103 549 94 533 94 C508 94 497 102 488 111 L474 97 C483 88 497 78 520 75 L520 9 L540 21 L540 74 C563 77 580 93 580 113 C580 137 556 153 534 164 L534 164 Z M298 181 C288 181 281 174 281 164 C281 155 288 147 298 147 C307 147 315 155 315 164 C315 174 307 181 298 181 L298 181 Z " />
<glyph glyph-name="parenright" unicode="&#x29;" horiz-adv-x="1000" d="M900 750 L100 750 C45 750 0 705 0 650 L0 -150 C0 -205 45 -250 100 -250 L900 -250 C955 -250 1000 -205 1000 -150 L1000 650 C1000 705 955 750 900 750 L900 750 Z M340 603 L487 585 C509 582 516 569 516 553 L346 553 C328 553 313 537 313 520 C313 505 325 487 346 487 L411 487 C424 487 435 476 435 463 C435 450 424 439 411 439 L309 439 C294 425 263 407 234 407 C217 407 200 412 185 412 L185 536 L308 598 C316 602 329 604 340 603 L340 603 Z M503 533 C541 521 566 485 566 446 C566 407 541 374 505 360 C491 359 468 357 442 354 C406 362 377 386 367 419 L411 419 C435 419 455 439 455 463 C455 487 435 507 411 507 L388 507 C398 518 411 527 426 533 L503 533 Z M581 477 C610 461 630 430 630 396 C630 377 624 358 613 343 C590 351 567 356 541 359 C568 381 586 412 586 446 C586 456 584 467 581 477 L581 477 Z M375 332 L385 311 C423 329 465 340 512 340 C559 340 602 329 640 311 L649 329 C712 298 758 247 771 187 C777 185 784 184 792 184 C804 184 818 187 830 190 L830 174 C822 166 802 153 774 152 C774 84 734 22 667 -18 L651 -99 L610 -99 L592 -47 C566 -54 539 -57 513 -57 C491 -57 471 -56 452 -51 L436 -99 L397 -99 L390 -37 C344 -24 267 75 218 75 L185 75 L170 165 L176 165 C199 165 250 201 261 237 L208 288 L208 292 L313 292 C331 308 352 321 375 332 L375 332 Z M534 164 C512 175 504 182 504 196 C504 209 517 215 534 215 C550 215 558 211 571 200 L583 216 C571 226 557 233 540 235 L540 300 L520 288 L520 234 C501 230 484 219 484 196 C484 172 502 159 525 146 C545 135 560 127 560 113 C560 103 549 94 533 94 C508 94 497 102 488 111 L474 97 C483 88 497 78 520 75 L520 9 L540 21 L540 74 C563 77 580 93 580 113 C580 137 556 153 534 164 L534 164 Z M298 181 C288 181 281 174 281 164 C281 155 288 147 298 147 C307 147 315 155 315 164 C315 174 307 181 298 181 L298 181 Z " />
<glyph glyph-name="asterisk" unicode="&#x2a;" horiz-adv-x="1000" d="M900 750 L100 750 C45 750 0 705 0 650 L0 -150 C0 -205 45 -250 100 -250 L900 -250 C955 -250 1000 -205 1000 -150 L1000 650 C1000 705 955 750 900 750 L900 750 Z M511 584 C573 584 624 534 624 472 C624 450 617 429 606 412 C577 420 545 424 514 424 C480 424 448 419 417 411 C406 429 399 450 399 472 C399 534 449 584 511 584 L511 584 Z M850 207 C842 199 821 185 792 184 C792 113 750 48 679 6 L663 -80 L619 -80 L601 -25 C573 -32 544 -36 516 -36 C494 -36 473 -34 454 -29 L437 -80 L396 -80 L389 -14 C340 -1 259 103 208 103 L166 103 L150 198 L164 198 C188 198 241 235 253 273 L197 327 L197 331 L308 331 C360 376 431 404 514 404 C651 404 767 324 789 221 C795 219 802 218 810 218 C823 218 838 221 850 224 L850 207 Z M522 265 C538 265 547 260 559 251 L571 267 C558 277 545 284 527 285 L527 350 L507 339 L507 284 C489 280 472 269 472 246 C472 222 489 209 513 197 C533 187 548 178 548 164 C548 153 536 144 521 144 C495 144 485 152 476 161 L462 147 C470 137 486 126 512 124 L512 60 L532 72 L532 125 C552 129 568 145 568 164 C568 188 543 205 521 215 C499 225 492 232 492 246 C492 259 505 265 522 265 L522 265 Z M278 224 C268 224 260 216 260 206 C260 195 268 187 278 187 C289 187 297 195 297 206 C297 216 289 224 278 224 L278 224 Z " />
<glyph glyph-name="plus" unicode="&#x2b;" horiz-adv-x="1000" d="M900 750 L100 750 C45 750 0 705 0 650 L0 -150 C0 -205 45 -250 100 -250 L900 -250 C955 -250 1000 -205 1000 -150 L1000 650 C1000 705 955 750 900 750 L900 750 Z M192 501 L192 107 L168 107 L168 501 L192 501 Z M249 501 L249 107 L224 107 L224 501 L249 501 Z M325 501 L325 151 L287 151 L287 501 L325 501 Z M413 501 L413 151 L363 151 L363 501 L413 501 Z M471 501 L471 151 L446 151 L446 501 L471 501 Z M540 501 L540 151 L515 151 L515 501 L540 501 Z M616 501 L616 151 L579 151 L579 501 L616 501 Z M705 501 L705 151 L655 151 L655 501 L705 501 Z M762 501 L762 107 L737 107 L737 501 L762 501 Z M832 501 L832 107 L807 107 L807 501 L832 501 Z M192 70 L192 30 L168 30 L168 70 L192 70 Z M249 70 L249 30 L224 30 L224 70 L249 70 Z M325 70 L325 30 L287 30 L287 70 L325 70 Z M413 70 L413 30 L363 30 L363 70 L413 70 Z M471 70 L471 30 L446 30 L446 70 L471 70 Z M540 70 L540 30 L515 30 L515 70 L540 70 Z M616 70 L616 30 L579 30 L579 70 L616 70 Z M705 70 L705 30 L655 30 L655 70 L705 70 Z M762 70 L762 30 L737 30 L737 70 L762 70 Z M832 70 L832 30 L807 30 L807 70 L832 70 Z " />
<glyph glyph-name="comma" unicode="&#x2c;" horiz-adv-x="1000" d="M900 750 L100 750 C45 750 0 705 0 650 L0 -150 C0 -205 45 -250 100 -250 L900 -250 C955 -250 1000 -205 1000 -150 L1000 650 C1000 705 955 750 900 750 L900 750 Z M683 576 L715 544 L476 304 C465 303 453 297 443 287 L420 265 L398 286 C391 293 390 304 398 313 L660 576 C667 583 676 583 683 576 L683 576 Z M836 396 L576 136 C569 129 556 129 549 136 L494 190 L517 213 C529 225 534 238 534 250 C534 263 530 275 522 285 L747 512 L836 423 C842 417 843 403 836 396 L836 396 Z M364 24 C347 8 253 -61 236 -75 L159 6 L254 289 C257 296 263 304 278 316 L437 440 C459 457 477 456 494 438 L330 274 C311 255 316 228 330 214 C350 194 374 190 393 209 L457 273 C465 281 474 284 482 284 C499 284 514 268 514 250 C514 243 510 234 503 227 L405 129 C403 100 391 52 364 24 L364 24 Z M578 232 L596 214 L694 313 L676 330 L578 232 Z " />
<glyph glyph-name="hyphen" unicode="&#x2d;" horiz-adv-x="1000" d="M900 750 L100 750 C45 750 0 705 0 650 L0 -150 C0 -205 45 -250 100 -250 L900 -250 C955 -250 1000 -205 1000 -150 L1000 650 C1000 705 955 750 900 750 L900 750 Z M672 340 L415 488 L590 590 L847 441 L672 340 Z M631 23 L611 33 L409 -83 L175 52 L195 64 L409 -59 L611 57 L611 124 L409 8 L175 143 L195 154 L409 32 L611 148 L611 215 L409 98 L178 231 L199 243 L409 122 L611 239 L611 286 L594 296 L527 257 L451 301 C456 305 461 313 461 318 C461 330 440 340 418 340 C399 340 363 332 351 332 C340 332 333 336 333 340 C333 352 353 362 379 362 L377 376 C359 376 346 373 335 368 L270 404 L322 434 L322 453 L343 465 L631 298 L631 23 Z M253 394 L318 358 C313 353 308 347 308 341 C308 327 328 318 351 318 C368 318 398 326 418 326 C422 326 435 326 435 316 C435 306 406 295 384 295 L383 280 L388 280 C399 280 415 282 433 291 L510 247 L409 188 L152 336 L253 394 Z M687 259 L687 282 L793 344 L813 332 L687 259 Z M800 257 L820 245 L687 168 L687 192 L800 257 Z M687 78 L687 101 L804 168 L823 157 L687 78 Z " />
<glyph glyph-name="period" unicode="&#x2e;" horiz-adv-x="1000" d="M1000 -150 C1000 -205 955 -250 900 -250 L100 -250 C45 -250 0 -205 0 -150 L0 650 C0 705 45 750 100 750 L900 750 C955 750 1000 705 1000 650 L1000 -150 Z M763 510 L186 510 C172 510 161 499 161 485 L161 414 L788 414 L788 485 C788 499 777 510 763 510 L763 510 Z M161 140 C161 126 172 115 186 115 L638 115 C630 131 625 149 625 168 C625 233 678 286 743 286 C759 286 774 283 788 277 L788 342 L161 342 L161 140 Z M839 168 C839 221 796 264 743 264 C690 264 647 221 647 168 C647 115 690 72 743 72 C796 72 839 115 839 168 L839 168 Z M518 191 L286 191 L286 216 L518 216 L518 191 Z M704 116 L669 151 L686 169 L721 134 L796 209 L814 191 L739 115 C734 110 728 107 722 107 C716 107 710 110 704 116 L704 116 Z " />
<glyph glyph-name="slash" unicode="&#x2f;" horiz-adv-x="1000" d="M100 -250 L900 -250 C955 -250 1000 -205 1000 -150 L1000 650 C1000 705 955 750 900 750 L100 750 C45 750 0 705 0 650 L0 -150 C0 -205 45 -250 100 -250 L100 -250 Z M649 468 L577 478 L588 568 C591 590 612 606 634 606 C659 606 700 592 710 568 L696 505 C690 479 665 466 649 468 L649 468 Z M605 -100 L588 74 L501 198 C487 218 484 238 491 267 L513 356 L459 333 L382 188 C400 181 409 160 402 142 L343 -12 C336 -30 315 -39 297 -32 L243 -10 C225 -3 216 18 223 36 L282 190 C289 209 309 217 327 210 L363 196 L393 252 L377 260 C369 264 368 274 373 285 L425 396 L495 434 C532 454 561 458 585 448 L619 434 C635 427 642 413 639 390 L614 225 L654 107 C657 99 657 92 657 85 L657 -69 C657 -87 652 -100 637 -100 L605 -100 Z M756 191 L688 237 L646 300 L659 388 L716 289 L772 240 C783 231 780 217 771 207 L756 191 Z M415 -73 L384 -63 L456 65 L476 202 C478 196 481 192 484 187 L533 118 L526 72 C524 59 519 48 512 38 L453 -53 C440 -72 430 -78 415 -73 L415 -73 Z M269 -100 C257 -100 247 -90 247 -78 C247 -66 257 -56 269 -56 C281 -56 291 -66 291 -78 C291 -90 281 -100 269 -100 L269 -100 Z " />
<glyph glyph-name="zero" unicode="0" horiz-adv-x="1000" d="M900 750 L100 750 C45 750 0 705 0 650 L0 -150 C0 -205 45 -250 100 -250 L900 -250 C955 -250 1000 -205 1000 -150 L1000 650 C1000 705 955 750 900 750 L900 750 Z M440 567 L451 517 C466 513 481 507 495 499 L538 527 L587 477 L560 434 C567 421 574 406 578 390 L628 380 L628 309 L578 299 C574 283 567 268 560 254 L587 212 L538 162 L495 190 C481 182 466 176 451 172 L440 122 L370 122 L360 172 C344 176 329 182 315 190 L273 162 L223 212 L251 254 C243 268 237 283 232 299 L183 309 L183 380 L232 390 C237 406 243 421 251 434 L223 477 L273 527 L315 499 C329 507 344 513 360 517 L370 567 L440 567 Z M405 438 C354 438 311 396 311 344 C311 293 354 251 405 251 C457 251 499 293 499 344 C499 396 457 438 405 438 L405 438 Z M670 201 L682 173 C698 173 718 170 736 159 L764 181 L797 148 L776 120 C784 104 789 87 790 69 L817 57 L805 12 L776 15 C766 -2 752 -16 736 -25 L739 -55 L694 -67 L681 -39 C664 -39 645 -34 631 -25 L603 -47 L569 -14 L591 14 C582 31 577 49 577 69 L549 80 L562 125 L592 121 C601 137 614 149 629 158 L625 189 L670 201 Z M683 27 C705 27 723 45 723 67 C723 89 705 107 683 107 C661 107 643 89 643 67 C643 45 661 27 683 27 L683 27 Z " />
<glyph glyph-name="one" unicode="1" horiz-adv-x="1000" d="M900 750 L100 750 C45 750 0 705 0 650 L0 -150 C0 -205 45 -250 100 -250 L900 -250 C955 -250 1000 -205 1000 -150 L1000 650 C1000 705 955 750 900 750 L900 750 Z M808 492 C826 492 840 479 840 463 L840 118 C840 103 826 90 808 90 L193 90 C175 90 160 103 160 118 L160 463 C160 479 175 492 193 492 L808 492 Z M442 436 L214 436 L214 147 L442 147 L442 436 Z M771 390 L522 390 L522 365 L771 365 L771 390 Z M294 312 C289 316 287 321 290 331 L300 364 C304 376 313 386 327 386 C344 386 350 377 354 363 L368 312 C360 304 343 298 331 298 C319 298 303 304 294 312 L294 312 Z M771 303 L522 303 L522 278 L771 278 L771 303 Z M394 268 L410 195 L246 195 L262 268 C270 275 291 276 303 278 L328 255 L353 278 C365 276 386 275 394 268 L394 268 Z M771 217 L522 217 L522 192 L771 192 L771 217 Z " />
<glyph glyph-name="two" unicode="2" horiz-adv-x="1000" d="M900 750 L100 750 C45 750 0 705 0 650 L0 -150 C0 -205 45 -250 100 -250 L900 -250 C955 -250 1000 -205 1000 -150 L1000 650 C1000 705 955 750 900 750 L900 750 Z M808 492 C826 492 840 479 840 463 L840 118 C840 103 826 90 808 90 L193 90 C175 90 160 103 160 118 L160 463 C160 479 175 492 193 492 L808 492 Z M442 436 L214 436 L214 147 L442 147 L442 436 Z M771 390 L522 390 L522 365 L771 365 L771 390 Z M322 382 C342 382 354 376 359 355 C359 349 353 313 352 306 C345 299 332 295 322 293 C313 295 300 299 293 306 C292 313 286 349 286 355 C291 376 303 382 322 382 L322 382 Z M771 303 L522 303 L522 278 L771 278 L771 303 Z M348 277 C360 275 381 274 388 267 L405 194 L240 194 L256 267 C264 274 285 275 297 277 L323 255 L348 277 Z M771 217 L522 217 L522 192 L771 192 L771 217 Z " />
<glyph glyph-name="three" unicode="3" horiz-adv-x="1000" d="M900 750 L100 750 C45 750 0 705 0 650 L0 -150 C0 -205 45 -250 100 -250 L900 -250 C955 -250 1000 -205 1000 -150 L1000 650 C1000 705 955 750 900 750 L900 750 Z M808 492 C826 492 840 479 840 463 L840 118 C840 103 826 90 808 90 L193 90 C175 90 160 103 160 118 L160 463 C160 479 175 492 193 492 L808 492 Z M329 386 C310 386 298 379 293 358 C293 352 299 316 300 309 C307 302 320 298 329 296 C339 298 352 302 359 309 C360 316 366 352 366 358 C361 379 349 386 329 386 L329 386 Z M771 304 L521 304 L521 279 L771 279 L771 304 Z M355 280 L330 257 L304 280 C292 278 271 277 263 270 L247 197 L412 197 L395 270 C388 277 367 280 355 280 L355 280 Z M771 219 L521 219 L521 194 L771 194 L771 219 Z M412 159 L247 159 L247 134 L412 134 L412 159 Z " />
<glyph glyph-name="four" unicode="4" horiz-adv-x="1000" d="M900 750 L100 750 C45 750 0 705 0 650 L0 -150 C0 -205 45 -250 100 -250 L900 -250 C955 -250 1000 -205 1000 -150 L1000 650 C1000 705 955 750 900 750 L900 750 Z M808 492 C826 492 840 479 840 463 L840 118 C840 103 826 90 808 90 L193 90 C175 90 160 103 160 118 L160 463 C160 479 175 492 193 492 L808 492 Z M294 312 C303 304 319 298 331 298 C343 298 360 304 368 312 L354 363 C350 377 344 386 327 386 C313 386 304 376 300 364 L290 331 C287 321 289 316 294 312 L294 312 Z M761 303 L761 278 L512 278 L512 303 L761 303 Z M394 268 C386 275 365 278 353 278 L328 256 L303 278 C291 276 270 275 262 268 L246 195 L410 195 L394 268 Z M761 217 L761 192 L512 192 L512 217 L761 217 Z M412 159 L412 134 L247 134 L247 159 L412 159 Z " />
<glyph glyph-name="five" unicode="5" horiz-adv-x="1000" d="M900 750 L100 750 C45 750 0 705 0 650 L0 -150 C0 -205 45 -250 100 -250 L900 -250 C955 -250 1000 -205 1000 -150 L1000 650 C1000 705 955 750 900 750 L900 750 Z M807 492 C825 492 840 479 840 463 L840 118 C840 103 825 90 807 90 L192 90 C174 90 160 103 160 118 L160 463 C160 479 174 492 192 492 L807 492 Z M672 420 C713 420 747 386 747 345 C747 303 713 269 672 269 C630 269 596 303 596 345 C596 386 630 420 672 420 L672 420 Z M488 390 L239 390 L239 365 L488 365 L488 390 Z M672 378 C653 378 638 363 638 345 C638 326 653 311 672 311 C690 311 705 326 705 345 C705 363 690 378 672 378 L672 378 Z M488 303 L239 303 L239 278 L488 278 L488 303 Z M623 264 C637 255 654 249 672 249 C688 249 704 254 719 263 L733 126 L671 149 L610 126 L623 264 Z M488 217 L239 217 L239 192 L488 192 L488 217 Z " />
<glyph glyph-name="six" unicode="6" horiz-adv-x="1000" d="M900 750 L100 750 C45 750 0 705 0 650 L0 -150 C0 -205 45 -250 100 -250 L900 -250 C955 -250 1000 -205 1000 -150 L1000 650 C1000 705 955 750 900 750 L900 750 Z M424 514 C424 542 446 564 474 564 L519 564 C546 564 569 542 569 514 L569 362 L424 362 L424 514 Z M496 452 C510 452 521 463 521 477 C521 491 510 502 496 502 C482 502 471 491 471 477 C471 463 482 452 496 452 L496 452 Z M840 38 C840 22 825 9 807 9 L192 9 C174 9 160 22 160 38 L160 383 C160 398 174 411 192 411 L404 411 L404 362 L377 362 L377 342 L615 342 L615 362 L589 362 L589 411 L807 411 C825 411 840 398 840 383 L840 38 Z M329 216 C339 218 352 222 359 229 C360 236 366 272 366 278 C361 299 349 305 329 305 C310 305 298 299 293 278 C293 272 299 236 300 229 C307 222 320 218 329 216 L329 216 Z M521 185 L771 185 L771 210 L521 210 L521 185 Z M355 200 L330 178 L304 200 C292 198 271 197 263 190 L247 117 L412 117 L395 190 C388 197 367 200 355 200 L355 200 Z M521 100 L771 100 L771 125 L521 125 L521 100 Z M247 53 L412 53 L412 78 L247 78 L247 53 Z " />
<glyph glyph-name="seven" unicode="7" horiz-adv-x="1000" d="M900 750 L100 750 C45 750 0 705 0 650 L0 -150 C0 -205 45 -250 100 -250 L900 -250 C955 -250 1000 -205 1000 -150 L1000 650 C1000 705 955 750 900 750 L900 750 Z M424 514 C424 542 446 564 474 564 L519 564 C546 564 569 542 569 514 L569 362 L424 362 L424 514 Z M496 452 C510 452 521 463 521 477 C521 491 510 502 496 502 C482 502 471 491 471 477 C471 463 482 452 496 452 L496 452 Z M840 38 C840 22 825 9 807 9 L192 9 C174 9 160 22 160 38 L160 383 C160 398 174 411 192 411 L404 411 L404 362 L377 362 L377 342 L615 342 L615 362 L589 362 L589 411 L807 411 C825 411 840 398 840 383 L840 38 Z M296 234 C306 226 321 220 333 220 C345 220 362 226 370 234 L356 285 C352 299 346 308 329 308 C315 308 306 298 302 286 L292 253 C289 243 291 238 296 234 L296 234 Z M521 185 L771 185 L771 210 L521 210 L521 185 Z M355 200 L330 178 L305 200 C293 198 272 197 264 190 L248 117 L412 117 L396 190 C388 197 367 200 355 200 L355 200 Z M521 100 L771 100 L771 125 L521 125 L521 100 Z M247 53 L412 53 L412 78 L247 78 L247 53 Z " />
<glyph glyph-name="eight" unicode="8" horiz-adv-x="1000" d="M900 750 L100 750 C45 750 0 705 0 650 L0 -150 C0 -205 45 -250 100 -250 L900 -250 C955 -250 1000 -205 1000 -150 L1000 650 C1000 705 955 750 900 750 L900 750 Z M245 418 L245 542 L373 606 C380 609 389 610 400 609 L547 591 C569 588 576 575 576 559 L406 559 C388 559 374 545 374 528 C374 513 384 493 405 493 L471 493 C484 493 495 483 495 470 C495 457 484 446 471 446 L369 446 C354 432 323 413 294 413 C277 413 260 418 245 418 L245 418 Z M626 324 L432 324 L432 426 L471 426 C492 426 515 449 515 470 C515 492 492 513 471 513 L432 513 L432 539 L626 539 L626 324 Z M570 467 C580 467 588 475 588 485 C588 495 580 503 570 503 C560 503 552 495 552 485 C552 475 560 467 570 467 L570 467 Z M570 362 C580 362 588 370 588 380 C588 390 580 399 570 399 C560 399 552 390 552 380 C552 370 560 362 570 362 L570 362 Z M755 -52 C755 -73 738 -90 718 -90 L341 -90 C320 -90 303 -73 303 -52 L303 279 L366 386 L412 386 L412 324 L380 324 L380 304 L678 304 L678 324 L646 324 L646 386 L693 386 L755 279 L755 -52 Z M529 238 C456 238 396 178 396 104 C396 31 456 -29 529 -29 C603 -29 663 31 663 104 C663 178 603 238 529 238 L529 238 Z M580 40 L522 97 L522 197 L542 197 L542 105 L594 54 L580 40 Z " />
<glyph glyph-name="nine" unicode="9" horiz-adv-x="1000" d="M900 750 L100 750 C45 750 0 705 0 650 L0 -150 C0 -205 45 -250 100 -250 L900 -250 C955 -250 1000 -205 1000 -150 L1000 650 C1000 705 955 750 900 750 L900 750 Z M168 492 L296 557 C304 561 312 560 323 559 L470 541 C492 538 499 525 499 509 L329 509 C311 509 297 495 297 478 C297 463 307 443 328 443 L394 443 C407 443 418 433 418 420 C418 407 407 396 394 396 L292 396 C277 382 246 363 217 363 C200 363 183 368 168 368 L168 492 Z M511 286 L355 286 L355 376 L394 376 C415 376 438 399 438 420 C438 442 415 463 394 463 L355 463 L355 489 L511 489 L511 286 Z M452 322 C462 322 470 331 470 341 C470 351 462 360 452 360 C441 360 433 351 433 341 C433 331 441 322 452 322 L452 322 Z M832 -84 L206 -84 L206 323 C206 337 218 348 231 348 L335 348 L335 286 L302 286 L302 266 L550 266 L550 286 L531 286 L531 348 L807 348 C821 348 832 337 832 323 L832 -84 Z M762 293 L623 293 L623 228 L578 228 L578 208 L623 208 L623 122 L578 122 L578 102 L795 102 L795 122 L762 122 L762 208 L795 208 L795 228 L762 228 L762 293 Z M709 122 C710 125 711 128 711 131 C711 141 703 150 693 150 C682 150 674 141 674 131 C674 128 675 125 676 122 L643 122 L643 273 L742 273 L742 122 L709 122 Z M693 248 C682 248 674 239 674 229 C674 219 682 210 693 210 C703 210 711 219 711 229 C711 239 703 248 693 248 L693 248 Z M401 226 C338 226 287 175 287 112 C287 49 338 -3 401 -3 C465 -3 516 49 516 112 C516 175 465 226 401 226 L401 226 Z M443 59 L396 106 L396 198 L416 198 L416 114 L457 73 L443 59 Z M578 -4 L795 -4 L795 16 L578 16 L578 -4 Z " />
<glyph glyph-name="colon" unicode="&#x3a;" horiz-adv-x="1000" d="M900 750 L100 750 C45 750 0 705 0 650 L0 -150 C0 -205 45 -250 100 -250 L900 -250 C955 -250 1000 -205 1000 -150 L1000 650 C1000 705 955 750 900 750 L900 750 Z M850 191 C850 174 836 160 819 160 L766 160 L766 382 C766 407 740 433 715 433 L282 433 L282 486 C282 503 296 517 313 517 L819 517 C836 517 850 503 850 486 L850 191 Z M746 334 L150 334 L150 382 C150 399 164 413 181 413 L715 413 C732 413 746 399 746 382 L746 334 Z M746 68 C746 51 732 38 715 38 L181 38 C164 38 150 51 150 68 L150 266 L746 266 L746 68 Z M481 149 L273 149 L273 124 L481 124 L481 149 Z " />
<glyph glyph-name="semicolon" unicode="&#x3b;" horiz-adv-x="1000" d="M900 750 L100 750 C45 750 0 705 0 650 L0 -150 C0 -205 45 -250 100 -250 L900 -250 C955 -250 1000 -205 1000 -150 L1000 650 C1000 705 955 750 900 750 L900 750 Z M391 571 C400 589 421 593 446 593 C472 593 489 581 497 561 C495 537 484 492 479 482 C475 474 448 468 434 467 C421 471 396 482 393 490 C390 500 388 547 391 571 L391 571 Z M790 -53 C790 -74 773 -90 753 -90 L623 -90 C602 -90 586 -74 586 -53 L586 129 C586 149 602 166 623 166 L632 166 L632 224 L566 306 L503 344 L496 343 L502 234 L362 444 C370 446 379 446 387 445 L464 435 C490 432 517 425 550 395 L613 339 L654 249 L733 249 L733 166 L753 166 C773 166 790 149 790 129 L790 -53 Z M460 -91 L438 144 L426 144 L400 -91 L328 -91 L332 -26 C344 -17 353 -3 353 11 L353 139 L364 317 L344 319 L333 139 L333 11 C333 -3 322 -14 308 -14 L235 -14 C222 -14 210 -3 210 11 L210 139 C210 152 222 164 235 164 L312 164 L313 184 L289 184 L306 374 C309 404 324 425 343 436 L505 195 L520 -91 L460 -91 Z M713 229 L652 229 L652 166 L713 166 L713 229 Z M639 -42 L659 -42 L659 79 L673 79 L673 99 L639 99 L639 -42 Z M711 -42 L731 -42 L731 79 L745 79 L745 99 L711 99 L711 -42 Z " />
<glyph glyph-name="equal" unicode="&#x3d;" horiz-adv-x="1000" d="M100 -250 L900 -250 C955 -250 1000 -205 1000 -150 L1000 650 C1000 705 955 750 900 750 L100 750 C45 750 0 705 0 650 L0 -150 C0 -205 45 -250 100 -250 L100 -250 Z M574 429 C602 423 627 410 641 396 L627 382 C607 402 562 411 520 411 L520 391 C543 391 567 388 587 383 C635 315 747 205 747 69 C747 52 745 36 740 23 L670 10 L674 -10 L753 4 C770 -5 781 -21 781 -43 L781 -80 L653 -68 L347 -68 L219 -80 L219 -43 C219 -21 230 -5 246 5 L327 -10 L331 10 L261 22 C257 36 254 51 254 69 C254 225 400 346 430 411 L400 411 L400 431 L417 431 C404 459 373 488 373 537 C385 542 396 544 406 544 C420 544 431 539 439 535 L439 481 L459 471 L459 545 C471 551 484 554 496 554 C508 554 521 551 533 545 L533 471 L553 481 L553 535 C561 539 572 544 586 544 C596 544 607 542 619 537 C619 488 587 457 574 429 L574 429 Z " />
<glyph glyph-name="question" unicode="&#x3f;" horiz-adv-x="1000" d="M1000 -150 C1000 -205 955 -250 900 -250 L100 -250 C45 -250 0 -205 0 -150 L0 650 C0 705 45 750 100 750 L900 750 C955 750 1000 705 1000 650 L1000 -150 Z M763 510 L186 510 C172 510 161 499 161 485 L161 414 L788 414 L788 485 C788 499 777 510 763 510 L763 510 Z M161 140 C161 126 172 115 186 115 L638 115 C630 131 625 149 625 168 C625 233 678 286 743 286 C759 286 774 283 788 277 L788 342 L161 342 L161 140 Z M839 168 C839 221 796 264 743 264 C690 264 647 221 647 168 C647 115 690 72 743 72 C796 72 839 115 839 168 L839 168 Z M798 205 L780 223 L743 186 L706 223 L688 205 L725 168 L688 130 L706 113 L743 150 L780 113 L798 130 L761 168 L798 205 Z M518 191 L286 191 L286 216 L518 216 L518 191 Z " />
<glyph glyph-name="at" unicode="&#x40;" horiz-adv-x="1000" d="M900 750 L100 750 C45 750 0 705 0 650 L0 -150 C0 -205 45 -250 100 -250 L900 -250 C955 -250 1000 -205 1000 -150 L1000 650 C1000 705 955 750 900 750 L900 750 Z M327 588 L494 588 C489 571 488 554 488 538 C488 512 492 490 496 472 L329 472 C325 490 319 514 319 539 C319 555 321 571 327 588 L327 588 Z M620 359 L597 359 L597 308 L620 308 L620 288 L597 288 L597 236 L620 236 L620 216 L597 216 L597 -69 C597 -85 584 -97 569 -97 L266 -97 C250 -97 238 -85 238 -69 L238 479 C238 495 250 507 266 507 L301 507 C303 494 306 482 308 472 L273 472 L273 452 L563 452 L563 472 L524 472 L530 507 L569 507 C584 507 597 495 597 479 L597 379 L620 379 L620 359 Z M762 157 C762 144 749 133 737 133 L622 133 L622 153 L664 153 L664 448 L622 448 L622 468 L737 468 C749 468 762 457 762 444 L762 157 Z M737 448 L689 448 L689 153 L737 153 C740 153 742 155 742 158 L742 443 C742 446 740 448 737 448 L737 448 Z M536 399 L299 399 L299 199 L536 199 L536 399 Z M319 153 C306 153 296 142 296 130 C296 117 306 107 319 107 C332 107 342 117 342 130 C342 142 332 153 319 153 L319 153 Z M418 153 C406 153 395 142 395 130 C395 117 406 107 418 107 C431 107 441 117 441 130 C441 142 431 153 418 153 L418 153 Z M517 153 C504 153 494 142 494 130 C494 117 504 107 517 107 C529 107 539 117 539 130 C539 142 529 153 517 153 L517 153 Z M319 78 C306 78 296 67 296 55 C296 42 306 32 319 32 C332 32 342 42 342 55 C342 67 332 78 319 78 L319 78 Z M418 78 C406 78 395 67 395 55 C395 42 406 32 418 32 C431 32 441 42 441 55 C441 67 431 78 418 78 L418 78 Z M517 78 C504 78 494 67 494 55 C494 42 504 32 517 32 C529 32 539 42 539 55 C539 67 529 78 517 78 L517 78 Z M319 3 C306 3 296 -8 296 -20 C296 -33 306 -43 319 -43 C332 -43 342 -33 342 -20 C342 -8 332 3 319 3 L319 3 Z M418 3 C406 3 395 -8 395 -20 C395 -33 406 -43 418 -43 C431 -43 441 -33 441 -20 C441 -8 431 3 418 3 L418 3 Z M517 3 C504 3 494 -8 494 -20 C494 -33 504 -43 517 -43 C529 -43 539 -33 539 -20 C539 -8 529 3 517 3 L517 3 Z " />
<glyph glyph-name="A" unicode="A" horiz-adv-x="1000" d="M900 750 L100 750 C45 750 0 705 0 650 L0 -150 C0 -205 45 -250 100 -250 L900 -250 C955 -250 1000 -205 1000 -150 L1000 650 C1000 705 955 750 900 750 L900 750 Z M671 587 L691 587 L691 539 L671 539 L671 587 Z M284 574 C311 574 330 566 340 546 C340 521 334 472 330 462 C326 453 299 444 284 441 C270 444 243 453 239 462 C235 472 228 520 228 546 C239 566 257 574 284 574 L284 574 Z M495 519 L850 519 L850 479 L495 479 L495 519 Z M495 429 L495 459 L850 459 L850 136 C850 118 837 105 819 105 L526 105 C508 105 495 118 495 136 L495 333 L587 333 L587 428 L495 429 Z M188 156 L150 163 L166 359 C169 396 191 411 232 411 L567 408 L567 353 L357 352 L358 224 L378 97 L388 -95 L338 -95 L321 89 L293 146 L280 146 L243 -95 L193 -95 L218 248 L218 330 L198 330 L198 249 L188 156 Z M562 208 L627 273 L699 273 L751 328 L751 291 L771 291 L771 365 L695 365 L695 345 L739 345 L691 293 L619 293 L548 222 L562 208 Z M579 -100 L559 -100 L577 74 L598 74 L579 -100 Z M761 -100 L743 74 L764 74 L781 -100 L761 -100 Z " />
<glyph glyph-name="B" unicode="B" horiz-adv-x="1000" d="M900 750 L100 750 C45 750 0 705 0 650 L0 -150 C0 -205 45 -250 100 -250 L900 -250 C955 -250 1000 -205 1000 -150 L1000 650 C1000 705 955 750 900 750 L900 750 Z M471 582 C485 608 506 612 545 612 C574 612 587 590 587 549 L587 527 L507 491 C486 492 474 504 474 542 L501 550 L497 569 L431 552 L427 572 L471 582 Z M293 563 L316 497 L202 458 L180 525 L293 563 Z M820 345 L850 -99 L830 -101 L828 -71 L616 -71 L616 -51 L827 -51 L821 41 L768 41 L768 61 L819 61 L813 154 L768 154 L768 174 L812 174 L805 266 L721 266 L721 286 L804 286 L800 348 L747 355 C731 357 714 359 704 372 L664 420 L644 420 L677 318 L736 221 C744 208 748 195 748 180 L748 46 C748 38 739 27 730 27 L689 27 L677 160 L607 238 L594 238 L596 -81 L551 -81 C538 -81 528 -61 528 -48 L517 254 L504 313 L553 368 L542 385 L451 320 L362 320 C341 320 325 327 325 350 L325 370 L294 452 L368 481 L356 515 C347 516 339 525 339 534 C339 546 348 553 358 553 C370 553 377 546 377 534 C377 530 376 526 373 522 L394 469 L320 440 L347 371 L429 377 L516 474 L592 507 C605 513 617 515 629 515 C659 514 685 498 701 475 L742 417 L806 385 C815 380 820 375 820 362 L820 345 Z M214 362 L199 403 L177 396 L191 354 C193 346 188 341 182 341 C178 341 174 343 172 348 L150 412 L252 447 L283 359 C286 351 280 346 274 346 C270 346 266 348 264 353 L254 382 C252 389 246 392 238 389 C230 386 228 382 231 374 L233 368 C235 361 230 355 224 355 C220 355 216 357 214 362 L214 362 Z M485 -101 L465 -99 L491 280 L497 251 L501 141 L485 -101 Z M211 103 L211 123 L361 123 L361 103 L211 103 Z M211 83 L251 83 L251 14 C251 8 255 4 261 4 C267 4 271 8 271 14 L271 83 L301 83 L301 44 C301 38 305 34 311 34 C317 34 321 38 321 44 L321 83 L361 83 L361 -71 L211 -71 L211 83 Z M615 41 L615 61 L666 61 L668 41 L615 41 Z " />
<glyph glyph-name="C" unicode="C" horiz-adv-x="1000" d="M1000 -150 C1000 -205 955 -250 900 -250 L100 -250 C45 -250 0 -205 0 -150 L0 650 C0 705 45 750 100 750 L900 750 C955 750 1000 705 1000 650 L1000 -150 Z M838 484 C838 508 802 556 769 556 C754 556 739 550 731 537 L684 462 L740 422 C745 419 752 417 761 417 C773 417 787 421 797 433 L838 484 Z M450 162 L826 211 L826 231 L723 293 L730 384 C732 408 700 436 663 436 C650 436 638 431 628 421 L535 320 C519 303 513 282 513 263 C513 246 518 230 527 219 L546 196 L430 180 L150 266 L150 85 L397 6 L450 162 Z M660 273 C664 263 671 256 681 252 L748 223 L654 210 L645 226 L627 328 L639 333 L660 273 Z M577 158 L643 76 L649 -87 L682 -87 C697 -87 708 -77 708 -62 L711 77 C711 92 708 105 701 119 L674 171 L577 158 Z M501 152 L456 -59 L477 -70 C492 -78 509 -69 514 -52 L571 136 L567 141 C558 152 545 158 530 156 L501 152 Z M150 -87 C205 -83 248 -44 261 6 L150 41 L150 -87 Z " />
<glyph glyph-name="D" unicode="D" horiz-adv-x="1000" d="M900 750 L100 750 C45 750 0 705 0 650 L0 -150 C0 -205 45 -250 100 -250 L900 -250 C955 -250 1000 -205 1000 -150 L1000 650 C1000 705 955 750 900 750 L900 750 Z M671 587 L691 587 L691 539 L671 539 L671 587 Z M284 574 C311 574 330 566 340 546 C340 521 334 472 330 462 C326 453 299 444 284 441 C270 444 243 453 239 462 C235 472 228 520 228 546 C239 566 257 574 284 574 L284 574 Z M850 105 L495 105 L495 333 L587 333 L587 428 L495 429 L495 519 L850 519 L850 105 Z M767 451 L742 451 L742 174 L767 174 L767 451 Z M336 -95 L319 69 L293 146 L280 146 L243 -95 L193 -95 L218 238 L218 330 L198 330 L198 239 L189 156 L150 163 L166 359 C169 396 191 411 232 411 L567 408 L567 353 L357 352 L358 225 L378 77 L388 -95 L336 -95 Z M685 331 L660 331 L660 174 L685 174 L685 331 Z M578 174 L603 174 L603 223 L578 223 L578 174 Z M579 -100 L559 -100 L577 74 L598 74 L579 -100 Z M761 -100 L743 74 L764 74 L781 -100 L761 -100 Z " />
<glyph glyph-name="E" unicode="E" horiz-adv-x="1000" d="M900 750 L100 750 C45 750 0 705 0 650 L0 -150 C0 -205 45 -250 100 -250 L900 -250 C955 -250 1000 -205 1000 -150 L1000 650 C1000 705 955 750 900 750 L900 750 Z M558 569 C562 593 586 607 610 607 C634 607 670 592 680 569 L666 506 C660 480 635 465 619 469 L546 487 L558 569 Z M617 -75 C617 -89 606 -100 592 -100 L564 -100 L545 64 L467 169 L467 276 L447 276 L475 369 L420 335 L386 276 L330 276 L397 401 L464 446 C495 467 513 474 538 464 L579 447 C596 440 604 425 600 401 L573 225 L613 98 C616 91 617 83 617 75 L617 -75 Z M552 382 C559 382 564 387 564 394 C564 401 559 406 552 406 C545 406 540 401 540 394 C540 387 545 382 552 382 L552 382 Z M732 212 L717 196 L649 242 L607 305 L620 393 L677 294 L733 245 C744 236 741 222 732 212 L732 212 Z M538 302 C545 302 550 307 550 314 C550 321 545 326 538 326 C531 326 526 321 526 314 C526 307 531 302 538 302 L538 302 Z M259 138 L259 256 L308 256 L308 199 L398 199 L398 256 L447 256 L447 138 C447 129 441 123 432 123 L274 123 C265 123 259 129 259 138 L259 138 Z M328 256 L378 256 L378 219 L328 219 L328 256 Z M467 29 L384 -85 C378 -94 367 -98 357 -94 L328 -83 L405 54 L412 103 L432 103 C447 103 461 115 466 129 L486 87 L479 57 C477 47 473 38 467 29 L467 29 Z " />
<glyph glyph-name="F" unicode="F" horiz-adv-x="1000" d="M900 750 L100 750 C45 750 0 705 0 650 L0 -150 C0 -205 45 -250 100 -250 L900 -250 C955 -250 1000 -205 1000 -150 L1000 650 C1000 705 955 750 900 750 L900 750 Z M214 510 L227 552 C233 571 249 587 272 587 C299 587 312 571 317 551 L337 478 C327 462 297 451 277 451 C258 451 240 455 227 466 C215 476 208 492 214 510 L214 510 Z M671 587 L691 587 L691 539 L671 539 L671 587 Z M850 105 L495 105 L495 333 L587 333 L587 428 L495 429 L495 519 L850 519 L850 105 Z M767 451 L742 451 L742 174 L767 174 L767 451 Z M391 59 L184 59 L199 152 L215 240 L220 306 L200 308 L195 242 L179 157 L150 165 L174 378 C177 403 217 415 245 414 L567 408 L568 353 L357 353 L349 248 L391 59 Z M685 331 L660 331 L660 174 L685 174 L685 331 Z M578 174 L603 174 L603 223 L578 223 L578 174 Z M579 -100 L559 -100 L577 74 L598 74 L579 -100 Z M761 -100 L743 74 L764 74 L781 -100 L761 -100 Z M256 -100 L211 -100 L203 36 L264 36 L256 -100 Z M366 -100 L321 -100 L304 36 L369 36 L366 -100 Z " />
<glyph glyph-name="G" unicode="G" horiz-adv-x="1000" d="M900 750 L100 750 C45 750 0 705 0 650 L0 -150 C0 -205 45 -250 100 -250 L900 -250 C955 -250 1000 -205 1000 -150 L1000 650 C1000 705 955 750 900 750 L900 750 Z M459 496 C471 516 493 526 515 526 C527 526 540 523 550 516 C581 497 620 459 619 422 L562 347 C547 328 525 320 505 320 C493 320 482 323 475 328 L393 383 L459 496 Z M496 115 L334 156 L329 137 L429 65 L413 -36 L483 -100 L269 -100 C244 -78 226 -42 226 10 C226 176 251 266 304 310 C321 324 342 331 361 331 C385 331 408 322 421 305 L505 200 L663 176 C693 171 707 131 707 115 L496 115 Z M565 80 L767 80 L810 242 L832 234 L785 57 L565 57 L565 80 Z M850 -101 L659 -101 L590 -34 L590 17 L850 17 L850 -101 Z " />
<glyph glyph-name="H" unicode="H" horiz-adv-x="1000" d="M900 750 L100 750 C45 750 0 705 0 650 L0 -150 C0 -205 45 -250 100 -250 L900 -250 C955 -250 1000 -205 1000 -150 L1000 650 C1000 705 955 750 900 750 L900 750 Z M531 530 C557 558 594 560 624 551 C662 539 687 521 694 487 C685 451 657 383 647 370 C634 360 595 356 573 357 C553 367 523 390 515 404 C513 420 522 493 531 530 L531 530 Z M320 400 C327 405 336 407 346 407 C364 407 384 398 396 380 L376 318 L307 336 L320 400 Z M225 370 C225 375 229 385 237 385 C239 385 242 385 245 384 L253 382 L249 368 L269 362 L273 376 L294 370 L288 341 L237 355 C229 357 225 363 225 370 L225 370 Z M817 106 L787 -60 L744 -60 L740 123 L715 198 L690 198 L687 74 L714 -60 L389 -60 L399 66 L368 233 L317 233 L214 195 C191 213 181 237 181 258 C181 279 190 297 205 306 L247 331 L516 260 L505 222 L525 216 L540 274 L395 312 L412 366 L687 301 C724 292 745 271 756 253 L804 170 C814 153 822 135 817 106 L817 106 Z M420 322 L440 316 L444 330 L424 336 L420 322 Z M462 310 L482 304 L486 319 L466 325 L462 310 Z M505 299 L525 293 L529 308 L509 314 L505 299 Z M568 180 L522 180 L522 160 L568 160 L568 180 Z M568 120 L568 140 L522 140 L522 120 L457 5 C439 -18 459 -45 482 -45 L608 -45 C633 -45 649 -20 633 5 L568 120 Z M608 -25 L482 -25 C475 -25 469 -18 471 -12 L499 39 C504 40 508 41 512 41 C539 41 550 17 579 16 C586 16 593 17 601 20 L618 -9 C622 -18 617 -25 608 -25 L608 -25 Z M812 -100 L282 -100 L282 -80 L812 -80 L812 -100 Z " />
<glyph glyph-name="I" unicode="I" horiz-adv-x="1000" d="M900 750 L100 750 C45 750 0 705 0 650 L0 -150 C0 -205 45 -250 100 -250 L900 -250 C955 -250 1000 -205 1000 -150 L1000 650 C1000 705 955 750 900 750 L900 750 Z M850 313 C850 302 840 293 829 293 L808 293 C797 293 787 302 787 313 L787 429 L727 429 L727 -100 L629 -100 C629 -66 602 -38 567 -38 C532 -38 505 -66 505 -100 L150 -100 L150 5 L677 5 L677 406 C677 433 654 456 627 456 L150 456 L150 518 L670 518 L670 538 L150 538 L150 600 L685 600 C708 600 727 581 727 558 L727 449 L829 449 C840 449 850 439 850 428 L850 313 Z M499 285 C495 276 468 268 454 265 C439 268 412 276 408 285 C404 295 397 343 397 369 C408 389 427 397 453 397 C480 397 499 389 510 369 C510 344 503 295 499 285 L499 285 Z M389 278 C391 272 397 266 405 262 L371 262 C348 262 317 239 305 210 L305 334 C305 357 322 376 345 376 L377 376 C376 351 384 292 389 278 L389 278 Z M530 376 L562 376 C584 376 601 357 601 334 L601 210 C589 239 558 262 535 262 L502 262 C509 266 515 271 517 277 C523 289 531 351 530 376 L530 376 Z M324 203 C333 226 355 242 371 242 L535 242 C551 242 573 226 582 203 L613 126 C616 119 618 111 618 104 C618 89 611 76 593 70 C598 79 603 87 603 90 C603 119 568 139 541 139 C531 139 523 136 518 130 L514 120 C498 124 481 127 463 128 L463 229 L443 229 L443 128 C425 127 407 124 391 120 L387 130 C382 136 373 139 363 139 C337 139 303 118 303 91 C303 87 306 81 312 71 C295 77 288 89 288 102 C288 110 290 118 293 126 L324 203 Z M385 84 L340 62 L323 93 C324 108 358 123 371 118 L385 84 Z M583 93 L566 62 L521 84 L535 118 C548 123 582 108 583 93 L583 93 Z M399 102 C415 106 434 108 453 108 C472 108 490 106 506 102 L495 74 L514 55 L391 55 L410 74 L399 102 Z " />
<glyph glyph-name="J" unicode="J" horiz-adv-x="1000" d="M900 750 L100 750 C45 750 0 705 0 650 L0 -150 C0 -205 45 -250 100 -250 L900 -250 C955 -250 1000 -205 1000 -150 L1000 650 C1000 705 955 750 900 750 L900 750 Z M262 586 C279 595 298 598 317 594 L365 583 C405 574 432 547 436 512 L266 497 L234 572 L262 586 Z M415 490 L402 453 C390 420 357 408 337 413 L254 434 L262 476 L415 490 Z M850 -36 C843 -25 834 -15 824 -6 L719 -6 C729 -24 736 -43 741 -66 C771 -56 786 -53 804 -53 C823 -53 837 -56 850 -60 L850 -82 C835 -77 822 -73 804 -73 C768 -73 744 -94 700 -94 C655 -94 637 -73 596 -73 C560 -73 535 -94 491 -94 C447 -94 428 -73 388 -73 C334 -73 325 -94 282 -94 C238 -94 221 -73 179 -73 C167 -73 158 -74 150 -75 L150 -55 C158 -54 168 -53 179 -53 C224 -53 249 -74 282 -74 C314 -74 331 -53 388 -53 C411 -53 421 -56 466 -70 L484 -5 C496 38 503 80 503 115 C503 160 492 194 466 206 L424 210 L424 200 L464 183 L464 175 L339 183 L271 282 L261 279 L298 174 L341 138 L191 138 C169 153 154 179 153 210 C152 220 154 231 157 242 L184 333 C196 372 218 403 253 403 C270 403 306 383 317 355 L365 231 L525 223 C581 220 620 205 673 141 C737 158 779 186 799 206 L824 181 C824 131 806 90 776 49 C806 34 831 17 850 -5 L850 -36 Z M549 148 C540 176 526 193 501 202 C511 188 517 169 520 148 L549 148 Z M542 200 C555 187 563 169 570 148 L576 148 L587 128 L576 128 C581 111 584 92 588 71 L635 71 C602 146 576 186 542 200 L542 200 Z M702 71 C654 140 622 174 587 190 C611 165 633 126 656 71 L702 71 Z M567 71 C563 93 560 112 555 128 L522 128 L522 111 C522 81 518 49 510 14 L576 14 L570 51 L539 51 L539 71 L567 71 Z M150 118 L483 118 L483 98 L150 98 L150 118 Z M150 78 L482 78 C478 33 470 1 451 -42 C434 -37 412 -31 388 -31 C330 -31 312 -52 282 -52 C250 -52 222 -31 179 -31 C168 -31 158 -32 150 -33 L150 78 Z M647 51 L591 51 L597 14 L657 14 L673 -6 L600 -6 L607 -53 C641 -56 675 -74 700 -74 C708 -74 715 -73 721 -72 C711 -20 687 16 647 51 L647 51 Z M676 51 C688 39 698 27 707 14 L798 14 C777 28 750 40 722 51 L676 51 Z M505 -6 L485 -74 L491 -74 C521 -74 552 -55 587 -53 L579 -6 L505 -6 Z " />
<glyph glyph-name="K" unicode="K" horiz-adv-x="1000" d="M900 750 L100 750 C45 750 0 705 0 650 L0 -150 C0 -205 45 -250 100 -250 L900 -250 C955 -250 1000 -205 1000 -150 L1000 650 C1000 705 955 750 900 750 L900 750 Z M150 600 L758 600 L758 118 L738 118 L738 232 L479 232 L477 252 L500 252 L500 349 L405 349 L407 369 L553 369 L553 440 L573 440 L573 369 L616 369 L616 440 L636 440 L636 369 L678 369 L678 440 L698 440 L698 369 L738 369 L738 488 L150 488 L150 508 L225 508 L225 555 L245 555 L245 508 L275 508 L275 555 L295 555 L295 508 L325 508 L325 555 L345 555 L345 508 L375 508 L375 555 L395 555 L395 508 L425 508 L425 542 L445 542 L445 508 L501 508 L501 580 L150 580 L150 600 Z M738 508 L738 580 L521 580 L521 508 L738 508 Z M587 555 L690 555 L690 535 L587 535 L587 555 Z M289 412 C298 428 312 435 334 435 C355 435 370 428 378 412 C378 392 373 354 370 346 C367 339 345 332 334 330 C322 332 302 339 298 346 C294 354 289 392 289 412 L289 412 Z M150 369 L168 369 L168 428 L188 428 L188 369 L252 369 L255 349 L150 349 L150 369 Z M520 252 L738 252 L738 349 L520 349 L520 252 Z M423 231 L406 230 L406 119 L270 119 L270 230 L253 231 L247 142 L250 119 L218 119 L228 262 C230 297 251 316 286 316 L397 316 C429 316 453 300 456 262 L469 119 L426 119 L429 142 L423 231 Z M587 310 L690 310 L690 290 L587 290 L587 310 Z M150 252 L202 252 L202 232 L150 232 L150 252 Z M690 189 L690 169 L587 169 L587 189 L690 189 Z M850 -100 L150 -100 L150 99 L850 99 L850 -100 Z " />
<glyph glyph-name="L" unicode="L" horiz-adv-x="1000" d="M900 750 L100 750 C45 750 0 705 0 650 L0 -150 C0 -205 45 -250 100 -250 L900 -250 C955 -250 1000 -205 1000 -150 L1000 650 C1000 705 955 750 900 750 L900 750 Z M150 503 L150 600 L800 600 L850 503 L150 503 Z M717 128 L717 454 L737 484 L737 128 L717 128 Z M289 422 C298 438 312 445 334 445 C355 445 370 438 378 422 C378 402 373 364 370 356 C367 349 345 342 334 340 C322 342 302 349 298 356 C294 364 289 402 289 422 L289 422 Z M397 326 C429 326 453 310 456 272 L469 129 L426 129 L429 152 L423 241 L406 240 L406 129 L270 129 L270 240 L253 241 L247 152 L250 129 L218 129 L228 272 C230 307 251 326 286 326 L397 326 Z M599 291 L604 318 L624 313 L620 291 L599 291 Z M776 108 L801 -93 L513 -93 L501 108 L539 108 L531 69 L551 65 L570 155 L532 165 L559 279 L660 255 L632 140 L590 150 L581 108 L776 108 Z M618 164 L636 241 L573 255 L556 179 L618 164 Z M175 -93 L150 -93 L150 108 L188 108 L175 -93 Z M195 -93 L208 108 L481 108 L493 -93 L195 -93 Z M260 68 C248 68 238 59 238 46 C238 34 248 25 260 25 C272 25 282 34 282 46 C282 59 272 68 260 68 L260 68 Z M344 68 C332 68 322 59 322 46 C322 34 332 25 344 25 C356 25 366 34 366 46 C366 59 356 68 344 68 L344 68 Z M428 25 C440 25 450 34 450 46 C450 59 440 68 428 68 C416 68 406 59 406 46 C406 34 416 25 428 25 L428 25 Z M606 46 C606 53 600 59 593 59 C586 59 581 53 581 46 C581 40 586 34 593 34 C600 34 606 40 606 46 L606 46 Z M669 46 C669 53 663 59 656 59 C649 59 644 53 644 46 C644 40 649 34 656 34 C663 34 669 40 669 46 L669 46 Z M732 56 L709 56 L709 36 L732 36 L732 56 Z M256 -15 C244 -15 234 -24 234 -37 C234 -49 244 -58 256 -58 C268 -58 278 -49 278 -37 C278 -24 268 -15 256 -15 L256 -15 Z M344 -15 C332 -15 322 -24 322 -37 C322 -49 332 -58 344 -58 C356 -58 366 -49 366 -37 C366 -24 356 -15 344 -15 L344 -15 Z M432 -15 C420 -15 411 -24 411 -37 C411 -49 420 -58 432 -58 C445 -58 454 -49 454 -37 C454 -24 445 -15 432 -15 L432 -15 Z M547 -24 C540 -24 534 -30 534 -37 C534 -43 540 -49 547 -49 C554 -49 559 -43 559 -37 C559 -30 554 -24 547 -24 L547 -24 Z M598 -24 C591 -24 586 -30 586 -37 C586 -43 591 -49 598 -49 C605 -49 611 -43 611 -37 C611 -30 605 -24 598 -24 L598 -24 Z M662 -24 C655 -24 650 -30 650 -37 C650 -43 655 -49 662 -49 C669 -49 675 -43 675 -37 C675 -30 669 -24 662 -24 L662 -24 Z M717 -47 L739 -47 L739 -27 L717 -27 L717 -47 Z " />
<glyph glyph-name="M" unicode="M" horiz-adv-x="1000" d="M900 750 L100 750 C45 750 0 705 0 650 L0 -150 C0 -205 45 -250 100 -250 L900 -250 C955 -250 1000 -205 1000 -150 L1000 650 C1000 705 955 750 900 750 L900 750 Z M632 524 L632 413 L567 331 L625 -99 L605 -100 L550 310 C536 291 516 276 493 272 L388 -100 L286 -100 C275 -55 266 -13 266 45 L265 286 C265 337 300 365 336 365 L497 365 L591 444 L572 454 L491 420 L474 420 C477 424 479 428 481 432 C491 455 497 482 499 535 C490 561 477 575 461 583 L532 583 L558 553 L632 524 Z M381 573 L376 522 C361 519 350 506 350 490 C350 471 365 456 383 456 C402 456 417 471 417 490 C417 503 409 515 396 520 L402 573 C441 573 464 571 479 532 C477 483 472 461 463 441 C455 424 441 410 420 410 L326 410 L325 521 C325 559 359 573 381 573 L381 573 Z M735 424 L652 449 L652 520 L735 545 L735 424 Z M419 146 L421 93 L471 271 L441 271 L419 146 Z M408 -100 L435 -10 L449 -100 L408 -100 Z " />
<glyph glyph-name="N" unicode="N" horiz-adv-x="1000" d="M900 750 L100 750 C45 750 0 705 0 650 L0 -150 C0 -205 45 -250 100 -250 L900 -250 C955 -250 1000 -205 1000 -150 L1000 650 C1000 705 955 750 900 750 L900 750 Z M355 325 L355 345 L458 345 L529 442 L621 483 C633 488 644 490 656 490 C687 490 715 472 732 449 L773 392 L807 374 L807 600 L827 600 L827 364 C836 359 841 354 841 341 L841 324 L753 334 L675 395 L708 293 L757 106 L673 106 L638 213 L625 213 L625 106 L552 106 L547 229 L526 329 L494 305 C485 298 476 295 465 295 L393 295 C372 295 355 302 355 325 L355 325 Z M504 557 C518 583 539 587 578 587 C607 587 620 565 620 524 L620 502 L540 466 C519 467 507 479 507 517 L534 525 L530 544 L464 527 L460 547 L504 557 Z M383 50 L150 50 L150 563 L383 563 L383 365 L336 365 L287 443 L339 477 L329 493 L207 416 L217 400 L270 433 L332 334 L332 325 C332 292 360 277 383 275 L383 50 Z M842 106 L792 106 C792 116 798 125 807 129 L807 307 L827 306 L827 129 C836 125 842 116 842 106 L842 106 Z M282 270 L274 288 L200 258 L208 240 L282 270 Z M501 106 L451 106 C451 116 457 125 466 129 L466 275 L486 275 L486 129 C495 125 501 116 501 106 L501 106 Z M174 189 L182 171 L308 223 L300 241 L174 189 Z M200 143 L208 125 L282 155 L274 173 L200 143 Z M850 -100 L440 -100 L440 86 L850 86 L850 -100 Z M830 66 L764 66 L766 29 L693 29 L682 66 L626 66 L626 29 L555 29 L553 66 L460 66 L460 9 L830 9 L830 66 Z M830 -11 L766 -11 L766 -60 L703 -60 L698 -11 L626 -11 L626 -60 L558 -60 L556 -11 L460 -11 L460 -80 L830 -80 L830 -11 Z " />
<glyph glyph-name="O" unicode="O" horiz-adv-x="1000" d="M900 750 L100 750 C45 750 0 705 0 650 L0 -150 C0 -205 45 -250 100 -250 L900 -250 C955 -250 1000 -205 1000 -150 L1000 650 C1000 705 955 750 900 750 L900 750 Z M679 565 C683 567 688 568 693 568 C703 567 712 563 718 557 L753 519 C758 514 760 507 760 499 C760 492 757 484 752 479 L787 450 L772 436 L686 510 L597 482 L577 521 L679 565 Z M359 520 C431 520 512 507 552 496 L565 473 C576 454 580 435 580 407 L560 323 L573 192 L521 177 L492 318 L492 370 L429 370 L369 350 L410 252 C415 241 417 230 416 217 L408 103 C390 109 371 111 352 110 L344 115 L344 212 L231 392 C221 408 216 425 216 441 C216 504 286 520 359 520 L359 520 Z M678 416 C672 413 667 411 661 411 C642 410 624 426 618 437 L604 462 L680 487 L728 446 L678 416 Z M197 230 L220 372 L281 274 L258 195 L231 151 C211 159 193 159 172 155 L197 230 Z M703 310 L690 276 L582 303 L580 322 L592 372 L703 310 Z M850 82 C835 89 816 91 804 91 C783 91 763 79 740 63 L590 63 C590 73 581 82 571 82 C561 82 552 73 552 63 L511 63 C511 134 568 159 608 159 C622 182 651 198 680 198 C687 198 694 197 701 195 C723 205 747 212 771 212 C799 212 827 203 850 180 L850 82 Z M791 177 C784 177 779 172 779 165 C779 158 784 153 791 153 C798 153 803 158 803 165 C803 172 798 177 791 177 L791 177 Z M666 168 C659 168 654 163 654 156 C654 149 659 144 666 144 C673 144 678 149 678 156 C678 163 673 168 666 168 L666 168 Z M489 -39 C489 -29 480 -20 470 -20 C460 -20 451 -29 451 -39 L388 -39 C376 -15 351 7 303 10 C281 30 247 40 213 40 C190 40 168 35 150 27 L150 126 C165 134 180 137 195 137 C216 137 238 130 263 118 C300 118 327 103 345 90 C455 72 518 29 543 -28 L548 -39 L489 -39 Z M820 129 C813 129 808 124 808 117 C808 110 813 105 820 105 C827 105 832 110 832 117 C832 124 827 129 820 129 L820 129 Z M717 127 C707 127 698 118 698 108 C698 98 707 89 717 89 C727 89 736 98 736 108 C736 118 727 127 717 127 L717 127 Z M606 122 C599 122 594 117 594 110 C594 103 599 98 606 98 C613 98 618 103 618 110 C618 117 613 122 606 122 L606 122 Z M182 99 C175 99 170 94 170 87 C170 80 175 75 182 75 C189 75 194 80 194 87 C194 94 189 99 182 99 L182 99 Z M246 92 C239 92 234 87 234 80 C234 73 239 68 246 68 C253 68 258 73 258 80 C258 87 253 92 246 92 L246 92 Z M850 -65 L616 -65 L618 -45 C625 15 679 41 705 41 C715 41 723 38 730 38 C749 38 776 71 804 71 C817 71 833 69 850 59 L850 -65 Z M318 52 C313 52 309 48 309 43 C309 38 313 34 318 34 C323 34 327 38 327 43 C327 48 323 52 318 52 L318 52 Z M425 41 C418 41 413 36 413 29 C413 22 418 17 425 17 C432 17 437 22 437 29 C437 36 432 41 425 41 L425 41 Z M794 15 C794 5 803 -4 813 -4 C823 -4 832 5 832 15 C832 25 823 34 813 34 C803 34 794 25 794 15 L794 15 Z M150 -100 L150 5 C167 16 190 21 213 21 C245 21 276 11 295 -10 C378 -10 381 -74 381 -100 L150 -100 Z M743 -1 C736 -1 730 -6 730 -13 C730 -20 736 -26 743 -26 C750 -26 755 -20 755 -13 C755 -6 750 -1 743 -1 L743 -1 Z M680 -12 C674 -12 668 -18 668 -25 C668 -32 674 -37 680 -37 C687 -37 693 -32 693 -25 C693 -18 687 -12 680 -12 L680 -12 Z M312 -46 C302 -46 293 -55 293 -65 C293 -75 302 -84 312 -84 C322 -84 331 -75 331 -65 C331 -55 322 -46 312 -46 L312 -46 Z M228 -49 C223 -49 219 -53 219 -58 C219 -63 223 -67 228 -67 C233 -67 237 -63 237 -58 C237 -53 233 -49 228 -49 L228 -49 Z M179 -60 C172 -60 167 -65 167 -72 C167 -79 172 -84 179 -84 C186 -84 191 -79 191 -72 C191 -65 186 -60 179 -60 L179 -60 Z " />
<glyph glyph-name="P" unicode="P" horiz-adv-x="1000" d="M900 750 L100 750 C45 750 0 705 0 650 L0 -150 C0 -205 45 -250 100 -250 L900 -250 C955 -250 1000 -205 1000 -150 L1000 650 C1000 705 955 750 900 750 L900 750 Z M497 600 C523 600 541 592 551 573 C551 549 545 503 541 493 C533 485 511 477 498 474 C484 477 462 485 454 493 C450 503 444 548 444 573 C454 592 472 600 497 600 L497 600 Z M337 339 L368 424 C376 447 399 455 415 455 L579 455 C595 455 618 447 626 424 L657 339 C660 331 661 324 661 316 C661 302 654 289 637 283 C643 292 647 298 647 304 C647 332 612 352 585 352 C575 352 567 349 562 343 L558 333 C542 337 525 340 507 341 L507 442 L487 442 L487 341 C469 340 451 337 435 333 L431 343 C426 349 418 352 408 352 C381 352 347 332 347 304 C347 298 350 293 356 284 C339 290 333 302 333 316 C333 323 334 331 337 339 L337 339 Z M429 297 L384 275 L367 306 C368 321 402 336 415 331 L429 297 Z M627 306 L610 275 L565 297 L579 331 C592 336 626 321 627 306 L627 306 Z M497 321 C516 321 534 319 550 315 L539 287 L454 287 L443 315 C459 319 478 321 497 321 L497 321 Z M646 48 C646 29 631 14 612 14 L590 14 L590 51 L570 51 L570 14 L510 14 L510 51 L490 51 L490 14 L430 14 L430 51 L410 51 L410 14 L389 14 C371 14 356 29 356 48 L356 236 L150 236 L150 256 L850 256 L850 236 L646 236 L646 48 Z M268 -100 L186 -100 C165 -100 150 -85 150 -64 L150 -8 L192 -50 L206 -36 L150 21 L150 91 L192 49 L206 63 L150 120 L150 180 C150 186 151 191 153 196 L192 160 L206 174 L168 212 C173 215 179 216 186 216 L268 216 C281 216 291 211 297 202 L251 156 L265 142 L304 181 L304 93 L251 41 L265 27 L304 66 L304 -17 L262 -58 L276 -72 L304 -45 L304 -64 C304 -85 289 -100 268 -100 L268 -100 Z M814 -100 L732 -100 C711 -100 696 -85 696 -64 L696 -46 L722 -72 L736 -58 L696 -16 L696 64 L733 27 L747 41 L696 93 L696 179 L733 142 L747 156 L702 201 C709 210 719 216 732 216 L814 216 C820 216 826 215 831 212 L792 174 L806 160 L845 199 C848 194 850 187 850 180 L850 120 L792 63 L806 49 L850 92 L850 22 L792 -36 L806 -50 L850 -6 L850 -64 C850 -85 835 -100 814 -100 L814 -100 Z M441 187 C427 187 416 176 416 162 C416 148 427 137 441 137 C455 137 466 148 466 162 C466 176 455 187 441 187 L441 187 Z M558 187 C545 187 533 176 533 162 C533 148 545 137 558 137 C572 137 583 148 583 162 C583 176 572 187 558 187 L558 187 Z " />
<glyph glyph-name="Q" unicode="Q" horiz-adv-x="1000" d="M900 750 L100 750 C45 750 0 705 0 650 L0 -150 C0 -205 45 -250 100 -250 L900 -250 C955 -250 1000 -205 1000 -150 L1000 650 C1000 705 955 750 900 750 L900 750 Z M508 558 C561 558 600 532 620 492 L615 418 L595 418 L600 488 C582 520 553 538 508 538 C463 538 433 520 415 488 L420 418 L401 418 L395 492 C415 532 455 558 508 558 L508 558 Z M195 512 L219 528 L328 394 L415 340 L597 340 C623 340 647 325 656 291 L694 149 L609 70 L729 70 L729 50 L531 50 C531 66 535 79 545 90 L619 167 L600 255 L580 251 L576 154 L531 104 C517 89 511 69 511 50 L412 50 L382 216 C379 233 373 246 360 258 L252 361 L188 472 C177 490 179 502 195 512 L195 512 Z M566 478 C566 452 559 401 555 391 C551 382 523 373 508 370 C493 373 466 382 461 391 C456 401 450 451 450 478 C460 499 480 507 508 507 C536 507 555 499 566 478 L566 478 Z M183 110 L249 110 L249 132 L269 132 L269 110 L335 110 C341 110 345 106 345 100 C345 94 341 90 335 90 L183 90 C177 90 173 94 173 100 C173 106 177 110 183 110 L183 110 Z M850 10 L763 10 L763 -15 L743 -15 L743 10 L700 10 L700 -15 L680 -15 L680 10 L150 10 L150 30 L850 30 L850 10 Z " />
<glyph glyph-name="R" unicode="R" horiz-adv-x="1000" d="M1000 -150 C1000 -205 955 -250 900 -250 L100 -250 C45 -250 0 -205 0 -150 L0 650 C0 705 45 750 100 750 L900 750 C955 750 1000 705 1000 650 L1000 -150 Z M400 465 C414 468 437 477 445 485 C449 495 456 544 456 569 C445 589 426 598 400 598 C373 598 354 589 343 569 C343 544 350 495 354 485 C362 477 385 468 400 465 L400 465 Z M709 433 C715 436 716 443 712 448 L692 477 C688 482 680 484 676 479 L643 438 L662 412 L709 433 Z M515 312 L641 407 L629 423 L499 333 C485 351 471 358 459 358 C450 358 441 355 433 349 C419 339 419 331 404 320 C394 312 374 313 353 310 L353 294 L389 204 L370 197 L333 290 L333 442 C302 442 285 424 285 397 L285 247 C285 227 295 206 312 183 C335 151 357 132 383 133 C394 133 405 137 417 146 C451 171 455 215 471 226 C486 237 494 234 508 244 C520 252 528 261 528 274 C528 284 524 296 515 312 L515 312 Z M504 357 L527 373 L509 406 C494 433 475 442 452 442 L353 442 L353 331 C372 334 383 331 392 336 C403 342 405 354 421 365 C432 373 445 378 460 378 C474 378 489 372 504 357 L504 357 Z M540 308 C545 296 547 285 547 276 C547 263 542 252 536 243 L576 189 L598 204 C610 212 613 225 606 237 L557 320 L540 308 Z M436 234 C457 234 474 251 474 272 C474 293 457 310 436 310 C415 310 398 293 398 272 C398 251 415 234 436 234 L436 234 Z M487 213 L483 210 C474 204 471 161 429 130 L420 124 L467 -95 L517 -95 L487 213 Z M318 143 L298 -95 L348 -95 L394 114 C366 108 341 121 318 143 L318 143 Z " />
<glyph glyph-name="S" unicode="S" horiz-adv-x="1000" d="M900 750 L100 750 C45 750 0 705 0 650 L0 -150 C0 -205 45 -250 100 -250 L900 -250 C955 -250 1000 -205 1000 -150 L1000 650 C1000 705 955 750 900 750 L900 750 Z M227 466 C214 474 208 492 214 510 L227 552 C233 571 249 587 272 587 C299 587 312 571 317 551 L337 478 C327 462 297 451 277 451 C258 451 241 457 227 466 L227 466 Z M671 587 L691 587 L691 539 L671 539 L671 587 Z M495 519 L850 519 L850 479 L495 479 L495 519 Z M819 105 L526 105 C508 105 495 118 495 136 L495 333 L587 333 L587 428 L495 429 L495 459 L850 459 L850 136 C850 118 837 105 819 105 L819 105 Z M178 159 L150 165 L171 353 C174 378 203 415 245 414 L567 408 L567 353 L357 353 L349 248 L391 59 L184 59 L215 240 L220 306 L200 308 L195 242 L178 159 Z M695 345 L739 345 L691 293 L619 293 L548 222 L562 208 L627 273 L699 273 L751 328 L751 291 L771 291 L771 365 L695 365 L695 345 Z M579 -100 L559 -100 L577 74 L598 74 L579 -100 Z M761 -100 L743 74 L764 74 L781 -100 L761 -100 Z M256 -100 L211 -100 L203 36 L264 36 L256 -100 Z M366 -100 L321 -100 L304 36 L369 36 L366 -100 Z " />
<glyph glyph-name="T" unicode="T" horiz-adv-x="1000" d="M900 750 L100 750 C45 750 0 705 0 650 L0 -150 C0 -205 45 -250 100 -250 L900 -250 C955 -250 1000 -205 1000 -150 L1000 650 C1000 705 955 750 900 750 L900 750 Z M850 -100 L684 -100 L684 -23 C684 16 709 51 747 70 C796 95 807 131 807 184 L831 184 L831 292 L797 292 L797 367 C797 474 715 570 628 570 L372 570 L349 439 C347 429 341 424 334 424 C327 424 320 429 319 439 L302 569 L229 552 C236 495 212 467 194 458 C194 406 174 356 150 356 L150 600 L850 600 L850 -100 Z M644 418 L573 440 L567 421 L602 410 C593 385 575 374 562 377 L479 394 L504 476 C511 499 525 506 543 506 C572 506 605 496 616 463 L613 450 L650 438 L644 418 Z M643 231 C643 219 634 210 623 210 L592 210 L575 246 L493 222 L500 205 L351 250 C340 253 333 259 333 266 C333 272 335 279 341 287 L394 359 C409 379 424 382 457 376 L532 362 L566 303 L514 303 C495 303 474 282 474 262 L474 247 L494 247 L494 262 C494 274 503 283 514 283 L623 283 C634 283 643 274 643 262 L643 231 Z M715 256 L695 236 L681 236 L681 226 L663 226 L663 266 L681 266 L681 256 L715 256 Z M752 236 L724 236 L743 256 L772 256 L752 236 Z M811 256 L811 236 L780 236 L800 256 L811 256 Z M532 178 L520 209 L564 222 L577 195 C577 182 564 172 550 172 C544 172 538 173 532 178 L532 178 Z M535 50 L527 -75 C526 -84 521 -95 513 -95 L470 -95 L474 53 L366 172 C359 180 352 197 352 216 L480 191 L475 178 L523 96 C531 82 536 66 535 50 L535 50 Z M280 -83 C276 -90 268 -94 261 -90 L229 -72 L347 164 L400 105 L280 -83 Z " />
<glyph glyph-name="U" unicode="U" horiz-adv-x="1000" d="M100 -250 L900 -250 C955 -250 1000 -205 1000 -150 L1000 650 C1000 705 955 750 900 750 L100 750 C45 750 0 705 0 650 L0 -150 C0 -205 45 -250 100 -250 L100 -250 Z M235 451 C204 451 196 482 205 499 L239 567 C246 580 253 587 268 587 C309 587 325 581 340 555 L340 494 C340 470 331 451 303 451 L235 451 Z M765 417 C760 417 755 422 755 427 C755 432 760 437 765 437 C770 437 775 432 775 427 C775 422 770 417 765 417 L765 417 Z M209 56 L198 197 L197 365 C197 412 232 420 258 420 C295 420 350 392 364 344 L472 331 C486 329 498 320 495 304 L491 283 L356 285 C341 285 320 288 307 296 L243 333 L231 317 L349 222 L383 56 L209 56 Z M729 382 C724 382 719 387 719 392 C719 397 724 402 729 402 C734 402 739 397 739 392 C739 387 734 382 729 382 L729 382 Z M617 261 C605 261 594 267 584 277 L507 356 C504 359 498 361 493 361 C486 361 480 360 476 356 L462 370 C470 378 481 381 492 381 C503 381 514 377 521 370 L600 290 L654 327 C659 319 662 311 662 303 C661 281 643 261 617 261 L617 261 Z M747 328 C740 328 734 334 734 341 C734 348 740 354 747 354 C754 354 760 348 760 341 C760 334 754 328 747 328 L747 328 Z M699 280 C692 280 686 286 686 293 C686 300 692 306 699 306 C706 306 712 300 712 293 C712 286 706 280 699 280 L699 280 Z M757 272 C750 272 744 278 744 285 C744 292 750 298 757 298 C764 298 770 292 770 285 C770 278 764 272 757 272 L757 272 Z M544 17 L534 215 L418 215 L418 235 L769 235 L761 17 L544 17 Z M708 144 C710 137 715 134 719 134 C723 134 727 137 728 144 L738 215 L570 215 L580 149 C581 142 585 139 590 139 C594 139 599 142 600 149 L610 193 L653 193 L653 169 C653 162 658 159 663 159 C668 159 673 162 673 169 L673 175 C673 182 678 187 685 187 C693 187 696 182 698 175 L708 144 Z M227 -94 L227 36 L291 36 L283 -94 L227 -94 Z M303 -94 L311 36 L369 36 L363 -60 C362 -83 358 -94 336 -94 L303 -94 Z M502 -98 L502 -78 L562 -78 L549 -41 L567 -35 L582 -78 L642 -78 L642 -22 L662 -22 L662 -78 L722 -78 L737 -35 L755 -41 L742 -78 L803 -78 L803 -98 L502 -98 Z " />
<glyph glyph-name="V" unicode="V" horiz-adv-x="1000" d="M900 750 L100 750 C45 750 0 705 0 650 L0 -150 C0 -205 45 -250 100 -250 L900 -250 C955 -250 1000 -205 1000 -150 L1000 650 C1000 705 955 750 900 750 L900 750 Z M214 545 C217 558 229 566 241 566 C259 566 280 553 287 541 L314 536 L310 516 L248 529 L244 509 L279 501 C275 485 257 475 245 478 L202 490 L214 545 Z M205 -6 L220 58 L263 61 C289 63 304 88 301 114 L279 303 L282 319 L262 322 L259 301 L281 112 C283 95 275 82 261 81 L237 79 L218 199 L173 281 L168 422 C167 448 194 465 218 465 C247 465 269 438 272 400 L273 386 L250 392 C243 394 238 397 234 403 L221 423 L205 413 L218 393 C224 383 235 375 246 372 L336 349 L340 369 L294 381 L301 432 L404 528 L539 528 L334 86 C289 75 252 32 252 -16 L205 -6 Z M780 528 L780 121 L371 121 L408 199 L725 199 L725 271 L705 271 L705 219 L417 219 L562 528 L780 528 Z M850 89 C794 89 745 39 745 -16 L461 -16 C461 39 412 89 357 89 L362 100 L799 100 L799 493 L850 493 L850 89 Z M386 401 L366 401 L366 319 L386 319 L386 401 Z M168 74 L150 79 L171 198 L172 241 L199 192 L207 141 L197 90 C194 75 183 70 168 74 L168 74 Z M357 -100 C310 -100 272 -62 272 -16 C272 31 310 69 357 69 C404 69 441 31 441 -16 C441 -62 404 -100 357 -100 L357 -100 Z M850 -100 C803 -100 765 -62 765 -16 C765 31 803 69 850 69 L850 -100 Z " />
<glyph glyph-name="W" unicode="W" horiz-adv-x="1000" d="M900 750 L100 750 C45 750 0 705 0 650 L0 -150 C0 -205 45 -250 100 -250 L900 -250 C955 -250 1000 -205 1000 -150 L1000 650 C1000 705 955 750 900 750 L900 750 Z M498 509 L586 509 L574 562 L774 562 L774 489 L498 489 L498 509 Z M681 393 C637 393 599 428 591 469 L772 469 C763 428 725 393 681 393 L681 393 Z M445 246 L565 345 L740 345 L573 125 L581 232 L560 232 L472 171 L313 118 L289 165 L445 246 Z M850 -21 L800 -21 L790 47 L796 207 L776 207 L770 44 L590 44 L811 337 C831 334 850 315 850 293 L850 -21 Z M150 71 L150 292 C150 312 167 329 188 329 L231 329 L231 33 L188 33 C167 33 150 50 150 71 L150 71 Z M466 34 L301 34 L331 96 L394 96 C448 96 466 62 466 34 L466 34 Z M697 -100 L687 -70 L661 -70 L655 -100 L557 -100 L565 11 L575 24 L773 24 L789 -100 L697 -100 Z M488 -32 C488 -53 471 -70 450 -70 L245 -70 C224 -70 207 -53 207 -32 L207 13 L488 13 L488 -32 Z " />
<glyph glyph-name="X" unicode="X" horiz-adv-x="1000" d="M900 750 L100 750 C45 750 0 705 0 650 L0 -150 C0 -205 45 -250 100 -250 L900 -250 C955 -250 1000 -205 1000 -150 L1000 650 C1000 705 955 750 900 750 L900 750 Z M442 535 C457 556 471 559 493 546 C526 527 543 513 543 484 L535 473 L566 450 L553 434 L494 478 L482 462 L511 439 C493 418 478 412 462 422 L390 464 L442 535 Z M793 -77 C769 -77 750 -57 750 -33 C750 -30 750 -27 751 -24 L593 62 L498 -17 L494 116 L407 166 L378 175 L335 325 L324 325 L324 222 L398 111 C407 98 409 79 409 64 L409 -61 C409 -76 399 -86 384 -86 L347 -86 L340 77 L228 202 C216 215 209 229 209 244 C209 265 215 287 230 312 L286 406 C309 445 346 445 373 445 C390 445 418 415 416 385 L408 286 L417 184 L514 128 L516 25 L591 86 L760 -6 C765 1 774 7 783 9 L763 121 L707 59 L490 178 L490 214 L816 214 L816 178 L780 139 L804 9 C823 4 837 -13 837 -33 C837 -57 817 -77 793 -77 L793 -77 Z M685 353 C755 353 776 301 776 259 L776 234 L533 234 L533 259 C533 279 551 295 570 295 C667 295 647 353 685 353 L685 353 Z M227 -56 C222 -71 206 -75 190 -70 L163 -61 L223 178 L280 113 L227 -56 Z M793 -10 C780 -10 770 -20 770 -33 C770 -47 780 -57 793 -57 C806 -57 817 -46 817 -33 C817 -20 807 -10 793 -10 L793 -10 Z " />
<glyph glyph-name="Y" unicode="Y" horiz-adv-x="1000" d="M900 750 L100 750 C45 750 0 705 0 650 L0 -150 C0 -205 45 -250 100 -250 L900 -250 C955 -250 1000 -205 1000 -150 L1000 650 C1000 705 955 750 900 750 L900 750 Z M332 565 C334 592 350 600 371 600 C409 600 431 597 445 572 L444 558 L482 554 L479 533 L406 542 L403 522 L440 517 C438 496 426 472 403 475 L327 485 L332 565 Z M513 300 L388 300 C374 300 364 306 358 318 L321 390 L303 380 L340 309 C344 301 350 294 358 289 C333 269 305 255 276 242 C227 220 184 199 151 172 L150 197 C185 223 228 247 277 265 L291 412 C293 436 318 458 341 458 L358 458 C396 458 424 418 424 378 L424 346 L490 346 C500 346 513 338 513 322 L513 300 Z M539 316 L543 336 C568 332 591 319 613 303 L601 287 C581 303 562 312 539 316 L539 316 Z M646 292 C734 231 804 149 827 88 L730 88 C723 99 715 104 704 104 C694 104 683 98 678 88 L647 88 C647 116 678 136 682 184 C689 168 694 153 697 142 C698 136 703 134 708 134 C712 134 715 139 714 145 C703 194 676 244 660 257 L637 276 L646 292 Z M424 102 L417 -72 C416 -86 406 -96 392 -96 L363 -96 L376 102 L375 152 L355 152 L356 102 L343 -96 L284 -96 L291 102 L280 222 C312 236 348 252 379 280 L424 280 L424 102 Z M813 175 C808 175 803 180 803 185 C803 191 808 195 813 195 C819 195 823 191 823 185 C823 180 819 175 813 175 L813 175 Z M746 136 C752 136 756 141 756 146 C756 152 752 156 746 156 C741 156 736 152 736 146 C736 141 741 136 746 136 L746 136 Z M840 133 C835 133 830 138 830 143 C830 149 835 153 840 153 C846 153 850 149 850 143 C850 138 846 133 840 133 L840 133 Z M769 97 C775 97 779 102 779 107 C779 113 775 117 769 117 C764 117 759 113 759 107 C759 102 764 97 769 97 L769 97 Z M589 67 C584 67 579 72 579 77 C579 83 584 87 589 87 C595 87 599 83 599 77 C599 72 595 67 589 67 L589 67 Z M812 -102 L661 -102 L654 -40 L746 10 C749 9 752 8 755 8 C765 8 774 17 774 27 C774 37 765 45 755 45 C746 45 738 38 737 29 L619 -35 L609 -17 L649 5 L641 68 L832 68 L812 -102 Z " />
<glyph glyph-name="Z" unicode="Z" horiz-adv-x="1000" d="M900 750 L100 750 C45 750 0 705 0 650 L0 -150 C0 -205 45 -250 100 -250 L900 -250 C955 -250 1000 -205 1000 -150 L1000 650 C1000 705 955 750 900 750 L900 750 Z M555 560 C580 560 624 523 624 490 L616 479 L647 456 L634 440 L575 484 L563 468 L592 445 C574 424 553 414 537 425 L471 470 L523 541 C533 555 543 560 555 560 L555 560 Z M454 449 L498 382 L498 282 L515 166 L650 85 L643 66 L472 167 L418 322 L407 322 L407 220 L475 111 C484 96 489 79 487 62 L475 -67 C474 -81 464 -90 450 -90 L417 -90 L420 74 L301 208 C288 222 281 238 281 257 C281 274 287 295 303 318 L365 407 C388 441 418 449 454 449 L454 449 Z M353 424 L287 329 C279 317 273 305 268 294 L210 331 C198 338 198 354 212 364 L293 424 L353 424 Z M280 202 L333 142 L209 -69 C202 -81 188 -85 176 -79 L150 -65 L280 202 Z M727 138 C816 138 850 70 850 -84 L522 -84 C522 -64 525 -42 541 -25 C557 -8 577 0 600 0 C628 0 651 26 663 60 C679 106 692 138 727 138 L727 138 Z M709 28 L743 13 L751 31 L717 46 L709 28 Z " />
<glyph glyph-name="bracketleft" unicode="&#x5b;" horiz-adv-x="1000" d="M1000 -150 C1000 -205 955 -250 900 -250 L100 -250 C45 -250 0 -205 0 -150 L0 650 C0 705 45 750 100 750 L900 750 C955 750 1000 705 1000 650 L1000 -150 Z M237 475 L285 475 L350 460 C355 470 364 498 367 512 C359 545 325 561 290 561 C271 561 257 555 245 542 C239 520 236 496 237 475 L237 475 Z M694 340 L694 514 L441 514 L441 340 L558 340 L558 282 L518 282 L518 262 L618 262 L618 282 L578 282 L578 340 L694 340 Z M738 500 L738 252 L850 252 L850 500 L738 500 Z M674 360 L461 360 L461 494 L674 494 L674 360 Z M511 444 L511 464 L491 464 L491 444 L511 444 Z M813 457 L775 457 L775 417 L813 417 L813 457 Z M353 272 L473 272 C481 291 473 307 455 310 L402 319 L386 397 C380 427 362 437 335 443 L283 455 L234 455 C203 455 175 433 170 389 L151 209 C144 145 184 128 233 128 L347 128 L347 -74 L384 -74 C400 -74 409 -66 410 -50 L427 132 C430 164 414 187 384 193 L296 210 L318 319 L353 272 Z M774 301 C781 301 786 296 786 290 C786 284 781 278 774 278 C768 278 763 284 763 290 C763 296 768 301 774 301 L774 301 Z M382 212 L850 212 L850 232 L382 232 L382 212 Z M150 88 L150 68 L194 68 L194 -93 L264 -93 L264 68 L310 68 L310 88 L150 88 Z M244 -73 L214 -73 L214 68 L244 68 L244 -73 Z " />
<glyph glyph-name="backslash" unicode="&#x5c;" horiz-adv-x="1000" d="M900 750 L100 750 C45 750 0 705 0 650 L0 -150 C0 -205 45 -250 100 -250 L900 -250 C955 -250 1000 -205 1000 -150 L1000 650 C1000 705 955 750 900 750 L900 750 Z M850 412 L754 412 C744 424 730 433 715 433 L282 433 L282 486 C282 503 296 517 313 517 L819 517 C836 517 850 503 850 486 L850 412 Z M746 68 C746 51 732 38 715 38 L181 38 C164 38 150 51 150 68 L150 382 C150 399 164 413 181 413 L715 413 C732 413 746 399 746 382 L746 68 Z M850 191 C850 174 836 160 819 160 L766 160 L766 345 L850 345 L850 191 Z M609 296 L674 296 L674 316 L609 316 L609 296 Z M293 303 L223 303 L223 225 L293 225 L293 303 Z M223 123 L309 123 L309 143 L223 143 L223 123 Z M345 123 L430 123 L430 143 L345 143 L345 123 Z M467 123 L552 123 L552 143 L467 143 L467 123 Z M589 123 L674 123 L674 143 L589 143 L589 123 Z " />
<glyph glyph-name="bracketright" unicode="&#x5d;" horiz-adv-x="1000" d="M100 -250 L900 -250 C955 -250 1000 -205 1000 -150 L1000 650 C1000 705 955 750 900 750 L100 750 C45 750 0 705 0 650 L0 -150 C0 -205 45 -250 100 -250 L100 -250 Z M686 563 L686 592 L706 592 L706 563 L686 563 Z M244 529 L244 549 L270 550 C272 575 284 583 310 583 C350 583 373 578 387 552 L413 553 L413 533 L244 529 Z M550 184 L550 324 L601 373 C610 382 615 393 615 404 C615 415 609 426 595 433 L550 455 L550 544 L850 544 L850 184 L550 184 Z M269 454 L269 510 L384 512 L384 492 C384 470 368 454 346 454 L269 454 Z M611 451 C613 449 616 447 620 447 C641 447 636 467 661 468 L659 476 C653 481 646 483 640 483 C628 483 616 477 607 469 L611 451 Z M692 258 C717 258 756 286 772 309 C779 319 781 338 781 359 C781 388 777 420 772 435 C768 447 750 452 731 452 C711 452 690 447 684 439 C680 434 679 425 679 416 C679 397 687 374 704 359 C707 356 710 356 713 356 C722 357 730 365 736 365 C740 365 742 360 742 344 L742 332 C741 313 732 307 719 307 C696 307 663 328 658 331 C649 338 643 340 639 340 C634 340 632 336 632 329 C632 311 645 280 650 274 C657 267 673 258 692 258 L692 258 Z M420 14 L234 18 L234 100 L245 240 C233 269 227 301 227 332 C227 340 227 349 228 357 L208 359 C207 350 206 341 206 332 C206 307 210 281 218 257 L165 289 C156 294 151 304 151 314 C151 319 152 324 154 329 L181 389 C187 403 203 416 218 416 L374 416 L473 357 L567 424 L586 415 C593 412 595 407 595 402 C595 397 592 393 588 389 L506 309 C499 302 488 299 477 299 C469 299 462 300 455 303 L386 333 L420 116 L420 14 Z M608 -81 L653 144 L599 144 L599 164 L799 164 L799 144 L745 144 L790 -81 L769 -81 L738 74 L660 74 L629 -81 L608 -81 Z M664 94 L734 94 L725 144 L673 144 L664 94 Z M232 -100 L233 -2 L294 -4 L285 -100 L232 -100 Z M372 -100 L362 -5 L420 -7 L420 -100 L372 -100 Z " />
<glyph glyph-name="asciicircum" unicode="&#x5e;" horiz-adv-x="1000" d="M900 750 L100 750 C45 750 0 705 0 650 L0 -150 C0 -205 45 -250 100 -250 L900 -250 C955 -250 1000 -205 1000 -150 L1000 650 C1000 705 955 750 900 750 L900 750 Z M809 414 C748 368 710 329 685 296 L663 318 C669 327 672 337 672 347 C672 368 656 383 634 383 C616 383 591 371 573 371 C562 371 553 377 553 387 C553 402 570 421 596 423 L595 443 C581 442 567 437 555 427 L533 448 C559 481 596 519 658 565 L809 414 Z M601 291 C613 289 631 291 648 305 L673 280 C663 265 655 252 649 238 C626 184 615 147 552 101 L508 145 L543 180 C553 190 561 203 561 217 C561 241 540 272 508 272 C492 272 478 265 468 255 L435 222 L401 252 C463 298 470 338 497 390 C504 403 511 417 521 432 L541 411 C536 403 532 395 532 386 C532 369 548 350 572 350 C593 350 614 363 634 363 C643 363 653 360 653 346 C653 324 622 308 602 308 L601 291 Z M487 412 C484 408 481 403 479 399 C448 339 443 302 370 255 L355 243 C345 235 341 224 341 213 C342 184 367 163 393 163 C402 163 411 167 419 175 L484 240 C492 248 500 251 508 251 C525 251 540 235 540 217 C540 210 536 202 529 195 L430 96 C429 67 419 13 386 -12 L261 -107 L191 -34 L283 243 C286 253 294 264 309 276 L468 401 C475 407 482 410 487 412 L487 412 Z " />
<glyph glyph-name="underscore" unicode="&#x5f;" horiz-adv-x="1000" d="M900 750 L100 750 C45 750 0 705 0 650 L0 -150 C0 -205 45 -250 100 -250 L900 -250 C955 -250 1000 -205 1000 -150 L1000 650 C1000 705 955 750 900 750 L900 750 Z M710 585 C748 585 779 554 779 516 L779 46 C779 8 748 -23 710 -23 L694 -23 L694 441 C694 487 651 530 605 530 L326 530 L326 585 L710 585 Z M605 510 C643 510 674 479 674 441 L674 -25 C674 -63 643 -94 605 -94 L221 -94 L221 510 L605 510 Z M445 421 C373 421 312 360 312 288 C312 217 373 155 445 155 C517 155 578 217 578 288 C578 360 517 421 445 421 L445 421 Z M424 399 C396 373 376 337 373 298 L332 298 C337 348 375 390 424 399 L424 399 Z M558 298 L516 298 C513 337 494 373 465 399 C514 390 553 348 558 298 L558 298 Z M393 298 C396 336 415 368 445 390 C474 368 493 336 496 298 L393 298 Z M332 278 L373 278 C375 239 395 203 424 177 C376 186 337 228 332 278 L332 278 Z M445 187 C415 209 395 241 393 278 L496 278 C494 241 474 209 445 187 L445 187 Z M464 177 C494 202 513 239 516 278 L558 278 C553 228 514 186 464 177 L464 177 Z M523 89 L354 89 L354 69 L523 69 L523 89 Z M523 22 L354 22 L354 2 L523 2 L523 22 Z " />
<glyph glyph-name="a" unicode="a" horiz-adv-x="1000" d="M900 750 L100 750 C45 750 0 705 0 650 L0 -150 C0 -205 45 -250 100 -250 L900 -250 C955 -250 1000 -205 1000 -150 L1000 650 C1000 705 955 750 900 750 L900 750 Z M629 485 L570 530 L558 514 L587 492 L566 470 C562 465 556 462 549 462 C544 461 538 463 533 467 L466 517 L509 577 C521 593 534 600 554 600 C581 600 619 572 618 537 L611 525 L642 502 L629 485 Z M507 -94 L466 -94 L423 131 C380 185 354 230 358 286 L366 389 C370 436 402 476 442 476 C474 476 515 450 517 408 C519 367 509 293 503 247 L484 231 L453 309 C448 321 448 332 450 345 L459 402 L439 406 L430 349 C427 332 430 315 435 301 L467 217 L448 201 L401 272 L383 262 L445 171 L505 222 L526 -69 C527 -81 518 -94 507 -94 L507 -94 Z M427 -65 C422 -91 410 -94 393 -94 L364 -94 L384 56 L375 160 L404 123 L433 -35 L427 -65 Z " />
<glyph glyph-name="b" unicode="b" horiz-adv-x="1000" d="M900 750 L100 750 C45 750 0 705 0 650 L0 -150 C0 -205 45 -250 100 -250 L900 -250 C955 -250 1000 -205 1000 -150 L1000 650 C1000 705 955 750 900 750 L900 750 Z M606 547 C628 547 646 529 646 507 L646 246 C646 224 628 206 606 206 L355 206 L270 89 L245 89 L245 206 L190 206 C168 206 150 224 150 246 L150 507 C150 529 168 547 190 547 L606 547 Z M241 464 L566 464 L566 484 L241 484 L241 464 Z M241 367 L566 367 L566 387 L241 387 L241 367 Z M810 365 C832 365 850 347 850 325 L850 84 C850 62 832 44 810 44 L754 44 L754 -73 L730 -73 L645 44 L375 44 C353 44 335 62 335 84 L335 144 L365 186 L606 186 C636 186 666 216 666 246 L666 365 L810 365 Z M696 279 L788 279 L788 299 L696 299 L696 279 Z M241 269 L566 269 L566 289 L241 289 L241 269 Z M696 196 L788 196 L788 216 L696 216 L696 196 Z M436 113 L785 113 L785 133 L436 133 L436 113 Z " />
<glyph glyph-name="c" unicode="c" horiz-adv-x="1000" d="M900 750 L100 750 C45 750 0 705 0 650 L0 -150 C0 -205 45 -250 100 -250 L900 -250 C955 -250 1000 -205 1000 -150 L1000 650 C1000 705 955 750 900 750 L900 750 Z M850 -42 L442 -42 L442 -1 C442 22 419 45 397 45 L350 45 L350 83 C363 95 376 123 376 148 C376 172 366 195 350 212 L350 600 L850 600 L850 -42 Z M600 498 L437 498 L437 473 L600 473 L600 498 Z M762 411 L437 411 L437 386 L762 386 L762 411 Z M762 323 L437 323 L437 298 L762 298 L762 323 Z M600 236 L437 236 L437 211 L600 211 L600 236 Z M286 222 C325 222 356 189 356 148 C356 129 347 110 338 99 L234 99 C225 110 216 129 216 148 C216 189 247 222 286 222 L286 222 Z M678 112 L703 105 C709 108 715 110 722 110 C737 110 750 102 757 90 L782 83 C776 110 751 131 722 131 C704 131 689 124 678 112 L678 112 Z M638 81 L800 37 L806 57 L644 101 L638 81 Z M330 79 L330 45 L242 45 L242 79 L330 79 Z M722 28 C708 28 695 36 688 48 L663 54 C669 28 693 8 722 8 C739 8 755 15 766 26 L742 33 C736 30 729 28 722 28 L722 28 Z M422 -50 L150 -50 L150 4 C150 16 159 25 171 25 L397 25 C411 25 422 14 422 -1 L422 -50 Z M422 -100 L150 -100 L150 -70 L422 -70 L422 -100 Z " />
<glyph glyph-name="d" unicode="d" horiz-adv-x="1000" d="M900 750 L100 750 C45 750 0 705 0 650 L0 -150 C0 -205 45 -250 100 -250 L900 -250 C955 -250 1000 -205 1000 -150 L1000 650 C1000 705 955 750 900 750 L900 750 Z M488 91 L475 -77 C474 -91 464 -100 450 -100 L413 -100 L413 73 L251 73 C180 73 150 127 150 193 C150 251 174 320 215 370 C236 396 260 408 281 408 C298 408 313 400 324 387 L357 345 L357 420 L297 432 L312 548 C316 576 345 593 373 593 C400 593 450 571 465 541 L445 457 C437 473 424 485 411 487 L408 467 C420 465 431 452 430 431 L425 228 C424 204 408 186 387 186 C374 186 357 195 342 215 L276 303 L266 282 L291 223 L292 187 L345 183 C359 171 374 166 387 166 C398 166 408 170 417 175 C460 165 491 134 488 91 L488 91 Z M662 338 L656 305 C652 281 636 272 614 274 L447 289 L450 373 L504 353 L662 338 Z M581 294 C588 294 594 300 594 307 C594 314 588 320 581 320 C574 320 568 314 568 307 C568 300 574 294 581 294 L581 294 Z M555 217 C548 217 542 223 542 230 C542 237 548 243 555 243 C562 243 568 237 568 230 C568 223 562 217 555 217 L555 217 Z M676 162 C676 148 675 135 677 124 C657 118 639 106 624 91 C629 114 632 138 614 138 L589 138 L589 160 L622 186 C630 192 640 195 649 195 C663 195 676 185 676 162 L676 162 Z M516 -78 L495 -78 L508 90 C510 115 501 137 486 156 C507 143 523 122 526 97 L542 -51 C544 -66 535 -78 516 -78 L516 -78 Z M850 -4 L750 -4 C718 -4 697 11 683 32 L666 21 C682 -3 712 -24 750 -24 L801 -24 C789 -34 773 -40 750 -40 L747 -40 L747 -78 L727 -78 L727 -40 L725 -40 C662 -40 619 -14 615 43 C627 72 652 95 682 104 C685 97 691 90 700 85 C747 54 779 26 850 24 L850 -4 Z M374 15 L320 15 L320 -99 L250 -99 L250 15 L195 15 L195 35 L374 35 L374 15 Z M300 15 L270 15 L270 -79 L300 -79 L300 15 Z M583 -50 C576 -50 570 -44 570 -37 C570 -30 576 -24 583 -24 C590 -24 596 -30 596 -37 C596 -44 590 -50 583 -50 L583 -50 Z M626 -84 C619 -84 613 -78 613 -71 C613 -64 619 -58 626 -58 C633 -58 639 -64 639 -71 C639 -78 633 -84 626 -84 L626 -84 Z " />
<glyph glyph-name="e" unicode="e" horiz-adv-x="1000" d="M900 750 L100 750 C45 750 0 705 0 650 L0 -150 C0 -205 45 -250 100 -250 L900 -250 C955 -250 1000 -205 1000 -150 L1000 650 C1000 705 955 750 900 750 L900 750 Z M850 14 L425 14 L425 600 L850 600 L850 14 Z M601 530 L508 530 L508 507 L601 507 L601 530 Z M768 450 L508 450 L508 428 L768 428 L768 450 Z M532 128 C508 128 498 135 489 144 L475 130 C483 121 497 111 519 109 L519 60 L544 71 L544 109 C562 114 577 128 577 146 C577 170 553 185 534 195 C512 206 505 211 505 224 C505 236 517 242 533 242 C547 242 555 238 567 228 L579 244 C569 252 559 259 545 261 L545 323 L520 312 L520 261 C502 257 485 246 485 224 C485 201 502 188 525 177 C543 168 557 158 557 146 C557 136 547 128 532 128 L532 128 Z M639 255 L755 255 L755 277 L639 277 L639 255 Z M639 203 L639 180 L732 180 L732 203 L639 203 Z M639 106 L744 106 L744 128 L639 128 L639 106 Z M405 100 L405 41 L324 -19 L166 100 L405 100 Z M150 88 L263 2 L150 -87 L150 88 Z M500 -87 L396 -6 L500 -6 L500 -87 Z M166 -100 L280 -10 L324 -44 L369 -10 L484 -100 L166 -100 Z " />
<glyph glyph-name="f" unicode="f" horiz-adv-x="1000" d="M900 750 L100 750 C45 750 0 705 0 650 L0 -150 C0 -205 45 -250 100 -250 L900 -250 C955 -250 1000 -205 1000 -150 L1000 650 C1000 705 955 750 900 750 L900 750 Z M159 474 L159 502 L208 543 L234 517 L248 531 L223 556 L243 573 C260 587 283 596 304 596 C345 596 371 566 371 516 L371 403 C321 396 270 365 240 323 C243 365 245 375 245 400 L245 440 C245 460 230 474 216 474 L159 474 Z M295 514 C306 514 315 523 315 534 C315 545 306 554 295 554 C284 554 275 545 275 534 C275 523 284 514 295 514 L295 514 Z M555 140 L699 140 C662 80 616 50 549 50 L489 50 C407 50 343 68 297 106 C256 140 234 195 234 267 C250 328 309 376 371 383 C427 383 639 215 817 215 L841 160 L555 160 C461 160 423 203 389 253 L372 242 C407 191 452 140 555 140 L555 140 Z M575 -68 L547 -35 L537 -35 L537 -66 L439 -66 L439 -46 L517 -46 L517 31 L537 31 L537 -15 L557 -15 L601 -68 L575 -68 Z " />
<glyph glyph-name="g" unicode="g" horiz-adv-x="1000" d="M900 750 L100 750 C45 750 0 705 0 650 L0 -150 C0 -205 45 -250 100 -250 L900 -250 C955 -250 1000 -205 1000 -150 L1000 650 C1000 705 955 750 900 750 L900 750 Z M500 550 C666 550 800 416 800 250 C800 84 666 -50 500 -50 C334 -50 200 84 200 250 C200 416 334 550 500 550 L500 550 Z M633 126 L507 252 L507 457 L487 457 L487 244 L619 112 L633 126 Z " />
<glyph glyph-name="h" unicode="h" horiz-adv-x="1000" d="M900 750 L100 750 C45 750 0 705 0 650 L0 -150 C0 -205 45 -250 100 -250 L900 -250 C955 -250 1000 -205 1000 -150 L1000 650 C1000 705 955 750 900 750 L900 750 Z M755 518 L755 390 L235 390 L235 518 L344 518 L344 557 L364 557 L364 466 L344 466 L344 486 C329 482 318 468 318 452 C318 432 335 415 355 415 C375 415 391 432 391 452 L391 518 L619 518 L619 557 L639 557 L639 466 L619 466 L619 487 C603 483 592 469 592 452 C592 432 608 415 628 415 C648 415 665 432 665 452 L665 518 L755 518 Z M753 370 L762 20 L502 -50 L232 -50 L232 370 L753 370 Z M490 350 L252 350 L252 -30 L490 -30 L490 350 Z M733 350 L510 350 L510 -25 L741 35 L733 350 Z M384 249 L384 100 L406 100 L406 75 L333 75 L333 100 L360 100 L360 217 L335 209 C329 207 321 211 321 218 L321 225 C328 226 334 230 344 236 C358 244 364 249 370 249 L384 249 Z M625 249 C654 249 675 234 675 198 C675 138 593 127 593 100 L674 100 L674 75 L568 75 L568 92 C568 145 650 158 650 197 C650 222 635 223 620 223 C602 223 596 212 596 203 C596 200 596 197 597 194 L572 194 C563 225 580 249 625 249 L625 249 Z M744 -6 L759 -1 L759 -55 L585 -49 L648 -31 L744 -34 L744 -6 Z " />
<glyph glyph-name="i" unicode="i" horiz-adv-x="1000" d="M900 750 L100 750 C45 750 0 705 0 650 L0 -150 C0 -205 45 -250 100 -250 L900 -250 C955 -250 1000 -205 1000 -150 L1000 650 C1000 705 955 750 900 750 L900 750 Z M164 550 C176 567 208 572 230 571 C251 570 267 548 264 527 L252 450 L193 457 C181 458 163 474 163 495 L164 550 Z M738 495 L744 549 C753 561 773 565 791 565 C825 565 847 543 841 517 L823 441 L764 453 C747 456 735 467 738 495 L738 495 Z M494 556 C515 556 534 538 532 516 L526 438 L467 440 C455 440 436 454 434 475 L430 531 C440 549 471 556 494 556 L494 556 Z M471 -92 L444 -90 C436 -90 430 -83 431 -73 L445 175 L431 313 C425 373 456 412 503 412 C535 412 552 403 554 373 L561 252 L548 131 L525 140 C517 143 515 147 514 155 L502 329 L482 327 L494 153 C495 139 504 127 519 121 L491 41 L471 -92 Z M758 -92 L731 -90 C723 -90 717 -83 718 -73 L732 175 L718 313 C712 373 743 412 790 412 C822 412 839 403 841 373 L848 252 L835 131 L812 140 C804 143 802 147 801 155 L789 329 L769 327 L781 153 C782 139 791 127 806 121 L778 41 L758 -92 Z M156 312 C152 362 181 408 224 408 C249 408 274 387 273 355 L269 244 L202 133 L175 149 L213 246 L210 327 L190 326 L193 249 L167 182 L156 312 Z M193 -93 L162 -93 C153 -93 150 -84 150 -74 L152 46 L163 132 L209 106 L250 173 L205 41 L193 -93 Z M229 -93 L225 41 L264 147 L275 -93 L229 -93 Z M515 -93 L511 41 L535 115 L551 109 L563 -93 L515 -93 Z M802 -93 L798 41 L822 115 L838 109 L850 -93 L802 -93 Z " />
<glyph glyph-name="j" unicode="j" horiz-adv-x="1000" d="M100 -250 L900 -250 C955 -250 1000 -205 1000 -150 L1000 650 C1000 705 955 750 900 750 L100 750 C45 750 0 705 0 650 L0 -150 C0 -205 45 -250 100 -250 L100 -250 Z M206 415 C171 415 150 447 150 480 C150 513 171 544 206 544 L442 544 L442 524 L424 524 L414 479 L424 435 L442 435 L442 415 L206 415 Z M171 490 L395 490 L403 524 L206 524 C187 524 174 510 171 490 L171 490 Z M206 435 L403 435 L395 470 L171 470 C174 450 187 435 206 435 L206 435 Z M725 -53 C718 -54 712 -49 711 -42 L671 415 C671 422 676 428 683 428 L797 438 C804 439 809 434 810 427 L850 -30 C850 -37 846 -42 839 -43 L725 -53 Z M503 -49 C496 -49 490 -44 490 -37 L490 422 C490 429 496 434 503 434 L617 434 C624 434 629 429 629 422 L629 -37 C629 -44 624 -49 617 -49 L503 -49 Z M206 253 C171 253 150 284 150 317 C150 350 171 381 206 381 L442 381 L442 361 L424 361 L414 317 L424 273 L442 273 L442 253 L206 253 Z M560 329 C572 329 582 339 582 351 C582 363 572 373 560 373 C548 373 538 363 538 351 C538 339 548 329 560 329 L560 329 Z M747 329 C759 329 769 339 769 351 C769 363 759 373 747 373 C735 373 725 363 725 351 C725 339 735 329 747 329 L747 329 Z M171 327 L395 327 L403 361 L206 361 C187 361 174 347 171 327 L171 327 Z M206 273 L403 273 L395 307 L171 307 C174 287 187 273 206 273 L206 273 Z M152 193 L152 213 L446 213 L446 193 L152 193 Z M757 -11 L801 -7 C807 -7 810 -2 810 4 L797 148 C796 154 792 158 786 157 L742 153 C736 153 733 148 733 142 L746 -2 C746 -8 751 -12 757 -11 L757 -11 Z M538 -10 L582 -10 C588 -10 592 -6 592 0 L592 145 C592 151 588 155 582 155 L538 155 C532 155 528 151 528 145 L528 0 C528 -6 532 -10 538 -10 L538 -10 Z M152 123 L152 143 L446 143 L446 123 L152 123 Z M152 53 L152 73 L446 73 L446 53 L152 53 Z M152 -17 L152 3 L446 3 L446 -17 L152 -17 Z " />
<glyph glyph-name="k" unicode="k" horiz-adv-x="1000" d="M900 750 L100 750 C45 750 0 705 0 650 L0 -150 C0 -205 45 -250 100 -250 L900 -250 C955 -250 1000 -205 1000 -150 L1000 650 C1000 705 955 750 900 750 L900 750 Z M451 576 C435 573 421 563 413 543 L395 497 L376 568 C370 591 391 608 413 608 C429 608 445 598 451 576 L451 576 Z M431 536 C437 551 449 557 462 557 C482 557 502 538 493 511 L425 307 L365 307 C354 307 345 301 337 294 L431 536 Z M491 442 L510 307 L447 307 L491 442 Z M541 205 C561 221 571 250 571 282 L571 307 L541 307 L541 391 C541 409 556 424 574 424 C592 424 607 409 607 391 L607 205 C607 187 592 172 574 172 C556 172 541 187 541 205 L541 205 Z M627 228 L627 371 C627 389 642 404 660 404 C678 404 693 389 693 371 L693 228 C693 210 678 195 660 195 C642 195 627 210 627 228 L627 228 Z M425 184 L505 184 C514 184 522 179 527 171 C538 156 555 147 574 147 C602 147 621 166 628 184 C652 184 679 152 679 101 C679 61 655 43 635 23 L635 -100 L363 -100 L363 35 C349 61 298 106 308 155 L324 231 C332 269 355 282 392 282 L545 282 C545 234 525 208 478 208 L397 208 L384 134 L409 134 L425 184 Z " />
<glyph glyph-name="l" unicode="l" horiz-adv-x="1000" d="M100 750 C45 750 0 705 0 650 L0 -150 C0 -205 45 -250 100 -250 L900 -250 C955 -250 1000 -205 1000 -150 L1000 650 C1000 705 955 750 900 750 L100 750 Z M471 600 C501 600 523 591 534 568 C534 539 527 484 522 473 C512 463 487 453 471 450 C455 453 432 463 420 473 C415 484 407 539 407 568 C419 590 440 600 471 600 L471 600 Z M373 566 L383 505 L363 501 L353 562 L373 566 Z M568 566 L588 562 L578 501 L558 505 L568 566 Z M301 248 L306 373 C308 413 347 436 378 432 L540 413 C575 409 617 380 621 345 L630 264 L697 119 C703 106 696 94 683 90 L656 81 L583 181 L580 281 L563 288 L563 181 L580 38 C539 90 507 122 500 164 C511 169 517 178 517 187 L517 235 C517 253 502 259 487 259 L455 259 L390 268 L388 336 L369 336 L369 250 L454 239 L487 239 C495 239 497 237 497 235 L497 187 C497 184 496 182 488 182 L449 182 L354 190 C313 193 300 214 301 248 L301 248 Z M470 317 L470 279 L490 279 L490 317 C502 321 510 333 510 346 C510 363 497 376 480 376 C463 376 449 363 449 346 C449 332 458 321 470 317 L470 317 Z M502 -100 L482 90 L462 90 L427 -100 L340 -100 L351 141 L448 162 L480 162 C489 107 532 69 580 6 L585 -100 L502 -100 Z " />
<glyph glyph-name="m" unicode="m" horiz-adv-x="1000" d="M900 750 L100 750 C45 750 0 705 0 650 L0 -150 C0 -205 45 -250 100 -250 L900 -250 C955 -250 1000 -205 1000 -150 L1000 650 C1000 705 955 750 900 750 L900 750 Z M283 153 L259 153 L259 270 L190 270 C168 270 150 288 150 310 L150 551 C150 573 168 591 190 591 L495 591 C517 591 536 573 536 551 L536 310 C536 288 517 270 495 270 L368 270 L283 153 Z M341 509 C317 509 302 495 297 490 L293 504 L282 504 L282 354 L302 354 L302 463 C309 478 324 489 341 489 C359 489 379 480 379 459 L379 354 L399 354 L399 459 C399 488 375 509 341 509 L341 509 Z M850 68 C850 46 832 28 810 28 L684 28 L684 -90 L660 -90 L574 28 L512 28 C490 28 472 46 472 68 L472 250 L495 250 C525 250 556 279 556 310 L556 348 L810 348 C832 348 850 330 850 308 L850 68 Z M709 130 C709 116 696 103 682 103 L626 103 L626 189 C643 194 657 211 657 229 C657 251 637 271 616 271 C594 271 574 251 574 229 C574 211 588 194 606 189 L606 103 L578 103 L578 83 L682 83 C706 83 729 106 729 130 L729 261 L709 261 L709 130 Z M594 229 C594 241 604 251 616 251 C627 251 637 241 637 229 C637 218 627 208 616 208 C604 208 594 218 594 229 L594 229 Z " />
<glyph glyph-name="n" unicode="n" horiz-adv-x="1000" d="M900 750 L100 750 C45 750 0 705 0 650 L0 -150 C0 -205 45 -250 100 -250 L900 -250 C955 -250 1000 -205 1000 -150 L1000 650 C1000 705 955 750 900 750 L900 750 Z M283 153 L259 153 L259 270 L190 270 C168 270 150 288 150 310 L150 551 C150 573 168 591 190 591 L495 591 C517 591 536 573 536 551 L536 310 C536 288 517 270 495 270 L368 270 L283 153 Z M355 509 L355 555 L335 555 L335 509 C298 504 268 471 268 433 C268 395 298 362 335 357 L335 311 L355 311 L355 357 C392 362 423 395 423 433 C423 471 392 504 355 509 L355 509 Z M288 433 C288 461 309 484 335 489 L335 377 C309 382 288 405 288 433 L288 433 Z M355 377 L355 489 C382 484 403 461 403 433 C403 405 382 382 355 377 L355 377 Z M850 68 C850 46 832 28 810 28 L684 28 L684 -90 L660 -90 L574 28 L512 28 C490 28 472 46 472 68 L472 250 L495 250 C525 250 556 279 556 310 L556 348 L810 348 C832 348 850 330 850 308 L850 68 Z M664 263 C640 263 625 249 620 244 L616 258 L605 258 L605 108 L625 108 L625 217 C632 232 647 243 664 243 C682 243 702 234 702 213 L702 108 L722 108 L722 213 C722 242 698 263 664 263 L664 263 Z " />
<glyph glyph-name="o" unicode="o" horiz-adv-x="1000" d="M900 750 L100 750 C45 750 0 705 0 650 L0 -150 C0 -205 45 -250 100 -250 L900 -250 C955 -250 1000 -205 1000 -150 L1000 650 C1000 705 955 750 900 750 L900 750 Z M203 575 C215 575 228 568 233 558 L259 507 C266 494 258 471 234 471 L183 471 C163 471 155 482 155 506 L155 552 C166 572 175 575 203 575 L203 575 Z M413 575 C430 575 443 560 443 544 L443 483 L392 483 C378 483 369 495 367 512 L363 553 C372 568 391 575 413 575 L413 575 Z M584 575 C596 575 609 568 614 558 L640 507 C647 494 639 471 615 471 L564 471 C544 471 536 482 536 506 L536 552 C547 572 556 575 584 575 L584 575 Z M779 575 C791 575 804 568 809 558 L835 507 C842 494 834 471 810 471 L759 471 C739 471 731 482 731 506 L731 552 C742 572 751 575 779 575 L779 575 Z M371 300 L364 413 C363 435 381 454 407 454 C435 454 448 444 448 426 L448 325 C448 289 443 272 432 227 L408 49 L387 49 C378 49 371 56 371 65 L372 271 L390 291 C408 310 414 335 414 359 L414 393 L394 393 L394 359 C394 337 389 321 375 305 L371 300 Z M224 441 C250 441 273 409 273 384 L274 169 L150 169 L164 288 L152 372 C152 416 198 441 224 441 L224 441 Z M605 441 C631 441 654 409 654 384 L655 169 L531 169 L545 288 L533 372 C533 416 579 441 605 441 L605 441 Z M800 441 C826 441 849 409 849 384 L850 169 L726 169 L740 288 L728 372 C728 416 774 441 800 441 L800 441 Z M243 393 L223 393 L223 359 C223 337 218 321 204 305 L185 284 L200 270 L219 291 C236 310 243 335 243 359 L243 393 Z M624 393 L604 393 L604 359 C604 337 599 321 585 305 L566 284 L581 270 L600 291 C617 310 624 335 624 359 L624 393 Z M819 393 L799 393 L799 359 C799 337 794 321 780 305 L761 284 L775 270 L794 291 C812 311 819 335 819 359 L819 393 Z M452 224 L461 50 L429 50 L452 224 Z M199 149 L210 36 L184 36 C176 36 170 42 169 50 L161 149 L199 149 Z M267 149 L261 36 L231 36 L219 149 L267 149 Z M580 149 L591 36 L565 36 C557 36 551 42 550 50 L542 149 L580 149 Z M648 149 L642 36 L612 36 L600 149 L648 149 Z M775 149 L786 36 L760 36 C752 36 746 42 745 50 L737 149 L775 149 Z M843 149 L837 36 L807 36 L795 149 L843 149 Z M850 1 L850 -19 L150 -19 L150 1 L850 1 Z " />
<glyph glyph-name="p" unicode="p" horiz-adv-x="1000" d="M100 -250 L900 -250 C955 -250 1000 -205 1000 -150 L1000 650 C1000 705 955 750 900 750 L100 750 C45 750 0 705 0 650 L0 -150 C0 -205 45 -250 100 -250 L100 -250 Z M619 473 C590 473 581 502 590 519 L623 582 C629 594 637 600 652 600 C690 600 705 597 719 573 C719 533 717 506 710 491 C705 480 697 473 682 473 L619 473 Z M297 -32 L243 -10 C225 -3 216 18 223 36 L282 190 C289 209 309 217 327 210 L363 196 L393 252 L377 260 C369 263 368 274 373 285 L425 396 L495 434 C524 450 555 460 583 451 L623 438 C642 432 653 401 652 371 C652 358 650 345 645 334 L625 292 L617 227 L658 96 C646 108 633 113 620 113 C592 113 560 97 518 96 C500 96 480 99 458 108 L483 240 L524 362 L461 337 L382 188 C400 181 409 160 402 142 L343 -12 C336 -30 315 -39 297 -32 L297 -32 Z M756 191 L688 237 L650 297 L663 325 C670 340 673 362 672 372 L716 289 L772 240 C783 231 780 217 771 207 L756 191 Z M607 -100 L581 77 C597 83 609 86 619 86 C629 86 638 83 647 76 L653 -71 C654 -90 648 -100 632 -100 L607 -100 Z M414 -91 L390 -80 L458 54 L466 83 C489 74 506 71 525 71 C529 71 534 72 539 72 L536 57 C535 51 533 46 530 41 L462 -70 C448 -92 431 -98 414 -91 L414 -91 Z M269 -100 C257 -100 247 -90 247 -78 C247 -66 257 -56 269 -56 C281 -56 291 -66 291 -78 C291 -90 281 -100 269 -100 L269 -100 Z " />
<glyph glyph-name="q" unicode="q" horiz-adv-x="1000" d="M900 750 L100 750 C45 750 0 705 0 650 L0 -150 C0 -205 45 -250 100 -250 L900 -250 C955 -250 1000 -205 1000 -150 L1000 650 C1000 705 955 750 900 750 L900 750 Z M850 600 L850 14 L425 14 L425 600 L850 600 Z M601 530 L508 530 L508 507 L601 507 L601 530 Z M768 450 L508 450 L508 428 L768 428 L768 450 Z M601 380 L508 380 L508 357 L601 357 L601 380 Z M639 274 C592 274 544 241 532 190 L558 198 C572 229 605 252 639 252 C657 252 672 247 686 239 L712 247 C691 265 666 274 639 274 L639 274 Z M777 247 L488 155 L494 135 L783 227 L777 247 Z M785 191 L496 99 L502 79 L791 171 L785 191 Z M747 135 L720 126 C705 95 674 75 640 75 C624 75 609 79 596 87 L568 78 C589 61 614 52 640 52 C690 52 734 86 747 135 L747 135 Z M405 100 L405 41 L324 -19 L166 100 L405 100 Z M150 88 L263 2 L150 -87 L150 88 Z M500 -6 L500 -87 L396 -6 L500 -6 Z M369 -10 L484 -100 L166 -100 L280 -10 L324 -44 L369 -10 Z " />
<glyph glyph-name="r" unicode="r" horiz-adv-x="1000" d="M900 750 L100 750 C45 750 0 705 0 650 L0 -150 C0 -205 45 -250 100 -250 L900 -250 C955 -250 1000 -205 1000 -150 L1000 650 C1000 705 955 750 900 750 L900 750 Z M850 600 L850 14 L425 14 L425 600 L850 600 Z M596 517 L502 517 L502 495 L596 495 L596 517 Z M763 438 L502 438 L502 416 L763 416 L763 438 Z M768 359 L507 359 L507 336 L768 336 L768 359 Z M768 280 L507 280 L507 257 L768 257 L768 280 Z M768 201 L507 201 L507 178 L768 178 L768 201 Z M768 121 L663 121 L663 99 L768 99 L768 121 Z M405 100 L405 41 L324 -19 L166 100 L405 100 Z M150 88 L263 2 L150 -87 L150 88 Z M500 -6 L500 -87 L396 -6 L500 -6 Z M369 -10 L484 -100 L166 -100 L280 -10 L324 -44 L369 -10 Z " />
<glyph glyph-name="s" unicode="s" horiz-adv-x="1000" d="M900 750 L100 750 C45 750 0 705 0 650 L0 -150 C0 -205 45 -250 100 -250 L900 -250 C955 -250 1000 -205 1000 -150 L1000 650 C1000 705 955 750 900 750 L900 750 Z M524 606 C553 606 605 583 619 554 L680 546 L678 526 L571 539 L569 519 L611 514 L599 470 C591 486 578 498 565 500 L562 480 C574 478 585 465 584 444 L579 241 C578 217 562 200 541 200 C528 200 511 208 496 228 L430 316 L420 295 L445 236 L446 200 L499 196 C513 185 528 179 541 179 C552 179 562 183 571 188 C614 178 645 147 642 104 L629 -71 C628 -85 618 -94 604 -94 L567 -94 L567 86 L405 86 C336 86 304 137 304 200 C304 260 327 331 369 383 C390 409 412 419 432 419 C449 419 465 412 478 400 L525 358 L525 433 L451 445 L465 561 C469 588 497 606 524 606 L524 606 Z M640 169 C661 156 678 135 680 110 L695 -44 C696 -59 689 -72 670 -72 L649 -72 L662 103 C664 128 655 150 640 169 L640 169 Z M528 28 L474 28 L474 -95 L404 -95 L404 28 L349 28 L349 48 L528 48 L528 28 Z M454 28 L454 -75 L424 -75 L424 28 L454 28 Z " />
<glyph glyph-name="t" unicode="t" horiz-adv-x="1000" d="M900 750 L100 750 C45 750 0 705 0 650 L0 -150 C0 -205 45 -250 100 -250 L900 -250 C955 -250 1000 -205 1000 -150 L1000 650 C1000 705 955 750 900 750 L900 750 Z M850 14 L425 14 L425 600 L850 600 L850 14 Z M601 530 L508 530 L508 507 L601 507 L601 530 Z M768 450 L508 450 L508 428 L768 428 L768 450 Z M634 336 C569 336 516 283 516 218 C516 153 569 100 634 100 C699 100 752 153 752 218 C752 283 699 336 634 336 L634 336 Z M634 122 C581 122 538 165 538 218 C538 271 581 314 634 314 C687 314 730 271 730 218 C730 165 687 122 634 122 L634 122 Z M671 273 L634 236 L596 273 L579 255 L616 218 L579 181 L596 163 L634 200 L671 163 L689 181 L652 218 L689 255 L671 273 Z M405 100 L405 41 L324 -19 L166 100 L405 100 Z M150 88 L263 2 L150 -87 L150 88 Z M500 -87 L396 -6 L500 -6 L500 -87 Z M280 -10 L324 -44 L369 -10 L484 -100 L166 -100 L280 -10 Z " />
<glyph glyph-name="u" unicode="u" horiz-adv-x="1000" d="M900 750 L100 750 C45 750 0 705 0 650 L0 -150 C0 -205 45 -250 100 -250 L900 -250 C955 -250 1000 -205 1000 -150 L1000 650 C1000 705 955 750 900 750 L900 750 Z M845 182 L535 182 L535 202 L825 202 L825 369 C825 489 728 587 607 587 C544 587 488 561 448 518 L434 533 C479 578 539 607 607 607 C736 607 845 497 845 369 L845 182 Z M317 519 C329 533 344 539 363 539 C392 539 431 523 439 490 C435 471 425 441 412 420 C403 432 388 443 371 446 L308 457 C308 474 312 505 317 519 L317 519 Z M637 479 C647 496 662 503 686 503 C709 503 725 496 734 479 C734 457 729 415 725 406 C721 398 698 391 686 388 C674 391 651 398 647 406 C643 415 637 456 637 479 L637 479 Z M355 331 L336 281 C329 264 327 246 327 226 L323 62 L304 -96 L252 -96 L256 61 L237 166 L237 210 L217 210 L217 164 L236 59 L232 -96 L196 -96 L157 210 C144 315 195 429 260 446 L367 426 C397 420 410 388 414 367 L433 259 L475 250 C499 245 515 234 515 201 L386 201 L355 275 L373 325 L355 331 Z M677 289 L677 359 L697 359 L697 289 L768 373 L805 363 L805 222 L706 222 L706 231 C706 250 695 266 673 269 L629 276 L613 332 L593 326 L613 258 L669 249 C683 247 686 243 686 231 L686 222 L570 222 L548 341 C543 366 559 381 578 381 L608 381 L677 289 Z M469 318 L489 320 L495 261 L475 264 L469 318 Z " />
<glyph glyph-name="v" unicode="v" horiz-adv-x="1000" d="M900 750 L100 750 C45 750 0 705 0 650 L0 -150 C0 -205 45 -250 100 -250 L900 -250 C955 -250 1000 -205 1000 -150 L1000 650 C1000 705 955 750 900 750 L900 750 Z M588 420 C605 425 614 422 624 417 L790 335 L850 335 L850 144 L766 131 C690 119 583 198 545 288 L490 288 C471 265 436 247 414 241 C389 234 368 238 351 265 L458 364 C475 380 485 387 503 393 L588 420 Z M532 268 C570 191 657 122 732 111 L723 91 C717 78 707 72 695 72 C688 72 680 74 672 78 L542 151 L532 133 L664 61 L659 53 C654 45 640 35 627 35 C623 35 619 35 615 37 L532 80 C529 103 512 113 496 113 C489 113 482 111 475 107 C472 130 457 139 440 139 C433 139 426 137 419 134 C419 154 404 167 384 167 C371 167 358 161 348 152 L346 150 C344 164 329 179 311 179 C298 179 284 173 274 163 L239 126 L150 148 L150 327 L196 327 C212 327 224 331 244 342 L353 404 C369 413 388 414 406 411 L471 400 C462 394 454 388 444 379 L326 269 C346 223 386 212 420 222 C441 228 476 245 499 268 L532 268 Z M288 149 C299 160 313 161 321 155 C328 149 328 133 316 121 L294 99 C284 89 267 87 260 94 C254 100 256 117 266 127 L288 149 Z M362 138 C373 149 389 150 395 143 C401 137 401 120 390 110 L348 69 C337 59 323 57 316 64 C309 71 312 88 321 97 L362 138 Z M418 110 C430 122 445 122 452 115 C458 109 458 94 446 82 L405 41 C395 31 379 29 372 36 C365 43 368 60 377 69 L418 110 Z M475 83 C486 93 501 94 508 88 C515 82 513 67 502 55 L470 23 C459 12 443 12 437 18 C431 25 432 39 443 51 L475 83 Z M516 41 C521 46 525 53 528 59 L589 28 L586 24 C579 14 567 9 554 9 C547 9 540 11 533 14 L503 28 L516 41 Z " />
<glyph glyph-name="w" unicode="w" horiz-adv-x="1000" d="M900 750 L100 750 C45 750 0 705 0 650 L0 -150 C0 -205 45 -250 100 -250 L900 -250 C955 -250 1000 -205 1000 -150 L1000 650 C1000 705 955 750 900 750 L900 750 Z M850 600 L850 14 L425 14 L425 600 L850 600 Z M601 530 L508 530 L508 507 L601 507 L601 530 Z M768 450 L508 450 L508 428 L768 428 L768 450 Z M601 380 L508 380 L508 357 L601 357 L601 380 Z M715 340 C673 340 639 306 639 265 C639 223 673 189 715 189 C756 189 790 223 790 265 C790 306 756 340 715 340 L715 340 Z M715 320 C746 320 770 296 770 265 C770 233 746 209 715 209 C683 209 659 233 659 265 C659 296 683 320 715 320 L715 320 Z M666 184 L653 46 L714 69 L776 46 L762 183 C747 174 731 169 715 169 C697 169 680 175 666 184 L666 184 Z M405 41 L324 -19 L166 100 L405 100 L405 41 Z M150 88 L263 2 L150 -87 L150 88 Z M500 -87 L396 -6 L500 -6 L500 -87 Z M369 -10 L484 -100 L166 -100 L280 -10 L324 -44 L369 -10 Z " />
<glyph glyph-name="x" unicode="x" horiz-adv-x="1000" d="M900 750 L100 750 C45 750 0 705 0 650 L0 -150 C0 -205 45 -250 100 -250 L900 -250 C955 -250 1000 -205 1000 -150 L1000 650 C1000 705 955 750 900 750 L900 750 Z M289 192 L289 615 L753 615 L753 185 L744 185 L612 251 C605 254 597 257 586 257 C580 257 574 257 566 254 L505 235 L427 249 C409 252 386 249 370 240 L289 192 Z M665 539 L377 539 L377 514 L665 514 L665 539 Z M665 450 L377 450 L377 425 L665 425 L665 450 Z M625 383 C596 383 573 359 573 331 C573 302 596 279 625 279 C654 279 677 302 677 331 C677 359 654 383 625 383 L625 383 Z M506 363 L377 363 L377 338 L506 338 L506 363 Z M625 362 C642 362 656 348 656 331 C656 313 642 299 625 299 C608 299 594 313 594 331 C594 348 608 362 625 362 L625 362 Z M572 235 C578 237 583 238 587 238 C593 238 598 235 603 233 L739 165 L789 165 L789 8 L719 -3 C657 -13 569 53 537 126 L492 126 L430 89 C412 78 391 85 378 108 L466 189 C480 202 489 208 503 213 L572 235 Z M524 106 C557 44 628 -13 690 -23 L684 -36 C679 -46 671 -52 660 -52 C655 -52 649 -51 643 -47 L535 14 L527 -4 L634 -62 L632 -67 C630 -73 617 -82 606 -82 C602 -82 598 -81 595 -80 L530 -46 C529 -28 518 -15 499 -15 C494 -15 488 -16 483 -18 C480 -2 468 6 451 6 C446 6 441 5 436 4 C436 17 423 31 405 31 C394 31 382 26 374 18 C371 33 360 41 344 41 C331 41 322 39 314 30 L282 -5 L211 11 L211 158 L251 158 C264 158 273 162 290 171 L379 222 C392 229 409 231 423 228 L471 219 C465 215 459 210 452 204 L354 113 C368 70 411 55 437 70 L500 106 L524 106 Z M326 12 C336 22 349 21 353 17 C359 11 358 -3 350 -11 L331 -29 C321 -38 309 -39 303 -33 C298 -28 299 -16 308 -6 L326 12 Z M387 3 C395 11 409 12 414 7 C419 2 418 -12 410 -20 L375 -54 C368 -61 355 -63 350 -58 C343 -51 344 -40 353 -31 L387 3 Z M433 -20 C442 -11 455 -10 461 -16 C466 -21 465 -34 456 -43 L422 -77 C413 -86 400 -86 395 -81 C390 -76 391 -62 399 -54 L433 -20 Z M480 -43 C489 -34 501 -32 507 -38 C512 -43 510 -57 502 -65 L476 -92 C468 -101 454 -101 449 -96 C443 -90 444 -76 453 -68 L480 -43 Z M506 -89 L519 -76 C522 -73 525 -68 527 -64 L573 -89 L571 -92 C566 -99 557 -103 547 -103 C541 -103 534 -102 528 -99 L506 -89 Z " />
<glyph glyph-name="y" unicode="y" horiz-adv-x="1000" d="M900 750 L100 750 C45 750 0 705 0 650 L0 -150 C0 -205 45 -250 100 -250 L900 -250 C955 -250 1000 -205 1000 -150 L1000 650 C1000 705 955 750 900 750 L900 750 Z M850 600 L850 14 L425 14 L425 600 L850 600 Z M601 530 L508 530 L508 507 L601 507 L601 530 Z M768 450 L508 450 L508 428 L768 428 L768 450 Z M638 347 C573 347 520 294 520 229 C520 164 573 111 638 111 C703 111 756 164 756 229 C756 294 703 347 638 347 L638 347 Z M638 325 C691 325 734 282 734 229 C734 176 691 133 638 133 C585 133 542 176 542 229 C542 282 585 325 638 325 L638 325 Z M691 270 L709 252 L634 177 C624 167 611 165 599 177 L564 212 L581 230 L616 195 L691 270 Z M405 41 L324 -19 L166 100 L405 100 L405 41 Z M150 88 L263 2 L150 -87 L150 88 Z M500 -87 L396 -6 L500 -6 L500 -87 Z M369 -10 L484 -100 L166 -100 L280 -10 L324 -44 L369 -10 Z " />
<glyph glyph-name="z" unicode="z" horiz-adv-x="1000" d="M1000 -150 C1000 -205 955 -250 900 -250 L100 -250 C45 -250 0 -205 0 -150 L0 650 C0 705 45 750 100 750 L900 750 C955 750 1000 705 1000 650 L1000 -150 Z M500 356 C514 358 543 366 546 374 C550 384 556 428 556 451 C546 469 527 477 500 477 C472 477 453 469 443 451 C443 428 449 384 454 374 C458 366 485 358 500 356 L500 356 Z M194 448 C172 448 150 430 150 408 L150 323 L216 323 C231 323 253 335 256 360 L262 419 C251 439 217 448 194 448 L194 448 Z M828 327 L794 396 C788 409 780 418 765 418 C726 418 710 415 696 389 L696 330 C696 308 708 285 734 285 L798 285 C828 285 837 309 828 327 L828 327 Z M375 206 L623 206 L601 319 C583 323 544 328 499 328 C464 328 421 325 401 319 L375 206 Z M363 59 L274 139 L274 210 C274 256 254 293 210 293 L150 293 L150 45 C150 15 179 0 199 0 L275 0 L195 65 L195 205 L219 202 L219 96 L353 0 L367 19 C379 35 379 45 363 59 L363 59 Z M810 255 L765 255 C747 255 735 248 728 234 L697 174 L692 86 L653 55 C641 45 639 33 649 20 L664 0 L758 64 L768 162 L788 162 L778 0 L850 0 L850 204 C850 228 836 255 810 255 L810 255 Z M677 186 L295 186 L295 166 L677 166 L677 186 Z M641 69 L399 69 L400 49 L641 49 L641 69 Z " />
<glyph glyph-name="braceleft" unicode="&#x7b;" horiz-adv-x="1000" d="M900 750 L100 750 C45 750 0 705 0 650 L0 -150 C0 -205 45 -250 100 -250 L900 -250 C955 -250 1000 -205 1000 -150 L1000 650 C1000 705 955 750 900 750 L900 750 Z M318 524 C348 524 369 514 395 491 C388 486 381 474 381 467 L262 480 C269 507 294 524 318 524 L318 524 Z M420 440 C409 440 400 449 400 460 C400 471 409 480 420 480 C431 480 440 471 440 460 C440 449 431 440 420 440 L420 440 Z M257 460 L383 446 C386 436 393 429 403 424 L389 382 C378 350 343 338 323 343 L240 363 L257 460 Z M471 227 L545 227 L545 143 L408 158 L277 197 L272 179 L353 111 L361 -40 L153 -40 L179 233 C186 302 229 336 265 327 L322 313 L471 227 Z M655 297 L675 297 L675 247 L655 247 L655 297 Z M675 227 L675 194 C675 180 664 166 647 166 L565 166 L565 227 L675 227 Z M627 -31 C590 -31 560 -1 560 36 C560 72 590 103 627 103 C663 103 693 72 693 36 C693 -1 663 -31 627 -31 L627 -31 Z M582 -38 L438 -38 C421 -38 408 -24 408 -8 C408 7 414 15 431 22 L507 55 L543 57 C541 50 540 43 540 36 C540 5 557 -23 582 -38 L582 -38 Z M736 55 L822 22 C837 16 845 7 845 -8 C845 -24 832 -38 815 -38 L671 -38 C696 -23 713 5 713 36 C713 43 712 50 710 57 L736 55 Z M850 -100 L378 -100 L378 -80 L850 -80 L850 -100 Z " />
<glyph glyph-name="braceright" unicode="&#x7d;" horiz-adv-x="1000" d="M900 750 L100 750 C45 750 0 705 0 650 L0 -150 C0 -205 45 -250 100 -250 L900 -250 C955 -250 1000 -205 1000 -150 L1000 650 C1000 705 955 750 900 750 L900 750 Z M332 554 C338 581 364 597 390 597 C419 597 476 570 486 537 L480 517 L514 504 L506 486 L407 524 L400 505 L468 479 L460 456 C449 424 414 411 394 416 L306 439 L332 554 Z M201 240 L208 318 C212 364 258 396 293 388 L356 374 C411 362 433 314 433 277 L433 218 C429 219 424 219 420 219 L375 219 L295 248 L298 315 L278 315 L275 234 L371 199 L423 199 C429 199 433 196 433 189 L433 152 C433 146 430 142 423 142 L366 142 L242 177 C212 185 197 200 201 240 L201 240 Z M626 209 C626 191 545 150 511 150 C495 150 493 158 490 175 L453 168 L453 188 L486 194 C483 216 484 219 497 225 C509 230 525 232 541 232 C564 232 626 227 626 209 L626 209 Z M239 157 L364 122 L420 122 C424 122 427 122 431 123 L427 100 L231 100 L239 157 Z M750 100 L618 100 L618 120 L750 120 L750 100 Z M850 100 L787 100 L787 120 L850 120 L850 100 Z M188 70 L320 70 L320 50 L188 50 L188 70 Z M355 70 L486 70 L486 50 L355 50 L355 70 Z M521 50 L521 70 L653 70 L653 50 L521 50 Z M688 50 L688 70 L819 70 L819 50 L688 50 Z M150 20 L231 20 L231 0 L150 0 L150 20 Z M266 0 L266 20 L398 20 L398 0 L266 0 Z M433 0 L433 20 L565 20 L565 0 L433 0 Z M732 0 L600 0 L600 20 L732 20 L732 0 Z M850 0 L767 0 L767 20 L850 20 L850 0 Z M320 -30 L320 -50 L188 -50 L188 -30 L320 -30 Z M355 -30 L486 -30 L486 -50 L355 -50 L355 -30 Z M521 -30 L653 -30 L653 -50 L521 -50 L521 -30 Z M819 -30 L819 -50 L688 -50 L688 -30 L819 -30 Z M231 -100 L150 -100 L150 -80 L231 -80 L231 -100 Z M398 -100 L266 -100 L266 -80 L398 -80 L398 -100 Z M565 -100 L433 -100 L433 -80 L565 -80 L565 -100 Z M732 -100 L600 -100 L600 -80 L732 -80 L732 -100 Z M850 -100 L767 -100 L767 -80 L850 -80 L850 -100 Z " />
</font>
</svg>
