<?xml version="1.0" encoding="UTF-8"?>
<svg xmlns="http://www.w3.org/2000/svg" xmlns:xlink="http://www.w3.org/1999/xlink" version="1.2" >
<font id="Informative Medium">
<font-face  font-family="Informative" units-per-em="1000" ascent="770" descent="-230" font-style="normal" font-weight="500" font-stretch="normal" cap-height="642" x-height="470" underline-position="-75" underline-thickness="50" />
<missing-glyph  horiz-adv-x="710" d="M510 750 L200 750 C145 750 100 705 100 650 L100 -150 C100 -205 145 -250 200 -250 L510 -250 C565 -250 610 -205 610 -150 L610 650 C610 705 565 750 510 750 L510 750 Z M513 485 L454 530 L442 514 L471 492 L450 470 C445.6 465.4 440 462 433 462 C427.9 462 422.1 463.2 417 467 L350 517 L393 577 C404.7 593.3 418 600 438 600 C465 600 503 572 502 537 L495 525 L526 502 L513 485 Z M391 -94 L350 -94 L307 131 C264 185 237.7 230 242 286 L250 389 C253.7 436 286 476 326 476 C358 476 399 450 401 408 C403 367 393 293 387 247 L368 231 L337 309 C332.2 321.1 331.9 332 334 345 L343 402 L323 406 L314 349 C311.3 331.9 313.7 314.9 319 301 L351 217 L332 201 L285 272 L267 262 L329 171 L389 222 L410 -69 C410.9 -81 402 -94 391 -94 L391 -94 Z M311 -65 C305.8 -91 294 -94 277 -94 L248 -94 L268 56 L259 160 L288 123 L317 -35 L311 -65 Z " />
<glyph glyph-name="NULL" d="" />
<glyph glyph-name="CR" unicode="&#xd;" horiz-adv-x="250" d="" />
<glyph glyph-name="space" unicode="&#x20;" horiz-adv-x="252" d="" />
<glyph glyph-name="exclam" unicode="&#x21;" horiz-adv-x="261" d="M87 642 L99 173 L163 173 L175 642 L87 642 Z M130.7 -11 C164.9 -11 192.3 18 192.3 53 C192.3 87 164.9 116 130.7 116 C96.5 116 69 87 69 53 C69 18 96.5 -11 130.7 -11 L130.7 -11 Z " />
<glyph glyph-name="quotedbl" unicode="&#x22;" horiz-adv-x="313" d="M80 463 L117 463 L140 649 L57 649 L80 463 Z M196 463 L233 463 L256 649 L173 649 L196 463 Z " />
<glyph glyph-name="numbersign" unicode="&#x23;" horiz-adv-x="669" d="M606 364 L628 432 L543.46 432 L604 615 L528 615 L467.46 432 L303.46 432 L364 615 L288 615 L227.46 432 L131 432 L109 364 L204.96 364 L152.03 204 L62 204 L40 136 L129.54 136 L69 -47 L145 -47 L205.54 136 L369.54 136 L309 -47 L385 -47 L445.54 136 L537 136 L559 204 L468.03 204 L520.96 364 L606 364 Z M392.03 204 L228.03 204 L280.96 364 L444.96 364 L392.03 204 Z " />
<glyph glyph-name="dollar" unicode="&#x24;" horiz-adv-x="512" d="M463.7 176 C463.7 293.9 387.8 333.1 309.3 360.2 C303.87 362.08 298.43 363.91 293 365.7 L293 576.69 C342.49 570.16 378.4 550.39 410.6 526 L452.9 591 C416.9 619.69 368.51 646.11 293 652.52 L293 732 L230 732 L230 652.69 C125.35 642.41 58.7 572.5 58.7 483 C58.7 356.7 146.03 323.98 230 297.9 L230 64.53 C169.89 68.63 123.04 96.07 89.6 132 L41 71 C72.95 35.81 131.94 -6.60001 230 -10.68 L230 -89 L293 -89 L293 -7.81001 C398.38 6.99998 463.7 72.74 463.7 176 L463.7 176 Z M138.9 488 C138.9 531.42 172.89 568.31 230 577.04 L230 386.95 C178.47 406.41 138.9 431.69 138.9 488 L138.9 488 Z M293 68.66 L293 277.5 C343.79 258.59 382.6 232.7 382.6 174 C382.6 121.92 353.82 81.86 293 68.66 L293 68.66 Z " />
<glyph glyph-name="percent" unicode="&#x25;" horiz-adv-x="745" d="M185 342 C276 342 328 405 328 492 C328 579 276 642 185 642 C93 642 41 579 41 492 C41 405 93 342 185 342 L185 342 Z M128.4 0 L204.4 0 L633.1 642 L557.1 642 L128.4 0 Z M185 401 C131 401 107 439 107 492 C107 544 131 583 185 583 C238 583 262 544 262 492 C262 439 238 401 185 401 L185 401 Z M561 -14 C652 -14 704 49 704 136 C704 223 652 286 561 286 C469 286 417 223 417 136 C417 49 469 -14 561 -14 L561 -14 Z M561 45 C507 45 483 83 483 136 C483 188 507 227 561 227 C615 227 638 188 638 136 C638 83 615 45 561 45 L561 45 Z " />
<glyph glyph-name="ampersand" unicode="&#x26;" horiz-adv-x="627" d="M613.6 0 L498.55 124.8 C519.95 170.59 530.5 225.59 530.5 286.09 L530.5 306.09 L448.5 306.09 L448.5 286.09 C448.5 250.02 445.57 217.61 439 189.38 L294.52 346.11 C364.51 384.81 430.9 428 430.9 513.59 C430.9 587.79 370.2 653.99 262 653.99 C156.9 653.99 99 584.89 99 513.49 C99 466.46 117.62 431.79 182.09 359.44 C116.13 320.84 56 272.16 56 180.99 C56 65.19 146.7 -11.01 273 -11.01 C354.31 -11.01 415.88 16.71 458.39 63.64 L518 -0.010025 L613.6 0 Z M179 513.49 C179 551.29 202.8 590.99 262 590.99 C323.2 590.99 350.9 552.29 350.9 513.59 C350.9 459.23 304.6 427.42 248.7 396.28 C187.99 463.75 179 477.38 179 513.49 L179 513.49 Z M276 61.99 C190.3 61.99 134 114.99 134 180.99 C134 241.25 176 277.63 228.42 309.2 L407.66 117.8 C380.49 81.72 338.15 61.99 275.99 61.99 L276 61.99 Z " />
<glyph glyph-name="quotesingle" unicode="&#x27;" horiz-adv-x="197" d="M80 463 L117 463 L140 649 L57 649 L80 463 Z " />
<glyph glyph-name="parenleft" unicode="&#x28;" horiz-adv-x="293" d="M57 249 C57 88 93 -40 171 -177 L250.7 -142.6 C175.1 -16.4 143 98.5 143 249 C143 399.5 175.1 514.4 250.7 640.6 L171 675 C93 538 57 410 57 249 L57 249 Z " />
<glyph glyph-name="parenright" unicode="&#x29;" horiz-adv-x="294" d="M235.7 249 C235.7 410 199.7 538 121.7 675 L42 640.6 C117.6 514.4 149.7 399.5 149.7 249 C149.7 98.5 117.6 -16.4 42 -142.6 L121.7 -177 C199.7 -40 235.7 88 235.7 249 L235.7 249 Z " />
<glyph glyph-name="asterisk" unicode="&#x2a;" horiz-adv-x="370" d="M313 558.4 L291.9 616.7 L202.1 569 L216 671.2 L154 671.2 L167.9 569 L78.1 616.7 L57 558.4 L158.5 536.5 L88.8 459.4 L140 424.4 L185.1 513.6 L230 424.4 L281.2 459.4 L211.5 536.5 L313 558.4 Z " />
<glyph glyph-name="plus" unicode="&#x2b;" horiz-adv-x="521" d="M471 285 L300 285 L300 460 L220 460 L220 285 L50 285 L50 215 L220 215 L220 39 L300 39 L300 215 L471 215 L471 285 Z " />
<glyph glyph-name="comma" unicode="&#x2c;" horiz-adv-x="248" d="M123.1 116 C88.9 116 61.4 87 61.4 52 C61.4 19.6 83.8 -8.2 117.8 -10.8 C116 -51.6 98 -84.6 78.5 -113.4 L112.6 -137.8 C150.2 -88.7 184.7 -29.7 184.7 47.4 C184.7 89 157.3 116 123.1 116 L123.1 116 Z " />
<glyph glyph-name="hyphen" unicode="&#x2d;" horiz-adv-x="402" d="M73 215 L329 215 L329 282 L73 282 L73 215 Z " />
<glyph glyph-name="period" unicode="&#x2e;" horiz-adv-x="242" d="M182.3 52 C182.3 87 154.9 116 120.7 116 C86.5 116 59 87 59 52 C59 18 86.5 -11 120.7 -11 C154.9 -11 182.3 18 182.3 52 L182.3 52 Z " />
<glyph glyph-name="slash" unicode="&#x2f;" horiz-adv-x="550" d="M33 -185 L109 -185 L514.6 661 L438.6 661 L33 -185 Z " />
<glyph glyph-name="zero" unicode="0" horiz-adv-x="605" d="M542.7 323 C542.7 520.5 463.5 654 302.3 654 C144 654 62 520.5 62 323 C62 125.9 141.1 -11 302.3 -11 C460.6 -11 542.7 125.9 542.7 323 L542.7 323 Z M456.2 323 C456.2 171.8 416.7 64 302.3 64 C187.9 64 148.5 171.8 148.5 323 C148.5 472.5 187.9 579 302.3 579 C416.7 579 456.2 472.5 456.2 323 L456.2 323 Z " />
<glyph glyph-name="one" unicode="1" horiz-adv-x="338" d="M185.1 642 L25 545.3 L58.2 476.3 L164.6 537.53 L164.6 0 L241.6 0 L241.6 642 L185.1 642 Z " />
<glyph glyph-name="two" unicode="2" horiz-adv-x="517" d="M181.1 77 L165.82 75.29 L179.5 86.2 C329.9 223.3 448.7 325.5 448.7 455 C448.7 584.8 358.1 654 244.3 654 C159.6 654 85.3 605 49 557 L95.8 507 C121.5 534.2 163.4 577 241.4 577 C324.3 577 366 522 366 453 C366 366.2 292.9 287.5 56.3 73.4 L56.3 0 L461.4 0 L461.4 77 L181.1 77 Z " />
<glyph glyph-name="three" unicode="3" horiz-adv-x="523" d="M360.59 350.66 C397.35 378.49 429.2 425.23 429.2 492 C429.2 599.9 341.7 654 237.1 654 C156 654 94.1 620.9 55.7 571.8 L105.9 523.8 C129.3 548.4 171 578.2 233.2 578.2 C308 578.2 347.4 540.2 347.4 478.3 C347.4 427.3 316.4 376 241.9 376 L181.8 376.1 L181.8 308.8 L241.9 308.8 C331.6 308.8 383.6 265.5 383.6 187.9 C383.6 102.2 321.1 62 237.1 62 C174.2 62 135.7 81 88.8 114.9 L44 55.2 C77.1 25.3 135.7 -11 237.1 -11 C368.3 -11 465.4 66.4 465.4 184 C465.4 280.79 412.81 328.62 360.59 350.66 L360.59 350.66 Z " />
<glyph glyph-name="four" unicode="4" horiz-adv-x="543" d="M490.1 236 L426.1 236 L426.1 642 L349.1 642 L35 233.5 L35 162 L349.1 162 L349.1 0 L426.1 0 L426.1 162 L490.1 162 L490.1 236 Z M124.8 236 L349.1 523.15 L349.1 236 L124.8 236 Z " />
<glyph glyph-name="five" unicode="5" horiz-adv-x="521" d="M247.4 -11 C385.9 -11 468.2 70.7 468.2 199.2 C468.2 329 385.9 407 244 407 C207.9 407 173.7 396.9 156.6 389 L156.6 562 L433.6 562 L433.6 642 L80.6 642 L80.6 307 L127.1 297.9 C127.1 297.9 174.1 328 237.4 328 C341 328 389.4 275.9 389.4 196.2 C389.4 111.8 341 60 247.4 60 C170 60 126.9 99.1 98.7 122.5 L55 61.5 C99.8 26.7 150.9 -11 247.4 -11 L247.4 -11 Z " />
<glyph glyph-name="six" unicode="6" horiz-adv-x="533" d="M289.9 395 C234.81 395 187.34 377.78 151.95 350.19 C194.05 493.6 317.06 554.18 434 583.5 L408.5 655.9 C234.7 617.4 58 491.8 58 237 C58 77.5 145.9 -11 271 -11 C395.9 -11 484.4 73.3 484.4 197.8 C484.4 323.2 402.4 395 289.9 395 L289.9 395 Z M277.4 60.3 C199.6 60.3 136.8 121.3 136.8 236.7 C136.8 245.99 137.05 255.04 137.56 263.86 C167.68 292.4 211.27 315.9 280.7 315.9 C339.8 315.9 407.4 279.7 407.4 196.8 C407.4 105.5 353.8 60.3 277.4 60.3 L277.4 60.3 Z " />
<glyph glyph-name="seven" unicode="7" horiz-adv-x="475" d="M434 642 L33 642 L33 562 L345.4 562 C194.49 400.39 135.8 220.7 135.8 0 L219.2 0 C219.2 285.1 306.4 419.3 449 562 L434 642 Z " />
<glyph glyph-name="eight" unicode="8" horiz-adv-x="553" d="M397.54 336.99 C438.27 366.11 471.3 414.83 471.3 483.1 C471.3 591.8 389.3 654.2 276.2 654.2 C157.9 654.2 80.4 587.7 80.4 483.1 C80.4 414.82 113.44 366.09 154.2 336.98 C95.33 306.22 60 250.68 60 177.2 C60 63.2 146.9 -11 276.2 -11 C405.1 -11 491.8 63.7 491.8 177.2 C491.8 250.55 456.41 306.22 397.54 336.99 L397.54 336.99 Z M276.2 581.8 C339.6 581.8 395.3 548.9 395.3 475.8 C395.3 415 350.6 364.1 280.9 363.4 L270.9 363.4 C201.2 364.1 156.5 415 156.5 475.8 C156.5 544 206.3 581.8 276.2 581.8 L276.2 581.8 Z M276.2 61.2 C193.1 61.2 137 105.1 137 173.3 C137 248.2 193.2 291.9 276.2 291.9 C359.6 291.9 414.7 247.3 414.7 173.3 C414.7 105.8 359.4 61.2 276.2 61.2 L276.2 61.2 Z " />
<glyph glyph-name="nine" unicode="9" horiz-adv-x="534" d="M256.4 654 C135.4 653.9 44 572.4 44 448.6 C44 328 120.1 245.5 234.5 245.5 C295.17 245.5 358.87 264.42 391.91 309.94 C367.83 156.05 252.43 90.32 127.7 59.3 L159.2 -10.6 C327.4 28.8 475.2 151.9 475.2 375 C475.2 534.9 405.4 654 256.4 654 L256.4 654 Z M243.4 325.5 C171 325.5 121 372.7 121 447.5 C121 525.7 171.9 581.9 251.4 581.9 C340.35 581.9 386.22 514.05 394.95 410.22 C370.3 351.48 304.92 325.5 243.4 325.5 L243.4 325.5 Z " />
<glyph glyph-name="colon" unicode="&#x3a;" horiz-adv-x="269" d="M196.3 382 C196.3 417 168.9 446 134.7 446 C100.5 446 73 417 73 382 C73 348 100.5 319 134.7 319 C168.9 319 196.3 348 196.3 382 L196.3 382 Z M196.3 52 C196.3 87 168.9 116 134.7 116 C100.5 116 73 87 73 52 C73 18 100.5 -11 134.7 -11 C168.9 -11 196.3 18 196.3 52 L196.3 52 Z " />
<glyph glyph-name="semicolon" unicode="&#x3b;" horiz-adv-x="270" d="M196.3 382 C196.3 417 168.9 446 134.7 446 C100.5 446 73 417 73 382 C73 348 100.5 319 134.7 319 C168.9 319 196.3 348 196.3 382 L196.3 382 Z M135.1 116 C100.9 116 73.4 87 73.4 52 C73.4 19.6 95.8 -8.2 129.8 -10.8 C128 -51.6 110 -84.6 90.5 -113.4 L124.6 -137.8 C162.2 -88.7 196.7 -29.7 196.7 47.4 C196.7 89 169.3 116 135.1 116 L135.1 116 Z " />
<glyph glyph-name="less" unicode="&#x3c;" horiz-adv-x="564" d="M47 195.2 L497.7 15.5 L497.7 91.1 L128.5 236.1 L497.7 381.1 L497.7 456.7 L47 277 L47 195.2 Z " />
<glyph glyph-name="equal" unicode="&#x3d;" horiz-adv-x="573" d="M76 296 L497 296 L497 366 L76 366 L76 296 Z M76 97 L497 97 L497 167 L76 167 L76 97 Z " />
<glyph glyph-name="greater" unicode="&#x3e;" horiz-adv-x="564" d="M516.7 195.2 L516.7 277 L66 456.7 L66 381.1 L435.2 236.1 L66 91.1 L66 15.5 L516.7 195.2 Z " />
<glyph glyph-name="question" unicode="&#x3f;" horiz-adv-x="475" d="M429.3 461.6 C429.3 580.5 334 653.5 226.1 654 C140.7 654.4 77 617.7 37 566.9 L86.4 515 C109.2 542.1 147.4 579 219.5 579 C299.2 579 349.3 526 349.3 461.4 C349.3 384.9 303 325.6 180.6 323.8 L167.3 323.6 L167.3 173 L247.3 173 L247.3 258.1 C387.4 279.9 429.3 381.7 429.3 461.6 L429.3 461.6 Z M142.3 53 C142.3 18 169.7 -11 203.9 -11 C238.1 -11 265.6 18 265.6 53 C265.6 87 238.1 116 203.9 116 C169.7 116 142.3 87 142.3 53 L142.3 53 Z " />
<glyph glyph-name="at" unicode="&#x40;" horiz-adv-x="854" d="M427 639 C209.8 639 56 481 56 260 C56 54.6 194.2 -109 426 -109 C486 -109 543 -94 588 -70 L561 -3 C520 -24 474 -36 426 -36 C238.1 -36 134 96.5 134 260 C134 439.4 252.7 566 427 566 C586.1 566 717 467.5 717 300 C717 181.7 672 143 636 143 C593.8 143 577.5 164.8 577.5 205.7 L577.5 322 C577.5 430.6 508.4 467.5 419.2 467.5 C356.8 467.5 310.7 446 285 431.2 L306.9 376 C336.2 392.2 372.5 403.8 411.6 403.8 C473.1 403.8 507.5 381.5 507.5 329.2 L507.5 303 L423.5 303 C323 303 265 264.3 265 192 C265 120.7 318.4 80.2 386.7 80.2 C448.68 80.2 489.53 112.09 514.35 149.96 C529.26 106.5 567.9 78 624 78 C713.7 78 793 144.8 793 300 C793 507.1 630 639 427 639 L427 639 Z M402.9 138.2 C361.8 138.2 336.4 159 336.4 194.9 C336.4 230.9 360.6 255 427.5 255 L507.25 255 L507.39 225.4 C505.12 184.21 466.24 138.21 402.9 138.21 L402.9 138.2 Z " />
<glyph glyph-name="A" unicode="A" horiz-adv-x="602" d="M486.4 0 L575.4 0 L342.2 642 L257.7 642 L29 0 L115 0 L174.81 179 L424.23 179 L486.4 0 Z M198.2 249 L281.2 497.4 L297.44 548.22 L313.8 497 L399.92 249 L198.2 249 Z " />
<glyph glyph-name="B" unicode="B" horiz-adv-x="584" d="M413.87 337.02 C464.3 362.46 496.9 407.24 496.9 477 C496.9 589 423.4 642 272.2 642 L96 642 L96 0 L332.1 0 C455.4 0 524.3 67.4 524.3 176.8 C524.3 261.52 482.5 312.76 413.87 337.02 L413.87 337.02 Z M277.3 572 C368.4 572 416.8 542 416.8 477 C416.8 408.1 381.4 367 287.5 367 L176.9 367 L176.9 572 L277.3 572 Z M328.5 72 L176.9 72 L176.9 294 L296 294 C388.5 294 443.1 260.9 443.1 176.8 C443.1 113.4 402 72 328.5 72 L328.5 72 Z " />
<glyph glyph-name="C" unicode="C" horiz-adv-x="587" d="M357.9 -11 C459.1 -11 519 23 554.2 55 L513 117 C478.2 86.4 438.7 64 358.3 64 C237.6 64 140.2 162.5 140.2 321 C140.2 481.9 238.4 579 363.9 579 C420.8 579 463.7 562.7 504.3 532 L549.1 595 C507.3 628 447.4 654 363.7 654 C190.7 654 56 514.5 56 321 C56 126.9 177.6 -11 357.9 -11 L357.9 -11 Z " />
<glyph glyph-name="D" unicode="D" horiz-adv-x="664" d="M283.6 642 L96 642 L96 0 L292.7 0 C486 0 606.4 135.3 606.4 325 C606.4 514.6 493.2 642 283.6 642 L283.6 642 Z M295.9 73 L176.9 73 L176.9 567 L284 567 C446.3 567 521.2 467.7 521.2 323 C521.2 176.3 445 73 295.9 73 L295.9 73 Z " />
<glyph glyph-name="E" unicode="E" horiz-adv-x="540" d="M176 74 L176 293 L442.7 293 L442.7 367 L176 367 L176 567 L475.7 567 L475.7 642 L96 642 L96 0 L485.1 0 L485.1 74 L176 74 Z " />
<glyph glyph-name="F" unicode="F" horiz-adv-x="517" d="M472.7 566 L472.7 642 L96 642 L96 0 L176.9 0 L176.9 272 L438.9 272 L438.9 346 L176.9 346 L176.9 566 L472.7 566 Z " />
<glyph glyph-name="G" unicode="G" horiz-adv-x="645" d="M368.9 332 L368.9 255 L495.4 255 L495.4 86.15 C464.26 72.82 423.97 64 370.1 64 C217 64 140.2 167.4 140.2 320 C140.2 484.8 244.9 578 365.7 578 C437.5 578 483.6 559.6 528.5 528 L571.3 596 C531.3 627 463.9 654 365.8 654 C200.5 654 56 528.3 56 320 C56 113.1 193.7 -11 368.3 -11 C453.2 -11 526.8 11 577 39 L577 332 L368.9 332 Z " />
<glyph glyph-name="H" unicode="H" horiz-adv-x="681" d="M502.9 642 L502.9 365 L176.9 365 L176.9 642 L96 642 L96 0 L176.9 0 L176.9 290 L502.9 290 L502.9 0 L583.8 0 L583.8 642 L502.9 642 Z " />
<glyph glyph-name="I" unicode="I" horiz-adv-x="344" d="M287.5 572 L287.5 642 L55 642 L55 572 L130.8 572 L130.8 70 L55 70 L55 0 L287.5 0 L287.5 70 L211.7 70 L211.7 572 L287.5 572 Z " />
<glyph glyph-name="J" unicode="J" horiz-adv-x="426" d="M335.2 642 L138.5 642 L138.5 572 L254.3 572 L254.3 169 C254.3 90 224.8 63 168.9 63 C128.6 63 100.5 86.2 79 110.2 L30 52 C50.1 26.2 101.7 -11 169.3 -11 C265.2 -11 335.2 40 335.2 168 L335.2 642 Z " />
<glyph glyph-name="K" unicode="K" horiz-adv-x="576" d="M472 118 L305.21 362.55 L545.4 642 L442.7 642 L176.9 321.73 L176.9 642 L96 642 L96 0 L176.9 0 L176.9 213.26 L248.27 296.3 L404 67 C434.4 22.3 464.7 -1.52588e-05 546.9 -1.52588e-05 L546.9 70 C510.8 70 497.1 81.1 472 118 L472 118 Z " />
<glyph glyph-name="L" unicode="L" horiz-adv-x="487" d="M176.9 73 L176.9 642 L96 642 L96 0 L453.6 0 L453.6 73 L176.9 73 Z " />
<glyph glyph-name="M" unicode="M" horiz-adv-x="773" d="M597 642 L401.6 175 L391.76 143.22 L380.7 175 L176 642 L96 642 L96 0 L173.6 0 L173.6 389 L170.65 488.42 L182.7 458 L351.8 62 L425.1 62 L591.1 455 L602.8 489.02 L598.5 389 L598.5 0 L677 0 L677 642 L597 642 Z " />
<glyph glyph-name="N" unicode="N" horiz-adv-x="676" d="M501.4 642 L501.4 184 L502.62 139.79 L486.2 169 L170.5 642 L96 642 L96 0 L173.3 0 L173.3 474 L172.73 510.19 L188.5 479 L505 0 L578.7 0 L578.7 642 L501.4 642 Z " />
<glyph glyph-name="O" unicode="O" horiz-adv-x="723" d="M360.8 654 C183.2 654 56 508.6 56 322 C56 131.3 183.2 -11 360.8 -11 C538.3 -11 665.5 136.2 665.5 322 C665.5 513.5 538.3 654 360.8 654 L360.8 654 Z M360.8 579.9 C495 579.9 582.4 474 582.4 322 C582.4 171.8 495 63.2 360.8 63.2 C226.5 63.2 139.1 171.8 139.1 322 C139.1 474 226.5 579.9 360.8 579.9 L360.8 579.9 Z " />
<glyph glyph-name="P" unicode="P" horiz-adv-x="563" d="M276.9 642 L96 642 L96 0 L176.9 0 L176.9 237 L278.2 237 C437.5 237 521.5 318 521.5 441 C521.5 553.8 443.6 642 276.9 642 L276.9 642 Z M277.3 308 L176.9 308 L176.9 569 L276.4 569 C383.3 569 436.5 511.7 436.5 441 C436.5 355 391.5 308 277.3 308 L277.3 308 Z " />
<glyph glyph-name="Q" unicode="Q" horiz-adv-x="722" d="M458.93 5.19 C583.34 48.28 665.5 172.67 665.5 322 C665.5 513.5 538.3 654 360.8 654 C183.2 654 56 508.6 56 322 C56 131.3 183.2 -11 360.8 -11 C366.37 -11 371.89 -10.86 377.36 -10.57 C439.36 -104.4 530.2 -144.5 618 -144.5 L618 -69.4 C564.2 -69.4 505.69 -48.2 458.93 5.18999 L458.93 5.19 Z M139.1 322 C139.1 474 226.5 579.9 360.8 579.9 C495 579.9 582.4 474 582.4 322 C582.4 171.8 495 63.2 360.8 63.2 C226.5 63.2 139.1 171.8 139.1 322 L139.1 322 Z " />
<glyph glyph-name="R" unicode="R" horiz-adv-x="584" d="M462 118 L371.07 269.04 C450.67 292.25 511.6 350.12 511.6 452 C511.6 570.8 438.2 642 281.6 642 L96 642 L96 0 L176.9 0 L176.9 257 L279.3 257 L395 67 C422 21.8 452.3 0 529.9 0 L529.9 70 C497.7 70 483.6 81.6 462 118 L462 118 Z M176.9 570 L281.4 570 C382.9 570 429.6 529 429.6 450 C429.6 375 388.5 330 282.3 330 L176.9 330 L176.9 570 Z " />
<glyph glyph-name="S" unicode="S" horiz-adv-x="522" d="M250.5 -11 C383.4 -11 468.7 58 468.7 176 C468.7 293.9 393 333 314 360 C230.1 388.7 143.9 404.7 143.9 488 C143.9 537.8 188.6 579 261.6 579 C330.8 579 376 556 415.6 526 L457.9 591 C416.5 624 358.7 654 262.1 654 C142 654 63.7 580 63.7 483 C63.7 338.2 179 316 271 287 C334.2 267 387.6 242.6 387.6 174 C387.6 109.9 344 64 250.7 64 C183 64 130.9 93 94.6 132 L46 71 C79.6 34 143.1 -11 250.5 -11 L250.5 -11 Z " />
<glyph glyph-name="T" unicode="T" horiz-adv-x="530" d="M497.9 642 L31 642 L31 568 L224.5 568 L224.5 0 L305.4 0 L305.4 568 L497.9 568 L497.9 642 Z " />
<glyph glyph-name="U" unicode="U" horiz-adv-x="665" d="M333.4 -11 C478.4 -11 576 82 576 256 L576 642 L496.1 642 L496.1 256 C496.1 145 442.6 67 333.5 67 C226.2 67 171.7 145 171.7 256 L171.7 642 L89 642 L89 256 C89 82 189.9 -11 333.4 -11 L333.4 -11 Z " />
<glyph glyph-name="V" unicode="V" horiz-adv-x="599" d="M484.6 642 L312.3 126.8 L303.54 99.4 L294.5 126.8 L116.3 642 L27 642 L258.5 0 L340.1 0 L570.6 642 L484.6 642 Z " />
<glyph glyph-name="W" unicode="W" horiz-adv-x="872" d="M759.8 642 L625.2 126.9 L617.6 95.62 L610.9 127.1 L482.2 584 L401.1 584 L260.4 126.9 L253.73 96.84 L247.1 127.1 L125.2 642 L36 642 L204.8 -3.05176e-05 L294.4 -3.05176e-05 L422.4 405 L441.25 478.11 L457 407 L568.4 -3.05176e-05 L656.6 -3.05176e-05 L843.5 642 L759.8 642 Z " />
<glyph glyph-name="X" unicode="X" horiz-adv-x="579" d="M558.2 0 L339.11 325.44 L544.9 642 L454.1 642 L293.06 381.16 L130.9 642 L38.6 642 L240.05 325.36 L17 0 L108.2 0 L285.58 269.45 L464.2 0 L558.2 0 Z " />
<glyph glyph-name="Y" unicode="Y" horiz-adv-x="582" d="M553.1 642 L466.1 642 L308.5 349.2 L294.29 317.63 L280 348.1 L117.5 642 L26 642 L251.5 247.92 L251.5 -1.52588e-05 L332.4 -1.52588e-05 L332.4 247.96 L553.1 642 Z " />
<glyph glyph-name="Z" unicode="Z" horiz-adv-x="539" d="M145.28 71 L162.3 95 L484.7 571.2 L484.7 642 L51.5 642 L51.5 570 L388.21 570.89 L375.8 554 L46 69.4 L46 0 L491.8 0 L491.8 71 L145.28 71 Z " />
<glyph glyph-name="bracketleft" unicode="&#x5b;" horiz-adv-x="309" d="M269 610 L269 682 L90 682 L90 -168 L269 -168 L269 -96 L172 -96 L172 610 L269 610 Z " />
<glyph glyph-name="backslash" unicode="&#x5c;" horiz-adv-x="549" d="M515.6 -185 L110 661 L34 661 L439.6 -185 L515.6 -185 Z " />
<glyph glyph-name="bracketright" unicode="&#x5d;" horiz-adv-x="309" d="M40 682 L40 610 L137 610 L137 -96 L40 -96 L40 -168 L219 -168 L219 682 L40 682 Z " />
<glyph glyph-name="asciicircum" unicode="&#x5e;" horiz-adv-x="528" d="M402.5 366.4 L481.3 366.4 L300.4 679.8 L227.1 679.8 L46.2 366.4 L125 366.4 L263.7 606.8 L402.5 366.4 Z " />
<glyph glyph-name="underscore" unicode="&#x5f;" horiz-adv-x="496" d="M30 -105 L466 -105 L466 -38 L30 -38 L30 -105 Z " />
<glyph glyph-name="grave" unicode="&#x60;" horiz-adv-x="257" d="M187.5 519 L220.2 561.2 L85 688.3 L32.2 619 L187.5 519 Z " />
<glyph glyph-name="a" unicode="a" horiz-adv-x="508" d="M457.8 8 C442.9 33 428 61.1 428 116.7 L428 301 C428 442 336.4 483 225.3 483 C169.1 483 115.8 471.2 73.2 450.3 L90 379.5 C131.8 397.8 177.6 408 218.3 408 C301.2 408 348.3 381.7 348.3 312 L348.3 275 L249.7 275 C114.6 275 43 224.4 43 132 C43 45.8 107.6 -11 193.6 -11 C275.25 -11 322.21 31.92 348.62 72.04 C352.24 38.38 367.65 5.85001 381 -11.3 L457.8 8 Z M209.7 59 C159.9 59 125.8 85.6 125.8 134 C125.8 183 154.4 211.5 250 212 L347.07 212.54 L347.03 148.67 C339.97 131.67 304.27 59 209.7 59 L209.7 59 Z " />
<glyph glyph-name="b" unicode="b" horiz-adv-x="561" d="M308.5 483 C251.77 483 192.26 457.91 157 412.3 L157 661 L77 661 L77 35.9 C143.7 4.29999 183.6 -11 263.5 -11 C411.8 -11 506.6 83.4 506.6 238.8 C506.6 395.6 437.6 483 308.5 483 L308.5 483 Z M263.5 60 C212.15 60 180.54 69.52 157 81.75 L157 331.15 C178.04 365.79 225.29 409 295.1 409 C381.3 409 424.9 352.8 424.9 238.8 C424.9 126.6 362.1 60 263.5 60 L263.5 60 Z " />
<glyph glyph-name="c" unicode="c" horiz-adv-x="476" d="M429.6 445.3 C395.9 467.8 346.1 483 290.2 483 C154.2 483 51 383 51 235 C51 79 149.9 -11 290.4 -11 C353.9 -11 408.8 14 441.4 41.5 L404.7 104.8 C384.8 90.4 351.6 63 290.4 63 C182.3 63 132.8 144 132.8 235 C132.8 326 181.4 410 290.4 410 C341.9 410 382.9 395.2 413.2 376.3 L429.6 445.3 Z " />
<glyph glyph-name="d" unicode="d" horiz-adv-x="566" d="M509.1 8 C497 33 482.6 61 482.6 116.7 L482.6 661 L402.6 661 L402.6 464 C371.27 475.78 338.5 483 292.5 483 C155.3 483 52 402.6 52 232 C52 90.4 128 -11 257.1 -11 C315.16 -11 372.7 15.28 405.94 62.92 C410.43 36.61 419.39 9.21001 432.4 -11.3 L509.1 8 Z M271 63 C184.8 64.3 133.7 133.8 133.7 232 C133.7 359.4 205 412 292.5 412 C345.52 412 378.07 400.31 402.6 387.09 L402.6 140.33 C380.66 104.13 336.27 62.02 271 63 L271 63 Z " />
<glyph glyph-name="e" unicode="e" horiz-adv-x="529" d="M481.4 276 C481.4 396.8 394 483 275.3 483 C149.5 483 51 378.8 51 234 C51 83 146.5 -11 284.7 -11 C369 -11 422.2 14.8 459.8 43.5 L428.1 109 C401.9 89 367.4 63 286.5 63 C197.08 63 139.17 126.74 134.07 216 L477.7 216 C480.3 238 481.4 254.7 481.4 276 L481.4 276 Z M135.92 280 C144.57 351.52 195.37 411 275.3 411 C363.2 411 398.3 342.5 398.3 280 L135.92 280 Z " />
<glyph glyph-name="f" unicode="f" horiz-adv-x="324" d="M267 593 C286.2 593 312 587.8 339.8 572 L360.5 638.4 C329.3 656.2 298 664 269.1 664 C187.4 664 105.5 615 105.5 499 L105.5 470 L43 470 L43 400 L105.5 400 L105.5 0 L183.6 0 L183.6 400 L298.5 400 L298.5 470 L183.6 470 L183.6 508 C183.6 573 218.9 593 267 593 L267 593 Z " />
<glyph glyph-name="g" unicode="g" horiz-adv-x="527" d="M316.6 83 L227.1 83 C180.4 83 167 109 167 134 C167 143.95 169.15 152.15 175.58 160.38 C199.98 151.41 227.8 146.6 258.3 146.6 C375.2 146.6 454 213.9 454 314.8 C454 351.93 443.59 384.52 424.76 410.87 C474.03 436.6 503.52 473.33 506.8 534.1 L425.7 546.6 C425.7 497.01 413.33 469.06 381.03 451.96 C349.65 471.9 309.49 483 263.2 483 C146.4 483 67.5 415.7 67.5 314.8 C67.5 267.8 84.15 228.08 113.47 199.07 C91.64 171.35 87.5 148.29 87.5 130.31 C87.5 97.63 99.02 71.47 118.67 52.45 C75.01 33.36 44 -4.83998 44 -56.39 C44 -139.39 118.3 -194.29 265.8 -194.29 C404.9 -194.29 499.2 -148.49 499.2 -51.39 C499.2 54.01 401.1 83.01 316.6 83.01 L316.6 83 Z M260.9 415.01 C329.7 415.01 375.8 374.91 375.8 314.81 C375.8 254.51 329.5 214.31 260.8 214.31 C192 214.31 145.9 254.51 145.9 314.81 C145.9 375.31 191.2 415.01 260.9 415.01 L260.9 415.01 Z M265.8 -122.29 C178.7 -122.29 128.1 -97.39 128.1 -53.59 C128.1 1.91 182.9 15.91 232.3 15.91 L315.1 15.91 C365.1 15.91 415.2 -0.690002 415.2 -51.39 C415.2 -100.59 362.1 -122.29 265.8 -122.29 L265.8 -122.29 Z " />
<glyph glyph-name="h" unicode="h" horiz-adv-x="561" d="M314.4 483 C239.74 483 188.34 447.48 159.9 412.15 L159.9 661 L79 661 L79 0 L159.9 0 L159.9 331.2 C159.9 331.2 201.9 408 300.7 408 C372 408 406.1 361.5 406.1 265 L406.1 0 L487 0 L487 293 C487 412.4 423 483 314.4 483 L314.4 483 Z " />
<glyph glyph-name="i" unicode="i" horiz-adv-x="260" d="M194.2 608 C194.2 640 169.6 665 139.1 665 C106.7 665 82.1 640 82.1 608 C82.1 576 107.7 551 139.1 551 C169.6 551 194.2 576 194.2 608 L194.2 608 Z M181 470 L30 470 L30 400 L100.1 400 L100.1 0 L181 0 L181 470 Z " />
<glyph glyph-name="j" unicode="j" horiz-adv-x="268" d="M202.2 608 C202.2 640 177.6 665 147.1 665 C114.7 665 90.1 640 90.1 608 C90.1 576 115.7 551 147.1 551 C177.6 551 202.2 576 202.2 608 L202.2 608 Z M189 470 L38 470 L38 400 L108 400 L109.9 -31.5 C109.9 -92.5 81.5 -123 39.4 -123 C9.39999 -123 -11.5 -111.3 -26.6 -100 L-63.2 -161.3 C-39.5 -179.3 -4.50002 -194 42.9 -194 C134.1 -194 189 -133.1 189 -35.9 L189 470 Z " />
<glyph glyph-name="k" unicode="k" horiz-adv-x="503" d="M397 111 L267.97 269 L468.9 469.99 L368.6 469.99 L159 262.72 L159 660.99 L79 660.99 L79 -0.00999451 L159 -0.00999451 L159 159.99 L211.03 212.04 L339 56.99 C374.6 13.89 416.8 0.0899963 478.6 0.0899963 L478.6 69.99 C450.7 69.99 429.5 71.19 397 110.99 L397 111 Z " />
<glyph glyph-name="l" unicode="l" horiz-adv-x="274" d="M159 661 L78 661 L78 124.2 C78 16.3 128.8 -9 199 -9 C219.7 -9 238.4 -5.8 253.7 -0.300003 L253.7 66.8 C242.8 63.6 228 61.3 209.1 61.3 C177.4 61.3 159 74.4 159 125.4 L159 661 Z " />
<glyph glyph-name="m" unicode="m" horiz-adv-x="865" d="M621.5 483 C525.94 483 479.5 437.46 454.77 401.98 C429.25 454.09 381.03 483 310 483 C236.52 483 186.2 445.42 158.75 409.12 C154.08 434.63 145.22 461.48 132.6 481.3 L55 462 C67.3 437 81.7 409 81.7 353.3 L81.7 1.52588e-05 L162.6 1.52588e-05 L162.6 331.2 C162.6 331.2 201.9 408 296.6 408 C369.4 408 395.4 361.5 395.4 265 L395.4 1.52588e-05 L476.3 1.52588e-05 L476.3 293 C476.3 306.8 475.56 319.96 474.08 332.42 C479.72 342.26 520.67 408 608.2 408 C681.1 408 709.1 361.5 709.1 265 L709.1 3.05176e-05 L790 3.05176e-05 L790 293 C790 412.4 732.6 483 621.5 483 L621.5 483 Z " />
<glyph glyph-name="n" unicode="n" horiz-adv-x="565" d="M316.4 483 C239.15 483 186.69 445.23 158.63 408.85 C154.01 434.44 145.2 461.41 132.6 481.3 L55 462 C67.1 437 81.5 409 81.5 353.3 L81.5 -1.52588e-05 L162.4 -1.52588e-05 L162.4 331.2 C162.4 331.2 204.4 408 303.2 408 C374.3 408 408.8 361.5 408.8 265 L408.8 -1.52588e-05 L489.7 -1.52588e-05 L489.7 293 C489.7 412.4 425.9 483 316.4 483 L316.4 483 Z " />
<glyph glyph-name="o" unicode="o" horiz-adv-x="581" d="M292.5 483 C154.1 483 51 375.3 51 236 C51 96.1 148.5 -11 287 -11 C425.4 -11 528.7 96.1 528.7 236 C528.7 375.3 431 483 292.5 483 L292.5 483 Z M289.8 64 C193.2 64 132.8 135.2 132.8 236 C132.8 336.3 193.2 408 289.8 408 C386.3 408 446.9 336.1 446.9 235.8 C446.9 135 386.3 64 289.8 64 L289.8 64 Z " />
<glyph glyph-name="p" unicode="p" horiz-adv-x="564" d="M313.8 483 C255.2 483 193.06 456.23 158.04 407.74 C153.51 433.85 144.59 460.96 131.7 481.3 L55 462 C67.1 437 81.5 409 81.5 353.3 L81.5 -191 L161.5 -191 L161.5 2.93999 C192.26 -6.42001 224.04 -11 267.8 -11 C416.1 -11 510.9 99.4 510.9 244.8 C510.9 393.9 442.9 483 313.8 483 L313.8 483 Z M267.8 60 C216.6 60 185.03 69.54 161.5 81.74 L161.5 331.48 C183.67 367.67 231.89 409 300.4 409 C386.6 409 429.2 351.1 429.2 244.8 C429.2 142.6 366.4 60 267.8 60 L267.8 60 Z " />
<glyph glyph-name="q" unicode="q" horiz-adv-x="561" d="M292.5 483 C155.3 483 52 396.6 52 226 C52 84.4 122 -11 251.1 -11 C307.83 -11 367.34 14.09 402.6 59.69 L402.6 -191 L482.6 -191 L482.6 436.1 C415.9 467.7 376 483 292.5 483 L292.5 483 Z M264.5 63 C178.3 63 133.7 127.8 133.7 226 C133.7 353.4 205 412 292.5 412 C346.1 412 378.64 402.4 402.6 390.09 L402.6 140.35 C380.39 104.2 330.75 63 264.5 63 L264.5 63 Z " />
<glyph glyph-name="r" unicode="r" horiz-adv-x="381" d="M303.5 483.1 C231.47 483.1 186.39 437.67 161.04 392.47 C157.65 422.4 147.94 457.1 132.6 481.3 L55 462 C67.1 437 81.5 409 81.5 353.3 L81.5 0 L162.4 0 L162.4 299.6 C162.4 299.6 186.5 406 295.3 406 C315.2 406 334.2 400.6 344.7 394.9 L363.1 472 C348.2 479.2 322.6 483.1 303.5 483.1 L303.5 483.1 Z " />
<glyph glyph-name="s" unicode="s" horiz-adv-x="461" d="M242.8 483 C129.3 483 58.1 429.5 58.1 346 C58.1 244 141 221 215 204 C279.5 189.2 334.2 179.1 334.2 131.6 C334.2 85 292.5 60 224.4 60 C143.1 60 101.1 89 75 109 L43 43.5 C80.1 14.8 139.5 -11 223.3 -11 C340.5 -11 414.2 36.1 414.2 131.6 C414.2 237.4 333 262 255 279 C192.1 292.7 137.7 303 137.7 350.2 C137.7 385.6 176 412 242.8 412 C300.5 412 343.5 397.3 378.3 379.6 L394.9 449.3 C359.5 466.6 314.5 483 242.8 483 L242.8 483 Z " />
<glyph glyph-name="t" unicode="t" horiz-adv-x="388" d="M339.6 94 C326.1 80.6 300.7 60 263.4 60 C219.3 60 184 78 184 163 L184 405 L337.7 405 L337.7 470 L184 470 L184 594 L103.1 575.7 L103.1 470 L28 470 L28 405 L103.1 405 L103.1 147.1 C103.1 45.7 158 -11 255.4 -11 C311.5 -11 348.8 9.80002 375.3 35.7 L339.6 94 Z " />
<glyph glyph-name="u" unicode="u" horiz-adv-x="556" d="M499.4 8 C487.3 33 472.9 61 472.9 116.7 L472.9 470 L392 470 L392 159.5 C392 159.5 356.4 61.1 251.4 61.1 C185.8 61.1 154.9 107.6 154.9 204.1 L154.9 470 L74 470 L74 176.1 C74 56.7 134.1 -13.9 238.3 -13.9 C316.76 -13.9 366.84 28.36 394.15 71.19 C398.13 42.8 407.53 11.21 421.8 -11.3 L499.4 8 Z " />
<glyph glyph-name="v" unicode="v" horiz-adv-x="507" d="M388.9 470 L256.79 86.95 L118.2 470 L27 470 L207 0 L300.8 0 L476.9 470 L388.9 470 Z " />
<glyph glyph-name="w" unicode="w" horiz-adv-x="741" d="M624.6 470 L519 90.53 L410.5 470 L327.4 470 L226.35 90.12 L116 470 L30 470 L179.3 0 L269.4 0 L369.41 365.59 L471.9 0 L562.2 0 L709.6 470 L624.6 470 Z " />
<glyph glyph-name="x" unicode="x" horiz-adv-x="487" d="M463.7 0 L293.11 240.72 L446.6 470 L356.5 470 L246.81 294.24 L125.5 470 L32.5 470 L192.12 240.76 L26 0 L115.1 0 L239.68 187.55 L368.8 0 L463.7 0 Z " />
<glyph glyph-name="y" unicode="y" horiz-adv-x="507" d="M478.9 470 L390.9 470 L258.79 86.95 L120.2 470 L29 470 L209 0 L226 0 L195 -71 C172.2 -123.2 129.1 -123.3 94.5 -123.3 L94.5 -194.3 C160.7 -194.3 230.8 -183.9 272 -79 L303 -1.52588e-05 L302.8 -1.52588e-05 L478.9 470 Z " />
<glyph glyph-name="z" unicode="z" horiz-adv-x="462" d="M133.86 68 L409.3 389.2 L409.3 470 L53.5 470 L53.5 402 L329.99 402 L48 80 L48 0 L413.7 0 L413.7 68 L133.86 68 Z " />
<glyph glyph-name="braceleft" unicode="&#x7b;" horiz-adv-x="341" d="M205 367 L205 541 C205 588 223 610 267 610 L302 610 L302 682 L267 682 C164 682 123 618 123 541 L123 367 C123 319.7 105 297 61 297 L36 297 L36 217 L61 217 C105 217 123 194.3 123 147 L123 -27 C123 -104 164 -168 267 -168 L302 -168 L302 -96 L267 -96 C223 -96 205 -74 205 -27 L205 147 C205 191.14 189.65 231.01 154.45 257 C189.65 282.99 205 322.86 205 367 L205 367 Z " />
<glyph glyph-name="bar" unicode="&#x7c;" horiz-adv-x="252" d="M90 -78 L162 -78 L162 685 L90 685 L90 -78 Z " />
<glyph glyph-name="braceright" unicode="&#x7d;" horiz-adv-x="341" d="M280 297 C236 297 218 319.7 218 367 L218 541 C218 618 177 682 74 682 L39 682 L39 610 L74 610 C118 610 136 588 136 541 L136 367 C136 322.86 151.35 282.99 186.54 257 C151.35 231.01 136 191.14 136 147 L136 -27 C136 -74 118 -96 74 -96 L39 -96 L39 -168 L74 -168 C177 -168 218 -104 218 -27 L218 147 C218 194.3 236 217 280 217 L305 217 L305 297 L280 297 Z " />
<glyph glyph-name="asciitilde" unicode="&#x7e;" horiz-adv-x="574" d="M130 166 C147 190 171 207 202 207 C248 207 303 171 370 171 C423 171 473 202 501 256 L442 297 C425 269 401 249 370 249 C316 249 254 285 202 285 C150 285 102 255 72 204 L130 166 Z " />
<glyph glyph-name="exclamdown" unicode="&#xa1;" horiz-adv-x="250" d="M186.3 442 C186.3 477 158.9 506 124.7 506 C90.5 506 63 477 63 442 C63 408 90.5 379 124.7 379 C158.9 379 186.3 408 186.3 442 L186.3 442 Z M81 -147 L169 -147 L157 322 L93 322 L81 -147 Z " />
<glyph glyph-name="cent" unicode="&#xa2;" horiz-adv-x="493" d="M445.4 134.6 L408.7 197.9 C390.91 185.03 362.51 161.78 313 156.98 L313 486.44 C355.86 483.38 390.64 469.96 417.2 453.4 L433.6 522.4 C403.73 542.34 361.2 556.55 313 559.52 L313 654 L247 654 L247 556.05 C135.02 536.34 55 446.28 55 320.1 C55 186.81 132.16 103.3 247 85.6201 L247 -10.9999 L313 -10.9999 L313 82.8101 C368.55 87.0701 416.03 109.82 445.4 134.6 L445.4 134.6 Z M136.8 320.1 C136.8 393.2 171.19 461.49 247 481.33 L247 161.75 C171.73 181.06 136.8 247.26 136.8 320.1 L136.8 320.1 Z " />
<glyph glyph-name="sterling" unicode="&#xa3;" horiz-adv-x="553" d="M230 249.6 C230 255.06 229.81 260.53 229.47 266 L389 266 L389 336 L218.51 336 C208.31 382.34 195 428.69 195 475 C195 531.9 237.1 582 323 582 C372.4 582 419.6 559.7 453 530 L500 591 C456.9 627 404 654 323 654 C189.1 654 115 565.6 115 465 C115 422 127.55 379 137.62 336 L60.7 336 L60.7 266 L149.42 266 C149.79 260.53 150 255.06 150 249.6 C150 190.73 142.39 131.86 121.21 73 L60.7 73 L60.7 1.52588e-05 L499 1.52588e-05 L499 73 L202.17 73 C223.15 131.86 230 190.73 230 249.6 L230 249.6 Z " />
<glyph glyph-name="currency" unicode="&#xa4;" horiz-adv-x="631" d="M551 332 C551 383.16 534.73 430.45 507.08 468.99 L562 525.99 L502 585.99 L445.69 528.1 C408.55 552.69 363.98 566.99 316 566.99 C267.73 566.99 222.9 552.51 185.62 527.65 L128 586.89 L68 526.89 L124.43 468.31 C97.07 429.89 81 382.85 81 331.99 C81 281.34 96.93 234.49 124.08 196.16 L69 138.99 L129 78.99 L185.1 136.67 C222.49 111.6 267.49 96.99 315.99 96.99 C364.22 96.99 409.01 111.44 446.27 136.26 L501.99 78.99 L561.99 138.99 L507.48 195.57 C534.88 234 550.99 281.08 550.99 331.99 L551 332 Z M313.99 172.99 C227.99 172.99 158.99 243.99 158.99 332.99 C158.99 422.99 227.99 492.99 313.99 492.99 C400.99 492.99 470.99 422.99 470.99 332.99 C470.99 243.99 400.99 172.99 313.99 172.99 L313.99 172.99 Z " />
<glyph glyph-name="yen" unicode="&#xa5;" horiz-adv-x="562" d="M526 642 L448 642 L293 371 L282.55 347.35 L271 371 L125.2 642 L39.2 642 L216.12 322 L102 322 L102 259 L236 259 L236 200 L102 200 L102 137 L236 137 L236 0 L319 0 L319 137 L451 137 L451 200 L319 200 L319 259 L451 259 L451 322 L341.01 322 L526 642 Z " />
<glyph glyph-name="brokenbar" unicode="&#xa6;" horiz-adv-x="250" d="M89 382 L161 382 L161 685 L89 685 L89 382 Z M89 -78 L161 -78 L161 225 L89 225 L89 -78 Z " />
<glyph glyph-name="section" unicode="&#xa7;" horiz-adv-x="529" d="M414.64 126.28 C448.27 152.67 467 189.87 467 236.4 C467 437.3 142.2 383.6 142.2 509.2 C142.2 551.3 186.9 579.6 259.9 579.6 C329.1 579.6 374.3 561.2 413.9 538 L456.2 603 C414.8 628.8 357 654 260.4 654 C140.3 654 62 593.8 62 503.5 C62 453.39 83.04 419.22 114.39 394.05 C80.75 367.65 62 330.45 62 283.9 C62 83 386.8 136.7 386.8 11.1 C386.8 -31 342.1 -59.3 269.1 -59.3 C199.9 -59.3 154.7 -40.9 115.1 -17.7 L72.8 -82.7 C114.2 -108.5 172 -133.7 268.6 -133.7 C388.7 -133.7 467 -73.5 467 16.8 C467 66.88 445.98 101.04 414.64 126.28 L414.64 126.28 Z M143.1 294 C143.1 316.84 151.93 341.42 180.67 356.53 C273.13 317.65 385.9 304.33 385.9 230.4 C385.9 204.28 375.03 179.66 346.02 165.02 C254 203.58 143.1 218.28 143.1 294 L143.1 294 Z " />
<glyph glyph-name="dieresis" unicode="&#xa8;" horiz-adv-x="361" d="M131.9 601.3 C131.9 631 109.9 653.5 81.9 653.5 C51 653.5 29 631 29 601.3 C29 570.5 52 548 81.9 548 C109.9 548 131.9 570.5 131.9 601.3 L131.9 601.3 Z M318.7 601.3 C318.7 631 295.6 653.5 267.6 653.5 C237.8 653.5 215.6 631 215.6 601.3 C215.6 570.5 238.7 548 267.6 548 C295.6 548 318.7 570.5 318.7 601.3 L318.7 601.3 Z " />
<glyph glyph-name="copyright" unicode="&#xa9;" horiz-adv-x="766" d="M708.4 318.4 C708.4 516.9 572.6 661 384.7 661 C195 661 58 516.9 58 318.4 C58 120.4 195 -23.2 384.7 -23.2 C572.6 -23.2 708.4 120.4 708.4 318.4 L708.4 318.4 Z M639.9 318.4 C639.9 156.2 534.2 42 384.7 42 C234 42 126.6 156.2 126.6 318.4 C126.6 480.5 234 595.8 384.7 595.8 C534.2 595.8 639.9 480.5 639.9 318.4 L639.9 318.4 Z M520 481.5 C496.2 499.9 452.7 517.3 400.1 517.3 C290.3 517.3 205.7 440.5 205.7 319.2 C205.7 194.2 283.9 122.9 400.9 122.9 C458 122.9 500.7 143.3 528.3 166.6 L491.4 228.8 C472.3 212.6 443.7 196.4 401.2 196.4 C329.3 196.4 292.2 250.1 292.2 320.1 C292.2 389.6 330.1 444.1 404.8 444.1 C440.4 444.1 470.7 435.9 502.5 412.6 L520 481.5 Z " />
<glyph glyph-name="ordfeminine" unicode="&#xaa;" horiz-adv-x="406" d="M327.1 427.3 L327.1 539.2 C327.1 631.2 271.2 665 182.2 665 C133 665 94.9 651.1 72.3 639.8 L87 582.5 C110.7 593.6 140.9 602.4 175.8 602.4 C228.4 602.4 252.1 584.3 253 547.9 L253.4 531.2 L189.4 531.2 C105.9 531.2 56 496 56 435.1 C56 373.7 103.6 342.3 159.4 342.3 C204.36 342.3 235.98 363.47 257.09 391.53 C262.45 367.54 271.13 350.07 281 341.5 L348.4 358.6 C336.1 373.7 327.1 390.3 327.1 427.3 L327.1 427.3 Z M178.4 396.2 C148.8 396.2 130.6 411.9 130.6 439 C130.6 465.6 149.2 485.2 195.4 485.2 L252.66 485.2 L252.54 457.03 C248.28 424.47 219.99 396.2 178.4 396.2 L178.4 396.2 Z " />
<glyph glyph-name="guillemotleft" unicode="&#xab;" horiz-adv-x="476" d="M47 255 L187 94 L235 131 L130 255 L235 379 L187 416 L47 255 Z M222 255 L362 94 L410 131 L305 255 L410 379 L362 416 L222 255 Z " />
<glyph glyph-name="registered" unicode="&#xae;" horiz-adv-x="766" d="M384.7 661 C195 661 58 516.9 58 318.4 C58 120.4 195 -23.2 384.7 -23.2 C572.6 -23.2 708.4 120.4 708.4 318.4 C708.4 516.9 572.6 661 384.7 661 L384.7 661 Z M384.7 42 C234 42 126.6 156.2 126.6 318.4 C126.6 480.5 234 595.8 384.7 595.8 C534.2 595.8 639.9 480.5 639.9 318.4 C639.9 156.2 534.2 42 384.7 42 L384.7 42 Z M541.2 400.5 C541.2 478.2 492.3 518.1 383.8 518.1 L255.8 518.1 L255.8 126.6 L325.4 126.6 L325.4 273 L372.69 273 L429.4 175.5 C455 131.4 481.3 123.6 535.3 123.6 L535.3 188.4 C513 188.4 501 198.2 489.4 218.2 L451.96 282.73 C507.11 300.29 541.2 341.08 541.2 400.5 L541.2 400.5 Z M385.7 332.7 L325.4 333.32 L325.4 459 L387.8 459 C441.9 459 468.4 439.1 468.4 397.9 C468.4 361.2 443.9 331.7 385.7 332.7 L385.7 332.7 Z " />
<glyph glyph-name="macron" unicode="&#xaf;" horiz-adv-x="333" d="M37 562 L283.4 562 L283.4 629 L37 629 L37 562 Z " />
<glyph glyph-name="degree" unicode="&#xb0;" horiz-adv-x="334" d="M167 447 C231 447 284 499 284 564 C284 628 231 680 167 680 C103 680 51 628 51 564 C51 499 103 447 167 447 L167 447 Z M168 499 C133 499 103 529 103 564 C103 601 133 629 168 629 C203 629 233 601 233 564 C233 529 203 499 168 499 L168 499 Z " />
<glyph glyph-name="plusminus" unicode="&#xb1;" horiz-adv-x="562" d="M245 132 L317 132 L317 275 L491 275 L491 345 L317 345 L317 483 L245 483 L245 345 L71 345 L71 275 L245 275 L245 132 Z M71 57 L71 -13 L492 -13 L492 57 L71 57 Z " />
<glyph glyph-name="acute" unicode="&#xb4;" horiz-adv-x="238" d="M60.9 519 L216.2 619 L163.4 688.3 L28.2 561.2 L60.9 519 Z " />
<glyph glyph-name="paragraph" unicode="&#xb6;" horiz-adv-x="594" d="M377.1 20 L377.1 642 L255.6 642 C126.2 642 41 553.8 41 441 C41 318 131.2 237 254.3 237 L306.2 237 L306.2 20 L377.1 20 Z M432.2 642 L432.2 50 C432.2 -28.7 394.4 -63.7 306.3 -63.7 L306.3 -133.7 C433.3 -133.7 503.1 -67.5 503.1 50 L503.1 642 L432.2 642 Z " />
<glyph glyph-name="periodcentered" unicode="&#xb7;" horiz-adv-x="254" d="M127 271 C159 271 185 297 185 329 C185 361 159 387 127 387 C95 387 69 361 69 329 C69 297 95 271 127 271 L127 271 Z " />
<glyph glyph-name="cedilla" unicode="&#xb8;" horiz-adv-x="264" d="M121.5 11 L90.2 -76 C126.3 -77 152.8 -84 152.8 -110 C152.8 -129.3 135.8 -138 113.2 -138 C97.9 -138 83.7 -133.4 69.5 -125 L49 -173 C61.6 -182 90.9 -190 115.4 -190 C167 -190 223.8 -173 223.8 -105.3 C223.8 -64 195.8 -45.4 158.2 -38 L175.3 11 L121.5 11 Z " />
<glyph glyph-name="ordmasculine" unicode="&#xba;" horiz-adv-x="415" d="M206 342 C295.1 342 362 403 362 503 C362 605 299.1 665 210 665 C120.3 665 53 605 53 503 C53 403 116.3 342 206 342 L206 342 Z M208 405 C156.4 405 123 439 123 503 C123 568 156.4 602 208 602 C259.9 602 292 568 292 503 C292 439 259.9 405 208 405 L208 405 Z " />
<glyph glyph-name="guillemotright" unicode="&#xbb;" horiz-adv-x="476" d="M254 255 L114 416 L66 379 L171 255 L66 131 L114 94 L254 255 Z M429 255 L289 416 L241 379 L346 255 L241 131 L289 94 L429 255 Z " />
<glyph glyph-name="onequarter" unicode="&#xbc;" horiz-adv-x="714" d="M533.1 642 L104.4 0 L180.4 0 L609.1 642 L533.1 642 Z M130 264 L204 264 L204 641 L147.8 641 L38 585 L67 531 L130 562.37 L130 264 Z M662.3 129.2 L622.8 129.2 L622.8 377 L555.8 377 L368.7 131.4 L368.7 66.4 L555.8 66.4 L555.8 0 L622.8 0 L622.8 66.4 L662.3 66.4 L662.3 129.2 Z M443.5 129.2 L555.8 273.97 L555.8 129.2 L443.5 129.2 Z " />
<glyph glyph-name="onehalf" unicode="&#xbd;" horiz-adv-x="760" d="M535.1 642 L106.4 0 L182.4 0 L611.1 642 L535.1 642 Z M129 264 L203 264 L203 641 L146.8 641 L37 585 L66 531 L129 562.37 L129 264 Z M574 62 L551.64 59.68 L566.5 72 C638.4 146.4 693 202.8 693 270 C693 341 639 381 565 381 C517 381 474 352 452 327 L489 286 C506 302 528 318 565 318 C604 318 623 294 623 265 C623 224 582.7 178 455 50.5 L455 -1.52588e-05 L712 -1.52588e-05 L712 62 L574 62 Z " />
<glyph glyph-name="threequarters" unicode="&#xbe;" horiz-adv-x="768" d="M315 376 C315 428.58 281.88 459.2 244.43 470.71 C272.57 484.22 295.8 512.78 295.8 547.4 C295.8 606.2 243.4 645.9 171.5 645.9 C113.2 645.9 74.7 624.4 49.8 591.6 L93.9 552.2 C116.2 572.6 135.8 583.5 166.9 583.5 C203.6 583.5 228.1 561.8 228.1 533.3 C228.1 488.8 183.6 485.3 154.1 485.4 L125.1 485.4 L124.9 434 L165.5 434.1 C213.4 432.8 247.7 429.2 247.7 382.3 C247.7 338.8 211.4 317.7 172.3 317.7 C131.4 317.7 106.4 334 85.2 354.6 L45.1 306.7 C63.6 286.8 105.7 259 172.3 259 C243.8 259 315 299.1 315 376 L315 376 Z M588.1 642 L159.4 0 L235.4 0 L664.1 642 L588.1 642 Z M720.3 129.2 L680.8 129.2 L680.8 377 L613.8 377 L426.7 131.4 L426.7 66.4 L613.8 66.4 L613.8 0 L680.8 0 L680.8 66.4 L720.3 66.4 L720.3 129.2 Z M501.5 129.2 L613.8 273.97 L613.8 129.2 L501.5 129.2 Z " />
<glyph glyph-name="questiondown" unicode="&#xbf;" horiz-adv-x="471" d="M331 442 C331 477 303.6 506 269.4 506 C235.2 506 207.7 477 207.7 442 C207.7 408 235.2 379 269.4 379 C303.6 379 331 408 331 442 L331 442 Z M436.3 -72.3 L386.9 -20.4 C364.1 -47.5 325.9 -84.4 253.8 -84.4 C174.1 -84.4 124 -31.4 124 33.2 C124 109.7 170.3 169 292.7 170.8 L306 171 L306 321.6 L226 321.6 L226 236.5 C85.9 214.7 44 112.9 44 33 C44 -85.9 139.3 -158.9 247.2 -159.4 C332.6 -159.8 396.3 -123.1 436.3 -72.3 L436.3 -72.3 Z " />
<glyph glyph-name="Agrave" unicode="&#xc0;" horiz-adv-x="602" d="M396.4 719.4 L224.6 804 L192.2 721.9 L380.3 670 L396.4 719.4 Z M486.4 0 L575.4 0 L342.2 642 L257.7 642 L29 0 L115 0 L174.81 179 L424.23 179 L486.4 0 Z M198.2 249 L281.2 497.4 L297.44 548.22 L313.8 497 L399.92 249 L198.2 249 Z " />
<glyph glyph-name="Aacute" unicode="&#xc1;" horiz-adv-x="602" d="M412.1 721.9 L379.7 804 L207.9 719.4 L224 670 L412.1 721.9 Z M486.4 0 L575.4 0 L342.2 642 L257.7 642 L29 0 L115 0 L174.81 179 L424.23 179 L486.4 0 Z M198.2 249 L281.2 497.4 L297.44 548.22 L313.8 497 L399.92 249 L198.2 249 Z " />
<glyph glyph-name="Acircumflex" unicode="&#xc2;" horiz-adv-x="602" d="M302.1 735 L402.4 673 L429.1 715 L329.8 797.8 L274.8 797.8 L175.5 715 L202.2 673 L302.1 735 Z M486.4 0 L575.4 0 L342.2 642 L257.7 642 L29 0 L115 0 L174.81 179 L424.23 179 L486.4 0 Z M198.2 249 L281.2 497.4 L297.44 548.22 L313.8 497 L399.92 249 L198.2 249 Z " />
<glyph glyph-name="Atilde" unicode="&#xc3;" horiz-adv-x="602" d="M243.6 724 C271.6 724 313.5 690 359.1 690 C407.6 690 438.4 716 455.7 761.6 L397.4 784.7 C388 767.3 375.1 757 352 757 C322.8 757 283.7 792 236.5 792 C188 792 157.2 765 139.9 719.4 L198.2 696.3 C207.6 713.7 220.5 724 243.6 724 L243.6 724 Z M486.4 0 L575.4 0 L342.2 642 L257.7 642 L29 0 L115 0 L174.81 179 L424.23 179 L486.4 0 Z M198.2 249 L281.2 497.4 L297.44 548.22 L313.8 497 L399.92 249 L198.2 249 Z " />
<glyph glyph-name="Adieresis" unicode="&#xc4;" horiz-adv-x="602" d="M211.9 689 C241.1 689 263.6 711 263.6 741 C263.6 770 242 792 211.9 792 C181.8 792 160.2 770 160.2 741 C160.2 711 182.7 689 211.9 689 L211.9 689 Z M391.9 689 C421.1 689 443.6 711 443.6 741 C443.6 770 422 792 391.9 792 C361.8 792 340.2 770 340.2 741 C340.2 711 362.7 689 391.9 689 L391.9 689 Z M486.4 0 L575.4 0 L342.2 642 L257.7 642 L28.9999 0 L115 0 L174.81 179 L424.23 179 L486.4 0 Z M198.2 249 L281.2 497.4 L297.44 548.22 L313.8 497 L399.92 249 L198.2 249 Z " />
<glyph glyph-name="Aring" unicode="&#xc5;" horiz-adv-x="602" d="M302.7 656 C356.9 656 394.3 700 394.3 752 C394.3 804 356.9 848 302.7 848 C247.6 848 210.1 804 210.1 752 C210.1 700 247.6 656 302.7 656 L302.7 656 Z M302.7 795 C329.5 795 339.8 774 339.8 752 C339.8 731 329.5 710 302.7 710 C275 710 263.8 731 263.8 752 C263.8 774 275 795 302.7 795 L302.7 795 Z M486.4 0 L575.4 0 L342.2 642 L257.7 642 L29 0 L115 0 L174.81 179 L424.23 179 L486.4 0 Z M198.2 249 L281.2 497.4 L297.44 548.22 L313.8 497 L399.92 249 L198.2 249 Z " />
<glyph glyph-name="AE" unicode="&#xc6;" horiz-adv-x="863" d="M498.4 74 L498.4 293 L765.1 293 L765.1 367 L498.4 367 L498.4 567 L798.1 567 L798.1 642 L376.7 642 L6 0 L90 0 L193.57 179 L418.4 179 L418.4 0 L807.5 0 L807.5 74 L498.4 74 Z M234.07 249 L418.4 567.55 L418.4 249 L234.07 249 Z " />
<glyph glyph-name="Ccedilla" unicode="&#xc7;" horiz-adv-x="587" d="M368.2 -38 L377.78 -10.55 C467.05 -6.43001 521.37 25.15 554.2 55 L513 117 C478.2 86.4 438.7 64 358.3 64 C237.6 64 140.2 162.5 140.2 321 C140.2 481.9 238.4 579 363.9 579 C420.8 579 463.7 562.7 504.3 532 L549.1 595 C507.3 628 447.4 654 363.7 654 C190.7 654 56 514.5 56 321 C56 139.26 162.6 6.78999 324.18 -9.35001 L300.2 -76 C336.3 -77 362.8 -84 362.8 -110 C362.8 -129.3 345.8 -138 323.2 -138 C307.9 -138 293.7 -133.4 279.5 -125 L259 -173 C271.6 -182 300.9 -190 325.4 -190 C377 -190 433.8 -173 433.8 -105.3 C433.8 -64 405.8 -45.4 368.2 -38 L368.2 -38 Z " />
<glyph glyph-name="Egrave" unicode="&#xc8;" horiz-adv-x="540" d="M389.5 719.4 L217.7 804 L185.3 721.9 L373.4 670 L389.5 719.4 Z M176 74 L176 293 L442.7 293 L442.7 367 L176 367 L176 567 L475.7 567 L475.7 642 L96 642 L96 0 L485.1 0 L485.1 74 L176 74 Z " />
<glyph glyph-name="Eacute" unicode="&#xc9;" horiz-adv-x="540" d="M405.2 721.9 L372.8 804 L201 719.4 L217.1 670 L405.2 721.9 Z M176 74 L176 293 L442.7 293 L442.7 367 L176 367 L176 567 L475.7 567 L475.7 642 L96 642 L96 0 L485.1 0 L485.1 74 L176 74 Z " />
<glyph glyph-name="Ecircumflex" unicode="&#xca;" horiz-adv-x="540" d="M295.2 735 L395.5 673 L422.2 715 L322.9 797.8 L267.9 797.8 L168.6 715 L195.3 673 L295.2 735 Z M176 74 L176 293 L442.7 293 L442.7 367 L176 367 L176 567 L475.7 567 L475.7 642 L96 642 L96 0 L485.1 0 L485.1 74 L176 74 Z " />
<glyph glyph-name="Edieresis" unicode="&#xcb;" horiz-adv-x="540" d="M205 689 C234.2 689 256.7 711 256.7 741 C256.7 770 235.1 792 205 792 C174.9 792 153.3 770 153.3 741 C153.3 711 175.8 689 205 689 L205 689 Z M385 689 C414.2 689 436.7 711 436.7 741 C436.7 770 415.1 792 385 792 C354.9 792 333.3 770 333.3 741 C333.3 711 355.8 689 385 689 L385 689 Z M176 74 L176 293 L442.7 293 L442.7 367 L176 367 L176 567 L475.7 567 L475.7 642 L95.9999 642 L95.9999 0 L485.1 0 L485.1 74 L176 74 Z " />
<glyph glyph-name="Igrave" unicode="&#xcc;" horiz-adv-x="344" d="M254.9 719.4 L83.1 804 L50.7 721.9 L238.8 670 L254.9 719.4 Z M287.5 572 L287.5 642 L55 642 L55 572 L130.8 572 L130.8 70 L55 70 L55 0 L287.5 0 L287.5 70 L211.7 70 L211.7 572 L287.5 572 Z " />
<glyph glyph-name="Iacute" unicode="&#xcd;" horiz-adv-x="344" d="M295.5 721.9 L263.1 804 L91.3 719.4 L107.4 670 L295.5 721.9 Z M287.5 642 L55 642 L55 572 L130.8 572 L130.8 70 L55 70 L55 0 L287.5 0 L287.5 70 L211.7 70 L211.7 572 L287.5 572 L287.5 642 Z " />
<glyph glyph-name="Icircumflex" unicode="&#xce;" horiz-adv-x="344" d="M171.1 735 L271.4 673 L298.1 715 L198.8 797.8 L143.8 797.8 L44.5 715 L71.2 673 L171.1 735 Z M287.5 642 L55 642 L55 572 L130.8 572 L130.8 70 L55 70 L55 0 L287.5 0 L287.5 70 L211.7 70 L211.7 572 L287.5 572 L287.5 642 Z " />
<glyph glyph-name="Idieresis" unicode="&#xcf;" horiz-adv-x="344" d="M97.7 696 C126.9 696 149.4 718 149.4 748 C149.4 777 127.8 799 97.7 799 C67.6 799 46 777 46 748 C46 718 68.5 696 97.7 696 L97.7 696 Z M244.8 696 C274 696 296.5 718 296.5 748 C296.5 777 274.9 799 244.8 799 C214.7 799 193.1 777 193.1 748 C193.1 718 215.6 696 244.8 696 L244.8 696 Z M287.5 642 L54.9999 642 L54.9999 572 L130.8 572 L130.8 70 L54.9999 70 L54.9999 0 L287.5 0 L287.5 70 L211.7 70 L211.7 572 L287.5 572 L287.5 642 Z " />
<glyph glyph-name="Eth" unicode="&#xd0;" horiz-adv-x="671" d="M290.6 642 L103 642 L103 356.2 L29.1 356.2 L29.1 284.7 L103 284.7 L103 0 L299.7 0 C493 0 613.4 135.3 613.4 325 C613.4 514.6 500.2 642 290.6 642 L290.6 642 Z M302.9 73 L183.9 73 L183.9 284.7 L288.15 284.7 L288.15 356.2 L183.9 356.2 L183.9 567 L291 567 C453.3 567 528.2 467.7 528.2 323 C528.2 176.3 452 73 302.9 73 L302.9 73 Z " />
<glyph glyph-name="Ntilde" unicode="&#xd1;" horiz-adv-x="676" d="M286.5 724 C314.5 724 356.4 690 402 690 C450.5 690 481.3 716 498.6 761.6 L440.3 784.7 C430.9 767.3 418 757 394.9 757 C365.7 757 326.6 792 279.4 792 C230.9 792 200.1 765 182.8 719.4 L241.1 696.3 C250.5 713.7 263.4 724 286.5 724 L286.5 724 Z M501.4 642 L501.4 184 L502.62 139.79 L486.2 169 L170.5 642 L96 642 L96 0 L173.3 0 L173.3 474 L172.73 510.19 L188.5 479 L505 0 L578.7 0 L578.7 642 L501.4 642 Z " />
<glyph glyph-name="Ograve" unicode="&#xd2;" horiz-adv-x="723" d="M439.2 670 L455.3 719.4 L283.5 804 L251.1 721.9 L439.2 670 Z M360.8 654 C183.2 654 56 508.6 56 322 C56 131.3 183.2 -11 360.8 -11 C538.3 -11 665.5 136.2 665.5 322 C665.5 513.5 538.3 654 360.8 654 L360.8 654 Z M360.8 579.9 C495 579.9 582.4 474 582.4 322 C582.4 171.8 495 63.2 360.8 63.2 C226.5 63.2 139.1 171.8 139.1 322 C139.1 474 226.5 579.9 360.8 579.9 L360.8 579.9 Z " />
<glyph glyph-name="Oacute" unicode="&#xd3;" horiz-adv-x="723" d="M282.9 670 L471 721.9 L438.6 804 L266.8 719.4 L282.9 670 Z M360.8 654 C183.2 654 56 508.6 56 322 C56 131.3 183.2 -11 360.8 -11 C538.3 -11 665.5 136.2 665.5 322 C665.5 513.5 538.3 654 360.8 654 L360.8 654 Z M360.8 579.9 C495 579.9 582.4 474 582.4 322 C582.4 171.8 495 63.2 360.8 63.2 C226.5 63.2 139.1 171.8 139.1 322 C139.1 474 226.5 579.9 360.8 579.9 L360.8 579.9 Z " />
<glyph glyph-name="Ocircumflex" unicode="&#xd4;" horiz-adv-x="723" d="M388.7 797.8 L333.7 797.8 L234.4 715 L261.1 673 L361 735 L461.3 673 L488 715 L388.7 797.8 Z M360.8 654 C183.2 654 56 508.6 56 322 C56 131.3 183.2 -11 360.8 -11 C538.3 -11 665.5 136.2 665.5 322 C665.5 513.5 538.3 654 360.8 654 L360.8 654 Z M360.8 579.9 C495 579.9 582.4 474 582.4 322 C582.4 171.8 495 63.2 360.8 63.2 C226.5 63.2 139.1 171.8 139.1 322 C139.1 474 226.5 579.9 360.8 579.9 L360.8 579.9 Z " />
<glyph glyph-name="Otilde" unicode="&#xd5;" horiz-adv-x="723" d="M257.1 696.3 C266.5 713.7 279.4 724 302.5 724 C330.5 724 372.4 690 418 690 C466.5 690 497.3 716 514.6 761.6 L456.3 784.7 C446.9 767.3 434 757 410.9 757 C381.7 757 342.6 792 295.4 792 C246.9 792 216.1 765 198.8 719.4 L257.1 696.3 Z M360.8 654 C183.2 654 56 508.6 56 322 C56 131.3 183.2 -11 360.8 -11 C538.3 -11 665.5 136.2 665.5 322 C665.5 513.5 538.3 654 360.8 654 L360.8 654 Z M360.8 579.9 C495 579.9 582.4 474 582.4 322 C582.4 171.8 495 63.2 360.8 63.2 C226.5 63.2 139.1 171.8 139.1 322 C139.1 474 226.5 579.9 360.8 579.9 L360.8 579.9 Z " />
<glyph glyph-name="Odieresis" unicode="&#xd6;" horiz-adv-x="723" d="M322.5 741 C322.5 770 300.9 792 270.8 792 C240.7 792 219.1 770 219.1 741 C219.1 711 241.6 689 270.8 689 C300 689 322.5 711 322.5 741 L322.5 741 Z M502.5 741 C502.5 770 480.9 792 450.8 792 C420.7 792 399.1 770 399.1 741 C399.1 711 421.6 689 450.8 689 C480 689 502.5 711 502.5 741 L502.5 741 Z M360.8 654 C183.2 654 55.9999 508.6 55.9999 322 C55.9999 131.3 183.2 -11 360.8 -11 C538.3 -11 665.5 136.2 665.5 322 C665.5 513.5 538.3 654 360.8 654 L360.8 654 Z M360.8 579.9 C495 579.9 582.4 474 582.4 322 C582.4 171.8 495 63.2 360.8 63.2 C226.5 63.2 139.1 171.8 139.1 322 C139.1 474 226.5 579.9 360.8 579.9 L360.8 579.9 Z " />
<glyph glyph-name="multiply" unicode="&#xd7;" horiz-adv-x="509" d="M446 389.1 L396 439.1 L255 298.1 L114 439.1 L64 389.1 L205 248.1 L64 107.1 L114 57.1 L255 198.1 L396 57.1 L446 107.1 L305 248.1 L446 389.1 Z " />
<glyph glyph-name="Oslash" unicode="&#xd8;" horiz-adv-x="731" d="M683.4 615.5 L629.4 662.5 L557.73 584.93 C506.39 628.69 440.13 654 364.8 654 C187.2 654 60 508.6 60 322 C60 241.53 82.64 169.68 122.17 113.51 L46.4 31.5 L99.4 -20.5 L171.98 58.54 C223.3 14.56 289.52 -11 364.8 -11 C542.3 -11 669.5 136.2 669.5 322 C669.5 403.4 646.51 475.59 606.45 531.69 L683.4 615.5 Z M143.1 322 C143.1 474 230.5 579.9 364.8 579.9 C420.96 579.9 468.93 561.35 505.72 528.64 L177.95 173.89 C155.43 215.02 143.1 265.57 143.1 322 L143.1 322 Z M586.4 322 C586.4 171.8 499 63.2 364.8 63.2 C308.69 63.2 260.77 82.15 223.98 115.18 L551.1 471.42 C573.9 430.36 586.4 379.47 586.4 322 L586.4 322 Z " />
<glyph glyph-name="Ugrave" unicode="&#xd9;" horiz-adv-x="665" d="M416.1 670 L432.2 719.4 L260.4 804 L228 721.9 L416.1 670 Z M333.4 -11 C478.4 -11 576 82 576 256 L576 642 L496.1 642 L496.1 256 C496.1 145 442.6 67 333.5 67 C226.2 67 171.7 145 171.7 256 L171.7 642 L89 642 L89 256 C89 82 189.9 -11 333.4 -11 L333.4 -11 Z " />
<glyph glyph-name="Uacute" unicode="&#xda;" horiz-adv-x="665" d="M259.8 670 L447.9 721.9 L415.5 804 L243.7 719.4 L259.8 670 Z M333.4 -11 C478.4 -11 576 82 576 256 L576 642 L496.1 642 L496.1 256 C496.1 145 442.6 67 333.5 67 C226.2 67 171.7 145 171.7 256 L171.7 642 L89 642 L89 256 C89 82 189.9 -11 333.4 -11 L333.4 -11 Z " />
<glyph glyph-name="Ucircumflex" unicode="&#xdb;" horiz-adv-x="665" d="M365.6 797.8 L310.6 797.8 L211.3 715 L238 673 L337.9 735 L438.2 673 L464.9 715 L365.6 797.8 Z M333.4 -11 C478.4 -11 576 82 576 256 L576 642 L496.1 642 L496.1 256 C496.1 145 442.6 67 333.5 67 C226.2 67 171.7 145 171.7 256 L171.7 642 L89 642 L89 256 C89 82 189.9 -11 333.4 -11 L333.4 -11 Z " />
<glyph glyph-name="Udieresis" unicode="&#xdc;" horiz-adv-x="665" d="M299.4 741 C299.4 770 277.8 792 247.7 792 C217.6 792 196 770 196 741 C196 711 218.5 689 247.7 689 C276.9 689 299.4 711 299.4 741 L299.4 741 Z M479.4 741 C479.4 770 457.8 792 427.7 792 C397.6 792 376 770 376 741 C376 711 398.5 689 427.7 689 C456.9 689 479.4 711 479.4 741 L479.4 741 Z M333.4 -11 C478.4 -11 576 82 576 256 L576 642 L496.1 642 L496.1 256 C496.1 145 442.6 67 333.5 67 C226.2 67 171.7 145 171.7 256 L171.7 642 L88.9999 642 L88.9999 256 C88.9999 82 189.9 -11 333.4 -11 L333.4 -11 Z " />
<glyph glyph-name="Yacute" unicode="&#xdd;" horiz-adv-x="582" d="M400.7 721.9 L368.3 804 L196.5 719.4 L212.6 670 L400.7 721.9 Z M553.1 642 L466.1 642 L308.5 349.2 L294.29 317.63 L280 348.1 L117.5 642 L26 642 L251.5 247.92 L251.5 -1.52588e-05 L332.4 -1.52588e-05 L332.4 247.96 L553.1 642 Z " />
<glyph glyph-name="Thorn" unicode="&#xde;" horiz-adv-x="564" d="M276.9 529 L176.9 529 L176.9 642 L96 642 L96 0 L176.9 0 L176.9 124 L278.2 124 C437.5 124 521.5 205 521.5 328 C521.5 440.8 443.6 529 276.9 529 L276.9 529 Z M277.3 195 L176.9 195 L176.9 456 L276.4 456 C383.3 456 436.5 398.7 436.5 328 C436.5 242 391.5 195 277.3 195 L277.3 195 Z " />
<glyph glyph-name="germandbls" unicode="&#xdf;" horiz-adv-x="580" d="M297 667 C185.9 667 79 601.7 79 470 L79 0 L158 0 L158 470 C158 555.8 215.9 595 297 595 C377 595 420 565 420 523.6 C420 449.3 253 464.1 253 336 C253 191.4 464 214.2 464 123 C464 83.8 441.1 59 383 59 C340.9 59 308 75 281 105 L235 48 C253 23 310 -11 383 -11 C475 -11 543 40.8 543 123 C543 270.9 333 265.8 333 336 C333 400.5 499 388.5 499 523.6 C499 612.4 404 667 297 667 L297 667 Z " />
<glyph glyph-name="agrave" unicode="&#xe0;" horiz-adv-x="508" d="M334.1 561.2 L198.9 688.3 L146.1 619 L301.4 519 L334.1 561.2 Z M457.8 8 C442.9 33 428 61.1 428 116.7 L428 301 C428 442 336.4 483 225.3 483 C169.1 483 115.8 471.2 73.2 450.3 L90 379.5 C131.8 397.8 177.6 408 218.3 408 C301.2 408 348.3 381.7 348.3 312 L348.3 275 L249.7 275 C114.6 275 43 224.4 43 132 C43 45.8 107.6 -11 193.6 -11 C275.25 -11 322.21 31.92 348.62 72.04 C352.24 38.38 367.65 5.85001 381 -11.3 L457.8 8 Z M209.7 59 C159.9 59 125.8 85.6 125.8 134 C125.8 183 154.4 211.5 250 212 L347.07 212.54 L347.03 148.67 C339.97 131.67 304.27 59 209.7 59 L209.7 59 Z " />
<glyph glyph-name="aacute" unicode="&#xe1;" horiz-adv-x="508" d="M339.4 619 L286.6 688.3 L151.4 561.2 L184.1 519 L339.4 619 Z M457.8 8 C442.9 33 428 61.1 428 116.7 L428 301 C428 442 336.4 483 225.3 483 C169.1 483 115.8 471.2 73.2 450.3 L90 379.5 C131.8 397.8 177.6 408 218.3 408 C301.2 408 348.3 381.7 348.3 312 L348.3 275 L249.7 275 C114.6 275 43 224.4 43 132 C43 45.8 107.6 -11 193.6 -11 C275.25 -11 322.21 31.92 348.62 72.04 C352.24 38.38 367.65 5.85001 381 -11.3 L457.8 8 Z M209.7 59 C159.9 59 125.8 85.6 125.8 134 C125.8 183 154.4 211.5 250 212 L347.07 212.54 L347.03 148.67 C339.97 131.67 304.27 59 209.7 59 L209.7 59 Z " />
<glyph glyph-name="acircumflex" unicode="&#xe2;" horiz-adv-x="508" d="M246.8 605 L337.1 525.1 L374.6 568 L274.5 676.2 L219.3 676.2 L119.2 568 L156.7 525.1 L246.8 605 Z M457.8 8 C442.9 33 428 61.1 428 116.7 L428 301 C428 442 336.4 483 225.3 483 C169.1 483 115.8 471.2 73.2 450.3 L90 379.5 C131.8 397.8 177.6 408 218.3 408 C301.2 408 348.3 381.7 348.3 312 L348.3 275 L249.7 275 C114.6 275 43 224.4 43 132 C43 45.8 107.6 -11 193.6 -11 C275.25 -11 322.21 31.92 348.62 72.04 C352.24 38.38 367.65 5.85001 381 -11.3 L457.8 8 Z M209.7 59 C159.9 59 125.8 85.6 125.8 134 C125.8 183 154.4 211.5 250 212 L347.07 212.54 L347.03 148.67 C339.97 131.67 304.27 59 209.7 59 L209.7 59 Z " />
<glyph glyph-name="atilde" unicode="&#xe3;" horiz-adv-x="508" d="M194.1 587 C222.1 587 264 553 309.6 553 C358.1 553 388.9 579 406.2 624.6 L347.9 647.7 C338.5 630.3 325.6 620 302.5 620 C273.3 620 234.2 655 187 655 C138.5 655 107.7 628 90.4 582.4 L148.7 559.3 C158.1 576.7 171 587 194.1 587 L194.1 587 Z M457.8 8 C442.9 33 428 61.1 428 116.7 L428 301 C428 442 336.4 483 225.3 483 C169.1 483 115.8 471.2 73.2 450.3 L90 379.5 C131.8 397.8 177.6 408 218.3 408 C301.2 408 348.3 381.7 348.3 312 L348.3 275 L249.7 275 C114.6 275 43 224.4 43 132 C43 45.8 107.6 -11 193.6 -11 C275.25 -11 322.21 31.92 348.62 72.04 C352.24 38.38 367.65 5.85001 381 -11.3 L457.8 8 Z M209.7 59 C159.9 59 125.8 85.6 125.8 134 C125.8 183 154.4 211.5 250 212 L347.07 212.54 L347.03 148.67 C339.97 131.67 304.27 59 209.7 59 L209.7 59 Z " />
<glyph glyph-name="adieresis" unicode="&#xe4;" horiz-adv-x="508" d="M155.1 548 C183.1 548 205.1 570.5 205.1 601.3 C205.1 631 183.1 653.5 155.1 653.5 C124.2 653.5 102.2 631 102.2 601.3 C102.2 570.5 125.2 548 155.1 548 L155.1 548 Z M340.8 548 C368.8 548 391.9 570.5 391.9 601.3 C391.9 631 368.8 653.5 340.8 653.5 C311 653.5 288.8 631 288.8 601.3 C288.8 570.5 311.9 548 340.8 548 L340.8 548 Z M457.8 8 C442.9 33 428 61.1 428 116.7 L428 301 C428 442 336.4 483 225.3 483 C169.1 483 115.8 471.2 73.2 450.3 L90 379.5 C131.8 397.8 177.6 408 218.3 408 C301.2 408 348.3 381.7 348.3 312 L348.3 275 L249.7 275 C114.6 275 43 224.4 43 132 C43 45.8 107.6 -11 193.6 -11 C275.25 -11 322.21 31.92 348.62 72.04 C352.24 38.38 367.65 5.85001 381 -11.3 L457.8 8 Z M209.7 59 C159.9 59 125.8 85.6 125.8 134 C125.8 183 154.4 211.5 250 212 L347.07 212.54 L347.03 148.67 C339.97 131.67 304.27 59 209.7 59 L209.7 59 Z " />
<glyph glyph-name="aring" unicode="&#xe5;" horiz-adv-x="508" d="M247 505 C301.2 505 338.7 549 338.7 601 C338.7 653 301.2 697 247 697 C191.8 697 154.3 653 154.3 601 C154.3 549 191.8 505 247 505 L247 505 Z M247 645 C274.7 645 286.8 624 286.8 601 C286.8 579 274.7 558 247 558 C220.2 558 207.1 579 207.1 601 C207.1 624 220.2 645 247 645 L247 645 Z M457.8 8 C442.9 33 428 61.1 428 116.7 L428 301 C428 442 336.4 483 225.3 483 C169.1 483 115.8 471.2 73.2 450.3 L90 379.5 C131.8 397.8 177.6 408 218.3 408 C301.2 408 348.3 381.7 348.3 312 L348.3 275 L249.7 275 C114.6 275 43 224.4 43 132 C43 45.8 107.6 -11 193.6 -11 C275.25 -11 322.21 31.92 348.62 72.04 C352.24 38.38 367.65 5.85001 381 -11.3 L457.8 8 Z M209.7 59 C159.9 59 125.8 85.6 125.8 134 C125.8 183 154.4 211.5 250 212 L347.07 212.54 L347.03 148.67 C339.97 131.67 304.27 59 209.7 59 L209.7 59 Z " />
<glyph glyph-name="ae" unicode="&#xe6;" horiz-adv-x="825" d="M777.3 276 C777.3 396.8 689.9 483 571.2 483 C504.36 483 445.23 453.59 404.49 404.3 C370.1 463.3 302.28 482.99 225.3 482.99 C169.1 482.99 115.8 471.19 73.2 450.29 L90 379.49 C131.8 397.79 177.6 407.99 218.3 407.99 C301.2 407.99 348.3 381.69 348.3 311.99 L348.3 274.99 L249.7 274.99 C114.6 274.99 43 224.39 43 131.99 C43 45.79 107.6 -11.01 193.6 -11.01 C273.32 -11.01 340.35 27.81 379.4 98.55 C418.58 28.93 490.52 -11.01 580.6 -11.01 C664.9 -11.01 718.1 14.79 755.7 43.49 L724 108.99 C697.8 88.99 663.3 62.99 582.4 62.99 C492.98 62.99 435.07 126.73 429.97 215.99 L773.6 215.99 C776.2 237.99 777.3 254.69 777.3 275.99 L777.3 276 Z M431.82 279.99 C440.47 351.51 491.27 410.99 571.2 410.99 C659.1 410.99 694.2 342.49 694.2 279.99 L431.82 279.99 Z M347.4 149.69 C341.4 134.69 306.2 58.99 209.7 58.99 C159.9 58.99 125.8 85.59 125.8 133.99 C125.8 182.99 154.8 211.49 250.4 211.99 L347.5 212.49 L347.4 149.69 Z " />
<glyph glyph-name="ccedilla" unicode="&#xe7;" horiz-adv-x="476" d="M301.8 -38 L311.54 -10.08 C366 -5.33 412.48 17.1 441.4 41.5 L404.7 104.8 C384.8 90.4 351.6 63 290.4 63 C182.3 63 132.8 144 132.8 235 C132.8 326 181.4 410 290.4 410 C341.9 410 382.9 395.2 413.2 376.3 L429.6 445.3 C395.9 467.8 346.1 483 290.2 483 C154.2 483 51 383 51 235 C51 91.37 134.84 3.69 257.79 -9.31999 L233.8 -76 C269.9 -77 296.4 -84 296.4 -110 C296.4 -129.3 279.4 -138 256.8 -138 C241.5 -138 227.3 -133.4 213.1 -125 L192.6 -173 C205.2 -182 234.5 -190 259 -190 C310.6 -190 367.4 -173 367.4 -105.3 C367.4 -64 339.4 -45.4 301.8 -38 L301.8 -38 Z " />
<glyph glyph-name="egrave" unicode="&#xe8;" horiz-adv-x="529" d="M359.4 561.2 L224.2 688.3 L171.4 619 L326.7 519 L359.4 561.2 Z M481.4 276 C481.4 396.8 394 483 275.3 483 C149.5 483 51 378.8 51 234 C51 83 146.5 -11 284.7 -11 C369 -11 422.2 14.8 459.8 43.5 L428.1 109 C401.9 89 367.4 63 286.5 63 C197.08 63 139.17 126.74 134.07 216 L477.7 216 C480.3 238 481.4 254.7 481.4 276 L481.4 276 Z M135.92 280 C144.57 351.52 195.37 411 275.3 411 C363.2 411 398.3 342.5 398.3 280 L135.92 280 Z " />
<glyph glyph-name="eacute" unicode="&#xe9;" horiz-adv-x="529" d="M364.7 619 L311.9 688.3 L176.7 561.2 L209.4 519 L364.7 619 Z M481.4 276 C481.4 396.8 394 483 275.3 483 C149.5 483 51 378.8 51 234 C51 83 146.5 -11 284.7 -11 C369 -11 422.2 14.8 459.8 43.5 L428.1 109 C401.9 89 367.4 63 286.5 63 C197.08 63 139.17 126.74 134.07 216 L477.7 216 C480.3 238 481.4 254.7 481.4 276 L481.4 276 Z M135.92 280 C144.57 351.52 195.37 411 275.3 411 C363.2 411 398.3 342.5 398.3 280 L135.92 280 Z " />
<glyph glyph-name="ecircumflex" unicode="&#xea;" horiz-adv-x="529" d="M272.1 605 L362.4 525.1 L399.9 568 L299.8 676.2 L244.6 676.2 L144.5 568 L182 525.1 L272.1 605 Z M481.4 276 C481.4 396.8 394 483 275.3 483 C149.5 483 51 378.8 51 234 C51 83 146.5 -11 284.7 -11 C369 -11 422.2 14.8 459.8 43.5 L428.1 109 C401.9 89 367.4 63 286.5 63 C197.08 63 139.17 126.74 134.07 216 L477.7 216 C480.3 238 481.4 254.7 481.4 276 L481.4 276 Z M135.92 280 C144.57 351.52 195.37 411 275.3 411 C363.2 411 398.3 342.5 398.3 280 L135.92 280 Z " />
<glyph glyph-name="edieresis" unicode="&#xeb;" horiz-adv-x="529" d="M180.4 548 C208.4 548 230.4 570.5 230.4 601.3 C230.4 631 208.4 653.5 180.4 653.5 C149.5 653.5 127.5 631 127.5 601.3 C127.5 570.5 150.5 548 180.4 548 L180.4 548 Z M366.1 548 C394.1 548 417.2 570.5 417.2 601.3 C417.2 631 394.1 653.5 366.1 653.5 C336.3 653.5 314.1 631 314.1 601.3 C314.1 570.5 337.2 548 366.1 548 L366.1 548 Z M481.4 276 C481.4 396.8 394 483 275.3 483 C149.5 483 51 378.8 51 234 C51 83 146.5 -11 284.7 -11 C369 -11 422.2 14.8 459.8 43.5 L428.1 109 C401.9 89 367.4 63 286.5 63 C197.08 63 139.17 126.74 134.07 216 L477.7 216 C480.3 238 481.4 254.7 481.4 276 L481.4 276 Z M135.92 280 C144.57 351.52 195.37 411 275.3 411 C363.2 411 398.3 342.5 398.3 280 L135.92 280 Z " />
<glyph glyph-name="igrave" unicode="&#xec;" horiz-adv-x="260" d="M174.5 519 L207.2 561.2 L72 688.3 L19.2 619 L174.5 519 Z M181 470 L30 470 L30 400 L100.1 400 L100.1 0 L181 0 L181 470 Z " />
<glyph glyph-name="iacute" unicode="&#xed;" horiz-adv-x="260" d="M76.1 519 L231.4 619 L178.6 688.3 L43.4 561.2 L76.1 519 Z M181 470 L30 470 L30 400 L100.1 400 L100.1 0 L181 0 L181 470 Z " />
<glyph glyph-name="icircumflex" unicode="&#xee;" horiz-adv-x="260" d="M142.5 676.2 L87.3 676.2 L-12.8 568 L24.7 525.1 L114.8 605 L205.1 525.1 L242.6 568 L142.5 676.2 Z M181 470 L30 470 L30 400 L100.1 400 L100.1 0 L181 0 L181 470 Z " />
<glyph glyph-name="idieresis" unicode="&#xef;" horiz-adv-x="260" d="M35.9 653.5 C5 653.5 -17 631 -17 601.3 C-17 570.5 6 548 35.9 548 C63.9 548 85.9 570.5 85.9 601.3 C85.9 631 63.9 653.5 35.9 653.5 L35.9 653.5 Z M192.9 653.5 C163.1 653.5 140.9 631 140.9 601.3 C140.9 570.5 164 548 192.9 548 C220.9 548 244 570.5 244 601.3 C244 631 220.9 653.5 192.9 653.5 L192.9 653.5 Z M181 470 L30 470 L30 400 L100.1 400 L100.1 0 L181 0 L181 470 Z " />
<glyph glyph-name="eth" unicode="&#xf0;" horiz-adv-x="560" d="M505 232.81 C505 233.2 505 233.6 505 234 L505 234.02 C504.36 395.36 452.33 508.16 350.5 584.07 L400.01 631.2 L363.41 671.8 L303.36 614.64 C266.28 635.55 224.14 652.88 177.01 667 L148.01 594.7 C183.77 585.19 216.38 573.66 245.66 559.71 L186.71 503.6 L223.31 463 L295.28 531.51 C342.64 499.42 377.79 457.84 399.49 404.06 C365.01 428.1 322.49 442 271.01 442 C153.01 442 52.01 347 52.01 215 C52.01 82 141.01 -11 271.01 -11 C415.95 -11 503.73 93.47 504.99 231 L505.01 231 L505 232.81 Z M278.01 58 C190.01 58 134.01 120.8 134.01 215 C134.01 317.3 195.01 373 279.01 373 C362.01 373 421.01 312.2 421.01 221 C421.01 125.8 371.01 58 278.01 58 L278.01 58 Z " />
<glyph glyph-name="ntilde" unicode="&#xf1;" horiz-adv-x="565" d="M228.4 587 C256.4 587 298.3 553 343.9 553 C392.4 553 423.2 579 440.5 624.6 L382.2 647.7 C372.8 630.3 359.9 620 336.8 620 C307.6 620 268.5 655 221.3 655 C172.8 655 142 628 124.7 582.4 L183 559.3 C192.4 576.7 205.3 587 228.4 587 L228.4 587 Z M316.4 483 C239.15 483 186.69 445.23 158.63 408.85 C154.01 434.44 145.2 461.41 132.6 481.3 L55 462 C67.1 437 81.5 409 81.5 353.3 L81.5 -1.52588e-05 L162.4 -1.52588e-05 L162.4 331.2 C162.4 331.2 204.4 408 303.2 408 C374.3 408 408.8 361.5 408.8 265 L408.8 -1.52588e-05 L489.7 -1.52588e-05 L489.7 293 C489.7 412.4 425.9 483 316.4 483 L316.4 483 Z " />
<glyph glyph-name="ograve" unicode="&#xf2;" horiz-adv-x="581" d="M344.2 519 L376.9 561.2 L241.7 688.3 L188.9 619 L344.2 519 Z M292.5 483 C154.1 483 51 375.3 51 236 C51 96.1 148.5 -11 287 -11 C425.4 -11 528.7 96.1 528.7 236 C528.7 375.3 431 483 292.5 483 L292.5 483 Z M289.8 64 C193.2 64 132.8 135.2 132.8 236 C132.8 336.3 193.2 408 289.8 408 C386.3 408 446.9 336.1 446.9 235.8 C446.9 135 386.3 64 289.8 64 L289.8 64 Z " />
<glyph glyph-name="oacute" unicode="&#xf3;" horiz-adv-x="581" d="M226.9 519 L382.2 619 L329.4 688.3 L194.2 561.2 L226.9 519 Z M292.5 483 C154.1 483 51 375.3 51 236 C51 96.1 148.5 -11 287 -11 C425.4 -11 528.7 96.1 528.7 236 C528.7 375.3 431 483 292.5 483 L292.5 483 Z M289.8 64 C193.2 64 132.8 135.2 132.8 236 C132.8 336.3 193.2 408 289.8 408 C386.3 408 446.9 336.1 446.9 235.8 C446.9 135 386.3 64 289.8 64 L289.8 64 Z " />
<glyph glyph-name="ocircumflex" unicode="&#xf4;" horiz-adv-x="581" d="M317.3 676.2 L262.1 676.2 L162 568 L199.5 525.1 L289.6 605 L379.9 525.1 L417.4 568 L317.3 676.2 Z M292.5 483 C154.1 483 51 375.3 51 236 C51 96.1 148.5 -11 287 -11 C425.4 -11 528.7 96.1 528.7 236 C528.7 375.3 431 483 292.5 483 L292.5 483 Z M289.8 64 C193.2 64 132.8 135.2 132.8 236 C132.8 336.3 193.2 408 289.8 408 C386.3 408 446.9 336.1 446.9 235.8 C446.9 135 386.3 64 289.8 64 L289.8 64 Z " />
<glyph glyph-name="otilde" unicode="&#xf5;" horiz-adv-x="581" d="M191.5 559.3 C200.9 576.7 213.8 587 236.9 587 C264.9 587 306.8 553 352.4 553 C400.9 553 431.7 579 449 624.6 L390.7 647.7 C381.3 630.3 368.4 620 345.3 620 C316.1 620 277 655 229.8 655 C181.3 655 150.5 628 133.2 582.4 L191.5 559.3 Z M292.5 483 C154.1 483 51 375.3 51 236 C51 96.1 148.5 -11 287 -11 C425.4 -11 528.7 96.1 528.7 236 C528.7 375.3 431 483 292.5 483 L292.5 483 Z M289.8 64 C193.2 64 132.8 135.2 132.8 236 C132.8 336.3 193.2 408 289.8 408 C386.3 408 446.9 336.1 446.9 235.8 C446.9 135 386.3 64 289.8 64 L289.8 64 Z " />
<glyph glyph-name="odieresis" unicode="&#xf6;" horiz-adv-x="581" d="M247.9 601.3 C247.9 631 225.9 653.5 197.9 653.5 C167 653.5 145 631 145 601.3 C145 570.5 168 548 197.9 548 C225.9 548 247.9 570.5 247.9 601.3 L247.9 601.3 Z M434.7 601.3 C434.7 631 411.6 653.5 383.6 653.5 C353.8 653.5 331.6 631 331.6 601.3 C331.6 570.5 354.7 548 383.6 548 C411.6 548 434.7 570.5 434.7 601.3 L434.7 601.3 Z M292.5 483 C154.1 483 51 375.3 51 236 C51 96.1 148.5 -11 287 -11 C425.4 -11 528.7 96.1 528.7 236 C528.7 375.3 431 483 292.5 483 L292.5 483 Z M289.8 64 C193.2 64 132.8 135.2 132.8 236 C132.8 336.3 193.2 408 289.8 408 C386.3 408 446.9 336.1 446.9 235.8 C446.9 135 386.3 64 289.8 64 L289.8 64 Z " />
<glyph glyph-name="divide" unicode="&#xf7;" horiz-adv-x="543" d="M272 333 C306 333 334 361 334 395 C334 429 306 457 272 457 C237 457 209 429 209 395 C209 361 237 333 272 333 L272 333 Z M61 202 L482 202 L482 272 L61 272 L61 202 Z M272 17 C306 17 334 45 334 79 C334 113 306 141 272 141 C237 141 209 113 209 79 C209 45 237 17 272 17 L272 17 Z " />
<glyph glyph-name="oslash" unicode="&#xf8;" horiz-adv-x="582" d="M532.3 459.5 L488.3 499.5 L433.2 438.63 C395.03 466.72 347.35 483 293.5 483 C155.1 483 52 375.3 52 236 C52 173.93 71.19 118.31 104.64 75.64 L49.3 14.5 L93.3 -29.5 L149.1 32.66 C187.1 4.98001 234.49 -11 287.99 -11 C426.39 -11 529.69 96.1 529.69 236 C529.69 298.26 510.17 354.2 476.22 397.04 L532.3 459.5 Z M133.79 236 C133.79 336.3 194.19 408 290.79 408 C326.15 408 356.69 398.34 381.19 381.18 L158.95 135.65 C142.63 163.21 133.79 197.44 133.79 236 L133.79 236 Z M447.89 235.8 C447.89 135 387.29 64 290.79 64 C255.62 64 225.25 73.44 200.84 90.3 L422.17 336.84 C438.84 309.07 447.89 274.55 447.89 235.8 L447.89 235.8 Z " />
<glyph glyph-name="ugrave" unicode="&#xf9;" horiz-adv-x="556" d="M362 561.2 L226.8 688.3 L174 619 L329.3 519 L362 561.2 Z M499.4 8 C487.3 33 472.9 61 472.9 116.7 L472.9 470 L392 470 L392 159.5 C392 159.5 356.4 61.1 251.4 61.1 C185.8 61.1 154.9 107.6 154.9 204.1 L154.9 470 L74 470 L74 176.1 C74 56.7 134.1 -13.9 238.3 -13.9 C316.76 -13.9 366.84 28.36 394.15 71.19 C398.13 42.8 407.53 11.21 421.8 -11.3 L499.4 8 Z " />
<glyph glyph-name="uacute" unicode="&#xfa;" horiz-adv-x="556" d="M367.3 619 L314.5 688.3 L179.3 561.2 L212 519 L367.3 619 Z M499.4 8 C487.3 33 472.9 61 472.9 116.7 L472.9 470 L392 470 L392 159.5 C392 159.5 356.4 61.1 251.4 61.1 C185.8 61.1 154.9 107.6 154.9 204.1 L154.9 470 L74 470 L74 176.1 C74 56.7 134.1 -13.9 238.3 -13.9 C316.76 -13.9 366.84 28.36 394.15 71.19 C398.13 42.8 407.53 11.21 421.8 -11.3 L499.4 8 Z " />
<glyph glyph-name="ucircumflex" unicode="&#xfb;" horiz-adv-x="556" d="M274.7 605 L365 525.1 L402.5 568 L302.4 676.2 L247.2 676.2 L147.1 568 L184.6 525.1 L274.7 605 Z M499.4 8 C487.3 33 472.9 61 472.9 116.7 L472.9 470 L392 470 L392 159.5 C392 159.5 356.4 61.1 251.4 61.1 C185.8 61.1 154.9 107.6 154.9 204.1 L154.9 470 L74 470 L74 176.1 C74 56.7 134.1 -13.9 238.3 -13.9 C316.76 -13.9 366.84 28.36 394.15 71.19 C398.13 42.8 407.53 11.21 421.8 -11.3 L499.4 8 Z " />
<glyph glyph-name="udieresis" unicode="&#xfc;" horiz-adv-x="556" d="M183 548 C211 548 233 570.5 233 601.3 C233 631 211 653.5 183 653.5 C152.1 653.5 130.1 631 130.1 601.3 C130.1 570.5 153.1 548 183 548 L183 548 Z M368.7 548 C396.7 548 419.8 570.5 419.8 601.3 C419.8 631 396.7 653.5 368.7 653.5 C338.9 653.5 316.7 631 316.7 601.3 C316.7 570.5 339.8 548 368.7 548 L368.7 548 Z M499.4 8 C487.3 33 472.9 61 472.9 116.7 L472.9 470 L392 470 L392 159.5 C392 159.5 356.4 61.1 251.4 61.1 C185.8 61.1 154.9 107.6 154.9 204.1 L154.9 470 L74 470 L74 176.1 C74 56.7 134.1 -13.9 238.3 -13.9 C316.76 -13.9 366.84 28.36 394.15 71.19 C398.13 42.8 407.53 11.21 421.8 -11.3 L499.4 8 Z " />
<glyph glyph-name="yacute" unicode="&#xfd;" horiz-adv-x="507" d="M356.2 619 L303.4 688.3 L168.2 561.2 L200.9 519 L356.2 619 Z M478.9 470 L390.9 470 L258.79 86.95 L120.2 470 L29 470 L209 0 L226 0 L195 -71 C172.2 -123.2 129.1 -123.3 94.5 -123.3 L94.5 -194.3 C160.7 -194.3 230.8 -183.9 272 -79 L303 -1.52588e-05 L302.8 -1.52588e-05 L478.9 470 Z " />
<glyph glyph-name="thorn" unicode="&#xfe;" horiz-adv-x="562" d="M311.3 483.8 C254.58 483.8 194.55 458.72 159 413.14 L159 661.2 L79 661.2 L79 -190.2 L159 -190.2 L159 3.74001 C189.76 -5.62 221.54 -10.2 265.3 -10.2 C413.6 -10.2 508.4 100.2 508.4 245.6 C508.4 394.7 440.4 483.8 311.3 483.8 L311.3 483.8 Z M265.3 60.8 C214.1 60.8 182.53 70.34 159 82.54 L159 332.28 C181.17 368.47 229.39 409.8 297.9 409.8 C384.1 409.8 426.7 351.9 426.7 245.6 C426.7 143.4 363.9 60.8 265.3 60.8 L265.3 60.8 Z " />
<glyph glyph-name="ydieresis" unicode="&#xff;" horiz-adv-x="507" d="M171.9 548 C199.9 548 221.9 570.5 221.9 601.3 C221.9 631 199.9 653.5 171.9 653.5 C141 653.5 119 631 119 601.3 C119 570.5 142 548 171.9 548 L171.9 548 Z M357.6 548 C385.6 548 408.7 570.5 408.7 601.3 C408.7 631 385.6 653.5 357.6 653.5 C327.8 653.5 305.6 631 305.6 601.3 C305.6 570.5 328.7 548 357.6 548 L357.6 548 Z M478.9 470 L390.9 470 L258.79 86.95 L120.2 470 L29 470 L209 0 L226 0 L195 -71 C172.2 -123.2 129.1 -123.3 94.5 -123.3 L94.5 -194.3 C160.7 -194.3 230.8 -183.9 272 -79 L303 -1.52588e-05 L302.8 -1.52588e-05 L478.9 470 Z " />
<glyph glyph-name="Amacron" unicode="&#x100;" horiz-adv-x="602" d="M430 770 L174.5 770 L174.5 703 L430 703 L430 770 Z M486.4 0 L575.4 0 L342.2 642 L257.7 642 L29 0 L115 0 L174.81 179 L424.23 179 L486.4 0 Z M198.2 249 L281.2 497.4 L297.44 548.22 L313.8 497 L399.92 249 L198.2 249 Z " />
<glyph glyph-name="amacron" unicode="&#x101;" horiz-adv-x="508" d="M370.6 629 L124.2 629 L124.2 562 L370.6 562 L370.6 629 Z M457.8 8 C442.9 33 428 61.1 428 116.7 L428 301 C428 442 336.4 483 225.3 483 C169.1 483 115.8 471.2 73.2 450.3 L90 379.5 C131.8 397.8 177.6 408 218.3 408 C301.2 408 348.3 381.7 348.3 312 L348.3 275 L249.7 275 C114.6 275 43 224.4 43 132 C43 45.8 107.6 -11 193.6 -11 C275.25 -11 322.21 31.92 348.62 72.04 C352.24 38.38 367.65 5.85001 381 -11.3 L457.8 8 Z M209.7 59 C159.9 59 125.8 85.6 125.8 134 C125.8 183 154.4 211.5 250 212 L347.07 212.54 L347.03 148.67 C339.97 131.67 304.27 59 209.7 59 L209.7 59 Z " />
<glyph glyph-name="Abreve" unicode="&#x102;" horiz-adv-x="602" d="M302.6 677 C376.2 677 423.2 727 431.9 780.9 L363.6 788.4 C354.9 759.1 333.5 741 302.6 741 C271.7 741 250.3 759.1 241.6 788.4 L173.3 780.9 C182 727 229 677 302.6 677 L302.6 677 Z M486.4 0 L575.4 0 L342.2 642 L257.7 642 L29 0 L115 0 L174.81 179 L424.23 179 L486.4 0 Z M198.2 249 L281.2 497.4 L297.44 548.22 L313.8 497 L399.92 249 L198.2 249 Z " />
<glyph glyph-name="abreve" unicode="&#x103;" horiz-adv-x="508" d="M247.2 530 C335.3 530 372.1 599 372.1 663 L315 669 C312.1 625 295.1 591 249.1 591 C202.8 591 185 624 179.4 669 L122 663 C122 595 158.8 530 247.2 530 L247.2 530 Z M457.8 8 C442.9 33 428 61.1 428 116.7 L428 301 C428 442 336.4 483 225.3 483 C169.1 483 115.8 471.2 73.2 450.3 L90 379.5 C131.8 397.8 177.6 408 218.3 408 C301.2 408 348.3 381.7 348.3 312 L348.3 275 L249.7 275 C114.6 275 43 224.4 43 132 C43 45.8 107.6 -11 193.6 -11 C275.25 -11 322.21 31.92 348.62 72.04 C352.24 38.38 367.65 5.85001 381 -11.3 L457.8 8 Z M209.7 59 C159.9 59 125.8 85.6 125.8 134 C125.8 183 154.4 211.5 250 212 L347.07 212.54 L347.03 148.67 C339.97 131.67 304.27 59 209.7 59 L209.7 59 Z " />
<glyph glyph-name="Aogonek" unicode="&#x104;" horiz-adv-x="602" d="M564.6 -103 C557.6 -109.3 541.8 -120 525 -120 C509.8 -120 494.7 -113 494.7 -90 C494.7 -56 525.3 -23.9 575.4 0 L342.2 642 L257.7 642 L29 0 L115 0 L174.81 179 L424.23 179 L486.4 0 C449.2 -27.6 418.9 -66.2 418.9 -106.8 C418.9 -161 459.3 -190 509.8 -190 C546 -190 576.7 -173 593.2 -156 L564.6 -103 Z M198.2 249 L281.2 497.4 L297.44 548.22 L313.8 497 L399.92 249 L198.2 249 Z " />
<glyph glyph-name="aogonek" unicode="&#x105;" horiz-adv-x="508" d="M390 -120 C374.8 -120 359.7 -113 359.7 -90 C359.7 -51.8 396.1 -16.5 458.2 8 L457.73 8.10001 C442.86 33.08 428 61.18 428 116.7 L428 301 C428 442 336.4 483 225.3 483 C169.1 483 115.8 471.2 73.2 450.3 L90 379.5 C131.8 397.8 177.6 408 218.3 408 C301.2 408 348.3 381.7 348.3 312 L348.3 275 L249.7 275 C114.6 275 43 224.4 43 132 C43 45.8 107.6 -11 193.6 -11 C275.25 -11 322.21 31.92 348.62 72.04 C350.87 51.07 357.7 30.54 365.76 13.89 C315.21 -13.8 283.9 -58.56 283.9 -106.8 C283.9 -161 324.3 -190 374.8 -190 C411 -190 441.7 -173 458.2 -156 L429.6 -103 C422.6 -109.3 406.8 -120 390 -120 L390 -120 Z M209.7 59 C159.9 59 125.8 85.6 125.8 134 C125.8 183 154.4 211.5 250 212 L347.07 212.54 L347.03 148.67 C339.97 131.67 304.27 59 209.7 59 L209.7 59 Z " />
<glyph glyph-name="Cacute" unicode="&#x106;" horiz-adv-x="587" d="M272.5 670 L460.6 721.9 L428.2 804 L256.4 719.4 L272.5 670 Z M357.9 -11 C459.1 -11 519 23 554.2 55 L513 117 C478.2 86.4 438.7 64 358.3 64 C237.6 64 140.2 162.5 140.2 321 C140.2 481.9 238.4 579 363.9 579 C420.8 579 463.7 562.7 504.3 532 L549.1 595 C507.3 628 447.4 654 363.7 654 C190.7 654 56 514.5 56 321 C56 126.9 177.6 -11 357.9 -11 L357.9 -11 Z " />
<glyph glyph-name="cacute" unicode="&#x107;" horiz-adv-x="476" d="M216.7 519 L372 619 L319.2 688.3 L184 561.2 L216.7 519 Z M429.6 445.3 C395.9 467.8 346.1 483 290.2 483 C154.2 483 51 383 51 235 C51 79 149.9 -11 290.4 -11 C353.9 -11 408.8 14 441.4 41.5 L404.7 104.8 C384.8 90.4 351.6 63 290.4 63 C182.3 63 132.8 144 132.8 235 C132.8 326 181.4 410 290.4 410 C341.9 410 382.9 395.2 413.2 376.3 L429.6 445.3 Z " />
<glyph glyph-name="Cdotaccent" unicode="&#x10a;" horiz-adv-x="587" d="M351.6 694 C381.2 694 405 718 405 749 C405 780 381.2 804 351.6 804 C320.2 804 296.5 780 296.5 749 C296.5 718 321.1 694 351.6 694 L351.6 694 Z M357.9 -11 C459.1 -11 519 23 554.2 55 L513 117 C478.2 86.4 438.7 64 358.3 64 C237.6 64 140.2 162.5 140.2 321 C140.2 481.9 238.4 579 363.9 579 C420.8 579 463.7 562.7 504.3 532 L549.1 595 C507.3 628 447.4 654 363.7 654 C190.7 654 56 514.5 56 321 C56 126.9 177.6 -11 357.9 -11 L357.9 -11 Z " />
<glyph glyph-name="cdotaccent" unicode="&#x10b;" horiz-adv-x="476" d="M334.8 608 C334.8 640 310.2 665 279.7 665 C247.3 665 222.7 640 222.7 608 C222.7 576 248.3 551 279.7 551 C310.2 551 334.8 576 334.8 608 L334.8 608 Z M429.6 445.3 C395.9 467.8 346.1 483 290.2 483 C154.2 483 51 383 51 235 C51 79 149.9 -11 290.4 -11 C353.9 -11 408.8 14 441.4 41.5 L404.7 104.8 C384.8 90.4 351.6 63 290.4 63 C182.3 63 132.8 144 132.8 235 C132.8 326 181.4 410 290.4 410 C341.9 410 382.9 395.2 413.2 376.3 L429.6 445.3 Z " />
<glyph glyph-name="Ccaron" unicode="&#x10c;" horiz-adv-x="587" d="M379.2 674.8 L478.5 757.6 L451.8 799.6 L351.5 737.6 L251.6 799.6 L224.9 757.6 L324.2 674.8 L379.2 674.8 Z M357.9 -11 C459.1 -11 519 23 554.2 55 L513 117 C478.2 86.4 438.7 64 358.3 64 C237.6 64 140.2 162.5 140.2 321 C140.2 481.9 238.4 579 363.9 579 C420.8 579 463.7 562.7 504.3 532 L549.1 595 C507.3 628 447.4 654 363.7 654 C190.7 654 56 514.5 56 321 C56 126.9 177.6 -11 357.9 -11 L357.9 -11 Z " />
<glyph glyph-name="ccaron" unicode="&#x10d;" horiz-adv-x="476" d="M253.7 528.1 L308.9 528.1 L409 636.3 L371.5 679.2 L281.2 599.3 L191.1 679.2 L153.6 636.3 L253.7 528.1 Z M429.6 445.3 C395.9 467.8 346.1 483 290.2 483 C154.2 483 51 383 51 235 C51 79 149.9 -11 290.4 -11 C353.9 -11 408.8 14 441.4 41.5 L404.7 104.8 C384.8 90.4 351.6 63 290.4 63 C182.3 63 132.8 144 132.8 235 C132.8 326 181.4 410 290.4 410 C341.9 410 382.9 395.2 413.2 376.3 L429.6 445.3 Z " />
<glyph glyph-name="Dcaron" unicode="&#x10e;" horiz-adv-x="664" d="M330.4 674.8 L429.7 757.6 L403 799.6 L302.7 737.6 L202.8 799.6 L176.1 757.6 L275.4 674.8 L330.4 674.8 Z M283.6 642 L96 642 L96 0 L292.7 0 C486 0 606.4 135.3 606.4 325 C606.4 514.6 493.2 642 283.6 642 L283.6 642 Z M295.9 73 L176.9 73 L176.9 567 L284 567 C446.3 567 521.2 467.7 521.2 323 C521.2 176.3 445 73 295.9 73 L295.9 73 Z " />
<glyph glyph-name="dcaron" unicode="&#x10f;" horiz-adv-x="595" d="M619.2 683.5 L539.3 683.5 C545.5 668 549.1 640.1 549.1 625 C549.1 607 546.8 568.2 532.5 533 L579.2 511.3 C610 546.6 624 599.4 624 637.2 C624 660 622.8 672 619.2 683.5 L619.2 683.5 Z M482.6 661 L402.6 661 L402.6 464 C371.27 475.78 338.5 483 292.5 483 C155.3 483 52 402.6 52 232 C52 90.4 128 -11 257.1 -11 C315.16 -11 372.7 15.28 405.94 62.92 C410.43 36.61 419.39 9.21002 432.4 -11.3 L509.1 8.00003 C497 33 482.6 61 482.6 116.7 L482.6 661 Z M271 63 C184.8 64.3 133.7 133.8 133.7 232 C133.7 359.4 205 412 292.5 412 C345.52 412 378.07 400.31 402.6 387.09 L402.6 140.33 C380.66 104.13 336.27 62.02 271 63 L271 63 Z " />
<glyph glyph-name="Dcroat" unicode="&#x110;" horiz-adv-x="671" d="M290.6 642 L103 642 L103 356.2 L29.1 356.2 L29.1 284.7 L103 284.7 L103 0 L299.7 0 C493 0 613.4 135.3 613.4 325 C613.4 514.6 500.2 642 290.6 642 L290.6 642 Z M302.9 73 L183.9 73 L183.9 284.7 L288.15 284.7 L288.15 356.2 L183.9 356.2 L183.9 567 L291 567 C453.3 567 528.2 467.7 528.2 323 C528.2 176.3 452 73 302.9 73 L302.9 73 Z " />
<glyph glyph-name="dcroat" unicode="&#x111;" horiz-adv-x="566" d="M535.4 542 L535.4 607 L482.6 607 L482.6 661 L402.6 661 L402.6 607 L299.9 607 L299.9 542 L402.6 542 L402.6 464 C371.27 475.78 338.5 483 292.5 483 C155.3 483 52 402.6 52 232 C52 90.4 128 -11 257.1 -11 C315.16 -11 372.7 15.28 405.94 62.92 C410.43 36.61 419.39 9.21001 432.4 -11.3 L509.1 8.00002 C497 33 482.6 61 482.6 116.7 L482.6 542 L535.4 542 Z M271 63 C184.8 64.3 133.7 133.8 133.7 232 C133.7 359.4 205 412 292.5 412 C345.52 412 378.07 400.31 402.6 387.09 L402.6 140.33 C380.66 104.13 336.27 62.02 271 63 L271 63 Z " />
<glyph glyph-name="Emacron" unicode="&#x112;" horiz-adv-x="540" d="M423.1 770 L167.6 770 L167.6 703 L423.1 703 L423.1 770 Z M176 74 L176 293 L442.7 293 L442.7 367 L176 367 L176 567 L475.7 567 L475.7 642 L96 642 L96 0 L485.1 0 L485.1 74 L176 74 Z " />
<glyph glyph-name="emacron" unicode="&#x113;" horiz-adv-x="529" d="M395.9 629 L149.5 629 L149.5 562 L395.9 562 L395.9 629 Z M481.4 276 C481.4 396.8 394 483 275.3 483 C149.5 483 51 378.8 51 234 C51 83 146.5 -11 284.7 -11 C369 -11 422.2 14.8 459.8 43.5 L428.1 109 C401.9 89 367.4 63 286.5 63 C197.08 63 139.17 126.74 134.07 216 L477.7 216 C480.3 238 481.4 254.7 481.4 276 L481.4 276 Z M135.92 280 C144.57 351.52 195.37 411 275.3 411 C363.2 411 398.3 342.5 398.3 280 L135.92 280 Z " />
<glyph glyph-name="Edotaccent" unicode="&#x116;" horiz-adv-x="540" d="M296.2 694 C325.8 694 349.6 718 349.6 749 C349.6 780 325.8 804 296.2 804 C264.8 804 241.1 780 241.1 749 C241.1 718 265.7 694 296.2 694 L296.2 694 Z M176 74 L176 293 L442.7 293 L442.7 367 L176 367 L176 567 L475.7 567 L475.7 642 L96 642 L96 0 L485.1 0 L485.1 74 L176 74 Z " />
<glyph glyph-name="edotaccent" unicode="&#x117;" horiz-adv-x="529" d="M272.4 551 C302.9 551 327.5 576 327.5 608 C327.5 640 302.9 665 272.4 665 C240 665 215.4 640 215.4 608 C215.4 576 241 551 272.4 551 L272.4 551 Z M481.4 276 C481.4 396.8 394 483 275.3 483 C149.5 483 51 378.8 51 234 C51 83 146.5 -11 284.7 -11 C369 -11 422.2 14.8 459.8 43.5 L428.1 109 C401.9 89 367.4 63 286.5 63 C197.08 63 139.17 126.74 134.07 216 L477.7 216 C480.3 238 481.4 254.7 481.4 276 L481.4 276 Z M135.92 280 C144.57 351.52 195.37 411 275.3 411 C363.2 411 398.3 342.5 398.3 280 L135.92 280 Z " />
<glyph glyph-name="Eogonek" unicode="&#x118;" horiz-adv-x="540" d="M474.3 -103 C467.3 -109.3 451.5 -120 434.7 -120 C419.5 -120 404.4 -113 404.4 -90 C404.4 -56 435 -23.9 485.1 0 L485.1 74 L176 74 L176 293 L442.7 293 L442.7 367 L176 367 L176 567 L475.7 567 L475.7 642 L96 642 L96 0 L396.1 0 C358.9 -27.6 328.6 -66.2 328.6 -106.8 C328.6 -161 369 -190 419.5 -190 C455.7 -190 486.4 -173 502.9 -156 L474.3 -103 Z " />
<glyph glyph-name="eogonek" unicode="&#x119;" horiz-adv-x="529" d="M481.4 276 C481.4 396.8 394 483 275.3 483 C149.5 483 51 378.8 51 234 C51 83 146.5 -11 284.7 -11 C293.05 -11 301.09 -10.75 308.85 -10.27 C283.93 -35.63 268.9 -67.35 268.9 -103 C268.9 -161 309.3 -190 359.8 -190 C396 -190 426.7 -173 443.2 -156 L414.6 -103 C407.6 -109.3 391.8 -120 375 -120 C359.8 -120 344.7 -113 344.7 -82.5 C344.7 -51.09 368.93 -14.21 411.6 14.32 C430.25 22.92 446.06 33.01 459.8 43.5 L428.1 109 C401.9 89 367.4 63 286.5 63 C197.08 63 139.17 126.74 134.07 216 L477.7 216 C480.3 238 481.4 254.7 481.4 276 L481.4 276 Z M135.92 280 C144.57 351.52 195.37 411 275.3 411 C363.2 411 398.3 342.5 398.3 280 L135.92 280 Z " />
<glyph glyph-name="Ecaron" unicode="&#x11a;" horiz-adv-x="540" d="M323.8 674.8 L423.1 757.6 L396.4 799.6 L296.1 737.6 L196.2 799.6 L169.5 757.6 L268.8 674.8 L323.8 674.8 Z M176 74 L176 293 L442.7 293 L442.7 367 L176 367 L176 567 L475.7 567 L475.7 642 L96 642 L96 0 L485.1 0 L485.1 74 L176 74 Z " />
<glyph glyph-name="ecaron" unicode="&#x11b;" horiz-adv-x="529" d="M301.6 528.1 L401.7 636.3 L364.2 679.2 L273.9 599.3 L183.8 679.2 L146.3 636.3 L246.4 528.1 L301.6 528.1 Z M481.4 276 C481.4 396.8 394 483 275.3 483 C149.5 483 51 378.8 51 234 C51 83 146.5 -11 284.7 -11 C369 -11 422.2 14.8 459.8 43.5 L428.1 109 C401.9 89 367.4 63 286.5 63 C197.08 63 139.17 126.74 134.07 216 L477.7 216 C480.3 238 481.4 254.7 481.4 276 L481.4 276 Z M135.92 280 C144.57 351.52 195.37 411 275.3 411 C363.2 411 398.3 342.5 398.3 280 L135.92 280 Z " />
<glyph glyph-name="Gbreve" unicode="&#x11e;" horiz-adv-x="645" d="M349.6 677 C423.2 677 470.2 727 478.9 780.9 L410.6 788.4 C401.9 759.1 380.5 741 349.6 741 C318.7 741 297.3 759.1 288.6 788.4 L220.3 780.9 C229 727 276 677 349.6 677 L349.6 677 Z M368.9 332 L368.9 255 L495.4 255 L495.4 86.15 C464.26 72.82 423.97 64 370.1 64 C217 64 140.2 167.4 140.2 320 C140.2 484.8 244.9 578 365.7 578 C437.5 578 483.6 559.6 528.5 528 L571.3 596 C531.3 627 463.9 654 365.8 654 C200.5 654 56 528.3 56 320 C56 113.1 193.7 -11 368.3 -11 C453.2 -11 526.8 11 577 39 L577 332 L368.9 332 Z " />
<glyph glyph-name="gbreve" unicode="&#x11f;" horiz-adv-x="527" d="M271.5 530 C359.6 530 396.4 599 396.4 663 L339.3 669 C336.4 625 319.4 591 273.4 591 C227.1 591 209.3 624 203.7 669 L146.3 663 C146.3 595 183.1 530 271.5 530 L271.5 530 Z M316.6 83 L227.1 83 C180.4 83 167 109 167 134 C167 143.95 169.15 152.15 175.58 160.38 C199.98 151.41 227.8 146.6 258.3 146.6 C375.2 146.6 454 213.9 454 314.8 C454 351.93 443.59 384.52 424.76 410.87 C474.03 436.6 503.52 473.33 506.8 534.1 L425.7 546.6 C425.7 497.01 413.33 469.06 381.03 451.96 C349.65 471.9 309.49 483 263.2 483 C146.4 483 67.5 415.7 67.5 314.8 C67.5 267.8 84.15 228.08 113.47 199.07 C91.64 171.35 87.5 148.29 87.5 130.31 C87.5 97.63 99.02 71.47 118.67 52.45 C75.01 33.36 44 -4.83998 44 -56.39 C44 -139.39 118.3 -194.29 265.8 -194.29 C404.9 -194.29 499.2 -148.49 499.2 -51.39 C499.2 54.01 401.1 83.01 316.6 83.01 L316.6 83 Z M260.9 415.01 C329.7 415.01 375.8 374.91 375.8 314.81 C375.8 254.51 329.5 214.31 260.8 214.31 C192 214.31 145.9 254.51 145.9 314.81 C145.9 375.31 191.2 415.01 260.9 415.01 L260.9 415.01 Z M265.8 -122.29 C178.7 -122.29 128.1 -97.39 128.1 -53.59 C128.1 1.91 182.9 15.91 232.3 15.91 L315.1 15.91 C365.1 15.91 415.2 -0.690002 415.2 -51.39 C415.2 -100.59 362.1 -122.29 265.8 -122.29 L265.8 -122.29 Z " />
<glyph glyph-name="Gdotaccent" unicode="&#x120;" horiz-adv-x="645" d="M350.1 694 C379.7 694 403.5 718 403.5 749 C403.5 780 379.7 804 350.1 804 C318.7 804 295 780 295 749 C295 718 319.6 694 350.1 694 L350.1 694 Z M368.9 332 L368.9 255 L495.4 255 L495.4 86.15 C464.26 72.82 423.97 64 370.1 64 C217 64 140.2 167.4 140.2 320 C140.2 484.8 244.9 578 365.7 578 C437.5 578 483.6 559.6 528.5 528 L571.3 596 C531.3 627 463.9 654 365.8 654 C200.5 654 56 528.3 56 320 C56 113.1 193.7 -11 368.3 -11 C453.2 -11 526.8 11 577 39 L577 332 L368.9 332 Z " />
<glyph glyph-name="gdotaccent" unicode="&#x121;" horiz-adv-x="527" d="M271.4 551 C301.9 551 326.5 576 326.5 608 C326.5 640 301.9 665 271.4 665 C239 665 214.4 640 214.4 608 C214.4 576 240 551 271.4 551 L271.4 551 Z M316.6 83 L227.1 83 C180.4 83 167 109 167 134 C167 143.95 169.15 152.15 175.58 160.38 C199.98 151.41 227.8 146.6 258.3 146.6 C375.2 146.6 454 213.9 454 314.8 C454 351.93 443.59 384.52 424.76 410.87 C474.03 436.6 503.52 473.33 506.8 534.1 L425.7 546.6 C425.7 497.01 413.33 469.06 381.03 451.96 C349.65 471.9 309.49 483 263.2 483 C146.4 483 67.5 415.7 67.5 314.8 C67.5 267.8 84.15 228.08 113.47 199.07 C91.64 171.35 87.5 148.29 87.5 130.31 C87.5 97.63 99.02 71.47 118.67 52.45 C75.01 33.36 44 -4.83998 44 -56.39 C44 -139.39 118.3 -194.29 265.8 -194.29 C404.9 -194.29 499.2 -148.49 499.2 -51.39 C499.2 54.01 401.1 83.01 316.6 83.01 L316.6 83 Z M260.9 415.01 C329.7 415.01 375.8 374.91 375.8 314.81 C375.8 254.51 329.5 214.31 260.8 214.31 C192 214.31 145.9 254.51 145.9 314.81 C145.9 375.31 191.2 415.01 260.9 415.01 L260.9 415.01 Z M265.8 -122.29 C178.7 -122.29 128.1 -97.39 128.1 -53.59 C128.1 1.91 182.9 15.91 232.3 15.91 L315.1 15.91 C365.1 15.91 415.2 -0.690002 415.2 -51.39 C415.2 -100.59 362.1 -122.29 265.8 -122.29 L265.8 -122.29 Z " />
<glyph glyph-name="Gcommaaccent" unicode="&#x122;" horiz-adv-x="645" d="M368.9 332 L368.9 255 L495.4 255 L495.4 86.15 C464.26 72.82 423.97 64 370.1 64 C217 64 140.2 167.4 140.2 320 C140.2 484.8 244.9 578 365.7 578 C437.5 578 483.6 559.6 528.5 528 L571.3 596 C531.3 627 463.9 654 365.8 654 C200.5 654 56 528.3 56 320 C56 113.1 193.7 -11 368.3 -11 C453.2 -11 526.8 11 577 39 L577 332 L368.9 332 Z M355.9 -42 C324 -41.9 298.3 -68.6 298.3 -100.7 C298.3 -129.9 320.9 -155 350.1 -158 C349.6 -180.9 337.6 -209.2 316.9 -232.4 L345.1 -253.4 C384.8 -216.9 413.4 -163.6 413.4 -100.7 C413.4 -68.6 387.8 -42.1 355.9 -42 L355.9 -42 Z " />
<glyph glyph-name="gcommaaccent" unicode="&#x123;" horiz-adv-x="527" d="M271.3 528 C303.2 527.9 328.9 554.6 328.9 586.7 C328.9 615.9 306.3 641 277.1 644 C277.6 666.9 289.6 695.2 310.3 718.4 L282.1 739.4 C242.4 702.9 213.8 649.6 213.8 586.7 C213.8 554.6 239.4 528.1 271.3 528 L271.3 528 Z M316.6 83 L227.1 83 C180.4 83 167 109 167 134 C167 143.95 169.15 152.15 175.58 160.38 C199.98 151.41 227.8 146.6 258.3 146.6 C375.2 146.6 454 213.9 454 314.8 C454 351.93 443.59 384.52 424.76 410.87 C474.03 436.6 503.52 473.33 506.8 534.1 L425.7 546.6 C425.7 497.01 413.33 469.06 381.03 451.96 C349.65 471.9 309.49 483 263.2 483 C146.4 483 67.5 415.7 67.5 314.8 C67.5 267.8 84.15 228.08 113.47 199.07 C91.64 171.35 87.5 148.29 87.5 130.31 C87.5 97.63 99.02 71.47 118.67 52.45 C75.01 33.36 44 -4.84 44 -56.39 C44 -139.39 118.3 -194.29 265.8 -194.29 C404.9 -194.29 499.2 -148.49 499.2 -51.39 C499.2 54.01 401.1 83.01 316.6 83.01 L316.6 83 Z M260.9 415.01 C329.7 415.01 375.8 374.91 375.8 314.81 C375.8 254.51 329.5 214.31 260.8 214.31 C192 214.31 145.9 254.51 145.9 314.81 C145.9 375.31 191.2 415.01 260.9 415.01 L260.9 415.01 Z M265.8 -122.29 C178.7 -122.29 128.1 -97.39 128.1 -53.59 C128.1 1.90999 182.9 15.91 232.3 15.91 L315.1 15.91 C365.1 15.91 415.2 -0.690018 415.2 -51.39 C415.2 -100.59 362.1 -122.29 265.8 -122.29 L265.8 -122.29 Z " />
<glyph glyph-name="Hbar" unicode="&#x126;" horiz-adv-x="685" d="M645.4 509 L585.8 509 L585.8 642 L504.9 642 L504.9 509 L178.9 509 L178.9 642 L98 642 L98 509 L39.4 509 L39.4 446 L98 446 L98 0 L178.9 0 L178.9 290 L504.9 290 L504.9 0 L585.8 0 L585.8 446 L645.4 446 L645.4 509 Z M504.9 365 L178.9 365 L178.9 446 L504.9 446 L504.9 365 Z " />
<glyph glyph-name="hbar" unicode="&#x127;" horiz-adv-x="561" d="M314.4 483 C239.74 483 188.34 447.48 159.9 412.15 L159.9 542 L261.7 542 L261.7 607 L159.9 607 L159.9 661 L79 661 L79 607 L26.2 607 L26.2 542 L79 542 L79 0 L159.9 0 L159.9 331.2 C159.9 331.2 201.9 408 300.7 408 C372 408 406.1 361.5 406.1 265 L406.1 0 L487 0 L487 293 C487 412.4 423 483 314.4 483 L314.4 483 Z " />
<glyph glyph-name="Itilde" unicode="&#x128;" horiz-adv-x="344" d="M118.45 724 C143.65 724 181.36 690 222.4 690 C266.05 690 293.77 716 309.34 761.6 L256.87 784.7 C248.41 767.3 236.8 757 216.01 757 C189.73 757 154.54 792 112.06 792 C68.41 792 40.69 765 25.12 719.4 L77.59 696.3 C86.05 713.7 97.66 724 118.45 724 L118.45 724 Z M287.5 642 L55 642 L55 572 L130.8 572 L130.8 70 L55 70 L55 0 L287.5 0 L287.5 70 L211.7 70 L211.7 572 L287.5 572 L287.5 642 Z " />
<glyph glyph-name="itilde" unicode="&#x129;" horiz-adv-x="261" d="M23.86 559.3 C32.04 576.7 43.27 587 63.36 587 C87.72 587 124.18 553 163.85 553 C206.04 553 232.84 579 247.89 624.6 L197.17 647.7 C188.99 630.3 177.77 620 157.67 620 C132.27 620 98.25 655 57.19 655 C14.99 655 -11.81 628 -26.86 582.4 L23.86 559.3 Z M181 470 L30 470 L30 400 L100.1 400 L100.1 1.52588e-05 L181 1.52588e-05 L181 470 Z " />
<glyph glyph-name="Imacron" unicode="&#x12a;" horiz-adv-x="344" d="M43.5 770 L43.5 703 L299 703 L299 770 L43.5 770 Z M287.5 642 L55 642 L55 572 L130.8 572 L130.8 70 L55 70 L55 0 L287.5 0 L287.5 70 L211.7 70 L211.7 572 L287.5 572 L287.5 642 Z " />
<glyph glyph-name="imacron" unicode="&#x12b;" horiz-adv-x="260" d="M3.69 562 L218.06 562 L218.06 629 L3.69 629 L3.69 562 Z M181 470 L30 470 L30 400 L100.1 400 L100.1 0 L181 0 L181 470 Z " />
<glyph glyph-name="Iogonek" unicode="&#x12e;" horiz-adv-x="344" d="M287.5 572 L287.5 642 L55 642 L55 572 L130.8 572 L130.8 70 L55 70 L55 0 L130.8 0 C93.6 -27.6 71.6 -66.2 71.6 -106.8 C71.6 -161 112 -190 162.5 -190 C198.7 -190 229.4 -173 245.9 -156 L217.3 -103 C210.3 -109.3 194.5 -120 177.7 -120 C162.5 -120 147.4 -113 147.4 -86.6 C147.4 -56 179.4 -18.7 217.7 -1.52588e-05 L287.5 -1.52588e-05 L287.5 70 L211.7 70 L211.7 572 L287.5 572 Z " />
<glyph glyph-name="iogonek" unicode="&#x12f;" horiz-adv-x="260" d="M139 551 C169.5 551 194.1 576 194.1 608 C194.1 640 169.5 665 139 665 C106.6 665 82 640 82 608 C82 576 107.6 551 139 551 L139 551 Z M172.4 -103 C165.4 -109.3 149.6 -120 132.8 -120 C117.6 -120 102.5 -113 102.5 -90 C102.5 -56 130.8 -23.8 181 0 L181 470 L30 470 L30 400 L100.1 400 L100.1 0 C51.5 -23.8 26.7 -66.2 26.7 -106.8 C26.7 -161 67.1 -190 117.6 -190 C153.8 -190 184.5 -173 201 -156 L172.4 -103 Z " />
<glyph glyph-name="Idotaccent" unicode="&#x130;" horiz-adv-x="344" d="M172.1 694 C201.7 694 225.5 718 225.5 749 C225.5 780 201.7 804 172.1 804 C140.7 804 117 780 117 749 C117 718 141.6 694 172.1 694 L172.1 694 Z M287.5 572 L287.5 642 L55 642 L55 572 L130.8 572 L130.8 70 L55 70 L55 0 L287.5 0 L287.5 70 L211.7 70 L211.7 572 L287.5 572 Z " />
<glyph glyph-name="dotlessi" unicode="&#x131;" horiz-adv-x="260" d="M181 470 L30 470 L30 400 L100.1 400 L100.1 0 L181 0 L181 470 Z " />
<glyph glyph-name="IJ" unicode="&#x132;" horiz-adv-x="717" d="M287.5 642 L55 642 L55 572 L130.8 572 L130.8 70 L55 70 L55 0 L287.5 0 L287.5 70 L211.7 70 L211.7 572 L287.5 572 L287.5 642 Z M625.7 642 L429 642 L429 572 L544.8 572 L544.8 169 C544.8 90 515.3 63 459.4 63 C419.1 63 391 86.2 369.5 110.2 L320.5 52 C340.6 26.2 392.2 -11 459.8 -11 C555.7 -11 625.7 40 625.7 168 L625.7 642 Z " />
<glyph glyph-name="ij" unicode="&#x133;" horiz-adv-x="528" d="M194.2 608 C194.2 640 169.6 665 139.1 665 C106.7 665 82.1 640 82.1 608 C82.1 576 107.7 551 139.1 551 C169.6 551 194.2 576 194.2 608 L194.2 608 Z M462.16 608 C462.16 640 437.56 665 407.06 665 C374.66 665 350.06 640 350.06 608 C350.06 576 375.66 551 407.06 551 C437.56 551 462.16 576 462.16 608 L462.16 608 Z M181 470 L30 470 L30 400 L100.1 400 L100.1 0 L181 0 L181 470 Z M448.96 470 L297.96 470 L297.96 400 L367.96 400 L369.86 -31.5 C369.86 -92.5 341.46 -123 299.36 -123 C269.36 -123 248.46 -111.3 233.36 -100 L196.76 -161.3 C220.46 -179.3 255.46 -194 302.86 -194 C394.06 -194 448.96 -133.1 448.96 -35.9 L448.96 470 Z " />
<glyph glyph-name="Kcommaaccent" unicode="&#x136;" horiz-adv-x="576" d="M472 118 L305.21 362.55 L545.4 642 L442.7 642 L176.9 321.73 L176.9 642 L96 642 L96 0 L176.9 0 L176.9 213.26 L248.27 296.3 L404 67 C434.4 22.3 464.7 -1.52588e-05 546.9 -1.52588e-05 L546.9 70 C510.8 70 497.1 81.1 472 118 L472 118 Z M314.6 -42 C282.7 -41.9 257 -68.6 257 -100.7 C257 -129.9 279.6 -155 308.8 -158 C308.3 -180.9 296.3 -209.2 275.6 -232.4 L303.8 -253.4 C343.5 -216.9 372.1 -163.6 372.1 -100.7 C372.1 -68.6 346.5 -42.1 314.6 -42 L314.6 -42 Z " />
<glyph glyph-name="kcommaaccent" unicode="&#x137;" horiz-adv-x="503" d="M397 111 L267.97 269 L468.9 469.99 L368.6 469.99 L159 262.72 L159 660.99 L79 660.99 L79 -0.00999451 L159 -0.00999451 L159 159.99 L211.03 212.04 L339 56.99 C374.6 13.89 416.8 0.0899963 478.6 0.0899963 L478.6 69.99 C450.7 69.99 429.5 71.19 397 110.99 L397 111 Z M270.3 -42.01 C238.4 -41.91 212.7 -68.61 212.7 -100.71 C212.7 -129.91 235.3 -155.01 264.5 -158.01 C264 -180.91 252 -209.21 231.3 -232.41 L259.5 -253.41 C299.2 -216.91 327.8 -163.61 327.8 -100.71 C327.8 -68.61 302.2 -42.11 270.3 -42.01 L270.3 -42.01 Z " />
<glyph glyph-name="kgreenlandic" unicode="&#x138;" horiz-adv-x="503" d="M397.1 111 L268.03 269.06 L468.9 470 L368.6 470 L159 262.73 L159 470 L79 470 L79 0 L159 0 L159 160 L211.09 212.11 L339.09 57 C374.69 13.9 416.79 0.0999908 478.39 0.0999908 L478.89 70 C450.69 70 429.49 71.1 397.09 111 L397.1 111 Z " />
<glyph glyph-name="Lacute" unicode="&#x139;" horiz-adv-x="487" d="M232.2 804 L60.4 719.4 L76.5 670 L264.6 721.9 L232.2 804 Z M176.9 73 L176.9 642 L96 642 L96 0 L453.6 0 L453.6 73 L176.9 73 Z " />
<glyph glyph-name="lacute" unicode="&#x13a;" horiz-adv-x="274" d="M45.3 670 L233.4 721.9 L201 804 L29.2 719.4 L45.3 670 Z M159 661 L78 661 L78 124.2 C78 16.3 128.8 -9 199 -9 C219.7 -9 238.4 -5.8 253.7 -0.300003 L253.7 66.8 C242.8 63.6 228 61.3 209.1 61.3 C177.4 61.3 159 74.4 159 125.4 L159 661 Z " />
<glyph glyph-name="Lcommaaccent" unicode="&#x13b;" horiz-adv-x="487" d="M176.9 73 L176.9 642 L96 642 L96 0 L453.6 0 L453.6 73 L176.9 73 Z M278.4 -42 C246.5 -41.9 220.8 -68.6 220.8 -100.7 C220.8 -129.9 243.4 -155 272.6 -158 C272.1 -180.9 260.1 -209.2 239.4 -232.4 L267.6 -253.4 C307.3 -216.9 335.9 -163.6 335.9 -100.7 C335.9 -68.6 310.3 -42.1 278.4 -42 L278.4 -42 Z " />
<glyph glyph-name="lcommaaccent" unicode="&#x13c;" horiz-adv-x="274" d="M159 661 L78 661 L78 124.2 C78 16.3 128.8 -9 199 -9 C219.7 -9 238.4 -5.8 253.7 -0.300003 L253.7 66.8 C242.8 63.6 228 61.3 209.1 61.3 C177.4 61.3 159 74.4 159 125.4 L159 661 Z M171.2 -42 C139.3 -41.9 113.6 -68.6 113.6 -100.7 C113.6 -129.9 136.2 -155 165.4 -158 C164.9 -180.9 152.9 -209.2 132.2 -232.4 L160.4 -253.4 C200.1 -216.9 228.7 -163.6 228.7 -100.7 C228.7 -68.6 203.1 -42.1 171.2 -42 L171.2 -42 Z " />
<glyph glyph-name="Lcaron" unicode="&#x13d;" horiz-adv-x="489" d="M358.9 511.3 C389.7 546.6 403.7 599.4 403.7 637.2 C403.7 660 402.5 672 398.9 683.5 L319 683.5 C325.2 668 328.8 640.1 328.8 625 C328.8 607 326.5 568.2 312.2 533 L358.9 511.3 Z M176.9 73 L176.9 642 L96 642 L96 1.52588e-05 L453.6 1.52588e-05 L453.6 73 L176.9 73 Z " />
<glyph glyph-name="lcaron" unicode="&#x13e;" horiz-adv-x="288" d="M255.6 511.3 C286.4 546.6 300.4 599.4 300.4 637.2 C300.4 660 299.2 672 295.6 683.5 L215.7 683.5 C221.9 668 225.5 640.1 225.5 625 C225.5 607 223.2 568.2 208.9 533 L255.6 511.3 Z M159 661 L78 661 L78 124.2 C78 16.3 128.8 -8.99998 199 -8.99998 C219.7 -8.99998 238.4 -5.79999 253.7 -0.299988 L253.7 66.8 C242.8 63.6 228 61.3 209.1 61.3 C177.4 61.3 159 74.4 159 125.4 L159 661 Z " />
<glyph glyph-name="Ldot" unicode="&#x13f;" horiz-adv-x="489" d="M176.9 73 L176.9 642 L96 642 L96 0 L453.6 0 L453.6 73 L176.9 73 Z M355.3 285 C387.3 285 413.3 311 413.3 343 C413.3 375 387.3 401 355.3 401 C323.3 401 297.3 375 297.3 343 C297.3 311 323.3 285 355.3 285 L355.3 285 Z " />
<glyph glyph-name="ldot" unicode="&#x140;" horiz-adv-x="285" d="M159 661 L78 661 L78 124.2 C78 16.3 128.8 -9 199 -9 C219.7 -9 238.4 -5.8 253.7 -0.300003 L253.7 66.8 C242.8 63.6 228 61.3 209.1 61.3 C177.4 61.3 159 74.4 159 125.4 L159 661 Z M251.9 269 C283.9 269 309.9 295 309.9 327 C309.9 359 283.9 385 251.9 385 C219.9 385 193.9 359 193.9 327 C193.9 295 219.9 269 251.9 269 L251.9 269 Z " />
<glyph glyph-name="Lslash" unicode="&#x141;" horiz-adv-x="498" d="M187.9 73 L187.9 300.55 L282.8 348 L252.8 409 L187.9 376.55 L187.9 642 L107 642 L107 336.1 L20.8 293 L50.8 232 L107 260.1 L107 0 L464.6 0 L464.6 73 L187.9 73 Z " />
<glyph glyph-name="lslash" unicode="&#x142;" horiz-adv-x="329" d="M246.1 61.3 C214.4 61.3 196 74.4 196 125.4 L196 316.37 L277.5 357.5 L250.5 412.5 L196 385 L196 661 L115 661 L115 344.13 L32.5 302.5 L59.5 247.5 L115 275.5 L115 124.2 C115 16.3 165.8 -8.99998 236 -8.99998 C256.7 -8.99998 275.4 -5.79999 290.7 -0.299988 L290.7 66.8 C279.8 63.6 265 61.3 246.1 61.3 L246.1 61.3 Z " />
<glyph glyph-name="Nacute" unicode="&#x143;" horiz-adv-x="676" d="M469 721.9 L436.6 804 L264.8 719.4 L280.9 670 L469 721.9 Z M501.4 642 L501.4 184 L502.62 139.79 L486.2 169 L170.5 642 L96 642 L96 0 L173.3 0 L173.3 474 L172.73 510.19 L188.5 479 L505 0 L578.7 0 L578.7 642 L501.4 642 Z " />
<glyph glyph-name="nacute" unicode="&#x144;" horiz-adv-x="565" d="M373.7 619 L320.9 688.3 L185.7 561.2 L218.4 519 L373.7 619 Z M316.4 483 C239.15 483 186.69 445.23 158.63 408.85 C154.01 434.44 145.2 461.41 132.6 481.3 L55 462 C67.1 437 81.5 409 81.5 353.3 L81.5 -1.52588e-05 L162.4 -1.52588e-05 L162.4 331.2 C162.4 331.2 204.4 408 303.2 408 C374.3 408 408.8 361.5 408.8 265 L408.8 -1.52588e-05 L489.7 -1.52588e-05 L489.7 293 C489.7 412.4 425.9 483 316.4 483 L316.4 483 Z " />
<glyph glyph-name="Ncommaaccent" unicode="&#x145;" horiz-adv-x="676" d="M501.4 642 L501.4 184 L502.62 139.79 L486.2 169 L170.5 642 L96 642 L96 0 L173.3 0 L173.3 474 L172.73 510.19 L188.5 479 L505 0 L578.7 0 L578.7 642 L501.4 642 Z M337.3 -42 C305.4 -41.9 279.7 -68.6 279.7 -100.7 C279.7 -129.9 302.3 -155 331.5 -158 C331 -180.9 319 -209.2 298.3 -232.4 L326.5 -253.4 C366.2 -216.9 394.8 -163.6 394.8 -100.7 C394.8 -68.6 369.2 -42.1 337.3 -42 L337.3 -42 Z " />
<glyph glyph-name="ncommaaccent" unicode="&#x146;" horiz-adv-x="565" d="M316.4 483 C239.15 483 186.69 445.23 158.63 408.85 C154.01 434.44 145.2 461.41 132.6 481.3 L55 462 C67.1 437 81.5 409 81.5 353.3 L81.5 -1.52588e-05 L162.4 -1.52588e-05 L162.4 331.2 C162.4 331.2 204.4 408 303.2 408 C374.3 408 408.8 361.5 408.8 265 L408.8 -1.52588e-05 L489.7 -1.52588e-05 L489.7 293 C489.7 412.4 425.9 483 316.4 483 L316.4 483 Z M281.4 -42 C249.5 -41.9 223.8 -68.6 223.8 -100.7 C223.8 -129.9 246.4 -155 275.6 -158 C275.1 -180.9 263.1 -209.2 242.4 -232.4 L270.6 -253.4 C310.3 -216.9 338.9 -163.6 338.9 -100.7 C338.9 -68.6 313.3 -42.1 281.4 -42 L281.4 -42 Z " />
<glyph glyph-name="Ncaron" unicode="&#x147;" horiz-adv-x="676" d="M373.6 674.8 L472.9 757.6 L446.2 799.6 L345.9 737.6 L246 799.6 L219.3 757.6 L318.6 674.8 L373.6 674.8 Z M501.4 642 L501.4 184 L502.62 139.79 L486.2 169 L170.5 642 L96 642 L96 0 L173.3 0 L173.3 474 L172.73 510.19 L188.5 479 L505 0 L578.7 0 L578.7 642 L501.4 642 Z " />
<glyph glyph-name="ncaron" unicode="&#x148;" horiz-adv-x="565" d="M310.6 528.1 L410.7 636.3 L373.2 679.2 L282.9 599.3 L192.8 679.2 L155.3 636.3 L255.4 528.1 L310.6 528.1 Z M316.4 483 C239.15 483 186.69 445.23 158.63 408.85 C154.01 434.44 145.2 461.41 132.6 481.3 L55 462 C67.1 437 81.5 409 81.5 353.3 L81.5 -1.52588e-05 L162.4 -1.52588e-05 L162.4 331.2 C162.4 331.2 204.4 408 303.2 408 C374.3 408 408.8 361.5 408.8 265 L408.8 -1.52588e-05 L489.7 -1.52588e-05 L489.7 293 C489.7 412.4 425.9 483 316.4 483 L316.4 483 Z " />
<glyph glyph-name="napostrophe" unicode="&#x149;" horiz-adv-x="646" d="M84.5 712.1 C50.3 712.1 22.8 683.1 22.8 648.1 C22.8 615.7 45.2 587.9 79.2 585.3 C77.4 544.5 59.4 511.5 39.9 482.7 L74 458.3 C111.6 507.4 146.1 566.4 146.1 643.5 C146.1 685.1 118.7 712.1 84.5 712.1 L84.5 712.1 Z M397.4 483 C320.15 483 267.69 445.23 239.63 408.85 C235.01 434.44 226.2 461.41 213.6 481.3 L136 462 C148.1 437 162.5 409 162.5 353.3 L162.5 0 L243.4 0 L243.4 331.2 C243.4 331.2 285.4 408 384.2 408 C455.3 408 489.8 361.5 489.8 265 L489.8 0 L570.7 0 L570.7 293 C570.7 412.4 506.9 483 397.4 483 L397.4 483 Z " />
<glyph glyph-name="Eng" unicode="&#x14a;" horiz-adv-x="675" d="M501.4 642 L501.4 184 L502.62 139.79 L486.2 169 L170.5 642 L96 642 L96 0 L173.3 0 L173.3 474 L172.73 510.19 L188.5 479 L501.4 5.45 L501.4 -16.1 C501.4 -99.1 462.7 -127 400.7 -127 C358.7 -127 333.7 -100 317.7 -83 L266.7 -135 C286.7 -160 332.7 -196 400.7 -196 C495.7 -196 578.7 -145 578.7 -17 L578.7 642 L501.4 642 Z " />
<glyph glyph-name="eng" unicode="&#x14b;" horiz-adv-x="564" d="M316.4 483 C239.15 483 186.69 445.23 158.63 408.85 C154.01 434.44 145.2 461.41 132.6 481.3 L55 462 C67.1 437 81.5 409 81.5 353.3 L81.5 -1.52588e-05 L162.4 -1.52588e-05 L162.4 331.2 C162.4 331.2 204.4 408 303.2 408 C374.3 408 408.8 361.5 408.8 265 L408.8 -30 C408.8 -100 373.7 -129 326.7 -129 C298.7 -129 277.7 -118 258.7 -100 L213.7 -155 C239.7 -181 276.7 -197 326.7 -197 C406.7 -197 489.7 -146 489.7 -31 L489.7 293 C489.7 412.4 425.9 483 316.4 483 L316.4 483 Z " />
<glyph glyph-name="Omacron" unicode="&#x14c;" horiz-adv-x="723" d="M233.4 703 L488.9 703 L488.9 770 L233.4 770 L233.4 703 Z M360.8 654 C183.2 654 56 508.6 56 322 C56 131.3 183.2 -11 360.8 -11 C538.3 -11 665.5 136.2 665.5 322 C665.5 513.5 538.3 654 360.8 654 L360.8 654 Z M360.8 579.9 C495 579.9 582.4 474 582.4 322 C582.4 171.8 495 63.2 360.8 63.2 C226.5 63.2 139.1 171.8 139.1 322 C139.1 474 226.5 579.9 360.8 579.9 L360.8 579.9 Z " />
<glyph glyph-name="omacron" unicode="&#x14d;" horiz-adv-x="581" d="M167 562 L413.4 562 L413.4 629 L167 629 L167 562 Z M292.5 483 C154.1 483 51 375.3 51 236 C51 96.1 148.5 -11 287 -11 C425.4 -11 528.7 96.1 528.7 236 C528.7 375.3 431 483 292.5 483 L292.5 483 Z M289.8 64 C193.2 64 132.8 135.2 132.8 236 C132.8 336.3 193.2 408 289.8 408 C386.3 408 446.9 336.1 446.9 235.8 C446.9 135 386.3 64 289.8 64 L289.8 64 Z " />
<glyph glyph-name="Ohungarumlaut" unicode="&#x150;" horiz-adv-x="723" d="M252.7 669.8 L389.6 751.9 L336.5 821.1 L220.3 713.3 L252.7 669.8 Z M423.7 669.8 L560.6 751.9 L507.5 821.1 L391.3 713.3 L423.7 669.8 Z M360.8 654 C183.2 654 56 508.6 56 322 C56 131.3 183.2 -11 360.8 -11 C538.3 -11 665.5 136.2 665.5 322 C665.5 513.5 538.3 654 360.8 654 L360.8 654 Z M360.8 579.9 C495 579.9 582.4 474 582.4 322 C582.4 171.8 495 63.2 360.8 63.2 C226.5 63.2 139.1 171.8 139.1 322 C139.1 474 226.5 579.9 360.8 579.9 L360.8 579.9 Z " />
<glyph glyph-name="ohungarumlaut" unicode="&#x151;" horiz-adv-x="581" d="M206.2 520.3 L304 646 L231 693.6 L159.1 546 L206.2 520.3 Z M347.2 520.3 L445 646 L372 693.6 L300.1 546 L347.2 520.3 Z M292.5 483 C154.1 483 51 375.3 51 236 C51 96.1 148.5 -11 287 -11 C425.4 -11 528.7 96.1 528.7 236 C528.7 375.3 431 483 292.5 483 L292.5 483 Z M289.8 64 C193.2 64 132.8 135.2 132.8 236 C132.8 336.3 193.2 408 289.8 408 C386.3 408 446.9 336.1 446.9 235.8 C446.9 135 386.3 64 289.8 64 L289.8 64 Z " />
<glyph glyph-name="OE" unicode="&#x152;" horiz-adv-x="921" d="M866.1 74 L557 74 L557 293 L823.7 293 L823.7 367 L557 367 L557 567 L856.7 567 L856.7 642 L477.56 642 C442.97 649.7 407.14 654 367.8 654 C182.6 654 55 507.6 55 321 C55 134.4 182.6 -11 367.8 -11 C407.08 -11 442.85 -7.5 477.38 0 L866.1 0 L866.1 74 Z M138.1 321 C138.1 473 225.9 579.9 367.8 579.9 C398.46 579.9 444.29 576.15 477 562.72 L477 79.32 C444.29 66.1 398.46 63.1 367.8 63.1 C225.9 63.1 138.1 169 138.1 321 L138.1 321 Z " />
<glyph glyph-name="oe" unicode="&#x153;" horiz-adv-x="925" d="M877.4 276 C877.4 396.8 790 483 671.3 483 C594.27 483 527.47 443.93 487.26 380.39 C446.03 443.07 376.83 483 292.5 483 C154.1 483 51 375.3 51 236 C51 96.1 148.5 -11 287 -11 C370.71 -11 441.58 28.18 484.51 90.1 C524.64 25.71 594.33 -11 680.7 -11 C765 -11 818.2 14.8 855.8 43.5 L824.1 109 C797.9 89 763.4 63 682.5 63 C593.08 63 535.17 126.74 530.07 216 L873.7 216 C876.3 238 877.4 254.7 877.4 276 L877.4 276 Z M531.92 280 C540.57 351.52 591.37 411 671.3 411 C759.2 411 794.3 342.5 794.3 280 L531.92 280 Z M289.8 64 C193.2 64 132.8 135.2 132.8 236 C132.8 336.3 193.2 408 289.8 408 C386.3 408 446.9 336.1 446.9 235.8 C446.9 135 386.3 64 289.8 64 L289.8 64 Z " />
<glyph glyph-name="Racute" unicode="&#x154;" horiz-adv-x="584" d="M388.1 721.9 L355.7 804 L183.9 719.4 L200 670 L388.1 721.9 Z M462 118 L371.07 269.04 C450.67 292.25 511.6 350.12 511.6 452 C511.6 570.8 438.2 642 281.6 642 L96 642 L96 0 L176.9 0 L176.9 257 L279.3 257 L395 67 C422 21.8 452.3 0 529.9 0 L529.9 70 C497.7 70 483.6 81.6 462 118 L462 118 Z M176.9 570 L281.4 570 C382.9 570 429.6 529 429.6 450 C429.6 375 388.5 330 282.3 330 L176.9 330 L176.9 570 Z " />
<glyph glyph-name="racute" unicode="&#x155;" horiz-adv-x="381" d="M319.6 619 L266.8 688.3 L131.6 561.2 L164.3 519 L319.6 619 Z M303.5 483.1 C231.47 483.1 186.39 437.67 161.04 392.47 C157.65 422.4 147.94 457.1 132.6 481.3 L55 462 C67.1 437 81.5 409 81.5 353.3 L81.5 0 L162.4 0 L162.4 299.6 C162.4 299.6 186.5 406 295.3 406 C315.2 406 334.2 400.6 344.7 394.9 L363.1 472 C348.2 479.2 322.6 483.1 303.5 483.1 L303.5 483.1 Z " />
<glyph glyph-name="Rcommaaccent" unicode="&#x156;" horiz-adv-x="584" d="M462 118 L371.07 269.04 C450.67 292.25 511.6 350.12 511.6 452 C511.6 570.8 438.2 642 281.6 642 L96 642 L96 0 L176.9 0 L176.9 257 L279.3 257 L395 67 C422 21.8 452.3 0 529.9 0 L529.9 70 C497.7 70 483.6 81.6 462 118 L462 118 Z M176.9 570 L281.4 570 C382.9 570 429.6 529 429.6 450 C429.6 375 388.5 330 282.3 330 L176.9 330 L176.9 570 Z M302.2 -42 C270.3 -41.9 244.6 -68.6 244.6 -100.7 C244.6 -129.9 267.2 -155 296.4 -158 C295.9 -180.9 283.9 -209.2 263.2 -232.4 L291.4 -253.4 C331.1 -216.9 359.7 -163.6 359.7 -100.7 C359.7 -68.6 334.1 -42.1 302.2 -42 L302.2 -42 Z " />
<glyph glyph-name="rcommaaccent" unicode="&#x157;" horiz-adv-x="381" d="M303.5 483.1 C231.47 483.1 186.39 437.67 161.04 392.47 C157.65 422.4 147.94 457.1 132.6 481.3 L55 462 C67.1 437 81.5 409 81.5 353.3 L81.5 0 L162.4 0 L162.4 299.6 C162.4 299.6 186.5 406 295.3 406 C315.2 406 334.2 400.6 344.7 394.9 L363.1 472 C348.2 479.2 322.6 483.1 303.5 483.1 L303.5 483.1 Z M115.5 -42 C83.6 -41.9 57.9 -68.6 57.9 -100.7 C57.9 -129.9 80.5 -155 109.7 -158 C109.2 -180.9 97.2 -209.2 76.5 -232.4 L104.7 -253.4 C144.4 -216.9 173 -163.6 173 -100.7 C173 -68.6 147.4 -42.1 115.5 -42 L115.5 -42 Z " />
<glyph glyph-name="Rcaron" unicode="&#x158;" horiz-adv-x="584" d="M306.7 674.8 L406 757.6 L379.3 799.6 L279 737.6 L179.1 799.6 L152.4 757.6 L251.7 674.8 L306.7 674.8 Z M462 118 L371.07 269.04 C450.67 292.25 511.6 350.12 511.6 452 C511.6 570.8 438.2 642 281.6 642 L96 642 L96 0 L176.9 0 L176.9 257 L279.3 257 L395 67 C422 21.8 452.3 0 529.9 0 L529.9 70 C497.7 70 483.6 81.6 462 118 L462 118 Z M176.9 570 L281.4 570 C382.9 570 429.6 529 429.6 450 C429.6 375 388.5 330 282.3 330 L176.9 330 L176.9 570 Z " />
<glyph glyph-name="rcaron" unicode="&#x159;" horiz-adv-x="381" d="M256.5 528.1 L356.6 636.3 L319.1 679.2 L228.8 599.3 L138.7 679.2 L101.2 636.3 L201.3 528.1 L256.5 528.1 Z M303.5 483.1 C231.47 483.1 186.39 437.67 161.04 392.47 C157.65 422.4 147.94 457.1 132.6 481.3 L55 462 C67.1 437 81.5 409 81.5 353.3 L81.5 0 L162.4 0 L162.4 299.6 C162.4 299.6 186.5 406 295.3 406 C315.2 406 334.2 400.6 344.7 394.9 L363.1 472 C348.2 479.2 322.6 483.1 303.5 483.1 L303.5 483.1 Z " />
<glyph glyph-name="Sacute" unicode="&#x15a;" horiz-adv-x="522" d="M196.6 670 L384.7 721.9 L352.3 804 L180.5 719.4 L196.6 670 Z M250.5 -11 C383.4 -11 468.7 58 468.7 176 C468.7 293.9 393 333 314 360 C230.1 388.7 143.9 404.7 143.9 488 C143.9 537.8 188.6 579 261.6 579 C330.8 579 376 556 415.6 526 L457.9 591 C416.5 624 358.7 654 262.1 654 C142 654 63.7 580 63.7 483 C63.7 338.2 179 316 271 287 C334.2 267 387.6 242.6 387.6 174 C387.6 109.9 344 64 250.7 64 C183 64 130.9 93 94.6 132 L46 71 C79.6 34 143.1 -11 250.5 -11 L250.5 -11 Z " />
<glyph glyph-name="sacute" unicode="&#x15b;" horiz-adv-x="461" d="M167.6 519 L322.9 619 L270.1 688.3 L134.9 561.2 L167.6 519 Z M242.8 483 C129.3 483 58.1 429.5 58.1 346 C58.1 244 141 221 215 204 C279.5 189.2 334.2 179.1 334.2 131.6 C334.2 85 292.5 60 224.4 60 C143.1 60 101.1 89 75 109 L43 43.5 C80.1 14.8 139.5 -11 223.3 -11 C340.5 -11 414.2 36.1 414.2 131.6 C414.2 237.4 333 262 255 279 C192.1 292.7 137.7 303 137.7 350.2 C137.7 385.6 176 412 242.8 412 C300.5 412 343.5 397.3 378.3 379.6 L394.9 449.3 C359.5 466.6 314.5 483 242.8 483 L242.8 483 Z " />
<glyph glyph-name="Scedilla" unicode="&#x15e;" horiz-adv-x="522" d="M468.7 176 C468.7 293.9 393 333 314 360 C230.1 388.7 143.9 404.7 143.9 488 C143.9 537.8 188.6 579 261.6 579 C330.8 579 376 556 415.6 526 L457.9 591 C416.5 624 358.7 654 262.1 654 C142 654 63.7 580 63.7 483 C63.7 338.2 179 316 271 287 C334.2 267 387.6 242.6 387.6 174 C387.6 109.9 344 64 250.7 64 C183 64 130.9 93 94.6 132 L46 71 C77.55 36.25 135.47 -5.55 231.36 -10.51 L207.8 -76 C243.9 -77 270.4 -84 270.4 -110 C270.4 -129.3 253.4 -138 230.8 -138 C215.5 -138 201.3 -133.4 187.1 -125 L166.6 -173 C179.2 -182 208.5 -190 233 -190 C284.6 -190 341.4 -173 341.4 -105.3 C341.4 -64 313.4 -45.4 275.8 -38 L285.82 -9.28001 C398.32 2.05998 468.7 68.82 468.7 176 L468.7 176 Z " />
<glyph glyph-name="scedilla" unicode="&#x15f;" horiz-adv-x="461" d="M414.2 131.6 C414.2 237.4 333 262 255 279 C192.1 292.7 137.7 303 137.7 350.2 C137.7 385.6 176 412 242.8 412 C300.5 412 343.5 397.3 378.3 379.6 L394.9 449.3 C359.5 466.6 314.5 483 242.8 483 C129.3 483 58.1 429.5 58.1 346 C58.1 244 141 221 215 204 C279.5 189.2 334.2 179.1 334.2 131.6 C334.2 85 292.5 60 224.4 60 C143.1 60 101.1 89 75 109 L43 43.5 C77.8 16.58 132.22 -7.79001 207.99 -10.71 L184.5 -76 C220.6 -77 247.1 -84 247.1 -110 C247.1 -129.3 230.1 -138 207.5 -138 C192.2 -138 178 -133.4 163.8 -125 L143.3 -173 C155.9 -182 185.2 -190 209.7 -190 C261.3 -190 318.1 -173 318.1 -105.3 C318.1 -64 290.1 -45.4 252.5 -38 L262.6 -9.07001 C356.73 0.679993 414.2 47.27 414.2 131.6 L414.2 131.6 Z " />
<glyph glyph-name="Scaron" unicode="&#x160;" horiz-adv-x="522" d="M303.3 674.8 L402.6 757.6 L375.9 799.6 L275.6 737.6 L175.7 799.6 L149 757.6 L248.3 674.8 L303.3 674.8 Z M250.5 -11 C383.4 -11 468.7 58 468.7 176 C468.7 293.9 393 333 314 360 C230.1 388.7 143.9 404.7 143.9 488 C143.9 537.8 188.6 579 261.6 579 C330.8 579 376 556 415.6 526 L457.9 591 C416.5 624 358.7 654 262.1 654 C142 654 63.7 580 63.7 483 C63.7 338.2 179 316 271 287 C334.2 267 387.6 242.6 387.6 174 C387.6 109.9 344 64 250.7 64 C183 64 130.9 93 94.6 132 L46 71 C79.6 34 143.1 -11 250.5 -11 L250.5 -11 Z " />
<glyph glyph-name="scaron" unicode="&#x161;" horiz-adv-x="461" d="M204.6 528.1 L259.8 528.1 L359.9 636.3 L322.4 679.2 L232.1 599.3 L142 679.2 L104.5 636.3 L204.6 528.1 Z M242.8 483 C129.3 483 58.1 429.5 58.1 346 C58.1 244 141 221 215 204 C279.5 189.2 334.2 179.1 334.2 131.6 C334.2 85 292.5 60 224.4 60 C143.1 60 101.1 89 75 109 L43 43.5 C80.1 14.8 139.5 -11 223.3 -11 C340.5 -11 414.2 36.1 414.2 131.6 C414.2 237.4 333 262 255 279 C192.1 292.7 137.7 303 137.7 350.2 C137.7 385.6 176 412 242.8 412 C300.5 412 343.5 397.3 378.3 379.6 L394.9 449.3 C359.5 466.6 314.5 483 242.8 483 L242.8 483 Z " />
<glyph glyph-name="uni0162" unicode="&#x162;" horiz-adv-x="530" d="M305.4 0 L305.4 568 L497.9 568 L497.9 642 L31 642 L31 568 L224.5 568 L224.5 0 L237.84 0 L210.5 -76 C246.6 -77 273.1 -84 273.1 -110 C273.1 -129.3 256.1 -138 233.5 -138 C218.2 -138 204 -133.4 189.8 -125 L169.3 -173 C181.9 -182 211.2 -190 235.7 -190 C287.3 -190 344.1 -173 344.1 -105.3 C344.1 -64 316.1 -45.4 278.5 -38 L291.76 0 L305.4 0 Z " />
<glyph glyph-name="uni0163" unicode="&#x163;" horiz-adv-x="388" d="M256.4 -38 L265.91 -10.75 C316.21 -8.33 350.49 11.45 375.3 35.7 L339.6 94 C326.1 80.6 300.7 60 263.4 60 C219.3 60 184 78 184 163 L184 405 L337.7 405 L337.7 470 L184 470 L184 594 L103.1 575.7 L103.1 470 L28 470 L28 405 L103.1 405 L103.1 147.1 C103.1 61.41 142.3 7.64 213.24 -6.96001 L188.4 -76 C224.5 -77 251 -84 251 -110 C251 -129.3 234 -138 211.4 -138 C196.1 -138 181.9 -133.4 167.7 -125 L147.2 -173 C159.8 -182 189.1 -190 213.6 -190 C265.2 -190 322 -173 322 -105.3 C322 -64 294 -45.4 256.4 -38 L256.4 -38 Z " />
<glyph glyph-name="Tcaron" unicode="&#x164;" horiz-adv-x="530" d="M293 674.8 L392.3 757.6 L365.6 799.6 L265.3 737.6 L165.4 799.6 L138.7 757.6 L238 674.8 L293 674.8 Z M497.9 642 L31 642 L31 568 L224.5 568 L224.5 0 L305.4 0 L305.4 568 L497.9 568 L497.9 642 Z " />
<glyph glyph-name="tcaron" unicode="&#x165;" horiz-adv-x="388" d="M292.4 511.3 C323.2 546.6 337.2 599.4 337.2 637.2 C337.2 660 336 672 332.4 683.5 L252.5 683.5 C258.7 668 262.3 640.1 262.3 625 C262.3 607 260 568.2 245.7 533 L292.4 511.3 Z M339.6 94 C326.1 80.6 300.7 60 263.4 60 C219.3 60 184 78 184 163 L184 405 L337.7 405 L337.7 470 L184 470 L184 594 L103.1 575.7 L103.1 470 L28 470 L28 405 L103.1 405 L103.1 147.1 C103.1 45.7 158 -11 255.4 -11 C311.5 -11 348.8 9.80003 375.3 35.7 L339.6 94 Z " />
<glyph glyph-name="Tbar" unicode="&#x166;" horiz-adv-x="538" d="M501.9 568 L501.9 642 L35 642 L35 568 L228.5 568 L228.5 356.2 L133.42 356.2 L133.42 284.7 L228.5 284.7 L228.5 0 L309.4 0 L309.4 284.7 L401.66 284.7 L401.66 356.2 L309.4 356.2 L309.4 568 L501.9 568 Z " />
<glyph glyph-name="tbar" unicode="&#x167;" horiz-adv-x="391" d="M342.6 94 C329.1 80.6 303.7 60 266.4 60 C222.3 60 187 78 187 163 L187 242 L296.95 242 L296.95 307 L187 307 L187 405 L340.7 405 L340.7 470 L187 470 L187 594 L106.1 575.7 L106.1 470 L31 470 L31 405 L106.1 405 L106.1 307 L37.9 307 L37.9 242 L106.1 242 L106.1 147.1 C106.1 45.7 161 -11 258.4 -11 C314.5 -11 351.8 9.80002 378.3 35.7 L342.6 94 Z " />
<glyph glyph-name="Utilde" unicode="&#x168;" horiz-adv-x="665" d="M234 696.3 C243.4 713.7 256.3 724 279.4 724 C307.4 724 349.3 690 394.9 690 C443.4 690 474.2 716 491.5 761.6 L433.2 784.7 C423.8 767.3 410.9 757 387.8 757 C358.6 757 319.5 792 272.3 792 C223.8 792 193 765 175.7 719.4 L234 696.3 Z M333.4 -11 C478.4 -11 576 82 576 256 L576 642 L496.1 642 L496.1 256 C496.1 145 442.6 67 333.5 67 C226.2 67 171.7 145 171.7 256 L171.7 642 L89 642 L89 256 C89 82 189.9 -11 333.4 -11 L333.4 -11 Z " />
<glyph glyph-name="utilde" unicode="&#x169;" horiz-adv-x="556" d="M222 587 C250 587 291.9 553 337.5 553 C386 553 416.8 579 434.1 624.6 L375.8 647.7 C366.4 630.3 353.5 620 330.4 620 C301.2 620 262.1 655 214.9 655 C166.4 655 135.6 628 118.3 582.4 L176.6 559.3 C186 576.7 198.9 587 222 587 L222 587 Z M499.4 8 C487.3 33 472.9 61 472.9 116.7 L472.9 470 L392 470 L392 159.5 C392 159.5 356.4 61.1 251.4 61.1 C185.8 61.1 154.9 107.6 154.9 204.1 L154.9 470 L74 470 L74 176.1 C74 56.7 134.1 -13.9 238.3 -13.9 C316.76 -13.9 366.84 28.36 394.15 71.19 C398.13 42.8 407.53 11.21 421.8 -11.3 L499.4 8 Z " />
<glyph glyph-name="Umacron" unicode="&#x16a;" horiz-adv-x="665" d="M210.3 703 L465.8 703 L465.8 770 L210.3 770 L210.3 703 Z M333.4 -11 C478.4 -11 576 82 576 256 L576 642 L496.1 642 L496.1 256 C496.1 145 442.6 67 333.5 67 C226.2 67 171.7 145 171.7 256 L171.7 642 L89 642 L89 256 C89 82 189.9 -11 333.4 -11 L333.4 -11 Z " />
<glyph glyph-name="umacron" unicode="&#x16b;" horiz-adv-x="556" d="M398.5 629 L152.1 629 L152.1 562 L398.5 562 L398.5 629 Z M499.4 8 C487.3 33 472.9 61 472.9 116.7 L472.9 470 L392 470 L392 159.5 C392 159.5 356.4 61.1 251.4 61.1 C185.8 61.1 154.9 107.6 154.9 204.1 L154.9 470 L74 470 L74 176.1 C74 56.7 134.1 -13.9 238.3 -13.9 C316.76 -13.9 366.84 28.36 394.15 71.19 C398.13 42.8 407.53 11.21 421.8 -11.3 L499.4 8 Z " />
<glyph glyph-name="Uring" unicode="&#x16e;" horiz-adv-x="665" d="M338.5 656 C392.7 656 430.1 700 430.1 752 C430.1 804 392.7 848 338.5 848 C283.4 848 245.9 804 245.9 752 C245.9 700 283.4 656 338.5 656 L338.5 656 Z M338.5 710 C310.8 710 299.6 731 299.6 752 C299.6 774 310.8 795 338.5 795 C365.3 795 375.6 774 375.6 752 C375.6 731 365.3 710 338.5 710 L338.5 710 Z M333.4 -11 C478.4 -11 576 82 576 256 L576 642 L496.1 642 L496.1 256 C496.1 145 442.6 67 333.5 67 C226.2 67 171.7 145 171.7 256 L171.7 642 L89 642 L89 256 C89 82 189.9 -11 333.4 -11 L333.4 -11 Z " />
<glyph glyph-name="uring" unicode="&#x16f;" horiz-adv-x="556" d="M274.9 505 C329.1 505 366.6 549 366.6 601 C366.6 653 329.1 697 274.9 697 C219.7 697 182.2 653 182.2 601 C182.2 549 219.7 505 274.9 505 L274.9 505 Z M274.9 645 C302.6 645 314.7 624 314.7 601 C314.7 579 302.6 558 274.9 558 C248.1 558 235 579 235 601 C235 624 248.1 645 274.9 645 L274.9 645 Z M499.4 8 C487.3 33 472.9 61 472.9 116.7 L472.9 470 L392 470 L392 159.5 C392 159.5 356.4 61.1 251.4 61.1 C185.8 61.1 154.9 107.6 154.9 204.1 L154.9 470 L74 470 L74 176.1 C74 56.7 134.1 -13.9 238.3 -13.9 C316.76 -13.9 366.84 28.36 394.15 71.19 C398.13 42.8 407.53 11.21 421.8 -11.3 L499.4 8 Z " />
<glyph glyph-name="Uhungarumlaut" unicode="&#x170;" horiz-adv-x="665" d="M229.6 669.8 L366.5 751.9 L313.4 821.1 L197.2 713.3 L229.6 669.8 Z M400.6 669.8 L537.5 751.9 L484.4 821.1 L368.2 713.3 L400.6 669.8 Z M333.4 -11 C478.4 -11 576 82 576 256 L576 642 L496.1 642 L496.1 256 C496.1 145 442.6 67 333.5 67 C226.2 67 171.7 145 171.7 256 L171.7 642 L89 642 L89 256 C89 82 189.9 -11 333.4 -11 L333.4 -11 Z " />
<glyph glyph-name="uhungarumlaut" unicode="&#x171;" horiz-adv-x="556" d="M289.1 646 L216.1 693.6 L144.2 546 L191.3 520.3 L289.1 646 Z M332.3 520.3 L430.1 646 L357.1 693.6 L285.2 546 L332.3 520.3 Z M499.4 8 C487.3 33 472.9 61 472.9 116.7 L472.9 470 L392 470 L392 159.5 C392 159.5 356.4 61.1 251.4 61.1 C185.8 61.1 154.9 107.6 154.9 204.1 L154.9 470 L74 470 L74 176.1 C74 56.7 134.1 -13.9 238.3 -13.9 C316.76 -13.9 366.84 28.36 394.15 71.19 C398.13 42.8 407.53 11.21 421.8 -11.3 L499.4 8 Z " />
<glyph glyph-name="Uogonek" unicode="&#x172;" horiz-adv-x="665" d="M496.1 642 L496.1 256 C496.1 145 442.6 67 333.5 67 C226.2 67 171.7 145 171.7 256 L171.7 642 L89 642 L89 256 C89 82 189.9 -11 333.4 -11 C336.89 -11 340.35 -10.95 343.78 -10.84 C319.2 -36.11 304.4 -67.62 304.4 -103 C304.4 -161 344.8 -190 395.3 -190 C431.5 -190 462.2 -173 478.7 -156 L450.1 -103 C443.1 -109.3 427.3 -120 410.5 -120 C395.3 -120 380.2 -113 380.2 -82.5 C380.2 -52.93 401.68 -18.51 439.79 9.23001 C524.11 45.32 576 129.13 576 256 L576 642 L496.1 642 Z " />
<glyph glyph-name="uogonek" unicode="&#x173;" horiz-adv-x="556" d="M431.5 -120 C416.3 -120 401.2 -113 401.2 -90 C401.2 -51.8 437.6 -16.5 499.7 8 L499.36 8.07001 C487.27 33.06 472.9 61.05 472.9 116.7 L472.9 470 L392 470 L392 159.5 C392 159.5 356.4 61.1 251.4 61.1 C185.8 61.1 154.9 107.6 154.9 204.1 L154.9 470 L74 470 L74 176.1 C74 56.7 134.1 -13.9 238.3 -13.9 C316.76 -13.9 366.84 28.36 394.15 71.19 C396.76 52.59 401.69 32.62 408.79 14.72 C357.35 -12.9 325.4 -58.07 325.4 -106.8 C325.4 -161 365.8 -190 416.3 -190 C452.5 -190 483.2 -173 499.7 -156 L471.1 -103 C464.1 -109.3 448.3 -120 431.5 -120 L431.5 -120 Z " />
<glyph glyph-name="Wcircumflex" unicode="&#x174;" horiz-adv-x="872" d="M441.9 735 L542.2 673 L568.9 715 L469.6 797.8 L414.6 797.8 L315.3 715 L342 673 L441.9 735 Z M759.8 642 L625.2 126.9 L617.6 95.62 L610.9 127.1 L482.2 584 L401.1 584 L260.4 126.9 L253.73 96.84 L247.1 127.1 L125.2 642 L36 642 L204.8 -3.05176e-05 L294.4 -3.05176e-05 L422.4 405 L441.25 478.11 L457 407 L568.4 -3.05176e-05 L656.6 -3.05176e-05 L843.5 642 L759.8 642 Z " />
<glyph glyph-name="wcircumflex" unicode="&#x175;" horiz-adv-x="741" d="M373.2 605 L463.5 525.1 L501 568 L400.9 676.2 L345.7 676.2 L245.6 568 L283.1 525.1 L373.2 605 Z M624.6 470 L519 90.53 L410.5 470 L327.4 470 L226.35 90.12 L116 470 L30 470 L179.3 0 L269.4 0 L369.41 365.59 L471.9 0 L562.2 0 L709.6 470 L624.6 470 Z " />
<glyph glyph-name="Ycircumflex" unicode="&#x176;" horiz-adv-x="582" d="M290.7 735 L391 673 L417.7 715 L318.4 797.8 L263.4 797.8 L164.1 715 L190.8 673 L290.7 735 Z M553.1 642 L466.1 642 L308.5 349.2 L294.29 317.63 L280 348.1 L117.5 642 L26 642 L251.5 247.92 L251.5 -1.52588e-05 L332.4 -1.52588e-05 L332.4 247.96 L553.1 642 Z " />
<glyph glyph-name="ycircumflex" unicode="&#x177;" horiz-adv-x="507" d="M263.6 605 L353.9 525.1 L391.4 568 L291.3 676.2 L236.1 676.2 L136 568 L173.5 525.1 L263.6 605 Z M478.9 470 L390.9 470 L258.79 86.95 L120.2 470 L29 470 L209 0 L226 0 L195 -71 C172.2 -123.2 129.1 -123.3 94.5 -123.3 L94.5 -194.3 C160.7 -194.3 230.8 -183.9 272 -79 L303 -1.52588e-05 L302.8 -1.52588e-05 L478.9 470 Z " />
<glyph glyph-name="Ydieresis" unicode="&#x178;" horiz-adv-x="582" d="M200.5 689 C229.7 689 252.2 711 252.2 741 C252.2 770 230.6 792 200.5 792 C170.4 792 148.8 770 148.8 741 C148.8 711 171.3 689 200.5 689 L200.5 689 Z M380.5 689 C409.7 689 432.2 711 432.2 741 C432.2 770 410.6 792 380.5 792 C350.4 792 328.8 770 328.8 741 C328.8 711 351.3 689 380.5 689 L380.5 689 Z M553.1 642 L466.1 642 L308.5 349.2 L294.29 317.63 L280 348.1 L117.5 642 L25.9999 642 L251.5 247.92 L251.5 -1.52588e-05 L332.4 -1.52588e-05 L332.4 247.96 L553.1 642 Z " />
<glyph glyph-name="Zacute" unicode="&#x179;" horiz-adv-x="539" d="M377.6 721.9 L345.2 804 L173.4 719.4 L189.5 670 L377.6 721.9 Z M145.28 71 L162.3 95 L484.7 571.2 L484.7 642 L51.5 642 L51.5 570 L388.21 570.89 L375.8 554 L46 69.4 L46 0 L491.8 0 L491.8 71 L145.28 71 Z " />
<glyph glyph-name="zacute" unicode="&#x17a;" horiz-adv-x="462" d="M316.9 619 L264.1 688.3 L128.9 561.2 L161.6 519 L316.9 619 Z M133.86 68 L409.3 389.2 L409.3 470 L53.5 470 L53.5 402 L329.99 402 L48 80 L48 0 L413.7 0 L413.7 68 L133.86 68 Z " />
<glyph glyph-name="Zdotaccent" unicode="&#x17b;" horiz-adv-x="539" d="M268.6 694 C298.2 694 322 718 322 749 C322 780 298.2 804 268.6 804 C237.2 804 213.5 780 213.5 749 C213.5 718 238.1 694 268.6 694 L268.6 694 Z M145.28 71 L162.3 95 L484.7 571.2 L484.7 642 L51.5 642 L51.5 570 L388.21 570.89 L375.8 554 L46 69.4 L46 0 L491.8 0 L491.8 71 L145.28 71 Z " />
<glyph glyph-name="zdotaccent" unicode="&#x17c;" horiz-adv-x="462" d="M224.6 551 C255.1 551 279.7 576 279.7 608 C279.7 640 255.1 665 224.6 665 C192.2 665 167.6 640 167.6 608 C167.6 576 193.2 551 224.6 551 L224.6 551 Z M133.86 68 L409.3 389.2 L409.3 470 L53.5 470 L53.5 402 L329.99 402 L48 80 L48 0 L413.7 0 L413.7 68 L133.86 68 Z " />
<glyph glyph-name="Zcaron" unicode="&#x17d;" horiz-adv-x="539" d="M296.2 674.8 L395.5 757.6 L368.8 799.6 L268.5 737.6 L168.6 799.6 L141.9 757.6 L241.2 674.8 L296.2 674.8 Z M145.28 71 L162.3 95 L484.7 571.2 L484.7 642 L51.5 642 L51.5 570 L388.21 570.89 L375.8 554 L46 69.4 L46 0 L491.8 0 L491.8 71 L145.28 71 Z " />
<glyph glyph-name="zcaron" unicode="&#x17e;" horiz-adv-x="462" d="M253.8 528.1 L353.9 636.3 L316.4 679.2 L226.1 599.3 L136 679.2 L98.5 636.3 L198.6 528.1 L253.8 528.1 Z M133.86 68 L409.3 389.2 L409.3 470 L53.5 470 L53.5 402 L329.99 402 L48 80 L48 0 L413.7 0 L413.7 68 L133.86 68 Z " />
<glyph glyph-name="uni01EA" unicode="&#x1ea;" horiz-adv-x="723" d="M488.89 17.51 C596.36 69.01 665.5 185.01 665.5 322 C665.5 513.5 538.3 654 360.8 654 C183.2 654 56 508.6 56 322 C56 131.3 183.2 -11 360.8 -11 C367.66 -11 374.45 -10.78 381.17 -10.35 C356.29 -35.7 341.3 -67.39 341.3 -103 C341.3 -161 381.7 -190 432.2 -190 C468.4 -190 499.1 -173 515.6 -156 L487 -103 C480 -109.3 464.2 -120 447.4 -120 C432.2 -120 417.1 -113 417.1 -82.5 C417.1 -49.9 443.19 -11.43 488.89 17.51 L488.89 17.51 Z M139.1 322 C139.1 474 226.5 579.9 360.8 579.9 C495 579.9 582.4 474 582.4 322 C582.4 171.8 495 63.2 360.8 63.2 C226.5 63.2 139.1 171.8 139.1 322 L139.1 322 Z " />
<glyph glyph-name="uni01EB" unicode="&#x1eb;" horiz-adv-x="581" d="M390.14 10.98 C473.67 49.26 528.7 133.89 528.7 236 C528.7 375.3 431 483 292.5 483 C154.1 483 51 375.3 51 236 C51 96.1 148.5 -11 287 -11 C288.52 -11 290.05 -11 291.57 -10.97 C267.05 -36.23 252.3 -67.68 252.3 -103.01 C252.3 -161.01 292.7 -190.01 343.2 -190.01 C379.4 -190.01 410.1 -173.01 426.6 -156.01 L398 -103.01 C391 -109.31 375.2 -120.01 358.4 -120.01 C343.2 -120.01 328.1 -113.01 328.1 -82.51 C328.1 -52.31 350.5 -17.06 390.14 10.97 L390.14 10.98 Z M132.8 235.99 C132.8 336.29 193.2 407.99 289.8 407.99 C386.3 407.99 446.9 336.09 446.9 235.79 C446.9 134.99 386.3 63.99 289.8 63.99 C193.2 63.99 132.8 135.19 132.8 235.99 L132.8 235.99 Z " />
<glyph glyph-name="AEacute" unicode="&#x1fc;" horiz-adv-x="863" d="M641.9 721.9 L609.5 804 L437.7 719.4 L453.8 670 L641.9 721.9 Z M498.4 74 L498.4 293 L765.1 293 L765.1 367 L498.4 367 L498.4 567 L798.1 567 L798.1 642 L376.7 642 L6.00002 0 L90 0 L193.57 179 L418.4 179 L418.4 0 L807.5 0 L807.5 74 L498.4 74 Z M234.07 249 L418.4 567.55 L418.4 249 L234.07 249 Z " />
<glyph glyph-name="aeacute" unicode="&#x1fd;" horiz-adv-x="825" d="M506.4 619 L453.6 688.3 L318.4 561.2 L351.1 519 L506.4 619 Z M777.3 276 C777.3 396.8 689.9 483 571.2 483 C504.36 483 445.23 453.59 404.49 404.3 C370.1 463.3 302.28 482.99 225.3 482.99 C169.1 482.99 115.8 471.19 73.2 450.29 L90 379.49 C131.8 397.79 177.6 407.99 218.3 407.99 C301.2 407.99 348.3 381.69 348.3 311.99 L348.3 274.99 L249.7 274.99 C114.6 274.99 43 224.39 43 131.99 C43 45.79 107.6 -11.01 193.6 -11.01 C273.32 -11.01 340.35 27.81 379.4 98.55 C418.58 28.93 490.52 -11.01 580.6 -11.01 C664.9 -11.01 718.1 14.79 755.7 43.49 L724 108.99 C697.8 88.99 663.3 62.99 582.4 62.99 C492.98 62.99 435.07 126.73 429.97 215.99 L773.6 215.99 C776.2 237.99 777.3 254.69 777.3 275.99 L777.3 276 Z M431.82 279.99 C440.47 351.51 491.27 410.99 571.2 410.99 C659.1 410.99 694.2 342.49 694.2 279.99 L431.82 279.99 Z M347.4 149.69 C341.4 134.69 306.2 58.99 209.7 58.99 C159.9 58.99 125.8 85.59 125.8 133.99 C125.8 182.99 154.8 211.49 250.4 211.99 L347.5 212.49 L347.4 149.69 Z " />
<glyph glyph-name="Oslashacute" unicode="&#x1fe;" horiz-adv-x="731" d="M475 721.9 L442.6 804 L270.8 719.4 L286.9 670 L475 721.9 Z M683.4 615.5 L629.4 662.5 L557.73 584.93 C506.39 628.69 440.13 654 364.8 654 C187.2 654 60 508.6 60 322 C60 241.53 82.64 169.68 122.17 113.51 L46.4 31.5 L99.4 -20.5 L171.98 58.54 C223.3 14.56 289.52 -11 364.8 -11 C542.3 -11 669.5 136.2 669.5 322 C669.5 403.4 646.51 475.59 606.45 531.69 L683.4 615.5 Z M143.1 322 C143.1 474 230.5 579.9 364.8 579.9 C420.96 579.9 468.93 561.35 505.72 528.64 L177.95 173.89 C155.43 215.02 143.1 265.57 143.1 322 L143.1 322 Z M586.4 322 C586.4 171.8 499 63.2 364.8 63.2 C308.69 63.2 260.77 82.15 223.98 115.18 L551.1 471.42 C573.9 430.36 586.4 379.47 586.4 322 L586.4 322 Z " />
<glyph glyph-name="oslashacute" unicode="&#x1ff;" horiz-adv-x="582" d="M383.2 619 L330.4 688.3 L195.2 561.2 L227.9 519 L383.2 619 Z M532.3 459.5 L488.3 499.5 L433.2 438.63 C395.03 466.72 347.35 483 293.5 483 C155.1 483 52 375.3 52 236 C52 173.93 71.19 118.31 104.64 75.64 L49.3 14.5 L93.3 -29.5 L149.1 32.66 C187.1 4.98001 234.49 -11 287.99 -11 C426.39 -11 529.69 96.1 529.69 236 C529.69 298.26 510.17 354.2 476.22 397.04 L532.3 459.5 Z M133.79 236 C133.79 336.3 194.19 408 290.79 408 C326.15 408 356.69 398.34 381.19 381.18 L158.95 135.65 C142.63 163.21 133.79 197.44 133.79 236 L133.79 236 Z M447.89 235.8 C447.89 135 387.29 64 290.79 64 C255.62 64 225.25 73.44 200.84 90.3 L422.17 336.84 C438.84 309.07 447.89 274.55 447.89 235.8 L447.89 235.8 Z " />
<glyph glyph-name="Scommaaccent" unicode="&#x218;" horiz-adv-x="522" d="M250.5 -11 C383.4 -11 468.7 58 468.7 176 C468.7 293.9 393 333 314 360 C230.1 388.7 143.9 404.7 143.9 488 C143.9 537.8 188.6 579 261.6 579 C330.8 579 376 556 415.6 526 L457.9 591 C416.5 624 358.7 654 262.1 654 C142 654 63.7 580 63.7 483 C63.7 338.2 179 316 271 287 C334.2 267 387.6 242.6 387.6 174 C387.6 109.9 344 64 250.7 64 C183 64 130.9 93 94.6 132 L46 71 C79.6 34 143.1 -11 250.5 -11 L250.5 -11 Z M261.8 -42 C229.9 -41.9 204.2 -68.6 204.2 -100.7 C204.2 -129.9 226.8 -155 256 -158 C255.5 -180.9 243.5 -209.2 222.8 -232.4 L251 -253.4 C290.7 -216.9 319.3 -163.6 319.3 -100.7 C319.3 -68.6 293.7 -42.1 261.8 -42 L261.8 -42 Z " />
<glyph glyph-name="scommaaccent" unicode="&#x219;" horiz-adv-x="461" d="M242.8 483 C129.3 483 58.1 429.5 58.1 346 C58.1 244 141 221 215 204 C279.5 189.2 334.2 179.1 334.2 131.6 C334.2 85 292.5 60 224.4 60 C143.1 60 101.1 89 75 109 L43 43.5 C80.1 14.8 139.5 -11 223.3 -11 C340.5 -11 414.2 36.1 414.2 131.6 C414.2 237.4 333 262 255 279 C192.1 292.7 137.7 303 137.7 350.2 C137.7 385.6 176 412 242.8 412 C300.5 412 343.5 397.3 378.3 379.6 L394.9 449.3 C359.5 466.6 314.5 483 242.8 483 L242.8 483 Z M238.5 -42 C206.6 -41.9 180.9 -68.6 180.9 -100.7 C180.9 -129.9 203.5 -155 232.7 -158 C232.2 -180.9 220.2 -209.2 199.5 -232.4 L227.7 -253.4 C267.4 -216.9 296 -163.6 296 -100.7 C296 -68.6 270.4 -42.1 238.5 -42 L238.5 -42 Z " />
<glyph glyph-name="uni021A" unicode="&#x21a;" horiz-adv-x="530" d="M31 642 L31 568 L224.5 568 L224.5 0 L305.4 0 L305.4 568 L497.9 568 L497.9 642 L31 642 Z M264.5 -42 C232.6 -41.9 206.9 -68.6 206.9 -100.7 C206.9 -129.9 229.5 -155 258.7 -158 C258.2 -180.9 246.2 -209.2 225.5 -232.4 L253.7 -253.4 C293.4 -216.9 322 -163.6 322 -100.7 C322 -68.6 296.4 -42.1 264.5 -42 L264.5 -42 Z " />
<glyph glyph-name="uni021B" unicode="&#x21b;" horiz-adv-x="388" d="M375.3 35.7 L339.6 94 C326.1 80.6 300.7 60 263.4 60 C219.3 60 184 78 184 163 L184 405 L337.7 405 L337.7 470 L184 470 L184 594 L103.1 575.7 L103.1 470 L28 470 L28 405 L103.1 405 L103.1 147.1 C103.1 45.7 158 -11 255.4 -11 C311.5 -11 348.8 9.80002 375.3 35.7 L375.3 35.7 Z M242.4 -42 C210.5 -41.9 184.8 -68.6 184.8 -100.7 C184.8 -129.9 207.4 -155 236.6 -158 C236.1 -180.9 224.1 -209.2 203.4 -232.4 L231.6 -253.4 C271.3 -216.9 299.9 -163.6 299.9 -100.7 C299.9 -68.6 274.3 -42.1 242.4 -42 L242.4 -42 Z " />
<glyph glyph-name="uni0237" unicode="&#x237;" horiz-adv-x="268" d="M189 470 L38 470 L38 400 L108 400 L109.9 -31.5 C109.9 -92.5 81.5 -123 39.4 -123 C9.39999 -123 -11.5 -111.3 -26.6 -100 L-63.2 -161.3 C-39.5 -179.3 -4.50002 -194 42.9 -194 C134.1 -194 189 -133.1 189 -35.9 L189 470 Z " />
<glyph glyph-name="circumflex" unicode="&#x2c6;" horiz-adv-x="310" d="M183.3 676.2 L128.1 676.2 L28 568 L65.5 525.1 L155.6 605 L245.9 525.1 L283.4 568 L183.3 676.2 Z " />
<glyph glyph-name="caron" unicode="&#x2c7;" horiz-adv-x="310" d="M128.1 528.1 L183.3 528.1 L283.4 636.3 L245.9 679.2 L155.6 599.3 L65.5 679.2 L28 636.3 L128.1 528.1 Z " />
<glyph glyph-name="breve" unicode="&#x2d8;" horiz-adv-x="325" d="M157.2 530 C245.3 530 282.1 599 282.1 663 L225 669 C222.1 625 205.1 591 159.1 591 C112.8 591 95 624 89.4 669 L32 663 C32 595 68.8 530 157.2 530 L157.2 530 Z " />
<glyph glyph-name="dotaccent" unicode="&#x2d9;" horiz-adv-x="214" d="M160.1 608 C160.1 640 135.5 665 105 665 C72.6 665 48 640 48 608 C48 576 73.6 551 105 551 C135.5 551 160.1 576 160.1 608 L160.1 608 Z " />
<glyph glyph-name="ring" unicode="&#x2da;" horiz-adv-x="251" d="M213.4 601 C213.4 653 175.9 697 121.7 697 C66.5 697 29 653 29 601 C29 549 66.5 505 121.7 505 C175.9 505 213.4 549 213.4 601 L213.4 601 Z M121.7 558 C94.9 558 81.8 579 81.8 601 C81.8 624 94.9 645 121.7 645 C149.4 645 161.5 624 161.5 601 C161.5 579 149.4 558 121.7 558 L121.7 558 Z " />
<glyph glyph-name="ogonek" unicode="&#x2db;" horiz-adv-x="295" d="M123.8 -190 C160 -190 190.7 -173 207.2 -156 L178.6 -103 C171.6 -109.3 155.8 -120 139 -120 C123.8 -120 108.7 -113 108.7 -82.5 C108.7 -44 145.1 2.7 207.2 32.2 L136.4 32.2 C75.6 6 32.9 -42.9 32.9 -103 C32.9 -161 73.3 -190 123.8 -190 L123.8 -190 Z " />
<glyph glyph-name="tilde" unicode="&#x2dc;" horiz-adv-x="369" d="M76.1 559.3 C85.5 576.7 98.4 587 121.5 587 C149.5 587 191.4 553 237 553 C285.5 553 316.3 579 333.6 624.6 L275.3 647.7 C265.9 630.3 253 620 229.9 620 C200.7 620 161.6 655 114.4 655 C65.9 655 35.1 628 17.8 582.4 L76.1 559.3 Z " />
<glyph glyph-name="hungarumlaut" unicode="&#x2dd;" horiz-adv-x="345" d="M66.5 520.3 L164.3 646 L91.3 693.6 L19.4 546 L66.5 520.3 Z M207.5 520.3 L305.3 646 L232.3 693.6 L160.4 546 L207.5 520.3 Z " />
<glyph glyph-name="gravecomb" unicode="&#x300;" d="M-59.7 519 L-27 561.2 L-162.2 688.3 L-215 619 L-59.7 519 Z " />
<glyph glyph-name="acutecomb" unicode="&#x301;" d="M-185.3 519 L-30 619 L-82.8 688.3 L-218 561.2 L-185.3 519 Z " />
<glyph glyph-name="uni0302" unicode="&#x302;" d="M-128.1 676.2 L-183.3 676.2 L-283.4 568 L-245.9 525.1 L-155.8 605 L-65.5 525.1 L-28 568 L-128.1 676.2 Z " />
<glyph glyph-name="tildecomb" unicode="&#x303;" d="M-270.6 559.3 C-261.2 576.7 -248.3 587 -225.2 587 C-197.2 587 -155.3 553 -109.7 553 C-61.2 553 -30.4 579 -13.1 624.6 L-71.4 647.7 C-80.8 630.3 -93.7 620 -116.8 620 C-146 620 -185.1 655 -232.3 655 C-280.8 655 -311.6 628 -328.9 582.4 L-270.6 559.3 Z " />
<glyph glyph-name="uni0304" unicode="&#x304;" d="M-284.4 562 L-38 562 L-38 629 L-284.4 629 L-284.4 562 Z " />
<glyph glyph-name="uni0306" unicode="&#x306;" d="M-156.9 530 C-68.8 530 -32 599 -32 663 L-89.1 669 C-92 625 -109 591 -155 591 C-201.3 591 -219.1 624 -224.7 669 L-282.1 663 C-282.1 595 -245.3 530 -156.9 530 L-156.9 530 Z " />
<glyph glyph-name="uni0307" unicode="&#x307;" d="M-48 608 C-48 640 -72.6 665 -103.1 665 C-135.5 665 -160.1 640 -160.1 608 C-160.1 576 -134.5 551 -103.1 551 C-72.6 551 -48 576 -48 608 L-48 608 Z " />
<glyph glyph-name="uni0308" unicode="&#x308;" d="M-216.8 601.3 C-216.8 631 -238.8 653.5 -266.8 653.5 C-297.7 653.5 -319.7 631 -319.7 601.3 C-319.7 570.5 -296.7 548 -266.8 548 C-238.8 548 -216.8 570.5 -216.8 601.3 L-216.8 601.3 Z M-30 601.3 C-30 631 -53.1 653.5 -81.1 653.5 C-110.9 653.5 -133.1 631 -133.1 601.3 C-133.1 570.5 -110 548 -81.1 548 C-53.1 548 -30 570.5 -30 601.3 L-30 601.3 Z " />
<glyph glyph-name="uni030A" unicode="&#x30a;" d="M-29 601 C-29 653 -66.5 697 -120.7 697 C-175.9 697 -213.4 653 -213.4 601 C-213.4 549 -175.9 505 -120.7 505 C-66.5 505 -29 549 -29 601 L-29 601 Z M-120.7 558 C-147.5 558 -160.6 579 -160.6 601 C-160.6 624 -147.5 645 -120.7 645 C-93 645 -80.9 624 -80.9 601 C-80.9 579 -93 558 -120.7 558 L-120.7 558 Z " />
<glyph glyph-name="uni030B" unicode="&#x30b;" d="M-267.3 520.3 L-169.5 646 L-242.5 693.6 L-314.4 546 L-267.3 520.3 Z M-126.3 520.3 L-28.5 646 L-101.5 693.6 L-173.4 546 L-126.3 520.3 Z " />
<glyph glyph-name="uni030C" unicode="&#x30c;" d="M-181.2 528.1 L-126 528.1 L-25.9 636.3 L-63.4 679.2 L-153.7 599.3 L-243.8 679.2 L-281.3 636.3 L-181.2 528.1 Z " />
<glyph glyph-name="uni0326" unicode="&#x326;" d="M-82.5 -42 C-114.4 -41.9 -140.1 -68.6 -140.1 -100.7 C-140.1 -129.9 -117.5 -155 -88.3 -158 C-88.8 -180.9 -100.8 -209.2 -121.5 -232.4 L-93.3 -253.4 C-53.6 -216.9 -25 -163.6 -25 -100.7 C-25 -68.6 -50.6 -42.1 -82.5 -42 L-82.5 -42 Z " />
<glyph glyph-name="uni0327" unicode="&#x327;" d="M-128.3 11 L-159.6 -76 C-123.5 -77 -97 -84 -97 -110 C-97 -129.3 -114 -138 -136.6 -138 C-151.9 -138 -166.1 -133.4 -180.3 -125 L-200.8 -173 C-188.2 -182 -158.9 -190 -134.4 -190 C-82.8 -190 -26 -173 -26 -105.3 C-26 -64 -54 -45.4 -91.6 -38 L-74.5 11 L-128.3 11 Z " />
<glyph glyph-name="uni0328" unicode="&#x328;" d="M-127.5 -190 C-91.3 -190 -60.6 -173 -44.1 -156 L-72.7 -103 C-79.7 -109.3 -95.5 -120 -112.3 -120 C-127.5 -120 -142.6 -113 -142.6 -82.5 C-142.6 -44 -106.2 2.7 -44.1 32.2 L-114.9 32.2 C-175.7 6 -218.4 -42.9 -218.4 -103 C-218.4 -161 -178 -190 -127.5 -190 L-127.5 -190 Z " />
<glyph glyph-name="uni0335" unicode="&#x335;" d="M-269.5 437 L-34 437 L-34 502 L-269.5 502 L-269.5 437 Z " />
<glyph glyph-name="uni0336" unicode="&#x336;" d="M-640 441 L-34 441 L-34 504 L-640 504 L-640 441 Z " />
<glyph glyph-name="uni0337" unicode="&#x337;" d="M-223 258 L-5 368 L-32 423 L-250 313 L-223 258 Z " />
<glyph glyph-name="uni0338" unicode="&#x338;" d="M-491 -27 L-52 462 L-96 502 L-535 17 L-491 -27 Z " />
<glyph glyph-name="Wgrave" unicode="&#x1e80;" horiz-adv-x="872" d="M536.2 719.4 L364.4 804 L332 721.9 L520.1 670 L536.2 719.4 Z M759.8 642 L625.2 126.9 L617.6 95.62 L610.9 127.1 L482.2 584 L401.1 584 L260.4 126.9 L253.73 96.84 L247.1 127.1 L125.2 642 L36 642 L204.8 -3.05176e-05 L294.4 -3.05176e-05 L422.4 405 L441.25 478.11 L457 407 L568.4 -3.05176e-05 L656.6 -3.05176e-05 L843.5 642 L759.8 642 Z " />
<glyph glyph-name="wgrave" unicode="&#x1e81;" horiz-adv-x="741" d="M460.5 561.2 L325.3 688.3 L272.5 619 L427.8 519 L460.5 561.2 Z M624.6 470 L519 90.53 L410.5 470 L327.4 470 L226.35 90.12 L116 470 L30 470 L179.3 0 L269.4 0 L369.41 365.59 L471.9 0 L562.2 0 L709.6 470 L624.6 470 Z " />
<glyph glyph-name="Wacute" unicode="&#x1e82;" horiz-adv-x="872" d="M551.9 721.9 L519.5 804 L347.7 719.4 L363.8 670 L551.9 721.9 Z M759.8 642 L625.2 126.9 L617.6 95.62 L610.9 127.1 L482.2 584 L401.1 584 L260.4 126.9 L253.73 96.84 L247.1 127.1 L125.2 642 L36 642 L204.8 -3.05176e-05 L294.4 -3.05176e-05 L422.4 405 L441.25 478.11 L457 407 L568.4 -3.05176e-05 L656.6 -3.05176e-05 L843.5 642 L759.8 642 Z " />
<glyph glyph-name="wacute" unicode="&#x1e83;" horiz-adv-x="741" d="M465.8 619 L413 688.3 L277.8 561.2 L310.5 519 L465.8 619 Z M624.6 470 L519 90.53 L410.5 470 L327.4 470 L226.35 90.12 L116 470 L30 470 L179.3 0 L269.4 0 L369.41 365.59 L471.9 0 L562.2 0 L709.6 470 L624.6 470 Z " />
<glyph glyph-name="Wdieresis" unicode="&#x1e84;" horiz-adv-x="872" d="M351.7 689 C380.9 689 403.4 711 403.4 741 C403.4 770 381.8 792 351.7 792 C321.6 792 300 770 300 741 C300 711 322.5 689 351.7 689 L351.7 689 Z M531.7 689 C560.9 689 583.4 711 583.4 741 C583.4 770 561.8 792 531.7 792 C501.6 792 480 770 480 741 C480 711 502.5 689 531.7 689 L531.7 689 Z M759.8 642 L625.2 126.9 L617.6 95.62 L610.9 127.1 L482.2 584 L401.1 584 L260.4 126.9 L253.73 96.84 L247.1 127.1 L125.2 642 L35.9999 642 L204.8 -3.05176e-05 L294.4 -3.05176e-05 L422.4 405 L441.25 478.11 L457 407 L568.4 -3.05176e-05 L656.6 -3.05176e-05 L843.5 642 L759.8 642 Z " />
<glyph glyph-name="wdieresis" unicode="&#x1e85;" horiz-adv-x="741" d="M281.5 548 C309.5 548 331.5 570.5 331.5 601.3 C331.5 631 309.5 653.5 281.5 653.5 C250.6 653.5 228.6 631 228.6 601.3 C228.6 570.5 251.6 548 281.5 548 L281.5 548 Z M467.2 548 C495.2 548 518.3 570.5 518.3 601.3 C518.3 631 495.2 653.5 467.2 653.5 C437.4 653.5 415.2 631 415.2 601.3 C415.2 570.5 438.3 548 467.2 548 L467.2 548 Z M624.6 470 L519 90.53 L410.5 470 L327.4 470 L226.35 90.12 L116 470 L30 470 L179.3 0 L269.4 0 L369.41 365.59 L471.9 0 L562.2 0 L709.6 470 L624.6 470 Z " />
<glyph glyph-name="uni1E9E" unicode="&#x1e9e;" horiz-adv-x="644" d="M395.88 373.87 L518.9 567 L518.9 642 L326 642 C194.5 642 90.1 568 90.1 430 L90.1 0 L171 0 L171 430 C171 527 239 567 321 567 L426.29 567 L306.8 375.5 L306.8 302.3 L348.3 302.3 C434 302.3 513.6 269.3 513.6 178.8 C513.6 109.9 476.4 64 396.7 64 C353.7 64 317.8 79.3 289.3 102.9 L240.9 41.8 C274.4 13.9 324.6 -11 396.5 -11 C517.2 -11 594.7 58 594.7 180.8 C594.7 309.08 500.14 364.07 395.88 373.87 L395.88 373.87 Z " />
<glyph glyph-name="Ygrave" unicode="&#x1ef2;" horiz-adv-x="582" d="M385 719.4 L213.2 804 L180.8 721.9 L368.9 670 L385 719.4 Z M553.1 642 L466.1 642 L308.5 349.2 L294.29 317.63 L280 348.1 L117.5 642 L26 642 L251.5 247.92 L251.5 -1.52588e-05 L332.4 -1.52588e-05 L332.4 247.96 L553.1 642 Z " />
<glyph glyph-name="ygrave" unicode="&#x1ef3;" horiz-adv-x="507" d="M350.9 561.2 L215.7 688.3 L162.9 619 L318.2 519 L350.9 561.2 Z M478.9 470 L390.9 470 L258.79 86.95 L120.2 470 L29 470 L209 0 L226 0 L195 -71 C172.2 -123.2 129.1 -123.3 94.5 -123.3 L94.5 -194.3 C160.7 -194.3 230.8 -183.9 272 -79 L303 -1.52588e-05 L302.8 -1.52588e-05 L478.9 470 Z " />
<glyph glyph-name="uni1EF8" unicode="&#x1ef8;" horiz-adv-x="582" d="M232.2 724 C260.2 724 302.1 690 347.7 690 C396.2 690 427 716 444.3 761.6 L386 784.7 C376.6 767.3 363.7 757 340.6 757 C311.4 757 272.3 792 225.1 792 C176.6 792 145.8 765 128.5 719.4 L186.8 696.3 C196.2 713.7 209.1 724 232.2 724 L232.2 724 Z M553.1 642 L466.1 642 L308.5 349.2 L294.29 317.63 L280 348.1 L117.5 642 L26 642 L251.5 247.92 L251.5 -1.52588e-05 L332.4 -1.52588e-05 L332.4 247.96 L553.1 642 Z " />
<glyph glyph-name="uni1EF9" unicode="&#x1ef9;" horiz-adv-x="507" d="M210.9 587 C238.9 587 280.8 553 326.4 553 C374.9 553 405.7 579 423 624.6 L364.7 647.7 C355.3 630.3 342.4 620 319.3 620 C290.1 620 251 655 203.8 655 C155.3 655 124.5 628 107.2 582.4 L165.5 559.3 C174.9 576.7 187.8 587 210.9 587 L210.9 587 Z M478.9 470 L390.9 470 L258.79 86.95 L120.2 470 L29 470 L209 0 L226 0 L195 -71 C172.2 -123.2 129.1 -123.3 94.5 -123.3 L94.5 -194.3 C160.7 -194.3 230.8 -183.9 272 -79 L303 -1.52588e-05 L302.8 -1.52588e-05 L478.9 470 Z " />
<glyph glyph-name="endash" unicode="&#x2013;" horiz-adv-x="582" d="M73 215 L509 215 L509 282 L73 282 L73 215 Z " />
<glyph glyph-name="emdash" unicode="&#x2014;" horiz-adv-x="1079" d="M73 215 L1006 215 L1006 282 L73 282 L73 215 Z " />
<glyph glyph-name="quoteleft" unicode="&#x2018;" horiz-adv-x="235" d="M118.2 428 C152.4 428 179.9 457 179.9 492 C179.9 524.4 157.5 552.2 123.5 554.8 C125.3 595.6 143.3 628.6 162.8 657.4 L128.7 681.8 C91.1 632.7 56.6 573.7 56.6 496.6 C56.6 455 84 428 118.2 428 L118.2 428 Z " />
<glyph glyph-name="quoteright" unicode="&#x2019;" horiz-adv-x="232" d="M117.1 682.1 C82.9 682.1 55.4 653.1 55.4 618.1 C55.4 585.7 77.8 557.9 111.8 555.3 C110 514.5 92 481.5 72.5 452.7 L106.6 428.3 C144.2 477.4 178.7 536.4 178.7 613.5 C178.7 655.1 151.3 682.1 117.1 682.1 L117.1 682.1 Z " />
<glyph glyph-name="quotesinglbase" unicode="&#x201a;" horiz-adv-x="248" d="M123.1 116 C88.9 116 61.4 87 61.4 52 C61.4 19.6 83.8 -8.2 117.8 -10.8 C116 -51.6 98 -84.6 78.5 -113.4 L112.6 -137.8 C150.2 -88.7 184.7 -29.7 184.7 47.4 C184.7 89 157.3 116 123.1 116 L123.1 116 Z " />
<glyph glyph-name="quotedblleft" unicode="&#x201c;" horiz-adv-x="395" d="M118.2 428 C152.4 428 179.9 457 179.9 492 C179.9 524.4 157.5 552.2 123.5 554.8 C125.3 595.6 143.3 628.6 162.8 657.4 L128.7 681.8 C91.1 632.7 56.6 573.7 56.6 496.6 C56.6 455 84 428 118.2 428 L118.2 428 Z M278.2 428 C312.4 428 339.9 457 339.9 492 C339.9 524.4 317.5 552.2 283.5 554.8 C285.3 595.6 303.3 628.6 322.8 657.4 L288.7 681.8 C251.1 632.7 216.6 573.7 216.6 496.6 C216.6 455 244 428 278.2 428 L278.2 428 Z " />
<glyph glyph-name="quotedblright" unicode="&#x201d;" horiz-adv-x="392" d="M117.1 682.1 C82.9 682.1 55.4 653.1 55.4 618.1 C55.4 585.7 77.8 557.9 111.8 555.3 C110 514.5 92 481.5 72.5 452.7 L106.6 428.3 C144.2 477.4 178.7 536.4 178.7 613.5 C178.7 655.1 151.3 682.1 117.1 682.1 L117.1 682.1 Z M277.1 682.1 C242.9 682.1 215.4 653.1 215.4 618.1 C215.4 585.7 237.8 557.9 271.8 555.3 C270 514.5 252 481.5 232.5 452.7 L266.6 428.3 C304.2 477.4 338.7 536.4 338.7 613.5 C338.7 655.1 311.3 682.1 277.1 682.1 L277.1 682.1 Z " />
<glyph glyph-name="quotedblbase" unicode="&#x201e;" horiz-adv-x="409" d="M123.1 116 C88.9 116 61.4 87 61.4 52 C61.4 19.6 83.8 -8.2 117.8 -10.8 C116 -51.6 98 -84.6 78.5 -113.4 L112.6 -137.8 C150.2 -88.7 184.7 -29.7 184.7 47.4 C184.7 89 157.3 116 123.1 116 L123.1 116 Z M283.1 116 C248.9 116 221.4 87 221.4 52 C221.4 19.6 243.8 -8.19998 277.8 -10.8 C276 -51.6 258 -84.6 238.5 -113.4 L272.6 -137.8 C310.2 -88.7 344.7 -29.7 344.7 47.4 C344.7 89 317.3 116 283.1 116 L283.1 116 Z " />
<glyph glyph-name="dagger" unicode="&#x2020;" horiz-adv-x="504" d="M439 502 L289 502 L289 642 L212 642 L212 502 L65 502 L65 422 L212 422 L212 0 L289 0 L289 422 L439 422 L439 502 Z " />
<glyph glyph-name="daggerdbl" unicode="&#x2021;" horiz-adv-x="504" d="M439 422 L439 502 L289 502 L289 642 L212 642 L212 502 L65 502 L65 422 L212 422 L212 220 L65 220 L65 140 L212 140 L212 0 L289 0 L289 140 L439 140 L439 220 L289 220 L289 422 L439 422 Z " />
<glyph glyph-name="bullet" unicode="&#x2022;" horiz-adv-x="390" d="M304 270 C304 331 255 380 195 380 C134 380 85 331 85 270 C85 210 134 161 195 161 C255 161 304 210 304 270 L304 270 Z " />
<glyph glyph-name="ellipsis" unicode="&#x2026;" horiz-adv-x="642" d="M182.3 52 C182.3 87 154.9 116 120.7 116 C86.5 116 59 87 59 52 C59 18 86.5 -11 120.7 -11 C154.9 -11 182.3 18 182.3 52 L182.3 52 Z M382.3 52 C382.3 87 354.9 116 320.7 116 C286.5 116 259 87 259 52 C259 18 286.5 -11 320.7 -11 C354.9 -11 382.3 18 382.3 52 L382.3 52 Z M582.3 52 C582.3 87 554.9 116 520.7 116 C486.5 116 459 87 459 52 C459 18 486.5 -11 520.7 -11 C554.9 -11 582.3 18 582.3 52 L582.3 52 Z " />
<glyph glyph-name="perthousand" unicode="&#x2030;" horiz-adv-x="1075" d="M185 342 C276 342 328 405 328 492 C328 579 276 642 185 642 C93 642 41 579 41 492 C41 405 93 342 185 342 L185 342 Z M128.4 0 L204.4 0 L633.1 642 L557.1 642 L128.4 0 Z M185 401 C131 401 107 439 107 492 C107 544 131 583 185 583 C238 583 262 544 262 492 C262 439 238 401 185 401 L185 401 Z M561 -14 C652 -14 704 49 704 136 C704 223 652 286 561 286 C469 286 417 223 417 136 C417 49 469 -14 561 -14 L561 -14 Z M893 -14 C984 -14 1036 49 1036 136 C1036 223 984 286 893 286 C801 286 749 223 749 136 C749 49 801 -14 893 -14 L893 -14 Z M561 45 C507 45 483 83 483 136 C483 188 507 227 561 227 C615 227 638 188 638 136 C638 83 615 45 561 45 L561 45 Z M893 45 C839 45 815 83 815 136 C815 188 839 227 893 227 C947 227 970 188 970 136 C970 83 947 45 893 45 L893 45 Z " />
<glyph glyph-name="guilsinglleft" unicode="&#x2039;" horiz-adv-x="301" d="M47 255 L187 94 L235 131 L130 255 L235 379 L187 416 L47 255 Z " />
<glyph glyph-name="guilsinglright" unicode="&#x203a;" horiz-adv-x="301" d="M254 255 L114 416 L66 379 L171 255 L66 131 L114 94 L254 255 Z " />
<glyph glyph-name="fraction" unicode="&#x2044;" horiz-adv-x="533" d="M14.4 0 L90.4 0 L519.1 642 L443.1 642 L14.4 0 Z " />
<glyph glyph-name="Euro" unicode="&#x20ac;" horiz-adv-x="660" d="M572 117 C537.2 86.4 497.7 64 417.3 64 C322.39 64 241.88 124.9 211.81 228 L423.9 228 L423.9 291 L200.4 291 C199.61 300.74 199.2 310.74 199.2 321 C199.2 335.53 200 349.53 201.55 363 L423.9 363 L423.9 426 L215.4 426 C248.25 523.16 327.73 579 422.9 579 C479.8 579 522.7 562.7 563.3 532 L608.1 595 C566.3 628 506.4 654 422.7 654 C282.95 654 168.2 562.98 129.25 426 L50 426 L50 363 L117.17 363 C115.73 349.32 115 335.3 115 321 C115 310.84 115.33 300.84 115.99 291 L50 291 L50 228 L125.07 228 C157.67 84.31 267 -11 416.9 -11 C518.1 -11 578 23 613.2 55 L572 117 Z " />
<glyph glyph-name="trademark" unicode="&#x2122;" horiz-adv-x="806" d="M43 592.1 L149.5 592.1 L149.5 301 L219.6 301 L219.6 592.1 L326.3 592.1 L326.3 654.1 L43 654.1 L43 592.1 Z M648.4 654.1 L552.5 424.1 L546.58 407.6 L540.3 424.1 L437 654.1 L363 654.1 L363 301 L427.5 301 L427.5 505.1 L426.04 539.38 L437.6 507.2 L515.6 331.1 L573.8 331.1 L647 507.1 L658.98 542.98 L657.3 505.1 L657.3 301 L721.5 301 L721.5 654.1 L648.4 654.1 Z " />
<glyph glyph-name="arrowleft" unicode="&#x2190;" horiz-adv-x="1200" d="M1000 750 L200 750 C145 750 100 705 100 650 L100 -150 C100 -205 145 -250 200 -250 L1000 -250 C1055 -250 1100 -205 1100 -150 L1100 650 C1100 705 1055 750 1000 750 L1000 750 Z M949.5 674.4 C1004 674.4 1024.4 654 1024.4 599.5 L1024.4 -99.5 C1024.4 -154 1004 -174.4 949.5 -174.4 L250.5 -174.4 C196 -174.4 175.6 -154 175.6 -99.5 L175.6 599.5 C175.6 654 196 674.4 250.5 674.4 L949.5 674.4 Z M593 533 L665 466 L489 300 L934 300 L934 200 L489 200 L665 34 L593 -33 L309 250 L593 533 Z " />
<glyph glyph-name="arrowup" unicode="&#x2191;" horiz-adv-x="1200" d="M1000 750 L200 750 C145 750 100 705 100 650 L100 -150 C100 -205 145 -250 200 -250 L1000 -250 C1055 -250 1100 -205 1100 -150 L1100 650 C1100 705 1055 750 1000 750 L1000 750 Z M949.5 674.4 C1004 674.4 1024.4 654 1024.4 599.5 L1024.4 -99.5 C1024.4 -154 1004 -174.4 949.5 -174.4 L250.5 -174.4 C196 -174.4 175.6 -154 175.6 -99.5 L175.6 599.5 C175.6 654 196 674.4 250.5 674.4 L949.5 674.4 Z M884 279 L601 563 L318 279 L385 207 L551 383 L551 -63 L651 -63 L651 383 L817 207 L884 279 Z " />
<glyph glyph-name="arrowright" unicode="&#x2192;" horiz-adv-x="1200" d="M1000 750 L200 750 C145 750 100 705 100 650 L100 -150 C100 -205 145 -250 200 -250 L1000 -250 C1055 -250 1100 -205 1100 -150 L1100 650 C1100 705 1055 750 1000 750 L1000 750 Z M949.5 674.4 C1004 674.4 1024.4 654 1024.4 599.5 L1024.4 -99.5 C1024.4 -154 1004 -174.4 949.5 -174.4 L250.5 -174.4 C196 -174.4 175.6 -154 175.6 -99.5 L175.6 599.5 C175.6 654 196 674.4 250.5 674.4 L949.5 674.4 Z M650 533 L934 250 L650 -33 L578 34 L754 200 L309 200 L309 300 L754 300 L578 466 L650 533 Z " />
<glyph glyph-name="arrowdown" unicode="&#x2193;" horiz-adv-x="1200" d="M1000 750 L200 750 C145 750 100 705 100 650 L100 -150 C100 -205 145 -250 200 -250 L1000 -250 C1055 -250 1100 -205 1100 -150 L1100 650 C1100 705 1055 750 1000 750 L1000 750 Z M949.5 674.4 C1004 674.4 1024.4 654 1024.4 599.5 L1024.4 -99.5 C1024.4 -154 1004 -174.4 949.5 -174.4 L250.5 -174.4 C196 -174.4 175.6 -154 175.6 -99.5 L175.6 599.5 C175.6 654 196 674.4 250.5 674.4 L949.5 674.4 Z M884 221 L817 293 L651 117 L651 563 L551 563 L551 117 L385 293 L318 221 L601 -63 L884 221 Z " />
<glyph glyph-name="uni2196" unicode="&#x2196;" horiz-adv-x="1200" d="M1000 750 L200 750 C145 750 100 705 100 650 L100 -150 C100 -205 145 -250 200 -250 L1000 -250 C1055 -250 1100 -205 1100 -150 L1100 650 C1100 705 1055 750 1000 750 L1000 750 Z M949.5 674.4 C1004 674.4 1024.4 654 1024.4 599.5 L1024.4 -99.5 C1024.4 -154 1004 -174.4 949.5 -174.4 L250.5 -174.4 C196 -174.4 175.6 -154 175.6 -99.5 L175.6 599.5 C175.6 654 196 674.4 250.5 674.4 L949.5 674.4 Z M780 478 L779 379 L549 379 L856 72 L786 1 L479 308 L479 78 L380 78 L379 478 L780 478 Z " />
<glyph glyph-name="uni2197" unicode="&#x2197;" horiz-adv-x="1200" d="M1000 750 L200 750 C145 750 100 705 100 650 L100 -150 C100 -205 145 -250 200 -250 L1000 -250 C1055 -250 1100 -205 1100 -150 L1100 650 C1100 705 1055 750 1000 750 L1000 750 Z M949.5 674.4 C1004 674.4 1024.4 654 1024.4 599.5 L1024.4 -99.5 C1024.4 -154 1004 -174.4 949.5 -174.4 L250.5 -174.4 C196 -174.4 175.6 -154 175.6 -99.5 L175.6 599.5 C175.6 654 196 674.4 250.5 674.4 L949.5 674.4 Z M438 478 L839 478 L838 78 L739 78 L739 308 L432 1 L362 72 L669 379 L439 379 L438 478 Z " />
<glyph glyph-name="uni2198" unicode="&#x2198;" horiz-adv-x="1200" d="M1000 750 L200 750 C145 750 100 705 100 650 L100 -150 C100 -205 145 -250 200 -250 L1000 -250 C1055 -250 1100 -205 1100 -150 L1100 650 C1100 705 1055 750 1000 750 L1000 750 Z M949.5 674.4 C1004 674.4 1024.4 654 1024.4 599.5 L1024.4 -99.5 C1024.4 -154 1004 -174.4 949.5 -174.4 L250.5 -174.4 C196 -174.4 175.6 -154 175.6 -99.5 L175.6 599.5 C175.6 654 196 674.4 250.5 674.4 L949.5 674.4 Z M438 12 L439 111 L669 111 L362 418 L432 489 L739 182 L739 412 L838 412 L839 12 L438 12 Z " />
<glyph glyph-name="uni2199" unicode="&#x2199;" horiz-adv-x="1200" d="M1000 750 L200 750 C145 750 100 705 100 650 L100 -150 C100 -205 145 -250 200 -250 L1000 -250 C1055 -250 1100 -205 1100 -150 L1100 650 C1100 705 1055 750 1000 750 L1000 750 Z M949.5 674.4 C1004 674.4 1024.4 654 1024.4 599.5 L1024.4 -99.5 C1024.4 -154 1004 -174.4 949.5 -174.4 L250.5 -174.4 C196 -174.4 175.6 -154 175.6 -99.5 L175.6 599.5 C175.6 654 196 674.4 250.5 674.4 L949.5 674.4 Z M763 12 L362 12 L363 412 L462 412 L462 182 L769 489 L839 418 L532 111 L762 111 L763 12 Z " />
<glyph glyph-name="minus" unicode="&#x2212;" horiz-adv-x="573" d="M76 202 L497 202 L497 272 L76 272 L76 202 Z " />
<glyph glyph-name="approxequal" unicode="&#x2248;" horiz-adv-x="574" d="M125 250.2 C148 285.8 174 297.2 204 297.2 C259 297.2 292 252.2 367 252.2 C420 252.2 469 285.1 498 340.2 L443 376.2 C421 346.2 397 326.2 367 326.2 C305 326.2 264 371.2 204 371.2 C154 371.2 105 338.9 76 286.2 L125 250.2 Z M125 70 C148 105.6 174 117 204 117 C259 117 292 72 367 72 C420 72 469 105 498 160 L443 196 C421 166 397 146 367 146 C305 146 264 191 204 191 C154 191 105 158.7 76 106 L125 70 Z " />
<glyph glyph-name="notequal" unicode="&#x2260;" horiz-adv-x="573" d="M497 296 L497 366 L414.39 366 L454 434 L394 470 L333.43 366 L76 366 L76 296 L292.66 296 L223.36 177 L76 177 L76 107 L182.59 107 L136 27 L196 -9 L263.56 107 L497 107 L497 177 L304.32 177 L373.63 296 L497 296 Z " />
<glyph glyph-name="uniF8FF" unicode="&#xf8ff;" horiz-adv-x="1451" d="M691 583 C691 549 718 522 752 522 C787 522 814 549 814 583 C814 618 787 645 752 645 C718 645 691 618 691 583 L691 583 Z M219 270 C219 425 211 544 209 584 L109 584 C107 544 100 423 100 270 L219 270 Z M694 270 L812 270 C812 351 809 464 802 509 L624 509 L623 526 L504 496 L504 417 L526 417 C526 411 522 351 522 330 C522 287 550 264 604 264 C633 264 662 268 672 279 L672 353 C668 349 660 348 654 348 C647 348 641 350 639 352 L636 417 L697 417 C695 380 694 332 694 270 L694 270 Z M328 265 C376 265 395 290 403 331 L411 270 L494 270 L494 397 C494 471 455 514 370 514 C278 514 236 464 236 379 C236 301 271 265 328 265 L328 265 Z M1090 270 L1087 408 C1085 479 1069 514 1010 514 C944 514 932 450 930 433 C930 453 927 487 924 509 L844 509 C837 464 834 351 834 270 L948 270 C948 316 945 343 945 363 C945 380 947 392 963 392 C976 392 978 383 978 363 C978 343 976 316 976 270 L1090 270 Z M1351 391 C1351 454 1327 514 1230 514 C1132 514 1106 453 1106 389 C1106 313 1143 265 1228 265 C1313 265 1351 312 1351 391 L1351 391 Z M390 375 C390 356 381 345 366 345 C351 345 344 356 344 375 C344 394 351 401 366 401 C381 401 390 394 390 375 L390 375 Z M1251 375 C1251 356 1242 345 1228 345 C1214 345 1207 356 1207 375 C1207 394 1214 401 1228 401 C1242 401 1251 394 1251 375 L1251 375 Z M428 238 L428 119 C428 99 424 92 412 92 C400 92 397 98 397 119 L397 238 L220 238 L221 256 L104 227 L104 147 L122 147 C121 133 119 81 119 66 C119 18 139 -5 200 -5 C250 -5 263 6 268 10 L268 83 C266 81 261 78 250 78 C242 78 238 80 235 82 L232 147 L287 147 L287 134 C287 77 318 51 377 51 C407 51 420 58 426 62 C426 56 418 34 372 34 C329 34 308 46 302 50 L302 -33 C310 -38 331 -50 390 -50 C505 -50 542 -6 542 100 C542 153 536 217 532 238 L428 238 Z M733 243 C670 243 656 176 653 162 C653 180 648 226 646 238 L568 238 C566 210 558 126 558 -44 L677 -44 C677 -37 677 -20 676 -5 C768 -5 813 40 813 130 C813 204 782 243 733 243 L733 243 Z M1070 127 C1070 202 1027 243 954 243 C874 243 829 195 829 117 C829 38 875 -5 970 -5 C1013 -5 1038 4 1048 11 L1048 86 C1034 78 1012 74 993 74 C962 74 948 84 943 92 L1067 92 C1069 101 1070 116 1070 127 L1070 127 Z M978 109 L938 109 C938 127 947 136 961 136 C974 136 980 127 978 109 L978 109 Z M670 72 C669 75 665 85 665 101 C665 123 673 132 687 132 C699 132 707 125 707 109 C707 78 677 72 670 72 L670 72 Z M1074 13 C1074 27 1084 36 1098 36 C1112 36 1122 27 1122 13 C1122 -1 1112 -10 1098 -10 C1084 -10 1074 -1 1074 13 L1074 13 Z M1080 13 C1080 1 1087 -5 1098 -5 C1109 -5 1116 1 1116 13 C1116 25 1109 31 1098 31 C1087 31 1080 25 1080 13 L1080 13 Z M1108 2 L1102 2 L1098 11 L1093 11 L1093 2 L1088 2 L1088 25 L1099 25 C1106 25 1109 22 1109 18 C1109 13 1105 11 1102 11 L1108 2 Z M1100 15 C1103 15 1104 16 1104 18 C1104 20 1103 21 1100 21 L1093 21 L1093 15 L1100 15 Z " />
<glyph glyph-name="fi" unicode="&#xfb01;" horiz-adv-x="552" d="M473.4 470 L183.77 470 C186.91 554.96 232.47 593 313 593 C362.8 593 396.8 571.4 418.7 553.9 L460.4 610.1 C430.6 633 385.2 664 315.1 664 C194.97 664 113.26 596.26 106.02 470 L43 470 L43 400 L105.5 400 L105.5 -1.52588e-05 L183.6 -1.52588e-05 L183.6 400 L392.5 400 L392.5 -1.52588e-05 L473.4 -1.52588e-05 L473.4 470 Z " />
<glyph glyph-name="fl" unicode="&#xfb02;" horiz-adv-x="576" d="M512.5 61.3 C480.8 61.3 462.4 74.4 462.4 125.4 L462.4 610.3 C431.9 636.4 385.3 664 317.1 664 C195.82 664 113.33 596.26 106.03 470 L43 470 L43 400 L105.5 400 L105.5 1.52588e-05 L183.6 1.52588e-05 L183.6 400 L298.5 400 L298.5 470 L183.77 470 C186.96 554.96 233.22 593 315 593 C343.47 593 364.48 586.49 381.4 577.73 L381.4 124.2 C381.4 16.3 432.2 -8.99997 502.4 -8.99997 C523.1 -8.99997 541.8 -5.79997 557.1 -0.299973 L557.1 66.8 C546.2 63.6 531.4 61.3 512.5 61.3 L512.5 61.3 Z " />
</font>
</svg>
