<?xml version="1.0" encoding="UTF-8"?>
<svg xmlns="http://www.w3.org/2000/svg" xmlns:xlink="http://www.w3.org/1999/xlink" version="1.2" >
<font id="Informative Energy Black">
<font-face  font-family="Informative" units-per-em="1000" ascent="750" descent="-250" font-style="normal" font-weight="900" font-stretch="normal" cap-height="700" x-height="400" underline-position="-75" underline-thickness="50" />
<missing-glyph  horiz-adv-x="500" d="M410 750 L93 750 L93 -250 L410 -250 L410 750 Z M333 683 L333 650 L267 650 L267 613 L333 613 L333 580 L167 580 L167 613 L233 613 L233 650 L168 650 L168 683 L333 683 Z M267 554 L267 484 L333 484 L333 450 L167 450 L167 554 L267 554 Z M233 520 L200 520 L200 484 L233 484 L233 520 Z M333 423 L333 390 L267 390 L267 320 L167 320 L167 353 L233 353 L233 390 L167 390 L167 423 L333 423 Z M333 363 L333 263 L167 263 L167 297 L300 297 L300 363 L333 363 Z M333 241 L333 128 L167 128 L167 241 L200 241 L200 161 L300 161 L300 208 L267 208 L267 185 L233 185 L233 241 L333 241 Z M333 68 L333 -45 L167 -45 L167 68 L333 68 Z M300 35 L200 35 L200 -12 L300 -12 L300 35 Z M333 -68 L333 -101 L301 -101 L231 -148 L333 -148 L333 -181 L167 -181 L167 -148 L237 -101 L167 -101 L167 -68 L333 -68 Z " />
<glyph glyph-name="NULL" d="" />
<glyph glyph-name="CR" unicode="&#xd;" horiz-adv-x="250" d="" />
<glyph glyph-name="space" unicode="&#x20;" horiz-adv-x="600" d="" />
<glyph glyph-name="exclam" unicode="&#x21;" horiz-adv-x="1000" d="M900 750 L100 750 C45 750 0 705 0 650 L0 -150 C0 -205 45 -250 100 -250 L900 -250 C955 -250 1000 -205 1000 -150 L1000 650 C1000 705 955 750 900 750 L900 750 Z M520 449 L647 577 L661 563 L534 435 L520 449 Z M669 244 L450 463 L464 478 L684 258 L669 244 Z M640 329 L767 455 L780 442 L655 314 L640 329 Z M377 348 L456 428 L634 251 L554 171 C524 141 489 122 457 122 C437 122 418 128 401 145 L351 195 C335 211 328 230 328 250 C328 282 346 317 377 348 L377 348 Z M271 79 L355 163 L369 149 L285 65 C258 38 238 -1 238 -37 C238 -59 244 -80 255 -100 L234 -100 C225 -80 220 -58 220 -36 C220 8 239 48 271 79 L271 79 Z " />
<glyph glyph-name="numbersign" unicode="&#x23;" horiz-adv-x="1000" d="M900 750 L100 750 C45 750 0 705 0 650 L0 -150 C0 -205 45 -250 100 -250 L900 -250 C955 -250 1000 -205 1000 -150 L1000 650 C1000 705 955 750 900 750 L900 750 Z M846 -100 L721 -100 L734 7 L774 7 L774 315 L509 382 C499 369 484 360 467 360 C442 360 418 381 414 406 L273 443 L238 347 C234 337 226 327 216 323 L216 -50 L196 -50 L196 320 C182 326 172 347 175 365 L223 613 L324 583 L286 480 L426 445 C436 457 451 465 467 465 C492 465 515 445 519 421 L820 344 L810 306 L794 310 L794 7 L834 7 L846 -100 Z M282 526 L298 569 L239 587 L231 544 L282 526 Z M246 425 L276 508 L227 525 L210 438 L246 425 Z M467 445 C450 445 434 430 434 413 C434 395 450 380 467 380 C485 380 500 395 500 413 C500 430 485 445 467 445 L467 445 Z M206 419 L195 361 C193 350 197 341 203 340 C209 338 216 343 220 353 L240 408 L206 419 Z M610 -100 L589 -100 L567 -1 L377 -100 L325 -100 L415 309 L402 309 L402 329 L419 329 L415 309 L435 309 L416 220 L503 294 L500 309 L520 309 L516 329 L533 329 L533 309 L520 309 L610 -100 Z M409 187 L406 178 L529 178 L508 272 L409 187 Z M402 158 L402 155 L553 66 L533 158 L402 158 Z M397 134 L376 39 L558 39 L397 134 Z M561 19 L372 19 L348 -92 L561 19 Z M784 -32 C773 -32 765 -40 765 -50 C765 -61 773 -69 784 -69 C794 -69 802 -61 802 -50 C802 -40 794 -32 784 -32 L784 -32 Z M257 -80 L257 -100 L154 -100 L154 -80 L257 -80 Z " />
<glyph glyph-name="dollar" unicode="&#x24;" horiz-adv-x="1000" d="M900 750 L100 750 C45 750 0 705 0 650 L0 -150 C0 -205 45 -250 100 -250 L900 -250 C955 -250 1000 -205 1000 -150 L1000 650 C1000 705 955 750 900 750 L900 750 Z M484 524 L484 474 L500 474 C567 474 625 421 625 346 C625 277 569 221 500 221 L400 221 L400 474 L432 474 L432 524 L484 524 Z M380 484 L380 186 C394 195 411 201 428 201 C477 201 524 153 524 105 L650 105 L650 423 C650 433 659 442 670 442 L825 442 L834 380 L750 380 L750 262 L850 262 L850 105 L813 105 C813 143 775 181 736 181 C698 181 660 143 660 105 L660 85 L504 85 L504 105 C504 145 469 181 428 181 C387 181 352 145 352 105 L352 85 L322 85 L322 105 C322 145 286 181 246 181 C205 181 170 145 170 105 L150 105 C150 153 197 201 246 201 C251 201 255 201 260 200 L260 484 L280 484 L280 442 L360 442 L360 484 L380 484 Z M240 464 L240 231 C195 250 164 294 164 346 C164 399 193 444 240 464 L240 464 Z M360 422 L280 422 L280 380 L360 380 L360 422 Z M502 422 C486 384 457 343 457 318 C457 293 477 273 502 273 C527 273 547 293 547 318 C547 343 515 384 502 422 L502 422 Z M360 360 L280 360 L280 317 L360 317 L360 360 Z M502 328 C513 328 522 319 522 308 C522 297 513 288 502 288 C491 288 482 297 482 308 C482 319 491 328 502 328 L502 328 Z M360 297 L280 297 L280 255 L360 255 L360 297 Z M360 235 L280 235 L280 193 C306 182 327 159 337 133 C342 146 350 159 360 170 L360 235 Z M246 161 C276 161 302 135 302 105 C302 74 276 49 246 49 C215 49 190 74 190 105 C190 135 215 161 246 161 L246 161 Z M428 161 C459 161 484 135 484 105 C484 74 459 49 428 49 C397 49 372 74 372 105 C372 135 397 161 428 161 L428 161 Z M736 161 C767 161 793 135 793 105 C793 74 767 49 736 49 C706 49 680 74 680 105 C680 135 706 161 736 161 L736 161 Z " />
<glyph glyph-name="percent" unicode="&#x25;" horiz-adv-x="1000" d="M900 750 L100 750 C45 750 0 705 0 650 L0 -150 C0 -205 45 -250 100 -250 L900 -250 C955 -250 1000 -205 1000 -150 L1000 650 C1000 705 955 750 900 750 L900 750 Z M741 547 L741 -42 C741 -53 732 -63 720 -63 L280 -63 C269 -63 259 -53 259 -42 L259 547 C259 558 269 568 280 568 L720 568 C732 568 741 558 741 547 L741 547 Z M611 266 L591 309 C586 319 583 335 583 345 L583 410 C583 425 568 440 552 440 L448 440 C433 440 417 425 417 410 L417 345 C417 335 414 319 409 309 L389 266 C383 254 380 235 380 222 L380 201 C380 186 395 171 411 171 L590 171 C605 171 621 186 621 201 L621 222 C621 235 616 255 611 266 L611 266 Z M437 337 L437 410 C437 416 441 420 448 420 L552 420 C559 420 563 416 563 410 L563 337 L437 337 Z M405 253 L427 301 C429 305 431 311 433 317 L567 317 C569 311 571 305 573 301 L595 253 L405 253 Z M600 233 L601 201 C601 195 597 191 590 191 L411 191 C404 191 400 195 400 201 L401 233 L600 233 Z M427 141 L427 79 C427 68 437 58 448 58 L552 58 C564 58 573 68 573 79 L573 141 L427 141 Z " />
<glyph glyph-name="ampersand" unicode="&#x26;" horiz-adv-x="1000" d="M900 750 L100 750 C45 750 0 705 0 650 L0 -150 C0 -205 45 -250 100 -250 L900 -250 C955 -250 1000 -205 1000 -150 L1000 650 C1000 705 955 750 900 750 L900 750 Z M567 589 L656 589 L656 548 L567 548 L567 589 Z M274 528 L726 528 C732 528 736 524 736 518 C736 512 732 508 726 508 L698 508 L698 473 L296 473 L296 508 L274 508 C268 508 264 512 264 518 C264 524 268 528 274 528 L274 528 Z M274 453 L726 453 C732 453 736 449 736 443 C736 437 732 433 726 433 L698 433 L698 -5 L726 -5 C732 -5 736 -9 736 -15 C736 -21 732 -25 726 -25 L274 -25 C268 -25 264 -21 264 -15 C264 -9 268 -5 274 -5 L296 -5 L296 433 L274 433 C268 433 264 437 264 443 C264 449 268 453 274 453 L274 453 Z M497 372 C425 372 366 314 366 241 C366 169 425 110 497 110 C570 110 628 169 628 241 C628 314 570 372 497 372 L497 372 Z M500 314 C513 276 545 235 545 210 C545 185 525 165 500 165 C475 165 455 185 455 210 C455 235 484 276 500 314 L500 314 Z M500 220 C489 220 480 211 480 200 C480 189 489 180 500 180 C511 180 520 189 520 200 C520 211 511 220 500 220 L500 220 Z M296 -45 L698 -45 L698 -80 L726 -80 C732 -80 736 -84 736 -90 C736 -96 732 -100 726 -100 L274 -100 C268 -100 264 -96 264 -90 C264 -84 268 -80 274 -80 L296 -80 L296 -45 Z " />
<glyph glyph-name="quotesingle" unicode="&#x27;" horiz-adv-x="1000" d="M900 750 L100 750 C45 750 0 705 0 650 L0 -150 C0 -205 45 -250 100 -250 L900 -250 C955 -250 1000 -205 1000 -150 L1000 650 C1000 705 955 750 900 750 L900 750 Z M500 523 C649 523 773 399 773 250 L772 229 L806 263 L820 249 L762 191 L704 249 L718 263 L752 229 C753 236 753 243 753 250 C753 389 639 503 500 503 C395 503 305 438 267 346 L248 352 C289 452 387 523 500 523 L500 523 Z M501 403 C551 403 592 362 592 311 C592 278 561 245 559 243 C555 239 551 231 551 226 L551 203 L510 203 L510 300 L490 300 L490 203 L451 203 L451 225 C451 230 448 238 444 242 C442 244 409 278 409 311 C409 362 450 403 501 403 L501 403 Z M239 309 L297 251 L283 237 L249 271 C248 264 248 257 248 250 C248 111 361 -3 500 -3 C605 -3 696 62 734 154 L753 149 C711 47 615 -23 500 -23 C351 -23 228 101 228 250 C228 257 228 264 229 271 L194 237 L180 251 L239 309 Z M560 178 L560 145 C560 140 556 137 551 137 L448 137 C444 137 440 140 440 145 L440 178 L560 178 Z M530 117 L530 91 L470 91 L470 117 L530 117 Z " />
<glyph glyph-name="parenleft" unicode="&#x28;" horiz-adv-x="1000" d="M900 750 L100 750 C45 750 0 705 0 650 L0 -150 C0 -205 45 -250 100 -250 L900 -250 C955 -250 1000 -205 1000 -150 L1000 650 C1000 705 955 750 900 750 L900 750 Z M625 216 C610 201 600 188 600 168 L600 114 L540 114 L560 338 L540 340 L520 114 L480 114 L460 340 L440 338 L460 114 L400 114 L400 168 C400 188 390 201 375 216 C357 234 300 288 300 359 C300 470 390 559 500 559 C610 559 700 470 700 359 C700 288 643 234 625 216 L625 216 Z M630 23 C630 13 621 4 611 4 L390 4 C379 4 371 13 371 23 L371 94 L630 94 L630 23 Z M566 -50 L435 -50 L435 -16 L566 -16 L566 -50 Z " />
<glyph glyph-name="parenright" unicode="&#x29;" horiz-adv-x="1000" d="M100 -250 L900 -250 C955 -250 1000 -205 1000 -150 L1000 650 C1000 705 955 750 900 750 L100 750 C45 750 0 705 0 650 L0 -150 C0 -205 45 -250 100 -250 L100 -250 Z M390 114 L390 168 C390 185 382 194 368 209 C350 228 290 284 290 359 C290 474 386 569 500 569 C614 569 710 474 710 359 C710 284 650 227 632 209 C617 194 610 185 610 168 L610 114 L590 114 L590 168 C590 191 602 207 618 223 C636 241 690 292 690 359 C690 464 604 549 500 549 C396 549 310 464 310 359 C310 292 364 242 382 223 C397 207 410 191 410 168 L410 114 L390 114 Z M460 114 L440 338 L460 340 L480 114 L460 114 Z M520 114 L540 340 L560 338 L540 114 L520 114 Z M390 4 C379 4 371 13 371 23 L371 94 L630 94 L630 23 C630 13 621 4 611 4 L390 4 Z M435 -50 L435 -16 L566 -16 L566 -50 L435 -50 Z " />
<glyph glyph-name="asterisk" unicode="&#x2a;" horiz-adv-x="1000" d="M900 750 L100 750 C45 750 0 705 0 650 L0 -150 C0 -205 45 -250 100 -250 L900 -250 C955 -250 1000 -205 1000 -150 L1000 650 C1000 705 955 750 900 750 L900 750 Z M567 589 L656 589 L656 548 L567 548 L567 589 Z M274 528 L726 528 C732 528 736 524 736 518 C736 512 732 508 726 508 L698 508 L698 473 L296 473 L296 508 L274 508 C268 508 264 512 264 518 C264 524 268 528 274 528 L274 528 Z M274 453 L726 453 C732 453 736 449 736 443 C736 437 732 433 726 433 L698 433 L698 -5 L726 -5 C732 -5 736 -9 736 -15 C736 -21 732 -25 726 -25 L274 -25 C268 -25 264 -21 264 -15 C264 -9 268 -5 274 -5 L296 -5 L296 433 L274 433 C268 433 264 437 264 443 C264 449 268 453 274 453 L274 453 Z M497 372 C425 372 366 314 366 241 C366 169 425 110 497 110 C570 110 628 169 628 241 C628 314 570 372 497 372 L497 372 Z M497 326 C513 326 527 322 540 315 C533 304 523 286 514 271 C509 274 503 275 497 275 C491 275 485 274 480 271 L455 315 C467 322 482 326 497 326 L497 326 Z M497 257 C506 257 513 250 513 241 C513 232 506 225 497 225 C488 225 481 232 481 241 C481 250 488 257 497 257 L497 257 Z M413 241 L464 241 C464 229 471 218 481 212 L455 168 C430 183 413 210 413 241 L413 241 Z M530 241 L581 241 C581 210 564 183 539 168 C533 179 522 197 513 212 C524 218 530 229 530 241 L530 241 Z M296 -45 L698 -45 L698 -80 L726 -80 C732 -80 736 -84 736 -90 C736 -96 732 -100 726 -100 L274 -100 C268 -100 264 -96 264 -90 C264 -84 268 -80 274 -80 L296 -80 L296 -45 Z " />
<glyph glyph-name="plus" unicode="&#x2b;" horiz-adv-x="1000" d="M900 750 L100 750 C45 750 0 705 0 650 L0 -150 C0 -205 45 -250 100 -250 L900 -250 C955 -250 1000 -205 1000 -150 L1000 650 C1000 705 955 750 900 750 L900 750 Z M479 575 L522 575 C546 575 563 558 563 534 L563 240 L523 240 L523 534 L478 534 L478 240 L438 240 L438 534 C438 558 455 575 479 575 L479 575 Z M418 568 L418 240 L378 240 L378 528 C378 550 396 568 418 568 L418 568 Z M583 240 L583 568 C605 568 623 550 623 528 L623 240 L583 240 Z M363 220 L637 220 L637 180 C637 122 601 73 550 54 L550 13 L450 13 L450 54 C400 73 363 122 363 180 L363 220 Z M474 -7 L527 -7 L527 -52 L474 -52 L474 -7 Z " />
<glyph glyph-name="comma" unicode="&#x2c;" horiz-adv-x="1000" d="M900 750 L100 750 C45 750 0 705 0 650 L0 -150 C0 -205 45 -250 100 -250 L900 -250 C955 -250 1000 -205 1000 -150 L1000 650 C1000 705 955 750 900 750 L900 750 Z M510 -43 L510 60 L490 60 L490 -43 C333 -38 207 91 207 250 C207 409 333 538 490 543 L490 429 L510 429 L510 543 C667 538 793 409 793 250 C793 91 667 -38 510 -43 L510 -43 Z M372 306 C338 306 310 278 310 244 C310 210 338 182 372 182 C406 182 434 210 434 244 C434 278 406 306 372 306 L372 306 Z M628 306 C594 306 566 278 566 244 C566 210 594 182 628 182 C662 182 690 210 690 244 C690 278 662 306 628 306 L628 306 Z " />
<glyph glyph-name="hyphen" unicode="&#x2d;" horiz-adv-x="1000" d="M100 -250 L900 -250 C955 -250 1000 -205 1000 -150 L1000 650 C1000 705 955 750 900 750 L100 750 C45 750 0 705 0 650 L0 -150 C0 -205 45 -250 100 -250 L100 -250 Z M483 -104 C448 -104 420 -76 420 -42 C420 -9 445 17 476 21 L482 124 C452 130 424 149 407 175 L310 123 C311 118 311 113 311 108 C311 64 275 28 231 28 C187 28 151 64 151 108 C151 152 187 188 231 188 C262 188 290 170 303 143 L397 192 C391 205 388 219 388 234 C388 248 391 262 396 274 L285 331 C274 315 255 305 235 305 C201 305 173 332 173 366 C173 400 200 428 234 428 C268 428 296 401 296 367 C296 361 295 355 294 349 L406 292 C426 323 460 344 497 345 L504 429 C466 435 437 468 437 508 C437 552 473 588 517 588 C561 588 597 552 597 508 C597 466 565 432 524 428 L517 343 C550 337 579 316 595 287 L730 351 C726 359 724 368 724 377 C724 411 752 439 787 439 C821 439 849 411 849 377 C849 342 821 314 787 314 C769 314 752 322 741 334 L604 269 C608 258 610 246 610 234 C610 212 602 191 590 173 L702 82 C716 93 733 100 752 100 C797 100 832 64 832 20 C832 -24 797 -60 752 -60 C708 -60 672 -24 672 20 C672 38 678 54 688 68 L577 157 C558 137 531 124 502 123 L496 20 C524 13 545 -12 545 -42 C545 -76 517 -104 483 -104 L483 -104 Z M499 143 C550 143 590 184 590 234 C590 285 550 325 499 325 C449 325 408 285 408 234 C408 184 449 143 499 143 L499 143 Z " />
<glyph glyph-name="period" unicode="&#x2e;" horiz-adv-x="1000" d="M900 750 L100 750 C45 750 0 705 0 650 L0 -150 C0 -205 45 -250 100 -250 L900 -250 C955 -250 1000 -205 1000 -150 L1000 650 C1000 705 955 750 900 750 L900 750 Z M627 0 L374 0 C278 0 201 118 201 265 C201 411 278 529 374 529 L627 529 C722 529 799 411 799 265 C799 118 722 0 627 0 L627 0 Z M378 236 L408 236 L408 401 L378 401 L378 236 Z M589 236 L619 236 L619 401 L589 401 L589 236 Z M441 82 L560 82 L560 129 C560 163 534 189 501 189 C467 189 441 163 441 129 L441 82 Z " />
<glyph glyph-name="slash" unicode="&#x2f;" horiz-adv-x="1000" d="M900 750 L100 750 C45 750 0 705 0 650 L0 -150 C0 -205 45 -250 100 -250 L900 -250 C955 -250 1000 -205 1000 -150 L1000 650 C1000 705 955 750 900 750 L900 750 Z M500 523 C649 523 773 399 773 250 L772 229 L806 263 L820 249 L762 191 L704 249 L718 263 L752 229 C753 236 753 243 753 250 C753 389 639 503 500 503 C395 503 305 438 267 346 L248 352 C289 452 387 523 500 523 L500 523 Z M510 354 L510 260 L604 260 L604 240 L510 240 L510 146 L490 146 L490 240 L396 240 L396 260 L490 260 L490 354 L510 354 Z M239 309 L297 251 L283 237 L249 271 C248 264 248 257 248 250 C248 111 361 -3 500 -3 C605 -3 696 62 734 154 L753 149 C711 47 615 -23 500 -23 C351 -23 228 101 228 250 C228 257 228 264 229 271 L194 237 L180 251 L239 309 Z " />
<glyph glyph-name="zero" unicode="0" horiz-adv-x="1000" d="M900 750 L100 750 C45 750 0 705 0 650 L0 -150 C0 -205 45 -250 100 -250 L900 -250 C955 -250 1000 -205 1000 -150 L1000 650 C1000 705 955 750 900 750 L900 750 Z M439 164 L439 134 C380 149 332 212 332 285 C332 402 473 436 473 559 C617 518 682 391 682 285 C682 218 642 147 582 134 L582 164 C599 185 606 209 606 233 C606 301 551 371 498 393 C498 328 420 269 420 210 C420 195 426 179 439 164 L439 164 Z M340 98 L661 98 L661 -94 L340 -94 L340 98 Z M320 70 L320 -66 L150 -66 L150 70 L320 70 Z M850 70 L850 -66 L681 -66 L681 70 L850 70 Z " />
<glyph glyph-name="one" unicode="1" horiz-adv-x="1000" d="M1000 650 L1000 -150 C1000 -205 955 -250 900 -250 L100 -250 C45 -250 0 -205 0 -150 L0 650 C0 705 45 750 100 750 L900 750 C955 750 1000 705 1000 650 L1000 650 Z M705 553 L755 553 L755 573 L245 573 L245 553 L295 553 C285 472 224 423 167 423 L167 403 C235 403 305 461 315 553 L685 553 C695 461 765 403 833 403 L833 423 C776 423 715 472 705 553 L705 553 Z M763 -73 L625 528 L605 528 L629 424 L542 528 L516 528 L609 417 L391 417 L484 528 L458 528 L372 426 L396 528 L375 528 L237 -73 L257 -77 L272 -19 L500 133 L728 -19 L743 -77 L763 -73 Z M490 397 L490 366 L328 231 L366 397 L490 397 Z M635 397 L673 231 L510 366 L510 397 L635 397 Z M500 348 L676 202 L324 202 L500 348 Z M317 182 L490 182 L490 150 L277 8 L317 182 Z M684 182 L724 8 L510 150 L510 182 L684 182 Z " />
<glyph glyph-name="two" unicode="2" horiz-adv-x="1000" d="M900 750 L100 750 C45 750 0 705 0 650 L0 -150 C0 -205 45 -250 100 -250 L900 -250 C955 -250 1000 -205 1000 -150 L1000 650 C1000 705 955 750 900 750 L900 750 Z M450 640 L551 640 L530 468 C506 473 494 473 470 468 L450 640 Z M248 515 L319 585 L426 450 C409 439 394 424 383 407 L248 515 Z M574 450 L682 585 L753 514 L617 407 C606 424 592 439 574 450 L574 450 Z M438 409 L475 372 C479 375 485 377 490 378 L490 431 L500 432 L510 431 L510 378 C516 377 521 375 525 372 L562 409 C567 405 572 400 576 395 L539 358 C542 353 544 348 546 343 L597 343 C597 341 599 329 597 323 L546 323 C544 317 542 312 539 307 L576 271 C571 266 567 261 562 257 L525 293 C524 292 522 291 520 291 L520 333 L480 333 L480 291 C478 291 477 292 475 293 L439 257 C433 261 429 266 424 271 L461 307 C458 312 456 317 454 323 L403 323 C403 325 401 336 403 343 L454 343 C456 348 458 353 461 358 L424 395 C428 400 433 405 438 409 L438 409 Z M193 283 L193 383 L365 363 C362 346 361 319 366 302 L193 283 Z M807 382 L807 282 L634 302 C639 319 638 346 635 363 L807 382 Z M318 80 L247 151 L384 259 C395 242 409 227 426 216 L318 80 Z M752 150 L682 80 L573 216 C591 227 605 242 616 259 L752 150 Z M609 -100 L572 -100 L429 -16 L411 -100 L390 -100 L447 159 L434 159 L434 179 L565 179 L565 159 L552 159 L609 -100 Z M535 144 L532 159 L467 159 L448 70 L535 144 Z M540 122 L441 38 L439 28 L560 28 L540 122 Z M434 8 L434 5 L584 -84 L565 8 L434 8 Z " />
<glyph glyph-name="three" unicode="3" horiz-adv-x="1000" d="M900 750 L100 750 C45 750 0 705 0 650 L0 -150 C0 -205 45 -250 100 -250 L900 -250 C955 -250 1000 -205 1000 -150 L1000 650 C1000 705 955 750 900 750 L900 750 Z M453 598 C476 598 482 585 487 571 L551 382 C557 364 566 340 552 326 L514 290 C504 293 494 295 484 295 C474 295 463 293 454 290 L443 587 C443 594 446 598 453 598 L453 598 Z M484 142 C450 142 422 169 422 204 C422 238 450 266 484 266 C518 266 546 238 546 204 C546 169 518 142 484 142 L484 142 Z M419 140 L162 -20 C149 -28 142 -11 142 0 C142 10 148 18 154 25 L284 175 C297 190 314 210 333 205 L394 188 C397 169 406 153 419 140 L419 140 Z M858 75 C858 64 846 50 826 51 L621 63 C601 64 575 66 568 84 L547 138 C561 151 571 169 574 189 L850 85 C856 82 858 80 858 75 L858 75 Z M516 118 L536 -100 L432 -100 L452 118 C462 114 473 112 484 112 C495 112 506 114 516 118 L516 118 Z " />
<glyph glyph-name="four" unicode="4" horiz-adv-x="1000" d="M900 750 L100 750 C45 750 0 705 0 650 L0 -150 C0 -205 45 -250 100 -250 L900 -250 C955 -250 1000 -205 1000 -150 L1000 650 C1000 705 955 750 900 750 L900 750 Z M414 438 C408 444 406 449 405 454 C405 460 410 464 417 464 C443 458 459 434 469 408 C463 451 451 500 428 520 C420 527 416 533 416 538 C416 546 422 550 432 550 C463 550 483 483 489 435 C496 493 509 561 534 587 C542 595 550 599 556 599 C561 599 565 596 565 590 C565 585 562 578 555 569 C535 543 519 470 510 413 C530 452 560 479 583 479 C591 479 596 476 596 470 C596 466 592 461 584 457 C547 437 521 393 514 357 L539 357 C548 383 572 400 589 400 C597 400 601 395 601 390 C601 387 599 383 594 381 C584 376 572 368 564 357 L609 357 L609 337 L391 337 L391 357 L455 357 C446 387 435 417 414 438 L414 438 Z M361 532 C354 535 351 540 350 545 C350 553 356 560 363 560 C381 560 389 533 392 516 L389 510 C380 527 372 528 361 532 L361 532 Z M689 -55 L689 -101 L669 -101 L669 -63 L500 26 L331 -63 L331 -101 L311 -101 L311 -55 L441 317 L462 317 L447 275 L552 275 L537 317 L558 317 L689 -55 Z M490 210 L490 255 L440 255 L397 131 L490 210 Z M510 255 L510 210 L602 131 L559 255 L510 255 Z M500 191 L389 96 L610 96 L500 191 Z M378 76 L339 -36 L490 43 L490 76 L378 76 Z M510 76 L510 43 L661 -36 L622 76 L510 76 Z " />
<glyph glyph-name="five" unicode="5" horiz-adv-x="1000" d="M900 750 L100 750 C45 750 0 705 0 650 L0 -150 C0 -205 45 -250 100 -250 L900 -250 C955 -250 1000 -205 1000 -150 L1000 650 C1000 705 955 750 900 750 L900 750 Z M401 298 L611 540 L617 537 L536 313 C532 303 536 289 544 281 L598 230 C602 226 604 222 604 216 C604 212 602 206 599 202 L389 -40 L383 -37 L464 187 C468 197 464 211 456 219 L402 270 C398 274 396 278 396 284 C396 288 398 294 401 298 L401 298 Z " />
<glyph glyph-name="six" unicode="6" horiz-adv-x="1000" d="M900 750 L100 750 C45 750 0 705 0 650 L0 -150 C0 -205 45 -250 100 -250 L900 -250 C955 -250 1000 -205 1000 -150 L1000 650 C1000 705 955 750 900 750 L900 750 Z M374 536 L509 576 L474 359 L646 411 L543 6 L608 -6 L494 -98 L409 25 L476 17 L494 282 L354 240 L374 536 Z " />
<glyph glyph-name="seven" unicode="7" horiz-adv-x="1000" d="M900 750 L100 750 C45 750 0 705 0 650 L0 -150 C0 -205 45 -250 100 -250 L900 -250 C955 -250 1000 -205 1000 -150 L1000 650 C1000 705 955 750 900 750 L900 750 Z M500 550 C666 550 800 416 800 250 C800 84 666 -50 500 -50 C334 -50 200 84 200 250 C200 416 334 550 500 550 L500 550 Z M497 428 C458 332 384 230 384 167 C384 104 435 54 497 54 C559 54 610 104 610 167 C610 230 531 332 497 428 L497 428 Z M497 192 C525 192 548 169 548 141 C548 114 525 91 497 91 C469 91 447 114 447 141 C447 169 469 192 497 192 L497 192 Z " />
<glyph glyph-name="eight" unicode="8" horiz-adv-x="1000" d="M900 750 L100 750 C45 750 0 705 0 650 L0 -150 C0 -205 45 -250 100 -250 L900 -250 C955 -250 1000 -205 1000 -150 L1000 650 C1000 705 955 750 900 750 L900 750 Z M503 546 C668 546 803 412 803 246 C803 81 668 -54 503 -54 C337 -54 203 81 203 246 C203 412 337 546 503 546 L503 546 Z M503 462 C463 462 426 452 394 433 L459 321 C472 328 487 332 503 332 C518 332 533 328 546 321 C569 360 595 405 611 433 C579 452 542 462 503 462 L503 462 Z M503 283 C482 283 466 267 466 246 C466 226 482 210 503 210 C523 210 539 226 539 246 C539 267 523 283 503 283 L503 283 Z M417 245 L287 245 C287 165 331 95 396 57 L461 170 C435 185 417 213 417 245 L417 245 Z M718 245 L588 245 C588 213 570 185 545 170 C567 131 594 85 610 57 C674 95 718 165 718 245 L718 245 Z " />
<glyph glyph-name="nine" unicode="9" horiz-adv-x="1000" d="M900 750 L100 750 C45 750 0 705 0 650 L0 -150 C0 -205 45 -250 100 -250 L900 -250 C955 -250 1000 -205 1000 -150 L1000 650 C1000 705 955 750 900 750 L900 750 Z M850 448 L801 448 C799 429 793 413 782 399 L819 362 L805 348 L768 385 C754 374 738 368 719 366 L719 316 L699 316 L699 366 C678 368 660 378 651 385 L614 348 L600 362 L637 399 C626 413 618 429 617 448 L567 448 L567 468 L617 468 C619 487 628 506 637 517 L601 554 L615 568 L651 531 C662 540 680 548 699 550 L699 600 L719 600 L719 550 C737 549 754 541 768 530 L804 568 L818 554 L782 516 C792 503 800 486 801 468 L850 468 L850 448 Z M670 224 L670 4 L150 4 L150 224 L670 224 Z M250 124 L250 204 L170 204 L170 124 L250 124 Z M350 124 L350 204 L270 204 L270 124 L350 124 Z M450 124 L450 204 L370 204 L370 124 L450 124 Z M550 124 L550 204 L470 204 L470 124 L550 124 Z M650 124 L650 204 L570 204 L570 124 L650 124 Z M250 24 L250 104 L170 104 L170 24 L250 24 Z M350 24 L350 104 L270 104 L270 24 L350 24 Z M450 24 L450 104 L370 104 L370 24 L450 24 Z M550 24 L550 104 L470 104 L470 24 L550 24 Z M650 24 L650 104 L570 104 L570 24 L650 24 Z M643 -80 L643 -100 L172 -100 L172 -80 L397 -80 L397 -31 L417 -21 L417 -80 L643 -80 Z " />
<glyph glyph-name="colon" unicode="&#x3a;" horiz-adv-x="1000" d="M900 750 L100 750 C45 750 0 705 0 650 L0 -150 C0 -205 45 -250 100 -250 L900 -250 C955 -250 1000 -205 1000 -150 L1000 650 C1000 705 955 750 900 750 L900 750 Z M500 523 C649 523 773 399 773 250 L772 229 L806 263 L820 249 L762 191 L704 249 L718 263 L752 229 C753 236 753 243 753 250 C753 389 639 503 500 503 C395 503 305 438 267 346 L248 352 C289 452 387 523 500 523 L500 523 Z M500 396 C528 396 554 388 576 375 L530 296 C521 302 511 305 500 305 C489 305 479 302 470 296 L424 375 C446 388 472 396 500 396 L500 396 Z M239 309 L297 251 L283 237 L249 271 C248 264 248 257 248 250 C248 111 361 -3 500 -3 C605 -3 696 62 734 154 L753 149 C711 47 615 -23 500 -23 C351 -23 228 101 228 250 C228 257 228 264 229 271 L194 237 L180 251 L239 309 Z M500 270 C514 270 526 259 526 245 C526 230 514 219 500 219 C486 219 474 230 474 245 C474 259 486 270 500 270 L500 270 Z M440 244 C440 221 452 202 471 191 L425 112 C380 138 349 188 349 244 L440 244 Z M651 244 C651 188 620 138 575 112 L529 191 C547 202 560 221 560 244 L651 244 Z " />
<glyph glyph-name="semicolon" unicode="&#x3b;" horiz-adv-x="1000" d="M900 750 L100 750 C45 750 0 705 0 650 L0 -150 C0 -205 45 -250 100 -250 L900 -250 C955 -250 1000 -205 1000 -150 L1000 650 C1000 705 955 750 900 750 L900 750 Z M324 600 C349 600 373 590 385 562 L520 238 L502 220 L551 101 C584 82 603 49 603 12 C603 -41 556 -85 505 -85 C450 -85 405 -39 405 13 C405 52 428 89 466 105 C474 108 481 110 488 111 L289 593 C303 598 314 600 324 600 L324 600 Z M165 476 L347 401 L388 301 L195 380 C168 391 158 416 158 441 C158 451 159 462 165 476 L165 476 Z M530 267 L500 337 L646 277 C648 284 650 291 653 299 C668 337 705 360 743 360 C794 360 843 317 843 260 C843 211 800 162 744 162 C712 162 675 180 657 214 L530 267 Z M744 341 C699 341 664 306 664 261 C664 216 699 181 744 181 C789 181 824 216 824 261 C824 306 789 341 744 341 L744 341 Z M446 303 C456 303 464 311 464 321 C464 331 456 339 446 339 C436 339 428 331 428 321 C428 311 436 303 446 303 L446 303 Z M504 94 C459 94 424 59 424 14 C424 -31 459 -66 504 -66 C549 -66 584 -31 584 14 C584 59 549 94 504 94 L504 94 Z " />
<glyph glyph-name="equal" unicode="&#x3d;" horiz-adv-x="1000" d="M900 750 L100 750 C45 750 0 705 0 650 L0 -150 C0 -205 45 -250 100 -250 L900 -250 C955 -250 1000 -205 1000 -150 L1000 650 C1000 705 955 750 900 750 L900 750 Z M402 580 L402 600 L544 600 L544 580 L483 580 L483 540 L463 540 L463 580 L402 580 Z M325 466 L325 479 C325 502 347 520 375 520 L570 520 C597 520 620 502 620 479 L620 466 L325 466 Z M250 -60 L250 379 C250 415 280 445 316 445 L628 445 C665 445 695 415 695 379 L695 -60 L593 -60 L593 338 L573 338 L573 308 L493 308 L493 338 L473 338 L473 -60 L250 -60 Z M493 245 L493 288 L573 288 L573 245 L493 245 Z M850 -80 L850 -100 L150 -100 L150 -80 L750 -80 L750 7 L760 7 L760 168 C760 183 747 196 731 196 L731 186 L715 186 L715 226 L731 226 L731 216 C757 216 780 193 780 168 L780 7 L790 7 L790 -80 L850 -80 Z M493 183 L493 225 L573 225 L573 183 L493 183 Z M493 120 L493 163 L573 163 L573 120 L493 120 Z M493 58 L493 100 L573 100 L573 58 L493 58 Z M493 -5 L493 38 L573 38 L573 -5 L493 -5 Z M493 -60 L493 -25 L573 -25 L573 -60 L493 -60 Z " />
<glyph glyph-name="question" unicode="&#x3f;" horiz-adv-x="1000" d="M900 750 L100 750 C45 750 0 705 0 650 L0 -150 C0 -205 45 -250 100 -250 L900 -250 C955 -250 1000 -205 1000 -150 L1000 650 C1000 705 955 750 900 750 L900 750 Z M500 523 C649 523 773 399 773 250 L772 229 L806 263 L820 249 L762 191 L704 249 L718 263 L752 229 C753 236 753 243 753 250 C753 389 639 503 500 503 C395 503 305 438 267 346 L248 352 C289 452 387 523 500 523 L500 523 Z M239 309 L297 251 L283 237 L249 271 C248 264 248 257 248 250 C248 111 361 -3 500 -3 C605 -3 696 62 734 154 L753 149 C711 47 615 -23 500 -23 C351 -23 228 101 228 250 C228 257 228 264 229 271 L194 237 L180 251 L239 309 Z M604 260 L604 240 L396 240 L396 260 L604 260 Z " />
<glyph glyph-name="at" unicode="&#x40;" horiz-adv-x="1000" d="M900 750 L100 750 C45 750 0 705 0 650 L0 -150 C0 -205 45 -250 100 -250 L900 -250 C955 -250 1000 -205 1000 -150 L1000 650 C1000 705 955 750 900 750 L900 750 Z M292 525 L304 600 L371 600 L384 525 L292 525 Z M745 455 L745 -53 L683 -78 L318 -78 L255 -53 L255 455 L456 455 L480 521 C487 540 510 556 531 556 L670 556 C691 556 714 540 721 521 L745 455 Z M651 506 L550 506 L521 430 L521 422 L680 422 L680 430 L651 506 Z M267 475 L267 505 L409 505 L409 475 L267 475 Z M599 287 L656 344 L642 358 L585 301 L413 301 L356 358 L342 344 L399 287 L399 80 L342 23 L356 9 L413 66 L585 66 L642 9 L656 23 L599 80 L599 287 Z M579 281 L579 86 L419 86 L419 281 L579 281 Z " />
<glyph glyph-name="A" unicode="A" horiz-adv-x="1000" d="M900 750 L100 750 C45 750 0 705 0 650 L0 -150 C0 -205 45 -250 100 -250 L900 -250 C955 -250 1000 -205 1000 -150 L1000 650 C1000 705 955 750 900 750 L900 750 Z M444 553 C463 500 507 443 507 408 C507 374 479 346 444 346 C410 346 381 374 381 408 C381 443 422 500 444 553 L444 553 Z M444 425 C434 425 425 417 425 407 C425 396 434 388 444 388 C454 388 463 396 463 407 C463 417 454 425 444 425 L444 425 Z M686 420 C704 367 748 310 748 275 C748 241 720 213 686 213 C651 213 623 241 623 275 C623 310 664 367 686 420 L686 420 Z M686 292 C675 292 667 284 667 274 C667 263 675 255 686 255 C696 255 704 263 704 274 C704 284 696 292 686 292 L686 292 Z M263 -10 L235 97 L406 186 L572 154 C564 113 542 100 503 107 L440 119 L429 86 C435 69 517 34 537 34 L621 58 L676 107 C688 118 699 122 711 122 C726 122 740 112 753 97 L654 -2 L569 -59 C558 -66 546 -70 532 -70 C520 -70 507 -68 490 -64 L263 -10 Z M682 -2 L757 74 C762 67 764 59 764 52 C763 38 755 26 742 21 L682 -2 Z " />
<glyph glyph-name="B" unicode="B" horiz-adv-x="1000" d="M900 750 L100 750 C45 750 0 705 0 650 L0 -150 C0 -205 45 -250 100 -250 L900 -250 C955 -250 1000 -205 1000 -150 L1000 650 C1000 705 955 750 900 750 L900 750 Z M692 538 L692 510 L615 510 L615 490 L692 490 L692 440 L640 440 L640 420 L692 420 L692 370 L615 370 L615 350 L692 350 L692 300 L640 300 L640 280 L692 280 L692 230 L615 230 L615 210 L692 210 L692 160 L640 160 L640 140 L692 140 L692 90 L615 90 L615 70 L692 70 L692 -37 C692 -65 669 -87 642 -87 L358 -87 C331 -87 308 -65 308 -37 L308 70 L383 70 L383 90 L308 90 L308 140 L358 140 L358 160 L308 160 L308 210 L383 210 L383 230 L308 230 L308 280 L358 280 L358 300 L308 300 L308 350 L383 350 L383 370 L308 370 L308 420 L358 420 L358 440 L308 440 L308 490 L383 490 L383 510 L308 510 L308 538 C308 565 331 588 358 588 L642 588 C669 588 692 565 692 538 L692 538 Z M531 92 L531 445 C531 469 518 486 501 486 C484 486 471 469 471 445 L471 92 C456 85 428 66 428 27 C428 -13 461 -46 501 -46 C540 -46 573 -13 573 27 C573 66 545 85 531 92 L531 92 Z M501 -26 C472 -26 448 -2 448 27 C448 55 470 74 491 78 L491 314 C491 320 495 324 501 324 C507 324 511 320 511 314 L511 78 C531 74 553 55 553 27 C553 -2 529 -26 501 -26 L501 -26 Z " />
<glyph glyph-name="C" unicode="C" horiz-adv-x="1000" d="M900 750 L100 750 C45 750 0 705 0 650 L0 -150 C0 -205 45 -250 100 -250 L900 -250 C955 -250 1000 -205 1000 -150 L1000 650 C1000 705 955 750 900 750 L900 750 Z M423 581 C436 581 445 573 458 545 C485 555 503 558 512 549 C521 541 518 523 510 496 C535 485 544 474 544 460 C544 446 535 435 510 424 C518 397 521 379 512 371 C503 362 485 365 458 375 C445 347 436 339 423 339 C410 339 401 347 388 375 C361 365 343 362 334 371 C325 379 328 397 336 424 C311 435 302 446 302 460 C302 474 311 485 336 496 C328 523 325 541 334 549 C343 558 361 555 388 545 C401 573 410 581 423 581 L423 581 Z M423 505 C399 505 378 485 378 460 C378 435 399 415 423 415 C448 415 468 435 468 460 C468 485 448 505 423 505 L423 505 Z M476 347 L497 345 C492 337 488 329 484 320 L592 301 L594 321 L539 331 C549 359 568 370 590 370 C646 370 724 304 734 276 C719 258 655 231 603 231 C564 231 531 246 531 291 L476 301 C464 266 458 228 458 201 L438 201 C438 240 451 303 476 347 L476 347 Z M605 185 L605 115 L266 115 L266 185 L605 185 Z M580 95 L530 -100 L341 -100 L291 95 L580 95 Z " />
<glyph glyph-name="D" unicode="D" horiz-adv-x="1000" d="M1000 650 L1000 -150 C1000 -205 955 -250 900 -250 L100 -250 C45 -250 0 -205 0 -150 L0 650 C0 705 45 750 100 750 L900 750 C955 750 1000 705 1000 650 L1000 650 Z M746 560 C717 488 661 411 661 364 C661 317 699 279 746 279 C793 279 831 317 831 364 C831 411 772 488 746 560 L746 560 Z M254 442 C224 370 169 293 169 246 C169 199 207 161 254 161 C301 161 339 199 339 246 C339 293 279 370 254 442 L254 442 Z M538 392 C488 270 394 139 394 58 C394 -22 458 -86 538 -86 C618 -86 682 -21 682 58 C682 139 581 269 538 392 L538 392 Z M746 325 C729 325 715 339 715 356 C715 373 729 387 746 387 C764 387 778 373 778 356 C778 339 764 325 746 325 L746 325 Z M254 216 C236 216 223 230 223 247 C223 264 236 278 254 278 C271 278 285 264 285 247 C285 230 271 216 254 216 L254 216 Z M538 -24 C503 -24 476 4 476 39 C476 73 503 101 538 101 C573 101 601 74 601 39 C601 4 573 -24 538 -24 L538 -24 Z " />
<glyph glyph-name="E" unicode="E" horiz-adv-x="1000" d="M900 750 L100 750 C45 750 0 705 0 650 L0 -150 C0 -205 45 -250 100 -250 L900 -250 C955 -250 1000 -205 1000 -150 L1000 650 C1000 705 955 750 900 750 L900 750 Z M374 400 C377 405 381 410 385 414 C399 428 417 435 437 435 C448 435 461 433 473 428 C499 470 536 490 572 490 C607 490 645 470 671 428 C684 433 693 435 709 435 C757 435 785 397 785 349 C785 341 784 332 782 323 C822 323 842 293 842 263 C842 233 821 203 782 203 L707 203 C698 222 680 236 659 242 C659 243 660 249 660 253 C660 313 619 355 562 357 C553 357 543 355 533 353 C506 390 467 412 426 412 C408 412 390 408 374 400 L374 400 Z M525 330 C538 335 550 337 562 337 C604 337 640 304 640 255 C640 245 638 235 636 225 C676 225 696 195 696 165 C696 135 675 105 636 105 L219 105 C180 105 159 135 159 165 C159 195 178 225 219 225 C217 234 216 243 216 252 C216 302 245 337 291 337 C302 337 314 335 327 330 C353 372 390 392 426 392 C461 392 499 372 525 330 L525 330 Z " />
<glyph glyph-name="F" unicode="F" horiz-adv-x="1000" d="M1000 650 L1000 -150 C1000 -205 955 -250 900 -250 L100 -250 C45 -250 0 -205 0 -150 L0 650 C0 705 45 750 100 750 L900 750 C955 750 1000 705 1000 650 L1000 650 Z M500 504 C454 373 344 232 344 145 C344 59 414 -10 500 -10 C586 -10 656 59 656 145 C656 232 546 373 500 504 L500 504 Z M500 205 C538 205 569 174 569 136 C569 97 538 66 500 66 C461 66 430 97 430 136 C430 174 461 205 500 205 L500 205 Z " />
<glyph glyph-name="G" unicode="G" horiz-adv-x="1000" d="M900 750 L100 750 C45 750 0 705 0 650 L0 -150 C0 -205 45 -250 100 -250 L900 -250 C955 -250 1000 -205 1000 -150 L1000 650 C1000 705 955 750 900 750 L900 750 Z M266 43 L286 43 L286 -100 L226 -100 L226 43 L246 43 L246 546 C237 550 231 559 231 569 C231 583 242 594 256 594 C270 594 281 583 281 569 C281 559 275 550 266 546 L266 43 Z M773 342 L773 304 C773 284 756 264 736 259 L314 161 L314 485 L736 388 C756 383 773 363 773 342 L773 342 Z M469 220 L469 427 L394 444 L394 203 L469 220 Z M649 387 L574 404 L574 243 L649 260 L649 387 Z " />
<glyph glyph-name="H" unicode="H" horiz-adv-x="1000" d="M900 750 L100 750 C45 750 0 705 0 650 L0 -150 C0 -205 45 -250 100 -250 L900 -250 C955 -250 1000 -205 1000 -150 L1000 650 C1000 705 955 750 900 750 L900 750 Z M150 459 L150 479 C344 479 515 373 606 219 L583 218 C493 363 334 459 150 459 L150 459 Z M150 419 L150 439 C318 439 477 344 563 213 L544 204 C461 330 312 419 150 419 L150 419 Z M150 379 L150 399 C307 399 449 315 528 192 L513 178 C437 299 303 379 150 379 L150 379 Z M691 140 C703 144 714 146 725 146 C764 146 796 117 796 71 C796 62 795 53 793 44 C828 44 847 17 847 -10 C847 -38 828 -65 793 -65 L413 -65 C378 -65 359 -38 359 -10 C359 17 377 44 413 44 C411 53 410 61 410 70 C410 115 438 146 480 146 C490 146 500 144 511 140 C535 178 568 196 602 196 C633 196 668 178 691 140 L691 140 Z " />
<glyph glyph-name="I" unicode="I" horiz-adv-x="1000" d="M900 750 L100 750 C45 750 0 705 0 650 L0 -150 C0 -205 45 -250 100 -250 L900 -250 C955 -250 1000 -205 1000 -150 L1000 650 C1000 705 955 750 900 750 L900 750 Z M595 543 L608 543 L616 464 L695 455 L695 445 L616 436 L608 357 L595 357 L586 436 L508 445 L508 455 L586 464 L595 543 Z M430 515 C372 463 339 390 339 313 C339 158 463 39 616 39 C637 39 658 42 679 47 C623 -17 548 -52 464 -52 C307 -52 178 81 178 233 C178 375 284 498 430 515 L430 515 Z M722 294 L734 294 L743 215 L822 206 L822 196 L743 187 L734 108 L722 108 L713 187 L634 196 L634 206 L713 215 L722 294 Z " />
<glyph glyph-name="J" unicode="J" horiz-adv-x="1000" d="M900 750 L100 750 C45 750 0 705 0 650 L0 -150 C0 -205 45 -250 100 -250 L900 -250 C955 -250 1000 -205 1000 -150 L1000 650 C1000 705 955 750 900 750 L900 750 Z M150 238 L150 258 L698 258 C758 258 808 308 808 369 C808 430 758 480 698 480 C637 480 587 430 587 369 L567 369 C567 440 627 500 698 500 C768 500 828 440 828 369 C828 298 768 238 698 238 L150 238 Z M150 301 L150 321 L426 321 C453 321 477 344 477 371 C477 399 453 422 426 422 C399 422 376 399 376 371 L356 371 C356 409 389 442 426 442 C463 442 497 409 497 371 C497 334 463 301 426 301 L150 301 Z M761 19 C714 19 672 60 672 107 L692 107 C692 70 724 39 761 39 C798 39 830 70 830 107 C830 145 798 176 761 176 L150 176 L150 196 L761 196 C808 196 850 155 850 107 C850 60 808 19 761 19 L761 19 Z M426 -15 C389 -15 356 18 356 56 L376 56 C376 28 399 5 426 5 C453 5 477 28 477 56 C477 83 453 106 426 106 L150 106 L150 126 L426 126 C463 126 497 93 497 56 C497 18 463 -15 426 -15 L426 -15 Z " />
<glyph glyph-name="K" unicode="K" horiz-adv-x="1000" d="M1000 650 L1000 -150 C1000 -205 955 -250 900 -250 L100 -250 C45 -250 0 -205 0 -150 L0 650 C0 705 45 750 100 750 L900 750 C955 750 1000 705 1000 650 L1000 650 Z M500 434 C352 434 225 326 202 185 C219 195 239 201 261 201 C292 201 320 188 340 166 C360 188 389 201 420 201 C447 201 470 192 489 177 L489 11 C489 -8 473 -25 454 -25 C435 -25 419 -8 419 11 L419 37 L399 37 L399 11 C399 -18 425 -45 454 -45 C483 -45 509 -18 509 11 L509 175 C528 191 553 201 580 201 C611 201 640 188 660 166 C680 188 708 201 739 201 C761 201 781 195 798 185 C775 326 648 434 500 434 L500 434 Z " />
<glyph glyph-name="L" unicode="L" horiz-adv-x="1000" d="M900 750 L100 750 C45 750 0 705 0 650 L0 -150 C0 -205 45 -250 100 -250 L900 -250 C955 -250 1000 -205 1000 -150 L1000 650 C1000 705 955 750 900 750 L900 750 Z M153 589 L173 589 L173 566 L153 566 L153 589 Z M266 589 L286 589 L286 566 L266 566 L266 589 Z M378 589 L398 589 L398 566 L378 566 L378 589 Z M491 589 L511 589 L511 566 L491 566 L491 589 Z M603 589 L623 589 L623 566 L603 566 L603 589 Z M716 589 L736 589 L736 566 L716 566 L716 589 Z M828 589 L848 589 L848 566 L828 566 L828 589 Z M209 490 L229 490 L229 468 L209 468 L209 490 Z M322 490 L342 490 L342 468 L322 468 L322 490 Z M434 490 L454 490 L454 468 L434 468 L434 490 Z M547 490 L567 490 L567 468 L547 468 L547 490 Z M659 490 L679 490 L679 468 L659 468 L659 490 Z M772 490 L792 490 L792 468 L772 468 L772 490 Z M153 403 L173 403 L173 380 L153 380 L153 403 Z M270 403 L290 403 L290 380 L270 380 L270 403 Z M716 403 L736 403 L736 380 L716 380 L716 403 Z M828 403 L848 403 L848 380 L828 380 L828 403 Z M501 394 C649 394 776 286 799 145 C782 155 762 161 740 161 C709 161 681 148 661 126 C641 148 612 161 581 161 C554 161 529 151 510 135 L510 -29 C510 -58 484 -85 455 -85 C426 -85 400 -58 400 -29 L400 -3 L420 -3 L420 -29 C420 -48 436 -65 455 -65 C474 -65 490 -48 490 -29 L490 137 C471 152 448 161 421 161 C390 161 361 148 341 126 C321 148 293 161 262 161 C240 161 220 155 203 145 C226 286 353 394 501 394 L501 394 Z M205 320 L225 320 L225 297 L205 297 L205 320 Z M786 307 L806 307 L806 284 L786 284 L786 307 Z " />
<glyph glyph-name="M" unicode="M" horiz-adv-x="1000" d="M900 750 L100 750 C45 750 0 705 0 650 L0 -150 C0 -205 45 -250 100 -250 L900 -250 C955 -250 1000 -205 1000 -150 L1000 650 C1000 705 955 750 900 750 L900 750 Z M370 506 L370 390 C337 408 314 443 314 483 C314 541 361 588 419 588 C477 588 524 541 524 483 C524 445 504 412 473 393 L472 506 C472 534 449 557 421 557 C393 557 370 534 370 506 L370 506 Z M393 -117 L393 -27 C356 1 304 59 310 103 L322 191 C326 218 330 227 370 227 L370 207 L363 139 L383 139 L390 207 L390 506 C390 523 405 537 421 537 C438 537 452 523 452 506 L455 276 L477 275 L477 315 C477 332 492 345 507 345 C524 345 537 332 537 315 L537 263 L560 253 L560 291 C560 306 573 318 587 318 C602 318 614 306 614 291 L614 231 L636 221 L636 231 C636 254 650 265 664 265 C678 265 692 254 692 231 L692 100 C692 53 664 0 639 -27 L639 -117 L393 -117 Z " />
<glyph glyph-name="N" unicode="N" horiz-adv-x="1000" d="M100 -250 L900 -250 C955 -250 1000 -205 1000 -150 L1000 650 C1000 705 955 750 900 750 L100 750 C45 750 0 705 0 650 L0 -150 C0 -205 45 -250 100 -250 L100 -250 Z M330 384 L330 600 L513 600 L513 384 L473 384 L472 466 C472 495 448 520 421 520 C393 520 370 495 370 466 L370 384 L330 384 Z M382 551 L459 551 L459 572 L382 572 L382 551 Z M393 -117 L393 -27 C356 1 304 61 310 103 L322 191 C326 218 330 227 370 227 L370 207 L363 139 L383 139 L390 207 L390 469 C390 486 405 500 421 500 C438 500 452 486 452 469 L455 276 L477 275 L477 315 C477 332 492 345 507 345 C524 345 537 332 537 315 L537 263 L560 253 L560 291 C560 306 573 318 587 318 C602 318 614 306 614 291 L614 231 L636 221 L636 231 C636 254 650 265 664 265 C678 265 692 254 692 231 L692 100 C692 53 664 0 639 -27 L639 -117 L393 -117 Z " />
<glyph glyph-name="O" unicode="O" horiz-adv-x="1000" d="M900 750 L100 750 C45 750 0 705 0 650 L0 -150 C0 -205 45 -250 100 -250 L900 -250 C955 -250 1000 -205 1000 -150 L1000 650 C1000 705 955 750 900 750 L900 750 Z M723 371 L609 305 L638 255 L609 205 L722 139 L823 167 L829 147 L732 121 L759 25 L739 19 L712 121 L598 187 L569 137 L511 137 L511 6 L586 -69 L572 -83 L501 -12 L430 -83 L416 -69 L491 6 L491 137 L433 137 L404 187 L290 121 L263 19 L243 25 L270 121 L172 147 L178 167 L280 139 L393 205 L364 255 L394 306 L282 372 L178 343 L172 363 L270 389 L243 485 L263 491 L290 391 L404 324 L433 373 L491 373 L491 504 L416 579 L430 593 L501 522 L572 593 L586 579 L511 504 L511 373 L569 373 L598 323 L711 388 L739 491 L759 485 L732 389 L829 363 L823 343 L723 371 Z M422 314 L491 273 L491 353 L445 353 L422 314 Z M581 312 L557 353 L511 353 L511 272 L581 312 Z M411 215 L481 255 L412 296 L388 255 L411 215 Z M591 295 L522 255 L591 215 L614 255 L591 295 Z M581 197 L511 238 L511 157 L557 157 L581 197 Z M491 157 L491 237 L422 197 L445 157 L491 157 Z " />
<glyph glyph-name="P" unicode="P" horiz-adv-x="1000" d="M900 750 L100 750 C45 750 0 705 0 650 L0 -150 C0 -205 45 -250 100 -250 L900 -250 C955 -250 1000 -205 1000 -150 L1000 650 C1000 705 955 750 900 750 L900 750 Z M510 510 L510 411 C550 409 586 393 615 369 L686 441 L700 427 L629 355 C655 328 672 292 677 253 L758 253 L758 233 L242 233 L242 253 L323 253 C327 285 339 315 358 340 L286 413 L300 427 L371 355 C401 387 443 408 490 411 L490 510 L510 510 Z M850 203 L850 183 L150 183 L150 203 L850 203 Z M850 140 L850 120 L150 120 L150 140 L850 140 Z M850 78 L850 58 L150 58 L150 78 L850 78 Z M850 15 L850 -5 L150 -5 L150 15 L850 15 Z " />
<glyph glyph-name="Q" unicode="Q" horiz-adv-x="1000" d="M900 750 L100 750 C45 750 0 705 0 650 L0 -150 C0 -205 45 -250 100 -250 L900 -250 C955 -250 1000 -205 1000 -150 L1000 650 C1000 705 955 750 900 750 L900 750 Z M374 504 C377 509 381 514 385 518 C399 532 417 539 437 539 C448 539 461 537 473 532 C499 574 536 594 572 594 C607 594 645 574 671 532 C684 537 696 539 708 539 C751 539 785 505 785 455 C785 446 784 437 782 427 C822 427 842 397 842 367 C842 337 821 307 782 307 L707 307 C698 326 680 340 659 346 C659 347 660 353 660 357 C660 417 619 459 562 461 C553 461 543 459 533 457 C506 494 467 516 426 516 C408 516 390 512 374 504 L374 504 Z M525 434 C538 439 550 441 562 441 C604 441 640 408 640 359 C640 349 638 339 636 329 C676 329 696 299 696 269 C696 239 675 209 636 209 L219 209 C180 209 159 239 159 269 C159 299 178 329 219 329 C217 338 216 347 216 356 C216 406 245 441 291 441 C302 441 314 439 327 434 C353 476 390 496 426 496 C461 496 499 476 525 434 L525 434 Z M180 174 L200 174 L200 152 L180 152 L180 174 Z M743 174 L763 174 L763 152 L743 152 L743 174 Z M293 162 L313 162 L313 139 L293 139 L293 162 Z M630 162 L650 162 L650 139 L630 139 L630 162 Z M405 149 L425 149 L425 127 L405 127 L405 149 Z M518 149 L538 149 L538 127 L518 127 L518 149 Z M237 73 L257 73 L257 51 L237 51 L237 73 Z M799 73 L819 73 L819 51 L799 51 L799 73 Z M349 61 L369 61 L369 38 L349 38 L349 61 Z M686 61 L706 61 L706 38 L686 38 L686 61 Z M461 48 L481 48 L481 26 L461 26 L461 48 Z M574 48 L594 48 L594 26 L574 26 L574 48 Z M293 -34 L313 -34 L313 -57 L293 -57 L293 -34 Z M743 -34 L763 -34 L763 -57 L743 -57 L743 -34 Z M405 -47 L425 -47 L425 -69 L405 -69 L405 -47 Z M630 -47 L650 -47 L650 -69 L630 -69 L630 -47 Z M518 -59 L538 -59 L538 -82 L518 -82 L518 -59 Z " />
<glyph glyph-name="R" unicode="R" horiz-adv-x="1000" d="M900 750 L100 750 C45 750 0 705 0 650 L0 -150 C0 -205 45 -250 100 -250 L900 -250 C955 -250 1000 -205 1000 -150 L1000 650 C1000 705 955 750 900 750 L900 750 Z M520 548 L520 455 C566 452 607 432 637 402 L707 472 L721 458 L650 387 C672 359 686 325 688 287 L781 287 L781 267 L688 267 C687 257 685 247 683 237 C676 238 668 239 661 239 C649 239 638 238 625 234 C589 283 543 305 498 305 C452 305 404 282 370 234 C359 237 346 239 335 239 C332 251 331 264 331 277 C331 318 345 356 369 386 L298 457 L312 471 L382 401 C412 432 454 452 500 455 L500 548 L520 548 Z M617 210 C633 216 648 218 663 218 C716 218 756 179 756 118 C756 107 755 95 752 83 C800 83 824 47 824 10 C824 -26 799 -62 752 -62 L247 -62 C200 -62 175 -26 175 10 C175 47 198 83 247 83 C244 95 243 107 243 118 C243 176 280 219 335 219 C349 219 363 216 378 210 C409 261 454 285 498 285 C540 285 586 261 617 210 L617 210 Z " />
<glyph glyph-name="S" unicode="S" horiz-adv-x="1000" d="M900 750 L100 750 C45 750 0 705 0 650 L0 -150 C0 -205 45 -250 100 -250 L900 -250 C955 -250 1000 -205 1000 -150 L1000 650 C1000 705 955 750 900 750 L900 750 Z M631 600 L828 600 L828 580 L631 580 L631 600 Z M696 560 L763 560 L763 523 L850 523 L850 428 L803 428 L803 423 C803 405 789 391 771 391 L694 391 C676 391 662 405 662 423 L662 428 L618 428 C609 428 585 428 578 409 L480 409 C486 475 538 521 611 523 L696 523 L696 560 Z M527 353 C542 310 577 265 577 237 C577 209 555 186 527 186 C499 186 476 209 476 237 C476 265 509 310 527 353 L527 353 Z M184 67 L355 156 L521 124 C513 83 491 70 452 77 L389 89 L378 56 C384 39 466 4 486 4 L570 28 L625 77 C636 87 648 92 659 92 C674 92 689 83 702 67 L603 -32 L518 -89 C506 -97 495 -100 479 -100 C468 -100 455 -98 439 -94 L212 -40 L184 67 Z M631 -32 L706 44 C711 37 713 29 713 22 C712 8 704 -4 691 -9 L631 -32 Z " />
<glyph glyph-name="T" unicode="T" horiz-adv-x="1000" d="M900 750 L100 750 C45 750 0 705 0 650 L0 -150 C0 -205 45 -250 100 -250 L900 -250 C955 -250 1000 -205 1000 -150 L1000 650 C1000 705 955 750 900 750 L900 750 Z M498 303 C486 331 481 361 481 390 C481 496 564 585 666 597 C623 558 599 502 599 445 C599 339 687 245 800 245 C817 245 833 247 850 251 C822 218 777 191 736 182 C718 214 681 239 636 239 C624 239 612 237 600 234 C574 271 537 295 498 303 L498 303 Z M592 210 C608 216 623 218 637 218 C691 218 731 179 731 118 C731 107 730 95 727 83 C775 83 799 47 799 10 C799 -26 774 -62 727 -62 L222 -62 C175 -62 150 -26 150 10 C150 47 173 83 222 83 C219 95 218 107 218 118 C218 175 255 219 309 219 C323 219 338 216 353 210 C384 261 429 285 473 285 C515 285 561 261 592 210 L592 210 Z " />
<glyph glyph-name="U" unicode="U" horiz-adv-x="1000" d="M900 750 L100 750 C45 750 0 705 0 650 L0 -150 C0 -205 45 -250 100 -250 L900 -250 C955 -250 1000 -205 1000 -150 L1000 650 C1000 705 955 750 900 750 L900 750 Z M510 544 L510 443 C556 440 597 422 629 393 L701 465 L715 451 L643 379 C672 347 690 306 693 260 L794 260 L794 240 L693 240 C690 194 672 153 643 121 L715 49 L701 35 L629 107 C597 78 556 60 510 57 L510 -44 L490 -44 L490 57 C444 60 402 78 371 107 L299 35 L285 49 L357 121 C328 152 310 194 307 240 L206 240 L206 260 L307 260 C310 306 328 348 357 379 L285 451 L299 465 L371 393 C402 422 444 440 490 443 L490 544 L510 544 Z " />
<glyph glyph-name="V" unicode="V" horiz-adv-x="1000" d="M900 750 L100 750 C45 750 0 705 0 650 L0 -150 C0 -205 45 -250 100 -250 L900 -250 C955 -250 1000 -205 1000 -150 L1000 650 C1000 705 955 750 900 750 L900 750 Z M457 532 L558 532 L626 413 L673 440 L645 293 L504 342 L551 369 L457 532 Z M353 352 L445 512 L496 425 L429 309 L353 352 Z M217 226 L358 275 L386 128 L339 155 L245 -8 L182 56 L264 199 L217 226 Z M640 216 L715 259 L807 100 L706 100 L640 216 Z M518 36 L631 134 L631 80 L819 80 L732 -7 L631 -7 L631 -61 L518 36 Z M319 80 L423 80 L423 -7 L269 -7 L319 80 Z " />
<glyph glyph-name="W" unicode="W" horiz-adv-x="1000" d="M900 750 L100 750 C45 750 0 705 0 650 L0 -150 C0 -205 45 -250 100 -250 L900 -250 C955 -250 1000 -205 1000 -150 L1000 650 C1000 705 955 750 900 750 L900 750 Z M375 504 C378 509 382 514 386 518 C400 532 418 539 438 539 C449 539 462 537 474 532 C500 574 537 594 573 594 C608 594 646 574 672 532 C685 537 698 539 710 539 C751 539 786 506 786 456 C786 447 785 437 783 427 C823 427 843 397 843 367 C843 337 822 307 783 307 L708 307 C699 326 681 340 660 346 C660 347 661 353 661 357 C661 417 620 459 563 461 C554 461 544 459 534 457 C507 494 468 516 427 516 C409 516 391 512 375 504 L375 504 Z M526 434 C539 439 551 441 563 441 C605 441 641 408 641 359 C641 349 639 339 637 329 C677 329 697 299 697 269 C697 239 676 209 637 209 L565 209 L609 288 L438 288 L407 209 L220 209 C181 209 160 239 160 269 C160 299 179 329 220 329 C218 338 217 347 217 356 C217 406 246 441 292 441 C303 441 315 439 328 434 C354 476 391 496 427 496 C462 496 500 476 526 434 L526 434 Z M452 268 L575 268 L510 153 L624 153 L455 -77 L430 -65 L489 78 L377 78 L452 268 Z M211 172 L231 172 L231 149 L211 149 L211 172 Z M738 172 L758 172 L758 149 L738 149 L738 172 Z M153 93 L173 93 L173 70 L153 70 L153 93 Z M271 93 L291 93 L291 70 L271 70 L271 93 Z M684 93 L704 93 L704 70 L684 70 L684 93 Z M796 93 L816 93 L816 70 L796 70 L796 93 Z M211 13 L231 13 L231 -9 L211 -9 L211 13 Z M325 13 L345 13 L345 -9 L325 -9 L325 13 Z M624 13 L644 13 L644 -9 L624 -9 L624 13 Z M738 13 L758 13 L758 -9 L738 -9 L738 13 Z M271 -73 L291 -73 L291 -95 L271 -95 L271 -73 Z M684 -73 L704 -73 L704 -95 L684 -95 L684 -73 Z M574 -74 L594 -74 L594 -97 L574 -97 L574 -74 Z " />
<glyph glyph-name="X" unicode="X" horiz-adv-x="1000" d="M900 750 L100 750 C45 750 0 705 0 650 L0 -150 C0 -205 45 -250 100 -250 L900 -250 C955 -250 1000 -205 1000 -150 L1000 650 C1000 705 955 750 900 750 L900 750 Z M280 569 C291 575 314 579 340 579 C395 579 470 560 470 509 C470 502 469 495 466 487 L417 514 L406 497 L508 438 C510 444 512 448 514 452 L532 442 C525 430 519 406 515 378 L618 419 L609 437 L557 417 C545 475 601 493 656 493 C697 493 738 483 752 472 C748 440 676 350 618 350 C601 350 585 358 572 378 L513 356 C509 320 509 279 512 242 L532 242 C530 262 530 283 530 304 C610 286 646 161 646 87 L611 56 L535 34 C519 36 465 60 451 69 L453 76 L499 67 C551 57 591 86 594 150 L403 187 C420 238 448 290 490 303 C491 345 495 387 502 418 L445 450 C432 434 418 428 404 428 C347 428 288 536 280 569 L280 569 Z M406 166 L572 134 C564 93 542 80 503 87 L440 99 L429 66 C435 49 517 14 537 14 L621 38 L676 87 C688 97 700 102 711 102 C726 102 741 92 753 77 L654 -22 L569 -79 C558 -86 547 -90 532 -90 C521 -90 507 -88 490 -84 L263 -30 L235 77 L406 166 Z M682 -22 L757 54 C762 47 764 39 764 32 C763 19 755 6 742 1 L682 -22 Z " />
<glyph glyph-name="Y" unicode="Y" horiz-adv-x="1000" d="M900 750 L100 750 C45 750 0 705 0 650 L0 -150 C0 -205 45 -250 100 -250 L900 -250 C955 -250 1000 -205 1000 -150 L1000 650 C1000 705 955 750 900 750 L900 750 Z M540 569 L553 569 L562 491 L640 482 L640 471 L562 462 L553 384 L540 384 L532 462 L453 471 L453 482 L532 491 L540 569 Z M750 424 L762 424 L771 345 L850 336 L850 326 L771 317 L762 238 L750 238 L741 317 L662 326 L662 336 L741 345 L750 424 Z M592 210 C608 216 623 218 637 218 C690 218 731 180 731 119 C731 108 730 96 727 83 C775 83 799 47 799 10 C799 -26 774 -62 727 -62 L222 -62 C175 -62 150 -26 150 10 C150 47 173 83 222 83 C219 95 218 107 218 118 C218 176 255 219 310 219 C323 219 338 216 353 210 C384 261 429 285 473 285 C515 285 561 261 592 210 L592 210 Z " />
<glyph glyph-name="Z" unicode="Z" horiz-adv-x="1000" d="M900 750 L100 750 C45 750 0 705 0 650 L0 -150 C0 -205 45 -250 100 -250 L900 -250 C955 -250 1000 -205 1000 -150 L1000 650 C1000 705 955 750 900 750 L900 750 Z M491 590 C548 590 575 549 575 503 C575 489 573 475 568 462 C595 455 613 432 613 416 C613 400 592 388 568 388 C549 388 516 400 505 421 C496 407 477 399 446 400 C442 385 429 371 408 371 C384 371 370 390 370 412 C370 434 384 457 416 463 C411 475 408 487 408 500 C408 546 437 590 491 590 L491 590 Z M482 384 L501 309 L521 329 L530 377 C542 372 553 369 565 368 L542 303 L519 274 L519 214 C566 205 605 165 626 119 C616 117 606 112 596 103 L545 57 L469 35 C453 37 399 61 385 70 L387 77 L433 68 C486 58 525 87 528 151 L403 175 C422 195 448 210 478 214 L479 293 L442 362 C449 367 454 373 459 380 C467 380 474 381 482 384 L482 384 Z M169 78 L340 167 L506 135 C498 94 476 81 437 88 L374 100 L363 67 C369 50 451 15 471 15 L555 39 L610 88 C621 98 633 103 645 103 C660 103 675 93 687 78 L588 -21 L503 -78 C492 -85 480 -89 465 -89 C454 -89 440 -87 424 -83 L197 -29 L169 78 Z M616 -21 L691 55 C696 48 698 40 698 33 C697 19 689 7 676 2 L616 -21 Z " />
<glyph glyph-name="bracketleft" unicode="&#x5b;" horiz-adv-x="1000" d="M1000 650 L1000 -150 C1000 -205 955 -250 900 -250 L100 -250 C45 -250 0 -205 0 -150 L0 650 C0 705 45 750 100 750 L900 750 C955 750 1000 705 1000 650 L1000 650 Z M504 -64 L278 241 C283 247 286 254 286 262 C286 272 281 281 274 287 L390 509 C396 509 401 510 406 513 L481 438 C477 432 476 425 476 418 C476 408 480 398 488 390 L525 354 L581 410 L545 447 C536 456 526 460 516 460 C509 460 501 458 494 453 L419 527 C421 531 422 536 422 541 C422 559 408 573 390 573 C372 573 358 559 358 541 C358 530 363 521 371 515 L255 294 C236 294 222 280 222 262 C222 244 236 230 254 230 L261 231 L478 -62 L321 -75 L321 -100 L636 -100 L636 -75 L504 -64 Z M541 274 L598 163 L778 330 L666 397 C656 403 645 406 634 406 C616 406 599 399 588 388 L553 353 C541 341 534 322 534 303 C534 293 536 283 541 274 L541 274 Z " />
<glyph glyph-name="backslash" unicode="&#x5c;" horiz-adv-x="1000" d="M900 750 L100 750 C45 750 0 705 0 650 L0 -150 C0 -205 45 -250 100 -250 L900 -250 C955 -250 1000 -205 1000 -150 L1000 650 C1000 705 955 750 900 750 L900 750 Z M639 564 C651 564 663 554 665 543 L717 247 C719 235 711 226 699 226 L300 226 C288 226 280 235 282 247 L335 543 C337 554 349 564 361 564 L639 564 Z M541 206 L541 134 C541 114 529 98 511 94 L511 -64 L659 -75 L659 -100 L343 -100 L343 -75 L491 -64 L491 94 C473 98 461 114 461 134 L461 206 L541 206 Z " />
<glyph glyph-name="bracketright" unicode="&#x5d;" horiz-adv-x="1000" d="M900 750 L100 750 C45 750 0 705 0 650 L0 -150 C0 -205 45 -250 100 -250 L900 -250 C955 -250 1000 -205 1000 -150 L1000 650 C1000 705 955 750 900 750 L900 750 Z M533 507 C566 507 589 483 589 449 C589 435 584 422 573 411 L494 332 L414 412 L494 491 C505 502 519 507 533 507 L533 507 Z M415 383 L462 336 C478 320 486 297 486 273 C486 258 483 243 477 229 L442 149 L231 359 L309 397 C322 403 337 406 353 406 C376 406 399 399 415 383 L415 383 Z M735 -59 L769 -59 L769 -100 L535 -100 L535 -73 L652 -59 L715 -59 L715 111 C715 226 627 318 514 324 L532 342 C647 327 735 230 735 111 L735 -59 Z " />
<glyph glyph-name="asciicircum" unicode="&#x5e;" horiz-adv-x="1000" d="M900 750 L100 750 C45 750 0 705 0 650 L0 -150 C0 -205 45 -250 100 -250 L900 -250 C955 -250 1000 -205 1000 -150 L1000 650 C1000 705 955 750 900 750 L900 750 Z M150 600 L250 600 L272 499 L364 544 L421 274 L470 284 L417 187 L323 248 L372 262 L316 427 L223 382 L150 600 Z M728 303 L785 343 C792 348 799 351 805 351 C822 351 845 309 845 292 C845 286 843 280 840 273 C817 256 800 243 786 243 C775 243 766 249 758 260 L728 303 Z M683 279 C699 279 716 273 729 260 C747 242 748 235 760 213 L850 223 L850 213 C850 200 845 188 828 185 L761 172 C748 169 739 174 734 179 L701 200 L651 200 L657 182 L683 177 L670 157 L663 130 L729 62 C741 50 745 38 744 21 L738 -73 C737 -90 727 -100 709 -100 L690 -100 L690 10 L656 46 L662 86 L646 93 L614 10 C609 -2 594 -12 579 -18 L484 -55 C476 -58 470 -56 467 -48 L458 -20 L566 48 C562 68 559 93 559 119 C559 159 566 199 583 220 C608 250 647 279 683 279 L683 279 Z " />
<glyph glyph-name="underscore" unicode="&#x5f;" horiz-adv-x="1000" d="M900 750 L100 750 C45 750 0 705 0 650 L0 -150 C0 -205 45 -250 100 -250 L900 -250 C955 -250 1000 -205 1000 -150 L1000 650 C1000 705 955 750 900 750 L900 750 Z M337 411 C337 506 410 583 500 583 C590 583 663 506 663 411 L663 323 L588 258 L601 243 L625 243 L625 194 C625 173 611 147 593 136 L538 101 C529 95 518 93 506 93 C494 93 484 95 474 101 L408 138 C390 148 375 173 375 194 L375 235 L398 231 L412 245 L337 323 L337 411 Z M467 354 C467 378 447 398 423 398 C398 398 378 378 378 354 C378 329 398 309 423 309 C447 309 467 329 467 354 L467 354 Z M574 309 C599 309 619 329 619 354 C619 378 599 398 574 398 C550 398 530 378 530 354 C530 329 550 309 574 309 L574 309 Z M500 262 C511 262 521 271 521 283 C521 294 511 303 500 303 C489 303 479 294 479 283 C479 271 489 262 500 262 L500 262 Z M565 194 L535 194 L535 225 L515 225 L515 194 L485 194 L485 225 L465 225 L465 194 L435 194 L435 225 L415 225 L415 174 L585 174 L585 225 L565 225 L565 194 Z M767 -54 C779 -54 790 -65 790 -77 C790 -89 779 -100 767 -100 C757 -100 748 -93 745 -84 L501 8 L255 -84 C252 -93 243 -100 233 -100 C221 -100 210 -89 210 -77 C210 -65 221 -54 233 -54 C240 -54 247 -58 251 -64 L472 19 L247 104 C243 101 238 99 233 99 C221 99 210 110 210 122 C210 134 221 145 233 145 C245 145 256 134 256 122 L749 -63 C753 -58 760 -54 767 -54 L767 -54 Z M560 31 L531 41 L744 121 C744 134 755 145 767 145 C779 145 790 134 790 122 C790 110 779 99 767 99 C762 99 758 101 754 103 L560 31 Z " />
<glyph glyph-name="a" unicode="a" horiz-adv-x="1000" d="M900 750 L100 750 C45 750 0 705 0 650 L0 -150 C0 -205 45 -250 100 -250 L900 -250 C955 -250 1000 -205 1000 -150 L1000 650 C1000 705 955 750 900 750 L900 750 Z M461 532 L500 570 L539 532 L500 493 L461 532 Z M250 499 L250 545 C250 559 260 569 276 569 L399 569 C413 569 424 559 424 545 L424 519 L350 519 L350 499 L424 499 C424 485 412 474 399 474 L275 474 C261 474 250 485 250 499 L250 499 Z M576 519 L576 545 C576 559 587 569 602 569 L725 569 C740 569 750 560 750 546 L750 499 C750 485 739 474 725 474 L602 474 C589 474 576 485 576 499 L651 499 L651 519 L576 519 Z M526 440 L540 426 C530 416 515 410 500 410 C485 410 470 416 460 426 L474 440 C481 433 491 430 500 430 C509 430 519 433 526 440 L526 440 Z M554 412 L568 398 C552 381 524 370 500 370 C476 370 448 381 432 398 L446 412 C459 399 481 390 500 390 C519 390 541 399 554 412 L554 412 Z M583 383 L597 369 C574 347 533 330 500 330 C467 330 426 347 403 369 L417 383 C437 364 471 350 500 350 C529 350 563 364 583 383 L583 383 Z M500 250 C531 224 555 190 568 151 L432 151 C445 190 469 224 500 250 L500 250 Z M474 248 C446 221 424 187 412 151 L344 151 C368 202 417 239 474 248 L474 248 Z M526 248 C583 239 631 202 655 151 L588 151 C576 187 554 221 526 248 L526 248 Z M336 131 L406 131 C402 114 400 97 400 79 C400 58 403 37 409 17 L340 17 C332 36 328 57 328 79 C328 97 331 115 336 131 L336 131 Z M426 131 L574 131 C578 114 580 97 580 79 C580 58 577 37 571 17 L429 17 C423 37 420 58 420 79 C420 97 422 114 426 131 L426 131 Z M594 131 L663 131 C668 115 671 97 671 79 C671 57 667 36 660 17 L591 17 C597 37 600 58 600 79 C600 97 598 114 594 131 L594 131 Z M349 -3 L416 -3 C429 -36 449 -66 474 -91 C420 -83 374 -49 349 -3 L349 -3 Z M436 -3 L564 -3 C551 -38 529 -69 500 -93 C471 -69 449 -38 436 -3 L436 -3 Z M584 -3 L650 -3 C625 -49 579 -83 526 -91 C551 -66 571 -36 584 -3 L584 -3 Z " />
<glyph glyph-name="b" unicode="b" horiz-adv-x="1000" d="M900 750 L100 750 C45 750 0 705 0 650 L0 -150 C0 -205 45 -250 100 -250 L900 -250 C955 -250 1000 -205 1000 -150 L1000 650 C1000 705 955 750 900 750 L900 750 Z M810 400 L810 55 L190 55 L190 400 L252 400 L252 457 L376 457 L376 400 L623 400 L623 457 L748 457 L748 400 L810 400 Z M690 279 L690 323 L670 323 L670 279 L626 279 L626 259 L670 259 L670 214 L690 214 L690 259 L735 259 L735 279 L690 279 Z M256 267 L256 247 L373 247 L373 267 L256 267 Z " />
<glyph glyph-name="c" unicode="c" horiz-adv-x="1000" d="M900 750 L100 750 C45 750 0 705 0 650 L0 -150 C0 -205 45 -250 100 -250 L900 -250 C955 -250 1000 -205 1000 -150 L1000 650 C1000 705 955 750 900 750 L900 750 Z M409 587 L591 587 C605 587 616 575 616 562 L616 60 C616 46 605 35 591 35 L409 35 C396 35 384 46 384 60 L384 562 C384 575 396 587 409 587 L409 587 Z M500 426 C534 426 562 454 562 488 C562 522 534 550 500 550 C466 550 438 522 438 488 C438 454 466 426 500 426 L500 426 Z M282 519 L282 549 L365 549 L365 436 L282 519 Z M636 549 L719 549 L719 519 L636 436 L636 549 Z M282 344 L282 374 L365 374 L365 261 L282 344 Z M636 374 L719 374 L719 344 L636 261 L636 374 Z M500 249 C534 249 562 277 562 311 C562 345 534 373 500 373 C466 373 438 345 438 311 C438 277 466 249 500 249 L500 249 Z M282 169 L282 199 L365 199 L365 86 L282 169 Z M636 199 L719 199 L719 169 L636 86 L636 199 Z M500 198 C466 198 438 170 438 136 C438 102 466 74 500 74 C534 74 562 102 562 136 C562 170 534 198 500 198 L500 198 Z M500 178 C524 178 542 160 542 136 C542 112 524 94 500 94 C476 94 458 112 458 136 C458 160 476 178 500 178 L500 178 Z M510 23 L510 -101 L490 -101 L490 13 L510 23 Z " />
<glyph glyph-name="d" unicode="d" horiz-adv-x="1000" d="M900 750 L100 750 C45 750 0 705 0 650 L0 -150 C0 -205 45 -250 100 -250 L900 -250 C955 -250 1000 -205 1000 -150 L1000 650 C1000 705 955 750 900 750 L900 750 Z M804 600 L804 -100 L765 -100 L641 5 L641 -100 L621 -100 L621 580 L362 580 L362 600 L804 600 Z M784 470 L784 580 L653 580 L784 470 Z M769 457 L641 564 L641 457 L769 457 Z M469 241 L532 150 C541 137 546 120 546 104 L546 69 L196 69 L196 104 C196 120 201 137 210 150 L273 241 L283 110 L303 110 L303 397 C303 464 335 507 371 507 C407 507 439 464 439 397 L439 110 L459 110 L469 241 Z M768 437 L641 437 L641 330 L768 437 Z M657 318 L784 318 L784 425 L657 318 Z M401 280 C411 280 419 292 419 308 C419 323 411 335 401 335 C391 335 383 323 383 308 C383 292 391 280 401 280 L401 280 Z M656 298 L784 191 L784 298 L656 298 Z M769 178 L641 285 L641 178 L769 178 Z M401 170 C411 170 419 182 419 198 C419 213 411 225 401 225 C391 225 383 213 383 198 C383 182 391 170 401 170 L401 170 Z M768 158 L641 158 L641 51 L768 158 Z M656 38 L784 38 L784 146 L656 38 Z M196 49 L546 49 L546 19 L196 19 L196 49 Z M656 18 L784 -90 L784 18 L656 18 Z M237 -1 C260 -1 278 -38 278 -60 L196 -60 C196 -38 214 -1 237 -1 L237 -1 Z M370 -1 C393 -1 411 -38 411 -60 L329 -60 C329 -38 347 -1 370 -1 L370 -1 Z M505 -1 C528 -1 546 -38 546 -60 L464 -60 C464 -38 482 -1 505 -1 L505 -1 Z " />
<glyph glyph-name="e" unicode="e" horiz-adv-x="1000" d="M900 750 L100 750 C45 750 0 705 0 650 L0 -150 C0 -205 45 -250 100 -250 L900 -250 C955 -250 1000 -205 1000 -150 L1000 650 C1000 705 955 750 900 750 L900 750 Z M500 -89 C314 -89 163 62 163 248 C163 434 314 586 500 586 C516 586 531 585 546 583 L537 577 C532 534 507 510 464 483 L426 459 C426 433 449 421 466 419 L534 410 L557 427 L551 468 L602 514 C614 525 639 501 626 481 L604 447 L625 419 L653 437 C672 449 696 440 682 416 L637 343 L557 316 L527 328 L510 386 L490 386 L477 326 L451 326 C419 326 393 281 363 248 L325 234 L311 211 C343 206 371 186 371 171 L371 142 L289 143 C277 130 274 111 275 93 C275 58 292 40 319 20 L368 20 C396 20 413 40 413 81 C413 103 426 120 440 129 L465 144 L505 80 L517 45 L494 -33 L507 -54 L545 -23 L540 16 L560 22 L584 -3 L604 17 L554 95 L537 161 L553 170 C567 180 580 178 590 168 C614 150 615 138 615 120 L615 88 C615 65 628 50 645 37 C661 24 677 14 707 37 L679 97 L714 129 L714 204 L771 204 L783 270 C786 288 809 295 834 299 C837 282 838 265 838 248 C838 62 687 -89 500 -89 L500 -89 Z M360 339 L345 466 L319 471 L298 443 L278 353 L230 289 L242 272 L330 285 C352 288 364 307 360 339 L360 339 Z " />
<glyph glyph-name="f" unicode="f" horiz-adv-x="1000" d="M900 750 L100 750 C45 750 0 705 0 650 L0 -150 C0 -205 45 -250 100 -250 L900 -250 C955 -250 1000 -205 1000 -150 L1000 650 C1000 705 955 750 900 750 L900 750 Z M685 330 L804 -31 L768 -87 L566 211 L403 48 L399 -104 L356 -99 L298 25 L174 84 L169 126 L321 131 L483 293 L185 496 L241 531 L582 419 L531 368 L545 354 L711 521 C743 553 780 567 805 567 C828 567 839 555 839 532 C839 507 825 470 794 439 L685 330 Z " />
<glyph glyph-name="g" unicode="g" horiz-adv-x="1000" d="M900 750 L100 750 C45 750 0 705 0 650 L0 -150 C0 -205 45 -250 100 -250 L900 -250 C955 -250 1000 -205 1000 -150 L1000 650 C1000 705 955 750 900 750 L900 750 Z M405 500 L594 500 L594 410 L552 410 L552 362 L637 362 L637 302 L679 302 L679 203 L659 210 L659 282 L617 282 L617 342 L532 342 L532 430 L574 430 L574 480 L425 480 L425 430 L467 430 L467 342 L383 342 L383 282 L340 282 L340 209 L320 201 L320 302 L363 302 L363 362 L447 362 L447 410 L405 410 L405 500 Z M264 150 L501 242 L737 150 L737 95 C737 50 728 51 711 35 C703 27 689 18 679 -4 C660 2 641 14 600 14 C545 14 529 -8 500 -8 C471 -8 455 14 400 14 C360 14 341 2 322 -4 C312 17 301 24 290 35 C274 51 264 50 264 95 L264 150 Z M800 -6 L800 -26 C764 -26 744 -48 700 -48 C656 -48 636 -26 600 -26 C564 -26 544 -48 500 -48 C456 -48 436 -26 400 -26 C364 -26 344 -48 300 -48 C256 -48 236 -26 200 -26 L200 -6 C244 -6 264 -28 300 -28 C336 -28 356 -6 400 -6 C444 -6 464 -28 500 -28 C536 -28 556 -6 600 -6 C644 -6 664 -28 700 -28 C736 -28 756 -6 800 -6 L800 -6 Z " />
<glyph glyph-name="h" unicode="h" horiz-adv-x="1000" d="M900 750 L100 750 C45 750 0 705 0 650 L0 -150 C0 -205 45 -250 100 -250 L900 -250 C955 -250 1000 -205 1000 -150 L1000 650 C1000 705 955 750 900 750 L900 750 Z M215 600 L785 600 L785 21 C785 6 773 -5 758 -5 L242 -5 C227 -5 215 6 215 21 L215 600 Z M716 515 L716 555 L283 555 L283 515 L716 515 Z M722 195 L722 468 L278 468 L278 195 L722 195 Z M668 137 C646 137 629 119 629 98 C629 77 646 59 668 59 C689 59 706 77 706 98 C706 119 689 137 668 137 L668 137 Z M333 134 C311 134 294 117 294 95 C294 74 311 57 333 57 C354 57 371 74 371 95 C371 117 354 134 333 134 L333 134 Z M267 -25 L365 -25 L365 -80 C365 -91 356 -100 345 -100 L286 -100 C275 -100 267 -91 267 -80 L267 -25 Z M634 -25 L732 -25 L732 -80 C732 -91 723 -100 712 -100 L653 -100 C642 -100 634 -91 634 -80 L634 -25 Z " />
<glyph glyph-name="i" unicode="i" horiz-adv-x="1000" d="M900 750 L100 750 C45 750 0 705 0 650 L0 -150 C0 -205 45 -250 100 -250 L900 -250 C955 -250 1000 -205 1000 -150 L1000 650 C1000 705 955 750 900 750 L900 750 Z M513 576 C697 576 849 424 849 240 C849 56 697 -96 513 -96 C329 -96 177 56 177 240 C177 251 177 262 178 272 L132 225 L118 239 L188 310 L248 250 L249 221 L199 271 C198 261 197 251 197 240 C197 66 339 -76 513 -76 C687 -76 829 66 829 240 C829 414 687 556 513 556 C381 556 267 474 220 358 L201 364 C251 488 373 576 513 576 L513 576 Z M519 488 C543 439 559 384 567 324 L466 324 C473 384 489 440 513 488 L519 488 Z M490 486 C469 438 453 383 445 324 L366 324 C383 390 424 445 483 486 L490 486 Z M547 486 C607 447 648 390 667 324 L587 324 C579 383 563 438 541 486 L547 486 Z M438 475 C393 435 361 383 346 324 L282 324 C308 395 366 451 438 475 L438 475 Z M595 475 C666 451 723 395 749 324 L686 324 C671 383 640 435 595 475 L595 475 Z M341 305 C337 285 335 264 335 243 C335 217 338 191 344 167 L279 167 C272 190 268 216 268 241 C268 264 271 285 276 305 L341 305 Z M443 305 C441 285 440 265 440 245 C440 218 442 192 445 167 L363 167 C358 191 355 216 355 243 C355 264 357 285 361 305 L443 305 Z M569 305 C571 285 572 265 572 245 C572 219 571 192 568 167 L464 167 C461 192 460 218 460 245 C460 264 460 285 463 305 L569 305 Z M671 305 C675 284 677 264 677 242 C677 216 673 191 668 167 L588 167 C591 192 592 219 592 245 C592 265 591 285 589 305 L671 305 Z M755 305 C760 285 763 264 763 241 C763 216 759 190 752 167 L689 167 C694 191 697 217 697 243 C697 264 695 285 691 305 L755 305 Z M349 146 C365 92 395 43 438 5 C369 28 314 80 286 146 L349 146 Z M447 146 C455 92 469 40 490 -6 L486 -5 C428 32 389 85 370 146 L447 146 Z M565 146 C556 90 541 39 519 -7 L513 -7 C491 39 475 90 467 146 L565 146 Z M663 146 C643 85 605 32 547 -5 L541 -6 C563 40 577 91 585 146 L663 146 Z M745 146 C717 80 662 28 593 5 C637 43 667 92 683 146 L745 146 Z " />
<glyph glyph-name="j" unicode="j" horiz-adv-x="1000" d="M1000 650 L1000 -150 C1000 -205 955 -250 900 -250 L100 -250 C45 -250 0 -205 0 -150 L0 650 C0 705 45 750 100 750 L900 750 C955 750 1000 705 1000 650 L1000 650 Z M773 587 L227 587 L227 6 C227 -7 237 -17 249 -17 L306 -17 L345 45 L660 45 L695 -17 L750 -17 C763 -17 773 -7 773 6 L773 587 Z M711 525 L711 242 L289 242 L289 525 L711 525 Z M388 101 C407 101 423 117 423 136 C423 155 407 171 388 171 C369 171 353 155 353 136 C353 117 369 101 388 101 L388 101 Z M612 101 C631 101 647 117 647 136 C647 155 631 171 612 171 C593 171 577 155 577 136 C577 117 593 101 612 101 L612 101 Z M310 116 C322 116 330 125 330 136 C330 147 322 156 310 156 C299 156 290 147 290 136 C290 125 299 116 310 116 L310 116 Z M690 116 C701 116 710 125 710 136 C710 147 701 156 690 156 C678 156 670 147 670 136 C670 125 678 116 690 116 L690 116 Z M421 25 L398 25 L335 -88 L359 -88 L421 25 Z M654 -88 L678 -88 L615 25 L592 25 L654 -88 Z M431 7 L420 -13 L593 -13 L583 7 L431 7 Z M397 -55 L386 -75 L627 -75 L616 -55 L397 -55 Z " />
<glyph glyph-name="k" unicode="k" horiz-adv-x="1000" d="M900 750 L100 750 C45 750 0 705 0 650 L0 -150 C0 -205 45 -250 100 -250 L900 -250 C955 -250 1000 -205 1000 -150 L1000 650 C1000 705 955 750 900 750 L900 750 Z M817 199 L817 122 C817 57 782 22 717 22 L285 22 C220 22 185 57 185 122 L185 199 C185 218 195 229 215 229 L239 229 L279 383 C290 425 316 444 356 444 L649 444 C689 444 715 425 726 383 L765 229 L787 229 C807 229 817 219 817 199 L817 199 Z M270 229 L734 229 L697 375 C690 402 676 414 648 414 L357 414 C329 414 315 402 308 375 L270 229 Z M310 175 C288 175 272 159 272 137 C272 116 288 99 310 99 C331 99 348 116 348 137 C348 159 331 175 310 175 L310 175 Z M689 175 C667 175 651 159 651 137 C651 116 667 99 689 99 C711 99 727 116 727 137 C727 159 711 175 689 175 L689 175 Z M249 -8 L347 -8 L347 -53 C347 -63 339 -72 328 -72 L269 -72 C258 -72 249 -63 249 -53 L249 -8 Z M655 -8 L753 -8 L753 -53 C753 -63 745 -72 734 -72 L675 -72 C664 -72 655 -63 655 -53 L655 -8 Z " />
<glyph glyph-name="l" unicode="l" horiz-adv-x="1000" d="M900 750 L100 750 C45 750 0 705 0 650 L0 -150 C0 -205 45 -250 100 -250 L900 -250 C955 -250 1000 -205 1000 -150 L1000 650 C1000 705 955 750 900 750 L900 750 Z M334 522 L232 419 L184 464 L207 488 L189 505 C181 513 176 524 176 535 C176 560 196 579 220 579 C231 579 242 574 250 566 L267 549 L288 569 L334 522 Z M253 534 L236 552 C231 557 225 559 219 559 C206 559 196 547 196 536 C196 530 198 525 203 520 L221 502 L253 534 Z M593 264 C569 260 545 247 526 228 C508 210 496 187 490 161 L246 404 L349 508 L593 264 Z M495 292 C495 310 480 325 462 325 C443 325 428 310 428 292 C428 273 443 258 462 258 C480 258 495 273 495 292 L495 292 Z M505 127 C505 196 559 249 626 250 C656 250 687 238 710 214 L539 43 C517 66 505 97 505 127 L505 127 Z M823 102 L651 -69 L553 29 L724 200 L823 102 Z " />
<glyph glyph-name="m" unicode="m" horiz-adv-x="1000" d="M900 750 L100 750 C45 750 0 705 0 650 L0 -150 C0 -205 45 -250 100 -250 L900 -250 C955 -250 1000 -205 1000 -150 L1000 650 C1000 705 955 750 900 750 L900 750 Z M220 257 L220 518 C220 528 228 536 238 536 L534 536 C544 536 552 528 552 518 L552 257 L518 -16 L255 -16 L220 257 Z M700 46 C660 46 615 79 615 138 L615 271 C615 289 609 298 599 298 L572 298 L572 318 L599 318 C623 318 635 297 635 271 L635 138 C635 91 668 66 700 66 C737 66 766 95 766 142 C766 190 758 211 749 233 C739 256 729 281 729 344 C729 416 684 473 625 473 L625 463 L572 463 L572 503 L625 503 L625 493 C696 493 749 424 749 344 C749 285 757 264 767 241 C776 219 786 194 786 142 C786 85 747 46 700 46 L700 46 Z M512 289 L512 496 L260 496 L260 289 L512 289 Z M570 -66 L570 -100 L215 -100 L215 -66 L570 -66 Z " />
<glyph glyph-name="n" unicode="n" horiz-adv-x="1000" d="M900 750 L100 750 C45 750 0 705 0 650 L0 -150 C0 -205 45 -250 100 -250 L900 -250 C955 -250 1000 -205 1000 -150 L1000 650 C1000 705 955 750 900 750 L900 750 Z M500 468 C673 468 815 323 810 148 L675 148 L675 168 L790 168 C788 242 757 310 708 360 L646 298 L632 312 L694 374 C644 423 580 446 510 448 L510 359 L490 359 L490 448 C419 445 355 417 305 372 L371 306 L357 292 L291 358 C243 308 212 242 210 168 L325 168 L325 148 L190 148 C185 323 327 468 500 468 L500 468 Z M538 318 L559 313 L526 112 C524 98 512 91 500 91 C483 91 469 109 474 125 L538 318 Z " />
<glyph glyph-name="o" unicode="o" horiz-adv-x="1000" d="M900 750 L100 750 C45 750 0 705 0 650 L0 -150 C0 -205 45 -250 100 -250 L900 -250 C955 -250 1000 -205 1000 -150 L1000 650 C1000 705 955 750 900 750 L900 750 Z M737 582 L751 568 L696 513 C748 458 779 385 779 304 C779 140 649 6 486 -1 L486 -61 L611 -84 L611 -109 L336 -109 L336 -84 L461 -61 L461 -1 C379 2 303 39 251 95 L266 109 C318 53 390 19 473 19 C632 19 759 146 759 304 C759 388 726 459 668 512 L737 582 Z M363 533 C397 548 434 556 471 556 C508 556 546 547 580 530 C519 533 460 519 408 488 L363 533 Z M345 523 L391 477 C374 466 358 453 343 438 C324 419 309 399 295 378 L249 424 C261 445 276 466 294 484 C310 500 327 513 345 523 L345 523 Z M619 505 L625 500 C575 481 525 454 478 418 L422 474 C465 499 512 510 562 510 C580 510 600 509 619 505 L619 505 Z M642 485 L646 481 C628 429 601 379 564 332 L493 403 C540 440 591 468 642 485 L642 485 Z M661 464 L664 460 C668 439 671 418 671 398 C670 349 658 303 635 261 L578 318 C615 365 642 415 661 464 L661 464 Z M405 463 L463 405 C447 393 432 379 418 365 C400 346 382 327 367 306 L309 364 C322 385 338 405 357 424 C372 439 388 452 405 463 L405 463 Z M691 418 C708 382 716 343 716 304 C716 270 708 235 693 203 L649 247 C679 299 694 358 691 418 L691 418 Z M240 404 L284 360 C257 310 244 255 248 197 C230 233 221 272 221 311 C221 343 228 374 240 404 L240 404 Z M477 391 L552 316 C540 301 526 286 512 272 C493 253 474 235 453 220 L380 293 C396 313 413 332 432 351 C446 365 461 379 477 391 L477 391 Z M299 345 L354 290 C320 246 294 200 276 153 L274 156 C269 177 267 197 267 217 C267 262 278 305 299 345 L299 345 Z M566 302 L624 244 C612 227 599 211 584 196 C565 177 545 162 524 149 L467 206 C488 221 507 239 526 258 C540 272 553 287 566 302 L566 302 Z M368 276 L437 207 C391 174 344 148 296 131 L292 135 C309 183 334 231 368 276 L368 276 Z M638 230 L683 185 C673 167 660 150 644 134 C626 116 605 101 584 89 L539 134 C560 148 580 163 599 182 C614 197 627 213 638 230 L638 230 Z M451 193 L506 138 C467 117 424 106 380 106 C359 106 338 108 317 113 L313 116 C360 133 407 160 451 193 L451 193 Z M521 123 L564 80 C533 67 500 61 467 61 C429 61 392 70 357 87 C414 83 470 96 521 123 L521 123 Z " />
<glyph glyph-name="p" unicode="p" horiz-adv-x="1000" d="M900 750 L100 750 C45 750 0 705 0 650 L0 -150 C0 -205 45 -250 100 -250 L900 -250 C955 -250 1000 -205 1000 -150 L1000 650 C1000 705 955 750 900 750 L900 750 Z M845 474 C846 465 847 462 847 444 C847 420 843 386 822 360 L726 276 L678 316 L740 427 C775 471 814 474 845 474 L845 474 Z M811 403 C811 415 801 426 788 426 C777 426 771 417 771 409 C771 399 778 386 794 386 C805 386 811 392 811 403 L811 403 Z M408 413 C445 383 472 338 484 286 L332 286 C344 338 371 383 408 413 L408 413 Z M381 410 C348 378 324 335 312 286 L228 286 C252 351 310 400 381 410 L381 410 Z M435 410 C506 400 564 351 588 286 L504 286 C492 335 468 378 435 410 L435 410 Z M685 286 L700 273 C670 242 635 211 596 182 C580 103 516 41 435 30 C457 51 476 79 488 110 L462 95 C448 68 429 46 408 28 C397 37 388 46 379 57 L362 51 C369 44 375 36 382 30 C365 32 349 36 335 42 C307 34 280 29 256 29 C203 29 170 54 170 96 C170 121 181 152 199 183 C200 177 204 162 207 154 C195 131 190 112 190 96 C190 65 216 49 256 49 C326 49 443 96 560 180 C608 214 650 250 685 286 L685 286 Z M222 266 L308 266 C306 252 305 237 305 222 C305 192 310 164 318 137 L235 137 C223 162 216 190 216 220 C216 236 218 251 222 266 L222 266 Z M328 266 L488 266 C490 252 491 237 491 222 C491 198 486 162 482 149 L459 137 L337 137 C329 163 325 192 325 222 C325 237 326 252 328 266 L328 266 Z M508 266 L594 266 C597 258 599 242 599 230 C571 207 539 184 505 163 C509 178 511 199 511 222 C511 237 510 252 508 266 L508 266 Z M246 117 L325 117 C329 106 333 97 339 86 C322 80 305 75 288 71 C273 82 256 102 246 117 L246 117 Z M344 117 L418 117 C397 107 377 99 356 91 C351 100 347 108 344 117 L344 117 Z " />
<glyph glyph-name="q" unicode="q" horiz-adv-x="1000" d="M1000 650 L1000 -150 C1000 -205 955 -250 900 -250 L100 -250 C45 -250 0 -205 0 -150 L0 650 C0 705 45 750 100 750 L900 750 C955 750 1000 705 1000 650 L1000 650 Z M331 495 L353 421 L403 421 C404 438 412 442 426 442 C466 442 491 442 512 428 C530 416 555 405 579 394 L646 363 C665 354 708 333 708 292 C708 260 651 182 607 168 L547 86 C541 71 536 65 522 62 L522 32 L514 24 C514 8 517 -20 542 -20 L542 -36 C538 -41 532 -44 508 -44 C482 -44 475 -24 475 -11 C478 -8 484 -4 484 2 C484 3 483 11 476 11 C472 11 467 9 463 9 C459 9 450 20 450 24 C450 29 455 38 455 44 C455 49 447 53 442 56 L435 69 L445 210 C440 228 425 224 391 256 C367 278 362 326 362 356 L362 374 L330 385 L252 461 C196 401 162 321 162 232 C162 46 313 -105 500 -105 C686 -105 837 46 837 232 C837 418 686 570 500 570 C445 570 393 556 347 533 L331 495 Z " />
<glyph glyph-name="r" unicode="r" horiz-adv-x="1000" d="M1000 -150 C1000 -205 955 -250 900 -250 L100 -250 C45 -250 0 -205 0 -150 L0 650 C0 705 45 750 100 750 L900 750 C955 750 1000 705 1000 650 L1000 -150 Z M500 587 C313 587 162 436 162 250 C162 63 313 -88 500 -88 C686 -88 837 63 837 250 C837 436 686 587 500 587 L500 587 Z M443 503 L491 503 L519 480 C531 470 556 458 564 458 C570 459 574 464 574 474 C584 474 605 474 624 468 L702 348 L739 358 L748 350 C748 318 724 281 709 266 C692 249 676 248 676 230 C676 211 688 204 688 176 L688 157 C672 146 652 137 652 130 C652 122 652 108 650 104 C641 81 612 44 595 33 C569 33 551 43 544 64 L512 157 C522 167 527 187 527 206 C527 226 502 227 502 260 C502 292 476 300 462 300 C401 300 386 307 376 316 C355 335 350 354 350 370 C350 389 356 415 366 432 C383 461 414 483 443 503 L443 503 Z M728 100 L745 110 L762 160 L744 166 L729 124 L718 116 L728 100 Z " />
<glyph glyph-name="s" unicode="s" horiz-adv-x="1000" d="M900 750 L100 750 C45 750 0 705 0 650 L0 -150 C0 -205 45 -250 100 -250 L900 -250 C955 -250 1000 -205 1000 -150 L1000 650 C1000 705 955 750 900 750 L900 750 Z M285 582 L327 540 L281 494 L221 554 L249 582 C254 587 260 589 267 589 C274 589 280 587 285 582 L285 582 Z M207 540 L267 480 L217 429 L174 472 C169 477 167 483 167 489 C167 495 169 502 174 507 L207 540 Z M341 526 L394 473 L348 427 L295 479 L341 526 Z M282 465 L334 413 L284 362 L231 415 L282 465 Z M409 459 L450 417 C455 412 457 405 457 398 C457 393 455 387 450 382 L421 353 L362 412 L409 459 Z M348 398 L407 339 L374 307 C369 302 362 300 356 300 C350 300 344 302 339 307 L298 348 L348 398 Z M546 381 L622 375 L628 299 L479 150 L397 232 L546 381 Z M530 261 C542 261 552 271 552 283 C552 295 542 305 530 305 C518 305 508 295 508 283 C508 271 518 261 530 261 L530 261 Z M663 204 L705 162 L659 116 L599 176 L627 204 C632 209 639 211 645 211 C652 211 658 209 663 204 L663 204 Z M361 172 C361 135 391 105 428 105 L428 85 C381 85 341 125 341 172 L361 172 Z M585 162 L645 102 L595 51 L552 94 C547 99 545 105 545 111 C545 118 547 124 552 129 L585 162 Z M264 154 C264 72 328 8 410 8 L410 -12 C318 -12 244 62 244 154 L264 154 Z M719 148 L772 95 L726 49 L673 101 L719 148 Z M660 87 L712 35 L662 -16 L609 37 L660 87 Z M787 81 L828 39 C833 34 835 27 835 21 C835 15 833 9 828 4 L799 -25 L740 34 L787 81 Z M726 20 L785 -39 L752 -71 C747 -76 741 -78 735 -78 C729 -78 722 -76 717 -71 L676 -30 L726 20 Z " />
<glyph glyph-name="t" unicode="t" horiz-adv-x="1000" d="M900 750 L100 750 C45 750 0 705 0 650 L0 -150 C0 -205 45 -250 100 -250 L900 -250 C955 -250 1000 -205 1000 -150 L1000 650 C1000 705 955 750 900 750 L900 750 Z M499 570 C686 570 837 418 837 232 C837 182 826 135 807 93 L763 117 L703 117 L740 74 C743 70 745 63 745 55 C744 46 742 37 732 31 L656 -18 C662 -39 668 -44 681 -52 C629 -86 566 -105 499 -105 C313 -105 162 46 162 232 C162 418 313 570 499 570 L499 570 Z M546 491 C540 485 531 482 523 482 C515 482 508 484 503 488 C494 495 485 498 476 498 C461 498 445 490 445 470 C445 458 453 446 470 437 C486 428 535 440 555 423 L602 382 L647 327 L671 327 L685 368 L634 416 L633 440 C615 468 587 487 546 491 L546 491 Z M374 489 C363 489 354 480 354 469 C354 458 363 449 374 449 C385 449 394 458 394 469 C394 480 385 489 374 489 L374 489 Z M424 436 C418 436 414 432 414 426 C414 420 418 416 424 416 C430 416 434 420 434 426 C434 432 430 436 424 436 L424 436 Z M534 334 L504 352 L504 312 C504 289 499 268 481 268 C473 268 465 274 452 283 L452 302 C452 325 441 330 426 325 C417 322 408 318 400 318 C365 318 348 318 341 308 C333 296 334 288 325 275 C302 241 249 229 245 198 C245 193 246 189 248 184 L270 132 L270 102 C270 91 289 88 301 88 C324 88 368 121 423 121 C464 121 502 70 516 54 L584 67 C605 87 628 150 628 186 C628 221 590 254 564 277 L534 334 Z M720 345 C714 345 710 340 710 335 C710 329 714 325 720 325 C725 325 730 329 730 335 C730 340 725 345 720 345 L720 345 Z M452 33 C446 33 442 28 442 23 C442 17 446 13 452 13 C457 13 462 17 462 23 C462 28 457 33 452 33 L452 33 Z M514 0 L502 7 C500 8 498 9 496 9 C490 9 486 4 486 -2 C486 -5 488 -8 491 -10 L508 -20 L542 -20 C548 -20 552 -16 552 -10 C552 -4 548 0 542 0 L514 0 Z " />
<glyph glyph-name="u" unicode="u" horiz-adv-x="1000" d="M900 750 L100 750 C45 750 0 705 0 650 L0 -150 C0 -205 45 -250 100 -250 L900 -250 C955 -250 1000 -205 1000 -150 L1000 650 C1000 705 955 750 900 750 L900 750 Z M524 509 L532 509 C552 460 568 405 576 347 L480 347 C488 405 504 460 524 509 L524 509 Z M502 506 C481 457 467 404 460 347 L394 347 C411 410 449 464 502 506 L502 506 Z M554 506 C607 464 645 410 662 347 L596 347 C589 404 575 457 554 506 L554 506 Z M465 501 C421 459 389 406 373 347 L300 347 C326 422 388 480 465 501 L465 501 Z M591 501 C668 480 730 422 757 347 L683 347 C667 406 635 459 591 501 L591 501 Z M294 327 L369 327 C365 308 363 287 363 267 C363 247 365 227 369 207 L294 207 C289 226 286 246 286 267 C286 288 289 308 294 327 L294 327 Z M389 327 L458 327 C456 307 455 287 455 267 C455 246 456 226 458 207 L389 207 C385 227 383 247 383 267 C383 288 385 308 389 327 L389 327 Z M478 327 L578 327 C580 307 581 287 581 267 C581 247 580 227 578 207 L478 207 C476 227 475 247 475 267 C475 287 476 307 478 327 L478 327 Z M598 327 L667 327 C671 308 673 288 673 267 C673 246 671 226 667 207 L598 207 C600 227 601 247 601 267 C601 287 600 307 598 327 L598 327 Z M687 327 L763 327 C767 308 770 288 770 267 C770 246 767 226 762 207 L687 207 C691 227 693 247 693 267 C693 287 691 308 687 327 L687 327 Z M300 187 L374 187 L380 167 L324 137 C314 153 306 169 300 187 L300 187 Z M394 187 L460 187 L464 164 L397 176 L394 187 Z M481 187 L576 187 C574 172 572 158 569 143 L485 160 C483 169 482 178 481 187 L481 187 Z M596 187 L662 187 C645 127 609 74 560 32 L556 31 C575 78 589 132 596 187 L596 187 Z M682 187 L756 187 C746 159 731 133 712 110 C694 112 675 107 658 92 L607 46 L602 45 C640 85 668 133 682 187 L682 187 Z M231 67 L399 156 L564 124 C556 83 534 69 495 77 L436 89 L425 56 C431 39 513 4 533 4 L617 28 L672 77 C684 88 695 92 707 92 C722 92 736 82 749 67 L650 -32 L565 -89 C554 -96 543 -100 528 -100 C517 -100 503 -98 486 -94 L259 -40 L231 67 Z M678 -32 L753 44 C760 42 762 36 762 29 C762 15 751 -4 738 -9 L678 -32 Z " />
<glyph glyph-name="v" unicode="v" horiz-adv-x="1000" d="M900 750 L100 750 C45 750 0 705 0 650 L0 -150 C0 -205 45 -250 100 -250 L900 -250 C955 -250 1000 -205 1000 -150 L1000 650 C1000 705 955 750 900 750 L900 750 Z M500 586 C522 586 540 568 540 546 C540 524 522 506 500 506 C478 506 460 524 460 546 C460 568 478 586 500 586 L500 586 Z M770 175 C767 108 741 47 698 1 L652 47 L638 33 L684 -13 C638 -56 577 -83 510 -85 L510 -1 L490 -1 L490 -85 C423 -83 362 -56 316 -13 L362 33 L348 47 L302 1 C259 47 232 108 230 175 L314 175 L314 195 L230 195 C232 262 259 323 302 369 L348 323 L362 337 L316 383 C362 426 423 453 490 455 L490 360 L510 360 L510 455 C577 453 638 426 684 383 L638 337 L652 323 L698 369 C741 323 767 262 770 195 L686 195 L686 175 L770 175 Z M412 0 L546 164 L583 373 L454 206 L412 0 Z " />
<glyph glyph-name="w" unicode="w" horiz-adv-x="1000" d="M900 750 L100 750 C45 750 0 705 0 650 L0 -150 C0 -205 45 -250 100 -250 L900 -250 C955 -250 1000 -205 1000 -150 L1000 650 C1000 705 955 750 900 750 L900 750 Z M417 579 L478 536 C499 521 523 518 549 518 L602 518 C629 518 647 526 647 555 C759 500 837 384 837 251 C837 112 752 -8 631 -59 L641 9 L613 38 C601 29 574 21 564 21 C530 21 490 55 490 97 C490 110 493 123 504 125 L613 148 L651 73 C677 85 685 97 674 121 L643 188 C652 214 673 236 712 265 C732 280 754 307 754 334 C754 368 739 421 719 425 L658 425 L628 326 C623 309 607 289 604 283 C598 273 592 267 587 267 C579 267 573 275 573 292 C573 303 582 333 582 350 C582 374 548 370 548 397 C548 417 599 451 586 460 C578 466 567 469 555 469 C543 469 531 467 519 462 C509 458 462 485 445 485 C425 485 425 420 406 420 C399 420 394 424 385 435 C364 460 357 474 306 474 L246 474 C291 524 350 562 417 579 L417 579 Z M175 346 C194 376 240 401 261 401 C275 401 290 391 300 376 C306 368 308 358 308 349 C308 337 304 325 304 315 C304 310 307 306 309 302 C318 284 303 271 296 249 C291 235 288 216 288 199 C288 178 291 165 302 150 L343 45 L361 55 L349 138 C364 137 381 123 407 86 C417 72 413 49 426 32 C465 -20 507 5 541 -37 L574 -78 C550 -83 525 -86 499 -86 C313 -86 162 65 162 251 C162 284 167 316 175 346 L175 346 Z " />
<glyph glyph-name="x" unicode="x" horiz-adv-x="1000" d="M900 750 L100 750 C45 750 0 705 0 650 L0 -150 C0 -205 45 -250 100 -250 L900 -250 C955 -250 1000 -205 1000 -150 L1000 650 C1000 705 955 750 900 750 L900 750 Z M409 587 L591 587 C605 587 616 575 616 562 L616 60 C616 46 605 35 591 35 L409 35 C396 35 384 46 384 60 L384 562 C384 575 396 587 409 587 L409 587 Z M500 426 C534 426 562 454 562 488 C562 522 534 550 500 550 C466 550 438 522 438 488 C438 454 466 426 500 426 L500 426 Z M282 519 L282 549 L365 549 L365 436 L282 519 Z M636 549 L719 549 L719 519 L636 436 L636 549 Z M282 344 L282 374 L365 374 L365 261 L282 344 Z M636 374 L719 374 L719 344 L636 261 L636 374 Z M500 249 C534 249 562 277 562 311 C562 345 534 373 500 373 C466 373 438 345 438 311 C438 277 466 249 500 249 L500 249 Z M500 269 C476 269 458 287 458 311 C458 335 476 353 500 353 C524 353 542 335 542 311 C542 287 524 269 500 269 L500 269 Z M282 169 L282 199 L365 199 L365 86 L282 169 Z M636 199 L719 199 L719 169 L636 86 L636 199 Z M500 198 C466 198 438 170 438 136 C438 102 466 74 500 74 C534 74 562 102 562 136 C562 170 534 198 500 198 L500 198 Z M510 23 L510 -101 L490 -101 L490 13 L510 23 Z " />
<glyph glyph-name="y" unicode="y" horiz-adv-x="1000" d="M900 750 L100 750 C45 750 0 705 0 650 L0 -150 C0 -205 45 -250 100 -250 L900 -250 C955 -250 1000 -205 1000 -150 L1000 650 C1000 705 955 750 900 750 L900 750 Z M501 587 C686 587 838 435 838 250 C838 64 686 -88 501 -88 C315 -88 163 64 163 250 C163 435 315 587 501 587 L501 587 Z M547 129 L547 164 L517 203 C511 210 507 213 497 213 C490 213 486 210 478 195 L460 161 L456 98 L438 98 L402 168 L392 201 L327 255 L285 269 L271 248 L299 206 L323 204 L344 176 L274 131 C269 128 262 129 259 134 L187 287 L189 316 C199 370 239 446 290 487 L356 501 L475 501 L553 465 L582 499 L712 487 C732 469 749 449 761 431 L727 421 L742 380 C744 373 741 368 734 367 L723 365 L690 416 L643 416 L634 389 L678 367 L682 280 L672 269 L629 317 L613 298 C624 281 643 260 643 236 C643 213 625 198 594 198 C584 198 577 194 577 188 C577 185 579 181 584 175 L599 155 C605 147 603 135 597 131 L568 111 L547 129 Z M819 256 L741 209 L735 229 L777 254 L810 324 C815 302 818 280 819 256 L819 256 Z M694 136 L680 115 L656 157 L668 181 C679 180 694 157 694 136 L694 136 Z M479 130 C479 134 482 139 488 139 C494 139 498 134 498 129 L498 100 C498 96 493 92 488 92 C484 92 479 96 479 101 L479 130 Z M547 109 L556 101 L564 73 L592 33 L651 3 L645 -7 L567 24 L547 63 L529 87 L547 109 Z M644 108 L656 99 C658 98 661 91 661 82 C661 72 656 59 649 50 L616 50 L605 77 L644 108 Z " />
<glyph glyph-name="z" unicode="z" horiz-adv-x="1000" d="M900 750 L100 750 C45 750 0 705 0 650 L0 -150 C0 -205 45 -250 100 -250 L900 -250 C955 -250 1000 -205 1000 -150 L1000 650 C1000 705 955 750 900 750 L900 750 Z M409 587 L591 587 C605 587 616 575 616 562 L616 60 C616 46 605 35 591 35 L409 35 C396 35 384 46 384 60 L384 562 C384 575 396 587 409 587 L409 587 Z M500 426 C534 426 562 454 562 488 C562 522 534 550 500 550 C466 550 438 522 438 488 C438 454 466 426 500 426 L500 426 Z M282 519 L282 549 L365 549 L365 436 L282 519 Z M636 549 L719 549 L719 519 L636 436 L636 549 Z M500 446 C476 446 458 464 458 488 C458 512 476 530 500 530 C524 530 542 512 542 488 C542 464 524 446 500 446 L500 446 Z M282 344 L282 374 L365 374 L365 261 L282 344 Z M636 374 L719 374 L719 344 L636 261 L636 374 Z M500 249 C534 249 562 277 562 311 C562 345 534 373 500 373 C466 373 438 345 438 311 C438 277 466 249 500 249 L500 249 Z M282 169 L282 199 L365 199 L365 86 L282 169 Z M636 199 L719 199 L719 169 L636 86 L636 199 Z M500 198 C466 198 438 170 438 136 C438 102 466 74 500 74 C534 74 562 102 562 136 C562 170 534 198 500 198 L500 198 Z M510 23 L510 -101 L490 -101 L490 13 L510 23 Z " />
<glyph glyph-name="braceleft" unicode="&#x7b;" horiz-adv-x="1000" d="M900 750 L100 750 C45 750 0 705 0 650 L0 -150 C0 -205 45 -250 100 -250 L900 -250 C955 -250 1000 -205 1000 -150 L1000 650 C1000 705 955 750 900 750 L900 750 Z M500 523 C649 523 773 399 773 250 C773 101 649 -23 500 -23 C351 -23 228 101 228 250 L229 271 L194 237 L180 251 L239 309 L297 251 L283 237 L249 271 L248 250 C248 111 361 -3 500 -3 C639 -3 753 111 753 250 C753 389 639 503 500 503 C394 503 303 436 266 343 L247 348 C286 450 385 523 500 523 L500 523 Z " />
<glyph glyph-name="braceright" unicode="&#x7d;" horiz-adv-x="1000" d="M900 750 L100 750 C45 750 0 705 0 650 L0 -150 C0 -205 45 -250 100 -250 L900 -250 C955 -250 1000 -205 1000 -150 L1000 650 C1000 705 955 750 900 750 L900 750 Z M500 523 C649 523 773 399 773 250 L772 229 L806 263 L820 249 L762 191 L704 249 L718 263 L752 229 C753 236 753 243 753 250 C753 389 639 503 500 503 C395 503 305 438 267 346 L248 352 C289 452 387 523 500 523 L500 523 Z M239 309 L297 251 L283 237 L249 271 C248 264 248 257 248 250 C248 111 361 -3 500 -3 C605 -3 696 62 734 154 L753 149 C711 47 615 -23 500 -23 C351 -23 228 101 228 250 C228 257 228 264 229 271 L194 237 L180 251 L239 309 Z " />
</font>
</svg>
