<?xml version="1.0" encoding="UTF-8"?>
<svg xmlns="http://www.w3.org/2000/svg" xmlns:xlink="http://www.w3.org/1999/xlink" version="1.2" >
<font id="Informative Work">
<font-face  font-family="Informative" units-per-em="1000" ascent="750" descent="-250" font-style="normal" font-weight="900" font-stretch="normal" cap-height="700" x-height="400" underline-position="-75" underline-thickness="50" />
<missing-glyph  horiz-adv-x="500" d="M410 750 L93 750 L93 -250 L410 -250 L410 750 Z M333 683 L333 650 L267 650 L267 613 L333 613 L333 580 L167 580 L167 613 L233 613 L233 650 L168 650 L168 683 L333 683 Z M267 554 L267 484 L333 484 L333 450 L167 450 L167 554 L267 554 Z M233 520 L200 520 L200 484 L233 484 L233 520 Z M333 423 L333 390 L267 390 L267 320 L167 320 L167 353 L233 353 L233 390 L167 390 L167 423 L333 423 Z M333 363 L333 263 L167 263 L167 297 L300 297 L300 363 L333 363 Z M333 241 L333 128 L167 128 L167 241 L200 241 L200 161 L300 161 L300 208 L267 208 L267 185 L233 185 L233 241 L333 241 Z M333 68 L333 -45 L167 -45 L167 68 L333 68 Z M300 35 L200 35 L200 -12 L300 -12 L300 35 Z M333 -68 L333 -101 L301 -101 L231 -148 L333 -148 L333 -181 L167 -181 L167 -148 L237 -101 L167 -101 L167 -68 L333 -68 Z " />
<glyph glyph-name="NULL" d="" />
<glyph glyph-name="CR" unicode="&#xd;" horiz-adv-x="250" d="" />
<glyph glyph-name="space" unicode="&#x20;" horiz-adv-x="600" d="" />
<glyph glyph-name="exclam" unicode="&#x21;" horiz-adv-x="1000" d="M688 278 L605 240 L688 204 C696 206 705 207 715 207 C772 207 816 163 816 106 C816 48 772 4 715 4 C658 4 614 48 614 106 C614 124 618 141 625 155 L184 351 C197 383 215 404 247 397 L247 414 C247 432 264 449 282 449 L488 449 C505 449 523 432 523 414 L523 283 L625 327 C618 341 614 358 614 376 C614 434 658 478 715 478 C772 478 816 434 816 376 C816 319 772 275 715 275 C705 275 696 276 688 278 L688 278 Z M657 321 L541 269 L580 251 L689 301 C697 298 706 297 715 297 C760 297 794 331 794 376 C794 422 760 456 715 456 C670 456 636 422 636 376 C636 354 644 335 657 321 L657 321 Z M267 414 L267 390 L318 368 L318 429 L282 429 C273 429 267 423 267 414 L267 414 Z M503 414 C503 423 497 429 488 429 L365 429 L365 347 L442 313 L442 344 L467 344 L467 301 L503 286 L503 414 Z M689 181 L259 372 C250 376 242 378 236 378 C225 378 217 372 211 361 L657 161 C644 147 636 128 636 106 C636 60 670 26 715 26 C760 26 794 60 794 106 C794 151 760 185 715 185 C706 185 697 184 689 181 L689 181 Z M503 58 C503 49 497 43 488 43 L365 43 L365 250 L318 271 L318 43 L281 43 C272 43 266 49 266 58 L266 294 L246 303 L246 58 C246 40 263 23 281 23 L488 23 C505 23 523 40 523 58 L523 179 L503 188 L503 58 Z M442 215 L442 112 L467 112 L467 205 L442 215 Z " />
<glyph glyph-name="numbersign" unicode="&#x23;" horiz-adv-x="1000" d="M827 195 L626 397 L644 414 L630 429 L612 411 L574 447 L593 465 L579 480 L561 462 L525 498 L543 515 L529 530 L511 512 L440 582 C426 596 400 596 386 582 L344 541 C322 559 301 582 290 615 L141 467 C153 434 175 411 196 393 L172 368 C159 355 158 328 172 314 L558 -74 C572 -88 599 -87 613 -73 L828 142 C842 156 842 180 827 195 L827 195 Z M192 424 C182 435 172 447 165 462 L283 580 C291 566 301 553 311 543 C330 524 351 510 367 500 L249 381 C232 392 211 404 192 424 L192 424 Z M814 156 L599 -59 C592 -66 579 -66 573 -60 L186 328 C179 335 179 347 186 354 L212 381 L235 367 L208 340 L222 326 L427 531 L413 545 L382 514 C375 518 368 523 360 528 L400 568 C406 574 419 574 425 568 L814 179 C820 174 820 162 814 156 L814 156 Z M443 486 L267 310 L422 155 L598 331 L443 486 Z M296 310 L443 457 L570 331 L422 183 L296 310 Z M623 247 C635 247 645 257 645 270 C645 283 635 293 622 293 C609 293 599 283 599 270 C599 258 610 247 623 247 L623 247 Z M675 240 C662 240 652 230 652 217 C652 205 663 194 676 194 C688 194 698 204 698 217 C698 230 688 240 675 240 L675 240 Z M529 200 C529 188 540 177 553 177 C565 177 575 187 575 200 C575 213 565 223 552 223 C539 223 529 213 529 200 L529 200 Z M728 187 C715 187 706 177 706 164 C706 151 716 141 729 141 C742 141 751 151 751 164 C751 176 742 187 728 187 L728 187 Z M605 170 C592 170 582 160 582 147 C582 135 593 124 606 124 C618 124 628 134 628 147 C628 160 618 170 605 170 L605 170 Z M482 153 C469 153 459 143 459 130 C459 118 470 107 483 107 C495 107 505 117 505 130 C505 143 495 153 482 153 L482 153 Z M658 117 C645 117 636 107 636 94 C636 81 646 71 659 71 C672 71 681 81 681 94 C681 106 672 117 658 117 L658 117 Z M535 100 C522 100 512 90 512 77 C512 65 523 54 536 54 C548 54 558 64 558 77 C558 90 548 100 535 100 L535 100 Z M844 46 L797 93 L784 76 L825 35 C828 32 828 30 825 28 L794 -4 L752 39 L736 20 L777 -21 L725 -73 C723 -75 720 -75 718 -73 L685 -39 L672 -54 L708 -90 C716 -98 729 -97 736 -90 L844 18 C853 27 852 38 844 46 L844 46 Z M588 47 C575 47 566 37 566 24 C566 11 576 1 589 1 C602 1 611 11 611 24 C611 36 602 47 588 47 L588 47 Z " />
<glyph glyph-name="dollar" unicode="&#x24;" horiz-adv-x="1000" d="M194 610 L194 421 C194 405 209 390 225 390 L375 390 L375 279 C350 276 334 265 331 241 L311 73 L380 -75 L402 -75 L331 77 L351 239 C352 251 359 257 375 259 L375 85 C375 60 394 48 412 48 C431 48 449 60 449 85 L449 163 C449 178 460 185 471 185 C482 185 493 178 493 163 L493 59 C506 39 509 20 509 -10 C509 -31 495 -55 495 -75 L515 -75 C515 -62 528 -39 529 -13 L554 -13 C571 -13 588 4 588 21 L588 96 L615 96 L615 390 L775 390 C790 390 806 405 806 421 L806 610 L194 610 Z M786 421 C786 414 782 410 775 410 L615 410 L615 468 L678 468 L678 488 L322 488 L322 468 L375 468 L375 410 L225 410 C218 410 214 414 214 421 L214 590 L786 590 L786 421 Z M595 116 L513 116 L513 163 C513 191 492 205 471 205 C450 205 429 191 429 163 L429 85 C429 74 421 68 412 68 C404 68 395 74 395 85 L395 428 L595 458 L595 116 Z M568 75 C568 66 563 61 554 61 L515 61 L513 65 L513 96 L568 96 L568 75 Z M568 21 C568 13 562 7 554 7 L529 7 C528 19 526 30 523 41 L554 41 C559 41 564 42 568 45 L568 21 Z " />
<glyph glyph-name="percent" unicode="&#x25;" horiz-adv-x="1000" d="M729 570 L224 570 L224 -35 L311 -35 L311 -80 L331 -80 L331 -35 L634 -35 L634 -80 L654 -80 L654 -35 L729 -35 C754 -35 776 -12 776 13 L776 523 C776 548 754 570 729 570 L729 570 Z M756 13 C756 -2 743 -15 729 -15 L244 -15 L244 90 L279 90 C285 90 289 94 289 100 C289 106 285 110 279 110 L244 110 L244 425 L279 425 C285 425 289 429 289 435 C289 441 285 445 279 445 L244 445 L244 550 L729 550 C744 550 756 538 756 523 L756 13 Z M284 488 L694 488 L694 48 L284 48 L284 28 L714 28 L714 508 L284 508 L284 488 Z M593 268 C593 341 531 403 458 403 C385 403 323 341 323 268 C323 195 385 133 458 133 C531 133 593 195 593 268 L593 268 Z M343 268 C343 331 395 383 458 383 C521 383 573 331 573 268 C573 205 521 153 458 153 C395 153 343 205 343 268 L343 268 Z M632 381 L632 154 L652 154 L652 381 L632 381 Z M468 184 L468 206 C478 207 487 211 495 217 L511 201 L525 215 L509 232 C514 239 518 248 519 258 L543 258 L543 278 L519 278 C518 287 514 296 509 304 L525 320 L511 334 L495 318 C487 324 478 328 468 329 L468 350 L448 350 L448 329 C438 328 429 324 421 318 L404 335 L390 321 L407 304 C401 296 397 288 396 278 L373 278 L373 258 L396 258 C397 248 401 238 407 230 L392 215 L406 201 L422 216 C429 211 438 207 448 206 L448 184 L468 184 Z M415 268 C415 292 433 310 458 310 C482 310 500 292 500 268 C500 243 482 225 458 225 C433 225 415 243 415 268 L415 268 Z " />
<glyph glyph-name="ampersand" unicode="&#x26;" horiz-adv-x="1000" d="M496 593 C480 593 463 588 449 578 C443 581 428 593 406 593 C396 593 385 591 373 586 C373 537 404 508 417 481 L389 481 L389 461 L554 461 C594 461 610 450 625 424 L643 434 C627 459 608 475 575 480 C588 508 619 537 619 586 C607 591 596 593 586 593 C564 593 549 581 543 578 C529 588 512 593 496 593 L496 593 Z M553 481 L439 481 C428 513 398 537 394 572 C398 574 402 574 406 574 C421 573 429 565 437 559 L437 526 L457 516 L457 559 C469 569 484 574 496 574 C508 574 523 569 535 559 L535 516 L555 526 L555 559 C563 565 571 573 586 574 C590 574 594 574 598 572 C594 537 564 513 553 481 L553 481 Z M749 8 C755 23 757 40 757 59 C757 236 575 370 575 421 C575 425 576 428 578 431 L512 431 L492 411 L556 411 C573 345 737 219 737 59 C737 41 734 26 729 12 L672 0 L676 -20 L734 -7 C747 -8 771 -38 771 -52 L771 -78 L653 -67 L347 -67 L229 -78 L229 -52 C229 -38 253 -8 266 -7 L324 -20 L328 0 L272 12 C267 25 264 41 264 59 C264 228 445 358 445 421 L425 421 C425 370 244 236 244 59 C244 41 248 23 252 9 C231 -2 209 -33 209 -52 L209 -100 L348 -87 L652 -87 L791 -100 L791 -52 C791 -33 770 -3 749 8 L749 8 Z M486 299 L486 245 C467 241 450 230 450 207 C450 183 467 168 491 157 C513 147 526 138 526 124 C526 114 515 105 499 105 C474 105 463 113 454 122 L440 108 C449 99 463 89 486 86 L486 20 L511 32 L511 86 C531 91 546 106 546 124 C546 148 523 165 500 175 C477 185 470 193 470 207 C470 220 483 226 500 226 C516 226 524 222 537 211 L549 227 C538 236 526 243 511 245 L511 311 L486 299 Z " />
<glyph glyph-name="quotesingle" unicode="&#x27;" horiz-adv-x="1000" d="M753 355 L850 451 L746 554 L659 467 L185 467 C168 467 150 449 150 432 L150 86 C150 68 168 51 185 51 L718 51 C735 51 753 68 753 86 L753 355 Z M746 526 L822 451 L774 404 L699 479 L746 526 Z M760 390 L530 160 L455 160 L455 235 L685 465 L760 390 Z M170 432 C170 440 177 447 185 447 L639 447 L553 361 L170 361 L170 432 Z M644 337 L627 355 L522 251 L540 233 L644 337 Z M718 71 L185 71 C176 71 170 77 170 86 L170 289 L481 289 L435 243 L435 140 L538 140 L687 289 L733 289 L733 86 C733 77 727 71 718 71 L718 71 Z M223 137 L404 137 L404 162 L223 162 L223 137 Z " />
<glyph glyph-name="parenleft" unicode="&#x28;" horiz-adv-x="1000" d="M770 208 C749 278 686 336 603 362 L603 538 L590 538 C587 563 576 579 552 582 L384 602 L236 533 L236 511 L388 582 L550 562 C563 560 568 554 570 538 L396 538 C371 538 359 520 359 501 C359 483 371 464 396 464 L474 464 C489 464 496 453 496 442 C496 431 489 420 474 420 L370 420 C350 407 331 404 301 404 C280 404 256 418 236 418 L236 398 C250 398 274 384 301 384 C331 384 354 387 376 400 L407 400 L407 360 C372 349 340 332 314 310 L202 310 L202 278 L248 233 C235 210 206 191 192 191 L162 191 L182 65 L232 65 C265 65 328 -11 377 -34 L383 -100 L455 -100 L467 -57 C482 -60 492 -62 508 -62 C527 -62 554 -58 572 -54 L588 -100 L657 -100 L674 -14 C735 21 777 91 777 144 C812 159 825 166 837 178 L837 216 C813 210 798 207 784 207 C779 207 775 207 770 208 L770 208 Z M427 400 L474 400 C502 400 516 421 516 442 C516 463 502 484 474 484 L396 484 C385 484 380 493 380 501 C380 510 385 518 396 518 L583 518 L583 367 C559 373 534 376 508 376 C480 376 453 372 427 366 L427 400 Z M757 158 C757 93 720 35 656 -2 L641 -80 L602 -80 L586 -30 C561 -37 534 -42 508 -42 C489 -42 470 -38 453 -34 L439 -80 L401 -80 L395 -20 C351 -8 278 85 232 85 L200 85 L186 171 L192 171 C214 171 262 203 272 238 L222 286 L222 290 L322 290 C369 331 433 356 508 356 C631 356 734 283 754 191 C765 188 776 187 786 187 C798 187 808 189 817 191 L817 185 C809 177 794 169 757 158 L757 158 Z M517 215 C531 215 539 211 550 202 L563 217 C552 227 539 233 523 235 L523 296 L503 285 L503 234 C485 230 469 219 469 197 C469 174 485 162 508 150 C527 140 541 132 541 119 C541 110 530 101 516 101 C492 101 481 108 473 117 L458 104 C466 95 481 85 503 82 L503 33 L523 44 L523 81 C543 84 561 99 561 119 C561 143 537 158 518 168 C496 179 489 184 489 197 C489 210 501 215 517 215 L517 215 Z M293 187 C283 187 276 179 276 170 C276 160 283 153 293 153 C302 153 310 160 310 170 C310 179 302 187 293 187 L293 187 Z " />
<glyph glyph-name="parenright" unicode="&#x29;" horiz-adv-x="1000" d="M778 144 C813 159 826 166 838 178 L838 216 C814 210 799 207 785 207 C780 207 776 207 771 208 C752 273 695 328 621 356 C627 370 631 386 631 401 C631 450 594 494 549 509 C541 520 532 530 521 538 L519 558 C516 583 505 599 481 602 L313 622 L165 553 L165 531 L317 602 L479 582 C491 581 497 574 499 558 L326 558 C301 558 288 540 288 521 C288 503 301 484 326 484 L403 484 C418 484 425 473 425 462 C425 451 418 440 403 440 L299 440 C279 427 260 424 230 424 C209 424 185 438 165 438 L165 418 C179 418 203 404 230 404 C260 404 283 407 305 420 L329 420 C337 392 359 367 386 353 C359 342 335 327 314 310 L202 310 L202 278 L248 233 C235 210 206 191 192 191 L162 191 L182 65 L232 65 C265 65 328 -11 377 -34 L383 -100 L455 -100 L467 -57 C482 -60 492 -62 508 -62 C527 -62 554 -58 572 -54 L588 -100 L657 -100 L674 -14 C733 23 772 81 778 144 L778 144 Z M326 504 C315 504 309 512 309 521 C309 529 315 538 326 538 L367 538 C355 528 345 517 338 504 L326 504 Z M350 420 L403 420 C431 420 445 441 445 462 C445 483 431 504 403 504 L362 504 C373 519 389 531 407 538 L484 538 C521 524 547 490 547 451 C547 420 531 393 507 376 C474 376 442 371 413 362 C383 372 360 393 350 420 L350 420 Z M611 401 C611 387 608 374 602 362 C580 369 557 373 534 375 C554 395 567 422 567 451 C567 462 565 472 562 482 C591 465 611 436 611 401 L611 401 Z M755 191 C766 188 777 187 787 187 C799 187 809 189 818 191 L818 185 C810 177 795 169 758 158 C758 93 720 35 656 -2 L641 -80 L602 -80 L586 -30 C561 -37 534 -42 508 -42 C489 -42 470 -38 453 -34 L439 -80 L401 -80 L395 -20 C351 -8 278 85 232 85 L200 85 L186 171 L192 171 C214 171 262 203 272 238 L222 286 L222 290 L322 290 C369 331 433 356 508 356 C631 356 735 283 755 191 L755 191 Z M517 215 C531 215 539 211 550 202 L563 217 C552 227 539 233 523 235 L523 296 L503 285 L503 234 C485 230 469 219 469 197 C469 174 487 160 508 150 C528 141 541 132 541 119 C541 110 530 101 516 101 C492 101 481 108 473 117 L458 104 C466 95 481 85 503 82 L503 33 L523 44 L523 81 C543 84 561 99 561 119 C561 143 537 158 518 168 C496 179 489 184 489 197 C489 210 501 215 517 215 L517 215 Z M293 186 C283 186 276 179 276 169 C276 160 283 152 293 152 C302 152 310 160 310 169 C310 179 302 186 293 186 L293 186 Z " />
<glyph glyph-name="asterisk" unicode="&#x2a;" horiz-adv-x="1000" d="M789 170 C824 185 838 196 850 208 L850 246 C826 240 811 237 797 237 C792 237 788 237 783 238 C761 316 687 381 594 409 C603 425 608 445 608 464 C608 530 551 586 485 586 C419 586 363 530 363 464 C363 443 369 423 378 405 C341 393 307 374 279 351 L194 351 L194 319 L246 268 C235 247 201 218 174 218 L150 218 L173 83 L225 83 C263 83 323 -3 377 -28 L385 -100 L458 -100 L474 -52 C490 -55 501 -56 513 -56 C528 -56 543 -54 566 -49 L583 -100 L658 -100 L675 -6 C741 36 784 101 789 170 L789 170 Z M383 464 C383 520 429 566 485 566 C541 566 588 520 588 464 C588 446 583 430 575 415 C551 420 520 424 492 424 C459 424 427 419 397 411 C388 427 383 444 383 464 L383 464 Z M770 185 C770 114 728 48 657 6 L641 -80 L597 -80 L579 -25 C551 -32 531 -36 511 -36 C495 -36 480 -34 461 -29 L444 -80 L403 -80 L396 -14 C347 -1 276 103 225 103 L190 103 L174 198 C211 198 259 238 270 273 L214 327 L214 331 L286 331 C338 376 409 404 492 404 C629 404 745 324 767 221 C778 218 789 217 799 217 C811 217 821 219 830 221 L830 215 C822 207 807 196 770 185 L770 185 Z M499 242 C513 242 521 238 532 229 L545 244 C534 254 521 260 505 262 L505 323 L485 312 L485 261 C467 257 451 246 451 224 C451 201 468 189 490 177 C509 167 523 159 523 146 C523 137 512 128 498 128 C474 128 463 135 455 144 L440 131 C448 122 463 112 485 109 L485 60 L505 71 L505 108 C525 111 543 126 543 146 C543 170 519 185 500 195 C478 206 471 211 471 224 C471 237 483 242 499 242 L499 242 Z M295 224 C285 224 277 216 277 206 C277 195 285 187 295 187 C306 187 314 195 314 206 C314 216 306 224 295 224 L295 224 Z " />
<glyph glyph-name="plus" unicode="&#x2b;" horiz-adv-x="1000" d="M192 107 L168 107 L168 501 L192 501 L192 107 Z M249 107 L224 107 L224 501 L249 501 L249 107 Z M325 151 L287 151 L287 501 L325 501 L325 151 Z M413 151 L363 151 L363 501 L413 501 L413 151 Z M471 151 L446 151 L446 501 L471 501 L471 151 Z M540 151 L515 151 L515 501 L540 501 L540 151 Z M616 151 L579 151 L579 501 L616 501 L616 151 Z M705 151 L655 151 L655 501 L705 501 L705 151 Z M762 107 L737 107 L737 501 L762 501 L762 107 Z M832 107 L807 107 L807 501 L832 501 L832 107 Z M192 30 L168 30 L168 70 L192 70 L192 30 Z M249 30 L224 30 L224 70 L249 70 L249 30 Z M325 30 L287 30 L287 70 L325 70 L325 30 Z M413 30 L363 30 L363 70 L413 70 L413 30 Z M471 30 L446 30 L446 70 L471 70 L471 30 Z M540 30 L515 30 L515 70 L540 70 L540 30 Z M616 30 L579 30 L579 70 L616 70 L616 30 Z M705 30 L655 30 L655 70 L705 70 L705 30 Z M762 30 L737 30 L737 70 L762 70 L762 30 Z M832 30 L807 30 L807 70 L832 70 L832 30 Z " />
<glyph glyph-name="comma" unicode="&#x2c;" horiz-adv-x="1000" d="M834 413 L681 565 C668 578 642 576 629 563 L493 427 C470 450 436 453 409 432 L250 307 C235 295 224 284 220 273 L157 84 L176 78 L238 264 C240 272 247 279 262 291 L421 416 C441 432 460 431 479 413 L316 251 C307 242 303 230 303 218 C304 193 325 174 349 174 C360 174 371 178 380 187 L443 251 C449 257 458 260 466 260 C480 260 498 247 498 226 C498 218 495 211 489 205 L388 105 C387 77 376 27 348 -1 C332 -17 311 -29 296 -43 L310 -57 C323 -45 344 -33 362 -15 C377 0 388 20 395 41 L403 33 C418 18 447 18 462 33 L530 101 C546 91 570 93 580 103 L835 357 C848 370 847 400 834 413 L834 413 Z M820 371 L567 118 C560 111 547 112 540 119 L484 174 L501 190 C510 199 515 212 515 226 C515 256 494 277 466 277 C451 277 439 273 429 263 L412 246 L390 269 C383 276 383 288 390 295 L643 549 C648 554 665 554 670 549 L697 522 L474 299 C488 298 503 292 518 278 L729 490 L820 399 C827 392 828 379 820 371 L820 371 Z M563 207 L580 189 L679 288 L661 305 L563 207 Z M366 201 C361 196 355 194 348 194 C336 194 323 206 323 218 C323 225 324 231 330 236 L367 273 C368 265 371 259 375 254 L397 232 L366 201 Z M467 93 L435 125 L470 160 L516 115 L496 95 C487 86 475 85 467 93 L467 93 Z M448 47 C441 40 426 39 417 47 L402 62 C405 74 405 87 407 96 L421 111 L453 79 C457 74 464 71 470 69 L448 47 Z " />
<glyph glyph-name="hyphen" unicode="&#x2d;" horiz-adv-x="1000" d="M590 590 L415 488 L435 477 L503 516 L547 489 C542 484 537 478 537 472 C537 458 557 449 580 449 C607 449 628 457 646 457 C653 457 664 455 664 449 C664 444 661 441 655 437 C637 427 624 426 613 426 L612 411 L617 411 C629 411 644 413 662 421 L719 390 L652 352 L672 340 L847 441 L590 590 Z M680 432 C683 434 689 439 689 448 C689 461 670 471 647 471 C628 471 592 463 580 463 C568 463 562 467 562 471 C562 482 585 493 608 493 L606 507 C588 506 575 504 564 499 L520 526 L590 566 L807 441 L737 401 L680 432 Z M322 453 L338 444 L152 336 L409 188 L594 296 L611 286 L611 238 L409 122 L199 243 L178 231 L409 98 L611 215 L611 148 L409 32 L195 154 L175 143 L409 8 L611 125 L611 56 L409 -59 L195 64 L175 52 L409 -83 L611 33 L611 -4 L631 7 L631 298 L343 465 L322 453 Z M409 212 L192 336 L358 432 L574 307 L409 212 Z M793 344 L687 282 L687 259 L813 332 L793 344 Z M687 168 L820 245 L800 257 L687 192 L687 168 Z M687 101 L687 78 L823 157 L804 168 L687 101 Z " />
<glyph glyph-name="period" unicode="&#x2e;" horiz-adv-x="1000" d="M790 271 L790 485 C790 503 773 520 755 520 L185 520 C167 520 150 503 150 485 L150 140 C150 122 167 105 185 105 L632 105 C653 72 690 50 732 50 C797 50 850 103 850 168 C850 212 826 250 790 271 L790 271 Z M185 500 L755 500 C764 500 770 494 770 485 L770 414 L170 414 L170 485 C170 494 176 500 185 500 L185 500 Z M185 125 C176 125 170 131 170 140 L170 342 L770 342 L770 280 C758 284 745 286 732 286 C667 286 614 233 614 168 C614 153 617 138 622 125 L185 125 Z M732 72 C679 72 636 115 636 168 C636 221 679 264 732 264 C785 264 828 221 828 168 C828 115 785 72 732 72 L732 72 Z M278 191 L510 191 L510 216 L278 216 L278 191 Z M785 209 L710 134 L675 169 L658 151 L693 116 C705 104 718 106 728 116 L803 191 L785 209 Z " />
<glyph glyph-name="slash" unicode="&#x2f;" horiz-adv-x="1000" d="M700 506 L714 569 C707 594 664 616 635 616 C609 616 584 596 580 571 L566 477 L643 463 C662 460 693 476 700 506 L700 506 Z M600 568 C602 584 618 596 634 596 C649 596 685 584 693 567 L680 510 C676 492 656 481 646 483 L589 493 L600 568 Z M720 305 L638 435 C634 442 627 446 620 448 L586 459 C575 463 562 465 548 465 C530 465 510 462 487 449 L416 408 L350 286 C348 283 347 279 347 276 C347 267 353 260 361 256 L385 246 L364 210 L329 224 C307 233 280 222 271 198 L212 45 C203 23 212 -4 237 -14 L291 -36 C313 -45 341 -35 350 -11 L409 143 C419 169 405 194 384 202 L382 203 L404 239 L414 236 L464 330 L503 346 L469 245 L444 73 L368 -63 L419 -83 C428 -87 437 -83 442 -76 L531 54 L541 125 L576 75 L591 -100 L632 -100 C652 -100 662 -90 662 -70 L662 103 L622 231 L630 282 L661 235 L733 186 C737 183 741 182 746 182 C754 182 761 186 765 190 L793 216 L720 305 Z M642 99 L642 -70 C642 -76 639 -78 632 -78 L609 -78 L596 83 L521 188 L505 176 L525 148 L511 62 L428 -62 C427 -64 424 -65 422 -64 L396 -53 L464 67 L489 241 L537 382 L450 346 L404 260 L373 272 C370 273 369 275 371 279 L430 394 L497 431 C516 442 532 446 547 446 C559 446 569 443 579 440 L613 429 C623 426 630 414 627 396 L602 229 L642 99 Z M751 204 C749 202 747 200 744 202 L675 249 L634 310 L646 386 L704 293 L765 218 L751 204 Z M391 151 L332 -3 C327 -17 311 -23 299 -18 L245 4 C230 10 225 25 230 37 L289 191 C294 204 309 211 321 206 L376 184 C389 179 396 165 391 151 L391 151 Z M263 -100 C277 -100 288 -89 288 -75 C288 -61 277 -50 263 -50 C249 -50 238 -61 238 -75 C238 -89 249 -100 263 -100 L263 -100 Z " />
<glyph glyph-name="zero" unicode="0" horiz-adv-x="1000" d="M445 517 L434 567 L364 567 L354 517 C338 513 323 507 309 499 L267 527 L217 477 L245 434 C237 421 231 406 226 390 L177 380 L177 309 L226 299 C231 283 237 268 245 254 L217 212 L267 162 L309 190 C323 182 338 176 354 172 L364 122 L434 122 L445 172 C460 176 475 182 489 190 L532 162 L581 212 L554 254 C561 268 568 283 572 299 L622 309 L622 380 L572 390 C568 406 561 421 554 434 L581 477 L532 527 L489 499 C475 507 460 513 445 517 L445 517 Z M428 500 C451 496 469 489 489 475 L529 501 L556 474 L531 435 C542 415 552 396 555 373 L602 364 L602 325 L555 316 C552 293 542 274 531 253 L556 215 L529 188 L489 214 C469 200 451 193 428 189 L418 142 L380 142 L371 189 C346 193 329 201 309 214 L270 188 L243 215 L269 254 C256 273 249 291 242 316 L197 325 L197 364 L242 373 C249 398 256 417 269 434 L243 474 L270 501 L309 475 C329 488 346 496 371 500 L380 547 L418 547 L428 500 Z M399 438 C348 438 305 396 305 344 C305 293 348 251 399 251 C451 251 493 293 493 344 C493 396 451 438 399 438 L399 438 Z M399 418 C441 418 473 386 473 344 C473 303 441 271 399 271 C358 271 325 304 325 344 C325 385 358 418 399 418 L399 418 Z M670 213 L608 196 L612 163 C600 155 589 144 581 132 L549 136 L531 74 L561 62 C562 46 566 30 573 15 L550 -15 L596 -60 L626 -37 C640 -44 654 -48 669 -49 L682 -79 L744 -62 L741 -30 C754 -22 766 -9 775 4 L806 1 L823 63 L793 76 C792 91 788 105 782 119 L804 149 L759 194 L729 171 C714 179 700 182 683 183 L670 213 Z M658 189 L669 163 C692 164 713 160 730 147 L757 168 L778 147 L758 121 C769 102 774 84 774 62 L799 51 L792 23 L764 26 C754 5 739 -10 719 -19 L722 -48 L694 -55 L681 -29 C661 -30 644 -27 625 -13 L598 -34 L576 -13 L597 13 C585 33 580 52 581 76 L555 86 L563 114 L592 110 C601 130 615 142 634 153 L630 182 L658 189 Z M677 27 C699 27 717 45 717 67 C717 89 699 107 677 107 C655 107 637 89 637 67 C637 45 655 27 677 27 L677 27 Z " />
<glyph glyph-name="one" unicode="1" horiz-adv-x="1000" d="M850 119 L850 463 C850 484 828 502 807 502 L192 502 C170 502 150 483 150 463 L150 119 C150 99 170 80 192 80 L807 80 C828 80 850 98 850 119 L850 119 Z M830 119 C830 110 819 100 807 100 L192 100 C180 100 170 110 170 119 L170 463 C170 472 180 482 192 482 L807 482 C819 482 830 472 830 463 L830 119 Z M439 153 L211 153 L211 442 L439 442 L439 153 Z M291 312 C300 304 316 298 328 298 C340 298 357 304 365 312 L351 363 C347 377 341 386 324 386 C310 386 301 376 297 364 L287 331 C284 321 286 316 291 312 L291 312 Z M517 353 L773 353 L773 378 L517 378 L517 353 Z M517 267 L773 267 L773 292 L517 292 L517 267 Z M391 268 C383 275 362 276 350 278 L325 256 L300 278 C288 276 267 275 259 268 L243 195 L407 195 L391 268 Z M517 181 L773 181 L773 206 L517 206 L517 181 Z " />
<glyph glyph-name="two" unicode="2" horiz-adv-x="1000" d="M850 119 L850 463 C850 484 828 502 807 502 L192 502 C170 502 150 483 150 463 L150 119 C150 99 170 80 192 80 L807 80 C828 80 850 98 850 119 L850 119 Z M830 119 C830 110 819 100 807 100 L192 100 C180 100 170 110 170 119 L170 463 C170 472 180 482 192 482 L807 482 C819 482 830 472 830 463 L830 119 Z M439 442 L211 442 L211 153 L439 153 L439 442 Z M325 383 C344 383 356 377 361 356 C361 350 356 314 354 307 C348 300 335 297 325 295 C315 297 302 300 296 307 C294 314 288 351 289 356 C294 377 305 383 325 383 L325 383 Z M771 378 L517 378 L517 353 L771 353 L771 378 Z M771 292 L517 292 L517 267 L771 267 L771 292 Z M391 269 L407 195 L243 195 L259 269 C267 275 287 276 299 279 L325 256 L350 279 C362 278 381 274 391 269 L391 269 Z M771 206 L517 206 L517 181 L771 181 L771 206 Z " />
<glyph glyph-name="three" unicode="3" horiz-adv-x="1000" d="M850 119 L850 463 C850 484 828 502 807 502 L192 502 C170 502 150 483 150 463 L150 119 C150 99 170 80 192 80 L807 80 C828 80 850 98 850 119 L850 119 Z M830 119 C830 110 819 100 807 100 L192 100 C180 100 170 110 170 119 L170 463 C170 472 180 482 192 482 L807 482 C819 482 830 472 830 463 L830 119 Z M326 296 C336 298 349 302 356 309 C357 316 363 352 363 358 C358 379 346 385 326 385 C307 385 295 379 290 358 C290 352 296 316 297 309 C304 302 317 298 326 296 L326 296 Z M521 266 L771 266 L771 291 L521 291 L521 266 Z M392 270 C385 277 364 278 352 280 L327 258 L301 280 C289 278 268 277 260 270 L244 197 L409 197 L392 270 Z M521 181 L771 181 L771 206 L521 206 L521 181 Z M244 134 L409 134 L409 159 L244 159 L244 134 Z " />
<glyph glyph-name="four" unicode="4" horiz-adv-x="1000" d="M850 119 L850 463 C850 484 828 502 807 502 L192 502 C170 502 150 483 150 463 L150 119 C150 99 170 80 192 80 L807 80 C828 80 850 98 850 119 L850 119 Z M830 119 C830 110 819 100 807 100 L192 100 C180 100 170 110 170 119 L170 463 C170 472 180 482 192 482 L807 482 C819 482 830 472 830 463 L830 119 Z M291 312 C300 304 316 298 328 298 C340 298 357 304 365 312 L351 363 C347 377 341 386 324 386 C310 386 301 376 297 364 L287 331 C284 321 286 316 291 312 L291 312 Z M521 266 L771 266 L771 291 L521 291 L521 266 Z M391 268 C383 275 362 276 350 278 L325 256 L300 278 C288 276 267 275 259 268 L243 195 L407 195 L391 268 Z M521 181 L771 181 L771 206 L521 206 L521 181 Z M244 134 L409 134 L409 159 L244 159 L244 134 Z " />
<glyph glyph-name="five" unicode="5" horiz-adv-x="1000" d="M807 502 L192 502 C170 502 150 483 150 463 L150 119 C150 99 170 80 192 80 L807 80 C828 80 850 98 850 119 L850 463 C850 484 828 502 807 502 L807 502 Z M830 119 C830 110 819 100 807 100 L192 100 C180 100 170 110 170 119 L170 463 C170 472 180 482 192 482 L807 482 C819 482 830 472 830 463 L830 119 Z M672 440 C622 440 576 394 576 345 C576 312 595 281 622 264 L610 126 L671 149 L733 126 L719 263 C747 280 767 311 767 345 C767 394 721 440 672 440 L672 440 Z M672 269 C630 269 596 303 596 345 C596 386 630 420 672 420 C713 420 747 386 747 345 C747 303 713 269 672 269 L672 269 Z M239 365 L488 365 L488 390 L239 390 L239 365 Z M672 378 C653 378 638 363 638 345 C638 326 653 311 672 311 C690 311 705 326 705 345 C705 363 690 378 672 378 L672 378 Z M239 278 L488 278 L488 303 L239 303 L239 278 Z M710 156 L671 171 L633 156 L642 254 C651 251 661 249 672 249 C681 249 691 251 700 254 L710 156 Z M239 192 L488 192 L488 217 L239 217 L239 192 Z " />
<glyph glyph-name="six" unicode="6" horiz-adv-x="1000" d="M807 422 L583 422 L583 514 C583 546 554 574 523 574 L478 574 C446 574 418 546 418 514 L418 422 L192 422 C170 422 150 403 150 383 L150 39 C150 19 170 0 192 0 L807 0 C828 0 850 18 850 39 L850 383 C850 404 828 422 807 422 L807 422 Z M438 346 L438 514 C438 536 456 554 478 554 L523 554 C544 554 563 536 563 514 L563 346 L438 346 Z M500 502 C486 502 475 491 475 477 C475 463 486 452 500 452 C514 452 525 463 525 477 C525 491 514 502 500 502 L500 502 Z M830 39 C830 30 819 20 807 20 L192 20 C180 20 170 30 170 39 L170 383 C170 392 180 402 192 402 L418 402 L418 346 L381 346 L381 326 L619 326 L619 346 L583 346 L583 402 L807 402 C819 402 830 392 830 383 L830 39 Z M326 216 C336 218 349 222 356 229 C357 236 363 272 363 278 C358 299 346 305 326 305 C307 305 295 299 290 278 C290 272 296 236 297 229 C304 222 317 218 326 216 L326 216 Z M521 186 L771 186 L771 211 L521 211 L521 186 Z M352 200 L327 178 L301 200 C289 198 268 197 260 190 L244 117 L409 117 L392 190 C385 197 364 200 352 200 L352 200 Z M521 101 L771 101 L771 126 L521 126 L521 101 Z M244 54 L409 54 L409 79 L244 79 L244 54 Z " />
<glyph glyph-name="seven" unicode="7" horiz-adv-x="1000" d="M807 422 L583 422 L583 514 C583 546 554 574 523 574 L478 574 C446 574 418 546 418 514 L418 422 L192 422 C170 422 150 403 150 383 L150 39 C150 19 170 0 192 0 L807 0 C828 0 850 18 850 39 L850 383 C850 404 828 422 807 422 L807 422 Z M438 346 L438 514 C438 536 456 554 478 554 L523 554 C544 554 563 536 563 514 L563 346 L438 346 Z M500 502 C486 502 475 491 475 477 C475 463 486 452 500 452 C514 452 525 463 525 477 C525 491 514 502 500 502 L500 502 Z M830 39 C830 30 819 20 807 20 L192 20 C180 20 170 30 170 39 L170 383 C170 392 180 402 192 402 L418 402 L418 346 L381 346 L381 326 L619 326 L619 346 L583 346 L583 402 L807 402 C819 402 830 392 830 383 L830 39 Z M292 234 C301 226 317 220 329 220 C341 220 358 226 366 234 L352 285 C348 299 342 308 325 308 C311 308 302 298 298 286 L288 253 C285 243 287 238 292 234 L292 234 Z M521 186 L771 186 L771 211 L521 211 L521 186 Z M352 200 L327 178 L301 200 C289 198 268 197 260 190 L244 117 L409 117 L392 190 C385 197 364 200 352 200 L352 200 Z M521 101 L771 101 L771 126 L521 126 L521 101 Z M244 54 L409 54 L409 79 L244 79 L244 54 Z " />
<glyph glyph-name="eight" unicode="8" horiz-adv-x="1000" d="M699 396 L645 396 L645 559 L593 559 C590 584 579 600 555 603 L387 623 L235 552 L243 534 L391 603 L553 583 C565 582 571 575 573 559 L399 559 C374 559 362 540 362 522 C362 503 374 485 399 485 L477 485 C492 485 499 474 499 463 C499 452 492 441 477 441 L373 441 C353 428 334 425 304 425 C283 425 259 439 239 439 L239 419 C253 419 277 405 304 405 C334 405 357 408 379 421 L411 421 L411 396 L359 396 L292 282 L292 -52 C292 -77 315 -100 340 -100 L718 -100 C742 -100 765 -77 765 -52 L765 282 L699 396 Z M431 421 L477 421 C505 421 519 442 519 463 C519 484 505 505 477 505 L400 505 C389 505 383 513 383 522 C383 530 389 539 400 539 L625 539 L625 324 L431 324 L431 421 Z M569 503 C559 503 551 495 551 485 C551 475 559 467 569 467 C579 467 587 475 587 485 C587 495 579 503 569 503 L569 503 Z M569 389 C559 389 551 380 551 370 C551 360 559 352 569 352 C579 352 587 360 587 370 C587 380 579 389 569 389 L569 389 Z M745 -52 C745 -67 732 -80 718 -80 L340 -80 C325 -80 312 -67 312 -52 L312 276 L371 376 L411 376 L411 324 L379 324 L379 304 L677 304 L677 324 L645 324 L645 376 L687 376 L745 276 L745 -52 Z M528 248 C451 248 385 182 385 104 C385 27 451 -39 528 -39 C606 -39 672 27 672 104 C672 182 606 248 528 248 L528 248 Z M528 -19 C461 -19 405 37 405 104 C405 172 461 228 528 228 C596 228 652 172 652 104 C652 37 596 -19 528 -19 L528 -19 Z M541 197 L521 197 L521 97 L579 40 L593 54 L541 105 L541 197 Z " />
<glyph glyph-name="nine" unicode="9" horiz-adv-x="1000" d="M815 358 L517 358 L517 476 L504 476 C501 501 490 517 466 520 L298 540 L150 471 L150 449 L302 520 L464 500 C476 499 482 492 484 476 L310 476 C285 476 273 458 273 439 C273 421 285 402 310 402 L388 402 C403 402 410 391 410 380 C410 369 403 358 388 358 L284 358 C264 345 245 342 215 342 C194 342 170 356 150 356 L150 336 C164 336 188 322 215 322 C245 322 268 325 290 338 L321 338 L321 296 L288 296 L288 276 L536 276 L536 296 L517 296 L517 338 L815 338 C824 338 830 332 830 323 L830 -74 L222 -74 L222 298 L202 302 L202 -94 L850 -94 L850 323 C850 341 833 358 815 358 L815 358 Z M341 296 L341 338 L388 338 C416 338 430 359 430 380 C430 401 416 422 388 422 L311 422 C300 422 294 430 294 439 C294 447 300 456 311 456 L497 456 L497 296 L341 296 Z M584 122 L584 102 L801 102 L801 122 L768 122 L768 208 L801 208 L801 228 L768 228 L768 293 L629 293 L629 228 L584 228 L584 208 L629 208 L629 122 L584 122 Z M649 273 L748 273 L748 122 L717 122 C717 132 709 141 699 141 C688 141 680 132 680 122 L649 122 L649 273 Z M699 207 C709 207 718 216 718 226 C718 236 709 245 699 245 C689 245 680 236 680 226 C680 216 689 207 699 207 L699 207 Z M522 112 C522 175 471 226 407 226 C344 226 293 175 293 112 C293 49 344 -3 407 -3 C471 -3 522 49 522 112 L522 112 Z M402 198 L422 198 L422 114 L463 73 L449 59 L402 106 L402 198 Z M584 -4 L801 -4 L801 16 L584 16 L584 -4 Z " />
<glyph glyph-name="colon" unicode="&#x3a;" horiz-adv-x="1000" d="M819 517 L322 517 C305 517 291 503 291 486 L291 423 L191 423 C170 423 150 403 150 382 L150 68 C150 47 170 28 191 28 L718 28 C739 28 759 47 759 68 L759 160 L819 160 C836 160 850 174 850 191 L850 486 C850 503 836 517 819 517 L819 517 Z M170 382 C170 393 180 403 191 403 L718 403 C729 403 739 393 739 382 L739 334 L170 334 L170 382 Z M718 48 L191 48 C180 48 170 58 170 68 L170 266 L739 266 L739 68 C739 58 729 48 718 48 L718 48 Z M282 124 L491 124 L491 149 L282 149 L282 124 Z " />
<glyph glyph-name="semicolon" unicode="&#x3b;" horiz-adv-x="1000" d="M445 466 C461 467 491 475 496 485 C501 495 512 540 513 562 C505 585 484 600 458 600 C432 600 409 594 397 573 C393 547 395 507 399 495 C403 483 433 469 445 466 L445 466 Z M446 486 C438 489 423 498 417 503 C415 515 414 546 416 566 C424 577 437 580 456 580 C475 580 487 571 493 559 C491 542 484 508 479 497 C473 493 457 488 446 486 L446 486 Z M759 176 L739 176 L739 249 L677 249 L627 345 L563 402 C528 434 499 441 471 445 L396 455 C358 460 309 432 304 374 L287 186 L241 186 C216 186 194 164 194 139 L194 11 C194 -14 217 -36 241 -36 L314 -36 C319 -36 324 -35 328 -34 L323 -100 L402 -100 L428 134 L435 134 L457 -100 L537 -100 L513 330 L565 298 L638 206 L638 176 L629 176 C604 176 582 153 582 129 L582 -53 C582 -78 604 -100 629 -100 L759 -100 C783 -100 806 -78 806 -53 L806 129 C806 153 783 176 759 176 L759 176 Z M579 314 L511 354 L491 352 L495 283 L392 435 L469 425 C494 422 518 416 549 388 L611 333 L657 245 L644 231 L579 314 Z M475 -80 L453 154 L410 154 L384 -80 L345 -80 L349 -21 C357 -12 362 -1 362 11 L362 139 L372 319 L352 319 L344 175 C336 182 325 186 314 186 L307 186 L324 372 C327 406 347 425 369 433 L498 244 L515 -80 L475 -80 Z M658 217 L669 229 L719 229 L719 176 L658 176 L658 217 Z M241 -16 C227 -16 214 -3 214 11 L214 139 C214 153 227 166 241 166 L314 166 C329 166 342 153 342 139 L342 11 C342 -3 329 -16 314 -16 L241 -16 Z M786 -53 C786 -67 773 -80 759 -80 L629 -80 C614 -80 602 -68 602 -53 L602 129 C602 143 615 156 629 156 L759 156 C773 156 786 143 786 129 L786 -53 Z M645 -42 L665 -42 L665 79 L679 79 L679 99 L645 99 L645 -42 Z M717 -42 L737 -42 L737 79 L751 79 L751 99 L717 99 L717 -42 Z " />
<glyph glyph-name="equal" unicode="&#x3d;" horiz-adv-x="1000" d="M496 593 C480 593 463 588 449 578 C443 581 428 593 406 593 C396 593 385 591 373 586 C373 537 404 508 417 481 L389 481 L389 461 L554 461 C594 461 610 450 625 424 L643 434 C627 459 608 475 575 480 C588 508 619 537 619 586 C607 591 596 593 586 593 C564 593 549 581 543 578 C529 588 512 593 496 593 L496 593 Z M553 481 L439 481 C428 513 398 537 394 572 C398 574 402 574 406 574 C421 573 429 565 437 559 L437 526 L457 516 L457 559 C469 569 484 574 496 574 C508 574 523 569 535 559 L535 516 L555 526 L555 559 C563 565 571 573 586 574 C590 574 594 574 598 572 C594 537 564 513 553 481 L553 481 Z M749 8 C755 23 757 40 757 59 C757 179 673 279 619 348 C588 387 575 407 575 431 L512 431 L492 411 L556 411 C561 390 582 362 608 329 C662 260 737 167 737 59 C737 41 734 26 729 12 L672 0 L676 -20 L734 -7 C747 -8 771 -38 771 -52 L771 -78 L653 -67 L347 -67 L229 -78 L229 -52 C229 -38 253 -8 266 -7 L324 -20 L328 0 L272 12 C267 25 264 41 264 59 C264 228 445 358 445 421 L425 421 C425 370 244 236 244 59 C244 41 248 23 252 9 C231 -2 209 -33 209 -52 L209 -100 L348 -87 L652 -87 L791 -100 L791 -52 C791 -33 770 -3 749 8 L749 8 Z " />
<glyph glyph-name="question" unicode="&#x3f;" horiz-adv-x="1000" d="M850 168 C850 212 825 252 790 271 L790 485 C790 503 772 520 755 520 L185 520 C168 520 150 503 150 485 L150 140 C150 122 168 105 185 105 L632 105 C653 72 690 50 732 50 C797 50 850 103 850 168 L850 168 Z M185 500 L755 500 C764 500 770 494 770 485 L770 414 L170 414 L170 485 C170 494 176 500 185 500 L185 500 Z M185 125 C176 125 170 131 170 140 L170 342 L770 342 L770 280 C758 284 745 286 732 286 C667 286 614 233 614 168 C614 153 617 138 622 125 L185 125 Z M732 72 C679 72 636 115 636 168 C636 221 679 264 732 264 C785 264 828 221 828 168 C828 115 785 72 732 72 L732 72 Z M769 223 L732 186 L695 223 L677 205 L714 168 L677 130 L695 113 L732 150 L769 113 L787 130 L750 168 L787 205 L769 223 Z M285 191 L517 191 L517 216 L285 216 L285 191 Z " />
<glyph glyph-name="at" unicode="&#x40;" horiz-adv-x="1000" d="M627 216 L627 236 L612 236 L612 288 L627 288 L627 308 L612 308 L612 359 L627 359 L627 379 L612 379 L612 479 C612 499 593 517 574 517 L514 517 C513 524 513 532 513 539 C513 561 516 585 528 608 L318 608 C307 584 304 559 304 536 C304 530 305 523 305 517 L271 517 C251 517 233 499 233 479 L233 -69 C233 -89 251 -107 271 -107 L574 -107 C593 -107 612 -89 612 -69 L612 216 L627 216 Z M332 588 L499 588 C495 572 493 555 493 540 C493 514 497 490 501 472 L334 472 C330 491 324 514 324 540 C324 556 326 572 332 588 L332 588 Z M592 -69 C592 -78 583 -87 574 -87 L271 -87 C261 -87 253 -79 253 -69 L253 479 C253 489 261 497 271 497 L308 497 L313 472 L277 472 L277 452 L567 452 L567 472 L522 472 C520 480 518 488 517 497 L574 497 C583 497 592 488 592 479 L592 -69 Z M747 468 L627 468 L627 448 L669 448 L669 153 L626 153 L626 133 L747 133 C758 133 767 142 767 153 L767 448 C767 459 758 468 747 468 L747 468 Z M747 443 L747 158 C747 155 745 153 742 153 L694 153 L694 448 L742 448 C745 448 747 446 747 443 L747 443 Z M541 409 L304 409 L304 189 L541 189 L541 409 Z M521 209 L324 209 L324 389 L521 389 L521 209 Z M324 153 C311 153 301 142 301 130 C301 117 311 107 324 107 C337 107 347 117 347 130 C347 142 337 153 324 153 L324 153 Z M423 153 C411 153 400 142 400 130 C400 117 411 107 423 107 C436 107 446 117 446 130 C446 142 436 153 423 153 L423 153 Z M522 153 C509 153 499 142 499 130 C499 117 509 107 522 107 C534 107 544 117 544 130 C544 142 534 153 522 153 L522 153 Z M324 78 C311 78 301 67 301 55 C301 42 311 32 324 32 C337 32 347 42 347 55 C347 67 337 78 324 78 L324 78 Z M423 78 C411 78 400 67 400 55 C400 42 411 32 423 32 C436 32 446 42 446 55 C446 67 436 78 423 78 L423 78 Z M522 78 C509 78 499 67 499 55 C499 42 509 32 522 32 C534 32 544 42 544 55 C544 67 534 78 522 78 L522 78 Z M324 3 C311 3 301 -8 301 -20 C301 -33 311 -43 324 -43 C337 -43 347 -33 347 -20 C347 -8 337 3 324 3 L324 3 Z M423 3 C411 3 400 -8 400 -20 C400 -33 411 -43 423 -43 C436 -43 446 -33 446 -20 C446 -8 436 3 423 3 L423 3 Z M522 3 C509 3 499 -8 499 -20 C499 -33 509 -43 522 -43 C534 -43 544 -33 544 -20 C544 -8 534 3 522 3 L522 3 Z " />
<glyph glyph-name="A" unicode="A" horiz-adv-x="1000" d="M288 436 C301 438 335 449 342 464 C348 477 355 527 354 554 C342 578 317 589 288 589 C258 589 233 578 221 554 C221 528 228 475 233 463 C239 449 268 439 288 436 L288 436 Z M667 578 L647 578 L647 539 L667 539 L667 578 Z M288 569 C311 569 325 564 334 548 C334 523 327 479 324 471 C322 467 301 459 288 456 C274 459 253 467 251 471 C248 479 241 523 241 548 C250 564 264 569 288 569 L288 569 Z M464 519 L464 440 L830 440 L830 133 C830 124 821 115 813 115 L502 115 C493 115 484 124 484 133 L484 323 L464 323 L464 133 C464 114 483 95 502 95 L813 95 C832 95 850 114 850 133 L850 519 L464 519 Z M484 460 L484 499 L830 499 L830 460 L484 460 Z M371 235 L372 343 L574 344 L574 416 L231 422 C196 423 167 404 165 372 L150 170 L204 163 L185 -100 L255 -100 L292 131 L311 85 L332 -100 L402 -100 L391 98 L371 235 Z M350 -80 L331 91 L303 156 L275 156 L237 -80 L207 -80 L230 238 L231 329 L211 329 L210 239 L206 183 L172 188 L185 370 C186 390 204 403 231 402 L554 396 L554 364 L352 363 L351 233 L371 96 L380 -80 L350 -80 Z M620 298 L549 227 L563 213 L628 278 L700 278 L752 333 L752 291 L772 291 L772 365 L696 365 L696 345 L736 345 L692 298 L620 298 Z M546 -100 L566 -100 L585 74 L564 74 L546 -100 Z M730 74 L748 -100 L768 -100 L751 74 L730 74 Z " />
<glyph glyph-name="B" unicode="B" horiz-adv-x="1000" d="M832 315 L832 350 C832 367 823 377 813 382 L761 409 L731 450 C709 481 656 523 610 512 L607 562 C605 593 589 607 559 606 C519 605 493 601 476 571 L446 566 L450 546 L494 550 L494 561 C505 583 521 585 559 586 C579 587 585 581 587 560 L591 505 L549 483 L525 483 C508 483 500 500 496 536 L477 534 C480 500 488 471 512 465 L434 374 L337 374 L312 439 L386 468 L367 521 C369 524 371 528 371 533 C371 544 362 553 351 553 C340 553 331 544 331 533 C331 523 338 515 348 513 L360 480 L286 451 L323 353 L323 334 C323 302 346 294 371 294 L435 294 C455 294 474 300 490 312 L501 320 L518 237 L522 -61 C522 -81 539 -91 555 -91 L610 -91 L610 -71 L829 -71 L830 -100 L850 -100 L832 315 Z M308 496 L285 562 L172 524 L194 457 L308 496 Z M555 -71 C545 -71 542 -68 542 -61 L538 239 L513 356 L478 328 C464 317 451 314 435 314 L371 314 C352 314 343 318 343 334 L343 354 L444 354 L530 453 L605 489 C640 506 693 469 715 438 L747 393 L806 363 C810 361 812 357 812 352 L812 337 L760 343 C745 345 733 350 721 360 L658 416 L645 406 L680 300 L742 199 L742 46 C742 39 740 37 734 37 L702 37 L691 164 L615 248 L588 248 L590 -71 L555 -71 Z M214 362 C216 357 220 355 224 355 C230 355 235 360 233 368 L231 374 C228 381 230 387 238 389 C246 392 252 389 254 382 L264 353 C266 348 270 346 274 346 C280 346 286 351 283 359 L252 447 L150 412 L172 348 C174 343 178 341 182 341 C188 341 193 347 191 354 L177 396 L199 403 L214 362 Z M814 286 L713 286 L698 310 L677 372 L708 344 C723 332 739 325 758 323 L813 317 L814 286 Z M819 174 L762 174 L762 205 L725 266 L815 266 L819 174 Z M608 226 L655 174 L608 174 L608 226 Z M609 154 L672 154 L680 61 L609 61 L609 154 Z M762 154 L819 154 L823 61 L762 61 L762 154 Z M202 -91 L372 -91 L372 103 L202 103 L202 -91 Z M222 83 L252 83 L252 14 C252 8 256 4 262 4 C268 4 272 8 272 14 L272 83 L302 83 L302 44 C302 38 306 34 312 34 C318 34 322 38 322 44 L322 83 L352 83 L352 -71 L222 -71 L222 83 Z M610 -51 L609 41 L682 41 L684 17 L734 17 C746 17 759 27 762 41 L824 41 L828 -51 L610 -51 Z " />
<glyph glyph-name="C" unicode="C" horiz-adv-x="1000" d="M738 388 C744 384 753 383 762 383 C778 383 795 390 807 404 L850 456 C855 486 811 542 771 542 C752 542 734 535 725 519 L682 444 C662 448 638 446 621 428 L532 331 C508 305 508 281 505 262 L495 189 L455 183 L150 277 L150 257 L441 166 L391 19 L150 97 L150 77 L403 -7 L461 164 L493 168 L458 -81 L490 -95 C510 -104 537 -94 541 -73 L586 147 L633 73 L645 -97 L686 -97 C704 -97 721 -80 721 -62 L723 79 C723 91 720 104 715 116 L681 192 L835 212 L835 258 L734 299 L740 374 C740 378 740 383 738 388 L738 388 Z M701 438 L742 508 C748 517 759 522 771 522 C796 522 829 485 830 464 L791 416 C784 407 772 403 762 403 C756 403 751 404 748 406 L701 438 Z M815 244 L815 230 L786 226 L686 230 C679 230 673 234 670 241 L644 309 L632 304 L642 252 L624 205 L516 191 L525 259 C528 279 528 297 547 317 L635 414 C651 432 674 433 698 416 C712 406 721 387 720 376 L712 287 L815 244 Z M697 108 C702 98 703 89 703 79 L701 -62 C701 -71 695 -77 686 -77 L663 -77 L653 79 L588 180 L660 190 L697 108 Z M521 -67 C519 -78 508 -82 498 -77 L482 -69 L516 171 L572 178 L521 -67 Z M150 -66 L150 -86 C209 -84 257 -38 271 14 L251 20 C240 -26 199 -64 150 -66 L150 -66 Z " />
<glyph glyph-name="D" unicode="D" horiz-adv-x="1000" d="M288 436 C301 438 335 449 342 464 C348 477 355 527 354 554 C342 578 317 589 288 589 C258 589 233 578 221 554 C221 528 228 475 233 463 C239 449 268 439 288 436 L288 436 Z M667 578 L647 578 L647 539 L667 539 L667 578 Z M288 569 C311 569 325 564 334 548 C334 523 327 479 324 471 C322 467 301 459 288 456 C274 459 253 467 251 471 C248 479 241 523 241 548 C250 564 264 569 288 569 L288 569 Z M464 519 L464 440 L484 440 L484 499 L830 499 L830 133 C830 124 821 115 813 115 L502 115 C493 115 484 124 484 133 L484 323 L464 323 L464 133 C464 114 483 95 502 95 L813 95 C832 95 850 114 850 133 L850 519 L464 519 Z M719 431 L719 174 L744 174 L744 431 L719 431 Z M371 235 L372 343 L574 344 L574 416 L231 422 C196 423 167 404 165 372 L150 170 L204 163 L185 -100 L255 -100 L292 131 L311 85 L332 -100 L402 -100 L391 98 L371 235 Z M350 -80 L331 91 L303 156 L275 156 L237 -80 L207 -80 L230 238 L231 329 L211 329 L210 239 L206 183 L172 188 L185 370 C186 390 204 403 231 402 L554 396 L554 364 L352 363 L351 233 L371 96 L380 -80 L350 -80 Z M647 311 L647 174 L672 174 L672 311 L647 311 Z M575 223 L575 174 L600 174 L600 223 L575 223 Z M546 -100 L566 -100 L585 74 L564 74 L546 -100 Z M730 74 L748 -100 L768 -100 L751 74 L730 74 Z " />
<glyph glyph-name="E" unicode="E" horiz-adv-x="1000" d="M744 245 L676 326 L606 448 L615 447 C635 444 667 461 674 492 L688 558 C680 584 635 605 605 605 C578 605 549 585 548 557 L544 475 C536 477 530 478 525 478 C510 478 500 472 485 463 L418 421 C405 413 393 401 386 387 L328 276 L247 276 L247 138 C247 120 264 103 282 103 L409 103 L403 57 L325 -82 L363 -96 C382 -103 401 -98 412 -81 L483 23 C490 33 495 44 497 55 L508 106 L541 60 L561 -100 L603 -100 C624 -100 635 -89 635 -65 L635 89 L591 226 L603 301 L622 275 L705 182 L743 218 C751 225 751 236 744 245 L744 245 Z M568 556 C569 572 587 585 604 585 C622 585 658 573 667 556 L654 496 C650 477 629 466 619 467 L563 475 L568 556 Z M615 85 L615 -65 C615 -77 612 -80 603 -80 L579 -80 L561 68 L475 186 L475 276 L466 276 L500 391 L421 342 L388 286 L356 286 L404 377 C410 389 417 397 428 404 L495 447 C509 456 516 460 524 460 C529 459 535 458 543 455 L583 439 C597 433 601 422 598 402 L571 224 L615 85 Z M562 404 C557 404 552 399 552 394 C552 388 557 384 562 384 C568 384 572 388 572 394 C572 399 568 404 562 404 L562 404 Z M724 230 L705 212 L637 288 L607 328 L617 391 L660 314 L724 237 C725 235 726 232 724 230 L724 230 Z M406 276 L435 328 L466 347 L445 276 L406 276 Z M548 324 C543 324 539 319 539 314 C539 309 543 304 548 304 C554 304 558 309 558 314 C558 319 554 324 548 324 L548 324 Z M267 138 L267 256 L316 256 L316 199 L406 199 L406 256 L455 256 L455 138 C455 129 449 123 440 123 L282 123 C273 123 267 129 267 138 L267 138 Z M336 256 L386 256 L386 219 L336 219 L336 256 Z M477 59 C475 50 472 43 467 35 L396 -69 C388 -80 382 -82 370 -78 L353 -72 L423 51 L429 103 L440 103 C458 103 475 120 475 138 L475 152 L492 128 L477 59 Z " />
<glyph glyph-name="F" unicode="F" horiz-adv-x="1000" d="M225 458 C241 447 260 441 282 441 C305 441 341 454 352 471 L328 556 C321 579 308 598 277 598 C250 598 232 580 225 557 L210 509 C203 488 211 468 225 458 L225 458 Z M236 474 C228 481 225 491 229 503 L244 551 C250 570 261 578 277 578 C294 578 303 571 309 550 L330 476 C319 468 298 461 282 461 C264 461 249 463 236 474 L236 474 Z M667 578 L647 578 L647 539 L667 539 L667 578 Z M464 519 L464 440 L484 440 L484 499 L830 499 L830 133 C830 124 821 115 813 115 L502 115 C493 115 484 124 484 133 L484 323 L464 323 L464 133 C464 114 483 95 502 95 L813 95 C832 95 850 114 850 133 L850 519 L464 519 Z M719 431 L719 174 L744 174 L744 431 L719 431 Z M363 249 L370 343 L569 343 L569 418 L249 424 C219 425 176 403 173 372 L150 160 L193 146 L176 49 L195 49 L201 -100 L269 -100 L277 49 L300 49 L316 -100 L385 -100 L388 49 L406 49 L363 249 Z M172 174 L193 370 C195 387 226 404 249 404 L549 398 L549 363 L352 363 L343 247 L382 69 L200 69 L230 246 L235 304 L215 306 L210 248 L196 166 L172 174 Z M647 311 L647 174 L672 174 L672 311 L647 311 Z M575 223 L575 174 L600 174 L600 223 L575 223 Z M546 -100 L566 -100 L585 74 L564 74 L546 -100 Z M730 74 L748 -100 L768 -100 L751 74 L730 74 Z M251 -80 L221 -80 L215 49 L257 49 L251 -80 Z M365 -80 L334 -80 L320 49 L368 49 L365 -80 Z " />
<glyph glyph-name="G" unicode="G" horiz-adv-x="1000" d="M580 341 L639 418 C642 461 598 504 565 525 C554 532 541 536 528 536 C502 536 474 525 461 501 L391 377 L482 319 C490 314 503 311 516 311 C538 311 563 319 580 341 L580 341 Z M479 491 C489 509 508 516 527 516 C537 516 547 513 555 508 C584 490 618 457 619 425 L564 353 C551 337 531 330 514 330 C505 330 497 332 492 335 L417 383 L479 491 Z M447 116 L495 105 L724 105 C724 140 715 174 669 183 L524 212 L424 315 C408 331 385 341 360 341 C339 341 317 334 298 318 C239 269 216 105 216 -62 C216 -76 217 -88 220 -100 L240 -100 C237 -90 236 -76 236 -62 C236 103 257 259 310 302 C326 315 343 321 360 321 C379 321 398 314 410 301 L514 194 L665 163 C689 158 702 144 702 125 L497 125 L371 155 L367 135 L428 121 L405 -40 L469 -100 L496 -100 L427 -32 L447 116 Z M822 234 L800 242 L757 80 L555 80 L555 57 L775 57 L822 234 Z M850 7 L850 27 L557 27 L557 -39 L632 -100 L850 -100 L850 -80 L640 -80 L577 -29 L577 7 L850 7 Z " />
<glyph glyph-name="H" unicode="H" horiz-adv-x="1000" d="M569 367 C579 367 635 372 653 384 C665 400 694 471 702 507 C693 555 639 585 590 585 C566 585 539 577 520 555 C511 518 501 440 503 423 C510 403 549 376 569 367 L569 367 Z M573 387 C553 397 528 417 523 428 C522 447 531 511 538 545 C552 558 571 566 591 566 C623 566 673 543 682 507 C674 477 650 417 639 399 C627 394 594 388 573 387 L573 387 Z M812 175 L765 259 C753 280 728 302 688 311 L413 374 L416 382 C402 411 369 426 341 426 C325 426 310 421 300 411 L286 341 L212 361 L206 341 L230 335 L198 318 C181 309 171 286 171 261 C171 233 183 202 213 182 L317 223 L358 223 L387 66 L377 -48 L397 -48 L407 66 L374 243 L313 243 L216 204 C197 220 189 242 189 261 C189 278 195 293 208 300 L257 328 L514 260 L503 222 L523 216 L538 274 L393 313 L407 355 L683 291 C717 282 738 266 747 250 L794 165 C804 148 810 136 806 107 L784 -47 L804 -47 L826 105 C831 138 822 158 812 175 L812 175 Z M374 318 L335 328 L305 336 L318 400 C325 405 333 407 342 407 C360 407 381 398 394 380 L374 318 Z M271 376 L251 382 L247 368 L267 362 L271 376 Z M438 316 L442 330 L422 336 L418 322 L438 316 Z M480 304 L484 319 L464 325 L460 310 L480 304 Z M523 293 L527 308 L507 314 L503 299 L523 293 Z M566 180 L520 180 L520 160 L566 160 L566 180 Z M688 158 L685 74 L716 -47 L736 -47 L722 4 L734 97 L708 158 L688 158 Z M520 120 L455 5 C451 -2 449 -9 449 -15 C449 -32 463 -45 480 -45 L606 -45 C624 -45 637 -32 637 -16 C637 -9 635 -2 631 5 L566 120 L566 140 L520 140 L520 120 Z M599 20 L616 -9 C617 -11 618 -13 618 -15 C618 -21 613 -25 606 -25 L480 -25 C474 -25 468 -21 468 -14 C468 -13 468 -11 469 -9 L497 39 C502 40 506 41 510 41 C537 41 548 16 578 16 C584 16 591 17 599 20 L599 20 Z M280 -100 L810 -100 L810 -80 L280 -80 L280 -100 Z " />
<glyph glyph-name="I" unicode="I" horiz-adv-x="1000" d="M824 449 L732 449 L732 558 C732 585 707 610 680 610 L151 610 L151 590 L680 590 C697 590 712 575 712 558 L712 -100 L732 -100 L732 429 L763 429 L763 299 C763 286 772 273 789 273 L824 273 C838 273 850 285 850 299 L850 423 C850 436 841 449 824 449 L824 449 Z M650 538 L151 538 L151 518 L650 518 L650 538 Z M627 466 L151 466 L151 446 L627 446 C648 446 667 427 667 406 L667 15 L150 15 L150 -5 L687 -5 L687 406 C687 437 658 466 627 466 L627 466 Z M830 303 C830 297 826 293 820 293 L793 293 C786 293 783 297 783 303 L783 429 L820 429 C827 429 830 425 830 419 L830 303 Z M273 53 L273 33 L646 33 L646 53 L593 53 L601 67 C629 82 631 104 623 129 L606 181 L612 334 C613 361 588 386 562 386 L520 386 C508 410 485 422 453 422 C425 422 400 412 387 386 L345 386 C318 386 293 361 294 334 L299 179 L283 129 C275 104 278 82 306 67 L313 53 L273 53 Z M453 402 C477 402 491 397 500 381 C500 356 494 317 491 308 C484 301 468 293 454 290 C440 293 422 300 417 306 C414 314 407 356 407 381 C416 397 430 402 453 402 L453 402 Z M345 366 L388 366 C390 339 395 305 399 296 C406 282 434 273 454 270 C467 272 501 283 508 297 C513 307 518 339 520 366 L562 366 C578 366 593 351 592 334 L588 225 C576 243 560 252 542 252 L365 252 C350 252 330 241 318 224 L314 334 C313 351 328 366 345 366 L345 366 Z M301 123 L327 200 C334 220 351 232 365 232 L443 232 L443 176 L463 176 L463 232 L542 232 C555 232 572 220 579 200 L605 123 C607 117 608 111 608 107 C593 126 570 136 548 136 C541 136 536 135 530 134 L524 119 C503 124 478 128 453 128 C427 128 403 124 383 118 L376 135 C372 136 368 136 364 136 C336 136 311 121 298 106 C298 111 299 117 301 123 L301 123 Z M313 93 C324 105 341 116 362 116 L375 84 L331 62 L313 93 Z M544 116 C564 116 580 110 593 93 L576 62 L531 84 L544 116 Z M400 74 L390 100 C408 105 429 108 453 108 C476 108 497 105 516 100 L505 74 L549 53 L357 53 L400 74 Z M567 -28 C528 -28 495 -62 495 -100 L515 -100 C515 -72 538 -48 567 -48 C596 -48 619 -72 619 -100 L639 -100 C639 -62 606 -28 567 -28 L567 -28 Z " />
<glyph glyph-name="J" unicode="J" horiz-adv-x="1000" d="M273 429 L365 403 C389 396 428 413 441 450 L463 512 L459 569 L318 607 L264 572 L287 517 L273 429 Z M441 510 L423 456 C414 430 385 419 370 423 L295 443 L305 498 L441 510 Z M850 -27 L850 0 C830 22 805 35 774 50 C809 94 835 147 834 205 L799 240 C764 204 729 175 657 160 C618 201 576 209 525 217 L372 240 L326 359 C311 399 274 413 253 413 C215 413 178 379 173 336 L150 148 L150 128 L478 128 L476 148 L407 148 L339 183 L271 282 L261 279 L298 174 L355 148 L171 148 L193 330 C198 368 223 393 255 393 C271 393 295 385 308 352 L358 222 L466 206 C493 193 504 158 504 113 C504 68 493 13 475 -40 L467 -59 C471 -60 475 -62 479 -63 C495 -69 513 -75 536 -75 C549 -75 559 -73 567 -71 L566 -48 C557 -52 550 -55 536 -55 C520 -55 508 -50 494 -46 C498 -33 502 -19 505 -6 L584 -6 C586 -23 587 -35 587 -53 L587 -64 C600 -59 612 -54 642 -54 C656 -54 685 -61 697 -67 L690 -42 C676 -38 661 -34 642 -34 C628 -34 616 -35 607 -36 C607 -26 606 -16 605 -6 L665 -6 L653 14 L603 14 L594 51 L646 51 C686 17 710 -13 720 -63 L722 -73 C729 -74 737 -75 745 -75 C789 -75 814 -54 850 -54 L850 -35 C806 -35 779 -55 745 -55 L738 -55 C733 -37 727 -21 719 -6 L824 -6 C834 -11 843 -18 850 -27 L850 -27 Z M799 212 L814 197 C813 145 788 99 756 58 C746 62 737 66 726 70 C707 99 689 123 672 143 C732 158 768 183 799 212 L799 212 Z M501 202 C526 193 540 176 549 148 L520 148 C517 169 511 188 501 202 L501 202 Z M581 148 L570 148 C563 169 554 187 541 200 C576 185 602 146 634 71 L588 71 C584 92 580 111 576 128 L588 128 L581 148 Z M702 71 L656 71 C633 125 612 164 588 190 C622 173 654 139 702 71 L702 71 Z M582 14 L510 14 C518 49 522 82 522 112 L522 128 L556 128 C560 112 563 93 567 71 L539 71 L539 51 L572 51 C576 39 579 27 582 14 L582 14 Z M476 101 L150 101 L150 81 L474 81 L476 101 Z M676 51 L721 51 C751 40 777 28 799 14 L707 14 C698 27 688 39 676 51 L676 51 Z M433 -34 C377 -34 360 -55 329 -55 C299 -55 267 -34 224 -34 C187 -34 166 -47 150 -50 L150 -72 C166 -69 196 -54 224 -54 C266 -54 283 -75 329 -75 C370 -75 379 -54 433 -54 C437 -54 442 -54 446 -55 L455 -36 C448 -35 441 -34 433 -34 L433 -34 Z " />
<glyph glyph-name="K" unicode="K" horiz-adv-x="1000" d="M758 121 L758 600 L150 600 L150 580 L501 580 L501 508 L445 508 L445 542 L425 542 L425 508 L395 508 L395 555 L375 555 L375 508 L345 508 L345 555 L325 555 L325 508 L295 508 L295 555 L275 555 L275 508 L245 508 L245 555 L225 555 L225 508 L154 508 L154 488 L738 488 L738 369 L698 369 L698 440 L678 440 L678 369 L636 369 L636 440 L616 440 L616 369 L573 369 L573 440 L553 440 L553 369 L405 369 L405 349 L500 349 L500 252 L458 252 L456 272 C453 310 429 326 397 326 L266 326 C231 326 210 307 208 272 L207 252 L154 252 L154 232 L205 232 L198 121 L150 121 L150 101 L830 101 L830 -80 L150 -80 L150 -100 L850 -100 L850 121 L758 121 Z M521 508 L521 580 L738 580 L738 508 L521 508 Z M587 555 L587 535 L690 535 L690 555 L587 555 Z M272 436 C272 416 277 374 281 364 C286 352 311 344 327 342 C341 344 369 353 373 365 C377 376 381 414 381 436 C372 457 351 467 327 467 C303 467 281 457 272 436 L272 436 Z M292 431 C298 441 310 447 327 447 C344 447 355 442 361 431 C361 413 358 385 355 375 C349 370 337 364 327 362 C315 364 303 369 299 373 C296 382 293 413 292 431 L292 431 Z M252 369 L188 369 L188 428 L168 428 L168 369 L149 369 L149 349 L252 349 L252 369 Z M520 349 L738 349 L738 252 L520 252 L520 349 Z M587 310 L587 290 L690 290 L690 310 L587 310 Z M228 270 C230 295 241 306 266 306 L397 306 C421 306 434 296 436 270 L449 121 L407 121 L409 142 L403 231 L386 230 L386 121 L270 121 L270 230 L253 231 L247 142 L250 121 L218 121 L228 270 Z M738 232 L738 121 L469 121 L459 232 L738 232 Z M690 169 L690 189 L587 189 L587 169 L690 169 Z " />
<glyph glyph-name="L" unicode="L" horiz-adv-x="1000" d="M790 600 L150 600 L150 580 L778 580 L818 503 L150 503 L150 483 L850 483 L790 600 Z M282 436 C282 416 287 374 291 364 C296 352 321 344 337 342 C351 344 379 353 383 365 C387 376 391 414 391 436 C382 457 361 467 337 467 C313 467 291 457 282 436 L282 436 Z M737 128 L737 455 L717 455 L717 128 L583 128 L590 160 L632 150 L660 265 L559 289 L532 175 L570 165 L552 77 L572 73 L579 108 L767 108 L790 -73 L512 -73 L502 108 L536 108 L538 128 L478 128 L466 272 C463 310 439 326 407 326 L276 326 C241 326 220 307 218 272 L209 128 L150 128 L150 108 L207 108 L196 -73 L150 -73 L150 -93 L812 -93 L785 128 L737 128 Z M302 431 C308 441 320 447 337 447 C354 447 365 442 371 431 C371 413 368 385 365 375 C359 370 347 364 337 362 C325 364 313 369 309 373 C306 382 303 413 302 431 L302 431 Z M238 270 C240 295 251 306 276 306 L407 306 C431 306 444 296 446 270 L458 128 L417 128 L419 142 L413 231 L396 230 L396 128 L280 128 L280 230 L263 231 L257 142 L259 128 L229 128 L238 270 Z M573 265 L636 251 L618 174 L556 189 L573 265 Z M216 -73 L227 108 L482 108 L492 -73 L216 -73 Z M274 78 C262 78 252 69 252 56 C252 44 262 35 274 35 C286 35 296 44 296 56 C296 69 286 78 274 78 L274 78 Z M360 78 C348 78 338 69 338 56 C338 44 348 35 360 35 C372 35 382 44 382 56 C382 69 372 78 360 78 L360 78 Z M446 35 C458 35 468 44 468 56 C468 69 458 78 446 78 C434 78 424 69 424 56 C424 44 434 35 446 35 L446 35 Z M593 69 C586 69 581 63 581 56 C581 50 586 44 593 44 C600 44 606 50 606 56 C606 63 600 69 593 69 L593 69 Z M656 69 C649 69 644 63 644 56 C644 50 649 44 656 44 C663 44 669 50 669 56 C669 63 663 69 656 69 L656 69 Z M709 46 L732 46 L732 66 L709 66 L709 46 Z M270 -5 C258 -5 248 -14 248 -27 C248 -39 258 -48 270 -48 C282 -48 292 -39 292 -27 C292 -14 282 -5 270 -5 L270 -5 Z M360 -5 C348 -5 338 -14 338 -27 C338 -39 348 -48 360 -48 C372 -48 382 -39 382 -27 C382 -14 372 -5 360 -5 L360 -5 Z M450 -5 C438 -5 429 -14 429 -27 C429 -39 438 -48 450 -48 C463 -48 472 -39 472 -27 C472 -14 463 -5 450 -5 L450 -5 Z M547 -39 C554 -39 559 -33 559 -27 C559 -20 554 -14 547 -14 C540 -14 534 -20 534 -27 C534 -33 540 -39 547 -39 L547 -39 Z M586 -27 C586 -33 591 -39 598 -39 C605 -39 611 -33 611 -27 C611 -20 605 -14 598 -14 C591 -14 586 -20 586 -27 L586 -27 Z M650 -27 C650 -33 655 -39 662 -39 C669 -39 675 -33 675 -27 C675 -20 669 -14 662 -14 C655 -14 650 -20 650 -27 L650 -27 Z M717 -37 L739 -37 L739 -17 L717 -17 L717 -37 Z " />
<glyph glyph-name="M" unicode="M" horiz-adv-x="1000" d="M646 530 L568 560 L541 594 L470 594 L424 578 C409 582 390 583 370 583 C328 583 294 553 294 511 L294 397 L416 397 C468 397 478 451 481 534 C474 550 464 560 452 567 L474 574 L531 574 L556 544 L626 516 L626 455 L604 466 L568 433 L485 433 L477 413 L547 413 L500 369 L340 369 C288 369 249 327 249 270 L249 29 C249 -22 257 -61 266 -100 L286 -100 C277 -61 269 -22 269 29 L269 270 C269 321 304 349 340 349 L508 349 L608 442 L636 428 L549 309 C536 291 511 283 485 281 L418 275 L420 255 L435 256 L413 107 L421 -100 L441 -100 L438 -27 L523 268 C532 271 543 276 550 282 L606 -101 L626 -99 L567 300 L661 429 L751 408 L751 555 L646 530 Z M461 530 C458 464 454 417 416 417 L314 417 L314 511 C314 549 348 564 370 563 L366 522 C351 519 340 506 340 490 C340 471 355 456 373 456 C392 456 407 471 407 490 C407 504 398 516 386 521 L390 562 C428 560 447 554 461 530 L461 530 Z M731 434 L646 454 L646 509 L731 529 L731 434 Z M436 36 L433 105 L455 258 C484 260 494 261 500 263 L436 36 Z " />
<glyph glyph-name="N" unicode="N" horiz-adv-x="1000" d="M393 285 L463 285 L463 139 C449 135 438 121 438 106 L458 106 C458 115 464 121 473 121 C482 121 488 115 488 106 L508 106 C508 120 496 134 483 139 L483 291 C493 295 501 300 517 311 L534 228 L538 106 L558 106 L554 230 L529 347 L494 319 C480 308 467 305 451 305 L390 305 C371 305 362 309 362 325 L362 345 L460 345 L539 438 L621 480 C656 498 709 460 731 429 L763 384 L819 355 C826 351 828 349 828 341 L828 328 L776 334 C761 336 749 341 737 351 L674 407 L661 397 L695 290 L742 106 L763 106 L715 296 L693 363 L724 335 C739 322 755 316 774 314 L804 311 L804 139 C790 135 779 121 779 106 L799 106 C799 115 805 121 814 121 C823 121 829 115 829 106 L849 106 C849 120 837 134 824 139 L824 306 L848 306 L848 341 C848 358 840 369 829 373 L824 375 L824 600 L804 600 L804 386 L777 400 L747 441 C724 472 672 513 626 503 L626 548 C626 579 605 598 575 597 C526 596 507 589 493 561 L451 556 L455 536 L510 541 L510 553 C522 574 537 576 575 577 C595 578 606 567 606 546 L606 495 L565 474 L541 474 C524 474 516 491 512 527 L493 525 C495 499 504 464 527 454 L450 365 L393 365 L393 573 L150 573 L150 553 L373 553 L373 365 L343 365 L286 453 L337 486 L327 502 L205 425 L215 409 L270 443 L342 331 L342 325 C342 301 355 290 373 287 L373 60 L150 60 L150 40 L393 40 L393 285 Z M271 288 L197 258 L205 240 L279 270 L271 288 Z M179 171 L305 223 L297 241 L171 189 L179 171 Z M679 106 L642 223 L612 223 L613 106 L633 106 L632 188 L657 106 L679 106 Z M205 125 L279 155 L271 173 L197 143 L205 125 Z M437 -100 L850 -100 L850 86 L437 86 L437 -100 Z M539 66 L541 29 L561 29 L559 66 L613 66 L613 29 L633 29 L633 66 L670 66 L682 29 L702 29 L691 66 L753 66 L753 29 L773 29 L773 66 L830 66 L830 9 L457 9 L457 66 L539 66 Z M457 -80 L457 -11 L543 -11 L545 -60 L565 -60 L563 -11 L613 -11 L613 -60 L633 -60 L633 -11 L686 -11 L690 -60 L710 -60 L706 -11 L753 -11 L753 -60 L773 -60 L773 -11 L830 -11 L830 -80 L457 -80 Z " />
<glyph glyph-name="O" unicode="O" horiz-adv-x="1000" d="M418 91 L427 237 L382 344 L431 360 L483 362 L482 317 L513 164 L584 185 L573 296 L695 265 L714 315 L586 388 L590 406 C594 424 588 441 584 456 L696 492 L764 420 L778 434 L751 464 L761 474 C768 481 771 490 771 500 C771 510 767 520 761 527 L725 566 C717 574 704 580 691 580 C685 580 680 579 675 577 L573 530 L591 517 L683 559 C685 560 688 561 691 561 C698 561 706 558 711 552 L747 513 C751 509 752 504 752 500 C752 496 750 491 747 488 L737 478 L701 515 L577 475 C572 486 566 497 560 506 C524 517 441 531 367 531 C319 531 273 526 246 508 C219 490 207 466 207 442 C207 430 209 418 214 406 L187 232 L162 146 C158 145 154 145 150 144 L150 124 C183 133 226 126 261 108 C294 111 327 94 341 80 C437 81 513 34 532 -21 L550 -15 C535 33 485 73 418 91 L418 91 Z M256 491 C280 507 322 510 367 510 C432 510 505 497 545 488 C550 482 580 451 570 408 L550 324 L562 199 L529 190 L502 319 L505 412 L485 439 L469 427 L485 406 L484 382 L427 380 L356 356 L407 233 L398 95 C384 98 370 100 355 100 L354 215 L240 397 C231 412 227 427 227 442 C227 460 236 478 256 491 L256 491 Z M627 442 L609 432 C618 417 638 402 661 402 C668 402 675 404 682 407 L718 425 L708 443 L673 425 C669 423 665 422 661 422 C647 422 632 432 627 442 L627 442 Z M207 228 L230 377 L278 299 L249 198 L224 142 C211 145 197 146 183 147 L207 228 Z M690 307 L683 289 L571 318 L581 368 L690 307 Z M265 128 C258 131 251 134 244 136 L267 192 L292 276 L334 209 L335 109 C316 120 291 128 265 128 L265 128 Z M702 206 C695 208 688 209 680 209 C652 208 619 194 604 172 C533 158 503 119 497 64 L517 62 C523 111 549 143 617 154 C625 174 656 188 680 189 C689 189 697 187 702 184 C721 194 747 199 770 199 C799 199 825 191 832 175 L850 183 C840 208 805 219 769 219 C745 219 721 214 702 206 L702 206 Z M778 166 C778 159 784 153 791 153 C798 153 803 159 803 166 C803 173 798 178 791 178 C784 178 778 173 778 166 L778 166 Z M686 166 C679 166 673 160 673 153 C673 146 679 141 686 141 C693 141 698 146 698 153 C698 160 693 166 686 166 L686 166 Z M717 89 C727 89 736 97 736 108 C736 118 727 126 717 126 C707 126 698 118 698 108 C698 97 707 89 717 89 L717 89 Z M605 123 C599 123 593 117 593 110 C593 103 599 98 605 98 C612 98 618 103 618 110 C618 117 612 123 605 123 L605 123 Z M807 108 C807 101 813 95 820 95 C826 95 832 101 832 108 C832 114 826 120 820 120 C813 120 807 114 807 108 L807 108 Z M175 89 C175 95 170 99 165 99 C160 99 156 95 156 89 C156 84 160 80 165 80 C170 80 175 84 175 89 L175 89 Z M759 67 C742 54 722 51 698 51 C669 51 616 21 608 -44 L628 -46 C634 7 677 31 698 31 C724 31 750 36 771 51 C780 58 790 60 800 60 C814 60 831 55 850 51 L850 71 C833 75 816 80 800 80 C786 80 773 77 759 67 L759 67 Z M238 60 C238 67 233 72 226 72 C219 72 213 67 213 60 C213 53 219 47 226 47 C233 47 238 53 238 60 L238 60 Z M591 64 C580 64 572 55 572 45 C572 35 580 26 591 26 C601 26 610 35 610 45 C610 55 601 64 591 64 L591 64 Z M357 53 C357 58 353 62 348 62 C343 62 339 58 339 53 C339 48 343 44 348 44 C353 44 357 48 357 53 L357 53 Z M820 34 C809 34 801 26 801 15 C801 5 809 -4 820 -4 C830 -4 838 5 838 15 C838 26 830 34 820 34 L820 34 Z M448 19 C448 25 442 31 435 31 C428 31 423 25 423 19 C423 12 428 6 435 6 C442 6 448 12 448 19 L448 19 Z M300 -4 C282 18 251 27 221 27 C194 27 167 20 150 7 L150 -19 C167 -1 194 8 221 8 C251 8 279 -4 289 -24 C333 -21 371 -56 371 -100 L391 -100 C391 -50 349 -7 300 -4 L300 -4 Z M763 -1 C756 -1 750 -6 750 -13 C750 -20 756 -26 763 -26 C770 -26 775 -20 775 -13 C775 -6 770 -1 763 -1 L763 -1 Z M454 -11 C444 -11 436 -19 436 -29 C436 -40 444 -48 454 -48 C465 -48 473 -40 473 -29 C473 -19 465 -11 454 -11 L454 -11 Z M670 -12 C664 -12 658 -18 658 -25 C658 -32 664 -37 670 -37 C677 -37 683 -32 683 -25 C683 -18 677 -12 670 -12 L670 -12 Z M165 -24 C158 -24 152 -30 152 -37 C152 -44 158 -49 165 -49 C172 -49 177 -44 177 -37 C177 -30 172 -24 165 -24 L165 -24 Z M228 -33 C223 -33 219 -38 219 -43 C219 -48 223 -52 228 -52 C233 -52 238 -48 238 -43 C238 -38 233 -33 228 -33 L228 -33 Z M292 -51 C281 -51 273 -60 273 -70 C273 -80 281 -89 292 -89 C302 -89 310 -80 310 -70 C310 -60 302 -51 292 -51 L292 -51 Z " />
<glyph glyph-name="P" unicode="P" horiz-adv-x="1000" d="M498 451 C515 454 545 461 552 478 C557 490 564 544 564 567 C552 593 528 604 498 604 C468 604 443 593 432 567 C432 538 437 492 443 479 C450 464 484 453 498 451 L498 451 Z M498 584 C522 584 535 579 544 562 C544 538 537 494 534 485 C532 482 511 474 498 471 C484 474 463 482 461 486 C458 494 452 538 452 563 C460 579 474 584 498 584 L498 584 Z M750 299 L678 299 L693 326 C685 342 672 354 657 361 L643 392 C633 415 615 437 593 437 L403 437 C380 437 362 416 352 392 L338 360 C323 353 311 342 303 326 L318 299 L250 299 L250 279 L750 279 L750 299 Z M370 384 C380 406 390 417 403 417 L593 417 C605 417 615 405 625 384 L633 368 C624 369 615 368 607 366 L603 355 C575 367 537 375 498 375 C458 375 421 368 393 356 L389 366 C380 368 371 369 363 368 L370 384 Z M401 338 C426 348 460 355 498 355 C536 355 570 349 595 337 L582 306 L597 299 L399 299 L414 306 L401 338 Z M326 325 C339 342 355 349 375 348 L388 316 L353 299 L340 299 L326 325 Z M670 325 L656 299 L643 299 L608 316 L621 348 C641 349 657 342 670 325 L670 325 Z M254 257 L220 257 C183 257 150 224 150 187 L150 -29 C150 -66 183 -99 220 -99 L254 -99 C291 -99 324 -66 324 -29 L324 187 C324 224 291 257 254 257 L254 257 Z M780 257 L746 257 C709 257 676 224 676 187 L676 -29 C676 -66 709 -99 746 -99 L780 -99 C817 -99 850 -66 850 -29 L850 187 C850 224 817 257 780 257 L780 257 Z M635 59 C635 46 624 35 611 35 L590 35 L590 75 L570 75 L570 35 L510 35 L510 75 L490 75 L490 35 L430 35 L430 75 L410 75 L410 35 L388 35 C376 35 365 46 365 59 L365 249 L345 249 L345 59 C345 36 366 15 388 15 L611 15 C634 15 655 36 655 59 L655 249 L635 249 L635 59 Z M254 -79 L220 -79 C193 -79 170 -56 170 -29 L170 15 L197 -12 C201 -16 207 -16 211 -12 C215 -8 215 -2 211 2 L170 43 L170 113 L197 87 C201 83 207 83 211 87 C215 91 215 97 211 101 L170 141 L170 187 C170 198 173 207 179 216 L197 198 C201 194 207 194 211 198 C215 202 215 208 211 212 L194 229 C201 234 210 237 220 237 L254 237 C270 237 284 229 293 217 L270 194 C266 190 266 184 270 180 C274 176 280 176 284 180 L303 199 C304 195 304 191 304 187 L304 113 L270 79 C266 75 266 69 270 65 C274 61 280 61 284 65 L304 85 L304 3 L281 -20 C277 -24 277 -30 281 -34 C285 -38 291 -38 295 -34 L304 -25 L304 -29 C304 -56 281 -79 254 -79 L254 -79 Z M780 -79 L746 -79 C719 -79 696 -56 696 -29 L696 -25 L705 -34 C709 -38 715 -38 719 -34 C723 -30 723 -24 719 -20 L696 3 L696 85 L716 65 C720 61 726 61 730 65 C734 69 734 75 730 79 L696 113 L696 187 C696 191 696 195 697 199 L716 180 C720 176 726 176 730 180 C734 184 734 190 730 194 L707 217 C716 229 730 237 746 237 L780 237 C790 237 799 234 806 229 L789 212 C785 208 785 202 789 198 C793 194 799 194 803 198 L821 216 C827 207 830 198 830 187 L830 141 L789 101 C785 97 785 91 789 87 C793 83 799 83 803 87 L830 113 L830 43 L789 2 C785 -2 785 -8 789 -12 C793 -16 799 -16 803 -12 L830 15 L830 -29 C830 -56 807 -79 780 -79 L780 -79 Z M414 173 C414 159 425 148 439 148 C453 148 464 159 464 173 C464 187 453 198 439 198 C425 198 414 187 414 173 L414 173 Z M531 173 C531 159 543 148 556 148 C570 148 581 159 581 173 C581 187 570 198 556 198 C543 198 531 187 531 173 L531 173 Z " />
<glyph glyph-name="Q" unicode="Q" horiz-adv-x="1000" d="M423 419 L415 488 C433 520 463 538 508 538 C553 538 582 520 600 488 L592 419 L612 417 L620 492 C600 532 561 558 508 558 C455 558 415 532 395 492 L403 417 L423 419 Z M850 60 L614 60 L645 90 L806 90 L806 110 L666 110 C690 135 698 170 690 203 L667 294 C658 331 627 350 598 350 L420 350 L335 402 L221 541 L189 523 C176 516 171 505 171 494 C171 486 173 477 178 469 L244 358 L372 248 L392 60 L150 60 L150 40 L680 40 L680 18 L700 18 L700 40 L743 40 L743 18 L763 18 L763 40 L850 40 L850 60 Z M440 480 C440 454 446 400 452 387 C459 373 494 362 508 360 C522 362 557 373 564 388 C570 401 576 453 576 480 C564 506 539 517 508 517 C477 517 451 506 440 480 L440 480 Z M392 258 L260 372 L196 479 C193 485 191 489 191 493 C191 498 193 502 199 505 L217 515 L321 386 L414 330 L598 330 C621 330 639 318 647 288 L670 197 C678 167 671 141 648 120 L585 60 L522 60 C523 72 527 81 535 90 L609 167 L590 255 L570 251 L587 173 L521 104 C509 92 503 76 502 60 L412 60 L392 258 Z M460 476 C468 490 483 497 508 497 C532 497 548 490 556 475 C555 450 550 410 547 398 C540 391 522 383 508 380 C494 383 476 391 469 398 C466 410 461 451 460 476 L460 476 Z M249 132 L249 110 L183 110 C177 110 173 106 173 100 C173 94 177 90 183 90 L335 90 C341 90 345 94 345 100 C345 106 341 110 335 110 L269 110 L269 132 L249 132 Z " />
<glyph glyph-name="R" unicode="R" horiz-adv-x="1000" d="M416 448 C429 450 464 461 470 474 C475 486 482 540 482 565 C470 589 445 601 416 601 C386 601 361 589 349 565 C349 540 356 486 361 474 C367 461 402 450 416 448 L416 448 Z M416 468 C403 471 385 479 379 484 C375 497 370 538 369 560 C378 574 394 581 416 581 C437 581 453 574 462 560 C461 538 456 497 452 484 C446 479 429 471 416 468 L416 468 Z M718 413 L700 441 C697 446 691 449 685 449 C679 449 673 446 669 441 L630 397 L634 391 L559 336 L534 381 C517 412 493 422 468 422 L343 422 C300 422 276 398 276 367 L278 232 L301 146 C305 132 312 128 322 128 L303 -100 L372 -100 L421 87 C424 88 428 90 431 92 L475 -100 L544 -100 L515 160 L514 185 C518 187 524 190 536 198 C539 200 542 203 545 206 L590 145 L629 176 C636 181 646 198 633 217 L586 286 L578 263 L617 205 C622 198 620 194 617 192 L594 173 L558 223 C561 230 563 237 563 246 C563 259 559 275 549 292 L651 367 L655 361 L711 385 C718 388 722 393 722 399 C722 403 721 408 718 413 L718 413 Z M663 385 L656 395 L685 428 L703 401 L663 385 Z M298 234 L296 367 C296 388 310 402 343 402 L468 402 C489 402 503 396 516 371 L542 323 L531 315 C511 339 492 348 474 348 C460 348 448 343 437 335 C412 317 420 314 408 306 C402 302 382 304 356 298 L356 357 L336 357 L336 261 L353 162 L330 151 C327 149 323 150 322 154 L298 234 Z M524 214 C510 204 502 207 487 196 C471 185 467 141 433 116 C420 107 409 103 397 103 C378 103 360 113 343 133 L375 152 L356 260 L356 278 C382 284 406 280 420 290 C435 300 435 309 449 319 C457 324 465 328 474 328 C486 328 500 322 515 304 L455 260 C449 264 442 267 433 267 C412 267 395 250 395 229 C395 208 412 191 433 191 C454 191 471 208 471 229 L471 234 L533 279 C541 266 544 255 544 246 C544 232 536 223 524 214 L524 214 Z M522 -80 L491 -80 L449 103 C480 128 488 160 495 174 L495 158 L522 -80 Z M356 -80 L325 -80 L340 108 C358 92 377 83 399 83 L356 -80 Z " />
<glyph glyph-name="S" unicode="S" horiz-adv-x="1000" d="M225 458 C241 447 260 441 282 441 C305 441 341 454 352 471 L328 556 C321 579 308 598 277 598 C250 598 232 580 225 557 L210 509 C203 488 211 468 225 458 L225 458 Z M236 474 C228 480 225 491 229 503 L244 551 C250 570 261 578 277 578 C294 578 303 571 309 550 L330 476 C319 468 298 461 282 461 C264 461 250 465 236 474 L236 474 Z M667 578 L647 578 L647 539 L667 539 L667 578 Z M464 519 L464 440 L830 440 L830 133 C830 124 821 115 813 115 L502 115 C493 115 484 124 484 133 L484 323 L464 323 L464 133 C464 114 483 95 502 95 L813 95 C832 95 850 114 850 133 L850 519 L464 519 Z M484 460 L484 499 L830 499 L830 460 L484 460 Z M363 249 L370 343 L569 343 L569 418 L241 424 C211 425 176 402 173 372 L150 160 L193 146 L176 49 L195 49 L201 -100 L269 -100 L277 49 L300 49 L316 -100 L385 -100 L388 49 L406 49 L363 249 Z M172 174 L193 370 C195 387 218 404 241 404 L549 398 L549 363 L352 363 L343 247 L382 69 L200 69 L230 246 L235 304 L215 306 L210 248 L196 166 L172 174 Z M620 298 L549 227 L563 213 L628 278 L700 278 L752 333 L752 291 L772 291 L772 365 L696 365 L696 345 L736 345 L692 298 L620 298 Z M546 -100 L566 -100 L585 74 L564 74 L546 -100 Z M730 74 L748 -100 L768 -100 L751 74 L730 74 Z M251 -80 L221 -80 L215 49 L257 49 L251 -80 Z M365 -80 L334 -80 L320 49 L368 49 L365 -80 Z " />
<glyph glyph-name="T" unicode="T" horiz-adv-x="1000" d="M240 542 L293 559 L307 438 C309 422 320 415 332 415 C344 415 356 423 358 437 L381 580 L628 580 C708 580 787 488 787 387 L787 312 L807 312 L807 387 C807 498 720 600 628 600 L365 600 L338 440 C337 435 334 434 332 434 C330 434 327 435 326 440 L311 585 L218 556 C220 546 220 537 220 529 C220 487 200 471 185 465 L175 412 C173 400 159 367 150 367 L150 347 C177 347 192 390 195 408 L203 452 C219 462 240 485 240 529 L240 542 Z M696 236 L715 256 L663 256 L663 262 C663 278 648 293 633 293 L528 293 L541 360 L556 357 C587 351 608 376 611 398 L593 404 C591 390 577 374 560 377 L497 389 L510 465 C513 483 525 488 545 485 C581 480 600 470 603 450 L601 443 L579 451 L573 431 L644 408 L650 427 L620 437 L623 451 C614 485 589 499 549 505 C521 509 495 500 490 467 L478 392 L458 396 C422 403 401 386 383 362 L333 298 C327 290 324 283 324 274 C324 260 333 248 349 245 L442 226 L446 246 L353 265 C346 266 343 269 343 273 C343 277 345 281 349 286 L399 350 C414 369 426 382 456 376 L521 364 L507 292 C494 288 484 275 484 262 L484 231 C484 223 487 215 493 210 L507 170 C515 161 525 156 537 156 C565 156 589 173 591 200 L633 200 C648 200 663 215 663 231 L663 236 L696 236 Z M643 231 C643 224 639 220 633 220 L582 220 L569 247 L504 228 L504 262 C504 269 508 273 514 273 L633 273 C639 273 643 269 643 262 L643 231 Z M724 236 L780 236 L800 256 L744 256 L724 236 Z M828 256 L808 236 L850 236 L850 256 L828 256 Z M486 179 L487 199 L467 203 L464 177 L515 90 C523 77 526 65 525 51 L517 -71 C516 -79 514 -80 510 -80 L480 -80 L484 57 L372 180 C363 189 359 195 359 204 C359 208 361 214 363 220 L345 228 C341 219 340 212 340 205 C340 196 343 188 347 181 L216 -76 L255 -98 C267 -105 280 -98 287 -87 L412 106 L464 49 L460 -100 L513 -100 C527 -100 536 -85 537 -71 L545 49 C546 67 542 85 533 100 L486 179 Z M525 180 L514 210 L558 223 L571 196 C569 185 551 176 537 176 C532 176 528 177 525 180 L525 180 Z M798 168 C798 119 788 112 747 80 C709 50 674 19 674 -21 L674 -100 L694 -100 L694 -21 C694 8 724 37 758 63 C802 97 818 106 818 168 L818 188 L798 188 L798 168 Z M271 -77 C269 -80 267 -82 264 -80 L242 -68 L360 163 L399 121 L271 -77 Z " />
<glyph glyph-name="U" unicode="U" horiz-adv-x="1000" d="M260 444 L337 444 C354 444 366 452 374 468 C383 486 385 519 385 564 C368 596 346 600 303 600 C284 600 270 590 263 576 L224 498 C213 477 222 444 260 444 L260 444 Z M260 464 C242 464 235 476 242 489 L281 567 C285 576 293 580 303 580 C343 580 355 576 365 559 C365 513 362 489 356 477 C351 467 346 464 337 464 L260 464 Z M770 417 C775 417 780 422 780 427 C780 432 775 437 770 437 C765 437 760 432 760 427 C760 422 765 417 770 417 L770 417 Z M361 242 L362 264 L504 264 L510 302 C513 324 492 339 477 340 L389 347 C380 393 327 435 269 435 C227 435 192 410 192 369 L193 247 C194 143 202 107 204 16 L225 16 L226 -104 L341 -104 C361 -104 376 -91 377 -71 L380 16 L399 16 L361 242 Z M213 247 L212 367 C212 397 236 415 269 415 C307 415 356 389 368 349 L341 351 L339 331 L476 320 C485 319 492 315 490 306 L486 284 L320 284 L248 333 L236 317 L314 265 L342 265 L341 242 L377 36 L224 36 C220 115 214 153 213 247 L213 247 Z M734 382 C739 382 744 387 744 392 C744 397 739 402 734 402 C729 402 724 397 724 392 C724 387 729 382 734 382 L734 382 Z M499 359 L588 262 C596 254 607 249 618 249 C641 249 661 269 661 292 C661 302 657 312 650 320 L603 276 L514 373 C506 382 494 385 482 385 C472 385 462 382 455 375 L469 361 C472 364 477 365 482 365 C488 365 495 363 499 359 L499 359 Z M752 328 C759 328 765 334 765 341 C765 348 759 354 752 354 C745 354 739 348 739 341 C739 334 745 328 752 328 L752 328 Z M704 280 C711 280 717 286 717 293 C717 300 711 306 704 306 C697 306 691 300 691 293 C691 286 697 280 704 280 L704 280 Z M762 272 C769 272 775 278 775 285 C775 292 769 298 762 298 C755 298 749 292 749 285 C749 278 755 272 762 272 L762 272 Z M539 17 L776 17 L785 232 L434 232 L434 212 L531 212 L539 17 Z M756 37 L559 37 L551 212 L571 212 L584 149 C586 141 590 138 595 138 C599 138 605 142 606 149 L615 198 L651 198 L651 169 C651 162 655 159 661 159 C666 159 671 162 671 169 L671 175 C671 182 674 187 683 187 C691 187 694 182 696 175 L706 144 C708 137 711 133 716 133 C721 133 725 137 726 144 L739 212 L764 212 L756 37 Z M245 16 L293 16 L289 -84 L246 -84 L245 16 Z M357 -70 C357 -79 351 -84 341 -84 L309 -84 L313 16 L360 16 L357 -70 Z M748 -78 L760 -41 L742 -35 L727 -78 L667 -78 L667 -22 L647 -22 L647 -78 L587 -78 L572 -35 L554 -41 L566 -78 L507 -78 L507 -98 L808 -98 L808 -78 L748 -78 Z " />
<glyph glyph-name="V" unicode="V" horiz-adv-x="1000" d="M298 516 L280 522 C276 512 266 506 261 507 L226 517 L237 563 C239 570 247 577 255 577 C264 577 279 570 285 562 L281 544 L337 531 L342 551 L312 558 C307 576 276 597 258 597 C240 597 221 585 217 566 L204 503 L255 488 C272 483 292 498 298 516 L298 516 Z M800 111 L800 483 L850 483 L850 503 L800 503 L800 538 L393 538 L278 432 C274 450 261 464 250 468 L209 481 C205 482 201 483 197 483 C168 482 150 447 151 422 L155 299 L150 72 L185 72 L183 92 L170 92 L174 246 L202 194 L222 68 L222 22 L269 22 C266 14 265 6 265 -3 C265 -53 309 -97 360 -97 C410 -97 452 -55 454 -7 L755 -7 C757 -55 800 -97 850 -97 L850 -77 C809 -77 775 -43 775 -3 C775 38 809 72 850 72 L850 92 C804 92 764 57 756 13 L453 13 C445 57 406 92 360 92 L355 92 L364 111 L800 111 Z M277 42 L242 42 L242 70 L256 70 C275 70 289 86 286 106 L260 303 L266 332 L246 336 L240 303 L266 103 C267 94 260 90 254 90 L238 90 L222 200 L184 271 C178 281 175 289 175 301 L171 422 C170 444 187 466 203 461 L244 448 C251 445 260 434 260 419 C260 411 258 402 252 394 L249 390 L243 392 C236 394 231 397 227 403 L214 423 L198 413 L211 393 C217 383 228 375 239 372 L329 349 L333 369 L270 385 C274 392 275 395 279 403 L401 518 L532 518 L331 87 C308 79 289 63 277 42 L277 42 Z M780 131 L373 131 L407 203 L407 199 L725 199 L725 271 L705 271 L705 219 L415 219 L554 518 L780 518 L780 131 Z M359 319 L379 319 L379 401 L359 401 L359 319 Z M434 -3 C434 -43 401 -77 360 -77 C319 -77 285 -43 285 -3 C285 38 319 72 360 72 C401 72 434 38 434 -3 L434 -3 Z " />
<glyph glyph-name="W" unicode="W" horiz-adv-x="1000" d="M774 489 L774 582 L564 582 L582 509 L498 509 L498 489 L774 489 Z M590 562 L754 562 L754 509 L603 509 L590 562 Z M681 413 C648 413 619 438 612 469 L591 469 C599 428 637 393 681 393 C725 393 763 428 772 469 L752 469 C744 438 714 413 681 413 L681 413 Z M772 355 L574 355 L441 254 L278 169 L310 106 L479 162 L565 222 L572 222 L555 -100 L575 -100 L582 31 L585 34 L762 34 L782 -100 L802 -100 L794 -44 C825 -40 850 -17 850 9 L850 293 C850 340 811 355 772 355 L772 355 Z M394 96 L362 96 L362 76 L394 76 C434 76 464 54 473 34 L247 34 L247 339 L198 339 C173 339 150 316 150 292 L150 61 C150 36 173 13 198 13 L216 13 L216 -29 C216 -54 239 -77 264 -77 L469 -77 C494 -77 517 -54 517 -29 L517 34 L493 34 C485 64 446 96 394 96 L394 96 Z M559 242 L469 180 L320 130 L304 161 L454 239 L579 335 L734 335 L588 142 L594 242 L559 242 Z M830 293 L830 9 C830 -6 813 -22 791 -25 L780 50 L788 206 L768 208 L760 54 L600 54 L808 329 C821 323 830 311 830 293 L830 293 Z M198 33 C181 33 170 46 170 61 L170 292 C170 306 183 319 198 319 L227 319 L227 33 L198 33 Z M497 -29 C497 -44 484 -57 469 -57 L264 -57 C249 -57 236 -44 236 -29 L236 14 L497 14 L497 -29 Z M656 -60 L641 -100 L663 -100 L670 -80 L683 -80 L691 -100 L712 -100 L695 -60 L656 -60 Z " />
<glyph glyph-name="X" unicode="X" horiz-adv-x="1000" d="M545 437 L553 451 L537 461 L528 447 C520 435 510 430 500 430 C493 430 486 432 480 436 L429 467 L470 545 C479 562 504 567 521 557 C542 544 559 524 561 504 L539 514 L529 496 L594 461 L604 481 L580 494 C584 523 573 547 531 574 C506 590 468 582 453 555 L401 461 L470 418 C477 414 487 411 498 411 C515 411 534 419 545 437 L545 437 Z M801 20 L783 127 L826 174 L826 224 L480 224 L480 172 L709 46 L766 108 L782 18 C770 14 760 7 753 -3 L591 86 L516 25 L514 128 L423 180 L418 286 L427 380 C431 427 398 457 374 457 C331 457 308 439 277 412 L199 344 C180 327 172 306 172 285 C172 260 184 235 198 219 L215 200 L193 85 L150 -70 L183 -83 C201 -90 222 -80 229 -62 L273 52 L292 115 L330 73 L337 -96 L384 -96 C403 -96 420 -79 420 -60 L419 87 C419 98 417 107 410 119 L385 161 L418 161 L494 116 L497 11 C497 2 502 -3 509 -3 C512 -3 515 -2 519 1 L593 62 L745 -21 C744 -25 743 -29 743 -33 C743 -61 768 -87 796 -87 C824 -87 850 -61 850 -33 C850 -7 827 17 801 20 L801 20 Z M403 182 L376 182 L365 208 L345 325 L324 325 L302 259 L393 108 C398 100 399 96 399 87 L400 -60 C400 -69 393 -76 384 -76 L357 -76 L350 81 L212 233 C201 245 194 265 194 285 C194 301 199 316 213 328 L291 396 C322 423 341 437 371 437 C389 437 411 419 407 380 L398 286 L403 182 Z M523 269 L523 244 L543 244 L543 269 C543 281 554 295 572 295 C606 295 633 299 643 315 C660 344 665 353 685 353 C748 353 766 322 766 282 L766 244 L786 244 L786 282 C786 328 764 373 685 373 C655 373 642 354 625 325 C621 317 604 315 572 315 C542 315 523 290 523 269 L523 269 Z M705 72 L500 184 L500 204 L806 204 L806 182 L705 72 Z M255 60 L211 -55 C208 -63 199 -69 190 -65 L174 -58 L213 81 L232 181 L275 133 L255 60 Z M796 -67 C778 -67 763 -51 763 -33 C763 -15 778 0 796 0 C814 0 830 -15 830 -33 C830 -51 814 -67 796 -67 L796 -67 Z " />
<glyph glyph-name="Y" unicode="Y" horiz-adv-x="1000" d="M447 489 L449 496 L430 501 L428 495 C421 476 405 465 393 467 L339 475 L346 553 C348 570 365 581 381 581 C397 581 432 570 440 552 L438 539 L418 544 L414 524 L483 508 L487 528 L457 535 L461 554 C454 580 411 601 383 601 C356 601 328 583 326 557 L317 459 L389 447 C411 443 437 461 447 489 L447 489 Z M490 333 L436 333 L436 377 C436 403 417 438 384 438 L344 438 C312 438 282 418 279 380 L267 242 C221 224 182 201 150 175 L150 150 C184 180 230 208 286 228 L299 378 C302 409 322 418 340 418 L381 418 C403 418 416 397 416 381 L416 333 L399 333 L399 313 L490 313 C497 313 503 309 503 299 L503 277 L386 277 C371 277 361 283 355 296 L321 366 L321 321 L337 288 C346 270 365 257 386 257 L414 257 L414 79 L407 -71 C407 -81 402 -85 391 -85 L367 -85 L376 78 L374 130 L354 130 L356 79 L346 -85 L298 -85 L305 80 L285 189 L285 208 L265 187 L285 78 L278 -105 L391 -105 C410 -105 426 -91 427 -72 L434 79 L434 257 L523 257 L523 296 C551 296 575 293 601 284 L613 300 C583 310 553 317 518 316 C511 327 499 333 490 333 L490 333 Z M645 306 L627 275 C638 264 666 221 675 193 C674 148 641 124 635 78 L630 78 L640 -1 L659 9 L652 58 L821 58 L803 -92 L670 -92 L663 -35 L744 10 C747 8 751 7 755 7 C766 7 775 16 775 27 C775 38 766 47 755 47 C744 47 736 38 735 28 L614 -38 L624 -56 L644 -45 L652 -112 L821 -112 L843 78 C803 161 730 249 645 306 L645 306 Z M821 78 L739 78 C729 89 717 94 705 94 C692 94 679 88 671 78 L655 78 C661 106 682 128 691 161 L703 129 C705 124 707 121 714 121 C718 121 721 126 720 132 C713 161 693 204 681 226 C671 245 661 262 651 277 C725 222 784 151 821 78 L821 78 Z M813 175 C819 175 823 180 823 185 C823 191 819 195 813 195 C808 195 803 191 803 185 C803 180 808 175 813 175 L813 175 Z M746 136 C752 136 756 140 756 146 C756 152 752 156 746 156 C740 156 736 152 736 146 C736 140 740 136 746 136 L746 136 Z M840 133 C846 133 850 138 850 143 C850 149 846 153 840 153 C835 153 830 149 830 143 C830 138 835 133 840 133 L840 133 Z M769 97 C775 97 779 101 779 107 C779 113 775 117 769 117 C763 117 759 113 759 107 C759 101 763 97 769 97 L769 97 Z M589 67 C595 67 599 72 599 77 C599 83 595 87 589 87 C584 87 579 83 579 77 C579 72 584 67 589 67 L589 67 Z " />
<glyph glyph-name="Z" unicode="Z" horiz-adv-x="1000" d="M620 453 L628 467 L612 477 L603 463 C596 452 586 447 577 447 C569 447 562 448 555 452 L504 483 L545 561 C551 572 563 578 576 578 C604 578 638 543 637 518 L614 530 L604 512 L669 477 L679 495 L656 508 L656 520 C655 559 613 598 576 598 C557 598 538 588 528 571 L476 477 L545 434 C554 429 563 428 574 428 C591 428 609 435 620 453 L620 453 Z M597 5 C573 5 558 -1 542 -22 C527 -42 524 -57 520 -84 L850 -84 C850 68 801 138 730 138 C693 138 676 114 657 74 L467 186 L457 206 L427 322 L416 322 L416 220 L470 129 L485 87 L479 -65 C479 -75 473 -79 464 -79 L436 -79 L441 78 L317 215 C306 227 299 240 299 256 C299 273 305 291 320 312 L382 401 C404 432 420 439 450 439 C479 439 503 418 498 382 L485 282 L495 193 L517 181 L505 282 L518 379 C524 423 494 459 450 459 C417 459 398 448 384 434 L299 434 L216 375 C207 368 203 358 203 347 C203 336 209 326 219 319 L282 278 C280 270 279 263 279 255 C279 241 284 227 291 216 L150 -69 L185 -88 C200 -96 221 -90 231 -75 L363 134 L421 70 L416 -99 L464 -99 C482 -99 498 -83 499 -66 L505 89 L483 154 L649 56 C632 21 616 5 597 5 L597 5 Z M229 335 C224 338 221 342 221 347 C221 351 224 356 228 359 L305 414 L367 414 L304 324 C298 315 293 306 289 297 L229 335 Z M215 -64 C210 -72 203 -75 194 -70 L176 -61 L305 199 L350 148 L215 -64 Z M671 56 C691 100 702 118 730 118 C785 118 826 65 830 -64 L544 -64 C546 -55 550 -44 558 -34 C571 -18 577 -15 597 -15 C626 -15 651 12 671 56 L671 56 Z M752 31 L718 46 L710 28 L744 13 L752 31 Z " />
<glyph glyph-name="bracketleft" unicode="&#x5b;" horiz-adv-x="1000" d="M322 212 L402 185 C426 177 438 160 436 133 L423 -53 C422 -61 420 -64 413 -64 L377 -64 L377 138 L232 138 C185 138 163 152 172 207 L202 387 C208 425 231 443 256 444 L300 445 L350 432 C375 426 385 418 392 391 L414 310 L459 299 C469 297 474 290 473 282 L379 282 L334 361 L334 389 L314 389 L314 355 L367 262 L486 262 C491 270 493 278 493 285 C493 302 481 315 465 319 L430 328 L412 397 C405 422 392 437 373 445 C383 463 393 491 397 512 C389 550 351 571 310 571 C288 571 270 564 256 547 C249 526 245 505 247 463 C216 459 189 435 182 391 L152 211 C140 139 179 118 232 118 L357 118 L357 -84 L413 -84 C430 -84 442 -69 443 -55 L456 131 C459 168 438 193 406 205 L387 212 L850 212 L850 232 L322 232 L322 212 Z M268 464 C265 483 269 516 274 537 C283 547 293 552 307 552 C333 552 368 541 377 512 C372 490 364 471 354 452 L302 465 L268 464 Z M718 520 L718 262 L850 262 L850 520 L718 520 Z M570 282 L530 282 L530 262 L630 262 L630 282 L590 282 L590 343 L688 343 L688 504 L472 504 L472 343 L570 343 L570 282 Z M830 282 L738 282 L738 500 L830 500 L830 282 Z M492 484 L668 484 L668 363 L492 363 L492 484 Z M803 457 L765 457 L765 437 L803 437 L803 457 Z M508 431 L528 431 L528 451 L508 451 L508 431 Z M770 302 C777 302 782 307 782 314 C782 321 777 326 770 326 C763 326 758 321 758 314 C758 307 763 302 770 302 L770 302 Z M167 68 L214 68 L214 -93 L284 -93 L284 68 L330 68 L330 88 L167 88 L167 68 Z M264 -73 L234 -73 L234 68 L264 68 L264 -73 Z " />
<glyph glyph-name="backslash" unicode="&#x5c;" horiz-adv-x="1000" d="M850 486 C850 503 836 517 819 517 L322 517 C305 517 291 503 291 486 L291 423 L191 423 C170 423 150 403 150 382 L150 68 C150 47 170 28 191 28 L715 28 C736 28 756 47 756 68 L756 160 L819 160 C836 160 850 174 850 191 L850 345 L756 345 L756 382 C756 393 750 404 742 412 L850 412 L850 486 Z M736 68 C736 58 726 48 715 48 L191 48 C180 48 170 58 170 68 L170 382 C170 393 180 403 191 403 L715 403 C726 403 736 393 736 382 L736 68 Z M618 306 L683 306 L683 326 L618 326 L618 306 Z M302 303 L232 303 L232 225 L302 225 L302 303 Z M232 113 L318 113 L318 133 L232 133 L232 113 Z M354 113 L439 113 L439 133 L354 133 L354 113 Z M476 113 L561 113 L561 133 L476 133 L476 113 Z M598 113 L683 113 L683 133 L598 133 L598 113 Z " />
<glyph glyph-name="bracketright" unicode="&#x5d;" horiz-adv-x="1000" d="M422 563 L406 563 C393 590 375 603 319 603 C288 603 276 589 271 559 L253 559 L253 539 L422 543 L422 563 Z M710 592 L690 592 L690 564 L710 564 L710 592 Z M319 583 C355 583 372 579 384 562 L291 560 C295 579 301 583 319 583 L319 583 Z M544 544 L544 427 L477 379 L386 436 L222 436 L162 342 C151 325 158 300 176 289 L247 243 L238 111 L235 -100 L307 -100 L317 17 L360 16 L372 -100 L439 -100 L439 127 L408 326 L455 304 C474 295 503 302 516 313 L608 390 C622 402 618 430 598 436 L564 447 L564 524 L824 524 L824 214 L564 214 L564 322 L544 304 L544 194 L844 194 L844 544 L544 544 Z M266 520 L266 453 L334 453 C368 453 403 486 403 522 L383 522 C383 495 356 473 334 473 L286 473 L286 520 L266 520 Z M611 455 L617 434 C620 433 623 433 625 433 C646 434 645 453 670 454 L668 462 C659 470 649 473 640 473 C629 473 618 467 611 455 L611 455 Z M696 248 C721 248 760 276 776 299 C783 309 785 328 785 349 C785 378 781 410 776 425 C772 437 754 442 735 442 C715 442 694 437 688 429 C684 424 683 415 683 406 C683 387 691 364 708 349 C711 346 714 346 717 346 C726 347 734 355 740 355 C744 355 746 350 746 334 L746 322 C745 303 736 297 723 297 C700 297 667 318 662 321 C653 328 647 330 643 330 C638 330 636 326 636 319 C636 301 649 270 654 264 C661 257 677 248 696 248 L696 248 Z M573 424 L592 417 C596 416 598 408 595 405 L504 329 C493 320 477 316 463 322 L382 360 L419 125 L419 35 L257 38 L258 109 L268 255 C256 287 250 329 249 361 L229 361 C230 334 234 300 242 270 L188 305 C178 311 174 323 180 332 L233 416 L380 416 L477 355 L573 424 Z M600 144 L654 144 L609 -81 L630 -81 L661 74 L739 74 L770 -81 L791 -81 L746 144 L800 144 L800 164 L600 164 L600 144 Z M735 94 L665 94 L674 144 L726 144 L735 94 Z M289 -80 L255 -80 L257 18 L297 17 L289 -80 Z M390 -80 L381 16 L419 15 L419 -80 L390 -80 Z " />
<glyph glyph-name="asciicircum" unicode="&#x5e;" horiz-adv-x="1000" d="M638 571 C548 506 503 455 476 412 C461 412 449 409 434 397 L275 272 C260 260 249 249 245 238 L182 49 L202 43 L263 229 C266 237 272 244 287 256 L446 381 C452 386 459 389 464 391 C461 387 459 383 457 379 C426 319 409 296 348 235 L334 221 C325 212 321 201 321 190 C321 164 346 143 370 143 C380 143 389 147 397 155 L462 220 C470 228 478 231 486 231 C503 231 518 215 518 197 C518 190 514 182 507 175 L408 76 C407 47 395 -1 366 -30 C351 -45 330 -58 315 -71 L329 -86 C342 -74 363 -62 381 -44 C411 -13 424 35 427 66 L521 160 C532 171 539 183 539 198 C539 222 517 252 486 252 C470 252 456 245 446 235 L411 200 L376 235 C424 282 442 307 475 370 C482 383 489 397 499 412 L519 391 C514 383 510 375 510 366 C510 349 526 330 550 330 C564 330 598 344 611 344 C618 344 631 341 631 327 C631 308 605 288 580 288 L579 269 C591 268 609 271 626 285 L651 260 C641 245 633 231 627 218 C602 166 593 127 530 81 L505 106 L491 92 L528 55 C611 109 618 157 644 209 C668 256 705 310 818 391 L638 571 Z M663 276 L641 298 C647 307 650 317 650 327 C650 350 634 363 611 363 C587 363 564 350 549 350 C538 350 530 359 530 368 C530 382 549 401 574 403 L573 423 C559 422 545 417 533 407 L511 428 C537 461 574 499 636 545 L787 394 C726 348 688 309 663 276 L663 276 Z M397 186 L381 170 C377 166 372 163 367 163 C359 163 341 173 341 188 C341 194 343 201 348 206 L362 221 L397 186 Z " />
<glyph glyph-name="underscore" unicode="&#x5f;" horiz-adv-x="1000" d="M711 595 L316 595 L316 520 L210 520 L210 -104 L605 -104 C644 -104 679 -72 684 -33 L711 -33 C753 -33 790 4 790 46 L790 516 C790 558 753 595 711 595 L711 595 Z M770 46 C770 14 743 -13 711 -13 L684 -13 L684 441 C684 483 647 520 605 520 L336 520 L336 575 L711 575 C743 575 770 548 770 516 L770 46 Z M664 -25 C664 -57 637 -84 605 -84 L230 -84 L230 500 L605 500 C637 500 664 473 664 441 L664 -25 Z M445 421 C373 421 312 360 312 288 C312 217 373 155 445 155 C517 155 578 217 578 288 C578 360 517 421 445 421 L445 421 Z M424 399 C396 373 376 337 373 298 L332 298 C337 348 375 390 424 399 L424 399 Z M558 298 L516 298 C513 337 494 373 466 399 C515 390 553 348 558 298 L558 298 Z M393 298 C396 336 415 368 445 390 C474 368 493 336 496 298 L393 298 Z M332 278 L373 278 C375 239 395 203 424 177 C376 186 337 228 332 278 L332 278 Z M445 187 C415 209 395 241 393 278 L496 278 C494 241 474 209 445 187 L445 187 Z M464 177 C494 202 513 239 516 278 L558 278 C553 228 514 186 464 177 L464 177 Z M354 69 L523 69 L523 89 L354 89 L354 69 Z M354 2 L523 2 L523 22 L354 22 L354 2 Z " />
<glyph glyph-name="a" unicode="a" horiz-adv-x="1000" d="M597 522 L583 508 L635 455 L649 469 L631 487 L631 510 C631 544 593 593 551 593 C533 593 514 584 504 568 L453 482 C387 477 359 420 359 346 C359 318 364 249 373 220 L383 58 L352 -100 L403 -100 C424 -100 443 -78 448 -48 L450 -35 L461 -100 L520 -100 C537 -100 548 -79 547 -64 L520 257 L534 366 C536 383 536 406 526 427 C545 420 575 423 592 449 L598 458 L585 472 L575 459 C561 440 542 440 527 450 L478 482 L521 558 C527 568 538 573 550 573 C576 573 610 545 609 510 L597 522 Z M379 327 L379 345 C379 407 401 463 463 463 C480 463 492 446 505 423 C516 404 516 387 514 368 L500 257 L502 232 L488 216 L457 315 C454 326 453 336 455 346 L467 404 L447 408 L435 350 C432 336 433 322 437 310 L472 197 L460 184 L379 327 Z M527 -66 C528 -74 524 -80 520 -80 L479 -80 L441 136 C406 180 387 223 384 277 L458 149 L505 203 L527 -66 Z M428 -46 C424 -67 413 -80 403 -80 L376 -80 L403 56 L397 166 C404 154 413 141 423 128 L440 25 L428 -46 Z " />
<glyph glyph-name="b" unicode="b" horiz-adv-x="1000" d="M798 375 L663 375 L663 507 C663 533 639 557 613 557 L203 557 C177 557 153 533 153 507 L153 246 C153 220 177 196 203 196 L248 196 L248 79 L288 79 L373 196 L613 196 C639 196 663 220 663 246 L663 355 L798 355 C814 355 828 341 828 325 L828 84 C828 68 814 54 798 54 L732 54 L732 -63 L723 -63 L638 54 L388 54 C372 54 358 68 358 84 L358 135 L338 108 L338 84 C338 58 362 34 388 34 L628 34 L713 -83 L752 -83 L752 34 L798 34 C824 34 848 58 848 84 L848 325 C848 351 824 375 798 375 L798 375 Z M643 246 C643 230 629 216 613 216 L363 216 L278 99 L268 99 L268 216 L203 216 C187 216 173 230 173 246 L173 507 C173 523 187 537 203 537 L613 537 C629 537 643 523 643 507 L643 246 Z M254 464 L573 464 L573 484 L254 484 L254 464 Z M254 367 L573 367 L573 387 L254 387 L254 367 Z M763 299 L690 299 L690 279 L763 279 L763 299 Z M254 269 L573 269 L573 289 L254 289 L254 269 Z M690 196 L763 196 L763 216 L690 216 L690 196 Z M453 113 L763 113 L763 133 L453 133 L453 113 Z " />
<glyph glyph-name="c" unicode="c" horiz-adv-x="1000" d="M333 600 L333 239 C324 242 315 244 306 244 C258 244 216 199 216 150 C216 125 229 97 242 85 L242 47 L191 47 C171 47 150 26 150 6 L150 -63 L160 -63 L160 -100 L452 -100 L452 -63 L462 -63 L462 1 C462 24 439 47 417 47 L370 47 L370 85 C383 97 396 125 396 150 C396 182 378 212 353 229 L353 580 L830 580 L830 -45 L472 -45 L472 -65 L850 -65 L850 600 L333 600 Z M430 485 L430 460 L593 460 L593 485 L430 485 Z M430 373 L755 373 L755 398 L430 398 L430 373 Z M430 285 L755 285 L755 310 L430 310 L430 285 Z M376 150 C376 133 369 116 361 105 L251 105 C243 116 236 133 236 150 C236 191 267 224 306 224 C345 224 376 191 376 150 L376 150 Z M430 198 L593 198 L593 223 L430 223 L430 198 Z M719 97 L744 90 C738 117 713 138 684 138 C666 138 651 131 640 119 L665 112 C671 115 677 117 684 117 C699 117 712 109 719 97 L719 97 Z M768 64 L606 108 L600 88 L762 44 L768 64 Z M261 85 L351 85 C350 81 350 77 350 73 L350 47 L262 47 L262 73 C262 77 262 81 261 85 L261 85 Z M650 55 L625 61 C631 35 655 15 684 15 C701 15 717 22 728 33 L704 40 C698 37 691 35 684 35 C670 35 657 43 650 55 L650 55 Z M417 27 C431 27 442 16 442 1 L442 -43 L170 -43 L170 6 C170 18 179 27 191 27 L417 27 Z M432 -80 L180 -80 L180 -63 L432 -63 L432 -80 Z " />
<glyph glyph-name="d" unicode="d" horiz-adv-x="1000" d="M480 358 L444 372 L444 427 C449 433 454 441 457 450 L470 490 L448 490 L438 455 C432 467 423 475 414 475 L352 475 L352 429 L312 437 L327 543 C330 566 351 580 377 580 C403 580 448 560 461 535 L418 540 L416 520 L528 506 L530 526 L483 532 C472 568 418 600 377 600 C342 600 311 579 307 547 L290 421 L352 408 L352 370 L336 389 C324 404 303 413 283 413 C259 413 234 401 211 373 C170 322 145 250 145 189 C145 118 179 60 255 60 L407 60 L407 -100 L459 -100 C471 -100 479 -95 484 -89 L510 -89 C535 -89 545 -68 545 -50 L545 84 C545 124 502 160 462 164 C444 175 423 182 400 185 C424 189 443 210 443 235 L443 266 L587 253 C612 251 635 265 640 292 L648 340 L480 358 Z M481 89 L472 -62 C471 -75 470 -80 459 -80 L427 -80 L427 80 L255 80 C192 80 163 128 163 189 C163 245 187 311 227 361 C245 384 265 393 283 393 C297 393 312 386 321 375 L352 339 L352 300 L372 300 L372 455 L410 455 C417 455 424 448 424 435 L423 235 C423 217 410 202 392 202 C380 202 365 209 351 226 L308 280 L292 268 L335 214 C346 200 358 192 370 187 L297 194 L295 174 L395 165 C444 161 484 133 481 89 L481 89 Z M476 338 L624 322 L620 296 C617 279 606 271 589 273 L443 287 L444 351 L476 338 Z M577 290 C583 290 589 296 589 302 C589 308 583 314 577 314 C571 314 565 308 565 302 C565 296 571 290 577 290 L577 290 Z M533 208 C540 208 546 214 546 221 C546 228 540 234 533 234 C526 234 520 228 520 221 C520 214 526 208 533 208 L533 208 Z M686 93 C679 100 680 118 680 152 C680 184 661 195 642 195 C625 195 614 187 605 180 L573 155 L573 118 L608 118 C611 118 613 115 613 110 C613 93 599 53 599 41 C599 -24 646 -57 711 -60 L711 -91 L731 -91 L731 -60 C772 -60 799 -52 817 -24 L855 -24 L855 24 L842 24 C798 24 724 55 686 93 L686 93 Z M608 138 L593 138 L593 145 L617 164 C623 169 631 175 642 175 C652 175 660 168 660 152 C660 131 657 113 662 97 C649 91 637 83 626 73 C629 85 632 98 632 110 C632 126 626 138 608 138 L608 138 Z M525 82 L525 -52 C525 -62 521 -69 510 -69 L492 -69 L501 87 C502 104 499 119 491 132 C509 121 525 102 525 82 L525 82 Z M835 -4 L744 -4 C715 -4 698 8 685 28 L669 16 C684 -6 709 -24 744 -24 L792 -24 C782 -34 759 -40 736 -40 L711 -40 C657 -40 628 -19 620 24 C628 51 647 71 672 79 C706 45 779 8 835 4 L835 -4 Z M199 12 L254 12 L254 -100 L324 -100 L324 12 L378 12 L378 32 L199 32 L199 12 Z M304 -80 L274 -80 L274 12 L304 12 L304 -80 Z M583 -59 C590 -59 596 -53 596 -46 C596 -39 590 -33 583 -33 C576 -33 570 -39 570 -46 C570 -53 576 -59 583 -59 L583 -59 Z M627 -100 C634 -100 640 -94 640 -87 C640 -80 634 -74 627 -74 C620 -74 614 -80 614 -87 C614 -94 620 -100 627 -100 L627 -100 Z " />
<glyph glyph-name="e" unicode="e" horiz-adv-x="1000" d="M850 600 L405 600 L405 42 L335 -10 L177 109 L378 109 L378 129 L150 129 L150 -100 L520 -100 L520 -7 L850 -7 L850 600 Z M830 13 L425 13 L425 580 L830 580 L830 13 Z M591 519 L498 519 L498 497 L591 497 L591 519 Z M758 440 L498 440 L498 418 L758 418 L758 440 Z M537 130 C513 130 503 137 494 146 L480 132 C488 123 502 113 524 111 L524 62 L544 73 L544 110 C564 113 582 128 582 148 C582 172 558 187 539 197 C517 208 510 213 510 226 C510 238 522 244 538 244 C552 244 560 240 572 230 L584 246 C573 255 561 262 544 264 L544 325 L524 314 L524 263 C506 259 490 247 490 226 C490 203 507 191 530 179 C549 169 562 160 562 148 C562 138 552 130 537 130 L537 130 Z M644 257 L760 257 L760 279 L644 279 L644 257 Z M644 205 L644 182 L737 182 L737 205 L644 205 Z M644 108 L749 108 L749 130 L644 130 L644 108 Z M170 -69 L170 89 L273 11 L170 -69 Z M381 -1 L480 -80 L189 -80 L289 -1 L335 -36 L381 -1 Z M500 -70 L420 -7 L500 -7 L500 -70 Z " />
<glyph glyph-name="f" unicode="f" horiz-adv-x="1000" d="M827 225 C660 221 453 376 382 392 L382 516 C382 579 346 605 306 605 C282 605 258 597 238 581 L150 507 L150 464 L217 464 C233 464 236 436 236 400 C236 351 225 288 225 267 C225 111 330 40 490 40 L518 40 L518 -49 L440 -49 L440 -69 L538 -69 L538 -35 L555 -35 L583 -69 L610 -69 L565 -15 L538 -15 L538 40 L550 40 C626 40 678 78 718 150 L850 150 L827 225 Z M217 484 L170 484 L170 497 L216 536 L235 517 L249 531 L231 549 L250 565 C266 578 287 586 305 586 C336 586 362 566 362 516 L362 392 C316 383 276 355 250 317 C253 342 255 372 255 400 C255 445 247 484 217 484 L217 484 Z M301 512 C313 512 323 522 323 534 C323 546 313 556 301 556 C289 556 279 546 279 534 C279 522 289 512 301 512 L301 512 Z M823 170 L556 170 C467 170 432 209 398 259 L382 247 C416 197 457 150 556 150 L695 150 C659 89 616 60 550 60 L490 60 C340 60 247 122 245 263 C264 321 312 365 374 374 C428 370 633 209 812 205 L823 170 Z " />
<glyph glyph-name="g" unicode="g" horiz-adv-x="1000" d="M800 250 C800 417 667 550 500 550 C333 550 200 417 200 250 C200 83 333 -50 500 -50 C667 -50 800 83 800 250 L800 250 Z M780 250 C780 94 656 -30 500 -30 C344 -30 220 94 220 250 C220 406 344 530 500 530 C656 530 780 406 780 250 L780 250 Z M507 457 L487 457 L487 244 L619 112 L632 129 L507 254 L507 457 Z " />
<glyph glyph-name="h" unicode="h" horiz-adv-x="1000" d="M258 518 L348 518 L348 496 C333 492 322 478 322 462 C322 442 339 425 359 425 C379 425 395 442 395 462 C395 479 384 493 368 497 L368 559 L348 559 L348 538 L238 538 L238 400 L258 400 L258 518 Z M623 497 C607 493 596 479 596 462 C596 442 612 425 632 425 C652 425 669 442 669 462 C669 478 658 492 643 496 L643 558 L623 558 L623 538 L395 538 L395 518 L623 518 L623 497 Z M739 400 L759 400 L759 538 L669 538 L669 518 L739 518 L739 400 Z M762 375 L235 375 L235 -50 L528 -50 L765 14 L762 375 Z M491 -25 L255 -25 L255 355 L491 355 L491 -25 Z M510 355 L742 355 L744 31 L540 -25 L510 -25 L510 355 Z M669 97 L588 97 C588 124 670 135 670 195 C670 231 649 246 620 246 C575 246 558 222 567 191 L592 191 C591 194 591 197 591 200 C591 209 597 220 615 220 C630 220 645 219 645 194 C645 155 563 142 563 89 L563 72 L669 72 L669 97 Z M388 97 L388 242 L367 242 C358 241 336 215 317 215 L317 203 C317 197 321 193 329 193 C341 193 353 198 361 202 L361 97 L330 97 L330 72 L415 72 L415 97 L388 97 Z M740 -37 L674 -34 L608 -52 L760 -57 L760 -10 L740 -16 L740 -37 Z " />
<glyph glyph-name="i" unicode="i" horiz-adv-x="1000" d="M451 458 L522 437 L548 522 C556 549 542 567 517 574 C483 583 457 588 435 563 C425 530 422 506 424 489 C426 475 434 463 451 458 L451 458 Z M732 458 L803 437 L829 522 C838 550 822 568 798 574 C764 583 738 588 716 563 C708 536 704 516 704 500 C704 482 711 464 732 458 L732 458 Z M192 445 L266 437 L276 525 C279 553 262 569 237 571 C202 574 176 574 159 546 L156 507 C153 469 162 448 192 445 L192 445 Z M735 553 C747 566 762 564 793 555 C810 550 814 544 809 528 L790 462 L737 477 C727 480 723 488 723 500 C723 513 728 531 735 553 L735 553 Z M453 553 C464 564 477 564 512 555 C528 551 533 542 529 528 L509 462 L457 477 C448 480 445 484 444 492 C442 506 445 526 453 553 L453 553 Z M195 465 C179 467 174 477 176 505 L179 539 C188 552 200 554 235 551 C251 550 258 542 256 527 L248 459 L195 465 Z M562 374 C560 409 535 422 501 422 C449 422 412 377 419 312 L433 175 L419 -72 C418 -90 427 -100 441 -100 L478 -100 L490 -24 L503 -100 L565 -100 L553 106 L569 252 L562 374 Z M850 252 L843 374 C841 409 816 422 782 422 C730 422 693 377 700 312 L714 175 L700 -72 C699 -90 707 -100 721 -100 L759 -100 L771 -22 L784 -100 L846 -100 L834 106 L850 252 Z M292 231 L292 355 C292 402 254 415 220 415 C164 415 146 347 151 311 L164 214 L152 -75 C151 -88 161 -103 176 -103 L222 -103 L248 121 C253 127 258 134 262 142 L278 -83 L250 -83 L250 -103 L300 -103 L280 175 C287 192 292 211 292 231 L292 231 Z M537 135 L523 140 C515 143 513 147 512 155 L500 329 L480 327 L492 153 C493 142 500 131 509 125 L479 43 L460 -78 L444 -78 C441 -78 439 -77 439 -72 L453 175 L439 314 C433 369 461 402 501 402 C528 402 541 395 542 372 L549 252 L537 135 Z M818 135 L804 140 C796 143 794 147 793 155 L781 329 L761 327 L773 153 C774 142 781 131 790 125 L760 43 L741 -80 L724 -80 C722 -80 720 -79 720 -74 L734 175 L720 314 C715 368 742 402 782 402 C809 402 822 395 823 372 L830 252 L818 135 Z M220 395 C250 395 272 388 272 355 L272 316 C272 302 267 291 261 278 L221 191 C218 184 208 181 204 185 L197 192 L229 285 L226 347 L206 347 L209 287 L184 213 L171 313 C167 346 177 395 220 395 L220 395 Z M228 129 L204 -83 L176 -83 C174 -83 171 -81 171 -74 L183 178 L190 171 C206 156 228 161 236 178 L272 255 L272 231 C272 189 251 157 228 129 L228 129 Z M523 -80 L499 39 L526 117 L534 114 L545 -80 L523 -80 Z M804 -80 L780 39 L807 117 L815 114 L826 -80 L804 -80 Z " />
<glyph glyph-name="j" unicode="j" horiz-adv-x="1000" d="M206 415 L434 415 L434 435 L416 435 C413 444 406 463 406 479 C406 496 413 516 416 524 L434 524 L434 544 L206 544 C171 544 150 513 150 480 C150 447 171 415 206 415 L206 415 Z M206 524 L395 524 C392 515 388 503 387 490 L171 490 C174 510 187 524 206 524 L206 524 Z M206 435 C187 435 174 450 171 470 L387 470 C388 457 392 444 395 435 L206 435 Z M850 -25 L811 425 C810 439 798 449 784 448 L675 438 C661 437 651 425 652 411 L692 -40 C693 -54 705 -64 719 -63 L828 -53 C842 -52 852 -40 850 -25 L850 -25 Z M607 444 L498 444 C484 444 473 433 473 419 L473 213 L154 213 L154 193 L473 193 L473 143 L154 143 L154 123 L473 123 L473 73 L154 73 L154 53 L473 53 L473 3 L154 3 L154 -17 L473 -17 L473 -34 C473 -48 484 -59 498 -59 L607 -59 C621 -59 632 -48 632 -33 L632 419 C632 433 621 444 607 444 L607 444 Z M826 -33 L717 -43 C714 -43 712 -42 712 -38 L672 413 C672 416 674 418 677 418 L786 428 C789 428 791 427 791 423 L830 -27 C831 -31 829 -33 826 -33 L826 -33 Z M612 -33 C612 -37 610 -39 607 -39 L498 -39 C495 -39 493 -37 493 -34 L493 419 C493 422 495 424 498 424 L607 424 C610 424 612 422 612 419 L612 -33 Z M206 253 L434 253 L434 273 L416 273 C413 282 406 301 406 317 C406 333 413 352 416 361 L434 361 L434 381 L206 381 C171 381 150 350 150 317 C150 284 171 253 206 253 L206 253 Z M553 329 C565 329 575 339 575 351 C575 363 565 373 553 373 C541 373 531 363 531 351 C531 339 541 329 553 329 L553 329 Z M739 329 C751 329 761 339 761 351 C761 363 751 373 739 373 C727 373 717 363 717 351 C717 339 727 329 739 329 L739 329 Z M206 361 L395 361 C392 352 388 339 387 327 L171 327 C174 347 187 361 206 361 L206 361 Z M206 273 C187 273 174 287 171 307 L387 307 C388 295 392 282 395 273 L206 273 Z M731 148 L742 14 L791 18 L780 152 L731 148 Z M528 15 L577 15 L577 150 L528 150 L528 15 Z " />
<glyph glyph-name="k" unicode="k" horiz-adv-x="1000" d="M635 332 C625 356 596 366 571 366 C551 366 533 358 531 344 L520 278 L516 278 L481 479 L496 528 C506 563 482 588 454 588 C449 588 446 587 442 586 C432 595 420 597 407 597 C380 597 362 570 365 545 L376 455 L313 291 L305 233 C304 229 302 224 301 219 L285 143 C273 88 327 30 340 17 L340 -100 L360 -100 L360 25 C329 53 298 107 305 140 L321 215 C329 247 347 258 380 258 L546 258 C543 221 525 199 489 199 L395 199 L380 122 L400 118 L411 179 L489 179 C498 179 506 180 513 182 L512 175 C508 146 547 126 580 126 C590 126 600 128 608 132 C618 118 638 109 656 109 L656 87 C656 58 642 34 613 13 L613 -100 L633 -100 L633 4 C645 13 676 41 676 87 L676 111 C688 115 697 123 699 138 L716 277 C720 313 683 337 654 337 C647 337 640 335 635 332 L635 332 Z M385 547 C383 562 393 577 409 577 C415 577 420 577 425 574 C421 570 418 565 416 559 L391 494 L385 547 Z M330 265 L333 287 L434 551 C438 561 446 567 454 567 C471 567 484 554 478 535 L401 278 L380 278 C361 278 344 275 330 265 L330 265 Z M495 278 L421 278 L468 434 L495 278 Z M618 307 L601 155 C600 149 592 146 582 146 C561 146 530 158 532 173 L535 192 C558 209 568 241 566 278 L541 278 L552 340 C552 344 559 346 568 346 C589 346 621 335 618 307 L618 307 Z M696 279 L679 140 C678 132 670 129 661 129 C643 129 620 140 621 153 L638 304 C639 312 645 316 654 316 C672 316 699 301 696 279 L696 279 Z " />
<glyph glyph-name="l" unicode="l" horiz-adv-x="1000" d="M463 430 C478 432 516 444 523 459 C529 473 536 533 536 560 C524 588 496 600 463 600 C429 600 402 587 389 560 C389 532 397 473 403 459 C410 444 448 432 463 430 L463 430 Z M463 580 C490 580 508 572 516 556 C516 529 510 482 506 469 C499 462 479 453 463 450 C448 453 424 462 421 469 C417 483 410 529 409 555 C419 572 437 580 463 580 L463 580 Z M381 495 L371 556 L351 552 L361 491 L381 495 Z M575 552 L555 556 L545 495 L565 491 L575 552 Z M704 108 L639 233 L630 327 C626 368 581 407 531 413 L370 431 C336 435 299 407 297 363 L292 248 C290 203 302 185 347 181 L327 -100 L347 -100 L367 179 L461 172 L479 172 C483 121 519 94 560 46 L566 -100 L586 -99 L581 20 C605 -16 618 -58 618 -102 L638 -102 C638 -51 624 -1 592 39 C552 88 503 128 499 172 L501 172 C519 172 530 185 530 197 L530 235 C530 253 515 259 500 259 L482 259 L482 309 C494 313 502 325 502 338 C502 355 489 368 472 368 C455 368 441 355 441 338 C441 324 450 313 462 309 L462 260 L394 269 L396 307 L376 307 L374 251 L467 239 L500 239 C508 239 510 237 510 235 L510 197 C510 194 509 192 501 192 L462 192 L347 201 C314 204 311 214 312 247 L317 361 C318 395 346 414 370 411 L529 393 C564 389 606 360 610 325 L620 227 L686 99 C693 86 685 74 672 70 L659 66 L574 183 L574 279 L554 288 L554 182 L558 99 L579 75 L576 147 L651 43 L678 51 C702 58 716 84 704 108 L704 108 Z M435 73 L407 -100 L427 -100 L453 53 L456 53 L481 -100 L501 -100 L472 73 L435 73 Z " />
<glyph glyph-name="m" unicode="m" horiz-adv-x="1000" d="M800 358 L551 358 L551 550 C551 576 527 600 501 600 L200 600 C174 600 150 576 150 550 L150 309 C150 283 174 259 200 259 L254 259 L254 142 L293 142 L378 259 L462 259 L462 68 C462 42 486 18 512 18 L560 18 L646 -100 L684 -100 L684 18 L800 18 C826 18 850 42 850 68 L850 308 C850 334 826 358 800 358 L800 358 Z M368 279 L283 162 L274 162 L274 279 L200 279 C184 279 170 293 170 309 L170 550 C170 566 184 580 200 580 L501 580 C517 580 531 566 531 550 L531 309 C531 293 517 279 501 279 L368 279 Z M341 509 C317 509 302 495 297 490 L293 504 L282 504 L282 354 L302 354 L302 463 C309 478 324 489 341 489 C359 489 379 480 379 459 L379 354 L399 354 L399 459 C399 488 375 509 341 509 L341 509 Z M830 68 C830 52 816 38 800 38 L664 38 L664 -80 L656 -80 L570 38 L512 38 C496 38 482 52 482 68 L482 259 L501 259 C527 259 551 283 551 309 L551 338 L800 338 C816 338 830 324 830 308 L830 68 Z M709 130 C709 116 696 103 682 103 L626 103 L626 189 C643 194 657 211 657 229 C657 251 637 271 616 271 C594 271 574 251 574 229 C574 211 588 194 606 189 L606 103 L578 103 L578 83 L682 83 C706 83 729 106 729 130 L729 261 L709 261 L709 130 Z M594 229 C594 241 604 251 616 251 C627 251 637 241 637 229 C637 218 627 208 616 208 C604 208 594 218 594 229 L594 229 Z " />
<glyph glyph-name="n" unicode="n" horiz-adv-x="1000" d="M800 358 L551 358 L551 550 C551 576 527 600 501 600 L200 600 C174 600 150 576 150 550 L150 309 C150 283 174 259 200 259 L254 259 L254 142 L293 142 L378 259 L462 259 L462 68 C462 42 486 18 512 18 L560 18 L646 -100 L684 -100 L684 18 L800 18 C826 18 850 42 850 68 L850 308 C850 334 826 358 800 358 L800 358 Z M368 279 L283 162 L274 162 L274 279 L200 279 C184 279 170 293 170 309 L170 550 C170 566 184 580 200 580 L501 580 C517 580 531 566 531 550 L531 309 C531 293 517 279 501 279 L368 279 Z M355 509 L355 555 L335 555 L335 509 C298 504 268 471 268 433 C268 395 298 362 335 357 L335 311 L355 311 L355 357 C392 362 423 395 423 433 C423 471 392 504 355 509 L355 509 Z M288 433 C288 461 309 484 335 489 L335 377 C309 382 288 405 288 433 L288 433 Z M355 377 L355 489 C382 484 403 461 403 433 C403 405 382 382 355 377 L355 377 Z M830 68 C830 52 816 38 800 38 L664 38 L664 -80 L656 -80 L570 38 L512 38 C496 38 482 52 482 68 L482 259 L501 259 C527 259 551 283 551 309 L551 338 L800 338 C816 338 830 324 830 308 L830 68 Z M664 263 C640 263 625 249 620 244 L616 258 L605 258 L605 108 L625 108 L625 217 C632 232 647 243 664 243 C682 243 702 234 702 213 L702 108 L722 108 L722 213 C722 242 698 263 664 263 L664 263 Z " />
<glyph glyph-name="o" unicode="o" horiz-adv-x="1000" d="M203 481 L254 481 C286 481 296 516 287 533 L259 585 C252 598 245 605 229 605 C196 605 178 600 164 575 L164 528 C164 499 175 481 203 481 L203 481 Z M565 481 L616 481 C648 481 658 516 649 533 L621 585 C614 598 607 605 591 605 C558 605 540 600 526 575 L526 528 C526 499 537 481 565 481 L565 481 Z M756 481 L807 481 C839 481 849 516 840 533 L812 585 C805 598 798 605 782 605 C749 605 731 600 717 575 L717 528 C717 499 728 481 756 481 L756 481 Z M381 496 L444 496 L444 568 C444 593 429 604 407 604 C378 604 356 601 344 576 C344 547 346 527 350 515 C354 504 367 496 381 496 L381 496 Z M203 501 C189 501 184 507 184 528 L184 569 C192 582 202 585 229 585 C235 585 236 585 241 576 L269 524 C274 515 266 501 254 501 L203 501 Z M565 501 C551 501 546 507 546 528 L546 569 C554 582 564 585 591 585 C597 585 598 585 603 576 L631 524 C636 515 628 501 616 501 L565 501 Z M756 501 C742 501 737 507 737 528 L737 569 C745 582 755 585 782 585 C788 585 789 585 794 576 L822 524 C827 515 819 501 807 501 L756 501 Z M381 516 C375 516 370 519 369 522 C366 530 364 549 364 571 C370 581 380 584 407 584 C420 584 424 580 424 568 L424 516 L381 516 Z M439 261 C444 285 447 303 447 329 L427 310 C425 285 416 269 411 229 L388 60 L372 60 C369 60 367 62 367 65 L369 280 L449 366 L449 426 C449 455 428 466 403 466 C371 466 341 451 343 413 L349 297 L347 61 C347 49 356 40 368 40 L406 40 L426 193 L439 60 L429 60 L427 40 L461 40 L439 261 Z M288 401 C287 431 256 451 227 451 C198 451 145 420 154 371 L169 288 L163 253 L185 263 L232 314 C242 324 250 342 249 357 L248 385 L228 384 L229 359 C229 348 225 337 217 328 L188 297 L174 373 C168 408 206 431 227 431 C248 431 267 418 268 401 L277 179 L174 179 L181 233 L160 223 L150 159 L173 159 L177 59 C177 47 188 36 199 36 L242 36 L242 159 L268 159 L268 43 L288 43 L288 159 L297 159 L288 401 Z M650 401 C649 431 618 451 589 451 C560 451 507 420 516 371 L531 288 L525 253 L547 263 L594 314 C604 324 612 342 611 357 L610 385 L590 384 L591 359 C591 348 587 337 579 328 L550 297 L536 373 C530 408 568 431 589 431 C610 431 629 418 630 401 L639 179 L536 179 L543 233 L522 223 L512 159 L535 159 L539 59 C539 47 550 36 561 36 L604 36 L604 159 L630 159 L630 43 L650 43 L650 159 L659 159 L650 401 Z M841 401 C840 431 809 451 780 451 C751 451 698 420 707 371 L722 288 L716 253 L738 263 L785 314 C795 324 803 342 802 357 L801 385 L781 384 L782 359 C782 348 778 337 770 328 L741 297 L727 373 C721 408 759 431 780 431 C801 431 820 418 821 401 L830 179 L727 179 L734 233 L713 223 L703 159 L726 159 L730 59 C730 47 741 36 752 36 L795 36 L795 159 L821 159 L821 43 L841 43 L841 159 L850 159 L841 401 Z M363 414 C362 436 377 445 401 445 C418 445 429 439 429 426 L429 374 L368 310 L363 414 Z M222 56 L198 56 L194 159 L222 159 L222 56 Z M584 56 L560 56 L556 159 L584 159 L584 56 Z M775 56 L751 56 L747 159 L775 159 L775 56 Z " />
<glyph glyph-name="p" unicode="p" horiz-adv-x="1000" d="M637 463 L700 463 C719 463 730 473 736 487 C743 504 746 535 746 577 C730 607 709 611 669 611 C649 611 639 602 632 588 L599 524 C589 504 601 463 637 463 L637 463 Z M637 483 C622 483 611 503 617 515 L650 579 C655 589 659 591 669 591 C706 591 716 588 726 572 C726 533 723 507 718 495 C714 486 709 483 700 483 L637 483 Z M768 230 L716 292 L650 426 C646 435 641 443 634 446 L593 461 C562 472 542 460 525 451 L456 415 C440 407 427 394 418 378 L370 289 C363 275 367 255 384 248 L403 240 L393 224 L348 242 C325 252 296 238 287 215 L227 59 C218 36 231 6 253 -3 L307 -25 C330 -34 360 -22 369 1 L429 158 C437 178 429 203 411 215 L475 329 L515 345 L480 242 L448 83 C452 81 456 80 460 78 L455 49 L382 -81 L416 -96 C437 -105 461 -97 476 -72 L552 53 L552 64 C562 65 570 66 579 68 L604 -100 L648 -100 C660 -100 670 -91 669 -78 L662 73 L670 70 L634 228 L639 267 L660 229 L742 164 L762 180 C776 192 780 216 768 230 L768 230 Z M641 97 C595 101 570 83 530 83 C513 83 494 86 470 95 L500 238 L547 379 L461 345 L414 257 L390 266 C385 268 384 272 388 279 L436 368 C443 382 452 390 465 397 L535 433 C551 441 566 448 587 441 L626 429 C635 420 647 385 647 359 C647 350 646 343 643 337 L622 295 L614 226 L641 97 Z M750 196 L742 190 L676 243 L646 298 L661 330 C663 337 664 344 665 352 L700 282 L752 218 C758 210 758 202 750 196 L750 196 Z M411 165 L351 9 C346 -4 328 -12 315 -7 L261 15 C248 20 240 38 245 51 L305 208 C310 222 327 229 340 224 L395 202 C408 197 416 179 411 165 L411 165 Z M643 -79 L620 -79 L599 72 C613 75 627 78 642 77 L648 -74 C648 -77 646 -79 643 -79 L643 -79 Z M460 -60 C449 -78 434 -83 424 -78 L410 -71 L475 43 L480 71 C500 66 517 64 532 63 L532 59 L460 -60 Z M272 -100 C286 -100 297 -89 297 -75 C297 -61 286 -50 272 -50 C258 -50 247 -61 247 -75 C247 -89 258 -100 272 -100 L272 -100 Z " />
<glyph glyph-name="q" unicode="q" horiz-adv-x="1000" d="M850 600 L405 600 L405 42 L335 -10 L177 109 L378 109 L378 129 L150 129 L150 -100 L520 -100 L520 -7 L850 -7 L850 600 Z M830 13 L425 13 L425 580 L830 580 L830 13 Z M593 519 L500 519 L500 497 L593 497 L593 519 Z M760 440 L500 440 L500 418 L760 418 L760 440 Z M593 361 L500 361 L500 338 L593 338 L593 361 Z M518 190 L544 198 C558 229 591 252 625 252 C643 252 658 247 672 239 L698 247 C677 265 652 274 625 274 C578 274 530 241 518 190 L518 190 Z M769 227 L763 247 L474 155 L480 135 L769 227 Z M488 79 L777 171 L771 191 L482 99 L488 79 Z M706 126 C691 95 660 75 626 75 C610 75 595 79 582 87 L554 78 C575 61 600 52 626 52 C676 52 720 86 733 135 L706 126 Z M170 -69 L170 89 L273 11 L170 -69 Z M381 -1 L480 -80 L189 -80 L289 -1 L335 -36 L381 -1 Z M500 -70 L420 -7 L500 -7 L500 -70 Z " />
<glyph glyph-name="r" unicode="r" horiz-adv-x="1000" d="M850 600 L405 600 L405 42 L335 -10 L177 109 L385 109 L385 129 L150 129 L150 -100 L520 -100 L520 -7 L850 -7 L850 600 Z M830 13 L425 13 L425 580 L830 580 L830 13 Z M601 519 L507 519 L507 497 L601 497 L601 519 Z M768 440 L507 440 L507 418 L768 418 L768 440 Z M768 361 L507 361 L507 338 L768 338 L768 361 Z M768 282 L507 282 L507 259 L768 259 L768 282 Z M768 203 L507 203 L507 180 L768 180 L768 203 Z M663 101 L768 101 L768 123 L663 123 L663 101 Z M170 -69 L170 89 L273 11 L170 -69 Z M381 -1 L480 -80 L189 -80 L289 -1 L335 -36 L381 -1 Z M500 -70 L420 -7 L500 -7 L500 -70 Z " />
<glyph glyph-name="s" unicode="s" horiz-adv-x="1000" d="M710 -54 L695 100 C691 143 648 179 605 180 C588 191 567 198 545 201 C569 205 588 226 588 251 L589 444 C594 450 599 457 602 466 L615 506 L593 506 L582 472 C577 483 568 490 559 491 L497 500 L497 445 L457 453 L473 559 C476 582 498 596 519 596 C542 596 592 576 605 551 L563 556 L561 536 L673 522 L675 542 L627 548 C618 585 557 617 519 617 C488 617 457 594 453 563 L435 437 L497 424 L497 386 L482 404 C470 419 451 430 431 430 C407 430 379 418 356 389 C315 338 290 267 290 206 C290 135 323 76 400 76 L552 76 L552 -104 L604 -104 C629 -104 636 -83 637 -68 L646 103 C647 122 642 139 633 153 C655 142 673 121 675 98 L690 -56 C691 -66 686 -73 675 -73 L659 -73 L657 -93 L675 -93 C700 -93 712 -72 710 -54 L710 -54 Z M626 105 L617 -66 C616 -79 615 -84 604 -84 L572 -84 L572 96 L400 96 C337 96 309 145 309 206 C309 261 332 328 372 377 C391 400 412 411 431 411 C445 411 459 401 468 390 L497 354 L497 316 L517 316 L517 476 L555 471 C562 470 569 464 569 451 L568 251 C568 233 555 218 537 218 C524 218 510 225 496 242 L453 296 L437 284 L480 230 C491 216 503 208 515 203 L442 210 L440 190 L540 181 C590 176 628 149 626 105 L626 105 Z M344 28 L399 28 L399 -95 L469 -95 L469 28 L523 28 L523 48 L344 48 L344 28 Z M449 -75 L419 -75 L419 28 L449 28 L449 -75 Z " />
<glyph glyph-name="t" unicode="t" horiz-adv-x="1000" d="M850 600 L405 600 L405 42 L335 -10 L177 109 L378 109 L378 129 L150 129 L150 -100 L520 -100 L520 -7 L850 -7 L850 600 Z M830 13 L425 13 L425 580 L830 580 L830 13 Z M601 519 L508 519 L508 496 L601 496 L601 519 Z M768 439 L508 439 L508 417 L768 417 L768 439 Z M638 336 C573 336 520 283 520 218 C520 153 571 100 638 100 C703 100 756 153 756 218 C756 283 703 336 638 336 L638 336 Z M638 122 C585 122 542 165 542 218 C542 271 585 314 638 314 C691 314 734 271 734 218 C734 165 691 122 638 122 L638 122 Z M675 273 L638 236 L600 273 L583 255 L620 218 L583 181 L600 163 L638 200 L675 163 L693 181 L656 218 L693 255 L675 273 Z M170 -69 L170 89 L273 11 L170 -69 Z M381 -1 L480 -80 L189 -80 L289 -1 L335 -36 L381 -1 Z M500 -70 L420 -7 L500 -7 L500 -70 Z " />
<glyph glyph-name="u" unicode="u" horiz-adv-x="1000" d="M355 333 C352 326 332 274 325 214 L330 62 L312 -86 L269 -86 L273 61 L254 178 L234 174 L253 59 L249 -86 L212 -86 L175 211 C175 215 173 239 173 247 C173 351 232 442 268 436 L387 416 C399 414 402 408 403 400 L429 250 L501 238 C510 237 518 225 518 211 L397 211 L397 191 L540 191 C540 226 531 251 505 259 L495 332 L475 330 L485 262 L447 268 L422 407 C432 416 450 465 456 490 L453 500 C492 547 549 577 614 577 C729 577 822 483 822 369 L822 364 L779 380 L771 362 L822 342 L822 209 L733 209 L733 226 C733 244 723 258 704 263 L704 379 C722 383 743 394 746 404 C749 413 754 463 754 484 C744 507 721 518 694 518 C668 518 644 507 634 484 C634 462 641 414 645 404 C649 394 669 384 684 379 L684 266 L648 270 L633 323 L613 317 L632 252 L697 244 C710 242 713 238 713 226 L713 209 L585 209 L564 340 C561 357 572 368 584 368 L604 368 L604 388 L584 388 C560 388 540 365 544 337 L567 189 L842 189 L842 369 C842 493 739 597 614 597 C546 597 484 566 442 518 C431 531 415 541 395 546 C363 554 333 547 315 524 C309 507 305 473 305 450 L270 456 C222 464 153 364 153 251 C153 244 154 216 155 209 L194 -106 L330 -106 L350 62 L345 214 C352 270 370 318 373 325 L355 333 Z M325 447 C324 460 329 499 333 514 C347 529 364 533 390 526 C416 519 430 509 436 490 C430 466 425 446 411 426 C406 432 398 434 390 436 L325 447 Z M654 480 C662 493 674 498 694 498 C715 498 726 493 734 480 C734 458 728 418 726 410 C718 404 708 399 694 397 C681 400 668 405 663 410 C660 418 654 458 654 480 L654 480 Z M384 149 L384 129 L847 129 L847 149 L384 149 Z " />
<glyph glyph-name="v" unicode="v" horiz-adv-x="1000" d="M850 153 L763 140 C734 136 694 147 655 174 C616 200 578 241 551 298 L494 298 C475 275 444 246 409 246 C393 246 373 253 364 264 L462 356 C478 371 485 376 516 386 L591 410 C605 415 610 413 620 408 L788 325 L850 325 L850 345 L792 345 L628 426 C618 431 606 436 585 429 L502 402 L408 424 C388 428 365 424 348 414 L239 351 C220 340 210 337 196 337 L150 337 L150 317 L196 317 C214 317 229 321 249 333 L358 396 C373 405 388 408 404 404 L473 389 C464 383 455 377 448 370 L337 265 L349 251 C362 235 390 226 410 226 C448 226 482 255 503 278 L539 278 C567 224 606 183 644 157 C675 136 699 127 725 122 L714 95 C708 81 695 78 678 86 L578 142 L568 124 L659 73 L650 58 C646 51 630 41 619 46 L529 93 C523 102 514 113 497 113 C490 113 482 111 475 107 C473 127 460 139 441 139 C434 139 426 137 419 134 C419 154 404 167 384 167 C371 167 359 162 346 150 C344 162 331 179 311 179 C298 179 283 173 274 163 L252 141 C250 139 248 137 247 135 L150 158 L150 137 L238 116 C233 94 243 70 272 70 C278 70 284 72 290 74 C292 53 306 40 328 40 C335 40 341 41 347 44 C349 28 361 12 383 12 C393 12 404 15 413 22 C415 8 428 -6 450 -6 C462 -6 474 -1 484 9 L494 19 L531 3 C552 -6 582 0 596 20 L604 32 L610 28 C633 17 660 33 668 48 L677 65 C700 58 722 64 732 87 L746 119 C752 119 759 119 765 120 L850 134 L850 153 Z M273 90 C262 90 256 95 256 105 C256 112 259 121 266 127 L288 149 C294 155 302 159 309 159 C317 159 325 156 325 142 C325 135 322 127 316 121 L294 99 C288 93 280 90 273 90 L273 90 Z M328 60 C321 60 312 63 312 76 C312 83 315 91 321 97 L362 138 C369 145 376 147 383 147 C394 147 399 142 399 131 C399 124 398 118 390 110 L348 69 C342 63 334 60 328 60 L328 60 Z M384 32 C378 32 368 35 368 48 C368 55 371 63 377 69 L418 110 C424 116 432 119 439 119 C445 119 455 114 455 104 C455 98 456 92 449 85 L405 41 C399 35 391 32 384 32 L384 32 Z M470 23 C464 17 456 14 449 14 C439 14 433 19 433 29 C433 36 436 44 443 51 L475 83 C481 89 489 92 496 92 C506 92 512 87 512 77 C512 70 509 61 502 55 L470 23 Z M580 32 C570 18 554 15 539 21 L509 34 L516 41 C524 49 529 59 531 69 L586 41 L580 32 Z " />
<glyph glyph-name="w" unicode="w" horiz-adv-x="1000" d="M850 600 L405 600 L405 42 L335 -10 L177 109 L378 109 L378 129 L150 129 L150 -100 L520 -100 L520 -9 L850 -9 L850 600 Z M830 11 L425 11 L425 580 L830 580 L830 11 Z M592 517 L498 517 L498 495 L592 495 L592 517 Z M758 438 L498 438 L498 416 L758 416 L758 438 Z M592 359 L498 359 L498 336 L592 336 L592 359 Z M617 268 C617 241 632 214 654 198 L642 61 L703 84 L765 61 L751 197 C774 213 790 240 790 268 C790 313 749 354 703 354 C658 354 617 313 617 268 L617 268 Z M770 268 C770 233 738 201 703 201 C669 201 637 233 637 268 C637 303 668 334 703 334 C739 334 770 303 770 268 L770 268 Z M670 268 C670 249 685 234 704 234 C722 234 737 249 737 268 C737 286 722 301 704 301 C685 301 670 286 670 268 L670 268 Z M742 91 L703 106 L665 91 L673 187 C683 183 693 181 703 181 C713 181 723 183 732 187 L742 91 Z M170 -69 L170 89 L273 11 L170 -69 Z M381 -1 L480 -80 L189 -80 L289 -1 L335 -36 L381 -1 Z M500 -70 L422 -9 L500 -9 L500 -70 Z " />
<glyph glyph-name="x" unicode="x" horiz-adv-x="1000" d="M784 34 L714 18 C668 9 587 53 543 139 L488 139 L429 94 C421 88 410 89 404 97 L392 111 L470 178 C482 189 499 197 524 204 L575 219 C588 223 588 223 597 219 L740 155 L786 155 L786 175 L763 175 L763 600 L279 600 L279 176 C268 170 260 168 251 168 L214 168 L214 148 L251 148 C266 148 278 152 294 161 L384 210 C395 216 408 218 421 215 L467 204 L364 113 L391 83 C404 68 425 66 441 78 L496 119 L531 119 C569 51 630 9 680 -1 L673 -15 C669 -23 658 -26 646 -20 L564 22 L554 4 L627 -33 L622 -41 C618 -46 606 -54 598 -50 L517 -10 C506 -5 493 -4 481 -10 C478 5 465 12 453 12 C445 12 437 10 430 6 C427 18 417 28 402 28 C391 28 379 24 370 15 L367 12 C364 25 352 34 338 34 C327 34 315 29 307 20 L302 15 L216 34 L212 14 L285 -2 L281 -6 C272 -14 272 -26 281 -35 L293 -47 C303 -57 323 -57 334 -47 L347 -60 C356 -69 374 -70 385 -63 L398 -76 C406 -84 423 -86 434 -80 L447 -93 C457 -103 479 -103 489 -93 L504 -78 L525 -87 C544 -95 568 -90 580 -74 L586 -66 L590 -68 C609 -77 630 -65 638 -53 L646 -41 C664 -46 683 -40 691 -23 L701 -3 C707 -3 712 -3 718 -2 L788 14 L784 34 Z M425 235 C408 239 390 236 375 228 L299 186 L299 580 L743 580 L743 175 L605 237 C597 241 587 243 569 238 L502 218 L425 235 Z M665 528 L377 528 L377 508 L665 508 L665 528 Z M665 441 L377 441 L377 421 L665 421 L665 441 Z M625 380 C596 380 573 356 573 328 C573 299 596 276 625 276 C654 276 677 299 677 328 C677 356 654 380 625 380 L625 380 Z M625 296 C606 296 593 309 593 328 C593 346 607 360 625 360 C643 360 657 346 657 328 C657 309 644 296 625 296 L625 296 Z M377 335 L506 335 L506 355 L377 355 L377 335 Z M307 -33 L301 -27 C297 -23 297 -18 302 -13 L321 6 C330 15 341 15 345 11 C350 7 349 -6 341 -13 L321 -33 C317 -37 311 -37 307 -33 L307 -33 Z M361 -46 L356 -41 C352 -37 352 -31 356 -27 L384 0 C392 9 404 10 409 5 C412 2 411 -11 403 -19 L375 -46 C371 -50 365 -50 361 -46 L361 -46 Z M412 -62 L407 -57 C403 -53 403 -47 407 -43 L434 -16 C443 -7 455 -6 460 -10 C463 -13 462 -25 453 -35 L426 -62 C422 -66 416 -66 412 -62 L412 -62 Z M475 -79 C471 -83 465 -83 461 -79 L456 -74 C452 -70 452 -64 456 -60 L483 -33 C492 -24 504 -24 508 -28 C512 -31 511 -43 503 -52 L475 -79 Z M564 -62 C558 -72 545 -74 533 -69 L519 -63 C525 -56 529 -48 530 -39 L567 -57 L564 -62 Z " />
<glyph glyph-name="y" unicode="y" horiz-adv-x="1000" d="M850 600 L405 600 L405 42 L335 -10 L177 109 L378 109 L378 129 L150 129 L150 -100 L520 -100 L520 -7 L850 -7 L850 600 Z M830 13 L425 13 L425 580 L830 580 L830 13 Z M598 527 L505 527 L505 504 L598 504 L598 527 Z M765 447 L505 447 L505 425 L765 425 L765 447 Z M635 344 C570 344 517 291 517 226 C517 161 570 108 635 108 C700 108 753 161 753 226 C753 291 700 344 635 344 L635 344 Z M635 130 C582 130 539 173 539 226 C539 279 582 322 635 322 C688 322 731 279 731 226 C731 173 688 130 635 130 L635 130 Z M613 192 L578 227 L561 209 L596 174 C608 162 621 164 631 174 L706 249 L688 267 L613 192 Z M170 -69 L170 89 L273 11 L170 -69 Z M381 -1 L480 -80 L189 -80 L289 -1 L335 -36 L381 -1 Z M500 -70 L420 -7 L500 -7 L500 -70 Z " />
<glyph glyph-name="z" unicode="z" horiz-adv-x="1000" d="M501 377 C515 379 550 388 556 401 C561 413 567 462 567 484 C556 507 531 518 501 518 C470 518 445 507 434 484 C434 462 440 414 446 401 C452 388 486 379 501 377 L501 377 Z M501 397 C486 400 468 407 464 411 C460 421 455 457 454 479 C462 491 478 498 501 498 C523 498 539 491 547 479 C546 458 542 422 538 411 C533 406 515 400 501 397 L501 397 Z M742 281 L808 281 C845 281 858 321 847 342 L813 410 C806 424 794 434 775 434 C734 434 712 430 696 397 L696 335 C696 312 713 281 742 281 L742 281 Z M224 286 C244 286 270 301 273 331 L280 393 C269 419 227 431 202 431 C176 431 151 406 151 380 L151 286 L224 286 Z M742 301 C728 301 716 317 716 335 L716 392 C726 410 737 414 775 414 C785 414 790 410 795 401 L829 333 C836 320 825 301 808 301 L742 301 Z M224 306 L171 306 L171 380 C171 395 187 411 202 411 C225 411 251 401 259 389 L253 333 C251 317 239 306 224 306 L224 306 Z M633 165 C626 224 621 276 609 337 C595 340 549 351 500 351 C454 351 405 339 391 335 C379 275 374 223 367 165 L387 165 C393 219 398 265 408 319 C429 324 465 331 500 331 C536 331 571 323 592 319 C602 265 607 219 613 165 L633 165 Z M708 192 L692 144 L297 144 L297 156 C297 208 273 256 223 256 L150 256 L150 236 L223 236 C259 236 276 202 276 156 L276 88 L359 0 L681 0 L712 34 L707 125 L727 186 C736 214 759 227 795 227 L850 227 L850 247 L795 247 C754 247 719 228 708 192 L708 192 Z M229 54 L229 159 L209 159 L209 44 L240 19 L232 0 L296 0 L229 54 Z M779 32 L737 0 L799 0 L799 125 L779 125 L779 32 Z M672 20 L368 20 L296 96 L296 124 L687 124 L692 41 L672 20 Z " />
<glyph glyph-name="braceleft" unicode="&#x7b;" horiz-adv-x="1000" d="M397 389 L408 420 L416 420 C446 420 468 442 468 470 C468 498 446 520 418 520 C409 520 401 518 394 514 C377 528 339 544 319 544 C288 544 257 524 251 492 L228 365 L320 343 C345 337 383 350 397 389 L397 389 Z M319 523 C332 523 364 510 378 500 C373 494 370 486 369 479 L271 489 C276 509 297 523 319 523 L319 523 Z M418 440 C401 440 388 453 388 470 C388 487 401 500 418 500 C435 500 448 487 448 470 C448 453 435 440 418 440 L418 440 Z M266 469 L369 459 C372 445 381 435 390 428 L379 395 C370 368 341 359 324 363 L250 381 L266 469 Z M406 148 L549 130 L561 156 L647 156 C669 156 685 177 685 194 L685 299 L665 299 L665 237 L474 237 L340 316 L281 332 C243 342 171 340 167 261 L150 -39 L170 -41 L187 259 C190 319 241 321 276 312 L332 298 L468 217 L549 217 L549 176 L537 152 L410 168 L279 207 L273 187 L340 167 L341 -40 L361 -40 L360 161 L406 148 Z M569 217 L665 217 L665 194 C665 186 657 176 647 176 L569 176 L569 217 Z M821 28 L733 62 L703 65 C691 98 658 123 622 123 C585 123 553 98 540 65 L500 62 L422 28 C402 19 393 8 393 -11 C393 -31 412 -51 433 -51 L810 -51 C831 -51 850 -31 850 -11 C850 8 839 21 821 28 L821 28 Z M622 103 C658 103 688 72 688 36 C688 -1 658 -31 622 -31 C585 -31 555 -1 555 36 C555 72 585 103 622 103 L622 103 Z M433 -31 C423 -31 413 -21 413 -11 C413 0 415 3 430 10 L504 42 L535 44 L535 36 C535 9 548 -15 567 -31 L433 -31 Z M810 -31 L676 -31 C695 -15 708 9 708 36 L708 44 L729 42 L813 10 C826 5 830 -2 830 -11 C830 -21 824 -31 810 -31 L810 -31 Z M413 -100 L829 -100 L829 -80 L413 -80 L413 -100 Z " />
<glyph glyph-name="braceright" unicode="&#x7d;" horiz-adv-x="1000" d="M469 444 L478 467 L460 475 L451 452 C440 424 413 415 396 419 L322 437 L342 544 C346 565 369 579 390 579 C415 579 466 555 476 528 L471 512 L432 527 L424 509 L506 478 L514 496 L489 505 L497 528 C489 563 426 600 390 600 C359 600 328 580 322 548 L300 421 L392 399 C415 393 455 408 469 444 L469 444 Z M218 165 L209 100 L229 100 L237 157 L364 122 L403 122 C410 122 416 124 423 127 L423 100 L443 100 L443 166 L480 173 C483 156 488 140 511 140 C549 140 638 185 638 210 C638 235 584 241 540 241 C506 241 474 235 474 208 C474 203 475 197 476 192 L443 186 L443 276 C443 317 421 369 356 384 L294 398 C255 407 201 369 198 319 L192 230 C190 198 193 179 218 165 L218 165 Z M212 228 L218 317 C221 356 261 385 290 378 L352 364 C404 352 423 311 423 276 L423 214 C418 217 410 219 403 219 L375 219 L295 248 L298 315 L278 315 L275 234 L371 199 L403 199 C414 199 423 190 423 179 L423 162 C423 151 414 142 403 142 L366 142 L256 173 C215 185 210 193 212 228 L212 228 Z M495 209 C495 218 521 222 539 222 C557 222 611 220 611 207 C611 194 539 160 511 160 C503 160 503 162 498 187 C496 198 495 205 495 209 L495 209 Z M618 100 L750 100 L750 120 L618 120 L618 100 Z M787 120 L787 100 L850 100 L850 120 L787 120 Z M320 70 L188 70 L188 50 L320 50 L320 70 Z M486 70 L355 70 L355 50 L486 50 L486 70 Z M653 70 L521 70 L521 50 L653 50 L653 70 Z M819 70 L688 70 L688 50 L819 50 L819 70 Z M231 20 L150 20 L150 0 L231 0 L231 20 Z M398 20 L266 20 L266 0 L398 0 L398 20 Z M565 20 L433 20 L433 0 L565 0 L565 20 Z M600 0 L732 0 L732 20 L600 20 L600 0 Z M767 0 L850 0 L850 20 L767 20 L767 0 Z M188 -50 L320 -50 L320 -30 L188 -30 L188 -50 Z M486 -30 L355 -30 L355 -50 L486 -50 L486 -30 Z M653 -30 L521 -30 L521 -50 L653 -50 L653 -30 Z M688 -50 L819 -50 L819 -30 L688 -30 L688 -50 Z M150 -100 L231 -100 L231 -80 L150 -80 L150 -100 Z M266 -100 L398 -100 L398 -80 L266 -80 L266 -100 Z M433 -100 L565 -100 L565 -80 L433 -80 L433 -100 Z M600 -100 L732 -100 L732 -80 L600 -80 L600 -100 Z M767 -100 L850 -100 L850 -80 L767 -80 L767 -100 Z " />
</font>
</svg>
