<?xml version="1.0" encoding="UTF-8"?>
<svg xmlns="http://www.w3.org/2000/svg" xmlns:xlink="http://www.w3.org/1999/xlink" version="1.2" >
<font id="Informative Bold">
<font-face  font-family="Informative" units-per-em="1000" ascent="770" descent="-230" font-style="normal" font-weight="700" font-stretch="normal" cap-height="642" x-height="471" underline-position="-75" underline-thickness="50" />
<missing-glyph  horiz-adv-x="710" d="M510 750 L200 750 C145 750 100 705 100 650 L100 -150 C100 -205 145 -250 200 -250 L510 -250 C565 -250 610 -205 610 -150 L610 650 C610 705 565 750 510 750 L510 750 Z M513 485 L454 530 L442 514 L471 492 L450 470 C445.6 465.4 440 462 433 462 C427.9 462 422.1 463.2 417 467 L350 517 L393 577 C404.7 593.3 418 600 438 600 C465 600 503 572 502 537 L495 525 L526 502 L513 485 Z M391 -94 L350 -94 L307 131 C264 185 237.7 230 242 286 L250 389 C253.7 436 286 476 326 476 C358 476 399 450 401 408 C403 367 393 293 387 247 L368 231 L337 309 C332.2 321.1 331.9 332 334 345 L343 402 L323 406 L314 349 C311.3 331.9 313.7 314.9 319 301 L351 217 L332 201 L285 272 L267 262 L329 171 L389 222 L410 -69 C410.9 -81 402 -94 391 -94 L391 -94 Z M311 -65 C305.8 -91 294 -94 277 -94 L248 -94 L268 56 L259 160 L288 123 L317 -35 L311 -65 Z " />
<glyph glyph-name="NULL" d="" />
<glyph glyph-name="CR" unicode="&#xd;" horiz-adv-x="250" d="" />
<glyph glyph-name="space" unicode="&#x20;" horiz-adv-x="211" d="" />
<glyph glyph-name="exclam" unicode="&#x21;" horiz-adv-x="271" d="M64.57 649.04 L82.44 229.85 L187.91 229.85 L205.77 649.04 L64.57 649.04 Z M135.04 -17.9 C187.04 -17.9 229.34 24.9 229.34 76.46 C229.34 127.71 187.04 171.2 135.04 171.2 C84.42 171.2 41.4 127.71 41.4 76.46 C41.4 24.9 84.42 -17.9 135.04 -17.9 L135.04 -17.9 Z " />
<glyph glyph-name="quotedbl" unicode="&#x22;" horiz-adv-x="342" d="M64.13 439.12 L126.93 439.12 L155.18 658.52 L36.02 658.52 L64.13 439.12 Z M215.04 439.12 L277.85 439.12 L306.09 658.52 L186.94 658.52 L215.04 439.12 Z " />
<glyph glyph-name="numbersign" unicode="&#x23;" horiz-adv-x="695" d="M621.52 343.3 L661.46 458.22 L586.98 458.22 L638.84 615 L521.44 615 L469.58 458.22 L343.18 458.22 L395.05 615 L277.65 615 L225.78 458.22 L136.86 458.22 L96.92 343.3 L187.76 343.3 L148.07 223.32 L72.35 223.32 L32.41 108.4 L110.06 108.4 L58.65 -47 L176.05 -47 L227.46 108.4 L353.85 108.4 L302.44 -47 L419.84 -47 L471.25 108.4 L557.01 108.4 L596.95 223.32 L509.27 223.32 L548.96 343.3 L621.52 343.3 Z M391.87 223.32 L265.47 223.32 L305.16 343.3 L431.56 343.3 L391.87 223.32 Z " />
<glyph glyph-name="dollar" unicode="&#x24;" horiz-adv-x="557" d="M517.52 183.31 C517.52 314.46 424.85 358.56 339.66 385.73 C335.82 386.96 331.99 388.16 328.19 389.34 L328.19 518.59 C375.17 510.72 413.24 491.71 440.2 470.8 L508.93 591.69 C476.52 619.42 416.42 651.06 328.19 658.09 L328.19 732.69 L245.87 732.69 L245.87 656.84 C124.85 642.18 51.59 568.63 51.59 469.61 C51.59 333.16 150.59 291.63 238.31 262.03 C240.84 261.18 243.36 260.34 245.87 259.51 L245.87 123.15 C197.87 128.75 154.93 147.24 111.89 183.2 L33.21 69.55 C79.32 25.05 148.19 -9.03001 245.88 -14.93 L245.88 -90.38 L328.2 -90.38 L328.2 -12.45 C445.52 3.55998 517.53 75.53 517.53 183.31 L517.52 183.31 Z M196.52 468.88 C196.52 492.95 213.6 511.26 245.88 518.74 L245.88 415.84 C216.27 428.03 196.52 443.23 196.52 468.88 L196.52 468.88 Z M328.2 127.02 L328.2 230.42 C355.4 217.92 373.22 202.81 373.22 179.17 C373.22 153.98 358.77 135.74 328.2 127.02 L328.2 127.02 Z " />
<glyph glyph-name="percent" unicode="&#x25;" horiz-adv-x="773" d="M120.19 -12.42 L225.17 -12.42 L662.15 655.8 L557.17 655.8 L120.19 -12.42 Z M191.21 342 C290.97 342 348.01 406.72 348.01 496.14 C348.01 585.21 290.97 649.59 191.21 649.59 C90.38 649.59 33.41 585.21 33.41 496.14 C33.41 406.72 90.38 342 191.21 342 L191.21 342 Z M191.21 422.39 C146.73 422.39 127.01 453.21 127.01 496.14 C127.01 538.27 146.73 569.89 191.21 569.89 C234.69 569.89 254.41 538.27 254.41 496.14 C254.41 453.21 234.69 422.39 191.21 422.39 L191.21 422.39 Z M583.91 -18.49 C683.74 -18.49 740.71 46.24 740.71 135.65 C740.71 224.65 683.74 289.1 583.91 289.1 C483.07 289.1 426.11 224.65 426.11 135.65 C426.11 46.24 483.07 -18.49 583.91 -18.49 L583.91 -18.49 Z M583.91 61.9 C539.43 61.9 519.71 92.66 519.71 135.65 C519.71 177.79 539.43 209.4 583.91 209.4 C627.69 209.4 647.11 177.79 647.11 135.65 C647.11 92.66 627.69 61.9 583.91 61.9 L583.91 61.9 Z " />
<glyph glyph-name="ampersand" unicode="&#x26;" horiz-adv-x="668" d="M670.32 0 L539.17 131.6 C566.3 178.72 581.9 235.8 581.9 300.86 L581.9 320.52 L449.6 320.52 L449.6 293.27 C449.6 271.6 446.36 250.53 440.23 230.88 L342.36 329.09 C409.48 365.47 473.06 410.1 473.06 494.9 C473.06 590.01 398.14 659.52 280.01 659.52 C156.21 659.52 77.75 589.11 77.75 500.46 C77.75 449.68 91.57 420.49 155.42 354.23 C93.28 317.28 39.44 266.88 39.44 180.86 C39.44 57.4 133.38 -15.83 274.45 -15.83 C345.53 -15.83 411.2 5.90002 463.43 45.49 L508.82 1.52588e-05 L670.32 0 Z M210.46 490.38 C210.46 516.73 232.05 539.25 275.73 539.25 C313.81 539.25 340.34 518.97 340.34 486.69 C340.34 454.11 307.23 431.86 262.97 409.26 C218.04 455.58 210.46 467.58 210.46 490.38 L210.46 490.38 Z M287.8 111.68 C229.97 111.68 187.82 144.87 187.82 193.42 C187.82 226.23 208.29 250.2 238.27 271.18 L372.29 136.84 C348.44 120.94 319.88 111.68 287.8 111.68 L287.8 111.68 Z " />
<glyph glyph-name="quotesingle" unicode="&#x27;" horiz-adv-x="192" d="M64.4 439.12 L127.21 439.12 L155.45 658.52 L36.3 658.52 L64.4 439.12 Z " />
<glyph glyph-name="parenleft" unicode="&#x28;" horiz-adv-x="292" d="M39.06 251.76 C39.06 79.79 77.82 -55.67 157.89 -195.63 L271.05 -148.4 C209.94 -30.06 168.6 92.63 167.84 251.76 C168.6 410.88 209.94 533.58 271.05 651.91 L157.89 699.15 C77.82 559.18 39.06 423.73 39.06 251.76 L39.06 251.76 Z " />
<glyph glyph-name="parenright" unicode="&#x29;" horiz-adv-x="293" d="M253.29 251.76 C253.29 423.73 214.53 559.18 134.46 699.15 L21.3 651.91 C82.41 533.58 123.75 410.88 124.51 251.76 C125.27 92.63 82.41 -30.06 21.3 -148.4 L134.46 -195.63 C214.53 -55.67 253.29 79.79 253.29 251.76 L253.29 251.76 Z " />
<glyph glyph-name="asterisk" unicode="&#x2a;" horiz-adv-x="387" d="M345.84 540.18 L311.84 640.3 L224.87 589.08 L244.91 688.52 L141.23 688.52 L161.27 589.08 L74.3 640.3 L40.3 540.18 L140.7 527.39 L67.13 459.33 L152.49 397 L193.1 487.45 L233.65 397 L319.01 459.33 L245.45 527.39 L345.84 540.18 Z " />
<glyph glyph-name="plus" unicode="&#x2b;" horiz-adv-x="547" d="M509.43 309.35 L333.95 309.35 L333.95 490.91 L212.27 490.91 L212.27 309.35 L36.89 309.35 L36.89 200.37 L212.27 200.37 L212.27 18.37 L333.95 18.37 L333.95 200.37 L509.43 200.37 L509.43 309.35 Z " />
<glyph glyph-name="comma" unicode="&#x2c;" horiz-adv-x="267" d="M131.31 171.2 C80.69 171.2 37.66 128.4 37.66 76.84 C37.66 30.91 71.45 -8.75 115.73 -16.46 C111.03 -62.5 93.31 -91.71 70.77 -123.27 L121.22 -162.99 C170.62 -115.13 225.61 -36.4 225.61 71.82 C225.61 131.09 183.31 171.2 131.31 171.2 L131.31 171.2 Z " />
<glyph glyph-name="hyphen" unicode="&#x2d;" horiz-adv-x="371" d="M55.06 197.61 L315.06 197.61 L315.06 305.32 L55.06 305.32 L55.06 197.61 Z " />
<glyph glyph-name="period" unicode="&#x2e;" horiz-adv-x="262" d="M224.87 76.84 C224.87 128.4 182.57 171.2 130.57 171.2 C79.95 171.2 36.93 128.4 36.93 76.84 C36.93 25.59 79.95 -17.9 130.57 -17.9 C182.57 -17.9 224.87 25.59 224.87 76.84 L224.87 76.84 Z " />
<glyph glyph-name="slash" unicode="&#x2f;" horiz-adv-x="584" d="M26.79 -185 L149.02 -185 L556 661.69 L433.77 661.69 L26.79 -185 Z " />
<glyph glyph-name="zero" unicode="0" horiz-adv-x="647" d="M603.62 323.69 C603.62 511.67 511.31 659.52 323.48 659.52 C139.1 659.52 43.37 518.63 43.37 323.69 C43.37 128.86 135.65 -15.83 323.48 -15.83 C507.79 -15.83 603.62 128.86 603.62 323.69 L603.62 323.69 Z M448.47 323.69 C448.47 200.23 416.42 114.37 323.48 114.37 C230.54 114.37 198.52 200.23 198.52 323.69 C198.52 441.65 230.54 522.42 323.48 522.42 C416.42 522.42 448.47 441.65 448.47 323.69 L448.47 323.69 Z " />
<glyph glyph-name="one" unicode="1" horiz-adv-x="397" d="M202.97 642 L8.44 526.87 L62.68 404.33 L175.91 467.63 L175.91 0 L323.98 0 L323.98 642 L202.97 642 Z " />
<glyph glyph-name="two" unicode="2" horiz-adv-x="549" d="M295.5 134.41 L264.38 131.07 L290.17 148.64 C409.73 251.73 493.75 350.54 493.75 454.86 C493.75 585.21 394.74 659.52 261.34 659.52 C155.39 659.52 77.91 607.07 29.68 542.51 L122.85 451.8 C154.07 485.62 191 516.28 246.02 516.28 C305.87 516.28 336.33 483.22 336.33 439.06 C336.33 384.21 309.18 338.76 49.33 119.14 L49.33 3.05176e-05 L504.59 3.05176e-05 L504.59 134.96 L295.5 134.41 Z " />
<glyph glyph-name="three" unicode="3" horiz-adv-x="561" d="M412.6 343.13 C452.13 370.31 486.88 416.82 486.88 483.72 C486.88 590.1 389.72 659.52 263.11 659.52 C155.03 659.52 82.37 623.93 37 558.55 L136.74 468.46 C168.49 501.48 198.05 519.27 246.38 519.27 C301.99 519.27 331.8 491.41 331.8 454.01 C331.8 407.56 292.52 383.52 241.14 383.59 L174.9 383.62 L174.69 273.75 L241.07 273.75 C318.56 273.75 366.49 250.46 366.49 197.01 C366.49 147.25 327.65 117.89 258.63 117.89 C202.83 117.89 152.19 143.99 113.5 179.96 L26.06 67.27 C78.06 21.85 145.98 -15.83 270.98 -15.83 C399.9 -15.83 520.87 53.84 520.87 181.86 C520.87 278.98 466.32 323.53 412.6 343.13 L412.6 343.13 Z " />
<glyph glyph-name="four" unicode="4" horiz-adv-x="590" d="M556.27 241.52 L477.78 241.52 L477.78 642 L337.3 642 L25.34 245.37 L25.34 115.08 L337.3 115.08 L337.3 0 L477.78 0 L477.78 115.08 L555.58 115.08 L556.27 241.52 Z M171.58 241.52 L337.3 450.59 L337.3 241.52 L171.58 241.52 Z " />
<glyph glyph-name="five" unicode="5" horiz-adv-x="553" d="M252.64 -15.83 C422.33 -15.83 517.74 65.73 517.74 209.34 C517.74 330.38 438.61 419.42 277.81 419.42 C245.5 419.42 214.96 413.6 199.65 409.01 L199.65 509.56 L475.96 509.56 L475.27 642 L65.69 642 L65.69 284.09 L145.38 266.02 C145.38 266.02 187 292.12 255.41 292.12 C328.16 292.12 366.35 256.16 366.35 206.06 C366.35 149.54 329.27 115.89 258.51 115.89 C182.76 115.89 130.69 149.74 106.49 169.07 L36.37 52.87 C70.47 24.21 142.76 -15.83 252.64 -15.83 L252.64 -15.83 Z " />
<glyph glyph-name="six" unicode="6" horiz-adv-x="570" d="M317.36 403.97 C276.55 403.97 242.51 393.83 214 378.27 C268.53 482.88 385.26 516.59 480.99 530.51 L437.13 662.18 C241.6 639.27 40.75 498.9 40.75 245.28 C40.75 88.61 137 -15.83 299.15 -15.83 C445.72 -15.83 541.25 72.54 541.25 198.49 C541.25 326.79 453.8 403.97 317.36 403.97 L317.36 403.97 Z M300.24 109.91 C233.41 109.91 183.17 157.38 183.17 238.08 C183.17 242.82 183.24 247.48 183.4 252.06 C210.56 275.45 244.09 293.82 294.84 293.82 C352.42 293.82 399.39 264.59 399.39 204.59 C399.39 142.96 356.63 109.91 300.24 109.91 L300.24 109.91 Z " />
<glyph glyph-name="seven" unicode="7" horiz-adv-x="508" d="M472.57 642 L24.72 642 L24.72 508.11 L310.16 508.11 C205.73 375.08 121.38 228.79 121.38 1.52588e-05 L279.37 1.52588e-05 C279.37 266.33 373.53 402.74 492.33 529.5 L472.57 642 Z " />
<glyph glyph-name="eight" unicode="8" horiz-adv-x="593" d="M461.71 335.38 C500.73 366.64 530.5 412.42 530.5 476.13 C530.5 593.25 434.56 659.58 295.93 659.58 C155.34 659.58 61.15 592.25 61.15 476.13 C61.15 412.41 90.93 366.63 129.95 335.37 C79.07 300.85 43.44 249.34 43.44 184.03 C43.44 45.67 158.83 -15.83 295.93 -15.83 C432.9 -15.83 548.24 45.83 548.24 184.03 C548.24 249.32 512.6 300.85 461.71 335.38 L461.71 335.38 Z M295.93 549.85 C347.46 549.85 390.95 522.75 390.95 467.17 C390.95 424.73 356.95 384.73 300.91 384.51 L290.77 384.51 C234.73 384.73 200.73 424.73 200.73 467.17 C200.73 521.23 242.38 549.85 295.93 549.85 L295.93 549.85 Z M295.93 97.08 C226.49 97.08 188.68 131.11 188.68 178.68 C188.68 227.15 226.52 263.19 295.93 263.19 C365.46 263.19 402.97 226.87 402.97 178.68 C402.97 131.33 365.4 97.08 295.93 97.08 L295.93 97.08 Z " />
<glyph glyph-name="nine" unicode="9" horiz-adv-x="573" d="M274.13 659.52 C133.74 659.35 26.06 567.57 26.06 434.94 C26.06 301.02 118.58 221.07 244.36 221.07 C296.62 221.07 340.02 240.22 372.91 269.77 C340.23 167.99 242.26 119.22 107.69 106.08 L167.27 -15.92 C398.12 16.31 530.88 162.73 530.88 363.34 C530.88 535.66 441.07 659.52 274.13 659.52 L274.13 659.52 Z M169.92 434.59 C169.92 484.16 205.16 525.11 269.2 525.11 C341.2 525.11 376.6 472.04 383.5 385.24 C353.75 357.38 317.2 344.89 264.79 344.89 C211.36 344.89 169.92 377.6 169.92 434.59 L169.92 434.59 Z " />
<glyph glyph-name="colon" unicode="&#x3a;" horiz-adv-x="285" d="M236.11 385.45 C236.11 437.01 193.81 479.81 141.81 479.81 C91.19 479.81 48.17 437.01 48.17 385.45 C48.17 334.2 91.19 290.71 141.81 290.71 C193.81 290.71 236.11 334.2 236.11 385.45 L236.11 385.45 Z M236.11 76.84 C236.11 128.4 193.81 171.2 141.81 171.2 C91.19 171.2 48.17 128.4 48.17 76.84 C48.17 25.59 91.19 -17.9 141.81 -17.9 C193.81 -17.9 236.11 25.59 236.11 76.84 L236.11 76.84 Z " />
<glyph glyph-name="semicolon" unicode="&#x3b;" horiz-adv-x="287" d="M236.11 385.45 C236.11 437.01 193.81 479.81 141.81 479.81 C91.19 479.81 48.17 437.01 48.17 385.45 C48.17 334.2 91.19 290.71 141.81 290.71 C193.81 290.71 236.11 334.2 236.11 385.45 L236.11 385.45 Z M141.93 171.2 C91.31 171.2 48.28 128.4 48.28 76.84 C48.28 30.91 82.07 -8.75 126.35 -16.46 C121.65 -62.5 103.93 -91.71 81.39 -123.27 L131.84 -162.99 C181.24 -115.13 236.23 -36.4 236.23 71.82 C236.23 131.09 193.93 171.2 141.93 171.2 L141.93 171.2 Z " />
<glyph glyph-name="less" unicode="&#x3c;" horiz-adv-x="586" d="M36.65 174.36 L533.44 18.6 L533.44 138.98 L149.89 254.66 L533.44 370.33 L533.44 490.71 L36.65 334.96 L36.65 174.36 Z " />
<glyph glyph-name="equal" unicode="&#x3d;" horiz-adv-x="592" d="M59.44 299.93 L531.91 299.93 L531.91 408.92 L59.44 408.92 L59.44 299.93 Z M59.44 80.3 L531.91 80.3 L531.91 189.28 L59.44 189.28 L59.44 80.3 Z " />
<glyph glyph-name="greater" unicode="&#x3e;" horiz-adv-x="586" d="M548.99 174.36 L548.99 334.96 L52.2 490.71 L52.2 370.33 L435.75 254.66 L52.2 138.98 L52.2 18.6 L548.99 174.36 Z " />
<glyph glyph-name="question" unicode="&#x3f;" horiz-adv-x="503" d="M464.97 473.47 C464.97 594.09 365.6 665.85 237.07 666 C132.97 666.13 65.54 624.25 29.27 573.31 L112.07 480.08 C131.35 507.74 162.3 539.94 222.95 539.94 C279.67 539.94 319.42 508.4 319.42 460.16 C319.42 414.57 286.92 375.97 209.44 375.41 L166.19 375.41 L166.19 219.7 L293.32 219.7 L293.32 284.38 C394.3 300.93 464.97 372.51 464.97 473.46 L464.97 473.47 Z M130.91 76.45 C130.91 24.89 173.22 -17.91 225.22 -17.91 C275.84 -17.91 318.87 24.89 318.87 76.45 C318.87 127.7 275.84 171.19 225.22 171.19 C173.22 171.19 130.91 127.7 130.91 76.45 L130.91 76.45 Z " />
<glyph glyph-name="at" unicode="&#x40;" horiz-adv-x="901" d="M455.56 656.94 C237.81 656.94 40.82 510.87 40.82 254.89 C40.82 15.06 203.86 -123.77 424.27 -123.77 C492.69 -123.77 557.76 -106.42 595.73 -87.46 L556.58 13.42 C515.44 -5.57999 478.34 -15.16 424.27 -15.16 C282.19 -15.16 159.6 86.49 159.6 256.34 C159.6 451.82 294.24 547.64 455.7 547.64 C626.39 547.64 740.73 445.69 740.73 297.31 C740.73 209.64 711.12 167.29 678.85 167.29 C648.86 167.29 633.04 184.81 633.04 218.6 L633.04 309.65 C633.04 429.98 564.84 477.23 438.1 477.23 C369.98 477.23 318.08 458 290.59 443.76 L315.66 352.88 C341.65 364.53 380.43 376.34 426.64 376.34 C489.52 376.34 510.88 355.48 510.67 324.16 L510.6 310.73 L443.16 310.73 C338.8 310.73 273 270.65 273 191.65 C273 109.31 338.55 73.09 406.36 73.09 C464.17 73.09 505.54 100.99 534.68 144.92 C549.59 100.73 593.09 59.16 666.16 59.16 C799.95 59.16 857.17 169.84 857.17 297.31 C857.17 525.04 676.99 656.94 455.56 656.94 L455.56 656.94 Z M440.64 157.66 C412.24 157.66 395.12 173 395.12 201.18 C395.12 226.48 413.59 245.82 455.1 245.82 L510.92 245.82 L510.96 234.51 L510.96 234.51 C510.96 182.82 479.94 157.66 440.65 157.66 L440.64 157.66 Z " />
<glyph glyph-name="A" unicode="A" horiz-adv-x="630" d="M469.22 0 L622.52 0 L390.36 642 L240.1 642 L5.54001 0 L155.22 0 L199.17 126.56 L425.15 126.56 L469.22 0 Z M242.41 251.07 L293.82 399.14 L311.81 456.36 L330.29 399.02 L381.8 251.07 L242.41 251.07 Z " />
<glyph glyph-name="B" unicode="B" horiz-adv-x="586" d="M430.78 328.11 C483.66 350.75 521.81 392.53 521.81 466.65 C521.81 576.51 451.62 642 273.3 642 L69.78 642 L69.78 0 L310.57 0 C473.75 0 548.38 59.26 548.38 176.11 C548.38 256.24 504.78 304.37 430.78 328.11 L430.78 328.11 Z M285.09 522.32 C346.25 522.32 377.67 499.22 377.67 455.19 C377.67 409.82 350.28 382.87 288.26 382.87 L219.06 382.87 L219.06 522.32 L285.09 522.32 Z M308 120.3 L219.06 120.3 L219.06 265.71 L297.93 265.71 C364.28 265.71 396.18 238.2 396.18 190.11 C396.18 146.38 368.46 120.3 308 120.3 L308 120.3 Z " />
<glyph glyph-name="C" unicode="C" horiz-adv-x="585" d="M360.31 -15.83 C472.55 -15.83 534.94 17.82 571.79 49.48 L491.33 169.44 C462.33 142.98 427.31 124.03 366.72 124.03 C266.72 124.03 197.4 199.83 197.4 321 C197.4 443.81 265.58 517.59 370.38 517.59 C410.93 517.59 443.27 507.36 479.73 480.94 L560.55 599.14 C517.79 632.34 454.44 659.52 366.18 659.52 C171.38 659.52 35.99 518.84 35.99 321 C35.99 121.86 160.55 -15.83 360.31 -15.83 L360.31 -15.83 Z " />
<glyph glyph-name="D" unicode="D" horiz-adv-x="665" d="M279.39 642 L69.78 642 L69.78 0 L281.86 0 C499.38 0 627.24 120.81 627.24 323.96 C627.24 519.91 504.17 641.93 279.39 642 L279.39 642 Z M290.03 140.62 L219.06 140.62 L219.06 500.76 L286.34 500.76 C400.27 500.76 463.44 443.48 463.44 324.24 C463.44 206.8 399.87 140.62 290.03 140.62 L290.03 140.62 Z " />
<glyph glyph-name="E" unicode="E" horiz-adv-x="534" d="M218.78 132.65 L218.78 259.19 L452.63 259.19 L452.63 390.46 L218.78 390.46 L218.78 509.04 L482.11 509.04 L482.11 642 L69.78 642 L69.78 0 L491.03 0 L491.03 132.65 L218.78 132.65 Z " />
<glyph glyph-name="F" unicode="F" horiz-adv-x="515" d="M477.04 506.66 L477.04 642 L69.78 642 L69.78 0 L219.06 0 L219.06 225.77 L448.76 225.77 L448.76 358.42 L219.06 358.42 L219.06 506.66 L477.04 506.66 Z " />
<glyph glyph-name="G" unicode="G" horiz-adv-x="644" d="M349.03 374.09 L349.03 237.06 L449.93 237.06 L449.93 131.22 C428.76 126.58 403.13 124.03 370.86 124.03 C254.33 124.03 198.09 199.34 198.09 320.69 C198.09 448.16 268.15 517.28 371.7 517.28 C422.18 517.28 462.55 504.47 497.38 480.39 L574.13 604.28 C530.4 634.79 462.66 659.52 373.8 659.52 C170.83 659.52 36.68 523.12 36.68 318.62 C36.68 113.44 161.89 -15.83 370.3 -15.83 C479.83 -15.83 546.26 7.89 595.97 35.55 L595.97 374.09 L349.03 374.09 Z " />
<glyph glyph-name="H" unicode="H" horiz-adv-x="675" d="M455.63 642 L455.63 392.6 L219.06 392.6 L219.06 642 L69.78 642 L69.78 0 L219.06 0 L219.06 255.5 L455.63 255.5 L455.63 0 L604.91 0 L604.91 642 L455.63 642 Z " />
<glyph glyph-name="I" unicode="I" horiz-adv-x="402" d="M356.77 510.59 L356.77 642 L44.65 642 L44.65 510.59 L126.11 510.59 L126.11 131.41 L44.65 131.41 L44.65 0 L356.77 0 L356.77 131.41 L275.32 131.41 L275.32 510.59 L356.77 510.59 Z " />
<glyph glyph-name="J" unicode="J" horiz-adv-x="449" d="M383.84 642 L121.39 642 L121.39 510.59 L234.56 510.59 L234.56 191.77 C234.56 145.2 213.27 123.72 174.76 123.72 C138.53 123.72 117.75 144.02 96.39 169.05 L13.44 60.21 C53.06 10.6 113.5 -15.83 181.92 -15.83 C313.22 -15.83 383.84 62.22 383.84 194.91 L383.84 642 Z " />
<glyph glyph-name="K" unicode="K" horiz-adv-x="613" d="M492.01 193.21 L373.61 365.86 L600.87 642 L421.24 642 L219.06 379.63 L219.06 642 L69.78 642 L69.78 0 L219.06 0 L219.06 178.07 L271.68 242.01 L362.6 110.47 C433.91 8.01001 484.5 -4.13998 587.81 -4.13998 L587.81 133.96 C539.23 133.96 520.97 150.93 492.01 193.21 L492.01 193.21 Z " />
<glyph glyph-name="L" unicode="L" horiz-adv-x="497" d="M219.06 134.41 L219.06 642 L69.78 642 L69.78 0 L471.81 0 L471.81 134.41 L219.06 134.41 Z " />
<glyph glyph-name="M" unicode="M" horiz-adv-x="787" d="M561.81 642 L411.05 245.38 L401 213.17 L389.81 245.38 L226.57 642 L69.78 642 L69.78 0 L207.55 0 L207.55 309.65 L204.29 395.76 L227 331.73 L333.86 54.41 L459.11 54.41 L560.19 330.8 L583.94 404.32 L579.87 309.65 L579.87 0 L717.16 0 L717.16 642 L561.81 642 Z " />
<glyph glyph-name="N" unicode="N" horiz-adv-x="681" d="M462.34 642 L462.34 284.74 L466.23 235.34 L445.42 273.19 L215.49 642 L69.78 642 L69.78 1.52588e-05 L217.94 1.52588e-05 L217.94 351.87 L214.24 398.54 L234.93 360.32 L464.01 0 L610.51 0 L610.51 642 L462.34 642 Z " />
<glyph glyph-name="O" unicode="O" horiz-adv-x="725" d="M362.18 659.52 C172.43 659.52 35.99 521.29 35.99 322 C35.99 119.08 172.43 -15.83 362.18 -15.83 C551.89 -15.83 688.34 124.05 688.34 322 C688.34 526.12 551.89 659.52 362.18 659.52 L362.18 659.52 Z M362.18 524.08 C462.36 524.08 527.2 446.54 527.2 322 C527.2 199.74 462.36 119.64 362.18 119.64 C261.96 119.64 197.13 199.74 197.13 322 C197.13 446.54 261.96 524.08 362.18 524.08 L362.18 524.08 Z " />
<glyph glyph-name="P" unicode="P" horiz-adv-x="586" d="M276.69 642 L69.78 642 L69.78 0 L219.06 0 L219.06 196.29 L284.13 196.29 C450.47 196.29 558.9 278.46 558.9 422.51 C558.9 555.73 480.44 642 276.69 642 L276.69 642 Z M283.51 325.25 L219.06 325.25 L219.06 512.42 L283.02 512.42 C368.26 512.42 405.72 471.13 405.72 421.33 C405.72 361.9 371 325.25 283.51 325.25 L283.51 325.25 Z " />
<glyph glyph-name="Q" unicode="Q" horiz-adv-x="725" d="M688.34 322 C688.34 526.12 551.89 659.52 362.18 659.52 C172.43 659.52 35.99 521.29 35.99 322 C35.99 119.1 172.42 -15.82 362.14 -15.82 C418.16 -108.16 504.37 -161.33 634.49 -161.33 L634.49 -28.89 C573.75 -28.89 531.78 -23.13 490.81 8.17001 C610.56 56.21 688.34 172.56 688.34 322.01 L688.34 322 Z M197.13 322.01 C197.13 446.55 261.96 524.09 362.18 524.09 C462.36 524.09 527.2 446.55 527.2 322.01 C527.2 199.75 462.36 119.65 362.18 119.65 C261.96 119.65 197.13 199.75 197.13 322.01 L197.13 322.01 Z " />
<glyph glyph-name="R" unicode="R" horiz-adv-x="599" d="M471.66 179.41 L430.52 251.88 C501.1 284.81 546.99 345.92 546.99 434.26 C546.99 565.07 469.73 642 280.08 642 L69.78 642 L69.78 -1.52588e-05 L219.06 -1.52588e-05 L219.06 223.19 L270.11 223.19 L349.46 87.7 C397.3 3.99998 454.09 -4.14001 555.63 -4.14001 L555.63 133.96 C508.46 133.96 490.01 146.46 471.66 179.41 L471.66 179.41 Z M219.06 516.18 L293.06 516.18 C362.47 516.18 394.61 484.15 394.61 431.71 C394.61 381.83 364.21 347.25 293.34 347.25 L219.06 347.25 L219.06 516.18 Z " />
<glyph glyph-name="S" unicode="S" horiz-adv-x="544" d="M268.58 -15.83 C416.1 -15.83 509.61 60.48 509.61 183.31 C509.61 314.46 417.35 358.53 331.45 385.53 C257.7 409.05 188.61 420.77 188.61 468.88 C188.61 500.68 218.41 522.42 273.67 522.42 C342.39 522.42 396.9 498.24 432.3 470.8 L501.02 591.69 C464.31 623.1 392.09 659.52 283.69 659.52 C135.65 659.52 43.69 580.55 43.69 469.61 C43.69 333.16 142.63 291.85 230.49 262.16 C301.15 238.22 365.31 224.04 365.31 179.17 C365.31 143.09 335.65 121.27 271.47 121.27 C209.42 121.27 156.77 139.09 103.98 183.2 L25.3 69.55 C76.08 20.55 154.48 -15.82 268.58 -15.82 L268.58 -15.83 Z " />
<glyph glyph-name="T" unicode="T" horiz-adv-x="546" d="M522.39 642 L23.41 642 L23.41 509.35 L198.41 509.35 L198.41 0 L347.68 0 L347.68 509.35 L522.38 509.35 L522.39 642 Z " />
<glyph glyph-name="U" unicode="U" horiz-adv-x="662" d="M332.22 -15.83 C489.02 -15.83 599.73 85.17 599.73 262.9 L599.73 642 L453.59 642 L453.59 260.83 C453.59 174.46 409.34 123.58 333.64 123.58 C257.73 123.58 212.61 174.46 212.61 260.83 L212.61 642 L62.78 642 L62.78 258.07 C62.78 77.65 169.4 -15.83 332.22 -15.83 L332.22 -15.83 Z " />
<glyph glyph-name="V" unicode="V" horiz-adv-x="613" d="M446.65 642 L318.99 182.96 L314.35 165.89 L309.4 182.96 L174.19 642 L8.36998 642 L228.41 0 L384.67 0 L603.58 642 L446.65 642 Z " />
<glyph glyph-name="W" unicode="W" horiz-adv-x="932" d="M765.66 642 L672.67 225.02 L660.67 170.35 L648.23 225.08 L546.44 599.18 L393.92 599.18 L292.21 225.02 L282.27 176.6 L271.39 225.08 L178.67 642 L11.85 642 L191 0 L355.88 0 L455.72 345.66 L468.14 403.44 L480.53 346.55 L578.2 0 L738.43 0 L921.05 642 L765.66 642 Z " />
<glyph glyph-name="X" unicode="X" horiz-adv-x="615" d="M613.67 0 L404.73 320.66 L594.23 642 L422.91 642 L312 424.98 L192.86 642 L14.17 642 L206.34 320.85 L5.26997 0 L182.1 0 L304.32 222.61 L435.98 0 L613.67 0 Z " />
<glyph glyph-name="Y" unicode="Y" horiz-adv-x="622" d="M613.2 642 L449.26 642 L338.17 430.48 L315.87 384.92 L294.97 430.14 L183.39 642 L5.3 642 L237.35 237.71 L237.35 0 L386.63 0 L386.63 238.48 L613.2 642 Z " />
<glyph glyph-name="Z" unicode="Z" horiz-adv-x="565" d="M225.59 133.1 L249.58 163.03 L515.47 526.07 L515.47 642 L44.74 642 L44.74 508.59 L333.56 508.83 L311.21 482.31 L35.65 115.28 L35.65 -1.52588e-05 L530.23 -1.52588e-05 L530.23 133.1 L225.59 133.1 Z " />
<glyph glyph-name="bracketleft" unicode="&#x5b;" horiz-adv-x="317" d="M289.63 593.44 L289.63 699.94 L65.85 699.94 L65.85 -191.46 L289.63 -191.46 L289.63 -84.96 L196.08 -84.96 L196.08 593.44 L289.63 593.44 Z " />
<glyph glyph-name="backslash" unicode="&#x5c;" horiz-adv-x="585" d="M557 -185 L150.02 661.69 L27.79 661.69 L434.77 -185 L557 -185 Z " />
<glyph glyph-name="bracketright" unicode="&#x5d;" horiz-adv-x="313" d="M26.13 699.94 L26.13 593.44 L123.82 593.44 L123.82 -84.96 L26.13 -84.96 L26.13 -191.46 L246.46 -191.46 L246.46 699.94 L26.13 699.94 Z " />
<glyph glyph-name="asciicircum" unicode="&#x5e;" horiz-adv-x="607" d="M420.85 342.73 L572.1 342.73 L370.98 691.32 L236.55 691.32 L35.3 342.73 L186.68 342.73 L303.79 543.94 L420.85 342.73 Z " />
<glyph glyph-name="underscore" unicode="&#x5f;" horiz-adv-x="482" d="M26.55 -126.46 L455.65 -126.46 L455.65 -28.41 L26.55 -28.41 L26.55 -126.46 Z " />
<glyph glyph-name="grave" unicode="&#x60;" horiz-adv-x="316" d="M237.66 515.2 L287.68 585.28 L107.97 737.28 L32.47 628.37 L237.66 515.2 Z " />
<glyph glyph-name="a" unicode="a" horiz-adv-x="523" d="M492.85 5.38 C478.57 33.55 470.57 70.27 470.57 119.8 L470.57 280.3 C470.57 430.96 384.49 487.83 227.71 487.83 C150.12 487.83 87.16 468.78 49.81 450.37 L77.58 337.27 C111.44 351.15 159.59 364.53 214.3 364.53 C294.09 364.53 321.87 339.12 321.87 298.89 L321.87 281.21 L240.24 281.21 C108.04 281.41 26.44 230.54 26.44 132 C26.44 30.96 106.91 -15.83 191.18 -15.83 C251.51 -15.83 295.22 8.93002 327.42 44.92 C331.92 18.98 339.14 -1.22998 348.84 -18 L492.85 5.38 Z M232.26 87.98 C197.5 87.98 175.48 107.26 175.48 143.31 C175.48 175.96 197.87 199.42 253.17 199.58 L321.63 199.68 L321.63 167.66 C317.63 124.07 285.3 87.98 232.27 87.98 L232.26 87.98 Z " />
<glyph glyph-name="b" unicode="b" horiz-adv-x="565" d="M325.82 487.83 C270.19 487.83 230.08 469.1 201.16 443.42 L201.16 658.24 L52.16 658.24 L52.16 31.21 C114.79 -2.80998 197.19 -15.83 259.84 -15.83 C429.39 -15.83 530.95 81.05 530.95 237.56 C530.95 398.63 455.47 487.83 325.82 487.83 L325.82 487.83 Z M269.36 110.37 C240.78 110.37 219.29 113.9 201.16 121.61 L201.16 299.95 C211.56 325.28 235.03 361.39 291.1 361.39 C357.91 361.39 381.43 314.3 381.43 238.52 C381.43 157.92 335.39 110.37 269.36 110.37 L269.36 110.37 Z " />
<glyph glyph-name="c" unicode="c" horiz-adv-x="466" d="M431.74 452.75 C398.17 472.7 346.3 487.83 288.68 487.83 C141.92 487.83 32.37 391.9 32.37 235.69 C32.37 75.55 131.34 -15.83 291.5 -15.83 C363.07 -15.83 417.15 10.69 451.82 38.32 L394.42 144.75 C371.89 123.59 336.62 108.54 299.92 108.54 C218.8 108.54 181.93 166.77 181.93 237.76 C181.93 308.75 224.11 362.39 301.09 362.39 C339.07 362.39 371.65 352.76 400.98 334.07 L431.74 452.75 Z " />
<glyph glyph-name="d" unicode="d" horiz-adv-x="569" d="M533.73 5.38 C520.32 33.55 512.47 70.24 512.47 119.8 L512.47 658.24 L363.47 658.24 L363.47 479.6 C342.18 485.06 317.74 487.83 286.29 487.83 C133.36 487.83 33.37 395.28 33.37 234.07 C33.37 77.7 119.23 -15.83 243.37 -15.83 C301.47 -15.83 342.23 5.77002 370.83 34.38 C375.08 14.28 381.29 -2.87999 389.76 -18 L533.73 5.38 Z M278.24 110.61 C215.57 111.01 182.89 162.23 182.89 233.1 C182.89 318.41 227.35 361.63 294.08 361.63 C324.59 361.63 345.76 357.1 363.47 348.54 L363.47 170.64 C353.45 145.35 329.9 110.35 278.24 110.61 L278.24 110.61 Z " />
<glyph glyph-name="e" unicode="e" horiz-adv-x="528" d="M494.58 270.48 C494.58 402.46 405.73 487.83 275.16 487.83 C135.56 487.83 32.37 382.39 32.37 233.31 C32.37 74.03 143.19 -15.83 287.6 -15.83 C382.11 -15.83 442.35 11.28 483.19 40.39 L433.62 142.81 C399.07 121.77 359.05 103.71 303.61 103.71 C234.71 103.71 193.82 135.42 184.34 200.82 L490.05 200.82 C493.55 223.71 494.58 246.83 494.58 270.48 L494.58 270.48 Z M184.13 284.48 C191.3 338.15 221.91 374.43 275.85 374.43 C333.04 374.43 354.62 330.01 354.62 284.48 L184.13 284.48 Z " />
<glyph glyph-name="f" unicode="f" horiz-adv-x="359" d="M302.6 548.49 C323.73 548.49 344.57 541.36 360.64 531.15 L402.38 637.57 C368.28 656.75 331.53 666.76 290.49 666.76 C176.38 666.76 95.28 600.23 90.85 465.86 L29.89 465.86 L29.89 342.73 L90.66 342.73 L90.66 -1.52588e-05 L239.07 -1.52588e-05 L239.07 342.73 L340.93 342.73 L340.93 465.86 L239.07 465.86 L239.07 479.71 C239.07 526.97 261.54 548.49 302.6 548.49 L302.6 548.49 Z " />
<glyph glyph-name="g" unicode="g" horiz-adv-x="539" d="M330.12 86.45 L212.68 86.45 C183.85 86.45 172.24 102.65 172.24 119.99 C172.24 127.21 174.37 133.9 179.78 140.01 C204.53 133.63 232.45 130.31 263.33 130.31 C402.25 130.31 481.87 196.65 481.87 305.97 C481.87 340.25 472.98 370.99 456.63 396.95 C508.78 427.84 546.55 479.07 547.44 543.83 L427.28 564.54 C427.28 512.85 417.33 478.25 384.81 460.16 C351.52 476.67 310.88 485.76 264.85 485.76 C133.98 485.76 46.31 413.21 46.31 305.97 C46.31 255.45 63.18 214.11 94.95 184.26 C72.46 166.31 59.97 137.82 59.97 111.32 C59.97 79.62 71.11 55.23 88.34 36.82 C49.09 15.52 26.06 -19.56 26.06 -59.44 C26.06 -167.21 123.06 -207.21 265.66 -207.21 C436.22 -207.21 513.96 -148.16 513.96 -53.33 C513.96 39.3 430.56 86.45 330.12 86.45 L330.12 86.45 Z M264.14 375.53 C312.38 375.53 344.2 348.4 344.2 307.35 C344.2 264.09 312.45 238.93 264.11 238.93 C215.73 238.93 184.05 264.09 184.05 307.35 C184.05 348.53 215.62 375.53 264.14 375.53 L264.14 375.53 Z M269.32 -104.85 C190.36 -104.85 159.91 -83.8101 159.91 -55.8101 C159.91 -22.8101 188.42 -12.3301 228.85 -12.3301 L318.48 -12.3301 C355.09 -12.3301 381.66 -23.6201 381.66 -55.1401 C381.66 -84.8101 349.13 -104.86 269.32 -104.86 L269.32 -104.85 Z " />
<glyph glyph-name="h" unicode="h" horiz-adv-x="565" d="M338.89 487.83 C290.11 487.83 241.41 472.86 202.75 439.74 L202.75 658.24 L53.47 658.24 L53.47 0 L202.75 0 L202.75 302.87 C218.14 328.14 251.98 354.18 294.42 354.18 C345.42 354.18 367.24 322.37 367.24 254.79 L367.24 0 L516.52 0 L516.52 277.68 C516.52 415.57 455.42 487.83 338.88 487.83 L338.89 487.83 Z " />
<glyph glyph-name="i" unicode="i" horiz-adv-x="281" d="M236.29 625.04 C236.29 673.81 195.96 713.99 146.55 713.99 C97.24 713.99 56.91 673.81 56.91 625.04 C56.91 575.51 97.55 535.4 146.55 535.4 C195.96 535.4 236.29 575.51 236.29 625.04 L236.29 625.04 Z M226.95 471.38 L24.48 471.38 L24.48 340.86 L77.67 340.86 L77.67 -1.52588e-05 L226.95 -1.52588e-05 L226.95 471.38 Z " />
<glyph glyph-name="j" unicode="j" horiz-adv-x="286" d="M238.35 625.04 C238.35 673.81 198.02 713.99 148.62 713.99 C99.31 713.99 58.98 673.81 58.98 625.04 C58.98 575.51 99.62 535.4 148.62 535.4 C198.02 535.4 238.35 575.51 238.35 625.04 L238.35 625.04 Z M232.47 471.38 L29.99 471.38 L29.99 340.86 L83.16 340.86 L83.75 -9.77002 C83.75 -56.35 59.42 -76.77 23.46 -76.77 C2.84 -76.77 -15.02 -69.01 -31.78 -57.36 L-89.7 -162.75 C-53.1 -190.41 -5.46999 -200.9 40.97 -200.9 C167.08 -200.9 232.47 -129.58 232.47 -4.92003 L232.47 471.38 Z " />
<glyph glyph-name="k" unicode="k" horiz-adv-x="547" d="M430.81 174.48 L346.63 278.27 L532.45 471.38 L349.76 471.24 L202.47 312.29 L202.47 658.24 L53.47 658.24 L53.47 -1.52588e-05 L202.47 -1.52588e-05 L202.47 128.44 L249.65 177.48 L328.65 82.53 C370.39 32.39 404.24 -4.11002 524.41 -4.11002 L524.41 120.85 C485.68 120.85 463.65 133.78 430.81 174.48 L430.81 174.48 Z " />
<glyph glyph-name="l" unicode="l" horiz-adv-x="304" d="M201.09 658.24 L50.4 658.24 L50.4 154.42 C50.4 12.99 128.94 -11.07 216.87 -11.07 C241.5 -11.07 271.45 -7.53 290.82 1.22 L290.82 121.51 C280.89 116.93 263.6 114.22 249.74 114.22 C218.25 114.22 201.09 128.01 201.09 169.63 L201.09 658.24 Z " />
<glyph glyph-name="m" unicode="m" horiz-adv-x="859" d="M640.82 487.83 C580.26 487.83 520.77 468.04 478.74 414.71 C451.47 463.01 404.86 487.83 338.84 487.83 C288.51 487.83 237.89 471.29 198.56 434.53 C194.3 456.95 187.76 475.87 178.55 492.27 L34.3 468.9 C47.77 440.72 55.62 404.03 55.62 354.47 L55.62 3.05176e-05 L204.89 3.05176e-05 L204.89 303.38 C219.65 328.49 251.25 354.18 292.39 354.18 C340.83 354.18 358.34 322.37 358.34 254.79 L358.34 4.57764e-05 L507.62 4.57764e-05 L507.62 277.68 C507.62 286.66 507.39 295.35 506.91 303.77 C521.81 328.76 553.45 354.18 594.4 354.18 C642.8 354.18 661 322.37 661 254.79 L661 4.57764e-05 L810.28 4.57764e-05 L810.28 277.68 C810.28 415.57 753.44 487.83 640.82 487.83 L640.82 487.83 Z " />
<glyph glyph-name="n" unicode="n" horiz-adv-x="568" d="M340.82 487.83 C289.44 487.83 238.14 471.26 198.54 434.43 C194.29 456.89 187.75 475.84 178.55 492.27 L34.3 468.9 C47.71 440.72 55.55 404.03 55.55 354.47 L55.55 0 L204.83 0 L204.83 302.87 C220.23 328.14 254.07 354.18 296.5 354.18 C347.46 354.18 369.4 322.37 369.4 254.79 L369.4 0 L518.68 0 L518.68 277.68 C518.68 415.57 457.64 487.83 340.82 487.83 L340.82 487.83 Z " />
<glyph glyph-name="o" unicode="o" horiz-adv-x="573" d="M287.67 487.83 C140.37 487.83 32.37 388.27 32.37 236.69 C32.37 80.16 138.15 -15.83 286.17 -15.83 C434.16 -15.83 540.77 84.99 540.77 236.69 C540.77 390.34 435.69 487.83 287.67 487.83 L287.67 487.83 Z M286.9 108.85 C221.42 108.85 181.93 158.45 181.93 236.69 C181.93 315.39 221.35 365.22 286.9 365.22 C352.28 365.22 391.21 315.67 391.21 236.63 C391.21 158.04 352.14 108.85 286.9 108.85 L286.9 108.85 Z " />
<glyph glyph-name="p" unicode="p" horiz-adv-x="568" d="M329.12 487.83 C269.14 487.83 227.14 466.05 197.75 437.27 C193.49 458.51 187.12 476.5 178.28 492.27 L34.31 468.9 C47.72 440.72 55.56 404.03 55.56 354.47 L55.56 -186.86 L204.56 -186.86 L204.56 -8.67998 C225.51 -13.53 249.49 -15.83 280.16 -15.83 C432.39 -15.83 533.95 86.01 533.95 239.42 C533.95 398.11 457.4 487.83 329.13 487.83 L329.12 487.83 Z M272.36 110.37 C243.87 110.37 222.58 114.19 204.56 122.6 L204.56 300.71 C215.35 326.21 239.07 361.39 294.4 361.39 C361.22 361.39 384.43 313.77 384.43 240.38 C384.43 162.88 338.39 110.37 272.36 110.37 L272.36 110.37 Z " />
<glyph glyph-name="q" unicode="q" horiz-adv-x="565" d="M294.15 487.83 C133.36 487.83 33.37 393.42 33.37 232.21 C33.37 75.84 117.37 -15.83 241.51 -15.83 C295.56 -15.83 334.9 2.86 363.47 28.5 L363.47 -185.41 L512.47 -185.41 L512.47 425.68 C461.64 456.31 394.49 487.83 294.15 487.83 L294.15 487.83 Z M276.23 110.61 C213.56 110.61 182.89 160.37 182.89 231.24 C182.89 316.55 227.35 361.63 294.08 361.63 C324.94 361.63 346.05 357.61 363.47 349.41 L363.47 171.03 C353.11 145.77 328.38 110.61 276.23 110.61 L276.23 110.61 Z " />
<glyph glyph-name="r" unicode="r" horiz-adv-x="398" d="M334.06 487.86 C280.24 487.86 235.03 459.41 201.71 413.69 C197.9 445.55 190.46 471.01 178.55 492.27 L34.3 468.9 C47.71 440.72 55.55 404.03 55.55 354.47 L55.55 1.52588e-05 L204.83 1.52588e-05 L204.83 268.75 C218.55 308.49 257.16 344.93 312.48 344.93 C334.31 344.93 350.34 340.57 362.84 334.66 L393.66 479.86 C377.25 485.27 354.68 487.86 334.06 487.86 L334.06 487.86 Z " />
<glyph glyph-name="s" unicode="s" horiz-adv-x="475" d="M257.63 487.83 C129.02 487.83 39.74 433.98 39.74 334.96 C39.74 227.85 122.37 203.06 192.92 185.37 C259.56 168.64 292.45 161.43 292.45 133.94 C292.45 110.32 274.7 95.88 237.02 95.88 C166.07 95.88 110.69 118.81 72.93 142.81 L25.06 40.39 C59.88 12.87 132.18 -15.83 231.09 -15.83 C367.06 -15.83 441.45 42.65 441.45 141.53 C441.45 249.54 359.91 276.49 278.46 293.49 C211.14 307.6 181.58 313.35 181.58 340.4 C181.58 362.97 204.77 374.74 254.11 374.74 C309.47 374.74 369.58 356.17 402.58 338.13 L429.87 450.4 C393.99 466.53 334.15 487.83 257.62 487.83 L257.63 487.83 Z " />
<glyph glyph-name="t" unicode="t" horiz-adv-x="441" d="M380.38 135.88 C362.39 120.62 342.99 109.68 312.8 109.68 C271.53 109.68 248.17 127.68 248.17 181.63 L248.17 343.59 L403.45 343.59 L403.45 465.86 L248.17 465.86 L248.17 591.93 L98.89 573.42 L98.89 465.86 L20.41 465.86 L20.41 343.59 L98.89 343.59 L98.89 159.79 C98.89 36.45 176.63 -15.83 286.17 -15.83 C355.17 -15.83 401.79 -0.689972 438.71 31.49 L380.38 135.88 Z " />
<glyph glyph-name="u" unicode="u" horiz-adv-x="558" d="M523.06 5.38 C509.65 33.55 501.81 70.24 501.81 119.8 L501.81 471.38 L352.53 471.38 L352.53 169.68 C339.08 143.58 309.73 116.92 267.82 116.92 C218.57 116.92 197.75 148.72 197.75 216.31 L197.75 471.38 L48.47 471.38 L48.47 193.42 C48.47 55.52 108.36 -16.73 223.53 -16.73 C276.28 -16.73 322.89 3.91 358.15 43.58 C362.37 19.47 369.11 -0.669998 378.81 -18 L523.06 5.38 Z " />
<glyph glyph-name="v" unicode="v" horiz-adv-x="527" d="M353.5 471.38 L263.58 116.44 L180.23 471.38 L13.89 471.38 L170.91 0 L351.93 0 L514.78 471.38 L353.5 471.38 Z " />
<glyph glyph-name="w" unicode="w" horiz-adv-x="770" d="M596.31 471.38 L525.31 122.15 L447.48 471.38 L324.78 471.38 L248.19 124.02 L176.79 471.38 L12.06 471.38 L156.8 0 L320.8 0 L386.33 296.18 L449.68 0 L613.81 0 L756.66 471.38 L596.31 471.38 Z " />
<glyph glyph-name="x" unicode="x" horiz-adv-x="533" d="M524.56 0 L350.69 235.53 L517.05 471.38 L350.43 471.38 L267.26 331.63 L180.15 471.38 L12.63 471.38 L176.66 237.65 L9.44 1.52588e-05 L174.58 1.52588e-05 L260.46 142.65 L354.24 1.52588e-05 L524.56 0 Z " />
<glyph glyph-name="y" unicode="y" horiz-adv-x="526" d="M513.33 471.38 L352.05 471.38 L265.97 116.44 L178.78 471.38 L12.44 471.38 L173.6 0 L213.58 0 L202.59 -26.15 C184.07 -76.77 144 -80.45 103.47 -80.45 L103.47 -201 C205.06 -201 288.27 -189.77 334.79 -55.54 L354.75 0 L354.62 0 L513.33 471.38 Z " />
<glyph glyph-name="z" unicode="z" horiz-adv-x="478" d="M211.37 120.43 L436.48 347.31 L436.48 470 L43.49 470 L43.49 348.18 L266.3 348.18 L38.34 125.54 L38.34 0 L441.5 0 L441.5 121.82 L211.37 120.43 Z " />
<glyph glyph-name="braceleft" unicode="&#x7b;" horiz-adv-x="354" d="M233.98 367.69 L233.98 545.14 C233.98 578.06 250.67 593.44 286.32 593.44 L328.22 593.44 L328.22 699.94 L249.06 699.94 C146.06 699.94 105.06 629.73 105.06 545.14 L105.06 378.04 C105.06 339.57 89.06 321.15 56.86 321.15 L18.75 321.15 L18.75 194.23 L56.86 194.23 C89.06 194.23 105.06 173.53 105.06 130.44 L105.06 -36.66 C105.06 -121.18 146.06 -191.46 249.06 -191.46 L328.22 -191.46 L328.22 -84.96 L286.32 -84.96 C250.67 -84.96 233.98 -69.59 233.98 -36.66 L233.98 147.69 C233.98 191.83 216.25 231.7 175.57 257.69 C216.25 283.68 233.98 323.55 233.98 367.69 L233.98 367.69 Z " />
<glyph glyph-name="bar" unicode="&#x7c;" horiz-adv-x="231" d="M65.85 -124.58 L165.52 -124.58 L165.52 691.21 L65.85 691.21 L65.85 -124.58 Z " />
<glyph glyph-name="braceright" unicode="&#x7d;" horiz-adv-x="353" d="M297.25 321.15 C265.05 321.15 249.05 339.57 249.05 378.04 L249.05 545.14 C249.05 629.73 208.05 699.94 105.05 699.94 L25.89 699.94 L25.89 593.44 L67.79 593.44 C103.44 593.44 120.13 578.06 120.13 545.14 L120.13 367.69 C120.13 323.55 137.86 283.68 178.53 257.69 C137.86 231.7 120.13 191.83 120.13 147.69 L120.13 -36.66 C120.13 -69.59 103.44 -84.96 67.79 -84.96 L25.89 -84.96 L25.89 -191.46 L105.05 -191.46 C208.05 -191.46 249.05 -121.18 249.05 -36.66 L249.05 130.44 C249.05 173.53 265.05 194.23 297.25 194.23 L335.36 194.23 L335.36 321.15 L297.25 321.15 Z " />
<glyph glyph-name="asciitilde" unicode="&#x7e;" horiz-adv-x="568" d="M122.34 164.2 C142.03 190.69 164.79 208.65 197.37 208.65 C248.48 208.65 298.51 165.75 367.65 165.75 C429 165.75 490.52 197.65 523.77 258.69 L445.52 326.25 C425.83 298.53 399.34 279.63 369.93 279.63 C308.75 279.63 264.14 322.53 197.37 322.53 C139.16 322.53 78.26 290.95 44.4 230.84 L122.34 164.2 Z " />
<glyph glyph-name="exclamdown" unicode="&#xa1;" horiz-adv-x="263" d="M225.42 422.26 C225.42 473.82 183.12 516.62 131.12 516.62 C80.5 516.62 37.48 473.82 37.48 422.26 C37.48 371.01 80.5 327.52 131.12 327.52 C183.12 327.52 225.42 371.01 225.42 422.26 L225.42 422.26 Z M60.64 -150.31 L201.84 -150.31 L183.98 268.87 L78.51 268.87 L60.64 -150.31 Z " />
<glyph glyph-name="cent" unicode="&#xa2;" horiz-adv-x="519" d="M483.83 131.63 L425.12 239.64 C407.49 222.19 384.82 206.36 355.09 198.5 L355.09 432.2 C384.89 426.79 409.22 415.87 426.65 401.44 L461.34 516.26 C436.19 533.79 400.41 548.76 355.09 555.77 L355.09 657.45 L271.84 657.45 L271.84 559.03 C136.7 548.54 43.96 455.81 43.96 314.51 C43.96 167.3 135.59 79.65 271.84 69.84 L271.84 -28.25 L355.09 -28.25 L355.09 73.56 C413.12 83.29 456.64 106.97 483.83 131.63 L483.83 131.63 Z M193.52 314.51 C193.52 371.16 219.07 416.35 271.84 430.96 L271.84 198.66 C217.75 213.98 193.52 260.3 193.52 314.51 L193.52 314.51 Z " />
<glyph glyph-name="sterling" unicode="&#xa3;" horiz-adv-x="582" d="M280.37 247.11 C280.37 252.37 280.26 257.44 280.06 262.34 L419.77 262.34 L419.77 354.63 L265.45 354.63 C260.26 377.9 255.72 401.06 255.72 430.15 C255.72 482.63 290.37 517.14 351.98 517.14 C396.62 517.14 433.6 502.98 460.59 483.56 L543.67 596.03 C498.99 633.41 434.36 659.52 346.46 659.52 C193.1 659.52 106.72 559.25 106.72 445.68 C106.72 409.34 112.52 382.55 118.49 354.63 L50.35 354.63 L50.35 262.34 L131.18 262.34 C131.3 258.09 131.37 253.71 131.37 249.18 C131.37 205.69 125.4 170.54 114.83 137.17 L48.97 137.17 L48.97 0 L534.19 0 L534.19 137.17 L262.94 137.17 C272.91 170.73 280.37 211.87 280.37 247.11 L280.37 247.11 Z " />
<glyph glyph-name="currency" unicode="&#xa4;" horiz-adv-x="627" d="M557.69 326.96 C557.69 373.36 544.8 416.7 522.41 453.61 L580.83 512.68 L490.47 603.04 L429.75 541.82 C395.19 560.52 355.58 571.14 313.44 571.14 C271.16 571.14 231.42 560.44 196.78 541.59 L135.59 603.32 L45.16 512.96 L104.29 453.18 C82.05 416.37 69.27 373.18 69.27 326.96 C69.27 280.96 81.92 237.97 103.94 201.28 L45.47 142.17 L135.9 51.81 L196.16 112.6 C230.95 93.54 270.91 82.71 313.44 82.71 C355.84 82.71 395.68 93.46 430.39 112.38 L490.47 51.81 L580.83 142.17 L522.77 200.87 C544.95 237.65 557.69 280.79 557.69 326.96 L557.69 326.96 Z M312.41 207.84 C248.21 207.84 196.74 260.7 196.74 327.27 C196.74 394.36 248.21 446.7 312.41 446.7 C377.33 446.7 429.6 394.36 429.6 327.27 C429.6 260.7 374.98 207.84 312.41 207.84 L312.41 207.84 Z " />
<glyph glyph-name="yen" unicode="&#xa5;" horiz-adv-x="658" d="M629.36 642 L470.56 642 L354.89 450.21 L334.51 412.95 L313.43 450.42 L201.44 641.65 L28.02 641.65 L228.71 320.07 L124.77 320.07 L124.77 250.17 L252.56 250.17 L252.56 196 L124.77 196 L124.77 126.1 L252.56 126.1 L252.56 1.52588e-05 L402.49 1.52588e-05 L402.49 126.1 L529.66 126.1 L529.66 196 L402.49 196 L402.49 250.17 L529.66 250.17 L529.66 320.07 L430.46 320.07 L629.36 642 Z " />
<glyph glyph-name="brokenbar" unicode="&#xa6;" horiz-adv-x="234" d="M66.92 369.58 L166.59 369.58 L166.59 691.21 L66.92 691.21 L66.92 369.58 Z M66.92 -124.58 L166.59 -124.58 L166.59 197.05 L66.92 197.05 L66.92 -124.58 Z " />
<glyph glyph-name="section" unicode="&#xa7;" horiz-adv-x="555" d="M454.73 112.49 C487 139.59 505.91 183.99 505.91 225.91 C505.91 411.63 192.43 394.84 192.43 489.05 C192.43 520.87 229.88 537.09 280.67 537.09 C356.84 537.09 396.38 519.8 438.88 492.53 L507.67 591.61 C445.78 635.49 376.46 659.52 280.13 659.52 C129.95 659.52 44.06 589.8 44.06 489.35 C44.06 438.55 67.9 402.48 102.75 374.85 C69.01 347.96 49.16 302.42 49.16 259.47 C49.16 73.75 362.65 90.54 362.65 5.99002 C362.65 -25.83 325.19 -42.05 274.41 -42.05 C198.24 -42.05 158.7 -24.76 116.2 2.51001 L47.41 -96.57 C109.3 -140.45 178.62 -164.48 274.95 -164.48 C425.13 -164.48 511.02 -94.75 511.02 5.69 C511.02 52.77 488.26 86.47 454.73 112.49 L454.73 112.49 Z M182.36 276.06 C182.36 292.93 189.26 307.38 207.3 318.91 C289.82 285.63 372.72 263.13 372.72 210.59 C372.72 193.32 365.76 178.96 348.44 167.59 C265.7 199.94 182.36 222.75 182.36 276.06 L182.36 276.06 Z " />
<glyph glyph-name="dieresis" unicode="&#xa8;" horiz-adv-x="431" d="M177.44 617.31 C177.44 658.6 143.64 692.28 101.98 692.28 C59.98 692.28 26.25 658.6 26.25 617.31 C26.25 574.98 60.29 541.37 101.99 541.37 C143.65 541.37 177.45 574.98 177.45 617.31 L177.44 617.31 Z M400.27 617.31 C400.27 658.6 366.13 692.28 324.53 692.28 C282.86 692.28 249 658.6 249 617.31 C249 574.98 283.14 541.37 324.53 541.37 C366.13 541.37 400.27 574.98 400.27 617.31 L400.27 617.31 Z " />
<glyph glyph-name="copyright" unicode="&#xa9;" horiz-adv-x="776" d="M735.03 311.22 C735.03 518 590.54 669.28 389.73 669.28 C186.99 669.28 41.44 518 41.44 311.22 C41.44 104.53 186.99 -45.83 389.73 -45.83 C590.54 -45.83 735.03 104.53 735.03 311.22 L735.03 311.22 Z M646.18 311.22 C646.18 149.5 534.34 39.24 389.73 39.24 C242 39.24 130.32 149.5 130.32 311.22 C130.32 474.29 242 584.21 389.73 584.21 C534.34 584.21 646.18 474.29 646.18 311.22 L646.18 311.22 Z M531.38 480.46 C498.75 503.76 455.94 518.19 410.03 518.19 C288.57 518.19 198.52 439.05 198.52 310.23 C198.52 179.16 279.21 104.54 410.28 104.54 C476.14 104.54 519.47 130.05 546.51 154.8 L490.57 241.49 C471.19 223.02 450.32 211.16 416.17 211.16 C358.9 211.16 325.87 251.06 325.87 312.23 C325.87 374.28 360.32 411.67 418.39 411.67 C447.44 411.67 471.46 403.74 498.36 382.17 L531.38 480.46 Z " />
<glyph glyph-name="ordfeminine" unicode="&#xaa;" horiz-adv-x="400" d="M358.54 360.18 C347.97 383.01 345.52 410.31 345.52 441.1 L345.52 484.71 L345.59 484.71 L345.59 535.61 C345.59 638.65 282.17 672.45 173.57 672.45 C113.54 672.45 72.89 657.93 49.39 646.9 L74.85 562.21 C95.79 570.48 130.27 580.39 166.48 580.39 C211.42 580.39 231.95 563.87 232.23 542.52 L232.35 533.13 L185.6 533.13 C99.76 533.13 36.68 507.66 36.68 437.51 C36.68 367.97 93.73 343.19 143.8 343.19 C179.8 343.19 212.2 358.65 236.47 385.52 C239.29 366.82 243.5 351.38 249.67 340.53 L358.54 360.18 Z M174.26 420.35 C153.35 420.35 140.95 432.32 140.95 450.04 C140.95 468.91 154.79 484.71 189.6 484.71 L231.11 484.71 C227.92 445.49 208.31 420.35 174.26 420.35 L174.26 420.35 Z " />
<glyph glyph-name="guillemotleft" unicode="&#xab;" horiz-adv-x="510" d="M31.82 253.41 L187 74.88 L260.6 133.48 L159.39 253.41 L260.6 373.34 L187 431.94 L31.82 253.41 Z M237.18 253.41 L392.36 74.88 L465.96 133.48 L364.75 253.41 L465.96 373.34 L392.36 431.94 L237.18 253.41 Z " />
<glyph glyph-name="registered" unicode="&#xae;" horiz-adv-x="776" d="M389.73 669.28 C186.99 669.28 41.44 518 41.44 311.22 C41.44 104.53 186.99 -45.83 389.73 -45.83 C590.54 -45.83 735.03 104.53 735.03 311.22 C735.03 518 590.54 669.28 389.73 669.28 L389.73 669.28 Z M389.73 39.24 C242 39.24 130.32 149.5 130.32 311.22 C130.32 474.29 242 584.21 389.73 584.21 C534.34 584.21 646.18 474.29 646.18 311.22 C646.18 149.5 534.34 39.24 389.73 39.24 L389.73 39.24 Z M559 388.08 C559 474.61 502.44 518.72 397.74 518.72 L248.35 518.72 L248.35 124.11 L343.75 124.11 L343.75 254.37 L373.33 254.37 L425.19 177.29 C456.24 130.85 483.85 119.73 552.55 119.73 L552.55 201.65 C525.07 201.65 515 214.21 500.3 235.65 L477.33 269.65 C525.93 290.34 559 331.3 559 388.07 L559 388.08 Z M343.75 435.53 L400.36 435.53 C443.21 435.53 460.53 417.35 460.53 387.26 C460.53 358.29 443.83 338.1 399.7 338.41 L343.75 338.61 L343.75 435.53 Z " />
<glyph glyph-name="macron" unicode="&#xaf;" horiz-adv-x="382" d="M35.62 569.38 L343.84 569.38 L343.84 681.23 L35.62 681.23 L35.62 569.38 Z " />
<glyph glyph-name="degree" unicode="&#xb0;" horiz-adv-x="345" d="M171.55 404.56 C249.14 404.56 313.32 467.53 313.32 546.33 C313.32 623.86 249.14 686.9 171.55 686.9 C94.03 686.9 30.99 623.86 30.99 546.33 C30.99 467.53 94.03 404.56 171.55 404.56 L171.55 404.56 Z M172.34 485.47 C139.76 485.47 111.83 513.4 111.83 545.92 C111.83 580.3 139.76 606.23 172.34 606.23 C204.86 606.23 232.79 580.3 232.79 545.92 C232.79 513.4 204.86 485.47 172.34 485.47 L172.34 485.47 Z " />
<glyph glyph-name="plusminus" unicode="&#xb1;" horiz-adv-x="582" d="M235.89 145.8 L345.43 145.8 L345.43 293.7 L526.67 293.7 L526.67 402.68 L345.43 402.68 L345.43 549.03 L235.89 549.03 L235.89 402.68 L54.44 402.68 L54.44 293.7 L235.89 293.7 L235.89 145.8 Z M54.44 78.8 L54.44 -30.18 L526.98 -30.18 L526.98 78.8 L54.44 78.8 Z " />
<glyph glyph-name="acute" unicode="&#xb4;" horiz-adv-x="310" d="M72.97 515.2 L278.16 628.38 L202.66 737.29 L22.95 585.29 L72.97 515.2 Z " />
<glyph glyph-name="paragraph" unicode="&#xb6;" horiz-adv-x="663" d="M403.32 20 L403.32 642 L264.57 642 C118.61 642 33.41 553.8 33.41 441 C33.41 318 123.61 237 263.27 237 L271.01 237 L271.01 20 L403.32 20 Z M458.42 642 L458.42 50 C458.42 -25.32 422.48 -58.87 338.73 -58.87 L338.73 -183.38 C502.23 -183.38 590.8 -99.24 590.8 50 L590.8 642 L458.42 642 Z " />
<glyph glyph-name="periodcentered" unicode="&#xb7;" horiz-adv-x="248" d="M123.41 257.75 C168.24 257.75 204.66 294.79 204.66 339 C204.66 383.15 168.24 419.63 123.41 419.63 C79.82 419.63 42.78 383.15 42.78 339 C42.78 294.79 79.82 257.75 123.41 257.75 L123.41 257.75 Z " />
<glyph glyph-name="cedilla" unicode="&#xb8;" horiz-adv-x="273" d="M95.62 11 L63.84 -74.62 C100.56 -75.62 127.41 -82.62 127.41 -108.62 C127.41 -128.41 111.1 -137.31 90.98 -137.31 C73.61 -137.31 59.06 -132.44 45.69 -123.62 L15.19 -193.01 C32.89 -207.81 75.58 -219.67 114.43 -219.67 C173.48 -219.67 243.26 -196.81 243.26 -118.27 C243.26 -64 200.21 -38.92 159.44 -36.62 L176.47 11 L95.62 11 Z " />
<glyph glyph-name="ordmasculine" unicode="&#xba;" horiz-adv-x="414" d="M206.48 338.41 C310.28 338.41 380.56 402.17 380.56 505 C380.56 610.79 311.52 672.45 207.72 672.45 C104.22 672.45 32.92 609.41 32.92 505 C32.92 398.93 102.5 338.41 206.48 338.41 L206.48 338.41 Z M207.1 428.66 C166.75 428.66 147.35 457.08 147.35 505 C147.35 553.71 166.75 582.19 207.1 582.19 C247.55 582.19 266.05 553.71 266.05 505 C266.05 457.08 247.55 428.66 207.1 428.66 L207.1 428.66 Z " />
<glyph glyph-name="guillemotright" unicode="&#xbb;" horiz-adv-x="510" d="M272.7 253.41 L117.52 431.94 L43.92 373.34 L145.12 253.41 L43.92 133.48 L117.52 74.88 L272.7 253.41 Z M478.06 253.41 L322.88 431.94 L249.28 373.34 L350.48 253.41 L249.28 133.48 L322.88 74.88 L478.06 253.41 Z " />
<glyph glyph-name="onequarter" unicode="&#xbc;" horiz-adv-x="789" d="M564.22 655.8 L127.24 -12.42 L232.22 -12.42 L669.2 655.8 L564.22 655.8 Z M136.9 262.89 L247.4 262.89 L247.4 651 L166.36 651 L29.03 593.97 L63.55 507.95 L136.9 537.1 L136.9 262.89 Z M745.24 139.62 L704.49 139.62 L704.49 396.11 L599.13 396.11 L410.51 142.51 L410.51 53.84 L599.13 53.84 L599.13 0 L704.49 0 L704.49 53.84 L745.24 53.84 L745.24 139.62 Z M513.19 139.62 L599.13 252.21 L599.13 139.62 L513.19 139.62 Z " />
<glyph glyph-name="onehalf" unicode="&#xbd;" horiz-adv-x="841" d="M564.84 655.8 L127.86 -12.42 L232.84 -12.42 L669.82 655.8 L564.84 655.8 Z M136.59 262.89 L247.09 262.89 L247.09 651 L166.05 651 L28.72 593.97 L63.24 507.95 L136.59 537.1 L136.59 262.89 Z M683.5 91.32 L651.08 87.61 L672.96 99.94 C738.17 154.54 784.22 208.39 784.22 262.82 C784.22 345.34 722.63 389.62 640.21 389.62 C571.16 389.62 519.61 353.65 490.91 306.44 L563.03 256.26 C579.83 276.19 596.86 292.81 626.41 292.81 C653.47 292.81 667.5 276.61 667.5 254.72 C667.5 218.27 617.96 180.48 503.99 78.44 L503.99 0 L798.66 0 L798.66 91.67 L683.5 91.32 Z " />
<glyph glyph-name="threequarters" unicode="&#xbe;" horiz-adv-x="842" d="M616.46 655.8 L179.48 -12.42 L284.46 -12.42 L721.44 655.8 L616.46 655.8 Z M348.46 365.37 C348.46 426.29 308.19 451.57 268.86 461.44 C301.25 472.6 331.13 496.69 331.13 542.71 C331.13 611.3 272.79 650.59 190.2 650.59 C112.37 650.59 64.28 620.6 41.17 593.6 L99.07 526.12 C119.44 546.45 140.97 557 167.45 557 C196.42 557 215.88 541.99 215.88 522.05 C215.88 493.28 190.77 484.54 156.86 484.43 L116.06 484.29 L116 424.06 L159.43 424.09 C203.05 423.69 232.79 413.53 232.79 385.54 C232.79 358.67 207.46 344.33 174.64 344.33 C140.37 344.33 115.23 358.77 94.24 376.95 L33.99 306.84 C55.18 283.83 103.7 251.89 186.72 251.89 C278.09 251.89 348.46 292.54 348.46 365.37 L348.46 365.37 Z M803.86 139.62 L763.11 139.62 L763.11 396.11 L657.75 396.11 L469.13 142.51 L469.13 53.84 L657.75 53.84 L657.75 0 L763.11 0 L763.11 53.84 L803.86 53.84 L803.86 139.62 Z M571.81 139.62 L657.75 252.21 L657.75 139.62 L571.81 139.62 Z " />
<glyph glyph-name="questiondown" unicode="&#xbf;" horiz-adv-x="499" d="M369.64 422.26 C369.64 473.82 327.33 516.62 275.33 516.62 C224.71 516.62 181.68 473.82 181.68 422.26 C181.68 371.01 224.71 327.52 275.33 327.52 C327.33 327.52 369.64 371.01 369.64 422.26 L369.64 422.26 Z M471.28 -74.72 L388.48 18.51 C369.2 -9.14 338.25 -41.35 277.6 -41.35 C220.88 -41.35 181.13 -9.81001 181.13 38.44 C181.13 84.03 211.08 122.63 297.39 123.19 L334.36 123.25 L334.36 278.89 L207.23 278.89 L207.23 214.21 C106.25 197.65 35.58 126.08 35.58 25.13 C35.58 -95.49 134.95 -167.25 263.48 -167.41 C367.58 -167.53 435.01 -125.66 471.28 -74.72 L471.28 -74.72 Z " />
<glyph glyph-name="Agrave" unicode="&#xc0;" horiz-adv-x="630" d="M438.42 754.73 L211.07 852.16 L170.81 724.93 L412.93 676.76 L438.42 754.73 Z M469.22 0 L622.52 0 L390.36 642 L240.1 642 L5.53999 0 L155.22 0 L199.17 126.56 L425.15 126.56 L469.22 0 Z M242.41 251.07 L293.82 399.14 L311.81 456.36 L330.29 399.02 L381.8 251.07 L242.41 251.07 Z " />
<glyph glyph-name="Aacute" unicode="&#xc1;" horiz-adv-x="630" d="M452.95 724.93 L411.99 854.23 L184.64 756.8 L210.82 676.76 L452.95 724.93 Z M469.22 1.52588e-05 L622.52 1.52588e-05 L390.36 642 L240.1 642 L5.53998 1.52588e-05 L155.22 1.52588e-05 L199.17 126.56 L425.15 126.56 L469.22 1.52588e-05 Z M242.41 251.07 L293.82 399.14 L311.81 456.36 L330.29 399.02 L381.8 251.07 L242.41 251.07 Z " />
<glyph glyph-name="Acircumflex" unicode="&#xc2;" horiz-adv-x="630" d="M312.31 743.28 L440 679.9 L485.54 750.88 L355.67 846.37 L269.07 846.37 L139.2 750.88 L184.74 679.9 L312.31 743.28 Z M469.22 0 L622.52 0 L390.36 642 L240.1 642 L5.53999 0 L155.22 0 L199.17 126.56 L425.15 126.56 L469.22 0 Z M242.41 251.07 L293.82 399.14 L311.81 456.36 L330.29 399.02 L381.8 251.07 L242.41 251.07 Z " />
<glyph glyph-name="Atilde" unicode="&#xc3;" horiz-adv-x="630" d="M257.95 730.62 C297.95 730.62 327.15 691.03 387.17 691.03 C445.19 691.03 500.07 725.59 518.13 797.2 L417.74 837.28 C409.86 815.05 395.03 801.3 370.89 801.3 C334.1 801.3 299.01 842.09 241.25 842.09 C180.95 842.09 126.97 804.74 108.77 729.06 L209.3 689.95 C217.11 713.49 232.84 730.62 257.94 730.62 L257.95 730.62 Z M469.21 0 L622.51 0 L390.35 642 L240.09 642 L5.53003 0 L155.21 0 L199.16 126.56 L425.14 126.56 L469.21 0 Z M242.4 251.07 L293.81 399.14 L311.8 456.36 L330.28 399.02 L381.79 251.07 L242.4 251.07 Z " />
<glyph glyph-name="Adieresis" unicode="&#xc4;" horiz-adv-x="630" d="M198.1 695.48 C240.13 695.48 274.09 728.94 274.09 771.01 C274.09 812.09 240.41 845.61 198.1 845.61 C156.34 845.61 122.73 812.09 122.73 771.01 C122.73 728.94 156.62 695.48 198.1 695.48 L198.1 695.48 Z M429.92 695.48 C471.88 695.48 505.84 728.94 505.84 771.01 C505.84 812.09 472.16 845.61 429.92 845.61 C388.16 845.61 354.48 812.09 354.48 771.01 C354.48 728.94 388.43 695.48 429.92 695.48 L429.92 695.48 Z M469.22 0 L622.52 0 L390.36 642 L240.1 642 L5.54007 0 L155.22 0 L199.17 126.56 L425.15 126.56 L469.22 0 Z M242.41 251.07 L293.82 399.14 L311.81 456.36 L330.29 399.02 L381.8 251.07 L242.41 251.07 Z " />
<glyph glyph-name="Aring" unicode="&#xc5;" horiz-adv-x="630" d="M314.98 659.45 C380.77 659.45 432.94 713.66 432.94 779.6 C432.94 845.74 380.77 899.95 314.98 899.95 C248.01 899.95 195.81 845.74 195.81 779.6 C195.81 713.66 248.01 659.45 314.98 659.45 L314.98 659.45 Z M314.5 821.91 C339.36 821.91 353.8 802.15 353.8 779.46 C353.8 757.7 339.36 737.94 314.5 737.94 C290.11 737.94 274.7 757.7 274.7 779.46 C274.7 802.15 290.11 821.91 314.5 821.91 L314.5 821.91 Z M469.22 0 L622.52 0 L390.36 642 L240.1 642 L5.54001 0 L155.22 0 L199.17 126.56 L425.15 126.56 L469.22 0 Z M242.41 251.07 L293.82 399.14 L311.81 456.36 L330.29 399.02 L381.8 251.07 L242.41 251.07 Z " />
<glyph glyph-name="AE" unicode="&#xc6;" horiz-adv-x="900" d="M585.48 132.65 L585.48 259.19 L819.33 259.19 L819.33 390.46 L585.48 390.46 L585.48 509.04 L848.81 509.04 L848.81 642 L362.55 642 L-6.42 0 L149.54 0 L231.03 140.36 L436.48 140.36 L436.48 0 L857.73 0 L857.73 132.65 L585.48 132.65 Z M303.31 264.87 L436.48 494.25 L436.48 264.87 L303.31 264.87 Z " />
<glyph glyph-name="Ccedilla" unicode="&#xc7;" horiz-adv-x="585" d="M384.55 -36.62 L392.33 -14.87 C484.7 -9.15999 538.6 20.97 571.79 49.48 L491.33 169.44 C462.33 142.98 427.31 124.03 366.72 124.03 C266.72 124.03 197.4 199.83 197.4 321 C197.4 443.81 265.58 517.59 370.38 517.59 C410.93 517.59 443.27 507.36 479.73 480.94 L560.55 599.14 C517.79 632.34 454.44 659.52 366.18 659.52 C171.38 659.52 35.99 518.84 35.99 321 C35.99 138.5 140.6 7.61002 311.83 -12.99 L288.95 -74.62 C325.67 -75.62 352.52 -82.62 352.52 -108.62 C352.52 -128.41 336.21 -137.31 316.09 -137.31 C298.72 -137.31 284.18 -132.44 270.8 -123.62 L240.3 -193.01 C258 -207.81 300.69 -219.67 339.54 -219.67 C398.59 -219.67 468.37 -196.81 468.37 -118.27 C468.37 -64 425.32 -38.92 384.55 -36.62 L384.55 -36.62 Z " />
<glyph glyph-name="Egrave" unicode="&#xc8;" horiz-adv-x="534" d="M409.23 754.73 L181.89 852.16 L141.62 724.93 L383.75 676.76 L409.23 754.73 Z M218.78 132.65 L218.78 259.19 L452.63 259.19 L452.63 390.46 L218.78 390.46 L218.78 509.04 L482.11 509.04 L482.11 642 L69.78 642 L69.78 0 L491.03 0 L491.03 132.65 L218.78 132.65 Z " />
<glyph glyph-name="Eacute" unicode="&#xc9;" horiz-adv-x="534" d="M423.76 724.93 L382.8 854.23 L155.46 756.8 L181.63 676.76 L423.76 724.93 Z M218.78 132.65 L218.78 259.19 L452.63 259.19 L452.63 390.46 L218.78 390.46 L218.78 509.04 L482.11 509.04 L482.11 642 L69.78 642 L69.78 1.52588e-05 L491.03 1.52588e-05 L491.03 132.65 L218.78 132.65 Z " />
<glyph glyph-name="Ecircumflex" unicode="&#xca;" horiz-adv-x="534" d="M283.12 743.28 L410.82 679.9 L456.35 750.88 L326.49 846.37 L239.88 846.37 L110.02 750.88 L155.55 679.9 L283.12 743.28 Z M218.78 132.65 L218.78 259.19 L452.63 259.19 L452.63 390.46 L218.78 390.46 L218.78 509.04 L482.11 509.04 L482.11 642 L69.78 642 L69.78 0 L491.03 0 L491.03 132.65 L218.78 132.65 Z " />
<glyph glyph-name="Edieresis" unicode="&#xcb;" horiz-adv-x="534" d="M168.91 695.48 C210.94 695.48 244.9 728.94 244.9 771.01 C244.9 812.09 211.22 845.61 168.91 845.61 C127.15 845.61 93.54 812.09 93.54 771.01 C93.54 728.94 127.43 695.48 168.91 695.48 L168.91 695.48 Z M400.73 695.48 C442.69 695.48 476.65 728.94 476.65 771.01 C476.65 812.09 442.97 845.61 400.73 845.61 C358.97 845.61 325.29 812.09 325.29 771.01 C325.29 728.94 359.25 695.48 400.73 695.48 L400.73 695.48 Z M218.78 132.65 L218.78 259.19 L452.63 259.19 L452.63 390.46 L218.78 390.46 L218.78 509.04 L482.11 509.04 L482.11 642 L69.7801 642 L69.7801 0 L491.03 0 L491.03 132.65 L218.78 132.65 Z " />
<glyph glyph-name="Igrave" unicode="&#xcc;" horiz-adv-x="402" d="M318.79 754.73 L91.45 852.16 L51.18 724.93 L293.31 676.76 L318.79 754.73 Z M356.77 510.59 L356.77 642 L44.65 642 L44.65 510.59 L126.11 510.59 L126.11 131.41 L44.65 131.41 L44.65 0 L356.77 0 L356.77 131.41 L275.32 131.41 L275.32 510.59 L356.77 510.59 Z " />
<glyph glyph-name="Iacute" unicode="&#xcd;" horiz-adv-x="402" d="M343.66 724.93 L302.7 854.23 L75.36 756.8 L101.53 676.76 L343.66 724.93 Z M356.77 510.59 L356.77 642 L44.65 642 L44.65 510.59 L126.11 510.59 L126.11 131.41 L44.65 131.41 L44.65 1.52588e-05 L356.77 1.52588e-05 L356.77 131.41 L275.32 131.41 L275.32 510.59 L356.77 510.59 Z " />
<glyph glyph-name="Icircumflex" unicode="&#xce;" horiz-adv-x="402" d="M198.56 743.28 L326.25 679.9 L371.79 750.88 L241.92 846.37 L155.32 846.37 L25.45 750.88 L70.99 679.9 L198.56 743.28 Z M356.77 642 L44.65 642 L44.65 510.59 L126.11 510.59 L126.11 131.41 L44.65 131.41 L44.65 0 L356.77 0 L356.77 131.41 L275.32 131.41 L275.32 510.59 L356.77 510.59 L356.77 642 Z " />
<glyph glyph-name="Idieresis" unicode="&#xcf;" horiz-adv-x="402" d="M106.87 699.03 C148.91 699.03 182.86 732.49 182.86 774.56 C182.86 815.64 149.19 849.16 106.87 849.16 C65.18 849.16 31.51 815.64 31.51 774.56 C31.51 732.49 65.46 699.03 106.87 699.03 L106.87 699.03 Z M293.99 699.03 C335.96 699.03 369.91 732.49 369.91 774.56 C369.91 815.64 336.24 849.16 293.99 849.16 C252.23 849.16 218.56 815.64 218.56 774.56 C218.56 732.49 252.51 699.03 293.99 699.03 L293.99 699.03 Z M356.77 642 L44.65 642 L44.65 510.59 L126.11 510.59 L126.11 131.41 L44.65 131.41 L44.65 0 L356.77 0 L356.77 131.41 L275.32 131.41 L275.32 510.59 L356.77 510.59 L356.77 642 Z " />
<glyph glyph-name="Eth" unicode="&#xd0;" horiz-adv-x="677" d="M291.91 642 L82.3 642 L82.3 368.65 L14.64 368.65 L14.64 266.05 L82.3 266.05 L82.3 -1.52588e-05 L294.38 -1.52588e-05 C511.9 -1.52588e-05 639.76 120.81 639.76 323.96 C639.76 519.91 516.69 641.93 291.91 642 L291.91 642 Z M302.55 140.62 L231.58 140.62 L231.58 266.05 L328.93 266.05 L328.93 368.65 L231.58 368.65 L231.58 500.76 L298.86 500.76 C412.79 500.76 475.96 443.48 475.96 324.24 C475.96 206.8 412.39 140.62 302.55 140.62 L302.55 140.62 Z " />
<glyph glyph-name="Ntilde" unicode="&#xd1;" horiz-adv-x="681" d="M291.12 730.62 C331.12 730.62 360.32 691.03 420.34 691.03 C478.36 691.03 533.24 725.59 551.3 797.2 L450.91 837.28 C443.03 815.05 428.2 801.3 404.06 801.3 C367.27 801.3 332.18 842.09 274.42 842.09 C214.12 842.09 160.14 804.74 141.94 729.06 L242.47 689.95 C250.28 713.49 266.01 730.62 291.11 730.62 L291.12 730.62 Z M462.33 642 L462.33 284.74 L466.22 235.34 L445.41 273.19 L215.48 642 L69.77 642 L69.77 1.52588e-05 L217.93 1.52588e-05 L217.93 351.87 L214.23 398.54 L234.92 360.32 L464 0 L610.5 0 L610.5 642 L462.33 642 Z " />
<glyph glyph-name="Ograve" unicode="&#xd2;" horiz-adv-x="725" d="M466.45 676.76 L491.94 754.73 L264.59 852.16 L224.33 724.93 L466.45 676.76 Z M362.18 659.52 C172.43 659.52 35.99 521.29 35.99 322 C35.99 119.08 172.43 -15.83 362.18 -15.83 C551.89 -15.83 688.34 124.05 688.34 322 C688.34 526.12 551.89 659.52 362.18 659.52 L362.18 659.52 Z M362.18 524.08 C462.36 524.08 527.2 446.54 527.2 322 C527.2 199.74 462.36 119.64 362.18 119.64 C261.96 119.64 197.13 199.74 197.13 322 C197.13 446.54 261.96 524.08 362.18 524.08 L362.18 524.08 Z " />
<glyph glyph-name="Oacute" unicode="&#xd3;" horiz-adv-x="725" d="M264.34 676.76 L506.46 724.93 L465.51 854.23 L238.16 756.8 L264.34 676.76 Z M362.18 659.52 C172.43 659.52 35.99 521.29 35.99 322 C35.99 119.08 172.43 -15.83 362.18 -15.83 C551.89 -15.83 688.34 124.05 688.34 322 C688.34 526.12 551.89 659.52 362.18 659.52 L362.18 659.52 Z M362.18 524.08 C462.36 524.08 527.2 446.54 527.2 322 C527.2 199.74 462.36 119.64 362.18 119.64 C261.96 119.64 197.13 199.74 197.13 322 C197.13 446.54 261.96 524.08 362.18 524.08 L362.18 524.08 Z " />
<glyph glyph-name="Ocircumflex" unicode="&#xd4;" horiz-adv-x="725" d="M409.19 846.37 L322.59 846.37 L192.72 750.88 L238.26 679.9 L365.83 743.28 L493.52 679.9 L539.06 750.88 L409.19 846.37 Z M362.18 659.52 C172.43 659.52 35.99 521.29 35.99 322 C35.99 119.08 172.43 -15.83 362.18 -15.83 C551.89 -15.83 688.34 124.05 688.34 322 C688.34 526.12 551.89 659.52 362.18 659.52 L362.18 659.52 Z M362.18 524.08 C462.36 524.08 527.2 446.54 527.2 322 C527.2 199.74 462.36 119.64 362.18 119.64 C261.96 119.64 197.13 199.74 197.13 322 C197.13 446.54 261.96 524.08 362.18 524.08 L362.18 524.08 Z " />
<glyph glyph-name="Otilde" unicode="&#xd5;" horiz-adv-x="725" d="M262.82 689.95 C270.64 713.49 286.37 730.62 311.47 730.62 C351.47 730.62 380.68 691.03 440.7 691.03 C498.72 691.03 553.6 725.59 571.66 797.2 L471.27 837.28 C463.39 815.05 448.56 801.3 424.42 801.3 C387.63 801.3 352.53 842.09 294.78 842.09 C234.48 842.09 180.49 804.74 162.3 729.06 L262.82 689.95 Z M362.18 659.52 C172.43 659.52 35.99 521.29 35.99 322 C35.99 119.08 172.43 -15.83 362.18 -15.83 C551.89 -15.83 688.34 124.05 688.34 322 C688.34 526.12 551.89 659.52 362.18 659.52 L362.18 659.52 Z M362.18 524.08 C462.36 524.08 527.2 446.54 527.2 322 C527.2 199.74 462.36 119.64 362.18 119.64 C261.96 119.64 197.13 199.74 197.13 322 C197.13 446.54 261.96 524.08 362.18 524.08 L362.18 524.08 Z " />
<glyph glyph-name="Odieresis" unicode="&#xd6;" horiz-adv-x="725" d="M327.6 771.01 C327.6 812.09 293.93 845.61 251.62 845.61 C209.85 845.61 176.25 812.09 176.25 771.01 C176.25 728.94 210.13 695.48 251.62 695.48 C293.65 695.48 327.6 728.94 327.6 771.01 L327.6 771.01 Z M559.35 771.01 C559.35 812.09 525.68 845.61 483.43 845.61 C441.67 845.61 408 812.09 408 771.01 C408 728.94 441.95 695.48 483.43 695.48 C525.4 695.48 559.35 728.94 559.35 771.01 L559.35 771.01 Z M362.18 659.52 C172.43 659.52 35.99 521.29 35.99 322 C35.99 119.08 172.43 -15.83 362.18 -15.83 C551.89 -15.83 688.34 124.05 688.34 322 C688.34 526.12 551.89 659.52 362.18 659.52 L362.18 659.52 Z M362.18 524.08 C462.36 524.08 527.2 446.54 527.2 322 C527.2 199.74 462.36 119.64 362.18 119.64 C261.96 119.64 197.13 199.74 197.13 322 C197.13 446.54 261.96 524.08 362.18 524.08 L362.18 524.08 Z " />
<glyph glyph-name="multiply" unicode="&#xd7;" horiz-adv-x="515" d="M472.98 392.89 L395.79 470.08 L257.17 331.46 L118.41 470.22 L41.23 392.96 L179.95 254.24 L41.23 115.52 L118.41 38.33 L257.14 177.05 L395.72 38.47 L472.98 115.65 L334.36 254.27 L472.98 392.89 Z " />
<glyph glyph-name="Oslash" unicode="&#xd8;" horiz-adv-x="729" d="M695.61 623.09 L633.19 681.13 L559.51 600.48 C506.22 638.53 439.35 659.52 364.11 659.52 C174.36 659.52 37.92 521.29 37.92 322 C37.92 235.26 62.85 160.95 106.21 104.29 L30.25 21.15 L93.53 -38.65 L168.52 43.77 C221.85 5.43001 288.78 -15.83 364.11 -15.83 C553.82 -15.83 690.27 124.05 690.27 322 C690.27 409.83 665.01 484.56 621.11 541.21 L695.61 623.09 Z M199.06 322 C199.06 446.54 263.89 524.08 364.11 524.08 C401.94 524.08 434.74 513.02 460.9 492.54 L215.81 224.26 C204.91 252.35 199.06 285.27 199.06 322 L199.06 322 Z M529.13 322 C529.13 199.74 464.29 119.64 364.11 119.64 C326.14 119.64 293.26 131.13 267.05 152.06 L512.1 421.39 C523.18 393.14 529.13 359.72 529.13 322 L529.13 322 Z " />
<glyph glyph-name="Ugrave" unicode="&#xd9;" horiz-adv-x="662" d="M431.97 676.76 L457.45 754.73 L230.11 852.16 L189.84 724.93 L431.97 676.76 Z M332.22 -15.83 C489.02 -15.83 599.73 85.17 599.73 262.9 L599.73 642 L453.59 642 L453.59 260.83 C453.59 174.46 409.34 123.58 333.64 123.58 C257.73 123.58 212.61 174.46 212.61 260.83 L212.61 642 L62.78 642 L62.78 258.07 C62.78 77.65 169.4 -15.83 332.22 -15.83 L332.22 -15.83 Z " />
<glyph glyph-name="Uacute" unicode="&#xda;" horiz-adv-x="662" d="M229.85 676.76 L471.98 724.93 L431.02 854.23 L203.68 756.8 L229.85 676.76 Z M332.22 -15.83 C489.02 -15.83 599.73 85.17 599.73 262.9 L599.73 642 L453.59 642 L453.59 260.83 C453.59 174.46 409.34 123.58 333.64 123.58 C257.73 123.58 212.61 174.46 212.61 260.83 L212.61 642 L62.78 642 L62.78 258.07 C62.78 77.65 169.4 -15.83 332.22 -15.83 L332.22 -15.83 Z " />
<glyph glyph-name="Ucircumflex" unicode="&#xdb;" horiz-adv-x="662" d="M374.71 846.37 L288.1 846.37 L158.24 750.88 L203.77 679.9 L331.34 743.28 L459.04 679.9 L504.57 750.88 L374.71 846.37 Z M332.22 -15.83 C489.02 -15.83 599.73 85.17 599.73 262.9 L599.73 642 L453.59 642 L453.59 260.83 C453.59 174.46 409.34 123.58 333.64 123.58 C257.73 123.58 212.61 174.46 212.61 260.83 L212.61 642 L62.78 642 L62.78 258.07 C62.78 77.65 169.4 -15.83 332.22 -15.83 L332.22 -15.83 Z " />
<glyph glyph-name="Udieresis" unicode="&#xdc;" horiz-adv-x="662" d="M293.12 771.01 C293.12 812.09 259.44 845.61 217.13 845.61 C175.37 845.61 141.76 812.09 141.76 771.01 C141.76 728.94 175.65 695.48 217.13 695.48 C259.16 695.48 293.12 728.94 293.12 771.01 L293.12 771.01 Z M524.87 771.01 C524.87 812.09 491.19 845.61 448.95 845.61 C407.19 845.61 373.51 812.09 373.51 771.01 C373.51 728.94 407.47 695.48 448.95 695.48 C490.91 695.48 524.87 728.94 524.87 771.01 L524.87 771.01 Z M332.22 -15.83 C489.02 -15.83 599.73 85.17 599.73 262.9 L599.73 642 L453.59 642 L453.59 260.83 C453.59 174.46 409.34 123.58 333.64 123.58 C257.73 123.58 212.61 174.46 212.61 260.83 L212.61 642 L62.7801 642 L62.7801 258.07 C62.7801 77.65 169.4 -15.83 332.22 -15.83 L332.22 -15.83 Z " />
<glyph glyph-name="Yacute" unicode="&#xdd;" horiz-adv-x="622" d="M453.76 724.93 L412.8 854.23 L185.46 756.8 L211.63 676.76 L453.76 724.93 Z M613.2 642 L449.26 642 L338.17 430.48 L315.87 384.92 L294.97 430.14 L183.39 642 L5.3 642 L237.35 237.71 L237.35 1.52588e-05 L386.63 1.52588e-05 L386.63 238.48 L613.2 642 Z " />
<glyph glyph-name="Thorn" unicode="&#xde;" horiz-adv-x="587" d="M276.69 550.39 L219.06 550.39 L219.06 640.62 L69.78 640.62 L69.78 0 L219.06 0 L219.06 104.68 L284.13 104.68 C465.86 104.68 558.9 184.78 558.9 328.83 C558.9 455.08 480.44 550.39 276.69 550.39 L276.69 550.39 Z M283.51 233.64 L219.06 233.64 L219.06 420.79 L283.23 420.81 C368.46 420.81 405.72 377.45 405.72 327.65 C405.72 268.22 371 233.64 283.51 233.64 L283.51 233.64 Z " />
<glyph glyph-name="germandbls" unicode="&#xdf;" horiz-adv-x="628" d="M322.32 692.18 C169.54 692.18 53.95 603.97 53.47 452.75 L53.47 -1.52588e-05 L203.54 -1.52588e-05 L203.54 441.71 C204.02 525.58 247.22 572.57 317.77 572.57 C376.31 572.57 408.96 548.85 408.96 511.04 C408.96 444.54 282.81 440.91 282.81 333.65 C282.81 196.99 462.62 202.88 462.62 133.14 C462.62 112.5 448.69 99.02 414.05 99.02 C378.3 99.02 342.64 118.26 314.74 139.57 L249.07 43.65 C275.56 16.93 339.32 -15.83 422.53 -15.83 C545.38 -15.83 607.86 50.6 607.86 135.07 C607.86 286.01 441.53 279.8 441.53 341.59 C441.53 400.43 554.2 404.09 554.2 517.66 C554.2 614.74 460.09 692.18 322.32 692.18 L322.32 692.18 Z " />
<glyph glyph-name="agrave" unicode="&#xe0;" horiz-adv-x="523" d="M371.7 585.28 L192 737.28 L116.5 628.37 L321.68 515.19 L371.7 585.28 Z M492.85 5.37 C478.57 33.54 470.57 70.26 470.57 119.79 L470.57 280.29 C470.57 430.95 384.49 487.82 227.71 487.82 C150.12 487.82 87.16 468.77 49.81 450.36 L77.58 337.26 C111.44 351.14 159.59 364.52 214.3 364.52 C294.09 364.52 321.87 339.11 321.87 298.88 L321.87 281.2 L240.24 281.2 C108.04 281.4 26.44 230.53 26.44 131.99 C26.44 30.95 106.91 -15.84 191.18 -15.84 C251.51 -15.84 295.22 8.92001 327.42 44.91 C331.92 18.97 339.14 -1.23999 348.84 -18.01 L492.85 5.37 Z M232.26 87.97 C197.5 87.97 175.48 107.25 175.48 143.3 C175.48 175.95 197.87 199.41 253.17 199.57 L321.63 199.67 L321.63 167.65 C317.63 124.06 285.3 87.97 232.27 87.97 L232.26 87.97 Z " />
<glyph glyph-name="aacute" unicode="&#xe1;" horiz-adv-x="523" d="M375.42 628.38 L299.91 737.29 L120.21 585.29 L170.23 515.21 L375.42 628.38 Z M492.85 5.39 C478.57 33.56 470.57 70.28 470.57 119.81 L470.57 280.31 C470.57 430.97 384.49 487.84 227.71 487.84 C150.12 487.84 87.16 468.79 49.81 450.38 L77.58 337.28 C111.44 351.16 159.59 364.54 214.3 364.54 C294.09 364.54 321.87 339.13 321.87 298.9 L321.87 281.22 L240.24 281.22 C108.04 281.42 26.44 230.55 26.44 132.01 C26.44 30.97 106.91 -15.82 191.18 -15.82 C251.51 -15.82 295.22 8.94002 327.42 44.93 C331.92 18.99 339.14 -1.21999 348.84 -17.99 L492.85 5.39 Z M232.26 87.99 C197.5 87.99 175.48 107.27 175.48 143.32 C175.48 175.97 197.87 199.43 253.17 199.59 L321.63 199.69 L321.63 167.67 C317.63 124.08 285.3 87.99 232.27 87.99 L232.26 87.99 Z " />
<glyph glyph-name="acircumflex" unicode="&#xe2;" horiz-adv-x="523" d="M246.66 613.97 L356.14 520.75 L417.52 587.04 L290.16 718.56 L203.22 718.56 L75.87 587.04 L137.24 520.75 L246.66 613.97 Z M492.85 5.38 C478.57 33.55 470.57 70.27 470.57 119.8 L470.57 280.3 C470.57 430.96 384.49 487.83 227.71 487.83 C150.12 487.83 87.16 468.78 49.81 450.37 L77.58 337.27 C111.44 351.15 159.59 364.53 214.3 364.53 C294.09 364.53 321.87 339.12 321.87 298.89 L321.87 281.21 L240.24 281.21 C108.04 281.41 26.44 230.54 26.44 132 C26.44 30.96 106.91 -15.83 191.18 -15.83 C251.51 -15.83 295.22 8.93002 327.42 44.92 C331.92 18.98 339.14 -1.22998 348.84 -18 L492.85 5.38 Z M232.26 87.98 C197.5 87.98 175.48 107.26 175.48 143.31 C175.48 175.96 197.87 199.42 253.17 199.58 L321.63 199.68 L321.63 167.66 C317.63 124.07 285.3 87.98 232.27 87.98 L232.26 87.98 Z " />
<glyph glyph-name="atilde" unicode="&#xe3;" horiz-adv-x="523" d="M195.89 589.07 C228.86 589.07 261.72 553.69 316.43 553.69 C377.28 553.69 428.78 596.25 443.53 669.72 L346.38 705.17 C339.46 682.32 324.08 667.61 302.84 667.61 C269.85 667.61 235.44 703.99 181.55 703.99 C120.35 703.99 69.47 659.74 54.86 583.5 L152.01 548.05 C158.93 572.76 174.31 589.07 195.89 589.07 L195.89 589.07 Z M492.85 5.37999 C478.57 33.55 470.57 70.27 470.57 119.8 L470.57 280.3 C470.57 430.96 384.49 487.83 227.71 487.83 C150.12 487.83 87.16 468.78 49.81 450.37 L77.58 337.27 C111.44 351.15 159.59 364.53 214.3 364.53 C294.09 364.53 321.87 339.12 321.87 298.89 L321.87 281.21 L240.24 281.21 C108.04 281.41 26.44 230.54 26.44 132 C26.44 30.96 106.91 -15.83 191.18 -15.83 C251.51 -15.83 295.22 8.93001 327.42 44.92 C331.92 18.98 339.14 -1.23 348.84 -18 L492.85 5.37999 Z M232.26 87.98 C197.5 87.98 175.48 107.26 175.48 143.31 C175.48 175.96 197.87 199.42 253.17 199.58 L321.63 199.68 L321.63 167.66 C317.63 124.07 285.3 87.98 232.27 87.98 L232.26 87.98 Z " />
<glyph glyph-name="adieresis" unicode="&#xe4;" horiz-adv-x="523" d="M137.5 541.37 C179.16 541.37 212.96 574.98 212.96 617.31 C212.96 658.6 179.16 692.28 137.5 692.28 C95.5 692.28 61.77 658.6 61.77 617.31 C61.77 574.98 95.81 541.37 137.51 541.37 L137.5 541.37 Z M360.06 541.37 C401.65 541.37 435.79 574.98 435.79 617.31 C435.79 658.6 401.65 692.28 360.06 692.28 C318.39 692.28 284.53 658.6 284.53 617.31 C284.53 574.98 318.67 541.37 360.06 541.37 L360.06 541.37 Z M492.86 5.37999 C478.58 33.55 470.58 70.27 470.58 119.8 L470.58 280.3 C470.58 430.96 384.5 487.83 227.72 487.83 C150.13 487.83 87.17 468.78 49.82 450.37 L77.59 337.27 C111.45 351.15 159.6 364.53 214.31 364.53 C294.1 364.53 321.88 339.12 321.88 298.89 L321.88 281.21 L240.25 281.21 C108.05 281.41 26.45 230.54 26.45 132 C26.45 30.96 106.92 -15.83 191.19 -15.83 C251.52 -15.83 295.23 8.93001 327.43 44.92 C331.93 18.98 339.15 -1.23 348.85 -18 L492.86 5.37999 Z M232.27 87.98 C197.51 87.98 175.49 107.26 175.49 143.31 C175.49 175.96 197.88 199.42 253.18 199.58 L321.64 199.68 L321.64 167.66 C317.64 124.07 285.31 87.98 232.28 87.98 L232.27 87.98 Z " />
<glyph glyph-name="aring" unicode="&#xe5;" horiz-adv-x="523" d="M249.21 507.07 C315.76 507.07 368.57 561.28 368.57 627.22 C368.57 693.36 315.76 747.57 249.21 747.57 C181.45 747.57 128.63 693.36 128.63 627.22 C128.63 561.28 181.45 507.07 249.21 507.07 L249.21 507.07 Z M248.72 669.84 C273.87 669.84 288.87 650.08 288.87 627.08 C288.87 605.01 273.87 585.25 248.72 585.25 C224.61 585.25 208.62 605.01 208.62 627.08 C208.62 650.08 224.61 669.84 248.72 669.84 L248.72 669.84 Z M492.85 5.38 C478.57 33.55 470.57 70.27 470.57 119.8 L470.57 280.3 C470.57 430.96 384.49 487.83 227.71 487.83 C150.12 487.83 87.16 468.78 49.81 450.37 L77.58 337.27 C111.44 351.15 159.59 364.53 214.3 364.53 C294.09 364.53 321.87 339.12 321.87 298.89 L321.87 281.21 L240.24 281.21 C108.04 281.41 26.44 230.54 26.44 132 C26.44 30.96 106.91 -15.83 191.18 -15.83 C251.51 -15.83 295.22 8.93002 327.42 44.92 C331.92 18.98 339.14 -1.22998 348.84 -18 L492.85 5.38 Z M232.26 87.98 C197.5 87.98 175.48 107.26 175.48 143.31 C175.48 175.96 197.87 199.42 253.17 199.58 L321.63 199.68 L321.63 167.66 C317.63 124.07 285.3 87.98 232.27 87.98 L232.26 87.98 Z " />
<glyph glyph-name="ae" unicode="&#xe6;" horiz-adv-x="817" d="M784.47 270.48 C784.47 402.46 695.62 487.83 565.06 487.83 C506.26 487.83 453.93 469.12 413.04 436.34 C371.87 472.4 309.36 487.83 227.71 487.83 C150.12 487.83 87.16 468.78 49.81 450.37 L77.58 337.27 C111.44 351.15 159.59 364.53 214.3 364.53 C294.09 364.53 321.66 339.12 321.66 298.89 L321.53 280.86 L239.9 280.86 C107.7 282.45 26.44 230.54 26.44 132 C26.44 30.96 106.91 -15.83 191.18 -15.83 C269.15 -15.83 331.33 18.57 367.42 80.98 C412.89 18.01 488.87 -15.83 577.49 -15.83 C672 -15.83 732.24 11.28 773.09 40.39 L723.51 142.81 C688.97 121.77 648.95 103.71 593.51 103.71 C524.61 103.71 483.71 135.42 474.24 200.82 L779.95 200.82 C783.44 223.71 784.47 246.83 784.47 270.48 L784.47 270.48 Z M474.03 284.48 C481.2 338.15 511.81 374.43 565.75 374.43 C622.94 374.43 644.52 330.01 644.52 284.48 L474.03 284.48 Z M321.73 176.12 C319.87 123.86 285.7 87.98 232.26 87.98 C197.5 87.98 175.48 107.26 175.48 143.31 C175.48 175.96 197.99 199.42 253.3 199.58 L321.76 199.73 L321.73 176.12 Z " />
<glyph glyph-name="ccedilla" unicode="&#xe7;" horiz-adv-x="466" d="M304.35 -36.62 L312.05 -15.09 C373.49 -10.62 420.55 13.4 451.82 38.32 L394.42 144.75 C371.89 123.59 336.62 108.54 299.92 108.54 C218.8 108.54 181.93 166.77 181.93 237.76 C181.93 308.75 224.11 362.39 301.09 362.39 C339.07 362.39 371.65 352.76 400.98 334.07 L431.74 452.75 C398.17 472.7 346.3 487.83 288.68 487.83 C141.92 487.83 32.37 391.9 32.37 235.69 C32.37 96.35 107.3 9.06999 232.27 -11.26 L208.75 -74.62 C245.47 -75.62 272.32 -82.62 272.32 -108.62 C272.32 -128.41 256.01 -137.31 235.89 -137.31 C218.52 -137.31 203.98 -132.44 190.6 -123.62 L160.1 -193.01 C177.8 -207.81 220.49 -219.67 259.34 -219.67 C318.39 -219.67 388.17 -196.81 388.17 -118.27 C388.17 -64 345.12 -38.92 304.35 -36.62 L304.35 -36.62 Z " />
<glyph glyph-name="egrave" unicode="&#xe8;" horiz-adv-x="528" d="M392.24 585.28 L212.54 737.28 L137.04 628.37 L342.22 515.19 L392.24 585.28 Z M494.58 270.47 C494.58 402.45 405.73 487.82 275.16 487.82 C135.56 487.82 32.37 382.38 32.37 233.3 C32.37 74.02 143.19 -15.84 287.6 -15.84 C382.11 -15.84 442.35 11.27 483.19 40.38 L433.62 142.8 C399.07 121.76 359.05 103.7 303.61 103.7 C234.71 103.7 193.82 135.41 184.34 200.81 L490.05 200.81 C493.55 223.7 494.58 246.82 494.58 270.47 L494.58 270.47 Z M184.13 284.47 C191.3 338.14 221.91 374.42 275.85 374.42 C333.04 374.42 354.62 330 354.62 284.47 L184.13 284.47 Z " />
<glyph glyph-name="eacute" unicode="&#xe9;" horiz-adv-x="528" d="M395.95 628.38 L320.45 737.29 L140.75 585.29 L190.77 515.21 L395.95 628.38 Z M494.58 270.49 C494.58 402.47 405.73 487.84 275.16 487.84 C135.56 487.84 32.37 382.4 32.37 233.32 C32.37 74.04 143.19 -15.82 287.6 -15.82 C382.11 -15.82 442.35 11.29 483.19 40.4 L433.62 142.82 C399.07 121.78 359.05 103.72 303.61 103.72 C234.71 103.72 193.82 135.43 184.34 200.83 L490.05 200.83 C493.55 223.72 494.58 246.84 494.58 270.49 L494.58 270.49 Z M184.13 284.49 C191.3 338.16 221.91 374.44 275.85 374.44 C333.04 374.44 354.62 330.02 354.62 284.49 L184.13 284.49 Z " />
<glyph glyph-name="ecircumflex" unicode="&#xea;" horiz-adv-x="528" d="M267.2 613.97 L376.68 520.75 L438.05 587.04 L310.7 718.56 L223.76 718.56 L96.4 587.04 L157.78 520.75 L267.2 613.97 Z M494.58 270.48 C494.58 402.46 405.73 487.83 275.16 487.83 C135.56 487.83 32.37 382.39 32.37 233.31 C32.37 74.03 143.19 -15.83 287.6 -15.83 C382.11 -15.83 442.35 11.28 483.19 40.39 L433.62 142.81 C399.07 121.77 359.05 103.71 303.61 103.71 C234.71 103.71 193.82 135.42 184.34 200.82 L490.05 200.82 C493.55 223.71 494.58 246.83 494.58 270.48 L494.58 270.48 Z M184.13 284.48 C191.3 338.15 221.91 374.43 275.85 374.43 C333.04 374.43 354.62 330.01 354.62 284.48 L184.13 284.48 Z " />
<glyph glyph-name="edieresis" unicode="&#xeb;" horiz-adv-x="528" d="M158.04 541.37 C199.7 541.37 233.5 574.98 233.5 617.31 C233.5 658.6 199.7 692.28 158.04 692.28 C116.04 692.28 82.31 658.6 82.31 617.31 C82.31 574.98 116.35 541.37 158.05 541.37 L158.04 541.37 Z M380.6 541.37 C422.19 541.37 456.33 574.98 456.33 617.31 C456.33 658.6 422.19 692.28 380.6 692.28 C338.93 692.28 305.07 658.6 305.07 617.31 C305.07 574.98 339.21 541.37 380.6 541.37 L380.6 541.37 Z M494.59 270.48 C494.59 402.46 405.74 487.83 275.17 487.83 C135.57 487.83 32.38 382.39 32.38 233.31 C32.38 74.03 143.2 -15.83 287.61 -15.83 C382.12 -15.83 442.36 11.28 483.2 40.39 L433.63 142.81 C399.08 121.77 359.06 103.71 303.62 103.71 C234.72 103.71 193.83 135.42 184.35 200.82 L490.06 200.82 C493.56 223.71 494.59 246.83 494.59 270.48 L494.59 270.48 Z M184.14 284.48 C191.31 338.15 221.92 374.43 275.86 374.43 C333.05 374.43 354.63 330.01 354.63 284.48 L184.14 284.48 Z " />
<glyph glyph-name="igrave" unicode="&#xec;" horiz-adv-x="281" d="M230.18 515.2 L280.2 585.28 L100.49 737.28 L24.99 628.37 L230.18 515.2 Z M226.95 471.37 L24.48 471.37 L24.48 340.85 L77.67 340.85 L77.67 -0.0100098 L226.95 -0.0100098 L226.95 471.37 Z " />
<glyph glyph-name="iacute" unicode="&#xed;" horiz-adv-x="281" d="M67.75 515.2 L272.94 628.38 L197.43 737.29 L17.73 585.29 L67.75 515.2 Z M226.95 471.39 L24.48 471.39 L24.48 340.87 L77.67 340.87 L77.67 0.00999451 L226.95 0.00999451 L226.95 471.39 Z " />
<glyph glyph-name="icircumflex" unicode="&#xee;" horiz-adv-x="281" d="M175.13 718.56 L88.19 718.56 L-39.16 587.04 L22.21 520.75 L131.63 613.97 L241.12 520.75 L302.49 587.04 L175.13 718.56 Z M226.95 471.38 L24.48 471.38 L24.48 340.86 L77.67 340.86 L77.67 -1.52588e-05 L226.95 -1.52588e-05 L226.95 471.38 Z " />
<glyph glyph-name="idieresis" unicode="&#xef;" horiz-adv-x="281" d="M41.49 692.28 C-0.509995 692.28 -34.24 658.6 -34.24 617.31 C-34.24 574.98 -0.199997 541.37 41.5 541.37 C83.16 541.37 116.96 574.98 116.96 617.31 C116.96 658.6 83.16 692.28 41.5 692.28 L41.49 692.28 Z M227.55 692.28 C185.88 692.28 152.02 658.6 152.02 617.31 C152.02 574.98 186.16 541.37 227.55 541.37 C269.14 541.37 303.28 574.98 303.28 617.31 C303.28 658.6 269.14 692.28 227.55 692.28 L227.55 692.28 Z M226.96 471.38 L24.49 471.38 L24.49 340.86 L77.68 340.86 L77.68 0 L226.96 0 L226.96 471.38 Z " />
<glyph glyph-name="eth" unicode="&#xf0;" horiz-adv-x="552" d="M515.89 235.77 C515.24 385.68 460.06 512.14 342.31 596.59 L384.33 642.1 L326 694.08 L273.37 637.61 C236.46 655.74 195.11 670.73 149.19 682.25 L107.7 566.68 C134.23 560.44 160.16 552.55 184.86 542.64 L143.92 498.7 L203.84 446.64 L257.34 504.57 C287.6 483.99 314.07 458.53 334.93 427.11 C313.43 432.8 291.56 435.79 270.31 435.79 C135.06 435.79 31.99 348.58 31.99 208.79 C31.99 69.58 130.79 -15.83 270.31 -15.83 C423.55 -15.83 516.04 82.03 516.04 234 L515.89 235.77 Z M272.48 106.99 C215.25 106.99 181.61 149.29 181.61 214.31 C181.61 282.04 216.8 321.94 272.79 321.94 C330.6 321.94 365.8 280.46 365.8 216.17 C365.8 150.84 333.39 106.99 272.48 106.99 L272.48 106.99 Z " />
<glyph glyph-name="ntilde" unicode="&#xf1;" horiz-adv-x="568" d="M229.43 589.07 C262.4 589.07 295.26 553.69 349.97 553.69 C410.82 553.69 462.32 596.25 477.07 669.72 L379.92 705.17 C373 682.32 357.62 667.61 336.38 667.61 C303.39 667.61 268.98 703.99 215.09 703.99 C153.89 703.99 103.01 659.74 88.4 583.5 L185.55 548.05 C192.47 572.76 207.85 589.07 229.43 589.07 L229.43 589.07 Z M340.82 487.83 C289.44 487.83 238.14 471.26 198.54 434.43 C194.29 456.89 187.75 475.84 178.55 492.27 L34.3 468.9 C47.71 440.72 55.55 404.03 55.55 354.47 L55.55 -1.52588e-05 L204.83 -1.52588e-05 L204.83 302.87 C220.23 328.14 254.07 354.18 296.5 354.18 C347.46 354.18 369.4 322.37 369.4 254.79 L369.4 -1.52588e-05 L518.68 -1.52588e-05 L518.68 277.68 C518.68 415.57 457.64 487.83 340.82 487.83 L340.82 487.83 Z " />
<glyph glyph-name="ograve" unicode="&#xf2;" horiz-adv-x="573" d="M359.79 515.2 L409.81 585.28 L230.11 737.28 L154.6 628.37 L359.79 515.2 Z M287.67 487.82 C140.37 487.82 32.37 388.26 32.37 236.68 C32.37 80.15 138.15 -15.84 286.17 -15.84 C434.16 -15.84 540.77 84.98 540.77 236.68 C540.77 390.33 435.69 487.82 287.67 487.82 L287.67 487.82 Z M286.9 108.84 C221.42 108.84 181.93 158.44 181.93 236.68 C181.93 315.38 221.35 365.21 286.9 365.21 C352.28 365.21 391.21 315.66 391.21 236.62 C391.21 158.03 352.14 108.84 286.9 108.84 L286.9 108.84 Z " />
<glyph glyph-name="oacute" unicode="&#xf3;" horiz-adv-x="573" d="M208.34 515.2 L413.52 628.38 L338.02 737.29 L158.32 585.29 L208.34 515.2 Z M287.67 487.84 C140.37 487.84 32.37 388.28 32.37 236.7 C32.37 80.17 138.15 -15.82 286.17 -15.82 C434.16 -15.82 540.77 85 540.77 236.7 C540.77 390.35 435.69 487.84 287.67 487.84 L287.67 487.84 Z M286.9 108.86 C221.42 108.86 181.93 158.46 181.93 236.7 C181.93 315.4 221.35 365.23 286.9 365.23 C352.28 365.23 391.21 315.68 391.21 236.64 C391.21 158.05 352.14 108.86 286.9 108.86 L286.9 108.86 Z " />
<glyph glyph-name="ocircumflex" unicode="&#xf4;" horiz-adv-x="573" d="M328.27 718.56 L241.33 718.56 L113.97 587.04 L175.35 520.75 L284.77 613.97 L394.25 520.75 L455.62 587.04 L328.27 718.56 Z M287.67 487.83 C140.37 487.83 32.37 388.27 32.37 236.69 C32.37 80.16 138.15 -15.83 286.17 -15.83 C434.16 -15.83 540.77 84.99 540.77 236.69 C540.77 390.34 435.69 487.83 287.67 487.83 L287.67 487.83 Z M286.9 108.85 C221.42 108.85 181.93 158.45 181.93 236.69 C181.93 315.39 221.35 365.22 286.9 365.22 C352.28 365.22 391.21 315.67 391.21 236.63 C391.21 158.04 352.14 108.85 286.9 108.85 L286.9 108.85 Z " />
<glyph glyph-name="otilde" unicode="&#xf5;" horiz-adv-x="573" d="M190.12 548.05 C197.03 572.76 212.42 589.07 234 589.07 C266.97 589.07 299.83 553.69 354.54 553.69 C415.39 553.69 466.89 596.25 481.63 669.72 L384.49 705.17 C377.57 682.32 362.19 667.61 340.95 667.61 C307.96 667.61 273.55 703.99 219.65 703.99 C158.46 703.99 107.58 659.74 92.97 583.5 L190.12 548.05 Z M287.67 487.83 C140.37 487.83 32.37 388.27 32.37 236.69 C32.37 80.16 138.15 -15.83 286.17 -15.83 C434.16 -15.83 540.77 84.99 540.77 236.69 C540.77 390.34 435.69 487.83 287.67 487.83 L287.67 487.83 Z M286.9 108.85 C221.42 108.85 181.93 158.45 181.93 236.69 C181.93 315.39 221.35 365.22 286.9 365.22 C352.28 365.22 391.21 315.67 391.21 236.63 C391.21 158.04 352.14 108.85 286.9 108.85 L286.9 108.85 Z " />
<glyph glyph-name="odieresis" unicode="&#xf6;" horiz-adv-x="573" d="M251.07 617.31 C251.07 658.6 217.27 692.28 175.61 692.28 C133.61 692.28 99.88 658.6 99.88 617.31 C99.88 574.98 133.92 541.37 175.62 541.37 C217.28 541.37 251.08 574.98 251.08 617.31 L251.07 617.31 Z M473.9 617.31 C473.9 658.6 439.76 692.28 398.17 692.28 C356.5 692.28 322.64 658.6 322.64 617.31 C322.64 574.98 356.78 541.37 398.17 541.37 C439.76 541.37 473.9 574.98 473.9 617.31 L473.9 617.31 Z M287.68 487.83 C140.38 487.83 32.38 388.27 32.38 236.69 C32.38 80.16 138.16 -15.83 286.18 -15.83 C434.17 -15.83 540.78 84.99 540.78 236.69 C540.78 390.34 435.7 487.83 287.68 487.83 L287.68 487.83 Z M286.91 108.85 C221.43 108.85 181.94 158.45 181.94 236.69 C181.94 315.39 221.36 365.22 286.91 365.22 C352.29 365.22 391.22 315.67 391.22 236.63 C391.22 158.04 352.15 108.85 286.91 108.85 L286.91 108.85 Z " />
<glyph glyph-name="divide" unicode="&#xf7;" horiz-adv-x="546" d="M272.69 355.84 C322.07 355.84 362.56 395.91 362.56 445.02 C362.56 493.31 322.07 533.52 272.69 533.52 C223.69 533.52 183.2 493.31 183.2 445.02 C183.2 395.91 223.69 355.84 272.69 355.84 L272.69 355.84 Z M40.99 213.11 L504.77 213.11 L504.77 313.33 L40.99 313.33 L40.99 213.11 Z M272.69 -7.08 C322.07 -7.08 362.56 32.99 362.56 82.1 C362.56 130.45 322.07 170.6 272.69 170.6 C223.69 170.6 183.2 130.45 183.2 82.1 C183.2 32.99 223.69 -7.08 272.69 -7.08 L272.69 -7.08 Z " />
<glyph glyph-name="oslash" unicode="&#xf8;" horiz-adv-x="574" d="M484.81 404 L532.16 456.74 L481.26 503.64 L432.21 449.44 C392.21 474.32 343.07 487.83 287.98 487.83 C140.68 487.83 32.68 388.27 32.68 236.69 C32.68 168.29 52.87 111.45 87.97 69.13 L42.26 18.64 L93.16 -32.26 L142.06 22.21 C182.17 -2.53999 231.4 -15.83 286.48 -15.83 C434.47 -15.83 541.08 84.99 541.08 236.69 C541.08 304.63 520.53 361.59 484.81 404 L484.81 404 Z M182.24 236.69 C182.24 315.39 221.66 365.22 287.21 365.22 C308.53 365.22 327.03 359.95 342.29 350.11 L190 181.86 C184.9 197.96 182.24 216.35 182.24 236.69 L182.24 236.69 Z M287.21 108.85 C266.29 108.85 248.03 113.91 232.86 123.35 L383.94 291.64 C388.93 275.5 391.52 257.05 391.52 236.63 C391.52 158.04 352.45 108.85 287.21 108.85 L287.21 108.85 Z " />
<glyph glyph-name="ugrave" unicode="&#xf9;" horiz-adv-x="558" d="M398.57 585.28 L218.86 737.28 L143.36 628.37 L348.55 515.19 L398.57 585.28 Z M523.06 5.37 C509.65 33.54 501.81 70.23 501.81 119.79 L501.81 471.37 L352.53 471.37 L352.53 169.67 C339.08 143.57 309.73 116.91 267.82 116.91 C218.57 116.91 197.75 148.71 197.75 216.3 L197.75 471.37 L48.47 471.37 L48.47 193.41 C48.47 55.51 108.36 -16.74 223.53 -16.74 C276.28 -16.74 322.89 3.89999 358.15 43.57 C362.37 19.46 369.11 -0.680008 378.81 -18.01 L523.06 5.37 Z " />
<glyph glyph-name="uacute" unicode="&#xfa;" horiz-adv-x="558" d="M402.28 628.38 L326.78 737.29 L147.07 585.29 L197.09 515.21 L402.28 628.38 Z M523.06 5.39 C509.65 33.56 501.81 70.25 501.81 119.81 L501.81 471.39 L352.53 471.39 L352.53 169.69 C339.08 143.59 309.73 116.93 267.82 116.93 C218.57 116.93 197.75 148.73 197.75 216.32 L197.75 471.39 L48.47 471.39 L48.47 193.43 C48.47 55.53 108.36 -16.72 223.53 -16.72 C276.28 -16.72 322.89 3.92 358.15 43.59 C362.37 19.48 369.11 -0.660004 378.81 -17.99 L523.06 5.39 Z " />
<glyph glyph-name="ucircumflex" unicode="&#xfb;" horiz-adv-x="558" d="M273.52 613.97 L383.01 520.75 L444.38 587.04 L317.03 718.56 L230.09 718.56 L102.73 587.04 L164.1 520.75 L273.52 613.97 Z M523.06 5.38 C509.65 33.55 501.81 70.24 501.81 119.8 L501.81 471.38 L352.53 471.38 L352.53 169.68 C339.08 143.58 309.73 116.92 267.82 116.92 C218.57 116.92 197.75 148.72 197.75 216.31 L197.75 471.38 L48.47 471.38 L48.47 193.42 C48.47 55.52 108.36 -16.73 223.53 -16.73 C276.28 -16.73 322.89 3.91 358.15 43.58 C362.37 19.47 369.11 -0.669998 378.81 -18 L523.06 5.38 Z " />
<glyph glyph-name="udieresis" unicode="&#xfc;" horiz-adv-x="558" d="M164.37 541.37 C206.03 541.37 239.83 574.98 239.83 617.31 C239.83 658.6 206.03 692.28 164.37 692.28 C122.37 692.28 88.64 658.6 88.64 617.31 C88.64 574.98 122.68 541.37 164.38 541.37 L164.37 541.37 Z M386.92 541.37 C428.52 541.37 462.66 574.98 462.66 617.31 C462.66 658.6 428.52 692.28 386.92 692.28 C345.26 692.28 311.39 658.6 311.39 617.31 C311.39 574.98 345.53 541.37 386.92 541.37 L386.92 541.37 Z M523.07 5.37999 C509.66 33.55 501.82 70.24 501.82 119.8 L501.82 471.38 L352.54 471.38 L352.54 169.68 C339.09 143.58 309.74 116.92 267.83 116.92 C218.58 116.92 197.76 148.72 197.76 216.31 L197.76 471.38 L48.48 471.38 L48.48 193.42 C48.48 55.52 108.37 -16.73 223.54 -16.73 C276.29 -16.73 322.9 3.90999 358.16 43.58 C362.38 19.47 369.12 -0.670013 378.82 -18 L523.07 5.37999 Z " />
<glyph glyph-name="yacute" unicode="&#xfd;" horiz-adv-x="526" d="M398.84 628.38 L323.34 737.29 L143.63 585.29 L193.65 515.21 L398.84 628.38 Z M513.33 471.39 L352.05 471.39 L265.97 116.45 L178.78 471.39 L12.44 471.39 L173.6 0.00999451 L213.58 0.00999451 L202.59 -26.14 C184.07 -76.76 144 -80.44 103.47 -80.44 L103.47 -200.99 C205.06 -200.99 288.27 -189.76 334.79 -55.53 L354.75 0.00999451 L354.62 0.00999451 L513.33 471.39 Z " />
<glyph glyph-name="thorn" unicode="&#xfe;" horiz-adv-x="566" d="M326.96 488.08 C271.47 488.08 231.36 469.43 202.4 443.85 L202.4 658.3 L53.4 658.3 L53.4 -186.61 L202.4 -186.61 L202.4 -8.43001 C223.35 -13.28 247.32 -15.58 277.99 -15.58 C430.23 -15.58 531.79 86.26 531.79 239.66 C531.79 398.35 455.23 488.08 326.96 488.08 L326.96 488.08 Z M270.2 110.62 C241.7 110.62 220.41 114.44 202.4 122.84 L202.4 300.96 C213.18 326.45 236.91 361.64 292.24 361.64 C359.05 361.64 382.26 314.02 382.26 240.63 C382.26 163.13 336.23 110.62 270.2 110.62 L270.2 110.62 Z " />
<glyph glyph-name="ydieresis" unicode="&#xff;" horiz-adv-x="526" d="M160.93 541.37 C202.59 541.37 236.39 574.98 236.39 617.31 C236.39 658.6 202.59 692.28 160.93 692.28 C118.93 692.28 85.2 658.6 85.2 617.31 C85.2 574.98 119.24 541.37 160.94 541.37 L160.93 541.37 Z M383.48 541.37 C425.08 541.37 459.22 574.98 459.22 617.31 C459.22 658.6 425.08 692.28 383.48 692.28 C341.81 692.28 307.95 658.6 307.95 617.31 C307.95 574.98 342.09 541.37 383.48 541.37 L383.48 541.37 Z M513.34 471.38 L352.06 471.38 L265.98 116.44 L178.79 471.38 L12.45 471.38 L173.61 -1.52588e-05 L213.59 -1.52588e-05 L202.6 -26.15 C184.08 -76.77 144.01 -80.45 103.48 -80.45 L103.48 -201 C205.07 -201 288.28 -189.77 334.8 -55.54 L354.76 -1.52588e-05 L354.63 -1.52588e-05 L513.34 471.38 Z " />
<glyph glyph-name="Amacron" unicode="&#x100;" horiz-adv-x="630" d="M470.64 813.95 L159.59 813.95 L159.59 713.14 L470.64 713.14 L470.64 813.95 Z M469.22 0 L622.52 0 L390.36 642 L240.1 642 L5.54001 0 L155.22 0 L199.17 126.56 L425.15 126.56 L469.22 0 Z M242.41 251.07 L293.82 399.14 L311.81 456.36 L330.29 399.02 L381.8 251.07 L242.41 251.07 Z " />
<glyph glyph-name="amacron" unicode="&#x101;" horiz-adv-x="523" d="M402.68 681.23 L94.46 681.23 L94.46 569.38 L402.68 569.38 L402.68 681.23 Z M492.85 5.37999 C478.57 33.55 470.57 70.27 470.57 119.8 L470.57 280.3 C470.57 430.96 384.49 487.83 227.71 487.83 C150.12 487.83 87.16 468.78 49.81 450.37 L77.58 337.27 C111.44 351.15 159.59 364.53 214.3 364.53 C294.09 364.53 321.87 339.12 321.87 298.89 L321.87 281.21 L240.24 281.21 C108.04 281.41 26.44 230.54 26.44 132 C26.44 30.96 106.91 -15.83 191.18 -15.83 C251.51 -15.83 295.22 8.93001 327.42 44.92 C331.92 18.98 339.14 -1.23 348.84 -18 L492.85 5.37999 Z M232.26 87.98 C197.5 87.98 175.48 107.26 175.48 143.31 C175.48 175.96 197.87 199.42 253.17 199.58 L321.63 199.68 L321.63 167.66 C317.63 124.07 285.3 87.98 232.27 87.98 L232.26 87.98 Z " />
<glyph glyph-name="Abreve" unicode="&#x102;" horiz-adv-x="630" d="M314.74 684.59 C416.42 684.59 474.88 746.46 488.96 824.85 L382.85 838.08 C372.29 802.5 343.99 785.85 314.74 785.85 C285.5 785.85 257.2 802.5 246.63 838.08 L140.52 824.85 C154.6 746.46 213.06 684.59 314.74 684.59 L314.74 684.59 Z M469.22 0 L622.52 0 L390.36 642 L240.1 642 L5.53999 0 L155.22 0 L199.17 126.56 L425.15 126.56 L469.22 0 Z M242.41 251.07 L293.82 399.14 L311.81 456.36 L330.29 399.02 L381.8 251.07 L242.41 251.07 Z " />
<glyph glyph-name="abreve" unicode="&#x103;" horiz-adv-x="523" d="M251.82 527.93 C366.28 527.93 424.61 612.11 427.78 689.42 L326.8 701.29 C317.27 653.49 291.72 631.02 252.41 631.02 C213.01 631.02 187.21 653.18 176.84 701.29 L75.77 689.42 C78.94 610.87 137.27 527.93 251.82 527.93 L251.82 527.93 Z M492.85 5.37997 C478.57 33.55 470.57 70.27 470.57 119.8 L470.57 280.3 C470.57 430.96 384.49 487.83 227.71 487.83 C150.12 487.83 87.16 468.78 49.81 450.37 L77.58 337.27 C111.44 351.15 159.59 364.53 214.3 364.53 C294.09 364.53 321.87 339.12 321.87 298.89 L321.87 281.21 L240.24 281.21 C108.04 281.41 26.44 230.54 26.44 132 C26.44 30.96 106.91 -15.83 191.18 -15.83 C251.51 -15.83 295.22 8.92999 327.42 44.92 C331.92 18.98 339.14 -1.23001 348.84 -18 L492.85 5.37997 Z M232.26 87.98 C197.5 87.98 175.48 107.26 175.48 143.31 C175.48 175.96 197.87 199.42 253.17 199.58 L321.63 199.68 L321.63 167.66 C317.63 124.07 285.3 87.98 232.27 87.98 L232.26 87.98 Z " />
<glyph glyph-name="Aogonek" unicode="&#x104;" horiz-adv-x="630" d="M595.23 -93.34 C586.23 -99.5 574.23 -106.89 558.81 -106.89 C543.75 -106.89 528.71 -98.17 528.71 -76.2 C528.71 -51.03 548.55 -14.66 622.52 0 L390.36 642 L240.1 642 L5.54001 0 L155.22 0 L199.17 126.56 L425.15 126.56 L469.22 0 L486.33 0 C448.78 -29.95 422.42 -67.58 422.42 -113.84 C422.42 -174.25 466.2 -210.7 536.16 -210.7 C587.05 -210.7 621.82 -190.6 642.05 -170.49 L595.23 -93.34 Z M242.41 251.07 L293.82 399.14 L311.81 456.36 L330.29 399.02 L381.8 251.07 L242.41 251.07 Z " />
<glyph glyph-name="aogonek" unicode="&#x105;" horiz-adv-x="523" d="M458.92 -93.34 C449.92 -99.5 437.92 -106.89 422.5 -106.89 C407.43 -106.89 392.4 -98.17 392.4 -76.2 C392.4 -54.36 407.48 -13.74 492.97 5.37999 L492.71 5.34999 L492.85 5.37999 C478.57 33.55 470.57 70.27 470.57 119.8 L470.57 280.3 C470.57 430.96 384.49 487.83 227.71 487.83 C150.12 487.83 87.16 468.78 49.81 450.37 L77.58 337.27 C111.44 351.15 159.59 364.53 214.3 364.53 C294.09 364.53 321.87 339.12 321.87 298.89 L321.87 281.21 L240.24 281.21 C108.04 281.41 26.44 230.54 26.44 132 C26.44 30.96 106.91 -15.83 191.18 -15.83 C251.51 -15.83 295.22 8.93001 327.42 44.92 C331.3 22.59 337.18 4.50002 344.94 -10.8 C303.96 -38.32 286.11 -72.95 286.11 -113.84 C286.11 -174.25 329.89 -210.7 399.84 -210.7 C450.74 -210.7 485.51 -190.6 505.74 -170.49 L458.92 -93.34 Z M232.26 87.98 C197.5 87.98 175.48 107.26 175.48 143.31 C175.48 175.96 197.87 199.42 253.17 199.58 L321.63 199.68 L321.63 167.66 C317.63 124.07 285.3 87.98 232.27 87.98 L232.26 87.98 Z " />
<glyph glyph-name="Cacute" unicode="&#x106;" horiz-adv-x="585" d="M240 676.76 L482.13 724.93 L441.17 854.23 L213.82 756.8 L240 676.76 Z M360.31 -15.83 C472.55 -15.83 534.94 17.82 571.79 49.48 L491.33 169.44 C462.33 142.98 427.31 124.03 366.72 124.03 C266.72 124.03 197.4 199.83 197.4 321 C197.4 443.81 265.58 517.59 370.38 517.59 C410.93 517.59 443.27 507.36 479.73 480.94 L560.55 599.14 C517.79 632.34 454.44 659.52 366.18 659.52 C171.38 659.52 35.99 518.84 35.99 321 C35.99 121.86 160.55 -15.83 360.31 -15.83 L360.31 -15.83 Z " />
<glyph glyph-name="cacute" unicode="&#x107;" horiz-adv-x="466" d="M195.79 515.2 L400.98 628.38 L325.48 737.29 L145.77 585.29 L195.79 515.2 Z M431.74 452.76 C398.17 472.71 346.3 487.84 288.68 487.84 C141.92 487.84 32.37 391.91 32.37 235.7 C32.37 75.56 131.34 -15.82 291.5 -15.82 C363.07 -15.82 417.15 10.7 451.82 38.33 L394.42 144.76 C371.89 123.6 336.62 108.55 299.92 108.55 C218.8 108.55 181.93 166.78 181.93 237.77 C181.93 308.76 224.11 362.4 301.09 362.4 C339.07 362.4 371.65 352.77 400.98 334.08 L431.74 452.76 Z " />
<glyph glyph-name="Cdotaccent" unicode="&#x10a;" horiz-adv-x="585" d="M343.52 689.65 C392.65 689.65 432.74 729.45 432.74 778.67 C432.74 827.19 392.65 866.99 343.52 866.99 C294.53 866.99 254.48 827.19 254.48 778.67 C254.48 729.45 294.81 689.65 343.52 689.65 L343.52 689.65 Z M360.31 -15.83 C472.55 -15.83 534.94 17.82 571.79 49.48 L491.33 169.44 C462.33 142.98 427.31 124.03 366.72 124.03 C266.72 124.03 197.4 199.83 197.4 321 C197.4 443.81 265.58 517.59 370.38 517.59 C410.93 517.59 443.27 507.36 479.73 480.94 L560.55 599.14 C517.79 632.34 454.44 659.52 366.18 659.52 C171.38 659.52 35.99 518.84 35.99 321 C35.99 121.86 160.55 -15.83 360.31 -15.83 L360.31 -15.83 Z " />
<glyph glyph-name="cdotaccent" unicode="&#x10b;" horiz-adv-x="466" d="M364.33 625.04 C364.33 673.81 324 713.99 274.59 713.99 C225.29 713.99 184.95 673.81 184.95 625.04 C184.95 575.51 225.6 535.4 274.59 535.4 C324 535.4 364.33 575.51 364.33 625.04 L364.33 625.04 Z M431.74 452.75 C398.17 472.7 346.3 487.83 288.68 487.83 C141.92 487.83 32.37 391.9 32.37 235.69 C32.37 75.55 131.34 -15.83 291.5 -15.83 C363.07 -15.83 417.15 10.69 451.82 38.32 L394.42 144.75 C371.89 123.59 336.62 108.54 299.92 108.54 C218.8 108.54 181.93 166.77 181.93 237.76 C181.93 308.75 224.11 362.39 301.09 362.39 C339.07 362.39 371.65 352.76 400.98 334.07 L431.74 452.75 Z " />
<glyph glyph-name="Ccaron" unicode="&#x10c;" horiz-adv-x="585" d="M384.44 681.15 L514.31 776.64 L468.77 847.62 L341.08 784.24 L213.51 847.62 L167.97 776.64 L297.84 681.15 L384.44 681.15 Z M360.31 -15.83 C472.55 -15.83 534.94 17.82 571.79 49.48 L491.33 169.44 C462.33 142.98 427.31 124.03 366.72 124.03 C266.72 124.03 197.4 199.83 197.4 321 C197.4 443.81 265.58 517.59 370.38 517.59 C410.93 517.59 443.27 507.36 479.73 480.94 L560.55 599.14 C517.79 632.34 454.44 659.52 366.18 659.52 C171.38 659.52 35.99 518.84 35.99 321 C35.99 121.86 160.55 -15.83 360.31 -15.83 L360.31 -15.83 Z " />
<glyph glyph-name="ccaron" unicode="&#x10d;" horiz-adv-x="466" d="M229.34 522.37 L316.28 522.37 L443.64 653.89 L382.26 720.18 L272.78 626.97 L163.36 720.18 L101.99 653.89 L229.34 522.37 Z M431.74 452.75 C398.17 472.7 346.3 487.83 288.68 487.83 C141.92 487.83 32.37 391.9 32.37 235.69 C32.37 75.55 131.34 -15.83 291.5 -15.83 C363.07 -15.83 417.15 10.69 451.82 38.32 L394.42 144.75 C371.89 123.59 336.62 108.54 299.92 108.54 C218.8 108.54 181.93 166.77 181.93 237.76 C181.93 308.75 224.11 362.39 301.09 362.39 C339.07 362.39 371.65 352.76 400.98 334.07 L431.74 452.75 Z " />
<glyph glyph-name="Dcaron" unicode="&#x10e;" horiz-adv-x="665" d="M346.96 681.15 L476.82 776.64 L431.29 847.62 L303.59 784.24 L176.03 847.62 L130.49 776.64 L260.36 681.15 L346.96 681.15 Z M279.39 642 L69.78 642 L69.78 0 L281.86 0 C499.38 0 627.24 120.81 627.24 323.96 C627.24 519.91 504.17 641.93 279.39 642 L279.39 642 Z M290.03 140.62 L219.06 140.62 L219.06 500.76 L286.34 500.76 C400.27 500.76 463.44 443.48 463.44 324.24 C463.44 206.8 399.87 140.62 290.03 140.62 L290.03 140.62 Z " />
<glyph glyph-name="dcaron" unicode="&#x10f;" horiz-adv-x="599" d="M685.51 717.72 L564.62 717.72 C573.3 693.53 578.22 664.87 578.22 637.42 C578.22 599.34 571.09 558.88 550.02 517.68 L617.98 485.7 C663.06 525.48 691.55 594.84 691.55 659.07 C691.55 687.18 689.87 697.73 685.51 717.72 L685.51 717.72 Z M512.47 658.24 L363.47 658.24 L363.47 479.6 C342.18 485.06 317.74 487.83 286.29 487.83 C133.36 487.83 33.37 395.28 33.37 234.07 C33.37 77.7 119.23 -15.83 243.37 -15.83 C301.47 -15.83 342.23 5.77002 370.83 34.38 C375.08 14.28 381.29 -2.87999 389.76 -18 L533.73 5.38002 C520.32 33.55 512.47 70.24 512.47 119.8 L512.47 658.24 Z M278.24 110.61 C215.57 111.01 182.89 162.23 182.89 233.1 C182.89 318.41 227.35 361.63 294.08 361.63 C324.59 361.63 345.76 357.1 363.47 348.54 L363.47 170.64 C353.45 145.35 329.9 110.35 278.24 110.61 L278.24 110.61 Z " />
<glyph glyph-name="Dcroat" unicode="&#x110;" horiz-adv-x="677" d="M291.91 642 L82.3 642 L82.3 368.65 L14.64 368.65 L14.64 266.05 L82.3 266.05 L82.3 -1.52588e-05 L294.38 -1.52588e-05 C511.9 -1.52588e-05 639.76 120.81 639.76 323.96 C639.76 519.91 516.69 641.93 291.91 642 L291.91 642 Z M302.55 140.62 L231.58 140.62 L231.58 266.05 L328.93 266.05 L328.93 368.65 L231.58 368.65 L231.58 500.76 L298.86 500.76 C412.79 500.76 475.96 443.48 475.96 324.24 C475.96 206.8 412.39 140.62 302.55 140.62 L302.55 140.62 Z " />
<glyph glyph-name="dcroat" unicode="&#x111;" horiz-adv-x="569" d="M570.52 523.37 L570.52 611.14 L512.47 611.14 L512.47 658.24 L363.47 658.24 L363.47 611.14 L265.67 611.14 L265.67 523.37 L363.47 523.37 L363.47 479.6 C342.18 485.06 317.74 487.83 286.29 487.83 C133.36 487.83 33.37 395.28 33.37 234.07 C33.37 77.7 119.23 -15.83 243.37 -15.83 C301.47 -15.83 342.23 5.77 370.83 34.38 C375.08 14.28 381.29 -2.88 389.76 -18 L533.73 5.38 C520.32 33.55 512.47 70.24 512.47 119.8 L512.47 523.37 L570.52 523.37 Z M278.24 110.61 C215.57 111.01 182.89 162.23 182.89 233.1 C182.89 318.41 227.35 361.63 294.08 361.63 C324.59 361.63 345.76 357.1 363.47 348.54 L363.47 170.64 C353.45 145.35 329.9 110.35 278.24 110.61 L278.24 110.61 Z " />
<glyph glyph-name="Emacron" unicode="&#x112;" horiz-adv-x="534" d="M441.45 813.95 L130.41 813.95 L130.41 713.14 L441.45 713.14 L441.45 813.95 Z M218.78 132.65 L218.78 259.19 L452.63 259.19 L452.63 390.46 L218.78 390.46 L218.78 509.04 L482.11 509.04 L482.11 642 L69.78 642 L69.78 0 L491.03 0 L491.03 132.65 L218.78 132.65 Z " />
<glyph glyph-name="emacron" unicode="&#x113;" horiz-adv-x="528" d="M423.22 681.23 L115 681.23 L115 569.38 L423.22 569.38 L423.22 681.23 Z M494.58 270.48 C494.58 402.46 405.73 487.83 275.16 487.83 C135.56 487.83 32.37 382.39 32.37 233.31 C32.37 74.03 143.19 -15.83 287.6 -15.83 C382.11 -15.83 442.35 11.28 483.19 40.39 L433.62 142.81 C399.07 121.77 359.05 103.71 303.61 103.71 C234.71 103.71 193.82 135.42 184.34 200.82 L490.05 200.82 C493.55 223.71 494.58 246.83 494.58 270.48 L494.58 270.48 Z M184.13 284.48 C191.3 338.15 221.91 374.43 275.85 374.43 C333.04 374.43 354.62 330.01 354.62 284.48 L184.13 284.48 Z " />
<glyph glyph-name="Edotaccent" unicode="&#x116;" horiz-adv-x="534" d="M285.16 689.65 C334.28 689.65 374.37 729.45 374.37 778.67 C374.37 827.19 334.28 866.99 285.16 866.99 C236.16 866.99 196.11 827.19 196.11 778.67 C196.11 729.45 236.44 689.65 285.16 689.65 L285.16 689.65 Z M218.78 132.65 L218.78 259.19 L452.63 259.19 L452.63 390.46 L218.78 390.46 L218.78 509.04 L482.11 509.04 L482.11 642 L69.78 642 L69.78 0 L491.03 0 L491.03 132.65 L218.78 132.65 Z " />
<glyph glyph-name="edotaccent" unicode="&#x117;" horiz-adv-x="528" d="M269.57 535.4 C318.97 535.4 359.31 575.51 359.31 625.04 C359.31 673.81 318.97 713.99 269.57 713.99 C220.26 713.99 179.93 673.81 179.93 625.04 C179.93 575.51 220.57 535.4 269.57 535.4 L269.57 535.4 Z M494.57 270.48 C494.57 402.46 405.72 487.83 275.15 487.83 C135.55 487.83 32.36 382.39 32.36 233.31 C32.36 74.03 143.18 -15.83 287.59 -15.83 C382.1 -15.83 442.34 11.28 483.18 40.39 L433.61 142.81 C399.06 121.77 359.04 103.71 303.6 103.71 C234.7 103.71 193.81 135.42 184.33 200.82 L490.04 200.82 C493.54 223.71 494.57 246.83 494.57 270.48 L494.57 270.48 Z M184.12 284.48 C191.29 338.15 221.9 374.43 275.84 374.43 C333.03 374.43 354.61 330.01 354.61 284.48 L184.12 284.48 Z " />
<glyph glyph-name="Eogonek" unicode="&#x118;" horiz-adv-x="534" d="M463.74 -93.34 C454.74 -99.5 442.73 -106.89 427.31 -106.89 C412.25 -106.89 397.22 -98.17 397.22 -76.2 C397.22 -51.03 417.06 -14.66 491.03 0 L491.03 132.65 L218.78 132.65 L218.78 259.19 L452.63 259.19 L452.63 390.46 L218.78 390.46 L218.78 509.04 L482.11 509.04 L482.11 642 L69.78 642 L69.78 0 L354.84 0 C317.29 -29.95 290.92 -67.58 290.92 -113.84 C290.92 -174.25 334.7 -210.7 404.66 -210.7 C455.56 -210.7 490.33 -190.6 510.56 -170.49 L463.74 -93.34 Z " />
<glyph glyph-name="eogonek" unicode="&#x119;" horiz-adv-x="528" d="M494.58 270.48 C494.58 402.46 405.73 487.83 275.16 487.83 C135.56 487.83 32.37 382.39 32.37 233.31 C32.37 74.03 143.19 -15.83 287.6 -15.83 C292.91 -15.83 298.11 -15.75 303.21 -15.58 C277.23 -42.24 261.31 -74.19 261.31 -112.66 C261.31 -174.25 305.09 -210.7 375.05 -210.7 C425.94 -210.7 460.71 -190.6 480.94 -170.49 L434.12 -93.34 C425.12 -99.5 413.12 -106.89 397.7 -106.89 C382.64 -106.89 367.61 -98.17 367.61 -73.88 C367.61 -46.76 392.77 -14.19 436.64 13.47 C454.55 21.66 469.9 30.92 483.19 40.39 L433.62 142.81 C399.07 121.77 359.05 103.71 303.61 103.71 C234.71 103.71 193.82 135.42 184.34 200.82 L490.05 200.82 C493.55 223.71 494.58 246.83 494.58 270.48 L494.58 270.48 Z M184.13 284.48 C191.3 338.15 221.91 374.43 275.85 374.43 C333.04 374.43 354.62 330.01 354.62 284.48 L184.13 284.48 Z " />
<glyph glyph-name="Ecaron" unicode="&#x11a;" horiz-adv-x="534" d="M326.07 681.15 L455.94 776.64 L410.4 847.62 L282.71 784.24 L155.14 847.62 L109.61 776.64 L239.47 681.15 L326.07 681.15 Z M218.78 132.65 L218.78 259.19 L452.63 259.19 L452.63 390.46 L218.78 390.46 L218.78 509.04 L482.11 509.04 L482.11 642 L69.78 642 L69.78 0 L491.03 0 L491.03 132.65 L218.78 132.65 Z " />
<glyph glyph-name="ecaron" unicode="&#x11b;" horiz-adv-x="528" d="M311.26 522.37 L438.61 653.89 L377.24 720.18 L267.76 626.97 L158.34 720.18 L96.96 653.89 L224.32 522.37 L311.26 522.37 Z M494.58 270.48 C494.58 402.46 405.73 487.83 275.16 487.83 C135.56 487.83 32.37 382.39 32.37 233.31 C32.37 74.03 143.19 -15.83 287.6 -15.83 C382.11 -15.83 442.35 11.28 483.19 40.39 L433.62 142.81 C399.07 121.77 359.05 103.71 303.61 103.71 C234.71 103.71 193.82 135.42 184.34 200.82 L490.05 200.82 C493.55 223.71 494.58 246.83 494.58 270.48 L494.58 270.48 Z M184.13 284.48 C191.3 338.15 221.91 374.43 275.85 374.43 C333.04 374.43 354.62 330.01 354.62 284.48 L184.13 284.48 Z " />
<glyph glyph-name="Gbreve" unicode="&#x11e;" horiz-adv-x="644" d="M349.67 684.59 C451.35 684.59 509.8 746.46 523.89 824.85 L417.77 838.08 C407.21 802.5 378.91 785.85 349.67 785.85 C320.42 785.85 292.12 802.5 281.56 838.08 L175.45 824.85 C189.53 746.46 247.98 684.59 349.67 684.59 L349.67 684.59 Z M349.03 374.09 L349.03 237.06 L449.93 237.06 L449.93 131.22 C428.76 126.58 403.13 124.03 370.86 124.03 C254.33 124.03 198.09 199.34 198.09 320.69 C198.09 448.16 268.15 517.28 371.7 517.28 C422.18 517.28 462.55 504.47 497.38 480.39 L574.13 604.28 C530.4 634.79 462.66 659.52 373.8 659.52 C170.83 659.52 36.68 523.12 36.68 318.62 C36.68 113.44 161.89 -15.83 370.3 -15.83 C479.83 -15.83 546.26 7.89 595.97 35.55 L595.97 374.09 L349.03 374.09 Z " />
<glyph glyph-name="gbreve" unicode="&#x11f;" horiz-adv-x="539" d="M284.88 527.93 C399.34 527.93 457.67 612.11 460.84 689.42 L359.86 701.29 C350.34 653.49 324.78 631.02 285.47 631.02 C246.07 631.02 220.27 653.18 209.91 701.29 L108.83 689.42 C112 610.87 170.33 527.93 284.88 527.93 L284.88 527.93 Z M330.12 86.45 L212.68 86.45 C183.85 86.45 172.24 102.65 172.24 119.99 C172.24 127.21 174.37 133.9 179.78 140.01 C204.53 133.63 232.45 130.31 263.33 130.31 C402.25 130.31 481.87 196.65 481.87 305.97 C481.87 340.25 472.98 370.99 456.63 396.95 C508.78 427.84 546.55 479.07 547.44 543.83 L427.28 564.54 C427.28 512.85 417.33 478.25 384.81 460.16 C351.52 476.67 310.88 485.76 264.85 485.76 C133.98 485.76 46.31 413.21 46.31 305.97 C46.31 255.45 63.18 214.11 94.95 184.26 C72.46 166.31 59.97 137.82 59.97 111.32 C59.97 79.6199 71.11 55.2299 88.34 36.8199 C49.09 15.5199 26.06 -19.5601 26.06 -59.4401 C26.06 -167.21 123.06 -207.21 265.66 -207.21 C436.22 -207.21 513.96 -148.16 513.96 -53.3301 C513.96 39.2999 430.56 86.4499 330.12 86.4499 L330.12 86.45 Z M264.14 375.53 C312.38 375.53 344.2 348.4 344.2 307.35 C344.2 264.09 312.45 238.93 264.11 238.93 C215.73 238.93 184.05 264.09 184.05 307.35 C184.05 348.53 215.62 375.53 264.14 375.53 L264.14 375.53 Z M269.32 -104.85 C190.36 -104.85 159.91 -83.8101 159.91 -55.8101 C159.91 -22.8101 188.42 -12.3301 228.85 -12.3301 L318.48 -12.3301 C355.09 -12.3301 381.66 -23.6201 381.66 -55.1401 C381.66 -84.8101 349.13 -104.86 269.32 -104.86 L269.32 -104.85 Z " />
<glyph glyph-name="Gdotaccent" unicode="&#x120;" horiz-adv-x="644" d="M349.27 689.65 C398.4 689.65 438.48 729.45 438.48 778.67 C438.48 827.19 398.4 866.99 349.27 866.99 C300.27 866.99 260.22 827.19 260.22 778.67 C260.22 729.45 300.55 689.65 349.27 689.65 L349.27 689.65 Z M349.03 374.09 L349.03 237.06 L449.93 237.06 L449.93 131.22 C428.76 126.58 403.13 124.03 370.86 124.03 C254.33 124.03 198.09 199.34 198.09 320.69 C198.09 448.16 268.15 517.28 371.7 517.28 C422.18 517.28 462.55 504.47 497.38 480.39 L574.13 604.28 C530.4 634.79 462.66 659.52 373.8 659.52 C170.83 659.52 36.68 523.12 36.68 318.62 C36.68 113.44 161.89 -15.83 370.3 -15.83 C479.83 -15.83 546.26 7.89 595.97 35.55 L595.97 374.09 L349.03 374.09 Z " />
<glyph glyph-name="gdotaccent" unicode="&#x121;" horiz-adv-x="539" d="M262.08 535.4 C311.49 535.4 351.82 575.51 351.82 625.04 C351.82 673.81 311.49 713.99 262.08 713.99 C212.78 713.99 172.45 673.81 172.45 625.04 C172.45 575.51 213.09 535.4 262.08 535.4 L262.08 535.4 Z M330.12 86.45 L212.68 86.45 C183.85 86.45 172.24 102.65 172.24 119.99 C172.24 127.21 174.37 133.9 179.78 140.01 C204.53 133.63 232.45 130.31 263.33 130.31 C402.25 130.31 481.87 196.65 481.87 305.97 C481.87 340.25 472.98 370.99 456.63 396.95 C508.78 427.84 546.55 479.07 547.44 543.83 L427.28 564.54 C427.28 512.85 417.33 478.25 384.81 460.16 C351.52 476.67 310.88 485.76 264.85 485.76 C133.98 485.76 46.31 413.21 46.31 305.97 C46.31 255.45 63.18 214.11 94.95 184.26 C72.46 166.31 59.97 137.82 59.97 111.32 C59.97 79.62 71.11 55.23 88.34 36.82 C49.09 15.52 26.06 -19.56 26.06 -59.44 C26.06 -167.21 123.06 -207.21 265.66 -207.21 C436.22 -207.21 513.96 -148.16 513.96 -53.33 C513.96 39.3 430.56 86.45 330.12 86.45 L330.12 86.45 Z M264.14 375.53 C312.38 375.53 344.2 348.4 344.2 307.35 C344.2 264.09 312.45 238.93 264.11 238.93 C215.73 238.93 184.05 264.09 184.05 307.35 C184.05 348.53 215.62 375.53 264.14 375.53 L264.14 375.53 Z M269.32 -104.85 C190.36 -104.85 159.91 -83.8101 159.91 -55.8101 C159.91 -22.8101 188.42 -12.3301 228.85 -12.3301 L318.48 -12.3301 C355.09 -12.3301 381.66 -23.6201 381.66 -55.1401 C381.66 -84.8101 349.13 -104.86 269.32 -104.86 L269.32 -104.85 Z " />
<glyph glyph-name="Gcommaaccent" unicode="&#x122;" horiz-adv-x="644" d="M349.03 374.09 L349.03 237.06 L449.93 237.06 L449.93 131.22 C428.76 126.58 403.13 124.03 370.86 124.03 C254.33 124.03 198.09 199.34 198.09 320.69 C198.09 448.16 268.15 517.28 371.7 517.28 C422.18 517.28 462.55 504.47 497.38 480.39 L574.13 604.28 C530.4 634.79 462.66 659.52 373.8 659.52 C170.83 659.52 36.68 523.12 36.68 318.62 C36.68 113.44 161.89 -15.83 370.3 -15.83 C479.83 -15.83 546.26 7.89 595.97 35.55 L595.97 374.09 L349.03 374.09 Z M359.76 -40.35 C313.51 -40.32 274.22 -79.3 274.22 -126.3 C274.22 -167.37 304.68 -202.96 343.54 -210.79 C340.21 -240.45 326.28 -262.68 307.86 -284.7 L354.27 -317.23 C401.01 -275.55 445.97 -211.14 445.97 -126.3 C445.97 -79.3 407.32 -40.38 359.76 -40.35 L359.76 -40.35 Z " />
<glyph glyph-name="gcommaaccent" unicode="&#x123;" horiz-adv-x="539" d="M270.81 522.2 C317.07 522.17 356.36 561.15 356.36 608.15 C356.36 649.21 325.89 684.8 287.03 692.63 C290.36 722.29 304.29 744.52 322.72 766.55 L276.3 799.07 C229.56 757.4 184.61 692.99 184.61 608.15 C184.61 561.15 223.25 522.23 270.81 522.2 L270.81 522.2 Z M330.12 86.45 L212.68 86.45 C183.85 86.45 172.24 102.65 172.24 119.99 C172.24 127.21 174.37 133.9 179.78 140.01 C204.53 133.63 232.45 130.31 263.33 130.31 C402.25 130.31 481.87 196.65 481.87 305.97 C481.87 340.25 472.98 370.99 456.63 396.95 C508.78 427.84 546.55 479.07 547.44 543.83 L427.28 564.54 C427.28 512.85 417.33 478.25 384.81 460.16 C351.52 476.67 310.88 485.76 264.85 485.76 C133.98 485.76 46.31 413.21 46.31 305.97 C46.31 255.45 63.18 214.11 94.95 184.26 C72.46 166.31 59.97 137.82 59.97 111.32 C59.97 79.62 71.11 55.23 88.34 36.82 C49.09 15.52 26.06 -19.56 26.06 -59.44 C26.06 -167.21 123.06 -207.21 265.66 -207.21 C436.22 -207.21 513.96 -148.16 513.96 -53.33 C513.96 39.3 430.56 86.45 330.12 86.45 L330.12 86.45 Z M264.14 375.53 C312.38 375.53 344.2 348.4 344.2 307.35 C344.2 264.09 312.45 238.93 264.11 238.93 C215.73 238.93 184.05 264.09 184.05 307.35 C184.05 348.53 215.62 375.53 264.14 375.53 L264.14 375.53 Z M269.32 -104.85 C190.36 -104.85 159.91 -83.8101 159.91 -55.8101 C159.91 -22.8101 188.42 -12.3301 228.85 -12.3301 L318.48 -12.3301 C355.09 -12.3301 381.66 -23.6201 381.66 -55.1401 C381.66 -84.8101 349.13 -104.86 269.32 -104.86 L269.32 -104.85 Z " />
<glyph glyph-name="Hbar" unicode="&#x126;" horiz-adv-x="740" d="M712.88 548.33 L635.89 548.33 L635.89 642 L486.61 642 L486.61 548.33 L250.04 548.33 L250.04 642 L100.76 642 L100.76 548.33 L24.08 548.33 L24.08 455.66 L100.76 455.66 L100.76 0 L250.04 0 L250.04 255.5 L486.61 255.5 L486.61 0 L635.89 0 L635.89 455.66 L712.88 455.66 L712.88 548.33 Z M486.61 392.6 L250.04 392.6 L250.04 455.66 L486.61 455.66 L486.61 392.6 Z " />
<glyph glyph-name="hbar" unicode="&#x127;" horiz-adv-x="565" d="M338.89 487.83 C290.11 487.83 241.41 472.86 202.75 439.74 L202.75 523.37 L300.27 523.37 L300.27 611.14 L202.75 611.14 L202.75 658.24 L53.47 658.24 L53.47 611.14 L-4.58 611.14 L-4.58 523.37 L53.47 523.37 L53.47 1.52588e-05 L202.75 1.52588e-05 L202.75 302.87 C218.14 328.14 251.98 354.18 294.42 354.18 C345.42 354.18 367.24 322.37 367.24 254.79 L367.24 1.52588e-05 L516.52 1.52588e-05 L516.52 277.68 C516.52 415.57 455.42 487.83 338.88 487.83 L338.89 487.83 Z " />
<glyph glyph-name="Itilde" unicode="&#x128;" horiz-adv-x="402" d="M299.67 837.28 C292.04 815.05 277.67 801.3 254.28 801.3 C218.63 801.3 184.63 842.09 128.66 842.09 C70.23 842.09 17.92 804.74 0.290009 729.06 L97.7 689.95 C105.27 713.49 120.51 730.62 144.84 730.62 C183.6 730.62 211.9 691.03 270.06 691.03 C326.28 691.03 379.46 725.59 396.96 797.2 L299.67 837.28 Z M356.78 642 L44.66 642 L44.66 510.59 L126.12 510.59 L126.12 131.41 L44.66 131.41 L44.66 0 L356.78 0 L356.78 131.41 L275.33 131.41 L275.33 510.59 L356.78 510.59 L356.78 642 Z " />
<glyph glyph-name="itilde" unicode="&#x129;" horiz-adv-x="281" d="M43.24 548.05 C49.25 572.76 62.64 589.07 81.41 589.07 C110.1 589.07 138.69 553.69 186.28 553.69 C239.22 553.69 284.03 596.25 296.86 669.72 L212.34 705.17 C206.32 682.32 192.94 667.61 174.46 667.61 C145.76 667.61 115.82 703.99 68.93 703.99 C15.69 703.99 -28.57 659.74 -41.28 583.5 L43.24 548.05 Z M226.95 471.38 L24.48 471.38 L24.48 340.86 L77.67 340.86 L77.67 -1.52588e-05 L226.95 -1.52588e-05 L226.95 471.38 Z " />
<glyph glyph-name="Imacron" unicode="&#x12a;" horiz-adv-x="402" d="M45.84 813.95 L45.84 713.14 L356.89 713.14 L356.89 813.95 L45.84 813.95 Z M356.77 642 L44.65 642 L44.65 510.59 L126.11 510.59 L126.11 131.41 L44.65 131.41 L44.65 0 L356.77 0 L356.77 131.41 L275.32 131.41 L275.32 510.59 L356.77 510.59 L356.77 642 Z " />
<glyph glyph-name="imacron" unicode="&#x12b;" horiz-adv-x="281" d="M3.69 569.38 L256.96 569.38 L256.96 681.23 L3.69 681.23 L3.69 569.38 Z M226.95 471.38 L24.48 471.38 L24.48 340.86 L77.67 340.86 L77.67 0 L226.95 0 L226.95 471.38 Z " />
<glyph glyph-name="Iogonek" unicode="&#x12e;" horiz-adv-x="402" d="M356.77 510.59 L356.77 642 L44.65 642 L44.65 510.59 L126.11 510.59 L126.11 131.41 L44.65 131.41 L44.65 0 L153.78 0 C116.14 -30.33 91.68 -67.14 91.68 -113.84 C91.68 -174.25 135.46 -210.7 205.42 -210.7 C256.31 -210.7 291.08 -190.6 311.31 -170.49 L264.49 -93.34 C255.49 -99.5 243.49 -106.89 228.07 -106.89 C213.01 -106.89 197.97 -98.17 197.97 -75.15 C197.97 -51.77 218.98 -23.94 253.74 1.52588e-05 L356.77 1.52588e-05 L356.77 131.41 L275.32 131.41 L275.32 510.59 L356.77 510.59 Z " />
<glyph glyph-name="iogonek" unicode="&#x12f;" horiz-adv-x="281" d="M143.07 535.4 C192.47 535.4 232.81 575.51 232.81 625.04 C232.81 673.81 192.47 713.99 143.07 713.99 C93.76 713.99 53.43 673.81 53.43 625.04 C53.43 575.51 94.07 535.4 143.07 535.4 L143.07 535.4 Z M199.79 -93.34 C190.79 -99.5 178.78 -106.89 163.36 -106.89 C148.3 -106.89 133.27 -98.17 133.27 -76.2 C133.27 -55.66 152.39 -16.07 226.95 -1.52588e-05 L226.95 471.38 L24.48 471.38 L24.48 340.86 L77.67 340.86 L77.67 -1.52588e-05 L97.2 -1.52588e-05 C43.91 -32.43 26.97 -75.45 26.97 -113.84 C26.97 -174.25 70.75 -210.7 140.71 -210.7 C191.61 -210.7 226.38 -190.6 246.61 -170.49 L199.79 -93.34 Z " />
<glyph glyph-name="Idotaccent" unicode="&#x130;" horiz-adv-x="402" d="M200.59 689.65 C249.72 689.65 289.81 729.45 289.81 778.67 C289.81 827.19 249.72 866.99 200.59 866.99 C151.6 866.99 111.55 827.19 111.55 778.67 C111.55 729.45 151.88 689.65 200.59 689.65 L200.59 689.65 Z M356.77 510.59 L356.77 642 L44.65 642 L44.65 510.59 L126.11 510.59 L126.11 131.41 L44.65 131.41 L44.65 0 L356.77 0 L356.77 131.41 L275.32 131.41 L275.32 510.59 L356.77 510.59 Z " />
<glyph glyph-name="dotlessi" unicode="&#x131;" horiz-adv-x="281" d="M226.95 471.38 L24.48 471.38 L24.48 340.86 L77.67 340.86 L77.67 0 L226.95 0 L226.95 471.38 Z " />
<glyph glyph-name="IJ" unicode="&#x132;" horiz-adv-x="823" d="M356.77 642 L44.65 642 L44.65 510.59 L126.11 510.59 L126.11 131.41 L44.65 131.41 L44.65 0 L356.77 0 L356.77 131.41 L275.32 131.41 L275.32 510.59 L356.77 510.59 L356.77 642 Z M758.11 642 L495.65 642 L495.65 510.59 L608.83 510.59 L608.83 191.77 C608.83 145.2 587.54 123.72 549.03 123.72 C512.8 123.72 492.01 144.02 470.65 169.05 L387.7 60.21 C427.33 10.6 487.76 -15.83 556.19 -15.83 C687.49 -15.83 758.11 62.22 758.11 194.91 L758.11 642 Z " />
<glyph glyph-name="ij" unicode="&#x133;" horiz-adv-x="567" d="M236.29 625.04 C236.29 673.81 195.96 713.99 146.55 713.99 C97.24 713.99 56.91 673.81 56.91 625.04 C56.91 575.51 97.55 535.4 146.55 535.4 C195.96 535.4 236.29 575.51 236.29 625.04 L236.29 625.04 Z M519.46 625.04 C519.46 673.81 479.13 713.99 429.72 713.99 C380.41 713.99 340.08 673.81 340.08 625.04 C340.08 575.51 380.72 535.4 429.72 535.4 C479.13 535.4 519.46 575.51 519.46 625.04 L519.46 625.04 Z M226.95 471.38 L24.48 471.38 L24.48 340.86 L77.67 340.86 L77.67 -1.52588e-05 L226.95 -1.52588e-05 L226.95 471.38 Z M513.57 471.38 L311.1 471.38 L311.1 340.86 L364.26 340.86 L364.85 -9.77002 C364.85 -56.35 340.52 -76.77 304.56 -76.77 C283.95 -76.77 266.08 -69.01 249.33 -57.36 L191.41 -162.75 C228.01 -190.41 275.64 -200.9 322.07 -200.9 C448.18 -200.9 513.57 -129.58 513.57 -4.92003 L513.57 471.38 Z " />
<glyph glyph-name="Kcommaaccent" unicode="&#x136;" horiz-adv-x="613" d="M492.01 193.21 L373.61 365.86 L600.87 642 L421.24 642 L219.06 379.63 L219.06 642 L69.78 642 L69.78 0 L219.06 0 L219.06 178.07 L271.68 242.01 L362.6 110.47 C433.91 8.01001 484.5 -4.13998 587.81 -4.13998 L587.81 133.96 C539.23 133.96 520.97 150.93 492.01 193.21 L492.01 193.21 Z M334.17 -40.35 C287.92 -40.32 248.63 -79.3 248.63 -126.3 C248.63 -167.37 279.09 -202.96 317.95 -210.79 C314.62 -240.45 300.69 -262.68 282.27 -284.7 L328.69 -317.23 C375.42 -275.55 420.38 -211.14 420.38 -126.3 C420.38 -79.3 381.74 -40.38 334.17 -40.35 L334.17 -40.35 Z " />
<glyph glyph-name="kcommaaccent" unicode="&#x137;" horiz-adv-x="547" d="M430.81 174.48 L346.63 278.27 L532.45 471.38 L349.76 471.24 L202.47 312.29 L202.47 658.24 L53.47 658.24 L53.47 -1.52588e-05 L202.47 -1.52588e-05 L202.47 128.44 L249.65 177.48 L328.65 82.53 C370.39 32.39 404.24 -4.11002 524.41 -4.11002 L524.41 120.85 C485.68 120.85 463.65 133.78 430.81 174.48 L430.81 174.48 Z M290.1 -40.35 C243.85 -40.32 204.56 -79.3 204.56 -126.3 C204.56 -167.37 235.02 -202.96 273.88 -210.79 C270.55 -240.45 256.62 -262.68 238.2 -284.7 L284.61 -317.23 C331.35 -275.55 376.3 -211.14 376.3 -126.3 C376.3 -79.3 337.66 -40.38 290.1 -40.35 L290.1 -40.35 Z " />
<glyph glyph-name="kgreenlandic" unicode="&#x138;" horiz-adv-x="546" d="M430.01 174.55 L346.05 278.38 L531.76 471.38 L349.07 471.24 L201.78 312.29 L201.78 471.38 L52.78 471.38 L52.78 0 L201.78 0 L201.78 128.44 L248.94 177.46 L328.13 82.18 C369.87 32.04 403.55 -4.10999 523.66 -4.10999 L523.82 120.85 C484.99 120.85 462.89 133.82 430.01 174.55 L430.01 174.55 Z " />
<glyph glyph-name="Lacute" unicode="&#x139;" horiz-adv-x="497" d="M312.62 724.93 L271.67 854.23 L44.32 756.8 L70.49 676.76 L312.62 724.93 Z M219.06 134.41 L219.06 642 L69.78 642 L69.78 0 L471.81 0 L471.81 134.41 L219.06 134.41 Z " />
<glyph glyph-name="lacute" unicode="&#x13a;" horiz-adv-x="304" d="M23.49 676.76 L265.62 724.93 L224.66 854.23 L-2.67999 756.8 L23.49 676.76 Z M201.09 658.24 L50.4 658.24 L50.4 154.42 C50.4 12.99 128.94 -11.07 216.87 -11.07 C241.5 -11.07 271.45 -7.53 290.82 1.22 L290.82 121.51 C280.89 116.93 263.6 114.22 249.74 114.22 C218.25 114.22 201.09 128.01 201.09 169.63 L201.09 658.24 Z " />
<glyph glyph-name="Lcommaaccent" unicode="&#x13b;" horiz-adv-x="497" d="M219.06 134.41 L219.06 642 L69.78 642 L69.78 0 L471.81 0 L471.81 134.41 L219.06 134.41 Z M268.67 -40.35 C222.42 -40.32 183.12 -79.3 183.12 -126.3 C183.12 -167.37 213.59 -202.96 252.45 -210.79 C249.12 -240.45 235.19 -262.68 216.77 -284.7 L263.18 -317.23 C309.92 -275.55 354.87 -211.14 354.87 -126.3 C354.87 -79.3 316.23 -40.38 268.67 -40.35 L268.67 -40.35 Z " />
<glyph glyph-name="lcommaaccent" unicode="&#x13c;" horiz-adv-x="304" d="M201.09 658.24 L50.4 658.24 L50.4 154.42 C50.4 12.99 128.94 -11.07 216.87 -11.07 C241.5 -11.07 271.45 -7.53 290.82 1.22 L290.82 121.51 C280.89 116.93 263.6 114.22 249.74 114.22 C218.25 114.22 201.09 128.01 201.09 169.63 L201.09 658.24 Z M173.89 -40.35 C127.64 -40.32 88.34 -79.3 88.34 -126.3 C88.34 -167.37 118.81 -202.96 157.67 -210.79 C154.34 -240.45 140.41 -262.68 121.99 -284.7 L168.4 -317.23 C215.14 -275.55 260.09 -211.14 260.09 -126.3 C260.09 -79.3 221.45 -40.38 173.89 -40.35 L173.89 -40.35 Z " />
<glyph glyph-name="Lcaron" unicode="&#x13d;" horiz-adv-x="501" d="M376.29 485.7 C421.37 525.48 449.86 594.84 449.86 659.07 C449.86 687.18 448.18 697.73 443.82 717.72 L322.93 717.72 C331.61 693.53 336.53 664.87 336.53 637.42 C336.53 599.34 329.4 558.88 308.33 517.68 L376.29 485.7 Z M219.06 134.41 L219.06 642 L69.78 642 L69.78 -1.52588e-05 L471.81 -1.52588e-05 L471.81 134.41 L219.06 134.41 Z " />
<glyph glyph-name="lcaron" unicode="&#x13e;" horiz-adv-x="319" d="M306.59 485.7 C351.67 525.48 380.16 594.84 380.16 659.07 C380.16 687.18 378.48 697.73 374.12 717.72 L253.23 717.72 C261.92 693.53 266.83 664.87 266.83 637.42 C266.83 599.34 259.7 558.88 238.64 517.68 L306.59 485.7 Z M201.09 658.24 L50.4 658.24 L50.4 154.42 C50.4 12.99 128.94 -11.07 216.87 -11.07 C241.5 -11.07 271.45 -7.53001 290.82 1.21999 L290.82 121.51 C280.89 116.93 263.6 114.22 249.74 114.22 C218.25 114.22 201.09 128.01 201.09 169.63 L201.09 658.24 Z " />
<glyph glyph-name="Ldot" unicode="&#x13f;" horiz-adv-x="502" d="M219.06 134.41 L219.06 642 L69.78 642 L69.78 0 L471.81 0 L471.81 134.41 L219.06 134.41 Z M381.45 268.37 C426.28 268.37 462.7 305.41 462.7 349.62 C462.7 393.77 426.28 430.25 381.45 430.25 C337.86 430.25 300.82 393.77 300.82 349.62 C300.82 305.41 337.86 268.37 381.45 268.37 L381.45 268.37 Z " />
<glyph glyph-name="ldot" unicode="&#x140;" horiz-adv-x="381" d="M201.09 658.24 L50.4 658.24 L50.4 154.42 C50.4 12.99 128.94 -11.07 216.87 -11.07 C241.5 -11.07 271.45 -7.53 290.82 1.22 L290.82 121.51 C280.89 116.93 263.6 114.22 249.74 114.22 C218.25 114.22 201.09 128.01 201.09 169.63 L201.09 658.24 Z M308.41 245.47 C353.24 245.47 389.66 282.51 389.66 326.72 C389.66 370.87 353.24 407.35 308.41 407.35 C264.82 407.35 227.78 370.87 227.78 326.72 C227.78 282.51 264.82 245.47 308.41 245.47 L308.41 245.47 Z " />
<glyph glyph-name="Lslash" unicode="&#x141;" horiz-adv-x="522" d="M243.86 134.41 L243.86 308.71 L343.72 361.87 L299.79 446.4 L243.86 416.32 L243.86 642 L94.58 642 L94.58 336.05 L5.41002 288.1 L47.62 204.26 L94.58 229.25 L94.58 1.52588e-05 L496.61 1.52588e-05 L496.61 134.41 L243.86 134.41 Z " />
<glyph glyph-name="lslash" unicode="&#x142;" horiz-adv-x="366" d="M295.02 114.22 C263.53 114.22 246.37 128.01 246.37 169.63 L246.37 322.12 L334.63 368.19 L293.55 450.65 L246.37 425.96 L246.37 658.24 L95.68 658.24 L95.68 347.09 L7.03999 300.7 L48.32 218.72 L95.68 243.45 L95.68 154.42 C95.68 12.99 174.22 -11.07 262.15 -11.07 C286.78 -11.07 316.73 -7.52998 336.1 1.22002 L336.1 121.51 C326.17 116.93 308.88 114.22 295.02 114.22 L295.02 114.22 Z " />
<glyph glyph-name="Nacute" unicode="&#x143;" horiz-adv-x="681" d="M490.46 724.93 L449.5 854.23 L222.16 756.8 L248.33 676.76 L490.46 724.93 Z M462.33 642 L462.33 284.74 L466.22 235.34 L445.41 273.19 L215.48 642 L69.77 642 L69.77 3.05176e-05 L217.93 3.05176e-05 L217.93 351.87 L214.23 398.54 L234.92 360.32 L464 1.52588e-05 L610.5 1.52588e-05 L610.5 642 L462.33 642 Z " />
<glyph glyph-name="nacute" unicode="&#x144;" horiz-adv-x="568" d="M408.96 628.38 L333.46 737.29 L153.75 585.29 L203.77 515.21 L408.96 628.38 Z M340.82 487.84 C289.44 487.84 238.14 471.27 198.54 434.44 C194.29 456.9 187.75 475.85 178.55 492.28 L34.3 468.91 C47.71 440.73 55.55 404.04 55.55 354.48 L55.55 0.0100098 L204.83 0.0100098 L204.83 302.88 C220.23 328.15 254.07 354.19 296.5 354.19 C347.46 354.19 369.4 322.38 369.4 254.8 L369.4 0.0100098 L518.68 0.0100098 L518.68 277.69 C518.68 415.58 457.64 487.84 340.82 487.84 L340.82 487.84 Z " />
<glyph glyph-name="Ncommaaccent" unicode="&#x145;" horiz-adv-x="681" d="M462.34 642 L462.34 284.74 L466.23 235.34 L445.42 273.19 L215.49 642 L69.78 642 L69.78 1.52588e-05 L217.94 1.52588e-05 L217.94 351.87 L214.24 398.54 L234.93 360.32 L464.01 0 L610.51 0 L610.51 642 L462.34 642 Z M344.06 -40.35 C297.81 -40.32 258.51 -79.3 258.51 -126.3 C258.51 -167.37 288.98 -202.96 327.84 -210.79 C324.51 -240.45 310.58 -262.68 292.16 -284.7 L338.57 -317.23 C385.31 -275.55 430.26 -211.14 430.26 -126.3 C430.26 -79.3 391.62 -40.38 344.06 -40.35 L344.06 -40.35 Z " />
<glyph glyph-name="ncommaaccent" unicode="&#x146;" horiz-adv-x="568" d="M340.82 487.83 C289.44 487.83 238.14 471.26 198.54 434.43 C194.29 456.89 187.75 475.84 178.55 492.27 L34.3 468.9 C47.71 440.72 55.55 404.03 55.55 354.47 L55.55 0 L204.83 0 L204.83 302.87 C220.23 328.14 254.07 354.18 296.5 354.18 C347.46 354.18 369.4 322.37 369.4 254.79 L369.4 0 L518.68 0 L518.68 277.68 C518.68 415.57 457.64 487.83 340.82 487.83 L340.82 487.83 Z M283.12 -40.35 C236.87 -40.32 197.58 -79.3 197.58 -126.3 C197.58 -167.37 228.04 -202.96 266.9 -210.79 C263.57 -240.45 249.64 -262.68 231.22 -284.7 L277.64 -317.23 C324.37 -275.55 369.33 -211.14 369.33 -126.3 C369.33 -79.3 330.69 -40.38 283.12 -40.35 L283.12 -40.35 Z " />
<glyph glyph-name="Ncaron" unicode="&#x147;" horiz-adv-x="681" d="M388.43 681.15 L518.3 776.64 L472.76 847.62 L345.07 784.24 L217.5 847.62 L171.96 776.64 L301.83 681.15 L388.43 681.15 Z M462.34 642 L462.34 284.74 L466.23 235.34 L445.42 273.19 L215.49 642 L69.78 642 L69.78 1.52588e-05 L217.94 1.52588e-05 L217.94 351.87 L214.24 398.54 L234.93 360.32 L464.01 0 L610.51 0 L610.51 642 L462.34 642 Z " />
<glyph glyph-name="ncaron" unicode="&#x148;" horiz-adv-x="568" d="M324.26 522.37 L451.61 653.89 L390.24 720.18 L280.76 626.97 L171.34 720.18 L109.96 653.89 L237.32 522.37 L324.26 522.37 Z M340.82 487.83 C289.44 487.83 238.14 471.26 198.54 434.43 C194.29 456.89 187.75 475.84 178.55 492.27 L34.3 468.9 C47.71 440.72 55.55 404.03 55.55 354.47 L55.55 0 L204.83 0 L204.83 302.87 C220.23 328.14 254.07 354.18 296.5 354.18 C347.46 354.18 369.4 322.37 369.4 254.79 L369.4 0 L518.68 0 L518.68 277.68 C518.68 415.57 457.64 487.83 340.82 487.83 L340.82 487.83 Z " />
<glyph glyph-name="napostrophe" unicode="&#x149;" horiz-adv-x="660" d="M71.89 775.81 C23.02 775.81 -18.52 734.49 -18.52 684.71 C-18.52 640.37 14.1 602.07 56.85 594.63 C52.31 550.17 35.2 521.98 13.44 491.5 L62.16 453.16 C109.85 499.36 162.95 575.38 162.95 679.87 C162.95 737.09 122.1 775.81 71.89 775.81 L71.89 775.81 Z M432.86 487.83 C381.48 487.83 330.18 471.26 290.58 434.43 C286.33 456.89 279.79 475.84 270.59 492.27 L126.34 468.9 C139.75 440.72 147.59 404.03 147.59 354.47 L147.59 0 L296.87 0 L296.87 302.87 C312.27 328.14 346.11 354.18 388.54 354.18 C439.5 354.18 461.44 322.37 461.44 254.79 L461.44 0 L610.72 0 L610.72 277.68 C610.72 415.57 549.68 487.83 432.86 487.83 L432.86 487.83 Z " />
<glyph glyph-name="Eng" unicode="&#x14a;" horiz-adv-x="681" d="M462.34 642 L462.34 284.74 L466.23 235.34 L445.42 273.19 L215.49 642 L69.78 642 L69.78 1.52588e-05 L217.94 1.52588e-05 L217.94 351.87 L214.24 398.54 L234.93 360.32 L462.34 2.62001 L462.34 -10.86 C462.34 -58.67 437.24 -80.43 395.25 -80.43 C361.8 -80.43 336.04 -60.67 321.91 -46.78 L250.9 -165.71 C277.24 -191.81 331.73 -218.43 402.15 -218.43 C531.65 -218.43 610.51 -133.62 610.51 -7.68999 L610.51 642 L462.34 642 Z " />
<glyph glyph-name="eng" unicode="&#x14b;" horiz-adv-x="568" d="M340.82 487.83 C289.44 487.83 238.14 471.26 198.54 434.43 C194.29 456.89 187.75 475.84 178.55 492.27 L34.3 468.9 C47.71 440.72 55.55 404.03 55.55 354.47 L55.55 0 L204.83 0 L204.83 302.87 C220.23 328.14 254.07 354.18 296.5 354.18 C347.46 354.18 369.4 322.37 369.4 254.79 L369.4 -9.99001 C369.4 -65.5 348.17 -91.05 308.07 -91.05 C282.83 -91.05 263.9 -80.05 250.42 -68.26 L188.86 -168.8 C217.62 -195.77 262.21 -213.56 321.18 -213.56 C431.74 -213.56 518.68 -143.45 518.68 -21.34 L518.68 277.68 C518.68 415.57 457.64 487.83 340.82 487.83 L340.82 487.83 Z " />
<glyph glyph-name="Omacron" unicode="&#x14c;" horiz-adv-x="725" d="M213.11 713.14 L524.16 713.14 L524.16 813.95 L213.11 813.95 L213.11 713.14 Z M362.18 659.52 C172.43 659.52 35.99 521.29 35.99 322 C35.99 119.08 172.43 -15.83 362.18 -15.83 C551.89 -15.83 688.34 124.05 688.34 322 C688.34 526.12 551.89 659.52 362.18 659.52 L362.18 659.52 Z M362.18 524.08 C462.36 524.08 527.2 446.54 527.2 322 C527.2 199.74 462.36 119.64 362.18 119.64 C261.96 119.64 197.13 199.74 197.13 322 C197.13 446.54 261.96 524.08 362.18 524.08 L362.18 524.08 Z " />
<glyph glyph-name="omacron" unicode="&#x14d;" horiz-adv-x="573" d="M132.57 569.38 L440.79 569.38 L440.79 681.23 L132.57 681.23 L132.57 569.38 Z M287.67 487.83 C140.37 487.83 32.37 388.27 32.37 236.69 C32.37 80.16 138.15 -15.83 286.17 -15.83 C434.16 -15.83 540.77 84.99 540.77 236.69 C540.77 390.34 435.69 487.83 287.67 487.83 L287.67 487.83 Z M286.9 108.85 C221.42 108.85 181.93 158.45 181.93 236.69 C181.93 315.39 221.35 365.22 286.9 365.22 C352.28 365.22 391.21 315.67 391.21 236.63 C391.21 158.04 352.14 108.85 286.9 108.85 L286.9 108.85 Z " />
<glyph glyph-name="Ohungarumlaut" unicode="&#x150;" horiz-adv-x="725" d="M244.07 666.83 L404.43 773.56 L328.63 865.67 L190.49 729.37 L244.07 666.83 Z M455.78 666.83 L616.14 773.56 L540.34 865.67 L402.2 729.37 L455.78 666.83 Z M362.18 659.52 C172.43 659.52 35.99 521.29 35.99 322 C35.99 119.08 172.43 -15.83 362.18 -15.83 C551.89 -15.83 688.34 124.05 688.34 322 C688.34 526.12 551.89 659.52 362.18 659.52 L362.18 659.52 Z M362.18 524.08 C462.36 524.08 527.2 446.54 527.2 322 C527.2 199.74 462.36 119.64 362.18 119.64 C261.96 119.64 197.13 199.74 197.13 322 C197.13 446.54 261.96 524.08 362.18 524.08 L362.18 524.08 Z " />
<glyph glyph-name="ohungarumlaut" unicode="&#x151;" horiz-adv-x="573" d="M183.84 516.36 L320.9 667.87 L228.24 742.73 L115.83 567.66 L183.84 516.36 Z M361.41 516.36 L498.47 667.87 L405.81 742.73 L293.4 567.66 L361.41 516.36 Z M287.67 487.83 C140.37 487.83 32.37 388.27 32.37 236.69 C32.37 80.16 138.15 -15.83 286.17 -15.83 C434.16 -15.83 540.77 84.99 540.77 236.69 C540.77 390.34 435.69 487.83 287.67 487.83 L287.67 487.83 Z M286.9 108.85 C221.42 108.85 181.93 158.45 181.93 236.69 C181.93 315.39 221.35 365.22 286.9 365.22 C352.28 365.22 391.21 315.67 391.21 236.63 C391.21 158.04 352.14 108.85 286.9 108.85 L286.9 108.85 Z " />
<glyph glyph-name="OE" unicode="&#x152;" horiz-adv-x="933" d="M889.97 132.65 L617.72 132.65 L617.72 259.19 L851.57 259.19 L851.57 390.46 L617.72 390.46 L617.72 509.04 L881.05 509.04 L881.05 642 L477.78 642 C443.31 651.5 401.35 658.14 364.35 658.14 C172.25 658.14 35.68 520.98 35.68 321.69 C35.68 120.05 172.25 -14.45 364.35 -14.45 C403.84 -14.45 440.58 -9.56 475.06 0 L889.97 0 L889.97 132.65 Z M196.82 321.69 C196.82 446.23 265.09 522.7 371.18 522.7 C407.4 522.7 443.94 514.07 468.72 498.58 L468.72 141.54 C440.15 124.17 403.38 120.99 369.73 120.99 C265.09 120.99 196.82 198.87 196.82 321.69 L196.82 321.69 Z " />
<glyph glyph-name="oe" unicode="&#x153;" horiz-adv-x="887" d="M854.01 270.48 C854.01 402.46 765.16 487.83 634.59 487.83 C568 487.83 509.69 463.84 466.92 422.56 C422.33 464.45 360.14 487.83 287.67 487.83 C140.37 487.83 32.37 388.27 32.37 236.69 C32.37 80.16 138.15 -15.83 286.17 -15.83 C357.88 -15.83 419.87 7.83998 464.73 49.5 C510.52 6.80998 574.54 -15.83 647.03 -15.83 C741.54 -15.83 801.78 11.28 842.62 40.39 L793.05 142.81 C758.5 121.77 718.48 103.71 663.04 103.71 C594.14 103.71 553.25 135.42 543.77 200.82 L849.48 200.82 C852.98 223.71 854.01 246.83 854.01 270.48 L854.01 270.48 Z M543.56 284.48 C550.73 338.15 581.34 374.43 635.28 374.43 C692.47 374.43 714.05 330.01 714.05 284.48 L543.56 284.48 Z M286.9 108.85 C221.42 108.85 181.93 158.45 181.93 236.69 C181.93 315.39 221.35 365.22 286.9 365.22 C352.28 365.22 391.21 315.67 391.21 236.63 C391.21 158.04 352.14 108.85 286.9 108.85 L286.9 108.85 Z " />
<glyph glyph-name="Racute" unicode="&#x154;" horiz-adv-x="599" d="M422.67 724.93 L381.71 854.23 L154.37 756.8 L180.54 676.76 L422.67 724.93 Z M471.66 179.41 L430.52 251.88 C501.1 284.81 546.99 345.92 546.99 434.26 C546.99 565.07 469.73 642 280.08 642 L69.78 642 L69.78 -1.52588e-05 L219.06 -1.52588e-05 L219.06 223.19 L270.11 223.19 L349.46 87.7 C397.3 3.99998 454.09 -4.14001 555.63 -4.14001 L555.63 133.96 C508.46 133.96 490.01 146.46 471.66 179.41 L471.66 179.41 Z M219.06 516.18 L293.06 516.18 C362.47 516.18 394.61 484.15 394.61 431.71 C394.61 381.83 364.21 347.25 293.34 347.25 L219.06 347.25 L219.06 516.18 Z " />
<glyph glyph-name="racute" unicode="&#x155;" horiz-adv-x="398" d="M354.79 628.38 L279.29 737.29 L99.58 585.29 L149.6 515.21 L354.79 628.38 Z M334.06 487.87 C280.24 487.87 235.03 459.42 201.71 413.7 C197.9 445.56 190.46 471.02 178.55 492.28 L34.3 468.91 C47.71 440.73 55.55 404.04 55.55 354.48 L55.55 0.010025 L204.83 0.010025 L204.83 268.76 C218.55 308.5 257.16 344.94 312.48 344.94 C334.31 344.94 350.34 340.58 362.84 334.67 L393.66 479.87 C377.25 485.28 354.68 487.87 334.06 487.87 L334.06 487.87 Z " />
<glyph glyph-name="Rcommaaccent" unicode="&#x156;" horiz-adv-x="599" d="M471.66 179.41 L430.52 251.88 C501.1 284.81 546.99 345.92 546.99 434.26 C546.99 565.07 469.73 642 280.08 642 L69.78 642 L69.78 -1.52588e-05 L219.06 -1.52588e-05 L219.06 223.19 L270.11 223.19 L349.46 87.7 C397.3 3.99998 454.09 -4.14001 555.63 -4.14001 L555.63 133.96 C508.46 133.96 490.01 146.46 471.66 179.41 L471.66 179.41 Z M219.06 516.18 L293.06 516.18 C362.47 516.18 394.61 484.15 394.61 431.71 C394.61 381.83 364.21 347.25 293.34 347.25 L219.06 347.25 L219.06 516.18 Z M323.24 -40.35 C276.99 -40.32 237.7 -79.3 237.7 -126.3 C237.7 -167.37 268.16 -202.96 307.02 -210.79 C303.69 -240.45 289.76 -262.68 271.34 -284.7 L317.76 -317.23 C364.49 -275.55 409.45 -211.14 409.45 -126.3 C409.45 -79.3 370.81 -40.38 323.24 -40.35 L323.24 -40.35 Z " />
<glyph glyph-name="rcommaaccent" unicode="&#x157;" horiz-adv-x="398" d="M334.06 487.86 C280.24 487.86 235.03 459.41 201.71 413.69 C197.9 445.55 190.46 471.01 178.55 492.27 L34.3 468.9 C47.71 440.72 55.55 404.03 55.55 354.47 L55.55 1.52588e-05 L204.83 1.52588e-05 L204.83 268.75 C218.55 308.49 257.16 344.93 312.48 344.93 C334.31 344.93 350.34 340.57 362.84 334.66 L393.66 479.86 C377.25 485.27 354.68 487.86 334.06 487.86 L334.06 487.86 Z M126.61 -40.35 C80.35 -40.32 41.06 -79.3 41.06 -126.3 C41.06 -167.37 71.53 -202.96 110.39 -210.79 C107.06 -240.45 93.13 -262.68 74.7 -284.7 L121.12 -317.23 C167.86 -275.55 212.81 -211.14 212.81 -126.3 C212.81 -79.3 174.17 -40.38 126.61 -40.35 L126.61 -40.35 Z " />
<glyph glyph-name="Rcaron" unicode="&#x158;" horiz-adv-x="599" d="M324.98 681.15 L454.85 776.64 L409.31 847.62 L281.62 784.24 L154.05 847.62 L108.51 776.64 L238.38 681.15 L324.98 681.15 Z M471.66 179.41 L430.52 251.88 C501.1 284.81 546.99 345.92 546.99 434.26 C546.99 565.07 469.73 642 280.08 642 L69.78 642 L69.78 -3.05176e-05 L219.06 -3.05176e-05 L219.06 223.19 L270.11 223.19 L349.46 87.7 C397.3 3.99997 454.09 -4.14003 555.63 -4.14003 L555.63 133.96 C508.46 133.96 490.01 146.46 471.66 179.41 L471.66 179.41 Z M219.06 516.18 L293.06 516.18 C362.47 516.18 394.61 484.15 394.61 431.71 C394.61 381.83 364.21 347.25 293.34 347.25 L219.06 347.25 L219.06 516.18 Z " />
<glyph glyph-name="rcaron" unicode="&#x159;" horiz-adv-x="398" d="M270.09 522.37 L397.45 653.89 L336.07 720.18 L226.59 626.97 L117.17 720.18 L55.8 653.89 L183.15 522.37 L270.09 522.37 Z M201.71 413.69 C197.9 445.55 190.46 471.01 178.55 492.27 L34.3 468.9 C47.71 440.72 55.55 404.03 55.55 354.47 L55.55 1.52588e-05 L204.83 1.52588e-05 L204.83 268.75 C218.55 308.49 257.16 344.93 312.48 344.93 C334.31 344.93 350.34 340.57 362.84 334.66 L393.66 479.86 C377.25 485.27 354.68 487.86 334.06 487.86 C280.24 487.86 235.03 459.41 201.71 413.69 L201.71 413.69 Z " />
<glyph glyph-name="Sacute" unicode="&#x15a;" horiz-adv-x="544" d="M177.21 676.76 L419.34 724.93 L378.38 854.23 L151.03 756.8 L177.21 676.76 Z M268.58 -15.83 C416.1 -15.83 509.61 60.48 509.61 183.31 C509.61 314.46 417.35 358.53 331.45 385.53 C257.7 409.05 188.61 420.77 188.61 468.88 C188.61 500.68 218.41 522.42 273.67 522.42 C342.39 522.42 396.9 498.24 432.3 470.8 L501.02 591.69 C464.31 623.1 392.09 659.52 283.69 659.52 C135.65 659.52 43.69 580.55 43.69 469.61 C43.69 333.16 142.63 291.85 230.49 262.16 C301.15 238.22 365.31 224.04 365.31 179.17 C365.31 143.09 335.65 121.27 271.47 121.27 C209.42 121.27 156.77 139.09 103.98 183.2 L25.3 69.55 C76.08 20.55 154.48 -15.82 268.58 -15.82 L268.58 -15.83 Z " />
<glyph glyph-name="sacute" unicode="&#x15b;" horiz-adv-x="475" d="M161.53 515.2 L366.71 628.38 L291.21 737.29 L111.51 585.29 L161.53 515.2 Z M257.63 487.84 C129.02 487.84 39.74 433.99 39.74 334.97 C39.74 227.86 122.37 203.07 192.92 185.38 C259.56 168.65 292.45 161.44 292.45 133.95 C292.45 110.33 274.7 95.89 237.02 95.89 C166.07 95.89 110.69 118.82 72.93 142.82 L25.06 40.4 C59.88 12.88 132.18 -15.82 231.09 -15.82 C367.06 -15.82 441.45 42.66 441.45 141.54 C441.45 249.55 359.91 276.5 278.46 293.5 C211.14 307.61 181.58 313.36 181.58 340.41 C181.58 362.98 204.77 374.75 254.11 374.75 C309.47 374.75 369.58 356.18 402.58 338.14 L429.87 450.41 C393.99 466.54 334.15 487.84 257.62 487.84 L257.63 487.84 Z " />
<glyph glyph-name="Scedilla" unicode="&#x15e;" horiz-adv-x="544" d="M509.61 183.31 C509.61 314.46 417.35 358.53 331.45 385.53 C257.7 409.05 188.61 420.77 188.61 468.88 C188.61 500.68 218.41 522.42 273.67 522.42 C342.39 522.42 396.9 498.24 432.3 470.8 L501.02 591.69 C464.31 623.1 392.09 659.52 283.69 659.52 C135.65 659.52 43.69 580.55 43.69 469.61 C43.69 333.16 142.63 291.85 230.49 262.16 C301.15 238.22 365.31 224.04 365.31 179.17 C365.31 143.09 335.65 121.27 271.47 121.27 C209.42 121.27 156.77 139.09 103.98 183.2 L25.3 69.55 C70.59 25.84 137.87 -7.82997 232.84 -14.59 L210.56 -74.62 C247.28 -75.62 274.12 -82.62 274.12 -108.62 C274.12 -128.41 257.81 -137.31 237.7 -137.31 C220.33 -137.31 205.78 -132.44 192.41 -123.62 L161.91 -193.01 C179.61 -207.81 222.3 -219.67 261.15 -219.67 C320.2 -219.67 389.97 -196.81 389.97 -118.27 C389.97 -64 346.93 -38.92 306.16 -36.6199 L314.54 -13.19 C435.25 1.24004 509.61 73.78 509.61 183.31 L509.61 183.31 Z " />
<glyph glyph-name="scedilla" unicode="&#x15f;" horiz-adv-x="475" d="M441.45 141.53 C441.45 249.54 359.91 276.49 278.46 293.49 C211.14 307.6 181.58 313.35 181.58 340.4 C181.58 362.97 204.77 374.74 254.11 374.74 C309.47 374.74 369.58 356.17 402.58 338.13 L429.87 450.4 C393.99 466.53 334.15 487.83 257.62 487.83 C129.01 487.83 39.73 433.98 39.73 334.96 C39.73 227.85 122.36 203.06 192.91 185.37 C259.55 168.64 292.44 161.43 292.44 133.94 C292.44 110.32 274.69 95.88 237.01 95.88 C166.06 95.88 110.68 118.81 72.92 142.81 L25.05 40.39 C56.01 15.92 116.6 -9.48 199.17 -14.81 L176.97 -74.62 C213.69 -75.62 240.53 -82.62 240.53 -108.62 C240.53 -128.41 224.22 -137.31 204.11 -137.31 C186.74 -137.31 172.19 -132.44 158.82 -123.62 L128.31 -193.01 C146.02 -207.81 188.71 -219.67 227.56 -219.67 C286.61 -219.67 356.38 -196.81 356.38 -118.27 C356.38 -64 313.34 -38.92 272.57 -36.62 L281.05 -12.9 C385.17 0.0900269 441.44 55.53 441.44 141.53 L441.45 141.53 Z " />
<glyph glyph-name="Scaron" unicode="&#x160;" horiz-adv-x="544" d="M321.65 681.15 L451.52 776.64 L405.98 847.62 L278.29 784.24 L150.72 847.62 L105.18 776.64 L235.05 681.15 L321.65 681.15 Z M268.58 -15.83 C416.1 -15.83 509.61 60.48 509.61 183.31 C509.61 314.46 417.35 358.53 331.45 385.53 C257.7 409.05 188.61 420.77 188.61 468.88 C188.61 500.68 218.41 522.42 273.67 522.42 C342.39 522.42 396.9 498.24 432.3 470.8 L501.02 591.69 C464.31 623.1 392.09 659.52 283.69 659.52 C135.65 659.52 43.69 580.55 43.69 469.61 C43.69 333.16 142.63 291.85 230.49 262.16 C301.15 238.22 365.31 224.04 365.31 179.17 C365.31 143.09 335.65 121.27 271.47 121.27 C209.42 121.27 156.77 139.09 103.98 183.2 L25.3 69.55 C76.08 20.55 154.48 -15.82 268.58 -15.82 L268.58 -15.83 Z " />
<glyph glyph-name="scaron" unicode="&#x161;" horiz-adv-x="475" d="M195.08 522.37 L282.02 522.37 L409.37 653.89 L348 720.18 L238.51 626.97 L129.09 720.18 L67.72 653.89 L195.08 522.37 Z M257.63 487.83 C129.02 487.83 39.74 433.98 39.74 334.96 C39.74 227.85 122.37 203.06 192.92 185.37 C259.56 168.64 292.45 161.43 292.45 133.94 C292.45 110.32 274.7 95.88 237.02 95.88 C166.07 95.88 110.69 118.81 72.93 142.81 L25.06 40.39 C59.8801 12.87 132.18 -15.83 231.09 -15.83 C367.06 -15.83 441.45 42.65 441.45 141.53 C441.45 249.54 359.91 276.49 278.46 293.49 C211.14 307.6 181.58 313.35 181.58 340.4 C181.58 362.97 204.77 374.74 254.11 374.74 C309.47 374.74 369.58 356.17 402.58 338.13 L429.87 450.4 C393.99 466.53 334.15 487.83 257.62 487.83 L257.63 487.83 Z " />
<glyph glyph-name="uni0162" unicode="&#x162;" horiz-adv-x="546" d="M347.69 0 L347.69 509.35 L522.39 509.35 L522.39 642 L23.41 642 L23.41 509.35 L198.41 509.35 L198.41 0 L232.46 0 L204.76 -74.62 C241.48 -75.62 268.33 -82.62 268.33 -108.62 C268.33 -128.41 252.02 -137.31 231.9 -137.31 C214.53 -137.31 199.99 -132.44 186.61 -123.62 L156.11 -193.01 C173.81 -207.81 216.5 -219.67 255.35 -219.67 C314.4 -219.67 384.18 -196.81 384.18 -118.27 C384.18 -64 341.13 -38.92 300.36 -36.62 L313.46 1.52588e-05 L347.69 0 Z " />
<glyph glyph-name="uni0163" unicode="&#x163;" horiz-adv-x="441" d="M286.83 -36.62 L294.29 -15.76 C358.86 -14.6 403.26 0.590012 438.71 31.49 L380.38 135.88 C362.39 120.62 342.99 109.68 312.8 109.68 C271.53 109.68 248.17 127.68 248.17 181.63 L248.17 343.59 L403.45 343.59 L403.45 465.86 L248.17 465.86 L248.17 591.93 L98.89 573.42 L98.89 465.86 L20.41 465.86 L20.41 343.59 L98.89 343.59 L98.89 159.79 C98.89 64.81 144.99 11.97 216.21 -7.30997 L191.23 -74.62 C227.95 -75.62 254.79 -82.62 254.79 -108.62 C254.79 -128.41 238.48 -137.31 218.37 -137.31 C201 -137.31 186.45 -132.44 173.08 -123.62 L142.57 -193.01 C160.28 -207.81 202.97 -219.67 241.82 -219.67 C300.87 -219.67 370.64 -196.81 370.64 -118.27 C370.64 -64 327.6 -38.92 286.83 -36.6199 L286.83 -36.62 Z " />
<glyph glyph-name="Tcaron" unicode="&#x164;" horiz-adv-x="546" d="M313.77 681.15 L443.63 776.64 L398.1 847.62 L270.4 784.24 L142.83 847.62 L97.3 776.64 L227.16 681.15 L313.77 681.15 Z M522.39 642 L23.41 642 L23.41 509.35 L198.41 509.35 L198.41 0 L347.68 0 L347.68 509.35 L522.38 509.35 L522.39 642 Z " />
<glyph glyph-name="tcaron" unicode="&#x165;" horiz-adv-x="441" d="M365.47 512.61 C410.55 552.39 439.04 621.75 439.04 685.98 C439.04 714.09 437.36 724.64 433 744.63 L312.11 744.63 C320.8 720.44 325.71 691.78 325.71 664.33 C325.71 626.25 318.58 585.79 297.52 544.59 L365.47 512.61 Z M312.8 109.68 C271.53 109.68 248.17 127.68 248.17 181.63 L248.17 343.59 L403.45 343.59 L403.45 465.86 L248.17 465.86 L248.17 591.93 L98.89 573.42 L98.89 465.86 L20.41 465.86 L20.41 343.59 L98.89 343.59 L98.89 159.79 C98.89 36.45 176.63 -15.83 286.17 -15.83 C355.17 -15.83 401.79 -0.689987 438.71 31.49 L380.38 135.88 C362.39 120.62 342.99 109.68 312.8 109.68 L312.8 109.68 Z " />
<glyph glyph-name="Tbar" unicode="&#x166;" horiz-adv-x="550" d="M524.32 509.35 L524.32 642 L25.34 642 L25.34 509.35 L200.34 509.35 L200.34 361.75 L118.06 361.75 L118.06 259.15 L200.34 259.15 L200.34 0 L349.61 0 L349.61 259.15 L436.04 259.15 L436.04 361.75 L349.61 361.75 L349.61 509.35 L524.32 509.35 Z " />
<glyph glyph-name="tbar" unicode="&#x167;" horiz-adv-x="443" d="M382 135.88 C364.01 120.62 344.61 109.68 314.42 109.68 C273.15 109.68 249.79 127.68 249.79 181.63 L249.79 204.05 L345.6 204.05 L345.6 291.82 L249.79 291.82 L249.79 343.59 L405.07 343.59 L405.07 465.86 L249.79 465.86 L249.79 591.93 L100.51 573.42 L100.51 465.86 L22.03 465.86 L22.03 343.59 L100.51 343.59 L100.51 291.82 L31.3 291.82 L31.3 204.05 L100.51 204.05 L100.51 159.79 C100.51 36.45 178.25 -15.83 287.79 -15.83 C356.79 -15.83 403.41 -0.689972 440.33 31.49 L382 135.88 Z " />
<glyph glyph-name="Utilde" unicode="&#x168;" horiz-adv-x="662" d="M228.34 689.95 C236.15 713.49 251.88 730.62 276.98 730.62 C316.98 730.62 346.18 691.03 406.2 691.03 C464.23 691.03 519.11 725.59 537.17 797.2 L436.78 837.28 C428.89 815.05 414.06 801.3 389.93 801.3 C353.14 801.3 318.04 842.09 260.28 842.09 C199.98 842.09 146 804.74 127.8 729.06 L228.34 689.95 Z M332.21 -15.83 C489.01 -15.83 599.72 85.17 599.72 262.9 L599.72 642 L453.58 642 L453.58 260.83 C453.58 174.46 409.33 123.58 333.63 123.58 C257.72 123.58 212.6 174.46 212.6 260.83 L212.6 642 L62.77 642 L62.77 258.07 C62.77 77.65 169.39 -15.83 332.21 -15.83 L332.21 -15.83 Z " />
<glyph glyph-name="utilde" unicode="&#x169;" horiz-adv-x="558" d="M222.76 589.07 C255.72 589.07 288.59 553.69 343.29 553.69 C404.14 553.69 455.64 596.25 470.39 669.72 L373.24 705.17 C366.33 682.32 350.94 667.61 329.71 667.61 C296.71 667.61 262.3 703.99 208.41 703.99 C147.22 703.99 96.34 659.74 81.73 583.5 L178.87 548.05 C185.79 572.76 201.17 589.07 222.76 589.07 L222.76 589.07 Z M523.06 5.37999 C509.65 33.55 501.81 70.24 501.81 119.8 L501.81 471.38 L352.53 471.38 L352.53 169.68 C339.08 143.58 309.73 116.92 267.82 116.92 C218.57 116.92 197.75 148.72 197.75 216.31 L197.75 471.38 L48.47 471.38 L48.47 193.42 C48.47 55.52 108.36 -16.73 223.53 -16.73 C276.28 -16.73 322.89 3.90999 358.15 43.58 C362.37 19.47 369.11 -0.670013 378.81 -18 L523.06 5.37999 Z " />
<glyph glyph-name="Umacron" unicode="&#x16a;" horiz-adv-x="662" d="M178.63 713.14 L489.67 713.14 L489.67 813.95 L178.63 813.95 L178.63 713.14 Z M332.22 -15.83 C489.02 -15.83 599.73 85.17 599.73 262.9 L599.73 642 L453.59 642 L453.59 260.83 C453.59 174.46 409.34 123.58 333.64 123.58 C257.73 123.58 212.61 174.46 212.61 260.83 L212.61 642 L62.78 642 L62.78 258.07 C62.78 77.65 169.4 -15.83 332.22 -15.83 L332.22 -15.83 Z " />
<glyph glyph-name="umacron" unicode="&#x16b;" horiz-adv-x="558" d="M429.55 681.23 L121.32 681.23 L121.32 569.38 L429.55 569.38 L429.55 681.23 Z M523.06 5.37999 C509.65 33.55 501.81 70.24 501.81 119.8 L501.81 471.38 L352.53 471.38 L352.53 169.68 C339.08 143.58 309.73 116.92 267.82 116.92 C218.57 116.92 197.75 148.72 197.75 216.31 L197.75 471.38 L48.47 471.38 L48.47 193.42 C48.47 55.52 108.36 -16.73 223.53 -16.73 C276.28 -16.73 322.89 3.90999 358.15 43.58 C362.37 19.47 369.11 -0.670013 378.81 -18 L523.06 5.37999 Z " />
<glyph glyph-name="Uring" unicode="&#x16e;" horiz-adv-x="662" d="M334.01 659.45 C399.8 659.45 451.97 713.66 451.97 779.6 C451.97 845.74 399.8 899.95 334.01 899.95 C267.04 899.95 214.85 845.74 214.85 779.6 C214.85 713.66 267.04 659.45 334.01 659.45 L334.01 659.45 Z M333.53 737.94 C309.14 737.94 293.73 757.7 293.73 779.46 C293.73 802.15 309.14 821.91 333.53 821.91 C358.4 821.91 372.84 802.15 372.84 779.46 C372.84 757.7 358.4 737.94 333.53 737.94 L333.53 737.94 Z M332.22 -15.83 C489.02 -15.83 599.73 85.17 599.73 262.9 L599.73 642 L453.59 642 L453.59 260.83 C453.59 174.46 409.34 123.58 333.64 123.58 C257.73 123.58 212.61 174.46 212.61 260.83 L212.61 642 L62.78 642 L62.78 258.07 C62.78 77.65 169.4 -15.83 332.22 -15.83 L332.22 -15.83 Z " />
<glyph glyph-name="uring" unicode="&#x16f;" horiz-adv-x="558" d="M276.07 507.07 C342.62 507.07 395.44 561.28 395.44 627.22 C395.44 693.36 342.62 747.57 276.07 747.57 C208.31 747.57 155.49 693.36 155.49 627.22 C155.49 561.28 208.31 507.07 276.07 507.07 L276.07 507.07 Z M275.59 669.84 C300.73 669.84 315.73 650.08 315.73 627.08 C315.73 605.01 300.73 585.25 275.59 585.25 C251.48 585.25 235.48 605.01 235.48 627.08 C235.48 650.08 251.48 669.84 275.59 669.84 L275.59 669.84 Z M523.06 5.38 C509.65 33.55 501.81 70.24 501.81 119.8 L501.81 471.38 L352.53 471.38 L352.53 169.68 C339.08 143.58 309.73 116.92 267.82 116.92 C218.57 116.92 197.75 148.72 197.75 216.31 L197.75 471.38 L48.47 471.38 L48.47 193.42 C48.47 55.52 108.36 -16.73 223.53 -16.73 C276.28 -16.73 322.89 3.91 358.15 43.58 C362.37 19.47 369.11 -0.669998 378.81 -18 L523.06 5.38 Z " />
<glyph glyph-name="Uhungarumlaut" unicode="&#x170;" horiz-adv-x="662" d="M209.59 666.83 L369.95 773.56 L294.15 865.67 L156 729.37 L209.59 666.83 Z M421.3 666.83 L581.66 773.56 L505.86 865.67 L367.71 729.37 L421.3 666.83 Z M332.22 -15.83 C489.02 -15.83 599.73 85.17 599.73 262.9 L599.73 642 L453.59 642 L453.59 260.83 C453.59 174.46 409.34 123.58 333.64 123.58 C257.73 123.58 212.61 174.46 212.61 260.83 L212.61 642 L62.78 642 L62.78 258.07 C62.78 77.65 169.4 -15.83 332.22 -15.83 L332.22 -15.83 Z " />
<glyph glyph-name="uhungarumlaut" unicode="&#x171;" horiz-adv-x="558" d="M309.66 667.87 L216.99 742.73 L104.59 567.66 L172.6 516.36 L309.66 667.87 Z M350.17 516.36 L487.23 667.87 L394.56 742.73 L282.16 567.66 L350.17 516.36 Z M523.06 5.37997 C509.65 33.55 501.81 70.24 501.81 119.8 L501.81 471.38 L352.53 471.38 L352.53 169.68 C339.08 143.58 309.73 116.92 267.82 116.92 C218.57 116.92 197.75 148.72 197.75 216.31 L197.75 471.38 L48.47 471.38 L48.47 193.42 C48.47 55.52 108.36 -16.73 223.53 -16.73 C276.28 -16.73 322.89 3.90997 358.15 43.58 C362.37 19.47 369.11 -0.670029 378.81 -18 L523.06 5.37997 Z " />
<glyph glyph-name="Uogonek" unicode="&#x172;" horiz-adv-x="662" d="M453.59 642 L453.59 260.83 C453.59 174.46 409.34 123.58 333.64 123.58 C257.73 123.58 212.61 174.46 212.61 260.83 L212.61 642 L62.78 642 L62.78 258.07 C62.78 79.75 166.94 -13.64 326.56 -15.79 C300.71 -42.42 284.87 -74.29 284.87 -112.66 C284.87 -174.25 328.65 -210.7 398.61 -210.7 C449.51 -210.7 484.28 -190.6 504.5 -170.49 L457.69 -93.34 C448.69 -99.5 436.68 -106.89 421.26 -106.89 C406.2 -106.89 391.17 -98.17 391.17 -73.88 C391.17 -48.98 412.39 -19.48 449.82 6.59001 C541.56 45.55 599.73 134.06 599.73 262.9 L599.73 642 L453.59 642 Z " />
<glyph glyph-name="uogonek" unicode="&#x173;" horiz-adv-x="558" d="M489.11 -93.34 C480.11 -99.5 468.1 -106.89 452.68 -106.89 C437.62 -106.89 422.59 -98.17 422.59 -76.2 C422.59 -54.36 437.67 -13.74 523.16 5.37999 L522.96 5.35999 L523.06 5.37999 C509.65 33.55 501.81 70.24 501.81 119.8 L501.81 471.38 L352.53 471.38 L352.53 169.68 C339.08 143.58 309.73 116.92 267.82 116.92 C218.57 116.92 197.75 148.72 197.75 216.31 L197.75 471.38 L48.47 471.38 L48.47 193.42 C48.47 55.52 108.36 -16.73 223.53 -16.73 C276.28 -16.73 322.89 3.90999 358.15 43.58 C361.8 22.71 367.34 4.81999 375.05 -10.84 C334.13 -38.36 316.29 -72.98 316.29 -113.84 C316.29 -174.25 360.07 -210.7 430.03 -210.7 C480.93 -210.7 515.7 -190.6 535.92 -170.49 L489.11 -93.34 Z " />
<glyph glyph-name="Wcircumflex" unicode="&#x174;" horiz-adv-x="932" d="M466.53 737.07 L594.22 673.69 L639.76 744.67 L509.89 840.16 L423.29 840.16 L293.42 744.67 L338.96 673.69 L466.53 737.07 Z M765.66 642 L672.67 225.02 L660.67 170.35 L648.23 225.08 L546.44 599.18 L393.92 599.18 L292.21 225.02 L282.27 176.6 L271.39 225.08 L178.67 642 L11.85 642 L191 0 L355.88 0 L455.72 345.66 L468.14 403.44 L480.53 346.55 L578.2 0 L738.43 0 L921.05 642 L765.66 642 Z " />
<glyph glyph-name="wcircumflex" unicode="&#x175;" horiz-adv-x="770" d="M379.96 613.97 L489.44 520.75 L550.82 587.04 L423.46 718.56 L336.52 718.56 L209.17 587.04 L270.54 520.75 L379.96 613.97 Z M596.31 471.38 L525.31 122.15 L447.48 471.38 L324.78 471.38 L248.19 124.02 L176.79 471.38 L12.06 471.38 L156.8 0 L320.8 0 L386.33 296.18 L449.68 0 L613.81 0 L756.66 471.38 L596.31 471.38 Z " />
<glyph glyph-name="Ycircumflex" unicode="&#x176;" horiz-adv-x="622" d="M313.12 743.28 L440.82 679.9 L486.35 750.88 L356.49 846.37 L269.88 846.37 L140.02 750.88 L185.55 679.9 L313.12 743.28 Z M613.2 642 L449.26 642 L338.17 430.48 L315.87 384.92 L294.97 430.14 L183.39 642 L5.29999 642 L237.35 237.71 L237.35 0 L386.63 0 L386.63 238.48 L613.2 642 Z " />
<glyph glyph-name="ycircumflex" unicode="&#x177;" horiz-adv-x="526" d="M270.08 613.97 L379.57 520.75 L440.94 587.04 L313.58 718.56 L226.64 718.56 L99.29 587.04 L160.66 520.75 L270.08 613.97 Z M513.33 471.38 L352.05 471.38 L265.97 116.44 L178.78 471.38 L12.44 471.38 L173.6 0 L213.58 0 L202.59 -26.15 C184.07 -76.77 144 -80.45 103.47 -80.45 L103.47 -201 C205.06 -201 288.27 -189.77 334.79 -55.54 L354.75 0 L354.62 0 L513.33 471.38 Z " />
<glyph glyph-name="Ydieresis" unicode="&#x178;" horiz-adv-x="622" d="M198.91 695.48 C240.94 695.48 274.9 728.94 274.9 771.01 C274.9 812.09 241.22 845.61 198.91 845.61 C157.15 845.61 123.54 812.09 123.54 771.01 C123.54 728.94 157.43 695.48 198.91 695.48 L198.91 695.48 Z M430.73 695.48 C472.69 695.48 506.65 728.94 506.65 771.01 C506.65 812.09 472.97 845.61 430.73 845.61 C388.97 845.61 355.29 812.09 355.29 771.01 C355.29 728.94 389.25 695.48 430.73 695.48 L430.73 695.48 Z M613.2 642 L449.26 642 L338.17 430.48 L315.87 384.92 L294.97 430.14 L183.39 642 L5.30006 642 L237.35 237.71 L237.35 0 L386.63 0 L386.63 238.48 L613.2 642 Z " />
<glyph glyph-name="Zacute" unicode="&#x179;" horiz-adv-x="565" d="M421.76 724.93 L380.8 854.23 L153.46 756.8 L179.63 676.76 L421.76 724.93 Z M225.59 133.1 L249.58 163.03 L515.47 526.07 L515.47 642 L44.74 642 L44.74 508.59 L333.56 508.83 L311.21 482.31 L35.65 115.28 L35.65 -1.52588e-05 L530.23 -1.52588e-05 L530.23 133.1 L225.59 133.1 Z " />
<glyph glyph-name="zacute" unicode="&#x17a;" horiz-adv-x="478" d="M362.51 628.38 L287.01 737.29 L107.3 585.29 L157.32 515.21 L362.51 628.38 Z M211.37 120.44 L436.48 347.32 L436.48 470.01 L43.49 470.01 L43.49 348.19 L266.3 348.19 L38.34 125.55 L38.34 0.0100098 L441.5 0.0100098 L441.5 121.83 L211.37 120.44 Z " />
<glyph glyph-name="Zdotaccent" unicode="&#x17b;" horiz-adv-x="565" d="M283.16 689.65 C332.28 689.65 372.37 729.45 372.37 778.67 C372.37 827.19 332.28 866.99 283.16 866.99 C234.16 866.99 194.11 827.19 194.11 778.67 C194.11 729.45 234.44 689.65 283.16 689.65 L283.16 689.65 Z M225.59 133.1 L249.58 163.03 L515.47 526.07 L515.47 642 L44.74 642 L44.74 508.59 L333.56 508.83 L311.21 482.31 L35.65 115.28 L35.65 -3.05176e-05 L530.23 -3.05176e-05 L530.23 133.1 L225.59 133.1 Z " />
<glyph glyph-name="zdotaccent" unicode="&#x17c;" horiz-adv-x="478" d="M236.12 535.4 C285.53 535.4 325.86 575.51 325.86 625.04 C325.86 673.81 285.53 713.99 236.12 713.99 C186.82 713.99 146.48 673.81 146.48 625.04 C146.48 575.51 187.13 535.4 236.12 535.4 L236.12 535.4 Z M211.37 120.43 L436.48 347.31 L436.48 470 L43.49 470 L43.49 348.18 L266.3 348.18 L38.34 125.54 L38.34 0 L441.5 0 L441.5 121.82 L211.37 120.43 Z " />
<glyph glyph-name="Zcaron" unicode="&#x17d;" horiz-adv-x="565" d="M324.07 681.15 L453.94 776.64 L408.4 847.62 L280.71 784.24 L153.14 847.62 L107.6 776.64 L237.47 681.15 L324.07 681.15 Z M225.59 133.1 L249.58 163.03 L515.47 526.07 L515.47 642 L44.74 642 L44.74 508.59 L333.56 508.83 L311.21 482.31 L35.65 115.28 L35.65 -3.05176e-05 L530.23 -3.05176e-05 L530.23 133.1 L225.59 133.1 Z " />
<glyph glyph-name="zcaron" unicode="&#x17e;" horiz-adv-x="478" d="M277.81 522.37 L405.16 653.89 L343.79 720.18 L234.31 626.97 L124.89 720.18 L63.51 653.89 L190.87 522.37 L277.81 522.37 Z M211.37 120.43 L436.48 347.31 L436.48 470 L43.49 470 L43.49 348.18 L266.3 348.18 L38.34 125.54 L38.34 0 L441.5 0 L441.5 121.82 L211.37 120.43 Z " />
<glyph glyph-name="uni01EA" unicode="&#x1ea;" horiz-adv-x="725" d="M501.08 12.49 C614.99 62.95 688.34 176.87 688.34 322 C688.34 526.12 551.89 659.52 362.18 659.52 C172.43 659.52 35.99 521.29 35.99 322 C35.99 119.08 172.43 -15.83 362.18 -15.83 C364.46 -15.83 366.74 -15.81 369.01 -15.77 C343.14 -42.4 327.29 -74.28 327.29 -112.66 C327.29 -174.25 371.07 -210.7 441.03 -210.7 C491.93 -210.7 526.7 -190.6 546.92 -170.49 L500.11 -93.34 C491.11 -99.5 479.1 -106.89 463.68 -106.89 C448.62 -106.89 433.59 -98.17 433.59 -73.88 C433.59 -47.08 458.17 -14.95 501.08 12.49 L501.08 12.49 Z M197.13 322 C197.13 446.54 261.96 524.08 362.18 524.08 C462.36 524.08 527.2 446.54 527.2 322 C527.2 199.74 462.36 119.64 362.18 119.64 C261.96 119.64 197.13 199.74 197.13 322 L197.13 322 Z " />
<glyph glyph-name="uni01EB" unicode="&#x1eb;" horiz-adv-x="573" d="M400.04 7.10001 C485.81 45.08 540.77 127.77 540.77 236.69 C540.77 390.34 435.69 487.83 287.67 487.83 C140.37 487.83 32.37 388.27 32.37 236.69 C32.37 83.71 133.4 -11.44 276.16 -15.68 C250.24 -42.33 234.36 -74.24 234.36 -112.66 C234.36 -174.25 278.14 -210.7 348.1 -210.7 C398.99 -210.7 433.76 -190.6 453.99 -170.49 L407.17 -93.34 C398.17 -99.5 386.17 -106.89 370.75 -106.89 C355.69 -106.89 340.66 -98.17 340.66 -73.88 C340.66 -48.81 362.16 -19.09 400.04 7.10002 L400.04 7.10001 Z M181.93 236.69 C181.93 315.39 221.35 365.22 286.9 365.22 C352.28 365.22 391.21 315.67 391.21 236.63 C391.21 158.04 352.14 108.85 286.9 108.85 C221.42 108.85 181.93 158.45 181.93 236.69 L181.93 236.69 Z " />
<glyph glyph-name="AEacute" unicode="&#x1fc;" horiz-adv-x="900" d="M705.72 724.93 L664.77 854.23 L437.42 756.8 L463.6 676.76 L705.72 724.93 Z M585.48 132.65 L585.48 259.19 L819.33 259.19 L819.33 390.46 L585.48 390.46 L585.48 509.04 L848.81 509.04 L848.81 642 L362.55 642 L-6.42 1.52588e-05 L149.54 1.52588e-05 L231.03 140.36 L436.48 140.36 L436.48 1.52588e-05 L857.73 1.52588e-05 L857.73 132.65 L585.48 132.65 Z M303.31 264.87 L436.48 494.25 L436.48 264.87 L303.31 264.87 Z " />
<glyph glyph-name="aeacute" unicode="&#x1fd;" horiz-adv-x="817" d="M550.28 628.38 L474.78 737.29 L295.08 585.29 L345.08 515.21 L550.28 628.38 Z M784.46 270.49 C784.46 402.47 695.61 487.84 565.05 487.84 C506.25 487.84 453.92 469.13 413.03 436.35 C371.86 472.41 309.35 487.84 227.7 487.84 C150.11 487.84 87.15 468.79 49.8 450.38 L77.57 337.28 C111.43 351.16 159.58 364.54 214.29 364.54 C294.08 364.54 321.65 339.13 321.65 298.9 L321.52 280.87 L239.89 280.87 C107.69 282.46 26.43 230.55 26.43 132.01 C26.43 30.97 106.9 -15.82 191.17 -15.82 C269.14 -15.82 331.32 18.58 367.41 80.99 C412.88 18.02 488.86 -15.82 577.48 -15.82 C671.99 -15.82 732.23 11.29 773.08 40.4 L723.5 142.82 C688.96 121.78 648.94 103.72 593.5 103.72 C524.6 103.72 483.7 135.43 474.23 200.83 L779.94 200.83 C783.43 223.72 784.46 246.84 784.46 270.49 L784.46 270.49 Z M474.02 284.49 C481.19 338.16 511.8 374.44 565.74 374.44 C622.93 374.44 644.51 330.02 644.51 284.49 L474.02 284.49 Z M321.72 176.13 C319.86 123.87 285.69 87.99 232.25 87.99 C197.49 87.99 175.47 107.27 175.47 143.32 C175.47 175.97 197.98 199.43 253.29 199.59 L321.75 199.74 L321.72 176.13 Z " />
<glyph glyph-name="Oslashacute" unicode="&#x1fe;" horiz-adv-x="729" d="M508.39 724.93 L467.44 854.23 L240.09 756.8 L266.27 676.76 L508.39 724.93 Z M695.61 623.09 L633.19 681.13 L559.51 600.48 C506.22 638.53 439.35 659.52 364.11 659.52 C174.36 659.52 37.92 521.29 37.92 322 C37.92 235.26 62.85 160.95 106.21 104.29 L30.25 21.15 L93.53 -38.65 L168.52 43.77 C221.85 5.43002 288.78 -15.83 364.11 -15.83 C553.82 -15.83 690.27 124.05 690.27 322 C690.27 409.83 665.01 484.56 621.11 541.21 L695.61 623.09 Z M199.06 322 C199.06 446.54 263.89 524.08 364.11 524.08 C401.94 524.08 434.74 513.02 460.9 492.54 L215.81 224.26 C204.91 252.35 199.06 285.27 199.06 322 L199.06 322 Z M529.13 322 C529.13 199.74 464.29 119.64 364.11 119.64 C326.14 119.64 293.26 131.13 267.05 152.06 L512.1 421.39 C523.18 393.14 529.13 359.72 529.13 322 L529.13 322 Z " />
<glyph glyph-name="oslashacute" unicode="&#x1ff;" horiz-adv-x="574" d="M413.83 628.38 L338.33 737.29 L158.63 585.29 L208.65 515.21 L413.83 628.38 Z M484.81 404.01 L532.16 456.75 L481.26 503.65 L432.21 449.45 C392.21 474.33 343.07 487.84 287.98 487.84 C140.68 487.84 32.68 388.28 32.68 236.7 C32.68 168.3 52.87 111.46 87.97 69.14 L42.26 18.65 L93.16 -32.25 L142.06 22.22 C182.17 -2.52998 231.4 -15.82 286.48 -15.82 C434.47 -15.82 541.08 85 541.08 236.7 C541.08 304.64 520.53 361.6 484.81 404.01 L484.81 404.01 Z M182.24 236.7 C182.24 315.4 221.66 365.23 287.21 365.23 C308.53 365.23 327.03 359.96 342.29 350.12 L190 181.87 C184.9 197.97 182.24 216.36 182.24 236.7 L182.24 236.7 Z M287.21 108.86 C266.29 108.86 248.03 113.92 232.86 123.36 L383.94 291.65 C388.93 275.51 391.52 257.06 391.52 236.64 C391.52 158.05 352.45 108.86 287.21 108.86 L287.21 108.86 Z " />
<glyph glyph-name="Scommaaccent" unicode="&#x218;" horiz-adv-x="544" d="M268.58 -15.83 C416.1 -15.83 509.61 60.48 509.61 183.31 C509.61 314.46 417.35 358.53 331.45 385.53 C257.7 409.05 188.61 420.77 188.61 468.88 C188.61 500.68 218.41 522.42 273.67 522.42 C342.39 522.42 396.9 498.24 432.3 470.8 L501.02 591.69 C464.31 623.1 392.09 659.52 283.69 659.52 C135.65 659.52 43.69 580.55 43.69 469.61 C43.69 333.16 142.63 291.85 230.49 262.16 C301.15 238.22 365.31 224.04 365.31 179.17 C365.31 143.09 335.65 121.27 271.47 121.27 C209.42 121.27 156.77 139.09 103.98 183.2 L25.3 69.55 C76.08 20.55 154.48 -15.82 268.58 -15.82 L268.58 -15.83 Z M275.94 -40.34 C229.69 -40.31 190.4 -79.29 190.4 -126.29 C190.4 -167.36 220.86 -202.95 259.72 -210.78 C256.39 -240.44 242.46 -262.67 224.04 -284.69 L270.46 -317.22 C317.19 -275.54 362.15 -211.13 362.15 -126.29 C362.15 -79.29 323.51 -40.37 275.94 -40.34 L275.94 -40.34 Z " />
<glyph glyph-name="scommaaccent" unicode="&#x219;" horiz-adv-x="475" d="M257.63 487.83 C129.02 487.83 39.74 433.98 39.74 334.96 C39.74 227.85 122.37 203.06 192.92 185.37 C259.56 168.64 292.45 161.43 292.45 133.94 C292.45 110.32 274.7 95.88 237.02 95.88 C166.07 95.88 110.69 118.81 72.93 142.81 L25.06 40.39 C59.88 12.87 132.18 -15.83 231.09 -15.83 C367.06 -15.83 441.45 42.65 441.45 141.53 C441.45 249.54 359.91 276.49 278.46 293.49 C211.14 307.6 181.58 313.35 181.58 340.4 C181.58 362.97 204.77 374.74 254.11 374.74 C309.47 374.74 369.58 356.17 402.58 338.13 L429.87 450.4 C393.99 466.53 334.15 487.83 257.62 487.83 L257.63 487.83 Z M242.35 -40.35 C196.1 -40.32 156.81 -79.3 156.81 -126.3 C156.81 -167.37 187.27 -202.96 226.13 -210.79 C222.8 -240.45 208.87 -262.68 190.45 -284.7 L236.86 -317.23 C283.6 -275.55 328.56 -211.14 328.56 -126.3 C328.56 -79.3 289.91 -40.38 242.35 -40.35 L242.35 -40.35 Z " />
<glyph glyph-name="uni021A" unicode="&#x21a;" horiz-adv-x="546" d="M23.41 642 L23.41 509.35 L198.41 509.35 L198.41 0 L347.68 0 L347.68 509.35 L522.38 509.35 L522.38 642 L23.41 642 Z M270.15 -40.35 C223.89 -40.32 184.6 -79.3 184.6 -126.3 C184.6 -167.37 215.07 -202.96 253.93 -210.79 C250.6 -240.45 236.67 -262.68 218.24 -284.7 L264.66 -317.23 C311.4 -275.55 356.35 -211.14 356.35 -126.3 C356.35 -79.3 317.71 -40.38 270.15 -40.35 L270.15 -40.35 Z " />
<glyph glyph-name="uni021B" unicode="&#x21b;" horiz-adv-x="441" d="M438.71 31.49 L380.38 135.88 C362.39 120.62 342.99 109.68 312.8 109.68 C271.53 109.68 248.17 127.68 248.17 181.63 L248.17 343.59 L403.45 343.59 L403.45 465.86 L248.17 465.86 L248.17 591.93 L98.89 573.42 L98.89 465.86 L20.41 465.86 L20.41 343.59 L98.89 343.59 L98.89 159.79 C98.89 36.45 176.63 -15.83 286.17 -15.83 C355.17 -15.83 401.79 -0.689972 438.71 31.49 L438.71 31.49 Z M263.51 -40.35 C217.26 -40.32 177.97 -79.3 177.97 -126.3 C177.97 -167.37 208.43 -202.96 247.29 -210.79 C243.96 -240.45 230.03 -262.68 211.61 -284.7 L258.02 -317.23 C304.76 -275.55 349.72 -211.14 349.72 -126.3 C349.72 -79.3 311.07 -40.38 263.51 -40.35 L263.51 -40.35 Z " />
<glyph glyph-name="uni0237" unicode="&#x237;" horiz-adv-x="286" d="M232.47 471.38 L29.99 471.38 L29.99 340.86 L83.16 340.86 L83.75 -9.77 C83.75 -56.35 59.42 -76.77 23.46 -76.77 C2.84 -76.77 -15.02 -69.01 -31.78 -57.36 L-89.7 -162.75 C-53.1 -190.41 -5.46999 -200.9 40.97 -200.9 C167.08 -200.9 232.47 -129.58 232.47 -4.92001 L232.47 471.38 Z " />
<glyph glyph-name="circumflex" unicode="&#x2c6;" horiz-adv-x="406" d="M244.91 718.56 L157.97 718.56 L30.62 587.04 L91.99 520.75 L201.41 613.97 L310.9 520.75 L372.27 587.04 L244.91 718.56 Z " />
<glyph glyph-name="caron" unicode="&#x2c7;" horiz-adv-x="402" d="M157.97 522.37 L244.91 522.37 L372.27 653.89 L310.9 720.18 L201.41 626.97 L91.99 720.18 L30.62 653.89 L157.97 522.37 Z " />
<glyph glyph-name="breve" unicode="&#x2d8;" horiz-adv-x="425" d="M214.05 527.93 C328.51 527.93 386.84 612.11 390.01 689.42 L289.03 701.29 C279.51 653.49 253.95 631.02 214.64 631.02 C175.24 631.02 149.44 653.18 139.08 701.29 L38 689.42 C41.17 610.87 99.5 527.93 214.05 527.93 L214.05 527.93 Z " />
<glyph glyph-name="dotaccent" unicode="&#x2d9;" horiz-adv-x="287" d="M232.2 625.04 C232.2 673.81 191.87 713.99 142.46 713.99 C93.16 713.99 52.83 673.81 52.83 625.04 C52.83 575.51 93.47 535.4 142.46 535.4 C191.87 535.4 232.2 575.51 232.2 625.04 L232.2 625.04 Z " />
<glyph glyph-name="ring" unicode="&#x2da;" horiz-adv-x="292" d="M264.8 627.22 C264.8 693.36 211.98 747.57 145.43 747.57 C77.68 747.57 24.86 693.36 24.86 627.22 C24.86 561.28 77.68 507.07 145.43 507.07 C211.98 507.07 264.8 561.28 264.8 627.22 L264.8 627.22 Z M144.95 585.25 C120.84 585.25 104.84 605.01 104.84 627.08 C104.84 650.08 120.84 669.84 144.95 669.84 C170.1 669.84 185.1 650.08 185.1 627.08 C185.1 605.01 170.1 585.25 144.95 585.25 L144.95 585.25 Z " />
<glyph glyph-name="ogonek" unicode="&#x2db;" horiz-adv-x="292" d="M116.35 -210.7 C167.24 -210.7 202.01 -190.6 222.24 -170.49 L175.42 -93.34 C166.42 -99.5 154.42 -106.89 139 -106.89 C123.94 -106.89 108.9 -98.17 108.9 -73.88 C108.9 -40.62 146.75 0.829987 210.51 31.37 L108.66 31.37 C47.1 -2.28001 2.61 -48.35 2.61 -112.66 C2.61 -174.25 46.39 -210.7 116.35 -210.7 L116.35 -210.7 Z " />
<glyph glyph-name="tilde" unicode="&#x2dc;" horiz-adv-x="452" d="M126.33 548.05 C133.25 572.76 148.63 589.07 170.21 589.07 C203.18 589.07 236.04 553.69 290.75 553.69 C351.6 553.69 403.1 596.25 417.85 669.72 L320.7 705.17 C313.78 682.32 298.4 667.61 277.16 667.61 C244.17 667.61 209.76 703.99 155.87 703.99 C94.67 703.99 43.79 659.74 29.18 583.5 L126.33 548.05 Z " />
<glyph glyph-name="hungarumlaut" unicode="&#x2dd;" horiz-adv-x="397" d="M84.16 516.36 L221.22 667.87 L128.56 742.73 L16.15 567.66 L84.16 516.36 Z M261.73 516.36 L398.79 667.87 L306.13 742.73 L193.72 567.66 L261.73 516.36 Z " />
<glyph glyph-name="gravecomb" unicode="&#x300;" d="M-74.95 515.2 L-24.93 585.28 L-204.64 737.28 L-280.14 628.37 L-74.95 515.2 Z " />
<glyph glyph-name="acutecomb" unicode="&#x301;" d="M-226.22 515.2 L-21.03 628.38 L-96.53 737.29 L-276.24 585.29 L-226.22 515.2 Z " />
<glyph glyph-name="uni0302" unicode="&#x302;" d="M-162.12 718.56 L-249.06 718.56 L-376.41 587.04 L-315.04 520.75 L-205.62 613.97 L-96.14 520.75 L-34.76 587.04 L-162.12 718.56 Z " />
<glyph glyph-name="tildecomb" unicode="&#x303;" d="M-319.25 548.05 C-312.33 572.76 -296.95 589.07 -275.37 589.07 C-242.4 589.07 -209.54 553.69 -154.83 553.69 C-93.98 553.69 -42.48 596.25 -27.73 669.72 L-124.88 705.17 C-131.79 682.32 -147.18 667.61 -168.41 667.61 C-201.41 667.61 -235.82 703.99 -289.71 703.99 C-350.91 703.99 -401.79 659.74 -416.39 583.5 L-319.25 548.05 Z " />
<glyph glyph-name="uni0304" unicode="&#x304;" d="M-342.78 569.38 L-34.55 569.38 L-34.55 681.23 L-342.78 681.23 L-342.78 569.38 Z " />
<glyph glyph-name="uni0306" unicode="&#x306;" d="M-207.96 527.93 C-93.5 527.93 -35.18 612.11 -32 689.42 L-132.99 701.29 C-142.51 653.49 -168.07 631.02 -207.37 631.02 C-246.77 631.02 -272.58 653.18 -282.94 701.29 L-384.02 689.42 C-380.84 610.87 -322.51 527.93 -207.96 527.93 L-207.96 527.93 Z " />
<glyph glyph-name="uni0307" unicode="&#x307;" d="M-52.42 625.04 C-52.42 673.81 -92.75 713.99 -142.16 713.99 C-191.46 713.99 -231.79 673.81 -231.79 625.04 C-231.79 575.51 -191.15 535.4 -142.16 535.4 C-92.75 535.4 -52.42 575.51 -52.42 625.04 L-52.42 625.04 Z " />
<glyph glyph-name="uni0308" unicode="&#x308;" d="M-249.37 617.31 C-249.37 658.6 -283.17 692.28 -324.83 692.28 C-366.83 692.28 -400.56 658.6 -400.56 617.31 C-400.56 574.98 -366.52 541.37 -324.82 541.37 C-283.16 541.37 -249.36 574.98 -249.36 617.31 L-249.37 617.31 Z M-26.54 617.31 C-26.54 658.6 -60.68 692.28 -102.28 692.28 C-143.94 692.28 -177.8 658.6 -177.8 617.31 C-177.8 574.98 -143.66 541.37 -102.28 541.37 C-60.68 541.37 -26.54 574.98 -26.54 617.31 L-26.54 617.31 Z " />
<glyph glyph-name="uni030A" unicode="&#x30a;" d="M-18.24 627.22 C-18.24 693.36 -71.06 747.57 -137.61 747.57 C-205.37 747.57 -258.18 693.36 -258.18 627.22 C-258.18 561.28 -205.37 507.07 -137.61 507.07 C-71.06 507.07 -18.24 561.28 -18.24 627.22 L-18.24 627.22 Z M-138.09 585.25 C-162.2 585.25 -178.2 605.01 -178.2 627.08 C-178.2 650.08 -162.2 669.84 -138.09 669.84 C-112.94 669.84 -97.95 650.08 -97.95 627.08 C-97.95 605.01 -112.94 585.25 -138.09 585.25 L-138.09 585.25 Z " />
<glyph glyph-name="uni030B" unicode="&#x30b;" d="M-334.23 516.36 L-197.17 667.87 L-289.84 742.73 L-402.24 567.66 L-334.23 516.36 Z M-156.66 516.36 L-19.6 667.87 L-112.27 742.73 L-224.67 567.66 L-156.66 516.36 Z " />
<glyph glyph-name="uni030C" unicode="&#x30c;" d="M-248.41 522.37 L-161.47 522.37 L-34.11 653.89 L-95.49 720.18 L-204.97 626.97 L-314.39 720.18 L-375.76 653.89 L-248.41 522.37 Z " />
<glyph glyph-name="uni0326" unicode="&#x326;" d="M-134.6 -40.35 C-180.85 -40.32 -220.14 -79.3 -220.14 -126.3 C-220.14 -167.37 -189.68 -202.96 -150.82 -210.79 C-154.15 -240.45 -168.08 -262.68 -186.5 -284.7 L-140.08 -317.23 C-93.35 -275.55 -48.39 -211.14 -48.39 -126.3 C-48.39 -79.3 -87.03 -40.38 -134.6 -40.35 L-134.6 -40.35 Z " />
<glyph glyph-name="uni0327" unicode="&#x327;" d="M-184.68 11 L-216.46 -74.62 C-179.74 -75.62 -152.89 -82.62 -152.89 -108.62 C-152.89 -128.41 -169.2 -137.31 -189.32 -137.31 C-206.69 -137.31 -221.23 -132.44 -234.61 -123.62 L-265.11 -193.01 C-247.4 -207.81 -204.72 -219.67 -165.87 -219.67 C-106.81 -219.67 -37.04 -196.81 -37.04 -118.27 C-37.04 -64 -80.08 -38.92 -120.86 -36.62 L-103.83 11 L-184.68 11 Z " />
<glyph glyph-name="uni0328" unicode="&#x328;" d="M-174.08 -210.7 C-123.18 -210.7 -88.41 -190.6 -68.18 -170.49 L-115 -93.34 C-124 -99.5 -136.01 -106.89 -151.43 -106.89 C-166.49 -106.89 -181.52 -98.17 -181.52 -73.88 C-181.52 -40.62 -143.67 0.829987 -79.91 31.37 L-181.76 31.37 C-243.32 -2.28001 -287.82 -48.35 -287.82 -112.66 C-287.82 -174.25 -244.04 -210.7 -174.08 -210.7 L-174.08 -210.7 Z " />
<glyph glyph-name="uni0335" unicode="&#x335;" d="M-345.06 448.73 L-40.21 448.73 L-40.21 536.5 L-345.06 536.5 L-345.06 448.73 Z " />
<glyph glyph-name="uni0336" unicode="&#x336;" d="M-722.11 426.51 L-33.31 426.51 L-33.31 519.18 L-722.11 519.18 L-722.11 426.51 Z " />
<glyph glyph-name="uni0337" unicode="&#x337;" d="M-308.84 250.48 L-22.53 399.94 L-63.6 482.41 L-350.12 332.46 L-308.84 250.48 Z " />
<glyph glyph-name="uni0338" unicode="&#x338;" d="M-503.42 -33.9 L-64.42 455.1 L-115.32 502 L-554.32 17 L-503.42 -33.9 Z " />
<glyph glyph-name="Wgrave" unicode="&#x1e80;" horiz-adv-x="932" d="M592.64 751.97 L365.29 849.4 L325.03 722.17 L567.16 674 L592.64 751.97 Z M765.66 642 L672.67 225.02 L660.67 170.35 L648.23 225.08 L546.44 599.18 L393.92 599.18 L292.21 225.02 L282.27 176.6 L271.39 225.08 L178.67 642 L11.85 642 L191 0 L355.88 0 L455.72 345.66 L468.14 403.44 L480.53 346.55 L578.2 0 L738.43 0 L921.05 642 L765.66 642 Z " />
<glyph glyph-name="wgrave" unicode="&#x1e81;" horiz-adv-x="770" d="M505 585.28 L325.3 737.28 L249.8 628.37 L454.98 515.19 L505 585.28 Z M596.31 471.37 L525.31 122.14 L447.48 471.37 L324.78 471.37 L248.19 124.01 L176.79 471.37 L12.06 471.37 L156.8 -0.0100098 L320.8 -0.0100098 L386.33 296.17 L449.68 -0.0100098 L613.81 -0.0100098 L756.66 471.37 L596.31 471.37 Z " />
<glyph glyph-name="Wacute" unicode="&#x1e82;" horiz-adv-x="932" d="M607.17 722.17 L566.21 851.47 L338.87 754.04 L365.04 674 L607.17 722.17 Z M765.66 642 L672.67 225.02 L660.67 170.35 L648.23 225.08 L546.44 599.18 L393.92 599.18 L292.21 225.02 L282.27 176.6 L271.39 225.08 L178.67 642 L11.85 642 L191 1.52588e-05 L355.88 1.52588e-05 L455.72 345.66 L468.14 403.44 L480.53 346.55 L578.2 1.52588e-05 L738.43 1.52588e-05 L921.05 642 L765.66 642 Z " />
<glyph glyph-name="wacute" unicode="&#x1e83;" horiz-adv-x="770" d="M508.72 628.38 L433.21 737.29 L253.51 585.29 L303.53 515.21 L508.72 628.38 Z M596.31 471.39 L525.31 122.16 L447.48 471.39 L324.78 471.39 L248.19 124.03 L176.79 471.39 L12.06 471.39 L156.8 0.00999451 L320.8 0.00999451 L386.33 296.19 L449.68 0.00999451 L613.81 0.00999451 L756.66 471.39 L596.31 471.39 Z " />
<glyph glyph-name="Wdieresis" unicode="&#x1e84;" horiz-adv-x="932" d="M352.32 692.72 C394.35 692.72 428.31 726.18 428.31 768.25 C428.31 809.33 394.63 842.85 352.32 842.85 C310.56 842.85 276.95 809.33 276.95 768.25 C276.95 726.18 310.84 692.72 352.32 692.72 L352.32 692.72 Z M584.14 692.72 C626.1 692.72 660.06 726.18 660.06 768.25 C660.06 809.33 626.38 842.85 584.14 842.85 C542.38 842.85 508.7 809.33 508.7 768.25 C508.7 726.18 542.66 692.72 584.14 692.72 L584.14 692.72 Z M765.66 642 L672.67 225.02 L660.67 170.35 L648.23 225.08 L546.44 599.18 L393.92 599.18 L292.21 225.02 L282.27 176.6 L271.39 225.08 L178.67 642 L11.85 642 L191 0 L355.88 0 L455.72 345.66 L468.14 403.44 L480.53 346.55 L578.2 0 L738.43 0 L921.05 642 L765.66 642 Z " />
<glyph glyph-name="wdieresis" unicode="&#x1e85;" horiz-adv-x="770" d="M270.8 541.37 C312.46 541.37 346.26 574.98 346.26 617.31 C346.26 658.6 312.46 692.28 270.8 692.28 C228.8 692.28 195.07 658.6 195.07 617.31 C195.07 574.98 229.11 541.37 270.81 541.37 L270.8 541.37 Z M493.36 541.37 C534.95 541.37 569.09 574.98 569.09 617.31 C569.09 658.6 534.95 692.28 493.36 692.28 C451.69 692.28 417.83 658.6 417.83 617.31 C417.83 574.98 451.97 541.37 493.36 541.37 L493.36 541.37 Z M596.32 471.38 L525.32 122.15 L447.49 471.38 L324.79 471.38 L248.2 124.02 L176.8 471.38 L12.07 471.38 L156.81 -1.52588e-05 L320.81 -1.52588e-05 L386.34 296.18 L449.69 -1.52588e-05 L613.82 -1.52588e-05 L756.67 471.38 L596.32 471.38 Z " />
<glyph glyph-name="uni1E9E" unicode="&#x1e9e;" horiz-adv-x="678" d="M464.05 372.55 L572.99 505.24 L572.79 642 L331.38 642 C148.61 642 63.12 537.5 63.12 382.39 L63.12 0 L212.4 0 L212.4 378.94 C212.4 462.07 255.35 505.24 329.83 505.24 L414.51 505.24 L323.01 380.33 L323.01 260.21 L364.31 260.21 C448.21 260.21 495.93 231.76 495.93 181.28 C495.93 144.67 472.88 119.2 424.3 119.2 C394.2 119.2 357.47 129.87 326.63 152.23 L249.8 38.35 C292.54 2.72 353.85 -15.83 425.13 -15.83 C558.8 -15.83 646.1 58.69 646.1 179.49 C646.1 309.3 547.53 357.17 464.05 372.55 L464.05 372.55 Z " />
<glyph glyph-name="Ygrave" unicode="&#x1ef2;" horiz-adv-x="622" d="M439.23 754.73 L211.89 852.16 L171.62 724.93 L413.75 676.76 L439.23 754.73 Z M613.2 642 L449.26 642 L338.17 430.48 L315.87 384.92 L294.97 430.14 L183.39 642 L5.3 642 L237.35 237.71 L237.35 0 L386.63 0 L386.63 238.48 L613.2 642 Z " />
<glyph glyph-name="ygrave" unicode="&#x1ef3;" horiz-adv-x="526" d="M395.13 585.28 L215.42 737.28 L139.92 628.37 L345.11 515.19 L395.13 585.28 Z M513.33 471.37 L352.05 471.37 L265.97 116.43 L178.78 471.37 L12.44 471.37 L173.6 -0.0100098 L213.58 -0.0100098 L202.59 -26.16 C184.07 -76.78 144 -80.46 103.47 -80.46 L103.47 -201.01 C205.06 -201.01 288.27 -189.78 334.79 -55.55 L354.75 -0.0100098 L354.62 -0.0100098 L513.33 471.37 Z " />
<glyph glyph-name="uni1EF8" unicode="&#x1ef8;" horiz-adv-x="622" d="M258.76 730.62 C298.76 730.62 327.96 691.03 387.98 691.03 C446.01 691.03 500.89 725.59 518.95 797.2 L418.56 837.28 C410.67 815.05 395.84 801.3 371.71 801.3 C334.92 801.3 299.82 842.09 242.06 842.09 C181.76 842.09 127.78 804.74 109.58 729.06 L210.11 689.95 C217.92 713.49 233.65 730.62 258.75 730.62 L258.76 730.62 Z M613.19 642 L449.25 642 L338.16 430.48 L315.86 384.92 L294.96 430.14 L183.38 642 L5.29001 642 L237.34 237.71 L237.34 0 L386.62 0 L386.62 238.48 L613.19 642 Z " />
<glyph glyph-name="uni1EF9" unicode="&#x1ef9;" horiz-adv-x="526" d="M219.32 589.07 C252.28 589.07 285.14 553.69 339.85 553.69 C400.7 553.69 452.2 596.25 466.95 669.72 L369.8 705.17 C362.89 682.32 347.5 667.61 326.27 667.61 C293.27 667.61 258.86 703.99 204.97 703.99 C143.77 703.99 92.9 659.74 78.29 583.5 L175.43 548.05 C182.35 572.76 197.73 589.07 219.32 589.07 L219.32 589.07 Z M513.33 471.38 L352.05 471.38 L265.97 116.44 L178.78 471.38 L12.44 471.38 L173.6 -1.52588e-05 L213.58 -1.52588e-05 L202.59 -26.15 C184.07 -76.77 144 -80.45 103.47 -80.45 L103.47 -201 C205.06 -201 288.27 -189.77 334.79 -55.54 L354.75 -1.52588e-05 L354.62 -1.52588e-05 L513.33 471.38 Z " />
<glyph glyph-name="endash" unicode="&#x2013;" horiz-adv-x="550" d="M55.06 202.44 L495.06 202.44 L495.06 300.49 L55.06 300.49 L55.06 202.44 Z " />
<glyph glyph-name="emdash" unicode="&#x2014;" horiz-adv-x="1051" d="M55.75 201.06 L994.96 201.06 L994.96 301.87 L55.75 301.87 L55.75 201.06 Z " />
<glyph glyph-name="quoteleft" unicode="&#x2018;" horiz-adv-x="246" d="M125.21 388.16 C174.09 388.16 215.63 429.48 215.63 479.26 C215.63 523.6 183.01 561.9 140.26 569.34 C144.79 613.8 161.9 641.99 183.66 672.46 L134.95 710.81 C87.26 664.61 34.16 588.59 34.16 484.1 C34.16 426.88 75 388.16 125.21 388.16 L125.21 388.16 Z " />
<glyph glyph-name="quoteright" unicode="&#x2019;" horiz-adv-x="242" d="M121.05 711.31 C72.18 711.31 30.64 669.99 30.64 620.21 C30.64 575.87 63.26 537.57 106.01 530.13 C101.47 485.67 84.36 457.48 62.6 427 L111.32 388.66 C159.01 434.86 212.11 510.88 212.11 615.37 C212.11 672.59 171.26 711.31 121.05 711.31 L121.05 711.31 Z " />
<glyph glyph-name="quotesinglbase" unicode="&#x201a;" horiz-adv-x="261" d="M128.43 166.67 C79.56 166.67 38.02 125.35 38.02 75.57 C38.02 31.23 70.64 -7.07001 113.39 -14.51 C108.85 -58.97 91.74 -87.17 69.98 -117.64 L118.7 -155.98 C166.39 -109.78 219.49 -33.76 219.49 70.73 C219.49 127.94 178.64 166.67 128.43 166.67 L128.43 166.67 Z " />
<glyph glyph-name="quotedblleft" unicode="&#x201c;" horiz-adv-x="462" d="M125.21 388.16 C174.09 388.16 215.63 429.48 215.63 479.26 C215.63 523.6 183.01 561.9 140.26 569.34 C144.79 613.8 161.9 641.99 183.66 672.46 L134.95 710.81 C87.26 664.61 34.16 588.59 34.16 484.1 C34.16 426.88 75 388.16 125.21 388.16 L125.21 388.16 Z M340.2 388.16 C389.08 388.16 430.62 429.48 430.62 479.26 C430.62 523.6 398 561.9 355.25 569.34 C359.78 613.8 376.9 641.99 398.66 672.46 L349.94 710.81 C302.25 664.61 249.15 588.59 249.15 484.1 C249.15 426.88 290 388.16 340.2 388.16 L340.2 388.16 Z " />
<glyph glyph-name="quotedblright" unicode="&#x201d;" horiz-adv-x="457" d="M121.05 711.31 C72.18 711.31 30.64 669.99 30.64 620.21 C30.64 575.87 63.26 537.57 106.01 530.13 C101.47 485.67 84.36 457.48 62.6 427 L111.32 388.66 C159.01 434.86 212.11 510.88 212.11 615.37 C212.11 672.59 171.26 711.31 121.05 711.31 L121.05 711.31 Z M336.12 711.31 C287.24 711.31 245.7 669.99 245.7 620.21 C245.7 575.87 278.32 537.57 321.07 530.13 C316.54 485.67 299.42 457.48 277.67 427 L326.38 388.66 C374.07 434.86 427.17 510.88 427.17 615.37 C427.17 672.59 386.32 711.31 336.12 711.31 L336.12 711.31 Z " />
<glyph glyph-name="quotedblbase" unicode="&#x201e;" horiz-adv-x="476" d="M128.43 166.67 C79.56 166.67 38.02 125.35 38.02 75.57 C38.02 31.23 70.64 -7.07001 113.39 -14.51 C108.85 -58.97 91.74 -87.17 69.98 -117.64 L118.7 -155.98 C166.39 -109.78 219.49 -33.76 219.49 70.73 C219.49 127.94 178.64 166.67 128.43 166.67 L128.43 166.67 Z M343.5 166.67 C294.62 166.67 253.08 125.35 253.08 75.57 C253.08 31.23 285.7 -7.07001 328.45 -14.51 C323.92 -58.97 306.8 -87.17 285.05 -117.64 L333.76 -155.98 C381.45 -109.78 434.55 -33.76 434.55 70.73 C434.55 127.94 393.7 166.67 343.5 166.67 L343.5 166.67 Z " />
<glyph glyph-name="dagger" unicode="&#x2020;" horiz-adv-x="533" d="M481.16 508.9 L329.09 508.9 L329.09 642 L200.2 642 L200.2 508.9 L51.82 508.9 L51.82 373.7 L200.2 373.7 L200.2 -0.350006 L329.09 -0.350006 L329.09 373.7 L481.16 373.7 L481.16 508.9 Z " />
<glyph glyph-name="daggerdbl" unicode="&#x2021;" horiz-adv-x="533" d="M481.16 397.85 L481.16 533.05 L327.02 533.05 L327.02 642 L198.13 642 L198.13 533.05 L51.82 533.05 L51.82 397.85 L198.13 397.85 L198.13 241.39 L51.82 241.39 L51.82 106.19 L198.13 106.19 L198.13 -0.349991 L327.02 -0.349991 L327.02 106.19 L481.16 106.19 L481.16 241.39 L327.02 241.39 L327.02 397.85 L481.16 397.85 Z " />
<glyph glyph-name="bullet" unicode="&#x2022;" horiz-adv-x="379" d="M314.55 270.96 C314.55 340.31 258.45 396.35 189.55 396.35 C120.27 396.35 64.16 340.31 64.16 270.96 C64.16 201.99 120.27 145.89 189.55 145.89 C258.45 145.89 314.55 201.99 314.55 270.96 L314.55 270.96 Z " />
<glyph glyph-name="ellipsis" unicode="&#x2026;" horiz-adv-x="745" d="M224.87 76.84 C224.87 128.4 182.57 171.2 130.57 171.2 C79.95 171.2 36.93 128.4 36.93 76.84 C36.93 25.59 79.95 -17.9 130.57 -17.9 C182.57 -17.9 224.87 25.59 224.87 76.84 L224.87 76.84 Z M466.27 76.84 C466.27 128.4 423.97 171.2 371.97 171.2 C321.35 171.2 278.33 128.4 278.33 76.84 C278.33 25.59 321.35 -17.9 371.97 -17.9 C423.97 -17.9 466.27 25.59 466.27 76.84 L466.27 76.84 Z M707.67 76.84 C707.67 128.4 665.37 171.2 613.37 171.2 C562.75 171.2 519.73 128.4 519.73 76.84 C519.73 25.59 562.75 -17.9 613.37 -17.9 C665.37 -17.9 707.67 25.59 707.67 76.84 L707.67 76.84 Z " />
<glyph glyph-name="perthousand" unicode="&#x2030;" horiz-adv-x="1132" d="M120.19 -12.42 L225.17 -12.42 L662.15 655.8 L557.17 655.8 L120.19 -12.42 Z M191.21 342 C290.97 342 348.01 406.72 348.01 496.14 C348.01 585.21 290.97 649.59 191.21 649.59 C90.38 649.59 33.41 585.21 33.41 496.14 C33.41 406.72 90.38 342 191.21 342 L191.21 342 Z M191.21 422.39 C146.73 422.39 127.01 453.21 127.01 496.14 C127.01 538.27 146.73 569.89 191.21 569.89 C234.69 569.89 254.41 538.27 254.41 496.14 C254.41 453.21 234.69 422.39 191.21 422.39 L191.21 422.39 Z M583.91 -18.49 C683.74 -18.49 740.71 46.24 740.71 135.65 C740.71 224.65 683.74 289.1 583.91 289.1 C483.07 289.1 426.11 224.65 426.11 135.65 C426.11 46.24 483.07 -18.49 583.91 -18.49 L583.91 -18.49 Z M943.51 -18.49 C1043.34 -18.49 1100.31 46.24 1100.31 135.65 C1100.31 224.65 1043.34 289.1 943.51 289.1 C842.67 289.1 785.71 224.65 785.71 135.65 C785.71 46.24 842.67 -18.49 943.51 -18.49 L943.51 -18.49 Z M583.91 61.9 C539.43 61.9 519.71 92.66 519.71 135.65 C519.71 177.79 539.43 209.4 583.91 209.4 C627.69 209.4 647.11 177.79 647.11 135.65 C647.11 92.66 627.69 61.9 583.91 61.9 L583.91 61.9 Z M943.51 61.9 C899.03 61.9 879.31 92.66 879.31 135.65 C879.31 177.79 899.03 209.4 943.51 209.4 C987.29 209.4 1006.71 177.79 1006.71 135.65 C1006.71 92.66 987.29 61.9 943.51 61.9 L943.51 61.9 Z " />
<glyph glyph-name="guilsinglleft" unicode="&#x2039;" horiz-adv-x="305" d="M31.82 253.41 L187 74.88 L260.6 133.48 L159.39 253.41 L260.6 373.34 L187 431.94 L31.82 253.41 Z " />
<glyph glyph-name="guilsinglright" unicode="&#x203a;" horiz-adv-x="305" d="M272.7 253.41 L117.52 431.94 L43.92 373.34 L145.12 253.41 L43.92 133.48 L117.52 74.88 L272.7 253.41 Z " />
<glyph glyph-name="fraction" unicode="&#x2044;" horiz-adv-x="544" d="M1.7 -12.42 L106.68 -12.42 L543.66 655.8 L438.68 655.8 L1.7 -12.42 Z " />
<glyph glyph-name="Euro" unicode="&#x20ac;" horiz-adv-x="650" d="M535.43 164.61 C508.29 140.98 475.13 124.03 416.4 124.03 C351.71 124.03 302.85 161.15 278.9 224.34 L429.42 224.34 L429.42 294.24 L263.73 294.24 C262.94 303.54 262.54 313.16 262.54 323.07 C262.54 332.72 262.9 342.06 263.62 351.06 L429.42 351.06 L429.42 420.96 L278.58 420.96 C302.5 483.37 352.11 517.59 420.21 517.59 C463.72 517.59 496.62 504.94 527.9 480.25 L605.27 602.59 C561.54 634.48 496.74 659.52 412.55 659.52 C259.33 659.52 146.85 565.57 112.3 420.96 L39.58 420.96 L39.58 351.06 L102.05 351.06 C101.48 341.87 101.2 332.54 101.2 323.07 C101.2 313.31 101.47 303.7 102.02 294.24 L39.58 294.24 L39.58 224.34 L111.57 224.34 C143.85 79.05 249.87 -15.83 406.62 -15.83 C514.65 -15.83 578.14 15.68 615.82 45.34 L535.43 164.61 Z " />
<glyph glyph-name="trademark" unicode="&#x2122;" horiz-adv-x="816" d="M35.75 565.12 L128.73 565.12 L128.73 300.86 L234.29 300.86 L234.29 565.12 L327.33 565.12 L327.33 659.55 L35.75 659.55 L35.75 565.12 Z M639.43 659.55 L562.92 474.33 L557.06 452.87 L550.58 474.33 L466.32 659.55 L355.34 659.55 L355.34 300.86 L453.3 300.86 L453.3 436.17 L448.45 478.09 L465.75 437.23 L516.49 329.99 L592.43 329.99 L638.99 437.2 L657.3 483.16 L651.85 436.17 L651.85 300.86 L749.44 300.86 L749.44 659.55 L639.43 659.55 Z " />
<glyph glyph-name="arrowleft" unicode="&#x2190;" horiz-adv-x="1200" d="M1000 750 L200 750 C145 750 100 705 100 650 L100 -150 C100 -205 145 -250 200 -250 L1000 -250 C1055 -250 1100 -205 1100 -150 L1100 650 C1100 705 1055 750 1000 750 L1000 750 Z M907.61 623.54 C955.63 623.54 973.54 605.63 973.54 557.61 L973.54 -57.62 C973.54 -105.62 955.63 -123.54 907.61 -123.54 L292.38 -123.54 C244.38 -123.54 226.46 -105.62 226.46 -57.62 L226.46 557.61 C226.46 605.63 244.38 623.54 292.38 623.54 L907.61 623.54 Z M572.99 533 L644.99 466 L468.99 300 L913.99 300 L913.99 200 L468.99 200 L644.99 34 L572.99 -33 L288.99 250 L572.99 533 Z " />
<glyph glyph-name="arrowup" unicode="&#x2191;" horiz-adv-x="1200" d="M1000 750 L200 750 C145 750 100 705 100 650 L100 -150 C100 -205 145 -250 200 -250 L1000 -250 C1055 -250 1100 -205 1100 -150 L1100 650 C1100 705 1055 750 1000 750 L1000 750 Z M907.61 623.54 C955.63 623.54 973.54 605.63 973.54 557.61 L973.54 -57.62 C973.54 -105.62 955.63 -123.54 907.61 -123.54 L292.38 -123.54 C244.38 -123.54 226.46 -105.62 226.46 -57.62 L226.46 557.61 C226.46 605.63 244.38 623.54 292.38 623.54 L907.61 623.54 Z M883.31 279 L600.31 563 L317.31 279 L384.31 207 L550.31 383 L550.31 -63 L650.31 -63 L650.31 383 L816.31 207 L883.31 279 Z " />
<glyph glyph-name="arrowright" unicode="&#x2192;" horiz-adv-x="1200" d="M1000 750 L200 750 C145 750 100 705 100 650 L100 -150 C100 -205 145 -250 200 -250 L1000 -250 C1055 -250 1100 -205 1100 -150 L1100 650 C1100 705 1055 750 1000 750 L1000 750 Z M907.61 623.54 C955.63 623.54 973.54 605.63 973.54 557.61 L973.54 -57.62 C973.54 -105.62 955.63 -123.54 907.61 -123.54 L292.38 -123.54 C244.38 -123.54 226.46 -105.62 226.46 -57.62 L226.46 557.61 C226.46 605.63 244.38 623.54 292.38 623.54 L907.61 623.54 Z M646.55 533 L930.55 250 L646.55 -33 L574.55 34 L750.55 200 L305.55 200 L305.55 300 L750.55 300 L574.55 466 L646.55 533 Z " />
<glyph glyph-name="arrowdown" unicode="&#x2193;" horiz-adv-x="1200" d="M1000 750 L200 750 C145 750 100 705 100 650 L100 -150 C100 -205 145 -250 200 -250 L1000 -250 C1055 -250 1100 -205 1100 -150 L1100 650 C1100 705 1055 750 1000 750 L1000 750 Z M907.61 623.54 C955.63 623.54 973.54 605.63 973.54 557.61 L973.54 -57.62 C973.54 -105.62 955.63 -123.54 907.61 -123.54 L292.38 -123.54 C244.38 -123.54 226.46 -105.62 226.46 -57.62 L226.46 557.61 C226.46 605.63 244.38 623.54 292.38 623.54 L907.61 623.54 Z M884 221 L817 293 L651 117 L651 563 L551 563 L551 117 L385 293 L318 221 L601 -63 L884 221 Z " />
<glyph glyph-name="uni2196" unicode="&#x2196;" horiz-adv-x="1200" d="M1000 750 L200 750 C145 750 100 705 100 650 L100 -150 C100 -205 145 -250 200 -250 L1000 -250 C1055 -250 1100 -205 1100 -150 L1100 650 C1100 705 1055 750 1000 750 L1000 750 Z M907.61 623.54 C955.63 623.54 973.54 605.63 973.54 557.61 L973.54 -57.62 C973.54 -105.62 955.63 -123.54 907.61 -123.54 L292.38 -123.54 C244.38 -123.54 226.46 -105.62 226.46 -57.62 L226.46 557.61 C226.46 605.63 244.38 623.54 292.38 623.54 L907.61 623.54 Z M780 478 L779 379 L549 379 L856 72 L786 1 L479 308 L479 78 L380 78 L379 478 L780 478 Z " />
<glyph glyph-name="uni2197" unicode="&#x2197;" horiz-adv-x="1200" d="M1000 750 L200 750 C145 750 100 705 100 650 L100 -150 C100 -205 145 -250 200 -250 L1000 -250 C1055 -250 1100 -205 1100 -150 L1100 650 C1100 705 1055 750 1000 750 L1000 750 Z M907.61 623.54 C955.63 623.54 973.54 605.63 973.54 557.61 L973.54 -57.62 C973.54 -105.62 955.63 -123.54 907.61 -123.54 L292.38 -123.54 C244.38 -123.54 226.46 -105.62 226.46 -57.62 L226.46 557.61 C226.46 605.63 244.38 623.54 292.38 623.54 L907.61 623.54 Z M438 478 L839 478 L838 78 L739 78 L739 308 L432 1 L362 72 L669 379 L439 379 L438 478 Z " />
<glyph glyph-name="uni2198" unicode="&#x2198;" horiz-adv-x="1200" d="M1000 750 L200 750 C145 750 100 705 100 650 L100 -150 C100 -205 145 -250 200 -250 L1000 -250 C1055 -250 1100 -205 1100 -150 L1100 650 C1100 705 1055 750 1000 750 L1000 750 Z M907.61 623.54 C955.63 623.54 973.54 605.63 973.54 557.61 L973.54 -57.62 C973.54 -105.62 955.63 -123.54 907.61 -123.54 L292.38 -123.54 C244.38 -123.54 226.46 -105.62 226.46 -57.62 L226.46 557.61 C226.46 605.63 244.38 623.54 292.38 623.54 L907.61 623.54 Z M438 12 L439 111 L669 111 L362 418 L432 489 L739 182 L739 412 L838 412 L839 12 L438 12 Z " />
<glyph glyph-name="uni2199" unicode="&#x2199;" horiz-adv-x="1200" d="M1000 750 L200 750 C145 750 100 705 100 650 L100 -150 C100 -205 145 -250 200 -250 L1000 -250 C1055 -250 1100 -205 1100 -150 L1100 650 C1100 705 1055 750 1000 750 L1000 750 Z M907.61 623.54 C955.63 623.54 973.54 605.63 973.54 557.61 L973.54 -57.62 C973.54 -105.62 955.63 -123.54 907.61 -123.54 L292.38 -123.54 C244.38 -123.54 226.46 -105.62 226.46 -57.62 L226.46 557.61 C226.46 605.63 244.38 623.54 292.38 623.54 L907.61 623.54 Z M763 12 L362 12 L363 412 L462 412 L462 182 L769 489 L839 418 L532 111 L762 111 L763 12 Z " />
<glyph glyph-name="minus" unicode="&#x2212;" horiz-adv-x="591" d="M58.75 196.34 L531.29 196.34 L531.29 305.26 L58.75 305.26 L58.75 196.34 Z " />
<glyph glyph-name="approxequal" unicode="&#x2248;" horiz-adv-x="580" d="M126.31 270.21 C147.86 300.29 171.24 316.52 203.51 316.52 C257.41 316.52 300.62 270.83 372.24 270.83 C433.59 270.83 494.8 303.31 528.36 364.69 L451.35 430.64 C430.11 402.29 403.62 383.4 374.52 383.4 C310.86 383.4 272.76 429.09 203.51 429.09 C145.92 429.09 84.71 396.79 51.16 336.22 L126.31 270.21 Z M126.31 58.06 C147.86 88.14 171.24 104.37 203.51 104.37 C257.41 104.37 300.62 58.68 372.24 58.68 C433.59 58.68 494.8 91.2 528.36 152.48 L451.35 218.49 C430.11 190.15 403.62 171.25 374.52 171.25 C310.86 171.25 272.76 216.94 203.51 216.94 C145.92 216.94 84.71 184.64 51.16 124.01 L126.31 58.06 Z " />
<glyph glyph-name="notequal" unicode="&#x2260;" horiz-adv-x="592" d="M531.91 300.14 L531.91 409.12 L445.35 409.12 L488.98 482.5 L420.7 524.44 L351.59 409.12 L59.44 409.12 L59.44 300.14 L286.27 300.14 L221.86 192.66 L59.44 192.66 L59.44 83.68 L156.54 83.68 L103.64 -4.59999 L172.54 -49.71 L251.85 83.68 L531.91 83.68 L531.91 192.66 L316.65 192.66 L380.55 300.14 L531.91 300.14 Z " />
<glyph glyph-name="uniF8FF" unicode="&#xf8ff;" horiz-adv-x="1451" d="M691 583 C691 549 718 522 752 522 C787 522 814 549 814 583 C814 618 787 645 752 645 C718 645 691 618 691 583 L691 583 Z M219 270 C219 425 211 544 209 584 L109 584 C107 544 100 423 100 270 L219 270 Z M694 270 L812 270 C812 351 809 464 802 509 L624 509 L623 526 L504 496 L504 417 L526 417 C526 411 522 351 522 330 C522 287 550 264 604 264 C633 264 662 268 672 279 L672 353 C668 349 660 348 654 348 C647 348 641 350 639 352 L636 417 L697 417 C695 380 694 332 694 270 L694 270 Z M328 265 C376 265 395 290 403 331 L411 270 L494 270 L494 397 C494 471 455 514 370 514 C278 514 236 464 236 379 C236 301 271 265 328 265 L328 265 Z M1090 270 L1087 408 C1085 479 1069 514 1010 514 C944 514 932 450 930 433 C930 453 927 487 924 509 L844 509 C837 464 834 351 834 270 L948 270 C948 316 945 343 945 363 C945 380 947 392 963 392 C976 392 978 383 978 363 C978 343 976 316 976 270 L1090 270 Z M1351 391 C1351 454 1327 514 1230 514 C1132 514 1106 453 1106 389 C1106 313 1143 265 1228 265 C1313 265 1351 312 1351 391 L1351 391 Z M390 375 C390 356 381 345 366 345 C351 345 344 356 344 375 C344 394 351 401 366 401 C381 401 390 394 390 375 L390 375 Z M1251 375 C1251 356 1242 345 1228 345 C1214 345 1207 356 1207 375 C1207 394 1214 401 1228 401 C1242 401 1251 394 1251 375 L1251 375 Z M428 238 L428 119 C428 99 424 92 412 92 C400 92 397 98 397 119 L397 238 L220 238 L221 256 L104 227 L104 147 L122 147 C121 133 119 81 119 66 C119 18 139 -5 200 -5 C250 -5 263 6 268 10 L268 83 C266 81 261 78 250 78 C242 78 238 80 235 82 L232 147 L287 147 L287 134 C287 77 318 51 377 51 C407 51 420 58 426 62 C426 56 418 34 372 34 C329 34 308 46 302 50 L302 -33 C310 -38 331 -50 390 -50 C505 -50 542 -6 542 100 C542 153 536 217 532 238 L428 238 Z M733 243 C670 243 656 176 653 162 C653 180 648 226 646 238 L568 238 C566 210 558 126 558 -44 L677 -44 C677 -37 677 -20 676 -5 C768 -5 813 40 813 130 C813 204 782 243 733 243 L733 243 Z M1070 127 C1070 202 1027 243 954 243 C874 243 829 195 829 117 C829 38 875 -5 970 -5 C1013 -5 1038 4 1048 11 L1048 86 C1034 78 1012 74 993 74 C962 74 948 84 943 92 L1067 92 C1069 101 1070 116 1070 127 L1070 127 Z M978 109 L938 109 C938 127 947 136 961 136 C974 136 980 127 978 109 L978 109 Z M670 72 C669 75 665 85 665 101 C665 123 673 132 687 132 C699 132 707 125 707 109 C707 78 677 72 670 72 L670 72 Z M1074 13 C1074 27 1084 36 1098 36 C1112 36 1122 27 1122 13 C1122 -1 1112 -10 1098 -10 C1084 -10 1074 -1 1074 13 L1074 13 Z M1080 13 C1080 1 1087 -5 1098 -5 C1109 -5 1116 1 1116 13 C1116 25 1109 31 1098 31 C1087 31 1080 25 1080 13 L1080 13 Z M1108 2 L1102 2 L1098 11 L1093 11 L1093 2 L1088 2 L1088 25 L1099 25 C1106 25 1109 22 1109 18 C1109 13 1105 11 1102 11 L1108 2 Z M1100 15 C1103 15 1104 16 1104 18 C1104 20 1103 21 1100 21 L1093 21 L1093 15 L1100 15 Z " />
<glyph glyph-name="fi" unicode="&#xfb01;" horiz-adv-x="619" d="M565.31 465.86 L239.08 465.86 C239.48 520.8 276.19 548.49 335.49 548.49 C383.08 548.49 410.18 533.24 430.36 521.05 L496.14 616.38 C468.62 637.83 409.69 666.76 325.45 666.76 C193.29 666.76 102.3 597.74 91.7 465.86 L29.89 465.86 L29.89 344.8 L90.66 344.8 L90.66 -1.52588e-05 L239.07 -1.52588e-05 L239.07 344.8 L416.03 344.8 L416.03 -1.52588e-05 L565.31 -1.52588e-05 L565.31 465.86 Z " />
<glyph glyph-name="fl" unicode="&#xfb02;" horiz-adv-x="658" d="M604.61 114.22 C573.12 114.22 555.96 128.01 555.96 169.63 L555.96 600.5 C528.22 624.25 466.65 666.76 348.77 666.76 C194.94 666.76 102.41 597.74 91.71 465.86 L29.89 465.86 L29.89 344.8 L90.66 344.8 L90.66 -3.05176e-05 L239.07 -3.05176e-05 L239.07 344.8 L334.03 344.8 L334.03 465.86 L239.08 465.86 C239.48 520.8 276.48 548.49 349.57 548.49 C368.96 548.49 387.84 545.55 405.27 541.09 L405.27 154.42 C405.27 12.99 483.81 -11.07 571.74 -11.07 C596.38 -11.07 626.32 -7.53003 645.69 1.21997 L645.69 121.51 C635.76 116.93 618.48 114.22 604.61 114.22 L604.61 114.22 Z " />
</font>
</svg>
