<?xml version="1.0" encoding="UTF-8"?>
<svg xmlns="http://www.w3.org/2000/svg" xmlns:xlink="http://www.w3.org/1999/xlink" version="1.2" >
<font id="Informative Regular It">
<font-face  font-family="Informative" units-per-em="1000" ascent="770" descent="-230" font-style="normal" font-weight="400" font-stretch="normal" slope="-8" cap-height="642" x-height="469" underline-position="-75" underline-thickness="50" />
<missing-glyph  horiz-adv-x="824" d="M569 750 L259 750 C204 750 159 705 159 650 L159 -150 C159 -205 204 -250 259 -250 L569 -250 C624 -250 669 -205 669 -150 L669 650 C669 705 624 750 569 750 L569 750 Z M572 485 L513 530 L501 514 L530 492 L509 470 C504.6 465.4 499 462 492 462 C486.9 462 481.1 463.2 476 467 L409 517 L452 577 C463.7 593.3 477 600 497 600 C524 600 562 572 561 537 L554 525 L585 502 L572 485 Z M450 -94 L409 -94 L366 131 C323 185 296.7 230 301 286 L309 389 C312.7 436 345 476 385 476 C417 476 458 450 460 408 C462 367 452 293 446 247 L427 231 L396 309 C391.2 321.1 390.9 332 393 345 L402 402 L382 406 L373 349 C370.3 331.9 372.7 314.9 378 301 L410 217 L391 201 L344 272 L326 262 L388 171 L448 222 L469 -69 C469.9 -81 461 -94 450 -94 L450 -94 Z M370 -65 C364.8 -91 353 -94 336 -94 L307 -94 L327 56 L318 160 L347 123 L376 -35 L370 -65 Z " />
<glyph glyph-name="NULL" d="" />
<glyph glyph-name="CR" unicode="&#xd;" horiz-adv-x="250" d="" />
<glyph glyph-name="space" unicode="&#x20;" horiz-adv-x="260" d="" />
<glyph glyph-name="exclam" unicode="&#x21;" horiz-adv-x="248" d="M185.02 644.5 L124.59 160.08 L168.67 160.08 L243.88 644.5 L185.02 644.5 Z M122.16 -10.17 C150.27 -10.17 176.49 14.86 176.49 44.19 C176.49 67.8 159.81 86.83 136.23 86.83 C108.14 86.83 81.75 61.83 81.75 32.57 C81.75 8.84001 98.78 -10.18 122.17 -10.18 L122.16 -10.17 Z " />
<glyph glyph-name="quotedbl" unicode="&#x22;" horiz-adv-x="307" d="M147.83 462.71 L176.17 462.71 L218.12 649.46 L159 649.46 L147.83 462.71 Z M259.9 462.71 L288.24 462.71 L330.29 649.46 L271.11 649.46 L259.9 462.71 Z " />
<glyph glyph-name="numbersign" unicode="&#x23;" horiz-adv-x="650" d="M643.13 373.25 L664.54 420.21 L571.06 420.21 L660.38 615 L608.22 615 L518.88 420.21 L340.18 420.21 L429.52 615 L377.36 615 L288.02 420.21 L185.97 420.21 L164.56 373.25 L266.48 373.25 L183.45 192.21 L85.75 192.21 L64.24 145.25 L161.91 145.25 L73.74 -47 L125.88 -47 L214.06 145.25 L392.77 145.25 L304.6 -47 L356.8 -47 L444.96 145.25 L542.7 145.25 L564.21 192.21 L466.49 192.21 L549.51 373.25 L643.13 373.25 Z M414.31 192.21 L235.6 192.21 L318.63 373.25 L497.34 373.25 L414.31 192.21 Z " />
<glyph glyph-name="dollar" unicode="&#x24;" horiz-adv-x="502" d="M482.21 547.04 L517.9 591.79 C485.23 622.92 441.84 648.32 372.16 653.47 L382.09 724.09 L337.89 724.09 L328.02 653.91 C212.22 647.09 133.39 572.7 133.39 478 C133.39 370.18 207.47 339.22 279.88 311.47 L242.03 42.29 C169.93 45.86 127.16 74.98 97.86 111.88 L58.32 70.34 C87.77 33.52 142.92 -5.84003 234.69 -9.83003 L224.85 -79.83 L269.05 -79.83 L279.01 -8.95003 C397.42 1.18997 473.31 74.31 473.31 183.72 C473.31 290.84 400.89 327.29 330.39 356.55 L364.76 601.02 C416.69 595.76 450.97 575.25 482.18 547.04 L482.21 547.04 Z M191.18 482.47 C191.18 539.88 243.19 594.6 320.65 601.58 L288.57 373.39 C235.61 395.1 191.18 419.24 191.18 482.46 L191.18 482.47 Z M416.44 177.13 C416.44 111.15 368.18 54.67 286.43 43.8 L321.74 294.97 C373.87 272.86 416.44 244.5 416.44 177.14 L416.44 177.13 Z " />
<glyph glyph-name="percent" unicode="&#x25;" horiz-adv-x="724" d="M228.86 346.29 C320.82 346.29 385.4 424.49 385.4 518.38 C385.52 587.69 344.17 637.96 269.9 637.96 C177.53 637.96 112.77 560.88 112.77 465.78 C112.77 396.52 154.01 346.29 228.86 346.29 L228.86 346.29 Z M124.35 -19.58 L177.8 -19.58 L681.8 630.75 L628.35 630.75 L124.35 -19.58 Z M234.82 388.62 C182.9 388.62 158.36 422.69 158.36 469.46 C158.36 534.18 196.42 595.62 263.88 595.62 C315.68 595.62 339.64 560.55 339.76 514.12 C339.76 448.54 301.69 388.62 234.79 388.62 L234.82 388.62 Z M543.07 -9.84 C635.03 -9.84 699.61 68.36 699.61 162.25 C699.61 231.56 658.38 281.83 584.11 281.83 C491.74 281.83 426.98 204.75 426.98 109.65 C426.98 40.39 468.22 -9.84 543.07 -9.84 L543.07 -9.84 Z M549.04 32.49 C497.12 32.49 472.58 66.56 472.58 113.33 C472.58 178.05 510.6 239.49 578.06 239.49 C629.86 239.49 653.82 204.42 653.94 157.99 C654.11 92.41 615.86 32.49 548.96 32.49 L549.04 32.49 Z " />
<glyph glyph-name="ampersand" unicode="&#x26;" horiz-adv-x="602" d="M580.51 0 L488.53 118.57 C515.65 165.26 533.63 223.07 542.86 289.33 L545.86 311 L490.28 311 L487.28 289.33 C480.9 242.73 469.5 200.51 452.8 164.64 L315.52 341.61 C396.69 385.59 475.47 432.74 475.47 532.35 C475.47 599.61 426.18 654.41 340.56 654.41 C237.04 654.41 171.24 587.69 171.24 505.43 C171.24 458.07 190.53 416.62 237.4 354.06 C160.92 311.87 89.5 258.85 89.5 148.7 C89.5 47.83 162.61 -10.19 262.34 -10.19 C345.88 -10.19 410.44 20.31 457.05 74.13 L515.35 -0.019989 L580.51 0 Z M226.15 507.21 C226.15 559.39 266.61 609.31 333.94 609.31 C390.66 609.31 420.43 572.71 420.43 527.69 C420.43 453.63 357.27 417.2 286.14 379.88 C241.48 439.6 226.16 469.58 226.16 507.21 L226.15 507.21 Z M271.59 40.73 C189.35 40.73 140.29 84.61 140.29 152.92 C140.29 233.2 199.08 276.75 267.42 315.34 L424.01 116.17 C388.08 68.71 337.68 40.73 271.6 40.73 L271.59 40.73 Z " />
<glyph glyph-name="quotesingle" unicode="&#x27;" horiz-adv-x="195" d="M147.83 462.71 L176.17 462.71 L218.12 649.46 L159 649.46 L147.83 462.71 Z " />
<glyph glyph-name="parenleft" unicode="&#x28;" horiz-adv-x="270" d="M262.68 668.25 C150 499.54 89.34 337.91 89.34 135.78 C89.34 32.18 107.27 -70.15 145.13 -166.91 L200.7 -143.88 C168.19 -58.18 147.19 37.9 147.19 126.2 C147.19 324.55 206.82 484.39 312.3 644.94 L262.68 668.25 Z " />
<glyph glyph-name="parenright" unicode="&#x29;" horiz-adv-x="270" d="M194.75 668.25 L139.28 645.23 C174.86 554.68 190.82 468.57 190.82 368.64 C190.82 184.39 133.59 17.75 27.57 -143.07 L77.3 -166.91 C190.46 2.62 250.54 174.99 250.54 370.47 C250.54 472.09 231.96 573.02 194.74 668.26 L194.75 668.25 Z " />
<glyph glyph-name="asterisk" unicode="&#x2a;" horiz-adv-x="367" d="M381.82 559.03 L371.16 609.52 L277.77 563.69 L303.17 665.54 L250.83 665.54 L249.39 564.45 L167.75 609.52 L143.05 559.67 L237.27 536.74 L159.11 458.72 L197.7 428.55 L256.55 518.27 L289.98 428.55 L337.37 458.72 L280.77 536.27 L381.82 559.03 Z " />
<glyph glyph-name="plus" unicode="&#x2b;" horiz-adv-x="501" d="M481.76 270.54 L315.15 270.54 L339.9 445.96 L286.14 445.96 L261.43 270.54 L95.59 270.54 L88.57 222.21 L254.62 222.21 L229.83 46.21 L283.49 46.21 L308.32 222.21 L474.69 222.21 L481.76 270.54 Z " />
<glyph glyph-name="comma" unicode="&#x2c;" horiz-adv-x="236" d="M126.81 86.83 C96.95 86.83 74.89 61.8 74.89 32.19 C74.89 10.52 88.49 -8.70999 112.74 -10.05 C107.16 -41.89 91.1 -75.02 65 -108.15 L87.12 -125.67 C134.8 -70.88 169.28 -11.93 169.28 42.26 C169.28 69.98 152.28 86.84 126.82 86.84 L126.81 86.83 Z " />
<glyph glyph-name="hyphen" unicode="&#x2d;" horiz-adv-x="389" d="M110.58 226.67 L342.08 226.67 L348.76 273.25 L117.26 273.25 L110.58 226.67 Z " />
<glyph glyph-name="period" unicode="&#x2e;" horiz-adv-x="231" d="M168.16 44.09 C168.16 67.82 151.25 86.84 127.62 86.84 C99.51 86.84 73.41 61.81 73.41 32.48 C73.41 8.87 90.44 -10.16 113.85 -10.16 C142 -10.16 168.16 14.9 168.16 44.1 L168.16 44.09 Z " />
<glyph glyph-name="slash" unicode="&#x2f;" horiz-adv-x="514" d="M11.42 -182.04 L64.05 -182.04 L568.95 661.04 L516.36 661.04 L11.42 -182.04 Z " />
<glyph glyph-name="zero" unicode="0" horiz-adv-x="577" d="M563.89 416.76 C563.89 563.95 505.03 654.42 380.54 654.42 C194.52 654.42 104.29 439.1 104.29 226.59 C104.29 81 163.7 -10.16 287.14 -10.16 C476.53 -10.16 563.89 205.51 563.89 416.77 L563.89 416.76 Z M294.47 41.93 C199.44 41.93 162.78 113.44 162.78 227.83 C162.78 405.43 222.59 602.35 373.2 602.35 C468.48 602.35 505.61 531.37 505.38 417.85 C505.03 237.45 442.61 41.92 294.47 41.92 L294.47 41.93 Z " />
<glyph glyph-name="one" unicode="1" horiz-adv-x="328" d="M275.74 642 L107.08 544.59 L123.29 497.17 L253.21 567.47 L173.5 -0.00999451 L226.77 -0.00999451 L317.03 641.99 L275.74 642 Z " />
<glyph glyph-name="two" unicode="2" horiz-adv-x="498" d="M143.35 52.64 L155.5 61.78 C361.02 244.78 492.38 350.85 492.38 493.63 C492.38 594.16 426.9 654.42 327.9 654.42 C248.13 654.42 175.95 608.75 135.38 564.08 L165.14 527.77 C197.85 559.22 248.1 601.58 318.36 601.58 C402.21 601.58 434.59 552.37 434.59 490.67 C434.59 382.91 369.82 317.44 66.35 55.85 L58.35 -0.00999451 L440.47 -0.00999451 L448.2 53.24 L156.3 53.24 L143.35 52.64 Z " />
<glyph glyph-name="three" unicode="3" horiz-adv-x="512" d="M383.63 343.72 C437.88 370.87 485.91 429.56 485.91 509.89 C485.91 602.89 417.33 654.41 325.12 654.41 C254.06 654.41 190.48 624.44 144.81 577.46 L176.97 542.33 C210.84 573.14 258.2 602.28 315.1 602.28 C389.82 602.28 428.14 562.37 428.14 500.3 C428.14 430.32 377.03 366.74 283.26 366.74 L235.23 366.74 L228.28 318.48 L276.99 318.48 C369.53 318.48 419.86 277.31 419.86 202.03 C419.86 100.32 341.68 40.68 243.39 40.68 C177.51 40.68 139.51 58.47 97.55 96.83 L60.43 55.46 C97.13 18.32 151.13 -10.24 236.3 -10.24 C382.73 -10.24 476.19 75.7 476.19 205.72 C476.19 282.84 432.95 325.33 383.64 343.65 L383.63 343.72 Z " />
<glyph glyph-name="four" unicode="4" horiz-adv-x="525" d="M502.74 223.92 L432.71 223.92 L491.45 642 L438.26 642 L70.07 222.58 L62.84 172.83 L372.35 172.83 L348.07 0 L401.26 0 L425.54 172.83 L495.4 172.83 L502.74 223.92 Z M137.25 223.96 L425.62 552 L379.53 223.93 L137.25 223.96 Z " />
<glyph glyph-name="five" unicode="5" horiz-adv-x="508" d="M241.04 -10.17 C387.54 -10.17 478.25 74.46 478.25 223.73 C478.25 330.91 408.3 399.09 293.11 399.09 C250.46 399.09 210.4 385.74 191.59 377.01 L221.72 587.01 L502.25 587.01 L510.21 642.01 L176.31 642.01 L130.99 320.34 L162.68 313.95 C162.68 313.95 216.4 344.68 279.29 344.68 C376.57 344.68 422.91 297.78 422.91 215.15 C422.91 106.54 354.26 39.18 245.29 39.18 C171.54 39.18 132.54 74.15 107.06 99.8 L70.32 57.55 C103.69 26.63 154.6 -10.15 241.03 -10.15 L241.04 -10.17 Z " />
<glyph glyph-name="six" unicode="6" horiz-adv-x="519" d="M329.05 385.83 C263.54 385.83 203.64 355.93 164.49 318.49 C215.83 488.3 373.17 573.84 498.92 605.25 L488.56 655.77 C301.68 613.15 92.5 467.09 92.5 189.97 C92.5 64.39 166.97 -10.18 274.01 -10.18 C410.39 -10.18 495.1 81.99 495.1 218.81 C495.1 322.92 425 385.82 329.06 385.82 L329.05 385.83 Z M280.65 39.74 C202.27 39.74 147.46 98.48 147.46 198.35 C147.46 218.92 148.8 238.59 151.34 257.4 C188.34 296.79 246.12 331.35 319.81 331.35 C384.03 331.35 441.03 294.01 441.03 208.52 C441.03 102.1 370.41 39.75 280.67 39.75 L280.65 39.74 Z " />
<glyph glyph-name="seven" unicode="7" horiz-adv-x="457" d="M509.93 642 L124.75 642 L116.83 587 L441.83 587 C261.95 410.65 172.94 225.52 141.64 -0.0100098 L199.72 -0.0100098 C234.05 255.87 342.98 420.85 511.9 586.87 L509.93 642 Z " />
<glyph glyph-name="eight" unicode="8" horiz-adv-x="533" d="M412.59 333.11 C467.59 360.57 517.5 416.57 517.5 505.23 C517.5 591.23 453.17 654.54 355.79 654.54 C239.54 654.54 151.17 576.4 151.17 463.71 C151.17 403.38 180.1 360.81 216.69 337.09 C138.37 305.9 87.52 240.14 87.52 148.21 C87.52 48.78 162.28 -10.16 266.51 -10.16 C401.66 -10.16 493.18 72.69 493.18 197.32 C493.18 261.56 461.12 307.44 412.62 333.12 L412.59 333.11 Z M348.54 603.98 C415.02 603.98 463.81 565.49 463.81 497.37 C463.81 413.29 396.5 355.99 319.43 355.99 L312.98 355.99 C253.35 355.99 203.87 400.03 203.87 465.73 C203.87 550.25 269.2 603.97 348.53 603.97 L348.54 603.98 Z M271.97 40.29 C195.53 40.29 141.18 81.5 141.18 153.61 C141.18 245.19 213.37 306.03 309.03 306.03 C389.61 306.03 438.92 258.64 438.92 188.42 C438.92 98.84 366.37 40.28 271.97 40.28 L271.97 40.29 Z " />
<glyph glyph-name="nine" unicode="9" horiz-adv-x="520" d="M333.27 654.42 C209.44 654.42 110.5 566.9 110.5 427.52 C110.5 326.75 174.6 256.68 272.48 256.68 C345.55 256.68 411.52 287.62 449.26 338.85 C412.77 166.59 275.33 78.11 138.69 40.81 L153.05 -9.59001 C338.55 39.77 513.63 182.59 513.63 439.27 C513.63 563.2 458.06 654.43 333.27 654.43 L333.27 654.42 Z M285.59 311.68 C209.69 311.68 164.42 357.45 164.42 433.98 C164.42 535.17 235.36 603.62 323.69 604.04 C416.49 604.42 458.63 534.13 458.63 432.16 C458.63 424.18 458.44 416.34 458.07 408.64 C420.07 347.65 358.66 311.7 285.59 311.7 L285.59 311.68 Z " />
<glyph glyph-name="colon" unicode="&#x3a;" horiz-adv-x="250" d="M227.17 394.92 C227.17 418.65 210.3 437.67 186.75 437.67 C158.7 437.67 132.47 412.64 132.47 383.32 C132.47 359.71 149.45 340.68 172.9 340.68 C200.99 340.68 227.17 365.74 227.17 394.94 L227.17 394.92 Z M177.99 44.11 C177.99 67.84 161.08 86.86 137.63 86.86 C109.52 86.86 83.24 61.83 83.24 32.5 C83.24 8.88998 100.27 -10.14 123.68 -10.14 C151.83 -10.14 177.99 14.92 177.99 44.12 L177.99 44.11 Z " />
<glyph glyph-name="semicolon" unicode="&#x3b;" horiz-adv-x="259" d="M190.94 437.67 C162.43 437.67 135.97 412.74 135.97 383.51 C135.97 359.8 153.34 340.67 177.25 340.67 C205.74 340.67 232.14 365.63 232.14 394.73 C232.14 418.55 214.83 437.67 190.94 437.67 L190.94 437.67 Z M141.44 86.84 C112.99 86.84 86.42 61.91 86.42 32.4 C86.42 10.63 100.38 -8.69998 125.43 -10.04 C119.79 -41.88 103.52 -75.01 76.56 -108.14 L99.04 -125.66 C147.81 -71.11 182.35 -12.3 182.35 42.02 C182.35 69.9 164.94 86.86 141.45 86.86 L141.44 86.84 Z " />
<glyph glyph-name="less" unicode="&#x3c;" horiz-adv-x="550" d="M81.33 208.24 L479.7 26.66 L487.33 79.88 L140.82 234.22 L530.18 390.14 L539.01 447.98 L89.78 266.4 L81.33 208.24 Z " />
<glyph glyph-name="equal" unicode="&#x3d;" horiz-adv-x="533" d="M123.18 297.38 L492.55 297.38 L499.55 346.13 L130.18 346.13 L123.18 297.38 Z M97.83 117.88 L467.2 117.88 L474.2 166.63 L104.89 166.63 L97.83 117.88 Z " />
<glyph glyph-name="greater" unicode="&#x3e;" horiz-adv-x="550" d="M526.03 207.95 L534.26 265.04 L135.95 446.62 L128.43 394.06 L474.26 238.38 L84.94 82.46 L76.8 26.38 L526.03 207.95 Z " />
<glyph glyph-name="question" unicode="&#x3f;" horiz-adv-x="449" d="M463.11 480.3 C463.11 579.74 394.79 649.83 294.81 649.83 C227.32 649.83 167.15 620.28 122.25 573.65 L152.29 535.96 C183.92 567.31 229.51 597.75 286.1 597.75 C364.1 597.75 407.46 546.25 407.46 475.83 C407.46 378.7 330.99 303.72 217.22 303.72 L207.29 303.72 L186.99 160.09 L241.58 160.09 L255.22 255.57 C396.27 272.76 463.1 382.21 463.1 480.31 L463.11 480.3 Z M147.73 32.59 C147.73 8.86 164.68 -10.16 188.13 -10.16 C216.18 -10.16 242.51 14.87 242.51 44.2 C242.51 67.75 225.38 86.84 201.97 86.84 C173.94 86.84 147.72 61.78 147.72 32.58 L147.73 32.59 Z " />
<glyph glyph-name="at" unicode="&#x40;" horiz-adv-x="811" d="M502.95 634.42 C256.93 634.42 94.33 449.94 94.33 211.42 C94.33 30.39 204.42 -99.84 397.69 -99.84 C454.57 -99.84 513.06 -86.84 566.06 -58.51 L552.81 -8.64999 C505.53 -35.89 453.93 -48.92 404.96 -48.92 C240.56 -48.92 148.08 65.47 148.08 216.91 C148.08 427.83 293.3 583.5 495.56 583.5 C646.52 583.5 744.77 487.78 744.77 339.21 C744.77 208.21 684.12 134.25 622.58 134.25 C587.46 134.25 566.12 157.89 572.06 199.75 L590.73 329.08 C604.6 429.24 548.33 465.16 469.65 465.16 C414.43 465.16 371.57 447.7 344.89 433.65 L353.79 393.62 C389.22 411.2 421.68 419.84 458.51 419.84 C517.08 419.84 551.81 394.57 542.56 331.91 L538.14 302.16 L448.43 302.16 C350.58 302.16 291.25 258.96 291.25 181.91 C291.25 123.98 333.32 90.31 393.06 90.31 C454.44 90.31 498.42 123.59 525.69 160.71 C531.66 116.63 560.74 88.82 612.37 88.82 C713.9 88.82 797.32 184.26 797.32 344.64 C797.32 511.66 680.24 634.41 502.93 634.41 L502.95 634.42 Z M409.78 132.07 C365.78 132.07 342.05 152.93 342.05 189.17 C342.05 232.4 369.86 266.66 445.44 266.66 L532.9 266.66 L525.52 213.31 C511.76 175.7 466.15 132.07 409.77 132.07 L409.78 132.07 Z " />
<glyph glyph-name="A" unicode="A" horiz-adv-x="584" d="M489.57 0 L550.5 0 L408.33 642 L351.82 642 L36.33 0 L98.1 0 L191.69 193.67 L448.87 193.67 L489.57 0 Z M215.24 242.42 L356.3 534.32 L371.3 566.09 L377.33 534.09 L438.62 242.42 L215.24 242.42 Z " />
<glyph glyph-name="B" unicode="B" horiz-adv-x="561" d="M420.57 332.19 C496.14 360.59 539.33 419.81 539.33 505.18 C539.33 593.98 475.07 642.01 349.53 642.01 L192.2 642.01 L102.06 0.00999451 L298.58 0.00999451 C442.21 0.00999451 523.4 73.64 523.4 197.16 C523.4 269.35 486.23 312.87 420.57 332.21 L420.57 332.19 Z M345.11 593.27 C441.56 593.27 483.23 557.34 483.23 496.61 C483.23 418.47 431.69 357.03 316.4 357.03 L207.68 357.03 L240.87 593.28 L345.11 593.27 Z M295.7 49.95 L164.53 49.95 L200.58 306.53 L317.86 306.53 C414.65 306.53 466.8 268.4 466.8 191.07 C466.8 106.24 409.22 49.96 295.7 49.96 L295.7 49.95 Z " />
<glyph glyph-name="C" unicode="C" horiz-adv-x="577" d="M445.06 654.42 C261.21 654.42 103.33 506.75 103.33 268.09 C103.33 105.79 193.94 -10.17 355.46 -10.17 C440.79 -10.17 502.15 22.83 544.77 57.25 L521.77 102.15 C480.91 69.43 428.85 41.92 360.98 41.92 C237.91 41.92 161.83 134.81 161.83 274.44 C161.83 475.17 293.62 602.34 437.69 602.34 C499.12 602.34 540.4 584.31 577.15 551.5 L613.61 594.17 C577 628.71 524.73 654.42 445.06 654.42 L445.06 654.42 Z " />
<glyph glyph-name="D" unicode="D" horiz-adv-x="644" d="M363.48 642 L191.78 642 L101.52 0 L278.32 0 C497.86 0 629.83 159.14 629.83 375.31 C629.83 534.38 532.49 642 363.47 642 L363.48 642 Z M287.67 50.5 L164.08 50.5 L240.02 590.33 L356.33 590.33 C500.39 590.33 570.65 501.07 570.65 368.96 C570.65 185.74 456.12 50.49 287.67 50.49 L287.67 50.5 Z " />
<glyph glyph-name="E" unicode="E" horiz-adv-x="525" d="M539.82 590.92 L547.29 642 L192.47 642 L102.17 0 L468.02 0 L475.43 51.08 L164.56 51.08 L200.35 306.75 L470.02 306.75 L477.39 357.83 L207.5 357.83 L240.13 590.91 L539.82 590.92 Z " />
<glyph glyph-name="F" unicode="F" horiz-adv-x="501" d="M539.3 589.75 L546.88 642 L192.3 642 L102 0 L157.53 0 L197.6 285.75 L463.53 285.75 L470.94 336.83 L204.77 336.83 L240.24 589.75 L539.3 589.75 Z " />
<glyph glyph-name="G" unicode="G" horiz-adv-x="626" d="M395.12 264.29 L535.53 264.29 L509.07 76 C466.49 52.74 420.85 41.92 368.48 41.92 C240.57 41.92 162.41 135.64 162.41 274.43 C162.41 474.33 293.41 602.33 438.27 602.33 C506.76 602.33 548.25 584.95 590.25 549.45 L626.67 592.12 C584.15 628.07 529.47 654.41 445.65 654.41 C261.84 654.41 103.92 506.74 103.92 268.08 C103.92 105.78 196.77 -10.18 362.95 -10.18 C441.9 -10.18 517.39 16.3 561.18 49.09 L598.97 317.11 L402.81 317.11 L395.12 264.29 Z " />
<glyph glyph-name="H" unicode="H" horiz-adv-x="662" d="M594.12 642 L553.56 353.33 L207.17 353.33 L247.73 642 L192.2 642 L102 0 L157.53 0 L199.91 301.67 L546.3 301.67 L503.92 0 L559.39 0 L649.59 642 L594.12 642 Z " />
<glyph glyph-name="I" unicode="I" horiz-adv-x="312" d="M336.59 593.25 L343.75 642 L148.24 642 L141.12 593.25 L211.33 593.25 L134.79 48.75 L65.05 48.75 L57.99 0 L253.5 0 L260.56 48.75 L190.27 48.75 L266.86 593.25 L336.59 593.25 Z " />
<glyph glyph-name="J" unicode="J" horiz-adv-x="413" d="M406.63 642 L229.68 642 L222.66 593.25 L343.85 593.25 L283.21 159.83 C271.21 74.04 225.53 41.33 168.02 41.33 C126.9 41.33 99.6 63.03 80.7 86.78 L41 46.16 C58.58 23.03 99.45 -10.17 163.84 -10.17 C248.35 -10.17 320.58 31.31 338.8 160.5 L406.63 642 Z " />
<glyph glyph-name="K" unicode="K" horiz-adv-x="550" d="M451 103.83 L321.51 353 L604.07 642 L533.81 642 L199.69 300.24 L247.71 642 L192.18 642 L101.98 0 L157.51 0 L187.91 216.37 L277.65 308.15 L401.82 71.99 C428.24 21.91 458.61 -0.0100098 521.19 -0.0100098 L528.25 48.74 C492.35 48.74 469.6 68.05 451 103.83 L451 103.83 Z " />
<glyph glyph-name="L" unicode="L" horiz-adv-x="471" d="M164.77 50.5 L247.73 642 L192.2 642 L102 0 L436.61 0 L443.96 50.5 L164.77 50.5 Z " />
<glyph glyph-name="M" unicode="M" horiz-adv-x="753" d="M682.82 642 L411.1 150.42 L398.58 124.77 L392.64 150.42 L247.17 642 L192.83 642 L102.59 0 L156.07 0 L221.41 467.75 L228.81 534.1 L235.05 508.42 L364.48 62 L414.21 62 L660.69 506.5 L675.29 536.83 L662.87 467.75 L597.49 1.52588e-05 L651.44 1.52588e-05 L741.68 642 L682.82 642 Z " />
<glyph glyph-name="N" unicode="N" horiz-adv-x="657" d="M591.23 642 L519.12 125.96 L515.63 94.63 L506.59 116.21 L245.42 642 L192.26 642 L102 0 L155.48 0 L228.45 522.33 L232.17 552.63 L241.93 526.74 L502.7 -0.00999451 L554.51 -0.00999451 L644.71 641.99 L591.23 642 Z " />
<glyph glyph-name="O" unicode="O" horiz-adv-x="700" d="M441.21 654.42 C246.38 654.42 102.27 473.7 102.27 265.78 C102.27 105.95 194.16 -10.17 347.81 -10.17 C552.27 -10.17 687.31 172.66 687.31 381.69 C687.31 542.24 594.29 654.41 441.21 654.41 L441.21 654.42 Z M433.94 602.85 C559.08 602.85 629.8 515.4 629.8 378.64 C629.8 199.86 522.62 42.82 355.1 41.44 C229.82 40.4 159.8 134.19 159.8 268.84 C159.8 447.47 273.08 602.85 433.95 602.85 L433.94 602.85 Z " />
<glyph glyph-name="P" unicode="P" horiz-adv-x="544" d="M349.48 642 L192.9 642 L102.58 0 L158.11 0 L191.84 239.92 L299.59 239.92 C470.08 239.92 560.96 327.67 560.96 470.78 C560.96 571.17 487.16 642 349.49 642 L349.48 642 Z M306.25 289.25 L198.79 289.25 L241.28 591.5 L342.12 591.5 C454.59 591.5 501.9 540.56 501.9 462.72 C501.9 357.55 438.27 289.25 306.25 289.25 L306.25 289.25 Z " />
<glyph glyph-name="Q" unicode="Q" horiz-adv-x="700" d="M438.8 2.77 C591.38 47.94 687.31 205.51 687.31 381.7 C687.31 542.25 594.29 654.42 441.21 654.42 C246.38 654.42 102.27 473.7 102.27 265.78 C102.27 105.95 194.16 -10.17 347.81 -10.17 C359.68 -10.17 371.32 -9.54999 382.71 -8.34999 C428.42 -102.69 511.75 -143.58 593.11 -143.58 L600.32 -91.98 C543.36 -91.98 480.16 -65.88 438.79 2.77002 L438.8 2.77 Z M159.77 268.85 C159.77 447.48 273.05 602.86 433.92 602.86 C559.06 602.86 629.78 515.41 629.78 378.65 C629.78 199.87 522.6 42.83 355.08 41.45 C229.8 40.41 159.78 134.2 159.78 268.85 L159.77 268.85 Z " />
<glyph glyph-name="R" unicode="R" horiz-adv-x="555" d="M433.76 103.83 L368.19 273.55 C472.81 294 549.02 365.17 549.02 480.53 C549.02 582.16 480.62 642 359.57 642 L191.79 642 L101.59 0 L157.12 0 L194.69 267.42 L302.7 267.42 C304.58 267.42 306.46 267.43 308.33 267.46 L383.02 78.07 C405.54 20.34 438.02 0 499.08 0 L506.1 48.75 C472.92 48.75 449.52 62.43 433.76 103.83 L433.76 103.83 Z M201.78 317.91 L240.24 591.66 L352.09 591.66 C451.51 591.66 491.67 547.69 491.67 473.37 C491.67 384.1 434.58 317.91 310.33 317.91 L201.78 317.91 Z " />
<glyph glyph-name="S" unicode="S" horiz-adv-x="509" d="M348.68 654.42 C223.4 654.42 136.56 577.4 136.56 478.01 C136.56 365.2 217.65 336.53 293.08 307.65 C358.52 282.58 419.63 257.86 419.63 177.15 C419.63 103.65 359.74 41.93 260.39 41.93 C179.01 41.93 132.34 72.47 101.04 111.89 L61.5 70.35 C92.57 31.52 152.22 -10.15 253.29 -10.15 C388.11 -10.15 476.5 65.66 476.5 183.73 C476.5 292.64 401.65 328.5 330.07 358.02 C262.16 385.94 194.37 404.4 194.37 482.49 C194.37 543.97 254 602.36 340.65 602.36 C408.46 602.36 449 579.94 485.38 547.06 L521.07 591.81 C484.42 626.73 434.29 654.44 348.69 654.44 L348.68 654.42 Z " />
<glyph glyph-name="T" unicode="T" horiz-adv-x="521" d="M577.45 642 L123.45 642 L116.08 591.33 L315.39 591.33 L232.43 0 L287.91 0 L370.91 591.33 L570.08 591.33 L577.45 642 Z " />
<glyph glyph-name="U" unicode="U" horiz-adv-x="645" d="M321.66 -10.17 C462.04 -10.17 562.35 84.53 586 253.5 L640.42 642 L585.42 642 L531 253.5 C513.92 131.64 442.05 43.67 329.52 43.67 C214.68 43.67 170.42 131.3 187.5 253.51 L241.92 642.01 L185.17 642.01 L130.75 253.51 C107.47 87.8 184.89 -10.16 321.65 -10.16 L321.66 -10.17 Z " />
<glyph glyph-name="V" unicode="V" horiz-adv-x="578" d="M569.7 642 L305.67 84.26 L300.82 73.64 L298.84 84.26 L184.43 642 L123.5 642 L261.08 0 L318.95 0 L633.14 642 L569.7 642 Z " />
<glyph glyph-name="W" unicode="W" horiz-adv-x="852" d="M847.64 642 L618.43 88.36 L611.48 71 L610.03 88.6 L541.76 584.5 L482.48 584.5 L264.16 86.52 L258.25 71.02 L256.83 86.81 L190.78 642 L129.58 642 L215.06 0 L278.75 0 L482.69 459.58 L502.15 506.45 L506.57 460.66 L569.59 -0.00999451 L631.71 -0.00999451 L905.89 641.99 L847.64 642 Z " />
<glyph glyph-name="X" unicode="X" horiz-adv-x="554" d="M604.82 642 L541.5 642 L326.92 367.39 L198.78 642 L134.82 642 L288.86 325.9 L24.75 0 L90.82 0 L319.57 282.14 L460.03 0 L524.96 0 L357.54 325.14 L604.82 642 Z " />
<glyph glyph-name="Y" unicode="Y" horiz-adv-x="567" d="M617.35 642 L552.75 642 L338.25 330.45 L328.12 314.87 L322.53 329.76 L188.13 641.99 L124.58 641.99 L292.71 259.87 L256.12 -0.0100098 L311.59 -0.0100098 L348.24 259.9 L617.35 642 Z " />
<glyph glyph-name="Z" unicode="Z" horiz-adv-x="528" d="M558.17 592.78 L565.29 642 L142.87 642 L135.64 592.08 L489.08 592.62 L471.86 572.91 L53.09 48.39 L46.09 -0.0100098 L480.98 -0.0100098 L488.11 49.32 L124.18 49.32 L141.99 69.99 L558.17 592.78 Z " />
<glyph glyph-name="bracketleft" unicode="&#x5b;" horiz-adv-x="287" d="M333.92 632.08 L341.05 682 L192.1 682 L72.58 -168 L221.53 -168 L228.71 -118.08 L135.38 -118.08 L240.78 632.09 L333.92 632.08 Z " />
<glyph glyph-name="backslash" unicode="&#x5c;" horiz-adv-x="514" d="M451.15 -182.04 L183.22 661.04 L130.59 661.04 L398.52 -182.04 L451.15 -182.04 Z " />
<glyph glyph-name="bracketright" unicode="&#x5d;" horiz-adv-x="287" d="M137.43 682 L130.3 632.08 L223.71 632.08 L118.27 -118.09 L25.09 -118.09 L17.92 -168.01 L166.81 -168.01 L286.33 681.99 L137.43 682 Z " />
<glyph glyph-name="asciicircum" unicode="&#x5e;" horiz-adv-x="503" d="M447.85 368.03 L501.52 368.03 L372.7 676.97 L320.65 676.97 L104.75 368.03 L161.5 368.03 L342.32 628.35 L447.85 368.03 Z " />
<glyph glyph-name="underscore" unicode="&#x5f;" horiz-adv-x="472" d="M21.5 -81.92 L426.28 -81.92 L432.92 -35.75 L28.14 -35.75 L21.5 -81.92 Z " />
<glyph glyph-name="grave" unicode="&#x60;" horiz-adv-x="255" d="M259.78 525.67 L286.7 555.29 L169.07 682.35 L126.09 634.84 L259.78 525.67 Z " />
<glyph glyph-name="a" unicode="a" horiz-adv-x="544" d="M472.15 109.5 L517.98 433.5 C467.81 467.75 422.35 481.75 352.85 481.75 C199.9 481.75 87.17 370.43 87.17 183.43 C87.17 65.77 146.5 -10.18 251.19 -10.18 C311.97 -10.18 372.76 17.98 412.62 68.28 C411.18 33.86 418.24 5.78 425.64 -9.27 L480.6 4.23999 C472.74 25.28 464.02 51.72 472.15 109.49 L472.15 109.5 Z M267.48 41.32 C188.86 41.96 144.18 97.07 144.18 191.31 C144.18 345.57 232.82 431.99 344.84 431.99 C400.07 431.99 431.78 419.6 458.18 402.54 L419.71 129.36 C386.33 79.96 333.09 40.77 267.47 41.33 L267.48 41.32 Z " />
<glyph glyph-name="b" unicode="b" horiz-adv-x="543" d="M355.11 481.75 C296.05 481.75 235.31 453.22 195.3 402.83 L231.34 659.32 L176.34 659.32 L89 37.76 C141.85 5.45001 186.14 -10.18 252.92 -10.18 C412.82 -10.18 520.45 106.6 520.45 291 C520.45 411.23 461.35 481.73 355.11 481.73 L355.11 481.75 Z M261.11 39.56 C206.99 39.56 175.58 52.14 148.51 69.8 L186.34 338.98 C218.32 386.58 273.42 430.23 338.76 430.23 C419 430.23 463.44 377.95 463.44 283.65 C463.44 131.65 379.97 39.57 261.1 39.57 L261.11 39.56 Z " />
<glyph glyph-name="c" unicode="c" horiz-adv-x="472" d="M478.77 441.55 C449.84 464.38 406.64 481.75 350.01 481.75 C209.21 481.75 87.76 367.37 87.76 195.09 C87.76 64.97 165.09 -10.17 278.85 -10.17 C342.54 -10.17 395.12 12.96 434 43.29 L414.38 87.76 C386.48 67.19 346.02 41.33 286.48 41.33 C192.66 41.33 144.89 110.81 144.89 202.99 C144.89 322.88 229.67 430.83 342.98 430.83 C395.36 430.83 431.97 414.57 460.25 393 L478.77 441.55 Z " />
<glyph glyph-name="d" unicode="d" horiz-adv-x="546" d="M472.82 109.32 L549.89 659.32 L495.47 659.32 L467.05 456.47 C433.74 472.33 398.91 481.73 352.21 481.73 C199.38 481.73 87.35 374.56 87.35 188.15 C87.35 69.21 148.88 -10.18 254.06 -10.18 C315.22 -10.18 375.65 19.82 414.13 70.12 C412.63 38.88 416.53 9.92999 424.69 -9.27 L479.22 4.23999 C472.94 25.28 464.72 51.49 472.85 109.31 L472.82 109.32 Z M270.58 41.31 C191.32 41.95 144.44 102.78 144.44 196.26 C144.44 349.7 232.32 431.97 344.45 431.97 C399.53 431.97 431.6 417.52 459.18 400.11 L421.77 133.1 C388.74 82.93 334.89 40.73 270.58 41.3 L270.58 41.31 Z " />
<glyph glyph-name="e" unicode="e" horiz-adv-x="480" d="M294.25 41.33 C197.23 41.33 149.3 101.44 145.13 191.62 C156.31 191.13 168.47 190.87 183.15 190.87 C316.23 190.87 473.7 228.46 473.7 360.83 C473.7 434.88 421.63 481.75 335.34 481.75 C202.59 481.75 87.76 374.21 87.76 196.84 C87.76 61.47 165.21 -10.17 286.34 -10.17 C347.87 -10.17 399.57 11.41 440.87 46.26 L421.06 90.31 C388.58 62.19 348.89 41.33 294.26 41.33 L294.25 41.33 Z M330.63 430.83 C386.85 430.83 416.46 400.83 416.46 352.75 C416.46 265.4 300.49 237.98 195.7 237.75 C176.77 237.71 160.93 238.17 146.75 238.95 C159.07 348.16 230.2 430.81 330.64 430.81 L330.63 430.83 Z " />
<glyph glyph-name="f" unicode="f" horiz-adv-x="317" d="M341.06 612.58 C365.77 612.58 386.87 606.98 412.39 589.36 L433.19 635.64 C413.16 650.28 385.11 662.32 349.27 662.32 C276.39 662.32 195.39 618.07 178.84 500.65 L174.41 469.15 L110.77 469.15 L103.65 420.4 L167.55 420.4 L108.42 -0.0200043 L163.25 -0.0200043 L222.07 420.4 L347.7 420.4 L354.76 469.15 L228.9 469.15 L233.67 503.24 C245.06 584.56 297.34 612.56 341.05 612.56 L341.06 612.58 Z " />
<glyph glyph-name="g" unicode="g" horiz-adv-x="542" d="M352.54 481.75 C199.65 481.75 86.96 370.43 86.96 183.43 C86.96 65.77 146.34 -10.18 250.93 -10.18 C311.63 -10.18 372.35 17.88 412.19 68 L402.28 -2.68001 C390.2 -88.68 327.49 -142.78 232.66 -142.78 C179.37 -142.78 138.95 -130.81 102.98 -101.53 L76.01 -147.94 C117.27 -179.01 167.6 -192.11 225.5 -192.11 C344.92 -192.11 441.38 -120.24 457.86 -2.69003 L519.03 433.48 C466.11 466.39 422.15 481.73 352.55 481.73 L352.54 481.75 Z M421.13 131.7 C387.75 81.2 332.93 40.76 267.24 41.32 C188.45 41.9 143.94 99.17 143.94 191.19 C143.94 345.57 232.68 431.99 344.6 431.99 C400.62 431.99 432.41 419.28 459.01 401.87 L421.13 131.7 Z " />
<glyph glyph-name="h" unicode="h" horiz-adv-x="545" d="M357.67 481.75 C288.76 481.75 231.87 443.12 198.06 402.55 L234.12 659.34 L178.65 659.34 L86 0.00997925 L141.53 0.00997925 L189.21 339.55 C205.6 364.8 259.91 429.68 342.03 429.68 C428.31 429.68 460.55 378.14 446.13 273.76 L408.3 0.00997925 L463.88 0.00997925 L504.05 287.59 C521.85 414.57 469.58 481.75 357.66 481.75 L357.67 481.75 Z " />
<glyph glyph-name="i" unicode="i" horiz-adv-x="242" d="M253.41 611.33 C253.41 632.7 238.33 649.63 217.18 649.63 C190.16 649.63 167.43 627.26 167.43 600.73 C167.43 578.96 183.36 562.3 204.66 562.3 C230.18 562.3 253.4 584.33 253.4 611.33 L253.41 611.33 Z M221.53 469.17 L110.19 469.17 L103.07 420.42 L158.89 420.42 L100.03 -1.52588e-05 L155.5 -1.52588e-05 L221.53 469.17 Z " />
<glyph glyph-name="j" unicode="j" horiz-adv-x="224" d="M249.86 611.33 C249.86 632.7 234.79 649.63 213.64 649.63 C186.62 649.63 163.89 627.26 163.89 600.73 C163.89 578.96 179.82 562.3 201.12 562.3 C226.64 562.3 249.86 584.33 249.86 611.33 L249.86 611.33 Z M218.05 469.17 L102.42 469.17 L95.3 420.42 L155.27 420.42 L92.87 -34.21 C83.7 -100.75 41.73 -144.33 -7.51999 -144.33 C-38.82 -144.33 -57.69 -130.72 -73.01 -115.51 L-104.08 -157.18 C-88.48 -172.21 -58.35 -194.08 -7.87999 -194.08 C67.12 -194.08 132.29 -140.51 147.06 -35.51 L218.05 469.17 Z " />
<glyph glyph-name="k" unicode="k" horiz-adv-x="473" d="M387.76 87.5 L274.15 264.93 L499.36 469.17 L429.29 469.17 L174.85 240.84 L233.66 659.34 L178.66 659.34 L86.01 0.00999451 L141.01 0.00999451 L164.23 165.24 L231.83 226.55 L344.1 52.43 C368.89 14.4 400.79 0.0699921 447.92 0.0699921 L454.92 48.76 C431.14 48.76 409.6 53.65 387.77 87.51 L387.76 87.5 Z " />
<glyph glyph-name="l" unicode="l" horiz-adv-x="254" d="M233.58 659.33 L177.41 659.33 L99.08 98.58 C88.01 19.72 120.87 -8.17 179.05 -8.17 C200.42 -8.17 217.53 -3.75999 228 -0.179993 L234.82 46.92 C226.53 44.3 213.16 40.33 193.29 40.33 C162.46 40.33 148.86 54.84 154.55 95.33 L233.58 659.33 Z " />
<glyph glyph-name="m" unicode="m" horiz-adv-x="832" d="M654.75 481.75 C577.66 481.75 519.11 434.12 484.79 392.5 C467.89 451.63 421.94 481.75 352.18 481.75 C284.64 481.75 230.23 442.64 197.93 401.8 C199.04 432.16 194.85 460.86 186.82 479.68 L131.82 466.17 C138.12 445.13 146.24 418.92 138.11 361.1 L87.45 0.0100098 L142.98 0.0100098 L190.62 339.54 C206.59 364.78 256.87 429.67 336.56 429.67 C413.28 429.67 445.26 379.38 430.59 273.75 L392.76 1.52588e-05 L448.34 1.52588e-05 L488.51 287.58 C491.06 305.74 492.22 322.65 492.05 338.3 C508.25 363.88 559.33 429.67 639.15 429.67 C715.87 429.67 747.76 379.38 733.18 273.75 L695.35 1.52588e-05 L750.93 1.52588e-05 L791.1 287.58 C809.01 415.81 758.01 481.74 654.8 481.74 L654.75 481.75 Z " />
<glyph glyph-name="n" unicode="n" horiz-adv-x="547" d="M359.67 481.75 C289.66 481.75 232.06 441.87 198.46 400.6 C199.72 431.4 195.53 460.6 187.39 479.67 L132.39 466.16 C138.69 445.12 146.81 418.91 138.68 361.09 L88.02 0 L143.55 0 L191.18 339.46 C207.51 364.65 261.85 429.66 344.05 429.66 C430.33 429.66 462.57 378.12 448.15 273.74 L410.32 -0.00999451 L465.9 -0.00999451 L506.07 287.57 C523.87 414.55 471.6 481.73 359.68 481.73 L359.67 481.75 Z " />
<glyph glyph-name="o" unicode="o" horiz-adv-x="554" d="M286.84 -10.17 C426.06 -10.17 530.65 99.66 530.65 269.5 C530.65 390.8 456.76 481.74 332.07 481.74 C198.34 481.74 88.34 371.43 88.34 201.2 C88.34 79.06 162.59 -10.17 286.85 -10.17 L286.84 -10.17 Z M294.17 41.33 C194.93 41.33 145.19 111.52 145.19 206.24 C145.19 340.97 222.37 430.24 324.77 430.24 C423.68 430.24 473.73 359.68 473.73 264.21 C473.73 132.59 397.75 41.31 294.17 41.31 L294.17 41.33 Z " />
<glyph glyph-name="p" unicode="p" horiz-adv-x="547" d="M359.77 481.75 C300.43 481.75 238.61 452.5 198.48 400.92 C199.8 431.92 195.6 460.61 187.28 479.68 L132.7 466.17 C139.04 445.13 147.21 418.92 139.12 361.1 L61.58 -189.74 L116.7 -189.74 L144.91 10.88 C178.29 -3.14999 212.89 -10.15 257.58 -10.15 C415.69 -10.15 525.03 108.97 525.03 291.04 C525.03 411.27 466.01 481.77 359.77 481.77 L359.77 481.75 Z M265.72 39.6 C211.28 39.6 179.45 51.98 153.03 68.69 L191.06 339.12 C223.71 387.5 278.44 430.27 343.41 430.27 C423.65 430.27 468.05 377.99 468.05 283.69 C468.05 134.02 382.83 39.61 265.71 39.61 L265.72 39.6 Z " />
<glyph glyph-name="q" unicode="q" horiz-adv-x="543" d="M352.81 481.75 C199.96 481.75 87.17 370.43 87.17 183.43 C87.17 65.77 146.55 -10.18 251.18 -10.18 C311.94 -10.18 372.75 17.97 412.58 68.24 L376.32 -189.76 L431.32 -189.76 L518.92 433.55 C466.26 466.32 422.34 481.74 352.8 481.74 L352.81 481.75 Z M267.49 41.32 C188.7 41.32 144.13 99.17 144.13 191.19 C144.13 345.57 232.83 431.99 344.89 431.99 C400.47 431.99 432.32 419.5 459.46 401.93 L421.53 132.07 C388.51 82.14 332.82 41.33 267.48 41.33 L267.49 41.32 Z " />
<glyph glyph-name="r" unicode="r" horiz-adv-x="361" d="M355.58 481.81 C283.28 481.81 229.59 433.44 196.92 382.9 C200.95 419.9 197.07 456.98 187.38 479.67 L132.29 466.16 C138.59 445.12 146.79 418.91 138.66 361.09 L88 1.52588e-05 L143.53 1.52588e-05 L186.75 309.17 C202.97 345.13 251.16 426.52 341.41 426.52 C358.48 426.52 374.08 422.33 383.71 417.71 L405.13 472.92 C392.3 478.45 371.93 481.81 355.58 481.81 L355.58 481.81 Z " />
<glyph glyph-name="s" unicode="s" horiz-adv-x="445" d="M298.47 481.75 C189.34 481.75 111.48 428.73 111.48 346.12 C111.48 182.03 354.45 248.1 354.45 130.44 C354.45 79.6 306.28 39.57 223.62 39.57 C148.74 39.57 108.47 67.65 85.78 89.03 L56.99 43.2 C87.64 14.92 140.26 -10.17 215.81 -10.17 C333.13 -10.17 410.13 46.2 410.13 139.57 C410.13 301.95 167.58 241.51 167.58 351.89 C167.58 398.66 216.42 431.99 291.14 431.99 C348.36 431.99 386.06 417.58 416.88 399.42 L435.26 447.99 C408.07 463.62 366.73 481.73 298.45 481.73 L298.47 481.75 Z " />
<glyph glyph-name="t" unicode="t" horiz-adv-x="366" d="M221.57 423.33 L373.87 423.33 L380.42 469.16 L228.02 469.16 L245.72 594.83 L187.9 581.66 L172.12 469.17 L98.1 469.17 L91.49 423.34 L165.69 423.34 L126.12 141.23 C111.53 37.37 161.84 -10.16 240.32 -10.16 C293.8 -10.16 330.18 11.11 353.6 31.09 L334.15 72.96 C316.18 57.89 287.22 39.58 252.52 39.58 C207.78 39.58 169.58 59.58 183.32 151.75 L221.57 423.33 Z " />
<glyph glyph-name="u" unicode="u" horiz-adv-x="541" d="M467.52 109.28 L517.95 469.16 L462.43 469.16 L416.48 142.69 C400.3 116.44 348.96 41.96 262.27 41.96 C176.98 41.96 151.16 92.12 165.46 196.03 L203.13 469.15 L147.55 469.15 L107.55 182.19 C89.81 56.32 140.83 -10.12 246.71 -10.12 C320.43 -10.12 375.25 33.21 408 78.11 C405.54 44.31 409.82 11.47 418.64 -9.31 L474.08 4.24001 C467.78 25.28 459.4 51.45 467.55 109.27 L467.52 109.28 Z " />
<glyph glyph-name="v" unicode="v" horiz-adv-x="488" d="M452.97 469.17 L253.36 60.54 L163.52 469.17 L101.17 469.17 L211.7 0 L277.34 0 L517.32 469.17 L452.97 469.17 Z " />
<glyph glyph-name="w" unicode="w" horiz-adv-x="713" d="M682.23 469.17 L509.3 61.41 L451.13 469.17 L390.92 469.17 L222.97 61.66 L163.2 469.13 L103.75 469.13 L181.93 -0.0399933 L247.04 -0.0399933 L411.89 392.33 L467.78 -0.0399933 L532.21 -0.0399933 L741 469.13 L682.23 469.17 Z " />
<glyph glyph-name="x" unicode="x" horiz-adv-x="467" d="M486.18 469.17 L422.47 469.17 L272.76 279.38 L168.1 469.17 L104.38 469.17 L231.07 239.96 L34.58 -1.52588e-05 L97.64 -1.52588e-05 L261.17 198.98 L371.68 -1.52588e-05 L436.84 -1.52588e-05 L301 239.41 L486.18 469.17 Z " />
<glyph glyph-name="y" unicode="y" horiz-adv-x="538" d="M461.24 469.17 L415.38 142.14 C398.63 115.37 345.77 41.98 259.29 41.98 C176.16 41.98 149.78 92.18 164.16 196.09 L201.99 469.17 L146.41 469.17 L106.24 182.25 C88.41 56.37 136.3 -10.11 243.57 -10.11 C317.78 -10.11 373.07 32.56 406.26 77.1 L395.07 -2.67001 C383.03 -88.67 321.08 -142.77 226.25 -142.77 C172.96 -142.77 132.49 -130.8 96.58 -101.52 L69.51 -147.93 C110.77 -179 161.2 -192.1 219.1 -192.1 C338.48 -192.1 434.22 -119.98 450.66 -2.68004 L516.83 469.15 L461.24 469.17 Z " />
<glyph glyph-name="z" unicode="z" horiz-adv-x="453" d="M463.88 469.17 L121.4 469.17 L114.6 422 L396.64 422 L56.87 55.17 L48.91 0 L403.49 0 L410.43 47.17 L118.81 47.17 L455.9 413.54 L463.88 469.17 Z " />
<glyph glyph-name="braceleft" unicode="&#x7b;" horiz-adv-x="313" d="M333.54 682 C250.89 682 211.37 639.26 200.49 560.17 L173.99 367 C166.31 311.14 144.16 284.5 102.9 284.5 L82.45 284.5 L74.59 229.5 L95 229.5 C137.09 229.5 150.82 202.76 143 147 L115.5 -46.17 C106.25 -111.04 131.06 -168 214.04 -168 L247.83 -168 L255 -118.08 L221.97 -118.08 C179.44 -118.08 164.83 -93.59 171.49 -46.16 L198.57 147.01 C205.14 193.19 196.66 234.26 166.09 256.93 C203.22 279.57 223.13 320.72 229.56 367.02 L256.06 560.19 C262.4 606.41 285.04 632.11 327.22 632.11 L360.25 632.11 L367.33 682.03 L333.54 682 Z " />
<glyph glyph-name="bar" unicode="&#x7c;" horiz-adv-x="243" d="M85.58 -76.75 L135.17 -76.75 L241.9 681.25 L192.31 681.25 L85.58 -76.75 Z " />
<glyph glyph-name="braceright" unicode="&#x7d;" horiz-adv-x="313" d="M289.73 284.5 C247.64 284.5 234.73 311.24 242.4 367 L268.9 560.17 C278.23 627.79 251.88 682 170.65 682 L136.86 682 L129.73 632.08 L162.76 632.08 C205.28 632.08 219.8 606.5 213.32 560.17 L186.82 367 C180.4 320.7 188.61 279.62 219.03 256.99 C182.2 234.33 162.38 193.23 155.82 146.99 L128.32 -46.18 C121.99 -90.47 96.35 -118.1 57.54 -118.1 L24.51 -118.1 L17.33 -168.02 L51.12 -168.02 C135.39 -168.02 173.52 -118.68 183.9 -46.19 L211.4 146.98 C219.23 202.74 239.75 229.48 281.78 229.48 L302.23 229.48 L310.15 284.48 L289.73 284.5 Z " />
<glyph glyph-name="asciitilde" unicode="&#x7e;" horiz-adv-x="546" d="M143.2 180.41 C167.25 213.47 192.37 226.87 225.86 226.87 C279.53 226.87 311.7 181.87 377.59 181.87 C426.71 181.87 475.03 207.96 504.78 255.56 L466.18 281.04 C444.39 252.12 418.39 232.95 385 232.95 C330.26 232.95 292.88 277.95 229.79 277.95 C180.86 277.95 136.9 252.97 107.37 206.77 L143.2 180.41 Z " />
<glyph glyph-name="exclamdown" unicode="&#xa1;" horiz-adv-x="237" d="M228.31 454.09 C228.31 477.81 211.31 496.83 187.92 496.83 C159.81 496.83 133.59 471.8 133.59 442.48 C133.59 418.87 150.59 399.84 174 399.84 C202.09 399.84 228.31 424.9 228.31 454.1 L228.31 454.09 Z M66.59 -157.83 L125.46 -157.83 L186.05 326.59 L141.92 326.59 L66.59 -157.83 Z " />
<glyph glyph-name="cent" unicode="&#xa2;" horiz-adv-x="486" d="M474.13 469.9 L492.7 518.61 C464.46 541.25 422.63 557.97 367.77 558.78 L381.01 652.96 L335.62 652.96 L321.97 555.93 C198.11 538.44 102.91 442 102.91 283.67 C102.91 172.53 164.85 102.75 256.11 87.65 L242.03 -12.5 L287.42 -12.5 L301.08 84.63 C362.29 86.11 412.41 109.2 450.6 138.02 L430.11 184.35 C402.7 164.03 363.3 140.69 308.67 138.56 L360.3 505.72 C411.62 505.13 446.65 491.96 474.13 469.91 L474.13 469.9 Z M159.99 291.64 C159.99 393.22 218.13 481.43 314.31 501.48 L263.75 141.95 C195.46 156.01 159.99 211.04 159.99 291.65 L159.99 291.64 Z " />
<glyph glyph-name="sterling" unicode="&#xa3;" horiz-adv-x="538" d="M396.61 603.08 C450.24 603.08 490.87 584.65 522.65 554.28 L559.57 595.16 C525 628.78 480.31 653.99 402.59 653.99 C268.91 653.99 178.79 567.85 178.79 423.68 C178.79 393.58 181.54 360.72 183.3 328.91 L108.17 328.91 L101.27 280.16 L184.71 280.16 C183.97 230.98 171.7 139.77 127.77 50.91 L69.3 50.91 L61.91 -0.00997925 L478.63 -0.00997925 L486.02 50.91 L185.04 50.91 C218.4 122.02 238.86 202.9 239.95 280.15 L419.87 280.15 L426.77 328.9 L238.79 328.9 C237.17 362.18 234.5 396.62 234.5 426.88 C234.5 529.01 298.02 603.07 396.6 603.07 L396.61 603.08 Z " />
<glyph glyph-name="currency" unicode="&#xa4;" horiz-adv-x="615" d="M549.43 471.19 L612.86 529.64 L575.77 572.42 L513.22 515.17 C480.34 544.37 436.74 561.58 386.25 561.58 C332.59 561.58 282.75 545.54 241.49 517.59 L196.41 573.6 L150.53 533.1 L195.15 477.22 C153.85 431.36 128.69 369.88 128.69 300.61 C128.69 258.34 139.34 219.81 158.47 187.99 L96.68 131.13 L132.36 88.86 L193.84 145.15 C226.72 115.8 270.4 98.49 321.02 98.49 C374.34 98.49 424.18 114.89 465.55 143.19 L509.49 88.87 L555.33 129.37 L511.8 183.67 C553.28 229.73 578.72 291.12 578.72 359.37 C578.72 401.28 568.25 439.51 549.43 471.18 L549.43 471.19 Z M182.71 307.05 C182.71 424.07 271.6 510.07 377.67 510.07 C464.82 510.07 523.76 444.05 523.76 354.15 C523.76 240.49 429.56 151.15 327.53 151.15 C241.18 151.15 182.71 217.09 182.71 307.04 L182.71 307.05 Z " />
<glyph glyph-name="yen" unicode="&#xa5;" horiz-adv-x="551" d="M601.83 642 L539.47 642 L329.39 345.67 L322.29 334.02 L318.14 345.63 L190.67 642.01 L130.44 642.01 L273.58 313.47 L154.54 313.47 L148.18 268.8 L284.11 268.8 L273.72 195.13 L137.88 195.13 L131.58 150.46 L267.42 150.46 L246.2 1.52588e-05 L302.89 1.52588e-05 L324.11 150.46 L458.24 150.46 L464.54 195.13 L330.4 195.13 L340.79 268.8 L474.84 268.8 L481.2 313.47 L364.22 313.47 L601.83 642 Z " />
<glyph glyph-name="brokenbar" unicode="&#xa6;" horiz-adv-x="241" d="M149.03 377.75 L198.54 377.42 L241.32 681.25 L191.73 681.25 L149.03 377.75 Z M85 -76.75 L134.59 -76.75 L177.33 227.08 L127.74 227.08 L85 -76.75 Z " />
<glyph glyph-name="section" unicode="&#xa7;" horiz-adv-x="519" d="M342.18 602.77 C408.48 602.77 450.5 584.7 488.33 557.92 L523.95 602.67 C485.52 631.26 433.52 654.42 349.82 654.42 C220.58 654.42 140.97 591.17 140.97 498.86 C140.97 457.09 157.52 427.9 182.69 405.87 C139.13 377.85 111.71 337.27 111.71 284.62 C111.71 111.97 400.59 160.72 400.59 29.95 C400.59 -27.07 338.87 -69.6 255.61 -69.6 C173.39 -69.6 130.5 -46.2 96.37 -19.5 L60.09 -63.62 C96.25 -93.25 150.61 -121.25 247.92 -121.25 C381.12 -121.25 456.87 -53.85 456.87 38.78 C456.87 75.36 444.14 102.21 424.03 122.99 C464.88 153.68 485.8 198.66 485.8 249.48 C485.8 420.79 197.83 378.37 197.83 504.96 C197.83 561.73 256.94 602.76 342.2 602.76 L342.18 602.77 Z M429.23 239.04 C429.23 207.39 413.56 175.99 378.98 155.72 C293.6 201.48 168.57 209.93 168.57 293.34 C168.57 326.41 190.43 358.5 224.91 378.04 C310.01 334.23 429.24 322.86 429.24 239.05 L429.23 239.04 Z " />
<glyph glyph-name="dieresis" unicode="&#xa8;" horiz-adv-x="364" d="M202.56 607.2 C202.56 627.22 188.81 642.87 169.1 642.87 C143.97 642.87 122.34 622.08 122.34 596.71 C122.34 575.81 136.99 560.49 157.36 560.49 C181.32 560.49 202.57 581.07 202.57 607.2 L202.56 607.2 Z M390.99 607.03 C390.99 627.17 376.66 642.88 356.89 642.88 C332.46 642.88 310.65 622.09 310.65 596.72 C310.65 575.82 325.26 560.5 345.1 560.5 C368.98 560.5 390.98 580.96 390.98 607.03 L390.99 607.03 Z " />
<glyph glyph-name="copyright" unicode="&#xa9;" horiz-adv-x="738" d="M723.58 374.72 C723.58 533.6 619.9 650.17 461.04 650.17 C246.07 650.17 102.46 471.1 102.46 258.84 C102.46 95.87 209.61 -21.03 366.74 -21.03 C576.67 -21.03 723.59 155.74 723.59 374.72 L723.58 374.72 Z M675.59 363.21 C675.59 184.59 547.84 24.92 373.17 24.92 C234.47 24.92 150.47 126.2 150.47 267.49 C150.47 445.59 276.94 604.22 454.62 604.22 C595.37 604.22 675.6 505.25 675.6 363.22 L675.59 363.21 Z M562.93 477.39 C541.44 496.16 505.06 512.68 455.59 512.68 C339.51 512.68 243.57 426.23 243.57 283.21 C243.57 183.58 305.39 119.48 399.17 119.48 C453.62 119.48 495.79 138.96 527.14 163.18 L507.66 206.71 C483.11 187.38 451.35 170.51 406.78 170.51 C339.21 170.51 302.84 220.49 302.84 291.07 C302.84 388.17 359.29 461.83 451.07 461.83 C490.16 461.83 517.84 451.63 543.91 429.08 L562.93 477.39 Z " />
<glyph glyph-name="ordfeminine" unicode="&#xaa;" horiz-adv-x="392" d="M274.05 664.88 C228.37 664.88 192.12 652.44 168.48 640.89 L173.23 600.13 C203.09 613.81 231.02 620.69 263.79 620.69 C314.87 620.69 341.87 599.11 335.7 549.25 L332.87 526.42 L258.41 526.42 C174.29 526.42 121.93 487.25 121.93 420.71 C121.93 369.88 158.91 341.94 210.51 341.94 C256.51 341.94 291.79 365.75 315.82 394.87 C315.74 369.56 320.22 351.11 326.84 342.06 L375.06 354.2 C368.06 367.72 362.59 383.94 367.94 422.02 L381.36 516.52 L381.06 516.52 L385.19 545.27 C397.71 632.42 349.93 664.89 274.05 664.89 L274.05 664.88 Z M228.43 381.01 C193.08 381.01 173.47 398.62 173.47 428 C173.47 463.33 197.67 492.54 257.51 492.54 L327.66 492.54 L321.4 448.29 C310.52 414.36 275.25 381.04 228.43 381.04 L228.43 381.01 Z " />
<glyph glyph-name="guillemotleft" unicode="&#xab;" horiz-adv-x="441" d="M89.33 255.92 L194.72 104.09 L232.47 130.8 L150.82 253.01 L271.05 377.03 L237.56 407.76 L89.33 255.92 Z M237.56 255.93 L342.95 104.1 L380.7 130.81 L299.05 253.02 L419.28 377.04 L385.79 407.77 L237.56 255.93 Z " />
<glyph glyph-name="registered" unicode="&#xae;" horiz-adv-x="738" d="M461.03 650.17 C246.06 650.17 102.45 471.1 102.45 258.84 C102.45 95.87 209.6 -21.03 366.73 -21.03 C576.66 -21.03 723.58 155.74 723.58 374.72 C723.58 533.6 619.9 650.17 461.04 650.17 L461.03 650.17 Z M373.16 24.92 C234.46 24.92 150.46 126.2 150.46 267.49 C150.46 445.59 276.93 604.22 454.61 604.22 C595.36 604.22 675.59 505.25 675.59 363.22 C675.59 184.6 547.84 24.93 373.17 24.93 L373.16 24.92 Z M571.67 412.85 C571.67 478.09 529.3 515.66 446.35 515.66 L330.66 515.66 L275.99 126.78 L324.18 126.78 L345.9 281.3 L407.27 281.3 L449.75 174.18 C466.11 133.37 488.98 125.03 531.75 125.03 L538.18 170.41 C516.92 170.41 503.98 179.87 495.16 203.01 L462.59 286.78 C529.46 302.03 571.65 348.13 571.65 412.84 L571.67 412.85 Z M418.52 323.87 L351.87 324.22 L372.87 473.29 L442.32 473.29 C494.95 473.29 520.59 450.62 520.59 407.33 C520.59 362.36 491.34 323.45 418.52 323.86 L418.52 323.87 Z " />
<glyph glyph-name="macron" unicode="&#xaf;" horiz-adv-x="341" d="M121.63 568.67 L360.87 568.67 L367.51 614.84 L128.27 614.84 L121.63 568.67 Z " />
<glyph glyph-name="degree" unicode="&#xb0;" horiz-adv-x="336" d="M232.63 449.5 C302.38 449.5 358.35 506.17 358.35 577.37 C358.35 633.34 317.2 677.74 261.84 677.74 C195.54 677.74 135.75 624.3 135.75 549.97 C135.75 495.03 176.63 449.49 232.63 449.49 L232.63 449.5 Z M236.9 487.41 C200.23 487.41 174.3 518.25 174.3 554.96 C174.3 603.84 213.28 640.24 257.13 640.24 C295.37 640.24 320.47 611.09 320.47 573.5 C320.47 527.33 284.64 487.41 236.9 487.41 L236.9 487.41 Z " />
<glyph glyph-name="plusminus" unicode="&#xb1;" horiz-adv-x="541" d="M342.46 326.79 L364.13 480.62 L311.6 480.62 L289.96 326.79 L123.5 326.79 L116.48 278.46 L283.16 278.46 L261.11 121.71 L313.58 121.71 L335.66 278.46 L502.1 278.46 L509.08 326.79 L342.46 326.79 Z M77.01 -1.75 L463.17 -1.75 L470.13 46.58 L83.93 46.58 L77.01 -1.75 Z " />
<glyph glyph-name="acute" unicode="&#xb4;" horiz-adv-x="243" d="M131.03 525.83 L295.24 634.83 L262.46 684.68 L108.31 558.74 L131.03 525.83 Z " />
<glyph glyph-name="paragraph" unicode="&#xb6;" horiz-adv-x="569" d="M452.84 642 L343.44 642 C203.17 642 106.09 540.08 106.09 412.95 C106.09 306.77 177.98 237 285.29 237 L346.34 237 L315.84 20 L365.45 20 L452.84 642 Z M512.1 642 L428.32 45.83 C418.14 -26.72 381.76 -67.87 303.04 -67.87 L295.94 -117.04 C408.15 -117.04 462.98 -60.64 477.98 45.83 L561.72 642 L512.1 642 Z " />
<glyph glyph-name="periodcentered" unicode="&#xb7;" horiz-adv-x="242" d="M160.52 283.5 C187.1 283.5 212.05 306.52 212.05 334.32 C212.05 356.53 195.67 374.09 173.44 374.09 C146.85 374.09 122 351.16 122 323.53 C122 301.03 138.23 283.51 160.53 283.51 L160.52 283.5 Z " />
<glyph glyph-name="cedilla" unicode="&#xb8;" horiz-adv-x="257" d="M111.25 6.42 L73.78 -68.08 C116.27 -69.98 140.76 -81.55 140.76 -108.33 C140.76 -137.86 116.24 -150.17 84.04 -150.17 C64.93 -150.17 49.64 -143.39 39.64 -136.92 L19.51 -173.42 C28.57 -180.59 54.23 -189.53 83.3 -189.53 C138.8 -189.53 190.9 -166.37 190.9 -104.52 C190.9 -65.59 161.19 -45.4 127.59 -39.34 L150.41 6.41 L111.25 6.42 Z " />
<glyph glyph-name="ordmasculine" unicode="&#xba;" horiz-adv-x="410" d="M252.48 342.08 C346.06 342.08 423.58 417.62 423.58 529.1 C423.58 611.7 375.97 664.78 300.29 664.78 C205.86 664.78 128.75 589.68 128.75 477.21 C128.75 394.78 176.61 342.07 252.49 342.07 L252.48 342.08 Z M260.15 386.4 C207.21 386.4 177.53 424.09 177.53 482.24 C177.53 562.32 223.71 620.44 293 620.44 C345.94 620.44 374.74 582.01 374.74 524.12 C374.74 443.12 329.72 386.41 260.16 386.41 L260.15 386.4 Z " />
<glyph glyph-name="guillemotright" unicode="&#xbb;" horiz-adv-x="442" d="M275.78 255.92 L170.35 407.75 L131.26 380.23 L213.09 259.57 L93.26 134.91 L127.52 104.09 L275.78 255.92 Z M424.09 255.92 L318.66 407.75 L279.57 380.23 L361.4 259.57 L241.57 134.91 L275.83 104.09 L424.09 255.92 Z " />
<glyph glyph-name="onequarter" unicode="&#xbc;" horiz-adv-x="694" d="M620.46 642 L115.04 0 L168.49 0 L673.97 642 L620.46 642 Z M216.56 585.55 L171.34 263.58 L222.23 263.58 L275.3 641.37 L235.3 641.37 L123.54 583.41 L138.14 545.12 L216.56 585.55 Z M649.81 377.83 L602.88 377.83 L381.86 124.69 L375.28 78.44 L560.72 78.44 L549.68 0.0400085 L596.66 0.0400085 L607.68 78.44 L650.84 78.44 L657.3 123.41 L614.01 123.41 L649.81 377.83 Z M434.81 123.41 L592.14 301.66 L567.05 123.41 L434.81 123.41 Z " />
<glyph glyph-name="onehalf" unicode="&#xbd;" horiz-adv-x="737" d="M617.75 642 L112.33 0 L165.78 0 L671.2 642 L617.75 642 Z M216.09 585.58 L170.81 263.58 L221.64 263.58 L274.82 641.37 L234.75 641.37 L122.99 583.41 L137.53 545.12 L216.09 585.58 Z M518.64 42.48 L531.64 51.95 C640.46 152.62 705.83 209 705.83 288.59 C705.83 342.41 663.6 380.74 603.6 380.74 C556.47 380.74 513.34 353.49 488.97 328.82 L513.38 297.24 C533.77 315.82 560.4 335.65 596.9 335.65 C637.09 335.65 656.05 311.5 656.05 280.22 C656.05 226.72 618.8 191.16 449.78 36.86 L444.5 0.030014 L685.27 0.030014 L691.65 44.53 L537.67 44.53 L518.64 42.48 Z " />
<glyph glyph-name="threequarters" unicode="&#xbe;" horiz-adv-x="749" d="M356.24 389.82 C356.24 432.76 329.77 461.04 295.8 471.33 C332.8 483.26 362.21 516.52 362.21 564.52 C362.21 614.78 319.63 652.92 259.3 652.92 C207.46 652.92 168.55 632.04 141.77 603.45 L169.22 574.31 C193.08 594.42 217.29 609.27 249.83 609.27 C290.16 609.27 313.56 585.8 313.56 555.52 C313.56 496.76 257.84 488.21 221.36 488.21 L197.65 488.21 L192.27 451.19 L223.31 451.33 C276.09 450.63 309.91 435.28 309.91 387.95 C309.91 333.12 262.08 305.12 213.1 305.12 C168.27 305.12 145.95 321.12 127.42 341.64 L94.89 307.91 C111.7 289.39 151.01 263.63 207.23 263.63 C287.09 263.63 356.22 304.29 356.22 389.86 L356.24 389.82 Z M673.53 642.04 L168.11 0.0399933 L221.52 0.0399933 L726.94 642.04 L673.53 642.04 Z M708.59 377.83 L661.61 377.83 L440.65 124.69 L434.02 78.44 L619.51 78.44 L608.49 0.0399933 L655.41 0.0399933 L666.45 78.44 L709.6 78.44 L716.06 123.41 L672.78 123.41 L708.59 377.83 Z M493.56 123.41 L650.91 301.74 L625.83 123.41 L493.56 123.41 Z " />
<glyph glyph-name="questiondown" unicode="&#xbf;" horiz-adv-x="444" d="M366.16 454.09 C366.16 477.81 349.25 496.83 325.77 496.83 C297.66 496.83 271.47 471.8 271.47 442.48 C271.47 418.87 288.54 399.84 311.95 399.84 C340.04 399.84 366.16 424.9 366.16 454.1 L366.16 454.09 Z M392.51 -88.08 L362.34 -49.28 C332 -80.21 287.66 -111.3 227.84 -111.3 C151.71 -111.3 106.49 -57.7 106.49 12.72 C106.49 109.14 176.29 182.97 297.01 182.97 L306.76 182.97 L326.94 326.36 L272.41 326.36 L258.88 229.43 C118.88 211.01 50.84 116.31 50.84 8.84003 C50.84 -97.26 127.35 -163.09 221.94 -163.09 C289.49 -163.15 348.78 -134.65 392.51 -88.02 L392.51 -88.08 Z " />
<glyph glyph-name="Agrave" unicode="&#xc0;" horiz-adv-x="584" d="M475.51 711.57 L321.29 795.5 L291.06 739.98 L458.99 677.37 L475.51 711.57 Z M489.57 -0.0100098 L550.5 -0.0100098 L408.33 641.99 L351.82 641.99 L36.33 -0.0100098 L98.1 -0.0100098 L191.69 193.66 L448.87 193.66 L489.57 -0.0100098 Z M215.24 242.41 L356.3 534.31 L371.3 566.08 L377.33 534.08 L438.62 242.41 L215.24 242.41 Z " />
<glyph glyph-name="Aacute" unicode="&#xc1;" horiz-adv-x="584" d="M494.35 739.28 L478.74 799.54 L302.21 718.21 L312.28 677.38 L494.35 739.28 Z M489.56 -1.52588e-05 L550.49 -1.52588e-05 L408.32 642 L351.81 642 L36.32 -1.52588e-05 L98.09 -1.52588e-05 L191.68 193.67 L448.86 193.67 L489.56 -1.52588e-05 Z M215.23 242.42 L356.29 534.32 L371.29 566.09 L377.32 534.09 L438.61 242.42 L215.23 242.42 Z " />
<glyph glyph-name="Acircumflex" unicode="&#xc2;" horiz-adv-x="584" d="M398.98 750.67 L486.56 676.63 L511.33 705.01 L421.79 794.93 L383 794.93 L268.35 705.41 L292.13 676.59 L398.98 750.67 Z M489.56 0 L550.49 0 L408.32 642 L351.81 642 L36.32 0 L98.09 0 L191.68 193.67 L448.86 193.67 L489.56 0 Z M215.23 242.42 L356.29 534.32 L371.29 566.09 L377.32 534.09 L438.61 242.42 L215.23 242.42 Z " />
<glyph glyph-name="Atilde" unicode="&#xc3;" horiz-adv-x="584" d="M333.91 739 C370.76 739 401.39 699.17 450.03 699.17 C493.29 699.17 524.76 721.25 543.29 760.31 L504.05 776.68 C492.63 757.39 477.08 745.76 451.08 745.76 C415.27 745.76 383.78 786.18 335.76 786.18 C294.49 786.18 261.19 762.8 240.9 722.62 L282.3 706.56 C296.48 726.88 310.56 739.01 333.91 739.01 L333.91 739 Z M489.57 0.0100098 L550.5 0.0100098 L408.33 642.01 L351.82 642.01 L36.33 0.0100098 L98.1 0.0100098 L191.69 193.68 L448.87 193.68 L489.57 0.0100098 Z M215.24 242.43 L356.3 534.33 L371.3 566.1 L377.33 534.1 L438.62 242.43 L215.24 242.43 Z " />
<glyph glyph-name="Adieresis" unicode="&#xc4;" horiz-adv-x="584" d="M301.98 704.83 C326.58 704.83 348.06 724.94 348.06 750.6 C348.06 770.33 334.31 785.75 313.55 785.75 C288.05 785.75 267.48 765.31 267.48 740.41 C267.48 719.92 282.01 704.84 301.97 704.84 L301.98 704.83 Z M477.45 704.84 C502.05 704.84 523.53 724.95 523.53 750.61 C523.53 770.34 509.78 785.76 488.98 785.76 C463.52 785.76 442.95 765.32 442.95 740.42 C442.95 719.93 457.44 704.85 477.44 704.85 L477.45 704.84 Z M489.55 0.019989 L550.48 0.019989 L408.31 642.02 L351.8 642.02 L36.31 0.019989 L98.08 0.019989 L191.67 193.69 L448.85 193.69 L489.55 0.019989 Z M215.22 242.44 L356.28 534.34 L371.28 566.11 L377.31 534.11 L438.6 242.44 L215.22 242.44 Z " />
<glyph glyph-name="Aring" unicode="&#xc5;" horiz-adv-x="584" d="M384.31 654.67 C440.69 654.67 482.19 698.85 482.19 757.81 C482.19 801.86 452.42 837.5 409.2 837.5 C350.98 837.5 309.78 790.54 309.78 734.37 C309.78 690.37 338.89 654.67 384.31 654.67 L384.31 654.67 Z M403.14 799.21 C429.92 799.21 442.82 778.58 442.82 754.45 C442.82 724.03 423.39 693.54 388.94 693.54 C362.51 693.54 348.77 714.72 348.77 738.59 C348.77 768.5 369.14 799.21 403.14 799.21 L403.14 799.21 Z M489.57 -3.05176e-05 L550.5 -3.05176e-05 L408.33 642 L351.82 642 L36.33 -3.05176e-05 L98.1 -3.05176e-05 L191.69 193.67 L448.87 193.67 L489.57 -3.05176e-05 Z M215.24 242.42 L356.3 534.32 L371.3 566.09 L377.33 534.09 L438.62 242.42 L215.24 242.42 Z " />
<glyph glyph-name="AE" unicode="&#xc6;" horiz-adv-x="837" d="M851.75 590.92 L859.22 642 L474.16 642 L5.87001 0 L69.93 0 L211.26 193.67 L441.35 193.67 L414.11 0 L779.96 0 L787.37 51.08 L476.5 51.08 L512.29 306.75 L781.96 306.75 L789.33 357.83 L519.44 357.83 L552.07 590.91 L851.75 590.92 Z M246.84 242.41 L496.29 584.25 L448.21 242.41 L246.84 242.41 Z " />
<glyph glyph-name="Ccedilla" unicode="&#xc7;" horiz-adv-x="577" d="M437.68 602.33 C499.11 602.33 540.39 584.3 577.14 551.49 L613.6 594.16 C576.99 628.7 524.72 654.41 445.05 654.41 C261.2 654.41 103.32 506.74 103.32 268.08 C103.32 117.54 181.27 6.87001 321.45 -8.37999 L291.41 -68.1 C333.9 -70 358.39 -81.57 358.39 -108.35 C358.39 -137.88 333.87 -150.19 301.67 -150.19 C282.56 -150.19 267.27 -143.41 257.27 -136.94 L237.15 -173.44 C246.21 -180.61 271.87 -189.55 300.94 -189.55 C356.44 -189.55 408.54 -166.39 408.54 -104.54 C408.54 -65.61 378.83 -45.42 345.23 -39.36 L359.79 -10.17 C442.88 -9.07999 502.88 23.38 544.77 57.21 L521.77 102.11 C480.91 69.39 428.85 41.88 360.98 41.88 C237.91 41.88 161.83 134.77 161.83 274.4 C161.83 475.13 293.62 602.3 437.69 602.3 L437.68 602.33 Z " />
<glyph glyph-name="Egrave" unicode="&#xc8;" horiz-adv-x="525" d="M473.56 711.57 L319.34 795.5 L289.11 739.98 L457.04 677.37 L473.56 711.57 Z M539.82 590.91 L547.29 641.99 L192.47 641.99 L102.17 -0.0100098 L468.02 -0.0100098 L475.43 51.07 L164.56 51.07 L200.35 306.74 L470.02 306.74 L477.39 357.82 L207.5 357.82 L240.13 590.9 L539.82 590.91 Z " />
<glyph glyph-name="Eacute" unicode="&#xc9;" horiz-adv-x="525" d="M492.4 739.28 L476.79 799.54 L300.26 718.21 L310.34 677.38 L492.4 739.28 Z M539.82 590.92 L547.29 642 L192.47 642 L102.17 -1.52588e-05 L468.02 -1.52588e-05 L475.43 51.08 L164.56 51.08 L200.35 306.75 L470.02 306.75 L477.39 357.83 L207.5 357.83 L240.13 590.91 L539.82 590.92 Z " />
<glyph glyph-name="Ecircumflex" unicode="&#xca;" horiz-adv-x="525" d="M397.03 750.67 L484.61 676.63 L509.38 705.01 L419.84 794.93 L381.05 794.93 L266.4 705.41 L290.18 676.59 L397.03 750.67 Z M539.81 590.92 L547.28 642 L192.46 642 L102.16 0 L468.01 0 L475.42 51.08 L164.55 51.08 L200.34 306.75 L470.01 306.75 L477.38 357.83 L207.49 357.83 L240.12 590.91 L539.81 590.92 Z " />
<glyph glyph-name="Edieresis" unicode="&#xcb;" horiz-adv-x="525" d="M300.02 704.83 C324.62 704.83 346.1 724.94 346.1 750.6 C346.1 770.33 332.35 785.75 311.59 785.75 C286.09 785.75 265.52 765.31 265.52 740.41 C265.52 719.92 280.05 704.84 300.01 704.84 L300.02 704.83 Z M475.49 704.84 C500.09 704.84 521.57 724.95 521.57 750.61 C521.57 770.34 507.82 785.76 487.02 785.76 C461.56 785.76 440.99 765.32 440.99 740.42 C440.99 719.93 455.48 704.85 475.48 704.85 L475.49 704.84 Z M539.79 590.93 L547.26 642.01 L192.44 642.01 L102.14 0.00999451 L467.99 0.00999451 L475.4 51.09 L164.53 51.09 L200.32 306.76 L469.99 306.76 L477.36 357.84 L207.47 357.84 L240.1 590.92 L539.79 590.93 Z " />
<glyph glyph-name="Igrave" unicode="&#xcc;" horiz-adv-x="312" d="M334.59 711.57 L180.31 795.5 L150.02 739.98 L317.95 677.37 L334.59 711.57 Z M336.59 593.24 L343.75 641.99 L148.24 641.99 L141.12 593.24 L211.33 593.24 L134.79 48.74 L65.05 48.74 L57.99 -0.0100098 L253.5 -0.0100098 L260.56 48.74 L190.27 48.74 L266.86 593.24 L336.59 593.24 Z " />
<glyph glyph-name="Iacute" unicode="&#xcd;" horiz-adv-x="312" d="M366.47 739.28 L350.86 799.54 L174.33 718.21 L184.41 677.38 L366.47 739.28 Z M343.76 642 L148.25 642 L141.13 593.25 L211.34 593.25 L134.8 48.75 L65.06 48.75 L58 -1.52588e-05 L253.51 -1.52588e-05 L260.57 48.75 L190.28 48.75 L266.87 593.25 L336.6 593.25 L343.76 642 Z " />
<glyph glyph-name="Icircumflex" unicode="&#xce;" horiz-adv-x="312" d="M285 794.93 L247.04 794.93 L138.76 705.29 L162.09 676.81 L262.6 750.68 L343.81 676.64 L368.13 704.77 L285 794.93 Z M343.75 642.02 L148.24 642.02 L141.12 593.27 L211.33 593.27 L134.79 48.77 L65.05 48.77 L57.99 0.0200043 L253.5 0.0200043 L260.56 48.77 L190.27 48.77 L266.86 593.27 L336.59 593.27 L343.75 642.02 Z " />
<glyph glyph-name="Idieresis" unicode="&#xcf;" horiz-adv-x="313" d="M187.86 704.83 C212.4 704.83 233.88 724.94 233.88 750.6 C233.88 770.33 220.27 785.75 199.22 785.75 C174.14 785.75 153.37 765.31 153.37 740.41 C153.37 719.92 167.8 704.84 187.86 704.84 L187.86 704.83 Z M337.86 785.76 C312.88 785.76 291.9 765.32 291.9 740.42 C291.9 719.93 306.33 704.85 326.39 704.85 C350.93 704.85 372.41 724.96 372.41 750.62 C372.41 770.35 358.72 785.77 337.86 785.77 L337.86 785.76 Z M344.13 642.02 L148.62 642.02 L141.55 593.27 L211.73 593.27 L135.23 48.77 L65.4899 48.77 L58.4299 0.019989 L253.94 0.019989 L261 48.77 L190.7 48.77 L267.25 593.27 L337.02 593.27 L344.13 642.02 Z " />
<glyph glyph-name="Eth" unicode="&#xd0;" horiz-adv-x="644" d="M363.48 642 L191.78 642 L150.25 346.59 L80.35 346.59 L73.57 298.96 L143.56 298.96 L101.53 -1.52588e-05 L278.33 -1.52588e-05 C497.87 -1.52588e-05 629.84 159.14 629.84 375.31 C629.84 534.38 532.5 642 363.48 642 L363.48 642 Z M287.68 50.5 L164.09 50.5 L199.04 298.96 L307.9 298.96 L314.74 346.59 L205.74 346.59 L240.03 590.34 L356.34 590.34 C500.4 590.34 570.66 501.08 570.66 368.97 C570.66 185.75 456.13 50.5 287.68 50.5 L287.68 50.5 Z " />
<glyph glyph-name="Ntilde" unicode="&#xd1;" horiz-adv-x="657" d="M379.66 739 C416.51 739 447.14 699.17 495.78 699.17 C539.04 699.17 570.51 721.25 589.04 760.31 L549.8 776.68 C538.38 757.39 522.83 745.76 496.83 745.76 C461.02 745.76 429.53 786.18 381.51 786.18 C340.24 786.18 306.94 762.8 286.65 722.62 L328.05 706.56 C342.23 726.88 356.31 739.01 379.66 739.01 L379.66 739 Z M591.23 642.01 L519.12 125.97 L515.63 94.64 L506.59 116.22 L245.42 642.01 L192.26 642.01 L102 0.0100098 L155.48 0.0100098 L228.45 522.34 L232.17 552.64 L241.93 526.75 L502.7 1.52588e-05 L554.51 1.52588e-05 L644.71 642 L591.23 642.01 Z " />
<glyph glyph-name="Ograve" unicode="&#xd2;" horiz-adv-x="700" d="M518.39 677.38 L534.91 711.57 L380.68 795.5 L350.45 739.98 L518.39 677.38 Z M441.2 654.41 C246.37 654.41 102.26 473.69 102.26 265.77 C102.26 105.94 194.15 -10.18 347.8 -10.18 C552.26 -10.18 687.3 172.65 687.3 381.68 C687.3 542.23 594.28 654.4 441.2 654.4 L441.2 654.41 Z M433.93 602.84 C559.07 602.84 629.79 515.39 629.79 378.63 C629.79 199.85 522.61 42.81 355.09 41.43 C229.81 40.39 159.79 134.18 159.79 268.83 C159.79 447.46 273.07 602.84 433.94 602.84 L433.93 602.84 Z " />
<glyph glyph-name="Oacute" unicode="&#xd3;" horiz-adv-x="700" d="M371.69 677.38 L553.76 739.29 L538.15 799.55 L361.62 718.22 L371.69 677.38 Z M441.21 654.43 C246.38 654.43 102.27 473.71 102.27 265.79 C102.27 105.96 194.16 -10.16 347.81 -10.16 C552.27 -10.16 687.31 172.67 687.31 381.7 C687.31 542.25 594.29 654.42 441.21 654.42 L441.21 654.43 Z M433.94 602.86 C559.08 602.86 629.8 515.41 629.8 378.65 C629.8 199.87 522.62 42.83 355.1 41.45 C229.82 40.41 159.8 134.2 159.8 268.85 C159.8 447.48 273.08 602.86 433.95 602.86 L433.94 602.86 Z " />
<glyph glyph-name="Ocircumflex" unicode="&#xd4;" horiz-adv-x="700" d="M481.21 794.93 L442.42 794.93 L327.77 705.41 L351.55 676.59 L458.39 750.67 L545.97 676.63 L570.74 705.01 L481.21 794.93 Z M441.2 654.43 C246.37 654.43 102.26 473.71 102.26 265.79 C102.26 105.96 194.15 -10.16 347.8 -10.16 C552.26 -10.16 687.3 172.67 687.3 381.7 C687.3 542.25 594.28 654.42 441.2 654.42 L441.2 654.43 Z M433.93 602.86 C559.07 602.86 629.79 515.41 629.79 378.65 C629.79 199.87 522.61 42.83 355.09 41.45 C229.81 40.41 159.79 134.2 159.79 268.85 C159.79 447.48 273.07 602.86 433.94 602.86 L433.93 602.86 Z " />
<glyph glyph-name="Otilde" unicode="&#xd5;" horiz-adv-x="700" d="M563.46 776.68 C552.04 757.39 536.49 745.76 510.49 745.76 C474.68 745.76 443.19 786.18 395.17 786.18 C353.9 786.18 320.6 762.8 300.31 722.62 L341.71 706.56 C355.89 726.88 369.97 739.01 393.32 739.01 C430.17 739.01 460.8 699.18 509.44 699.18 C552.7 699.18 584.17 721.26 602.7 760.32 L563.46 776.68 Z M441.21 654.43 C246.38 654.43 102.27 473.71 102.27 265.79 C102.27 105.96 194.16 -10.16 347.81 -10.16 C552.27 -10.16 687.31 172.67 687.31 381.7 C687.31 542.25 594.29 654.42 441.21 654.42 L441.21 654.43 Z M433.94 602.86 C559.08 602.86 629.8 515.41 629.8 378.65 C629.8 199.87 522.62 42.83 355.1 41.45 C229.82 40.41 159.8 134.2 159.8 268.85 C159.8 447.48 273.08 602.86 433.95 602.86 L433.94 602.86 Z " />
<glyph glyph-name="Odieresis" unicode="&#xd6;" horiz-adv-x="700" d="M407.47 750.6 C407.47 770.33 393.72 785.75 372.96 785.75 C347.46 785.75 326.89 765.31 326.89 740.41 C326.89 719.92 341.42 704.84 361.38 704.84 C385.98 704.84 407.46 724.95 407.46 750.61 L407.47 750.6 Z M582.94 750.61 C582.94 770.34 569.19 785.76 548.39 785.76 C522.93 785.76 502.36 765.32 502.36 740.42 C502.36 719.93 516.85 704.85 536.85 704.85 C561.45 704.85 582.93 724.96 582.93 750.62 L582.94 750.61 Z M441.19 654.44 C246.36 654.44 102.25 473.72 102.25 265.8 C102.25 105.97 194.14 -10.15 347.79 -10.15 C552.25 -10.15 687.29 172.68 687.29 381.71 C687.29 542.26 594.27 654.43 441.19 654.43 L441.19 654.44 Z M433.92 602.87 C559.06 602.87 629.78 515.42 629.78 378.66 C629.78 199.88 522.6 42.84 355.08 41.46 C229.8 40.42 159.78 134.21 159.78 268.86 C159.78 447.49 273.06 602.87 433.93 602.87 L433.92 602.87 Z " />
<glyph glyph-name="multiply" unicode="&#xd7;" horiz-adv-x="484" d="M465.93 385.6 L434.56 422.5 L281.02 283.84 L167.86 420.95 L128.74 386.49 L242.32 248.88 L88.48 109.94 L119.81 73 L273.17 211.51 L386.65 74.02 L425.71 108.52 L311.87 246.46 L465.93 385.6 Z " />
<glyph glyph-name="Oslash" unicode="&#xd8;" horiz-adv-x="708" d="M740.68 624.75 L706.52 660.16 L622.76 578.04 C580.64 626.1 520.28 654.42 445.58 654.42 C253.4 654.42 107.02 483.58 107.02 271.82 C107.02 210.61 120.38 155.18 145.33 109.99 L56.64 23.04 L89.81 -15.29 L174.45 67.94 C216.55 19.08 277.03 -10.16 352.06 -10.16 C543.6 -10.16 690.65 163.87 690.65 373.69 C690.65 436.17 677.01 492.03 651.59 537.15 L740.68 624.75 Z M164.62 274.73 C164.62 461.63 276.84 602.92 437.91 602.92 C500.36 602.92 549.1 579.19 582.25 538.33 L188.25 152.06 C172.71 186.97 164.62 228.61 164.62 274.73 L164.62 274.73 Z M633.08 370.34 C633.08 184.78 520.05 41.46 359.56 41.46 C297.02 41.46 248.1 66.01 214.91 107.72 L608.8 495.06 C624.8 459.93 633.1 417.64 633.1 370.35 L633.08 370.34 Z " />
<glyph glyph-name="Ugrave" unicode="&#xd9;" horiz-adv-x="645" d="M495.68 677.38 L512.21 711.57 L357.98 795.5 L327.75 739.98 L495.68 677.38 Z M321.67 -10.17 C462.05 -10.17 562.36 84.53 586.01 253.5 L640.43 642 L585.43 642 L531.01 253.5 C513.93 131.64 442.06 43.67 329.53 43.67 C214.69 43.67 170.43 131.3 187.51 253.51 L241.93 642.01 L185.18 642.01 L130.76 253.51 C107.48 87.8 184.9 -10.16 321.66 -10.16 L321.67 -10.17 Z " />
<glyph glyph-name="Uacute" unicode="&#xda;" horiz-adv-x="645" d="M348.98 677.38 L531.05 739.29 L515.44 799.55 L338.91 718.22 L348.98 677.38 Z M321.67 -10.15 C462.05 -10.15 562.36 84.55 586.01 253.52 L640.43 642.02 L585.43 642.02 L531.01 253.52 C513.93 131.66 442.06 43.69 329.53 43.69 C214.69 43.69 170.43 131.32 187.51 253.53 L241.93 642.03 L185.18 642.03 L130.76 253.53 C107.48 87.82 184.9 -10.14 321.66 -10.14 L321.67 -10.15 Z " />
<glyph glyph-name="Ucircumflex" unicode="&#xdb;" horiz-adv-x="645" d="M458.49 794.93 L419.7 794.93 L305.05 705.41 L328.83 676.59 L435.67 750.67 L523.25 676.63 L548.02 705.01 L458.49 794.93 Z M321.64 -10.16 C462.02 -10.16 562.33 84.54 585.98 253.51 L640.4 642.01 L585.4 642.01 L530.98 253.51 C513.9 131.65 442.03 43.68 329.5 43.68 C214.66 43.68 170.4 131.31 187.48 253.52 L241.9 642.02 L185.15 642.02 L130.73 253.52 C107.45 87.81 184.87 -10.15 321.63 -10.15 L321.64 -10.16 Z " />
<glyph glyph-name="Udieresis" unicode="&#xdc;" horiz-adv-x="645" d="M384.75 750.6 C384.75 770.33 371 785.75 350.24 785.75 C324.74 785.75 304.17 765.31 304.17 740.41 C304.17 719.92 318.7 704.84 338.66 704.84 C363.26 704.84 384.74 724.95 384.74 750.61 L384.75 750.6 Z M560.22 750.61 C560.22 770.34 546.47 785.76 525.67 785.76 C500.21 785.76 479.64 765.32 479.64 740.42 C479.64 719.93 494.13 704.85 514.13 704.85 C538.73 704.85 560.21 724.96 560.21 750.62 L560.22 750.61 Z M321.64 -10.15 C462.02 -10.15 562.33 84.55 585.98 253.52 L640.4 642.02 L585.4 642.02 L530.98 253.52 C513.9 131.66 442.03 43.69 329.5 43.69 C214.66 43.69 170.4 131.32 187.48 253.53 L241.9 642.03 L185.15 642.03 L130.73 253.53 C107.45 87.82 184.87 -10.14 321.63 -10.14 L321.64 -10.15 Z " />
<glyph glyph-name="Yacute" unicode="&#xdd;" horiz-adv-x="567" d="M486.98 739.28 L471.37 799.54 L294.84 718.21 L304.91 677.38 L486.98 739.28 Z M617.35 642 L552.75 642 L338.25 330.45 L328.12 314.87 L322.53 329.76 L188.13 641.99 L124.58 641.99 L292.71 259.87 L256.12 -0.010025 L311.59 -0.010025 L348.24 259.9 L617.35 642 Z " />
<glyph glyph-name="Thorn" unicode="&#xde;" horiz-adv-x="544" d="M331.92 529.42 L232.44 529.42 L248.37 642.84 L192.9 642.84 L102.58 0.00999451 L158.11 0.00999451 L175.99 127.34 L282.03 127.34 C452.52 127.34 543.4 215.09 543.4 358.2 C543.4 458.59 469.6 529.42 331.92 529.42 L331.92 529.42 Z M288.68 176.67 L182.91 176.67 L225.35 478.92 L324.55 478.92 C437.02 478.92 484.33 427.98 484.33 350.14 C484.33 244.97 420.7 176.67 288.68 176.67 L288.68 176.67 Z " />
<glyph glyph-name="germandbls" unicode="&#xdf;" horiz-adv-x="563" d="M383.17 665 C268.7 665 170.54 601.27 152.41 472.09 L85.99 0.0100098 L140.41 0.0100098 L206.83 472.09 C219.36 561.26 286.93 614.68 375.91 614.68 C452.82 614.68 495.42 583.85 495.42 537.85 C495.42 438.17 299.2 471.04 299.2 325.72 C299.2 201.53 481.3 228.35 481.3 123.76 C481.3 76.76 445.03 39.43 375 39.43 C333.02 39.43 298.51 55.68 275.43 86.68 L237.87 47.18 C257 18.3 306.26 -9.33 370.15 -9.33 C473.86 -9.33 536.36 48.12 536.36 131.34 C536.36 264.57 355.43 251.75 355.01 332.17 C354.55 421.42 550.18 396.29 550.18 542.42 C550.18 617.06 480.32 665.01 383.16 665.01 L383.17 665 Z " />
<glyph glyph-name="agrave" unicode="&#xe0;" horiz-adv-x="544" d="M441.08 555.28 L323.45 682.34 L280.47 634.83 L414.17 525.66 L441.08 555.28 Z M472.17 109.49 L518 433.49 C467.83 467.74 422.37 481.74 352.87 481.74 C199.92 481.74 87.19 370.42 87.19 183.42 C87.19 65.76 146.52 -10.19 251.21 -10.19 C311.99 -10.19 372.78 17.97 412.64 68.27 C411.2 33.85 418.26 5.77 425.66 -9.28 L480.62 4.23 C472.76 25.27 464.04 51.71 472.17 109.48 L472.17 109.49 Z M267.5 41.31 C188.88 41.95 144.2 97.06 144.2 191.3 C144.2 345.56 232.84 431.98 344.86 431.98 C400.09 431.98 431.8 419.59 458.2 402.53 L419.73 129.35 C386.35 79.95 333.11 40.76 267.49 41.32 L267.5 41.31 Z " />
<glyph glyph-name="aacute" unicode="&#xe1;" horiz-adv-x="544" d="M459.12 634.83 L426.34 684.68 L272.19 558.74 L294.92 525.83 L459.12 634.83 Z M472.16 109.5 L517.99 433.5 C467.82 467.75 422.36 481.75 352.86 481.75 C199.91 481.75 87.18 370.43 87.18 183.43 C87.18 65.77 146.51 -10.18 251.2 -10.18 C311.98 -10.18 372.77 17.98 412.63 68.28 C411.19 33.86 418.25 5.78 425.65 -9.27 L480.61 4.23999 C472.75 25.28 464.03 51.72 472.16 109.49 L472.16 109.5 Z M267.49 41.32 C188.87 41.96 144.19 97.07 144.19 191.31 C144.19 345.57 232.83 431.99 344.85 431.99 C400.08 431.99 431.79 419.6 458.19 402.54 L419.72 129.36 C386.34 79.96 333.1 40.77 267.48 41.33 L267.49 41.32 Z " />
<glyph glyph-name="acircumflex" unicode="&#xe2;" horiz-adv-x="544" d="M374.33 623.63 L453.87 530.06 L486.13 559.67 L398.81 673.2 L359.38 673.2 L239.98 561.33 L268.07 531.31 L374.33 623.63 Z M472.16 109.5 L517.99 433.5 C467.82 467.75 422.36 481.75 352.86 481.75 C199.91 481.75 87.18 370.43 87.18 183.43 C87.18 65.77 146.51 -10.18 251.2 -10.18 C311.98 -10.18 372.77 17.98 412.63 68.28 C411.19 33.86 418.25 5.78 425.65 -9.27 L480.61 4.23999 C472.75 25.28 464.03 51.72 472.16 109.49 L472.16 109.5 Z M267.49 41.32 C188.87 41.96 144.19 97.07 144.19 191.31 C144.19 345.57 232.83 431.99 344.85 431.99 C400.08 431.99 431.79 419.6 458.19 402.54 L419.72 129.36 C386.34 79.96 333.1 40.77 267.48 41.33 L267.49 41.32 Z " />
<glyph glyph-name="atilde" unicode="&#xe3;" horiz-adv-x="544" d="M314.11 599.92 C349.09 599.92 376.47 561.34 423.94 561.34 C468.41 561.34 500.21 585.26 518.33 627.28 L478.13 643.35 C467.38 621.72 451.5 608.34 424.66 608.34 C389.98 608.34 363.36 647.51 316.22 647.51 C274.95 647.51 240.98 623.01 221.27 580.99 L263.21 564.77 C275.85 586.34 291.3 599.93 314.11 599.93 L314.11 599.92 Z M517.98 433.51 C467.81 467.76 422.35 481.76 352.85 481.76 C199.9 481.76 87.17 370.44 87.17 183.44 C87.17 65.78 146.5 -10.17 251.19 -10.17 C311.97 -10.17 372.76 17.99 412.62 68.29 C411.18 33.87 418.24 5.78999 425.64 -9.26001 L480.6 4.24998 C472.74 25.29 464.02 51.73 472.15 109.5 L517.98 433.51 Z M267.48 41.33 C188.86 41.97 144.18 97.08 144.18 191.32 C144.18 345.58 232.82 432 344.84 432 C400.07 432 431.78 419.61 458.18 402.55 L419.71 129.37 C386.33 79.97 333.09 40.78 267.47 41.34 L267.48 41.33 Z " />
<glyph glyph-name="adieresis" unicode="&#xe4;" horiz-adv-x="544" d="M269.85 560.5 C293.81 560.5 315.06 581.08 315.06 607.21 C315.06 627.23 301.31 642.88 281.6 642.88 C256.47 642.88 234.84 622.09 234.84 596.72 C234.84 575.82 249.49 560.5 269.86 560.5 L269.85 560.5 Z M457.59 560.5 C481.47 560.5 503.47 580.96 503.47 607.03 C503.47 627.17 489.14 642.88 469.37 642.88 C444.94 642.88 423.13 622.09 423.13 596.72 C423.13 575.82 437.74 560.5 457.58 560.5 L457.59 560.5 Z M472.15 109.5 L517.98 433.5 C467.81 467.75 422.35 481.75 352.85 481.75 C199.9 481.75 87.17 370.43 87.17 183.43 C87.17 65.77 146.5 -10.18 251.19 -10.18 C311.97 -10.18 372.76 17.98 412.62 68.28 C411.18 33.86 418.24 5.78004 425.64 -9.26996 L480.6 4.24004 C472.74 25.28 464.02 51.72 472.15 109.49 L472.15 109.5 Z M267.48 41.32 C188.86 41.96 144.18 97.07 144.18 191.31 C144.18 345.57 232.82 431.99 344.84 431.99 C400.07 431.99 431.78 419.6 458.18 402.54 L419.71 129.36 C386.33 79.9601 333.09 40.7701 267.47 41.33 L267.48 41.32 Z " />
<glyph glyph-name="aring" unicode="&#xe5;" horiz-adv-x="544" d="M356.4 510.42 C416.28 510.42 456.5 558.55 456.5 613.88 C456.5 658.18 426.97 694.09 382.39 694.09 C324.17 694.09 281.25 647.63 281.25 590.63 C281.25 546.33 310.87 510.42 356.4 510.42 L356.4 510.42 Z M376.85 655.84 C404.15 655.84 418.12 634.99 418.12 610.17 C418.12 579.17 396.37 549.25 361.94 549.25 C335.18 549.25 320.24 570.65 320.24 595.14 C320.24 626.45 341.86 655.83 376.86 655.83 L376.85 655.84 Z M472.16 109.5 L517.99 433.5 C467.82 467.75 422.36 481.75 352.86 481.75 C199.91 481.75 87.18 370.43 87.18 183.43 C87.18 65.77 146.51 -10.18 251.2 -10.18 C311.98 -10.18 372.77 17.98 412.63 68.28 C411.19 33.86 418.25 5.77998 425.65 -9.27002 L480.61 4.23997 C472.75 25.28 464.03 51.72 472.16 109.49 L472.16 109.5 Z M267.49 41.32 C188.87 41.96 144.19 97.07 144.19 191.31 C144.19 345.57 232.83 431.99 344.85 431.99 C400.08 431.99 431.79 419.6 458.19 402.54 L419.72 129.36 C386.34 79.96 333.1 40.77 267.48 41.33 L267.49 41.32 Z " />
<glyph glyph-name="ae" unicode="&#xe6;" horiz-adv-x="808" d="M782.82 228.29 C786.09 241.07 794.43 259.49 794.43 303.92 C794.43 410.63 728.95 481.8 629.19 481.8 C560.07 481.8 493.04 448.09 446 389.75 C427.52 457.17 366 481.75 290.93 481.75 C231.09 481.75 179.6 467.91 139.5 448.47 L144.47 399.09 C194.47 421.39 235.54 429.67 279.16 429.67 C358.59 429.67 406.48 396.83 394.37 309.92 L388.71 269.21 L388.42 267.92 L272.08 267.92 C140.96 267.92 65.49 210.35 65.49 110.23 C65.49 36.07 117.24 -10.15 196.97 -10.15 C276.25 -10.15 349.96 33.04 391.9 112.02 C416.92 33.27 481.09 -10.11 568.84 -10.11 C646.07 -10.11 699.82 16.44 739.7 45.31 L723.76 90.64 C694.62 69.18 652.96 41.39 577.61 41.39 C476.89 41.39 425.39 114.82 440.08 228.31 L782.82 228.29 Z M621.95 431.48 C701.86 431.48 748.44 370.6 734.72 272.39 L447.93 272.39 C468.97 362.16 535.22 431.47 621.94 431.47 L621.95 431.48 Z M214.47 39.0099 C156.99 39.0099 123.07 67.95 123.07 117.47 C123.07 176.97 158.3 222.62 266.33 223.26 L381.37 223.84 L371.45 151.66 C357.37 104.2 300.44 39 214.46 39 L214.47 39.0099 Z " />
<glyph glyph-name="ccedilla" unicode="&#xe7;" horiz-adv-x="472" d="M342.98 430.83 C395.36 430.83 431.97 414.57 460.25 393 L478.77 441.54 C449.84 464.37 406.64 481.74 350.01 481.74 C209.21 481.74 87.76 367.36 87.76 195.08 C87.76 74.51 154.16 1.13998 254.42 -8.97002 L224.68 -68.09 C267.17 -69.99 291.66 -81.56 291.66 -108.34 C291.66 -137.87 267.14 -150.18 234.94 -150.18 C215.83 -150.18 200.54 -143.4 190.54 -136.93 L170.42 -173.43 C179.48 -180.6 205.14 -189.54 234.21 -189.54 C289.71 -189.54 341.81 -166.38 341.81 -104.53 C341.81 -65.6 312.1 -45.41 278.5 -39.35 L293.24 -9.79001 C350.49 -6.62001 398.09 15.25 434 43.27 L414.38 87.74 C386.48 67.17 346.02 41.31 286.48 41.31 C192.66 41.31 144.89 110.79 144.89 202.97 C144.89 322.86 229.67 430.81 342.98 430.81 L342.98 430.83 Z " />
<glyph glyph-name="egrave" unicode="&#xe8;" horiz-adv-x="480" d="M427.63 555.28 L310 682.34 L267.02 634.83 L400.72 525.66 L427.63 555.28 Z M294.26 41.33 C197.24 41.33 149.31 101.44 145.14 191.62 C156.32 191.13 168.48 190.87 183.16 190.87 C316.24 190.87 473.71 228.46 473.71 360.83 C473.71 434.88 421.64 481.75 335.35 481.75 C202.6 481.75 87.77 374.21 87.77 196.84 C87.77 61.47 165.22 -10.17 286.35 -10.17 C347.88 -10.17 399.58 11.41 440.88 46.26 L421.07 90.31 C388.59 62.19 348.9 41.33 294.27 41.33 L294.26 41.33 Z M330.64 430.83 C386.86 430.83 416.47 400.83 416.47 352.75 C416.47 265.4 300.5 237.98 195.71 237.75 C176.78 237.71 160.94 238.17 146.76 238.95 C159.08 348.16 230.21 430.81 330.65 430.81 L330.64 430.83 Z " />
<glyph glyph-name="eacute" unicode="&#xe9;" horiz-adv-x="480" d="M445.67 634.83 L412.89 684.68 L258.74 558.74 L281.47 525.83 L445.67 634.83 Z M294.26 41.33 C197.24 41.33 149.31 101.44 145.14 191.62 C156.32 191.13 168.48 190.87 183.16 190.87 C316.24 190.87 473.71 228.46 473.71 360.83 C473.71 434.88 421.64 481.75 335.35 481.75 C202.6 481.75 87.77 374.21 87.77 196.84 C87.77 61.47 165.22 -10.17 286.35 -10.17 C347.88 -10.17 399.58 11.41 440.88 46.26 L421.07 90.31 C388.59 62.19 348.9 41.33 294.27 41.33 L294.26 41.33 Z M330.64 430.83 C386.86 430.83 416.47 400.83 416.47 352.75 C416.47 265.4 300.5 237.98 195.71 237.75 C176.78 237.71 160.94 238.17 146.76 238.95 C159.08 348.16 230.21 430.81 330.65 430.81 L330.64 430.83 Z " />
<glyph glyph-name="ecircumflex" unicode="&#xea;" horiz-adv-x="480" d="M360.88 623.63 L440.42 530.06 L472.68 559.67 L385.36 673.2 L345.93 673.2 L226.53 561.33 L254.62 531.31 L360.88 623.63 Z M294.26 41.34 C197.24 41.34 149.31 101.45 145.14 191.63 C156.32 191.14 168.48 190.88 183.16 190.88 C316.24 190.88 473.71 228.47 473.71 360.84 C473.71 434.89 421.64 481.76 335.35 481.76 C202.6 481.76 87.77 374.22 87.77 196.85 C87.77 61.48 165.22 -10.16 286.35 -10.16 C347.88 -10.16 399.58 11.42 440.88 46.27 L421.07 90.32 C388.59 62.2 348.9 41.34 294.27 41.34 L294.26 41.34 Z M330.64 430.84 C386.86 430.84 416.47 400.84 416.47 352.76 C416.47 265.41 300.5 237.99 195.71 237.76 C176.78 237.72 160.94 238.18 146.76 238.96 C159.08 348.17 230.21 430.82 330.65 430.82 L330.64 430.84 Z " />
<glyph glyph-name="edieresis" unicode="&#xeb;" horiz-adv-x="480" d="M256.4 560.5 C280.36 560.5 301.61 581.08 301.61 607.21 C301.61 627.23 287.86 642.88 268.15 642.88 C243.02 642.88 221.39 622.09 221.39 596.72 C221.39 575.82 236.04 560.5 256.41 560.5 L256.4 560.5 Z M455.93 642.88 C431.5 642.88 409.69 622.09 409.69 596.72 C409.69 575.82 424.3 560.5 444.14 560.5 C468.02 560.5 490.02 580.96 490.02 607.03 C490.02 627.17 475.69 642.88 455.92 642.88 L455.93 642.88 Z M473.69 360.84 C473.69 434.89 421.62 481.76 335.33 481.76 C202.58 481.76 87.75 374.22 87.75 196.85 C87.75 61.4801 165.2 -10.1599 286.33 -10.1599 C347.86 -10.1599 399.56 11.4201 440.86 46.2701 L421.05 90.3201 C388.57 62.2001 348.88 41.3401 294.25 41.3401 C197.23 41.3401 149.3 101.45 145.13 191.63 C156.31 191.14 168.47 190.88 183.15 190.88 C316.23 190.88 473.7 228.47 473.7 360.84 L473.69 360.84 Z M330.63 430.84 C386.85 430.84 416.46 400.84 416.46 352.76 C416.46 265.41 300.49 237.99 195.7 237.76 C176.77 237.72 160.93 238.18 146.75 238.96 C159.07 348.17 230.2 430.82 330.64 430.82 L330.63 430.84 Z " />
<glyph glyph-name="igrave" unicode="&#xec;" horiz-adv-x="242" d="M245.18 525.67 L272.04 555.29 L154.42 682.35 L111.48 634.84 L245.18 525.67 Z M221.55 469.17 L110.21 469.17 L103.09 420.42 L158.91 420.42 L100.05 0 L155.52 0 L221.55 469.17 Z " />
<glyph glyph-name="iacute" unicode="&#xed;" horiz-adv-x="242" d="M136.53 525.83 L300.74 634.83 L267.96 684.68 L113.81 558.74 L136.53 525.83 Z M222.38 469.17 L111.04 469.17 L103.92 420.42 L159.74 420.42 L100.88 0 L156.35 0 L222.38 469.17 Z " />
<glyph glyph-name="icircumflex" unicode="&#xee;" horiz-adv-x="241" d="M225.83 673.2 L187.48 673.2 L74.7 561.12 L102.33 531.3 L201.89 623.62 L274.76 530.05 L306.31 559.66 L225.83 673.2 Z M221.39 469.16 L110.05 469.16 L102.99 420.41 L158.81 420.41 L99.95 -0.0100098 L155.42 -0.0100098 L221.39 469.16 Z " />
<glyph glyph-name="idieresis" unicode="&#xef;" horiz-adv-x="242" d="M161 606.27 C161 626 147.13 641.42 127.42 641.42 C102.29 641.42 80.76 620.98 80.76 596.14 C80.76 575.59 95.43 560.51 115.9 560.51 C139.76 560.51 161.01 580.68 161.01 606.28 L161 606.27 Z M301.68 606.1 C301.68 625.95 287.25 641.42 267.48 641.42 C242.97 641.42 221.34 620.98 221.34 596.14 C221.34 575.59 236.01 560.51 256.12 560.51 C279.96 560.51 301.69 580.56 301.69 606.1 L301.68 606.1 Z M221.19 469.18 L109.85 469.18 L102.73 420.43 L158.65 420.43 L99.73 0.0100098 L155.26 0.0100098 L221.19 469.18 Z " />
<glyph glyph-name="eth" unicode="&#xf0;" horiz-adv-x="546" d="M396.57 575.12 L471.64 633.7 L450.6 663.55 L367.67 598.84 C337.29 621.55 301.64 641.87 260.1 659.09 L233.76 609.37 C267.59 595.86 297.23 580.74 322.99 563.98 L253.67 509.89 L274.69 480 L353.76 541.71 C404.49 500.78 436.14 451.45 452.2 393.38 C421.2 420.53 380.86 436.36 335.76 436.36 C198.76 436.36 85.96 324.49 85.96 180.61 C85.96 69.68 156.32 -10.18 266.44 -10.18 C396.8 -10.18 497.95 83.87 513.61 210.41 C532.75 335.64 508.58 474.12 396.56 575.11 L396.57 575.12 Z M275.93 41.91 C189.31 41.91 143.29 99.84 143.29 185.42 C143.29 296.65 222.39 384.28 326.32 384.28 C412.2 384.28 458.39 326.13 458.39 239.84 C458.39 134.06 383.91 41.93 275.93 41.93 L275.93 41.91 Z " />
<glyph glyph-name="ntilde" unicode="&#xf1;" horiz-adv-x="547" d="M301.91 599.92 C336.89 599.92 364.27 561.34 411.75 561.34 C456.22 561.34 488.02 585.26 506.14 627.28 L465.94 643.35 C455.19 621.72 439.31 608.34 412.47 608.34 C377.79 608.34 351.17 647.51 304.03 647.51 C262.76 647.51 228.79 623.01 209.08 580.99 L251.02 564.77 C263.66 586.34 279.11 599.93 301.92 599.93 L301.91 599.92 Z M359.68 481.76 C289.67 481.76 232.07 441.88 198.47 400.61 C199.73 431.41 195.54 460.61 187.4 479.68 L132.4 466.17 C138.7 445.13 146.82 418.92 138.69 361.1 L88.03 0.00999451 L143.56 0.00999451 L191.19 339.47 C207.52 364.66 261.86 429.67 344.06 429.67 C430.34 429.67 462.58 378.13 448.16 273.75 L410.33 0 L465.91 0 L506.08 287.58 C523.88 414.56 471.61 481.74 359.69 481.74 L359.68 481.76 Z " />
<glyph glyph-name="ograve" unicode="&#xf2;" horiz-adv-x="554" d="M406.38 525.67 L433.3 555.29 L315.67 682.35 L272.69 634.84 L406.38 525.67 Z M286.85 -10.16 C426.07 -10.16 530.66 99.67 530.66 269.51 C530.66 390.81 456.77 481.75 332.08 481.75 C198.35 481.75 88.35 371.44 88.35 201.21 C88.35 79.07 162.6 -10.16 286.86 -10.16 L286.85 -10.16 Z M294.18 41.34 C194.94 41.34 145.2 111.53 145.2 206.25 C145.2 340.98 222.38 430.25 324.78 430.25 C423.69 430.25 473.74 359.69 473.74 264.22 C473.74 132.6 397.76 41.32 294.18 41.32 L294.18 41.34 Z " />
<glyph glyph-name="oacute" unicode="&#xf3;" horiz-adv-x="554" d="M287.13 525.83 L451.34 634.83 L418.56 684.68 L264.41 558.74 L287.13 525.83 Z M286.84 -10.17 C426.06 -10.17 530.65 99.66 530.65 269.5 C530.65 390.8 456.76 481.74 332.07 481.74 C198.34 481.74 88.34 371.43 88.34 201.2 C88.34 79.06 162.59 -10.17 286.85 -10.17 L286.84 -10.17 Z M294.17 41.33 C194.93 41.33 145.19 111.52 145.19 206.24 C145.19 340.97 222.37 430.24 324.77 430.24 C423.68 430.24 473.73 359.68 473.73 264.21 C473.73 132.59 397.75 41.31 294.17 41.31 L294.17 41.33 Z " />
<glyph glyph-name="ocircumflex" unicode="&#xf4;" horiz-adv-x="554" d="M391.03 673.2 L351.6 673.2 L232.2 561.33 L260.29 531.31 L366.56 623.63 L446.1 530.06 L478.36 559.67 L391.03 673.2 Z M286.85 -10.16 C426.07 -10.16 530.66 99.67 530.66 269.51 C530.66 390.81 456.77 481.75 332.08 481.75 C198.35 481.75 88.35 371.44 88.35 201.21 C88.35 79.07 162.6 -10.16 286.86 -10.16 L286.85 -10.16 Z M294.18 41.34 C194.94 41.34 145.2 111.53 145.2 206.25 C145.2 340.98 222.38 430.25 324.78 430.25 C423.69 430.25 473.74 359.69 473.74 264.22 C473.74 132.6 397.76 41.32 294.18 41.32 L294.18 41.34 Z " />
<glyph glyph-name="otilde" unicode="&#xf5;" horiz-adv-x="554" d="M470.35 643.34 C459.6 621.71 443.72 608.33 416.88 608.33 C382.2 608.33 355.58 647.5 308.44 647.5 C267.17 647.5 233.2 623 213.49 580.98 L255.43 564.76 C268.07 586.33 283.52 599.92 306.33 599.92 C341.31 599.92 368.69 561.34 416.17 561.34 C460.64 561.34 492.44 585.26 510.56 627.28 L470.35 643.34 Z M286.85 -10.15 C426.07 -10.15 530.66 99.68 530.66 269.52 C530.66 390.82 456.77 481.76 332.08 481.76 C198.35 481.76 88.35 371.45 88.35 201.22 C88.35 79.08 162.6 -10.15 286.86 -10.15 L286.85 -10.15 Z M294.18 41.35 C194.94 41.35 145.2 111.54 145.2 206.26 C145.2 340.99 222.38 430.26 324.78 430.26 C423.69 430.26 473.74 359.7 473.74 264.23 C473.74 132.61 397.76 41.33 294.18 41.33 L294.18 41.35 Z " />
<glyph glyph-name="odieresis" unicode="&#xf6;" horiz-adv-x="554" d="M307.28 607.2 C307.28 627.22 293.53 642.87 273.82 642.87 C248.69 642.87 227.06 622.08 227.06 596.71 C227.06 575.81 241.71 560.49 262.08 560.49 C286.04 560.49 307.29 581.07 307.29 607.2 L307.28 607.2 Z M495.71 607.03 C495.71 627.17 481.38 642.88 461.61 642.88 C437.18 642.88 415.37 622.09 415.37 596.72 C415.37 575.82 429.98 560.5 449.82 560.5 C473.7 560.5 495.7 580.96 495.7 607.03 L495.71 607.03 Z M286.84 -10.16 C426.06 -10.16 530.65 99.67 530.65 269.51 C530.65 390.81 456.76 481.75 332.07 481.75 C198.34 481.75 88.34 371.44 88.34 201.21 C88.34 79.0701 162.59 -10.1599 286.85 -10.1599 L286.84 -10.16 Z M294.17 41.3401 C194.93 41.3401 145.19 111.53 145.19 206.25 C145.19 340.98 222.37 430.25 324.77 430.25 C423.68 430.25 473.73 359.69 473.73 264.22 C473.73 132.6 397.75 41.3201 294.17 41.3201 L294.17 41.3401 Z " />
<glyph glyph-name="divide" unicode="&#xf7;" horiz-adv-x="531" d="M314.3 343.83 C341.84 343.83 367.11 367.65 367.11 395.7 C367.11 418.35 350.52 436.92 327.5 436.92 C299.98 436.92 274.05 412.69 274.05 384.89 C274.05 361.99 290.8 343.84 314.31 343.84 L314.3 343.83 Z M102.43 212.13 L488.41 212.13 L495.31 260.46 L109.28 260.46 L102.43 212.13 Z M270.75 35.67 C298.25 35.67 323.68 59.57 323.68 87.62 C323.68 110.27 307.05 128.92 284.2 128.92 C256.62 128.92 230.62 104.6 230.62 76.84 C230.62 53.9 247.56 35.67 270.75 35.67 L270.75 35.67 Z " />
<glyph glyph-name="oslash" unicode="&#xf8;" horiz-adv-x="566" d="M578.83 464.54 L547.34 498.83 L474.62 426.6 C440.78 461.2 392.98 481.75 333.7 481.75 C199.97 481.75 89.97 371.44 89.97 201.21 C89.97 153.61 101.25 111.01 122.37 76.74 L53.26 8.09 L84.42 -28.54 L152.67 39.52 C186.18 8.13998 232.2 -10.17 288.48 -10.17 C427.7 -10.17 532.29 99.66 532.29 269.5 C532.29 314.5 522.12 355.32 502.96 388.87 L578.83 464.54 Z M146.81 206.24 C146.81 340.97 223.98 430.24 326.38 430.24 C373.66 430.24 409.78 414.11 434.6 386.85 L164.62 118.69 C152.75 143.69 146.81 173.5 146.81 206.24 L146.81 206.24 Z M475.34 264.22 C475.34 132.6 399.36 41.32 295.79 41.32 C251.48 41.32 217.04 55.32 192.49 79.24 L460.21 346.24 C470.29 322.39 475.35 294.56 475.35 264.21 L475.34 264.22 Z " />
<glyph glyph-name="ugrave" unicode="&#xf9;" horiz-adv-x="541" d="M425.98 555.28 L308.35 682.34 L265.37 634.83 L399.07 525.66 L425.98 555.28 Z M467.54 109.28 L517.97 469.16 L462.45 469.16 L416.5 142.69 C400.32 116.44 348.98 41.96 262.29 41.96 C177 41.96 151.18 92.12 165.48 196.03 L203.15 469.15 L147.57 469.15 L107.57 182.19 C89.83 56.32 140.85 -10.12 246.73 -10.12 C320.45 -10.12 375.27 33.21 408.02 78.11 C405.56 44.31 409.84 11.47 418.66 -9.31 L474.1 4.24001 C467.8 25.28 459.42 51.45 467.57 109.27 L467.54 109.28 Z " />
<glyph glyph-name="uacute" unicode="&#xfa;" horiz-adv-x="541" d="M444.02 634.83 L411.24 684.68 L257.09 558.74 L279.81 525.83 L444.02 634.83 Z M467.53 109.28 L517.96 469.16 L462.44 469.16 L416.49 142.69 C400.31 116.44 348.97 41.96 262.28 41.96 C176.99 41.96 151.17 92.12 165.47 196.03 L203.14 469.15 L147.56 469.15 L107.56 182.19 C89.82 56.32 140.84 -10.12 246.72 -10.12 C320.44 -10.12 375.26 33.21 408.01 78.11 C405.55 44.31 409.83 11.47 418.65 -9.31 L474.09 4.24001 C467.79 25.28 459.41 51.45 467.56 109.27 L467.53 109.28 Z " />
<glyph glyph-name="ucircumflex" unicode="&#xfb;" horiz-adv-x="541" d="M359.23 623.63 L438.77 530.06 L471.03 559.67 L383.71 673.2 L344.28 673.2 L224.88 561.33 L252.97 531.31 L359.23 623.63 Z M467.54 109.28 L517.97 469.16 L462.45 469.16 L416.5 142.69 C400.32 116.44 348.98 41.96 262.29 41.96 C177 41.96 151.18 92.12 165.48 196.03 L203.15 469.15 L147.57 469.15 L107.57 182.19 C89.83 56.32 140.85 -10.12 246.73 -10.12 C320.45 -10.12 375.27 33.21 408.02 78.11 C405.56 44.31 409.84 11.47 418.66 -9.31 L474.1 4.24001 C467.8 25.28 459.42 51.45 467.57 109.27 L467.54 109.28 Z " />
<glyph glyph-name="udieresis" unicode="&#xfc;" horiz-adv-x="541" d="M254.75 560.5 C278.71 560.5 299.96 581.08 299.96 607.21 C299.96 627.23 286.21 642.88 266.5 642.88 C241.37 642.88 219.74 622.09 219.74 596.72 C219.74 575.82 234.39 560.5 254.76 560.5 L254.75 560.5 Z M442.49 560.5 C466.37 560.5 488.37 580.96 488.37 607.03 C488.37 627.17 474.04 642.88 454.27 642.88 C429.84 642.88 408.03 622.09 408.03 596.72 C408.03 575.82 422.64 560.5 442.48 560.5 L442.49 560.5 Z M467.52 109.28 L517.95 469.16 L462.43 469.16 L416.48 142.69 C400.3 116.44 348.96 41.9601 262.27 41.9601 C176.98 41.9601 151.16 92.1201 165.46 196.03 L203.13 469.15 L147.55 469.15 L107.55 182.19 C89.81 56.3201 140.83 -10.1199 246.71 -10.1199 C320.43 -10.1199 375.25 33.2101 408 78.11 C405.54 44.31 409.82 11.47 418.64 -9.30995 L474.08 4.24005 C467.78 25.28 459.4 51.45 467.55 109.27 L467.52 109.28 Z " />
<glyph glyph-name="yacute" unicode="&#xfd;" horiz-adv-x="538" d="M437.25 634.83 L404.47 684.68 L250.32 558.74 L273.04 525.83 L437.25 634.83 Z M461.24 469.16 L415.38 142.13 C398.63 115.36 345.77 41.97 259.29 41.97 C176.16 41.97 149.78 92.17 164.16 196.08 L201.99 469.16 L146.41 469.16 L106.24 182.24 C88.41 56.36 136.3 -10.12 243.57 -10.12 C317.78 -10.12 373.07 32.55 406.26 77.09 L395.07 -2.68001 C383.03 -88.68 321.08 -142.78 226.25 -142.78 C172.96 -142.78 132.49 -130.81 96.58 -101.53 L69.51 -147.94 C110.77 -179.01 161.2 -192.11 219.1 -192.11 C338.48 -192.11 434.22 -119.99 450.66 -2.69003 L516.83 469.14 L461.24 469.16 Z " />
<glyph glyph-name="thorn" unicode="&#xfe;" horiz-adv-x="544" d="M357.4 481.75 C298.84 481.75 237.86 453.26 197.7 402.94 L233.77 659.44 L178.73 659.44 L59.41 -189.29 L114.41 -189.29 L142.57 10.92 C175.81 -3.14 210.68 -10.17 255.21 -10.17 C413.32 -10.17 522.66 108.95 522.66 291.02 C522.66 411.25 463.64 481.75 357.4 481.75 L357.4 481.75 Z M263.35 39.58 C210.32 39.58 177.65 51.14 150.63 68.24 L188.73 339.14 C221.38 387.5 276.09 430.24 341.04 430.24 C421.28 430.24 465.68 377.96 465.68 283.66 C465.68 133.99 380.46 39.58 263.34 39.58 L263.35 39.58 Z " />
<glyph glyph-name="ydieresis" unicode="&#xff;" horiz-adv-x="538" d="M247.98 560.5 C271.94 560.5 293.19 581.08 293.19 607.21 C293.19 627.23 279.44 642.88 259.73 642.88 C234.6 642.88 212.97 622.09 212.97 596.72 C212.97 575.82 227.62 560.5 247.99 560.5 L247.98 560.5 Z M435.72 560.5 C459.6 560.5 481.6 580.96 481.6 607.03 C481.6 627.17 467.27 642.88 447.5 642.88 C423.07 642.88 401.26 622.09 401.26 596.72 C401.26 575.82 415.87 560.5 435.71 560.5 L435.72 560.5 Z M461.23 469.17 L415.37 142.14 C398.62 115.37 345.76 41.98 259.28 41.98 C176.15 41.98 149.77 92.18 164.15 196.09 L201.98 469.17 L146.4 469.17 L106.23 182.25 C88.4 56.37 136.29 -10.11 243.56 -10.11 C317.77 -10.11 373.06 32.56 406.25 77.1 L395.06 -2.66997 C383.02 -88.67 321.07 -142.77 226.24 -142.77 C172.95 -142.77 132.48 -130.8 96.57 -101.52 L69.5 -147.93 C110.76 -179 161.19 -192.1 219.09 -192.1 C338.47 -192.1 434.21 -119.98 450.65 -2.67999 L516.82 469.15 L461.23 469.17 Z " />
<glyph glyph-name="Amacron" unicode="&#x100;" horiz-adv-x="584" d="M520.08 760.83 L275.8 760.83 L269.12 714.25 L513.46 714.25 L520.08 760.83 Z M489.57 0 L550.5 0 L408.33 642 L351.82 642 L36.33 0 L98.1 0 L191.69 193.67 L448.87 193.67 L489.57 0 Z M215.24 242.42 L356.3 534.32 L371.3 566.09 L377.33 534.09 L438.62 242.42 L215.24 242.42 Z " />
<glyph glyph-name="amacron" unicode="&#x101;" horiz-adv-x="544" d="M490.92 614.83 L251.68 614.83 L245.04 568.66 L484.28 568.66 L490.92 614.83 Z M472.15 109.49 L517.98 433.49 C467.81 467.74 422.35 481.74 352.85 481.74 C199.9 481.74 87.17 370.42 87.17 183.42 C87.17 65.76 146.5 -10.19 251.19 -10.19 C311.97 -10.19 372.76 17.97 412.62 68.27 C411.18 33.85 418.24 5.77 425.64 -9.28 L480.6 4.23 C472.74 25.27 464.02 51.71 472.15 109.48 L472.15 109.49 Z M267.48 41.31 C188.86 41.95 144.18 97.06 144.18 191.3 C144.18 345.56 232.82 431.98 344.84 431.98 C400.07 431.98 431.78 419.59 458.18 402.53 L419.71 129.35 C386.33 79.95 333.09 40.76 267.47 41.32 L267.48 41.31 Z " />
<glyph glyph-name="Abreve" unicode="&#x102;" horiz-adv-x="584" d="M388.13 681.58 C457.94 681.58 503.41 720.04 522.84 780.73 L470.66 787.26 C458.48 750.76 429.8 727 393.32 727 C355.58 727 333.15 747.52 326.83 786.99 L279.3 780.74 C282.71 724.92 325.35 681.59 388.13 681.59 L388.13 681.58 Z M489.57 0.0100098 L550.5 0.0100098 L408.33 642.01 L351.82 642.01 L36.33 0.0100098 L98.1 0.0100098 L191.69 193.68 L448.87 193.68 L489.57 0.0100098 Z M215.24 242.43 L356.3 534.33 L371.3 566.1 L377.33 534.1 L438.62 242.43 L215.24 242.43 Z " />
<glyph glyph-name="abreve" unicode="&#x103;" horiz-adv-x="544" d="M361.31 535.42 C437.45 535.42 482.73 584.21 497.56 657.25 L447.84 662.49 C436.47 609.39 405.99 579.62 366.26 579.62 C322.55 579.62 298.3 609.2 297.27 662.2 L252.72 655.82 C250.52 586.1 289.17 535.4 361.3 535.4 L361.31 535.42 Z M472.14 109.48 L517.97 433.48 C467.8 467.73 422.34 481.73 352.84 481.73 C199.89 481.73 87.16 370.41 87.16 183.41 C87.16 65.75 146.49 -10.2 251.18 -10.2 C311.96 -10.2 372.75 17.96 412.61 68.26 C411.17 33.84 418.23 5.75998 425.63 -9.29002 L480.59 4.21997 C472.73 25.26 464.01 51.7 472.14 109.47 L472.14 109.48 Z M267.47 41.3 C188.85 41.94 144.17 97.05 144.17 191.29 C144.17 345.55 232.81 431.97 344.83 431.97 C400.06 431.97 431.77 419.58 458.17 402.52 L419.7 129.34 C386.32 79.94 333.08 40.75 267.46 41.31 L267.47 41.3 Z " />
<glyph glyph-name="Aogonek" unicode="&#x104;" horiz-adv-x="584" d="M488.03 -134.58 C470.43 -134.58 458.61 -122.31 458.61 -101.91 C458.61 -66.01 489.53 -30.3 550.5 0 L408.33 642 L351.82 642 L36.33 0 L98.1 0 L191.69 193.67 L448.87 193.67 L489.34 1.06999 C428.5 -33.65 404.04 -75.68 404.04 -117.27 C404.04 -157.62 431.65 -183.32 472.65 -183.32 C501.6 -183.32 527.56 -172.7 547.75 -156.12 L532.4 -116.53 C521.08 -125.16 505.49 -134.57 488.02 -134.57 L488.03 -134.58 Z M215.23 242.43 L356.29 534.33 L371.29 566.1 L377.32 534.1 L438.61 242.43 L215.23 242.43 Z " />
<glyph glyph-name="aogonek" unicode="&#x105;" horiz-adv-x="544" d="M480.59 4.25 C472.73 25.29 464.01 51.73 472.14 109.5 L517.97 433.5 C467.8 467.75 422.34 481.75 352.84 481.75 C199.89 481.75 87.16 370.43 87.16 183.43 C87.16 65.77 146.49 -10.18 251.18 -10.18 C311.96 -10.18 372.75 17.98 412.61 68.28 C411.51 42.09 415.34 19.57 420.49 3.67 C358.7 -30.54 335.53 -73.05 335.53 -116.18 C335.53 -157.81 363.2 -183.33 404.5 -183.33 C433.16 -183.33 458.71 -172.71 478.67 -156.13 L463.55 -116.54 C452.29 -125.17 437.11 -134.58 419.94 -134.58 C401.87 -134.58 389.7 -123.24 389.7 -99.52 C389.7 -65.32 411.42 -27.09 480.59 4.24995 L480.59 4.25 Z M267.48 41.33 C188.86 41.97 144.18 97.08 144.18 191.32 C144.18 345.58 232.82 432 344.84 432 C400.07 432 431.78 419.61 458.18 402.55 L419.71 129.37 C386.33 79.97 333.09 40.78 267.47 41.34 L267.48 41.33 Z " />
<glyph glyph-name="Cacute" unicode="&#x106;" horiz-adv-x="577" d="M359.45 677.38 L541.52 739.29 L525.91 799.55 L349.38 718.22 L359.45 677.38 Z M445.06 654.43 C261.21 654.43 103.33 506.76 103.33 268.1 C103.33 105.8 193.94 -10.16 355.46 -10.16 C440.79 -10.16 502.15 22.84 544.77 57.26 L521.77 102.16 C480.91 69.44 428.85 41.93 360.98 41.93 C237.91 41.93 161.83 134.82 161.83 274.45 C161.83 475.18 293.62 602.35 437.69 602.35 C499.12 602.35 540.4 584.32 577.15 551.51 L613.61 594.18 C577 628.72 524.73 654.43 445.06 654.43 L445.06 654.43 Z " />
<glyph glyph-name="cacute" unicode="&#x107;" horiz-adv-x="472" d="M282.92 525.83 L447.13 634.83 L414.35 684.68 L260.2 558.74 L282.92 525.83 Z M478.78 441.55 C449.85 464.38 406.65 481.75 350.02 481.75 C209.22 481.75 87.77 367.37 87.77 195.09 C87.77 64.97 165.1 -10.17 278.86 -10.17 C342.55 -10.17 395.13 12.96 434.01 43.29 L414.39 87.76 C386.49 67.19 346.03 41.33 286.49 41.33 C192.67 41.33 144.9 110.81 144.9 202.99 C144.9 322.88 229.68 430.83 342.99 430.83 C395.37 430.83 431.98 414.57 460.26 393 L478.78 441.55 Z " />
<glyph glyph-name="Cdotaccent" unicode="&#x10a;" horiz-adv-x="577" d="M437.42 704.42 C462.35 704.42 485 725.81 485 752.11 C485 773.01 470.32 789.42 449.58 789.42 C424.04 789.42 401.07 767.7 401.07 741.81 C401.07 720.56 416.59 704.43 437.42 704.43 L437.42 704.42 Z M445.06 654.43 C261.21 654.43 103.33 506.76 103.33 268.1 C103.33 105.8 193.94 -10.16 355.46 -10.16 C440.79 -10.16 502.15 22.84 544.77 57.26 L521.77 102.16 C480.91 69.44 428.85 41.93 360.98 41.93 C237.91 41.93 161.83 134.82 161.83 274.45 C161.83 475.18 293.62 602.35 437.69 602.35 C499.12 602.35 540.4 584.32 577.15 551.51 L613.61 594.18 C577 628.72 524.73 654.43 445.06 654.43 L445.06 654.43 Z " />
<glyph glyph-name="cdotaccent" unicode="&#x10b;" horiz-adv-x="472" d="M400.18 611.33 C400.18 632.7 385.1 649.63 363.95 649.63 C336.93 649.63 314.21 627.26 314.21 600.73 C314.21 578.96 330.14 562.3 351.44 562.3 C376.96 562.3 400.18 584.33 400.18 611.33 L400.18 611.33 Z M478.76 441.55 C449.83 464.38 406.63 481.75 350 481.75 C209.2 481.75 87.75 367.37 87.75 195.09 C87.75 64.97 165.08 -10.17 278.84 -10.17 C342.53 -10.17 395.11 12.96 433.99 43.29 L414.37 87.76 C386.47 67.19 346.01 41.33 286.47 41.33 C192.65 41.33 144.88 110.81 144.88 202.99 C144.88 322.88 229.66 430.83 342.97 430.83 C395.35 430.83 431.96 414.57 460.24 393 L478.76 441.55 Z " />
<glyph glyph-name="Ccaron" unicode="&#x10c;" horiz-adv-x="577" d="M452.85 677.84 L566.35 766.89 L546.37 797.17 L438.41 722.1 L349.84 796.14 L326.11 766.89 L414.6 677.84 L452.85 677.84 Z M445.06 654.41 C261.21 654.41 103.33 506.74 103.33 268.08 C103.33 105.78 193.94 -10.18 355.46 -10.18 C440.79 -10.18 502.15 22.82 544.77 57.24 L521.77 102.14 C480.91 69.42 428.85 41.91 360.98 41.91 C237.91 41.91 161.83 134.8 161.83 274.43 C161.83 475.16 293.62 602.33 437.69 602.33 C499.12 602.33 540.4 584.3 577.15 551.49 L613.61 594.16 C577 628.7 524.73 654.41 445.06 654.41 L445.06 654.41 Z " />
<glyph glyph-name="ccaron" unicode="&#x10d;" horiz-adv-x="472" d="M328.02 531.6 L367.51 531.6 L487.44 647.6 L460.34 677.62 L351.96 581.14 L272.37 678.87 L241.28 649.26 L328.02 531.6 Z M478.77 441.55 C449.84 464.38 406.64 481.75 350.01 481.75 C209.21 481.75 87.76 367.37 87.76 195.09 C87.76 64.97 165.09 -10.17 278.85 -10.17 C342.54 -10.17 395.12 12.96 434 43.29 L414.38 87.76 C386.48 67.19 346.02 41.33 286.48 41.33 C192.66 41.33 144.89 110.81 144.89 202.99 C144.89 322.88 229.67 430.83 342.98 430.83 C395.36 430.83 431.97 414.57 460.25 393 L478.77 441.55 Z " />
<glyph glyph-name="Dcaron" unicode="&#x10e;" horiz-adv-x="644" d="M408.24 677.84 L521.74 766.89 L501.76 797.17 L393.8 722.1 L305.23 796.14 L281.5 766.89 L369.99 677.84 L408.24 677.84 Z M363.48 642 L191.78 642 L101.52 -1.52588e-05 L278.32 -1.52588e-05 C497.86 -1.52588e-05 629.83 159.14 629.83 375.31 C629.83 534.38 532.49 642 363.47 642 L363.48 642 Z M287.67 50.5 L164.08 50.5 L240.02 590.33 L356.33 590.33 C500.39 590.33 570.65 501.07 570.65 368.96 C570.65 185.74 456.12 50.49 287.67 50.49 L287.67 50.5 Z " />
<glyph glyph-name="dcaron" unicode="&#x10f;" horiz-adv-x="575" d="M676.14 676.58 L619.76 676.58 C620.99 671.68 621.87 657.56 621.87 645.63 C621.87 623.14 617.34 584.9 590.67 533.08 L620.46 517.13 C656.84 560.97 676.78 613.38 676.78 660.47 C676.78 667.98 676.48 673.86 676.13 676.58 L676.14 676.58 Z M549.93 659.33 L495.7 659.33 L467.13 456.45 C433.81 472.33 398.99 481.75 352.25 481.75 C199.42 481.75 87.33 374.58 87.33 188.17 C87.33 69.23 146 -10.16 251.18 -10.16 C312.83 -10.16 374.22 18.79 413.92 70.4 C412.32 39.06 416.07 10 424.25 -9.25 L479.19 4.25999 C472.91 25.3 464.75 51.51 472.82 109.33 L549.93 659.33 Z M268.05 41.33 C188.79 41.97 144.41 102.8 144.41 196.28 C144.41 349.72 232.29 431.99 344.42 431.99 C399.58 431.99 431.66 417.5 459.17 399.94 L421.54 132.77 C388.35 81.77 334.57 40.76 268.02 41.33 L268.05 41.33 Z " />
<glyph glyph-name="Dcroat" unicode="&#x110;" horiz-adv-x="644" d="M363.48 642 L191.78 642 L150.25 346.59 L80.35 346.59 L73.57 298.96 L143.56 298.96 L101.53 -1.52588e-05 L278.33 -1.52588e-05 C497.87 -1.52588e-05 629.84 159.14 629.84 375.31 C629.84 534.38 532.5 642 363.48 642 L363.48 642 Z M287.68 50.5 L164.09 50.5 L199.04 298.96 L307.9 298.96 L314.74 346.59 L205.74 346.59 L240.03 590.34 L356.34 590.34 C500.4 590.34 570.66 501.08 570.66 368.97 C570.66 185.75 456.13 50.5 287.68 50.5 L287.68 50.5 Z " />
<glyph glyph-name="dcroat" unicode="&#x111;" horiz-adv-x="546" d="M534.99 553.04 L598.36 553.04 L604.89 598.04 L541.3 598.04 L549.89 659.33 L495.89 659.33 L487.26 598.04 L383.41 598.04 L376.94 553.04 L480.92 553.04 L467.31 456.37 C433.92 472.3 399.03 481.75 352.21 481.75 C199.38 481.75 87.35 374.58 87.35 188.17 C87.35 69.23 145.96 -10.16 251.14 -10.16 C312.89 -10.16 374.42 18.89 414.09 70.66 C412.41 39.22 416.05 10.05 424.26 -9.26001 L479.2 4.24998 C472.92 25.29 464.7 51.5 472.83 109.32 L534.99 553.04 Z M267.65 41.32 C188.39 41.96 144.42 102.79 144.42 196.27 C144.42 349.71 232.3 431.98 344.43 431.98 C399.72 431.98 431.82 417.42 459.34 399.8 L421.78 133.1 C388.54 81.94 334.33 40.74 267.63 41.31 L267.65 41.32 Z " />
<glyph glyph-name="Emacron" unicode="&#x112;" horiz-adv-x="525" d="M518.13 760.83 L273.85 760.83 L267.17 714.25 L511.51 714.25 L518.13 760.83 Z M539.82 590.92 L547.29 642 L192.47 642 L102.17 0 L468.02 0 L475.43 51.08 L164.56 51.08 L200.35 306.75 L470.02 306.75 L477.39 357.83 L207.5 357.83 L240.13 590.91 L539.82 590.92 Z " />
<glyph glyph-name="emacron" unicode="&#x113;" horiz-adv-x="480" d="M477.47 614.83 L238.23 614.83 L231.59 568.66 L470.83 568.66 L477.47 614.83 Z M473.7 360.83 C473.7 434.88 421.63 481.75 335.34 481.75 C202.59 481.75 87.76 374.21 87.76 196.84 C87.76 61.47 165.21 -10.17 286.34 -10.17 C347.87 -10.17 399.57 11.41 440.87 46.26 L421.06 90.31 C388.58 62.19 348.89 41.33 294.26 41.33 C197.24 41.33 149.31 101.44 145.14 191.62 C156.32 191.13 168.48 190.87 183.16 190.87 C316.24 190.87 473.71 228.46 473.71 360.83 L473.7 360.83 Z M330.64 430.83 C386.86 430.83 416.47 400.83 416.47 352.75 C416.47 265.4 300.5 237.98 195.71 237.75 C176.78 237.71 160.94 238.17 146.76 238.95 C159.08 348.16 230.21 430.81 330.65 430.81 L330.64 430.83 Z " />
<glyph glyph-name="Edotaccent" unicode="&#x116;" horiz-adv-x="525" d="M388.3 704.42 C413.23 704.42 435.88 725.81 435.88 752.11 C435.88 773.01 421.2 789.42 400.46 789.42 C374.92 789.42 351.94 767.7 351.94 741.81 C351.94 720.56 367.47 704.43 388.3 704.43 L388.3 704.42 Z M539.82 590.93 L547.29 642.01 L192.47 642.01 L102.17 0.00999451 L468.02 0.00999451 L475.43 51.09 L164.56 51.09 L200.35 306.76 L470.02 306.76 L477.39 357.84 L207.5 357.84 L240.13 590.92 L539.82 590.93 Z " />
<glyph glyph-name="edotaccent" unicode="&#x117;" horiz-adv-x="480" d="M350 562.29 C375.52 562.29 398.74 584.32 398.74 611.32 C398.74 632.69 383.66 649.62 362.51 649.62 C335.49 649.62 312.76 627.25 312.76 600.72 C312.76 578.95 328.69 562.29 349.99 562.29 L350 562.29 Z M294.25 41.33 C197.23 41.33 149.3 101.44 145.13 191.62 C156.31 191.13 168.47 190.87 183.15 190.87 C316.23 190.87 473.7 228.46 473.7 360.83 C473.7 434.88 421.63 481.75 335.34 481.75 C202.59 481.75 87.76 374.21 87.76 196.84 C87.76 61.47 165.21 -10.17 286.34 -10.17 C347.87 -10.17 399.57 11.41 440.87 46.26 L421.06 90.31 C388.58 62.19 348.89 41.33 294.26 41.33 L294.25 41.33 Z M330.63 430.83 C386.85 430.83 416.46 400.83 416.46 352.75 C416.46 265.4 300.49 237.98 195.7 237.75 C176.77 237.71 160.93 238.17 146.75 238.95 C159.07 348.16 230.2 430.81 330.64 430.81 L330.63 430.83 Z " />
<glyph glyph-name="Eogonek" unicode="&#x118;" horiz-adv-x="525" d="M539.82 590.92 L547.29 642 L192.47 642 L102.17 0 L414.83 0 C351.06 -34.22 329.93 -75.16 329.93 -116.18 C329.93 -157.81 357.6 -183.33 398.9 -183.33 C427.56 -183.33 453.63 -172.71 473.59 -156.13 L457.95 -116.54 C446.69 -125.17 431.51 -134.58 414.34 -134.58 C396.27 -134.58 384.1 -123.24 384.1 -99.52 C384.1 -67.06 407.27 -33.45 468.02 -3.05176e-05 L475.43 51.08 L164.56 51.08 L200.35 306.75 L470.02 306.75 L477.39 357.83 L207.5 357.83 L240.13 590.91 L539.82 590.92 Z " />
<glyph glyph-name="eogonek" unicode="&#x119;" horiz-adv-x="480" d="M373.94 6.03999 C398.62 15.74 420.95 29.46 440.86 46.26 L421.05 90.31 C388.57 62.19 348.88 41.33 294.25 41.33 C197.23 41.33 149.3 101.44 145.13 191.62 C156.31 191.13 168.47 190.87 183.15 190.87 C316.23 190.87 473.7 228.46 473.7 360.83 C473.7 434.88 421.63 481.75 335.34 481.75 C202.59 481.75 87.76 374.21 87.76 196.84 C87.76 61.47 165.21 -10.17 286.34 -10.17 C290.92 -10.17 295.44 -10.05 299.91 -9.81 C259.76 -41.97 241.62 -77.69 241.62 -116.17 C241.62 -157.8 269.29 -183.32 310.59 -183.32 C340.53 -183.32 364.8 -172.7 384.76 -156.12 L369.64 -116.53 C358.38 -125.16 343.2 -134.57 326.02 -134.57 C307.95 -134.57 295.78 -123.23 295.78 -99.51 C295.78 -65.64 321.31 -27.51 373.95 6.04997 L373.94 6.03999 Z M330.63 430.84 C386.85 430.84 416.46 400.84 416.46 352.76 C416.46 265.41 300.49 237.99 195.7 237.76 C176.77 237.72 160.93 238.18 146.75 238.96 C159.07 348.17 230.2 430.82 330.64 430.82 L330.63 430.84 Z " />
<glyph glyph-name="Ecaron" unicode="&#x11a;" horiz-adv-x="525" d="M403.73 677.84 L517.23 766.89 L497.25 797.17 L389.29 722.1 L300.72 796.14 L277 766.89 L365.49 677.84 L403.73 677.84 Z M539.82 590.92 L547.29 642 L192.47 642 L102.17 -1.52588e-05 L468.02 -1.52588e-05 L475.43 51.08 L164.56 51.08 L200.35 306.75 L470.02 306.75 L477.39 357.83 L207.5 357.83 L240.13 590.91 L539.82 590.92 Z " />
<glyph glyph-name="ecaron" unicode="&#x11b;" horiz-adv-x="480" d="M366.05 531.6 L485.98 647.6 L458.88 677.62 L350.5 581.14 L270.91 678.87 L239.82 649.26 L326.56 531.6 L366.05 531.6 Z M473.69 360.83 C473.69 434.88 421.62 481.75 335.33 481.75 C202.58 481.75 87.75 374.21 87.75 196.84 C87.75 61.47 165.2 -10.17 286.33 -10.17 C347.86 -10.17 399.56 11.41 440.86 46.26 L421.05 90.31 C388.57 62.19 348.88 41.33 294.25 41.33 C197.23 41.33 149.3 101.44 145.13 191.62 C156.31 191.13 168.47 190.87 183.15 190.87 C316.23 190.87 473.7 228.46 473.7 360.83 L473.69 360.83 Z M330.63 430.83 C386.85 430.83 416.46 400.83 416.46 352.75 C416.46 265.4 300.49 237.98 195.7 237.75 C176.77 237.71 160.93 238.17 146.75 238.95 C159.07 348.16 230.2 430.81 330.64 430.81 L330.63 430.83 Z " />
<glyph glyph-name="Gbreve" unicode="&#x11e;" horiz-adv-x="626" d="M435.23 681.58 C505.04 681.58 550.51 720.04 569.94 780.73 L517.76 787.26 C505.58 750.76 476.9 727 440.42 727 C402.68 727 380.25 747.52 373.93 786.99 L326.4 780.74 C329.81 724.92 372.45 681.59 435.23 681.59 L435.23 681.58 Z M395.11 264.3 L535.52 264.3 L509.06 76.01 C466.48 52.75 420.84 41.93 368.47 41.93 C240.56 41.93 162.4 135.65 162.4 274.44 C162.4 474.34 293.4 602.34 438.26 602.34 C506.75 602.34 548.24 584.96 590.24 549.46 L626.66 592.13 C584.14 628.08 529.46 654.42 445.64 654.42 C261.83 654.42 103.91 506.75 103.91 268.09 C103.91 105.79 196.76 -10.17 362.94 -10.17 C441.89 -10.17 517.38 16.31 561.17 49.1 L598.96 317.12 L402.8 317.12 L395.11 264.3 Z " />
<glyph glyph-name="gbreve" unicode="&#x11f;" horiz-adv-x="542" d="M358.88 535.42 C435.02 535.42 480.3 584.21 495.13 657.25 L445.41 662.49 C434.03 609.39 403.55 579.62 363.83 579.62 C320.12 579.62 295.87 609.2 294.84 662.2 L250.29 655.82 C248.09 586.1 286.74 535.4 358.87 535.4 L358.88 535.42 Z M352.53 481.73 C199.64 481.73 86.95 370.41 86.95 183.41 C86.95 65.75 146.33 -10.2 250.92 -10.2 C311.62 -10.2 372.34 17.86 412.18 67.98 L402.27 -2.70003 C390.19 -88.7 327.48 -142.8 232.65 -142.8 C179.36 -142.8 138.94 -130.83 102.97 -101.55 L76 -147.96 C117.26 -179.03 167.59 -192.13 225.49 -192.13 C344.91 -192.13 441.37 -120.26 457.85 -2.71005 L519.02 433.46 C466.1 466.37 422.14 481.71 352.54 481.71 L352.53 481.73 Z M421.12 131.68 C387.74 81.1799 332.92 40.7399 267.23 41.2999 C188.44 41.8799 143.93 99.1499 143.93 191.17 C143.93 345.55 232.67 431.97 344.59 431.97 C400.61 431.97 432.4 419.26 459 401.85 L421.12 131.68 Z " />
<glyph glyph-name="Gdotaccent" unicode="&#x120;" horiz-adv-x="626" d="M437.36 704.42 C462.29 704.42 484.94 725.81 484.94 752.11 C484.94 773.01 470.26 789.42 449.52 789.42 C423.98 789.42 401 767.7 401 741.81 C401 720.56 416.52 704.43 437.35 704.43 L437.36 704.42 Z M395.11 264.31 L535.52 264.31 L509.06 76.02 C466.48 52.76 420.84 41.94 368.47 41.94 C240.56 41.94 162.4 135.66 162.4 274.45 C162.4 474.35 293.4 602.35 438.26 602.35 C506.75 602.35 548.24 584.97 590.24 549.47 L626.66 592.14 C584.14 628.09 529.46 654.43 445.64 654.43 C261.83 654.43 103.91 506.76 103.91 268.1 C103.91 105.8 196.76 -10.16 362.94 -10.16 C441.89 -10.16 517.38 16.32 561.17 49.11 L598.96 317.13 L402.8 317.13 L395.11 264.31 Z " />
<glyph glyph-name="gdotaccent" unicode="&#x121;" horiz-adv-x="542" d="M361.02 562.29 C386.54 562.29 409.76 584.32 409.76 611.32 C409.76 632.69 394.68 649.62 373.53 649.62 C346.51 649.62 323.78 627.25 323.78 600.72 C323.78 578.95 339.71 562.29 361.01 562.29 L361.02 562.29 Z M352.53 481.75 C199.64 481.75 86.95 370.43 86.95 183.43 C86.95 65.77 146.33 -10.18 250.92 -10.18 C311.62 -10.18 372.34 17.88 412.18 68 L402.27 -2.68002 C390.19 -88.68 327.48 -142.78 232.65 -142.78 C179.36 -142.78 138.94 -130.81 102.97 -101.53 L76 -147.94 C117.26 -179.01 167.59 -192.11 225.49 -192.11 C344.91 -192.11 441.37 -120.24 457.85 -2.69005 L519.02 433.48 C466.1 466.39 422.14 481.73 352.54 481.73 L352.53 481.75 Z M421.12 131.7 C387.74 81.2 332.92 40.7599 267.23 41.3199 C188.44 41.8999 143.93 99.17 143.93 191.19 C143.93 345.57 232.67 431.99 344.59 431.99 C400.61 431.99 432.4 419.28 459 401.87 L421.12 131.7 Z " />
<glyph glyph-name="Gcommaaccent" unicode="&#x122;" horiz-adv-x="626" d="M395.12 264.29 L535.53 264.29 L509.07 76 C466.49 52.74 420.85 41.92 368.48 41.92 C240.57 41.92 162.41 135.64 162.41 274.43 C162.41 474.33 293.41 602.33 438.27 602.33 C506.76 602.33 548.25 584.95 590.25 549.45 L626.67 592.12 C584.15 628.07 529.47 654.41 445.65 654.41 C261.84 654.41 103.92 506.74 103.92 268.08 C103.92 105.78 196.77 -10.18 362.95 -10.18 C441.9 -10.18 517.39 16.3 561.18 49.09 L598.97 317.11 L402.81 317.11 L395.12 264.29 Z M344.89 -42.0201 C318.34 -42.0201 293.74 -65.42 293.74 -92.7 C293.74 -112.91 307.3 -131.03 329.32 -132.6 C325.94 -153.67 313.91 -183.22 289.04 -212.17 L308.21 -227.71 C354.53 -182.18 383.38 -127.06 383.38 -82.8001 C383.38 -58.9901 367 -42.0201 344.9 -42.0201 L344.89 -42.0201 Z " />
<glyph glyph-name="gcommaaccent" unicode="&#x123;" horiz-adv-x="542" d="M356.84 536.17 C383.39 536.17 407.99 559.57 407.99 586.84 C407.99 607.05 394.43 625.18 372.41 626.76 C375.79 647.83 387.82 677.38 412.69 706.33 L393.52 721.87 C347.2 676.34 318.35 621.22 318.35 576.96 C318.35 553.15 334.73 536.17 356.83 536.17 L356.84 536.17 Z M352.53 481.75 C199.64 481.75 86.95 370.43 86.95 183.43 C86.95 65.77 146.33 -10.18 250.92 -10.18 C311.62 -10.18 372.34 17.88 412.18 68 L402.27 -2.67998 C390.19 -88.68 327.48 -142.78 232.65 -142.78 C179.36 -142.78 138.94 -130.81 102.97 -101.53 L76 -147.94 C117.26 -179.01 167.59 -192.11 225.49 -192.11 C344.91 -192.11 441.37 -120.24 457.85 -2.69 L519.02 433.48 C466.1 466.39 422.14 481.73 352.54 481.73 L352.53 481.75 Z M421.12 131.7 C387.74 81.2 332.92 40.76 267.23 41.32 C188.44 41.9 143.93 99.17 143.93 191.19 C143.93 345.57 232.67 431.99 344.59 431.99 C400.61 431.99 432.4 419.28 459 401.87 L421.12 131.7 Z " />
<glyph glyph-name="Hbar" unicode="&#x126;" horiz-adv-x="666" d="M693.4 495.46 L631.08 495.46 L651.67 642 L596.2 642 L575.61 495.46 L229.26 495.46 L249.85 642 L194.32 642 L173.73 495.46 L112.24 495.46 L106.01 451.63 L167.58 451.63 L104.13 0 L159.66 0 L202.04 301.67 L548.39 301.67 L506.01 0 L561.48 0 L624.93 451.63 L687.18 451.63 L693.4 495.46 Z M555.66 353.34 L209.31 353.34 L223.12 451.63 L569.47 451.63 L555.66 353.34 Z " />
<glyph glyph-name="hbar" unicode="&#x127;" horiz-adv-x="545" d="M366.29 481.75 C291.58 481.75 232.06 441.91 197.78 400.66 L219.18 553.04 L322.55 553.04 L329.02 598.04 L225.5 598.04 L234.11 659.33 L178.64 659.33 L170.03 598.04 L107.53 598.04 L101.06 553.04 L163.7 553.04 L85.99 1.52588e-05 L141.52 1.52588e-05 L189.14 339.11 C205.12 364.05 259.96 429.66 349.51 429.66 C428.95 429.66 460.97 378.08 446.39 273.75 L408.14 1.52588e-05 L463.72 1.52588e-05 L503.89 287.58 C521.63 414.56 472.17 481.74 366.28 481.74 L366.29 481.75 Z " />
<glyph glyph-name="Itilde" unicode="&#x128;" horiz-adv-x="322" d="M362.95 776.68 C352.23 757.39 338.81 745.76 315.43 745.76 C283.21 745.76 254.87 786.18 211.54 786.18 C174.12 786.18 144.04 762.8 125.71 722.62 L163.98 706.52 C176.68 726.84 188.91 739.01 209.8 739.01 C242.97 739.01 270.68 699.18 315.43 699.18 C353.14 699.18 382.22 721.26 398.94 760.32 L362.95 776.68 Z M351.17 642.01 L150.5 642.01 L143.6 593.26 L216.2 593.26 L139.66 48.76 L67.1 48.76 L60.26 0.00999451 L260.93 0.00999451 L267.77 48.76 L195.13 48.76 L271.72 593.26 L344.27 593.26 L351.17 642.01 Z " />
<glyph glyph-name="itilde" unicode="&#x129;" horiz-adv-x="242" d="M99.48 564.84 C111.2 586.41 125.33 599.5 147.56 599.5 C175.47 599.5 199.04 561.75 239.38 561.75 C275.18 561.75 303.69 585.25 322.71 627.27 L289.15 643.33 C277.56 621.76 264.02 608.34 241.62 608.34 C212.82 608.34 189.92 647.09 149.82 647.09 C114.1 647.09 85.07 623.01 65.85 580.99 L99.48 564.84 Z M221.27 469.17 L109.89 469.17 L102.77 420.42 L158.59 420.42 L99.73 -1.52588e-05 L155.3 -1.52588e-05 L221.27 469.17 Z " />
<glyph glyph-name="Imacron" unicode="&#x12a;" horiz-adv-x="312" d="M145.53 760.83 L138.81 714.25 L373.44 714.25 L380.16 760.83 L145.53 760.83 Z M343.74 642 L148.23 642 L141.11 593.25 L211.32 593.25 L134.78 48.75 L65.04 48.75 L57.98 0 L253.49 0 L260.55 48.75 L190.26 48.75 L266.85 593.25 L336.58 593.25 L343.74 642 Z " />
<glyph glyph-name="imacron" unicode="&#x12b;" horiz-adv-x="242" d="M94.21 568.67 L285.49 568.67 L292.23 614.84 L100.85 614.84 L94.21 568.67 Z M221.6 469.17 L110.32 469.17 L103.2 420.42 L159.02 420.42 L100.16 0 L155.63 0 L221.6 469.17 Z " />
<glyph glyph-name="Iogonek" unicode="&#x12e;" horiz-adv-x="322" d="M344.27 593.25 L351.17 642 L150.5 642 L143.6 593.25 L216.2 593.25 L139.66 48.75 L67.1 48.75 L60.26 0 L135.16 0 C80.46 -36.55 59.33 -75.16 59.33 -116.18 C59.33 -157.81 87 -183.33 128.3 -183.33 C156.96 -183.33 182.51 -172.71 202.47 -156.13 L187.35 -116.54 C176.09 -125.17 160.91 -134.58 143.73 -134.58 C125.66 -134.58 113.49 -123.24 113.49 -99.52 C113.49 -67.06 136.66 -32.43 188.34 -3.05176e-05 L260.91 -3.05176e-05 L267.75 48.75 L195.11 48.75 L271.7 593.25 L344.27 593.25 Z " />
<glyph glyph-name="iogonek" unicode="&#x12f;" horiz-adv-x="242" d="M217.18 649.63 C190.16 649.63 167.43 627.26 167.43 600.73 C167.43 578.96 183.36 562.3 204.66 562.3 C230.18 562.3 253.4 584.33 253.4 611.33 C253.4 632.7 238.32 649.63 217.17 649.63 L217.18 649.63 Z M155.49 -1.52588e-05 L221.52 469.17 L110.18 469.17 L103.06 420.42 L158.88 420.42 L100.02 -1.52588e-05 C37.18 -33.44 16.23 -74.83 16.23 -116.17 C16.23 -157.8 43.9 -183.32 85.2 -183.32 C113.86 -183.32 139.41 -172.7 159.37 -156.12 L144.25 -116.53 C132.99 -125.16 117.81 -134.57 100.64 -134.57 C82.5701 -134.57 70.4001 -122.12 70.4001 -99.5 C70.4001 -67.05 90.0301 -31.1001 155.5 0.0199432 L155.49 -1.52588e-05 Z " />
<glyph glyph-name="Idotaccent" unicode="&#x130;" horiz-adv-x="312" d="M255.15 704.42 C280.15 704.42 302.76 725.81 302.76 752.11 C302.76 773.01 288.08 789.42 267.28 789.42 C241.78 789.42 218.81 767.7 218.81 741.81 C218.81 720.56 234.39 704.43 255.16 704.43 L255.15 704.42 Z M336.6 593.26 L343.76 642.01 L148.25 642.01 L141.13 593.26 L211.34 593.26 L134.8 48.76 L65.06 48.76 L58 0.00999451 L253.51 0.00999451 L260.57 48.76 L190.28 48.76 L266.87 593.26 L336.6 593.26 Z " />
<glyph glyph-name="dotlessi" unicode="&#x131;" horiz-adv-x="242" d="M221.54 469.17 L110.2 469.17 L103.08 420.42 L158.9 420.42 L100.04 0 L155.51 0 L221.54 469.17 Z " />
<glyph glyph-name="IJ" unicode="&#x132;" horiz-adv-x="671" d="M266.92 593.25 L336.65 593.25 L343.81 642 L148.3 642 L141.18 593.25 L211.39 593.25 L134.8 48.75 L65.11 48.75 L57.99 0 L253.5 0 L260.62 48.75 L190.33 48.75 L266.92 593.25 Z M664.75 642 L488.26 642 L481.14 593.25 L602.74 593.25 L541.92 159.83 C528.96 67.08 485.1 41.33 427.65 41.33 C385.42 41.33 358.18 63.03 339.12 86.78 L299.58 46.16 C317.05 23.03 357.33 -10.17 420.55 -10.17 C505.39 -10.17 579.21 34.16 596.92 160.49 L664.75 642 Z " />
<glyph glyph-name="ij" unicode="&#x133;" horiz-adv-x="466" d="M253.48 611.33 C253.48 632.7 238.4 649.63 217.25 649.63 C190 649.63 167.51 627.26 167.51 600.73 C167.51 578.96 183.44 562.3 204.74 562.3 C230.26 562.3 253.48 584.33 253.48 611.33 L253.48 611.33 Z M492.01 611.33 C492.01 632.7 476.63 649.63 455.71 649.63 C428.46 649.63 406.13 627.26 406.13 600.73 C406.13 578.96 422.13 562.3 443.53 562.3 C469.05 562.3 492.02 584.33 492.02 611.33 L492.01 611.33 Z M221.62 469.21 L110.28 469.21 L103.22 420.46 L159.04 420.46 L100.18 0.039978 L155.65 0.039978 L221.62 469.21 Z M460.09 469.21 L344.5 469.21 L337.38 420.46 L397.3 420.46 L334.9 -34.17 C324.9 -106.71 282.76 -144.29 234.55 -144.29 C203.25 -144.29 184.47 -130.56 169.15 -115.35 L138 -157.14 C153.6 -172.17 181.69 -194.04 234.21 -194.04 C309.21 -194.04 374.46 -139.68 389.1 -35.48 L460.09 469.21 Z " />
<glyph glyph-name="Kcommaaccent" unicode="&#x136;" horiz-adv-x="550" d="M451 103.83 L321.51 353 L604.07 642 L533.81 642 L199.69 300.24 L247.71 642 L192.18 642 L101.98 0 L157.51 0 L187.91 216.37 L277.65 308.15 L401.82 71.99 C428.24 21.91 458.61 -0.0100098 521.19 -0.0100098 L528.25 48.74 C492.35 48.74 469.6 68.05 451 103.83 L451 103.83 Z M306.18 -42 C279.63 -42 255.03 -65.4 255.03 -92.68 C255.03 -112.89 268.59 -131.01 290.61 -132.58 C287.23 -153.65 275.2 -183.2 250.33 -212.15 L269.5 -227.69 C315.83 -182.16 344.68 -127.04 344.68 -82.78 C344.68 -58.97 328.3 -42 306.2 -42 L306.18 -42 Z " />
<glyph glyph-name="kcommaaccent" unicode="&#x137;" horiz-adv-x="473" d="M387.76 87.5 L274.15 264.93 L499.36 469.17 L429.29 469.17 L174.85 240.84 L233.66 659.34 L178.66 659.34 L86.01 0.00999451 L141.01 0.00999451 L164.23 165.24 L231.83 226.55 L344.1 52.43 C368.89 14.4 400.79 0.0699921 447.92 0.0699921 L454.92 48.76 C431.14 48.76 409.6 53.65 387.77 87.51 L387.76 87.5 Z M248.96 -41.99 C222.41 -41.99 197.81 -65.39 197.81 -92.67 C197.81 -112.88 211.37 -131 233.39 -132.57 C230.01 -153.64 217.98 -183.19 193.11 -212.14 L212.28 -227.68 C258.61 -182.15 287.46 -127.03 287.46 -82.77 C287.46 -58.96 271.08 -41.99 248.98 -41.99 L248.96 -41.99 Z " />
<glyph glyph-name="kgreenlandic" unicode="&#x138;" horiz-adv-x="473" d="M387.76 87.5 L274.15 264.93 L499.36 469.17 L429.29 469.17 L174.85 240.84 L206.94 469.17 L151.94 469.17 L86.01 0 L141.01 0 L164.23 165.24 L231.83 226.55 L344.1 52.43 C368.89 14.4 400.79 0.0700073 447.92 0.0700073 L454.92 48.76 C431.14 48.76 409.6 53.65 387.77 87.51 L387.76 87.5 Z " />
<glyph glyph-name="Lacute" unicode="&#x139;" horiz-adv-x="471" d="M358.88 739.28 L343.79 797.89 L168.72 716 L176.78 677.37 L358.88 739.28 Z M164.81 50.49 L247.73 641.99 L192.2 641.99 L102 -0.0100098 L436.61 -0.0100098 L443.96 50.49 L164.81 50.49 Z " />
<glyph glyph-name="lacute" unicode="&#x13a;" horiz-adv-x="254" d="M139.98 677.38 L322.09 739.29 L307.04 797.9 L131.92 716.01 L139.98 677.38 Z M233.58 659.34 L177.41 659.34 L99.08 98.59 C88.01 19.73 120.87 -8.15999 179.05 -8.15999 C200.42 -8.15999 217.53 -3.74998 228 -0.169983 L234.82 46.93 C226.53 44.31 213.16 40.34 193.29 40.34 C162.46 40.34 148.86 54.85 154.55 95.34 L233.58 659.34 Z " />
<glyph glyph-name="Lcommaaccent" unicode="&#x13b;" horiz-adv-x="471" d="M164.77 50.5 L247.73 642 L192.2 642 L102 0 L436.61 0 L443.96 50.5 L164.77 50.5 Z M270.12 -42 C243.57 -42 218.97 -65.4 218.97 -92.68 C218.97 -112.89 232.53 -131.01 254.55 -132.58 C251.17 -153.65 239.14 -183.2 214.27 -212.15 L233.44 -227.69 C279.76 -182.16 308.61 -127.04 308.61 -82.78 C308.61 -58.97 292.23 -42 270.13 -42 L270.12 -42 Z " />
<glyph glyph-name="lcommaaccent" unicode="&#x13c;" horiz-adv-x="254" d="M233.58 659.33 L177.41 659.33 L99.08 98.58 C88.01 19.72 120.87 -8.17 179.05 -8.17 C200.42 -8.17 217.53 -3.75999 228 -0.179993 L234.82 46.92 C226.53 44.3 213.16 40.33 193.29 40.33 C162.46 40.33 148.86 54.84 154.55 95.33 L233.58 659.33 Z M155.11 -42.01 C128.56 -42.01 103.96 -65.41 103.96 -92.69 C103.96 -112.9 117.52 -131.02 139.54 -132.59 C136.16 -153.66 124.13 -183.21 99.26 -212.16 L118.43 -227.7 C164.76 -182.17 193.61 -127.05 193.61 -82.79 C193.61 -58.98 177.23 -42.01 155.13 -42.01 L155.11 -42.01 Z " />
<glyph glyph-name="Lcaron" unicode="&#x13d;" horiz-adv-x="473" d="M411.68 517.13 C448.06 560.97 468 613.38 468 660.47 C468 667.98 467.7 673.86 467.35 676.58 L410.97 676.58 C412.2 671.68 413.08 657.56 413.08 645.63 C413.08 623.14 408.55 584.9 381.88 533.08 L411.68 517.13 Z M247.72 642 L192.19 642 L101.99 0 L436.6 0 L443.95 50.5 L164.8 50.5 L247.72 642 Z " />
<glyph glyph-name="lcaron" unicode="&#x13e;" horiz-adv-x="269" d="M304.15 517.13 C340.53 560.97 360.47 613.38 360.47 660.47 C360.47 667.98 360.17 673.86 359.76 676.58 L303.44 676.58 C304.71 671.68 305.55 657.56 305.55 645.63 C305.55 623.14 301.02 584.9 274.35 533.08 L304.15 517.13 Z M233.57 659.33 L177.4 659.33 L99.07 98.58 C88 19.72 120.86 -8.17 179.04 -8.17 C200.41 -8.17 217.52 -3.75999 227.99 -0.179993 L234.81 46.92 C226.52 44.3 213.15 40.33 193.28 40.33 C162.45 40.33 148.85 54.84 154.54 95.33 L233.57 659.33 Z " />
<glyph glyph-name="Ldot" unicode="&#x13f;" horiz-adv-x="473" d="M164.81 50.5 L247.73 642 L192.2 642 L102 0 L436.61 0 L443.96 50.5 L164.81 50.5 Z M385.28 297.5 C411.86 297.5 436.81 320.52 436.81 348.32 C436.81 370.53 420.39 388.09 398.16 388.09 C371.61 388.09 346.66 365.16 346.66 337.53 C346.66 315.03 362.99 297.51 385.29 297.51 L385.28 297.5 Z " />
<glyph glyph-name="ldot" unicode="&#x140;" horiz-adv-x="270" d="M233.58 659.33 L177.41 659.33 L99.08 98.58 C88.01 19.72 120.87 -8.17 179.05 -8.17 C200.42 -8.17 217.53 -3.75999 228 -0.179993 L234.82 46.92 C226.53 44.3 213.16 40.33 193.29 40.33 C162.46 40.33 148.86 54.84 154.55 95.33 L233.58 659.33 Z M273.98 281.49 C300.61 281.49 325.5 304.51 325.5 332.31 C325.5 354.52 309.23 372.08 286.93 372.08 C260.41 372.08 235.5 349.15 235.5 321.52 C235.5 299.02 251.78 281.5 273.96 281.5 L273.98 281.49 Z " />
<glyph glyph-name="Lslash" unicode="&#x141;" horiz-adv-x="478" d="M172.02 50.5 L208.31 309.36 L319.4 363.37 L304.63 405.12 L215.68 361.85 L254.95 642 L199.42 642 L155.98 332.82 L69.76 290.88 L84.52 249.17 L148.61 280.33 L109.22 -1.52588e-05 L443.89 -1.52588e-05 L451.24 50.5 L172.02 50.5 Z " />
<glyph glyph-name="lslash" unicode="&#x142;" horiz-adv-x="304" d="M186.16 95.34 L217.22 316.97 L300.51 357.71 L286.9 395.96 L223.97 365.16 L265.19 659.33 L209.02 659.33 L163.81 335.72 L80.07 294.74 L93.66 256.53 L157.08 287.55 L130.68 98.57 C119.65 19.71 152.47 -8.17999 210.64 -8.17999 C232.01 -8.17999 249.12 -3.76999 259.59 -0.189987 L266.41 46.91 C258.12 44.29 244.75 40.32 224.88 40.32 C194.06 40.32 180.52 54.83 186.15 95.32 L186.16 95.34 Z " />
<glyph glyph-name="Nacute" unicode="&#x143;" horiz-adv-x="669" d="M553.05 739.28 L537.44 799.54 L360.91 718.21 L370.98 677.38 L553.05 739.28 Z M591.22 642 L519.11 125.96 L515.62 94.63 L506.58 116.21 L245.41 642 L192.25 642 L101.99 -1.52588e-05 L155.47 -1.52588e-05 L228.44 522.33 L232.16 552.63 L241.92 526.74 L502.69 -0.0100098 L554.5 -0.0100098 L644.7 641.99 L591.22 642 Z " />
<glyph glyph-name="nacute" unicode="&#x144;" horiz-adv-x="547" d="M446.92 634.83 L414.14 684.68 L259.99 558.74 L282.72 525.83 L446.92 634.83 Z M359.68 481.75 C289.67 481.75 232.07 441.87 198.47 400.6 C199.73 431.4 195.54 460.6 187.4 479.67 L132.4 466.16 C138.7 445.12 146.82 418.91 138.69 361.09 L88.03 0 L143.56 0 L191.19 339.46 C207.52 364.65 261.86 429.66 344.06 429.66 C430.34 429.66 462.58 378.12 448.16 273.74 L410.33 -0.00999451 L465.91 -0.00999451 L506.08 287.57 C523.88 414.55 471.61 481.73 359.69 481.73 L359.68 481.75 Z " />
<glyph glyph-name="Ncommaaccent" unicode="&#x145;" horiz-adv-x="657" d="M591.23 642 L519.12 125.96 L515.63 94.63 L506.59 116.21 L245.42 642 L192.26 642 L102 0 L155.48 0 L228.45 522.33 L232.17 552.63 L241.93 526.74 L502.7 -0.00999451 L554.51 -0.00999451 L644.71 641.99 L591.23 642 Z M323.61 -42.01 C297.06 -42.01 272.46 -65.41 272.46 -92.69 C272.46 -112.9 286.02 -131.02 308.04 -132.59 C304.66 -153.66 292.63 -183.21 267.76 -212.16 L286.93 -227.7 C333.26 -182.17 362.11 -127.05 362.11 -82.79 C362.11 -58.98 345.73 -42.01 323.63 -42.01 L323.61 -42.01 Z " />
<glyph glyph-name="ncommaaccent" unicode="&#x146;" horiz-adv-x="547" d="M359.67 481.75 C289.66 481.75 232.06 441.87 198.46 400.6 C199.72 431.4 195.53 460.6 187.39 479.67 L132.39 466.16 C138.69 445.12 146.81 418.91 138.68 361.09 L88.02 0 L143.55 0 L191.18 339.46 C207.51 364.65 261.85 429.66 344.05 429.66 C430.33 429.66 462.57 378.12 448.15 273.74 L410.32 -0.00999451 L465.9 -0.00999451 L506.07 287.57 C523.87 414.55 471.6 481.73 359.68 481.73 L359.67 481.75 Z M268.2 -42.02 C241.65 -42.02 217.05 -65.42 217.05 -92.7 C217.05 -112.91 230.61 -131.03 252.63 -132.6 C249.25 -153.67 237.22 -183.22 212.35 -212.17 L231.52 -227.71 C277.84 -182.18 306.69 -127.06 306.69 -82.8 C306.69 -58.99 290.31 -42.02 268.21 -42.02 L268.2 -42.02 Z " />
<glyph glyph-name="Ncaron" unicode="&#x147;" horiz-adv-x="657" d="M451.43 677.84 L564.93 766.89 L544.95 797.17 L436.99 722.1 L348.41 796.14 L324.69 766.89 L413.18 677.84 L451.43 677.84 Z M591.22 642 L519.11 125.96 L515.62 94.63 L506.58 116.21 L245.41 642 L192.25 642 L101.99 -1.52588e-05 L155.47 -1.52588e-05 L228.44 522.33 L232.16 552.63 L241.92 526.74 L502.69 -0.0100098 L554.5 -0.0100098 L644.7 641.99 L591.22 642 Z " />
<glyph glyph-name="ncaron" unicode="&#x148;" horiz-adv-x="547" d="M367.3 531.6 L487.23 647.6 L460.13 677.62 L351.75 581.14 L272.16 678.87 L241.07 649.26 L327.81 531.6 L367.3 531.6 Z M359.67 481.75 C289.66 481.75 232.06 441.87 198.46 400.6 C199.72 431.4 195.53 460.6 187.39 479.67 L132.39 466.16 C138.69 445.12 146.81 418.91 138.68 361.09 L88.02 0 L143.55 0 L191.18 339.46 C207.51 364.65 261.85 429.66 344.05 429.66 C430.33 429.66 462.57 378.12 448.15 273.74 L410.32 -0.00999451 L465.9 -0.00999451 L506.07 287.57 C523.87 414.55 471.6 481.73 359.68 481.73 L359.67 481.75 Z " />
<glyph glyph-name="napostrophe" unicode="&#x149;" horiz-adv-x="598" d="M181.07 691.39 C153.07 691.39 126.84 666.36 126.84 636.75 C126.84 615.08 140.4 595.85 164.69 594.51 C159.05 562.67 142.99 529.54 116.95 496.41 L139.01 478.89 C186.63 533.68 221.11 592.63 221.11 646.82 C221.11 674.54 204.11 691.4 181.08 691.4 L181.07 691.39 Z M418.99 481.76 C343.78 481.76 283.89 441.56 249.6 400.11 C251.04 431.09 247.13 460.52 238.95 479.69 L183.53 466.18 C189.83 445.14 198.11 418.93 189.98 361.11 L139.32 0.019989 L194.37 0.019989 L242.23 339.35 C258.51 364.45 313.25 429.69 402.45 429.69 C481.87 429.69 513.65 378.11 499.02 273.78 L460.77 0.0299988 L516.77 0.0299988 L556.94 287.61 C574.74 414.59 525.39 481.77 418.97 481.77 L418.99 481.76 Z " />
<glyph glyph-name="Eng" unicode="&#x14a;" horiz-adv-x="657" d="M644.71 642 L591.23 642 L519.12 125.96 L515.63 94.63 L506.59 116.21 L245.42 642 L192.26 642 L102 0 L155.48 0 L228.45 522.33 L232.17 552.63 L241.93 526.74 L501.89 1.62001 L498.04 -26.05 C486.47 -110.17 431.21 -147.42 376.65 -147.42 C335.68 -147.42 307.93 -126.63 291.5 -108.42 L251.2 -145 C263.58 -161.5 303.71 -196 371.69 -196 C458.99 -196 534.07 -147.04 551.04 -25.33 L561.19 47.59 L644.71 642 Z " />
<glyph glyph-name="eng" unicode="&#x14b;" horiz-adv-x="547" d="M359.67 481.75 C289.66 481.75 232.06 441.87 198.46 400.6 C199.72 431.4 195.53 460.6 187.39 479.67 L132.39 466.16 C138.69 445.12 146.81 418.91 138.68 361.09 L88.02 0 L143.55 0 L191.18 339.46 C207.51 364.65 261.85 429.66 344.05 429.66 C430.33 429.66 462.57 378.12 448.15 273.74 L410.32 -0.00999451 L405.21 -34.68 C394.28 -108.16 351.04 -147.75 297.2 -147.75 C266.07 -147.75 245.07 -137.25 224.49 -115.83 L188.16 -155 C208.94 -176.75 239.26 -195.75 290.43 -195.75 C370.66 -195.75 443.33 -149.26 460.87 -33.02 L465.89 3.05176e-05 L506.06 287.58 C523.86 414.56 471.59 481.74 359.67 481.74 L359.67 481.75 Z " />
<glyph glyph-name="Omacron" unicode="&#x14c;" horiz-adv-x="700" d="M328.53 714.25 L572.87 714.25 L579.5 760.83 L335.22 760.83 L328.53 714.25 Z M441.22 654.41 C246.39 654.41 102.28 473.69 102.28 265.77 C102.28 105.94 194.17 -10.18 347.82 -10.18 C552.28 -10.18 687.32 172.65 687.32 381.68 C687.32 542.23 594.3 654.4 441.22 654.4 L441.22 654.41 Z M433.95 602.84 C559.09 602.84 629.81 515.39 629.81 378.63 C629.81 199.85 522.63 42.81 355.11 41.43 C229.83 40.39 159.81 134.18 159.81 268.83 C159.81 447.46 273.09 602.84 433.96 602.84 L433.95 602.84 Z " />
<glyph glyph-name="omacron" unicode="&#x14d;" horiz-adv-x="554" d="M237.26 568.67 L476.5 568.67 L483.14 614.84 L243.9 614.84 L237.26 568.67 Z M286.84 -10.16 C426.06 -10.16 530.65 99.67 530.65 269.51 C530.65 390.81 456.76 481.75 332.07 481.75 C198.34 481.75 88.34 371.44 88.34 201.21 C88.34 79.07 162.59 -10.16 286.85 -10.16 L286.84 -10.16 Z M294.17 41.34 C194.93 41.34 145.19 111.53 145.19 206.25 C145.19 340.98 222.37 430.25 324.77 430.25 C423.68 430.25 473.73 359.69 473.73 264.22 C473.73 132.6 397.75 41.32 294.17 41.32 L294.17 41.34 Z " />
<glyph glyph-name="Ohungarumlaut" unicode="&#x150;" horiz-adv-x="700" d="M341.22 670.22 L491.54 768.24 L462 814.98 L323.13 699.89 L341.22 670.22 Z M490.56 670.22 L640.89 768.24 L611.35 814.98 L472.48 699.89 L490.56 670.22 Z M441.21 654.42 C246.38 654.42 102.27 473.7 102.27 265.78 C102.27 105.95 194.16 -10.17 347.81 -10.17 C552.27 -10.17 687.31 172.66 687.31 381.69 C687.31 542.24 594.29 654.41 441.21 654.41 L441.21 654.42 Z M433.94 602.85 C559.08 602.85 629.8 515.4 629.8 378.64 C629.8 199.86 522.62 42.8201 355.1 41.44 C229.82 40.4001 159.8 134.19 159.8 268.84 C159.8 447.47 273.08 602.85 433.95 602.85 L433.94 602.85 Z " />
<glyph glyph-name="ohungarumlaut" unicode="&#x151;" horiz-adv-x="554" d="M261.09 520.09 L380.26 657.25 L335.87 690.35 L231.77 538.92 L261.09 520.09 Z M399.77 520.09 L518.99 657.25 L474.54 690.35 L370.44 538.92 L399.77 520.09 Z M286.85 -10.16 C426.07 -10.16 530.66 99.67 530.66 269.51 C530.66 390.81 456.77 481.75 332.08 481.75 C198.35 481.75 88.35 371.44 88.35 201.21 C88.35 79.07 162.6 -10.16 286.86 -10.16 L286.85 -10.16 Z M294.18 41.34 C194.94 41.34 145.2 111.53 145.2 206.25 C145.2 340.98 222.38 430.25 324.78 430.25 C423.69 430.25 473.74 359.69 473.74 264.22 C473.74 132.6 397.76 41.3201 294.18 41.3201 L294.18 41.34 Z " />
<glyph glyph-name="OE" unicode="&#x152;" horiz-adv-x="881" d="M895.73 590.92 L903.2 642 L552.32 642 C522.01 649.65 487.79 654.42 448.29 654.42 C242.42 654.42 101.81 475.51 101.81 264.21 C101.81 110.09 194.17 -10.17 357.96 -10.17 C391.01 -10.17 429.06 -7.39999 461.4 -0.00999451 L823.93 -0.00999451 L831.34 51.07 L520.47 51.07 L556.26 306.74 L825.93 306.74 L833.3 357.82 L563.41 357.82 L596.03 590.9 L895.73 590.92 Z M159.78 271.23 C159.78 443.09 264.69 602.85 440.95 602.85 C479.98 602.85 513.56 598.73 540.84 588.32 L465.75 54.44 C432.5 43.38 393.15 41.55 365.24 41.55 C231.55 41.55 159.8 136.29 159.8 271.23 L159.78 271.23 Z " />
<glyph glyph-name="oe" unicode="&#x153;" horiz-adv-x="894" d="M687.65 41.33 C590.63 41.33 542.7 101.44 538.53 191.62 C549.71 191.13 561.87 190.87 576.55 190.87 C709.63 190.87 867.1 228.46 867.1 360.83 C867.1 434.88 815.03 481.75 728.74 481.75 C641.37 481.75 561.76 435.16 517.54 352.74 C491.15 430.1 426.03 481.74 332.07 481.74 C198.34 481.74 88.34 371.43 88.34 201.2 C88.34 79.06 162.59 -10.17 286.85 -10.17 C376.13 -10.17 451.17 35 493.52 112.19 C519.91 31.8 587.03 -10.17 679.75 -10.17 C741.28 -10.17 792.98 11.41 834.28 46.26 L814.47 90.31 C781.99 62.19 742.3 41.33 687.67 41.33 L687.65 41.33 Z M724.04 430.83 C780.26 430.83 809.87 400.83 809.87 352.75 C809.87 265.4 693.9 237.98 589.11 237.75 C570.18 237.71 554.34 238.17 540.16 238.95 C552.48 348.16 623.61 430.81 724.05 430.81 L724.04 430.83 Z M294.19 41.31 C194.95 41.31 145.21 111.5 145.21 206.22 C145.21 340.95 222.39 430.22 324.79 430.22 C423.7 430.22 473.75 359.66 473.75 264.19 C473.75 132.57 397.77 41.29 294.19 41.29 L294.19 41.31 Z " />
<glyph glyph-name="Racute" unicode="&#x154;" horiz-adv-x="555" d="M471.09 739.28 L455.48 799.54 L278.95 718.21 L289.02 677.38 L471.09 739.28 Z M433.75 103.84 L368.18 273.56 C472.8 294.01 549.01 365.18 549.01 480.54 C549.01 582.17 480.61 642.01 359.56 642.01 L191.78 642.01 L101.58 0.00999451 L157.11 0.00999451 L194.68 267.43 L302.69 267.43 C304.57 267.43 306.45 267.44 308.32 267.47 L383.01 78.08 C405.53 20.35 438.01 0.00999451 499.07 0.00999451 L506.09 48.76 C472.91 48.76 449.51 62.44 433.75 103.84 L433.75 103.84 Z M201.77 317.92 L240.23 591.67 L352.08 591.67 C451.5 591.67 491.66 547.7 491.66 473.38 C491.66 384.11 434.57 317.92 310.32 317.92 L201.77 317.92 Z " />
<glyph glyph-name="racute" unicode="&#x155;" horiz-adv-x="361" d="M387.14 634.83 L354.36 684.68 L200.21 558.74 L222.93 525.83 L387.14 634.83 Z M355.57 481.81 C283.27 481.81 229.58 433.44 196.91 382.9 C200.94 419.9 197.06 456.98 187.37 479.67 L132.28 466.16 C138.58 445.12 146.78 418.91 138.65 361.09 L87.99 1.52588e-05 L143.52 1.52588e-05 L186.74 309.17 C202.96 345.13 251.15 426.52 341.4 426.52 C358.47 426.52 374.07 422.33 383.7 417.71 L405.12 472.92 C392.29 478.45 371.92 481.81 355.57 481.81 L355.57 481.81 Z " />
<glyph glyph-name="Rcommaaccent" unicode="&#x156;" horiz-adv-x="555" d="M433.76 103.83 L368.19 273.55 C472.81 294 549.02 365.17 549.02 480.53 C549.02 582.16 480.62 642 359.57 642 L191.79 642 L101.59 0 L157.12 0 L194.69 267.42 L302.7 267.42 C304.58 267.42 306.46 267.43 308.33 267.46 L383.02 78.07 C405.54 20.34 438.02 0 499.08 0 L506.1 48.75 C472.92 48.75 449.52 62.43 433.76 103.83 L433.76 103.83 Z M201.78 317.91 L240.24 591.66 L352.09 591.66 C451.51 591.66 491.67 547.69 491.67 473.37 C491.67 384.1 434.58 317.91 310.33 317.91 L201.78 317.91 Z M283 -42.01 C256.45 -42.01 231.85 -65.41 231.85 -92.69 C231.85 -112.9 245.41 -131.02 267.43 -132.59 C264.05 -153.66 252.02 -183.21 227.15 -212.16 L246.32 -227.7 C292.65 -182.17 321.5 -127.05 321.5 -82.79 C321.5 -58.98 305.12 -42.01 283.02 -42.01 L283 -42.01 Z " />
<glyph glyph-name="rcommaaccent" unicode="&#x157;" horiz-adv-x="361" d="M355.58 481.81 C283.28 481.81 229.59 433.44 196.92 382.9 C200.95 419.9 197.07 456.98 187.38 479.67 L132.29 466.16 C138.59 445.12 146.79 418.91 138.66 361.09 L88 1.52588e-05 L143.53 1.52588e-05 L186.75 309.17 C202.97 345.13 251.16 426.52 341.41 426.52 C358.48 426.52 374.08 422.33 383.71 417.71 L405.13 472.92 C392.3 478.45 371.93 481.81 355.58 481.81 L355.58 481.81 Z M106.34 -42 C79.79 -42 55.19 -65.4 55.19 -92.68 C55.19 -112.89 68.75 -131.01 90.77 -132.58 C87.39 -153.65 75.36 -183.2 50.49 -212.15 L69.66 -227.69 C115.99 -182.16 144.84 -127.04 144.84 -82.78 C144.84 -58.97 128.46 -42 106.36 -42 L106.34 -42 Z " />
<glyph glyph-name="Rcaron" unicode="&#x158;" horiz-adv-x="555" d="M382.43 677.84 L495.93 766.89 L475.95 797.17 L367.99 722.1 L279.42 796.14 L255.69 766.89 L344.18 677.84 L382.43 677.84 Z M433.76 103.84 L368.19 273.56 C472.81 294.01 549.02 365.18 549.02 480.54 C549.02 582.17 480.62 642.01 359.57 642.01 L191.79 642.01 L101.59 0.00997925 L157.12 0.00997925 L194.69 267.43 L302.7 267.43 C304.58 267.43 306.46 267.44 308.33 267.47 L383.02 78.08 C405.54 20.35 438.02 0.00997925 499.08 0.00997925 L506.1 48.76 C472.92 48.76 449.52 62.44 433.76 103.84 L433.76 103.84 Z M201.78 317.92 L240.24 591.67 L352.09 591.67 C451.51 591.67 491.67 547.7 491.67 473.38 C491.67 384.11 434.58 317.92 310.33 317.92 L201.78 317.92 Z " />
<glyph glyph-name="rcaron" unicode="&#x159;" horiz-adv-x="361" d="M307.52 531.6 L427.45 647.6 L400.35 677.62 L291.97 581.14 L212.38 678.87 L181.29 649.26 L268.03 531.6 L307.52 531.6 Z M196.92 382.9 C200.95 419.9 197.07 456.98 187.38 479.67 L132.29 466.16 C138.59 445.12 146.79 418.91 138.66 361.09 L88 1.52588e-05 L143.53 1.52588e-05 L186.75 309.17 C202.97 345.13 251.16 426.52 341.41 426.52 C358.48 426.52 374.08 422.33 383.71 417.71 L405.13 472.92 C392.3 478.45 371.93 481.81 355.58 481.81 C283.28 481.81 229.59 433.44 196.92 382.9 L196.92 382.9 Z " />
<glyph glyph-name="Sacute" unicode="&#x15a;" horiz-adv-x="509" d="M285.08 677.38 L467.15 739.29 L451.54 799.55 L275.01 718.22 L285.08 677.38 Z M348.69 654.43 C223.41 654.43 136.57 577.41 136.57 478.02 C136.57 365.21 217.66 336.54 293.09 307.66 C358.53 282.59 419.64 257.87 419.64 177.16 C419.64 103.66 359.75 41.94 260.4 41.94 C179.02 41.94 132.35 72.48 101.05 111.9 L61.51 70.36 C92.58 31.53 152.23 -10.14 253.3 -10.14 C388.12 -10.14 476.51 65.67 476.51 183.74 C476.51 292.65 401.66 328.51 330.08 358.03 C262.17 385.95 194.38 404.41 194.38 482.5 C194.38 543.98 254.01 602.37 340.66 602.37 C408.47 602.37 449.01 579.95 485.39 547.07 L521.08 591.82 C484.43 626.74 434.3 654.45 348.7 654.45 L348.69 654.43 Z " />
<glyph glyph-name="sacute" unicode="&#x15b;" horiz-adv-x="445" d="M234.68 525.83 L398.89 634.83 L366.11 684.68 L211.96 558.74 L234.68 525.83 Z M298.47 481.74 C189.34 481.74 111.48 428.72 111.48 346.11 C111.48 182.02 354.45 248.09 354.45 130.43 C354.45 79.59 306.28 39.56 223.62 39.56 C148.74 39.56 108.47 67.64 85.78 89.02 L56.99 43.19 C87.64 14.91 140.26 -10.18 215.81 -10.18 C333.13 -10.18 410.13 46.19 410.13 139.56 C410.13 301.94 167.58 241.5 167.58 351.88 C167.58 398.65 216.42 431.98 291.14 431.98 C348.36 431.98 386.06 417.57 416.88 399.41 L435.26 447.98 C408.07 463.61 366.73 481.72 298.45 481.72 L298.47 481.74 Z " />
<glyph glyph-name="Scedilla" unicode="&#x15e;" horiz-adv-x="509" d="M340.65 602.33 C408.46 602.33 449 579.91 485.38 547.03 L521.07 591.78 C484.42 626.7 434.29 654.41 348.69 654.41 C223.41 654.41 136.57 577.39 136.57 478 C136.57 365.19 217.66 336.52 293.09 307.64 C358.53 282.57 419.64 257.85 419.64 177.14 C419.64 103.64 359.75 41.92 260.4 41.92 C179.02 41.92 132.35 72.46 101.05 111.88 L61.51 70.34 C90.43 34.2 144.11 -4.40002 232.9 -9.57002 L203.47 -68.07 C245.96 -69.97 270.45 -81.54 270.45 -108.32 C270.45 -137.85 245.93 -150.16 213.73 -150.16 C194.62 -150.16 179.33 -143.38 169.33 -136.91 L149.21 -173.41 C158.27 -180.58 183.93 -189.52 213 -189.52 C268.5 -189.52 320.6 -166.36 320.6 -104.51 C320.6 -65.58 290.89 -45.39 257.29 -39.33 L272.09 -9.66002 C396.29 -2.91002 476.54 71.22 476.54 183.72 C476.54 292.63 401.69 328.49 330.11 358.01 C262.2 385.93 194.41 404.39 194.41 482.48 C194.41 543.96 254.04 602.35 340.69 602.35 L340.65 602.33 Z " />
<glyph glyph-name="scedilla" unicode="&#x15f;" horiz-adv-x="445" d="M291.17 432 C348.39 432 386.09 417.59 416.91 399.43 L435.29 448 C408.1 463.63 366.76 481.74 298.48 481.74 C189.35 481.74 111.49 428.72 111.49 346.11 C111.49 182.02 354.46 248.09 354.46 130.43 C354.46 79.59 306.29 39.56 223.63 39.56 C148.75 39.56 108.48 67.64 85.79 89.02 L57 43.19 C86.1 16.33 135.02 -7.64998 204.57 -9.99998 L175.34 -68.1 C217.83 -70 242.32 -81.57 242.32 -108.35 C242.32 -137.88 217.8 -150.19 185.6 -150.19 C166.49 -150.19 151.2 -143.41 141.2 -136.94 L121.07 -173.44 C130.13 -180.61 155.79 -189.55 184.86 -189.55 C240.36 -189.55 292.46 -166.39 292.46 -104.54 C292.46 -65.61 262.75 -45.42 229.15 -39.36 L244.27 -9.02998 C345.43 -0.549988 410.15 53.95 410.15 139.55 C410.15 301.93 167.6 241.49 167.6 351.87 C167.6 398.64 216.44 431.97 291.16 431.97 L291.17 432 Z " />
<glyph glyph-name="Scaron" unicode="&#x160;" horiz-adv-x="509" d="M378.48 677.84 L491.98 766.89 L472 797.17 L364.04 722.1 L275.47 796.14 L251.75 766.89 L340.24 677.84 L378.48 677.84 Z M348.69 654.41 C223.41 654.41 136.57 577.39 136.57 478 C136.57 365.19 217.66 336.52 293.09 307.64 C358.53 282.57 419.64 257.85 419.64 177.14 C419.64 103.64 359.75 41.92 260.4 41.92 C179.02 41.92 132.35 72.46 101.05 111.88 L61.51 70.34 C92.58 31.51 152.23 -10.16 253.3 -10.16 C388.12 -10.16 476.51 65.65 476.51 183.72 C476.51 292.63 401.66 328.49 330.08 358.01 C262.17 385.93 194.38 404.39 194.38 482.48 C194.38 543.96 254.01 602.35 340.66 602.35 C408.47 602.35 449.01 579.93 485.39 547.05 L521.08 591.8 C484.43 626.72 434.3 654.43 348.7 654.43 L348.69 654.41 Z " />
<glyph glyph-name="scaron" unicode="&#x161;" horiz-adv-x="445" d="M279.78 531.6 L319.27 531.6 L439.2 647.6 L412.1 677.62 L303.72 581.14 L224.13 678.87 L193.04 649.26 L279.78 531.6 Z M298.47 481.75 C189.34 481.75 111.48 428.73 111.48 346.12 C111.48 182.03 354.45 248.1 354.45 130.44 C354.45 79.6 306.28 39.57 223.62 39.57 C148.74 39.57 108.47 67.65 85.78 89.03 L56.99 43.2 C87.64 14.92 140.26 -10.17 215.81 -10.17 C333.13 -10.17 410.13 46.2 410.13 139.57 C410.13 301.95 167.58 241.51 167.58 351.89 C167.58 398.66 216.42 431.99 291.14 431.99 C348.36 431.99 386.06 417.58 416.88 399.42 L435.26 447.99 C408.07 463.62 366.73 481.73 298.45 481.73 L298.47 481.75 Z " />
<glyph glyph-name="uni0162" unicode="&#x162;" horiz-adv-x="521" d="M287.93 0 L370.93 591.33 L570.1 591.33 L577.47 642 L123.47 642 L116.1 591.33 L315.41 591.33 L232.45 0 L240.39 0 L206.14 -68.08 C248.63 -69.98 273.12 -81.55 273.12 -108.33 C273.12 -137.86 248.59 -150.17 216.39 -150.17 C197.28 -150.17 181.99 -143.39 171.99 -136.92 L151.86 -173.42 C160.92 -180.59 186.58 -189.53 215.65 -189.53 C271.15 -189.53 323.25 -166.37 323.25 -104.52 C323.25 -65.59 293.54 -45.4 259.94 -39.34 L279.56 -0.00999451 L287.93 0 Z " />
<glyph glyph-name="uni0163" unicode="&#x163;" horiz-adv-x="366" d="M221.57 423.33 L373.87 423.33 L380.42 469.16 L228.02 469.16 L245.72 594.83 L187.9 581.66 L172.12 469.17 L98.1 469.17 L91.49 423.34 L165.69 423.34 L126.12 141.23 C113.66 52.52 148.55 4.89999 207.9 -7.10001 L177.23 -68.08 C219.72 -69.98 244.21 -81.55 244.21 -108.33 C244.21 -137.86 219.69 -150.17 187.49 -150.17 C168.38 -150.17 153.09 -143.39 143.09 -136.92 L122.97 -173.42 C132.03 -180.59 157.69 -189.53 186.76 -189.53 C242.26 -189.53 294.36 -166.37 294.36 -104.52 C294.36 -65.59 264.65 -45.4 231.05 -39.34 L245.63 -10.1 C296.23 -8.74998 330.98 11.77 353.62 31.09 L334.17 72.96 C316.2 57.89 287.24 39.58 252.54 39.58 C207.8 39.58 169.6 59.58 183.34 151.75 L221.57 423.33 Z " />
<glyph glyph-name="Tcaron" unicode="&#x164;" horiz-adv-x="521" d="M374.98 677.84 L488.48 766.89 L468.5 797.17 L360.54 722.1 L271.97 796.14 L248.25 766.89 L336.74 677.84 L374.98 677.84 Z M577.46 642 L123.46 642 L116.09 591.33 L315.4 591.33 L232.44 -1.52588e-05 L287.92 -1.52588e-05 L370.92 591.33 L570.09 591.33 L577.46 642 Z " />
<glyph glyph-name="tcaron" unicode="&#x165;" horiz-adv-x="366" d="M343.5 517.13 C379.88 560.97 399.88 613.38 399.88 660.47 C399.88 667.98 399.58 673.86 399.11 676.58 L342.79 676.58 C344.06 671.68 344.94 657.56 344.94 645.63 C344.94 623.14 340.42 584.9 313.75 533.08 L343.5 517.13 Z M245.71 594.83 L187.89 581.66 L172.11 469.17 L98.09 469.17 L91.48 423.34 L165.68 423.34 L126.11 141.23 C111.52 37.37 161.83 -10.16 240.31 -10.16 C293.79 -10.16 330.17 11.11 353.59 31.09 L334.14 72.96 C316.17 57.89 287.21 39.58 252.51 39.58 C207.77 39.58 169.57 59.58 183.31 151.75 L221.56 423.33 L373.86 423.33 L380.41 469.16 L228.01 469.16 L245.71 594.83 Z " />
<glyph glyph-name="Tbar" unicode="&#x166;" horiz-adv-x="521" d="M570.08 591.33 L577.45 642 L123.45 642 L116.08 591.33 L315.39 591.33 L280.76 344.5 L188.43 344.5 L181.5 296.87 L274.08 296.87 L232.43 -0.0100098 L287.91 -0.0100098 L329.58 296.87 L420.88 296.87 L427.88 344.5 L336.28 344.5 L370.92 591.33 L570.08 591.33 Z " />
<glyph glyph-name="tbar" unicode="&#x167;" horiz-adv-x="369" d="M377.21 423.33 L383.82 469.16 L231.36 469.16 L249.06 594.83 L191.24 581.66 L175.46 469.17 L101.44 469.17 L94.83 423.34 L169.03 423.34 L151.28 296.8 L82.41 296.8 L76 251.8 L144.97 251.8 L129.46 141.23 C114.87 37.37 165.18 -10.16 243.66 -10.16 C297.14 -10.16 333.52 11.11 356.94 31.09 L337.49 72.96 C319.51 57.89 290.55 39.58 255.85 39.58 C211.11 39.58 172.91 59.58 186.65 151.75 L200.74 251.79 L310.59 251.79 L317 296.79 L207.08 296.79 L224.9 423.33 L377.21 423.33 Z " />
<glyph glyph-name="Utilde" unicode="&#x168;" horiz-adv-x="645" d="M540.74 776.68 C529.32 757.39 513.77 745.76 487.77 745.76 C451.96 745.76 420.47 786.18 372.45 786.18 C331.18 786.18 297.88 762.8 277.59 722.62 L318.99 706.56 C333.17 726.88 347.25 739.01 370.6 739.01 C407.45 739.01 438.08 699.18 486.72 699.18 C529.98 699.18 561.45 721.26 579.98 760.32 L540.74 776.68 Z M321.66 -10.15 C462.04 -10.15 562.35 84.55 586 253.52 L640.42 642.02 L585.42 642.02 L531 253.52 C513.92 131.66 442.05 43.69 329.52 43.69 C214.68 43.69 170.42 131.32 187.5 253.53 L241.92 642.03 L185.17 642.03 L130.75 253.53 C107.47 87.82 184.89 -10.14 321.65 -10.14 L321.66 -10.15 Z " />
<glyph glyph-name="utilde" unicode="&#x169;" horiz-adv-x="541" d="M299 599.92 C333.98 599.92 361.36 561.34 408.84 561.34 C453.31 561.34 485.11 585.26 503.23 627.28 L463.03 643.35 C452.28 621.72 436.4 608.34 409.56 608.34 C374.88 608.34 348.26 647.51 301.12 647.51 C259.85 647.51 225.88 623.01 206.17 580.99 L248.11 564.77 C260.75 586.34 276.2 599.93 299.01 599.93 L299 599.92 Z M467.53 109.3 L517.96 469.18 L462.44 469.18 L416.49 142.71 C400.31 116.46 348.97 41.98 262.28 41.98 C176.99 41.98 151.17 92.14 165.47 196.05 L203.14 469.17 L147.56 469.17 L107.56 182.21 C89.82 56.34 140.84 -10.1 246.72 -10.1 C320.44 -10.1 375.26 33.23 408.01 78.13 C405.55 44.33 409.83 11.49 418.65 -9.29001 L474.09 4.25999 C467.79 25.3 459.41 51.47 467.56 109.29 L467.53 109.3 Z " />
<glyph glyph-name="Umacron" unicode="&#x16a;" horiz-adv-x="645" d="M305.81 714.25 L550.15 714.25 L556.78 760.83 L312.5 760.83 L305.81 714.25 Z M321.67 -10.17 C462.05 -10.17 562.36 84.53 586.01 253.5 L640.43 642 L585.43 642 L531.01 253.5 C513.93 131.64 442.06 43.67 329.53 43.67 C214.69 43.67 170.43 131.3 187.51 253.51 L241.93 642.01 L185.18 642.01 L130.76 253.51 C107.48 87.8 184.9 -10.16 321.66 -10.16 L321.67 -10.17 Z " />
<glyph glyph-name="umacron" unicode="&#x16b;" horiz-adv-x="541" d="M475.82 614.83 L236.58 614.83 L229.94 568.66 L469.18 568.66 L475.82 614.83 Z M467.53 109.28 L517.96 469.16 L462.44 469.16 L416.49 142.69 C400.31 116.44 348.97 41.96 262.28 41.96 C176.99 41.96 151.17 92.12 165.47 196.03 L203.14 469.15 L147.56 469.15 L107.56 182.19 C89.82 56.32 140.84 -10.12 246.72 -10.12 C320.44 -10.12 375.26 33.21 408.01 78.11 C405.55 44.31 409.83 11.47 418.65 -9.31 L474.09 4.24001 C467.79 25.28 459.41 51.45 467.56 109.27 L467.53 109.28 Z " />
<glyph glyph-name="Uring" unicode="&#x16e;" horiz-adv-x="645" d="M518.88 757.81 C518.88 801.86 489.11 837.5 445.89 837.5 C387.67 837.5 346.47 790.54 346.47 734.37 C346.47 690.37 375.58 654.67 421 654.67 C477.38 654.67 518.88 698.85 518.88 757.81 L518.88 757.81 Z M439.83 799.21 C466.61 799.21 479.51 778.58 479.51 754.45 C479.51 724.03 460.09 693.54 425.64 693.54 C399.22 693.54 385.48 714.72 385.48 738.59 C385.48 768.5 405.85 799.21 439.85 799.21 L439.83 799.21 Z M321.67 -10.17 C462.05 -10.17 562.36 84.53 586.01 253.5 L640.43 642 L585.43 642 L531.01 253.5 C513.93 131.64 442.06 43.67 329.53 43.67 C214.69 43.67 170.43 131.3 187.51 253.51 L241.93 642.01 L185.18 642.01 L130.76 253.51 C107.48 87.8 184.9 -10.16 321.66 -10.16 L321.67 -10.17 Z " />
<glyph glyph-name="uring" unicode="&#x16f;" horiz-adv-x="541" d="M341.3 510.42 C401.18 510.42 441.4 558.55 441.4 613.88 C441.4 658.18 411.87 694.09 367.29 694.09 C309.07 694.09 266.14 647.63 266.14 590.63 C266.14 546.33 295.76 510.42 341.29 510.42 L341.3 510.42 Z M361.74 655.84 C389.04 655.84 403.01 634.99 403.01 610.17 C403.01 579.17 381.26 549.25 346.84 549.25 C320.08 549.25 305.14 570.65 305.14 595.14 C305.14 626.45 326.76 655.83 361.76 655.83 L361.74 655.84 Z M467.53 109.28 L517.96 469.16 L462.44 469.16 L416.49 142.69 C400.31 116.44 348.97 41.96 262.28 41.96 C176.99 41.96 151.17 92.12 165.47 196.03 L203.14 469.15 L147.56 469.15 L107.56 182.19 C89.82 56.32 140.84 -10.12 246.72 -10.12 C320.44 -10.12 375.26 33.21 408.01 78.11 C405.55 44.31 409.83 11.47 418.65 -9.31001 L474.09 4.23999 C467.79 25.28 459.41 51.45 467.56 109.27 L467.53 109.28 Z " />
<glyph glyph-name="Uhungarumlaut" unicode="&#x170;" horiz-adv-x="645" d="M318.5 670.22 L468.82 768.24 L439.28 814.98 L300.41 699.89 L318.5 670.22 Z M467.84 670.22 L618.17 768.24 L588.63 814.98 L449.76 699.89 L467.84 670.22 Z M321.66 -10.16 C462.04 -10.16 562.35 84.54 586 253.51 L640.42 642.01 L585.42 642.01 L531 253.51 C513.92 131.65 442.05 43.68 329.52 43.68 C214.68 43.68 170.42 131.31 187.5 253.52 L241.92 642.02 L185.17 642.02 L130.75 253.52 C107.47 87.81 184.89 -10.15 321.65 -10.15 L321.66 -10.16 Z " />
<glyph glyph-name="uhungarumlaut" unicode="&#x171;" horiz-adv-x="541" d="M372.93 657.25 L328.54 690.35 L224.44 538.92 L253.76 520.09 L372.93 657.25 Z M392.43 520.09 L511.66 657.25 L467.21 690.35 L363.11 538.92 L392.43 520.09 Z M467.53 109.29 L517.96 469.17 L462.44 469.17 L416.49 142.7 C400.31 116.45 348.97 41.97 262.28 41.97 C176.99 41.97 151.17 92.13 165.47 196.04 L203.14 469.16 L147.56 469.16 L107.56 182.2 C89.82 56.33 140.84 -10.11 246.72 -10.11 C320.44 -10.11 375.26 33.22 408.01 78.12 C405.55 44.32 409.83 11.48 418.65 -9.29997 L474.09 4.25003 C467.79 25.29 459.41 51.46 467.56 109.28 L467.53 109.29 Z " />
<glyph glyph-name="Uogonek" unicode="&#x172;" horiz-adv-x="645" d="M585.42 642 L531 253.5 C513.92 131.64 442.05 43.67 329.52 43.67 C214.68 43.67 170.42 131.3 187.5 253.51 L241.92 642.01 L185.17 642.01 L130.75 253.51 C107.47 87.8 184.89 -10.16 321.65 -10.16 C327.78 -10.16 333.83 -9.98001 339.81 -9.62001 C299.5 -41.83 281.29 -77.61 281.29 -116.17 C281.29 -157.8 308.96 -183.32 350.26 -183.32 C380.2 -183.32 404.47 -172.7 424.43 -156.12 L409.31 -116.53 C398.05 -125.16 382.87 -134.57 365.7 -134.57 C347.63 -134.57 335.46 -123.23 335.46 -99.51 C335.46 -66.2 360.15 -28.7701 411.04 4.37994 C503.81 36.9099 567.74 123.08 585.99 253.5 L640.41 642 L585.42 642 Z " />
<glyph glyph-name="uogonek" unicode="&#x173;" horiz-adv-x="540" d="M474.06 4.25 C467.76 25.29 459.38 51.46 467.53 109.28 L517.96 469.16 L462.44 469.16 L416.49 142.69 C400.31 116.44 348.97 41.96 262.28 41.96 C176.99 41.96 151.17 92.12 165.47 196.03 L203.14 469.15 L147.56 469.15 L107.56 182.19 C89.82 56.32 140.84 -10.12 246.72 -10.12 C320.44 -10.12 375.26 33.21 408.01 78.11 C406.01 50.72 408.44 23.96 414.13 3.74001 C352.23 -30.48 329.03 -73.02 329.03 -116.19 C329.03 -157.82 356.7 -183.34 398 -183.34 C426.66 -183.34 452.21 -172.72 472.17 -156.14 L457.05 -116.55 C445.79 -125.18 430.61 -134.59 413.43 -134.59 C395.36 -134.59 383.19 -123.25 383.19 -99.53 C383.19 -65.33 404.92 -27.1 474.09 4.23997 L474.06 4.25 Z " />
<glyph glyph-name="Wcircumflex" unicode="&#x174;" horiz-adv-x="852" d="M536.98 750.67 L624.56 676.63 L649.33 705.01 L559.79 794.93 L521 794.93 L406.35 705.41 L430.13 676.59 L536.98 750.67 Z M847.64 642 L618.43 88.36 L611.48 71 L610.03 88.6 L541.76 584.5 L482.48 584.5 L264.16 86.52 L258.25 71.02 L256.83 86.81 L190.78 642 L129.58 642 L215.06 0 L278.75 0 L482.69 459.58 L502.15 506.45 L506.57 460.66 L569.59 -0.00999451 L631.71 -0.00999451 L905.89 641.99 L847.64 642 Z " />
<glyph glyph-name="wcircumflex" unicode="&#x175;" horiz-adv-x="713" d="M448.2 623.63 L527.74 530.06 L560 559.67 L472.68 673.2 L433.25 673.2 L313.85 561.33 L341.94 531.31 L448.2 623.63 Z M682.24 469.17 L509.31 61.41 L451.14 469.17 L390.93 469.17 L222.98 61.66 L163.21 469.13 L103.76 469.13 L181.94 -0.0399933 L247.05 -0.0399933 L411.9 392.33 L467.79 -0.0399933 L532.22 -0.0399933 L741.01 469.13 L682.24 469.17 Z " />
<glyph glyph-name="Ycircumflex" unicode="&#x176;" horiz-adv-x="567" d="M391.61 750.67 L479.19 676.63 L503.96 705.01 L414.42 794.93 L375.63 794.93 L260.98 705.41 L284.76 676.59 L391.61 750.67 Z M617.34 642 L552.74 642 L338.24 330.45 L328.11 314.87 L322.52 329.76 L188.12 641.99 L124.57 641.99 L292.7 259.87 L256.11 -0.0100098 L311.58 -0.0100098 L348.23 259.9 L617.34 642 Z " />
<glyph glyph-name="ycircumflex" unicode="&#x177;" horiz-adv-x="538" d="M352.46 623.63 L432 530.06 L464.26 559.67 L376.94 673.2 L337.51 673.2 L218.11 561.33 L246.2 531.31 L352.46 623.63 Z M461.25 469.17 L415.39 142.14 C398.64 115.37 345.78 41.98 259.3 41.98 C176.17 41.98 149.79 92.18 164.17 196.09 L202 469.17 L146.42 469.17 L106.25 182.25 C88.42 56.37 136.31 -10.11 243.58 -10.11 C317.79 -10.11 373.08 32.56 406.27 77.1 L395.08 -2.67001 C383.04 -88.67 321.09 -142.77 226.26 -142.77 C172.97 -142.77 132.5 -130.8 96.59 -101.52 L69.52 -147.93 C110.78 -179 161.21 -192.1 219.11 -192.1 C338.49 -192.1 434.23 -119.98 450.67 -2.68004 L516.84 469.15 L461.25 469.17 Z " />
<glyph glyph-name="Ydieresis" unicode="&#x178;" horiz-adv-x="567" d="M294.6 704.83 C319.2 704.83 340.68 724.94 340.68 750.6 C340.68 770.33 326.93 785.75 306.17 785.75 C280.67 785.75 260.1 765.31 260.1 740.41 C260.1 719.92 274.63 704.84 294.59 704.84 L294.6 704.83 Z M470.07 704.84 C494.67 704.84 516.15 724.95 516.15 750.61 C516.15 770.34 502.4 785.76 481.6 785.76 C456.14 785.76 435.57 765.32 435.57 740.42 C435.57 719.93 450.06 704.85 470.06 704.85 L470.07 704.84 Z M617.33 642.02 L552.73 642.02 L338.23 330.47 L328.1 314.89 L322.51 329.78 L188.11 642.01 L124.56 642.01 L292.69 259.89 L256.1 0.00997925 L311.57 0.00997925 L348.22 259.92 L617.33 642.02 Z " />
<glyph glyph-name="Zacute" unicode="&#x179;" horiz-adv-x="528" d="M464.84 739.28 L449.23 799.54 L272.7 718.21 L282.77 677.38 L464.84 739.28 Z M558.16 592.79 L565.28 642.01 L142.86 642.01 L135.63 592.09 L489.07 592.63 L471.85 572.92 L53.08 48.4 L46.08 -1.52588e-05 L480.97 -1.52588e-05 L488.1 49.33 L124.17 49.33 L141.98 70 L558.16 592.79 Z " />
<glyph glyph-name="zacute" unicode="&#x17a;" horiz-adv-x="453" d="M395.58 634.83 L362.8 684.68 L208.65 558.74 L231.37 525.83 L395.58 634.83 Z M463.89 469.16 L121.41 469.16 L114.61 421.99 L396.65 421.99 L56.88 55.16 L48.92 -0.00999451 L403.5 -0.00999451 L410.44 47.16 L118.82 47.16 L455.91 413.53 L463.89 469.16 Z " />
<glyph glyph-name="Zdotaccent" unicode="&#x17b;" horiz-adv-x="528" d="M360.74 704.42 C385.67 704.42 408.32 725.81 408.32 752.11 C408.32 773.01 393.64 789.42 372.9 789.42 C347.36 789.42 324.38 767.7 324.38 741.81 C324.38 720.56 339.9 704.43 360.73 704.43 L360.74 704.42 Z M558.15 592.8 L565.27 642.02 L142.85 642.02 L135.62 592.1 L489.06 592.64 L471.84 572.93 L53.07 48.41 L46.07 0.00997925 L480.96 0.00997925 L488.09 49.34 L124.16 49.34 L141.97 70.01 L558.15 592.8 Z " />
<glyph glyph-name="zdotaccent" unicode="&#x17c;" horiz-adv-x="453" d="M299.9 562.29 C325.42 562.29 348.64 584.32 348.64 611.32 C348.64 632.69 333.57 649.62 312.42 649.62 C285.4 649.62 262.67 627.25 262.67 600.72 C262.67 578.95 278.6 562.29 299.9 562.29 L299.9 562.29 Z M463.88 469.17 L121.4 469.17 L114.6 422 L396.64 422 L56.87 55.17 L48.91 -1.52588e-05 L403.49 -1.52588e-05 L410.43 47.17 L118.81 47.17 L455.9 413.54 L463.88 469.17 Z " />
<glyph glyph-name="Zcaron" unicode="&#x17d;" horiz-adv-x="528" d="M376.18 677.84 L489.68 766.89 L469.7 797.17 L361.74 722.1 L273.17 796.14 L249.44 766.89 L337.93 677.84 L376.18 677.84 Z M558.17 592.78 L565.29 642 L142.87 642 L135.64 592.08 L489.08 592.62 L471.86 572.91 L53.09 48.39 L46.09 -0.010025 L480.98 -0.010025 L488.11 49.32 L124.18 49.32 L141.99 69.99 L558.17 592.78 Z " />
<glyph glyph-name="zcaron" unicode="&#x17e;" horiz-adv-x="453" d="M315.96 531.6 L435.88 647.6 L408.78 677.62 L300.4 581.14 L220.81 678.87 L189.72 649.26 L276.46 531.6 L315.96 531.6 Z M463.88 469.17 L121.4 469.17 L114.6 422 L396.64 422 L56.87 55.17 L48.91 1.52588e-05 L403.49 1.52588e-05 L410.43 47.17 L118.81 47.17 L455.9 413.54 L463.88 469.17 Z " />
<glyph glyph-name="uni01EA" unicode="&#x1ea;" horiz-adv-x="700" d="M459.41 9.67999 C599.96 62.42 687.31 213.58 687.31 381.69 C687.31 542.24 594.29 654.41 441.21 654.41 C246.38 654.41 102.27 473.69 102.27 265.77 C102.27 105.94 194.16 -10.18 347.81 -10.18 C359.15 -10.18 370.28 -9.62 381.18 -8.51999 C339.88 -41.02 321.24 -77.18 321.24 -116.18 C321.24 -157.81 348.91 -183.33 390.21 -183.33 C420.15 -183.33 444.42 -172.71 464.38 -156.13 L449.26 -116.54 C438 -125.17 422.82 -134.58 405.65 -134.58 C387.58 -134.58 375.41 -123.24 375.41 -99.52 C375.41 -64.42 402.82 -24.75 459.41 9.66998 L459.41 9.67999 Z M159.78 268.84 C159.78 447.47 273.06 602.85 433.93 602.85 C559.07 602.85 629.79 515.4 629.79 378.64 C629.79 199.86 522.61 42.82 355.09 41.44 C229.81 40.4 159.79 134.19 159.79 268.84 L159.78 268.84 Z " />
<glyph glyph-name="uni01EB" unicode="&#x1eb;" horiz-adv-x="554" d="M351.8 -1.64 C457.35 27.2 530.65 127.33 530.65 269.51 C530.65 390.81 456.76 481.75 332.07 481.75 C198.34 481.75 88.34 371.44 88.34 201.21 C88.34 79.07 162.59 -10.16 286.85 -10.16 L288.81 -10.16 C248.97 -42.23 230.96 -77.83 230.96 -116.18 C230.96 -157.81 258.63 -183.33 299.93 -183.33 C329.87 -183.33 354.14 -172.71 374.1 -156.13 L358.98 -116.54 C347.72 -125.17 332.54 -134.58 315.37 -134.58 C297.3 -134.58 285.13 -123.24 285.13 -99.52 C285.13 -68.21 306.94 -33.26 351.82 -1.65004 L351.8 -1.64 Z M145.2 206.24 C145.2 340.97 222.38 430.24 324.78 430.24 C423.69 430.24 473.74 359.68 473.74 264.21 C473.74 132.59 397.76 41.31 294.18 41.31 C194.94 41.31 145.2 111.5 145.2 206.22 L145.2 206.24 Z " />
<glyph glyph-name="AEacute" unicode="&#x1fc;" horiz-adv-x="837" d="M712.83 739.28 L697.22 799.54 L520.69 718.21 L530.77 677.38 L712.83 739.28 Z M851.77 590.92 L859.24 642 L474.18 642 L5.89001 -1.52588e-05 L69.95 -1.52588e-05 L211.28 193.67 L441.37 193.67 L414.13 -1.52588e-05 L779.98 -1.52588e-05 L787.39 51.08 L476.52 51.08 L512.31 306.75 L781.98 306.75 L789.35 357.83 L519.46 357.83 L552.09 590.91 L851.77 590.92 Z M246.86 242.41 L496.31 584.25 L448.23 242.41 L246.86 242.41 Z " />
<glyph glyph-name="aeacute" unicode="&#x1fd;" horiz-adv-x="808" d="M570.39 634.83 L537.61 684.68 L383.46 558.74 L406.18 525.83 L570.39 634.83 Z M782.81 228.29 C786.08 241.07 794.42 259.49 794.42 303.92 C794.42 410.63 728.94 481.8 629.18 481.8 C560.06 481.8 493.03 448.09 445.99 389.75 C427.51 457.17 365.99 481.75 290.92 481.75 C231.08 481.75 179.59 467.91 139.49 448.47 L144.46 399.09 C194.46 421.39 235.53 429.67 279.15 429.67 C358.58 429.67 406.47 396.83 394.36 309.92 L388.7 269.21 L388.41 267.92 L272.07 267.92 C140.95 267.92 65.48 210.35 65.48 110.23 C65.48 36.07 117.23 -10.15 196.96 -10.15 C276.24 -10.15 349.95 33.04 391.89 112.02 C416.91 33.27 481.08 -10.11 568.83 -10.11 C646.06 -10.11 699.81 16.44 739.69 45.31 L723.75 90.64 C694.61 69.18 652.95 41.39 577.6 41.39 C476.88 41.39 425.38 114.82 440.07 228.31 L782.81 228.29 Z M621.94 431.48 C701.85 431.48 748.43 370.6 734.71 272.39 L447.92 272.39 C468.96 362.16 535.21 431.47 621.93 431.47 L621.94 431.48 Z M214.46 39.01 C156.98 39.01 123.06 67.95 123.06 117.47 C123.06 176.97 158.29 222.62 266.32 223.26 L381.36 223.84 L371.44 151.66 C357.36 104.2 300.43 39 214.45 39 L214.46 39.01 Z " />
<glyph glyph-name="Oslashacute" unicode="&#x1fe;" horiz-adv-x="708" d="M559.13 739.28 L544.04 797.89 L368.96 716 L377.02 677.37 L559.13 739.28 Z M740.68 624.74 L706.52 660.15 L622.76 578.03 C580.64 626.09 520.28 654.41 445.58 654.41 C253.4 654.41 107.02 483.57 107.02 271.81 C107.02 210.6 120.38 155.17 145.33 109.98 L56.64 23.03 L89.81 -15.3 L174.45 67.93 C216.55 19.07 277.03 -10.17 352.06 -10.17 C543.6 -10.17 690.65 163.86 690.65 373.68 C690.65 436.16 677.01 492.02 651.59 537.14 L740.68 624.74 Z M164.62 274.72 C164.62 461.62 276.84 602.91 437.91 602.91 C500.03 602.91 548.82 579.12 582.08 538.16 L188.25 152.06 C172.71 186.97 164.62 228.61 164.62 274.73 L164.62 274.72 Z M633.08 370.34 C633.08 184.78 520.46 41.46 359.55 41.46 C297.01 41.46 248.09 66.01 214.9 107.72 L608.65 494.93 C624.7 459.83 633.08 417.58 633.08 370.35 L633.08 370.34 Z " />
<glyph glyph-name="oslashacute" unicode="&#x1ff;" horiz-adv-x="566" d="M458.16 634.83 L425.42 684.64 L271.52 558.36 L293.95 525.83 L458.16 634.83 Z M578.83 464.54 L547.34 498.83 L474.62 426.6 C440.78 461.2 392.98 481.75 333.7 481.75 C199.97 481.75 89.97 371.44 89.97 201.21 C89.97 153.61 101.25 111.01 122.37 76.74 L53.26 8.09001 L84.42 -28.54 L152.67 39.52 C186.18 8.14 232.2 -10.17 288.48 -10.17 C427.7 -10.17 532.29 99.66 532.29 269.5 C532.29 314.5 522.12 355.32 502.96 388.87 L578.83 464.54 Z M146.81 206.24 C146.81 340.97 223.98 430.24 326.38 430.24 C373.66 430.24 409.78 414.11 434.6 386.85 L164.62 118.69 C152.75 143.69 146.81 173.5 146.81 206.24 L146.81 206.24 Z M475.34 264.22 C475.34 132.6 399.36 41.32 295.79 41.32 C251.48 41.32 217.04 55.32 192.49 79.24 L460.21 346.24 C470.29 322.39 475.35 294.56 475.35 264.21 L475.34 264.22 Z " />
<glyph glyph-name="Scommaaccent" unicode="&#x218;" horiz-adv-x="509" d="M348.68 654.42 C223.4 654.42 136.56 577.4 136.56 478.01 C136.56 365.2 217.65 336.53 293.08 307.65 C358.52 282.58 419.63 257.86 419.63 177.15 C419.63 103.65 359.74 41.93 260.39 41.93 C179.01 41.93 132.34 72.47 101.04 111.89 L61.5 70.35 C92.57 31.52 152.22 -10.15 253.29 -10.15 C388.11 -10.15 476.5 65.66 476.5 183.73 C476.5 292.64 401.65 328.5 330.07 358.02 C262.16 385.94 194.37 404.4 194.37 482.49 C194.37 543.97 254 602.36 340.65 602.36 C408.46 602.36 449 579.94 485.38 547.06 L521.07 591.81 C484.42 626.73 434.29 654.44 348.69 654.44 L348.68 654.42 Z M251.54 -41.98 C224.99 -41.98 200.39 -65.38 200.39 -92.66 C200.39 -112.87 213.95 -130.99 235.97 -132.56 C232.59 -153.63 220.56 -183.18 195.69 -212.13 L214.86 -227.67 C261.18 -182.14 290.03 -127.02 290.03 -82.76 C290.03 -58.95 273.65 -41.98 251.55 -41.98 L251.54 -41.98 Z " />
<glyph glyph-name="scommaaccent" unicode="&#x219;" horiz-adv-x="445" d="M298.47 481.75 C189.34 481.75 111.48 428.73 111.48 346.12 C111.48 182.03 354.45 248.1 354.45 130.44 C354.45 79.6 306.28 39.57 223.62 39.57 C148.74 39.57 108.47 67.65 85.78 89.03 L56.99 43.2 C87.64 14.92 140.26 -10.17 215.81 -10.17 C333.13 -10.17 410.13 46.2 410.13 139.57 C410.13 301.95 167.58 241.51 167.58 351.89 C167.58 398.66 216.42 431.99 291.14 431.99 C348.36 431.99 386.06 417.58 416.88 399.42 L435.26 447.99 C408.07 463.62 366.73 481.73 298.45 481.73 L298.47 481.75 Z M223.4 -42.02 C196.85 -42.02 172.25 -65.42 172.25 -92.7 C172.25 -112.91 185.81 -131.03 207.83 -132.6 C204.45 -153.67 192.42 -183.22 167.55 -212.17 L186.72 -227.71 C233.05 -182.18 261.9 -127.06 261.9 -82.8 C261.9 -58.99 245.52 -42.02 223.42 -42.02 L223.4 -42.02 Z " />
<glyph glyph-name="uni021A" unicode="&#x21a;" horiz-adv-x="521" d="M577.45 642 L123.45 642 L116.08 591.33 L315.39 591.33 L232.43 0 L287.91 0 L370.91 591.33 L570.08 591.33 L577.45 642 Z M254.2 -42 C227.65 -42 203.05 -65.4 203.05 -92.68 C203.05 -112.89 216.61 -131.01 238.63 -132.58 C235.25 -153.65 223.22 -183.2 198.35 -212.15 L217.52 -227.69 C263.85 -182.16 292.7 -127.04 292.7 -82.78 C292.7 -58.97 276.32 -42 254.22 -42 L254.2 -42 Z " />
<glyph glyph-name="uni021B" unicode="&#x21b;" horiz-adv-x="366" d="M221.57 423.33 L373.87 423.33 L380.42 469.16 L228.02 469.16 L245.72 594.83 L187.9 581.66 L172.12 469.17 L98.1 469.17 L91.49 423.34 L165.69 423.34 L126.12 141.23 C111.53 37.37 161.84 -10.16 240.32 -10.16 C293.8 -10.16 330.18 11.11 353.6 31.09 L334.15 72.96 C316.18 57.89 287.22 39.58 252.52 39.58 C207.78 39.58 169.58 59.58 183.32 151.75 L221.57 423.33 Z M225.3 -42 C198.75 -42 174.15 -65.4 174.15 -92.68 C174.15 -112.89 187.71 -131.01 209.73 -132.58 C206.35 -153.65 194.32 -183.2 169.45 -212.15 L188.62 -227.69 C234.95 -182.16 263.8 -127.04 263.8 -82.78 C263.8 -58.97 247.42 -42 225.32 -42 L225.3 -42 Z " />
<glyph glyph-name="uni0237" unicode="&#x237;" horiz-adv-x="224" d="M218.05 469.17 L102.42 469.17 L95.3 420.42 L155.27 420.42 L92.87 -34.21 C83.7 -100.75 41.73 -144.33 -7.51999 -144.33 C-38.82 -144.33 -57.69 -130.72 -73.01 -115.51 L-104.08 -157.18 C-88.48 -172.21 -58.35 -194.08 -7.87999 -194.08 C67.12 -194.08 132.29 -140.51 147.06 -35.51 L218.05 469.17 Z " />
<glyph glyph-name="circumflex" unicode="&#x2c6;" horiz-adv-x="323" d="M270.42 673.2 L230.99 673.2 L111.59 561.33 L139.68 531.31 L245.95 623.63 L325.49 530.06 L357.75 559.67 L270.42 673.2 Z " />
<glyph glyph-name="caron" unicode="&#x2c7;" horiz-adv-x="322" d="M211.24 531.6 L250.73 531.6 L370.66 647.6 L343.56 677.62 L235.18 581.14 L155.59 678.87 L124.5 649.26 L211.24 531.6 Z " />
<glyph glyph-name="breve" unicode="&#x2d8;" horiz-adv-x="330" d="M234.38 535.42 C310.52 535.42 355.8 584.21 370.63 657.25 L320.91 662.49 C309.53 609.39 279.05 579.62 239.33 579.62 C195.62 579.62 171.37 609.2 170.34 662.2 L125.79 655.82 C123.59 586.1 162.24 535.4 234.37 535.4 L234.38 535.42 Z " />
<glyph glyph-name="dotaccent" unicode="&#x2d9;" horiz-adv-x="192" d="M220.59 611.33 C220.59 632.7 205.52 649.63 184.37 649.63 C157.35 649.63 134.62 627.26 134.62 600.73 C134.62 578.96 150.55 562.3 171.85 562.3 C197.37 562.3 220.59 584.33 220.59 611.33 L220.59 611.33 Z " />
<glyph glyph-name="ring" unicode="&#x2da;" horiz-adv-x="259" d="M295.58 613.88 C295.58 658.18 266.05 694.09 221.48 694.09 C163.26 694.09 120.34 647.63 120.34 590.63 C120.34 546.33 149.96 510.42 195.49 510.42 C255.37 510.42 295.59 558.55 295.59 613.88 L295.58 613.88 Z M201.03 549.25 C174.27 549.25 159.33 570.65 159.33 595.14 C159.33 626.45 180.95 655.83 215.95 655.83 C243.25 655.83 257.22 634.98 257.22 610.16 C257.22 579.16 235.47 549.24 201.04 549.24 L201.03 549.25 Z " />
<glyph glyph-name="ogonek" unicode="&#x2db;" horiz-adv-x="272" d="M94.72 -183.33 C124.66 -183.33 148.93 -172.71 168.89 -156.13 L153.77 -116.54 C142.51 -125.17 127.33 -134.58 110.16 -134.58 C92.09 -134.58 79.92 -123.24 79.92 -99.52 C79.92 -58.52 117.35 -11.26 195.01 26.57 L146.92 28.94 C62.44 -12.33 25.76 -61.46 25.76 -116.19 C25.76 -157.82 53.43 -183.34 94.73 -183.34 L94.72 -183.33 Z " />
<glyph glyph-name="tilde" unicode="&#x2dc;" horiz-adv-x="388" d="M374.19 643.34 C363.44 621.71 347.56 608.33 320.72 608.33 C286.04 608.33 259.42 647.5 212.28 647.5 C171.01 647.5 137.04 623 117.33 580.98 L159.27 564.76 C171.91 586.33 187.36 599.92 210.17 599.92 C245.14 599.92 272.52 561.34 320 561.34 C364.47 561.34 396.27 585.26 414.39 627.28 L374.19 643.34 Z " />
<glyph glyph-name="hungarumlaut" unicode="&#x2dd;" horiz-adv-x="349" d="M132.28 520.09 L251.45 657.25 L207.06 690.35 L102.96 538.92 L132.28 520.09 Z M270.96 520.09 L390.19 657.25 L345.74 690.35 L241.64 538.92 L270.96 520.09 Z " />
<glyph glyph-name="gravecomb" unicode="&#x300;" d="M17.75 525.67 L44.67 555.29 L-72.96 682.35 L-115.94 634.84 L17.75 525.67 Z " />
<glyph glyph-name="acutecomb" unicode="&#x301;" d="M-109.96 525.83 L54.25 634.83 L21.47 684.68 L-132.68 558.74 L-109.96 525.83 Z " />
<glyph glyph-name="uni0302" unicode="&#x302;" d="M-42.41 673.2 L-81.84 673.2 L-201.24 561.33 L-173.15 531.31 L-66.88 623.63 L12.66 530.06 L44.92 559.67 L-42.41 673.2 Z " />
<glyph glyph-name="tildecomb" unicode="&#x303;" d="M14.98 643.34 C4.23 621.71 -11.65 608.33 -38.49 608.33 C-73.17 608.33 -99.79 647.5 -146.93 647.5 C-188.2 647.5 -222.17 623 -241.88 580.98 L-199.94 564.76 C-187.3 586.33 -171.85 599.92 -149.04 599.92 C-114.06 599.92 -86.68 561.34 -39.2 561.34 C5.26999 561.34 37.07 585.26 55.19 627.28 L14.98 643.34 Z " />
<glyph glyph-name="uni0304" unicode="&#x304;" d="M-201.8 568.67 L37.44 568.67 L44.08 614.84 L-195.16 614.84 L-201.8 568.67 Z " />
<glyph glyph-name="uni0306" unicode="&#x306;" d="M-80.51 535.42 C-4.37 535.42 40.91 584.21 55.74 657.25 L6.02 662.49 C-5.36 609.39 -35.84 579.62 -75.56 579.62 C-119.27 579.62 -143.52 609.2 -144.55 662.2 L-189.1 655.82 C-191.3 586.1 -152.65 535.4 -80.52 535.4 L-80.51 535.42 Z " />
<glyph glyph-name="uni0307" unicode="&#x307;" d="M35.79 611.33 C35.79 632.7 20.72 649.63 -0.430008 649.63 C-27.45 649.63 -50.18 627.26 -50.18 600.73 C-50.18 578.96 -34.25 562.3 -12.95 562.3 C12.57 562.3 35.79 584.33 35.79 611.33 L35.79 611.33 Z " />
<glyph glyph-name="uni0308" unicode="&#x308;" d="M-142.42 607.2 C-142.42 627.22 -156.17 642.87 -175.88 642.87 C-201.01 642.87 -222.64 622.08 -222.64 596.71 C-222.64 575.81 -207.99 560.49 -187.62 560.49 C-163.66 560.49 -142.41 581.07 -142.41 607.2 L-142.42 607.2 Z M46.01 607.03 C46.01 627.17 31.68 642.88 11.91 642.88 C-12.52 642.88 -34.33 622.09 -34.33 596.72 C-34.33 575.82 -19.72 560.5 0.11998 560.5 C24 560.5 46 580.96 46 607.03 L46.01 607.03 Z " />
<glyph glyph-name="uni030A" unicode="&#x30a;" d="M49.25 613.88 C49.25 658.18 19.72 694.09 -24.85 694.09 C-83.07 694.09 -125.99 647.63 -125.99 590.63 C-125.99 546.33 -96.37 510.42 -50.84 510.42 C9.03999 510.42 49.26 558.55 49.26 613.88 L49.25 613.88 Z M-45.3 549.25 C-72.06 549.25 -87 570.65 -87 595.14 C-87 626.45 -65.38 655.83 -30.38 655.83 C-3.08 655.83 10.89 634.98 10.89 610.16 C10.89 579.16 -10.86 549.24 -45.29 549.24 L-45.3 549.25 Z " />
<glyph glyph-name="uni030B" unicode="&#x30b;" d="M-197.23 520.09 L-78.06 657.25 L-122.45 690.35 L-226.55 538.92 L-197.23 520.09 Z M-58.55 520.09 L60.68 657.25 L16.23 690.35 L-87.87 538.92 L-58.55 520.09 Z " />
<glyph glyph-name="uni030C" unicode="&#x30c;" d="M-100.83 531.6 L-61.34 531.6 L58.59 647.6 L31.49 677.62 L-76.89 581.14 L-156.48 678.87 L-187.57 649.26 L-100.83 531.6 Z " />
<glyph glyph-name="uni0326" unicode="&#x326;" d="M-93.73 -42 C-120.28 -42 -144.88 -65.4 -144.88 -92.68 C-144.88 -112.89 -131.32 -131.01 -109.3 -132.58 C-112.68 -153.65 -124.71 -183.2 -149.58 -212.15 L-130.41 -227.69 C-84.09 -182.16 -55.24 -127.04 -55.24 -82.78 C-55.24 -58.97 -71.62 -42 -93.72 -42 L-93.73 -42 Z " />
<glyph glyph-name="uni0327" unicode="&#x327;" d="M-123.38 6.42 L-160.85 -68.08 C-118.36 -69.98 -93.87 -81.55 -93.87 -108.33 C-93.87 -137.86 -118.39 -150.17 -150.59 -150.17 C-169.7 -150.17 -184.99 -143.39 -194.99 -136.92 L-215.12 -173.42 C-206.06 -180.59 -180.4 -189.53 -151.33 -189.53 C-95.83 -189.53 -43.73 -166.37 -43.73 -104.52 C-43.73 -65.59 -73.44 -45.4 -107.04 -39.34 L-84.22 6.41 L-123.38 6.42 Z " />
<glyph glyph-name="uni0328" unicode="&#x328;" d="M-149.87 -183.33 C-119.93 -183.33 -95.66 -172.71 -75.7 -156.13 L-90.82 -116.54 C-102.08 -125.17 -117.26 -134.58 -134.43 -134.58 C-152.5 -134.58 -164.67 -123.24 -164.67 -99.52 C-164.67 -58.52 -127.24 -11.26 -49.58 26.57 L-97.67 28.94 C-182.15 -12.33 -218.83 -61.46 -218.83 -116.19 C-218.83 -157.82 -191.16 -183.34 -149.86 -183.34 L-149.87 -183.33 Z " />
<glyph glyph-name="uni0335" unicode="&#x335;" d="M-198.39 446.58 L23.04 446.58 L29.51 491.58 L-191.97 491.58 L-198.39 446.58 Z " />
<glyph glyph-name="uni0336" unicode="&#x336;" d="M-552.64 448.92 L17.44 448.92 L23.67 492.75 L-546.41 492.75 L-552.64 448.92 Z " />
<glyph glyph-name="uni0337" unicode="&#x337;" d="M-179.94 271.21 L26.83 372.38 L13.22 410.63 L-193.6 309.42 L-179.94 271.21 Z " />
<glyph glyph-name="uni0338" unicode="&#x338;" d="M-500.42 -26.04 L-6 467.04 L-32.12 495.5 L-526.2 4.75002 L-500.42 -26.04 Z " />
<glyph glyph-name="Wgrave" unicode="&#x1e80;" horiz-adv-x="852" d="M613.5 711.57 L459.27 795.5 L429.04 739.98 L596.97 677.37 L613.5 711.57 Z M847.64 641.99 L618.43 88.35 L611.48 70.99 L610.03 88.59 L541.76 584.49 L482.48 584.49 L264.16 86.51 L258.25 71.01 L256.83 86.8 L190.78 641.99 L129.58 641.99 L215.06 -0.0100098 L278.75 -0.0100098 L482.69 459.57 L502.15 506.44 L506.57 460.65 L569.59 -0.0200043 L631.71 -0.0200043 L905.89 641.98 L847.64 641.99 Z " />
<glyph glyph-name="wgrave" unicode="&#x1e81;" horiz-adv-x="713" d="M514.95 555.28 L397.32 682.34 L354.34 634.83 L488.04 525.66 L514.95 555.28 Z M682.24 469.16 L509.31 61.4 L451.14 469.16 L390.93 469.16 L222.98 61.65 L163.21 469.12 L103.76 469.12 L181.94 -0.0499878 L247.05 -0.0499878 L411.9 392.32 L467.79 -0.0499878 L532.22 -0.0499878 L741.01 469.12 L682.24 469.16 Z " />
<glyph glyph-name="Wacute" unicode="&#x1e82;" horiz-adv-x="852" d="M632.34 739.28 L616.73 799.54 L440.2 718.21 L450.27 677.38 L632.34 739.28 Z M847.64 642 L618.43 88.36 L611.48 71 L610.03 88.6 L541.76 584.5 L482.48 584.5 L264.16 86.52 L258.25 71.02 L256.83 86.81 L190.78 642 L129.58 642 L215.06 -1.52588e-05 L278.75 -1.52588e-05 L482.69 459.58 L502.15 506.45 L506.57 460.66 L569.59 -0.0100098 L631.71 -0.0100098 L905.89 641.99 L847.64 642 Z " />
<glyph glyph-name="wacute" unicode="&#x1e83;" horiz-adv-x="713" d="M533 634.83 L500.22 684.68 L346.07 558.74 L368.8 525.83 L533 634.83 Z M682.25 469.16 L509.32 61.4 L451.15 469.16 L390.94 469.16 L222.99 61.65 L163.22 469.12 L103.77 469.12 L181.95 -0.0499878 L247.06 -0.0499878 L411.91 392.32 L467.8 -0.0499878 L532.23 -0.0499878 L741.02 469.12 L682.25 469.16 Z " />
<glyph glyph-name="Wdieresis" unicode="&#x1e84;" horiz-adv-x="852" d="M439.97 704.83 C464.57 704.83 486.05 724.94 486.05 750.6 C486.05 770.33 472.3 785.75 451.54 785.75 C426.04 785.75 405.47 765.31 405.47 740.41 C405.47 719.92 420 704.84 439.96 704.84 L439.97 704.83 Z M615.44 704.84 C640.04 704.84 661.52 724.95 661.52 750.61 C661.52 770.34 647.77 785.76 626.97 785.76 C601.51 785.76 580.94 765.32 580.94 740.42 C580.94 719.93 595.43 704.85 615.43 704.85 L615.44 704.84 Z M847.62 642.02 L618.41 88.38 L611.46 71.02 L610.01 88.62 L541.74 584.52 L482.46 584.52 L264.14 86.54 L258.23 71.04 L256.81 86.83 L190.76 642.02 L129.56 642.02 L215.04 0.019989 L278.73 0.019989 L482.67 459.6 L502.13 506.47 L506.55 460.68 L569.57 0.00999451 L631.69 0.00999451 L905.87 642.01 L847.62 642.02 Z " />
<glyph glyph-name="wdieresis" unicode="&#x1e85;" horiz-adv-x="713" d="M343.73 560.5 C367.69 560.5 388.94 581.08 388.94 607.21 C388.94 627.23 375.19 642.88 355.48 642.88 C330.35 642.88 308.72 622.09 308.72 596.72 C308.72 575.82 323.37 560.5 343.74 560.5 L343.73 560.5 Z M531.47 560.5 C555.35 560.5 577.35 580.96 577.35 607.03 C577.35 627.17 563.02 642.88 543.25 642.88 C518.82 642.88 497.01 622.09 497.01 596.72 C497.01 575.82 511.62 560.5 531.46 560.5 L531.47 560.5 Z M682.23 469.17 L509.3 61.41 L451.13 469.17 L390.92 469.17 L222.97 61.66 L163.2 469.13 L103.75 469.13 L181.93 -0.0399475 L247.04 -0.0399475 L411.89 392.33 L467.78 -0.0399475 L532.21 -0.0399475 L741 469.13 L682.23 469.17 Z " />
<glyph glyph-name="uni1E9E" unicode="&#x1e9e;" horiz-adv-x="620" d="M412.08 363.25 L581.63 590.33 L589.1 642 L409.97 642 C285.63 642 177.1 575.83 156.77 430.87 L96.77 -0.0100098 L151.77 -0.0100098 L211.48 427.97 C225.94 531.74 310.05 590.33 399.78 590.33 L515.83 590.33 L348.89 365.62 L341.35 312.96 L359.93 313.1 L359.93 312.96 L377.97 312.96 C455.04 313.08 536.98 282.83 536.98 184.69 C536.98 106.55 483.19 41.87 388.13 41.87 C338.43 41.87 303.38 61.09 278.54 85.57 L239.07 43.14 C267.59 15.28 315.03 -10.2 386.39 -10.2 C518.74 -10.2 593.46 77.64 593.46 190.2 C593.46 302.16 506.22 357.71 412.13 363.22 L412.08 363.25 Z " />
<glyph glyph-name="Ygrave" unicode="&#x1ef2;" horiz-adv-x="567" d="M468.13 711.57 L313.91 795.5 L283.68 739.98 L451.61 677.37 L468.13 711.57 Z M617.35 641.99 L552.75 641.99 L338.25 330.44 L328.12 314.86 L322.53 329.75 L188.13 641.98 L124.58 641.98 L292.71 259.86 L256.12 -0.0200195 L311.59 -0.0200195 L348.24 259.89 L617.35 641.99 Z " />
<glyph glyph-name="ygrave" unicode="&#x1ef3;" horiz-adv-x="538" d="M419.21 555.28 L301.58 682.34 L258.6 634.83 L392.3 525.66 L419.21 555.28 Z M461.25 469.16 L415.39 142.13 C398.64 115.36 345.78 41.97 259.3 41.97 C176.17 41.97 149.79 92.17 164.17 196.08 L202 469.16 L146.42 469.16 L106.25 182.24 C88.42 56.36 136.31 -10.12 243.58 -10.12 C317.79 -10.12 373.08 32.55 406.27 77.09 L395.08 -2.68001 C383.04 -88.68 321.09 -142.78 226.26 -142.78 C172.97 -142.78 132.5 -130.81 96.59 -101.53 L69.52 -147.94 C110.78 -179.01 161.21 -192.11 219.11 -192.11 C338.49 -192.11 434.23 -119.99 450.67 -2.69003 L516.84 469.14 L461.25 469.16 Z " />
<glyph glyph-name="uni1EF8" unicode="&#x1ef8;" horiz-adv-x="567" d="M326.53 739 C363.38 739 394.01 699.17 442.65 699.17 C485.91 699.17 517.38 721.25 535.91 760.31 L496.67 776.68 C485.25 757.39 469.7 745.76 443.7 745.76 C407.89 745.76 376.4 786.18 328.38 786.18 C287.11 786.18 253.81 762.8 233.52 722.62 L274.92 706.56 C289.1 726.88 303.18 739.01 326.53 739.01 L326.53 739 Z M617.35 642.01 L552.75 642.01 L338.25 330.46 L328.12 314.88 L322.53 329.77 L188.13 642 L124.58 642 L292.71 259.88 L256.12 0 L311.59 0 L348.24 259.91 L617.35 642.01 Z " />
<glyph glyph-name="uni1EF9" unicode="&#x1ef9;" horiz-adv-x="538" d="M292.24 599.92 C327.22 599.92 354.6 561.34 402.08 561.34 C446.55 561.34 478.35 585.26 496.47 627.28 L456.27 643.35 C445.52 621.72 429.64 608.34 402.8 608.34 C368.12 608.34 341.5 647.51 294.36 647.51 C253.09 647.51 219.12 623.01 199.41 580.99 L241.35 564.77 C253.99 586.34 269.44 599.93 292.25 599.93 L292.24 599.92 Z M461.25 469.18 L415.39 142.15 C398.64 115.38 345.78 41.99 259.3 41.99 C176.17 41.99 149.79 92.19 164.17 196.1 L202 469.18 L146.42 469.18 L106.25 182.26 C88.42 56.38 136.31 -10.1 243.58 -10.1 C317.79 -10.1 373.08 32.57 406.27 77.11 L395.08 -2.66002 C383.04 -88.66 321.09 -142.76 226.26 -142.76 C172.97 -142.76 132.5 -130.79 96.59 -101.51 L69.52 -147.92 C110.78 -178.99 161.21 -192.09 219.11 -192.09 C338.49 -192.09 434.23 -119.97 450.67 -2.67004 L516.84 469.16 L461.25 469.18 Z " />
<glyph glyph-name="endash" unicode="&#x2013;" horiz-adv-x="571" d="M110.58 225.42 L523.35 225.42 L530.06 272.42 L117.35 272.42 L110.58 225.42 Z " />
<glyph glyph-name="emdash" unicode="&#x2014;" horiz-adv-x="1039" d="M110.58 225.83 L992.11 225.83 L998.88 272.83 L117.35 272.83 L110.58 225.83 Z " />
<glyph glyph-name="quoteleft" unicode="&#x2018;" horiz-adv-x="221" d="M175.48 461.21 C203.48 461.21 229.71 486.24 229.71 515.85 C229.71 537.52 216.15 556.75 191.86 558.09 C197.5 589.93 213.52 623.06 239.6 656.19 L217.54 673.71 C169.87 618.92 135.5 559.97 135.5 505.78 C135.5 478.06 152.45 461.2 175.48 461.2 L175.48 461.21 Z " />
<glyph glyph-name="quoteright" unicode="&#x2019;" horiz-adv-x="217" d="M206.51 673.83 C178.46 673.83 152.13 648.91 152.13 619.26 C152.13 597.63 165.73 578.4 190.08 577 C184.4 545.16 168.38 512.03 142.34 478.9 L164.3 461.38 C211.97 516.23 246.45 575.14 246.45 629.37 C246.45 657.03 229.72 673.83 206.51 673.83 L206.51 673.83 Z " />
<glyph glyph-name="quotesinglbase" unicode="&#x201a;" horiz-adv-x="235" d="M129.22 86.83 C101.17 86.83 74.89 61.8 74.89 32.19 C74.89 10.52 88.49 -8.70999 112.74 -10.05 C107.1 -41.89 91.1 -75.02 65 -108.15 L87.06 -125.67 C134.68 -70.88 169.16 -11.93 169.16 42.26 C169.16 69.98 152.16 86.84 129.23 86.84 L129.22 86.83 Z " />
<glyph glyph-name="quotedblleft" unicode="&#x201c;" horiz-adv-x="357" d="M175.48 461.21 C203.48 461.21 229.71 486.24 229.71 515.85 C229.71 537.52 216.15 556.75 191.86 558.09 C197.5 589.93 213.52 623.06 239.6 656.19 L217.54 673.71 C169.87 618.92 135.5 559.97 135.5 505.78 C135.5 478.06 152.45 461.2 175.48 461.2 L175.48 461.21 Z M310.71 461.2 C338.71 461.2 364.9 486.23 364.9 515.84 C364.9 537.51 351.38 556.74 327.05 558.08 C332.79 589.92 348.75 623.05 374.83 656.18 L352.83 673.7 C305.1 618.91 270.73 559.96 270.73 505.77 C270.73 478.05 287.64 461.19 310.72 461.19 L310.71 461.2 Z " />
<glyph glyph-name="quotedblright" unicode="&#x201d;" horiz-adv-x="352" d="M341.26 673.89 C313.26 673.89 286.97 648.91 286.97 619.26 C286.97 597.63 300.53 578.4 324.88 577 C319.24 545.16 303.18 512.03 277.14 478.9 L299.14 461.38 C346.81 516.23 381.25 575.14 381.25 629.37 C381.25 657.03 364.28 673.89 341.25 673.89 L341.26 673.89 Z M206.08 673.89 C178.03 673.89 151.7 648.97 151.7 619.32 C151.7 597.69 165.3 578.46 189.65 577.06 C183.97 545.22 167.95 512.09 141.91 478.96 L163.87 461.44 C211.55 516.29 246.03 575.2 246.03 629.43 C246.03 657.09 229.3 673.89 206.09 673.89 L206.08 673.89 Z " />
<glyph glyph-name="quotedblbase" unicode="&#x201e;" horiz-adv-x="370" d="M129.22 86.83 C101.17 86.83 74.89 61.8 74.89 32.19 C74.89 10.52 88.49 -8.70999 112.74 -10.05 C107.1 -41.89 91.1 -75.02 65 -108.15 L87.06 -125.67 C134.68 -70.88 169.16 -11.93 169.16 42.26 C169.16 69.98 152.16 86.84 129.23 86.84 L129.22 86.83 Z M264.45 86.84 C236.4 86.84 210.13 61.81 210.13 32.2 C210.13 10.53 223.73 -8.7 248.02 -10.04 C242.34 -41.88 226.38 -75.01 200.28 -108.14 L222.3 -125.66 C269.92 -70.87 304.4 -11.92 304.4 42.27 C304.4 69.99 287.4 86.85 264.47 86.85 L264.45 86.84 Z " />
<glyph glyph-name="dagger" unicode="&#x2020;" horiz-adv-x="495" d="M494.68 489.5 L341.96 489.5 L363.39 642 L310.85 642 L289.42 489.5 L138.56 489.5 L130.75 435.75 L281.86 435.75 L220.64 0 L273.18 0 L334.4 435.75 L486.86 435.75 L494.68 489.5 Z " />
<glyph glyph-name="daggerdbl" unicode="&#x2021;" horiz-adv-x="495" d="M487.03 435.75 L494.82 489.5 L341.94 489.5 L363.37 642 L310.83 642 L289.4 489.5 L138.7 489.5 L130.85 435.75 L281.85 435.75 L249.84 207.92 L99.09 207.92 L91.34 154.17 L242.29 154.17 L220.63 0 L273.17 0 L294.83 154.17 L447.45 154.17 L455.2 207.92 L302.38 207.92 L334.39 435.75 L487.03 435.75 Z " />
<glyph glyph-name="bullet" unicode="&#x2022;" horiz-adv-x="380" d="M325.67 282.08 C325.67 331.61 290.51 370.63 242 370.63 C183.26 370.63 129.41 319.25 129.41 258.08 C129.41 208.95 164.63 169.88 213.69 169.88 C271.76 169.88 325.67 221.14 325.67 282.08 L325.67 282.08 Z " />
<glyph glyph-name="ellipsis" unicode="&#x2026;" horiz-adv-x="582" d="M168.16 44.09 C168.16 67.82 151.25 86.84 127.62 86.84 C99.51 86.84 73.41 61.81 73.41 32.48 C73.41 8.87 90.44 -10.16 113.85 -10.16 C142 -10.16 168.16 14.9 168.16 44.1 L168.16 44.09 Z M343.39 44.1 C343.39 67.83 326.52 86.85 303.09 86.85 C274.98 86.85 248.69 61.82 248.69 32.49 C248.69 8.87999 265.73 -10.15 289.18 -10.15 C317.27 -10.15 343.39 14.91 343.39 44.11 L343.39 44.1 Z M518.72 44.11 C518.72 67.84 501.81 86.86 478.36 86.86 C450.25 86.86 423.98 61.83 423.98 32.5 C423.98 8.88998 441 -10.14 464.41 -10.14 C492.5 -10.14 518.72 14.92 518.72 44.12 L518.72 44.11 Z " />
<glyph glyph-name="perthousand" unicode="&#x2030;" horiz-adv-x="1054" d="M228.86 346.29 C320.82 346.29 385.4 424.49 385.4 518.38 C385.52 587.69 344.17 637.96 269.9 637.96 C177.53 637.96 112.77 560.88 112.77 465.78 C112.77 396.52 154.01 346.29 228.86 346.29 L228.86 346.29 Z M124.35 -19.58 L177.8 -19.58 L681.8 630.75 L628.35 630.75 L124.35 -19.58 Z M234.82 388.62 C182.9 388.62 158.36 422.69 158.36 469.46 C158.36 534.18 196.42 595.62 263.88 595.62 C315.68 595.62 339.64 560.55 339.76 514.12 C339.76 448.54 301.69 388.62 234.79 388.62 L234.82 388.62 Z M543.07 -9.84 C635.03 -9.84 699.61 68.36 699.61 162.25 C699.61 231.56 658.38 281.83 584.11 281.83 C491.74 281.83 426.98 204.75 426.98 109.65 C426.98 40.39 468.22 -9.84 543.07 -9.84 L543.07 -9.84 Z M874.15 -9.84 C966.11 -9.84 1030.69 68.36 1030.69 162.25 C1030.69 231.56 989.46 281.83 915.18 281.83 C822.81 281.83 758.05 204.75 758.05 109.65 C758.05 40.39 799.29 -9.84 874.14 -9.84 L874.15 -9.84 Z M549.02 32.49 C497.1 32.49 472.56 66.56 472.56 113.33 C472.56 178.05 510.58 239.49 578.04 239.49 C629.84 239.49 653.8 204.42 653.92 157.99 C654.09 92.41 615.84 32.49 548.94 32.49 L549.02 32.49 Z M880.02 32.49 C828.1 32.49 803.56 66.56 803.56 113.33 C803.56 178.05 841.58 239.49 909.04 239.49 C960.84 239.49 984.8 204.42 984.92 157.99 C985.09 92.41 946.84 32.49 879.94 32.49 L880.02 32.49 Z " />
<glyph glyph-name="guilsinglleft" unicode="&#x2039;" horiz-adv-x="292" d="M89.33 255.92 L194.72 104.09 L232.47 130.8 L150.82 253.01 L271.05 377.03 L237.56 407.76 L89.33 255.92 Z " />
<glyph glyph-name="guilsinglright" unicode="&#x203a;" horiz-adv-x="294" d="M275.78 255.92 L170.35 407.75 L131.26 380.23 L213.09 259.57 L93.26 134.91 L127.52 104.09 L275.78 255.92 Z " />
<glyph glyph-name="fraction" unicode="&#x2044;" horiz-adv-x="506" d="M18.83 0 L72.32 0 L577.8 642 L524.35 642 L18.83 0 Z " />
<glyph glyph-name="Euro" unicode="&#x20ac;" horiz-adv-x="651" d="M496.1 602.33 C557.53 602.33 598.94 584.43 635.69 551.62 L672.02 594.16 C635.41 628.7 583.14 654.41 503.46 654.41 C361.81 654.41 235.58 566.76 185.09 417.37 L113.55 417.37 L107.19 372.7 L172.71 372.7 C166.02 342.26 162.24 309.7 161.78 275.2 L93.55 275.2 L87.23 230.53 L163.42 230.53 C176.49 88.19 265.1 -10.18 413.86 -10.18 C499.19 -10.18 560.55 22.82 603.17 57.24 L580.17 102.14 C539.31 69.42 487.25 41.91 419.38 41.91 C309.71 41.91 237.35 115.67 222.89 230.53 L436.64 230.53 L443.02 275.2 L220.23 275.2 C220.29 310.01 224.32 342.6 231.69 372.69 L456.61 372.69 L462.97 417.36 L245.72 417.36 C290.86 533.56 390.16 602.32 496.09 602.32 L496.1 602.33 Z " />
<glyph glyph-name="trademark" unicode="&#x2122;" horiz-adv-x="748" d="M694.5 654.48 L557.37 395.77 L552.92 413.23 L481.55 654.48 L430.62 654.48 L381.94 308.09 L427.31 308.09 L459.74 540.48 L462.65 568.68 L468.53 542.12 L530.12 336.52 L570.51 336.52 L681.41 541.9 L695.28 570.37 L689.88 540.48 L657.51 308.09 L702.74 308.09 L751.42 654.48 L694.5 654.48 Z M386.44 610.4 L392.7 654.07 L137.57 654.07 L131.25 610.4 L236.18 610.4 L193.77 308.09 L242.39 308.09 L284.82 610.4 L386.44 610.4 Z " />
<glyph glyph-name="arrowleft" unicode="&#x2190;" horiz-adv-x="1314" d="M1059 750 L259 750 C204 750 159 705 159 650 L159 -150 C159 -205 204 -250 259 -250 L1059 -250 C1114 -250 1159 -205 1159 -150 L1159 650 C1159 705 1114 750 1059 750 L1059 750 Z M1029.54 697.82 C1079.66 697.82 1106.81 670.67 1106.81 620.54 L1106.81 -120.42 C1106.81 -170.67 1079.66 -197.82 1029.53 -197.82 L288.45 -197.82 C238.32 -197.82 211.17 -170.67 211.17 -120.54 L211.17 620.54 C211.17 670.66 238.32 697.81 288.45 697.81 L1029.54 697.82 Z M654.16 529.53 L701.87 484.78 L494.58 283.49 L990.58 283.49 L990.58 216.86 L494.54 216.86 L701.87 15.57 L654.16 -29.18 L374.12 250.15 L654.16 529.53 Z " />
<glyph glyph-name="arrowup" unicode="&#x2191;" horiz-adv-x="1314" d="M1059 750 L259 750 C204 750 159 705 159 650 L159 -150 C159 -205 204 -250 259 -250 L1059 -250 C1114 -250 1159 -205 1159 -150 L1159 650 C1159 705 1114 750 1059 750 L1059 750 Z M1029.54 697.82 C1079.66 697.82 1106.81 670.67 1106.81 620.54 L1106.81 -120.42 C1106.81 -170.67 1079.66 -197.82 1029.53 -197.82 L288.45 -197.82 C238.32 -197.82 211.17 -170.67 211.17 -120.54 L211.17 620.54 C211.17 670.66 238.32 697.81 288.45 697.81 L1029.54 697.82 Z M939.82 273.99 L660.44 554.03 L381.07 273.99 L425.82 226.28 L627.11 433.61 L627.11 -63.02 L693.78 -63.02 L693.78 433.61 L895.07 226.28 L939.82 273.99 Z " />
<glyph glyph-name="arrowright" unicode="&#x2192;" horiz-adv-x="1314" d="M1059 750 L259 750 C204 750 159 705 159 650 L159 -150 C159 -205 204 -250 259 -250 L1059 -250 C1114 -250 1159 -205 1159 -150 L1159 650 C1159 705 1114 750 1059 750 L1059 750 Z M1029.54 697.82 C1079.66 697.82 1106.81 670.67 1106.81 620.54 L1106.81 -120.42 C1106.81 -170.67 1079.66 -197.82 1029.53 -197.82 L288.45 -197.82 C238.32 -197.82 211.17 -170.67 211.17 -120.54 L211.17 620.54 C211.17 670.66 238.32 697.81 288.45 697.81 L1029.54 697.82 Z M704.53 529.24 L984.57 249.86 L704.53 -29.52 L656.82 15.23 L864.15 216.52 L368.11 216.52 L368.11 283.19 L864.15 283.19 L656.82 484.48 L704.53 529.24 Z " />
<glyph glyph-name="arrowdown" unicode="&#x2193;" horiz-adv-x="1314" d="M1059 750 L259 750 C204 750 159 705 159 650 L159 -150 C159 -205 204 -250 259 -250 L1059 -250 C1114 -250 1159 -205 1159 -150 L1159 650 C1159 705 1114 750 1059 750 L1059 750 Z M1029.54 697.82 C1079.66 697.82 1106.81 670.67 1106.81 620.54 L1106.81 -120.42 C1106.81 -170.67 1079.66 -197.82 1029.53 -197.82 L288.45 -197.82 C238.32 -197.82 211.17 -170.67 211.17 -120.54 L211.17 620.54 C211.17 670.66 238.32 697.81 288.45 697.81 L1029.54 697.82 Z M939.78 225.78 L895.03 273.49 L693.74 66.16 L693.74 562.79 L627.11 562.79 L627.11 66.21 L425.82 273.5 L381.07 225.79 L660.49 -54.25 L939.78 225.78 Z " />
<glyph glyph-name="uni2196" unicode="&#x2196;" horiz-adv-x="1314" d="M1059 750 L259 750 C204 750 159 705 159 650 L159 -150 C159 -205 204 -250 259 -250 L1059 -250 C1114 -250 1159 -205 1159 -150 L1159 650 C1159 705 1114 750 1059 750 L1059 750 Z M1029.54 697.82 C1079.66 697.82 1106.81 670.67 1106.81 620.54 L1106.81 -120.42 C1106.81 -170.67 1079.66 -197.82 1029.53 -197.82 L288.45 -197.82 C238.32 -197.82 211.17 -170.67 211.17 -120.54 L211.17 620.54 C211.17 670.66 238.32 697.81 288.45 697.81 L1029.54 697.82 Z M839.82 473.08 L839.28 407.29 L557.24 407.42 L903.49 61.13 L856.78 13.84 L510.49 360.13 L510.66 78.09 L444.87 78.09 L444.2 473.09 L839.82 473.08 Z " />
<glyph glyph-name="uni2197" unicode="&#x2197;" horiz-adv-x="1314" d="M1059 750 L259 750 C204 750 159 705 159 650 L159 -150 C159 -205 204 -250 259 -250 L1059 -250 C1114 -250 1159 -205 1159 -150 L1159 650 C1159 705 1114 750 1059 750 L1059 750 Z M1029.54 697.82 C1079.66 697.82 1106.81 670.67 1106.81 620.54 L1106.81 -120.42 C1106.81 -170.67 1079.66 -197.82 1029.53 -197.82 L288.45 -197.82 C238.32 -197.82 211.17 -170.67 211.17 -120.54 L211.17 620.54 C211.17 670.66 238.32 697.81 288.45 697.81 L1029.54 697.82 Z M496.49 472.08 L892.07 472.08 L891.44 77.04 L825.65 77.04 L825.78 359.08 L479.49 12.83 L432.78 60.12 L779.07 406.41 L497.03 406.24 L496.49 472.08 Z " />
<glyph glyph-name="uni2198" unicode="&#x2198;" horiz-adv-x="1314" d="M1059 750 L259 750 C204 750 159 705 159 650 L159 -150 C159 -205 204 -250 259 -250 L1059 -250 C1114 -250 1159 -205 1159 -150 L1159 650 C1159 705 1114 750 1059 750 L1059 750 Z M1029.54 697.82 C1079.66 697.82 1106.81 670.67 1106.81 620.54 L1106.81 -120.42 C1106.81 -170.67 1079.66 -197.82 1029.53 -197.82 L288.45 -197.82 C238.32 -197.82 211.17 -170.67 211.17 -120.54 L211.17 620.54 C211.17 670.66 238.32 697.81 288.45 697.81 L1029.54 697.82 Z M495.82 18.7 L496.36 84.49 L778.4 84.36 L432.15 430.65 L478.86 477.94 L825.15 131.65 L824.98 413.69 L890.77 413.69 L891.44 18.69 L495.82 18.7 Z " />
<glyph glyph-name="uni2199" unicode="&#x2199;" horiz-adv-x="1314" d="M1059 750 L259 750 C204 750 159 705 159 650 L159 -150 C159 -205 204 -250 259 -250 L1059 -250 C1114 -250 1159 -205 1159 -150 L1159 650 C1159 705 1114 750 1059 750 L1059 750 Z M1029.54 697.82 C1079.66 697.82 1106.81 670.67 1106.81 620.54 L1106.81 -120.42 C1106.81 -170.67 1079.66 -197.82 1029.53 -197.82 L288.45 -197.82 C238.32 -197.82 211.17 -170.67 211.17 -120.54 L211.17 620.54 C211.17 670.66 238.32 697.81 288.45 697.81 L1029.54 697.82 Z M822.41 17.78 L426.83 17.78 L427.46 412.82 L493.25 412.82 L493.12 130.78 L839.41 477.03 L886.12 429.74 L539.83 83.45 L821.87 83.62 L822.41 17.78 Z " />
<glyph glyph-name="minus" unicode="&#x2212;" horiz-adv-x="549" d="M111.17 212.13 L497.29 212.13 L504.21 260.46 L118.09 260.46 L111.17 212.13 Z " />
<glyph glyph-name="approxequal" unicode="&#x2248;" horiz-adv-x="547" d="M154.45 262.58 C178.5 295.64 203.62 309.04 237.11 309.04 C290.78 309.04 322.95 264.04 388.84 264.04 C437.96 264.04 486.28 290.13 516.03 337.73 L477.43 363.2 C455.64 334.28 429.64 315.11 396.25 315.11 C341.51 315.11 304.13 360.11 241.04 360.11 C192.11 360.11 148.15 335.13 118.62 288.93 L154.45 262.58 Z M129.45 82.99 C153.5 116.05 178.62 129.45 212.11 129.45 C265.78 129.45 297.95 84.45 363.84 84.45 C412.96 84.45 461.28 110.54 491.03 158.14 L452.43 183.62 C430.64 154.7 404.64 135.53 371.25 135.53 C316.51 135.53 279.13 180.53 216.04 180.53 C167.11 180.53 123.15 155.55 93.62 109.35 L129.45 82.99 Z " />
<glyph glyph-name="notequal" unicode="&#x2260;" horiz-adv-x="533" d="M492.73 297.38 L499.73 346.13 L416.69 346.13 L477.79 433.21 L441.01 458.13 L362.42 346.13 L130.35 346.13 L123.35 297.38 L328.22 297.38 L240.57 172.46 L105.88 172.46 L98.82 123.71 L206.37 123.71 L140.47 29.79 L177.25 4.87001 L260.63 123.7 L468.19 123.7 L475.19 172.45 L294.83 172.45 L382.48 297.37 L492.73 297.38 Z " />
<glyph glyph-name="uniF8FF" unicode="&#xf8ff;" horiz-adv-x="1471" d="M731 583 C731 549 758 522 792 522 C827 522 854 549 854 583 C854 618 827 645 792 645 C758 645 731 618 731 583 L731 583 Z M259 270 C259 425 251 544 249 584 L149 584 C147 544 140 423 140 270 L259 270 Z M734 270 L852 270 C852 351 849 464 842 509 L664 509 L663 526 L544 496 L544 417 L566 417 C566 411 562 351 562 330 C562 287 590 264 644 264 C673 264 702 268 712 279 L712 353 C708 349 700 348 694 348 C687 348 681 350 679 352 L676 417 L737 417 C735 380 734 332 734 270 L734 270 Z M368 265 C416 265 435 290 443 331 L451 270 L534 270 L534 397 C534 471 495 514 410 514 C318 514 276 464 276 379 C276 301 311 265 368 265 L368 265 Z M1130 270 L1127 408 C1125 479 1109 514 1050 514 C984 514 972 450 970 433 C970 453 967 487 964 509 L884 509 C877 464 874 351 874 270 L988 270 C988 316 985 343 985 363 C985 380 987 392 1003 392 C1016 392 1018 383 1018 363 C1018 343 1016 316 1016 270 L1130 270 Z M1391 391 C1391 454 1367 514 1270 514 C1172 514 1146 453 1146 389 C1146 313 1183 265 1268 265 C1353 265 1391 312 1391 391 L1391 391 Z M430 375 C430 356 421 345 406 345 C391 345 384 356 384 375 C384 394 391 401 406 401 C421 401 430 394 430 375 L430 375 Z M1291 375 C1291 356 1282 345 1268 345 C1254 345 1247 356 1247 375 C1247 394 1254 401 1268 401 C1282 401 1291 394 1291 375 L1291 375 Z M468 238 L468 119 C468 99 464 92 452 92 C440 92 437 98 437 119 L437 238 L260 238 L261 256 L144 227 L144 147 L162 147 C161 133 159 81 159 66 C159 18 179 -5 240 -5 C290 -5 303 6 308 10 L308 83 C306 81 301 78 290 78 C282 78 278 80 275 82 L272 147 L327 147 L327 134 C327 77 358 51 417 51 C447 51 460 58 466 62 C466 56 458 34 412 34 C369 34 348 46 342 50 L342 -33 C350 -38 371 -50 430 -50 C545 -50 582 -6 582 100 C582 153 576 217 572 238 L468 238 Z M773 243 C710 243 696 176 693 162 C693 180 688 226 686 238 L608 238 C606 210 598 126 598 -44 L717 -44 C717 -37 717 -20 716 -5 C808 -5 853 40 853 130 C853 204 822 243 773 243 L773 243 Z M1110 127 C1110 202 1067 243 994 243 C914 243 869 195 869 117 C869 38 915 -5 1010 -5 C1053 -5 1078 4 1088 11 L1088 86 C1074 78 1052 74 1033 74 C1002 74 988 84 983 92 L1107 92 C1109 101 1110 116 1110 127 L1110 127 Z M1018 109 L978 109 C978 127 987 136 1001 136 C1014 136 1020 127 1018 109 L1018 109 Z M710 72 C709 75 705 85 705 101 C705 123 713 132 727 132 C739 132 747 125 747 109 C747 78 717 72 710 72 L710 72 Z M1114 13 C1114 27 1124 36 1138 36 C1152 36 1162 27 1162 13 C1162 -1 1152 -10 1138 -10 C1124 -10 1114 -1 1114 13 L1114 13 Z M1120 13 C1120 1 1127 -5 1138 -5 C1149 -5 1156 1 1156 13 C1156 25 1149 31 1138 31 C1127 31 1120 25 1120 13 L1120 13 Z M1148 2 L1142 2 L1138 11 L1133 11 L1133 2 L1128 2 L1128 25 L1139 25 C1146 25 1149 22 1149 18 C1149 13 1145 11 1142 11 L1148 2 Z M1140 15 C1143 15 1144 16 1144 18 C1144 20 1143 21 1140 21 L1133 21 L1133 15 L1140 15 Z " />
<glyph glyph-name="fi" unicode="&#xfb01;" horiz-adv-x="536" d="M510.92 469.17 L229.13 469.17 L229.77 473.75 C242.55 564.7 297.89 612.58 381.54 612.58 C431.61 612.58 459.13 593.81 483.8 571.85 L517.78 611.3 C492.48 635.16 451.15 662.33 389.73 662.33 C277.45 662.33 193.09 591.36 175.23 469.17 L110.75 469.17 L103.69 420.42 L168.39 420.42 L109.46 -1.52588e-05 L163.13 -1.52588e-05 L222.29 420.42 L448.36 420.42 L389.5 -1.52588e-05 L444.97 -1.52588e-05 L510.92 469.17 Z " />
<glyph glyph-name="fl" unicode="&#xfb02;" horiz-adv-x="541" d="M480.77 40.34 C449.85 40.34 436.52 55.42 442.79 100.42 L514.54 612.5 C491.07 636.99 448.6 662.33 390.77 662.33 C278.03 662.33 193.16 591.36 175.23 469.17 L111.32 469.17 L104.26 420.42 L168.39 420.42 L109.46 0 L163.13 0 L222.29 420.42 L348.15 420.42 L355.21 469.17 L229.16 469.17 L229.8 473.75 C242.58 564.7 298.5 612.58 382.44 612.58 C415.3 612.58 437.63 603.65 455.7 591.17 L386.65 98.58 C375.09 15.93 409.85 -8.16998 466.51 -8.16998 C487.88 -8.16998 505.05 -3.75998 515.52 -0.179977 L522.29 46.92 C514.02 44.3 500.59 40.33 480.82 40.33 L480.77 40.34 Z " />
</font>
</svg>
