<?xml version="1.0" encoding="UTF-8"?>
<svg xmlns="http://www.w3.org/2000/svg" xmlns:xlink="http://www.w3.org/1999/xlink" version="1.2" >
<font id="Informative People">
<font-face  font-family="Informative" units-per-em="1000" ascent="750" descent="-250" font-style="normal" font-weight="900" font-stretch="normal" cap-height="700" x-height="400" underline-position="-75" underline-thickness="50" />
<missing-glyph  horiz-adv-x="500" d="M410 750 L93 750 L93 -250 L410 -250 L410 750 Z M333 683 L333 650 L267 650 L267 613 L333 613 L333 580 L167 580 L167 613 L233 613 L233 650 L168 650 L168 683 L333 683 Z M267 554 L267 484 L333 484 L333 450 L167 450 L167 554 L267 554 Z M233 520 L200 520 L200 484 L233 484 L233 520 Z M333 423 L333 390 L267 390 L267 320 L167 320 L167 353 L233 353 L233 390 L167 390 L167 423 L333 423 Z M333 363 L333 263 L167 263 L167 297 L300 297 L300 363 L333 363 Z M333 241 L333 128 L167 128 L167 241 L200 241 L200 161 L300 161 L300 208 L267 208 L267 185 L233 185 L233 241 L333 241 Z M333 68 L333 -45 L167 -45 L167 68 L333 68 Z M300 35 L200 35 L200 -12 L300 -12 L300 35 Z M333 -68 L333 -101 L301 -101 L231 -148 L333 -148 L333 -181 L167 -181 L167 -148 L237 -101 L167 -101 L167 -68 L333 -68 Z " />
<glyph glyph-name="NULL" d="" />
<glyph glyph-name="CR" unicode="&#xd;" horiz-adv-x="250" d="" />
<glyph glyph-name="space" unicode="&#x20;" horiz-adv-x="600" d="" />
<glyph glyph-name="exclam" unicode="&#x21;" horiz-adv-x="1000" d="M510 455 C532 455 568 468 579 485 L555 568 C548 591 535 610 504 610 C477 610 460 592 453 571 L436 518 C430 498 436 485 445 478 C462 464 489 455 510 455 L510 455 Z M455 511 L471 563 C477 582 487 590 504 590 C525 590 529 583 535 562 L557 490 C545 481 525 475 510 475 C493 475 471 482 459 493 C453 498 452 502 455 511 L455 511 Z M661 348 L628 438 C610 444 561 447 513 447 C460 447 408 443 401 437 C389 428 354 366 340 329 C328 297 342 264 373 243 C386 234 399 223 418 214 L408 54 L431 54 L436 -100 L506 -100 L513 54 L526 54 L535 -100 L603 -100 L606 54 L626 54 L605 233 L638 261 C668 286 675 311 661 348 L661 348 Z M626 277 L554 217 L486 217 C430 223 410 242 385 259 C360 276 349 299 358 322 C372 359 405 414 414 422 C417 425 464 427 513 427 C551 427 591 425 613 421 L643 341 C650 323 648 296 626 277 L626 277 Z M550 328 C568 328 582 343 582 360 C582 378 568 393 550 393 C532 393 518 378 518 360 C518 343 532 328 550 328 L550 328 Z M494 302 L469 288 L441 304 L444 366 L424 366 L421 292 L496 250 L527 250 C562 259 585 288 585 318 L522 311 C512 310 503 307 494 302 L494 302 Z M586 217 L604 74 L430 74 L438 206 C450 202 465 197 484 197 L562 197 L586 217 Z M492 54 L486 -80 L456 -80 L452 54 L492 54 Z M583 -80 L553 -80 L545 54 L586 54 L583 -80 Z " />
<glyph glyph-name="numbersign" unicode="&#x23;" horiz-adv-x="1000" d="M506 370 C530 373 578 393 590 409 C598 427 608 513 608 552 C590 590 553 607 506 607 C459 607 422 590 404 552 C404 512 415 427 423 409 C436 392 483 373 506 370 L506 370 Z M506 587 C547 587 572 576 588 548 C588 507 578 431 572 417 C564 409 529 394 506 390 C484 394 449 410 441 417 C435 431 424 507 424 548 C440 576 465 587 506 587 L506 587 Z M767 154 L690 325 C641 336 567 346 490 346 C437 346 382 341 332 328 L230 109 C215 76 217 38 259 16 L349 -32 L349 -100 L369 -100 L369 -42 L402 -60 C435 -78 450 -83 471 -83 L639 -83 L691 -28 L691 -100 L711 -100 L711 -7 L741 24 C774 58 789 107 767 154 L767 154 Z M726 38 L631 -63 L471 -63 C456 -63 443 -59 411 -42 L269 34 C239 50 235 75 248 102 L346 311 C391 322 441 327 489 327 C560 327 628 317 676 307 L749 146 C767 105 755 68 726 38 L726 38 Z M609 252 C570 252 537 222 532 184 C498 183 469 166 451 138 L442 124 C424 133 407 140 391 142 L414 201 L396 209 L371 144 C344 144 321 132 304 104 L405 30 C441 4 497 -13 539 -13 C554 -13 567 -10 577 -5 C636 27 687 81 687 174 C687 216 650 252 609 252 L609 252 Z M609 116 C577 116 551 142 551 174 C551 206 577 232 609 232 C640 232 667 206 667 174 C667 142 640 116 609 116 L609 116 Z M567 13 C560 9 549 7 537 7 C505 7 451 21 417 46 L332 108 C356 133 393 137 481 80 L491 96 L460 115 L468 127 C482 151 503 163 532 164 C537 126 570 96 609 96 C627 96 645 103 659 115 C644 66 609 35 567 13 L567 13 Z " />
<glyph glyph-name="dollar" unicode="&#x24;" horiz-adv-x="1000" d="M239 314 L761 314 L761 600 L239 600 L239 314 Z M259 580 L741 580 L741 334 L259 334 L259 580 Z M687 208 L687 283 L313 283 L313 208 L333 208 L333 263 L667 263 L667 208 L687 208 Z M302 129 C278 129 259 110 259 86 C259 63 278 44 302 44 C325 44 344 63 344 86 C344 110 325 129 302 129 L302 129 Z M698 129 C675 129 656 110 656 86 C656 63 675 44 698 44 C722 44 741 63 741 86 C741 110 722 129 698 129 L698 129 Z M500 108 C477 108 458 89 458 65 C458 42 477 23 500 23 C523 23 542 42 542 65 C542 89 523 108 500 108 L500 108 Z M193 6 C169 6 150 -13 150 -37 C150 -60 169 -79 193 -79 C216 -79 235 -60 235 -37 C235 -13 216 6 193 6 L193 6 Z M807 6 C784 6 765 -13 765 -37 C765 -60 784 -79 807 -79 C831 -79 850 -60 850 -37 C850 -13 831 6 807 6 L807 6 Z M382 -15 C359 -15 340 -34 340 -57 C340 -81 359 -100 382 -100 C405 -100 424 -81 424 -57 C424 -34 405 -15 382 -15 L382 -15 Z M618 -15 C595 -15 576 -34 576 -57 C576 -81 595 -100 618 -100 C641 -100 660 -81 660 -57 C660 -34 641 -15 618 -15 L618 -15 Z " />
<glyph glyph-name="percent" unicode="&#x25;" horiz-adv-x="1000" d="M239 600 L239 314 L408 314 L412 334 L259 334 L259 580 L741 580 L741 334 L588 334 L592 314 L761 314 L761 600 L239 600 Z M502 394 C513 394 529 399 536 406 L523 452 C519 465 514 472 499 472 C486 472 479 465 475 453 L466 423 C463 414 465 409 469 406 C477 399 492 394 502 394 L502 394 Z M441 374 L426 283 L313 283 L313 208 L333 208 L333 263 L667 263 L667 208 L687 208 L687 283 L574 283 L559 374 L441 374 Z M302 129 C278 129 259 110 259 86 C259 63 278 44 302 44 C325 44 344 63 344 86 C344 110 325 129 302 129 L302 129 Z M698 129 C675 129 656 110 656 86 C656 63 675 44 698 44 C722 44 741 63 741 86 C741 110 722 129 698 129 L698 129 Z M500 108 C477 108 458 89 458 65 C458 42 477 23 500 23 C523 23 542 42 542 65 C542 89 523 108 500 108 L500 108 Z M193 6 C169 6 150 -13 150 -37 C150 -60 169 -79 193 -79 C216 -79 235 -60 235 -37 C235 -13 216 6 193 6 L193 6 Z M807 6 C784 6 765 -13 765 -37 C765 -60 784 -79 807 -79 C831 -79 850 -60 850 -37 C850 -13 831 6 807 6 L807 6 Z M382 -15 C359 -15 340 -34 340 -57 C340 -81 359 -100 382 -100 C405 -100 424 -81 424 -57 C424 -34 405 -15 382 -15 L382 -15 Z M618 -15 C595 -15 576 -34 576 -57 C576 -81 595 -100 618 -100 C641 -100 660 -81 660 -57 C660 -34 641 -15 618 -15 L618 -15 Z " />
<glyph glyph-name="ampersand" unicode="&#x26;" horiz-adv-x="1000" d="M276 600 L276 388 L296 375 L296 580 L758 580 L758 329 L345 329 L345 347 L293 347 L248 375 L173 375 C165 375 160 370 160 357 L160 264 L150 264 L150 244 L297 244 L297 211 L317 211 L317 264 L250 264 L250 336 L276 329 L276 309 L778 309 L778 600 L276 600 Z M566 470 L632 470 L632 536 C596 536 566 506 566 470 L566 470 Z M652 395 C623 395 599 418 596 446 L576 444 C579 407 613 375 652 375 C692 375 728 410 728 450 C728 489 696 523 658 526 L656 506 C684 504 708 479 708 450 C708 420 682 395 652 395 L652 395 Z M507 505 L507 525 L368 525 L368 505 L507 505 Z M214 399 C221 401 233 405 236 409 C237 413 242 443 242 449 C237 458 228 463 215 463 C202 463 193 459 188 450 C189 429 189 416 192 410 C195 405 207 401 214 399 L214 399 Z M368 463 L368 443 L507 443 L507 463 L368 463 Z M368 400 L368 380 L507 380 L507 400 L368 400 Z M302 129 C278 129 259 110 259 86 C259 63 278 44 302 44 C325 44 344 63 344 86 C344 110 325 129 302 129 L302 129 Z M698 129 C675 129 656 110 656 86 C656 63 675 44 698 44 C722 44 741 63 741 86 C741 110 722 129 698 129 L698 129 Z M500 108 C477 108 458 89 458 65 C458 42 477 23 500 23 C523 23 542 42 542 65 C542 89 523 108 500 108 L500 108 Z M193 6 C169 6 150 -13 150 -37 C150 -60 169 -79 193 -79 C216 -79 235 -60 235 -37 C235 -13 216 6 193 6 L193 6 Z M807 6 C784 6 765 -13 765 -37 C765 -60 784 -79 807 -79 C831 -79 850 -60 850 -37 C850 -13 831 6 807 6 L807 6 Z M382 -15 C359 -15 340 -34 340 -57 C340 -81 359 -100 382 -100 C405 -100 424 -81 424 -57 C424 -34 405 -15 382 -15 L382 -15 Z M618 -15 C595 -15 576 -34 576 -57 C576 -81 595 -100 618 -100 C641 -100 660 -81 660 -57 C660 -34 641 -15 618 -15 L618 -15 Z " />
<glyph glyph-name="quotesingle" unicode="&#x27;" horiz-adv-x="1000" d="M617 457 C628 472 639 492 649 520 C645 563 589 599 550 599 C532 599 517 590 507 567 L478 500 L445 500 C409 500 375 490 366 453 L342 354 C337 332 344 305 368 297 L373 295 C369 279 363 239 363 222 C363 181 376 126 401 80 L365 -100 L450 -100 L502 52 C508 71 508 98 505 116 L498 155 L514 155 L557 74 L550 -100 L610 -100 C624 -100 638 -89 640 -70 L656 79 C659 109 658 139 646 158 L604 222 L620 223 C645 225 659 249 659 280 L659 394 C659 423 641 447 617 457 L617 457 Z M525 557 C532 574 540 579 550 579 C575 579 624 554 629 522 C614 487 602 465 589 453 C580 444 574 441 560 447 L491 475 L525 557 Z M639 394 L639 280 C639 257 631 244 618 243 L545 236 L546 216 L581 219 L628 148 C638 133 639 109 636 81 L620 -68 C619 -79 613 -80 610 -80 L570 -80 L577 78 L526 175 L474 175 L485 112 C488 96 489 75 483 58 L436 -80 L389 -80 L422 84 C395 130 383 183 383 222 C383 237 389 276 392 291 L432 279 L438 298 L373 317 C359 321 357 330 362 350 L386 449 C392 474 411 480 445 480 L472 480 L465 464 L553 428 C572 420 589 426 603 440 C624 435 639 417 639 394 L639 394 Z M582 369 L575 307 L554 306 C555 318 550 332 531 338 L428 375 L438 410 L418 416 L404 363 L525 320 C534 317 536 312 534 305 L493 305 C471 305 462 284 464 271 L468 249 L488 253 L484 275 C483 279 485 284 493 284 L593 287 L602 367 L582 369 Z " />
<glyph glyph-name="parenleft" unicode="&#x28;" horiz-adv-x="1000" d="M484 601 C486 585 487 571 487 559 C487 521 477 502 466 478 C455 454 441 432 439 387 C406 421 342 441 281 441 C249 441 199 426 180 404 C235 394 252 386 279 344 C295 320 306 294 346 268 L368 268 L366 280 C292 319 304 389 225 414 C242 419 261 421 281 421 C349 421 424 393 440 353 L460 355 C459 364 458 373 458 381 C458 459 505 470 505 548 C505 553 504 558 504 564 C548 523 572 457 572 404 L572 385 L592 387 L592 404 C592 477 554 565 484 601 L484 601 Z M696 182 C686 202 667 220 639 236 C666 244 695 262 720 285 C767 329 799 388 799 444 C693 353 682 413 553 337 L563 319 C647 369 698 351 773 401 C752 334 673 252 610 252 L601 234 C641 215 666 196 678 173 C697 136 717 108 771 80 C753 75 735 73 716 73 C680 73 645 81 617 96 C592 110 574 129 568 152 L548 150 C549 140 549 132 549 124 C549 50 504 31 504 -42 L504 -58 C479 -36 445 4 427 65 C450 84 465 113 465 145 C465 157 463 168 460 178 C465 176 471 175 477 174 L483 143 L507 143 L509 176 C521 181 533 188 541 198 L574 175 L591 197 L554 221 C557 228 558 236 558 244 C558 250 557 255 556 261 L595 279 L583 304 L544 286 C534 300 518 310 500 314 L503 340 L475 344 L472 313 C452 309 435 296 425 278 L398 293 L394 264 L416 245 C416 241 416 237 417 233 C401 242 382 248 362 248 C305 248 259 202 259 145 C259 125 266 104 277 87 L190 1 C185 -3 184 -8 184 -13 C184 -25 195 -37 207 -37 C212 -37 217 -35 222 -30 L308 57 C324 47 342 42 362 42 C379 42 396 46 410 54 C430 -9 472 -69 529 -101 C524 -78 522 -60 522 -45 C522 18 563 39 569 109 C579 97 592 86 608 78 C639 62 679 53 718 53 C755 53 791 61 820 79 C749 110 723 129 696 182 L696 182 Z M487 289 C513 289 532 270 532 244 C532 218 513 199 487 199 C461 199 442 218 442 244 C442 270 461 289 487 289 L487 289 Z M279 145 C279 191 316 228 362 228 C408 228 445 191 445 145 C445 99 408 62 362 62 C316 62 279 99 279 145 L279 145 Z " />
<glyph glyph-name="parenright" unicode="&#x29;" horiz-adv-x="1000" d="M449 327 C449 378 434 411 396 447 L380 462 C341 499 293 519 250 519 C222 519 191 511 191 486 C191 467 204 440 219 413 C235 383 258 348 262 309 C264 293 272 278 282 267 L300 277 C291 286 282 298 282 311 C282 354 253 393 237 423 C221 452 211 471 211 482 C211 495 233 498 250 498 C288 498 330 481 366 448 L382 433 C417 400 429 372 429 327 L429 233 C410 255 382 268 351 268 C294 268 248 222 248 165 C248 145 255 124 266 107 L179 21 C170 13 172 -2 179 -11 C187 -19 201 -19 211 -11 L297 77 C313 67 331 62 351 62 C408 62 454 108 454 165 C454 177 452 187 449 198 L449 327 Z M831 487 C831 512 800 519 768 519 C725 519 678 498 644 462 L630 447 C595 410 575 380 575 327 L575 161 C591 121 615 98 667 98 C725 98 766 138 766 191 C766 207 761 226 751 244 C745 239 739 236 733 233 C742 218 746 204 746 190 C746 147 712 116 665 116 C629 116 608 135 595 165 L595 327 C595 369 607 393 644 433 L658 448 C689 481 731 500 768 500 C787 500 811 498 811 486 C811 475 805 456 787 423 C770 392 752 353 747 311 C743 279 711 259 675 259 C666 259 657 261 648 264 L642 246 C653 242 664 239 675 239 C721 239 761 265 767 309 C772 347 789 384 805 413 C823 446 831 470 831 487 L831 487 Z M373 357 C373 377 356 394 336 394 C316 394 299 377 299 357 C299 336 316 319 336 319 C356 319 373 336 373 357 L373 357 Z M725 357 C725 377 708 394 688 394 C668 394 651 377 651 357 C651 336 668 319 688 319 C708 319 725 336 725 357 L725 357 Z M512 319 C528 319 539 332 539 349 C539 363 528 377 512 377 C497 377 484 363 484 349 C484 332 497 319 512 319 L512 319 Z M512 303 C472 303 472 267 474 246 L487 121 C488 107 498 96 511 96 C525 96 537 105 538 121 L549 246 C551 266 554 303 512 303 L512 303 Z M529 248 L519 123 C519 119 516 117 513 117 C510 117 507 119 507 123 L494 248 C491 275 496 283 512 283 C529 283 531 276 529 248 L529 248 Z M351 82 C305 82 268 119 268 165 C268 211 305 248 351 248 C397 248 434 211 434 165 C434 119 397 82 351 82 L351 82 Z M654 170 C654 157 665 146 678 146 C691 146 702 157 702 170 C702 183 691 194 678 194 C665 194 654 183 654 170 L654 170 Z " />
<glyph glyph-name="asterisk" unicode="&#x2a;" horiz-adv-x="1000" d="M625 489 L641 548 C634 573 590 596 564 596 C539 596 516 579 512 555 L497 462 L569 450 C588 447 617 458 625 489 L625 489 Z M532 551 C535 566 549 576 564 576 C579 576 611 564 620 547 L605 494 C600 475 584 468 572 470 L519 478 L532 551 Z M700 231 L648 292 L579 397 C577 415 567 430 553 435 L523 445 C512 449 500 452 486 452 C468 452 446 447 424 434 L358 395 L299 274 C292 259 292 242 308 236 L345 223 L395 318 L434 334 L401 233 L339 23 L306 -48 L394 -103 L411 -80 L395 -41 L423 3 L445 59 L379 80 L420 227 L466 368 L381 334 L335 247 L321 252 C315 254 313 258 317 266 L374 381 L436 418 C454 429 470 433 485 433 C497 433 507 430 517 427 L546 417 C558 413 561 403 558 383 L532 216 L573 86 L573 -54 C573 -70 571 -75 561 -76 L542 -77 L526 70 L440 192 L423 180 L454 136 L440 98 L458 92 L467 117 L506 62 L524 -99 L563 -96 C585 -94 593 -76 593 -54 L593 90 L552 218 L562 277 L588 234 L669 164 L691 180 C707 191 712 216 700 231 L700 231 Z M679 196 L671 190 L604 248 L567 308 L576 365 L632 280 L682 220 C688 212 687 202 679 196 L679 196 Z " />
<glyph glyph-name="plus" unicode="&#x2b;" horiz-adv-x="1000" d="M245 600 L245 334 L320 334 L323 354 L265 354 L265 580 L751 580 L751 354 L686 354 L689 334 L771 334 L771 600 L245 600 Z M603 409 C614 409 630 414 637 421 L624 467 C620 480 615 487 600 487 C587 487 580 480 576 468 L567 438 C564 429 566 424 570 421 C578 414 593 409 603 409 L603 409 Z M436 413 C437 420 442 453 442 458 C437 477 427 482 409 482 C392 482 381 477 377 458 C377 453 382 420 383 414 C389 408 400 405 409 403 C418 405 430 408 436 413 L436 413 Z M350 384 L335 293 L311 293 L311 193 L331 193 L331 273 L685 273 L685 193 L705 193 L705 293 L675 293 L660 384 L542 384 L527 293 L483 293 L469 384 L350 384 Z M302 129 C278 129 259 110 259 86 C259 63 278 44 302 44 C325 44 344 63 344 86 C344 110 325 129 302 129 L302 129 Z M698 129 C675 129 656 110 656 86 C656 63 675 44 698 44 C722 44 741 63 741 86 C741 110 722 129 698 129 L698 129 Z M500 108 C477 108 458 89 458 65 C458 42 477 23 500 23 C523 23 542 42 542 65 C542 89 523 108 500 108 L500 108 Z M193 6 C169 6 150 -13 150 -37 C150 -60 169 -79 193 -79 C216 -79 235 -60 235 -37 C235 -13 216 6 193 6 L193 6 Z M807 6 C784 6 765 -13 765 -37 C765 -60 784 -79 807 -79 C831 -79 850 -60 850 -37 C850 -13 831 6 807 6 L807 6 Z M382 -15 C359 -15 340 -34 340 -57 C340 -81 359 -100 382 -100 C405 -100 424 -81 424 -57 C424 -34 405 -15 382 -15 L382 -15 Z M618 -15 C595 -15 576 -34 576 -57 C576 -81 595 -100 618 -100 C641 -100 660 -81 660 -57 C660 -34 641 -15 618 -15 L618 -15 Z " />
<glyph glyph-name="comma" unicode="&#x2c;" horiz-adv-x="1000" d="M297 211 L270 51 C254 60 238 70 224 81 L207 64 C282 3 388 -32 500 -32 C612 -32 717 3 793 64 L776 80 C760 68 743 57 726 47 L652 252 L667 289 L754 228 L800 291 C780 329 755 364 727 398 L750 445 C720 466 691 475 663 475 C581 475 512 398 494 309 L337 309 C304 328 265 332 232 332 C206 332 184 329 174 328 L174 262 C179 264 186 264 192 264 C225 264 271 247 297 211 L297 211 Z M194 284 L194 310 C204 311 218 312 232 312 C263 312 301 307 331 289 L511 289 C523 378 585 454 660 454 C680 454 701 449 723 436 L703 394 C731 362 756 329 776 293 L750 256 L659 319 L630 252 L708 38 L682 26 L577 152 L406 152 L316 28 L290 40 L319 215 C291 260 234 283 194 284 L194 284 Z M334 21 L416 132 L567 132 L662 18 C614 1 560 -8 500 -8 C441 -8 385 2 334 21 L334 21 Z M843 14 L826 31 C742 -38 624 -79 500 -79 C375 -79 258 -38 174 31 L157 14 C245 -60 369 -102 500 -102 C631 -102 755 -60 843 14 L843 14 Z " />
<glyph glyph-name="hyphen" unicode="&#x2d;" horiz-adv-x="1000" d="M614 481 C614 523 591 555 542 555 C505 555 485 536 473 504 L435 518 C399 531 371 516 364 481 L346 380 C342 357 349 335 374 328 L366 276 C360 239 374 148 403 99 L385 -97 L418 -97 C438 -97 459 -87 464 -66 L502 86 C515 85 529 85 542 85 L542 -91 L576 -91 C598 -91 618 -72 619 -49 L627 97 C634 127 627 156 619 176 L588 258 L615 266 C640 273 649 294 650 319 L656 467 L614 481 Z M492 497 C500 520 514 535 544 535 C578 535 594 514 594 481 L593 408 C582 401 572 397 562 396 C557 395 551 395 546 395 C486 395 482 425 476 452 L492 497 Z M630 320 C629 303 623 289 609 285 L561 271 L600 169 C605 156 612 134 609 113 C588 107 563 105 538 105 C494 105 449 111 416 116 C392 161 381 241 386 274 L396 343 L377 349 C365 353 363 362 366 376 L384 477 C389 503 408 507 428 499 L466 484 L455 453 C462 429 463 375 546 375 C552 375 557 375 562 376 L562 343 L539 338 C540 350 535 365 518 370 L438 392 L441 414 L426 447 L416 378 L512 350 C519 348 521 341 519 335 L473 327 C455 324 444 309 446 292 L449 272 L469 276 L466 295 C465 302 472 306 477 307 L582 326 L582 380 C594 384 604 390 613 398 L614 461 L635 453 L630 320 Z M444 -60 C441 -72 432 -77 418 -77 L407 -77 L423 95 C440 92 459 90 480 88 L444 -60 Z M599 -47 C598 -62 590 -71 575 -71 L562 -71 L562 85 C577 86 592 88 606 91 L599 -47 Z " />
<glyph glyph-name="period" unicode="&#x2e;" horiz-adv-x="1000" d="M650 522 L667 580 C662 614 614 641 581 641 C550 641 524 618 519 589 L503 494 L583 480 C611 475 640 493 650 522 L650 522 Z M632 532 C626 506 602 497 586 500 L526 510 L539 586 C542 606 562 620 582 620 C601 620 640 603 646 581 L632 532 Z M697 -91 L679 241 C679 250 673 260 663 266 L646 276 L657 295 L548 331 L565 369 C588 420 545 477 477 477 C444 477 404 464 390 411 L358 288 C354 272 354 261 356 245 L301 -100 L347 -100 C362 -100 376 -89 380 -74 L425 103 L441 76 L463 -100 L497 -100 C516 -100 533 -83 532 -63 L527 110 L501 231 L520 270 L502 278 L479 233 L507 108 L512 -64 C512 -73 506 -80 497 -80 L481 -80 L461 82 L416 160 C394 199 368 243 378 283 L410 405 C421 447 448 457 476 457 C530 457 567 418 547 376 L529 338 L479 396 L463 384 L513 321 L627 283 L608 249 L571 249 L571 229 L620 229 L636 258 L653 248 C657 246 659 244 659 239 L677 -93 L697 -91 Z M398 150 L410 129 L360 -70 C358 -77 355 -80 347 -80 L325 -80 L370 204 C379 184 389 166 398 150 L398 150 Z " />
<glyph glyph-name="slash" unicode="&#x2f;" horiz-adv-x="1000" d="M584 465 L633 501 C649 533 615 600 571 600 C559 600 548 597 539 589 L468 527 L516 472 C529 458 558 446 584 465 L584 465 Z M572 481 C560 472 540 474 532 484 L496 525 L552 574 C557 579 564 580 570 580 C598 580 621 537 616 514 L572 481 Z M702 -50 L698 6 L637 2 L620 264 C619 282 608 297 592 303 L570 312 C566 326 556 338 541 344 L506 357 C515 369 520 384 520 400 C520 456 467 493 412 493 C323 493 313 397 313 308 L298 -100 L342 -100 C369 -100 382 -83 384 -59 L389 9 L371 37 L364 -57 C363 -76 357 -80 342 -80 L318 -80 L330 229 C341 198 355 175 373 146 L431 -100 L472 -100 C487 -100 503 -86 501 -69 L482 126 L453 291 L467 308 L451 320 L431 297 L462 123 L481 -70 C482 -77 478 -80 472 -80 L447 -80 L391 154 C360 203 333 254 333 309 C333 384 337 474 414 474 C456 474 500 448 500 399 C500 388 497 377 490 369 L438 411 L426 395 L492 340 L535 326 C550 321 554 313 551 297 L522 297 L522 277 L567 277 L570 290 L582 285 C593 280 599 272 600 261 L618 2 L555 -3 L559 -59 L579 -57 L577 -22 L618 -19 L620 -54 L640 -53 L638 -18 L679 -15 L682 -52 L702 -50 Z " />
<glyph glyph-name="zero" unicode="0" horiz-adv-x="1000" d="M663 371 L850 371 L850 391 L717 391 L717 436 L500 601 L283 436 L283 391 L150 391 L150 371 L337 371 L337 279 L150 279 L150 259 L337 259 L337 -78 L150 -78 L150 -98 L848 -98 L848 -78 L663 -78 L663 259 L850 259 L850 279 L663 279 L663 371 Z M643 -78 L582 -78 L582 7 L523 7 L523 -78 L477 -78 L477 7 L418 7 L418 -78 L357 -78 L357 399 L303 399 L303 426 L500 575 L697 426 L697 399 L643 399 L643 -78 Z M560 375 L560 395 L510 395 L510 445 L490 445 L490 395 L440 395 L440 375 L490 375 L490 325 L510 325 L510 375 L560 375 Z M206 187 L206 212 L153 212 L153 187 L206 187 Z M297 187 L297 212 L244 212 L244 187 L297 187 Z M756 187 L756 212 L702 212 L702 187 L756 187 Z M846 187 L846 212 L793 212 L793 187 L846 187 Z M418 207 L418 148 L477 148 L477 207 L418 207 Z M523 207 L523 148 L582 148 L582 207 L523 207 Z M153 133 L153 73 L206 73 L206 133 L153 133 Z M244 133 L244 73 L297 73 L297 133 L244 133 Z M756 73 L756 133 L702 133 L702 73 L756 73 Z M846 73 L846 133 L793 133 L793 73 L846 73 Z M418 111 L418 51 L477 51 L477 111 L418 111 Z M523 111 L523 51 L582 51 L582 111 L523 111 Z M153 34 L153 -25 L206 -25 L206 34 L153 34 Z M244 34 L244 -25 L297 -25 L297 34 L244 34 Z M702 34 L702 -25 L756 -25 L756 34 L702 34 Z M793 34 L793 -25 L846 -25 L846 34 L793 34 Z " />
<glyph glyph-name="one" unicode="1" horiz-adv-x="1000" d="M854 228 L791 270 L791 378 C791 409 760 432 732 432 C724 432 717 431 711 427 C702 451 675 467 651 467 C643 467 636 466 629 462 C621 484 596 500 573 500 C565 500 558 498 551 494 C542 516 519 530 497 530 C480 530 465 522 457 504 L452 492 L400 526 L349 533 C344 551 331 569 313 580 C292 593 272 600 249 600 C216 600 181 586 147 556 L147 519 C221 517 189 493 247 455 C257 448 270 445 283 445 C292 445 301 447 309 449 L342 407 L368 392 L336 304 C330 287 327 267 327 248 C327 224 334 198 351 170 L427 49 L427 -100 L447 -100 L447 55 L368 180 C352 205 347 226 347 247 C347 264 349 281 355 298 L382 373 C392 400 416 413 448 398 L579 339 C560 297 520 286 490 293 L435 305 L435 276 L449 228 L456 228 C507 228 569 126 566 101 L586 99 C589 130 530 232 470 246 C494 262 528 269 562 264 C568 237 598 220 624 220 C632 220 640 222 646 226 C655 207 684 194 709 196 L758 168 C751 111 728 75 693 32 L691 -100 L711 -100 L713 24 C746 65 769 103 777 157 L810 138 L854 228 Z M258 472 C223 495 223 532 167 538 L167 547 C196 571 224 581 249 581 C268 581 285 574 302 564 C319 554 335 527 331 506 L321 483 C312 473 299 465 283 465 C274 465 265 467 258 472 L258 472 Z M429 428 L381 407 L355 423 L331 455 L356 512 L393 507 L445 472 L429 428 Z M451 419 L476 494 C479 504 487 509 497 509 C516 509 539 491 532 469 L509 394 L451 419 Z M527 386 L552 463 C555 474 564 478 574 478 C594 478 617 460 610 437 L586 360 L527 386 Z M645 254 C642 245 634 241 625 241 C604 241 576 258 584 285 L630 431 C633 442 642 446 652 446 C673 446 699 425 692 403 L645 254 Z M665 249 L712 397 C715 407 723 411 732 411 C752 411 776 393 769 371 L729 240 C724 224 712 217 699 217 C679 217 659 231 665 249 L665 249 Z M730 207 C738 213 744 221 748 234 L758 267 L828 221 L801 166 L730 207 Z " />
<glyph glyph-name="two" unicode="2" horiz-adv-x="1000" d="M790 157 L849 260 L745 319 L745 388 C745 418 714 442 687 442 C679 442 672 441 665 437 C656 460 629 477 605 477 C597 477 590 476 583 472 C575 494 551 509 528 510 C520 510 512 508 505 504 C497 525 473 540 452 540 C435 540 419 533 411 514 L309 572 L151 594 L248 468 L337 419 C329 412 322 402 318 390 L290 314 C275 274 273 232 305 180 L381 59 L381 -100 L401 -100 L401 65 L322 190 C294 235 295 270 309 308 L336 383 C346 411 370 423 402 408 L533 349 C518 315 488 301 462 301 C456 301 450 302 444 303 L389 315 L389 286 L403 238 L410 238 C461 238 523 136 520 111 L540 109 C543 140 484 242 424 256 C443 269 468 276 495 276 C502 276 509 275 516 274 C522 247 552 230 578 230 C586 230 593 232 600 236 C608 218 634 206 658 206 C669 206 679 209 687 215 L714 200 C710 130 686 90 647 42 L645 -100 L665 -100 L667 34 C704 80 728 123 733 189 L790 157 Z M405 494 L386 432 C377 433 368 433 360 431 L263 485 L197 568 L303 553 L405 494 Z M463 404 L405 429 L430 504 C434 515 442 519 452 519 C471 519 493 501 486 479 L463 404 Z M540 370 L481 396 L506 473 C510 484 519 488 529 488 C548 488 571 469 564 447 L540 370 Z M646 413 L599 264 C596 255 587 250 577 250 C556 250 530 269 538 295 L584 441 C587 452 596 456 606 456 C627 456 653 435 646 413 L646 413 Z M619 259 L666 407 C669 417 677 421 687 421 C706 421 729 402 723 381 L683 250 C678 234 665 227 652 227 C633 227 613 241 619 259 L619 259 Z M782 185 L699 232 L700 234 L723 309 L820 253 L782 185 Z " />
<glyph glyph-name="three" unicode="3" horiz-adv-x="1000" d="M815 600 L185 600 C167 600 150 583 150 565 L150 238 C150 221 167 203 185 203 L233 203 L233 223 L185 223 C176 223 170 229 170 238 L170 565 C170 574 176 580 185 580 L815 580 C824 580 830 574 830 565 L830 238 C830 229 824 223 815 223 L577 223 L577 479 C577 513 553 529 529 529 C505 529 482 513 481 479 L479 346 C470 354 459 358 450 358 C432 358 410 343 404 318 C397 325 387 328 378 328 C356 328 334 308 334 276 L334 269 C326 276 317 280 308 280 C288 280 263 259 263 229 L263 104 C267 64 284 25 311 -12 L311 -97 L331 -97 L331 -5 C303 31 287 67 283 105 L283 229 C283 250 295 260 308 260 C321 260 333 250 333 229 L333 220 L354 229 L354 276 C354 297 366 308 378 308 C391 308 403 297 403 276 L403 249 L423 258 L423 306 C423 328 436 338 450 338 C463 338 478 328 478 306 L478 269 L498 270 L501 479 C501 500 515 510 529 510 C543 510 557 500 557 479 L557 207 L563 146 L586 146 L581 203 L619 203 C632 115 632 107 632 102 C632 62 599 26 554 -5 L554 -97 L574 -97 L574 -15 C617 16 652 58 652 103 C652 108 649 134 640 203 L815 203 C833 203 850 221 850 238 L850 565 C850 583 833 600 815 600 L815 600 Z M412 499 L396 511 C376 484 364 450 364 414 C364 394 368 373 375 356 L393 362 C388 379 384 396 384 414 C384 446 394 474 412 499 L412 499 Z M661 350 L679 342 C689 363 696 389 696 414 C696 449 684 484 665 510 L649 498 C666 474 676 445 676 414 C676 391 671 369 661 350 L661 350 Z M610 379 L628 371 C634 384 637 399 637 414 C637 440 628 464 613 482 L597 470 C610 454 617 436 617 414 C617 401 614 390 610 379 L610 379 Z M461 468 L445 480 C432 462 423 439 423 414 C423 404 424 394 428 384 L446 390 C444 398 443 406 443 414 C443 435 450 452 461 468 L461 468 Z " />
<glyph glyph-name="four" unicode="4" horiz-adv-x="1000" d="M815 600 L185 600 C167 600 150 583 150 565 L150 238 C150 221 167 203 185 203 L360 203 C351 133 348 110 348 103 C348 58 383 16 426 -15 L426 -97 L446 -97 L446 -5 C401 26 368 62 368 102 C368 109 369 118 381 203 L419 203 L414 146 L437 146 L443 207 L443 479 C443 500 457 510 471 510 C485 510 499 500 499 479 L502 270 L522 269 L522 306 C522 328 537 338 550 338 C564 338 577 328 577 306 L577 258 L597 249 L597 276 C597 297 609 308 622 308 C634 308 646 297 646 276 L646 229 L667 220 L667 229 C667 250 679 260 692 260 C705 260 717 250 717 229 L717 105 C713 67 697 31 669 -5 L669 -97 L689 -97 L689 -12 C716 25 733 64 737 104 L737 229 C737 259 712 280 692 280 C683 280 674 276 666 269 L666 276 C666 308 644 328 622 328 C613 328 603 325 596 318 C590 343 568 358 550 358 C541 358 530 354 521 346 L519 479 C518 513 495 529 471 529 C447 529 423 513 423 479 L423 223 L185 223 C176 223 170 229 170 238 L170 565 C170 574 176 580 185 580 L815 580 C824 580 830 574 830 565 L830 238 C830 229 824 223 815 223 L767 223 L767 203 L815 203 C833 203 850 221 850 238 L850 565 C850 583 833 600 815 600 L815 600 Z M607 362 L625 356 C632 373 636 394 636 414 C636 450 624 484 604 511 L588 499 C606 474 616 446 616 414 C616 396 612 379 607 362 L607 362 Z M351 498 L335 510 C316 484 304 449 304 414 C304 389 311 363 321 342 L339 350 C329 369 324 391 324 414 C324 445 334 474 351 498 L351 498 Z M403 470 L387 482 C372 464 363 440 363 414 C363 399 366 384 372 371 L390 379 C386 390 383 401 383 414 C383 436 390 454 403 470 L403 470 Z M554 390 L572 384 C576 394 577 404 577 414 C577 439 568 462 555 480 L539 468 C550 452 557 435 557 414 C557 406 556 398 554 390 L554 390 Z " />
<glyph glyph-name="five" unicode="5" horiz-adv-x="1000" d="M815 600 L185 600 C167 600 150 583 150 565 L150 238 C150 221 167 203 185 203 L430 203 C418 115 418 107 418 103 C418 58 453 16 496 -15 L496 -97 L516 -97 L516 -5 C471 26 438 62 438 102 C438 111 439 122 451 203 L489 203 L484 146 L507 146 L513 207 L513 479 C513 500 527 510 541 510 C555 510 569 500 569 479 L572 270 L592 269 L592 306 C592 328 607 338 620 338 C634 338 647 328 647 306 L647 258 L667 249 L667 276 C667 297 679 308 692 308 C704 308 716 297 716 276 L716 229 L737 220 L737 229 C737 250 749 260 762 260 C775 260 787 250 787 229 L787 105 C783 67 767 31 739 -5 L739 -97 L759 -97 L759 -12 C786 25 803 64 807 104 L807 203 L815 203 C833 203 850 221 850 238 L850 565 C850 583 833 600 815 600 L815 600 Z M830 238 C830 229 824 223 815 223 L807 223 L807 229 C807 259 782 280 762 280 C753 280 744 276 736 269 L736 276 C736 308 714 328 692 328 C683 328 673 325 666 318 C660 343 638 358 620 358 C611 358 600 354 591 346 L589 479 C589 513 565 529 541 529 C517 529 493 513 493 479 L493 223 L185 223 C176 223 170 229 170 238 L170 565 C170 574 176 580 185 580 L815 580 C824 580 830 574 830 565 L830 238 Z M301 467 L455 467 L455 487 L301 487 L301 467 Z M345 401 L455 401 L455 421 L345 421 L345 401 Z M388 334 L455 334 L455 354 L388 354 L388 334 Z " />
<glyph glyph-name="six" unicode="6" horiz-adv-x="1000" d="M815 600 L185 600 C167 600 150 583 150 565 L150 238 C150 221 167 203 185 203 L193 203 L193 104 C197 64 214 25 241 -12 L241 -97 L261 -97 L261 -5 C233 31 217 67 213 105 L213 229 C213 250 225 260 238 260 C251 260 263 250 263 229 L263 220 L284 229 L284 276 C284 297 296 308 308 308 C321 308 333 297 333 276 L333 249 L353 258 L353 306 C353 328 366 338 380 338 C393 338 408 328 408 306 L408 269 L428 270 L431 479 C431 500 445 510 459 510 C473 510 487 500 487 479 L487 207 L493 146 L516 146 L511 203 L549 203 C562 116 562 107 562 102 C562 62 529 26 484 -5 L484 -97 L504 -97 L504 -15 C547 16 582 58 582 103 C582 108 579 134 570 203 L815 203 C833 203 850 221 850 238 L850 565 C850 583 833 600 815 600 L815 600 Z M830 238 C830 229 824 223 815 223 L507 223 L507 479 C507 513 483 529 459 529 C435 529 412 513 411 479 L409 346 C400 354 389 358 380 358 C362 358 340 343 334 318 C327 325 317 328 308 328 C286 328 264 308 264 276 L264 269 C256 276 247 280 238 280 C218 280 193 259 193 229 L193 223 L185 223 C176 223 170 229 170 238 L170 565 C170 574 176 580 185 580 L815 580 C824 580 830 574 830 565 L830 238 Z M545 467 L699 467 L699 487 L545 487 L545 467 Z M545 401 L655 401 L655 421 L545 421 L545 401 Z M545 334 L612 334 L612 354 L545 354 L545 334 Z " />
<glyph glyph-name="seven" unicode="7" horiz-adv-x="1000" d="M815 600 L185 600 C167 600 150 583 150 565 L150 238 C150 221 167 203 185 203 L193 203 L193 104 C197 64 214 25 241 -12 L241 -97 L261 -97 L261 -5 C233 31 217 67 213 105 L213 229 C213 250 225 260 238 260 C251 260 263 250 263 229 L263 220 L284 229 L284 276 C284 297 296 308 308 308 C321 308 333 297 333 276 L333 249 L353 258 L353 306 C353 328 366 338 380 338 C393 338 408 328 408 306 L408 269 L428 270 L431 479 C431 500 445 510 459 510 C473 510 487 500 487 479 L487 207 L493 146 L516 146 L511 203 L549 203 C562 116 562 107 562 102 C562 62 529 26 484 -5 L484 -97 L504 -97 L504 -15 C547 16 582 58 582 103 C582 108 579 134 570 203 L815 203 C833 203 850 221 850 238 L850 565 C850 583 833 600 815 600 L815 600 Z M830 238 C830 229 824 223 815 223 L507 223 L507 479 C507 513 483 529 459 529 C435 529 412 513 411 479 L409 346 C400 354 389 358 380 358 C362 358 340 343 334 318 C327 325 317 328 308 328 C286 328 264 308 264 276 L264 269 C256 276 247 280 238 280 C218 280 193 259 193 229 L193 223 L185 223 C176 223 170 229 170 238 L170 565 C170 574 176 580 185 580 L815 580 C824 580 830 574 830 565 L830 238 Z " />
<glyph glyph-name="eight" unicode="8" horiz-adv-x="1000" d="M815 600 L185 600 C167 600 150 583 150 565 L150 238 C150 221 167 203 185 203 L430 203 C418 115 418 107 418 103 C418 58 453 16 496 -15 L496 -97 L516 -97 L516 -5 C471 26 438 62 438 102 C438 111 439 122 451 203 L489 203 L484 146 L507 146 L513 207 L513 479 C513 500 527 510 541 510 C555 510 569 500 569 479 L572 270 L592 269 L592 306 C592 328 607 338 620 338 C634 338 647 328 647 306 L647 258 L667 249 L667 276 C667 297 679 308 692 308 C704 308 716 297 716 276 L716 229 L737 220 L737 229 C737 250 749 260 762 260 C775 260 787 250 787 229 L787 105 C783 67 767 31 739 -5 L739 -97 L759 -97 L759 -12 C786 25 803 64 807 104 L807 203 L815 203 C833 203 850 221 850 238 L850 565 C850 583 833 600 815 600 L815 600 Z M830 238 C830 229 824 223 815 223 L807 223 L807 229 C807 259 782 280 762 280 C753 280 744 276 736 269 L736 276 C736 308 714 328 692 328 C683 328 673 325 666 318 C660 343 638 358 620 358 C611 358 600 354 591 346 L589 479 C589 513 565 529 541 529 C517 529 493 513 493 479 L493 223 L185 223 C176 223 170 229 170 238 L170 565 C170 574 176 580 185 580 L815 580 C824 580 830 574 830 565 L830 238 Z " />
<glyph glyph-name="nine" unicode="9" horiz-adv-x="1000" d="M850 210 L833 301 L731 301 L731 377 L843 377 L843 455 L711 455 L711 301 L514 301 L514 377 L626 377 L626 455 L494 455 L494 301 L292 301 L292 377 L404 377 L404 455 L272 455 L272 301 L166 301 L150 210 L168 210 L183 169 L183 -50 L264 -50 L264 155 L347 155 L347 -50 L457 -50 L457 155 L541 155 L541 -50 L651 -50 L651 155 L721 155 L721 -50 L817 -50 L817 169 L832 210 L850 210 Z M292 435 L384 435 L384 397 L292 397 L292 435 Z M514 435 L606 435 L606 397 L514 397 L514 435 Z M731 435 L823 435 L823 397 L731 397 L731 435 Z M183 281 L816 281 L826 230 L174 230 L183 281 Z M797 173 L797 47 L741 47 L741 175 L631 175 L631 47 L561 47 L561 175 L437 175 L437 47 L367 47 L367 175 L244 175 L244 47 L203 47 L203 173 L189 210 L811 210 L797 173 Z M244 -30 L203 -30 L203 27 L244 27 L244 -30 Z M437 -30 L367 -30 L367 27 L437 27 L437 -30 Z M631 -30 L561 -30 L561 27 L631 27 L631 -30 Z M797 -30 L741 -30 L741 27 L797 27 L797 -30 Z " />
<glyph glyph-name="colon" unicode="&#x3a;" horiz-adv-x="1000" d="M393 456 L459 456 C478 456 494 467 499 485 C506 508 508 538 508 575 C492 606 477 613 426 613 C407 613 393 604 385 587 L352 518 C337 487 358 456 393 456 L393 456 Z M370 509 L403 578 C409 590 416 593 426 593 C464 593 476 591 488 570 C488 529 484 505 480 490 C477 480 468 476 459 476 L393 476 C369 476 364 496 370 509 L370 509 Z M615 253 C616 260 617 266 617 271 C617 294 597 312 564 312 L564 366 C564 405 519 433 489 433 L421 433 C393 433 345 425 345 372 L345 233 L371 217 C365 187 360 135 367 70 L391 70 L385 -100 L459 -100 L477 70 L508 70 L527 -100 L597 -100 L597 70 L629 70 C636 99 640 129 640 154 C640 196 634 229 615 253 L615 253 Z M613 90 L385 90 C382 140 385 180 390 206 L478 153 L507 182 L493 196 L476 179 L365 245 L365 372 C365 409 395 413 421 413 L489 413 C513 413 544 391 544 366 L544 299 L512 279 C498 251 531 204 562 211 L601 237 C615 218 620 190 620 154 C620 132 618 115 613 90 L613 90 Z M597 271 C597 267 596 258 594 251 L555 230 C543 231 527 252 529 266 L564 292 C585 292 597 283 597 271 L597 271 Z M441 -80 L405 -80 L409 70 L457 70 L441 -80 Z M577 -80 L545 -80 L528 70 L577 70 L577 -80 Z " />
<glyph glyph-name="semicolon" unicode="&#x3b;" horiz-adv-x="1000" d="M480 498 L496 557 C489 582 447 605 419 605 C394 605 371 588 367 564 L352 471 L424 459 C443 456 472 467 480 498 L480 498 Z M387 560 C390 575 404 585 418 585 C438 585 466 573 475 556 L460 503 C455 484 439 477 427 479 L374 487 L387 560 Z M777 -26 L774 -26 L748 8 L627 13 C619 48 606 120 602 171 L703 35 L727 35 L593 218 L518 239 C516 253 504 263 491 267 L404 293 L414 355 C423 412 386 449 332 449 C296 449 273 424 270 392 L257 271 C255 250 262 222 274 201 L256 74 L179 -53 L227 -68 C242 -73 258 -67 265 -56 L339 54 L355 -105 L396 -105 C415 -105 431 -89 431 -70 L431 89 C431 98 430 105 428 113 L395 228 L375 222 L408 107 C410 101 411 96 411 89 L411 -70 C411 -79 405 -85 396 -85 L373 -85 L356 85 L325 165 C296 197 273 235 277 271 L290 390 C293 416 308 429 332 429 C371 429 401 406 394 358 L385 299 L367 304 L359 372 L339 370 L349 288 L485 248 C494 245 499 240 498 233 L494 202 L514 200 L516 218 L581 200 C581 146 601 30 611 -5 L738 -12 L755 -35 C750 -41 746 -49 746 -58 C746 -75 760 -90 777 -90 C795 -90 809 -75 809 -58 C809 -40 795 -26 777 -26 L777 -26 Z M704 123 C726 123 744 141 744 163 C744 185 726 203 704 203 C682 203 665 185 665 163 C665 141 682 123 704 123 L704 123 Z M307 155 L330 97 L320 60 L249 -44 C245 -50 240 -51 233 -49 L209 -41 L276 68 L291 176 L307 155 Z M719 89 L742 55 L767 57 L808 10 L821 27 L798 75 C791 90 782 97 767 95 L719 89 Z M606 -26 C589 -26 574 -40 574 -58 C574 -75 589 -90 606 -90 C624 -90 638 -75 638 -58 C638 -40 624 -26 606 -26 L606 -26 Z " />
<glyph glyph-name="equal" unicode="&#x3d;" horiz-adv-x="1000" d="M259 580 L741 580 L741 334 L259 334 L259 580 Z M687 208 L687 283 L313 283 L313 208 L333 208 L333 263 L667 263 L667 208 L687 208 Z M302 129 C278 129 259 110 259 86 C259 63 278 44 302 44 C325 44 344 63 344 86 C344 110 325 129 302 129 L302 129 Z M698 129 C675 129 656 110 656 86 C656 63 675 44 698 44 C722 44 741 63 741 86 C741 110 722 129 698 129 L698 129 Z M500 108 C477 108 458 89 458 65 C458 42 477 23 500 23 C523 23 542 42 542 65 C542 89 523 108 500 108 L500 108 Z M193 6 C169 6 150 -13 150 -37 C150 -60 169 -79 193 -79 C216 -79 235 -60 235 -37 C235 -13 216 6 193 6 L193 6 Z M807 6 C784 6 765 -13 765 -37 C765 -60 784 -79 807 -79 C831 -79 850 -60 850 -37 C850 -13 831 6 807 6 L807 6 Z M382 -15 C359 -15 340 -34 340 -57 C340 -81 359 -100 382 -100 C405 -100 424 -81 424 -57 C424 -34 405 -15 382 -15 L382 -15 Z M618 -15 C595 -15 576 -34 576 -57 C576 -81 595 -100 618 -100 C641 -100 660 -81 660 -57 C660 -34 641 -15 618 -15 L618 -15 Z " />
<glyph glyph-name="question" unicode="&#x3f;" horiz-adv-x="1000" d="M623 585 L495 603 C490 604 484 604 480 604 C454 604 414 588 406 554 C410 531 427 480 434 469 L437 465 L410 457 C382 449 363 429 355 398 L335 320 C329 298 341 277 364 268 L446 236 L461 197 L429 -100 L499 -100 L554 139 L576 -100 L642 -100 L652 193 L596 427 L652 501 C661 513 666 527 666 540 C666 562 651 581 623 585 L623 585 Z M636 513 L574 431 L632 191 L622 -80 L594 -80 L573 159 L538 159 L483 -80 L451 -80 L481 199 L462 252 L372 286 C357 292 352 303 355 315 L375 394 C381 419 392 432 416 437 L492 454 C504 457 535 479 541 490 L542 501 L561 508 L571 528 L520 543 L521 494 C518 491 501 479 488 474 C475 474 452 477 450 480 C445 488 432 530 426 554 C433 575 455 585 489 585 L621 565 C639 562 647 553 647 540 C647 532 644 523 636 513 L636 513 Z M544 328 L507 305 L421 329 L441 373 L423 381 L393 317 L509 283 L549 308 C566 305 572 295 572 279 L592 279 C592 303 577 327 544 328 L544 328 Z " />
<glyph glyph-name="at" unicode="&#x40;" horiz-adv-x="1000" d="M247 600 L247 314 L416 314 L420 334 L267 334 L267 580 L749 580 L749 334 L596 334 L600 314 L769 314 L769 600 L247 600 Z M535 403 C536 410 541 443 541 448 C536 467 526 472 508 472 C491 472 480 467 476 448 C476 443 481 410 482 404 C488 398 499 395 508 393 C517 395 529 398 535 403 L535 403 Z M449 374 L434 283 L321 283 L321 208 L341 208 L341 263 L675 263 L675 208 L695 208 L695 283 L582 283 L567 374 L449 374 Z M302 129 C278 129 259 110 259 86 C259 63 278 44 302 44 C325 44 344 63 344 86 C344 110 325 129 302 129 L302 129 Z M698 129 C675 129 656 110 656 86 C656 63 675 44 698 44 C722 44 741 63 741 86 C741 110 722 129 698 129 L698 129 Z M500 108 C477 108 458 89 458 65 C458 42 477 23 500 23 C523 23 542 42 542 65 C542 89 523 108 500 108 L500 108 Z M193 6 C169 6 150 -13 150 -37 C150 -60 169 -79 193 -79 C216 -79 235 -60 235 -37 C235 -13 216 6 193 6 L193 6 Z M807 6 C784 6 765 -13 765 -37 C765 -60 784 -79 807 -79 C831 -79 850 -60 850 -37 C850 -13 831 6 807 6 L807 6 Z M382 -15 C359 -15 340 -34 340 -57 C340 -81 359 -100 382 -100 C405 -100 424 -81 424 -57 C424 -34 405 -15 382 -15 L382 -15 Z M618 -15 C595 -15 576 -34 576 -57 C576 -81 595 -100 618 -100 C641 -100 660 -81 660 -57 C660 -34 641 -15 618 -15 L618 -15 Z " />
<glyph glyph-name="A" unicode="A" horiz-adv-x="1000" d="M496 584 C490 554 492 517 501 499 C506 493 527 482 547 475 C563 475 591 483 599 489 C608 495 623 545 623 569 C613 600 584 613 550 613 C525 613 508 604 496 584 L496 584 Z M515 577 C523 589 533 593 548 593 C573 593 596 586 603 566 C602 551 594 517 586 504 C581 501 564 496 550 495 C537 500 521 508 517 512 C511 531 512 559 515 577 L515 577 Z M631 187 L686 276 L672 410 C669 437 647 457 608 459 L490 465 C488 428 494 391 505 355 L500 355 L445 358 L443 338 L499 335 L546 335 L546 324 C546 307 537 298 519 298 L406 298 C392 298 387 305 393 323 L424 412 C433 439 443 446 468 445 L468 465 C437 466 418 451 406 418 L375 329 C365 301 378 278 406 278 L445 278 L445 251 L364 251 C352 251 331 265 334 290 L355 441 C359 467 359 486 397 486 L468 486 L468 506 L397 506 C341 506 338 469 335 444 L314 292 C308 252 344 231 364 231 L465 231 L465 278 L519 278 C548 278 566 297 566 324 L566 355 L526 355 C516 385 510 413 510 445 L606 439 C637 437 651 422 653 400 L666 282 L611 193 L616 48 L614 -68 L584 -68 L580 49 L559 147 L559 175 L527 175 L510 49 L499 -68 L468 -68 L466 191 L446 191 L448 -88 L517 -88 L530 47 L542 134 L560 47 L564 -88 L634 -88 L636 48 L631 187 Z " />
<glyph glyph-name="B" unicode="B" horiz-adv-x="1000" d="M799 598 L492 598 L492 552 L512 552 L512 578 L799 578 C815 578 830 563 830 546 L830 91 C830 83 823 76 815 76 L815 56 C834 56 850 73 850 91 L850 546 C850 573 825 598 799 598 L799 598 Z M753 532 L368 532 L368 488 L388 488 L388 512 L753 512 C762 512 768 506 768 497 L768 19 C768 10 762 4 753 4 L703 4 C704 25 711 56 715 70 L745 70 L745 90 L227 90 C178 90 150 47 150 1 C150 -46 178 -88 227 -88 L745 -88 L745 -68 L715 -68 C712 -57 707 -35 704 -16 L753 -16 C770 -16 788 1 788 19 L788 497 C788 515 770 532 753 532 L753 532 Z M640 460 L549 460 L549 440 L640 440 L640 460 Z M353 438 L389 438 L389 458 L353 458 C347 458 343 454 343 448 C343 442 347 438 353 438 L353 438 Z M353 388 L389 388 L389 408 L353 408 C347 408 343 404 343 398 C343 392 347 388 353 388 L353 388 Z M487 398 L487 378 L690 378 L690 398 L487 398 Z M353 338 L389 338 L389 358 L353 358 C347 358 343 354 343 348 C343 342 347 338 353 338 L353 338 Z M353 288 L389 288 L389 308 L353 308 C347 308 343 304 343 298 C343 292 347 288 353 288 L353 288 Z M261 120 L586 120 L586 140 L568 140 C565 149 559 168 559 183 C559 200 565 220 568 228 L586 228 L586 248 L261 248 C226 248 205 217 205 184 C205 151 226 120 261 120 L261 120 Z M261 228 L548 228 C545 219 541 207 540 194 L226 194 C229 214 242 228 261 228 L261 228 Z M547 140 L261 140 C242 140 229 154 226 174 L539 174 C541 162 544 149 547 140 L547 140 Z M227 70 L694 70 L688 41 L179 41 C189 59 205 70 227 70 L227 70 Z M172 21 L684 21 C684 14 683 7 683 1 C683 -5 684 -12 684 -19 L172 -19 C171 -13 170 -6 170 1 C170 8 171 15 172 21 L172 21 Z M694 -68 L227 -68 C204 -68 188 -57 179 -39 L688 -39 C690 -50 692 -60 694 -68 L694 -68 Z " />
<glyph glyph-name="C" unicode="C" horiz-adv-x="1000" d="M476 220 L479 205 L576 205 L571 598 L472 598 L472 568 L253 435 L250 229 L476 220 Z M551 578 L556 225 L498 225 L498 578 L551 578 Z M270 249 L270 277 L357 277 L357 297 L271 297 L271 328 L357 328 L357 348 L272 348 L272 379 L357 379 L357 399 L273 399 L273 423 L478 547 L478 241 L270 249 Z M585 46 L585 170 L180 170 L180 46 L585 46 Z M565 150 L565 66 L200 66 L200 95 L285 95 L285 115 L200 115 L200 150 L565 150 Z M510 90 C519 90 527 98 527 108 C527 118 519 126 510 126 C500 126 492 118 492 108 C492 98 500 90 510 90 L510 90 Z M640 56 L640 101 L667 98 L666 58 L789 58 L789 98 L620 125 L620 56 L640 56 Z M822 20 L178 20 L178 0 L802 0 L802 -61 L822 -61 L822 20 Z " />
<glyph glyph-name="D" unicode="D" horiz-adv-x="1000" d="M568 454 L568 587 L850 587 L850 607 L548 607 L548 454 L568 454 Z M446 458 C460 460 479 467 487 477 L494 533 C488 561 470 570 446 570 C423 570 405 561 398 533 C400 523 405 485 407 476 C418 465 435 460 446 458 L446 458 Z M446 478 C438 480 431 483 427 485 C424 496 422 513 419 532 C423 545 430 550 446 550 C463 550 470 545 474 532 C472 520 469 495 467 484 L446 478 Z M662 529 L662 549 L608 549 L608 529 L662 529 Z M706 529 L760 529 L760 549 L706 549 L706 529 Z M803 529 L850 529 L850 549 L803 549 L803 529 Z M519 283 L518 374 L691 374 L691 405 L850 485 L842 503 L691 427 L691 438 L399 438 C372 438 352 420 351 394 L346 227 L388 224 L375 56 L437 56 L437 76 L397 76 L414 299 L414 360 L394 360 L394 299 L390 244 L366 245 L371 394 C371 408 382 418 399 418 L670 418 L670 394 L498 394 L499 282 L521 76 L488 76 L463 228 L443 224 L472 56 L543 56 L519 283 Z M608 499 L608 479 L662 479 L662 499 L608 499 Z M850 271 L850 291 L568 291 L568 356 L548 356 L548 271 L850 271 Z M659 118 C637 118 616 97 616 77 L616 28 C616 0 650 -12 675 -12 C692 -12 717 -2 735 12 L710 89 C703 111 682 118 659 118 L659 118 Z M818 111 L803 115 L743 -26 L666 -35 C639 -38 615 -54 599 -74 L594 -80 L555 -80 L555 -100 L604 -100 L615 -86 C629 -68 646 -58 668 -55 L757 -44 L815 91 C825 89 828 82 825 71 L784 -100 L804 -100 L845 66 C849 84 839 107 818 111 L818 111 Z M371 -80 L371 -52 C371 -9 348 5 315 17 C318 35 321 62 321 73 C311 93 291 103 266 103 C241 103 220 93 210 73 C210 64 211 36 216 17 C185 6 178 -2 165 -48 L150 -100 L172 -100 L185 -53 C191 -30 197 -9 218 -3 L314 -3 C339 -14 351 -25 351 -52 L351 -100 L419 -100 L419 -80 L371 -80 Z M636 77 C636 83 645 98 662 98 C677 98 687 94 691 83 L711 20 C699 13 685 8 675 8 C653 8 636 18 636 28 L636 77 Z M295 17 L237 17 C232 30 230 54 230 67 C237 79 247 83 266 83 C285 83 295 79 301 67 C301 56 299 31 295 17 L295 17 Z " />
<glyph glyph-name="E" unicode="E" horiz-adv-x="1000" d="M425 450 C445 436 475 428 503 428 C532 428 577 442 593 463 L561 563 C551 594 536 612 495 612 C459 612 440 591 430 565 L410 510 C401 486 408 462 425 450 L425 450 Z M436 466 C427 473 423 488 429 503 L449 558 C458 582 472 592 495 592 C523 592 533 584 542 557 L570 469 C555 457 526 448 503 448 C478 448 453 455 436 466 L436 466 Z M619 76 L610 133 L666 141 L634 356 C628 394 595 407 564 407 L438 407 C407 407 374 393 368 357 L334 141 L387 133 L378 76 L402 76 L404 -100 L473 -100 L487 76 L506 76 L523 -100 L594 -100 L593 76 L619 76 Z M595 96 L402 96 L435 293 L415 297 L390 152 L356 157 L388 353 C392 377 413 387 438 387 L564 387 C589 387 610 378 614 353 L644 157 L608 152 L583 297 L563 293 L595 96 Z M468 76 L455 -80 L424 -80 L422 76 L468 76 Z M574 -80 L541 -80 L526 76 L573 76 L574 -80 Z " />
<glyph glyph-name="F" unicode="F" horiz-adv-x="1000" d="M568 454 L568 587 L850 587 L850 607 L548 607 L548 454 L568 454 Z M437 458 C455 458 484 469 491 482 L474 546 C469 566 459 580 433 580 C411 580 393 565 390 548 L381 503 C375 472 406 458 437 458 L437 458 Z M437 478 C411 478 398 486 401 499 L410 544 C412 553 422 560 433 560 C446 560 451 556 455 541 L469 488 C461 483 446 478 437 478 L437 478 Z M662 529 L662 549 L608 549 L608 529 L662 529 Z M706 529 L760 529 L760 549 L706 549 L706 529 Z M803 529 L850 529 L850 549 L803 549 L803 529 Z M535 193 L508 374 L682 374 L682 400 L850 485 L843 503 L682 422 L682 438 L387 438 C362 438 346 431 339 406 L322 346 L322 239 L359 236 L355 193 L370 193 L377 46 L502 46 L512 193 L535 193 Z M608 499 L608 479 L662 479 L662 499 L608 499 Z M361 256 L342 257 L342 344 L357 400 C361 415 366 418 387 418 L662 418 L662 394 L486 394 L513 213 L377 213 L389 337 L369 339 L361 256 Z M850 271 L850 291 L568 291 L568 356 L548 356 L548 271 L850 271 Z M428 66 L395 66 L390 193 L429 193 L428 66 Z M492 193 L484 66 L448 66 L449 193 L492 193 Z M659 118 C637 118 616 97 616 77 L616 28 C616 0 650 -12 675 -12 C692 -12 717 -2 735 12 L710 89 C703 111 682 118 659 118 L659 118 Z M818 111 L803 115 L743 -26 L666 -35 C639 -38 615 -54 599 -74 L594 -80 L555 -80 L555 -100 L604 -100 L615 -86 C629 -68 646 -58 668 -55 L757 -44 L815 91 C825 89 828 82 825 71 L784 -100 L804 -100 L845 66 C849 84 839 107 818 111 L818 111 Z M371 -80 L371 -52 C371 -9 348 5 315 17 C318 35 321 62 321 73 C311 93 291 103 266 103 C241 103 220 93 210 73 C210 64 211 36 216 17 C185 6 178 -2 165 -48 L150 -100 L172 -100 L185 -53 C191 -30 197 -9 218 -3 L314 -3 C339 -14 351 -25 351 -52 L351 -100 L419 -100 L419 -80 L371 -80 Z M636 77 C636 83 645 98 662 98 C677 98 687 94 691 83 L711 20 C699 13 685 8 675 8 C653 8 636 18 636 28 L636 77 Z M295 17 L237 17 C232 30 230 54 230 67 C237 79 247 83 266 83 C285 83 295 79 301 67 C301 56 299 31 295 17 L295 17 Z " />
<glyph glyph-name="G" unicode="G" horiz-adv-x="1000" d="M323 651 C292 651 273 641 260 618 C260 601 266 543 269 534 C279 524 300 511 322 507 C345 513 362 522 368 527 C375 537 384 589 384 615 C374 639 353 651 323 651 L323 651 Z M323 631 C345 631 357 624 364 610 C364 588 357 546 353 540 C350 537 332 531 321 528 C308 531 290 539 287 543 C285 550 280 590 280 612 C289 626 301 631 323 631 L323 631 Z M464 363 L423 466 C397 472 353 478 308 478 C275 478 241 476 213 468 C200 449 170 384 155 345 C148 326 147 300 172 287 L231 257 L237 -101 L313 -101 L325 144 L336 136 L336 -101 L412 -101 L422 256 C433 270 445 286 454 305 C460 318 471 344 464 363 L464 363 Z M436 315 C425 295 415 278 402 264 L392 -81 L356 -81 L356 146 L307 182 L293 -81 L257 -81 L252 218 L286 213 L286 252 L182 305 C168 312 168 324 173 338 C185 373 212 426 226 450 C253 457 283 459 313 459 L313 341 L333 341 L333 458 C362 456 389 452 409 448 L444 356 C449 343 441 324 436 315 L436 315 Z M536 162 L536 178 L610 188 L615 211 C619 228 629 236 648 242 L726 268 L764 330 L788 417 L794 417 C805 417 812 407 810 398 L795 319 L749 208 L751 161 L771 161 L769 204 L815 313 L830 394 C834 415 817 435 796 437 L772 439 L746 338 L712 284 L642 262 C619 255 598 241 595 215 L594 206 L516 196 L516 162 L536 162 Z M653 305 C666 307 699 320 702 327 C713 354 712 371 712 399 C702 421 683 431 653 431 C623 431 604 421 594 399 C594 371 593 354 604 327 C607 320 640 307 653 305 L653 305 Z M653 325 C642 327 626 334 621 337 C614 357 614 370 614 394 C621 406 632 411 653 411 C674 411 685 406 692 394 C692 370 692 357 685 337 C680 334 664 327 653 325 L653 325 Z M850 138 L500 138 L500 118 L850 118 L850 138 Z M776 94 L756 93 C767 34 771 -22 764 -81 L744 -81 L720 91 L701 90 L710 23 L640 23 L651 87 L631 86 L603 -81 L583 -81 C576 -22 576 23 587 83 L568 82 C556 23 556 -23 565 -101 L619 -101 L637 3 L712 3 L726 -101 L782 -101 C791 -34 789 27 776 94 L776 94 Z " />
<glyph glyph-name="H" unicode="H" horiz-adv-x="1000" d="M478 600 L200 600 C174 600 150 576 150 550 L150 380 C150 354 174 330 200 330 L238 330 L324 213 L362 213 L362 330 L478 330 C504 330 528 354 528 380 L528 550 C528 576 504 600 478 600 L478 600 Z M200 580 L478 580 C494 580 508 566 508 550 L508 380 C508 364 494 350 478 350 L342 350 L342 233 L334 233 L248 350 L200 350 C184 350 170 364 170 380 L170 550 C170 566 184 580 200 580 L200 580 Z M231 542 L231 522 L448 522 L448 542 L231 542 Z M493 194 L513 194 L513 220 L600 232 L604 260 C607 282 618 294 644 303 L735 335 L780 397 L807 498 L813 498 C822 497 828 490 827 481 L817 382 L763 253 L766 203 L786 205 L783 249 L837 378 L847 479 C849 498 834 516 815 518 L791 520 L762 405 L723 351 L638 321 C608 310 589 292 584 263 L582 250 L493 238 L493 194 Z M605 394 C610 381 640 370 660 367 C675 369 709 380 715 395 C725 418 727 451 727 473 C715 498 690 510 660 510 C630 510 605 498 593 473 C593 453 596 416 605 394 L605 394 Z M623 401 C616 420 613 449 613 468 C622 484 636 490 660 490 C684 490 698 484 707 468 C707 449 704 420 697 401 C695 398 674 390 660 387 C646 390 625 398 623 401 L623 401 Z M231 479 L231 459 L448 459 L448 479 L231 479 Z M231 415 L231 395 L448 395 L448 415 L231 415 Z M472 176 L474 156 L850 156 L849 176 L472 176 Z M695 133 L697 88 L643 88 L645 133 L537 133 L558 -100 L635 -100 L642 68 L698 68 L705 -100 L782 -100 L803 133 L695 133 Z M576 -80 L559 113 L624 113 L616 -80 L576 -80 Z M724 -80 L716 113 L781 113 L764 -80 L724 -80 Z " />
<glyph glyph-name="I" unicode="I" horiz-adv-x="1000" d="M499 553 L499 511 L434 511 L434 491 L584 491 L584 511 L519 511 L519 553 C519 577 496 600 472 600 L150 600 L150 580 L472 580 C486 580 499 567 499 553 L499 553 Z M391 421 L411 421 L411 443 L391 443 L391 421 Z M636 421 L636 443 L616 443 L616 421 L636 421 Z M503 408 L523 408 L523 431 L503 431 L503 408 Z M345 331 L345 353 L325 353 L325 331 L345 331 Z M557 331 L577 331 L577 353 L557 353 L557 331 Z M693 331 L693 353 L673 353 L673 331 L693 331 Z M626 296 L538 309 C528 323 509 333 483 333 C446 333 408 315 399 276 C404 254 412 213 429 185 C430 182 433 180 436 178 L401 160 C373 146 349 120 345 87 L333 -1 C330 -21 336 -55 366 -55 L417 -55 L417 -100 L437 -100 L437 -34 L366 -34 C353 -34 351 -21 353 -4 L365 85 C369 111 386 131 409 142 L461 168 C473 166 485 164 494 164 C523 177 544 195 548 207 L549 211 L593 235 L585 253 L551 240 C550 256 548 271 545 287 L622 276 C642 273 654 259 654 240 C654 229 648 217 638 206 L573 135 L594 -99 L615 -100 L593 127 L653 192 C668 209 673 227 673 243 C673 270 654 292 626 296 L626 296 Z M528 210 C527 206 505 191 490 184 C475 185 449 190 447 194 C432 219 424 253 419 276 C428 304 457 313 486 313 C502 313 514 307 524 294 C529 266 532 237 528 210 L528 210 Z M264 228 L264 251 L244 251 L244 228 L264 228 Z M757 228 L757 251 L737 251 L737 228 L757 228 Z M353 216 L373 216 L373 238 L353 238 L353 216 Z M169 126 L189 126 L189 148 L169 148 L169 126 Z M787 148 L787 126 L807 126 L807 148 L787 148 Z M269 113 L289 113 L289 136 L269 136 L269 113 Z M687 136 L687 113 L707 113 L707 136 L687 136 Z M434 32 L435 92 L415 92 L414 14 L515 8 L517 28 L434 32 Z M185 46 L185 23 L205 23 L205 46 L185 46 Z M749 46 L749 23 L769 23 L769 46 L749 46 Z M285 33 L285 11 L305 11 L305 33 L285 33 Z M649 33 L649 11 L669 11 L669 33 L649 33 Z M850 33 L830 33 L830 11 L850 11 L850 33 Z M257 -54 L257 -77 L277 -77 L277 -54 L257 -54 Z M724 -54 L724 -77 L744 -77 L744 -54 L724 -54 Z M157 -67 L157 -89 L177 -89 L177 -67 L157 -67 Z " />
<glyph glyph-name="J" unicode="J" horiz-adv-x="1000" d="M528 380 L528 550 C528 576 504 600 478 600 L200 600 C174 600 150 576 150 550 L150 380 C150 354 174 330 200 330 L238 330 L324 213 L362 213 L362 330 L478 330 C504 330 528 354 528 380 L528 380 Z M342 350 L342 233 L334 233 L248 350 L200 350 C184 350 170 364 170 380 L170 550 C170 566 184 580 200 580 L478 580 C494 580 508 566 508 550 L508 380 C508 364 494 350 478 350 L342 350 Z M231 522 L448 522 L448 542 L231 542 L231 522 Z M579 371 C599 359 632 353 657 358 C683 363 718 385 727 404 L683 495 C670 521 657 533 635 533 C599 533 574 516 569 474 L561 413 C558 392 565 379 579 371 L579 371 Z M849 176 L789 176 L783 249 L837 378 L847 479 C849 498 835 516 815 518 L791 520 L762 405 L723 351 L638 321 C608 310 589 292 584 263 L582 250 L493 238 L493 194 L513 194 L513 220 L600 232 L604 260 C607 282 618 294 644 303 L735 335 L780 397 L807 498 L813 498 C822 498 828 490 827 481 L817 382 L763 253 L768 176 L472 176 L474 156 L850 156 L849 176 Z M581 410 L589 472 C593 501 605 512 634 512 C650 512 656 504 665 486 L704 406 C692 393 670 381 653 378 C633 374 606 378 589 388 C580 393 580 399 581 410 L581 410 Z M231 459 L448 459 L448 479 L231 479 L231 459 Z M231 395 L448 395 L448 415 L231 415 L231 395 Z M779 88 L561 88 L557 133 L537 133 L558 -100 L635 -100 L642 68 L698 68 L705 -100 L782 -100 L803 133 L783 133 L779 88 Z M616 -80 L576 -80 L563 68 L622 68 L616 -80 Z M764 -80 L724 -80 L718 68 L777 68 L764 -80 Z " />
<glyph glyph-name="K" unicode="K" horiz-adv-x="1000" d="M297 354 C309 354 321 357 331 362 C344 362 357 364 367 368 C378 372 388 380 395 391 C405 395 416 402 422 409 C430 419 433 431 433 444 C440 454 444 466 444 477 C444 487 440 499 433 509 C433 522 430 534 422 544 C416 551 405 558 394 563 C388 571 381 578 372 583 C360 590 346 592 332 592 C322 597 310 600 297 600 C284 600 272 597 262 592 C248 592 234 590 222 583 C213 578 206 571 200 563 C189 558 178 551 172 544 C164 534 161 522 161 509 C154 499 150 487 150 477 C150 466 154 454 161 444 C161 431 165 419 172 409 C178 401 189 395 199 391 C206 380 216 372 227 368 C237 364 250 362 263 362 C273 357 285 354 297 354 L297 354 Z M297 374 C287 374 276 377 267 383 C255 381 243 383 234 387 C225 391 218 397 213 408 C203 410 194 415 188 422 C182 430 180 440 181 451 C173 460 170 468 170 477 C170 485 174 494 181 502 C180 514 182 523 188 531 C194 538 203 543 213 546 C218 555 223 561 232 566 C241 571 254 573 267 571 C276 578 287 580 297 580 C307 580 318 578 327 571 C340 573 352 571 362 566 C371 562 376 555 381 546 C391 543 400 538 406 531 C412 523 414 514 413 502 C420 494 424 485 424 477 C424 468 421 460 413 451 C414 440 412 430 406 422 C400 415 391 410 381 408 C376 397 369 391 360 387 C351 383 339 381 327 383 C318 377 307 374 297 374 L297 374 Z M504 210 L530 314 C536 339 565 348 612 344 L624 343 C621 330 620 317 620 303 C620 289 625 279 630 270 L582 266 C557 264 548 248 546 235 L543 210 L563 210 L566 232 C567 241 569 245 584 246 L733 257 L773 337 C772 351 766 362 758 371 L779 377 C805 385 817 364 817 347 L817 263 C817 236 805 219 786 219 L756 219 L756 199 L786 199 C817 199 837 228 837 263 L837 347 C837 373 819 410 774 397 L738 387 C728 394 704 403 687 403 C668 403 651 396 637 382 L629 362 L615 364 C561 372 519 357 510 319 L483 210 L504 210 Z M640 303 C640 330 646 355 655 372 C664 380 674 383 686 383 C709 383 745 369 753 340 L721 277 L653 272 C645 281 640 290 640 303 L640 303 Z M400 330 C408 330 415 337 415 345 C415 353 408 360 400 360 C392 360 385 353 385 345 C385 337 392 330 400 330 L400 330 Z M460 300 C468 300 475 307 475 315 C475 323 468 330 460 330 C452 330 445 323 445 315 C445 307 452 300 460 300 L460 300 Z M850 176 L492 176 L492 156 L850 156 L850 176 Z M813 136 L793 132 C802 87 807 43 807 -1 C807 -27 805 -54 802 -81 L770 -81 L741 132 L721 131 L734 40 L646 40 L661 127 L640 126 L605 -81 L575 -81 C572 -49 570 -20 570 6 C570 48 574 85 582 123 L560 121 C553 83 549 49 549 12 C549 -21 552 -57 557 -101 L622 -101 L643 20 L736 20 L752 -101 L820 -101 C825 -67 827 -33 827 0 C827 45 822 89 813 136 L813 136 Z " />
<glyph glyph-name="L" unicode="L" horiz-adv-x="1000" d="M811 80 L728 237 C702 286 664 315 635 310 L593 303 C607 346 611 404 611 446 C590 486 554 502 498 502 C442 502 406 486 386 446 C386 411 391 343 404 303 L364 310 C335 315 272 288 251 237 L187 80 C169 37 160 -12 193 -35 L218 -52 L230 -36 L205 -19 C180 -2 189 33 205 72 L269 229 C287 272 340 294 362 290 L408 281 L480 192 L516 192 L588 281 L637 290 C658 294 688 271 710 229 L793 72 C813 34 814 -5 793 -19 L767 -37 L779 -53 L805 -35 C839 -11 833 38 811 80 L811 80 Z M406 441 C422 470 449 482 498 482 C547 482 574 470 591 441 C591 398 586 342 571 303 C566 300 523 283 498 277 C471 284 435 298 426 304 C414 333 406 399 406 441 L406 441 Z M747 -31 L747 21 C747 36 734 52 719 52 L698 52 L698 177 C698 194 680 210 662 205 L521 162 C509 158 489 158 477 162 L337 205 C319 210 300 195 300 177 L300 52 L280 52 C266 52 252 36 252 21 L252 -31 C252 -46 267 -61 282 -61 L371 -61 C388 -61 402 -44 398 -29 L384 23 C380 39 361 52 347 52 L320 52 L320 177 C320 183 325 187 331 185 L472 142 C487 137 511 138 526 142 L668 185 C673 186 678 183 678 177 L678 52 L651 52 C635 52 620 41 616 24 L602 -29 C598 -45 612 -61 628 -61 L716 -61 C732 -61 747 -46 747 -31 L747 -31 Z M648 101 L648 122 L544 88 L544 67 L648 101 Z M364 19 L377 -33 C378 -37 375 -41 371 -41 L282 -41 C276 -41 272 -37 272 -31 L272 21 C272 28 276 32 282 32 L347 32 C354 32 362 26 364 19 L364 19 Z M727 21 L727 -31 C727 -37 723 -41 716 -41 L628 -41 C623 -41 619 -39 621 -33 L636 19 C638 27 644 32 651 32 L716 32 C723 32 727 28 727 21 L727 21 Z " />
<glyph glyph-name="M" unicode="M" horiz-adv-x="1000" d="M833 61 L739 237 C713 286 672 307 642 314 L632 316 C636 319 640 322 643 325 L592 487 C575 541 549 560 494 560 C449 560 417 545 397 490 L358 382 C348 355 349 339 372 322 L378 318 L367 316 C336 311 290 290 262 237 L168 61 C146 20 142 -34 174 -55 L253 -108 L265 -92 L186 -39 C162 -23 166 14 186 51 L280 227 C311 285 360 298 386 298 L398 298 L417 289 L482 171 L519 171 L583 285 C594 289 605 293 616 298 C642 297 690 285 721 227 L815 51 C834 16 836 -25 815 -39 L736 -92 L748 -108 L827 -55 C859 -33 855 20 833 61 L833 61 Z M377 375 L415 482 C432 530 457 540 494 540 C540 540 558 527 572 481 L619 332 C593 313 544 299 507 299 C467 299 414 316 384 338 C369 349 370 354 377 375 L377 375 Z M766 -51 L766 1 C766 16 752 32 737 32 L717 32 L717 157 C717 174 699 190 681 185 L520 142 C508 139 488 139 476 142 L316 185 C298 190 279 175 279 157 L279 32 L259 32 C245 32 231 16 231 1 L231 -51 C231 -66 246 -81 261 -81 L350 -81 C367 -81 379 -64 376 -49 L363 3 C359 19 340 32 326 32 L299 32 L299 157 C299 163 304 167 310 165 L471 122 C486 118 510 118 525 122 L687 165 C692 166 697 163 697 157 L697 32 L670 32 C654 32 638 21 634 4 L621 -49 C617 -65 631 -81 647 -81 L735 -81 C751 -81 766 -66 766 -51 L766 -51 Z M667 102 L543 68 L543 47 L667 81 L667 102 Z M326 12 C333 12 341 6 343 -1 L356 -53 C357 -57 354 -61 350 -61 L261 -61 C255 -61 251 -57 251 -51 L251 1 C251 8 255 12 261 12 L326 12 Z M746 -51 C746 -57 742 -61 735 -61 L647 -61 C642 -61 639 -59 641 -53 L654 -1 C656 7 663 12 670 12 L735 12 C742 12 746 8 746 1 L746 -51 Z " />
<glyph glyph-name="N" unicode="N" horiz-adv-x="1000" d="M812 2 L765 232 C756 276 718 304 686 316 L617 343 C625 374 634 450 634 496 C613 538 572 557 519 557 C465 557 424 538 403 496 C403 462 409 403 416 365 L356 365 C326 365 278 355 247 292 L198 192 C189 174 186 156 186 139 C186 87 222 43 272 43 L324 43 L330 -61 C331 -79 349 -95 367 -95 L732 -95 C779 -95 824 -56 812 2 L812 2 Z M519 537 C566 537 595 524 614 491 C614 444 602 357 595 340 C586 330 544 313 519 308 C493 313 451 330 442 340 C435 357 423 444 423 491 C442 524 471 537 519 537 L519 537 Z M732 -75 L625 -75 L625 -53 C625 -31 639 -21 654 -17 L717 -2 L706 15 L690 12 L696 99 C697 118 680 135 663 135 L663 205 L643 205 L643 135 L470 135 L463 183 C462 193 451 203 441 203 L372 203 L274 186 L278 166 L349 179 L345 133 C331 129 320 114 321 99 L323 63 L272 63 C234 63 205 95 205 137 C205 152 208 168 216 184 L265 284 C291 337 328 345 356 345 L410 345 L520 201 L617 321 L678 298 C708 287 738 264 745 228 L792 -2 C801 -46 769 -75 732 -75 L732 -75 Z M365 135 L369 183 L443 183 L450 135 L365 135 Z M605 -75 L367 -75 C357 -75 351 -69 350 -59 L341 101 C341 108 347 115 354 115 L663 115 C670 115 676 108 676 101 L670 7 L650 3 C630 -1 605 -21 605 -53 L605 -75 Z M509 42 C495 42 484 30 484 17 C484 3 495 -8 509 -8 C522 -8 534 3 534 17 C534 30 522 42 509 42 L509 42 Z " />
<glyph glyph-name="O" unicode="O" horiz-adv-x="1000" d="M663 284 C648 315 645 352 643 387 C639 449 597 498 552 520 L552 551 C552 578 527 603 500 603 C473 603 448 578 448 551 L448 520 C403 498 361 449 357 387 C355 352 352 315 337 284 C311 232 254 197 260 128 L740 128 C746 197 689 232 663 284 L663 284 Z M355 276 C372 309 375 350 377 385 C381 447 423 490 468 507 L468 551 C468 568 483 583 500 583 C517 583 532 568 532 551 L532 507 C577 490 619 447 623 385 C625 350 628 309 645 276 C655 256 668 239 680 223 L320 223 C332 239 345 256 355 276 L355 276 Z M719 148 L281 148 C283 168 293 186 305 203 L695 203 C707 186 717 168 719 148 L719 148 Z M500 36 C465 36 436 65 436 100 L416 100 C416 58 449 22 490 17 L490 -54 C485 -57 482 -63 482 -69 C482 -80 490 -88 500 -88 C511 -88 519 -80 519 -69 C519 -62 516 -57 510 -54 L510 17 C551 22 584 58 584 100 L564 100 C564 65 535 36 500 36 L500 36 Z " />
<glyph glyph-name="P" unicode="P" horiz-adv-x="1000" d="M701 264 C697 298 707 333 717 367 C734 427 711 487 677 523 L688 552 C700 584 674 622 640 622 C618 622 596 609 589 588 L579 559 C529 553 470 523 447 465 C434 433 419 399 394 376 C351 335 286 321 269 255 L719 91 C748 153 707 207 701 264 L701 264 Z M408 361 C435 387 452 424 466 456 C491 513 544 539 593 540 L608 581 C613 594 626 602 639 602 C657 602 676 582 668 559 L654 518 C690 486 714 431 697 372 C687 339 677 299 681 261 C683 239 690 219 695 200 L357 324 C374 334 392 346 408 361 L408 361 Z M707 116 L294 267 C304 285 319 298 336 310 L702 176 C708 155 711 136 707 116 L707 116 Z M683 -60 C680 -60 677 -61 674 -62 C649 -40 621 2 606 39 C629 48 648 68 655 94 L635 98 C628 71 603 53 576 53 C538 53 506 89 517 131 L497 135 C485 89 519 33 574 33 L587 33 C603 -7 634 -54 663 -78 L663 -80 C663 -91 672 -100 683 -100 C694 -100 703 -91 703 -80 C703 -69 694 -60 683 -60 L683 -60 Z " />
<glyph glyph-name="Q" unicode="Q" horiz-adv-x="1000" d="M609 450 C629 436 659 428 687 428 C716 428 761 442 777 463 L745 563 C735 594 720 612 679 612 C643 612 624 591 614 565 L594 510 C585 486 592 462 609 450 L609 450 Z M302 433 C327 436 362 454 370 463 C382 499 382 525 382 564 C369 594 343 607 302 607 C261 607 235 594 222 564 C222 525 222 499 234 462 C241 454 277 436 302 433 L302 433 Z M620 466 C610 472 607 488 613 503 L633 558 C642 582 656 592 679 592 C707 592 717 584 726 557 L754 469 C739 457 710 448 687 448 C662 448 638 455 620 466 L620 466 Z M302 453 C285 456 260 466 252 472 C242 503 242 523 242 560 C252 579 270 587 302 587 C334 587 352 579 362 560 C362 523 362 503 352 472 C344 466 319 456 302 453 L302 453 Z M383 153 L446 164 L432 380 C430 418 408 428 380 428 L216 428 C188 428 166 418 164 380 L150 164 L213 153 L207 -100 L274 -100 L295 111 L301 111 L322 -100 L391 -100 L383 153 Z M371 -80 L340 -80 L319 131 L277 131 L256 -80 L227 -80 L236 234 L231 327 L211 325 L216 234 L214 172 L172 180 L184 376 C185 398 189 408 216 408 L380 408 C407 408 411 398 412 376 L424 180 L382 172 L380 234 L385 325 L365 327 L360 234 L371 -80 Z M803 76 L794 133 L850 141 L818 356 C812 394 779 407 748 407 L622 407 C591 407 558 393 552 357 L518 141 L571 133 L562 76 L586 76 L588 -100 L657 -100 L671 76 L690 76 L707 -100 L778 -100 L777 76 L803 76 Z M779 96 L586 96 L619 293 L599 297 L574 152 L540 157 L572 353 C576 377 597 387 622 387 L748 387 C773 387 794 378 798 353 L828 157 L792 152 L767 297 L747 293 L779 96 Z M652 76 L639 -80 L608 -80 L606 76 L652 76 Z M758 -80 L725 -80 L710 76 L757 76 L758 -80 Z " />
<glyph glyph-name="R" unicode="R" horiz-adv-x="1000" d="M500 400 C520 403 560 419 571 434 C577 449 586 520 586 552 C571 585 540 599 500 599 C461 599 430 584 414 553 C414 515 422 452 430 434 C442 418 482 403 500 400 L500 400 Z M500 420 C479 424 456 436 448 443 C442 458 435 512 434 548 C447 568 469 579 500 579 C533 579 555 569 566 547 C565 517 558 456 553 442 C546 436 521 424 500 420 L500 420 Z M376 -92 L467 1 C475 -4 486 -8 500 -8 C514 -8 525 -4 533 1 L624 -92 L620 -35 L682 -42 L618 51 C621 56 622 62 624 67 L716 130 C741 147 737 182 721 212 L650 349 C642 365 618 376 599 376 L403 376 C383 376 360 365 351 348 L280 213 C264 182 260 148 285 130 L376 67 C378 62 379 56 382 51 L318 -42 L380 -35 L376 -92 Z M635 99 C643 111 652 126 652 145 C652 169 636 186 629 202 C625 212 624 237 608 253 C589 272 569 268 556 274 C542 280 527 297 500 297 C473 297 458 280 444 274 C431 268 411 272 392 253 C376 237 375 212 371 202 C364 187 348 169 348 145 C348 126 357 111 364 99 L297 146 C284 155 285 179 298 204 L369 339 C374 349 387 356 404 356 L598 356 C614 356 627 349 632 339 L703 203 C716 178 718 155 704 146 L635 99 Z M500 12 C482 12 475 22 455 32 C437 41 419 38 406 51 C395 62 396 80 389 96 C383 109 368 127 368 145 C368 161 382 177 389 194 C395 208 396 229 406 239 C417 250 433 248 452 256 C474 265 481 277 500 277 C519 277 526 265 548 256 C567 248 583 250 594 239 C604 229 605 208 611 194 C618 177 632 161 632 145 C632 127 616 109 611 96 C605 80 605 62 594 51 C581 38 564 42 545 32 C525 22 518 12 500 12 L500 12 Z M511 97 L511 204 L495 204 C489 203 472 184 458 184 L458 175 C458 170 461 167 467 167 C476 167 485 171 491 174 L491 97 L468 97 L468 77 L531 77 L531 97 L511 97 Z " />
<glyph glyph-name="S" unicode="S" horiz-adv-x="1000" d="M615 429 L657 490 C661 524 614 581 568 581 C546 581 524 570 514 551 L458 451 L535 408 C555 397 593 397 615 429 L615 429 Z M599 440 C586 422 562 416 545 426 L485 459 L531 541 C538 554 552 561 567 561 C596 561 635 522 637 497 L599 440 Z M339 167 C339 257 354 331 397 374 C407 384 423 387 439 387 C459 387 479 381 488 372 L580 280 L668 273 C685 272 698 255 698 238 L718 238 C718 265 697 291 670 293 L646 369 L626 363 L648 295 L588 300 L502 386 C489 399 464 407 439 407 C418 407 397 402 383 388 C336 341 319 259 319 167 C319 60 363 14 436 14 L538 14 L538 -100 L558 -100 L558 34 L436 34 C373 34 339 72 339 167 L339 167 Z M301 -16 L274 374 L151 374 L151 354 L256 354 L283 -36 L489 -36 L489 -100 L509 -100 L509 -16 L301 -16 Z M589 128 L488 128 C488 152 497 179 501 193 L512 233 L478 282 L485 289 L471 303 L452 284 L490 229 L481 197 C478 185 467 146 467 108 L589 108 C621 108 628 77 625 40 L615 -100 L635 -100 L645 38 C648 79 637 128 589 128 L589 128 Z M850 115 L850 217 L567 217 L567 151 L659 151 L671 115 L747 115 L731 -100 L751 -100 L767 115 L850 115 Z M830 197 L830 135 L685 135 L673 171 L587 171 L587 197 L830 197 Z " />
<glyph glyph-name="T" unicode="T" horiz-adv-x="1000" d="M416 419 C438 400 477 387 505 387 C536 387 583 404 599 426 L567 543 C558 575 539 600 497 600 C459 600 437 576 428 546 L406 473 C397 444 405 428 416 419 L416 419 Z M425 466 L446 538 C454 566 471 580 497 580 C529 580 539 567 547 537 L577 431 C560 417 528 407 505 407 C481 407 448 418 429 434 C421 442 419 446 425 466 L425 466 Z M640 105 L702 148 C724 163 732 203 705 233 L620 328 C595 356 568 363 549 363 L449 363 C420 363 403 353 376 323 L293 233 C271 209 273 164 296 148 L358 105 C363 97 368 90 370 85 C374 76 374 62 381 48 L317 -45 L379 -38 L375 -95 L466 -2 C474 -7 485 -11 499 -11 C513 -11 524 -7 532 -2 L623 -95 L619 -38 L681 -45 L617 48 C624 62 624 76 628 85 C630 90 635 97 640 105 L640 105 Z M690 164 L651 138 L651 142 C652 166 634 184 628 199 C624 209 623 234 607 250 C588 269 568 265 555 271 C541 277 526 294 499 294 C472 294 457 277 443 271 C430 265 410 269 391 250 C375 234 374 209 370 199 C364 184 346 166 347 142 L347 137 L308 164 C295 173 293 203 307 219 L390 309 C415 337 426 343 449 343 L549 343 C566 343 585 338 606 314 L691 219 C709 199 704 174 690 164 L690 164 Z M499 9 C481 9 474 19 454 29 C436 38 418 35 405 48 C394 59 395 77 388 93 C382 106 367 124 367 142 C367 158 381 174 388 191 C394 205 395 226 405 236 C416 247 432 245 451 253 C473 262 480 274 499 274 C518 274 525 262 547 253 C566 245 582 247 593 236 C603 226 604 205 610 191 C617 174 631 158 631 142 C631 124 615 106 610 93 C604 77 604 59 593 48 C580 35 563 39 544 29 C524 19 517 9 499 9 L499 9 Z M512 97 L512 204 L496 204 C490 203 473 184 459 184 L459 175 C459 170 462 167 468 167 C477 167 486 171 492 174 L492 97 L469 97 L469 77 L532 77 L532 97 L512 97 Z " />
<glyph glyph-name="U" unicode="U" horiz-adv-x="1000" d="M567 485 L586 557 C578 588 526 614 493 614 C463 614 435 595 430 565 L413 453 L500 438 C522 434 558 448 567 485 L567 485 Z M548 490 C543 469 522 455 504 458 L436 469 L450 562 C453 579 470 594 494 594 C514 594 555 578 565 556 L548 490 Z M766 452 L694 568 L671 511 L691 503 L698 524 L733 464 L644 497 L607 392 L518 334 L487 376 C462 410 434 430 405 430 C379 430 354 416 338 389 C309 341 289 274 289 216 C289 146 314 89 381 89 L527 89 L527 -100 L580 -100 C597 -100 614 -85 615 -68 L628 115 C632 169 592 205 534 210 L437 218 L451 244 C474 216 505 216 546 249 L681 356 L669 372 L534 265 C498 236 481 237 464 259 L458 267 L405 344 L389 332 L437 262 L405 200 L531 190 C581 186 611 159 608 117 L595 -66 C594 -75 589 -80 580 -80 L547 -80 L547 109 L381 109 C330 109 308 156 308 216 C308 269 327 332 356 379 C368 399 386 409 405 409 C427 409 450 394 471 365 L514 306 L623 380 L656 471 L740 440 L695 316 L682 322 L670 304 L707 290 L766 452 Z M488 57 L260 57 L260 267 C260 285 242 302 225 302 L216 302 L216 342 L196 342 L196 302 L185 302 C167 302 150 285 150 267 L150 -33 L213 -33 L266 -100 L292 -100 L223 -13 L170 -13 L170 267 C170 276 176 282 185 282 L225 282 C234 282 240 276 240 267 L240 37 L468 37 C463 -18 422 -41 373 -38 L373 -100 L393 -100 L393 -58 C447 -54 492 -15 488 57 L488 57 Z " />
<glyph glyph-name="V" unicode="V" horiz-adv-x="1000" d="M326 600 L326 527 L346 517 L346 580 L850 580 L850 600 L326 600 Z M824 547 L804 547 L804 444 L760 444 L760 534 L740 534 L740 444 L693 444 L693 547 L673 547 L673 444 L627 444 L627 547 L607 547 L607 444 L559 444 L559 547 L539 547 L539 444 L490 444 L490 547 L470 547 L470 444 L410 444 L421 533 L401 535 L390 444 L352 444 L347 458 C335 490 320 503 287 503 C255 503 234 489 225 459 L211 413 C203 386 213 360 237 349 C254 341 272 336 294 336 C323 336 366 351 376 367 L358 424 L850 424 L850 444 L824 444 L824 547 Z M294 356 C272 356 259 360 246 367 C232 374 224 388 230 407 L244 453 C251 475 264 483 287 483 C314 483 321 474 328 452 L353 373 C338 363 312 356 294 356 L294 356 Z M822 384 L802 384 L802 282 L757 282 L757 384 L737 384 L737 282 L689 282 L689 384 L669 384 L669 282 L621 282 L621 372 L601 372 L601 282 L551 282 L551 372 L531 372 L531 282 L481 282 L481 359 L461 359 L461 282 L410 282 L410 359 L390 359 L390 306 C379 316 363 320 348 320 L230 320 C208 320 180 305 176 279 L150 108 L207 91 L196 3 L229 3 L230 -94 L357 -94 L356 -31 L850 -31 L850 -11 L833 -11 L833 85 L814 85 L814 -11 L781 -11 L769 85 L749 83 L760 -11 L718 -11 L706 85 L686 83 L697 -11 L640 -11 L640 84 L620 84 L620 -11 L565 -11 L565 84 L545 84 L545 -11 L490 -11 L490 84 L470 84 L470 -11 L432 -11 L432 59 L412 59 L412 -11 L356 -11 L356 3 L383 3 L372 92 L440 112 L850 112 L850 132 L832 132 L832 234 L812 234 L812 132 L764 132 L764 234 L744 234 L744 132 L692 132 L692 234 L672 234 L672 132 L622 132 L622 234 L602 234 L602 132 L549 132 L549 234 L529 234 L529 132 L476 132 L476 234 L456 234 L456 132 L424 132 L405 262 L850 262 L850 282 L822 282 L822 384 Z M369 112 L355 224 L335 222 L361 23 L218 23 L244 222 L224 224 L210 111 L172 122 L196 276 C198 292 213 300 230 300 L348 300 C367 300 381 293 383 277 L405 122 L369 112 Z M283 -74 L250 -74 L249 3 L283 3 L283 -74 Z M303 -74 L303 3 L336 3 L337 -74 L303 -74 Z " />
<glyph glyph-name="W" unicode="W" horiz-adv-x="1000" d="M504 432 C529 435 564 453 572 462 C584 498 584 524 584 563 C571 593 545 606 504 606 C463 606 437 593 424 563 C424 524 424 498 436 461 C444 453 479 435 504 432 L504 432 Z M504 452 C487 455 462 465 454 471 C444 502 444 522 444 559 C454 578 472 586 504 586 C536 586 554 578 564 559 C564 522 564 502 554 471 C546 465 521 455 504 452 L504 452 Z M585 152 L648 163 L634 379 C632 417 610 427 582 427 L418 427 C390 427 368 417 366 379 L352 163 L415 152 L409 -101 L476 -101 L497 110 L503 110 L524 -101 L593 -101 L585 152 Z M573 -81 L542 -81 L521 130 L479 130 L458 -81 L429 -81 L438 233 L433 326 L413 324 L418 233 L416 171 L374 179 L386 375 C387 397 391 407 418 407 L582 407 C609 407 613 397 614 375 L626 179 L584 171 L582 233 L587 324 L567 326 L562 233 L573 -81 Z " />
<glyph glyph-name="X" unicode="X" horiz-adv-x="1000" d="M249 562 L249 -62 C249 -82 268 -100 287 -100 L713 -100 C733 -100 751 -82 751 -62 L751 562 C751 581 733 600 713 600 L287 600 C268 600 249 581 249 562 L249 562 Z M269 -62 L269 562 C269 571 278 580 287 580 L713 580 C722 580 731 571 731 562 L731 -62 C731 -72 723 -80 713 -80 L287 -80 C278 -80 269 -71 269 -62 L269 -62 Z M304 401 L697 401 L697 537 L304 537 L304 401 Z M677 517 L677 421 L324 421 L324 517 L677 517 Z M376 317 C376 300 362 286 344 286 C327 286 313 300 313 317 C313 335 327 349 344 349 C362 349 376 335 376 317 L376 317 Z M480 317 C480 300 466 286 449 286 C431 286 417 300 417 317 C417 335 431 349 449 349 C466 349 480 335 480 317 L480 317 Z M584 317 C584 300 570 286 553 286 C535 286 521 300 521 317 C521 335 535 349 553 349 C570 349 584 335 584 317 L584 317 Z M688 317 C688 300 674 286 657 286 C640 286 626 300 626 317 C626 335 640 349 657 349 C674 349 688 335 688 317 L688 317 Z M376 213 C376 196 362 182 344 182 C327 182 313 196 313 213 C313 230 327 244 344 244 C362 244 376 230 376 213 L376 213 Z M480 213 C480 196 466 182 449 182 C431 182 417 196 417 213 C417 230 431 244 449 244 C466 244 480 230 480 213 L480 213 Z M584 213 C584 196 570 182 553 182 C535 182 521 196 521 213 C521 230 535 244 553 244 C570 244 584 230 584 213 L584 213 Z M688 213 C688 196 674 182 657 182 C640 182 626 196 626 213 C626 230 640 244 657 244 C674 244 688 230 688 213 L688 213 Z M376 109 C376 92 362 78 344 78 C327 78 313 92 313 109 C313 126 327 140 344 140 C362 140 376 126 376 109 L376 109 Z M480 109 C480 92 466 78 449 78 C431 78 417 92 417 109 C417 126 431 140 449 140 C466 140 480 126 480 109 L480 109 Z M584 109 C584 92 570 78 553 78 C535 78 521 92 521 109 C521 126 535 140 553 140 C570 140 584 126 584 109 L584 109 Z M688 140 L688 -26 L626 -26 L626 140 L688 140 Z M376 5 C376 -12 362 -26 344 -26 C327 -26 313 -12 313 5 C313 22 327 36 344 36 C362 36 376 22 376 5 L376 5 Z M480 5 C480 -12 466 -26 449 -26 C431 -26 417 -12 417 5 C417 22 431 36 449 36 C466 36 480 22 480 5 L480 5 Z M584 5 C584 -12 570 -26 553 -26 C535 -26 521 -12 521 5 C521 22 535 36 553 36 C570 36 584 22 584 5 L584 5 Z " />
<glyph glyph-name="Y" unicode="Y" horiz-adv-x="1000" d="M712 439 C712 467 697 491 672 509 C656 521 639 528 622 530 L602 556 C596 565 586 570 575 570 L531 570 C493 570 469 565 442 532 L377 454 C360 433 358 390 393 375 L423 362 L344 225 C325 191 329 151 338 114 L241 104 L241 55 C241 37 258 20 276 20 L362 20 L395 -104 L472 -84 L473 20 L516 20 C565 20 602 31 607 122 L613 223 C614 244 625 262 637 274 L648 270 L663 199 L653 28 C651 0 664 -21 699 -21 L733 -21 L759 201 L759 330 C759 368 736 407 712 439 L712 439 Z M637 296 L401 393 C380 402 381 427 393 442 L458 520 C481 547 495 550 531 550 L575 550 C579 550 582 550 584 547 L598 529 C591 527 583 524 576 520 C557 489 531 447 522 418 C524 398 546 366 559 353 C575 345 616 335 634 341 L649 352 L652 350 C666 341 664 332 657 322 L637 296 Z M692 429 C675 407 644 371 623 357 C613 356 588 362 571 369 C559 383 545 406 543 416 C549 435 576 486 590 504 C599 509 608 511 617 511 C652 511 698 471 692 429 L692 429 Z M739 330 L739 203 L715 -1 L699 -1 C678 -1 672 8 673 27 L683 201 L667 280 L657 291 L673 312 C685 327 690 348 664 366 C679 380 695 399 705 414 C724 387 739 358 739 330 L739 330 Z M593 224 L587 124 C583 49 557 40 516 40 L473 40 L477 111 L505 117 L503 137 L483 150 L463 154 L454 95 L452 -68 L409 -80 L359 114 C349 151 345 184 362 215 L441 355 L618 282 C605 267 594 247 593 224 L593 224 Z M357 40 L276 40 C267 40 261 46 261 55 L261 86 L343 94 L357 40 Z " />
<glyph glyph-name="Z" unicode="Z" horiz-adv-x="1000" d="M647 498 L652 565 C640 592 595 603 567 603 C536 603 510 577 511 548 L513 445 L593 445 C614 445 644 463 647 498 L647 498 Z M627 499 C625 481 610 465 593 465 L533 465 L531 548 C531 566 547 583 568 583 C595 583 622 573 632 560 L627 499 Z M735 -41 L707 114 C702 143 678 166 649 169 L553 180 L599 348 C609 384 579 414 556 417 L489 425 C463 428 449 422 435 409 L358 339 C336 319 336 300 339 282 L350 212 C299 183 265 129 265 67 C265 -25 340 -100 432 -100 C522 -100 595 -28 598 62 L621 62 L663 -90 L707 -81 C725 -77 738 -58 735 -41 L735 -41 Z M432 -80 C350 -80 285 -15 285 67 C285 127 321 178 372 201 L359 285 C357 301 356 310 372 324 L449 395 C460 405 465 408 487 405 L554 397 C567 395 585 376 579 354 L536 196 C510 218 477 231 440 233 L435 284 L470 326 L454 338 L415 290 L431 131 L451 133 L443 213 C519 207 578 145 578 67 C578 -15 514 -80 432 -80 L432 -80 Z M703 -61 L677 -66 L637 82 L597 82 C595 109 586 135 572 157 L647 149 C669 146 683 133 687 110 L715 -44 C717 -53 713 -59 703 -61 L703 -61 Z " />
<glyph glyph-name="bracketleft" unicode="&#x5b;" horiz-adv-x="1000" d="M732 350 L746 368 C757 382 755 406 746 428 L733 459 C721 487 694 494 663 492 L656 505 C643 530 614 547 593 554 L596 564 C590 590 546 614 519 614 C497 614 473 598 470 576 L456 489 L521 471 C533 468 550 472 563 483 L586 456 L561 445 C557 443 552 441 549 438 L425 484 L416 528 C381 542 330 507 326 470 L329 455 C317 449 306 436 302 429 L258 356 C249 340 247 330 247 319 C248 293 260 270 287 276 L370 293 L370 249 L332 -100 L405 -100 L454 173 L459 172 L471 -100 L549 -100 L563 127 L595 140 L643 -100 L726 -100 L710 30 L723 32 C739 35 752 45 752 69 L752 289 L732 350 Z M525 491 L478 505 L490 572 C493 585 505 595 519 595 C531 595 567 581 575 564 L558 512 C552 495 536 488 525 491 L525 491 Z M732 287 L732 69 C732 57 728 53 720 52 L707 50 L688 175 L668 171 L704 -80 L659 -80 L611 168 L564 150 L568 215 L595 245 L592 314 L639 336 L634 351 L600 339 C570 329 537 350 537 381 C537 399 549 418 569 427 L618 449 L575 500 L587 536 C608 530 624 515 640 493 C647 484 664 446 683 405 L675 388 C663 363 683 334 712 325 L717 332 L732 287 Z M346 471 C350 487 374 511 399 511 L411 452 L355 435 L346 471 Z M715 449 L728 420 C736 402 738 390 730 380 L706 350 C700 354 687 367 691 376 L705 405 C699 425 685 451 674 472 C692 472 706 468 715 449 L715 449 Z M559 322 L531 -80 L491 -80 L479 190 L438 195 L389 -80 L354 -80 L390 247 L390 317 L284 296 C273 294 266 303 266 316 C266 324 269 334 276 346 L318 417 C322 424 329 431 334 434 L341 409 L383 422 L381 382 L345 371 L317 341 L404 363 L412 431 L435 438 L430 462 L533 424 C523 411 517 396 517 381 C517 359 532 333 559 322 L559 322 Z " />
<glyph glyph-name="backslash" unicode="&#x5c;" horiz-adv-x="1000" d="M548 548 C566 548 580 562 580 580 C580 598 566 612 548 612 C530 612 516 598 516 580 C516 562 530 548 548 548 L548 548 Z M435 527 L418 586 C409 598 395 600 378 600 C327 600 287 568 303 527 L337 439 L405 465 C423 472 444 496 435 527 L435 527 Z M322 534 C312 561 338 581 378 581 C387 581 397 580 401 574 L415 521 C420 502 409 489 397 484 L348 464 L322 534 Z M700 379 L686 445 L689 465 C690 473 691 479 691 485 C691 506 683 515 674 524 L647 552 C641 558 631 562 621 562 C613 562 605 560 599 554 L565 519 L506 516 C506 506 507 493 519 490 L574 475 L550 432 L452 446 C395 454 322 414 335 365 L353 298 C366 249 372 218 385 194 L337 -75 L361 -83 C387 -92 417 -80 424 -53 L456 73 L479 -100 L523 -100 C544 -100 556 -84 554 -59 L532 221 C529 257 515 302 504 335 L485 329 C495 296 509 253 512 219 L534 -60 C535 -75 529 -80 518 -80 L497 -80 L468 130 L420 179 C396 203 392 232 373 302 L355 369 C347 400 402 433 449 426 L561 410 L619 516 L640 501 L599 376 L455 372 L457 352 L613 358 L640 437 L666 385 C672 374 681 371 693 376 L700 379 Z M402 170 L448 122 L404 -48 C400 -62 386 -68 367 -63 L359 -61 L402 170 Z " />
<glyph glyph-name="bracketright" unicode="&#x5d;" horiz-adv-x="1000" d="M371 504 L387 563 C381 588 337 611 311 611 C286 611 262 594 258 570 L243 477 L315 465 C334 462 363 473 371 504 L371 504 Z M278 566 C281 581 295 591 309 591 C325 591 357 579 366 562 L351 509 C346 490 330 483 318 485 L265 493 L278 566 Z M468 230 L453 215 L467 201 L488 222 L797 -74 L811 -60 L667 77 C673 93 676 115 676 144 L683 157 C690 171 694 170 716 178 C736 185 743 199 743 213 C743 230 734 246 727 250 L691 250 C674 256 658 262 642 262 C636 262 630 261 624 259 L611 275 C592 270 586 256 586 241 C586 230 590 217 595 206 C586 191 583 172 580 161 L493 244 C493 255 488 266 478 273 L394 330 L369 392 C351 437 322 450 298 450 L254 450 C228 450 198 421 204 368 L231 109 L189 -83 L216 -94 C235 -102 257 -93 264 -73 L311 64 L338 -100 L375 -101 C388 -101 400 -92 405 -80 L436 -80 L454 13 L484 25 C512 18 540 14 572 10 L572 -80 L653 -80 C656 -68 653 -43 641 -32 L645 41 L625 43 L621 -36 L627 -46 C630 -47 632 -53 633 -60 L592 -60 L592 28 C549 32 517 36 482 47 L436 27 L420 -60 L408 -60 L404 97 L400 117 C425 131 488 131 531 131 L531 151 C490 151 426 151 395 137 L374 233 L372 264 L352 262 L354 231 L384 95 L388 -65 C388 -74 382 -81 375 -81 L354 -82 L324 111 L334 181 L314 183 L302 98 L246 -67 C243 -75 233 -79 224 -76 L211 -71 L251 107 L224 370 C220 411 238 430 254 430 L298 430 C318 430 337 422 351 386 L378 318 L466 257 C475 251 476 238 468 230 L468 230 Z M606 249 L619 234 C626 240 634 242 642 242 C655 242 669 237 687 230 L719 230 C721 227 723 219 723 213 C723 206 718 201 709 197 C696 192 678 192 665 167 L656 149 C656 125 654 107 651 93 L595 146 C604 164 606 194 618 204 C610 218 604 231 604 241 C604 244 605 247 606 249 L606 249 Z " />
<glyph glyph-name="asciicircum" unicode="&#x5e;" horiz-adv-x="1000" d="M276 600 L276 388 L296 375 L296 580 L758 580 L758 329 L345 329 L345 347 L293 347 L248 375 L173 375 C165 375 160 370 160 357 L160 264 L150 264 L150 244 L297 244 L297 211 L317 211 L317 264 L250 264 L250 336 L276 329 L276 309 L778 309 L778 600 L276 600 Z M214 399 C221 401 233 405 236 409 C237 413 242 443 242 449 C237 458 228 463 215 463 C202 463 193 459 188 450 C189 429 189 416 192 410 C195 405 207 401 214 399 L214 399 Z M302 129 C278 129 259 110 259 86 C259 63 278 44 302 44 C325 44 344 63 344 86 C344 110 325 129 302 129 L302 129 Z M698 129 C675 129 656 110 656 86 C656 63 675 44 698 44 C722 44 741 63 741 86 C741 110 722 129 698 129 L698 129 Z M500 108 C477 108 458 89 458 65 C458 42 477 23 500 23 C523 23 542 42 542 65 C542 89 523 108 500 108 L500 108 Z M193 6 C169 6 150 -13 150 -37 C150 -60 169 -79 193 -79 C216 -79 235 -60 235 -37 C235 -13 216 6 193 6 L193 6 Z M807 6 C784 6 765 -13 765 -37 C765 -60 784 -79 807 -79 C831 -79 850 -60 850 -37 C850 -13 831 6 807 6 L807 6 Z M382 -15 C359 -15 340 -34 340 -57 C340 -81 359 -100 382 -100 C405 -100 424 -81 424 -57 C424 -34 405 -15 382 -15 L382 -15 Z M618 -15 C595 -15 576 -34 576 -57 C576 -81 595 -100 618 -100 C641 -100 660 -81 660 -57 C660 -34 641 -15 618 -15 L618 -15 Z " />
<glyph glyph-name="underscore" unicode="&#x5f;" horiz-adv-x="1000" d="M198 456 L264 456 C283 456 299 467 304 485 C311 508 313 538 313 575 C297 606 282 613 231 613 C212 613 198 604 190 587 L157 518 C142 487 163 456 198 456 L198 456 Z M175 509 L208 578 C214 590 221 593 231 593 C269 593 281 591 293 570 C293 529 289 505 285 490 C282 480 273 476 264 476 L198 476 C174 476 169 496 175 509 L175 509 Z M734 480 C767 480 788 469 799 444 C798 412 800 393 788 363 C786 356 748 342 734 340 C720 342 682 356 680 363 C668 393 670 412 669 444 C680 469 701 480 734 480 L734 480 Z M734 360 C747 362 765 370 771 374 C779 397 779 412 779 440 C771 454 758 460 734 460 C710 460 697 454 689 440 C689 412 689 397 697 374 C703 370 721 362 734 360 L734 360 Z M420 253 C421 260 422 266 422 271 C422 294 402 312 369 312 L369 366 C369 405 324 433 294 433 L226 433 C198 433 150 425 150 372 L150 233 L176 217 C170 187 165 135 172 70 L196 70 L190 -100 L264 -100 L282 70 L313 70 L332 -100 L402 -100 L402 70 L434 70 C441 99 445 129 445 154 C445 196 439 229 420 253 L420 253 Z M418 90 L190 90 C187 140 190 180 195 206 L283 153 L312 182 L298 196 L281 179 L170 245 L170 372 C170 409 200 413 226 413 L294 413 C318 413 349 391 349 366 L349 299 L317 279 C303 251 336 204 367 211 L406 237 C420 218 425 190 425 154 C425 132 423 115 418 90 L418 90 Z M800 100 L850 108 L838 282 C836 313 813 320 790 320 L671 320 C649 320 626 313 624 282 L612 107 L662 100 L657 -100 L714 -100 L732 105 L748 -100 L806 -100 L800 100 Z M786 -80 L766 -80 L750 125 L712 125 L696 -80 L677 -80 L684 166 L681 239 L661 239 L664 166 L663 121 L634 125 L644 280 C645 297 651 300 671 300 L790 300 C811 300 817 297 818 280 L828 124 L799 120 L797 166 L801 239 L781 239 L778 166 L786 -80 Z M402 271 C402 267 401 258 399 251 L360 230 C348 231 332 252 334 266 L369 292 C390 292 402 283 402 271 L402 271 Z M246 -80 L210 -80 L214 70 L262 70 L246 -80 Z M382 -80 L350 -80 L333 70 L382 70 L382 -80 Z " />
<glyph glyph-name="a" unicode="a" horiz-adv-x="1000" d="M259 333 L584 333 C678 333 711 428 710 500 L671 539 C668 507 614 487 571 487 L298 487 C195 487 141 391 142 319 L166 283 C189 311 203 333 259 333 L259 333 Z M298 467 L571 467 C606 467 653 481 676 506 L690 492 C689 425 660 353 584 353 L259 353 C212 353 187 336 169 312 L162 325 C163 388 211 467 298 467 L298 467 Z M677 65 L842 52 L842 72 L677 85 L652 84 L652 277 C652 283 648 287 642 287 C636 287 632 283 632 277 L632 84 L567 82 L567 290 C567 296 563 300 557 300 C551 300 547 296 547 290 L547 82 L482 80 L482 290 C482 296 478 300 472 300 C466 300 462 296 462 290 L462 80 L397 78 L397 290 C397 296 393 300 387 300 C381 300 377 296 377 290 L377 78 L312 76 L312 290 C312 296 308 300 302 300 C296 300 292 296 292 290 L292 75 L227 74 L227 277 C227 283 223 287 217 287 C211 287 207 283 207 277 L207 73 L142 71 L142 -29 L842 -29 L842 -9 L162 -9 L162 51 L677 65 Z " />
<glyph glyph-name="b" unicode="b" horiz-adv-x="1000" d="M522 623 C490 623 470 612 459 589 C458 567 465 521 471 502 C480 492 499 483 522 479 C542 483 563 492 571 501 C577 520 585 567 584 589 C573 612 553 623 522 623 L522 623 Z M522 603 C544 603 556 598 564 584 C564 561 558 520 555 512 C552 509 534 502 522 499 C509 502 492 508 488 512 C485 520 479 561 479 584 C487 598 500 603 522 603 L522 603 Z M681 268 L692 281 C713 305 709 351 694 371 L637 451 C617 456 576 458 535 458 C488 458 440 456 422 452 C401 441 393 429 386 412 L293 206 L318 191 C334 182 355 188 365 203 L435 316 L437 262 L433 -100 L501 -100 L532 138 L555 -100 L623 -100 L619 200 L655 240 C668 230 682 210 682 177 L703 187 C703 214 700 249 681 268 L681 268 Z M678 295 L601 210 L578 209 L561 199 L568 176 L579 180 L599 180 L603 -80 L573 -80 L550 158 L514 158 L483 -80 L453 -80 L457 262 L454 348 L431 348 L349 214 C344 205 336 205 328 209 L319 214 L404 404 C411 419 415 425 428 432 C448 436 494 439 538 439 C572 439 605 437 625 433 L678 359 C689 343 692 311 678 295 L678 295 Z M588 376 C591 380 592 384 592 389 C592 398 587 406 582 409 L577 399 C570 402 563 404 557 404 C546 404 538 400 535 394 L507 389 C507 383 510 369 522 366 C533 363 539 358 544 350 C544 346 543 342 543 338 C543 316 550 296 562 281 L537 261 L519 224 C517 219 520 215 525 215 L537 215 L555 245 L586 260 L638 337 C627 347 615 346 610 349 C604 353 597 365 588 376 L588 376 Z " />
<glyph glyph-name="c" unicode="c" horiz-adv-x="1000" d="M806 485 L194 485 C171 485 150 464 150 442 L150 160 C150 138 171 117 194 117 L255 117 L255 -100 L747 -100 L747 117 L806 117 C829 117 850 138 850 160 L850 442 C850 464 829 485 806 485 L806 485 Z M830 442 L830 160 C830 148 819 137 806 137 L194 137 C181 137 170 148 170 160 L170 442 C170 454 181 465 194 465 L806 465 C819 465 830 454 830 442 L830 442 Z M729 339 C713 339 699 327 697 312 L529 312 L489 251 L405 399 L312 257 L288 312 L203 312 L203 292 L274 292 L308 215 L403 361 L489 213 L539 292 L699 292 C704 280 716 272 729 272 C748 272 763 287 763 306 C763 324 748 339 729 339 L729 339 Z M727 117 L727 -23 L275 -23 L275 117 L727 117 Z M352 17 C366 17 377 28 377 42 C377 56 366 67 352 67 C339 67 327 56 327 42 C327 28 339 17 352 17 L352 17 Z M490 23 C500 23 509 32 509 42 C509 52 500 61 490 61 C479 61 471 52 471 42 C471 32 479 23 490 23 L490 23 Z M674 32 L674 52 L602 52 L602 32 L674 32 Z M727 -80 L275 -80 L275 -43 L727 -43 L727 -80 Z " />
<glyph glyph-name="d" unicode="d" horiz-adv-x="1000" d="M833 225 L846 238 C732 349 616 407 500 407 C384 407 268 349 154 238 C268 126 384 68 500 68 C607 68 712 116 817 211 L802 224 C700 133 601 88 500 88 C394 88 290 138 183 238 C290 337 394 387 500 387 C608 387 709 338 833 225 L833 225 Z M394 349 L364 338 C355 318 349 295 349 272 C349 188 419 118 503 118 C586 118 656 188 656 272 C656 294 651 316 642 335 L613 347 C627 325 636 300 636 272 C636 198 576 138 503 138 C429 138 369 198 369 272 C369 301 378 327 394 349 L394 349 Z M558 239 C564 249 567 260 567 272 C567 307 538 336 503 336 C467 336 438 307 438 272 C438 236 467 207 503 207 C509 207 514 208 519 209 L519 211 C514 215 511 221 511 228 C511 242 522 253 536 253 C546 253 554 247 558 239 L558 239 Z " />
<glyph glyph-name="e" unicode="e" horiz-adv-x="1000" d="M778 272 L770 290 C728 274 711 229 711 181 C711 116 746 80 746 31 C746 -25 696 -49 636 -54 C640 -37 642 -19 642 1 C642 86 609 189 522 247 C445 298 441 330 441 362 C441 417 420 457 392 476 C380 512 353 530 321 530 L321 480 C289 478 272 469 261 444 C265 430 242 415 226 412 C223 404 222 395 222 386 C222 347 237 313 283 313 C290 313 297 314 302 315 C306 311 307 308 307 303 C307 297 303 288 296 272 C284 244 279 221 279 202 C279 156 301 126 301 83 L301 -21 L296 -21 C276 -21 261 -37 261 -59 C261 -80 279 -97 299 -97 L622 -97 C625 -90 629 -83 631 -74 C697 -69 766 -39 766 31 C766 87 731 113 731 181 C731 223 745 259 778 272 L778 272 Z M305 338 C301 334 292 332 282 332 C253 332 242 355 242 386 C242 390 242 392 243 396 C260 404 281 419 281 441 C291 458 301 461 341 461 L341 506 C351 506 370 487 374 464 C402 449 421 417 421 362 C421 356 421 349 422 342 L322 321 L305 338 Z M609 -77 L378 -77 L378 -58 C378 -31 391 -16 431 -16 L465 -16 L465 62 C465 95 479 113 526 113 L526 133 C467 133 445 103 445 62 L445 4 L431 4 C379 4 358 -21 358 -58 L358 -77 L299 -77 C290 -77 281 -69 281 -59 C281 -48 287 -41 299 -41 L321 -41 L321 83 C321 147 300 166 299 202 C299 217 302 236 314 264 C320 279 326 291 327 302 L426 323 C435 297 456 267 510 231 C591 177 622 79 622 1 C622 -29 617 -56 609 -77 L609 -77 Z " />
<glyph glyph-name="f" unicode="f" horiz-adv-x="1000" d="M500 555 C375 555 272 452 272 328 L292 328 C292 442 385 535 500 535 C614 535 708 442 708 328 C708 211 636 148 540 9 C517 -24 477 -40 433 -40 C355 -40 292 24 292 101 L272 101 C272 14 345 -60 433 -60 C481 -60 530 -41 556 -3 C652 134 728 203 728 328 C728 452 624 555 500 555 L500 555 Z M583 245 L597 231 C623 257 636 291 636 326 C636 404 576 464 500 464 C424 464 362 402 362 328 L362 296 C381 278 392 257 398 233 C427 242 459 229 459 194 C459 169 441 154 419 153 C409 153 398 156 388 162 C383 148 376 138 365 127 L379 113 C386 120 393 128 398 136 C404 134 410 134 417 134 C449 134 479 157 479 194 C479 202 478 209 475 216 L508 216 L508 146 L528 146 L528 236 L463 236 C450 250 431 257 412 256 C406 273 395 290 382 304 L382 328 C382 392 438 444 500 444 C566 444 617 392 617 326 C617 296 605 267 583 245 L583 245 Z " />
<glyph glyph-name="g" unicode="g" horiz-adv-x="1000" d="M551 343 L587 343 L587 415 C587 430 572 445 557 446 L537 559 C534 576 516 592 500 592 C484 592 466 576 463 559 L443 446 C428 445 413 430 413 416 L413 343 L449 343 C438 303 362 285 362 190 L362 -39 C362 -71 391 -100 423 -100 L577 -100 C609 -100 638 -71 638 -39 L638 190 C638 285 562 303 551 343 L551 343 Z M464 446 L483 555 C485 565 492 572 500 572 C508 572 515 565 517 556 L536 446 L464 446 Z M433 363 L433 415 C433 426 435 426 445 426 L555 426 C563 426 567 422 567 415 L567 363 L433 363 Z M618 190 L618 -39 C618 -61 599 -80 577 -80 L423 -80 C401 -80 382 -61 382 -39 L382 190 C382 271 461 286 469 343 L531 343 C539 286 618 271 618 190 L618 190 Z M440 201 L440 26 L560 26 L560 201 L440 201 Z M460 46 L460 181 L540 181 L540 46 L460 46 Z " />
<glyph glyph-name="h" unicode="h" horiz-adv-x="1000" d="M662 446 L728 539 C732 545 735 557 735 563 C735 587 723 599 701 599 C693 599 684 596 676 591 L583 525 C571 536 551 537 540 526 L488 474 L513 449 C496 439 473 443 446 443 C415 443 380 438 344 402 L182 240 C159 217 159 177 182 154 L291 45 C312 24 355 23 377 45 L539 207 C565 233 576 263 576 308 C576 335 576 359 586 376 L611 351 L662 402 C674 414 673 434 662 446 L662 446 Z M597 511 L687 574 C693 578 697 579 701 579 C711 579 715 573 715 563 C715 559 714 554 712 551 L648 460 L597 511 Z M648 416 L611 379 L516 474 L553 511 C561 519 562 517 569 510 L647 432 C653 426 653 421 648 416 L648 416 Z M525 221 L363 59 C347 43 321 43 305 59 L196 168 C180 184 180 210 196 226 L358 388 C384 414 408 423 446 423 C476 423 505 417 528 434 L571 391 C553 367 557 338 556 308 C555 278 553 249 525 221 L525 221 Z M407 355 L283 231 L368 146 L492 270 L407 355 Z M463 270 L368 174 L311 231 L407 326 L463 270 Z M760 313 C737 249 685 182 685 140 C685 99 718 66 760 66 C802 66 835 99 835 140 C835 182 783 249 760 313 L760 313 Z M759 110 C741 110 726 125 726 144 C726 162 741 177 759 177 C778 177 793 162 793 144 C793 125 778 110 759 110 L759 110 Z " />
<glyph glyph-name="i" unicode="i" horiz-adv-x="1000" d="M850 46 L827 46 L827 113 C827 165 789 198 743 200 L329 222 L331 234 C334 251 320 279 294 285 L240 297 C213 289 199 246 199 224 C199 202 215 185 238 182 L301 175 L305 132 L227 132 C209 132 192 115 192 97 L192 61 C192 56 194 51 196 46 L170 46 L170 291 L150 291 L150 -77 L170 -77 L170 26 L830 26 L830 -77 L850 -77 L850 46 Z M220 230 C223 247 230 269 242 276 L290 265 C306 261 312 247 311 238 L304 194 L241 202 C228 204 218 216 220 230 L220 230 Z M322 174 L326 202 L376 199 L393 46 L331 46 L322 174 Z M807 113 L807 46 L414 46 L396 198 L742 180 C779 178 807 153 807 113 L807 113 Z M212 61 L212 97 C212 106 218 112 227 112 L306 112 L311 46 L227 46 C218 46 212 52 212 61 L212 61 Z " />
<glyph glyph-name="j" unicode="j" horiz-adv-x="1000" d="M466 465 C541 407 627 342 627 240 C627 164 579 114 524 72 C530 67 536 63 542 59 C599 103 647 158 647 240 C647 290 629 337 591 381 C558 420 516 453 479 481 C423 524 374 561 374 602 L353 602 C353 551 406 511 466 465 L466 465 Z M449 540 L593 540 C574 521 549 502 523 482 C528 477 534 473 539 468 C598 513 647 552 647 602 L627 602 C627 588 621 574 611 560 L426 560 C432 554 440 547 449 540 L449 540 Z M531 33 C496 56 460 82 430 112 L531 112 C539 119 546 126 553 133 L411 133 C399 149 388 167 382 187 L589 187 C592 193 594 200 596 206 L596 208 L376 208 C374 226 374 244 376 262 L596 262 C596 269 595 276 593 283 L380 283 C385 302 393 320 403 337 L565 337 C560 344 554 351 548 358 L417 358 C435 381 456 401 479 420 L462 434 C443 417 426 400 410 381 C372 337 353 290 353 240 C353 148 410 90 519 16 C577 -23 627 -57 627 -102 L647 -102 C647 -46 591 -7 531 33 L531 33 Z M459 26 C403 -12 353 -49 353 -102 L374 -102 C374 -58 421 -25 477 13 C471 17 465 21 459 26 L459 26 Z " />
<glyph glyph-name="k" unicode="k" horiz-adv-x="1000" d="M384 96 L629 234 C660 251 677 285 677 318 C677 373 630 412 581 413 C565 413 550 409 535 401 L361 303 L427 484 C431 494 433 505 433 515 C433 565 391 611 340 611 C301 611 263 587 249 550 L152 285 C148 275 146 264 146 254 C146 203 189 157 244 157 C258 96 330 66 384 96 L384 96 Z M229 439 L267 543 C278 573 310 591 341 591 C383 591 413 554 413 515 C413 507 412 499 409 491 L372 387 L229 439 Z M242 177 C199 177 165 213 165 254 C165 262 167 271 170 279 L223 420 L364 368 L335 288 L290 262 C258 244 242 211 242 177 L242 177 Z M449 329 L545 383 C557 390 569 393 581 393 C620 393 657 360 657 318 C657 292 643 266 619 252 L523 198 L449 329 Z M505 188 L374 114 C323 85 262 123 262 178 C262 204 275 230 300 244 L431 319 L505 188 Z M756 244 C699 244 646 201 646 145 C646 89 689 36 746 36 C802 36 854 78 854 135 C854 191 812 244 756 244 L756 244 Z M834 136 C834 117 826 99 814 86 L704 209 C719 219 736 224 755 224 C800 224 834 181 834 136 L834 136 Z M747 56 C701 57 666 99 666 144 C666 164 676 182 689 196 L800 72 C785 61 766 56 747 56 L747 56 Z M536 97 C480 97 432 48 432 -8 C432 -63 480 -112 536 -112 C592 -112 640 -63 640 -8 C640 48 592 97 536 97 L536 97 Z M536 77 C556 77 574 70 588 58 L470 -60 C459 -45 452 -27 452 -8 C452 38 490 77 536 77 L536 77 Z M536 -92 C517 -92 499 -85 484 -74 L602 44 C613 30 620 11 620 -8 C620 -53 582 -92 536 -92 L536 -92 Z " />
<glyph glyph-name="l" unicode="l" horiz-adv-x="1000" d="M840 -106 L855 -92 L663 100 L700 137 C713 150 713 174 700 187 L363 524 L398 559 L384 573 L287 476 L222 541 L270 589 L256 603 L145 493 L159 479 L207 527 L273 462 L175 364 L189 350 L224 385 L562 48 C575 35 598 35 611 48 L649 86 L840 -106 Z M686 151 L597 62 C591 56 583 55 576 62 L538 100 L571 132 L557 146 L524 114 L479 159 L512 192 L497 206 L465 173 L420 218 L452 251 L438 265 L405 233 L360 278 L393 310 L379 325 L346 292 L300 338 L333 371 L319 385 L286 352 L239 400 L349 510 L686 173 C693 166 693 158 686 151 L686 151 Z " />
<glyph glyph-name="m" unicode="m" horiz-adv-x="1000" d="M499 613 C465 613 445 602 434 578 C434 558 442 492 448 486 C452 480 478 467 500 463 C531 472 545 479 550 486 C557 496 564 552 564 578 C553 602 533 613 499 613 L499 613 Z M499 593 C522 593 536 588 544 573 C544 547 537 506 533 497 C526 492 513 488 499 484 C486 487 467 494 464 497 C461 506 454 549 454 573 C462 588 476 593 499 593 L499 593 Z M672 195 L654 301 L624 401 C613 438 589 455 547 457 L405 465 C368 467 319 423 328 359 L336 304 C339 284 353 272 370 273 L395 275 L379 -113 L448 -113 L486 137 L517 30 L528 -113 L597 -113 L596 40 L579 247 L579 284 L595 258 L622 155 L644 160 C664 165 675 177 672 195 L672 195 Z M394 296 L368 293 C362 292 357 296 356 306 L348 362 C341 412 377 444 404 445 L398 362 L377 362 L377 342 L397 342 L394 296 Z M640 180 L636 179 L613 266 L579 320 L579 387 L559 387 L559 246 L576 39 L577 -93 L546 -93 L537 34 L500 162 L469 162 L430 -93 L399 -93 L415 277 L436 278 L484 265 C513 257 542 277 542 308 L542 325 L487 362 L469 362 L457 442 L545 437 C583 435 595 426 604 395 L634 297 L651 196 C652 188 648 182 640 180 L640 180 Z M488 284 L481 286 L472 342 L481 342 L522 314 L522 308 C522 290 506 279 488 284 L488 284 Z " />
<glyph glyph-name="n" unicode="n" horiz-adv-x="1000" d="M446 493 L462 552 C456 577 412 600 386 600 C361 600 337 583 333 559 L318 466 L390 454 C409 451 438 462 446 493 L446 493 Z M353 555 C356 570 370 580 385 580 C400 580 432 568 441 551 L426 498 C421 479 405 472 393 474 L340 482 L353 555 Z M850 234 L794 235 C785 244 771 250 756 250 C748 250 740 249 732 246 L720 261 C690 256 681 236 681 215 C681 204 685 191 689 181 C681 165 678 156 677 146 L520 226 L524 243 L444 300 L380 398 C373 408 367 417 360 420 L329 435 C303 448 278 436 258 409 L186 314 L173 211 C171 195 175 176 198 173 L222 170 L205 58 L150 -78 L194 -93 C208 -98 227 -93 232 -81 L292 59 L299 119 L326 66 L344 -111 L379 -108 C397 -106 414 -91 413 -72 L408 90 L371 211 L378 257 L398 237 L481 199 C490 195 513 192 516 206 L650 135 L637 135 C607 135 570 132 543 122 C523 134 520 141 514 182 L470 182 C464 163 462 143 462 124 C462 81 476 42 483 25 L460 -22 L460 -116 L558 -116 L537 -66 L544 -41 C557 -29 578 -20 596 -11 L668 -26 L668 -116 L762 -116 L762 -96 C762 -83 758 -67 750 -55 L760 7 C773 22 790 50 791 116 L802 135 C806 138 809 141 824 147 C840 153 850 183 850 208 L850 234 Z M351 209 L388 86 L392 -74 C392 -80 386 -88 379 -88 L362 -89 L346 72 L285 187 L281 199 L265 187 L281 150 L272 61 L216 -69 C213 -75 207 -78 200 -75 L180 -68 L225 52 L260 280 L287 320 L286 354 L240 288 L225 190 L200 193 C193 194 192 199 193 208 L206 306 L274 397 C291 420 303 426 321 417 L352 402 C360 398 375 367 369 328 L351 209 Z M496 216 L410 253 L382 282 L389 324 C390 332 391 339 391 346 L430 286 L501 235 L496 216 Z M814 165 C795 157 790 153 780 137 L773 126 L700 152 C703 162 706 172 712 180 C705 192 700 205 700 216 C700 226 704 234 713 238 L727 222 C739 229 749 231 758 231 C770 231 779 225 785 215 L830 214 C830 198 828 171 814 165 L814 165 Z M741 16 L728 -63 C738 -67 742 -81 742 -96 L688 -96 L688 -9 L592 10 C572 -1 543 -13 526 -30 L516 -67 L528 -96 L480 -96 L480 -27 L505 24 C501 34 482 77 482 127 C482 139 483 150 485 162 L497 162 C504 124 516 114 542 100 C567 115 614 115 648 115 C666 115 681 115 685 117 C689 119 692 125 695 133 L771 105 C768 47 753 29 741 16 L741 16 Z " />
<glyph glyph-name="o" unicode="o" horiz-adv-x="1000" d="M540 446 C560 429 591 419 615 419 C639 419 674 430 690 447 L661 547 C657 562 651 574 641 582 C637 594 625 603 612 603 C600 603 589 596 584 587 C570 579 559 566 554 549 C535 490 529 475 529 463 C529 455 533 452 540 446 L540 446 Z M552 478 L572 541 C574 549 577 554 583 559 C588 548 599 540 612 540 C623 540 632 545 638 554 L667 454 C653 445 631 439 615 439 C595 439 569 447 553 461 C549 464 548 466 552 478 L552 478 Z M850 23 L827 23 L827 90 C827 142 789 175 743 177 L721 178 L728 328 C730 381 692 395 654 395 L585 395 L585 375 L642 375 L642 311 C635 307 630 299 630 291 C630 279 640 269 652 269 C664 269 674 279 674 291 C674 299 669 307 662 311 L662 375 C690 373 710 362 708 329 L701 179 L425 194 L453 258 L480 341 C488 366 494 375 524 375 L535 375 L535 331 C514 319 497 271 497 244 C497 219 515 209 532 209 L532 229 C521 229 517 231 517 244 C517 269 535 314 545 314 C554 314 572 269 572 244 C572 231 568 229 557 229 L557 209 C574 209 592 219 592 244 C592 271 576 318 555 331 L555 395 L522 395 C486 395 470 378 460 347 L435 266 L403 195 L329 199 L331 211 C334 228 320 256 294 262 L240 274 C213 266 199 223 199 201 C199 179 215 160 238 158 L301 152 L305 109 L227 109 C209 109 192 92 192 74 L192 38 C192 33 194 28 196 23 L170 23 L170 268 L150 268 L150 -100 L170 -100 L170 3 L830 3 L830 -100 L850 -100 L850 23 Z M220 207 C223 224 230 246 242 253 L290 242 C306 238 312 224 311 215 L304 171 L241 178 C228 179 218 193 220 207 L220 207 Z M322 151 L326 179 L376 176 L393 23 L331 23 L322 151 Z M807 90 L807 23 L414 23 L396 175 L742 157 C779 155 807 130 807 90 L807 90 Z M212 38 L212 74 C212 83 218 89 227 89 L306 89 L311 23 L227 23 C218 23 212 29 212 38 L212 38 Z " />
<glyph glyph-name="p" unicode="p" horiz-adv-x="1000" d="M622 420 C637 420 678 426 686 440 C692 451 710 508 713 535 C708 554 695 567 678 576 C675 590 663 600 648 600 C637 600 628 594 622 586 C601 584 583 575 571 558 C569 544 566 470 568 458 C571 442 608 425 622 420 L622 420 Z M591 550 C598 559 606 564 617 566 C619 551 632 538 648 538 C660 538 670 545 676 555 C684 550 689 543 693 533 C688 506 674 459 668 450 C666 446 641 441 626 440 C611 446 588 458 588 462 C587 472 589 533 591 550 L591 550 Z M850 23 L827 23 L827 90 C827 139 794 171 751 176 L756 329 C758 381 719 395 682 395 L551 395 C513 395 496 378 487 347 L463 266 L418 194 L329 199 L331 211 C334 228 320 256 294 262 L240 274 C213 266 199 223 199 201 C199 179 215 160 238 158 L301 152 L305 109 L227 109 C209 109 192 92 192 74 L192 38 C192 33 194 28 196 23 L170 23 L170 268 L150 268 L150 -100 L170 -100 L170 3 L830 3 L830 -100 L850 -100 L850 23 Z M441 193 L481 258 L507 341 C515 368 522 375 551 375 L551 331 C530 319 513 271 513 244 C513 219 531 209 548 209 L548 229 C537 229 533 231 533 244 C533 269 551 314 561 314 C570 314 588 269 588 244 C588 231 584 229 573 229 L573 209 C590 209 608 219 608 244 C608 271 592 318 571 331 L571 375 L658 375 L658 311 C651 307 646 299 646 291 C646 279 656 269 668 269 C680 269 690 279 690 291 C690 299 685 307 678 311 L678 375 L682 375 C713 375 737 365 736 329 L731 178 L441 193 Z M220 207 C223 224 230 246 242 253 L290 242 C306 238 312 224 311 215 L304 171 L241 178 C228 179 218 193 220 207 L220 207 Z M322 151 L326 179 L376 176 L393 23 L331 23 L322 151 Z M807 90 L807 23 L414 23 L396 175 L742 157 C779 155 807 130 807 90 L807 90 Z M212 38 L212 74 C212 83 218 89 227 89 L306 89 L311 23 L227 23 C218 23 212 29 212 38 L212 38 Z " />
<glyph glyph-name="q" unicode="q" horiz-adv-x="1000" d="M723 320 C782 320 813 365 807 441 L700 453 C690 479 666 496 611 497 L611 542 C553 540 499 486 499 440 L499 380 C499 334 478 305 401 251 C337 206 308 146 299 92 C283 80 266 71 249 71 C237 71 226 74 215 83 L191 45 C219 19 251 6 287 6 C291 6 296 6 299 7 C303 -19 311 -42 321 -60 L768 -60 L768 -8 C768 17 748 46 725 46 L695 46 C687 46 682 49 682 61 L682 279 C682 296 705 320 723 320 L723 320 Z M666 299 L513 341 C517 354 519 366 519 380 L519 440 C519 470 550 510 591 519 L591 477 C664 480 679 463 684 435 L788 423 C788 383 776 340 723 340 C700 340 678 321 666 299 L666 299 Z M692 26 L722 26 C737 26 748 6 748 -8 L748 -40 L654 -40 C650 1 619 41 585 41 L519 41 L518 116 C518 152 498 178 446 178 L446 158 C486 158 498 143 498 116 L499 21 L585 21 C608 21 630 -8 634 -40 L333 -40 C325 -20 319 3 317 30 C306 28 295 26 285 26 C260 26 238 33 217 49 L222 56 C230 53 239 51 247 51 C274 52 300 67 317 81 C324 134 349 190 413 235 C460 268 489 295 504 322 L662 279 L662 61 C662 39 679 26 692 26 L692 26 Z " />
<glyph glyph-name="r" unicode="r" horiz-adv-x="1000" d="M750 29 L707 29 C707 99 689 174 645 202 C564 254 523 345 492 377 C466 403 422 466 372 466 C367 466 361 466 356 464 C343 473 325 478 307 478 C287 478 268 472 258 461 L289 414 C269 399 265 390 263 374 L254 299 C258 284 269 273 286 262 L258 237 C250 239 242 240 234 240 L155 240 L155 215 C155 186 178 156 217 156 L236 156 L342 88 L381 96 L381 79 L344 -19 C314 -22 298 -37 298 -61 C298 -84 316 -97 335 -97 L685 -97 C697 -74 705 -34 707 9 L750 9 C800 9 823 -17 823 -37 C823 -58 794 -84 735 -86 L735 -106 C806 -104 845 -68 845 -37 C845 -7 812 29 750 29 L750 29 Z M275 303 L283 372 C284 383 289 392 318 411 L287 456 C292 457 298 458 306 458 C321 458 340 454 352 439 C359 444 366 445 373 445 C407 445 443 399 470 369 L393 270 C384 275 375 278 365 278 C351 278 341 266 325 266 C312 266 288 279 275 303 L275 303 Z M670 -77 L443 -77 C443 -48 457 -32 500 -32 L529 -32 L529 48 C529 83 545 102 594 102 L594 122 C531 122 507 91 507 48 L507 -12 L500 -12 C443 -12 421 -40 421 -77 L335 -77 C326 -77 320 -72 320 -61 C320 -44 329 -38 360 -38 L403 75 L403 101 L472 116 C491 120 506 145 500 168 L478 162 C482 151 474 138 466 136 L346 110 L242 176 L217 176 C192 176 177 194 177 215 L177 220 L234 220 C255 220 278 209 300 199 L351 175 L407 188 L407 253 L485 353 C513 318 554 237 633 186 C671 161 685 90 685 25 C685 -15 679 -52 670 -77 L670 -77 Z M290 227 L306 251 C314 248 319 246 325 246 C344 246 347 258 365 258 C372 258 379 256 385 252 L385 204 L353 197 L290 227 Z " />
<glyph glyph-name="s" unicode="s" horiz-adv-x="1000" d="M418 -30 C432 11 432 103 472 132 C480 138 487 140 499 140 C511 140 519 137 527 131 C571 94 565 -23 590 -50 C597 -57 606 -61 616 -61 C654 -61 679 -14 686 59 C687 70 688 81 688 92 C688 123 685 145 685 168 C685 185 687 200 690 214 C700 254 737 359 752 452 C761 509 711 542 632 542 C593 542 549 538 515 519 L501 511 C461 532 413 542 368 542 C293 542 245 514 245 465 C245 385 312 244 312 169 L312 45 C312 -21 341 -61 384 -61 C401 -61 414 -49 418 -30 L418 -30 Z M399 -25 C398 -30 395 -41 384 -41 C361 -41 332 -22 332 45 L332 169 C332 248 265 390 265 464 C265 504 310 522 368 522 C406 522 448 513 485 496 C461 475 440 454 417 441 L429 423 C464 445 491 476 525 501 C559 515 598 522 632 522 C683 522 740 507 732 455 C717 363 681 260 671 219 C666 200 665 183 665 168 C665 144 668 122 668 92 C668 82 667 72 666 61 C660 -6 638 -41 616 -41 C610 -41 607 -39 605 -37 C586 -16 591 104 540 146 C529 155 516 160 499 160 C483 160 471 156 460 148 C412 113 412 13 399 -25 L399 -25 Z " />
<glyph glyph-name="t" unicode="t" horiz-adv-x="1000" d="M680 175 L716 196 L826 237 L807 334 L765 326 L750 293 L731 288 L731 502 L709 502 L709 283 L683 277 L630 249 L640 231 L680 175 Z M827 54 L819 99 L703 121 L602 121 L651 167 L637 181 L558 108 L391 113 L391 93 L555 88 L573 57 L345 57 C337 57 321 67 322 73 L326 108 C327 118 333 124 350 126 L516 147 L615 216 L603 232 L508 167 L347 146 C321 143 306 127 304 110 L300 75 C299 69 302 62 306 57 L285 57 L285 101 C285 118 268 144 242 146 L187 151 C160 139 153 95 156 73 C158 59 166 48 177 42 C174 37 172 30 172 22 L172 -18 L150 -18 L150 -91 L172 -91 L172 -38 L828 -38 L828 -91 L850 -91 L850 22 C850 35 840 49 827 54 L827 54 Z M191 130 L241 126 C257 125 265 111 265 102 L264 57 L200 57 C187 57 176 67 176 81 C176 99 181 122 191 130 L191 130 Z M701 101 L799 83 L804 57 L599 57 L573 101 L701 101 Z M828 -18 L194 -18 L194 22 C194 29 201 37 208 37 L814 37 C821 37 828 29 828 22 L828 -18 Z " />
<glyph glyph-name="u" unicode="u" horiz-adv-x="1000" d="M850 46 L827 46 L827 113 C827 165 789 198 743 200 L623 206 L623 582 L477 582 L477 562 L601 562 L601 207 L329 222 L331 234 C334 251 320 279 294 285 L240 297 C213 289 199 246 199 224 C199 202 215 185 238 182 L301 175 L305 132 L227 132 C209 132 192 115 192 97 L192 61 C192 56 194 51 196 46 L170 46 L170 291 L150 291 L150 -77 L170 -77 L170 26 L830 26 L830 -77 L850 -77 L850 46 Z M524 388 L547 388 L559 457 L548 532 L466 532 L457 457 L466 388 L504 388 C496 323 448 257 363 257 L363 237 C462 237 516 314 524 388 L524 388 Z M529 408 L486 408 L480 450 L509 450 L509 470 L481 470 L486 512 L528 512 L537 457 L529 408 Z M220 230 C223 247 230 269 242 276 L290 265 C306 261 312 247 311 238 L304 194 L241 202 C228 204 218 216 220 230 L220 230 Z M322 174 L326 202 L376 199 L393 46 L331 46 L322 174 Z M807 113 L807 46 L414 46 L396 198 L742 180 C779 178 807 153 807 113 L807 113 Z M212 61 L212 97 C212 106 218 112 227 112 L306 112 L311 46 L227 46 C218 46 212 52 212 61 L212 61 Z " />
<glyph glyph-name="v" unicode="v" horiz-adv-x="1000" d="M160 -100 L180 -100 L180 -6 C180 11 193 30 209 36 L330 83 C352 91 371 120 371 144 L371 317 C371 334 383 355 398 362 L452 388 C468 396 478 414 478 432 C478 439 477 445 474 451 L402 600 L380 600 L456 443 C458 439 459 435 459 431 C459 420 453 410 444 406 L390 380 C369 370 351 340 351 317 L351 144 C351 126 338 107 322 101 L201 54 C179 45 160 17 160 -6 L160 -100 Z M762 38 C754 38 745 35 737 30 L737 34 C737 66 713 86 692 86 C682 86 673 83 665 78 C660 101 638 117 621 117 C612 117 602 113 593 106 L593 237 C593 262 569 288 545 288 C521 288 497 262 497 237 L498 42 C482 55 460 57 450 57 L430 57 L430 -100 L450 -100 L450 37 C463 37 492 34 498 10 L498 -75 L517 -75 L517 237 C517 254 530 268 545 268 C560 268 573 254 573 237 L573 28 L593 28 L593 65 C593 86 607 97 621 97 C634 97 647 86 647 65 L647 20 L668 7 L668 34 C668 55 680 66 692 66 C704 66 717 55 717 34 L717 -9 L737 -21 L737 -13 C737 8 750 18 762 18 C775 18 788 8 788 -13 L788 -100 L808 -100 L808 -13 C808 18 782 38 762 38 L762 38 Z " />
<glyph glyph-name="w" unicode="w" horiz-adv-x="1000" d="M823 557 L743 550 C728 569 710 583 686 583 C669 583 651 578 629 564 L574 611 C559 608 549 589 549 564 C549 540 557 511 576 491 C563 462 560 414 560 380 C560 359 542 340 519 340 C460 340 347 334 285 304 C234 362 218 342 204 421 L165 421 C159 392 156 367 156 345 C156 277 183 243 211 230 C202 214 198 192 198 173 C198 163 199 153 201 146 L153 47 L153 -97 L270 -97 L244 -32 C241 -24 240 -17 240 -12 C240 4 248 20 260 33 C290 65 324 86 361 107 L552 71 L552 -97 L676 -97 C678 -70 671 -33 651 -18 L673 124 C700 154 733 206 733 341 L744 387 C760 423 767 413 810 435 C838 449 847 470 847 491 C847 512 837 541 823 557 L823 557 Z M801 453 C773 439 746 441 726 393 L716 356 L580 388 C581 428 585 476 602 495 C577 511 568 542 568 564 C568 573 570 581 573 586 L627 539 C650 556 669 562 684 562 C706 562 721 548 734 530 L813 536 C820 525 827 507 827 491 C827 476 820 463 801 453 L801 453 Z M655 134 L629 -31 C645 -31 654 -52 656 -77 L572 -77 L572 88 L357 127 C318 106 281 80 246 47 C231 33 220 10 220 -12 C220 -20 221 -28 224 -35 L240 -77 L173 -77 L173 43 L223 145 C219 152 217 161 217 172 C217 198 226 229 244 243 C216 241 176 264 176 345 C176 361 177 380 181 401 L188 401 C204 328 246 325 281 278 C332 314 455 320 519 320 C548 320 572 342 579 368 L713 336 C712 204 679 159 655 134 L655 134 Z " />
<glyph glyph-name="x" unicode="x" horiz-adv-x="1000" d="M492 600 C539 600 575 583 593 545 C593 506 583 421 575 403 C565 382 519 369 492 364 C468 368 418 384 409 404 C400 424 391 501 391 545 C409 583 445 600 492 600 L492 600 Z M492 580 C451 580 427 569 411 541 C411 500 421 425 427 410 C430 403 470 389 492 384 C514 389 554 403 557 410 C563 425 573 500 573 541 C557 569 533 580 492 580 L492 580 Z M251 -100 L231 -100 L235 92 L256 252 C264 310 308 357 365 357 L638 357 C698 357 737 309 744 252 L765 92 L769 -100 L749 -100 L745 90 L724 250 C718 299 686 337 638 337 L365 337 C318 337 282 299 276 250 L255 90 L251 -100 Z M639 244 C658 244 673 229 673 210 L673 -8 C673 -23 663 -36 649 -41 L655 -100 L635 -100 L629 -42 L369 -42 L356 -100 L335 -100 L348 -41 C334 -36 324 -23 324 -8 L324 210 C324 229 339 244 358 244 L639 244 Z M407 182 C416 167 433 157 450 157 L479 157 L479 177 L450 177 C440 177 430 183 425 192 L407 182 Z M591 182 L573 192 C568 183 558 177 548 177 L519 177 L519 157 L548 157 C565 157 582 167 591 182 L591 182 Z M387 132 C396 117 413 107 430 107 L479 107 L479 127 L430 127 C420 127 410 133 405 142 L387 132 Z M611 132 L593 142 C588 133 578 127 568 127 L519 127 L519 107 L568 107 C585 107 602 117 611 132 L611 132 Z M479 52 L479 77 L409 74 C399 74 393 73 393 34 C393 9 400 0 409 0 C437 0 454 46 479 52 L479 52 Z M519 52 C544 46 561 0 589 0 C598 0 605 9 605 34 C605 73 599 74 589 74 L519 77 L519 52 Z " />
<glyph glyph-name="y" unicode="y" horiz-adv-x="1000" d="M492 600 C539 600 575 583 593 545 C593 506 583 421 575 403 C565 382 519 369 492 364 C468 368 418 384 409 404 C400 424 391 501 391 545 C409 583 445 600 492 600 L492 600 Z M492 580 C451 580 427 569 411 541 C411 500 421 425 427 410 C430 403 470 389 492 384 C514 389 554 403 557 410 C563 425 573 500 573 541 C557 569 533 580 492 580 L492 580 Z M251 -100 L231 -100 L235 92 L256 252 C264 310 308 357 365 357 L638 357 C698 357 737 309 744 252 L765 92 L769 -100 L749 -100 L745 90 L724 250 C718 299 686 337 638 337 L365 337 C318 337 282 299 276 250 L255 90 L251 -100 Z M639 244 C658 244 673 229 673 210 L673 -8 C673 -23 663 -36 649 -41 L655 -100 L635 -100 L629 -42 L369 -42 L356 -100 L335 -100 L348 -41 C334 -36 324 -23 324 -8 L324 210 C324 229 339 244 358 244 L639 244 Z M544 177 C518 177 501 152 501 152 C501 152 484 177 458 177 C433 177 418 161 417 136 C415 75 475 37 501 26 C527 37 584 75 584 136 C584 161 569 177 544 177 L544 177 Z " />
<glyph glyph-name="z" unicode="z" horiz-adv-x="1000" d="M282 423 L249 468 C227 479 193 462 175 446 C164 436 159 423 159 409 C159 400 162 390 169 382 L225 318 L275 361 C284 369 290 382 290 396 C290 405 289 414 282 423 L282 423 Z M266 411 C269 406 270 401 270 396 C270 388 267 381 262 376 L228 346 L185 395 C181 400 179 406 179 412 C179 419 182 426 188 431 C204 444 225 453 236 451 L266 411 Z M787 186 L607 224 L478 234 L403 301 C382 319 353 330 324 330 C302 330 280 323 264 308 L224 271 L302 181 C339 138 392 117 428 112 L421 70 L383 70 L186 262 L186 302 L150 337 L150 270 L236 186 L180 70 L150 70 L150 -66 L170 -66 L170 50 L830 50 L830 -66 L850 -66 L850 99 C850 150 842 173 787 186 L787 186 Z M588 205 L588 177 L422 177 L422 157 L436 157 L431 132 C399 136 353 155 318 195 L252 269 L278 294 C290 305 307 310 324 310 C347 310 372 302 389 287 L445 237 L424 239 L330 273 L324 255 L420 219 L588 205 Z M830 70 L513 70 L508 157 L608 157 L608 204 L783 166 C825 157 830 144 830 99 L830 70 Z M202 70 L251 172 L355 70 L202 70 Z M488 157 L493 70 L442 70 L456 157 L488 157 Z " />
<glyph glyph-name="braceleft" unicode="&#x7b;" horiz-adv-x="1000" d="M198 456 L264 456 C283 456 299 467 304 485 C311 508 313 538 313 575 C297 606 282 613 231 613 C212 613 198 604 190 587 L157 518 C142 487 163 456 198 456 L198 456 Z M175 509 L208 578 C214 590 221 593 231 593 C269 593 281 591 293 570 C293 529 289 505 285 490 C282 480 273 476 264 476 L198 476 C174 476 169 496 175 509 L175 509 Z M661 340 C678 328 703 319 724 319 C748 319 785 330 796 347 L772 424 C764 448 752 463 719 463 C692 463 674 448 667 426 L652 378 C646 359 652 346 661 340 L661 340 Z M671 372 L687 420 C692 436 700 443 719 443 C740 443 747 436 753 418 L773 353 C761 344 740 339 724 339 C707 339 688 346 674 356 C670 360 668 363 671 372 L671 372 Z M420 253 C421 260 422 266 422 271 C422 294 402 312 369 312 L369 366 C369 405 324 433 294 433 L226 433 C198 433 150 425 150 372 L150 233 L176 217 C170 187 165 135 172 70 L196 70 L190 -100 L264 -100 L282 70 L313 70 L332 -100 L402 -100 L402 70 L434 70 C441 99 445 129 445 154 C445 196 439 229 420 253 L420 253 Z M418 90 L190 90 C187 140 190 180 195 206 L283 153 L312 182 L298 196 L281 179 L170 245 L170 372 C170 409 200 413 226 413 L294 413 C318 413 349 391 349 366 L349 299 L317 279 C303 251 336 204 367 211 L406 237 C420 218 425 190 425 154 C425 132 423 115 418 90 L418 90 Z M815 45 L808 89 L850 94 L826 262 C822 292 792 300 770 300 L675 300 C653 300 624 291 620 262 L594 94 L634 89 L627 45 L645 45 L647 -101 L704 -101 L714 45 L724 45 L737 -101 L796 -101 L795 45 L815 45 Z M402 271 C402 267 401 258 399 251 L360 230 C348 231 332 252 334 266 L369 292 C390 292 402 283 402 271 L402 271 Z M791 65 L651 65 L674 212 L654 216 L637 109 L616 112 L640 259 C643 275 657 280 675 280 L770 280 C790 280 804 276 806 260 L828 112 L805 109 L788 216 L768 212 L791 65 Z M246 -80 L210 -80 L214 70 L262 70 L246 -80 Z M382 -80 L350 -80 L333 70 L382 70 L382 -80 Z M695 45 L686 -81 L667 -81 L665 45 L695 45 Z M776 -81 L755 -81 L744 45 L775 45 L776 -81 Z " />
<glyph glyph-name="braceright" unicode="&#x7d;" horiz-adv-x="1000" d="M656 376 L610 467 C588 472 548 477 506 479 C520 484 533 492 537 500 C542 511 548 562 548 584 C538 607 514 618 486 618 C458 618 434 607 424 584 C424 561 430 513 434 500 C437 492 452 484 466 479 C437 479 409 476 386 470 C373 449 358 398 343 359 C336 341 332 309 353 291 C370 276 388 261 405 250 L395 -100 L471 -100 L495 155 L505 155 L528 -100 L603 -100 L598 236 C622 253 637 278 653 306 C661 321 666 357 656 376 L656 376 Z M454 506 C450 513 444 555 444 580 C452 593 464 598 486 598 C508 598 520 593 528 580 C528 556 522 513 518 506 C513 503 500 498 486 494 C472 497 459 503 454 506 L454 506 Z M635 316 C618 285 604 262 578 247 L455 247 C426 257 398 278 367 306 C354 317 356 337 361 351 C374 386 386 429 398 452 C423 458 452 460 481 460 C525 460 569 454 596 449 L638 367 C646 352 641 327 635 316 L635 316 Z M554 358 C572 358 586 373 586 390 C586 408 572 423 554 423 C536 423 522 408 522 390 C522 373 536 358 554 358 L554 358 Z M498 332 L472 314 L445 341 L448 396 L428 396 L425 332 L480 280 L531 280 C566 289 589 318 589 348 L526 341 C516 340 507 338 498 332 L498 332 Z M583 -80 L546 -80 L523 175 L477 175 L453 -80 L415 -80 L424 238 C433 233 442 230 451 227 L578 227 L583 -80 Z " />
</font>
</svg>
