<?xml version="1.0" encoding="UTF-8"?>
<svg xmlns="http://www.w3.org/2000/svg" xmlns:xlink="http://www.w3.org/1999/xlink" version="1.2" >
<font id="Informative Light">
<font-face  font-family="Informative" units-per-em="1000" ascent="770" descent="-230" font-style="normal" font-weight="300" font-stretch="normal" cap-height="642" x-height="469" underline-position="-75" underline-thickness="50" />
<missing-glyph  horiz-adv-x="710" d="M510 750 L200 750 C145 750 100 705 100 650 L100 -150 C100 -205 145 -250 200 -250 L510 -250 C565 -250 610 -205 610 -150 L610 650 C610 705 565 750 510 750 L510 750 Z M513 485 L454 530 L442 514 L471 492 L450 470 C445.6 465.4 440 462 433 462 C427.9 462 422.1 463.2 417 467 L350 517 L393 577 C404.7 593.3 418 600 438 600 C465 600 503 572 502 537 L495 525 L526 502 L513 485 Z M391 -94 L350 -94 L307 131 C264 185 237.7 230 242 286 L250 389 C253.7 436 286 476 326 476 C358 476 399 450 401 408 C403 367 393 293 387 247 L368 231 L337 309 C332.2 321.1 331.9 332 334 345 L343 402 L323 406 L314 349 C311.3 331.9 313.7 314.9 319 301 L351 217 L332 201 L285 272 L267 262 L329 171 L389 222 L410 -69 C410.9 -81 402 -94 391 -94 L391 -94 Z M311 -65 C305.8 -91 294 -94 277 -94 L248 -94 L268 56 L259 160 L288 123 L317 -35 L311 -65 Z " />
<glyph glyph-name="NULL" d="" />
<glyph glyph-name="CR" unicode="&#xd;" horiz-adv-x="250" d="" />
<glyph glyph-name="space" unicode="&#x20;" horiz-adv-x="284" d="" />
<glyph glyph-name="exclam" unicode="&#x21;" horiz-adv-x="252" d="M106.71 646.3 L110.97 150.78 L141.28 150.78 L145.26 646.3 L106.71 646.3 Z M125.9 -9.56999 C146.34 -9.56999 163.42 7.25002 163.42 27.91 C163.42 49.01 146.34 65.83 125.9 65.83 C105.46 65.83 88.35 49.01 88.35 27.91 C88.35 7.25002 105.46 -9.56999 125.9 -9.56999 L125.9 -9.56999 Z " />
<glyph glyph-name="quotedbl" unicode="&#x22;" horiz-adv-x="320" d="M90.32 462.5 L112.98 462.5 L123.94 649.79 L80.36 649.79 L90.32 462.5 Z M206.03 462.5 L228.7 462.5 L239.66 649.79 L196.07 649.79 L206.03 462.5 Z " />
<glyph glyph-name="numbersign" unicode="&#x23;" horiz-adv-x="678" d="M618.18 379.91 L627.57 411.72 L520.98 411.72 L588.23 615 L552.36 615 L485.12 411.72 L280.98 411.72 L348.23 615 L312.36 615 L245.12 411.72 L130.57 411.72 L121.18 379.91 L234.59 379.91 L169.69 183.72 L57.98 183.72 L48.6 151.91 L159.17 151.91 L93.36 -47 L129.23 -47 L195.03 151.91 L399.17 151.91 L333.36 -47 L369.23 -47 L435.03 151.91 L545.6 151.91 L554.98 183.72 L445.56 183.72 L510.46 379.91 L618.18 379.91 Z M409.69 183.72 L205.56 183.72 L270.46 379.91 L474.59 379.91 L409.69 183.72 Z " />
<glyph glyph-name="dollar" unicode="&#x24;" horiz-adv-x="525" d="M462.41 167.11 C462.41 279.56 384.43 316.54 303.42 343.57 C298.26 345.29 293.09 346.97 287.91 348.64 L287.91 618.44 C347.57 614.51 386.79 594.11 427.94 562.19 L448.1 592.36 C406.55 626.06 359.08 650.08 287.91 654.11 L287.91 718.38 L255.73 718.38 L255.73 654.52 C144.65 650.43 77.4 581.11 77.4 492.31 C77.4 374.69 167.32 345.2 255.73 317.58 L255.73 26.04 C171.11 27.04 117.81 57.62 79.92 97.38 L56.76 69.85 C97.11 29.55 155.24 -8.5 255.73 -9.55 L255.73 -73.24 L287.91 -73.24 L287.91 -8.37001 C397.25 1.27998 462.41 68.36 462.41 167.11 L462.41 167.11 Z M114.46 493.73 C114.46 563.57 167.35 615.19 255.73 618.91 L255.73 358.91 C180.97 383.12 114.46 410.45 114.46 493.73 L114.46 493.73 Z M287.91 27.39 L287.91 307.38 C360.81 283.49 425.1 253.91 425.1 166.54 C425.1 89.97 376.75 36.49 287.91 27.39 L287.91 27.39 Z " />
<glyph glyph-name="percent" unicode="&#x25;" horiz-adv-x="756" d="M187.79 349.38 C271.12 349.38 324.34 412.95 324.34 492.21 C324.34 571.47 271.12 635.05 187.79 635.05 C103.96 635.05 51.03 571.47 51.03 492.21 C51.03 412.95 103.96 349.38 187.79 349.38 L187.79 349.38 Z M138.14 -33.69 L176.88 -33.69 L605.79 622.65 L567.06 622.65 L138.14 -33.69 Z M187.79 379.71 C119.53 379.71 84.06 430.25 84.06 492.21 C84.06 552.88 119.53 604.71 187.79 604.71 C256.49 604.71 291.31 552.88 291.31 492.21 C291.31 430.25 256.49 379.71 187.79 379.71 L187.79 379.71 Z M567.45 -6.84001 C650.78 -6.84001 704 56.74 704 136 C704 215.26 650.78 278.83 567.45 278.83 C482.9 278.83 430.61 215.26 430.61 136 C430.61 56.74 482.9 -6.84001 567.45 -6.84001 L567.45 -6.84001 Z M567.45 23.5 C498.47 23.5 463.65 74.04 463.65 136 C463.65 196.67 498.47 248.5 567.45 248.5 C636.5 248.5 670.96 196.67 670.96 136 C670.96 74.04 636.5 23.5 567.45 23.5 L567.45 23.5 Z " />
<glyph glyph-name="ampersand" unicode="&#x26;" horiz-adv-x="621" d="M594.68 0 L479.59 118.14 C501.39 165.39 512.37 224.21 512.37 291.97 L512.37 314.84 L474.8 314.84 L474.8 291.97 C474.8 234.46 467.75 185.29 453.01 145.43 L257.9 345.73 C331.38 387.61 404.31 429.39 404.31 518.04 C404.31 594.18 342.68 654.71 253.61 654.71 C167.72 654.71 107.45 597.22 107.45 519.37 C107.45 466.97 134.99 422.57 202.95 351.5 C134.67 311.39 71.05 263.27 71.05 168.81 C71.05 61.61 152.36 -9.56999 273.71 -9.56999 C359.92 -9.56999 423.09 25.51 462.7 87.19 L548.53 0 L594.68 0 Z M144.45 519.37 C144.45 580.97 187.25 622.53 253.61 622.53 C322.62 622.53 367.31 577.38 367.31 518.04 C367.31 444.93 303.34 408.37 234.85 369.73 C168.44 439.12 144.45 473.77 144.45 519.37 L144.45 519.37 Z M274.56 25.45 C173.31 25.45 108.2 83.97 108.2 168.81 C108.2 247.55 163.45 290.09 226.22 327.42 L437.85 112.44 C405.88 55.87 352.41 25.45 274.56 25.45 L274.56 25.45 Z " />
<glyph glyph-name="quotesingle" unicode="&#x27;" horiz-adv-x="204" d="M90.32 462.5 L112.98 462.5 L123.94 649.79 L80.36 649.79 L90.32 462.5 Z " />
<glyph glyph-name="parenleft" unicode="&#x28;" horiz-adv-x="269" d="M72.05 251.86 C72.05 106.42 106.69 -26.31 177.95 -159.66 L211.42 -144.82 C141.63 -14.47 110.17 109.18 110.75 251.86 C110.17 394.55 141.63 518.2 211.42 648.55 L177.95 663.39 C106.69 530.04 72.05 397.31 72.05 251.86 L72.05 251.86 Z " />
<glyph glyph-name="parenright" unicode="&#x29;" horiz-adv-x="269" d="M196.42 251.86 C196.42 397.31 161.79 530.04 90.52 663.39 L57.05 648.55 C126.84 518.2 158.3 394.55 157.72 251.86 C158.3 109.18 126.84 -14.47 57.05 -144.82 L90.52 -159.66 C161.79 -26.31 196.42 106.42 196.42 251.86 L196.42 251.86 Z " />
<glyph glyph-name="asterisk" unicode="&#x2a;" horiz-adv-x="361" d="M286.84 559.47 L273.48 597.42 L189.84 556.46 L199.73 649.12 L159.37 649.12 L170.55 556.46 L86.98 597.42 L73.62 559.47 L165.38 538.22 L101.55 467.07 L134.48 443.89 L180.22 526.35 L225.98 443.89 L258.91 467.07 L195.09 538.22 L286.84 559.47 Z " />
<glyph glyph-name="plus" unicode="&#x2b;" horiz-adv-x="518" d="M450.64 260.13 L276.06 260.13 L276.06 435.85 L240.49 435.85 L240.49 260.13 L66.12 260.13 L66.12 227.4 L240.49 227.4 L240.49 51.4 L276.06 51.4 L276.06 227.4 L450.64 227.4 L450.64 260.13 Z " />
<glyph glyph-name="comma" unicode="&#x2c;" horiz-adv-x="239" d="M118.73 65.83 C98.29 65.83 81.18 49.01 81.18 28.35 C81.18 9.70999 94.76 -8.78001 118.44 -9.51001 C117.79 -34.9 110.75 -68.12 86.38 -104.37 L104.79 -116.95 C137.73 -72.51 156.25 -24.18 156.25 24.32 C156.25 51.01 139.17 65.83 118.73 65.83 L118.73 65.83 Z " />
<glyph glyph-name="hyphen" unicode="&#x2d;" horiz-adv-x="405" d="M88.05 235.06 L316.81 235.06 L316.81 266.95 L88.05 266.95 L88.05 235.06 Z " />
<glyph glyph-name="period" unicode="&#x2e;" horiz-adv-x="236" d="M155.57 28.35 C155.57 49.01 138.49 65.83 118.05 65.83 C97.61 65.83 80.5 49.01 80.5 28.35 C80.5 7.25 97.61 -9.57001 118.05 -9.57001 C138.49 -9.57001 155.57 7.25 155.57 28.35 L155.57 28.35 Z " />
<glyph glyph-name="slash" unicode="&#x2f;" horiz-adv-x="519" d="M41.6 -179.91 L78.18 -179.91 L477.04 661.07 L440.46 661.07 L41.6 -179.91 Z " />
<glyph glyph-name="zero" unicode="0" horiz-adv-x="601" d="M523.56 324.43 C523.56 528.52 449.09 654.71 300.29 654.71 C152.31 654.71 77.05 528.52 77.05 324.43 C77.05 120.09 151.49 -9.57001 300.29 -9.57001 C448.2 -9.57001 523.56 120.09 523.56 324.43 L523.56 324.43 Z M484.72 324.43 C484.72 142.99 430.46 26.01 300.29 26.01 C170.12 26.01 115.89 142.99 115.89 324.43 C115.89 503.6 170.12 619.13 300.29 619.13 C430.46 619.13 484.72 503.6 484.72 324.43 L484.72 324.43 Z " />
<glyph glyph-name="one" unicode="1" horiz-adv-x="340" d="M197.64 642 L37.18 544.08 L53.25 512.2 L191.69 595.29 L191.69 0 L227.77 0 L227.77 642 L197.64 642 Z " />
<glyph glyph-name="two" unicode="2" horiz-adv-x="514" d="M117.39 36.15 L105.38 35.61 L115.21 44.2 C307.18 236.99 432.43 338.47 432.43 471.47 C432.43 590.16 352.44 654.7 243.72 654.7 C162.89 654.7 99.27 611.44 64.55 569.17 L87.27 546.69 C118.63 581.2 171.07 619.27 242.9 619.27 C339.85 619.27 394.66 556.17 394.66 473.77 C394.66 370.56 321.06 293.36 62.53 43.22 L62.53 -0.0100098 L452.01 -0.0100098 L452.01 36.14 L117.39 36.15 Z " />
<glyph glyph-name="three" unicode="3" horiz-adv-x="536" d="M331.77 345.68 C386.64 366.31 429.77 419.68 429.77 494.08 C429.77 594.02 353.16 654.71 244.62 654.71 C177.35 654.71 116.03 626.99 74.12 581.54 L97.94 559.27 C134.03 594.55 186.26 619.62 243.52 619.62 C333.08 619.62 392.26 567.07 392.26 490.19 C392.26 415.4 340.62 360.09 239.39 360.09 L197.42 360.12 L197.42 325.57 L240.54 325.57 C361.05 325.57 426.88 273.88 426.88 176.5 C426.88 84.93 355.35 25.45 252.86 25.45 C179.79 25.45 135.2 42.37 83.92 83.94 L62.63 55.77 C109.42 15.12 167.88 -9.57001 252.86 -9.57001 C377.11 -9.57001 464.39 66.4 464.39 175.4 C464.39 272.05 404.82 328.17 331.77 345.68 L331.77 345.68 Z " />
<glyph glyph-name="four" unicode="4" horiz-adv-x="544" d="M485.73 215.21 L406.6 215.23 L406.6 642 L370.45 642 L42.88 214.72 L42.88 180.63 L370.45 180.63 L370.45 1.52588e-05 L406.6 1.52588e-05 L406.6 180.63 L485.73 180.63 L485.73 215.21 Z M84.81 215.29 L370.45 585.55 L370.45 215.23 L84.81 215.29 Z " />
<glyph glyph-name="five" unicode="5" horiz-adv-x="529" d="M248.54 -9.57001 C375.43 -9.57001 461.25 61.74 461.25 186.87 C461.25 319.11 380.16 393.38 245.43 393.38 C194.64 393.38 150.62 376.83 131.3 367.5 L131.3 605 L436.03 605 L436.03 642 L95.43 642 L95.43 329.93 L118.5 325.49 C118.5 325.49 171.88 356.66 238.69 356.66 C363.93 356.66 424.59 294.46 424.59 186.02 C424.59 82.34 355.98 24.16 248.54 24.16 C169.71 24.16 125.11 56.16 93.11 83.43 L71.48 54.68 C107.9 26.54 157.06 -9.57999 248.54 -9.57999 L248.54 -9.57001 Z " />
<glyph glyph-name="six" unicode="6" horiz-adv-x="541" d="M288.39 379.23 C215.5 379.23 150.97 345.33 114.5 304.66 C145.04 500.8 296.83 592.13 425.47 621.48 L413.51 655.68 C248.39 617.4 72.33 487.86 72.33 231.26 C72.33 78.36 160.3 -9.56998 279.53 -9.56998 C398.26 -9.56998 481.03 66.27 481.03 187.76 C481.03 319.83 389.14 379.23 288.39 379.23 L288.39 379.23 Z M281.27 24.97 C182.54 24.97 108.99 102.31 108.99 230.96 C108.99 240.22 109.23 249.29 109.71 258.17 C144.85 303.06 207.44 342.49 285.93 342.49 C363.52 342.49 444.88 297.61 444.88 187.48 C444.88 83.07 380.39 24.97 281.27 24.97 L281.27 24.97 Z " />
<glyph glyph-name="seven" unicode="7" horiz-adv-x="473" d="M435.72 642 L37.3 642 L37.3 605 L396.51 605 C226.36 417.75 157.37 228.8 157.3 0 L195.26 0 C195.26 246.97 275.22 422.67 442.12 604.78 L435.72 642 Z " />
<glyph glyph-name="eight" unicode="8" horiz-adv-x="552" d="M358.68 336.78 C411.19 360 457.61 411.14 457.61 488.11 C457.61 591.15 381.06 654.77 276.27 654.77 C170.01 654.77 94.66 589.99 94.66 488.11 C94.66 411.57 140.56 360.58 192.72 337.17 C120.51 310.85 74.33 249.39 74.33 169.6 C74.33 53.67 165.32 -9.57002 276.05 -9.57002 C394.28 -9.57002 477.82 60.33 477.82 169.89 C477.82 256.62 425.56 312.34 358.68 336.78 L358.68 336.78 Z M130.55 486.19 C130.55 570.44 193.04 619.92 276.27 619.92 C357.59 619.92 421.74 571.83 421.74 486.19 C421.74 400.74 351.03 350.84 278.25 350.64 L274.05 350.64 C201.27 350.84 130.55 400.74 130.55 486.19 L130.55 486.19 Z M276.05 25.22 C185.57 25.22 110.48 74.64 110.48 168.71 C110.48 261.81 185.24 316.19 276.05 316.19 C375.79 316.19 441.64 254.11 441.64 168.71 C441.64 80.43 373.3 25.22 276.05 25.22 L276.05 25.22 Z " />
<glyph glyph-name="nine" unicode="9" horiz-adv-x="541" d="M257.19 654.71 C140.84 654.69 56.18 576.48 56.4 458.92 C56.61 341.18 131.64 264.7 245.68 264.7 C327.58 264.7 393.28 298.58 429.64 356.29 C414.57 160.46 280.79 63.83 146.33 24.61 L160.27 -8.88 C322.09 38.54 467.67 164.3 467.67 394.92 C467.67 544.21 396.01 654.71 257.19 654.71 L257.19 654.71 Z M248.06 301.7 C156.52 301.7 92.55 361.16 92.55 458.75 C92.55 554.58 155.84 619.16 255.55 619.88 C365.79 620.64 427.01 532.63 430.85 406.34 C396.35 343.59 335.01 301.7 248.06 301.7 L248.06 301.7 Z " />
<glyph glyph-name="colon" unicode="&#x3a;" horiz-adv-x="250" d="M162.4 394.18 C162.4 414.85 145.32 431.66 124.88 431.66 C104.44 431.66 87.33 414.85 87.33 394.18 C87.33 373.08 104.44 356.26 124.88 356.26 C145.32 356.26 162.4 373.08 162.4 394.18 L162.4 394.18 Z M162.4 28.35 C162.4 49.01 145.32 65.83 124.88 65.83 C104.44 65.83 87.33 49.01 87.33 28.35 C87.33 7.24998 104.44 -9.57002 124.88 -9.57002 C145.32 -9.57002 162.4 7.24998 162.4 28.35 L162.4 28.35 Z " />
<glyph glyph-name="semicolon" unicode="&#x3b;" horiz-adv-x="251" d="M163.12 394.18 C163.12 414.85 146.04 431.66 125.6 431.66 C105.16 431.66 88.05 414.85 88.05 394.18 C88.05 373.08 105.16 356.26 125.6 356.26 C146.04 356.26 163.12 373.08 163.12 394.18 L163.12 394.18 Z M124.99 65.83 C104.55 65.83 87.44 49.01 87.44 28.35 C87.44 9.70998 101.03 -8.78003 124.71 -9.51003 C124.06 -34.9 117.02 -68.12 92.65 -104.37 L111.05 -116.95 C143.99 -72.51 162.51 -24.18 162.51 24.32 C162.51 51.01 145.43 65.83 124.99 65.83 L124.99 65.83 Z " />
<glyph glyph-name="less" unicode="&#x3c;" horiz-adv-x="574" d="M59.18 217.63 L490.39 34.7 L490.39 71.82 L99.04 237.6 L490.39 403.39 L490.39 440.5 L59.18 257.58 L59.18 217.63 Z " />
<glyph glyph-name="equal" unicode="&#x3d;" horiz-adv-x="536" d="M90.76 298.36 L444.39 298.36 L444.39 331.81 L90.76 331.81 L90.76 298.36 Z M90.76 132.9 L444.39 132.9 L444.39 166.35 L90.76 166.35 L90.76 132.9 Z " />
<glyph glyph-name="greater" unicode="&#x3e;" horiz-adv-x="574" d="M514.4 217.63 L514.4 257.58 L83.2 440.5 L83.2 403.39 L474.54 237.6 L83.2 71.82 L83.2 34.7 L514.4 217.63 Z " />
<glyph glyph-name="question" unicode="&#x3f;" horiz-adv-x="456" d="M396.76 452.57 C396.76 569.89 315.36 646.69 203.74 646.83 C140.84 646.94 87.03 622.14 47.17 578.51 L69.41 553.63 C102.17 588.04 145.1 611.25 201.87 611.25 C296.98 611.25 359.76 545.92 359.76 452.51 C359.76 354.58 284.58 289.55 179.59 289.04 L172.53 288.98 L172.39 150.78 L209.39 150.78 L209.31 256.23 C329.71 268.86 396.76 355.68 396.76 452.57 L396.76 452.57 Z M152.4 27.91 C152.4 7.25003 169.48 -9.56998 189.92 -9.56998 C210.36 -9.56998 227.47 7.25003 227.47 27.91 C227.47 49.01 210.36 65.83 189.92 65.83 C169.48 65.83 152.4 49.01 152.4 27.91 L152.4 27.91 Z " />
<glyph glyph-name="at" unicode="&#x40;" horiz-adv-x="830" d="M430.58 631.11 C208.87 631.11 70.33 467.38 70.33 263.58 C70.33 61.05 210.18 -93.24 428.86 -93.24 C487.07 -93.24 547.15 -81.68 603.05 -50.22 L589.74 -18.63 C536.62 -48.15 481.81 -58.22 428.86 -58.22 C229.78 -58.22 106.76 79.23 106.76 263.58 C106.76 453.44 228.19 596.1 430.58 596.1 C612.54 596.1 732.76 466.71 732.76 303.58 C732.76 191.37 692.49 127.95 624.53 127.95 C581.97 127.95 554.35 152.54 554.35 195.09 L554.35 334.32 C554.35 428.3 494.21 463.48 419.48 463.48 C366.19 463.48 327.47 448.94 301.98 435.43 L311.91 406.31 C350.17 424.88 379.52 431.39 416.9 431.39 C477.33 431.39 520.4 404.14 520.4 333.93 L520.4 301.64 L419.34 301.64 C332.96 301.64 282.2 265.3 282.2 200.38 C282.2 135.17 330.01 97.61 400.6 97.61 C460.88 97.61 501.42 130.05 523.31 165.45 C533.77 123.12 571.51 96.63 621.13 96.63 C710.69 96.63 768.63 177.19 768.63 303.58 C768.63 483.73 632.15 631.11 430.58 631.11 L430.58 631.11 Z M407.2 127.66 C350.47 127.66 317.41 155.2 317.41 201.35 C317.41 242.79 346.12 275.21 420.12 275.21 L520.31 275.21 L520.4 206.78 L520.4 205.15 C507.77 166.59 468.2 127.66 407.2 127.66 L407.2 127.66 Z " />
<glyph glyph-name="A" unicode="A" horiz-adv-x="607" d="M525.81 0 L566.94 0 L318.83 642 L282.42 642 L44.05 0 L84.04 0 L157.99 204.22 L448.05 204.22 L525.81 0 Z M170.1 237.67 L287.15 560.89 L299.48 597.21 L312.29 560.78 L435.32 237.67 L170.1 237.67 Z " />
<glyph glyph-name="B" unicode="B" horiz-adv-x="581" d="M365.01 336.13 C443.99 360.12 479.63 413.75 479.63 487.03 C479.63 584.55 405.55 642 266.61 642 L113.91 642 L113.91 1.52588e-05 L293.68 1.52588e-05 C431.39 1.52588e-05 508.67 62.38 508.67 170.49 C508.67 259.85 463.01 316.42 365.01 336.13 L365.01 336.13 Z M267.41 608.55 C383.95 608.55 441.95 559.34 441.95 487.03 C441.95 409.39 393.44 349.8 268.36 349.8 L151.17 349.8 L151.17 608.55 L267.41 608.55 Z M291.95 34.01 L151.17 34.01 L151.17 315.5 L277.01 315.5 C409.57 315.5 470.69 262.62 470.69 170.49 C470.69 89.82 410.67 34.01 291.95 34.01 L291.95 34.01 Z " />
<glyph glyph-name="C" unicode="C" horiz-adv-x="606" d="M362.34 -9.57001 C456.88 -9.57001 516.78 21.99 559.07 58.87 L539.23 87.61 C499.34 51.93 447.15 26.01 362.45 26.01 C210.51 26.01 110.67 147.52 110.67 321 C110.67 496.3 212.67 619.13 368.2 619.13 C438.86 619.13 482.9 600.18 529.95 564.03 L550.96 593.56 C506.72 629.93 450.98 654.71 368.14 654.71 C191.92 654.71 71.76 515.57 71.76 321 C71.76 130.27 184.05 -9.56999 362.34 -9.56999 L362.34 -9.57001 Z " />
<glyph glyph-name="D" unicode="D" horiz-adv-x="673" d="M284.67 642 L113.91 642 L113.91 0 L287.32 0 C480.77 0 599.37 131.21 599.37 324.28 C599.37 512.52 485.46 642 284.67 642 L284.67 642 Z M288.3 34.3 L151.17 34.3 L151.17 607.13 L284.79 607.13 C461.78 607.13 560.18 492.78 560.18 323.71 C560.18 144.98 458.83 34.3 288.3 34.3 L288.3 34.3 Z " />
<glyph glyph-name="E" unicode="E" horiz-adv-x="548" d="M150.91 34.58 L150.91 316.65 L443.41 316.65 L443.41 351.23 L150.91 351.23 L150.91 607.13 L473.4 607.13 L473.4 642 L113.91 642 L113.91 0 L486.39 0 L486.39 34.58 L150.91 34.58 Z " />
<glyph glyph-name="F" unicode="F" horiz-adv-x="524" d="M475.28 606.85 L475.28 642 L113.91 642 L113.91 0 L151.17 0 L151.17 295.65 L440.26 295.65 L440.26 330.23 L151.17 330.23 L151.17 606.85 L475.28 606.85 Z " />
<glyph glyph-name="G" unicode="G" horiz-adv-x="652" d="M373.05 306.41 L373.05 270.98 L534.96 270.98 L534.96 68.85 C495.29 42.44 439.03 26.01 365.8 26.01 C204.67 26.01 110.67 148.91 110.67 320.71 C110.67 497.12 214.51 618.85 368.71 618.85 C444.23 618.85 489.98 599.3 538.24 562.9 L558.68 593.85 C514.96 629.65 456.3 654.71 368.74 654.71 C194.69 654.71 71.76 519.48 71.76 320.71 C71.76 126.36 188.61 -9.56999 365.29 -9.56999 C455.2 -9.56999 525.87 14.72 572.41 50.46 L572.41 306.41 L373.05 306.41 Z " />
<glyph glyph-name="H" unicode="H" horiz-adv-x="693" d="M541.1 642 L541.1 344.93 L151.17 344.93 L151.17 642 L113.91 642 L113.91 0 L151.17 0 L151.17 310.06 L541.1 310.06 L541.1 0 L578.35 0 L578.35 642 L541.1 642 Z " />
<glyph glyph-name="I" unicode="I" horiz-adv-x="307" d="M242.06 608.55 L242.06 642 L64.31 642 L64.31 608.55 L134.52 608.55 L134.52 33.45 L64.31 33.45 L64.31 0 L242.06 0 L242.06 33.45 L171.78 33.45 L171.78 608.55 L242.06 608.55 Z " />
<glyph glyph-name="J" unicode="J" horiz-adv-x="429" d="M320.86 642 L149.75 642 L149.75 608.55 L283.61 608.55 L283.61 153.23 C283.61 50.58 232.25 25.73 168.97 25.73 C122.08 25.73 87.6 46.35 63.09 69.92 L40.03 41.96 C62.21 20.75 104.85 -9.57002 169.08 -9.57002 C250 -9.57002 320.86 29.96 320.86 155.1 L320.86 642 Z " />
<glyph glyph-name="K" unicode="K" horiz-adv-x="565" d="M443.83 93.49 L265.64 348.34 L522.82 642 L475.52 642 L151.17 268.39 L151.17 642 L113.91 642 L113.91 1.52588e-05 L151.17 1.52588e-05 L151.17 217.63 L239.49 318.48 L409.52 75.38 C447.15 21.65 481.75 3.05176e-05 535.72 3.05176e-05 L535.72 33.45 C497.83 33.45 472.16 53 443.83 93.49 L443.83 93.49 Z " />
<glyph glyph-name="L" unicode="L" horiz-adv-x="490" d="M151.17 34.3 L151.17 642 L113.91 642 L113.91 0 L452.74 0 L452.74 34.3 L151.17 34.3 Z " />
<glyph glyph-name="M" unicode="M" horiz-adv-x="788" d="M637.2 642 L411.06 132.71 L400.13 106 L389.3 132.71 L150.91 642 L113.91 642 L113.91 0 L150.23 0 L150.23 524.45 L149.03 566.36 L157.61 544.71 L382.61 62 L415.71 62 L630.73 543.58 L639.23 566.99 L637.63 524.45 L637.63 1.52588e-05 L674.2 1.52588e-05 L674.2 642 L637.2 642 Z " />
<glyph glyph-name="N" unicode="N" horiz-adv-x="688" d="M536.59 642 L536.59 84.17 L537.33 61.99 L527.84 78.2 L149.57 642 L113.91 642 L113.91 1.52588e-05 L150.15 1.52588e-05 L150.15 557.13 L149.53 582.88 L162.12 560.41 L537.18 1.52588e-05 L572.82 1.52588e-05 L572.82 642 L536.59 642 Z " />
<glyph glyph-name="O" unicode="O" horiz-adv-x="731" d="M365.31 654.71 C186.28 654.71 71.76 512.47 71.76 322 C71.76 135.81 186.28 -9.57001 365.31 -9.57001 C544.39 -9.57001 658.83 137.2 658.83 322 C658.83 513.86 544.39 654.71 365.31 654.71 L365.31 654.71 Z M365.31 619.39 C524.31 619.39 620.24 496.93 620.24 322 C620.24 150.15 524.31 25.79 365.31 25.79 C206.36 25.79 110.36 150.15 110.36 322 C110.36 496.93 206.36 619.39 365.31 619.39 L365.31 619.39 Z " />
<glyph glyph-name="P" unicode="P" horiz-adv-x="564" d="M272.74 642 L113.91 642 L113.91 0 L151.17 0 L151.17 242 L273.11 242 C424.67 242 508.53 315.84 508.53 443.84 C508.53 562.81 428.98 641.98 272.74 641.98 L272.74 642 Z M272.85 275.73 L151.17 275.73 L151.17 607.68 L272.6 607.68 C406.37 607.68 469.39 537.69 469.39 443.84 C469.39 335.27 406.91 275.73 272.85 275.73 L272.85 275.73 Z " />
<glyph glyph-name="Q" unicode="Q" horiz-adv-x="731" d="M427.95 -3.2 C570.64 26.86 658.83 159.77 658.83 322 C658.83 513.86 544.39 654.71 365.31 654.71 C186.28 654.71 71.76 512.47 71.76 322 C71.76 135.81 186.28 -9.57001 365.31 -9.57001 C373.69 -9.57001 381.93 -9.25 390.02 -8.62 C446.64 -102.9 534.11 -142.93 610.11 -142.93 L610.11 -108.25 C552.72 -108.25 481.41 -79.83 427.95 -3.2 L427.95 -3.2 Z M110.36 322 C110.36 496.93 206.36 619.39 365.31 619.39 C524.31 619.39 620.24 496.93 620.24 322 C620.24 150.15 524.31 25.79 365.31 25.79 C206.36 25.79 110.36 150.15 110.36 322 L110.36 322 Z " />
<glyph glyph-name="R" unicode="R" horiz-adv-x="571" d="M422.37 93.49 L326.14 279.03 C430.68 295.4 493.39 359.57 493.39 452 C493.39 572.66 418.63 642 278.87 642 L113.91 642 L113.91 -1.52588e-05 L151.17 -1.52588e-05 L151.17 274.91 L270.82 274.91 C275.39 274.91 279.91 274.99 284.37 275.14 L389.05 75.38 C419.56 15.99 457.74 -1.52588e-05 509.4 -1.52588e-05 L509.4 33.45 C473.76 33.45 445.4 48.42 422.37 93.49 L422.37 93.49 Z M151.17 309.21 L151.17 607.26 L278.1 607.26 C397.09 607.26 455.11 548.06 455.11 451.43 C455.11 370.12 399.39 309.21 270.9 309.21 L151.17 309.21 Z " />
<glyph glyph-name="S" unicode="S" horiz-adv-x="533" d="M262.82 -9.57001 C388.92 -9.57001 465.26 60.22 465.26 167.11 C465.26 279.56 387.34 316.51 306.19 343.51 C214.62 373.93 117.31 392.94 117.31 493.73 C117.31 566.25 174.34 619.13 268.91 619.13 C341.26 619.13 384.81 597.85 430.79 562.19 L450.95 592.36 C405.32 629.36 352.53 654.7 269.05 654.7 C151.74 654.7 80.25 583.86 80.25 492.3 C80.25 361.69 191.25 339.64 287.55 308.49 C361.72 284.55 427.95 255.13 427.95 166.53 C427.95 82.3 369.44 26 262.88 26 C175.76 26 122.01 56.94 82.77 97.37 L59.61 69.84 C100.52 28.97 159.72 -9.58003 262.82 -9.58003 L262.82 -9.57001 Z " />
<glyph glyph-name="T" unicode="T" horiz-adv-x="549" d="M511.66 642 L36.73 642 L36.73 608.13 L255.24 608.13 L255.24 0 L292.5 0 L292.5 608.13 L511.66 608.13 L511.66 642 Z " />
<glyph glyph-name="U" unicode="U" horiz-adv-x="673" d="M336.84 -9.57001 C477.82 -9.57001 566.97 92.25 566.97 251.98 L566.97 642 L530 642 L530 251.98 C530 121.71 463.24 26.86 336.87 26.86 C211 26.86 143.96 121.71 143.96 251.98 L143.96 642 L106.2 642 L106.2 251.98 C106.2 92.25 196.28 -9.57001 336.84 -9.57001 L336.84 -9.57001 Z " />
<glyph glyph-name="V" unicode="V" horiz-adv-x="600" d="M518.57 642 L306.64 51.55 L303.02 40.86 L299.3 51.55 L80.32 642 L39.9 642 L281.36 0 L322.25 0 L557.34 642 L518.57 642 Z " />
<glyph glyph-name="W" unicode="W" horiz-adv-x="893" d="M810.47 642 L638.53 60.61 L632.94 40.14 L627.74 60.88 L470.37 584.86 L432.34 584.86 L265.49 57.45 L261.13 40.4 L256.63 57.8 L85.64 642 L44.6 642 L237.62 -1.52588e-05 L281.57 -1.52588e-05 L441.1 498.88 L451.28 534.93 L459.94 499.3 L609.39 -1.52588e-05 L652.94 -1.52588e-05 L847.87 642 L810.47 642 Z " />
<glyph glyph-name="X" unicode="X" horiz-adv-x="571" d="M533.47 0 L309.33 326.11 L524.76 642 L482.05 642 L286.99 352.69 L95.78 642 L52.43 642 L262.48 326.16 L32.05 0 L74.66 0 L284.77 299.89 L489.5 0 L533.47 0 Z " />
<glyph glyph-name="Y" unicode="Y" horiz-adv-x="591" d="M541.27 642 L499.21 642 L304.77 316.95 L297.85 303.23 L290.89 316.56 L86.39 642 L43.2 642 L277.51 268.61 L277.51 0 L314.77 0 L314.77 267.96 L541.27 642 Z " />
<glyph glyph-name="Z" unicode="Z" horiz-adv-x="555" d="M93.97 33.73 L108.12 52 L499.03 608.32 L499.03 642 L56.51 642 L56.51 607.98 L454.04 608.25 L438.15 586.53 L48.86 33.28 L48.86 0 L504.2 0 L504.2 33.73 L93.97 33.73 Z " />
<glyph glyph-name="bracketleft" unicode="&#x5b;" horiz-adv-x="288" d="M242.48 647.98 L242.48 682 L107.91 682 L107.91 -168 L242.48 -168 L242.48 -134 L145.48 -134 L145.48 647.97 L242.48 647.98 Z " />
<glyph glyph-name="backslash" unicode="&#x5c;" horiz-adv-x="519" d="M477.33 -179.91 L78.46 661.07 L41.88 661.07 L440.74 -179.91 L477.33 -179.91 Z " />
<glyph glyph-name="bracketright" unicode="&#x5d;" horiz-adv-x="288" d="M45 682 L45 647.98 L142 647.98 L142 -133.99 L45 -133.99 L45 -167.99 L179.57 -167.99 L179.57 682.01 L45 682 Z " />
<glyph glyph-name="asciicircum" unicode="&#x5e;" horiz-adv-x="515" d="M417.62 369.19 L452.92 369.19 L275.74 674.92 L238.78 674.92 L61.53 369.19 L97.48 369.19 L257.25 643.85 L417.62 369.19 Z " />
<glyph glyph-name="underscore" unicode="&#x5f;" horiz-adv-x="484" d="M37.16 -65.3 L446.65 -65.3 L446.65 -34.13 L37.16 -34.13 L37.16 -65.3 Z " />
<glyph glyph-name="grave" unicode="&#x60;" horiz-adv-x="253" d="M194.31 530.46 L210.02 551.02 L66.36 678.05 L41.37 646.23 L194.31 530.46 Z " />
<glyph glyph-name="a" unicode="a" horiz-adv-x="511" d="M434.22 1.55 C425.77 19.74 414.81 44.47 414.81 103.8 L414.81 310.31 C414.81 434.83 334.39 480.85 236.91 480.85 C170.89 480.85 121.1 465.54 84.95 447.14 L93.8 413.18 C148.21 438.36 186.41 445.26 234.85 445.26 C317.25 445.26 377.9 407.71 377.9 308.41 L377.9 262.81 L239.16 262.81 C124.06 262.81 57.33 213.93 57.33 127.7 C57.33 41.64 120.14 -9.57002 215.96 -9.57002 C298.21 -9.57002 350.58 36.31 378 78.85 C379.56 37.8 389.76 7.61998 398.27 -7.79002 L434.22 1.55 Z M222.02 24.6 C142.55 24.6 95.84 63.24 95.84 128.26 C95.84 186.01 135.76 231.21 239.25 231.35 L377.55 231.57 L377.53 124.99 C358.88 80.27 307.83 24.6 222.02 24.6 L222.02 24.6 Z " />
<glyph glyph-name="b" unicode="b" horiz-adv-x="565" d="M300.69 480.85 C232.97 480.85 167.47 447.77 131.91 390.93 L131.91 658.13 L94.91 658.13 L94.91 39.12 C149.36 6.3 202.59 -9.56999 264.64 -9.56999 C409.58 -9.56999 495.63 87.84 495.63 237.51 C495.63 390.29 430.79 480.85 300.69 480.85 L300.69 480.85 Z M266.08 24.88 C210.31 24.88 171.63 37.63 131.91 60.71 L131.91 344.03 C164.28 404.52 223.35 445.55 295.38 445.55 C405.59 445.55 457.43 370.14 457.43 237.51 C457.43 106.03 383.38 24.88 266.08 24.88 L266.08 24.88 Z " />
<glyph glyph-name="c" unicode="c" horiz-adv-x="499" d="M434.9 438.85 C401.49 462.57 356.06 480.85 295 480.85 C168.75 480.85 67.48 387.3 67.48 235 C67.48 79 165.02 -9.57001 291.11 -9.57001 C359.13 -9.57001 406.5 13.14 446.27 44.58 L428.2 74.84 C396.34 48.54 355.68 25.73 291.11 25.73 C176.49 25.73 105.71 112.46 105.71 235 C105.71 350.36 173.23 445.83 295.06 445.83 C353.58 445.83 392.29 429.96 426.81 404.75 L434.9 438.85 Z " />
<glyph glyph-name="d" unicode="d" horiz-adv-x="569" d="M487.24 1.55 C479.58 19.74 468.77 44.44 468.77 103.8 L468.77 658.13 L431.77 658.13 L431.77 449.85 C390.74 469.69 347.21 480.85 297.94 480.85 C156.23 480.85 67.76 387.4 67.76 233.43 C67.76 84.95 143.55 -9.56999 266.77 -9.56999 C335.44 -9.56999 397.79 22.82 432 79.63 C433.49 40.96 441.79 10.11 451.25 -7.78999 L487.24 1.55 Z M272.22 25.73 C168.89 26.1 105.96 105.27 105.96 233.43 C105.96 369.22 182.42 446.4 296.58 446.4 C353.17 446.4 392.88 432.35 431.77 409.91 L431.77 126.93 C399.89 65.48 344.27 25.46 272.22 25.73 L272.22 25.73 Z " />
<glyph glyph-name="e" unicode="e" horiz-adv-x="539" d="M473.4 236.06 C474.13 242.3 475.31 255.2 475.31 269.83 C475.31 398.45 394.57 480.85 281.25 480.85 C166.91 480.85 67.48 387.54 67.48 234.71 C67.48 73.68 159.68 -9.57001 290.14 -9.57001 C366.99 -9.57001 417.75 17.52 454.71 46.51 L438.42 77.32 C410.86 54.81 368.04 25.73 290.73 25.73 C175.1 25.73 105.96 104.04 105.96 233.3 L106.04 236.06 L473.4 236.06 Z M281.25 446.11 C361.84 446.11 436.71 391.23 436.71 267.81 L107.45 267.81 C117.12 370.37 182.71 446.11 281.25 446.11 L281.25 446.11 Z " />
<glyph glyph-name="f" unicode="f" horiz-adv-x="330" d="M262.41 626.68 C295.51 626.68 318.81 617.32 342.88 601.17 L352.26 634.38 C334.39 646.45 305.31 661.13 263.08 661.13 C193.2 661.13 119.19 615.43 119.19 501.86 L119.19 468.56 L49.45 468.56 L49.45 435.11 L119.19 435.11 L119.19 0 L155.65 0 L155.65 435.11 L299.79 435.11 L299.79 468.56 L155.65 468.56 L155.65 506.56 C155.65 593.42 207.36 626.68 262.41 626.68 L262.41 626.68 Z " />
<glyph glyph-name="g" unicode="g" horiz-adv-x="519" d="M312.73 61.5 L208.68 61.5 C142.7 61.5 131.31 103.98 131.31 129.7 C131.31 156.32 143.92 174.86 156.62 185.33 C184.07 169.09 217.79 160 255.65 160 C358.5 160 431.14 226.15 431.14 320.46 C431.14 358.63 419.34 392.17 398.54 418.58 C439.78 434.97 472.41 470.04 474.55 528.36 L437.24 533.91 C437.05 481.22 411.29 451.51 376.33 441.29 C346.03 466.37 304.83 480.85 257.03 480.85 C154.21 480.85 81.47 414.77 81.47 320.46 C81.47 273.77 99.13 233.98 129.36 205.7 C110.99 187.64 94.52 163.68 94.52 128.65 C94.52 97.79 107.89 64.48 139.87 45.01 C99.56 30.82 59.76 -4.45003 59.76 -62.78 C59.76 -145.92 133.06 -194.23 262.86 -194.23 C390.56 -194.23 470.75 -147.5 470.75 -60.65 C470.75 24.33 397.66 61.5 312.73 61.5 L312.73 61.5 Z M118.02 320.46 C118.02 395.36 174.64 447.25 256.38 447.25 C337.8 447.25 394.65 395.25 394.65 320.46 C394.65 245.54 337.74 193.51 256.35 193.51 C174.87 193.51 118.02 245.54 118.02 320.46 L118.02 320.46 Z M262.86 -159.5 C159.2 -159.5 97.93 -124.99 97.93 -61.99 C97.93 2.25996 155.59 28.15 212.52 28.15 L312.3 28.15 C380.22 28.15 432.61 0.869965 432.61 -60.65 C432.61 -124.75 371.41 -159.5 262.86 -159.5 L262.86 -159.5 Z " />
<glyph glyph-name="h" unicode="h" horiz-adv-x="568" d="M305.65 480.85 C226.58 480.85 165.79 439.38 134.89 390.67 L134.89 658.13 L97.63 658.13 L97.63 0 L134.89 0 L134.89 344.14 C155.19 383.07 206.78 445.26 300.34 445.26 C392.49 445.26 438.99 390.02 438.99 280.05 L438.99 -1.52588e-05 L476.25 -1.52588e-05 L476.25 283.68 C476.25 416.12 416.69 480.85 305.65 480.85 L305.65 480.85 Z " />
<glyph glyph-name="i" unicode="i" horiz-adv-x="242" d="M156.29 604.41 C156.29 622.8 141.43 638.48 122.76 638.48 C104.26 638.48 88.69 622.8 88.69 604.41 C88.69 585.31 104.54 570.35 122.76 570.35 C141.43 570.35 156.29 585.31 156.29 604.41 L156.29 604.41 Z M143.87 468.56 L57.23 468.56 L57.23 435.11 L106.62 435.11 L106.62 0 L143.87 0 L143.87 468.56 Z " />
<glyph glyph-name="j" unicode="j" horiz-adv-x="254" d="M168.87 604.41 C168.87 622.8 154.02 638.48 135.34 638.48 C116.85 638.48 101.28 622.8 101.28 604.41 C101.28 585.31 117.13 570.35 135.34 570.35 C154.02 570.35 168.87 585.31 168.87 604.41 L168.87 604.41 Z M156.46 468.56 L62.65 468.56 L62.65 435.11 L119.46 435.11 L120 -36.16 C120 -126.54 72.25 -159.7 26.28 -159.7 C-12.75 -159.7 -34.58 -145.2 -54.91 -127.38 L-73.09 -156.93 C-59.07 -168.62 -30.45 -194.15 27.35 -194.15 C93.75 -194.15 156.46 -144.64 156.46 -35.4 L156.46 468.56 Z " />
<glyph glyph-name="k" unicode="k" horiz-adv-x="481" d="M386.75 72.58 L231.17 265.49 L433.42 468.56 L386.37 468.56 L134.63 217.72 L134.63 658.13 L97.63 658.13 L97.63 1.52588e-05 L134.63 1.52588e-05 L134.63 168.56 L203.96 238.17 L358.06 49.47 C386.06 15.19 416.3 0.030014 453.23 0.030014 L453.23 33.45 C431.28 33.45 409.79 44.11 386.75 72.58 L386.75 72.58 Z " />
<glyph glyph-name="l" unicode="l" horiz-adv-x="254" d="M134.63 658.13 L97.35 658.13 L97.35 80.12 C97.35 15.65 127.44 -7.56999 177 -7.56999 C200.28 -7.56999 215.89 -2.28999 222.24 -0.0899963 L222.24 32.61 C215.99 30.42 203.85 25.25 181.72 25.25 C149.3 25.25 134.63 42.22 134.63 82.9 L134.63 658.13 Z " />
<glyph glyph-name="m" unicode="m" horiz-adv-x="866" d="M612.47 480.85 C530.72 480.85 472.45 436.68 442.71 383.48 C420.26 448.74 371.23 480.85 296.38 480.85 C222.76 480.85 165.92 440.36 136.29 392.41 C134.64 430.18 126.4 460.82 117.05 478.5 L80.8 469.16 C88.51 450.97 99.33 426.27 99.33 366.91 L99.33 0 L136.58 0 L136.58 344.29 C155.53 383.23 203.46 445.26 291.15 445.26 C378.36 445.26 419.62 390.02 419.62 280.05 L419.62 -1.52588e-05 L456.88 -1.52588e-05 L456.88 283.68 C456.88 305.7 455.38 325.84 452.39 344.13 C471.24 383.06 519.49 445.26 607.27 445.26 C694.5 445.26 736.33 390.02 736.33 280.05 L736.33 -4.57764e-05 L773.59 -4.57764e-05 L773.59 283.68 C773.59 416.12 718.77 480.85 612.47 480.85 L612.47 480.85 Z " />
<glyph glyph-name="n" unicode="n" horiz-adv-x="570" d="M307.22 480.85 C228.13 480.85 167.31 439.5 136.29 390.9 C134.81 429.36 126.5 460.59 117.05 478.5 L80.8 469.16 C88.45 450.97 99.27 426.27 99.27 366.91 L99.27 0 L136.53 0 L136.53 344 C156.77 382.92 208.31 445.26 301.98 445.26 C394.15 445.26 440.69 390.02 440.69 280.05 L440.69 -1.52588e-05 L477.94 -1.52588e-05 L477.94 283.68 C477.94 416.12 418.44 480.85 307.22 480.85 L307.22 480.85 Z " />
<glyph glyph-name="o" unicode="o" horiz-adv-x="589" d="M295.87 480.85 C165.49 480.85 66.76 375.08 66.76 233.85 C66.76 90.29 161.11 -9.56999 292.87 -9.56999 C422.53 -9.56999 522.03 96.03 522.03 236.71 C522.03 377.95 428.27 480.85 295.87 480.85 L295.87 480.85 Z M293.67 26.01 C177.5 26.01 104.99 114.99 104.99 233.85 C104.99 348.98 178.22 445.26 295.1 445.26 C411.17 445.26 483.81 353.23 483.81 236.66 C483.81 117.8 410.45 26.01 293.67 26.01 L293.67 26.01 Z " />
<glyph glyph-name="p" unicode="p" horiz-adv-x="569" d="M305.27 480.85 C237.41 480.85 171.58 447.63 136.05 390.57 C134.62 429.48 126.28 460.52 116.79 478.5 L80.8 469.16 C88.45 450.97 99.27 426.27 99.27 366.91 L99.27 -188.85 L136.27 -188.85 L136.27 19.36 C177.12 0.170013 220.62 -9.56999 269.02 -9.56999 C413.88 -9.56999 499.93 92.37 499.93 239.21 C499.93 389.81 435.37 480.85 305.27 480.85 L305.27 480.85 Z M270.38 24.88 C214.67 24.88 174.85 37.49 136.27 60.57 L136.27 344.11 C169 405.03 228.29 445.55 300.04 445.55 C410.25 445.55 461.73 369.66 461.73 239.21 C461.73 110.56 387.68 24.88 270.38 24.88 L270.38 24.88 Z " />
<glyph glyph-name="q" unicode="q" horiz-adv-x="564" d="M297.94 480.85 C156.23 480.85 67.76 385.7 67.76 231.73 C67.76 83.25 141.85 -9.56999 265.07 -9.56999 C333.66 -9.56999 397.14 22.74 431.77 79.44 L431.77 -188.85 L468.77 -188.85 L468.77 431.73 C414.18 465.33 361.09 480.85 297.94 480.85 L297.94 480.85 Z M270.3 25.73 C166.97 25.73 105.97 103.57 105.97 231.73 C105.97 367.52 182.43 446.4 296.59 446.4 C353.27 446.4 392.04 433.9 431.78 410.37 L431.78 126.94 C399.82 65.5 342.65 25.73 270.31 25.73 L270.3 25.73 Z " />
<glyph glyph-name="r" unicode="r" horiz-adv-x="369" d="M294.54 480.88 C217.74 480.88 164.49 433.38 136.53 373.91 L136.53 378.67 C136.53 422.72 127.49 458.72 117.05 478.5 L80.8 469.16 C88.45 450.97 99.27 426.27 99.27 366.91 L99.27 0 L136.53 0 L136.53 314.64 C154.51 370.79 196.64 444.7 290.78 444.7 C306.74 444.7 322.01 441.38 332.94 437.54 L342.03 473.57 C328.56 477.91 309.84 480.88 294.54 480.88 L294.54 480.88 Z " />
<glyph glyph-name="s" unicode="s" horiz-adv-x="460" d="M236.63 480.85 C140.33 480.85 72.86 433.44 72.86 354.6 C72.86 273.09 134.33 246.8 223.38 227.65 C322.14 206.25 361.57 183.83 361.57 121.85 C361.57 65.36 315.72 24.88 223.68 24.88 C151.12 24.88 104.12 52.3 76.51 74.67 L60.92 43 C96.16 15.01 153.98 -9.56998 223.38 -9.56998 C333.13 -9.56998 398.58 40.33 398.58 121.85 C398.58 217.69 330.64 243.15 235.44 263.95 C163.3 279.51 109.76 296.26 109.76 356.5 C109.76 412.4 159.45 446.4 236.64 446.4 C297.71 446.4 336.91 431.7 371.64 413.21 L379.5 447.08 C352.63 461.51 306.98 480.85 236.64 480.85 L236.63 480.85 Z " />
<glyph glyph-name="t" unicode="t" horiz-adv-x="369" d="M331.86 57.02 C312.27 40.25 289.09 24.88 248.06 24.88 C200.88 24.88 152.11 52.2 152.11 149.38 L152.11 436.53 L315.05 436.53 L315.05 468.56 L152.11 468.56 L152.11 595.43 L114.85 585.8 L114.85 468.56 L36.6 468.56 L36.6 436.53 L114.85 436.53 L114.85 136.99 C114.85 33.73 176.85 -9.57001 245.79 -9.57001 C301.32 -9.57001 333.75 15.39 349.07 29.18 L331.86 57.02 Z " />
<glyph glyph-name="u" unicode="u" horiz-adv-x="564" d="M482.91 1.55 C475.33 19.74 464.44 44.44 464.44 103.8 L464.44 468.56 L427.19 468.56 L427.19 128.03 C408.74 82.95 356.64 25.19 270.75 25.19 C167.09 25.19 129.89 90.76 129.89 186.83 L129.89 468.56 L92.63 468.56 L92.63 172.44 C92.63 61.36 146.57 -10.39 265.6 -10.39 C344.33 -10.39 399.45 31.53 427.53 77.26 C429.29 39.97 437.49 9.73001 446.74 -7.78999 L482.91 1.55 Z " />
<glyph glyph-name="v" unicode="v" horiz-adv-x="506" d="M420.36 468.56 L254.43 35.37 L85.09 468.56 L43.48 468.56 L230.65 0 L275.79 0 L461.06 468.56 L420.36 468.56 Z " />
<glyph glyph-name="w" unicode="w" horiz-adv-x="739" d="M653.05 468.56 L521.9 36.83 L390.79 468.56 L347.39 468.56 L219.59 36.65 L85.9 468.56 L45.76 468.56 L196.28 0 L241.81 0 L369.14 425.59 L497.91 0 L543.42 0 L692.9 468.56 L653.05 468.56 Z " />
<glyph glyph-name="x" unicode="x" horiz-adv-x="481" d="M443.56 0 L263.58 238.41 L425.81 468.56 L384.45 468.56 L241.5 262.51 L88.95 468.56 L45.33 468.56 L215.4 238.34 L43.2 0 L83.56 0 L237.89 214.26 L399.33 0 L443.56 0 Z " />
<glyph glyph-name="y" unicode="y" horiz-adv-x="506" d="M463.06 468.56 L422.36 468.56 L256.43 35.37 L87.09 468.56 L45.48 468.56 L232.65 0 L241.69 0 L209.26 -78.17 C190.62 -122.92 161.28 -159.78 86.83 -159.78 L86.83 -194.23 C156.11 -194.23 207.79 -174.73 243.26 -86.17 L277.84 0 L277.79 0 L463.06 468.56 Z " />
<glyph glyph-name="z" unicode="z" horiz-adv-x="475" d="M93.44 32.16 L415.82 431.05 L415.82 468.56 L60.81 468.56 L60.81 436.4 L378.13 436.4 L53.01 37.28 L53.01 0 L422.73 0 L422.73 32.16 L93.44 32.16 Z " />
<glyph glyph-name="braceleft" unicode="&#x7b;" horiz-adv-x="309" d="M167 367 L167 573.96 C167 619.82 186.44 647.98 231.15 647.98 L264.72 647.98 L264.72 682 L231.15 682 C160.98 682 129.44 637 129.44 573.97 L129.44 367.01 C129.44 305.16 111.44 275.51 67.44 275.51 L49.6 275.51 L49.6 238.51 L67.44 238.51 C111.44 238.51 129.44 208.86 129.44 147.01 L129.44 -59.96 C129.44 -122.98 160.98 -167.98 231.15 -167.98 L264.72 -167.98 L264.72 -133.98 L231.15 -133.98 C186.44 -133.98 167 -105.81 167 -59.96 L167 147.01 C167 195.94 153.4 238.69 119.66 257.01 C153.4 275.33 167 318.08 167 367.01 L167 367 Z " />
<glyph glyph-name="bar" unicode="&#x7c;" horiz-adv-x="251" d="M107.91 -75.85 L142.65 -75.85 L142.65 678.55 L107.91 678.55 L107.91 -75.85 Z " />
<glyph glyph-name="braceright" unicode="&#x7d;" horiz-adv-x="309" d="M242 275.5 C198 275.5 180 305.15 180 367 L180 573.96 C180 636.99 148.46 681.99 78.29 681.99 L44.72 681.99 L44.72 647.97 L78.29 647.97 C123 647.97 142.44 619.81 142.44 573.95 L142.44 366.99 C142.44 318.06 156.05 275.31 189.78 256.99 C156.05 238.67 142.44 195.92 142.44 146.99 L142.44 -59.98 C142.44 -105.83 123 -134 78.29 -134 L44.72 -134 L44.72 -168 L78.29 -168 C148.46 -168 180 -123 180 -59.98 L180 146.99 C180 208.84 198 238.49 242 238.49 L259.84 238.49 L259.84 275.49 L242 275.5 Z " />
<glyph glyph-name="asciitilde" unicode="&#x7e;" horiz-adv-x="560" d="M118.1 190.08 C131.23 216.51 157.52 233.94 196.26 233.94 C250.22 233.94 301.64 191.49 363.05 191.49 C412.32 191.49 451.43 215.26 471.04 257.14 L441.07 273.06 C428.01 245.49 401.71 227.21 363.05 227.21 C312.34 227.21 257.37 269.66 196.26 269.66 C147.13 269.66 108.66 246.18 88.48 205.14 L118.1 190.08 Z " />
<glyph glyph-name="exclamdown" unicode="&#xa1;" horiz-adv-x="241" d="M157.42 452.75 C157.42 473.41 140.34 490.23 119.9 490.23 C99.46 490.23 82.35 473.41 82.35 452.75 C82.35 431.65 99.46 414.83 119.9 414.83 C140.34 414.83 157.42 431.65 157.42 452.75 L157.42 452.75 Z M100.71 -165.64 L139.26 -165.64 L135.28 329.88 L104.97 329.88 L100.71 -165.64 Z " />
<glyph glyph-name="cent" unicode="&#xa2;" horiz-adv-x="511" d="M448.12 140.47 L430.05 170.74 C399.34 145.39 360.46 123.28 299.88 121.71 L299.88 522.85 C356.75 522.31 394.72 506.55 428.66 481.78 L436.75 515.88 C403.89 539.2 359.42 557.27 299.88 557.86 L299.88 652.21 L267.85 652.21 L267.85 556.26 C155.44 543.53 69.33 456.51 69.33 321.46 C69.33 181.61 154.15 98.11 267.85 87.48 L267.85 -13.58 L299.88 -13.58 L299.88 86.41 C364.22 87.89 409.72 110.11 448.12 140.47 L448.12 140.47 Z M107.56 321.46 C107.56 422.55 164.39 507.67 267.85 521.04 L267.85 123.01 C168.09 134.28 107.56 213.25 107.56 321.46 L107.56 321.46 Z " />
<glyph glyph-name="sterling" unicode="&#xa3;" horiz-adv-x="561" d="M166.4 35 C184.73 90.51 192.73 158.32 192.73 231.67 C192.73 251.55 191.03 271.1 188.42 290.35 L398.31 290.35 L398.31 323.8 L183.07 323.8 C173.84 375.13 161.31 424.39 161.31 472.12 C161.31 541.99 211.01 619.25 320.85 619.25 C380.57 619.25 430.56 597.89 465.9 569.4 L487.81 598.15 C448.94 630.07 401.27 653.99 320.85 653.99 C198.2 653.99 124.31 572.61 124.31 468.57 C124.31 421.36 136.47 373.36 145.66 323.81 L66.29 323.81 L66.29 290.36 L151.21 290.36 C153.94 271.07 155.73 251.52 155.73 231.68 C155.73 156.82 146.41 88.15 128 35.01 L66.29 35.01 L66.29 0.00997925 L493.98 0.00997925 L493.98 35.01 L166.4 35 Z " />
<glyph glyph-name="currency" unicode="&#xa4;" horiz-adv-x="644" d="M548.99 328.56 C548.99 385.78 530.37 436.71 498.52 475.93 L554.9 533.16 L528.44 559.48 L472.44 502.89 C432.74 537.37 380.11 557.68 320.66 557.68 C262.35 557.68 210.62 538.13 171.21 504.82 L115.6 561.03 L89.14 534.57 L144.76 478.19 C111.8 438.68 92.46 386.89 92.46 328.56 C92.46 269.69 112.17 217.5 145.72 177.86 L92.22 123.66 L118.68 97.27 L172.33 151.47 C211.59 118.75 262.9 99.58 320.66 99.58 C379.35 99.58 431.4 119.36 470.92 153.02 L526.08 97.27 L552.47 123.73 L497.28 179.76 C529.89 219.16 548.99 270.63 548.99 328.56 L548.99 328.56 Z M320.09 135.44 C210.3 135.44 128.9 217.77 128.9 328.84 C128.9 440.27 210.3 522.38 320.09 522.38 C430.24 522.38 511.99 440.27 511.99 328.84 C511.99 217.77 430.24 135.44 320.09 135.44 L320.09 135.44 Z " />
<glyph glyph-name="yen" unicode="&#xa5;" horiz-adv-x="576" d="M532.16 642 L492.65 642 L296.8 327.42 L290.92 315.3 L284.69 327.35 L84.99 642 L43.57 642 L255.16 307.31 L123.28 307.31 L123.28 275.84 L270.18 275.84 L270.18 191.61 L123.28 191.61 L123.28 160.15 L270.18 160.15 L270.18 0 L308.03 0 L308.03 160.15 L453.65 160.15 L453.65 191.61 L308.03 191.61 L308.03 275.84 L453.65 275.84 L453.65 307.31 L322.93 307.31 L532.16 642 Z " />
<glyph glyph-name="brokenbar" unicode="&#xa6;" horiz-adv-x="249" d="M106.91 374.69 L141.65 374.11 L141.65 678.55 L106.91 678.55 L106.91 374.69 Z M106.91 -75.85 L141.65 -75.85 L141.65 228.58 L106.91 228.58 L106.91 -75.85 Z " />
<glyph glyph-name="section" unicode="&#xa7;" horiz-adv-x="545" d="M424.95 130.85 C453.48 156.03 469.08 190.17 469.08 231.09 C469.08 431.71 121.13 353.93 121.13 516.58 C121.13 577.03 178.15 619.44 272.73 619.44 C345.08 619.44 388.63 601.62 434.61 572.25 L454.76 602.42 C409.14 633.03 356.35 654.71 272.87 654.71 C155.56 654.71 84.07 595.09 84.07 514.75 C84.07 465.22 105.36 432.79 137.4 409.55 C103 384.56 84.07 348.9 84.07 306.83 C84.07 111.88 432.02 192.53 432.02 34.39 C432.02 -32.72 373.2 -77 272.39 -77 C184.85 -77 133.05 -52.58 92.88 -21.07 L71.51 -49.88 C114.63 -82.85 172.21 -112.27 272.25 -112.27 C394.72 -112.27 469.08 -52.5 469.08 36.08 C469.08 79.31 451.8 109.02 424.95 130.85 L424.95 130.85 Z M121.38 309.91 C121.38 342.58 136.72 371.83 169.12 390.77 C272.06 340.33 431.76 340.81 431.76 229.32 C431.76 197.7 419.76 170.14 394.51 150.61 C292.35 204.43 121.38 199.12 121.38 309.91 L121.38 309.91 Z " />
<glyph glyph-name="dieresis" unicode="&#xa8;" horiz-adv-x="366" d="M112.62 602.52 C112.62 620.25 98.5 635.22 80.54 635.22 C62.46 635.22 47.63 620.25 47.63 602.52 C47.63 583.76 62.75 569.5 80.54 569.5 C98.5 569.5 112.62 583.76 112.62 602.52 L112.62 602.52 Z M314.18 602.52 C314.18 620.25 299.75 635.22 281.79 635.22 C264.03 635.22 249.14 620.25 249.14 602.52 C249.14 583.76 264.28 569.5 281.79 569.5 C299.75 569.5 314.18 583.76 314.18 602.52 L314.18 602.52 Z " />
<glyph glyph-name="copyright" unicode="&#xa9;" horiz-adv-x="770" d="M698.08 310.94 C698.08 497.26 569.87 642.36 385.63 642.36 C200.87 642.36 72.33 497.26 72.33 310.94 C72.33 124.84 200.87 -19.48 385.63 -19.48 C569.87 -19.48 698.08 124.84 698.08 310.94 L698.08 310.94 Z M664.34 310.94 C664.34 144.01 551.18 12.61 385.63 12.61 C219.74 12.61 106.1 144.01 106.1 310.94 C106.1 479.49 219.74 610.27 385.63 610.27 C551.18 610.27 664.34 479.49 664.34 310.94 L664.34 310.94 Z M512.4 474.4 C486.59 493.45 448.9 509.34 398.16 509.34 C296.25 509.34 214.51 434.98 214.51 312.6 C214.51 187.75 292.35 117.02 395.52 117.02 C451.4 117.02 489.45 135.41 521.2 160.72 L503.37 190.38 C477.82 168.81 445.2 151.89 395.61 151.89 C308.44 151.89 254 217.7 254 312.86 C254 402.57 306.45 474.63 399.49 474.63 C444.27 474.63 474.71 462.99 504.15 440.98 L512.4 474.4 Z " />
<glyph glyph-name="ordfeminine" unicode="&#xaa;" horiz-adv-x="408" d="M328.98 351 C321.98 363.38 314.56 379.48 314.56 418.34 L314.56 549.52 C314.56 633.28 261.81 664.78 191.44 664.78 C145.61 664.78 111.52 653.39 88.49 641.66 L96.24 612.81 C129.62 628.36 155.66 633.86 189.06 633.86 C242.87 633.86 280.41 609.45 280.66 549.98 L280.77 523.03 L192.98 523.03 C116.29 523.03 70.98 490.05 70.98 432.45 C70.98 374.41 114.06 341.65 175.88 341.65 C226.86 341.65 261.44 368.41 281.16 398.32 C283.39 371.43 290.12 352.02 296.91 342.43 L328.98 351 Z M183.41 370.04 C133.82 370.04 105.73 394.05 105.73 433.77 C105.73 469.25 130.78 497.67 194.82 497.67 L280.59 497.67 L280.52 439.58 C271.37 405.64 236.8 370.04 183.41 370.04 L183.41 370.04 Z " />
<glyph glyph-name="guillemotleft" unicode="&#xab;" horiz-adv-x="436" d="M62.05 256.57 L187.07 111.34 L212.71 131.5 L105.92 256.57 L212.71 381.65 L187.07 401.81 L62.05 256.57 Z M199.06 256.57 L324.09 111.34 L349.73 131.5 L242.93 256.57 L349.73 381.65 L324.09 401.81 L199.06 256.57 Z " />
<glyph glyph-name="registered" unicode="&#xae;" horiz-adv-x="770" d="M385.63 642.36 C200.87 642.36 72.33 497.26 72.33 310.94 C72.33 124.84 200.87 -19.48 385.63 -19.48 C569.87 -19.48 698.08 124.84 698.08 310.94 C698.08 497.26 569.87 642.36 385.63 642.36 L385.63 642.36 Z M385.63 12.61 C219.74 12.61 106.1 144.01 106.1 310.94 C106.1 479.49 219.74 610.27 385.63 610.27 C551.18 610.27 664.34 479.49 664.34 310.94 C664.34 144.01 551.18 12.61 385.63 12.61 L385.63 12.61 Z M481.8 192.25 L429.65 291.04 C491.25 302.96 528.01 342.41 528.01 398.85 C528.01 472.82 481.98 513.87 391.75 513.87 L278.16 513.87 L278.16 126.88 L312.28 126.88 L312.28 287.26 L388.03 287.26 C389.19 287.26 390.35 287.26 391.51 287.26 L451.9 173.69 C472.56 135.18 496.63 126.01 533.15 126.01 L533.15 157.42 C511.42 157.42 495.12 166.93 481.8 192.23 L481.8 192.25 Z M388.56 317.48 L312.28 317.72 L312.28 483.56 L392.53 483.56 C459.67 483.56 492.55 451.76 492.55 397.88 C492.55 352.29 461.1 317.2 388.56 317.48 L388.56 317.48 Z " />
<glyph glyph-name="macron" unicode="&#xaf;" horiz-adv-x="347" d="M47.75 573.46 L296.01 573.46 L296.01 604.63 L47.75 604.63 L47.75 573.46 Z " />
<glyph glyph-name="degree" unicode="&#xb0;" horiz-adv-x="358" d="M179.18 451.08 C240.31 451.08 290.88 501.36 290.88 563.71 C290.88 625.85 240.31 676.13 179.18 676.13 C117.12 676.13 66.76 625.85 66.76 563.71 C66.76 501.36 117.12 451.08 179.18 451.08 L179.18 451.08 Z M179.46 479.07 C132.28 479.07 95.69 518.39 95.69 563.71 C95.69 610.31 132.28 648.35 179.46 648.35 C227.72 648.35 262.24 610.31 262.24 563.71 C262.24 518.39 227.72 479.07 179.46 479.07 L179.46 479.07 Z " />
<glyph glyph-name="plusminus" unicode="&#xb1;" horiz-adv-x="560" d="M262.7 114.3 L296 114.3 L296 280.95 L471.43 280.95 L471.43 313.68 L296 313.68 L296 478.91 L262.7 478.91 L262.7 313.68 L87.12 313.68 L87.12 280.95 L262.7 280.95 L262.7 114.3 Z M87.12 39.08 L87.12 6.35001 L471.72 6.35001 L471.72 39.08 L87.12 39.08 Z " />
<glyph glyph-name="acute" unicode="&#xb4;" horiz-adv-x="247" d="M56.31 530.75 L208.89 646.23 L184.18 677.48 L40.88 550.3 L56.31 530.75 Z " />
<glyph glyph-name="paragraph" unicode="&#xb6;" horiz-adv-x="585" d="M341.24 20 L375.66 20 L375.66 642 L268.5 642 C139.1 642 53.9 553.8 53.9 441 C53.9 318 144.1 237 267.2 237 L341.24 237 L341.24 20 Z M442.23 642 L442.23 42.83 C442.23 -33.43 415.04 -70.87 337.83 -70.87 L337.83 -105.04 C435.52 -105.04 476.65 -50.88 476.65 42.83 L476.65 642 L442.23 642 Z " />
<glyph glyph-name="periodcentered" unicode="&#xb7;" horiz-adv-x="247" d="M123.41 292.5 C143.23 292.5 159.91 308.46 159.91 329 C159.91 348.81 143.23 364.78 123.41 364.78 C103.6 364.78 86.91 348.81 86.91 329 C86.91 308.46 103.6 292.5 123.41 292.5 L123.41 292.5 Z " />
<glyph glyph-name="cedilla" unicode="&#xb8;" horiz-adv-x="251" d="M109.39 3.11 L83.89 -62.39 C140.27 -66.54 169.42 -79.7 169.42 -114.3 C169.42 -147.72 138.09 -160.94 106.25 -160.94 C82.92 -160.94 64.99 -153.18 54.88 -147.51 L43.26 -173.72 C51.92 -179.57 78.5 -189.29 107.59 -189.29 C151.37 -189.29 203.87 -170.49 203.87 -112.25 C203.87 -65.72 170.93 -46.84 121.93 -40.3 L138.96 3.10999 L109.39 3.11 Z " />
<glyph glyph-name="ordmasculine" unicode="&#xba;" horiz-adv-x="433" d="M216.03 342.14 C301.55 342.14 363.86 408.09 363.86 503 C363.86 598.98 304.97 664.64 217.16 664.64 C131.05 664.64 69.05 598.98 69.05 503 C69.05 406.15 128.55 342.14 216.03 342.14 L216.03 342.14 Z M216.6 373.03 C144.57 373.03 102.36 427.39 102.36 503 C102.36 576.6 144.57 633.75 216.6 633.75 C288.64 633.75 330.48 577.53 330.48 503 C330.48 427.39 288.64 373.03 216.6 373.03 L216.6 373.03 Z " />
<glyph glyph-name="guillemotright" unicode="&#xbb;" horiz-adv-x="436" d="M236 256.57 L110.98 401.81 L85.34 381.65 L192.13 256.57 L85.34 131.5 L110.98 111.34 L236 256.57 Z M373.02 256.57 L247.99 401.81 L222.35 381.65 L329.15 256.57 L222.35 131.5 L247.99 111.34 L373.02 256.57 Z " />
<glyph glyph-name="onequarter" unicode="&#xbc;" horiz-adv-x="723" d="M563.27 642 L129.62 0 L168.36 0 L602 642 L563.27 642 Z M145.76 263.28 L181.06 263.21 L181.06 641.57 L151.6 641.57 L46.38 582.2 L60.83 555.22 L145.76 602.48 L145.76 263.28 Z M663.66 119.16 L614.56 119.16 L614.56 378.36 L581.24 378.36 L384.11 119.79 L384.11 87.04 L581.24 87.04 L581.24 -1.52588e-05 L614.56 -1.52588e-05 L614.56 87.04 L663.66 87.04 L663.66 119.16 Z M421.57 119.16 L581.24 325.9 L581.24 119.16 L421.57 119.16 Z " />
<glyph glyph-name="onehalf" unicode="&#xbd;" horiz-adv-x="766" d="M556.67 642 L123.02 0 L161.76 0 L595.4 642 L556.67 642 Z M145.48 263.28 L180.78 263.21 L180.78 641.57 L151.31 641.57 L46.1 582.2 L60.55 555.22 L145.48 602.48 L145.48 263.28 Z M525.62 31.9 L509.3 30.03 L518.48 37.45 C623.78 142.31 687.98 200.43 687.98 275.37 C687.98 343.08 640.29 380.5 573.6 380.5 C524.6 380.5 485.55 354.51 464.41 330.08 L484.06 308.86 C502.28 329.3 532.31 348.31 573.61 348.31 C624.65 348.31 653.82 316.79 653.82 273.96 C653.82 218.48 612.74 175.13 464.83 26.99 L464.83 -1.52588e-05 L708.64 -1.52588e-05 L708.71 31.9 L525.62 31.9 Z " />
<glyph glyph-name="threequarters" unicode="&#xbe;" horiz-adv-x="782" d="M310.34 380.87 C310.34 436.11 274.8 471.9 226.83 481.14 C261.58 491.09 290.21 521.22 290.21 564.88 C290.21 622.32 241.75 657.94 174.22 657.94 C124.52 657.94 88.31 637.51 65.49 611.95 L86.8 592.9 C108.39 612.8 136.44 627.79 172.56 627.79 C225.53 627.79 257.77 597.42 257.77 559.67 C257.77 498.97 195.92 490.17 161.05 490.2 L140.22 490.13 L140.16 463.45 L165.86 463.62 C236.12 461.39 278.01 441.88 278.01 383.23 C278.01 322.82 227.09 295.98 179.03 295.98 C127.81 295.98 101.74 311.78 78.68 332.24 L59.36 308.7 C76.57 291.17 114.66 266.88 179.03 266.88 C242.01 266.88 310.34 303.18 310.34 380.87 L310.34 380.87 Z M618.27 642 L184.62 6.10352e-05 L223.36 6.10352e-05 L657 642 L618.27 642 Z M726.68 119.16 L677.57 119.16 L677.57 378.36 L644.26 378.36 L447.12 119.79 L447.12 87.0401 L644.26 87.0401 L644.26 6.10352e-05 L677.57 6.10352e-05 L677.57 87.0401 L726.68 87.0401 L726.68 119.16 Z M484.58 119.16 L644.26 325.89 L644.26 119.16 L484.58 119.16 Z " />
<glyph glyph-name="questiondown" unicode="&#xbf;" horiz-adv-x="451" d="M300.32 452.75 C300.32 473.41 283.24 490.23 262.8 490.23 C242.36 490.23 225.26 473.41 225.26 452.75 C225.26 431.65 242.36 414.83 262.8 414.83 C283.24 414.83 300.32 431.65 300.32 452.75 L300.32 452.75 Z M405.55 -97.96 L383.31 -73.08 C352.7 -107.49 307.62 -130.7 250.86 -130.7 C155.75 -130.7 92.97 -65.37 92.97 28.04 C92.97 125.97 168.15 191 273.13 191.51 L280.2 191.57 L280.34 329.77 L243.34 329.77 L243.41 224.31 C123.02 211.69 55.97 124.87 55.97 27.98 C55.97 -89.34 137.36 -166.14 248.99 -166.28 C311.89 -166.4 367.85 -141.59 405.55 -97.96 L405.55 -97.96 Z " />
<glyph glyph-name="Agrave" unicode="&#xc0;" horiz-adv-x="607" d="M382.92 705.92 L211.55 789.38 L195.85 753 L374.13 682.68 L382.92 705.92 Z M525.81 0 L566.94 0 L318.83 642 L282.42 642 L44.05 0 L84.04 0 L157.99 204.22 L448.05 204.22 L525.81 0 Z M170.1 237.67 L287.15 560.89 L299.48 597.21 L312.29 560.78 L435.32 237.67 L170.1 237.67 Z " />
<glyph glyph-name="Aacute" unicode="&#xc1;" horiz-adv-x="607" d="M404.5 753 L388.8 789.38 L217.43 705.92 L226.22 682.68 L404.5 753 Z M525.81 0 L566.94 0 L318.83 642 L282.42 642 L44.05 0 L84.04 0 L157.99 204.22 L448.05 204.22 L525.81 0 Z M170.1 237.67 L287.15 560.89 L299.48 597.21 L312.29 560.78 L435.32 237.67 L170.1 237.67 Z " />
<glyph glyph-name="Acircumflex" unicode="&#xc2;" horiz-adv-x="607" d="M300.74 761.94 L407.92 679.23 L422.5 699.3 L314.17 792.85 L287.41 792.85 L179.08 699.3 L193.67 679.23 L300.74 761.94 Z M525.81 0 L566.94 0 L318.83 642 L282.42 642 L44.05 0 L84.04 0 L157.99 204.22 L448.05 204.22 L525.81 0 Z M170.1 237.67 L287.15 560.89 L299.48 597.21 L312.29 560.78 L435.32 237.67 L170.1 237.67 Z " />
<glyph glyph-name="Atilde" unicode="&#xc3;" horiz-adv-x="607" d="M236.5 749.8 C275.04 749.8 314.86 705.76 365.98 705.76 C404.23 705.76 432.59 725.03 448.6 759.38 L420.19 770.79 C409.28 750.24 390.58 737.65 363.97 737.65 C323.3 737.65 282.62 781.96 235.21 781.96 C194.23 781.96 164.72 761.2 148.07 724.92 L176.77 714.21 C188.1 736.2 207.6 749.8 236.5 749.8 L236.5 749.8 Z M525.81 3.05176e-05 L566.94 3.05176e-05 L318.83 642 L282.42 642 L44.05 3.05176e-05 L84.04 3.05176e-05 L157.99 204.22 L448.05 204.22 L525.81 3.05176e-05 Z M170.1 237.67 L287.15 560.89 L299.48 597.21 L312.29 560.78 L435.32 237.67 L170.1 237.67 Z " />
<glyph glyph-name="Adieresis" unicode="&#xc4;" horiz-adv-x="607" d="M209.46 716.23 C227.77 716.23 242.03 730.35 242.03 748.88 C242.03 766.41 228.02 781.25 209.46 781.25 C191.62 781.25 176.9 766.41 176.9 748.88 C176.9 730.35 191.87 716.23 209.46 716.23 L209.46 716.23 Z M391.9 716.23 C410.2 716.23 424.46 730.35 424.46 748.88 C424.46 766.41 410.46 781.25 391.9 781.25 C374.05 781.25 359.33 766.41 359.33 748.88 C359.33 730.35 374.31 716.23 391.9 716.23 L391.9 716.23 Z M525.81 0 L566.94 0 L318.83 642 L282.42 642 L44.05 0 L84.04 0 L157.99 204.22 L448.05 204.22 L525.81 0 Z M170.1 237.67 L287.15 560.89 L299.48 597.21 L312.29 560.78 L435.32 237.67 L170.1 237.67 Z " />
<glyph glyph-name="Aring" unicode="&#xc5;" horiz-adv-x="607" d="M301.26 653.7 C348.8 653.7 385.98 693.48 385.98 741.82 C385.98 790.17 348.8 829.94 301.26 829.94 C253.26 829.94 216.26 790.17 216.26 741.82 C216.26 693.48 253.26 653.7 301.26 653.7 L301.26 653.7 Z M301.26 802.24 C335.8 802.24 357.07 774.36 357.07 741.82 C357.07 710.07 335.8 681.69 301.26 681.69 C267.54 681.69 244.95 710.07 244.95 741.82 C244.95 774.36 267.54 802.24 301.26 802.24 L301.26 802.24 Z M525.81 -1.52588e-05 L566.94 -1.52588e-05 L318.83 642 L282.42 642 L44.05 -1.52588e-05 L84.04 -1.52588e-05 L157.99 204.22 L448.05 204.22 L525.81 -1.52588e-05 Z M170.1 237.67 L287.15 560.89 L299.48 597.21 L312.29 560.78 L435.32 237.67 L170.1 237.67 Z " />
<glyph glyph-name="AE" unicode="&#xc6;" horiz-adv-x="861" d="M464.43 34.58 L464.43 316.65 L756.93 316.65 L756.93 351.23 L464.43 351.23 L464.43 607.13 L786.92 607.13 L786.92 642 L415.61 642 L16.68 0 L56.1 0 L183.72 204.22 L427.43 204.22 L427.43 0 L799.9 0 L799.9 34.58 L464.43 34.58 Z M204.62 237.67 L427.43 594.22 L427.43 237.67 L204.62 237.67 Z " />
<glyph glyph-name="Ccedilla" unicode="&#xc7;" horiz-adv-x="606" d="M359.96 -40.3 L372.05 -9.46001 C461.01 -7.37001 518.24 23.27 559.07 58.87 L539.23 87.61 C499.34 51.93 447.15 26.01 362.45 26.01 C210.51 26.01 110.67 147.52 110.67 321 C110.67 496.3 212.67 619.13 368.2 619.13 C438.86 619.13 482.9 600.18 529.95 564.03 L550.96 593.56 C506.72 629.93 450.98 654.71 368.14 654.71 C191.92 654.71 71.76 515.57 71.76 321 C71.76 137.37 175.84 0.919998 342.7 -8.99001 L321.91 -62.39 C378.29 -66.54 407.45 -79.7 407.45 -114.3 C407.45 -147.72 376.11 -160.94 344.27 -160.94 C320.94 -160.94 303.01 -153.18 292.9 -147.51 L281.29 -173.72 C289.94 -179.57 316.52 -189.29 345.61 -189.29 C389.4 -189.29 441.9 -170.49 441.9 -112.25 C441.9 -65.72 408.95 -46.84 359.96 -40.3 L359.96 -40.3 Z " />
<glyph glyph-name="Egrave" unicode="&#xc8;" horiz-adv-x="548" d="M385.41 705.92 L214.04 789.38 L198.34 753 L376.62 682.68 L385.41 705.92 Z M150.91 34.58 L150.91 316.65 L443.41 316.65 L443.41 351.23 L150.91 351.23 L150.91 607.13 L473.4 607.13 L473.4 642 L113.91 642 L113.91 -1.52588e-05 L486.39 -1.52588e-05 L486.39 34.58 L150.91 34.58 Z " />
<glyph glyph-name="Eacute" unicode="&#xc9;" horiz-adv-x="548" d="M406.99 753 L391.29 789.38 L219.92 705.92 L228.71 682.68 L406.99 753 Z M150.91 34.58 L150.91 316.65 L443.41 316.65 L443.41 351.23 L150.91 351.23 L150.91 607.13 L473.4 607.13 L473.4 642 L113.91 642 L113.91 -1.52588e-05 L486.39 -1.52588e-05 L486.39 34.58 L150.91 34.58 Z " />
<glyph glyph-name="Ecircumflex" unicode="&#xca;" horiz-adv-x="548" d="M303.22 761.94 L410.4 679.23 L424.99 699.3 L316.66 792.85 L289.9 792.85 L181.57 699.3 L196.16 679.23 L303.22 761.94 Z M150.91 34.58 L150.91 316.65 L443.41 316.65 L443.41 351.23 L150.91 351.23 L150.91 607.13 L473.4 607.13 L473.4 642 L113.91 642 L113.91 0 L486.39 0 L486.39 34.58 L150.91 34.58 Z " />
<glyph glyph-name="Edieresis" unicode="&#xcb;" horiz-adv-x="548" d="M211.95 716.23 C230.26 716.23 244.51 730.35 244.51 748.88 C244.51 766.41 230.51 781.25 211.95 781.25 C194.1 781.25 179.38 766.41 179.38 748.88 C179.38 730.35 194.36 716.23 211.95 716.23 L211.95 716.23 Z M394.39 716.23 C412.69 716.23 426.95 730.35 426.95 748.88 C426.95 766.41 412.95 781.25 394.39 781.25 C376.54 781.25 361.82 766.41 361.82 748.88 C361.82 730.35 376.8 716.23 394.39 716.23 L394.39 716.23 Z M150.91 34.58 L150.91 316.65 L443.41 316.65 L443.41 351.23 L150.91 351.23 L150.91 607.13 L473.4 607.13 L473.4 642 L113.91 642 L113.91 0 L486.39 0 L486.39 34.58 L150.91 34.58 Z " />
<glyph glyph-name="Igrave" unicode="&#xcc;" horiz-adv-x="307" d="M232.32 705.92 L60.95 789.38 L45.25 753 L223.53 682.68 L232.32 705.92 Z M242.06 608.55 L242.06 642 L64.31 642 L64.31 608.55 L134.52 608.55 L134.52 33.45 L64.31 33.45 L64.31 -1.52588e-05 L242.06 -1.52588e-05 L242.06 33.45 L171.78 33.45 L171.78 608.55 L242.06 608.55 Z " />
<glyph glyph-name="Iacute" unicode="&#xcd;" horiz-adv-x="307" d="M260.95 753 L245.25 789.38 L73.88 705.92 L82.67 682.68 L260.95 753 Z M242.06 642 L64.31 642 L64.31 608.55 L134.52 608.55 L134.52 33.45 L64.31 33.45 L64.31 0 L242.06 0 L242.06 33.45 L171.78 33.45 L171.78 608.55 L242.06 608.55 L242.06 642 Z " />
<glyph glyph-name="Icircumflex" unicode="&#xce;" horiz-adv-x="307" d="M165.48 792.85 L141.6 792.85 L44.91 699.3 L57.93 679.23 L153.49 761.94 L249.15 679.23 L262.17 699.3 L165.48 792.85 Z M242.06 642 L64.31 642 L64.31 608.55 L134.52 608.55 L134.52 33.45 L64.31 33.45 L64.31 0 L242.06 0 L242.06 33.45 L171.78 33.45 L171.78 608.55 L242.06 608.55 L242.06 642 Z " />
<glyph glyph-name="Idieresis" unicode="&#xcf;" horiz-adv-x="307" d="M119.23 743.7 C119.23 761.23 105.22 776.06 86.66 776.06 C68.82 776.06 54.1 761.23 54.1 743.7 C54.1 725.16 69.07 711.05 86.66 711.05 C104.97 711.05 119.23 725.16 119.23 743.7 L119.23 743.7 Z M226.81 776.06 C208.96 776.06 194.24 761.23 194.24 743.7 C194.24 725.16 209.22 711.05 226.81 711.05 C245.12 711.05 259.37 725.16 259.37 743.7 C259.37 761.23 245.37 776.06 226.81 776.06 L226.81 776.06 Z M242.06 642 L64.31 642 L64.31 608.55 L134.52 608.55 L134.52 33.45 L64.31 33.45 L64.31 0 L242.06 0 L242.06 33.45 L171.78 33.45 L171.78 608.55 L242.06 608.55 L242.06 642 Z " />
<glyph glyph-name="Eth" unicode="&#xd0;" horiz-adv-x="675" d="M286.66 642 L115.9 642 L115.9 340.14 L43.93 340.14 L43.93 308.67 L115.9 308.67 L115.9 0 L289.31 0 C482.75 0 601.36 131.21 601.36 324.28 C601.36 512.52 487.44 642 286.66 642 L286.66 642 Z M290.28 34.3 L153.15 34.3 L153.15 308.67 L273.94 308.67 L273.94 340.14 L153.15 340.14 L153.15 607.13 L286.77 607.13 C463.76 607.13 562.17 492.78 562.17 323.71 C562.17 144.98 460.81 34.3 290.28 34.3 L290.28 34.3 Z " />
<glyph glyph-name="Ntilde" unicode="&#xd1;" horiz-adv-x="688" d="M288.43 749.8 C326.97 749.8 366.79 705.76 417.91 705.76 C456.16 705.76 484.52 725.03 500.53 759.38 L472.12 770.79 C461.21 750.24 442.51 737.65 415.9 737.65 C375.23 737.65 334.55 781.96 287.14 781.96 C246.16 781.96 216.65 761.2 200 724.92 L228.7 714.21 C240.03 736.2 259.53 749.8 288.43 749.8 L288.43 749.8 Z M536.59 642 L536.59 84.17 L537.33 61.99 L527.84 78.2 L149.57 642 L113.91 642 L113.91 4.57764e-05 L150.15 4.57764e-05 L150.15 557.13 L149.53 582.88 L162.12 560.41 L537.18 4.57764e-05 L572.82 4.57764e-05 L572.82 642 L536.59 642 Z " />
<glyph glyph-name="Ograve" unicode="&#xd2;" horiz-adv-x="731" d="M438.77 682.68 L447.56 705.92 L276.19 789.38 L260.49 753 L438.77 682.68 Z M365.31 654.71 C186.28 654.71 71.76 512.47 71.76 322 C71.76 135.81 186.28 -9.57001 365.31 -9.57001 C544.39 -9.57001 658.83 137.2 658.83 322 C658.83 513.86 544.39 654.71 365.31 654.71 L365.31 654.71 Z M365.31 619.39 C524.31 619.39 620.24 496.93 620.24 322 C620.24 150.15 524.31 25.79 365.31 25.79 C206.36 25.79 110.36 150.15 110.36 322 C110.36 496.93 206.36 619.39 365.31 619.39 L365.31 619.39 Z " />
<glyph glyph-name="Oacute" unicode="&#xd3;" horiz-adv-x="731" d="M290.85 682.68 L469.13 753 L453.43 789.38 L282.06 705.92 L290.85 682.68 Z M365.31 654.71 C186.28 654.71 71.76 512.47 71.76 322 C71.76 135.81 186.28 -9.57002 365.31 -9.57002 C544.39 -9.57002 658.83 137.2 658.83 322 C658.83 513.86 544.39 654.71 365.31 654.71 L365.31 654.71 Z M365.31 619.39 C524.31 619.39 620.24 496.93 620.24 322 C620.24 150.15 524.31 25.79 365.31 25.79 C206.36 25.79 110.36 150.15 110.36 322 C110.36 496.93 206.36 619.39 365.31 619.39 L365.31 619.39 Z " />
<glyph glyph-name="Ocircumflex" unicode="&#xd4;" horiz-adv-x="731" d="M378.81 792.85 L352.04 792.85 L243.71 699.3 L258.3 679.23 L365.37 761.94 L472.55 679.23 L487.14 699.3 L378.81 792.85 Z M365.31 654.71 C186.28 654.71 71.76 512.47 71.76 322 C71.76 135.81 186.28 -9.57001 365.31 -9.57001 C544.39 -9.57001 658.83 137.2 658.83 322 C658.83 513.86 544.39 654.71 365.31 654.71 L365.31 654.71 Z M365.31 619.39 C524.31 619.39 620.24 496.93 620.24 322 C620.24 150.15 524.31 25.79 365.31 25.79 C206.36 25.79 110.36 150.15 110.36 322 C110.36 496.93 206.36 619.39 365.31 619.39 L365.31 619.39 Z " />
<glyph glyph-name="Otilde" unicode="&#xd5;" horiz-adv-x="731" d="M241.4 714.21 C252.74 736.2 272.23 749.8 301.14 749.8 C339.67 749.8 379.49 705.76 430.61 705.76 C468.86 705.76 497.23 725.03 513.24 759.38 L484.82 770.79 C473.92 750.24 455.21 737.65 428.6 737.65 C387.93 737.65 347.26 781.96 299.84 781.96 C258.87 781.96 229.36 761.2 212.7 724.92 L241.4 714.21 Z M365.31 654.71 C186.28 654.71 71.76 512.47 71.76 322 C71.76 135.81 186.28 -9.56998 365.31 -9.56998 C544.39 -9.56998 658.83 137.2 658.83 322 C658.83 513.86 544.39 654.71 365.31 654.71 L365.31 654.71 Z M365.31 619.39 C524.31 619.39 620.24 496.93 620.24 322 C620.24 150.15 524.31 25.79 365.31 25.79 C206.36 25.79 110.36 150.15 110.36 322 C110.36 496.93 206.36 619.39 365.31 619.39 L365.31 619.39 Z " />
<glyph glyph-name="Odieresis" unicode="&#xd6;" horiz-adv-x="731" d="M306.66 748.88 C306.66 766.41 292.66 781.25 274.09 781.25 C256.25 781.25 241.53 766.41 241.53 748.88 C241.53 730.35 256.5 716.23 274.09 716.23 C292.4 716.23 306.66 730.35 306.66 748.88 L306.66 748.88 Z M489.1 748.88 C489.1 766.41 475.09 781.25 456.53 781.25 C438.69 781.25 423.97 766.41 423.97 748.88 C423.97 730.35 438.94 716.23 456.53 716.23 C474.84 716.23 489.1 730.35 489.1 748.88 L489.1 748.88 Z M365.31 654.71 C186.28 654.71 71.76 512.47 71.76 322 C71.76 135.81 186.28 -9.57001 365.31 -9.57001 C544.39 -9.57001 658.83 137.2 658.83 322 C658.83 513.86 544.39 654.71 365.31 654.71 L365.31 654.71 Z M365.31 619.39 C524.31 619.39 620.24 496.93 620.24 322 C620.24 150.15 524.31 25.79 365.31 25.79 C206.36 25.79 110.36 150.15 110.36 322 C110.36 496.93 206.36 619.39 365.31 619.39 L365.31 619.39 Z " />
<glyph glyph-name="multiply" unicode="&#xd7;" horiz-adv-x="478" d="M395.76 380.64 L372.49 403.91 L238.87 270.29 L105.25 403.91 L81.99 380.64 L215.59 247.01 L81.99 113.4 L105.25 90.06 L238.87 223.72 L372.49 90.06 L395.76 113.4 L262.16 247.01 L395.76 380.64 Z " />
<glyph glyph-name="Oslash" unicode="&#xd8;" horiz-adv-x="738" d="M673.65 631.41 L649.32 653.54 L573.67 570.09 C523.19 623.36 453.08 654.71 368.6 654.71 C189.56 654.71 75.05 512.47 75.05 322 C75.05 234.67 100.24 156.32 145.47 97.73 L67.75 12 L91.8 -11.54 L167.63 72.25 C217.79 21.08 286.39 -9.56998 368.6 -9.56998 C547.67 -9.56998 662.12 137.2 662.12 322 C662.12 409.73 638.19 486.79 595.09 544.6 L673.65 631.41 Z M113.64 322 C113.64 496.93 209.64 619.39 368.6 619.39 C444.43 619.39 505.91 591.53 549.49 543.41 L169.83 124.61 C133.4 175.85 113.64 244.04 113.64 322 L113.64 322 Z M623.52 322 C623.52 150.15 527.59 25.79 368.6 25.79 C294.85 25.79 234.66 52.56 191.31 98.42 L570.19 517.08 C604.8 466.32 623.52 399.28 623.52 322 L623.52 322 Z " />
<glyph glyph-name="Ugrave" unicode="&#xd9;" horiz-adv-x="673" d="M414.95 682.68 L423.74 705.92 L252.37 789.38 L236.67 753 L414.95 682.68 Z M336.84 -9.57001 C477.82 -9.57001 566.97 92.25 566.97 251.98 L566.97 642 L530 642 L530 251.98 C530 121.71 463.24 26.86 336.87 26.86 C211 26.86 143.96 121.71 143.96 251.98 L143.96 642 L106.2 642 L106.2 251.98 C106.2 92.25 196.28 -9.57001 336.84 -9.57001 L336.84 -9.57001 Z " />
<glyph glyph-name="Uacute" unicode="&#xda;" horiz-adv-x="673" d="M267.04 682.68 L445.32 753 L429.62 789.38 L258.25 705.92 L267.04 682.68 Z M336.84 -9.57001 C477.82 -9.57001 566.97 92.25 566.97 251.98 L566.97 642 L530 642 L530 251.98 C530 121.71 463.24 26.86 336.87 26.86 C211 26.86 143.96 121.71 143.96 251.98 L143.96 642 L106.2 642 L106.2 251.98 C106.2 92.25 196.28 -9.57001 336.84 -9.57001 L336.84 -9.57001 Z " />
<glyph glyph-name="Ucircumflex" unicode="&#xdb;" horiz-adv-x="673" d="M354.99 792.85 L328.23 792.85 L219.9 699.3 L234.49 679.23 L341.55 761.94 L448.73 679.23 L463.32 699.3 L354.99 792.85 Z M336.84 -9.56999 C477.82 -9.56999 566.97 92.25 566.97 251.98 L566.97 642 L530 642 L530 251.98 C530 121.71 463.24 26.86 336.87 26.86 C211 26.86 143.96 121.71 143.96 251.98 L143.96 642 L106.2 642 L106.2 251.98 C106.2 92.25 196.28 -9.56999 336.84 -9.56999 L336.84 -9.56999 Z " />
<glyph glyph-name="Udieresis" unicode="&#xdc;" horiz-adv-x="673" d="M282.84 748.88 C282.84 766.41 268.84 781.25 250.28 781.25 C232.43 781.25 217.71 766.41 217.71 748.88 C217.71 730.35 232.69 716.23 250.28 716.23 C268.58 716.23 282.84 730.35 282.84 748.88 L282.84 748.88 Z M465.28 748.88 C465.28 766.41 451.28 781.25 432.71 781.25 C414.87 781.25 400.15 766.41 400.15 748.88 C400.15 730.35 415.12 716.23 432.71 716.23 C451.02 716.23 465.28 730.35 465.28 748.88 L465.28 748.88 Z M336.84 -9.56999 C477.82 -9.56999 566.97 92.25 566.97 251.98 L566.97 642 L530 642 L530 251.98 C530 121.71 463.24 26.86 336.87 26.86 C211 26.86 143.96 121.71 143.96 251.98 L143.96 642 L106.2 642 L106.2 251.98 C106.2 92.25 196.28 -9.56999 336.84 -9.56999 L336.84 -9.56999 Z " />
<glyph glyph-name="Yacute" unicode="&#xdd;" horiz-adv-x="591" d="M399.77 753 L384.06 789.38 L212.69 705.92 L221.48 682.68 L399.77 753 Z M541.27 642 L499.21 642 L304.77 316.95 L297.85 303.23 L290.89 316.56 L86.39 642 L43.2 642 L277.51 268.61 L277.51 0 L314.77 0 L314.77 267.96 L541.27 642 Z " />
<glyph glyph-name="Thorn" unicode="&#xde;" horiz-adv-x="562" d="M269.87 529.71 L151.17 529.71 L151.17 643.43 L113.91 643.43 L113.91 1.52588e-05 L151.17 1.52588e-05 L151.17 129.73 L270.24 129.73 C421.8 129.73 505.66 203.56 505.66 331.58 C505.66 450.54 426.11 529.71 269.87 529.71 L269.87 529.71 Z M269.99 163.46 L151.17 163.46 L151.17 495.41 L269.73 495.41 C403.51 495.41 466.53 425.43 466.53 331.58 C466.53 223.01 404.04 163.46 269.99 163.46 L269.99 163.46 Z " />
<glyph glyph-name="germandbls" unicode="&#xdf;" horiz-adv-x="583" d="M302.01 663.56 C178.52 663.56 97.77 595.03 97.77 473.58 L97.63 0 L134.35 0 L134.35 473.58 C134.35 574.5 194.4 628.82 302.01 628.82 C393.62 628.82 449.24 591.16 449.24 532.91 C449.24 433.1 268.05 465.39 268.05 342.02 C268.05 197.06 494.81 242.94 494.81 117.98 C494.81 61.29 453.5 25.31 382.28 25.31 C334.09 25.31 294.95 41.74 265.23 73.46 L242.88 46.56 C271.42 14.9 321.97 -8.14 382.28 -8.14 C472.56 -8.14 531.53 40.22 531.53 117.98 C531.53 272.62 305.05 233.4 305.05 342.02 C305.05 432.39 485.95 408.35 485.95 531.48 C485.95 610.61 410.88 663.56 302.01 663.56 L302.01 663.56 Z " />
<glyph glyph-name="agrave" unicode="&#xe0;" horiz-adv-x="511" d="M321.84 551.02 L178.19 678.05 L153.19 646.23 L306.13 530.46 L321.84 551.02 Z M434.22 1.54999 C425.77 19.74 414.81 44.47 414.81 103.8 L414.81 310.31 C414.81 434.83 334.39 480.85 236.91 480.85 C170.89 480.85 121.1 465.54 84.95 447.14 L93.8 413.18 C148.21 438.36 186.41 445.26 234.85 445.26 C317.25 445.26 377.9 407.71 377.9 308.41 L377.9 262.81 L239.16 262.81 C124.06 262.81 57.33 213.93 57.33 127.7 C57.33 41.64 120.14 -9.57004 215.96 -9.57004 C298.21 -9.57004 350.58 36.31 378 78.85 C379.56 37.8 389.76 7.61996 398.27 -7.79004 L434.22 1.54999 Z M222.02 24.6 C142.55 24.6 95.84 63.24 95.84 128.26 C95.84 186.01 135.76 231.21 239.25 231.35 L377.55 231.57 L377.53 124.99 C358.88 80.27 307.83 24.6 222.02 24.6 L222.02 24.6 Z " />
<glyph glyph-name="aacute" unicode="&#xe1;" horiz-adv-x="511" d="M330.87 646.23 L306.16 677.48 L162.86 550.3 L178.29 530.75 L330.87 646.23 Z M434.22 1.55 C425.77 19.74 414.81 44.47 414.81 103.8 L414.81 310.31 C414.81 434.83 334.39 480.85 236.91 480.85 C170.89 480.85 121.1 465.54 84.95 447.14 L93.8 413.18 C148.21 438.36 186.41 445.26 234.85 445.26 C317.25 445.26 377.9 407.71 377.9 308.41 L377.9 262.81 L239.16 262.81 C124.06 262.81 57.33 213.93 57.33 127.7 C57.33 41.64 120.14 -9.57002 215.96 -9.57002 C298.21 -9.57002 350.58 36.31 378 78.85 C379.56 37.8 389.76 7.61998 398.27 -7.79002 L434.22 1.55 Z M222.02 24.6 C142.55 24.6 95.84 63.24 95.84 128.26 C95.84 186.01 135.76 231.21 239.25 231.35 L377.55 231.57 L377.53 124.99 C358.88 80.27 307.83 24.6 222.02 24.6 L222.02 24.6 Z " />
<glyph glyph-name="acircumflex" unicode="&#xe2;" horiz-adv-x="511" d="M245.15 637.03 L352.72 533.63 L372.38 553.66 L260.24 671.04 L231.34 671.04 L118.7 556.53 L137.63 535.78 L245.15 637.03 Z M434.22 1.55002 C425.77 19.74 414.81 44.47 414.81 103.8 L414.81 310.31 C414.81 434.83 334.39 480.85 236.91 480.85 C170.89 480.85 121.1 465.54 84.95 447.14 L93.8 413.18 C148.21 438.36 186.41 445.26 234.85 445.26 C317.25 445.26 377.9 407.71 377.9 308.41 L377.9 262.81 L239.16 262.81 C124.06 262.81 57.33 213.93 57.33 127.7 C57.33 41.64 120.14 -9.57001 215.96 -9.57001 C298.21 -9.57001 350.58 36.31 378 78.85 C379.56 37.8 389.76 7.62 398.27 -7.79001 L434.22 1.55002 Z M222.02 24.6 C142.55 24.6 95.84 63.24 95.84 128.26 C95.84 186.01 135.76 231.21 239.25 231.35 L377.55 231.57 L377.53 124.99 C358.88 80.27 307.83 24.6 222.02 24.6 L222.02 24.6 Z " />
<glyph glyph-name="atilde" unicode="&#xe3;" horiz-adv-x="511" d="M189.73 609.21 C225.97 609.21 257.4 567.33 306.3 567.33 C346.7 567.33 375.78 589.75 390.29 629.18 L361.59 640.03 C352.33 615.46 334.41 599.93 304.29 599.93 C265.34 599.93 233.19 642.1 187.71 642.1 C147.46 642.1 117.23 619.4 102.29 579.96 L131 569.12 C140.61 593.68 159.82 609.21 189.73 609.21 L189.73 609.21 Z M434.22 1.54999 C425.77 19.74 414.81 44.47 414.81 103.8 L414.81 310.31 C414.81 434.83 334.39 480.85 236.91 480.85 C170.89 480.85 121.1 465.54 84.95 447.14 L93.8 413.18 C148.21 438.36 186.41 445.26 234.85 445.26 C317.25 445.26 377.9 407.71 377.9 308.41 L377.9 262.81 L239.16 262.81 C124.06 262.81 57.33 213.93 57.33 127.7 C57.33 41.64 120.14 -9.57004 215.96 -9.57004 C298.21 -9.57004 350.58 36.31 378 78.85 C379.56 37.8 389.76 7.61996 398.27 -7.79004 L434.22 1.54999 Z M222.02 24.6 C142.55 24.6 95.84 63.24 95.84 128.26 C95.84 186.01 135.76 231.21 239.25 231.35 L377.55 231.57 L377.53 124.99 C358.88 80.27 307.83 24.6 222.02 24.6 L222.02 24.6 Z " />
<glyph glyph-name="adieresis" unicode="&#xe4;" horiz-adv-x="511" d="M145.57 569.5 C163.53 569.5 177.65 583.76 177.65 602.52 C177.65 620.25 163.53 635.22 145.57 635.22 C127.49 635.22 112.66 620.25 112.66 602.52 C112.66 583.76 127.78 569.5 145.57 569.5 L145.57 569.5 Z M346.82 569.5 C364.78 569.5 379.21 583.76 379.21 602.52 C379.21 620.25 364.78 635.22 346.82 635.22 C329.06 635.22 314.17 620.25 314.17 602.52 C314.17 583.76 329.31 569.5 346.82 569.5 L346.82 569.5 Z M434.22 1.55 C425.77 19.74 414.81 44.47 414.81 103.8 L414.81 310.31 C414.81 434.83 334.39 480.85 236.91 480.85 C170.89 480.85 121.1 465.54 84.95 447.14 L93.8 413.18 C148.21 438.36 186.41 445.26 234.85 445.26 C317.25 445.26 377.9 407.71 377.9 308.41 L377.9 262.81 L239.16 262.81 C124.06 262.81 57.33 213.93 57.33 127.7 C57.33 41.64 120.14 -9.57002 215.96 -9.57002 C298.21 -9.57002 350.58 36.31 378 78.85 C379.56 37.8 389.76 7.61998 398.27 -7.79002 L434.22 1.55 Z M222.02 24.6 C142.55 24.6 95.84 63.24 95.84 128.26 C95.84 186.01 135.76 231.21 239.25 231.35 L377.55 231.57 L377.53 124.99 C358.88 80.27 307.83 24.6 222.02 24.6 L222.02 24.6 Z " />
<glyph glyph-name="aring" unicode="&#xe5;" horiz-adv-x="511" d="M246.28 514.31 C294.96 514.31 333.18 554.37 333.18 603.15 C333.18 651.92 294.96 691.98 246.28 691.98 C196.6 691.98 158.38 651.92 158.38 603.15 C158.38 554.37 196.6 514.31 246.28 514.31 L246.28 514.31 Z M246.28 663.63 C281.86 663.63 304.14 635.82 304.14 603.15 C304.14 571.26 281.86 542.95 246.28 542.95 C211.67 542.95 187.68 571.26 187.68 603.15 C187.68 635.82 211.67 663.63 246.28 663.63 L246.28 663.63 Z M434.22 1.55 C425.77 19.74 414.81 44.47 414.81 103.8 L414.81 310.31 C414.81 434.83 334.39 480.85 236.91 480.85 C170.89 480.85 121.1 465.54 84.95 447.14 L93.8 413.18 C148.21 438.36 186.41 445.26 234.85 445.26 C317.25 445.26 377.9 407.71 377.9 308.41 L377.9 262.81 L239.16 262.81 C124.06 262.81 57.33 213.93 57.33 127.7 C57.33 41.64 120.14 -9.57002 215.96 -9.57002 C298.21 -9.57002 350.58 36.31 378 78.85 C379.56 37.8 389.76 7.61998 398.27 -7.79002 L434.22 1.55 Z M222.02 24.6 C142.55 24.6 95.84 63.24 95.84 128.26 C95.84 186.01 135.76 231.21 239.25 231.35 L377.55 231.57 L377.53 124.99 C358.88 80.27 307.83 24.6 222.02 24.6 L222.02 24.6 Z " />
<glyph glyph-name="ae" unicode="&#xe6;" horiz-adv-x="849" d="M783.49 236.06 C784.22 242.3 785.4 255.2 785.4 269.83 C785.4 398.45 704.66 480.85 591.34 480.85 C515.5 480.85 446.21 439.79 408.16 367.54 C386.84 449.24 317.7 480.85 236.91 480.85 C170.89 480.85 121.1 465.54 84.95 447.14 L93.8 413.18 C148.21 438.36 186.41 445.26 234.85 445.26 C317.25 445.26 377.9 407.71 377.9 308.41 L377.9 262.81 L239.16 262.81 C124.06 262.81 57.33 213.93 57.33 127.7 C57.33 41.64 120.14 -9.57004 215.96 -9.57004 C298.87 -9.57004 370.85 35.86 397.52 119.23 C431.4 34.06 505.8 -9.57005 600.23 -9.57005 C677.08 -9.57005 727.84 17.5199 764.8 46.5099 L748.51 77.3199 C720.95 54.81 678.13 25.7299 600.82 25.7299 C485.19 25.7299 416.05 104.04 416.05 233.3 L416.13 236.06 L783.49 236.06 Z M591.34 446.11 C671.93 446.11 746.8 391.23 746.8 267.81 L417.54 267.81 C427.21 370.37 492.8 446.11 591.34 446.11 L591.34 446.11 Z M377.64 153.07 C368.56 82.2399 307.56 24.5999 222.02 24.5999 C142.55 24.5999 95.84 63.2399 95.84 128.26 C95.84 186.01 135.88 231.21 239.36 231.35 L377.58 231.49 C377.6 229.57 377.63 227.65 377.67 225.75 L377.64 153.07 Z " />
<glyph glyph-name="ccedilla" unicode="&#xe7;" horiz-adv-x="499" d="M289.04 -40.3 L301.16 -9.40001 C363.85 -7.28001 408.49 14.71 446.27 44.58 L428.2 74.84 C396.34 48.54 355.68 25.73 291.11 25.73 C176.49 25.73 105.71 112.46 105.71 235 C105.71 350.36 173.23 445.83 295.06 445.83 C353.58 445.83 392.29 429.96 426.81 404.75 L434.9 438.85 C401.49 462.57 356.06 480.85 295 480.85 C168.75 480.85 67.48 387.3 67.48 235 C67.48 87.05 155.21 -0.250031 271.83 -8.86003 L251 -62.39 C307.38 -66.54 336.53 -79.7 336.53 -114.3 C336.53 -147.72 305.2 -160.94 273.35 -160.94 C250.03 -160.94 232.1 -153.18 221.98 -147.51 L210.37 -173.72 C219.03 -179.57 245.61 -189.29 274.69 -189.29 C318.48 -189.29 370.98 -170.49 370.98 -112.25 C370.98 -65.72 338.04 -46.84 289.04 -40.3 L289.04 -40.3 Z " />
<glyph glyph-name="egrave" unicode="&#xe8;" horiz-adv-x="539" d="M355.6 551.02 L211.94 678.05 L186.95 646.23 L339.88 530.46 L355.6 551.02 Z M473.4 236.06 C474.13 242.3 475.31 255.2 475.31 269.83 C475.31 398.45 394.57 480.85 281.25 480.85 C166.91 480.85 67.48 387.54 67.48 234.71 C67.48 73.68 159.68 -9.57001 290.14 -9.57001 C366.99 -9.57001 417.75 17.52 454.71 46.51 L438.42 77.32 C410.86 54.81 368.04 25.73 290.73 25.73 C175.1 25.73 105.96 104.04 105.96 233.3 L106.04 236.06 L473.4 236.06 Z M281.25 446.11 C361.84 446.11 436.71 391.23 436.71 267.81 L107.45 267.81 C117.12 370.37 182.71 446.11 281.25 446.11 L281.25 446.11 Z " />
<glyph glyph-name="eacute" unicode="&#xe9;" horiz-adv-x="539" d="M364.63 646.23 L339.92 677.48 L196.62 550.3 L212.05 530.75 L364.63 646.23 Z M473.4 236.06 C474.13 242.3 475.31 255.2 475.31 269.83 C475.31 398.45 394.57 480.85 281.25 480.85 C166.91 480.85 67.48 387.54 67.48 234.71 C67.48 73.68 159.68 -9.57001 290.14 -9.57001 C366.99 -9.57001 417.75 17.52 454.71 46.51 L438.42 77.32 C410.86 54.81 368.04 25.73 290.73 25.73 C175.1 25.73 105.96 104.04 105.96 233.3 L106.04 236.06 L473.4 236.06 Z M281.25 446.11 C361.84 446.11 436.71 391.23 436.71 267.81 L107.45 267.81 C117.12 370.37 182.71 446.11 281.25 446.11 L281.25 446.11 Z " />
<glyph glyph-name="ecircumflex" unicode="&#xea;" horiz-adv-x="539" d="M278.91 637.03 L386.48 533.63 L406.13 553.66 L293.99 671.04 L265.09 671.04 L152.45 556.53 L171.39 535.78 L278.91 637.03 Z M473.4 236.06 C474.13 242.3 475.31 255.2 475.31 269.83 C475.31 398.45 394.57 480.85 281.25 480.85 C166.91 480.85 67.48 387.54 67.48 234.71 C67.48 73.68 159.68 -9.56999 290.14 -9.56999 C366.99 -9.56999 417.75 17.52 454.71 46.51 L438.42 77.32 C410.86 54.81 368.04 25.73 290.73 25.73 C175.1 25.73 105.96 104.04 105.96 233.3 L106.04 236.06 L473.4 236.06 Z M281.25 446.11 C361.84 446.11 436.71 391.23 436.71 267.81 L107.45 267.81 C117.12 370.37 182.71 446.11 281.25 446.11 L281.25 446.11 Z " />
<glyph glyph-name="edieresis" unicode="&#xeb;" horiz-adv-x="539" d="M179.32 569.5 C197.29 569.5 211.41 583.76 211.41 602.52 C211.41 620.25 197.29 635.22 179.32 635.22 C161.25 635.22 146.42 620.25 146.42 602.52 C146.42 583.76 161.53 569.5 179.32 569.5 L179.32 569.5 Z M380.57 569.5 C398.54 569.5 412.97 583.76 412.97 602.52 C412.97 620.25 398.54 635.22 380.57 635.22 C362.81 635.22 347.92 620.25 347.92 602.52 C347.92 583.76 363.07 569.5 380.57 569.5 L380.57 569.5 Z M473.4 236.06 C474.13 242.3 475.31 255.2 475.31 269.83 C475.31 398.45 394.57 480.85 281.25 480.85 C166.91 480.85 67.48 387.54 67.48 234.71 C67.48 73.68 159.68 -9.57001 290.14 -9.57001 C366.99 -9.57001 417.75 17.52 454.71 46.51 L438.42 77.32 C410.86 54.81 368.04 25.73 290.73 25.73 C175.1 25.73 105.96 104.04 105.96 233.3 L106.04 236.06 L473.4 236.06 Z M281.25 446.11 C361.84 446.11 436.71 391.23 436.71 267.81 L107.45 267.81 C117.12 370.37 182.71 446.11 281.25 446.11 L281.25 446.11 Z " />
<glyph glyph-name="igrave" unicode="&#xec;" horiz-adv-x="242" d="M177.58 530.46 L193.29 551.02 L49.64 678.05 L24.64 646.23 L177.58 530.46 Z M143.87 468.56 L57.23 468.56 L57.23 435.11 L106.62 435.11 L106.62 0 L143.87 0 L143.87 468.56 Z " />
<glyph glyph-name="iacute" unicode="&#xed;" horiz-adv-x="242" d="M55.1 530.75 L207.68 646.23 L182.97 677.48 L39.67 550.3 L55.1 530.75 Z M143.87 468.56 L57.23 468.56 L57.23 435.11 L106.62 435.11 L106.62 0 L143.87 0 L143.87 468.56 Z " />
<glyph glyph-name="icircumflex" unicode="&#xee;" horiz-adv-x="242" d="M129.07 671.04 L103.28 671.04 L2.75002 556.53 L19.65 535.78 L115.61 637.03 L211.61 533.63 L229.15 553.66 L129.07 671.04 Z M143.87 468.56 L57.23 468.56 L57.23 435.11 L106.62 435.11 L106.62 0 L143.87 0 L143.87 468.56 Z " />
<glyph glyph-name="idieresis" unicode="&#xef;" horiz-adv-x="242" d="M39.55 635.22 C21.48 635.22 6.64999 620.25 6.64999 602.52 C6.64999 583.76 21.76 569.5 39.55 569.5 C57.52 569.5 71.64 583.76 71.64 602.52 C71.64 620.25 57.52 635.22 39.55 635.22 L39.55 635.22 Z M175.34 635.22 C157.58 635.22 142.69 620.25 142.69 602.52 C142.69 583.76 157.83 569.5 175.34 569.5 C193.31 569.5 207.73 583.76 207.73 602.52 C207.73 620.25 193.31 635.22 175.34 635.22 L175.34 635.22 Z M143.66 468.56 L57.02 468.56 L57.02 435.11 L106.4 435.11 L106.4 0 L143.66 0 L143.66 468.56 Z " />
<glyph glyph-name="eth" unicode="&#xf0;" horiz-adv-x="568" d="M497.11 216.44 C497.11 216.56 497.11 216.68 497.11 216.8 C496.91 386.4 436.64 506.15 326.52 582.55 L396.34 636.21 L378.95 657.61 L301.92 598.41 C263.9 621.17 220.71 639.42 172.71 653.38 L159.76 618.85 C200.8 608.41 238.4 593.94 272.09 575.47 L192.66 514.42 L209.98 492.95 L297.55 560.27 C370.53 512.85 422.04 444.18 446.33 354.55 C409.05 404.78 353.18 433.4 280.32 433.4 C161.82 433.4 67.77 341.62 67.77 211.41 C67.77 78.41 156.49 -9.57002 280.32 -9.57002 C405.85 -9.57002 496.74 82 497.12 215.95 L497.11 216.44 Z M282.31 24.31 C174.38 24.31 106.06 102.31 106.06 211.41 C106.06 318.95 175.8 399.51 282.59 399.51 C389.1 399.51 458.27 319.44 458.27 213.11 C458.27 101.57 391.65 24.31 282.31 24.31 L282.31 24.31 Z " />
<glyph glyph-name="ntilde" unicode="&#xf1;" horiz-adv-x="570" d="M227.75 609.21 C263.99 609.21 295.43 567.33 344.33 567.33 C384.73 567.33 413.81 589.75 428.31 629.18 L399.61 640.03 C390.36 615.46 372.44 599.93 342.32 599.93 C303.37 599.93 271.22 642.1 225.74 642.1 C185.48 642.1 155.26 619.4 140.32 579.96 L169.02 569.12 C178.64 593.68 197.84 609.21 227.75 609.21 L227.75 609.21 Z M307.22 480.85 C228.13 480.85 167.31 439.5 136.29 390.9 C134.81 429.36 126.5 460.59 117.05 478.5 L80.8 469.16 C88.45 450.97 99.27 426.27 99.27 366.91 L99.27 -1.52588e-05 L136.53 -1.52588e-05 L136.53 344 C156.77 382.92 208.31 445.26 301.98 445.26 C394.15 445.26 440.69 390.02 440.69 280.05 L440.69 -3.05176e-05 L477.94 -3.05176e-05 L477.94 283.68 C477.94 416.12 418.44 480.85 307.22 480.85 L307.22 480.85 Z " />
<glyph glyph-name="ograve" unicode="&#xf2;" horiz-adv-x="589" d="M355.23 530.46 L370.95 551.02 L227.29 678.05 L202.3 646.23 L355.23 530.46 Z M295.87 480.85 C165.49 480.85 66.76 375.08 66.76 233.85 C66.76 90.29 161.11 -9.57001 292.87 -9.57001 C422.53 -9.57001 522.03 96.03 522.03 236.71 C522.03 377.95 428.27 480.85 295.87 480.85 L295.87 480.85 Z M293.67 26.01 C177.5 26.01 104.99 114.99 104.99 233.85 C104.99 348.98 178.22 445.26 295.1 445.26 C411.17 445.26 483.81 353.23 483.81 236.66 C483.81 117.8 410.45 26.01 293.67 26.01 L293.67 26.01 Z " />
<glyph glyph-name="oacute" unicode="&#xf3;" horiz-adv-x="589" d="M227.4 530.75 L379.98 646.23 L355.27 677.48 L211.97 550.3 L227.4 530.75 Z M295.87 480.85 C165.49 480.85 66.76 375.08 66.76 233.85 C66.76 90.29 161.11 -9.56999 292.87 -9.56999 C422.53 -9.56999 522.03 96.03 522.03 236.71 C522.03 377.95 428.27 480.85 295.87 480.85 L295.87 480.85 Z M293.67 26.01 C177.5 26.01 104.99 114.99 104.99 233.85 C104.99 348.98 178.22 445.26 295.1 445.26 C411.17 445.26 483.81 353.23 483.81 236.66 C483.81 117.8 410.45 26.01 293.67 26.01 L293.67 26.01 Z " />
<glyph glyph-name="ocircumflex" unicode="&#xf4;" horiz-adv-x="589" d="M309.34 671.04 L280.44 671.04 L167.8 556.53 L186.74 535.78 L294.26 637.03 L401.83 533.63 L421.48 553.66 L309.34 671.04 Z M295.87 480.85 C165.49 480.85 66.76 375.08 66.76 233.85 C66.76 90.29 161.11 -9.56999 292.87 -9.56999 C422.53 -9.56999 522.03 96.03 522.03 236.71 C522.03 377.95 428.27 480.85 295.87 480.85 L295.87 480.85 Z M293.67 26.01 C177.5 26.01 104.99 114.99 104.99 233.85 C104.99 348.98 178.22 445.26 295.1 445.26 C411.17 445.26 483.81 353.23 483.81 236.66 C483.81 117.8 410.45 26.01 293.67 26.01 L293.67 26.01 Z " />
<glyph glyph-name="otilde" unicode="&#xf5;" horiz-adv-x="589" d="M180.1 569.12 C189.72 593.68 208.92 609.21 238.83 609.21 C275.07 609.21 306.51 567.33 355.41 567.33 C395.81 567.33 424.89 589.75 439.39 629.18 L410.69 640.03 C401.44 615.46 383.52 599.93 353.4 599.93 C314.45 599.93 282.3 642.1 236.82 642.1 C196.56 642.1 166.34 619.4 151.4 579.96 L180.1 569.12 Z M295.87 480.85 C165.49 480.85 66.76 375.08 66.76 233.85 C66.76 90.29 161.11 -9.57002 292.87 -9.57002 C422.53 -9.57002 522.03 96.03 522.03 236.71 C522.03 377.95 428.27 480.85 295.87 480.85 L295.87 480.85 Z M293.67 26.01 C177.5 26.01 104.99 114.99 104.99 233.85 C104.99 348.98 178.22 445.26 295.1 445.26 C411.17 445.26 483.81 353.23 483.81 236.66 C483.81 117.8 410.45 26.01 293.67 26.01 L293.67 26.01 Z " />
<glyph glyph-name="odieresis" unicode="&#xf6;" horiz-adv-x="589" d="M226.76 602.52 C226.76 620.25 212.64 635.22 194.67 635.22 C176.6 635.22 161.77 620.25 161.77 602.52 C161.77 583.76 176.88 569.5 194.67 569.5 C212.64 569.5 226.76 583.76 226.76 602.52 L226.76 602.52 Z M428.32 602.52 C428.32 620.25 413.89 635.22 395.92 635.22 C378.16 635.22 363.27 620.25 363.27 602.52 C363.27 583.76 378.42 569.5 395.92 569.5 C413.89 569.5 428.32 583.76 428.32 602.52 L428.32 602.52 Z M295.87 480.85 C165.49 480.85 66.76 375.08 66.76 233.85 C66.76 90.29 161.11 -9.56999 292.87 -9.56999 C422.53 -9.56999 522.03 96.03 522.03 236.71 C522.03 377.95 428.27 480.85 295.87 480.85 L295.87 480.85 Z M293.67 26.01 C177.5 26.01 104.99 114.99 104.99 233.85 C104.99 348.98 178.22 445.26 295.1 445.26 C411.17 445.26 483.81 353.23 483.81 236.66 C483.81 117.8 410.45 26.01 293.67 26.01 L293.67 26.01 Z " />
<glyph glyph-name="divide" unicode="&#xf7;" horiz-adv-x="558" d="M279.31 351.49 C298.97 351.49 314.79 367.3 314.79 386.97 C314.79 405.92 298.97 422.45 279.31 422.45 C260.07 422.45 243.54 405.92 243.54 386.97 C243.54 367.3 260.07 351.49 279.31 351.49 L279.31 351.49 Z M86.87 219.41 L471.46 219.41 L471.46 252.15 L86.87 252.15 L86.87 219.41 Z M279.31 49.1 C298.97 49.1 314.79 64.92 314.79 84.59 C314.79 103.54 298.97 120.07 279.31 120.07 C260.07 120.07 243.54 103.54 243.54 84.59 C243.54 64.92 260.07 49.1 279.31 49.1 L279.31 49.1 Z " />
<glyph glyph-name="oslash" unicode="&#xf8;" horiz-adv-x="592" d="M529.07 472.18 L507.58 492.33 L447.05 424.94 C408.23 460.29 356.77 480.85 297.58 480.85 C167.21 480.85 68.48 375.08 68.48 233.85 C68.48 166.44 89.29 108.66 125 66.33 L63.13 -2.56001 L84.55 -23.84 L146.01 44.74 C184.8 10.18 236 -9.57001 294.59 -9.57001 C424.25 -9.57001 523.75 96.03 523.75 236.71 C523.75 302.97 503.11 360.79 467.53 403.51 L529.07 472.18 Z M106.71 233.85 C106.71 348.98 179.94 445.26 296.82 445.26 C347.93 445.26 390.62 427.42 422.39 397.48 L150.12 94.3 C122.12 130.6 106.71 179.05 106.71 233.85 L106.71 233.85 Z M485.52 236.66 C485.52 117.8 412.17 26.01 295.38 26.01 C244.62 26.01 202.19 43.01 170.5 72.06 L442.28 375.34 C470.16 338.67 485.52 290.26 485.52 236.66 L485.52 236.66 Z " />
<glyph glyph-name="ugrave" unicode="&#xf9;" horiz-adv-x="564" d="M357.63 551.02 L213.97 678.05 L188.98 646.23 L341.91 530.46 L357.63 551.02 Z M482.91 1.54999 C475.33 19.74 464.44 44.44 464.44 103.8 L464.44 468.56 L427.19 468.56 L427.19 128.03 C408.74 82.95 356.64 25.19 270.75 25.19 C167.09 25.19 129.89 90.76 129.89 186.83 L129.89 468.56 L92.63 468.56 L92.63 172.44 C92.63 61.36 146.57 -10.39 265.6 -10.39 C344.33 -10.39 399.45 31.53 427.53 77.26 C429.29 39.97 437.49 9.73 446.74 -7.79001 L482.91 1.54999 Z " />
<glyph glyph-name="uacute" unicode="&#xfa;" horiz-adv-x="564" d="M366.65 646.23 L341.95 677.48 L198.65 550.3 L214.08 530.75 L366.65 646.23 Z M482.91 1.55 C475.33 19.74 464.44 44.44 464.44 103.8 L464.44 468.56 L427.19 468.56 L427.19 128.03 C408.74 82.95 356.64 25.19 270.75 25.19 C167.09 25.19 129.89 90.76 129.89 186.83 L129.89 468.56 L92.63 468.56 L92.63 172.44 C92.63 61.36 146.57 -10.39 265.6 -10.39 C344.33 -10.39 399.45 31.53 427.53 77.26 C429.29 39.97 437.49 9.73001 446.74 -7.78999 L482.91 1.55 Z " />
<glyph glyph-name="ucircumflex" unicode="&#xfb;" horiz-adv-x="564" d="M280.93 637.03 L388.5 533.63 L408.16 553.66 L296.02 671.04 L267.12 671.04 L154.48 556.53 L173.42 535.78 L280.93 637.03 Z M482.91 1.55002 C475.33 19.74 464.44 44.44 464.44 103.8 L464.44 468.56 L427.19 468.56 L427.19 128.03 C408.74 82.95 356.64 25.19 270.75 25.19 C167.09 25.19 129.89 90.76 129.89 186.83 L129.89 468.56 L92.63 468.56 L92.63 172.44 C92.63 61.36 146.57 -10.39 265.6 -10.39 C344.33 -10.39 399.45 31.53 427.53 77.26 C429.29 39.97 437.49 9.73003 446.74 -7.78998 L482.91 1.55002 Z " />
<glyph glyph-name="udieresis" unicode="&#xfc;" horiz-adv-x="564" d="M181.35 569.5 C199.32 569.5 213.43 583.76 213.43 602.52 C213.43 620.25 199.32 635.22 181.35 635.22 C163.28 635.22 148.44 620.25 148.44 602.52 C148.44 583.76 163.56 569.5 181.35 569.5 L181.35 569.5 Z M382.6 569.5 C400.57 569.5 415 583.76 415 602.52 C415 620.25 400.57 635.22 382.6 635.22 C364.84 635.22 349.95 620.25 349.95 602.52 C349.95 583.76 365.1 569.5 382.6 569.5 L382.6 569.5 Z M482.91 1.55 C475.33 19.74 464.44 44.44 464.44 103.8 L464.44 468.56 L427.19 468.56 L427.19 128.03 C408.74 82.95 356.64 25.19 270.75 25.19 C167.09 25.19 129.89 90.76 129.89 186.83 L129.89 468.56 L92.63 468.56 L92.63 172.44 C92.63 61.36 146.57 -10.39 265.6 -10.39 C344.33 -10.39 399.45 31.53 427.53 77.26 C429.29 39.97 437.49 9.73001 446.74 -7.78999 L482.91 1.55 Z " />
<glyph glyph-name="yacute" unicode="&#xfd;" horiz-adv-x="506" d="M344.52 646.23 L319.81 677.48 L176.51 550.3 L191.94 530.75 L344.52 646.23 Z M463.06 468.56 L422.36 468.56 L256.43 35.37 L87.09 468.56 L45.48 468.56 L232.65 0 L241.69 0 L209.26 -78.17 C190.62 -122.92 161.28 -159.78 86.83 -159.78 L86.83 -194.23 C156.11 -194.23 207.79 -174.73 243.26 -86.17 L277.84 0 L277.79 0 L463.06 468.56 Z " />
<glyph glyph-name="thorn" unicode="&#xfe;" horiz-adv-x="567" d="M303.63 481.07 C235.94 481.07 170.27 448.03 134.68 391.22 L134.7 658.19 L97.63 658.19 L97.63 -188.63 L134.63 -188.63 L134.65 19.58 C175.49 0.400024 218.99 -9.33998 267.38 -9.33998 C412.24 -9.33998 498.29 92.6 498.29 239.43 C498.29 390.04 433.73 481.07 303.63 481.07 L303.63 481.07 Z M268.74 25.11 C213.04 25.11 173.23 37.72 134.65 60.78 L134.68 344.43 C167.42 405.29 226.68 445.77 298.4 445.77 C408.61 445.77 460.09 369.89 460.09 239.43 C460.09 110.79 386.04 25.11 268.74 25.11 L268.74 25.11 Z " />
<glyph glyph-name="ydieresis" unicode="&#xff;" horiz-adv-x="506" d="M159.21 569.5 C177.18 569.5 191.3 583.76 191.3 602.52 C191.3 620.25 177.18 635.22 159.21 635.22 C141.14 635.22 126.31 620.25 126.31 602.52 C126.31 583.76 141.42 569.5 159.21 569.5 L159.21 569.5 Z M360.46 569.5 C378.43 569.5 392.86 583.76 392.86 602.52 C392.86 620.25 378.43 635.22 360.46 635.22 C342.7 635.22 327.81 620.25 327.81 602.52 C327.81 583.76 342.96 569.5 360.46 569.5 L360.46 569.5 Z M463.06 468.56 L422.36 468.56 L256.43 35.37 L87.09 468.56 L45.48 468.56 L232.65 0 L241.69 0 L209.26 -78.17 C190.62 -122.92 161.28 -159.78 86.83 -159.78 L86.83 -194.23 C156.11 -194.23 207.79 -174.73 243.26 -86.17 L277.84 0 L277.79 0 L463.06 468.56 Z " />
<glyph glyph-name="Amacron" unicode="&#x100;" horiz-adv-x="607" d="M426.27 754.23 L175.43 754.23 L175.43 722.35 L426.27 722.35 L426.27 754.23 Z M525.81 -1.52588e-05 L566.94 -1.52588e-05 L318.83 642 L282.42 642 L44.05 -1.52588e-05 L84.04 -1.52588e-05 L157.99 204.22 L448.05 204.22 L525.81 -1.52588e-05 Z M170.1 237.67 L287.15 560.89 L299.48 597.21 L312.29 560.78 L435.32 237.67 L170.1 237.67 Z " />
<glyph glyph-name="amacron" unicode="&#x101;" horiz-adv-x="511" d="M370.24 604.63 L121.98 604.63 L121.98 573.46 L370.24 573.46 L370.24 604.63 Z M434.22 1.55 C425.77 19.74 414.81 44.47 414.81 103.8 L414.81 310.31 C414.81 434.83 334.39 480.85 236.91 480.85 C170.89 480.85 121.1 465.54 84.95 447.14 L93.8 413.18 C148.21 438.36 186.41 445.26 234.85 445.26 C317.25 445.26 377.9 407.71 377.9 308.41 L377.9 262.81 L239.16 262.81 C124.06 262.81 57.33 213.93 57.33 127.7 C57.33 41.64 120.14 -9.57002 215.96 -9.57002 C298.21 -9.57002 350.58 36.31 378 78.85 C379.56 37.8 389.76 7.61998 398.27 -7.79002 L434.22 1.55 Z M222.02 24.6 C142.55 24.6 95.84 63.24 95.84 128.26 C95.84 186.01 135.76 231.21 239.25 231.35 L377.55 231.57 L377.53 124.99 C358.88 80.27 307.83 24.6 222.02 24.6 L222.02 24.6 Z " />
<glyph glyph-name="Abreve" unicode="&#x102;" horiz-adv-x="607" d="M300.88 684.88 C357.85 684.88 408.85 721.41 423.36 780.61 L391.61 785.96 C376.89 740.46 339.72 716.92 300.87 716.92 C262.01 716.92 224.85 740.46 210.13 785.96 L178.38 780.61 C192.88 721.41 243.88 684.88 300.86 684.88 L300.88 684.88 Z M525.79 0 L566.92 0 L318.81 642 L282.4 642 L44.03 0 L84.02 0 L157.97 204.22 L448.03 204.22 L525.79 0 Z M170.08 237.67 L287.13 560.89 L299.46 597.21 L312.27 560.78 L435.3 237.67 L170.08 237.67 Z " />
<glyph glyph-name="abreve" unicode="&#x103;" horiz-adv-x="511" d="M245.98 539.31 C308.92 539.31 360.56 581.08 369.59 653.11 L341.87 657.32 C331.38 598.27 291.3 570.43 246.52 570.43 C201.65 570.43 161.35 597.98 150.09 657.32 L122.28 653.11 C131.31 579.95 182.95 539.31 245.98 539.31 L245.98 539.31 Z M434.22 1.55 C425.77 19.74 414.81 44.47 414.81 103.8 L414.81 310.31 C414.81 434.83 334.39 480.85 236.91 480.85 C170.89 480.85 121.1 465.54 84.95 447.14 L93.8 413.18 C148.21 438.36 186.41 445.26 234.85 445.26 C317.25 445.26 377.9 407.71 377.9 308.41 L377.9 262.81 L239.16 262.81 C124.06 262.81 57.33 213.93 57.33 127.7 C57.33 41.64 120.14 -9.57002 215.96 -9.57002 C298.21 -9.57002 350.58 36.31 378 78.85 C379.56 37.8 389.76 7.61998 398.27 -7.79002 L434.22 1.55 Z M222.02 24.6 C142.55 24.6 95.84 63.24 95.84 128.26 C95.84 186.01 135.76 231.21 239.25 231.35 L377.55 231.57 L377.53 124.99 C358.88 80.27 307.83 24.6 222.02 24.6 L222.02 24.6 Z " />
<glyph glyph-name="Aogonek" unicode="&#x104;" horiz-adv-x="607" d="M572.55 -127.51 C559.68 -138.26 544.23 -145.8 526.43 -145.8 C503.35 -145.8 485.6 -127.91 485.6 -99.18 C485.6 -61.16 513.26 -28.13 566.94 1.52588e-05 L318.83 642 L282.42 642 L44.05 1.52588e-05 L84.04 1.52588e-05 L157.99 204.22 L448.05 204.22 L525.11 1.85002 C478.11 -25.88 449.8 -64.24 449.8 -106.66 C449.8 -151.83 479.09 -178.54 522.13 -178.54 C547.15 -178.54 566.6 -169.28 586.83 -153.42 L572.55 -127.51 Z M170.11 237.67 L287.16 560.89 L299.49 597.21 L312.3 560.78 L435.33 237.67 L170.11 237.67 Z " />
<glyph glyph-name="aogonek" unicode="&#x105;" horiz-adv-x="511" d="M439.99 -127.51 C427.11 -138.26 411.67 -145.8 393.87 -145.8 C368.85 -145.8 352.32 -127.91 352.32 -99.18 C352.32 -62.55 379.4 -27.61 434.33 1.55002 L434.21 1.57002 C425.76 19.76 414.81 44.5 414.81 103.8 L414.81 310.31 C414.81 434.83 334.39 480.85 236.91 480.85 C170.89 480.85 121.1 465.54 84.95 447.14 L93.8 413.18 C148.21 438.36 186.41 445.26 234.85 445.26 C317.25 445.26 377.9 407.71 377.9 308.41 L377.9 262.81 L239.16 262.81 C124.06 262.81 57.33 213.93 57.33 127.7 C57.33 41.64 120.14 -9.56999 215.96 -9.56999 C298.21 -9.56999 350.58 36.31 378 78.85 C379.21 47.13 385.57 21.91 392.33 4.96001 C341.59 -25.16 316.51 -65.98 316.51 -106.66 C316.51 -151.83 346.08 -178.54 389.56 -178.54 C414.58 -178.54 433.31 -169.92 454.26 -153.42 L439.99 -127.51 Z M222.02 24.6 C142.55 24.6 95.84 63.24 95.84 128.26 C95.84 186.01 135.76 231.21 239.25 231.35 L377.55 231.57 L377.53 124.99 C358.88 80.27 307.83 24.6 222.02 24.6 L222.02 24.6 Z " />
<glyph glyph-name="Cacute" unicode="&#x106;" horiz-adv-x="606" d="M276.22 682.68 L454.51 753 L438.8 789.38 L267.43 705.92 L276.22 682.68 Z M362.34 -9.57001 C456.88 -9.57001 516.78 21.99 559.07 58.87 L539.23 87.61 C499.34 51.93 447.15 26.01 362.45 26.01 C210.51 26.01 110.67 147.52 110.67 321 C110.67 496.3 212.67 619.13 368.2 619.13 C438.86 619.13 482.9 600.18 529.95 564.03 L550.96 593.56 C506.72 629.93 450.98 654.71 368.14 654.71 C191.92 654.71 71.76 515.57 71.76 321 C71.76 130.27 184.05 -9.56999 362.34 -9.56999 L362.34 -9.57001 Z " />
<glyph glyph-name="cacute" unicode="&#x107;" horiz-adv-x="499" d="M217.63 530.75 L370.21 646.23 L345.5 677.48 L202.2 550.3 L217.63 530.75 Z M434.9 438.85 C401.49 462.57 356.06 480.85 295 480.85 C168.75 480.85 67.48 387.3 67.48 235 C67.48 79 165.02 -9.57001 291.11 -9.57001 C359.13 -9.57001 406.5 13.14 446.27 44.58 L428.2 74.84 C396.34 48.54 355.68 25.73 291.11 25.73 C176.49 25.73 105.71 112.46 105.71 235 C105.71 350.36 173.23 445.83 295.06 445.83 C353.58 445.83 392.29 429.96 426.81 404.75 L434.9 438.85 Z " />
<glyph glyph-name="Cdotaccent" unicode="&#x10a;" horiz-adv-x="606" d="M351.02 711.91 C369.44 711.91 384.07 726.6 384.07 745.41 C384.07 763.51 369.44 778.91 351.02 778.91 C332.81 778.91 317.5 763.51 317.5 745.41 C317.5 726.6 333.07 711.91 351.02 711.91 L351.02 711.91 Z M362.34 -9.56999 C456.88 -9.56999 516.78 21.99 559.07 58.87 L539.23 87.61 C499.34 51.93 447.15 26.01 362.45 26.01 C210.51 26.01 110.67 147.52 110.67 321 C110.67 496.3 212.67 619.13 368.2 619.13 C438.86 619.13 482.9 600.18 529.95 564.03 L550.96 593.56 C506.72 629.93 450.98 654.71 368.14 654.71 C191.92 654.71 71.76 515.57 71.76 321 C71.76 130.27 184.05 -9.56998 362.34 -9.56998 L362.34 -9.56999 Z " />
<glyph glyph-name="cdotaccent" unicode="&#x10b;" horiz-adv-x="499" d="M318.82 604.41 C318.82 622.8 303.96 638.48 285.29 638.48 C266.79 638.48 251.22 622.8 251.22 604.41 C251.22 585.31 267.07 570.35 285.29 570.35 C303.96 570.35 318.82 585.31 318.82 604.41 L318.82 604.41 Z M434.9 438.85 C401.49 462.57 356.06 480.85 295 480.85 C168.75 480.85 67.48 387.3 67.48 235 C67.48 79 165.02 -9.57001 291.11 -9.57001 C359.13 -9.57001 406.5 13.14 446.27 44.58 L428.2 74.84 C396.34 48.54 355.68 25.73 291.11 25.73 C176.49 25.73 105.71 112.46 105.71 235 C105.71 350.36 173.23 445.83 295.06 445.83 C353.58 445.83 392.29 429.96 426.81 404.75 L434.9 438.85 Z " />
<glyph glyph-name="Ccaron" unicode="&#x10c;" horiz-adv-x="606" d="M364.43 680.03 L472.76 773.58 L458.18 793.65 L351 710.94 L243.93 793.65 L229.34 773.58 L337.67 680.03 L364.43 680.03 Z M362.34 -9.57001 C456.88 -9.57001 516.78 21.99 559.07 58.87 L539.23 87.61 C499.34 51.93 447.15 26.01 362.45 26.01 C210.51 26.01 110.67 147.52 110.67 321 C110.67 496.3 212.67 619.13 368.2 619.13 C438.86 619.13 482.9 600.18 529.95 564.03 L550.96 593.56 C506.72 629.93 450.98 654.71 368.14 654.71 C191.92 654.71 71.76 515.57 71.76 321 C71.76 130.27 184.05 -9.56999 362.34 -9.56999 L362.34 -9.57001 Z " />
<glyph glyph-name="ccaron" unicode="&#x10d;" horiz-adv-x="499" d="M270.68 534.12 L299.58 534.12 L412.22 655.72 L393.28 676.47 L285.71 568.05 L178.2 678.62 L158.54 658.59 L270.68 534.12 Z M434.9 438.85 C401.49 462.57 356.06 480.85 295 480.85 C168.75 480.85 67.48 387.3 67.48 235 C67.48 79 165.02 -9.57001 291.11 -9.57001 C359.13 -9.57001 406.5 13.14 446.27 44.58 L428.2 74.84 C396.34 48.54 355.68 25.73 291.11 25.73 C176.49 25.73 105.71 112.46 105.71 235 C105.71 350.36 173.23 445.83 295.06 445.83 C353.58 445.83 392.29 429.96 426.81 404.75 L434.9 438.85 Z " />
<glyph glyph-name="Dcaron" unicode="&#x10e;" horiz-adv-x="673" d="M320.87 680.03 L429.2 773.58 L414.61 793.65 L307.43 710.94 L200.36 793.65 L185.77 773.58 L294.1 680.03 L320.87 680.03 Z M284.67 642 L113.91 642 L113.91 0 L287.32 0 C480.77 0 599.37 131.21 599.37 324.28 C599.37 512.52 485.46 642 284.67 642 L284.67 642 Z M288.3 34.3 L151.17 34.3 L151.17 607.13 L284.79 607.13 C461.78 607.13 560.18 492.78 560.18 323.71 C560.18 144.98 458.83 34.3 288.3 34.3 L288.3 34.3 Z " />
<glyph glyph-name="dcaron" unicode="&#x10f;" horiz-adv-x="598" d="M589.17 671.6 L548.61 671.6 C550.37 667.21 555.55 645.33 555.55 622.42 C555.55 602.2 552.17 571.14 538.02 533.14 L560.21 521.33 C583.05 559.43 592.75 601.12 592.75 630.53 C592.75 658.42 590.26 667.55 589.17 671.6 L589.17 671.6 Z M468.77 658.13 L431.77 658.13 L431.77 449.85 C390.74 469.69 347.21 480.85 297.94 480.85 C156.23 480.85 67.76 387.4 67.76 233.43 C67.76 84.95 143.55 -9.56998 266.77 -9.56998 C335.44 -9.56998 397.79 22.82 432 79.63 C433.49 40.96 441.79 10.11 451.25 -7.78998 L487.24 1.55002 C479.58 19.74 468.77 44.44 468.77 103.8 L468.77 658.13 Z M272.22 25.73 C168.89 26.1 105.96 105.27 105.96 233.43 C105.96 369.22 182.42 446.4 296.58 446.4 C353.17 446.4 392.88 432.35 431.77 409.91 L431.77 126.93 C399.89 65.48 344.27 25.46 272.22 25.73 L272.22 25.73 Z " />
<glyph glyph-name="Dcroat" unicode="&#x110;" horiz-adv-x="675" d="M286.66 642 L115.9 642 L115.9 340.14 L43.93 340.14 L43.93 308.67 L115.9 308.67 L115.9 0 L289.31 0 C482.75 0 601.36 131.21 601.36 324.28 C601.36 512.52 487.44 642 286.66 642 L286.66 642 Z M290.28 34.3 L153.15 34.3 L153.15 308.67 L273.94 308.67 L273.94 340.14 L153.15 340.14 L153.15 607.13 L286.77 607.13 C463.76 607.13 562.17 492.78 562.17 323.71 C562.17 144.98 460.81 34.3 290.28 34.3 L290.28 34.3 Z " />
<glyph glyph-name="dcroat" unicode="&#x111;" horiz-adv-x="569" d="M544.28 560.99 L544.28 591.59 L468.77 591.59 L468.77 658.13 L431.77 658.13 L431.77 591.59 L320.61 591.59 L320.61 560.99 L431.77 560.99 L431.77 449.85 C390.74 469.69 347.21 480.85 297.94 480.85 C156.23 480.85 67.76 387.4 67.76 233.43 C67.76 84.95 143.55 -9.56999 266.77 -9.56999 C335.44 -9.56999 397.79 22.82 432 79.63 C433.49 40.96 441.79 10.11 451.25 -7.78999 L487.24 1.55 C479.58 19.74 468.77 44.44 468.77 103.8 L468.77 560.99 L544.28 560.99 Z M272.22 25.73 C168.89 26.1 105.96 105.27 105.96 233.43 C105.96 369.22 182.42 446.4 296.58 446.4 C353.17 446.4 392.88 432.35 431.77 409.91 L431.77 126.93 C399.89 65.48 344.27 25.46 272.22 25.73 L272.22 25.73 Z " />
<glyph glyph-name="Emacron" unicode="&#x112;" horiz-adv-x="548" d="M428.76 754.23 L177.92 754.23 L177.92 722.35 L428.76 722.35 L428.76 754.23 Z M150.91 34.58 L150.91 316.65 L443.41 316.65 L443.41 351.23 L150.91 351.23 L150.91 607.13 L473.4 607.13 L473.4 642 L113.91 642 L113.91 -1.52588e-05 L486.39 -1.52588e-05 L486.39 34.58 L150.91 34.58 Z " />
<glyph glyph-name="emacron" unicode="&#x113;" horiz-adv-x="539" d="M404 604.63 L155.73 604.63 L155.73 573.46 L404 573.46 L404 604.63 Z M473.4 236.06 C474.13 242.3 475.31 255.2 475.31 269.83 C475.31 398.45 394.57 480.85 281.25 480.85 C166.91 480.85 67.48 387.54 67.48 234.71 C67.48 73.68 159.68 -9.56999 290.14 -9.56999 C366.99 -9.56999 417.75 17.52 454.71 46.51 L438.42 77.32 C410.86 54.81 368.04 25.73 290.73 25.73 C175.1 25.73 105.96 104.04 105.96 233.3 L106.04 236.06 L473.4 236.06 Z M281.25 446.11 C361.84 446.11 436.71 391.23 436.71 267.81 L107.45 267.81 C117.12 370.37 182.71 446.11 281.25 446.11 L281.25 446.11 Z " />
<glyph glyph-name="Edotaccent" unicode="&#x116;" horiz-adv-x="548" d="M303.51 711.91 C321.93 711.91 336.55 726.6 336.55 745.41 C336.55 763.51 321.93 778.91 303.51 778.91 C285.29 778.91 269.98 763.51 269.98 745.41 C269.98 726.6 285.55 711.91 303.51 711.91 L303.51 711.91 Z M150.91 34.58 L150.91 316.65 L443.41 316.65 L443.41 351.23 L150.91 351.23 L150.91 607.13 L473.4 607.13 L473.4 642 L113.91 642 L113.91 0 L486.39 0 L486.39 34.58 L150.91 34.58 Z " />
<glyph glyph-name="edotaccent" unicode="&#x117;" horiz-adv-x="539" d="M279.71 570.35 C298.38 570.35 313.24 585.31 313.24 604.41 C313.24 622.8 298.38 638.48 279.71 638.48 C261.21 638.48 245.64 622.8 245.64 604.41 C245.64 585.31 261.49 570.35 279.71 570.35 L279.71 570.35 Z M473.4 236.06 C474.13 242.3 475.31 255.2 475.31 269.83 C475.31 398.45 394.57 480.85 281.25 480.85 C166.91 480.85 67.48 387.54 67.48 234.71 C67.48 73.68 159.68 -9.56999 290.14 -9.56999 C366.99 -9.56999 417.75 17.52 454.71 46.51 L438.42 77.32 C410.86 54.81 368.04 25.73 290.73 25.73 C175.1 25.73 105.96 104.04 105.96 233.3 L106.04 236.06 L473.4 236.06 Z M281.25 446.11 C361.84 446.11 436.71 391.23 436.71 267.81 L107.45 267.81 C117.12 370.37 182.71 446.11 281.25 446.11 L281.25 446.11 Z " />
<glyph glyph-name="Eogonek" unicode="&#x118;" horiz-adv-x="548" d="M491.86 -127.44 C478.98 -138.18 463.68 -145.8 445.88 -145.8 C422.79 -145.8 405.04 -127.91 405.04 -99.18 C405.04 -61.16 432.7 -28.13 486.39 0 L486.39 34.58 L150.91 34.58 L150.91 316.65 L443.41 316.65 L443.41 351.23 L150.91 351.23 L150.91 607.13 L473.4 607.13 L473.4 642 L113.91 642 L113.91 0 L441.25 0 C396.38 -27.53 369.23 -65.2 369.23 -106.66 C369.23 -151.83 398.52 -178.54 441.57 -178.54 C466.59 -178.54 486.04 -169.92 506.27 -153.42 L491.86 -127.44 Z " />
<glyph glyph-name="eogonek" unicode="&#x119;" horiz-adv-x="539" d="M473.4 236.06 C474.13 242.3 475.31 255.2 475.31 269.83 C475.31 398.45 394.57 480.85 281.25 480.85 C166.91 480.85 67.48 387.54 67.48 234.71 C67.48 73.68 159.68 -9.57001 290.14 -9.57001 C305.31 -9.57001 319.45 -8.51001 332.68 -6.60001 C293.16 -38.06 278.29 -70.11 278.29 -105.58 C278.29 -151.83 307.86 -178.54 351.34 -178.54 C376.36 -178.54 395.09 -169.92 416.04 -153.42 L401.77 -127.51 C388.89 -138.26 373.45 -145.8 355.65 -145.8 C332.13 -145.8 314.1 -127.91 314.1 -97.05 C314.1 -61.05 339.13 -22.73 399.92 12.85 C421.23 22.49 439.19 34.33 454.71 46.51 L438.42 77.32 C410.86 54.81 368.04 25.73 290.73 25.73 C175.1 25.73 105.96 104.04 105.96 233.3 L106.04 236.06 L473.4 236.06 Z M281.25 446.11 C361.84 446.11 436.71 391.23 436.71 267.81 L107.45 267.81 C117.12 370.37 182.71 446.11 281.25 446.11 L281.25 446.11 Z " />
<glyph glyph-name="Ecaron" unicode="&#x11a;" horiz-adv-x="548" d="M316.92 680.03 L425.25 773.58 L410.66 793.65 L303.48 710.94 L196.41 793.65 L181.82 773.58 L290.15 680.03 L316.92 680.03 Z M150.91 34.58 L150.91 316.65 L443.41 316.65 L443.41 351.23 L150.91 351.23 L150.91 607.13 L473.4 607.13 L473.4 642 L113.91 642 L113.91 0 L486.39 0 L486.39 34.58 L150.91 34.58 Z " />
<glyph glyph-name="ecaron" unicode="&#x11b;" horiz-adv-x="539" d="M294 534.12 L406.64 655.72 L387.7 676.47 L280.13 568.05 L172.62 678.62 L152.96 658.59 L265.1 534.12 L294 534.12 Z M473.4 236.06 C474.13 242.3 475.31 255.2 475.31 269.83 C475.31 398.45 394.57 480.85 281.25 480.85 C166.91 480.85 67.48 387.54 67.48 234.71 C67.48 73.68 159.68 -9.56999 290.14 -9.56999 C366.99 -9.56999 417.75 17.52 454.71 46.51 L438.42 77.32 C410.86 54.81 368.04 25.73 290.73 25.73 C175.1 25.73 105.96 104.04 105.96 233.3 L106.04 236.06 L473.4 236.06 Z M281.25 446.11 C361.84 446.11 436.71 391.23 436.71 267.81 L107.45 267.81 C117.12 370.37 182.71 446.11 281.25 446.11 L281.25 446.11 Z " />
<glyph glyph-name="Gbreve" unicode="&#x11e;" horiz-adv-x="652" d="M350.46 684.88 C407.43 684.88 458.43 721.41 472.94 780.61 L441.19 785.96 C426.47 740.46 389.3 716.92 350.45 716.92 C311.59 716.92 274.43 740.46 259.71 785.96 L227.96 780.61 C242.46 721.41 293.46 684.88 350.44 684.88 L350.46 684.88 Z M373.03 306.41 L373.03 270.98 L534.94 270.98 L534.94 68.85 C495.27 42.44 439.01 26.01 365.78 26.01 C204.65 26.01 110.65 148.91 110.65 320.71 C110.65 497.12 214.49 618.85 368.69 618.85 C444.21 618.85 489.96 599.3 538.22 562.9 L558.66 593.85 C514.94 629.65 456.28 654.71 368.72 654.71 C194.67 654.71 71.74 519.48 71.74 320.71 C71.74 126.36 188.59 -9.56999 365.27 -9.56999 C455.18 -9.56999 525.85 14.72 572.39 50.46 L572.39 306.41 L373.03 306.41 Z " />
<glyph glyph-name="gbreve" unicode="&#x11f;" horiz-adv-x="519" d="M270.92 539.31 C333.87 539.31 385.5 581.08 394.53 653.11 L366.82 657.32 C356.32 598.27 316.24 570.43 271.46 570.43 C226.6 570.43 186.29 597.98 175.03 657.32 L147.23 653.11 C156.26 579.95 207.89 539.31 270.92 539.31 L270.92 539.31 Z M312.73 61.5 L208.68 61.5 C142.7 61.5 131.31 103.98 131.31 129.7 C131.31 156.32 143.92 174.86 156.62 185.33 C184.07 169.09 217.79 160 255.65 160 C358.5 160 431.14 226.15 431.14 320.46 C431.14 358.63 419.34 392.17 398.54 418.58 C439.78 434.97 472.41 470.04 474.55 528.36 L437.24 533.91 C437.05 481.22 411.29 451.51 376.33 441.29 C346.03 466.37 304.83 480.85 257.03 480.85 C154.21 480.85 81.47 414.77 81.47 320.46 C81.47 273.77 99.13 233.98 129.36 205.7 C110.99 187.64 94.52 163.68 94.52 128.65 C94.52 97.79 107.89 64.48 139.87 45.01 C99.56 30.82 59.76 -4.45003 59.76 -62.78 C59.76 -145.92 133.06 -194.23 262.86 -194.23 C390.56 -194.23 470.75 -147.5 470.75 -60.65 C470.75 24.33 397.66 61.5 312.73 61.5 L312.73 61.5 Z M118.02 320.46 C118.02 395.36 174.64 447.25 256.38 447.25 C337.8 447.25 394.65 395.25 394.65 320.46 C394.65 245.54 337.74 193.51 256.35 193.51 C174.87 193.51 118.02 245.54 118.02 320.46 L118.02 320.46 Z M262.86 -159.5 C159.2 -159.5 97.93 -124.99 97.93 -61.99 C97.93 2.25996 155.59 28.15 212.52 28.15 L312.3 28.15 C380.22 28.15 432.61 0.869965 432.61 -60.65 C432.61 -124.75 371.41 -159.5 262.86 -159.5 L262.86 -159.5 Z " />
<glyph glyph-name="Gdotaccent" unicode="&#x120;" horiz-adv-x="652" d="M350.6 711.91 C369.02 711.91 383.65 726.6 383.65 745.41 C383.65 763.51 369.02 778.91 350.6 778.91 C332.39 778.91 317.07 763.51 317.07 745.41 C317.07 726.6 332.64 711.91 350.6 711.91 L350.6 711.91 Z M373.05 306.41 L373.05 270.98 L534.96 270.98 L534.96 68.85 C495.29 42.44 439.03 26.01 365.8 26.01 C204.67 26.01 110.67 148.91 110.67 320.71 C110.67 497.12 214.51 618.85 368.71 618.85 C444.23 618.85 489.98 599.3 538.24 562.9 L558.68 593.85 C514.96 629.65 456.3 654.71 368.74 654.71 C194.69 654.71 71.76 519.48 71.76 320.71 C71.76 126.36 188.61 -9.56999 365.29 -9.56999 C455.2 -9.56999 525.87 14.72 572.41 50.46 L572.41 306.41 L373.05 306.41 Z " />
<glyph glyph-name="gdotaccent" unicode="&#x121;" horiz-adv-x="519" d="M270.9 570.35 C289.57 570.35 304.42 585.31 304.42 604.41 C304.42 622.8 289.57 638.48 270.9 638.48 C252.4 638.48 236.83 622.8 236.83 604.41 C236.83 585.31 252.68 570.35 270.9 570.35 L270.9 570.35 Z M312.73 61.5 L208.68 61.5 C142.7 61.5 131.31 103.98 131.31 129.7 C131.31 156.32 143.92 174.86 156.62 185.33 C184.07 169.09 217.79 160 255.65 160 C358.5 160 431.14 226.15 431.14 320.46 C431.14 358.63 419.34 392.17 398.54 418.58 C439.78 434.97 472.41 470.04 474.55 528.36 L437.24 533.91 C437.05 481.22 411.29 451.51 376.33 441.29 C346.03 466.37 304.83 480.85 257.03 480.85 C154.21 480.85 81.47 414.77 81.47 320.46 C81.47 273.77 99.13 233.98 129.36 205.7 C110.99 187.64 94.52 163.68 94.52 128.65 C94.52 97.79 107.89 64.48 139.87 45.01 C99.56 30.82 59.76 -4.45003 59.76 -62.78 C59.76 -145.92 133.06 -194.23 262.86 -194.23 C390.56 -194.23 470.75 -147.5 470.75 -60.65 C470.75 24.33 397.66 61.5 312.73 61.5 L312.73 61.5 Z M118.02 320.46 C118.02 395.36 174.64 447.25 256.38 447.25 C337.8 447.25 394.65 395.25 394.65 320.46 C394.65 245.54 337.74 193.51 256.35 193.51 C174.87 193.51 118.02 245.54 118.02 320.46 L118.02 320.46 Z M262.86 -159.5 C159.2 -159.5 97.93 -124.99 97.93 -61.99 C97.93 2.25996 155.59 28.15 212.52 28.15 L312.3 28.15 C380.22 28.15 432.61 0.869965 432.61 -60.65 C432.61 -124.75 371.41 -159.5 262.86 -159.5 L262.86 -159.5 Z " />
<glyph glyph-name="Gcommaaccent" unicode="&#x122;" horiz-adv-x="652" d="M373.05 306.41 L373.05 270.98 L534.96 270.98 L534.96 68.85 C495.29 42.44 439.03 26.01 365.8 26.01 C204.67 26.01 110.67 148.91 110.67 320.71 C110.67 497.12 214.51 618.85 368.71 618.85 C444.23 618.85 489.98 599.3 538.24 562.9 L558.68 593.85 C514.96 629.65 456.3 654.71 368.74 654.71 C194.69 654.71 71.76 519.48 71.76 320.71 C71.76 126.36 188.61 -9.56999 365.29 -9.56999 C455.2 -9.56999 525.87 14.72 572.41 50.46 L572.41 306.41 L373.05 306.41 Z M369.3 -42 C349.51 -41.97 332.91 -58.14 332.91 -77.98 C332.91 -95.72 346.55 -113.44 368.87 -114.29 C368.59 -134.03 363.4 -164.48 340.91 -197.57 L357.85 -209.18 C389.46 -169.39 405.66 -124.11 405.66 -80.71 C405.66 -56.71 389.09 -42.03 369.3 -42 L369.3 -42 Z " />
<glyph glyph-name="gcommaaccent" unicode="&#x123;" horiz-adv-x="519" d="M270.15 535.02 C289.94 534.99 306.54 551.16 306.54 571 C306.54 588.74 292.9 606.45 270.58 607.3 C270.86 627.05 276.05 657.5 298.54 690.59 L281.6 702.2 C249.99 662.41 233.79 617.13 233.79 573.73 C233.79 549.72 250.36 535.05 270.15 535.02 L270.15 535.02 Z M312.73 61.5 L208.68 61.5 C142.7 61.5 131.31 103.98 131.31 129.7 C131.31 156.32 143.92 174.86 156.62 185.33 C184.07 169.09 217.79 160 255.65 160 C358.5 160 431.14 226.15 431.14 320.46 C431.14 358.63 419.34 392.17 398.54 418.58 C439.78 434.97 472.41 470.04 474.55 528.36 L437.24 533.91 C437.05 481.22 411.29 451.51 376.33 441.29 C346.03 466.37 304.83 480.85 257.03 480.85 C154.21 480.85 81.47 414.77 81.47 320.46 C81.47 273.77 99.13 233.98 129.36 205.7 C110.99 187.64 94.52 163.68 94.52 128.65 C94.52 97.79 107.89 64.48 139.87 45.01 C99.56 30.82 59.76 -4.45 59.76 -62.78 C59.76 -145.92 133.06 -194.23 262.86 -194.23 C390.56 -194.23 470.75 -147.5 470.75 -60.65 C470.75 24.33 397.66 61.5 312.73 61.5 L312.73 61.5 Z M118.02 320.46 C118.02 395.36 174.64 447.25 256.38 447.25 C337.8 447.25 394.65 395.25 394.65 320.46 C394.65 245.54 337.74 193.51 256.35 193.51 C174.87 193.51 118.02 245.54 118.02 320.46 L118.02 320.46 Z M262.86 -159.5 C159.2 -159.5 97.93 -124.99 97.93 -61.99 C97.93 2.25999 155.59 28.15 212.52 28.15 L312.3 28.15 C380.22 28.15 432.61 0.869995 432.61 -60.65 C432.61 -124.75 371.41 -159.5 262.86 -159.5 L262.86 -159.5 Z " />
<glyph glyph-name="Hbar" unicode="&#x126;" horiz-adv-x="695" d="M647.54 485.71 L579.63 485.71 L579.63 642 L542.38 642 L542.38 485.71 L152.45 485.71 L152.45 642 L115.2 642 L115.2 485.71 L47.29 485.71 L47.29 455.67 L115.2 455.67 L115.2 1.52588e-05 L152.45 1.52588e-05 L152.45 310.06 L542.38 310.06 L542.38 1.52588e-05 L579.63 1.52588e-05 L579.63 455.67 L647.54 455.67 L647.54 485.71 Z M542.38 344.93 L152.45 344.93 L152.45 455.67 L542.38 455.67 L542.38 344.93 Z " />
<glyph glyph-name="hbar" unicode="&#x127;" horiz-adv-x="568" d="M305.65 480.85 C226.58 480.85 165.79 439.38 134.89 390.67 L134.89 560.99 L246.93 560.99 L246.93 591.59 L134.89 591.59 L134.89 658.13 L97.63 658.13 L97.63 591.59 L23.26 591.59 L23.26 560.99 L97.63 560.99 L97.63 0 L134.89 0 L134.89 344.14 C155.19 383.07 206.78 445.26 300.34 445.26 C392.49 445.26 438.99 390.02 438.99 280.05 L438.99 -1.52588e-05 L476.25 -1.52588e-05 L476.25 283.68 C476.25 416.12 416.69 480.85 305.65 480.85 L305.65 480.85 Z " />
<glyph glyph-name="Itilde" unicode="&#x128;" horiz-adv-x="307" d="M254.88 770.79 C245.62 750.24 229.72 737.65 207.1 737.65 C172.54 737.65 137.98 781.96 97.68 781.96 C62.86 781.96 37.78 761.2 23.63 724.92 L48.02 714.21 C57.65 736.2 74.22 749.8 98.78 749.8 C131.53 749.8 165.37 705.76 208.81 705.76 C241.32 705.76 265.42 725.03 279.03 759.38 L254.88 770.79 Z M242.06 642 L64.31 642 L64.31 608.55 L134.52 608.55 L134.52 33.45 L64.31 33.45 L64.31 1.52588e-05 L242.06 1.52588e-05 L242.06 33.45 L171.78 33.45 L171.78 608.55 L242.06 608.55 L242.06 642 Z " />
<glyph glyph-name="itilde" unicode="&#x129;" horiz-adv-x="242" d="M16.14 569.12 C24.37 593.68 40.8 609.21 66.39 609.21 C97.4 609.21 124.3 567.33 166.14 567.33 C200.71 567.33 225.6 589.75 238.01 629.18 L213.45 640.03 C205.53 615.46 190.2 599.93 164.42 599.93 C131.1 599.93 103.59 642.1 64.67 642.1 C30.22 642.1 4.35999 619.4 -8.42001 579.96 L16.14 569.12 Z M143.87 468.56 L57.23 468.56 L57.23 435.11 L106.62 435.11 L106.62 -1.52588e-05 L143.87 -1.52588e-05 L143.87 468.56 Z " />
<glyph glyph-name="Imacron" unicode="&#x12a;" horiz-adv-x="307" d="M36.99 754.23 L36.99 722.35 L269.86 722.35 L269.86 754.23 L36.99 754.23 Z M242.06 642 L64.31 642 L64.31 608.55 L134.52 608.55 L134.52 33.45 L64.31 33.45 L64.31 0 L242.06 0 L242.06 33.45 L171.78 33.45 L171.78 608.55 L242.06 608.55 L242.06 642 Z " />
<glyph glyph-name="imacron" unicode="&#x12b;" horiz-adv-x="242" d="M22.49 573.46 L208.23 573.46 L208.23 604.63 L22.49 604.63 L22.49 573.46 Z M143.87 468.56 L57.23 468.56 L57.23 435.11 L106.62 435.11 L106.62 0 L143.87 0 L143.87 468.56 Z " />
<glyph glyph-name="Iogonek" unicode="&#x12e;" horiz-adv-x="307" d="M242.06 608.55 L242.06 642 L64.31 642 L64.31 608.55 L134.52 608.55 L134.52 33.45 L64.31 33.45 L64.31 0 L130.3 0 C93.38 -27.24 71.38 -66.49 71.38 -105.94 C71.38 -151.26 102.25 -178.54 145.15 -178.54 C170.89 -178.54 189.62 -169.92 209.85 -153.42 L195.51 -127.51 C183.35 -137.54 168.7 -145.8 149.46 -145.8 C126.16 -145.8 107.19 -127.69 107.19 -97.5 C107.19 -62.24 132.17 -26.24 172.69 -0.0100098 L242.06 -0.0100098 L242.06 33.44 L171.78 33.44 L171.78 608.54 L242.06 608.55 Z " />
<glyph glyph-name="iogonek" unicode="&#x12f;" horiz-adv-x="242" d="M122.73 570.35 C141.4 570.35 156.26 585.31 156.26 604.41 C156.26 622.8 141.4 638.48 122.73 638.48 C104.23 638.48 88.66 622.8 88.66 604.41 C88.66 585.31 104.52 570.35 122.73 570.35 L122.73 570.35 Z M167.81 -127.51 C155.65 -137.54 140.93 -145.8 123.7 -145.8 C98.39 -145.8 79.42 -129.2 79.42 -96.09 C79.42 -58.87 102.7 -27.17 143.87 1.52588e-05 L143.87 468.56 L57.23 468.56 L57.23 435.11 L106.62 435.11 L106.62 1.52588e-05 C64.68 -26.45 43.61 -66.49 43.61 -105.94 C43.61 -151.26 74.48 -178.54 117.38 -178.54 C143.12 -178.54 161.85 -169.92 182.08 -153.42 L167.81 -127.51 Z " />
<glyph glyph-name="Idotaccent" unicode="&#x130;" horiz-adv-x="307" d="M153.39 711.91 C171.81 711.91 186.44 726.6 186.44 745.41 C186.44 763.51 171.81 778.91 153.39 778.91 C135.18 778.91 119.86 763.51 119.86 745.41 C119.86 726.6 135.43 711.91 153.39 711.91 L153.39 711.91 Z M242.06 608.55 L242.06 642 L64.31 642 L64.31 608.55 L134.52 608.55 L134.52 33.45 L64.31 33.45 L64.31 0 L242.06 0 L242.06 33.45 L171.78 33.45 L171.78 608.55 L242.06 608.55 Z " />
<glyph glyph-name="dotlessi" unicode="&#x131;" horiz-adv-x="242" d="M143.87 468.56 L57.23 468.56 L57.23 435.11 L106.62 435.11 L106.62 0 L143.87 0 L143.87 468.56 Z " />
<glyph glyph-name="IJ" unicode="&#x132;" horiz-adv-x="678" d="M242.06 642 L64.31 642 L64.31 608.55 L134.52 608.55 L134.52 33.45 L64.31 33.45 L64.31 0 L242.06 0 L242.06 33.45 L171.78 33.45 L171.78 608.55 L242.06 608.55 L242.06 642 Z M570.23 642 L399.11 642 L399.11 608.55 L532.97 608.55 L532.97 153.23 C532.97 50.58 481.61 25.73 418.33 25.73 C371.44 25.73 336.96 46.35 312.45 69.92 L289.39 41.96 C311.57 20.75 354.21 -9.57002 418.45 -9.57002 C499.37 -9.57002 570.23 29.96 570.23 155.1 L570.23 642 Z " />
<glyph glyph-name="ij" unicode="&#x133;" horiz-adv-x="496" d="M156.29 604.41 C156.29 622.8 141.43 638.48 122.76 638.48 C104.26 638.48 88.69 622.8 88.69 604.41 C88.69 585.31 104.54 570.35 122.76 570.35 C141.43 570.35 156.29 585.31 156.29 604.41 L156.29 604.41 Z M410.37 604.41 C410.37 622.8 395.52 638.48 376.84 638.48 C358.35 638.48 342.78 622.8 342.78 604.41 C342.78 585.31 358.63 570.35 376.84 570.35 C395.52 570.35 410.37 585.31 410.37 604.41 L410.37 604.41 Z M143.87 468.56 L57.23 468.56 L57.23 435.11 L106.62 435.11 L106.62 0 L143.87 0 L143.87 468.56 Z M397.96 468.56 L304.15 468.56 L304.15 435.11 L360.96 435.11 L361.5 -36.16 C361.5 -126.54 313.75 -159.7 267.78 -159.7 C228.75 -159.7 206.92 -145.2 186.59 -127.38 L168.41 -156.93 C182.43 -168.62 211.05 -194.15 268.85 -194.15 C335.25 -194.15 397.96 -144.64 397.96 -35.4 L397.96 468.56 Z " />
<glyph glyph-name="Kcommaaccent" unicode="&#x136;" horiz-adv-x="565" d="M443.83 93.49 L265.64 348.34 L522.82 642 L475.52 642 L151.17 268.39 L151.17 642 L113.91 642 L113.91 1.52588e-05 L151.17 1.52588e-05 L151.17 217.63 L239.49 318.48 L409.52 75.38 C447.15 21.65 481.75 3.05176e-05 535.72 3.05176e-05 L535.72 33.45 C497.83 33.45 472.16 53 443.83 93.49 L443.83 93.49 Z M319.11 -42 C299.32 -41.97 282.73 -58.14 282.73 -77.98 C282.73 -95.72 296.37 -113.44 318.69 -114.29 C318.4 -134.03 313.21 -164.48 290.72 -197.57 L307.67 -209.18 C339.27 -169.39 355.47 -124.11 355.47 -80.71 C355.47 -56.71 338.9 -42.03 319.11 -42 L319.11 -42 Z " />
<glyph glyph-name="kcommaaccent" unicode="&#x137;" horiz-adv-x="481" d="M386.75 72.58 L231.17 265.49 L433.42 468.56 L386.37 468.56 L134.63 217.72 L134.63 658.13 L97.63 658.13 L97.63 1.52588e-05 L134.63 1.52588e-05 L134.63 168.56 L203.96 238.17 L358.06 49.47 C386.06 15.19 416.3 0.030014 453.23 0.030014 L453.23 33.45 C431.28 33.45 409.79 44.11 386.75 72.58 L386.75 72.58 Z M260.55 -42 C240.76 -41.97 224.16 -58.14 224.16 -77.98 C224.16 -95.72 237.81 -113.44 260.13 -114.29 C259.84 -134.03 254.65 -164.48 232.16 -197.57 L249.11 -209.18 C280.71 -169.39 296.91 -124.11 296.91 -80.71 C296.91 -56.71 280.34 -42.03 260.55 -42 L260.55 -42 Z " />
<glyph glyph-name="kgreenlandic" unicode="&#x138;" horiz-adv-x="480" d="M391.94 65.85 L231.18 265.5 L433.42 468.56 L386.37 468.56 L134.63 217.72 L134.63 468.56 L97.63 468.56 L97.63 0 L134.63 0 L134.63 168.56 L203.97 238.18 L363.32 42.66 C388.46 11.96 415.44 0.0299988 451.74 0.0299988 L451.88 33.45 C430.34 33.45 412.01 40.93 391.94 65.85 L391.94 65.85 Z " />
<glyph glyph-name="Lacute" unicode="&#x139;" horiz-adv-x="490" d="M248.97 789.38 L77.6 705.92 L86.39 682.68 L264.67 753 L248.97 789.38 Z M151.17 34.3 L151.17 642 L113.91 642 L113.91 0 L452.74 0 L452.74 34.3 L151.17 34.3 Z " />
<glyph glyph-name="lacute" unicode="&#x13a;" horiz-adv-x="254" d="M42.93 682.68 L221.21 753 L205.51 789.38 L34.14 705.92 L42.93 682.68 Z M134.63 658.13 L97.35 658.13 L97.35 80.12 C97.35 15.65 127.44 -7.56999 177 -7.56999 C200.28 -7.56999 215.89 -2.28999 222.24 -0.0899963 L222.24 32.61 C215.99 30.42 203.85 25.25 181.72 25.25 C149.3 25.25 134.63 42.22 134.63 82.9 L134.63 658.13 Z " />
<glyph glyph-name="Lcommaaccent" unicode="&#x13b;" horiz-adv-x="490" d="M151.17 34.3 L151.17 642 L113.91 642 L113.91 0 L452.74 0 L452.74 34.3 L151.17 34.3 Z M293.59 -42 C273.8 -41.97 257.2 -58.14 257.2 -77.98 C257.2 -95.72 270.85 -113.44 293.17 -114.29 C292.88 -134.03 287.69 -164.48 265.2 -197.57 L282.15 -209.18 C313.75 -169.39 329.95 -124.11 329.95 -80.71 C329.95 -56.71 313.38 -42.03 293.59 -42 L293.59 -42 Z " />
<glyph glyph-name="lcommaaccent" unicode="&#x13c;" horiz-adv-x="254" d="M134.63 658.13 L97.35 658.13 L97.35 80.12 C97.35 15.65 127.44 -7.56999 177 -7.56999 C200.28 -7.56999 215.89 -2.28999 222.24 -0.0899963 L222.24 32.61 C215.99 30.42 203.85 25.25 181.72 25.25 C149.3 25.25 134.63 42.22 134.63 82.9 L134.63 658.13 Z M164.25 -42 C144.46 -41.97 127.86 -58.14 127.86 -77.98 C127.86 -95.72 141.5 -113.44 163.82 -114.29 C163.54 -134.03 158.34 -164.48 135.85 -197.57 L152.8 -209.18 C184.4 -169.39 200.6 -124.11 200.6 -80.71 C200.6 -56.71 184.03 -42.03 164.25 -42 L164.25 -42 Z " />
<glyph glyph-name="Lcaron" unicode="&#x13d;" horiz-adv-x="491" d="M346.14 521.33 C368.99 559.43 378.69 601.12 378.69 630.53 C378.69 658.42 376.2 667.55 375.1 671.6 L334.55 671.6 C336.31 667.21 341.48 645.33 341.48 622.42 C341.48 602.2 338.11 571.14 323.95 533.14 L346.14 521.33 Z M151.17 34.3 L151.17 642 L113.91 642 L113.91 1.52588e-05 L452.74 1.52588e-05 L452.74 34.3 L151.17 34.3 Z " />
<glyph glyph-name="lcaron" unicode="&#x13e;" horiz-adv-x="269" d="M226.36 521.33 C249.2 559.43 258.9 601.12 258.9 630.53 C258.9 658.42 256.41 667.55 255.32 671.6 L214.77 671.6 C216.52 667.21 221.7 645.33 221.7 622.42 C221.7 602.2 218.32 571.14 204.17 533.14 L226.36 521.33 Z M134.63 658.13 L97.35 658.13 L97.35 80.12 C97.35 15.65 127.44 -7.56998 177 -7.56998 C200.28 -7.56998 215.89 -2.28998 222.24 -0.0899811 L222.24 32.61 C215.99 30.42 203.85 25.25 181.72 25.25 C149.3 25.25 134.63 42.22 134.63 82.9 L134.63 658.13 Z " />
<glyph glyph-name="Ldot" unicode="&#x13f;" horiz-adv-x="492" d="M151.17 34.3 L151.17 642 L113.91 642 L113.91 0 L452.74 0 L452.74 34.3 L151.17 34.3 Z M356.73 306.5 C376.55 306.5 393.23 322.46 393.23 343 C393.23 362.81 376.55 378.78 356.73 378.78 C336.91 378.78 320.23 362.81 320.23 343 C320.23 322.46 336.91 306.5 356.73 306.5 L356.73 306.5 Z " />
<glyph glyph-name="ldot" unicode="&#x140;" horiz-adv-x="272" d="M134.63 658.13 L97.35 658.13 L97.35 80.12 C97.35 15.65 127.44 -7.56999 177 -7.56999 C200.28 -7.56999 215.89 -2.28999 222.24 -0.0899963 L222.24 32.61 C215.99 30.42 203.85 25.25 181.72 25.25 C149.3 25.25 134.63 42.22 134.63 82.9 L134.63 658.13 Z M234.55 290.5 C254.37 290.5 271.05 306.46 271.05 327 C271.05 346.81 254.37 362.78 234.55 362.78 C214.74 362.78 198.05 346.81 198.05 327 C198.05 306.46 214.74 290.5 234.55 290.5 L234.55 290.5 Z " />
<glyph glyph-name="Lslash" unicode="&#x141;" horiz-adv-x="495" d="M155.72 34.3 L155.72 314.58 L273.12 374.44 L258.53 402.33 L155.72 349.9 L155.72 642 L118.46 642 L118.46 330.89 L36.99 289.34 L51.66 261.52 L118.46 295.59 L118.46 1.52588e-05 L457.29 1.52588e-05 L457.29 34.3 L155.72 34.3 Z " />
<glyph glyph-name="lslash" unicode="&#x142;" horiz-adv-x="303" d="M211.55 25.25 C179.14 25.25 164.46 42.22 164.46 82.9 L164.46 316.6 L244.46 357.86 L230.72 384.05 L164.46 349.86 L164.46 658.13 L127.18 658.13 L127.18 330.62 L46.83 289.17 L60.64 263.05 L127.18 297.37 L127.18 80.12 C127.18 15.65 157.27 -7.56999 206.83 -7.56999 C230.11 -7.56999 245.73 -2.28999 252.07 -0.0899963 L252.07 32.61 C245.83 30.42 233.68 25.25 211.55 25.25 L211.55 25.25 Z " />
<glyph glyph-name="Nacute" unicode="&#x143;" horiz-adv-x="688" d="M460.4 753 L444.7 789.38 L273.33 705.92 L282.12 682.68 L460.4 753 Z M536.59 642 L536.59 84.17 L537.33 61.99 L527.84 78.2 L149.57 642 L113.91 642 L113.91 1.52588e-05 L150.15 1.52588e-05 L150.15 557.13 L149.53 582.88 L162.12 560.41 L537.18 1.52588e-05 L572.82 1.52588e-05 L572.82 642 L536.59 642 Z " />
<glyph glyph-name="nacute" unicode="&#x144;" horiz-adv-x="570" d="M368.9 646.23 L344.19 677.48 L200.89 550.3 L216.32 530.75 L368.9 646.23 Z M307.22 480.85 C228.13 480.85 167.31 439.5 136.29 390.9 C134.81 429.36 126.5 460.59 117.05 478.5 L80.8 469.16 C88.45 450.97 99.27 426.27 99.27 366.91 L99.27 0 L136.53 0 L136.53 344 C156.77 382.92 208.31 445.26 301.98 445.26 C394.15 445.26 440.69 390.02 440.69 280.05 L440.69 -1.52588e-05 L477.94 -1.52588e-05 L477.94 283.68 C477.94 416.12 418.44 480.85 307.22 480.85 L307.22 480.85 Z " />
<glyph glyph-name="Ncommaaccent" unicode="&#x145;" horiz-adv-x="688" d="M536.59 642 L536.59 84.17 L537.33 61.99 L527.84 78.2 L149.57 642 L113.91 642 L113.91 1.52588e-05 L150.15 1.52588e-05 L150.15 557.13 L149.53 582.88 L162.12 560.41 L537.18 1.52588e-05 L572.82 1.52588e-05 L572.82 642 L536.59 642 Z M346.11 -42 C326.32 -41.97 309.73 -58.14 309.73 -77.98 C309.73 -95.72 323.37 -113.44 345.69 -114.29 C345.4 -134.03 340.21 -164.48 317.72 -197.57 L334.67 -209.18 C366.27 -169.39 382.47 -124.11 382.47 -80.71 C382.47 -56.71 365.9 -42.03 346.11 -42 L346.11 -42 Z " />
<glyph glyph-name="ncommaaccent" unicode="&#x146;" horiz-adv-x="570" d="M307.22 480.85 C228.13 480.85 167.31 439.5 136.29 390.9 C134.81 429.36 126.5 460.59 117.05 478.5 L80.8 469.16 C88.45 450.97 99.27 426.27 99.27 366.91 L99.27 0 L136.53 0 L136.53 344 C156.77 382.92 208.31 445.26 301.98 445.26 C394.15 445.26 440.69 390.02 440.69 280.05 L440.69 -1.52588e-05 L477.94 -1.52588e-05 L477.94 283.68 C477.94 416.12 418.44 480.85 307.22 480.85 L307.22 480.85 Z M287.56 -42 C267.77 -41.97 251.17 -58.14 251.17 -77.98 C251.17 -95.72 264.82 -113.44 287.14 -114.29 C286.85 -134.03 281.66 -164.48 259.17 -197.57 L276.12 -209.18 C307.72 -169.39 323.92 -124.11 323.92 -80.7101 C323.92 -56.7101 307.35 -42.0301 287.56 -42.0001 L287.56 -42 Z " />
<glyph glyph-name="Ncaron" unicode="&#x147;" horiz-adv-x="688" d="M366.36 680.03 L474.69 773.58 L460.1 793.65 L352.92 710.94 L245.85 793.65 L231.27 773.58 L339.6 680.03 L366.36 680.03 Z M536.59 642 L536.59 84.17 L537.33 61.99 L527.84 78.2 L149.57 642 L113.91 642 L113.91 1.52588e-05 L150.15 1.52588e-05 L150.15 557.13 L149.53 582.88 L162.12 560.41 L537.18 1.52588e-05 L572.82 1.52588e-05 L572.82 642 L536.59 642 Z " />
<glyph glyph-name="ncaron" unicode="&#x148;" horiz-adv-x="570" d="M298.27 534.12 L410.91 655.72 L391.97 676.47 L284.4 568.05 L176.89 678.62 L157.23 658.59 L269.37 534.12 L298.27 534.12 Z M307.22 480.85 C228.13 480.85 167.31 439.5 136.29 390.9 C134.81 429.36 126.5 460.59 117.05 478.5 L80.8 469.16 C88.45 450.97 99.27 426.27 99.27 366.91 L99.27 0 L136.53 0 L136.53 344 C156.77 382.92 208.31 445.26 301.98 445.26 C394.15 445.26 440.69 390.02 440.69 280.05 L440.69 -1.52588e-05 L477.94 -1.52588e-05 L477.94 283.68 C477.94 416.12 418.44 480.85 307.22 480.85 L307.22 480.85 Z " />
<glyph glyph-name="napostrophe" unicode="&#x149;" horiz-adv-x="601" d="M88.37 676.48 C67.93 676.48 50.82 659.66 50.82 639 C50.82 620.36 64.4 601.87 88.08 601.14 C87.43 575.74 80.4 542.53 56.02 506.28 L74.43 493.7 C107.37 538.14 125.89 586.46 125.89 634.97 C125.89 661.66 108.81 676.48 88.37 676.48 L88.37 676.48 Z M338.06 480.85 C258.96 480.85 198.15 439.5 167.13 390.9 C165.64 429.36 157.34 460.59 147.88 478.5 L111.63 469.16 C119.29 450.97 130.1 426.27 130.1 366.91 L130.1 -1.52588e-05 L167.36 -1.52588e-05 L167.36 344 C187.61 382.93 239.15 445.26 332.81 445.26 C424.98 445.26 471.52 390.02 471.52 280.05 L471.52 -3.05176e-05 L508.78 -3.05176e-05 L508.78 283.68 C508.78 416.12 449.28 480.85 338.06 480.85 L338.06 480.85 Z " />
<glyph glyph-name="Eng" unicode="&#x14a;" horiz-adv-x="687" d="M536.59 642 L536.59 84.17 L537.33 61.99 L527.84 78.2 L149.57 642 L113.91 642 L113.91 1.52588e-05 L150.15 1.52588e-05 L150.15 557.13 L149.53 582.88 L162.12 560.41 L536.16 1.52002 L536.16 -33.23 C536.16 -130.13 481.19 -162.12 422.05 -162.12 C380.13 -162.12 357.35 -145.8 334.04 -126.72 L310.27 -152.2 C322.03 -165.09 361.51 -196 422.05 -196 C496.99 -196 572.82 -149.3 572.82 -31.34 L572.82 642 L536.59 642 Z " />
<glyph glyph-name="eng" unicode="&#x14b;" horiz-adv-x="570" d="M307.22 480.85 C228.13 480.85 167.31 439.5 136.29 390.9 C134.81 429.36 126.5 460.59 117.05 478.5 L80.8 469.16 C88.45 450.97 99.27 426.27 99.27 366.91 L99.27 0 L136.53 0 L136.53 344 C156.77 382.92 208.31 445.26 301.98 445.26 C394.15 445.26 440.69 390.02 440.69 280.05 L440.69 -35.74 C440.69 -128.67 389.89 -161.25 341.46 -161.25 C308.09 -161.25 287.37 -151.4 257.69 -127.24 L237.06 -155 C260.77 -173.91 289.45 -194.85 341.45 -194.85 C405.68 -194.85 477.93 -148.15 477.93 -33.87 L477.93 283.68 C477.93 416.12 418.43 480.85 307.21 480.85 L307.22 480.85 Z " />
<glyph glyph-name="Omacron" unicode="&#x14c;" horiz-adv-x="731" d="M240.06 722.35 L490.9 722.35 L490.9 754.23 L240.06 754.23 L240.06 722.35 Z M365.31 654.71 C186.28 654.71 71.76 512.47 71.76 322 C71.76 135.81 186.28 -9.57001 365.31 -9.57001 C544.39 -9.57001 658.83 137.2 658.83 322 C658.83 513.86 544.39 654.71 365.31 654.71 L365.31 654.71 Z M365.31 619.39 C524.31 619.39 620.24 496.93 620.24 322 C620.24 150.15 524.31 25.79 365.31 25.79 C206.36 25.79 110.36 150.15 110.36 322 C110.36 496.93 206.36 619.39 365.31 619.39 L365.31 619.39 Z " />
<glyph glyph-name="omacron" unicode="&#x14d;" horiz-adv-x="589" d="M171.08 573.46 L419.35 573.46 L419.35 604.63 L171.08 604.63 L171.08 573.46 Z M295.87 480.85 C165.49 480.85 66.76 375.08 66.76 233.85 C66.76 90.29 161.11 -9.56999 292.87 -9.56999 C422.53 -9.56999 522.03 96.03 522.03 236.71 C522.03 377.95 428.27 480.85 295.87 480.85 L295.87 480.85 Z M293.67 26.01 C177.5 26.01 104.99 114.99 104.99 233.85 C104.99 348.98 178.22 445.26 295.1 445.26 C411.17 445.26 483.81 353.23 483.81 236.66 C483.81 117.8 410.45 26.01 293.67 26.01 L293.67 26.01 Z " />
<glyph glyph-name="Ohungarumlaut" unicode="&#x150;" horiz-adv-x="731" d="M259.51 670.51 L404.58 779.99 L379.78 810.56 L244.23 690.22 L259.51 670.51 Z M401.12 670.51 L546.19 779.99 L521.4 810.56 L385.85 690.22 L401.12 670.51 Z M365.31 654.71 C186.28 654.71 71.76 512.47 71.76 322 C71.76 135.81 186.28 -9.57001 365.31 -9.57001 C544.39 -9.57001 658.83 137.2 658.83 322 C658.83 513.86 544.39 654.71 365.31 654.71 L365.31 654.71 Z M365.31 619.39 C524.31 619.39 620.24 496.93 620.24 322 C620.24 150.15 524.31 25.79 365.31 25.79 C206.36 25.79 110.36 150.15 110.36 322 C110.36 496.93 206.36 619.39 365.31 619.39 L365.31 619.39 Z " />
<glyph glyph-name="ohungarumlaut" unicode="&#x151;" horiz-adv-x="589" d="M196.88 519.94 L303.93 665.35 L270.34 688.01 L175.01 533.81 L196.88 519.94 Z M342.18 519.94 L449.23 665.35 L415.64 688.01 L320.31 533.81 L342.18 519.94 Z M295.87 480.85 C165.49 480.85 66.76 375.08 66.76 233.85 C66.76 90.29 161.11 -9.56998 292.87 -9.56998 C422.53 -9.56998 522.03 96.03 522.03 236.71 C522.03 377.95 428.27 480.85 295.87 480.85 L295.87 480.85 Z M293.67 26.01 C177.5 26.01 104.99 114.99 104.99 233.85 C104.99 348.98 178.22 445.26 295.1 445.26 C411.17 445.26 483.81 353.23 483.81 236.66 C483.81 117.8 410.45 26.01 293.67 26.01 L293.67 26.01 Z " />
<glyph glyph-name="OE" unicode="&#x152;" horiz-adv-x="913" d="M852.34 34.58 L516.86 34.58 L516.86 316.65 L809.36 316.65 L809.36 351.23 L516.86 351.23 L516.86 607.13 L839.35 607.13 L839.35 642 L483.9 642 C451.62 647.89 416.95 651.13 378.69 651.13 C189.48 651.13 71.48 506.59 71.48 321.71 C71.48 133.9 188.26 -8.13998 376.54 -8.13998 C416.42 -8.13998 452.67 -5.37999 483.04 1.52588e-05 L852.34 1.52588e-05 L852.34 34.58 Z M110.08 321.71 C110.08 494.57 209.63 615.8 378.69 615.8 C413.1 615.8 449.52 612.77 479.86 605.15 L479.86 36.35 C450.97 29.66 413.03 27.19 376.54 27.19 C208.41 27.19 110.08 150.15 110.08 321.71 L110.08 321.71 Z " />
<glyph glyph-name="oe" unicode="&#x153;" horiz-adv-x="955" d="M889.75 236.06 C890.49 242.3 891.66 255.2 891.66 269.83 C891.66 398.45 810.92 480.85 697.6 480.85 C613.07 480.85 536.68 429.85 502.6 341.49 C468.57 426.03 392.51 480.86 295.87 480.86 C165.49 480.86 66.76 375.09 66.76 233.86 C66.76 90.3 161.11 -9.56001 292.87 -9.56001 C386.33 -9.56001 464.12 45.31 500.28 128.63 C532.32 37.27 608.65 -9.56001 706.5 -9.56001 C783.34 -9.56001 834.11 17.53 871.06 46.52 L854.77 77.33 C827.21 54.82 784.4 25.74 707.08 25.74 C591.45 25.74 522.32 104.05 522.32 233.31 L522.39 236.07 L889.75 236.06 Z M697.6 446.12 C778.19 446.12 853.06 391.24 853.06 267.82 L523.81 267.82 C533.48 370.38 599.06 446.12 697.6 446.12 L697.6 446.12 Z M293.67 26.02 C177.5 26.02 104.99 115 104.99 233.86 C104.99 348.99 178.22 445.27 295.1 445.27 C411.17 445.27 483.81 353.24 483.81 236.67 C483.81 117.81 410.45 26.02 293.67 26.02 L293.67 26.02 Z " />
<glyph glyph-name="Racute" unicode="&#x154;" horiz-adv-x="571" d="M381.58 753 L365.87 789.38 L194.5 705.92 L203.29 682.68 L381.58 753 Z M422.37 93.49 L326.14 279.03 C430.68 295.4 493.39 359.57 493.39 452 C493.39 572.66 418.63 642 278.87 642 L113.91 642 L113.91 -3.05176e-05 L151.17 -3.05176e-05 L151.17 274.91 L270.82 274.91 C275.39 274.91 279.91 274.99 284.37 275.14 L389.05 75.38 C419.56 15.99 457.74 -3.05176e-05 509.4 -3.05176e-05 L509.4 33.45 C473.76 33.45 445.4 48.42 422.37 93.49 L422.37 93.49 Z M151.17 309.21 L151.17 607.26 L278.1 607.26 C397.09 607.26 455.11 548.06 455.11 451.43 C455.11 370.12 399.39 309.21 270.9 309.21 L151.17 309.21 Z " />
<glyph glyph-name="racute" unicode="&#x155;" horiz-adv-x="369" d="M300.61 646.23 L275.9 677.48 L132.6 550.3 L148.03 530.75 L300.61 646.23 Z M294.54 480.88 C217.74 480.88 164.49 433.38 136.53 373.91 L136.53 378.67 C136.53 422.72 127.49 458.72 117.05 478.5 L80.8 469.16 C88.45 450.97 99.27 426.27 99.27 366.91 L99.27 0 L136.53 0 L136.53 314.64 C154.51 370.79 196.64 444.7 290.78 444.7 C306.74 444.7 322.01 441.38 332.94 437.54 L342.03 473.57 C328.56 477.91 309.84 480.88 294.54 480.88 L294.54 480.88 Z " />
<glyph glyph-name="Rcommaaccent" unicode="&#x156;" horiz-adv-x="571" d="M422.37 93.49 L326.14 279.03 C430.68 295.4 493.39 359.57 493.39 452 C493.39 572.66 418.63 642 278.87 642 L113.91 642 L113.91 -1.52588e-05 L151.17 -1.52588e-05 L151.17 274.91 L270.82 274.91 C275.39 274.91 279.91 274.99 284.37 275.14 L389.05 75.38 C419.56 15.99 457.74 -1.52588e-05 509.4 -1.52588e-05 L509.4 33.45 C473.76 33.45 445.4 48.42 422.37 93.49 L422.37 93.49 Z M151.17 309.21 L151.17 607.26 L278.1 607.26 C397.09 607.26 455.11 548.06 455.11 451.43 C455.11 370.12 399.39 309.21 270.9 309.21 L151.17 309.21 Z M298.47 -42 C278.68 -41.97 262.08 -58.14 262.08 -77.98 C262.08 -95.72 275.73 -113.44 298.05 -114.29 C297.76 -134.03 292.57 -164.48 270.08 -197.57 L287.03 -209.18 C318.63 -169.39 334.83 -124.11 334.83 -80.71 C334.83 -56.71 318.26 -42.03 298.47 -42 L298.47 -42 Z " />
<glyph glyph-name="rcommaaccent" unicode="&#x157;" horiz-adv-x="369" d="M294.54 480.88 C217.74 480.88 164.49 433.38 136.53 373.91 L136.53 378.67 C136.53 422.72 127.49 458.72 117.05 478.5 L80.8 469.16 C88.45 450.97 99.27 426.27 99.27 366.91 L99.27 0 L136.53 0 L136.53 314.64 C154.51 370.79 196.64 444.7 290.78 444.7 C306.74 444.7 322.01 441.38 332.94 437.54 L342.03 473.57 C328.56 477.91 309.84 480.88 294.54 480.88 L294.54 480.88 Z M117.22 -42 C97.43 -41.97 80.83 -58.14 80.83 -77.98 C80.83 -95.72 94.47 -113.44 116.79 -114.29 C116.51 -134.03 111.32 -164.48 88.82 -197.57 L105.77 -209.18 C137.37 -169.39 153.58 -124.11 153.58 -80.71 C153.58 -56.71 137.01 -42.03 117.22 -42 L117.22 -42 Z " />
<glyph glyph-name="Rcaron" unicode="&#x158;" horiz-adv-x="571" d="M291.5 680.03 L399.83 773.58 L385.25 793.65 L278.07 710.94 L171 793.65 L156.41 773.58 L264.74 680.03 L291.5 680.03 Z M422.37 93.49 L326.14 279.03 C430.68 295.4 493.39 359.57 493.39 452 C493.39 572.66 418.63 642 278.87 642 L113.91 642 L113.91 -1.52588e-05 L151.17 -1.52588e-05 L151.17 274.91 L270.82 274.91 C275.39 274.91 279.91 274.99 284.37 275.14 L389.05 75.38 C419.56 15.99 457.74 -1.52588e-05 509.4 -1.52588e-05 L509.4 33.45 C473.76 33.45 445.4 48.42 422.37 93.49 L422.37 93.49 Z M151.17 309.21 L151.17 607.26 L278.1 607.26 C397.09 607.26 455.11 548.06 455.11 451.43 C455.11 370.12 399.39 309.21 270.9 309.21 L151.17 309.21 Z " />
<glyph glyph-name="rcaron" unicode="&#x159;" horiz-adv-x="369" d="M229.98 534.12 L342.62 655.72 L323.68 676.47 L216.11 568.05 L108.6 678.62 L88.94 658.59 L201.08 534.12 L229.98 534.12 Z M136.53 373.91 L136.53 378.67 C136.53 422.72 127.49 458.72 117.05 478.5 L80.8 469.16 C88.45 450.97 99.27 426.27 99.27 366.91 L99.27 0 L136.53 0 L136.53 314.64 C154.51 370.79 196.64 444.7 290.78 444.7 C306.74 444.7 322.01 441.38 332.94 437.54 L342.03 473.57 C328.56 477.91 309.84 480.88 294.54 480.88 C217.74 480.88 164.49 433.38 136.53 373.91 L136.53 373.91 Z " />
<glyph glyph-name="Sacute" unicode="&#x15a;" horiz-adv-x="533" d="M197.96 682.68 L376.24 753 L360.54 789.38 L189.17 705.92 L197.96 682.68 Z M262.82 -9.57001 C388.92 -9.57001 465.26 60.22 465.26 167.11 C465.26 279.56 387.34 316.51 306.19 343.51 C214.62 373.93 117.31 392.94 117.31 493.73 C117.31 566.25 174.34 619.13 268.91 619.13 C341.26 619.13 384.81 597.85 430.79 562.19 L450.95 592.36 C405.32 629.36 352.53 654.7 269.05 654.7 C151.74 654.7 80.25 583.86 80.25 492.3 C80.25 361.69 191.25 339.64 287.55 308.49 C361.72 284.55 427.95 255.13 427.95 166.53 C427.95 82.3 369.44 26 262.88 26 C175.76 26 122.01 56.94 82.77 97.37 L59.61 69.84 C100.52 28.97 159.72 -9.58003 262.82 -9.58003 L262.82 -9.57001 Z " />
<glyph glyph-name="sacute" unicode="&#x15b;" horiz-adv-x="460" d="M166.81 530.75 L319.39 646.23 L294.68 677.48 L151.38 550.3 L166.81 530.75 Z M236.63 480.85 C140.33 480.85 72.86 433.44 72.86 354.6 C72.86 273.09 134.33 246.8 223.38 227.65 C322.14 206.25 361.57 183.83 361.57 121.85 C361.57 65.36 315.72 24.88 223.68 24.88 C151.12 24.88 104.12 52.3 76.51 74.67 L60.92 43 C96.16 15.01 153.98 -9.56998 223.38 -9.56998 C333.13 -9.56998 398.58 40.33 398.58 121.85 C398.58 217.69 330.64 243.15 235.44 263.95 C163.3 279.51 109.76 296.26 109.76 356.5 C109.76 412.4 159.45 446.4 236.64 446.4 C297.71 446.4 336.91 431.7 371.64 413.21 L379.5 447.08 C352.63 461.51 306.98 480.85 236.64 480.85 L236.63 480.85 Z " />
<glyph glyph-name="Scedilla" unicode="&#x15e;" horiz-adv-x="533" d="M465.26 167.11 C465.26 279.56 387.34 316.51 306.19 343.51 C214.62 373.93 117.31 392.94 117.31 493.73 C117.31 566.25 174.34 619.13 268.91 619.13 C341.26 619.13 384.81 597.85 430.79 562.19 L450.95 592.36 C405.32 629.36 352.53 654.7 269.05 654.7 C151.74 654.7 80.25 583.86 80.25 492.3 C80.25 361.69 191.25 339.64 287.55 308.49 C361.72 284.55 427.95 255.13 427.95 166.53 C427.95 82.3 369.44 26 262.88 26 C175.76 26 122.01 56.94 82.77 97.37 L59.61 69.84 C99.07 30.42 155.54 -6.83002 251.99 -9.43002 L231.38 -62.4 C287.76 -66.55 316.91 -79.71 316.91 -114.31 C316.91 -147.73 285.58 -160.95 253.73 -160.95 C230.4 -160.95 212.48 -153.19 202.36 -147.52 L190.75 -173.73 C199.41 -179.58 225.98 -189.3 255.07 -189.3 C298.86 -189.3 351.36 -170.5 351.36 -112.26 C351.36 -65.73 318.41 -46.85 269.42 -40.31 L281.68 -9.04004 C396.49 -2.38004 465.26 65.65 465.26 167.1 L465.26 167.11 Z " />
<glyph glyph-name="scedilla" unicode="&#x15f;" horiz-adv-x="460" d="M398.57 121.85 C398.57 217.69 330.63 243.15 235.43 263.95 C163.29 279.51 109.75 296.26 109.75 356.5 C109.75 412.4 159.44 446.4 236.63 446.4 C297.7 446.4 336.9 431.7 371.63 413.21 L379.49 447.08 C352.62 461.51 306.97 480.85 236.63 480.85 C140.33 480.85 72.86 433.44 72.86 354.6 C72.86 273.09 134.33 246.8 223.38 227.65 C322.14 206.25 361.57 183.83 361.57 121.85 C361.57 65.36 315.72 24.88 223.68 24.88 C151.12 24.88 104.12 52.3 76.51 74.67 L60.92 43 C95.38 15.63 151.42 -8.46999 218.77 -9.52998 L198.2 -62.39 C254.58 -66.54 283.73 -79.7 283.73 -114.3 C283.73 -147.72 252.4 -160.94 220.55 -160.94 C197.22 -160.94 179.3 -153.18 169.18 -147.51 L157.57 -173.72 C166.23 -179.57 192.8 -189.29 221.89 -189.29 C265.68 -189.29 318.18 -170.49 318.18 -112.25 C318.18 -65.72 285.23 -46.84 236.24 -40.3 L248.66 -8.64 C343.1 -1.45 398.58 46.79 398.58 121.85 L398.57 121.85 Z " />
<glyph glyph-name="Scaron" unicode="&#x160;" horiz-adv-x="533" d="M286.17 680.03 L394.5 773.58 L379.91 793.65 L272.73 710.94 L165.66 793.65 L151.08 773.58 L259.41 680.03 L286.17 680.03 Z M262.82 -9.57001 C388.92 -9.57001 465.26 60.22 465.26 167.11 C465.26 279.56 387.34 316.51 306.19 343.51 C214.62 373.93 117.31 392.94 117.31 493.73 C117.31 566.25 174.34 619.13 268.91 619.13 C341.26 619.13 384.81 597.85 430.79 562.19 L450.95 592.36 C405.32 629.36 352.53 654.7 269.05 654.7 C151.74 654.7 80.25 583.86 80.25 492.3 C80.25 361.69 191.25 339.64 287.55 308.49 C361.72 284.55 427.95 255.13 427.95 166.53 C427.95 82.3 369.44 26 262.88 26 C175.76 26 122.01 56.94 82.77 97.37 L59.61 69.84 C100.52 28.97 159.72 -9.58003 262.82 -9.58003 L262.82 -9.57001 Z " />
<glyph glyph-name="scaron" unicode="&#x161;" horiz-adv-x="460" d="M219.86 534.12 L248.76 534.12 L361.4 655.72 L342.46 676.47 L234.89 568.05 L127.38 678.62 L107.72 658.59 L219.86 534.12 Z M236.63 480.85 C140.33 480.85 72.86 433.44 72.86 354.6 C72.86 273.09 134.33 246.8 223.38 227.65 C322.14 206.25 361.57 183.83 361.57 121.85 C361.57 65.36 315.72 24.88 223.68 24.88 C151.12 24.88 104.12 52.3 76.51 74.67 L60.92 43 C96.16 15.01 153.98 -9.56998 223.38 -9.56998 C333.13 -9.56998 398.58 40.33 398.58 121.85 C398.58 217.69 330.64 243.15 235.44 263.95 C163.3 279.51 109.76 296.26 109.76 356.5 C109.76 412.4 159.45 446.4 236.64 446.4 C297.71 446.4 336.91 431.7 371.64 413.21 L379.5 447.08 C352.63 461.51 306.98 480.85 236.64 480.85 L236.63 480.85 Z " />
<glyph glyph-name="uni0162" unicode="&#x162;" horiz-adv-x="549" d="M292.5 0 L292.5 608.13 L511.66 608.13 L511.66 642 L36.73 642 L36.73 608.13 L255.24 608.13 L255.24 0 L258.93 0 L234.65 -62.39 C291.03 -66.54 320.18 -79.7 320.18 -114.3 C320.18 -147.72 288.85 -160.94 257 -160.94 C233.68 -160.94 215.75 -153.18 205.64 -147.51 L194.02 -173.72 C202.68 -179.57 229.26 -189.29 258.34 -189.29 C302.13 -189.29 354.63 -170.49 354.63 -112.25 C354.63 -65.72 321.69 -46.84 272.69 -40.3 L288.5 -1.52588e-05 L292.5 0 Z " />
<glyph glyph-name="uni0163" unicode="&#x163;" horiz-adv-x="369" d="M235.11 -40.3 L247.17 -9.56 C301.86 -9.16 333.86 15.5 349.06 29.18 L331.85 57.02 C312.26 40.25 289.08 24.88 248.05 24.88 C200.87 24.88 152.1 52.2 152.1 149.38 L152.1 436.53 L315.04 436.53 L315.04 468.56 L152.1 468.56 L152.1 595.43 L114.84 585.8 L114.84 468.56 L36.59 468.56 L36.59 436.53 L114.84 436.53 L114.84 136.99 C114.84 47.58 161.32 3.12997 218.54 -7.19003 L197.06 -62.39 C253.44 -66.54 282.59 -79.7 282.59 -114.3 C282.59 -147.72 251.26 -160.94 219.41 -160.94 C196.09 -160.94 178.16 -153.18 168.05 -147.51 L156.43 -173.72 C165.09 -179.57 191.67 -189.29 220.75 -189.29 C264.54 -189.29 317.04 -170.49 317.04 -112.25 C317.04 -65.72 284.1 -46.84 235.1 -40.3 L235.11 -40.3 Z " />
<glyph glyph-name="Tcaron" unicode="&#x164;" horiz-adv-x="549" d="M287.62 680.03 L395.95 773.58 L381.36 793.65 L274.18 710.94 L167.12 793.65 L152.53 773.58 L260.86 680.03 L287.62 680.03 Z M511.66 642 L36.73 642 L36.73 608.13 L255.24 608.13 L255.24 0 L292.5 0 L292.5 608.13 L511.66 608.13 L511.66 642 Z " />
<glyph glyph-name="tcaron" unicode="&#x165;" horiz-adv-x="369" d="M269.25 521.33 C292.09 559.43 301.79 601.12 301.79 630.53 C301.79 658.42 299.3 667.55 298.21 671.6 L257.66 671.6 C259.41 667.21 264.59 645.33 264.59 622.42 C264.59 602.2 261.22 571.14 247.06 533.14 L269.25 521.33 Z M331.86 57.02 C312.27 40.25 289.09 24.88 248.06 24.88 C200.88 24.88 152.11 52.2 152.11 149.38 L152.11 436.53 L315.05 436.53 L315.05 468.56 L152.11 468.56 L152.11 595.43 L114.85 585.8 L114.85 468.56 L36.6 468.56 L36.6 436.53 L114.85 436.53 L114.85 136.99 C114.85 33.73 176.85 -9.56999 245.79 -9.56999 C301.32 -9.56999 333.75 15.39 349.07 29.18 L331.86 57.02 Z " />
<glyph glyph-name="Tbar" unicode="&#x166;" horiz-adv-x="555" d="M514.94 608.13 L514.94 642 L40.01 642 L40.01 608.13 L258.53 608.13 L258.53 336.55 L161.09 336.55 L161.09 305.09 L258.53 305.09 L258.53 0 L295.78 0 L295.78 305.09 L393.57 305.09 L393.57 336.55 L295.78 336.55 L295.78 608.13 L514.94 608.13 Z " />
<glyph glyph-name="tbar" unicode="&#x167;" horiz-adv-x="374" d="M336.29 57.02 C316.7 40.25 293.52 24.88 252.49 24.88 C205.31 24.88 156.54 52.2 156.54 149.38 L156.54 258.84 L275.07 258.84 L275.07 289.44 L156.54 289.44 L156.54 436.53 L319.48 436.53 L319.48 468.56 L156.54 468.56 L156.54 595.43 L119.28 585.8 L119.28 468.56 L41.03 468.56 L41.03 436.53 L119.28 436.53 L119.28 289.44 L45.06 289.44 L45.06 258.84 L119.28 258.84 L119.28 136.99 C119.28 33.73 181.28 -9.57001 250.23 -9.57001 C305.75 -9.57001 338.18 15.39 353.5 29.18 L336.29 57.02 Z " />
<glyph glyph-name="Utilde" unicode="&#x168;" horiz-adv-x="673" d="M217.59 714.21 C228.92 736.2 248.41 749.8 277.32 749.8 C315.85 749.8 355.68 705.76 406.79 705.76 C445.05 705.76 473.41 725.03 489.42 759.38 L461 770.79 C450.1 750.24 431.39 737.65 404.78 737.65 C364.12 737.65 323.44 781.96 276.02 781.96 C235.05 781.96 205.54 761.2 188.88 724.92 L217.59 714.21 Z M336.84 -9.56996 C477.82 -9.56996 566.97 92.25 566.97 251.98 L566.97 642 L530 642 L530 251.98 C530 121.71 463.24 26.86 336.87 26.86 C211 26.86 143.96 121.71 143.96 251.98 L143.96 642 L106.2 642 L106.2 251.98 C106.2 92.25 196.28 -9.56996 336.84 -9.56996 L336.84 -9.56996 Z " />
<glyph glyph-name="utilde" unicode="&#x169;" horiz-adv-x="564" d="M225.51 609.21 C261.75 609.21 293.19 567.33 342.08 567.33 C382.49 567.33 411.57 589.75 426.07 629.18 L397.37 640.03 C388.11 615.46 370.2 599.93 340.07 599.93 C301.13 599.93 268.98 642.1 223.5 642.1 C183.24 642.1 153.01 619.4 138.08 579.96 L166.78 569.12 C176.39 593.68 195.6 609.21 225.51 609.21 L225.51 609.21 Z M482.91 1.54999 C475.33 19.74 464.44 44.44 464.44 103.8 L464.44 468.56 L427.19 468.56 L427.19 128.03 C408.74 82.95 356.64 25.19 270.75 25.19 C167.09 25.19 129.89 90.76 129.89 186.83 L129.89 468.56 L92.63 468.56 L92.63 172.44 C92.63 61.36 146.57 -10.39 265.6 -10.39 C344.33 -10.39 399.45 31.53 427.53 77.26 C429.29 39.97 437.49 9.73 446.74 -7.79001 L482.91 1.54999 Z " />
<glyph glyph-name="Umacron" unicode="&#x16a;" horiz-adv-x="673" d="M216.25 722.35 L467.09 722.35 L467.09 754.23 L216.25 754.23 L216.25 722.35 Z M336.84 -9.56999 C477.82 -9.56999 566.97 92.25 566.97 251.98 L566.97 642 L530 642 L530 251.98 C530 121.71 463.24 26.86 336.87 26.86 C211 26.86 143.96 121.71 143.96 251.98 L143.96 642 L106.2 642 L106.2 251.98 C106.2 92.25 196.28 -9.56999 336.84 -9.56999 L336.84 -9.56999 Z " />
<glyph glyph-name="umacron" unicode="&#x16b;" horiz-adv-x="564" d="M406.02 604.63 L157.76 604.63 L157.76 573.46 L406.02 573.46 L406.02 604.63 Z M482.91 1.55 C475.33 19.74 464.44 44.44 464.44 103.8 L464.44 468.56 L427.19 468.56 L427.19 128.03 C408.74 82.95 356.64 25.19 270.75 25.19 C167.09 25.19 129.89 90.76 129.89 186.83 L129.89 468.56 L92.63 468.56 L92.63 172.44 C92.63 61.36 146.57 -10.39 265.6 -10.39 C344.33 -10.39 399.45 31.53 427.53 77.26 C429.29 39.97 437.49 9.73001 446.74 -7.78999 L482.91 1.55 Z " />
<glyph glyph-name="Uring" unicode="&#x16e;" horiz-adv-x="673" d="M342.08 653.7 C389.62 653.7 426.8 693.48 426.8 741.82 C426.8 790.17 389.62 829.94 342.08 829.94 C294.08 829.94 257.08 790.17 257.08 741.82 C257.08 693.48 294.08 653.7 342.08 653.7 L342.08 653.7 Z M342.08 681.69 C308.36 681.69 285.77 710.07 285.77 741.82 C285.77 774.36 308.36 802.24 342.08 802.24 C376.62 802.24 397.89 774.36 397.89 741.82 C397.89 710.07 376.62 681.69 342.08 681.69 L342.08 681.69 Z M336.84 -9.56999 C477.82 -9.56999 566.97 92.25 566.97 251.98 L566.97 642 L530 642 L530 251.98 C530 121.71 463.24 26.86 336.87 26.86 C211 26.86 143.96 121.71 143.96 251.98 L143.96 642 L106.2 642 L106.2 251.98 C106.2 92.25 196.28 -9.56999 336.84 -9.56999 L336.84 -9.56999 Z " />
<glyph glyph-name="uring" unicode="&#x16f;" horiz-adv-x="564" d="M282.06 514.31 C330.75 514.31 368.96 554.37 368.96 603.15 C368.96 651.92 330.75 691.98 282.06 691.98 C232.38 691.98 194.17 651.92 194.17 603.15 C194.17 554.37 232.38 514.31 282.06 514.31 L282.06 514.31 Z M282.06 663.63 C317.65 663.63 339.92 635.82 339.92 603.15 C339.92 571.26 317.65 542.95 282.06 542.95 C247.45 542.95 223.46 571.26 223.46 603.15 C223.46 635.82 247.45 663.63 282.06 663.63 L282.06 663.63 Z M482.91 1.55 C475.33 19.74 464.44 44.44 464.44 103.8 L464.44 468.56 L427.19 468.56 L427.19 128.03 C408.74 82.95 356.64 25.19 270.75 25.19 C167.09 25.19 129.89 90.76 129.89 186.83 L129.89 468.56 L92.63 468.56 L92.63 172.44 C92.63 61.36 146.57 -10.39 265.6 -10.39 C344.33 -10.39 399.45 31.53 427.53 77.26 C429.29 39.97 437.49 9.73001 446.74 -7.78999 L482.91 1.55 Z " />
<glyph glyph-name="Uhungarumlaut" unicode="&#x170;" horiz-adv-x="673" d="M235.69 670.51 L380.76 779.99 L355.97 810.56 L220.42 690.22 L235.69 670.51 Z M377.31 670.51 L522.38 779.99 L497.58 810.56 L362.03 690.22 L377.31 670.51 Z M336.84 -9.56999 C477.82 -9.56999 566.97 92.25 566.97 251.98 L566.97 642 L530 642 L530 251.98 C530 121.71 463.24 26.86 336.87 26.86 C211 26.86 143.96 121.71 143.96 251.98 L143.96 642 L106.2 642 L106.2 251.98 C106.2 92.25 196.28 -9.56999 336.84 -9.56999 L336.84 -9.56999 Z " />
<glyph glyph-name="uhungarumlaut" unicode="&#x171;" horiz-adv-x="564" d="M290.6 665.35 L257.02 688.01 L161.68 533.81 L183.56 519.94 L290.6 665.35 Z M435.9 665.35 L402.32 688.01 L306.98 533.81 L328.86 519.94 L435.9 665.35 Z M482.91 1.55003 C475.33 19.74 464.44 44.44 464.44 103.8 L464.44 468.56 L427.19 468.56 L427.19 128.03 C408.74 82.95 356.64 25.19 270.75 25.19 C167.09 25.19 129.89 90.76 129.89 186.83 L129.89 468.56 L92.63 468.56 L92.63 172.44 C92.63 61.36 146.57 -10.39 265.6 -10.39 C344.33 -10.39 399.45 31.53 427.53 77.26 C429.29 39.97 437.49 9.73004 446.74 -7.78996 L482.91 1.55003 Z " />
<glyph glyph-name="Uogonek" unicode="&#x172;" horiz-adv-x="673" d="M530 642 L530 251.98 C530 121.71 463.24 26.86 336.87 26.86 C211 26.86 143.96 121.71 143.96 251.98 L143.96 642 L106.2 642 L106.2 251.98 C106.2 92.25 196.28 -9.57001 336.84 -9.57001 C346.6 -9.57001 356.1 -9.08 365.35 -8.12 C327.25 -39.09 312.85 -70.68 312.85 -105.58 C312.85 -151.83 342.43 -178.54 385.91 -178.54 C410.93 -178.54 429.66 -169.92 450.6 -153.42 L436.34 -127.51 C423.46 -138.26 408.02 -145.8 390.22 -145.8 C366.7 -145.8 348.66 -127.91 348.66 -97.05 C348.66 -63.94 369.83 -28.87 420.52 4.22002 C512.16 37.09 566.97 126.73 566.97 251.98 L566.97 642 L530 642 Z " />
<glyph glyph-name="uogonek" unicode="&#x173;" horiz-adv-x="564" d="M488.66 -127.51 C475.78 -138.26 460.34 -145.8 442.53 -145.8 C417.52 -145.8 400.98 -127.91 400.98 -99.18 C400.98 -62.55 428.07 -27.61 483 1.55002 L482.91 1.57002 C475.32 19.76 464.44 44.46 464.44 103.8 L464.44 468.56 L427.19 468.56 L427.19 128.03 C408.74 82.95 356.64 25.19 270.75 25.19 C167.09 25.19 129.89 90.76 129.89 186.83 L129.89 468.56 L92.63 468.56 L92.63 172.44 C92.63 61.36 146.57 -10.39 265.6 -10.39 C344.33 -10.39 399.45 31.53 427.53 77.26 C428.91 47.87 434.3 22.86 441.05 5.00003 C390.27 -25.13 365.17 -65.97 365.17 -106.66 C365.17 -151.83 394.75 -178.54 438.23 -178.54 C463.25 -178.54 481.98 -169.92 502.92 -153.42 L488.66 -127.51 Z " />
<glyph glyph-name="Wcircumflex" unicode="&#x174;" horiz-adv-x="893" d="M446.84 761.94 L554.02 679.23 L568.61 699.3 L460.28 792.85 L433.52 792.85 L325.19 699.3 L339.78 679.23 L446.84 761.94 Z M810.47 642 L638.53 60.61 L632.94 40.14 L627.74 60.88 L470.37 584.86 L432.34 584.86 L265.49 57.45 L261.13 40.4 L256.63 57.8 L85.64 642 L44.6 642 L237.62 -1.52588e-05 L281.57 -1.52588e-05 L441.1 498.88 L451.28 534.93 L459.94 499.3 L609.39 -1.52588e-05 L652.94 -1.52588e-05 L847.87 642 L810.47 642 Z " />
<glyph glyph-name="wcircumflex" unicode="&#x175;" horiz-adv-x="739" d="M369.61 637.03 L477.19 533.63 L496.84 553.66 L384.7 671.04 L355.8 671.04 L243.16 556.53 L262.1 535.78 L369.61 637.03 Z M653.05 468.56 L521.9 36.83 L390.79 468.56 L347.39 468.56 L219.59 36.65 L85.9 468.56 L45.76 468.56 L196.28 1.52588e-05 L241.81 1.52588e-05 L369.14 425.59 L497.91 1.52588e-05 L543.42 1.52588e-05 L692.9 468.56 L653.05 468.56 Z " />
<glyph glyph-name="Ycircumflex" unicode="&#x176;" horiz-adv-x="591" d="M296 761.94 L403.18 679.23 L417.77 699.3 L309.44 792.85 L282.68 792.85 L174.35 699.3 L188.93 679.23 L296 761.94 Z M541.27 642 L499.21 642 L304.77 316.95 L297.85 303.23 L290.89 316.56 L86.39 642 L43.2 642 L277.51 268.61 L277.51 0 L314.77 0 L314.77 267.96 L541.27 642 Z " />
<glyph glyph-name="ycircumflex" unicode="&#x177;" horiz-adv-x="506" d="M258.8 637.03 L366.37 533.63 L386.02 553.66 L273.88 671.04 L244.98 671.04 L132.34 556.53 L151.28 535.78 L258.8 637.03 Z M463.06 468.56 L422.36 468.56 L256.43 35.37 L87.09 468.56 L45.48 468.56 L232.65 1.52588e-05 L241.69 1.52588e-05 L209.26 -78.17 C190.62 -122.92 161.28 -159.78 86.83 -159.78 L86.83 -194.23 C156.11 -194.23 207.79 -174.73 243.26 -86.17 L277.84 1.52588e-05 L277.79 1.52588e-05 L463.06 468.56 Z " />
<glyph glyph-name="Ydieresis" unicode="&#x178;" horiz-adv-x="591" d="M204.73 716.23 C223.03 716.23 237.29 730.35 237.29 748.88 C237.29 766.41 223.29 781.25 204.73 781.25 C186.88 781.25 172.16 766.41 172.16 748.88 C172.16 730.35 187.14 716.23 204.73 716.23 L204.73 716.23 Z M387.16 716.23 C405.47 716.23 419.73 730.35 419.73 748.88 C419.73 766.41 405.72 781.25 387.16 781.25 C369.32 781.25 354.6 766.41 354.6 748.88 C354.6 730.35 369.57 716.23 387.16 716.23 L387.16 716.23 Z M541.27 642 L499.21 642 L304.77 316.95 L297.85 303.23 L290.89 316.56 L86.39 642 L43.2 642 L277.51 268.61 L277.51 0 L314.77 0 L314.77 267.96 L541.27 642 Z " />
<glyph glyph-name="Zacute" unicode="&#x179;" horiz-adv-x="555" d="M377.02 753 L361.32 789.38 L189.95 705.92 L198.74 682.68 L377.02 753 Z M93.97 33.73 L108.12 52 L499.03 608.32 L499.03 642 L56.51 642 L56.51 607.98 L454.04 608.25 L438.15 586.53 L48.86 33.28 L48.86 0 L504.2 0 L504.2 33.73 L93.97 33.73 Z " />
<glyph glyph-name="zacute" unicode="&#x17a;" horiz-adv-x="475" d="M317.9 646.23 L293.19 677.48 L149.9 550.3 L165.32 530.75 L317.9 646.23 Z M93.44 32.16 L415.82 431.05 L415.82 468.56 L60.81 468.56 L60.81 436.4 L378.13 436.4 L53.01 37.28 L53.01 0 L422.73 0 L422.73 32.16 L93.44 32.16 Z " />
<glyph glyph-name="Zdotaccent" unicode="&#x17b;" horiz-adv-x="555" d="M273.54 711.91 C291.96 711.91 306.59 726.6 306.59 745.41 C306.59 763.51 291.96 778.91 273.54 778.91 C255.33 778.91 240.01 763.51 240.01 745.41 C240.01 726.6 255.58 711.91 273.54 711.91 L273.54 711.91 Z M93.97 33.73 L108.12 52 L499.03 608.32 L499.03 642 L56.51 642 L56.51 607.98 L454.04 608.25 L438.15 586.53 L48.86 33.28 L48.86 1.52588e-05 L504.2 1.52588e-05 L504.2 33.73 L93.97 33.73 Z " />
<glyph glyph-name="zdotaccent" unicode="&#x17c;" horiz-adv-x="475" d="M232.98 570.35 C251.66 570.35 266.51 585.31 266.51 604.41 C266.51 622.8 251.66 638.48 232.98 638.48 C214.49 638.48 198.92 622.8 198.92 604.41 C198.92 585.31 214.77 570.35 232.98 570.35 L232.98 570.35 Z M93.44 32.16 L415.82 431.05 L415.82 468.56 L60.81 468.56 L60.81 436.4 L378.13 436.4 L53.01 37.28 L53.01 0 L422.73 0 L422.73 32.16 L93.44 32.16 Z " />
<glyph glyph-name="Zcaron" unicode="&#x17d;" horiz-adv-x="555" d="M286.95 680.03 L395.28 773.58 L380.69 793.65 L273.51 710.94 L166.45 793.65 L151.86 773.58 L260.19 680.03 L286.95 680.03 Z M93.97 33.73 L108.12 52 L499.03 608.32 L499.03 642 L56.51 642 L56.51 607.98 L454.04 608.25 L438.15 586.53 L48.86 33.28 L48.86 0 L504.2 0 L504.2 33.73 L93.97 33.73 Z " />
<glyph glyph-name="zcaron" unicode="&#x17e;" horiz-adv-x="475" d="M247.28 534.12 L359.92 655.72 L340.98 676.47 L233.41 568.05 L125.89 678.62 L106.24 658.59 L218.38 534.12 L247.28 534.12 Z M93.44 32.16 L415.82 431.05 L415.82 468.56 L60.81 468.56 L60.81 436.4 L378.13 436.4 L53.01 37.28 L53.01 0 L422.73 0 L422.73 32.16 L93.44 32.16 Z " />
<glyph glyph-name="uni01EA" unicode="&#x1ea;" horiz-adv-x="731" d="M481.81 14.03 C592.5 62.65 658.83 181.3 658.83 322 C658.83 513.86 544.39 654.71 365.31 654.71 C186.28 654.71 71.76 512.47 71.76 322 C71.76 135.81 186.28 -9.57002 365.31 -9.57002 C381.93 -9.57002 397.99 -8.31003 413.46 -5.86003 C373.24 -37.56 358.14 -69.84 358.14 -105.58 C358.14 -151.83 387.72 -178.54 431.19 -178.54 C456.21 -178.54 474.95 -169.92 495.89 -153.42 L481.62 -127.51 C468.75 -138.26 453.3 -145.8 435.5 -145.8 C411.99 -145.8 393.95 -127.91 393.95 -97.05 C393.95 -60.65 419.54 -21.88 481.81 14.03 L481.81 14.03 Z M110.36 322 C110.36 496.93 206.36 619.39 365.31 619.39 C524.31 619.39 620.24 496.93 620.24 322 C620.24 150.15 524.31 25.79 365.31 25.79 C206.36 25.79 110.36 150.15 110.36 322 L110.36 322 Z " />
<glyph glyph-name="uni01EB" unicode="&#x1eb;" horiz-adv-x="589" d="M522.03 236.71 C522.03 377.95 428.27 480.85 295.87 480.85 C165.49 480.85 66.76 375.08 66.76 233.85 C66.76 90.29 161.11 -9.56999 292.87 -9.56999 C303.22 -9.56999 313.37 -8.89999 323.3 -7.59 C284.7 -38.73 270.14 -70.48 270.14 -105.58 C270.14 -151.83 299.72 -178.54 343.2 -178.54 C368.22 -178.54 386.95 -169.92 407.89 -153.42 L393.63 -127.51 C380.75 -138.26 365.31 -145.8 347.5 -145.8 C323.99 -145.8 305.95 -127.91 305.95 -97.05 C305.95 -60.63 331.57 -21.84 393.92 14.09 C398.59 16.45 403.16 18.96 407.64 21.64 L409.33 22.52 L409.14 22.55 C477.47 64.13 522.03 142.57 522.03 236.71 L522.03 236.71 Z M293.67 26.01 C177.5 26.01 104.99 114.99 104.99 233.85 C104.99 348.98 178.22 445.26 295.1 445.26 C411.17 445.26 483.81 353.23 483.81 236.66 C483.81 117.8 410.45 26.01 293.67 26.01 L293.67 26.01 Z " />
<glyph glyph-name="AEacute" unicode="&#x1fc;" horiz-adv-x="861" d="M605.63 753 L589.93 789.38 L418.56 705.92 L427.35 682.68 L605.63 753 Z M464.43 34.58 L464.43 316.65 L756.93 316.65 L756.93 351.23 L464.43 351.23 L464.43 607.13 L786.92 607.13 L786.92 642 L415.61 642 L16.68 -1.52588e-05 L56.1 -1.52588e-05 L183.72 204.22 L427.43 204.22 L427.43 -1.52588e-05 L799.9 -1.52588e-05 L799.9 34.58 L464.43 34.58 Z M204.62 237.67 L427.43 594.22 L427.43 237.67 L204.62 237.67 Z " />
<glyph glyph-name="aeacute" unicode="&#x1fd;" horiz-adv-x="849" d="M494 646.23 L469.29 677.48 L325.99 550.3 L341.42 530.75 L494 646.23 Z M783.49 236.06 C784.22 242.3 785.4 255.2 785.4 269.83 C785.4 398.45 704.66 480.85 591.34 480.85 C515.5 480.85 446.21 439.79 408.16 367.54 C386.84 449.24 317.7 480.85 236.91 480.85 C170.89 480.85 121.1 465.54 84.95 447.14 L93.8 413.18 C148.21 438.36 186.41 445.26 234.85 445.26 C317.25 445.26 377.9 407.71 377.9 308.41 L377.9 262.81 L239.16 262.81 C124.06 262.81 57.33 213.93 57.33 127.7 C57.33 41.64 120.14 -9.57004 215.96 -9.57004 C298.87 -9.57004 370.85 35.86 397.52 119.23 C431.4 34.06 505.8 -9.57005 600.23 -9.57005 C677.08 -9.57005 727.84 17.5199 764.8 46.5099 L748.51 77.3199 C720.95 54.81 678.13 25.7299 600.82 25.7299 C485.19 25.7299 416.05 104.04 416.05 233.3 L416.13 236.06 L783.49 236.06 Z M591.34 446.11 C671.93 446.11 746.8 391.23 746.8 267.81 L417.54 267.81 C427.21 370.37 492.8 446.11 591.34 446.11 L591.34 446.11 Z M377.64 153.07 C368.56 82.2399 307.56 24.5999 222.02 24.5999 C142.55 24.5999 95.84 63.2399 95.84 128.26 C95.84 186.01 135.88 231.21 239.36 231.35 L377.58 231.49 C377.6 229.57 377.63 227.65 377.67 225.75 L377.64 153.07 Z " />
<glyph glyph-name="Oslashacute" unicode="&#x1fe;" horiz-adv-x="738" d="M472.42 753 L456.72 789.38 L285.35 705.92 L294.14 682.68 L472.42 753 Z M673.65 631.41 L649.32 653.54 L573.67 570.09 C523.19 623.36 453.08 654.71 368.6 654.71 C189.56 654.71 75.05 512.47 75.05 322 C75.05 234.67 100.24 156.32 145.47 97.73 L67.75 12 L91.8 -11.54 L167.63 72.25 C217.79 21.08 286.39 -9.56999 368.6 -9.56999 C547.67 -9.56999 662.12 137.2 662.12 322 C662.12 409.73 638.19 486.79 595.09 544.6 L673.65 631.41 Z M113.64 322 C113.64 496.93 209.64 619.39 368.6 619.39 C444.43 619.39 505.91 591.53 549.49 543.41 L169.83 124.61 C133.4 175.85 113.64 244.04 113.64 322 L113.64 322 Z M623.52 322 C623.52 150.15 527.59 25.79 368.6 25.79 C294.85 25.79 234.66 52.56 191.31 98.42 L570.19 517.08 C604.8 466.32 623.52 399.28 623.52 322 L623.52 322 Z " />
<glyph glyph-name="oslashacute" unicode="&#x1ff;" horiz-adv-x="592" d="M381.69 646.23 L356.99 677.48 L213.69 550.3 L229.12 530.75 L381.69 646.23 Z M529.07 472.18 L507.58 492.33 L447.05 424.94 C408.23 460.29 356.77 480.85 297.58 480.85 C167.21 480.85 68.48 375.08 68.48 233.85 C68.48 166.44 89.29 108.66 125 66.33 L63.13 -2.56001 L84.55 -23.84 L146.01 44.74 C184.8 10.18 236 -9.57001 294.59 -9.57001 C424.25 -9.57001 523.75 96.03 523.75 236.71 C523.75 302.97 503.11 360.79 467.53 403.51 L529.07 472.18 Z M106.71 233.85 C106.71 348.98 179.94 445.26 296.82 445.26 C347.93 445.26 390.62 427.42 422.39 397.48 L150.12 94.3 C122.12 130.6 106.71 179.05 106.71 233.85 L106.71 233.85 Z M485.52 236.66 C485.52 117.8 412.17 26.01 295.38 26.01 C244.62 26.01 202.19 43.01 170.5 72.06 L442.28 375.34 C470.16 338.67 485.52 290.26 485.52 236.66 L485.52 236.66 Z " />
<glyph glyph-name="Scommaaccent" unicode="&#x218;" horiz-adv-x="533" d="M262.82 -9.57001 C388.92 -9.57001 465.26 60.22 465.26 167.11 C465.26 279.56 387.34 316.51 306.19 343.51 C214.62 373.93 117.31 392.94 117.31 493.73 C117.31 566.25 174.34 619.13 268.91 619.13 C341.26 619.13 384.81 597.85 430.79 562.19 L450.95 592.36 C405.32 629.36 352.53 654.7 269.05 654.7 C151.74 654.7 80.25 583.86 80.25 492.3 C80.25 361.69 191.25 339.64 287.55 308.49 C361.72 284.55 427.95 255.13 427.95 166.53 C427.95 82.3 369.44 26 262.88 26 C175.76 26 122.01 56.94 82.77 97.37 L59.61 69.84 C100.52 28.97 159.72 -9.58003 262.82 -9.58003 L262.82 -9.57001 Z M271.47 -42.01 C251.68 -41.98 235.09 -58.15 235.09 -77.99 C235.09 -95.73 248.73 -113.45 271.05 -114.3 C270.76 -134.04 265.57 -164.49 243.08 -197.58 L260.03 -209.19 C291.63 -169.4 307.83 -124.12 307.83 -80.72 C307.83 -56.72 291.26 -42.0401 271.47 -42.0101 L271.47 -42.01 Z " />
<glyph glyph-name="scommaaccent" unicode="&#x219;" horiz-adv-x="460" d="M236.63 480.85 C140.33 480.85 72.86 433.44 72.86 354.6 C72.86 273.09 134.33 246.8 223.38 227.65 C322.14 206.25 361.57 183.83 361.57 121.85 C361.57 65.36 315.72 24.88 223.68 24.88 C151.12 24.88 104.12 52.3 76.51 74.67 L60.92 43 C96.16 15.01 153.98 -9.56998 223.38 -9.56998 C333.13 -9.56998 398.58 40.33 398.58 121.85 C398.58 217.69 330.64 243.15 235.44 263.95 C163.3 279.51 109.76 296.26 109.76 356.5 C109.76 412.4 159.45 446.4 236.64 446.4 C297.71 446.4 336.91 431.7 371.64 413.21 L379.5 447.08 C352.63 461.51 306.98 480.85 236.64 480.85 L236.63 480.85 Z M238.29 -42 C218.5 -41.97 201.91 -58.14 201.91 -77.98 C201.91 -95.72 215.55 -113.44 237.87 -114.29 C237.58 -134.03 232.39 -164.48 209.9 -197.57 L226.85 -209.18 C258.45 -169.39 274.65 -124.11 274.65 -80.71 C274.65 -56.71 258.08 -42.03 238.29 -42 L238.29 -42 Z " />
<glyph glyph-name="uni021A" unicode="&#x21a;" horiz-adv-x="549" d="M36.73 642 L36.73 608.13 L255.24 608.13 L255.24 0 L292.5 0 L292.5 608.13 L511.66 608.13 L511.66 642 L36.73 642 Z M274.75 -42 C254.96 -41.97 238.36 -58.14 238.36 -77.98 C238.36 -95.72 252 -113.44 274.32 -114.29 C274.04 -134.03 268.84 -164.48 246.35 -197.57 L263.3 -209.18 C294.9 -169.39 311.1 -124.11 311.1 -80.71 C311.1 -56.71 294.53 -42.03 274.75 -42 L274.75 -42 Z " />
<glyph glyph-name="uni021B" unicode="&#x21b;" horiz-adv-x="369" d="M349.07 29.18 L331.86 57.02 C312.27 40.25 289.09 24.88 248.06 24.88 C200.88 24.88 152.11 52.2 152.11 149.38 L152.11 436.53 L315.05 436.53 L315.05 468.56 L152.11 468.56 L152.11 595.43 L114.85 585.8 L114.85 468.56 L36.6 468.56 L36.6 436.53 L114.85 436.53 L114.85 136.99 C114.85 33.73 176.85 -9.57002 245.79 -9.57002 C301.32 -9.57002 333.75 15.39 349.07 29.18 L349.07 29.18 Z M237.17 -42 C217.38 -41.97 200.78 -58.14 200.78 -77.98 C200.78 -95.72 214.42 -113.44 236.74 -114.29 C236.46 -134.03 231.26 -164.48 208.77 -197.57 L225.72 -209.18 C257.32 -169.39 273.52 -124.11 273.52 -80.71 C273.52 -56.71 256.95 -42.03 237.17 -42 L237.17 -42 Z " />
<glyph glyph-name="uni0237" unicode="&#x237;" horiz-adv-x="254" d="M156.46 468.56 L62.65 468.56 L62.65 435.11 L119.46 435.11 L120 -36.16 C120 -126.54 72.25 -159.7 26.28 -159.7 C-12.75 -159.7 -34.58 -145.2 -54.91 -127.38 L-73.09 -156.93 C-59.07 -168.62 -30.45 -194.15 27.35 -194.15 C93.75 -194.15 156.46 -144.64 156.46 -35.4 L156.46 468.56 Z " />
<glyph glyph-name="circumflex" unicode="&#x2c6;" horiz-adv-x="332" d="M179.57 671.04 L150.67 671.04 L38.03 556.53 L56.97 535.78 L164.48 637.03 L272.06 533.63 L291.71 553.66 L179.57 671.04 Z " />
<glyph glyph-name="caron" unicode="&#x2c7;" horiz-adv-x="330" d="M150.17 534.12 L179.07 534.12 L291.71 655.72 L272.77 676.47 L165.2 568.05 L57.69 678.62 L38.03 658.59 L150.17 534.12 Z " />
<glyph glyph-name="breve" unicode="&#x2d8;" horiz-adv-x="334" d="M165.65 539.31 C228.6 539.31 280.23 581.08 289.26 653.11 L261.55 657.32 C251.05 598.27 210.97 570.43 166.19 570.43 C121.33 570.43 81.02 597.98 69.76 657.32 L41.96 653.11 C50.99 579.95 102.62 539.31 165.65 539.31 L165.65 539.31 Z " />
<glyph glyph-name="dotaccent" unicode="&#x2d9;" horiz-adv-x="176" d="M121.33 604.41 C121.33 622.8 106.47 638.48 87.8 638.48 C69.3 638.48 53.73 622.8 53.73 604.41 C53.73 585.31 69.58 570.35 87.8 570.35 C106.47 570.35 121.33 585.31 121.33 604.41 L121.33 604.41 Z " />
<glyph glyph-name="ring" unicode="&#x2da;" horiz-adv-x="265" d="M218.84 603.15 C218.84 651.92 180.63 691.98 131.95 691.98 C82.26 691.98 44.05 651.92 44.05 603.15 C44.05 554.37 82.26 514.31 131.95 514.31 C180.63 514.31 218.84 554.37 218.84 603.15 L218.84 603.15 Z M131.95 542.95 C97.33 542.95 73.34 571.26 73.34 603.15 C73.34 635.82 97.33 663.63 131.95 663.63 C167.53 663.63 189.81 635.82 189.81 603.15 C189.81 571.26 167.53 542.95 131.95 542.95 L131.95 542.95 Z " />
<glyph glyph-name="ogonek" unicode="&#x2db;" horiz-adv-x="256" d="M125.37 -178.54 C150.39 -178.54 169.13 -169.92 190.07 -153.42 L175.8 -127.51 C162.93 -138.26 147.48 -145.8 129.68 -145.8 C106.17 -145.8 88.13 -127.91 88.13 -97.05 C88.13 -57.76 117.94 -15.72 191.5 22.52 L158.18 26.61 C79.54 -15.86 52.32 -57.59 52.32 -105.58 C52.32 -151.83 81.9 -178.54 125.37 -178.54 L125.37 -178.54 Z " />
<glyph glyph-name="tilde" unicode="&#x2dc;" horiz-adv-x="402" d="M79.61 569.12 C89.22 593.68 108.43 609.21 138.34 609.21 C174.58 609.21 206.02 567.33 254.91 567.33 C295.32 567.33 324.4 589.75 338.9 629.18 L310.2 640.03 C300.94 615.46 283.03 599.93 252.9 599.93 C213.96 599.93 181.81 642.1 136.33 642.1 C96.07 642.1 65.84 619.4 50.91 579.96 L79.61 569.12 Z " />
<glyph glyph-name="hungarumlaut" unicode="&#x2dd;" horiz-adv-x="352" d="M56.03 519.94 L163.08 665.35 L129.5 688.01 L34.16 533.81 L56.03 519.94 Z M201.33 519.94 L308.38 665.35 L274.8 688.01 L179.46 533.81 L201.33 519.94 Z " />
<glyph glyph-name="gravecomb" unicode="&#x300;" d="M-55.62 530.46 L-39.9 551.02 L-183.56 678.05 L-208.55 646.23 L-55.62 530.46 Z " />
<glyph glyph-name="acutecomb" unicode="&#x301;" d="M-193.33 530.75 L-40.75 646.23 L-65.46 677.48 L-208.76 550.3 L-193.33 530.75 Z " />
<glyph glyph-name="uni0302" unicode="&#x302;" d="M-150.89 671.04 L-179.79 671.04 L-292.43 556.53 L-273.49 535.78 L-165.98 637.03 L-58.41 533.63 L-38.75 553.66 L-150.89 671.04 Z " />
<glyph glyph-name="tildecomb" unicode="&#x303;" d="M-308.87 569.12 C-299.26 593.68 -280.05 609.21 -250.14 609.21 C-213.9 609.21 -182.46 567.33 -133.57 567.33 C-93.17 567.33 -64.09 589.75 -49.58 629.18 L-78.28 640.03 C-87.54 615.46 -105.46 599.93 -135.58 599.93 C-174.53 599.93 -206.67 642.1 -252.15 642.1 C-292.41 642.1 -322.64 619.4 -337.57 579.96 L-308.87 569.12 Z " />
<glyph glyph-name="uni0304" unicode="&#x304;" d="M-296.44 573.46 L-48.18 573.46 L-48.18 604.63 L-296.44 604.63 L-296.44 573.46 Z " />
<glyph glyph-name="uni0306" unicode="&#x306;" d="M-165.57 539.31 C-102.63 539.31 -50.99 581.08 -41.96 653.11 L-69.68 657.32 C-80.18 598.27 -120.25 570.43 -165.04 570.43 C-209.9 570.43 -250.21 597.98 -261.47 657.32 L-289.27 653.11 C-280.24 579.95 -228.6 539.31 -165.57 539.31 L-165.57 539.31 Z " />
<glyph glyph-name="uni0307" unicode="&#x307;" d="M-53.02 604.41 C-53.02 622.8 -67.87 638.48 -86.55 638.48 C-105.04 638.48 -120.61 622.8 -120.61 604.41 C-120.61 585.31 -104.76 570.35 -86.55 570.35 C-67.87 570.35 -53.02 585.31 -53.02 604.41 L-53.02 604.41 Z " />
<glyph glyph-name="uni0308" unicode="&#x308;" d="M-249.48 602.52 C-249.48 620.25 -263.6 635.22 -281.57 635.22 C-299.64 635.22 -314.47 620.25 -314.47 602.52 C-314.47 583.76 -299.35 569.5 -281.57 569.5 C-263.6 569.5 -249.48 583.76 -249.48 602.52 L-249.48 602.52 Z M-47.92 602.52 C-47.92 620.25 -62.35 635.22 -80.31 635.22 C-98.07 635.22 -112.96 620.25 -112.96 602.52 C-112.96 583.76 -97.82 569.5 -80.31 569.5 C-62.35 569.5 -47.92 583.76 -47.92 602.52 L-47.92 602.52 Z " />
<glyph glyph-name="uni030A" unicode="&#x30a;" d="M-44.05 603.15 C-44.05 651.92 -82.27 691.98 -130.95 691.98 C-180.63 691.98 -218.85 651.92 -218.85 603.15 C-218.85 554.37 -180.63 514.31 -130.95 514.31 C-82.27 514.31 -44.05 554.37 -44.05 603.15 L-44.05 603.15 Z M-130.95 542.95 C-165.56 542.95 -189.56 571.26 -189.56 603.15 C-189.56 635.82 -165.56 663.63 -130.95 663.63 C-95.37 663.63 -73.09 635.82 -73.09 603.15 C-73.09 571.26 -95.37 542.95 -130.95 542.95 L-130.95 542.95 Z " />
<glyph glyph-name="uni030B" unicode="&#x30b;" d="M-289.09 519.94 L-182.04 665.35 L-215.63 688.01 L-310.96 533.81 L-289.09 519.94 Z M-143.79 519.94 L-36.74 665.35 L-70.33 688.01 L-165.66 533.81 L-143.79 519.94 Z " />
<glyph glyph-name="uni030C" unicode="&#x30c;" d="M-179.7 534.12 L-150.8 534.12 L-38.16 655.72 L-57.1 676.47 L-164.67 568.05 L-272.18 678.62 L-291.84 658.59 L-179.7 534.12 Z " />
<glyph glyph-name="uni0326" unicode="&#x326;" d="M-94.33 -42 C-114.12 -41.97 -130.71 -58.14 -130.71 -77.98 C-130.71 -95.72 -117.07 -113.44 -94.75 -114.29 C-95.04 -134.03 -100.23 -164.48 -122.72 -197.57 L-105.77 -209.18 C-74.17 -169.39 -57.97 -124.11 -57.97 -80.71 C-57.97 -56.71 -74.54 -42.03 -94.33 -42 L-94.33 -42 Z " />
<glyph glyph-name="uni0327" unicode="&#x327;" d="M-126.22 3.11 L-151.72 -62.39 C-95.34 -66.54 -66.19 -79.7 -66.19 -114.3 C-66.19 -147.72 -97.52 -160.94 -129.36 -160.94 C-152.69 -160.94 -170.62 -153.18 -180.73 -147.51 L-192.35 -173.72 C-183.69 -179.57 -157.11 -189.29 -128.02 -189.29 C-84.24 -189.29 -31.74 -170.49 -31.74 -112.25 C-31.74 -65.72 -64.68 -46.84 -113.68 -40.3 L-96.65 3.10999 L-126.22 3.11 Z " />
<glyph glyph-name="uni0328" unicode="&#x328;" d="M-127.36 -178.54 C-102.34 -178.54 -83.61 -169.92 -62.66 -153.42 L-76.93 -127.51 C-89.81 -138.26 -105.25 -145.8 -123.05 -145.8 C-146.57 -145.8 -164.6 -127.91 -164.6 -97.05 C-164.6 -57.76 -134.8 -15.72 -61.23 22.52 L-94.55 26.61 C-173.19 -15.86 -200.41 -57.59 -200.41 -105.58 C-200.41 -151.83 -170.84 -178.54 -127.36 -178.54 L-127.36 -178.54 Z " />
<glyph glyph-name="uni0335" unicode="&#x335;" d="M-269.14 453.48 L-45.47 453.48 L-45.47 484.08 L-269.14 484.08 L-269.14 453.48 Z " />
<glyph glyph-name="uni0336" unicode="&#x336;" d="M-635.7 454.61 L-56.22 454.61 L-56.22 484.65 L-635.7 484.65 L-635.7 454.61 Z " />
<glyph glyph-name="uni0337" unicode="&#x337;" d="M-224.87 280.72 L-41.05 375.52 L-54.79 401.71 L-238.68 306.83 L-224.87 280.72 Z " />
<glyph glyph-name="uni0338" unicode="&#x338;" d="M-534.72 -25.35 L-90.2 470.67 L-111.7 490.82 L-556.14 -4.07001 L-534.72 -25.35 Z " />
<glyph glyph-name="Wgrave" unicode="&#x1e80;" horiz-adv-x="893" d="M529.03 705.92 L357.66 789.38 L341.96 753 L520.24 682.68 L529.03 705.92 Z M810.47 642 L638.53 60.61 L632.94 40.14 L627.74 60.88 L470.37 584.86 L432.34 584.86 L265.49 57.45 L261.13 40.4 L256.63 57.8 L85.64 642 L44.6 642 L237.62 -1.52588e-05 L281.57 -1.52588e-05 L441.1 498.88 L451.28 534.93 L459.94 499.3 L609.39 -1.52588e-05 L652.94 -1.52588e-05 L847.87 642 L810.47 642 Z " />
<glyph glyph-name="wgrave" unicode="&#x1e81;" horiz-adv-x="739" d="M446.31 551.02 L302.65 678.05 L277.66 646.23 L430.59 530.46 L446.31 551.02 Z M653.05 468.56 L521.9 36.83 L390.79 468.56 L347.39 468.56 L219.59 36.65 L85.9 468.56 L45.76 468.56 L196.28 0 L241.81 0 L369.14 425.59 L497.91 0 L543.42 0 L692.9 468.56 L653.05 468.56 Z " />
<glyph glyph-name="Wacute" unicode="&#x1e82;" horiz-adv-x="893" d="M550.61 753 L534.91 789.38 L363.54 705.92 L372.33 682.68 L550.61 753 Z M810.47 642 L638.53 60.61 L632.94 40.14 L627.74 60.88 L470.37 584.86 L432.34 584.86 L265.49 57.45 L261.13 40.4 L256.63 57.8 L85.64 642 L44.6 642 L237.62 -1.52588e-05 L281.57 -1.52588e-05 L441.1 498.88 L451.28 534.93 L459.94 499.3 L609.39 -1.52588e-05 L652.94 -1.52588e-05 L847.87 642 L810.47 642 Z " />
<glyph glyph-name="wacute" unicode="&#x1e83;" horiz-adv-x="739" d="M455.33 646.23 L430.63 677.48 L287.33 550.3 L302.76 530.75 L455.33 646.23 Z M653.05 468.56 L521.9 36.83 L390.79 468.56 L347.39 468.56 L219.59 36.65 L85.9 468.56 L45.76 468.56 L196.28 0 L241.81 0 L369.14 425.59 L497.91 0 L543.42 0 L692.9 468.56 L653.05 468.56 Z " />
<glyph glyph-name="Wdieresis" unicode="&#x1e84;" horiz-adv-x="893" d="M355.57 716.23 C373.87 716.23 388.13 730.35 388.13 748.88 C388.13 766.41 374.13 781.25 355.57 781.25 C337.72 781.25 323 766.41 323 748.88 C323 730.35 337.98 716.23 355.57 716.23 L355.57 716.23 Z M538 716.23 C556.31 716.23 570.57 730.35 570.57 748.88 C570.57 766.41 556.57 781.25 538 781.25 C520.16 781.25 505.44 766.41 505.44 748.88 C505.44 730.35 520.41 716.23 538 716.23 L538 716.23 Z M810.47 642 L638.53 60.61 L632.94 40.14 L627.74 60.88 L470.37 584.86 L432.34 584.86 L265.49 57.45 L261.13 40.4 L256.63 57.8 L85.64 642 L44.6 642 L237.62 -1.52588e-05 L281.57 -1.52588e-05 L441.1 498.88 L451.28 534.93 L459.94 499.3 L609.39 -1.52588e-05 L652.94 -1.52588e-05 L847.87 642 L810.47 642 Z " />
<glyph glyph-name="wdieresis" unicode="&#x1e85;" horiz-adv-x="739" d="M270.03 569.5 C288 569.5 302.11 583.76 302.11 602.52 C302.11 620.25 288 635.22 270.03 635.22 C251.96 635.22 237.13 620.25 237.13 602.52 C237.13 583.76 252.24 569.5 270.03 569.5 L270.03 569.5 Z M471.28 569.5 C489.25 569.5 503.68 583.76 503.68 602.52 C503.68 620.25 489.25 635.22 471.28 635.22 C453.52 635.22 438.63 620.25 438.63 602.52 C438.63 583.76 453.78 569.5 471.28 569.5 L471.28 569.5 Z M653.05 468.56 L521.9 36.83 L390.79 468.56 L347.39 468.56 L219.59 36.65 L85.9 468.56 L45.76 468.56 L196.28 0 L241.81 0 L369.14 425.59 L497.91 0 L543.42 0 L692.9 468.56 L653.05 468.56 Z " />
<glyph glyph-name="uni1E9E" unicode="&#x1e9e;" horiz-adv-x="640" d="M358.87 356.2 L515.31 607.13 L515.31 642 L336.03 642 C210.26 642 107.66 575.52 107.23 431.14 L107.23 -1.52588e-05 L144.48 -1.52588e-05 L144.48 430 C144.48 553.23 226.24 607.13 334.61 607.13 L472.49 607.13 L318.34 358.51 L318.34 320.64 L326.98 320.84 L326.98 320.64 L351.24 320.86 C444.39 321.58 544.63 284.85 544.63 165.54 C544.63 88.54 494.53 26.01 395.26 26.01 C336.35 26.01 294.65 48.05 264.5 73.16 L241.54 44.16 C275.11 16.33 324.24 -9.57001 395.21 -9.57001 C514.47 -9.57001 581.94 66.45 581.94 166.11 C581.94 307.14 469.23 355.14 358.87 356.2 L358.87 356.2 Z " />
<glyph glyph-name="Ygrave" unicode="&#x1ef2;" horiz-adv-x="591" d="M378.19 705.92 L206.82 789.38 L191.12 753 L369.4 682.68 L378.19 705.92 Z M541.27 642 L499.21 642 L304.77 316.95 L297.85 303.23 L290.89 316.56 L86.39 642 L43.2 642 L277.51 268.61 L277.51 0 L314.77 0 L314.77 267.96 L541.27 642 Z " />
<glyph glyph-name="ygrave" unicode="&#x1ef3;" horiz-adv-x="506" d="M335.49 551.02 L191.83 678.05 L166.84 646.23 L319.77 530.46 L335.49 551.02 Z M463.06 468.56 L422.36 468.56 L256.43 35.37 L87.09 468.56 L45.48 468.56 L232.65 0 L241.69 0 L209.26 -78.17 C190.62 -122.92 161.28 -159.78 86.83 -159.78 L86.83 -194.23 C156.11 -194.23 207.79 -174.73 243.26 -86.17 L277.84 0 L277.79 0 L463.06 468.56 Z " />
<glyph glyph-name="uni1EF8" unicode="&#x1ef8;" horiz-adv-x="591" d="M231.77 749.8 C270.3 749.8 310.12 705.76 361.24 705.76 C399.49 705.76 427.86 725.03 443.87 759.38 L415.45 770.79 C404.55 750.24 385.84 737.65 359.23 737.65 C318.56 737.65 277.89 781.96 230.47 781.96 C189.5 781.96 159.99 761.2 143.33 724.92 L172.03 714.21 C183.37 736.2 202.86 749.8 231.77 749.8 L231.77 749.8 Z M541.27 642 L499.21 642 L304.77 316.95 L297.85 303.23 L290.89 316.56 L86.39 642 L43.2 642 L277.51 268.61 L277.51 3.05176e-05 L314.77 3.05176e-05 L314.77 267.96 L541.27 642 Z " />
<glyph glyph-name="uni1EF9" unicode="&#x1ef9;" horiz-adv-x="506" d="M203.37 609.21 C239.61 609.21 271.05 567.33 319.95 567.33 C360.35 567.33 389.43 589.75 403.93 629.18 L375.23 640.03 C365.98 615.46 348.06 599.93 317.94 599.93 C278.99 599.93 246.84 642.1 201.36 642.1 C161.1 642.1 130.88 619.4 115.94 579.96 L144.64 569.12 C154.26 593.68 173.46 609.21 203.37 609.21 L203.37 609.21 Z M463.06 468.56 L422.36 468.56 L256.43 35.37 L87.09 468.56 L45.48 468.56 L232.65 0 L241.69 0 L209.26 -78.17 C190.62 -122.92 161.28 -159.78 86.83 -159.78 L86.83 -194.23 C156.11 -194.23 207.79 -174.73 243.26 -86.17 L277.84 0 L277.79 0 L463.06 468.56 Z " />
<glyph glyph-name="endash" unicode="&#x2013;" horiz-adv-x="600" d="M88.05 232.91 L511.86 232.91 L511.86 265.51 L88.05 265.51 L88.05 232.91 Z " />
<glyph glyph-name="emdash" unicode="&#x2014;" horiz-adv-x="1080" d="M88.05 233.63 L991.88 233.63 L991.88 266.23 L88.05 266.23 L88.05 233.63 Z " />
<glyph glyph-name="quoteleft" unicode="&#x2018;" horiz-adv-x="224" d="M111.6 485.12 C132.04 485.12 149.15 501.93 149.15 522.6 C149.15 541.24 135.57 559.72 111.89 560.46 C112.54 585.85 119.58 619.07 143.95 655.32 L125.54 667.89 C92.6 623.45 74.08 575.13 74.08 526.63 C74.08 499.93 91.16 485.12 111.6 485.12 L111.6 485.12 Z " />
<glyph glyph-name="quoteright" unicode="&#x2019;" horiz-adv-x="219" d="M113.44 667.98 C93 667.98 75.89 651.16 75.89 630.5 C75.89 611.86 89.48 593.37 113.16 592.64 C112.51 567.24 105.47 534.03 81.1 497.78 L99.5 485.2 C132.44 529.64 150.96 577.96 150.96 626.47 C150.96 653.16 133.88 667.98 113.44 667.98 L113.44 667.98 Z " />
<glyph glyph-name="quotesinglbase" unicode="&#x201a;" horiz-adv-x="238" d="M118.73 65.83 C98.29 65.83 81.18 49.01 81.18 28.35 C81.18 9.70999 94.76 -8.78001 118.44 -9.51001 C117.79 -34.9 110.75 -68.12 86.38 -104.37 L104.79 -116.95 C137.73 -72.51 156.25 -24.18 156.25 24.32 C156.25 51.01 139.17 65.83 118.73 65.83 L118.73 65.83 Z " />
<glyph glyph-name="quotedblleft" unicode="&#x201c;" horiz-adv-x="347" d="M111.6 485.12 C132.04 485.12 149.15 501.93 149.15 522.6 C149.15 541.24 135.57 559.72 111.89 560.46 C112.54 585.85 119.58 619.07 143.95 655.32 L125.54 667.89 C92.6 623.45 74.08 575.13 74.08 526.63 C74.08 499.93 91.16 485.12 111.6 485.12 L111.6 485.12 Z M235.2 485.12 C255.64 485.12 272.75 501.93 272.75 522.6 C272.75 541.24 259.16 559.72 235.48 560.46 C236.13 585.85 243.17 619.07 267.54 655.32 L249.14 667.89 C216.2 623.45 197.68 575.13 197.68 526.63 C197.68 499.93 214.76 485.12 235.2 485.12 L235.2 485.12 Z " />
<glyph glyph-name="quotedblright" unicode="&#x201d;" horiz-adv-x="343" d="M113.44 667.98 C93 667.98 75.89 651.16 75.89 630.5 C75.89 611.86 89.48 593.37 113.16 592.64 C112.51 567.24 105.47 534.03 81.1 497.78 L99.5 485.2 C132.44 529.64 150.96 577.96 150.96 626.47 C150.96 653.16 133.88 667.98 113.44 667.98 L113.44 667.98 Z M237.04 667.98 C216.6 667.98 199.49 651.16 199.49 630.5 C199.49 611.86 213.07 593.37 236.75 592.64 C236.1 567.24 229.06 534.03 204.69 497.78 L223.1 485.2 C256.04 529.64 274.56 577.96 274.56 626.47 C274.56 653.16 257.48 667.98 237.04 667.98 L237.04 667.98 Z " />
<glyph glyph-name="quotedblbase" unicode="&#x201e;" horiz-adv-x="362" d="M118.73 65.83 C98.29 65.83 81.18 49.01 81.18 28.35 C81.18 9.70999 94.76 -8.78001 118.44 -9.51001 C117.79 -34.9 110.75 -68.12 86.38 -104.37 L104.79 -116.95 C137.73 -72.51 156.25 -24.18 156.25 24.32 C156.25 51.01 139.17 65.83 118.73 65.83 L118.73 65.83 Z M242.32 65.83 C221.88 65.83 204.77 49.01 204.77 28.35 C204.77 9.70999 218.36 -8.78001 242.04 -9.51001 C241.38 -34.9 234.35 -68.12 209.97 -104.37 L228.38 -116.95 C261.32 -72.51 279.84 -24.18 279.84 24.32 C279.84 51.01 262.76 65.83 242.32 65.83 L242.32 65.83 Z " />
<glyph glyph-name="dagger" unicode="&#x2020;" horiz-adv-x="520" d="M442.58 480.5 L277.17 480.5 L277.17 642 L241.74 642 L241.74 480.5 L77.18 480.5 L77.18 445.65 L241.74 445.65 L241.74 0 L277.17 0 L277.17 445.65 L442.58 445.65 L442.58 480.5 Z " />
<glyph glyph-name="daggerdbl" unicode="&#x2021;" horiz-adv-x="520" d="M442.58 445.65 L442.58 480.5 L277.17 480.5 L277.17 642 L241.74 642 L241.74 480.5 L77.18 480.5 L77.18 445.65 L241.74 445.65 L241.74 199.21 L77.18 199.21 L77.18 164.36 L241.74 164.36 L241.74 -1.52588e-05 L277.17 -1.52588e-05 L277.17 164.36 L442.58 164.36 L442.58 199.21 L277.17 199.21 L277.17 445.65 L442.58 445.65 Z " />
<glyph glyph-name="bullet" unicode="&#x2022;" horiz-adv-x="397" d="M291.89 269.93 C291.89 321.9 249.91 363.87 198.29 363.87 C146.32 363.87 104.35 321.9 104.35 269.93 C104.35 218.24 146.32 176.26 198.29 176.26 C249.91 176.26 291.89 218.24 291.89 269.93 L291.89 269.93 Z " />
<glyph glyph-name="ellipsis" unicode="&#x2026;" horiz-adv-x="570" d="M155.57 28.35 C155.57 49.01 138.49 65.83 118.05 65.83 C97.61 65.83 80.5 49.01 80.5 28.35 C80.5 7.25 97.61 -9.57001 118.05 -9.57001 C138.49 -9.57001 155.57 7.25 155.57 28.35 L155.57 28.35 Z M322.6 28.35 C322.6 49.01 305.52 65.83 285.08 65.83 C264.64 65.83 247.53 49.01 247.53 28.35 C247.53 7.25 264.64 -9.57001 285.08 -9.57001 C305.52 -9.57001 322.6 7.25 322.6 28.35 L322.6 28.35 Z M489.63 28.35 C489.63 49.01 472.55 65.83 452.11 65.83 C431.67 65.83 414.56 49.01 414.56 28.35 C414.56 7.25 431.67 -9.57001 452.11 -9.57001 C472.55 -9.57001 489.63 7.25 489.63 28.35 L489.63 28.35 Z " />
<glyph glyph-name="perthousand" unicode="&#x2030;" horiz-adv-x="1076" d="M187.79 349.38 C271.12 349.38 324.34 412.95 324.34 492.21 C324.34 571.47 271.12 635.05 187.79 635.05 C103.96 635.05 51.03 571.47 51.03 492.21 C51.03 412.95 103.96 349.38 187.79 349.38 L187.79 349.38 Z M138.14 -33.69 L176.88 -33.69 L605.79 622.65 L567.06 622.65 L138.14 -33.69 Z M187.79 379.71 C119.53 379.71 84.06 430.25 84.06 492.21 C84.06 552.88 119.53 604.71 187.79 604.71 C256.49 604.71 291.31 552.88 291.31 492.21 C291.31 430.25 256.49 379.71 187.79 379.71 L187.79 379.71 Z M567.45 -6.84001 C650.78 -6.84001 704 56.74 704 136 C704 215.26 650.78 278.83 567.45 278.83 C482.9 278.83 430.61 215.26 430.61 136 C430.61 56.74 482.9 -6.84001 567.45 -6.84001 L567.45 -6.84001 Z M890.85 -6.84001 C974.18 -6.84001 1027.4 56.74 1027.4 136 C1027.4 215.26 974.18 278.83 890.85 278.83 C806.3 278.83 754.01 215.26 754.01 136 C754.01 56.74 806.3 -6.84001 890.85 -6.84001 L890.85 -6.84001 Z M567.45 23.5 C498.47 23.5 463.65 74.04 463.65 136 C463.65 196.67 498.47 248.5 567.45 248.5 C636.5 248.5 670.96 196.67 670.96 136 C670.96 74.04 636.5 23.5 567.45 23.5 L567.45 23.5 Z M890.85 23.5 C821.87 23.5 787.05 74.04 787.05 136 C787.05 196.67 821.87 248.5 890.85 248.5 C959.9 248.5 994.36 196.67 994.36 136 C994.36 74.04 959.9 23.5 890.85 23.5 L890.85 23.5 Z " />
<glyph glyph-name="guilsinglleft" unicode="&#x2039;" horiz-adv-x="299" d="M62.05 256.57 L187.07 111.34 L212.71 131.5 L105.92 256.57 L212.71 381.65 L187.07 401.81 L62.05 256.57 Z " />
<glyph glyph-name="guilsinglright" unicode="&#x203a;" horiz-adv-x="299" d="M236 256.57 L110.98 401.81 L85.34 381.65 L192.13 256.57 L85.34 131.5 L110.98 111.34 L236 256.57 Z " />
<glyph glyph-name="fraction" unicode="&#x2044;" horiz-adv-x="520" d="M23.86 0 L62.59 0 L496.24 642 L457.5 642 L23.86 0 Z " />
<glyph glyph-name="Euro" unicode="&#x20ac;" horiz-adv-x="685" d="M600.38 87.61 C560.49 51.93 508.3 26.01 423.6 26.01 C299.14 26.01 209.65 107.54 181.34 232.37 L415.8 232.37 L415.8 263.84 L175.64 263.84 C173.12 282.15 171.82 301.23 171.82 321 C171.82 341.3 173.19 360.91 175.85 379.7 L415.8 379.7 L415.8 411.16 L181.68 411.16 C210.76 536.98 302.16 619.13 429.35 619.13 C500.01 619.13 544.05 600.18 591.1 564.03 L612.11 593.56 C567.87 629.93 512.13 654.71 429.29 654.71 C281.72 654.71 173.47 557.15 142.17 411.16 L61.18 411.16 L61.18 379.7 L136.73 379.7 C134.21 360.79 132.91 341.19 132.91 321 C132.91 301.37 134.1 282.29 136.43 263.84 L61.18 263.84 L61.18 232.37 L141.62 232.37 C171.18 88.48 274.19 -9.57001 423.49 -9.57001 C518.03 -9.57001 577.93 21.99 620.22 58.87 L600.38 87.61 Z " />
<glyph glyph-name="trademark" unicode="&#x2122;" horiz-adv-x="753" d="M621.09 654.74 L515.09 405.39 L504.82 381.75 L494.43 405.39 L376.65 654.74 L342.43 654.74 L342.43 313.18 L375.04 313.18 L375.04 565.94 L374.3 589.6 L382.92 567.25 L490.01 340.41 L518.83 340.41 L614.96 566.94 L623.66 590.21 L622.9 565.94 L622.9 313.18 L655.42 313.18 L655.42 654.74 L621.09 654.74 Z M49.45 623.56 L160.96 623.56 L160.96 313.18 L195.16 313.18 L195.16 623.56 L300.64 623.56 L300.64 654.03 L49.45 654.03 L49.45 623.56 Z " />
<glyph glyph-name="arrowleft" unicode="&#x2190;" horiz-adv-x="1200" d="M1000 750 L200 750 C145 750 100 705 100 650 L100 -150 C100 -205 145 -250 200 -250 L1000 -250 C1055 -250 1100 -205 1100 -150 L1100 650 C1100 705 1055 750 1000 750 L1000 750 Z M985.69 714.67 C1032.66 714.67 1064.66 682.67 1064.66 635.7 L1064.66 -135.47 C1064.66 -182.66 1032.66 -214.66 985.69 -214.66 L214.31 -214.66 C167.33 -214.66 135.33 -182.66 135.33 -135.68 L135.33 635.7 C135.33 682.67 167.33 714.67 214.31 714.67 L985.69 714.67 Z M596.72 527.05 L626.94 498.32 L397.12 271.62 L929.84 271.55 L929.84 228.95 L397.05 228.95 L626.94 2.25 L596.72 -26.48 L319.53 250.21 L596.72 527.05 Z " />
<glyph glyph-name="arrowup" unicode="&#x2191;" horiz-adv-x="1200" d="M1000 750 L200 750 C145 750 100 705 100 650 L100 -150 C100 -205 145 -250 200 -250 L1000 -250 C1055 -250 1100 -205 1100 -150 L1100 650 C1100 705 1055 750 1000 750 L1000 750 Z M985.69 714.67 C1032.66 714.67 1064.66 682.67 1064.66 635.7 L1064.66 -135.47 C1064.66 -182.66 1032.66 -214.66 985.69 -214.66 L214.31 -214.66 C167.33 -214.66 135.33 -182.66 135.33 -135.68 L135.33 635.7 C135.33 682.67 167.33 714.67 214.31 714.67 L985.69 714.67 Z M878.55 270.4 L601.79 547.59 L325.02 270.4 L353.75 240.18 L580.45 470.07 L580.45 -63 L623.12 -63 L623.12 470.07 L849.82 240.18 L878.55 270.4 Z " />
<glyph glyph-name="arrowright" unicode="&#x2192;" horiz-adv-x="1200" d="M1000 750 L200 750 C145 750 100 705 100 650 L100 -150 C100 -205 145 -250 200 -250 L1000 -250 C1055 -250 1100 -205 1100 -150 L1100 650 C1100 705 1055 750 1000 750 L1000 750 Z M985.69 714.67 C1032.66 714.67 1064.66 682.67 1064.66 635.7 L1064.66 -135.47 C1064.66 -182.66 1032.66 -214.66 985.69 -214.66 L214.31 -214.66 C167.33 -214.66 135.33 -182.66 135.33 -135.68 L135.33 635.7 C135.33 682.67 167.33 714.67 214.31 714.67 L985.69 714.67 Z M642.33 526.55 L919.52 249.78 L642.33 -26.98 L612.11 1.75 L842 228.45 L309.21 228.45 L309.21 271.12 L842 271.12 L612.11 497.82 L642.33 526.55 Z " />
<glyph glyph-name="arrowdown" unicode="&#x2193;" horiz-adv-x="1200" d="M1000 750 L200 750 C145 750 100 705 100 650 L100 -150 C100 -205 145 -250 200 -250 L1000 -250 C1055 -250 1100 -205 1100 -150 L1100 650 C1100 705 1055 750 1000 750 L1000 750 Z M985.69 714.67 C1032.66 714.67 1064.66 682.67 1064.66 635.7 L1064.66 -135.47 C1064.66 -182.66 1032.66 -214.66 985.69 -214.66 L214.31 -214.66 C167.33 -214.66 135.33 -182.66 135.33 -135.68 L135.33 635.7 C135.33 682.67 167.33 714.67 214.31 714.67 L985.69 714.67 Z M878.48 229.24 L849.75 259.46 L623.05 29.56 L623.05 562.64 L580.45 562.64 L580.38 29.64 L353.68 259.46 L324.95 229.24 L601.79 -47.95 L878.48 229.24 Z " />
<glyph glyph-name="uni2196" unicode="&#x2196;" horiz-adv-x="1200" d="M1000 750 L200 750 C145 750 100 705 100 650 L100 -150 C100 -205 145 -250 200 -250 L1000 -250 C1055 -250 1100 -205 1100 -150 L1100 650 C1100 705 1055 750 1000 750 L1000 750 Z M985.69 714.67 C1032.66 714.67 1064.66 682.67 1064.66 635.7 L1064.66 -135.47 C1064.66 -182.66 1032.66 -214.66 985.69 -214.66 L214.31 -214.66 C167.33 -214.66 135.33 -182.66 135.33 -135.68 L135.33 635.7 C135.33 682.67 167.33 714.67 214.31 714.67 L985.69 714.67 Z M781.43 469.54 L781.22 427.66 L461.71 427.87 L836.22 53.29 L806.28 23.07 L431.7 397.65 L431.98 78.14 L390.1 78.21 L389.68 469.61 L781.43 469.54 Z " />
<glyph glyph-name="uni2197" unicode="&#x2197;" horiz-adv-x="1200" d="M1000 750 L200 750 C145 750 100 705 100 650 L100 -150 C100 -205 145 -250 200 -250 L1000 -250 C1055 -250 1100 -205 1100 -150 L1100 650 C1100 705 1055 750 1000 750 L1000 750 Z M985.69 714.67 C1032.66 714.67 1064.66 682.67 1064.66 635.7 L1064.66 -135.47 C1064.66 -182.66 1032.66 -214.66 985.69 -214.66 L214.31 -214.66 C167.33 -214.66 135.33 -182.66 135.33 -135.68 L135.33 635.7 C135.33 682.67 167.33 714.67 214.31 714.67 L985.69 714.67 Z M437.14 467.82 L828.82 467.96 L828.47 76.49 L786.58 76.42 L786.8 395.93 L412.22 21.42 L382.28 51.64 L756.86 426.23 L437.35 425.94 L437.14 467.82 Z " />
<glyph glyph-name="uni2198" unicode="&#x2198;" horiz-adv-x="1200" d="M1000 750 L200 750 C145 750 100 705 100 650 L100 -150 C100 -205 145 -250 200 -250 L1000 -250 C1055 -250 1100 -205 1100 -150 L1100 650 C1100 705 1055 750 1000 750 L1000 750 Z M985.69 714.67 C1032.66 714.67 1064.66 682.67 1064.66 635.7 L1064.66 -135.47 C1064.66 -182.66 1032.66 -214.66 985.69 -214.66 L214.31 -214.66 C167.33 -214.66 135.33 -182.66 135.33 -135.68 L135.33 635.7 C135.33 682.67 167.33 714.67 214.31 714.67 L985.69 714.67 Z M435.99 23.54 L436.2 65.42 L755.71 65.2 L381.2 439.78 L411.14 470.01 L785.72 95.42 L785.44 414.94 L827.32 414.86 L827.75 23.46 L435.99 23.54 Z " />
<glyph glyph-name="uni2199" unicode="&#x2199;" horiz-adv-x="1200" d="M1000 750 L200 750 C145 750 100 705 100 650 L100 -150 C100 -205 145 -250 200 -250 L1000 -250 C1055 -250 1100 -205 1100 -150 L1100 650 C1100 705 1055 750 1000 750 L1000 750 Z M985.69 714.67 C1032.66 714.67 1064.66 682.67 1064.66 635.7 L1064.66 -135.47 C1064.66 -182.66 1032.66 -214.66 985.69 -214.66 L214.31 -214.66 C167.33 -214.66 135.33 -182.66 135.33 -135.68 L135.33 635.7 C135.33 682.67 167.33 714.67 214.31 714.67 L985.69 714.67 Z M763.71 21.96 L372.03 21.82 L372.39 413.29 L414.27 413.36 L414.05 93.85 L788.63 468.36 L818.57 438.14 L443.99 63.55 L763.5 63.84 L763.71 21.96 Z " />
<glyph glyph-name="minus" unicode="&#x2212;" horiz-adv-x="565" d="M90.47 219.41 L474.92 219.41 L474.92 252.15 L90.47 252.15 L90.47 219.41 Z " />
<glyph glyph-name="approxequal" unicode="&#x2248;" horiz-adv-x="563" d="M118.12 271.98 C132.95 301.71 159.81 317.55 198.26 317.55 C254.77 317.55 299.95 272.55 363.63 272.55 C412.9 272.55 451.73 296.85 471.62 339.05 L442.78 353.55 C428.31 325.41 402.01 307.13 363.63 307.13 C310.66 307.13 261.63 352.13 198.26 352.13 C149.7 352.13 110.95 328 91.05 286.48 L118.12 271.98 Z M118.12 92.72 C132.95 122.44 159.81 138.28 198.26 138.28 C254.77 138.28 299.95 93.28 363.63 93.28 C412.9 93.28 451.73 117.61 471.62 159.78 L442.78 174.28 C428.31 146.15 402.01 127.87 363.63 127.87 C310.66 127.87 261.63 172.87 198.26 172.87 C149.7 172.87 110.95 148.74 91.05 107.22 L118.12 92.72 Z " />
<glyph glyph-name="notequal" unicode="&#x2260;" horiz-adv-x="536" d="M445.11 298.36 L445.11 331.81 L356.05 331.81 L417.23 437.87 L389.55 454.8 L318.62 331.81 L91.48 331.81 L91.48 298.36 L299.33 298.36 L224.83 169.19 L91.48 169.19 L91.48 135.74 L205.54 135.74 L148.61 37.03 L176.22 20.09 L242.93 135.74 L445.11 135.74 L445.11 169.19 L262.23 169.19 L336.75 298.36 L445.11 298.36 Z " />
<glyph glyph-name="uniF8FF" unicode="&#xf8ff;" horiz-adv-x="1451" d="M691 583 C691 549 718 522 752 522 C787 522 814 549 814 583 C814 618 787 645 752 645 C718 645 691 618 691 583 L691 583 Z M219 270 C219 425 211 544 209 584 L109 584 C107 544 100 423 100 270 L219 270 Z M694 270 L812 270 C812 351 809 464 802 509 L624 509 L623 526 L504 496 L504 417 L526 417 C526 411 522 351 522 330 C522 287 550 264 604 264 C633 264 662 268 672 279 L672 353 C668 349 660 348 654 348 C647 348 641 350 639 352 L636 417 L697 417 C695 380 694 332 694 270 L694 270 Z M328 265 C376 265 395 290 403 331 L411 270 L494 270 L494 397 C494 471 455 514 370 514 C278 514 236 464 236 379 C236 301 271 265 328 265 L328 265 Z M1090 270 L1087 408 C1085 479 1069 514 1010 514 C944 514 932 450 930 433 C930 453 927 487 924 509 L844 509 C837 464 834 351 834 270 L948 270 C948 316 945 343 945 363 C945 380 947 392 963 392 C976 392 978 383 978 363 C978 343 976 316 976 270 L1090 270 Z M1351 391 C1351 454 1327 514 1230 514 C1132 514 1106 453 1106 389 C1106 313 1143 265 1228 265 C1313 265 1351 312 1351 391 L1351 391 Z M390 375 C390 356 381 345 366 345 C351 345 344 356 344 375 C344 394 351 401 366 401 C381 401 390 394 390 375 L390 375 Z M1251 375 C1251 356 1242 345 1228 345 C1214 345 1207 356 1207 375 C1207 394 1214 401 1228 401 C1242 401 1251 394 1251 375 L1251 375 Z M428 238 L428 119 C428 99 424 92 412 92 C400 92 397 98 397 119 L397 238 L220 238 L221 256 L104 227 L104 147 L122 147 C121 133 119 81 119 66 C119 18 139 -5 200 -5 C250 -5 263 6 268 10 L268 83 C266 81 261 78 250 78 C242 78 238 80 235 82 L232 147 L287 147 L287 134 C287 77 318 51 377 51 C407 51 420 58 426 62 C426 56 418 34 372 34 C329 34 308 46 302 50 L302 -33 C310 -38 331 -50 390 -50 C505 -50 542 -6 542 100 C542 153 536 217 532 238 L428 238 Z M733 243 C670 243 656 176 653 162 C653 180 648 226 646 238 L568 238 C566 210 558 126 558 -44 L677 -44 C677 -37 677 -20 676 -5 C768 -5 813 40 813 130 C813 204 782 243 733 243 L733 243 Z M1070 127 C1070 202 1027 243 954 243 C874 243 829 195 829 117 C829 38 875 -5 970 -5 C1013 -5 1038 4 1048 11 L1048 86 C1034 78 1012 74 993 74 C962 74 948 84 943 92 L1067 92 C1069 101 1070 116 1070 127 L1070 127 Z M978 109 L938 109 C938 127 947 136 961 136 C974 136 980 127 978 109 L978 109 Z M670 72 C669 75 665 85 665 101 C665 123 673 132 687 132 C699 132 707 125 707 109 C707 78 677 72 670 72 L670 72 Z M1074 13 C1074 27 1084 36 1098 36 C1112 36 1122 27 1122 13 C1122 -1 1112 -10 1098 -10 C1084 -10 1074 -1 1074 13 L1074 13 Z M1080 13 C1080 1 1087 -5 1098 -5 C1109 -5 1116 1 1116 13 C1116 25 1109 31 1098 31 C1087 31 1080 25 1080 13 L1080 13 Z M1108 2 L1102 2 L1098 11 L1093 11 L1093 2 L1088 2 L1088 25 L1099 25 C1106 25 1109 22 1109 18 C1109 13 1105 11 1102 11 L1108 2 Z M1100 15 C1103 15 1104 16 1104 18 C1104 20 1103 21 1100 21 L1093 21 L1093 15 L1100 15 Z " />
<glyph glyph-name="fi" unicode="&#xfb01;" horiz-adv-x="536" d="M433.69 468.56 L155.65 468.56 L155.65 483.4 C155.65 573.81 210.65 626.68 299.81 626.68 C348.97 626.68 383.97 609.95 415.19 584.79 L434.88 612.18 C405.8 636.72 358.25 661.13 300.48 661.13 C191.42 661.13 119.19 591.39 119.19 478.7 L119.19 468.56 L49.45 468.56 L49.45 435.11 L119.19 435.11 L119.19 -1.52588e-05 L155.65 -1.52588e-05 L155.65 435.11 L396.44 435.11 L396.44 -1.52588e-05 L433.69 -1.52588e-05 L433.69 468.56 Z " />
<glyph glyph-name="fl" unicode="&#xfb02;" horiz-adv-x="550" d="M477.52 25.25 C445.11 25.25 430.43 42.22 430.43 82.9 L430.43 614.38 C401.3 640.12 354.91 661.13 301.04 661.13 C191.65 661.13 119.19 591.39 119.19 478.7 L119.19 468.56 L49.45 468.56 L49.45 435.11 L119.19 435.11 L119.19 -1.52588e-05 L155.65 -1.52588e-05 L155.65 435.11 L299.79 435.11 L299.79 468.56 L155.65 468.56 L155.65 483.4 C155.65 573.81 210.85 626.68 300.38 626.68 C340.13 626.68 366.22 616.57 393.15 598.66 L393.15 80.12 C393.15 15.65 423.24 -7.57002 472.8 -7.57002 C496.08 -7.57002 511.7 -2.29002 518.04 -0.0900269 L518.04 32.61 C511.8 30.42 499.65 25.25 477.52 25.25 L477.52 25.25 Z " />
</font>
</svg>
