<?xml version="1.0" encoding="UTF-8"?>
<svg xmlns="http://www.w3.org/2000/svg" xmlns:xlink="http://www.w3.org/1999/xlink" version="1.2" >
<font id="Informative Sports">
<font-face  font-family="Informative" units-per-em="1000" ascent="750" descent="-250" font-style="normal" font-weight="900" font-stretch="normal" cap-height="700" x-height="400" underline-position="-75" underline-thickness="50" />
<missing-glyph  horiz-adv-x="500" d="M410 750 L93 750 L93 -250 L410 -250 L410 750 Z M333 683 L333 650 L267 650 L267 613 L333 613 L333 580 L167 580 L167 613 L233 613 L233 650 L168 650 L168 683 L333 683 Z M267 554 L267 484 L333 484 L333 450 L167 450 L167 554 L267 554 Z M233 520 L200 520 L200 484 L233 484 L233 520 Z M333 423 L333 390 L267 390 L267 320 L167 320 L167 353 L233 353 L233 390 L167 390 L167 423 L333 423 Z M333 363 L333 263 L167 263 L167 297 L300 297 L300 363 L333 363 Z M333 241 L333 128 L167 128 L167 241 L200 241 L200 161 L300 161 L300 208 L267 208 L267 185 L233 185 L233 241 L333 241 Z M333 68 L333 -45 L167 -45 L167 68 L333 68 Z M300 35 L200 35 L200 -12 L300 -12 L300 35 Z M333 -68 L333 -101 L301 -101 L231 -148 L333 -148 L333 -181 L167 -181 L167 -148 L237 -101 L167 -101 L167 -68 L333 -68 Z " />
<glyph glyph-name="NULL" d="" />
<glyph glyph-name="CR" unicode="&#xd;" horiz-adv-x="250" d="" />
<glyph glyph-name="space" unicode="&#x20;" horiz-adv-x="600" d="" />
<glyph glyph-name="exclam" unicode="&#x21;" horiz-adv-x="1000" d="M391 13 L411 13 L411 132 L589 132 L589 13 L609 13 L609 152 L567 152 C568 180 570 199 576 217 L686 284 C734 313 742 368 742 482 L638 482 L638 518 L500 572 L362 518 L362 482 L258 482 C258 368 266 313 314 284 L424 217 C430 199 432 180 433 152 L391 152 L391 13 Z M453 152 C452 183 448 208 441 230 C420 296 383 342 382 504 L500 550 L618 504 C617 342 580 296 559 230 C552 208 548 183 547 152 L453 152 Z M414 247 L326 300 C285 325 280 369 278 462 L363 462 C369 344 397 289 414 247 L414 247 Z M586 247 C603 289 631 344 637 462 L722 462 C720 369 715 325 674 300 L586 247 Z M441 41 L559 41 L559 87 L441 87 L441 41 Z M366 -100 L634 -100 L634 -12 L366 -12 L366 -100 Z M386 -80 L386 -32 L614 -32 L614 -80 L386 -80 Z " />
<glyph glyph-name="numbersign" unicode="&#x23;" horiz-adv-x="1000" d="M589 242 C622 266 645 312 645 361 C645 474 566 574 451 600 C463 495 335 469 335 361 C335 312 359 267 396 242 L326 242 L316 232 C316 212 369 149 421 134 L444 -100 L463 -100 L441 131 L539 131 L518 -100 L537 -100 L559 135 C610 151 664 213 664 232 L654 242 L589 242 Z M289 553 L289 557 L325 561 L329 599 L335 599 L339 561 L375 557 L375 553 L339 549 L335 512 L329 512 L325 549 L289 553 Z M751 533 L715 529 L711 492 L705 492 L701 529 L665 533 L665 537 L701 541 L705 579 L711 579 L715 541 L751 537 L751 533 Z M355 361 C355 446 462 476 471 574 C564 542 625 457 625 361 C625 312 599 267 565 251 C570 267 572 285 572 297 C572 353 526 412 483 430 C483 376 418 327 418 278 C418 271 419 261 422 251 C383 268 355 312 355 361 L355 361 Z M173 470 L209 474 L213 512 L219 512 L223 474 L259 470 L259 466 L223 462 L219 425 L213 425 L209 462 L173 466 L173 470 Z M850 431 L814 427 L810 390 L804 390 L800 427 L764 431 L764 435 L800 439 L804 477 L810 477 L814 439 L850 435 L850 431 Z M293 322 L257 318 L253 281 L247 281 L243 318 L207 322 L207 326 L243 330 L247 368 L253 368 L257 330 L293 326 L293 322 Z M771 312 L735 308 L731 271 L725 271 L721 308 L685 312 L685 316 L721 320 L725 358 L731 358 L735 320 L771 316 L771 312 Z M539 151 L441 151 C401 151 353 199 340 222 L640 222 C626 199 577 153 539 151 L539 151 Z " />
<glyph glyph-name="dollar" unicode="&#x24;" horiz-adv-x="1000" d="M625 564 L441 564 C410 564 387 541 387 510 L387 345 C365 341 350 326 347 300 L324 97 C322 81 323 68 329 57 L408 -100 L430 -100 L347 66 C343 73 343 82 344 95 L367 298 C369 314 375 322 387 325 L387 123 C387 95 408 73 435 73 C465 73 489 94 489 122 L489 224 C489 235 497 244 508 244 C519 244 528 235 528 224 L528 53 C551 28 569 -9 569 -37 C569 -49 569 -53 560 -100 L581 -100 C584 -82 589 -59 589 -37 C589 0 565 40 548 61 L548 163 L621 163 C633 163 642 155 642 143 C642 131 633 122 621 122 L563 122 L563 102 L622 102 C624 98 625 95 625 90 C625 73 612 60 595 60 L579 60 L589 40 L595 40 C622 40 645 63 645 90 C645 97 644 102 642 107 C654 114 662 128 662 143 C662 166 644 183 621 183 L548 183 L548 224 C548 246 530 264 508 264 C486 264 469 246 469 224 L469 122 C469 106 455 93 435 93 C419 93 407 106 407 123 L407 198 L454 198 L454 218 L407 218 L407 510 C407 530 421 544 441 544 L625 544 C645 544 660 530 660 510 L660 252 C660 232 645 218 625 218 L563 218 L563 198 L625 198 C656 198 680 221 680 252 L680 510 C680 541 656 564 625 564 L625 564 Z " />
<glyph glyph-name="percent" unicode="&#x25;" horiz-adv-x="1000" d="M805 97 L587 222 L585 230 L585 278 L603 278 C618 278 631 291 631 305 L631 375 C631 424 633 479 612 510 C580 557 539 576 470 576 C381 576 329 523 329 432 L329 413 L331 390 L338 245 C339 218 359 198 384 198 L385 198 L385 93 L445 93 L590 196 L787 83 L828 -100 L848 -100 L805 97 Z M439 113 L405 113 L405 198 L476 198 L476 218 L384 218 C370 218 359 229 358 245 L352 391 L361 391 L377 387 L387 390 L389 410 L377 415 L358 413 L349 413 L349 432 C349 512 392 556 470 556 C532 556 568 540 595 499 C610 476 611 441 611 403 L611 385 L583 385 L583 365 L609 365 C610 365 612 363 612 362 L612 305 C612 302 607 298 603 298 L565 298 L565 226 L572 205 L439 113 Z M446 405 L432 408 L441 384 L512 387 L530 381 L534 394 L509 413 L446 405 Z M413 287 L424 289 L424 309 L415 309 C406 309 404 312 404 319 L404 375 L384 375 L384 313 C384 297 394 284 413 287 L413 287 Z M590 314 C595 314 599 318 599 323 L599 341 C599 346 595 350 590 350 C585 350 581 346 581 341 L581 323 C581 318 585 314 590 314 L590 314 Z M386 250 L447 250 L457 270 L386 270 L386 250 Z M210 84 L152 -100 L173 -100 L226 71 L358 135 L348 153 L210 84 Z M567 1 L557 21 L548 1 L526 -2 L542 -17 L538 -39 L557 -29 L577 -39 L573 -17 L589 -2 L567 1 Z " />
<glyph glyph-name="ampersand" unicode="&#x26;" horiz-adv-x="1000" d="M798 0 L572 134 L572 220 C581 220 604 239 604 261 L604 365 C606 373 607 408 607 418 C607 503 572 564 476 564 L373 564 C328 564 280 532 267 473 L287 339 L309 339 L309 364 L321 365 L362 372 L362 398 L321 387 L309 382 L322 438 L344 451 L427 451 C449 451 481 453 491 456 L517 377 L505 284 C488 265 459 256 438 256 L404 256 C404 249 403 243 408 237 C413 231 423 229 435 229 L435 202 C435 193 427 189 420 189 L400 189 L391 207 L373 207 L366 189 L352 189 C345 189 340 192 340 199 L340 225 L353 231 C362 235 364 252 364 257 L320 252 L317 302 L292 303 L289 142 L314 122 L417 122 C484 122 527 197 527 263 L527 316 L585 316 L585 261 C585 250 575 240 564 240 L552 240 L552 122 L372 -21 L328 96 L309 89 L206 10 L168 -100 L189 -100 L224 2 L316 70 L363 -54 L571 111 L781 -13 L810 -100 L832 -100 L798 0 Z M490 356 L483 374 L443 384 L432 399 L412 399 L410 369 L442 361 L490 356 Z M355 335 L355 293 C355 271 366 263 384 263 L395 263 L392 283 L384 283 C377 283 375 286 375 293 L375 335 L355 335 Z M565 277 L565 287 C565 292 561 296 556 296 C551 296 547 292 547 287 L547 277 C547 272 551 268 556 268 C561 268 565 272 565 277 L565 277 Z M550 -14 L540 6 L530 -14 L509 -17 L524 -32 L521 -54 L540 -44 L559 -54 L556 -32 L571 -17 L550 -14 Z " />
<glyph glyph-name="quotesingle" unicode="&#x27;" horiz-adv-x="1000" d="M821 250 C821 426 676 571 500 571 C324 571 179 426 179 250 C179 74 324 -71 500 -71 C676 -71 821 74 821 250 L821 250 Z M801 250 C801 84 666 -51 500 -51 C334 -51 199 84 199 250 C199 416 334 551 500 551 C666 551 801 416 801 250 L801 250 Z M529 395 L472 395 C466 395 462 391 462 385 L462 289 L365 289 C359 289 355 285 355 279 L354 222 C354 216 358 212 364 212 L461 212 L461 118 C461 112 465 108 471 108 L528 108 C534 108 538 112 538 118 L538 211 L635 211 C641 211 645 215 645 221 L646 278 C646 284 642 288 636 288 L539 288 L539 385 C539 391 535 395 529 395 L529 395 Z " />
<glyph glyph-name="parenleft" unicode="&#x28;" horiz-adv-x="1000" d="M762 512 L656 565 L344 565 L238 512 L367 143 C358 124 353 103 353 81 C353 0 419 -65 501 -65 C581 -65 647 0 647 81 C647 103 642 124 633 143 L762 512 Z M649 545 L625 474 L375 474 L351 545 L649 545 Z M262 502 L332 537 L444 216 C418 206 396 188 380 166 L262 502 Z M668 537 L738 502 L620 166 C604 188 582 206 557 216 L668 537 Z M462 223 L382 454 L618 454 L538 223 C526 226 514 228 501 228 C488 228 474 226 462 223 L462 223 Z M501 -45 C430 -45 373 11 373 81 C373 151 431 208 501 208 C570 208 627 150 627 81 C627 11 571 -45 501 -45 L501 -45 Z M501 168 C453 168 413 129 413 81 C413 33 452 -5 501 -5 C549 -5 587 33 587 81 C587 128 547 168 501 168 L501 168 Z M501 15 C463 15 433 44 433 81 C433 118 464 148 501 148 C536 148 567 117 567 81 C567 44 538 15 501 15 L501 15 Z " />
<glyph glyph-name="parenright" unicode="&#x29;" horiz-adv-x="1000" d="M401 240 L375 240 L375 220 L626 220 L626 240 L593 240 L722 564 L703 571 L571 240 L421 240 L500 489 L540 592 L460 592 L489 517 L414 279 L297 571 L278 564 L404 248 L401 240 Z M501 201 C419 201 353 134 353 54 C353 -27 419 -92 501 -92 C581 -92 647 -27 647 54 C647 134 581 201 501 201 L501 201 Z M501 -72 C430 -72 373 -16 373 54 C373 124 431 181 501 181 C570 181 627 123 627 54 C627 -16 571 -72 501 -72 L501 -72 Z M501 141 C453 141 413 102 413 54 C413 6 452 -32 501 -32 C549 -32 587 6 587 54 C587 101 547 141 501 141 L501 141 Z M501 -12 C463 -12 433 17 433 54 C433 91 464 121 501 121 C536 121 567 90 567 54 C567 17 538 -12 501 -12 L501 -12 Z " />
<glyph glyph-name="asterisk" unicode="&#x2a;" horiz-adv-x="1000" d="M650 373 C665 399 673 429 673 459 C673 473 671 487 670 498 L660 498 C632 561 569 603 500 603 C431 603 368 561 340 498 L330 498 C329 487 327 473 327 459 C327 426 336 398 351 382 L342 236 C340 207 362 181 388 181 L388 201 C374 201 361 217 362 234 L371 391 C357 400 347 427 347 459 C347 465 347 472 348 478 L367 478 C375 478 383 469 383 460 L383 408 L443 316 C452 302 490 287 500 287 C532 287 547 300 554 311 L617 408 L617 460 C617 469 625 478 634 478 L652 478 C653 472 653 465 653 459 C653 429 645 401 630 378 L639 234 C640 221 623 201 612 201 L612 181 C635 181 661 211 659 236 L650 373 Z M634 498 C615 498 597 481 597 460 L597 414 L549 341 C546 366 525 385 500 385 C475 385 453 364 451 340 L403 414 L403 460 C403 481 386 498 367 498 L362 498 C389 550 441 583 500 583 C559 583 611 550 638 498 L634 498 Z M500 307 C484 307 471 320 471 336 C471 352 484 365 500 365 C516 365 529 352 529 336 C529 319 517 307 500 307 L500 307 Z M407 319 L392 306 L429 264 L420 162 L439 144 L456 87 L433 17 L567 17 L544 87 L561 144 L580 162 L571 264 L608 306 L593 319 L550 270 L560 170 L543 156 L524 87 L539 37 L461 37 L476 87 L457 156 L440 170 L450 270 L407 319 Z M564 3 L575 -18 L426 -18 L437 3 L415 3 L364 -100 L636 -100 L586 3 L564 3 Z M394 -80 L416 -38 L585 -38 L606 -80 L394 -80 Z " />
<glyph glyph-name="plus" unicode="&#x2b;" horiz-adv-x="1000" d="M801 54 L562 162 L562 215 L572 215 C597 215 615 233 615 258 L615 422 C615 448 607 475 586 499 C566 521 539 538 508 549 L428 602 L397 602 L344 547 C322 533 307 517 297 501 C286 482 283 464 282 448 L274 379 L324 200 C332 170 347 152 371 146 L371 54 L408 40 L556 145 L785 40 L826 -102 L846 -102 L801 54 Z M391 145 L463 145 L463 165 L386 165 C362 165 351 177 344 204 L315 311 L315 351 L368 358 L369 383 L316 371 L325 428 C328 447 340 456 373 456 L454 456 C468 456 492 463 510 456 C519 452 530 426 529 396 L536 313 L546 313 C546 323 551 330 565 330 L595 330 L595 258 C595 245 585 235 572 235 L542 235 L542 159 L405 63 L391 68 L391 145 Z M503 372 L419 382 L421 357 L503 352 L503 372 Z M392 239 L413 241 L413 261 L397 261 C388 261 386 265 386 271 L386 313 L366 313 L366 266 C366 250 373 239 392 239 L392 239 Z M576 255 C581 255 585 259 585 264 L585 282 C585 287 581 291 576 291 C571 291 567 287 567 282 L567 264 C567 259 571 255 576 255 L576 255 Z M370 193 L420 193 L430 213 L370 213 L370 193 Z M209 58 L155 -102 L176 -102 L225 46 L330 116 L318 132 L209 58 Z M558 -16 L548 5 L539 -16 L517 -19 L533 -34 L529 -56 L548 -46 L568 -56 L564 -34 L580 -19 L558 -16 Z " />
<glyph glyph-name="comma" unicode="&#x2c;" horiz-adv-x="1000" d="M669 445 C662 531 589 600 500 600 C411 600 339 531 332 445 L281 445 L281 347 L350 347 C359 329 371 314 389 297 C419 271 439 206 439 135 L439 24 L382 24 L382 -60 L402 -60 L402 4 L479 4 L479 24 L457 24 L457 135 C457 212 435 280 403 310 C389 323 381 333 372 347 L411 347 C433 322 465 306 500 306 C536 306 568 322 589 347 L628 347 C621 335 610 322 598 310 C564 281 543 212 543 135 L543 24 L532 24 L532 4 L599 4 L599 -60 L619 -60 L619 24 L562 24 L562 135 C562 206 581 271 611 296 C625 310 640 327 650 347 L719 347 L719 445 L669 445 Z M500 581 C578 581 643 521 650 445 L618 445 C611 504 561 549 500 549 C439 549 389 504 382 445 L351 445 C358 521 422 581 500 581 L500 581 Z M598 445 L402 445 C409 493 451 529 500 529 C549 529 591 493 598 445 L598 445 Z M699 367 L301 367 L301 425 L699 425 L699 367 Z M500 326 C478 326 457 333 440 347 L561 347 C543 333 523 326 500 326 L500 326 Z M527 142 C527 157 515 169 500 169 C485 169 473 157 473 142 C473 127 485 114 500 114 C515 114 527 127 527 142 L527 142 Z M340 -100 L660 -100 L660 -80 L340 -80 L340 -100 Z " />
<glyph glyph-name="hyphen" unicode="&#x2d;" horiz-adv-x="1000" d="M698 167 L609 180 L636 570 L364 570 L390 180 L302 167 L398 70 L379 -70 L500 -5 L622 -70 L603 70 L698 167 Z M614 550 L611 500 L389 500 L386 550 L614 550 Z M391 480 L491 480 L491 295 L436 186 L410 182 L391 480 Z M564 186 L511 291 L511 480 L610 480 L591 182 L564 186 Z M500 17 L405 -34 L420 78 L344 153 L450 168 L500 269 L550 168 L656 153 L581 78 L596 -34 L500 17 Z " />
<glyph glyph-name="period" unicode="&#x2e;" horiz-adv-x="1000" d="M500 571 C323 571 179 427 179 250 C179 73 323 -71 500 -71 C676 -71 821 74 821 250 C821 426 676 571 500 571 L500 571 Z M500 551 C666 551 801 416 801 250 C801 84 666 -51 500 -51 C334 -51 199 84 199 250 C199 416 334 551 500 551 L500 551 Z M664 316 L616 364 L455 204 L384 275 L336 227 L455 108 L664 316 Z " />
<glyph glyph-name="slash" unicode="&#x2f;" horiz-adv-x="1000" d="M288 -47 C241 -47 203 -9 203 38 L203 462 C203 509 241 547 288 547 L712 547 C759 547 797 509 797 462 L797 38 C797 -9 759 -47 712 -47 L288 -47 Z M288 -27 L712 -27 C748 -27 777 2 777 38 L777 462 C777 498 748 527 712 527 L288 527 C252 527 223 498 223 462 L223 38 C223 2 252 -27 288 -27 L288 -27 Z M669 321 L460 113 L341 232 L389 280 L460 209 L621 369 L669 321 Z " />
<glyph glyph-name="zero" unicode="0" horiz-adv-x="1000" d="M757 301 L840 378 L749 521 L583 575 L500 475 L417 575 L251 521 L160 378 L244 301 L314 333 L322 141 L311 -75 L689 -75 L679 141 L687 333 L757 301 Z M248 325 L186 381 L264 504 L410 552 L500 444 L590 552 L637 536 L338 241 L333 364 L248 325 Z M668 364 L659 141 L668 -55 L332 -55 L337 51 L755 474 L814 381 L753 325 L668 364 Z " />
<glyph glyph-name="one" unicode="1" horiz-adv-x="1000" d="M757 301 L840 378 L749 521 L583 575 L500 475 L417 575 L251 521 L160 378 L244 301 L314 333 L322 141 L311 -75 L689 -75 L679 141 L687 333 L757 301 Z M668 364 L665 292 L336 292 L333 364 L248 325 L186 381 L264 504 L410 552 L500 444 L590 552 L736 504 L814 381 L753 325 L668 364 Z M332 -55 L342 134 L659 134 L668 -55 L332 -55 Z " />
<glyph glyph-name="two" unicode="2" horiz-adv-x="1000" d="M757 301 L840 378 L749 521 L583 575 L500 475 L417 575 L251 521 L160 378 L244 301 L314 333 L322 141 L311 -75 L689 -75 L679 141 L687 333 L757 301 Z M500 444 L590 552 L636 537 L500 313 L362 536 L410 552 L500 444 Z M668 364 L659 141 L668 -55 L332 -55 L342 141 L333 364 L248 325 L186 381 L264 504 L287 511 L500 159 L714 511 L736 504 L814 381 L753 325 L668 364 Z " />
<glyph glyph-name="three" unicode="3" horiz-adv-x="1000" d="M500 475 L417 575 L268 526 L277 469 L417 469 L381 515 L403 524 L500 407 L597 524 L618 515 L582 469 L723 469 L732 526 L583 575 L500 475 Z M160 378 L244 301 L277 317 L251 511 L160 378 Z M749 511 L723 317 L757 301 L840 378 L749 511 Z M521 379 L500 353 L479 379 L302 379 L315 290 L321 110 L311 -75 L689 -75 L679 110 L685 290 L698 379 L521 379 Z M661 201 L339 201 L335 290 L665 290 L661 201 Z M336 20 L341 110 L659 110 L663 20 L336 20 Z " />
<glyph glyph-name="four" unicode="4" horiz-adv-x="1000" d="M756 301 L840 378 L732 527 L583 575 L500 475 L417 575 L268 527 L160 378 L244 301 L314 333 L322 141 L311 -75 L689 -75 L679 141 L687 333 L756 301 Z M334 336 L292 514 L403 550 L403 -55 L332 -55 L342 141 L334 336 Z M667 336 L659 141 L668 -55 L595 -55 L595 550 L708 514 L667 336 Z M246 324 L189 383 L274 504 L309 355 L246 324 Z M811 383 L754 324 L692 355 L726 502 L811 383 Z " />
<glyph glyph-name="five" unicode="5" horiz-adv-x="1000" d="M756 301 L840 378 L732 527 L583 575 L500 475 L417 575 L268 527 L160 378 L244 301 L314 333 L322 141 L311 -75 L689 -75 L679 141 L687 333 L756 301 Z M334 336 L292 514 L373 540 L373 -55 L332 -55 L342 141 L334 336 Z M667 336 L659 141 L668 -55 L627 -55 L627 540 L708 514 L667 336 Z M426 533 L474 475 L474 -55 L426 -55 L426 533 Z M526 475 L574 533 L574 -55 L526 -55 L526 475 Z M246 324 L189 383 L274 504 L309 355 L246 324 Z M811 383 L754 324 L692 355 L726 502 L811 383 Z " />
<glyph glyph-name="six" unicode="6" horiz-adv-x="1000" d="M756 301 L840 378 L732 527 L583 575 L500 475 L417 575 L268 527 L160 378 L244 301 L314 333 L322 141 L311 -75 L689 -75 L679 141 L687 333 L756 301 Z M334 336 L292 514 L383 543 L383 -55 L332 -55 L342 141 L334 336 Z M668 -55 L617 -55 L617 543 L708 514 L667 336 L659 141 L668 -55 Z M246 324 L189 383 L274 504 L309 355 L246 324 Z M811 383 L754 324 L692 355 L726 502 L811 383 Z M542 494 L542 -55 L458 -55 L458 494 L500 444 L542 494 Z " />
<glyph glyph-name="seven" unicode="7" horiz-adv-x="1000" d="M757 301 L840 378 L749 521 L583 575 L500 475 L417 575 L251 521 L160 378 L244 301 L314 333 L322 141 L311 -75 L689 -75 L679 141 L687 333 L757 301 Z M500 444 L590 552 L736 504 L814 381 L753 325 L668 364 L664 258 L367 538 L410 552 L500 444 Z M332 -55 L342 141 L333 364 L248 325 L186 381 L245 474 L662 72 L668 -55 L332 -55 Z " />
<glyph glyph-name="eight" unicode="8" horiz-adv-x="1000" d="M757 301 L840 378 L749 521 L583 575 L500 475 L417 575 L251 521 L160 378 L244 301 L314 333 L322 141 L311 -75 L689 -75 L679 141 L687 333 L757 301 Z M668 364 L659 141 L668 -55 L618 -55 L610 141 L619 303 L619 324 C609 302 586 287 560 287 C533 287 511 302 500 324 L500 -55 L332 -55 L342 141 L333 364 L248 325 L186 381 L264 504 L410 552 L500 444 L500 382 C511 404 533 420 560 420 C586 420 609 404 619 382 L619 542 L736 504 L814 381 L753 325 L668 364 Z M560 383 C543 383 530 370 530 353 C530 337 543 323 560 323 C576 323 590 337 590 353 C590 370 576 383 560 383 L560 383 Z " />
<glyph glyph-name="nine" unicode="9" horiz-adv-x="1000" d="M757 301 L840 378 L749 521 L583 575 L500 475 L417 575 L251 521 L160 378 L244 301 L314 333 L322 141 L311 -75 L689 -75 L679 141 L687 333 L757 301 Z M753 325 L668 364 L659 141 L668 -55 L332 -55 L342 141 L333 364 L248 325 L186 381 L264 504 L410 552 L500 444 L590 552 L736 504 L814 381 L753 325 Z M618 353 C618 370 604 383 588 383 C571 383 558 370 558 353 C558 337 571 323 588 323 C604 323 618 337 618 353 L618 353 Z " />
<glyph glyph-name="colon" unicode="&#x3a;" horiz-adv-x="1000" d="M580 181 C662 214 723 303 723 402 C723 497 695 551 610 609 L390 609 C317 561 276 488 276 401 C276 309 335 216 419 182 L428 200 C408 208 387 221 375 231 L439 342 C448 328 452 325 452 315 C452 304 442 288 445 232 L471 63 L443 10 L426 10 L426 -100 L574 -100 L574 10 L557 10 L529 63 L553 233 C558 303 548 304 548 315 C548 325 551 328 561 341 L625 231 C613 221 592 209 573 200 L580 181 Z M430 591 L570 591 L590 581 L555 531 C549 522 518 515 500 515 C481 515 453 520 446 530 L410 581 L430 591 Z M349 547 C360 559 372 571 385 581 L428 520 L403 515 L349 547 Z M651 547 L597 515 L572 520 L615 581 C628 571 640 559 651 547 L651 547 Z M336 531 L389 499 L385 455 L303 455 C309 483 321 508 336 531 L336 531 Z M664 531 C679 508 691 483 697 455 L613 455 L612 467 L609 498 L664 531 Z M546 474 L546 459 C538 477 521 489 500 489 C477 489 458 474 452 453 L452 474 C452 487 448 497 441 504 L446 506 C459 499 479 495 500 495 C518 495 538 499 553 506 L558 504 C550 497 546 487 546 474 L546 474 Z M540 351 C534 340 528 327 528 315 C528 304 535 304 535 277 L465 277 C465 304 472 304 472 315 C472 327 466 338 460 351 L400 392 L410 495 C425 495 432 489 432 474 L432 408 L460 390 L540 390 L566 408 L566 474 C566 488 573 495 589 495 L600 392 L540 351 Z M470 439 C470 456 484 469 500 469 C516 469 530 456 530 439 C530 423 516 410 500 410 C484 410 470 423 470 439 L470 439 Z M299 435 L383 435 L379 382 L306 338 C299 360 294 396 299 435 L299 435 Z M694 338 L621 382 L616 435 L701 435 C706 396 701 360 694 338 L694 338 Z M313 319 L398 369 L421 353 L360 246 C339 266 325 292 313 319 L313 319 Z M640 246 L578 352 L602 369 L687 319 C675 292 661 266 640 246 L640 246 Z M533 234 L512 81 C510 69 512 57 518 47 L537 10 L463 10 L482 46 C488 57 490 68 488 81 L465 233 L466 257 L534 257 L533 234 Z M554 -80 L446 -80 L446 -10 L554 -10 L554 -80 Z " />
<glyph glyph-name="semicolon" unicode="&#x3b;" horiz-adv-x="1000" d="M500 571 C323 571 179 427 179 250 C179 73 323 -71 500 -71 C676 -71 821 74 821 250 C821 426 676 571 500 571 L500 571 Z M500 551 C666 551 801 416 801 250 C801 84 666 -51 500 -51 C334 -51 199 84 199 250 C199 416 334 551 500 551 L500 551 Z M341 279 L341 222 C341 216 345 212 351 212 L649 211 C655 211 659 215 659 221 L659 278 C659 284 655 288 649 288 L351 289 C345 289 341 285 341 279 L341 279 Z " />
<glyph glyph-name="equal" unicode="&#x3d;" horiz-adv-x="1000" d="M796 253 L761 253 C726 304 669 335 607 335 C575 335 544 326 511 308 L378 233 L409 179 L391 152 L358 149 L327 203 L150 99 L233 -10 L380 37 C413 48 437 47 464 31 C500 -11 552 -35 607 -35 C707 -35 789 45 792 145 L796 145 C827 145 850 168 850 199 C850 230 827 253 796 253 L796 253 Z M796 165 L770 165 C771 161 772 154 772 150 C772 58 699 -15 607 -15 C556 -15 509 8 478 47 C443 67 413 68 374 56 L241 14 L180 93 L319 175 L346 129 L401 132 L433 177 L406 225 L521 290 C551 307 579 315 607 315 C666 315 719 284 750 233 L796 233 C816 233 830 218 830 199 C830 179 816 165 796 165 L796 165 Z M607 270 C541 270 487 216 487 150 C487 84 541 30 607 30 C673 30 727 84 727 150 C727 216 673 270 607 270 L607 270 Z M607 50 C551 50 507 94 507 150 C507 206 551 250 607 250 C663 250 707 206 707 150 C707 94 663 50 607 50 L607 50 Z M796 214 L758 214 C762 204 765 195 767 184 L796 184 C804 184 811 189 811 199 C811 209 804 214 796 214 L796 214 Z " />
<glyph glyph-name="question" unicode="&#x3f;" horiz-adv-x="1000" d="M500 571 C323 571 179 427 179 250 C179 73 323 -71 500 -71 C676 -71 821 74 821 250 C821 427 677 571 500 571 L500 571 Z M500 551 C666 551 801 416 801 250 C801 84 666 -51 500 -51 C334 -51 199 84 199 250 C199 417 333 551 500 551 L500 551 Z M563 138 L500 201 L441 141 L391 190 L451 250 L388 313 L438 362 L500 300 L562 361 L612 312 L550 250 L612 188 L563 138 Z " />
<glyph glyph-name="at" unicode="&#x40;" horiz-adv-x="1000" d="M768 64 L659 124 C690 128 725 145 735 177 C700 177 680 178 666 213 L687 213 C710 213 717 222 720 240 C692 240 654 265 654 343 C654 393 643 536 568 536 C543 562 505 570 469 570 C417 570 383 560 376 551 C307 530 291 467 303 383 L301 237 L254 185 L293 184 L249 96 L261 89 L322 126 L322 92 L232 44 L185 -100 L204 -100 L248 30 L351 86 L407 42 L559 156 L751 50 L794 -100 L815 -100 L768 64 Z M407 67 L364 100 L388 143 L464 155 L464 175 L399 175 C381 175 341 245 336 282 L337 360 L384 365 L386 388 L336 384 L336 404 L388 411 C412 417 421 431 427 450 L456 453 L456 433 C456 420 461 406 469 392 L435 392 L426 379 L445 364 L487 364 C503 348 505 344 523 344 C543 344 557 326 557 306 L557 180 L407 67 Z M419 250 L419 272 L413 272 C403 272 401 276 401 283 L401 328 L381 328 L381 277 C381 261 395 250 406 250 L419 250 Z M393 209 L448 207 L448 227 L393 227 L393 209 Z M497 -13 L487 7 L477 -13 L456 -16 L471 -31 L468 -53 L487 -43 L507 -53 L504 -31 L519 -16 L497 -13 Z " />
<glyph glyph-name="A" unicode="A" horiz-adv-x="1000" d="M850 600 L697 600 L697 580 L850 580 L850 600 Z M676 351 C666 351 654 348 642 342 L533 357 L451 449 L458 445 C482 433 509 440 526 464 L559 511 C562 546 518 588 486 588 C467 588 448 577 438 559 L403 494 C400 495 397 496 393 496 L250 494 C234 494 221 487 215 477 L153 374 C148 365 145 356 157 348 L185 328 L257 406 L368 392 L371 412 L249 428 L183 354 L171 364 L232 464 C236 470 241 475 250 475 L384 477 C394 477 403 473 409 466 L523 339 L646 322 C657 328 667 331 676 331 C707 331 731 307 731 276 C731 246 707 222 676 222 C646 222 622 246 622 276 C622 282 623 288 624 293 L615 306 L523 305 C516 305 507 307 504 310 L453 349 L371 254 L478 151 C486 143 492 137 493 129 L509 -68 C510 -77 507 -80 503 -80 L476 -80 L442 110 L360 170 L366 196 L348 202 L313 68 C311 60 307 56 303 52 L193 -42 C191 -44 186 -43 185 -42 L174 -26 L280 109 L280 259 C280 302 295 336 332 374 L305 375 C274 338 260 302 260 259 L260 115 L150 -24 L167 -52 C174 -63 193 -67 204 -58 L315 36 C323 43 330 51 333 62 L355 149 L424 100 L458 -100 L503 -100 C520 -100 531 -87 529 -66 L513 133 C512 149 500 160 493 166 L399 256 L455 321 L492 294 C499 289 511 285 523 285 L603 286 C602 283 602 279 602 276 C602 235 635 202 676 202 C718 202 751 235 751 276 C751 317 717 351 676 351 L676 351 Z M456 549 C462 561 474 568 486 568 C504 568 536 541 539 517 L510 476 C498 460 482 455 466 463 L422 485 L456 549 Z M831 559 L809 475 L785 560 L769 560 L745 474 L722 560 L702 554 L730 448 L759 448 L777 513 L794 451 L824 451 L851 553 L831 559 Z " />
<glyph glyph-name="B" unicode="B" horiz-adv-x="1000" d="M476 383 C440 403 399 423 348 423 L297 423 L223 517 C212 531 197 536 185 528 L150 506 L227 378 C235 365 256 353 275 349 L387 326 L377 349 L279 369 C265 372 249 381 245 388 L178 500 L192 510 C197 513 202 511 207 505 L287 403 L348 403 C397 403 434 383 470 363 L597 361 L720 391 L720 411 L595 381 L476 383 Z M444 423 L463 416 L501 522 L482 529 L464 480 L432 492 L425 473 L458 461 L444 423 Z M547 448 C556 475 551 501 523 517 L483 409 C517 395 536 416 547 448 L547 448 Z M762 398 L762 423 L740 433 L740 344 L762 353 L762 376 L850 376 L850 398 L762 398 Z M462 315 L422 195 L534 185 C553 183 565 171 566 150 L579 -70 C579 -74 573 -80 568 -80 L549 -80 L509 119 L398 124 L413 149 L405 175 L330 47 C321 32 301 14 285 7 L176 -40 C172 -42 170 -39 170 -36 L170 -13 L294 86 L325 227 L343 314 L323 318 L305 231 L276 98 L150 -3 L150 -47 C150 -62 159 -68 173 -62 L293 -11 C313 -3 337 18 348 37 L387 104 L493 99 L533 -100 L568 -100 C586 -100 600 -84 599 -68 L586 152 C584 182 565 202 536 205 L450 213 L476 297 L608 306 L720 349 L720 372 L604 326 L462 315 Z " />
<glyph glyph-name="C" unicode="C" horiz-adv-x="1000" d="M747 399 L760 445 C785 457 799 491 799 520 C799 564 772 600 738 600 C704 600 678 564 678 520 C678 486 694 457 716 445 L727 399 L727 380 L642 376 L554 451 L576 451 C598 451 620 471 622 496 L624 551 C614 579 574 584 554 584 C528 584 506 566 507 539 L507 471 C478 478 440 464 430 443 L371 323 C357 294 356 267 368 242 L316 101 L200 7 L223 -23 C230 -32 242 -34 254 -28 L379 39 C389 45 393 51 398 61 L444 152 L491 101 L491 -100 L531 -100 C545 -100 556 -92 558 -79 L585 117 C587 129 582 141 575 151 L496 263 L526 325 L508 334 L472 261 L559 139 C563 133 566 127 565 120 L537 -80 L511 -80 L511 109 L402 228 C377 256 372 281 389 315 L448 435 C454 448 488 458 507 451 L535 441 L636 356 L727 360 L727 332 L629 319 C623 318 615 320 610 323 L500 384 L490 367 L600 305 C609 300 621 298 631 299 L728 310 C739 311 747 317 747 327 L747 399 Z M698 520 C698 553 716 580 738 580 C761 580 779 553 779 520 C779 486 761 460 738 460 C716 460 698 486 698 520 L698 520 Z M527 471 L527 539 C526 555 538 564 552 564 C571 564 598 560 604 547 L602 497 C601 483 588 471 576 471 L527 471 Z M738 419 L731 440 L747 440 L738 419 Z M772 245 C757 245 745 233 745 218 C745 202 757 190 772 190 C788 190 800 202 800 218 C800 233 788 245 772 245 L772 245 Z M381 222 L431 167 L380 68 C377 63 376 61 369 57 L239 -12 L228 3 L334 91 L381 222 Z " />
<glyph glyph-name="D" unicode="D" horiz-adv-x="1000" d="M728 284 L670 454 L622 511 L564 561 C556 568 543 572 530 572 L408 572 C395 572 386 560 389 546 L395 518 L520 505 L597 398 L619 402 L532 525 L411 536 L408 552 L530 552 C539 552 548 549 552 545 L608 497 L652 444 L714 264 L830 264 L830 253 L696 222 C690 221 685 223 683 228 L650 303 L608 309 L535 287 L585 121 C587 113 588 104 585 98 L527 -30 L505 -30 L545 113 L462 289 C445 326 457 370 486 379 L567 405 L555 422 L480 399 C441 387 423 336 440 291 L376 227 L282 283 L233 253 L352 138 C364 127 387 126 401 137 L483 197 L523 111 L479 -50 L541 -50 L603 90 C607 100 608 114 604 127 L559 273 L610 289 L636 285 L665 220 C671 207 685 199 700 202 L850 237 L850 284 L728 284 Z M721 361 C727 342 752 326 776 326 C811 326 836 353 836 389 C836 430 791 471 734 471 C701 471 689 461 698 434 L721 361 Z M732 452 C779 452 816 419 816 389 C816 364 799 346 776 346 C761 346 744 356 740 367 L716 440 C714 445 716 452 732 452 L732 452 Z M234 313 L150 263 L166 237 L276 302 C268 317 249 322 234 313 L234 313 Z M389 153 C383 148 370 148 366 152 L265 249 L282 260 L380 203 L448 271 L474 216 L389 153 Z M493 -100 L609 -100 L609 -70 L463 -70 C463 -87 476 -100 493 -100 L493 -100 Z " />
<glyph glyph-name="E" unicode="E" horiz-adv-x="1000" d="M496 379 C496 277 453 225 375 225 C328 225 272 272 221 365 C215 375 213 384 214 392 L229 495 C230 504 237 510 244 509 L321 500 C339 498 365 492 377 487 L495 438 L602 442 L602 462 L499 458 L441 482 C461 483 478 501 479 522 L481 571 C472 596 437 600 419 600 C396 600 377 581 377 557 L377 508 C362 513 340 518 323 520 L239 530 C224 532 212 521 210 504 L194 394 C192 382 196 368 203 355 C256 258 316 208 371 205 L410 -100 L459 -100 C472 -100 479 -94 479 -80 L471 241 C501 272 516 316 516 379 L516 424 L496 424 L496 379 Z M804 379 C802 470 774 593 712 593 C657 593 632 481 632 395 C632 288 664 161 724 161 C784 161 806 293 804 379 L804 379 Z M397 557 C397 570 406 580 417 580 C434 580 454 576 461 567 L459 522 C459 511 449 502 438 502 L397 502 L397 557 Z M724 177 C682 177 641 306 649 401 L736 463 C748 471 748 488 741 497 L724 521 L656 477 C668 538 690 577 713 577 C759 577 784 453 787 379 C792 261 757 177 724 177 L724 177 Z M655 455 L720 495 L727 481 L678 445 L655 455 Z M255 489 L257 379 L357 300 C372 288 390 297 390 318 L390 353 L381 436 L340 465 L255 489 Z M370 355 L369 316 L277 389 L276 462 L331 447 L362 425 L370 355 Z M534 396 L534 375 L605 393 L599 413 L534 396 Z M453 -80 L426 -80 L391 206 C413 208 433 214 450 225 L458 -75 C458 -79 456 -80 453 -80 L453 -80 Z " />
<glyph glyph-name="F" unicode="F" horiz-adv-x="1000" d="M643 326 L566 361 C560 372 550 381 537 386 C558 386 577 404 578 426 L580 474 C571 499 536 504 518 504 C495 504 476 487 476 463 L476 411 L411 437 L375 514 C385 524 391 538 391 554 C391 584 366 609 336 609 C306 609 281 584 281 554 C281 536 290 519 304 509 L344 411 C350 396 358 388 372 378 L436 334 L441 206 C442 175 453 161 487 143 L291 117 L278 90 C270 74 285 57 305 57 L430 57 L346 -64 L356 -91 C360 -103 369 -110 381 -110 C392 -110 404 -104 413 -95 L557 57 C600 57 625 100 605 134 L559 212 L573 318 C574 324 574 330 573 335 L631 310 L694 246 L689 237 L625 280 L586 291 L584 271 L617 262 L671 224 C684 214 701 217 708 230 L718 250 L643 326 Z M301 554 C301 574 316 589 336 589 C356 589 371 574 371 554 C371 534 355 518 336 518 C317 518 301 534 301 554 L301 554 Z M587 124 C599 103 584 77 557 77 L305 77 C299 77 295 80 296 82 L305 99 L518 128 L556 109 L560 129 L497 160 C468 174 462 182 461 206 L456 344 L384 394 C372 402 366 408 362 419 L330 498 L336 498 C344 498 352 500 359 503 L397 421 L529 368 C547 361 556 343 553 320 L539 208 L587 124 Z M496 463 C496 476 505 484 516 484 C533 484 553 479 560 470 L558 426 C558 415 548 406 537 406 L496 406 L496 463 Z M399 -81 C394 -86 386 -90 381 -90 C377 -90 375 -89 374 -85 L368 -68 L454 57 L530 57 L399 -81 Z " />
<glyph glyph-name="G" unicode="G" horiz-adv-x="1000" d="M209 35 C175 31 150 4 150 -32 C150 -72 179 -100 218 -100 C258 -100 286 -72 286 -32 C286 2 264 29 232 35 L232 601 L209 600 L209 35 Z M331 399 C358 399 385 422 385 450 L385 516 C373 547 331 552 306 552 C277 552 253 529 253 499 L253 399 L331 399 Z M306 532 C328 532 357 527 365 512 L365 450 C365 433 347 419 331 419 L273 419 L273 499 C273 518 289 532 306 532 L306 532 Z M830 68 L331 -22 L305 -22 L305 -42 L333 -42 L850 52 L850 102 C850 115 840 124 827 123 L595 113 L396 113 C370 113 345 131 345 156 C345 178 361 270 361 279 C361 336 326 372 272 372 L252 372 L252 352 L272 352 C314 352 340 324 340 278 C340 256 326 173 326 156 C326 120 358 93 396 93 L596 93 L821 103 C826 103 830 100 830 95 L830 68 Z M312 301 L292 305 L249 51 C255 49 262 45 268 41 L312 301 Z M218 -81 C190 -81 170 -61 170 -32 C170 -4 190 17 218 17 C247 17 267 -4 267 -32 C267 -61 247 -81 218 -81 L218 -81 Z " />
<glyph glyph-name="H" unicode="H" horiz-adv-x="1000" d="M211 14 L354 121 C365 129 372 141 374 155 L394 272 L376 280 L354 158 C352 149 349 142 342 137 L218 44 L205 69 L296 190 L297 322 C298 391 328 435 403 478 C480 523 537 511 598 444 L632 344 L638 236 L632 231 L621 241 L610 277 L589 367 L543 426 L448 371 L427 326 L543 189 C552 179 556 169 556 157 L555 -29 L525 -29 L493 153 L409 248 L409 219 L475 143 L508 -49 L575 -49 L576 157 C576 174 569 188 558 202 L451 330 L459 348 L501 306 C510 297 525 293 537 301 L540 303 L624 210 C629 205 634 203 640 208 L659 222 L652 348 L624 428 C642 423 663 430 676 445 L720 493 C731 525 700 555 683 572 C673 582 662 586 648 586 C633 586 617 579 608 567 L560 507 C511 536 455 532 393 496 C312 449 278 398 277 322 L276 196 L182 71 L211 14 Z M661 458 C649 445 630 444 617 455 C604 472 590 486 576 496 L623 554 C630 562 639 566 648 566 C657 566 663 564 669 558 C685 542 706 522 702 503 L661 458 Z M571 359 L585 308 L567 331 L519 389 L535 398 L571 359 Z M515 319 L473 362 L501 378 L542 328 L527 317 C523 314 518 315 515 319 L515 319 Z M758 172 C774 172 786 184 786 200 C786 215 774 227 758 227 C743 227 731 215 731 200 C731 184 743 172 758 172 L758 172 Z M671 201 L648 186 L739 83 C748 72 763 67 776 67 C791 67 805 72 816 83 L848 116 L829 135 L797 102 C792 96 783 94 776 94 C769 94 763 97 758 102 L671 201 Z M170 50 L233 -82 L205 -95 L159 0 C156 5 153 17 153 24 C153 34 160 45 170 50 L170 50 Z M640 -100 L525 -100 C508 -100 494 -86 494 -69 L640 -69 L640 -100 Z " />
<glyph glyph-name="I" unicode="I" horiz-adv-x="1000" d="M652 509 L660 564 C652 591 614 600 594 600 C570 600 546 586 544 560 L536 475 L604 469 C626 467 648 485 652 509 L652 509 Z M564 558 C565 572 578 580 590 580 C610 580 632 573 640 561 L632 511 C630 499 618 488 606 489 L558 493 L564 558 Z M710 172 L546 257 L461 85 L436 54 L291 -76 L281 -62 L399 91 C449 156 460 228 463 283 L469 405 L390 414 L399 310 L384 308 C382 308 379 309 378 313 L351 435 C348 445 354 453 364 453 L490 450 L580 425 C589 423 592 420 593 414 L615 317 L698 391 L709 385 C715 382 716 375 711 369 L632 279 C621 266 601 267 596 276 L555 337 L538 326 L575 270 C591 246 626 244 647 267 L726 356 C740 372 735 394 718 403 L695 415 L627 354 L613 418 C610 431 600 441 586 445 L492 470 L364 473 C340 474 326 453 331 429 L358 307 C361 294 372 287 384 288 L419 292 L412 392 L449 387 L443 285 C440 230 430 163 383 103 L257 -60 L272 -87 C278 -98 294 -101 303 -92 L450 40 L479 76 L515 149 L594 121 L519 30 L535 5 C541 -4 555 -8 566 0 L716 105 C744 124 741 156 710 172 L710 172 Z M704 121 L552 15 L543 28 L615 113 L640 105 L656 121 L523 167 L554 229 L701 154 C718 145 719 132 704 121 L704 121 Z " />
<glyph glyph-name="J" unicode="J" horiz-adv-x="1000" d="M653 138 L594 156 L602 184 C614 225 613 259 585 284 L555 310 L543 375 L527 433 L507 427 L523 370 L537 300 L571 269 C592 249 596 227 584 191 L574 163 L565 166 L548 151 L647 119 C657 116 664 104 663 90 L655 -80 L632 -80 L617 77 L517 77 C471 77 449 123 468 173 L497 251 L477 440 C519 442 553 477 553 520 C553 564 517 600 473 600 C429 600 393 564 393 520 C393 481 421 449 458 441 L477 253 L450 181 C441 157 440 133 445 113 L409 -7 L294 -53 L317 -100 L444 -79 C463 -76 471 -63 483 -43 L544 57 L599 57 L614 -100 L649 -100 C662 -100 675 -90 676 -77 L683 89 C684 112 672 132 653 138 L653 138 Z M473 460 C439 460 413 486 413 520 C413 554 439 580 473 580 C507 580 533 554 533 520 C533 486 507 460 473 460 L473 460 Z M473 550 C456 550 443 537 443 520 C443 503 456 490 473 490 C490 490 503 503 503 520 C503 537 490 550 473 550 L473 550 Z M639 431 C616 431 595 413 592 390 L581 308 L642 301 C665 298 688 313 694 338 L706 385 C700 411 668 431 639 431 L639 431 Z M674 344 C670 328 658 319 644 321 L603 326 L612 387 C614 401 625 411 639 411 C656 411 678 399 685 384 L674 344 Z M465 -33 C454 -52 448 -57 439 -59 L329 -78 L322 -63 L427 -21 L458 86 C472 68 493 57 519 57 L465 -33 Z " />
<glyph glyph-name="K" unicode="K" horiz-adv-x="1000" d="M714 262 L705 262 L626 360 L627 381 C636 365 655 355 674 355 C708 355 736 381 736 414 C736 467 681 489 620 489 C605 489 595 486 589 480 C572 492 548 490 513 479 L366 431 C326 418 316 349 350 328 L458 257 L443 193 L462 193 L482 265 L360 344 C341 357 348 404 372 411 L519 459 C562 474 576 471 590 447 L606 418 L606 352 L681 258 C673 256 666 254 659 251 L608 304 L552 406 L531 406 L546 377 L461 365 C448 363 444 349 454 341 L521 284 C525 280 525 277 521 270 L475 190 L487 160 L609 273 L620 262 L463 116 L418 116 C419 121 419 126 419 131 C419 165 406 196 385 220 L423 260 L409 275 L369 235 C346 252 318 262 287 262 C214 263 155 205 155 131 C155 57 214 -1 287 0 C348 -1 399 40 414 96 L471 96 L633 248 L640 241 C605 217 582 177 582 131 C582 57 641 -1 714 0 C787 -1 846 57 846 131 C846 205 787 263 714 262 L714 262 Z M620 469 C666 469 716 454 716 414 C716 392 697 375 674 375 C662 375 650 381 645 391 L605 463 C603 468 606 469 620 469 L620 469 Z M556 359 L576 323 L503 323 L474 347 L556 359 Z M507 205 L539 260 C550 279 544 293 527 303 L586 303 L595 287 L507 205 Z M287 20 C225 19 175 68 175 131 C175 194 225 243 287 242 C349 243 399 194 399 131 C399 68 349 19 287 20 L287 20 Z M714 20 C652 21 602 68 602 131 C602 194 652 243 714 242 C776 241 826 194 826 131 C826 68 776 19 714 20 L714 20 Z " />
<glyph glyph-name="L" unicode="L" horiz-adv-x="1000" d="M784 594 C770 596 761 592 759 584 L715 364 L621 396 L530 458 C566 458 596 479 596 504 L596 519 L637 519 L637 539 L604 539 C598 567 571 592 542 592 C513 592 489 568 485 539 L485 519 L576 519 L576 504 C576 490 552 478 534 478 L501 478 L492 484 C464 503 419 494 401 468 L310 335 C301 321 295 307 295 293 C295 278 299 263 310 250 L267 132 L150 60 L167 28 C175 18 185 15 197 20 L313 64 C323 68 330 74 335 82 L382 160 L425 106 L413 -100 L455 -100 C473 -100 484 -89 487 -71 L515 114 C517 127 515 141 509 150 L439 266 L494 350 L476 358 L415 266 L492 139 C495 134 496 125 495 117 L467 -69 C466 -77 463 -80 455 -80 L435 -80 L445 112 L326 262 C318 272 316 282 316 293 C316 303 319 313 326 323 L417 456 C429 474 462 480 480 468 L611 378 L711 343 L722 339 L716 316 L582 350 L450 413 L447 395 L574 332 L711 296 C725 292 735 301 737 311 L799 572 C801 582 795 592 784 594 L784 594 Z M504 539 C508 557 524 572 542 572 C561 572 578 556 583 539 L504 539 Z M823 445 C807 445 795 433 795 418 C795 402 807 390 823 390 C838 390 850 402 850 418 C850 433 838 445 823 445 L823 445 Z M325 232 L367 179 L318 91 C316 88 312 85 305 82 L186 36 L176 52 L283 118 L325 232 Z " />
<glyph glyph-name="M" unicode="M" horiz-adv-x="1000" d="M556 580 C579 580 602 561 608 539 L562 553 C543 559 527 544 527 523 C527 512 533 503 544 496 L571 480 C561 477 551 477 541 479 L537 459 C563 453 592 462 609 482 L554 513 C549 516 547 519 547 523 C547 531 552 534 557 533 L660 503 L658 524 L631 532 C621 570 594 600 556 600 C525 600 499 580 486 548 L504 540 C515 566 533 580 556 580 L556 580 Z M277 -24 C346 -24 401 30 401 98 C401 103 401 108 400 113 L495 145 L625 380 L649 368 C621 345 603 311 603 272 C603 204 658 150 726 150 C795 150 850 204 850 272 C850 340 794 396 726 396 C705 396 685 391 668 381 L499 462 L438 549 C308 552 196 457 196 344 C196 297 228 272 278 275 L413 284 L460 154 L396 134 C380 185 333 222 277 222 C209 222 154 166 154 98 C154 30 209 -24 277 -24 L277 -24 Z M425 304 L276 295 C237 293 216 309 216 344 C216 442 313 526 428 529 L488 445 L571 405 L460 322 L504 201 L480 160 L425 304 Z M501 399 L465 411 C454 414 449 417 442 428 L414 470 L398 458 L408 443 L318 347 L456 347 L503 374 C515 381 514 395 501 399 L501 399 Z M450 367 L364 367 L419 426 L426 416 C435 403 443 398 459 392 L482 384 L450 367 Z M516 223 L484 313 L592 396 L609 387 L516 223 Z M830 272 C830 215 784 170 726 170 C669 170 623 215 623 272 C623 329 669 376 726 376 C783 376 830 329 830 272 L830 272 Z M726 190 C773 190 810 226 810 272 C810 318 773 356 726 356 C680 356 643 318 643 272 C643 226 680 190 726 190 L726 190 Z M726 336 C762 336 790 308 790 272 C790 237 763 210 726 210 C691 210 663 237 663 272 C663 307 691 336 726 336 L726 336 Z M277 202 C334 202 381 155 381 98 C381 41 335 -4 277 -4 C220 -4 174 41 174 98 C174 155 220 202 277 202 L277 202 Z M278 16 C324 16 361 54 361 100 C361 145 324 182 278 182 C231 182 194 145 194 100 C194 54 231 16 278 16 L278 16 Z M278 162 C313 162 341 134 341 100 C341 65 313 36 278 36 C242 36 214 64 214 100 C214 134 242 162 278 162 L278 162 Z M150 -101 L850 -101 L850 -81 L150 -81 L150 -101 Z " />
<glyph glyph-name="N" unicode="N" horiz-adv-x="1000" d="M698 478 L730 522 C732 555 694 598 659 598 C641 598 622 586 613 569 L571 490 L632 460 C656 448 681 454 698 478 L698 478 Z M631 560 C637 570 649 576 661 576 C686 576 708 550 710 528 L682 489 C671 473 656 470 642 477 L599 499 L631 560 Z M792 266 L790 303 L736 327 L616 354 L596 431 C590 453 552 490 530 495 L486 505 L363 495 L274 374 C267 364 272 352 283 349 L315 340 L397 410 L439 408 L404 325 C390 291 385 261 392 236 L326 153 L205 198 L194 148 C191 134 197 122 211 116 L331 63 C349 55 371 61 387 77 L459 149 L534 64 L569 -100 L602 -96 C638 -92 638 -61 636 -45 L617 91 C616 100 614 109 608 118 L520 258 L533 297 L520 323 L498 256 L591 108 C595 102 596 96 597 89 L616 -47 C619 -68 615 -74 600 -76 L585 -78 L552 74 L424 217 C404 239 403 272 422 317 L469 428 L389 430 L311 362 L293 367 L373 475 L484 485 L526 475 C541 472 572 440 576 426 L600 338 L730 307 L770 289 L772 258 C783 246 789 232 789 218 C789 187 764 162 733 162 C702 162 677 187 677 218 C677 237 686 254 702 263 L698 282 L587 296 C579 297 576 299 569 314 L537 380 L518 374 L551 306 C561 286 568 278 585 276 L674 265 C663 252 657 235 657 218 C657 176 691 142 733 142 C775 142 809 176 809 218 C809 235 803 251 792 266 L792 266 Z M446 163 L371 89 C361 79 350 76 339 81 L219 134 C214 136 213 138 214 144 L219 172 L334 129 L400 216 L446 163 Z " />
<glyph glyph-name="O" unicode="O" horiz-adv-x="1000" d="M351 236 L508 170 L601 161 L636 94 L746 -10 L771 2 C785 9 788 23 780 35 L706 142 C725 155 736 175 736 200 C736 231 711 262 674 262 C665 262 658 261 651 258 C638 284 623 299 599 304 C528 320 487 321 423 329 C371 366 343 364 318 379 L277 420 L338 554 L308 578 C291 591 266 585 253 565 L178 455 C160 428 167 396 199 364 C226 336 258 301 351 236 L351 236 Z M194 443 L269 553 C277 565 288 568 296 562 L314 548 L253 416 L306 363 C337 344 365 348 415 309 C481 301 524 300 595 284 C615 280 624 269 637 241 L682 140 L764 26 C765 24 765 20 763 19 L750 14 L652 106 L584 236 L563 235 L589 185 L512 190 L361 254 C270 317 240 350 213 378 C188 404 182 426 194 443 L194 443 Z M673 242 C695 242 715 223 715 201 C715 183 709 168 695 160 L659 240 C664 241 667 242 673 242 L673 242 Z M750 -61 C714 -61 694 -39 650 -39 C606 -39 586 -61 550 -61 C514 -61 494 -39 450 -39 C406 -39 386 -61 350 -61 C317 -61 297 -42 260 -39 L260 129 L150 129 L150 109 L240 109 L240 -59 L250 -59 C286 -59 306 -81 350 -81 C394 -81 414 -59 450 -59 C486 -59 506 -81 550 -81 C594 -81 614 -59 650 -59 C686 -59 706 -81 750 -81 C794 -81 814 -59 850 -59 L850 -39 C806 -39 786 -61 750 -61 L750 -61 Z " />
<glyph glyph-name="P" unicode="P" horiz-adv-x="1000" d="M500 543 C534 543 562 530 574 503 L571 482 L650 482 L649 494 C660 510 680 516 699 516 C718 516 737 510 749 494 L748 482 L781 482 L781 549 L801 549 L801 394 L781 394 L781 462 L746 462 L736 351 C732 302 708 278 679 278 C663 278 645 284 627 296 L602 313 L591 208 L631 181 C656 164 670 125 667 91 L648 -100 L566 -100 L564 91 L500 81 L436 91 L434 -100 L352 -100 L333 91 C330 125 344 164 369 181 L409 208 L398 313 L373 296 C356 284 339 278 323 278 C293 278 269 299 264 351 L254 462 L219 462 L219 394 L199 394 L199 549 L219 549 L219 482 L252 482 L251 494 C263 510 282 516 301 516 C320 516 340 510 351 494 L350 482 L429 482 L426 503 C438 530 468 543 500 543 L500 543 Z M150 539 L150 404 L170 404 L170 539 L150 539 Z M850 539 L830 539 L830 404 L850 404 L850 539 Z M500 396 L540 411 L551 499 C541 516 527 523 500 523 C473 523 457 516 447 499 L458 411 L500 396 Z M270 487 L274 451 L328 451 L330 487 C324 495 312 498 300 498 C288 498 276 495 270 487 L270 487 Z M729 487 C723 495 711 498 699 498 C687 498 675 495 669 487 L671 451 L725 451 L729 487 Z M433 462 L348 462 L347 431 L333 431 L341 396 L394 433 C406 441 423 443 435 443 L433 462 Z M567 462 L565 443 C577 443 593 441 605 433 L658 396 L666 431 L652 431 L651 462 L567 462 Z M500 101 L584 115 L586 -80 L630 -80 L647 93 C650 122 639 152 619 165 L569 198 L586 347 L639 312 C653 303 668 297 680 297 C698 297 712 313 716 353 L723 431 L687 431 L670 362 L594 416 C584 423 571 423 562 423 L558 397 L500 376 L442 397 L438 423 C429 423 416 423 406 416 L330 362 L313 431 L277 431 L284 353 C288 311 303 297 323 297 C335 297 348 303 361 312 L414 347 L431 198 L381 165 C361 152 350 122 353 93 L370 -80 L414 -80 L416 115 L500 101 Z " />
<glyph glyph-name="Q" unicode="Q" horiz-adv-x="1000" d="M761 423 L611 434 L532 463 C545 468 556 481 561 498 L574 545 C567 569 535 589 506 589 C481 589 461 572 458 549 L450 490 C416 496 395 476 381 430 L347 311 C338 278 328 233 325 183 L214 -16 L299 -100 L734 -100 L671 111 L658 79 L703 -78 L568 -78 L703 258 L747 303 L781 393 C786 405 775 422 761 423 L761 423 Z M478 546 C480 559 491 569 506 569 C525 569 546 558 553 543 L542 503 C538 487 526 478 512 480 L469 485 L478 546 Z M731 318 L687 274 L640 157 L604 227 L628 286 L636 344 L614 345 L503 359 L493 366 L500 380 L633 365 L724 365 L733 385 L633 385 L487 402 L439 283 L396 177 L254 -21 L242 -8 L345 177 C348 227 358 272 367 305 L401 424 C413 468 429 478 463 467 L607 414 L762 403 L731 318 Z M474 317 L485 346 L495 339 L609 327 L607 312 L474 317 Z M546 -78 L502 -78 L470 -47 L537 136 C546 162 540 187 522 199 L447 249 L457 275 L466 298 L606 293 L576 221 L629 130 L546 -78 Z M419 181 L439 230 L510 183 C522 175 526 161 519 143 L454 -32 L440 -18 L476 146 L419 181 Z M311 -78 L267 -33 L411 163 L454 138 L423 0 L417 5 L412 -16 L475 -78 L311 -78 Z " />
<glyph glyph-name="R" unicode="R" horiz-adv-x="1000" d="M309 81 L185 17 L185 -7 L319 63 L432 138 C472 165 500 204 512 252 L551 415 L611 551 C613 555 616 557 620 557 L649 556 L606 410 L605 276 L583 235 L601 225 L648 313 C661 337 672 347 687 347 C705 347 753 321 762 301 L741 231 C735 212 714 199 694 204 L658 215 L652 195 L693 183 C689 176 684 169 678 162 C594 64 546 26 423 -39 L308 -100 L352 -100 L433 -57 C556 8 608 47 694 148 C705 161 712 174 718 185 C738 191 755 206 761 225 L764 235 C810 238 844 288 841 345 L835 473 C845 486 850 502 850 520 C850 563 814 600 770 600 C727 600 690 563 690 520 C690 481 719 448 757 441 L745 367 L765 364 L780 461 C743 455 710 484 710 520 C710 553 738 580 770 580 C803 580 830 553 830 520 C830 504 825 489 815 480 L821 345 C823 300 801 263 770 256 L782 301 C777 333 715 367 688 367 C666 367 646 352 630 323 L625 314 L626 408 L675 574 L620 577 C609 578 598 570 593 559 L533 422 L492 256 C481 213 458 177 422 154 L309 81 Z M419 28 L335 11 L185 -77 L185 -100 L343 -7 L423 8 L419 28 Z " />
<glyph glyph-name="S" unicode="S" horiz-adv-x="1000" d="M586 500 L600 554 C594 576 556 597 531 597 C508 597 486 582 483 560 L470 476 L535 465 C552 462 579 472 586 500 L586 500 Z M503 557 C505 569 516 577 529 577 C544 577 572 565 579 553 L567 505 C563 492 550 483 538 485 L493 492 L503 557 Z M477 146 L500 126 L549 -61 L588 -54 C605 -51 617 -31 614 -14 L590 137 C588 148 585 158 578 168 L524 247 L533 289 L606 305 C620 308 634 324 632 342 L628 375 L540 366 L541 373 C543 407 529 453 484 453 L433 453 L335 399 C312 386 299 357 324 330 L388 259 C388 247 390 233 399 218 L366 157 L235 158 L216 91 L377 59 C394 56 413 63 423 76 L477 146 Z M338 344 C327 358 329 372 345 381 L439 433 L484 433 C513 433 523 403 521 375 L516 312 C515 298 507 255 502 244 L561 158 C568 147 568 144 570 133 L594 -17 C596 -27 592 -33 584 -34 L563 -37 L515 139 L425 218 C407 234 408 249 408 267 L338 344 Z M427 379 L384 356 L417 305 L427 379 Z M539 345 L610 353 L612 340 C613 331 609 326 602 325 L536 311 L539 345 Z M820 291 L698 235 L706 217 L756 240 L704 -80 L172 -80 L172 -100 L720 -100 L779 250 L828 273 L820 291 Z M463 160 L407 88 C400 79 392 77 381 79 L242 105 L249 138 L378 137 L414 203 L463 160 Z " />
<glyph glyph-name="T" unicode="T" horiz-adv-x="1000" d="M500 600 C357 600 295 470 295 342 C295 282 307 221 333 175 L354 138 L390 138 L426 186 L426 42 C426 17 439 0 462 0 L521 0 L546 -100 L583 -96 C604 -94 617 -72 613 -49 L578 171 L577 184 L611 138 L647 138 L673 186 C696 229 705 286 705 342 C705 471 643 600 500 600 L500 600 Z M500 580 C629 580 686 461 686 342 C686 293 677 245 659 204 L629 241 L611 332 C604 365 579 381 543 381 L458 381 C422 381 397 365 390 332 L371 240 L345 196 C325 238 314 290 314 342 C314 461 371 580 500 580 L500 580 Z M497 539 C465 539 446 529 436 506 C436 484 444 432 449 421 C458 413 475 404 498 399 C513 404 539 413 545 421 C551 429 558 479 558 505 C548 529 529 539 497 539 L497 539 Z M497 519 C518 519 531 515 538 501 C538 477 532 440 528 432 C522 427 510 424 497 420 C485 423 468 429 465 432 C462 440 456 479 456 501 C463 515 476 519 497 519 L497 519 Z M649 184 L635 158 L621 158 L573 224 L565 296 L545 294 L558 170 L593 -50 C595 -63 585 -74 573 -75 L560 -76 L503 129 L490 129 L490 20 L462 20 C452 20 446 26 446 42 L446 171 L456 281 L436 283 L429 226 L380 158 L366 158 L357 175 L389 234 L410 328 C415 351 430 361 458 361 L543 361 C571 361 586 351 591 328 L611 233 L649 184 Z " />
<glyph glyph-name="U" unicode="U" horiz-adv-x="1000" d="M775 -41 L550 316 L485 487 L421 600 L346 600 L404 457 L422 376 L330 308 L318 176 C316 151 333 129 366 129 L374 129 C369 119 369 106 370 87 L383 -101 L461 -101 L459 82 L532 119 L738 -100 L758 -91 C777 -82 786 -59 775 -41 L775 -41 Z M750 -73 L743 -77 L536 144 L439 94 L441 -81 L401 -81 L390 89 C388 116 389 123 399 129 L418 129 L438 149 L366 149 C346 149 336 157 338 174 L350 298 L446 368 L422 464 L377 580 L407 580 L467 477 L532 306 L757 -51 C762 -59 759 -68 750 -73 L750 -73 Z M364 362 C373 371 388 398 389 412 C384 433 361 467 353 476 C343 480 333 482 323 481 C283 478 256 452 256 402 C266 387 290 362 308 351 C321 351 353 357 364 362 L364 362 Z M352 378 C341 374 323 369 317 369 C303 378 283 397 275 410 C275 436 297 459 323 461 C329 461 336 461 341 460 C351 448 365 423 369 410 C368 403 359 387 352 378 L352 378 Z M387 254 L380 195 L457 195 L387 254 Z " />
<glyph glyph-name="V" unicode="V" horiz-adv-x="1000" d="M371 251 L389 267 C477 275 537 315 573 341 L571 307 L591 307 L596 381 C565 365 500 295 381 287 L355 263 L331 216 L388 54 L384 51 C379 44 369 46 363 55 L306 142 C259 235 280 417 349 503 L391 555 L400 550 L382 490 L377 434 L399 449 L402 486 L424 560 L385 581 L333 515 C304 479 283 427 271 371 C267 374 262 377 257 379 C238 380 187 370 171 362 C161 349 150 334 150 309 C150 272 173 244 211 236 C219 238 241 247 261 257 C262 210 271 166 288 132 L347 43 C360 24 385 21 399 37 L410 50 L353 214 L371 251 Z M328 399 L333 380 L389 398 C443 415 497 450 554 450 C561 450 568 450 575 449 C640 440 703 416 768 402 C782 399 792 389 793 378 L802 307 L822 307 L813 380 C811 400 795 416 772 422 C707 439 644 461 577 469 C569 470 561 470 554 470 C492 470 436 436 384 418 L328 399 Z M639 307 L660 307 L667 344 L720 329 L723 307 L743 307 L738 345 L651 370 L639 307 Z M170 309 C170 323 173 332 183 346 C199 351 235 358 253 359 C258 356 263 353 267 349 C263 326 261 303 260 280 C244 270 222 261 211 256 C184 264 170 283 170 309 L170 309 Z M850 277 L527 277 L497 257 L567 257 L550 178 L591 167 C613 161 630 174 635 200 L647 257 L734 257 L766 140 L805 154 C821 160 830 177 828 195 L822 257 L850 257 L850 277 Z M615 204 C612 189 606 184 595 187 L574 192 L588 257 L627 257 L615 204 Z M808 193 C809 183 806 175 797 172 L780 166 L755 257 L802 257 L808 193 Z " />
<glyph glyph-name="W" unicode="W" horiz-adv-x="1000" d="M803 299 L637 350 L491 384 L495 418 C497 437 506 442 527 434 L647 390 L788 366 C814 361 830 385 821 412 L814 434 L685 465 L675 471 C680 482 682 492 682 504 C682 545 650 577 609 577 C587 577 557 562 543 545 C517 554 493 555 474 549 L346 595 C315 606 292 589 288 560 L275 466 C273 451 288 435 305 435 L328 435 L350 514 L378 502 L386 520 L338 542 L312 455 L305 455 C301 455 293 458 294 464 L308 558 C310 574 321 583 342 575 L451 537 C412 517 361 440 362 387 L363 295 L210 358 L191 340 C170 322 172 293 195 280 L348 197 C401 169 464 199 473 260 L476 282 L624 267 L801 222 L816 261 C822 276 819 294 803 299 L803 299 Z M609 557 C639 557 662 534 662 504 C662 497 661 490 657 482 L599 518 C587 526 575 532 563 537 C576 547 595 557 609 557 L609 557 Z M358 215 L205 298 C194 304 193 316 205 326 L214 334 L367 272 L372 246 L392 250 L383 298 L382 387 C381 439 413 477 460 519 C486 542 531 537 589 501 L677 447 L798 418 L803 406 C808 394 802 384 792 386 L653 410 L533 453 C501 465 479 453 475 420 L453 262 C446 216 399 193 358 215 L358 215 Z M797 268 L789 246 L628 287 L479 302 L488 365 L632 330 L793 282 C799 280 800 275 797 268 L797 268 Z M524 170 L504 170 L504 -80 L412 -80 L412 -100 L616 -100 L616 -80 L524 -80 L524 170 Z " />
<glyph glyph-name="X" unicode="X" horiz-adv-x="1000" d="M830 123 L810 482 C808 505 786 524 763 523 L723 521 L714 600 L693 600 L703 520 L660 517 C636 515 617 494 619 471 L624 395 L534 395 L439 411 L411 421 C399 425 391 426 383 426 C362 426 349 415 341 396 L299 306 C286 279 283 267 283 246 C283 233 287 220 291 210 L170 -66 L198 -83 C217 -95 246 -86 256 -67 L356 126 L394 79 L401 -100 L434 -100 C457 -100 481 -81 481 -58 L481 94 C481 111 476 127 469 140 L426 213 L408 203 L451 130 C458 118 461 107 461 94 L461 -57 C461 -69 447 -80 434 -80 L421 -80 L414 87 L315 209 C310 216 303 229 303 246 C303 263 305 274 317 298 L359 387 C365 401 372 406 383 406 C388 406 396 405 404 402 L431 392 C437 386 440 370 440 355 C440 342 438 329 434 323 L412 291 L407 292 L411 346 L391 348 L387 278 L471 252 L471 184 L507 184 C517 172 531 166 547 166 C576 166 600 190 600 219 C600 247 575 272 548 272 L478 272 L432 285 L447 307 L561 318 L561 337 L456 328 C458 336 459 345 459 355 C459 366 457 377 454 388 L532 375 L587 375 L587 307 L628 307 L639 111 C640 89 664 70 686 71 L790 77 C811 78 831 100 830 123 L830 123 Z M526 469 L542 528 C536 553 492 576 466 576 C441 576 416 559 413 535 L398 442 L470 430 C488 427 517 438 526 469 L526 469 Z M433 531 C435 546 450 556 464 556 C480 556 512 544 521 527 L506 474 C500 455 485 448 473 450 L420 458 L433 531 Z M788 97 L684 91 C672 90 659 101 659 113 L649 301 C658 293 670 289 682 289 C692 289 702 292 711 298 L696 249 L716 243 L746 349 L711 450 L693 444 L714 383 C705 390 694 395 683 395 L644 395 L639 473 C638 484 648 496 662 497 L765 503 C777 504 789 493 790 480 L810 121 C810 110 800 98 788 97 L788 97 Z M607 327 L607 375 L683 375 C699 375 715 359 715 342 C715 324 700 309 682 309 C669 309 659 315 652 327 L607 327 Z M491 204 L491 252 L548 252 C564 252 580 236 580 219 C580 201 565 186 547 186 C534 186 524 192 517 204 L491 204 Z M304 191 L342 144 L238 -57 C232 -67 218 -71 208 -65 L196 -58 L304 191 Z " />
<glyph glyph-name="Y" unicode="Y" horiz-adv-x="1000" d="M682 493 L698 552 C705 577 648 600 622 600 C596 600 573 583 569 559 L554 466 L626 454 C645 451 674 462 682 493 L682 493 Z M589 555 C592 570 606 580 621 580 C636 580 682 570 677 551 L662 498 C657 479 641 472 629 474 L576 482 L589 555 Z M614 265 L614 269 L690 285 C705 288 721 305 718 324 L712 359 L623 349 L624 359 C628 395 611 445 562 445 L507 445 L400 386 C372 371 368 338 390 313 L459 235 C458 222 459 203 472 186 L439 125 L298 126 L279 59 L450 23 C467 19 485 27 496 40 L553 112 L577 90 L632 -100 L673 -92 C691 -88 699 -64 696 -42 L672 111 L606 221 C609 232 611 247 614 265 L614 265 Z M584 218 L651 107 L677 -46 C679 -60 674 -70 666 -72 L646 -76 L595 102 L498 188 C476 205 478 223 479 243 L404 327 C390 342 393 359 410 368 L513 425 L562 425 C593 425 607 389 604 361 L594 268 C592 245 588 228 584 218 L584 218 Z M453 340 L490 284 L500 365 L453 340 Z M621 329 L696 337 L698 321 C699 312 694 307 686 305 L617 290 L621 329 Z M539 126 L480 52 C473 43 465 41 454 43 L305 73 L312 106 L451 105 L487 171 L539 126 Z " />
<glyph glyph-name="Z" unicode="Z" horiz-adv-x="1000" d="M500 378 C518 381 557 395 569 412 C576 429 585 498 585 530 C570 561 539 576 500 576 C461 576 430 561 415 530 C415 497 423 428 430 412 C438 395 481 381 500 378 L500 378 Z M500 556 C533 556 552 547 565 525 C565 491 556 428 550 420 C544 413 518 402 500 398 C480 403 451 413 448 420 C444 430 435 491 435 525 C448 547 467 556 500 556 L500 556 Z M308 140 L391 84 C422 63 460 53 497 53 C537 53 577 65 608 85 L693 140 C704 147 709 159 709 173 C709 186 705 201 698 215 L635 336 C628 350 606 359 587 359 L412 359 C394 359 372 350 365 336 L302 215 C295 202 291 188 291 174 C291 160 296 148 308 140 L308 140 Z M320 205 L383 326 C387 334 398 339 412 339 L587 339 C602 339 613 334 617 326 L680 205 C686 194 689 183 689 173 C689 165 686 159 682 156 L596 101 C567 82 532 72 497 72 C464 72 430 81 402 100 L319 156 C314 159 311 166 311 174 C311 183 315 195 320 205 L320 205 Z M403 155 L415 251 L404 251 L370 192 L403 155 Z M598 157 L630 192 L597 251 L585 251 L598 157 Z M736 141 L720 129 C730 114 734 99 734 86 C734 61 720 41 703 34 L442 -76 C429 -82 413 -75 408 -62 L397 -32 L480 5 L472 23 L404 -7 L299 37 C281 45 266 67 266 90 C266 106 271 119 280 132 L264 144 C251 125 245 107 245 90 C245 56 268 29 291 19 L379 -18 L371 -22 L390 -69 C399 -92 427 -104 450 -94 L505 -71 L570 -98 C592 -107 619 -98 628 -78 L637 -58 L619 -50 L610 -69 C605 -80 590 -85 578 -80 L530 -60 L711 16 C734 26 755 52 755 86 C755 103 749 122 736 141 L736 141 Z " />
<glyph glyph-name="bracketleft" unicode="&#x5b;" horiz-adv-x="1000" d="M794 459 L607 459 L578 562 C572 584 551 596 530 590 L201 502 C181 497 168 476 174 454 L294 9 C300 -13 321 -25 342 -19 L670 69 C691 75 704 96 698 117 L612 439 L794 439 C805 439 813 431 813 420 L813 -56 C813 -67 805 -76 794 -76 L454 -76 C444 -76 435 -67 435 -56 L435 -14 L415 -20 L415 -56 C415 -78 433 -96 454 -96 L794 -96 C816 -96 833 -78 833 -56 L833 420 C833 442 816 459 794 459 L794 459 Z " />
<glyph glyph-name="backslash" unicode="&#x5c;" horiz-adv-x="1000" d="M466 580 C472 580 476 584 476 590 C476 596 472 600 466 600 C460 600 456 596 456 590 C456 584 460 580 466 580 L466 580 Z M480 542 L470 527 L474 490 L487 490 L487 527 L494 533 L497 521 L514 489 L526 495 L510 523 L507 554 L497 554 L497 564 L507 565 L528 554 L537 558 L520 575 L494 578 L478 573 L464 564 L447 559 L447 544 L478 554 L480 542 Z M622 394 L601 394 C593 443 551 480 500 480 C449 480 406 442 399 393 L378 393 L338 410 L338 347 L378 364 L399 364 C405 318 444 281 490 276 L490 194 L443 194 L423 164 L577 164 L557 194 L510 194 L510 276 C556 281 594 317 601 363 L622 363 L662 347 L662 410 L622 394 Z M500 296 C455 296 418 333 418 378 C418 423 455 460 500 460 C545 460 582 423 582 378 C582 333 545 296 500 296 L500 296 Z M520 44 L626 44 L624 64 L585 64 L585 84 L620 84 L617 104 L520 104 L520 124 L614 124 L610 144 L390 144 L386 124 L480 124 L480 104 L383 104 L380 84 L415 84 L415 64 L376 64 L374 44 L480 44 L480 24 L370 24 L370 4 L630 4 L630 24 L520 24 L520 44 Z M435 64 L435 84 L565 84 L565 64 L435 64 Z M370 -100 L630 -100 L630 -16 L370 -16 L370 -100 Z M390 -36 L610 -36 L610 -80 L390 -80 L390 -36 Z " />
<glyph glyph-name="bracketright" unicode="&#x5d;" horiz-adv-x="1000" d="M823 505 L572 555 C553 559 538 547 535 532 L525 480 L314 480 C297 480 283 465 283 448 L283 416 L177 395 C160 392 148 376 151 359 L222 -32 C225 -47 240 -59 257 -56 L510 -11 C526 -8 535 5 534 20 L570 20 C587 20 600 35 600 51 L600 63 L580 66 L580 51 C580 45 577 41 570 41 L314 41 C306 41 303 45 303 51 L303 448 C303 457 306 460 314 460 L521 460 L495 326 C474 327 455 318 450 298 C446 318 429 327 409 327 C386 327 360 307 360 278 C360 218 409 183 450 168 L466 174 L459 142 C455 125 466 110 484 106 L734 57 C751 54 767 63 771 81 L848 470 C851 487 839 502 823 505 L823 505 Z M828 473 L751 85 C750 78 745 75 739 76 L488 126 C481 127 478 132 479 139 L555 528 C556 534 561 537 568 536 L819 485 C825 484 829 479 828 473 L828 473 Z M668 396 C655 362 569 341 569 289 C569 266 586 254 607 254 C623 254 633 261 641 268 L612 201 L649 194 L649 266 C654 247 671 239 687 238 C709 237 725 254 725 276 C725 320 676 351 668 396 L668 396 Z M314 21 L514 20 C514 13 512 10 507 9 L253 -36 C248 -37 243 -33 242 -28 L171 363 C170 368 174 374 180 375 L283 395 L283 51 C283 35 297 21 314 21 L314 21 Z " />
<glyph glyph-name="asciicircum" unicode="&#x5e;" horiz-adv-x="1000" d="M753 53 L593 130 L573 155 L565 194 L565 218 L569 218 C592 218 601 236 601 255 L601 274 L620 274 C649 283 664 300 664 322 C664 331 663 340 659 351 C660 356 662 361 662 366 C669 371 679 381 679 398 C679 410 673 423 665 429 L635 451 C633 472 625 490 611 504 C599 516 582 524 563 526 C552 541 536 549 517 551 C499 562 474 569 452 569 C428 569 414 565 398 553 C393 554 387 554 381 554 C371 553 361 547 357 544 C342 542 330 536 321 526 C314 518 308 508 307 496 C296 486 290 476 288 464 C282 454 279 442 279 431 C279 416 284 401 288 389 C283 381 281 372 281 363 C281 353 287 343 294 335 C295 314 297 301 303 293 C308 286 315 283 326 281 L326 240 C326 184 369 139 424 139 L468 139 L468 159 L424 159 C369 159 346 208 346 240 L346 339 L392 343 L394 364 L388 364 L380 356 L346 352 L342 386 L339 408 L350 417 C350 396 364 381 382 381 L382 388 C374 392 372 399 372 405 C372 417 378 428 391 428 C403 428 410 418 411 408 C411 403 408 397 403 394 L413 379 C427 390 432 409 433 418 C439 423 453 426 465 421 C462 415 460 408 460 402 C461 392 468 381 486 381 L486 393 C481 393 478 398 478 403 C478 418 489 416 500 416 C505 408 511 395 527 395 C527 361 542 334 542 324 L544 273 L581 273 L581 255 C581 249 581 238 569 238 L545 238 L545 192 L552 158 L441 84 L408 84 L383 141 L365 133 L255 58 L200 -100 L222 -100 L271 46 L373 114 L394 64 L447 64 L560 140 L581 114 L737 39 L778 -100 L800 -100 L753 53 Z M503 339 L508 351 L445 352 L439 364 L425 364 L424 339 L453 334 L503 339 Z M390 303 L390 254 C390 238 400 231 419 231 L430 231 L425 249 L419 249 C410 249 410 253 410 259 L410 303 L390 303 Z M444 216 L401 216 L401 196 L444 193 L444 216 Z M561 -16 L551 4 L541 -16 L520 -19 L535 -34 L532 -56 L551 -46 L570 -56 L567 -34 L582 -19 L561 -16 Z " />
<glyph glyph-name="underscore" unicode="&#x5f;" horiz-adv-x="1000" d="M288 -47 C241 -47 203 -9 203 38 L203 462 C203 509 241 547 288 547 L712 547 C759 547 797 509 797 462 L797 38 C797 -9 759 -47 712 -47 L288 -47 Z M288 -27 L712 -27 C748 -27 777 2 777 38 L777 462 C777 498 748 527 712 527 L288 527 C252 527 223 498 223 462 L223 38 C223 2 252 -27 288 -27 L288 -27 Z M563 138 L500 201 L441 141 L391 190 L451 250 L388 313 L438 362 L500 300 L562 361 L612 312 L550 250 L612 188 L563 138 Z " />
<glyph glyph-name="a" unicode="a" horiz-adv-x="1000" d="M525 449 C567 449 600 483 600 525 C600 566 567 600 525 600 C483 600 449 567 449 525 C449 482 483 449 525 449 L525 449 Z M525 469 C494 469 469 493 469 525 C469 556 494 580 525 580 C556 580 580 555 580 525 C580 494 556 469 525 469 L525 469 Z M380 -100 L386 -18 C388 11 389 46 349 88 L246 199 C233 213 228 230 234 250 L275 413 C278 424 288 430 301 425 L316 419 L301 231 L403 141 L635 256 L737 343 C742 347 743 347 750 339 L767 320 L659 202 L565 128 L574 109 L673 188 L793 320 L766 352 C752 368 737 369 724 358 L623 272 L407 165 L321 239 L338 433 L307 443 C283 451 261 441 255 418 L214 255 C207 229 214 204 232 185 L335 74 C369 38 368 13 366 -16 L360 -100 L380 -100 Z M399 368 C370 357 356 326 367 296 L402 196 L484 227 C508 236 523 268 515 295 L494 363 C477 380 435 382 399 368 L399 368 Z M406 350 C432 360 463 359 476 351 L496 289 C501 273 491 250 477 245 L414 222 L385 303 C378 323 387 343 406 350 L406 350 Z M510 161 L565 16 L587 -100 L607 -100 L585 22 L528 169 L510 161 Z " />
<glyph glyph-name="b" unicode="b" horiz-adv-x="1000" d="M494 486 L510 545 C503 572 460 594 432 594 C407 594 383 576 380 552 L370 459 L438 447 C457 443 486 455 494 486 L494 486 Z M400 548 C402 563 417 573 432 573 C448 573 480 561 489 544 L474 491 C468 470 453 465 441 467 L392 475 L400 548 Z M685 357 C727 357 760 391 760 433 C760 474 727 508 685 508 C643 508 609 475 609 433 C609 390 643 357 685 357 L685 357 Z M685 488 C716 488 740 463 740 433 C740 402 716 377 685 377 C654 377 629 401 629 433 C629 464 654 488 685 488 L685 488 Z M354 398 C364 405 373 408 381 408 C395 408 401 400 427 369 L461 316 L510 274 L688 274 C700 274 707 268 710 257 L750 110 C752 102 748 95 740 92 L725 87 L662 227 L499 214 C466 211 448 215 423 245 L378 298 L362 286 L407 232 C424 212 439 202 456 197 L484 77 L454 -72 L483 -85 C503 -93 526 -84 533 -63 L575 66 L571 199 L650 205 L713 63 L746 72 C764 76 775 97 770 116 L730 263 C725 281 706 294 688 294 L518 294 L477 330 L443 381 C415 414 404 428 380 428 C368 428 352 420 340 412 L254 327 C243 316 240 304 242 284 L255 163 L314 180 L316 278 L399 331 L389 349 L296 290 L294 194 L273 189 L262 286 C260 301 261 306 268 313 L354 398 Z M513 -57 C509 -68 500 -72 490 -67 L477 -61 L504 77 L477 193 C485 193 493 193 501 194 L551 198 L555 68 L513 -57 Z " />
<glyph glyph-name="c" unicode="c" horiz-adv-x="1000" d="M803 -40 L535 198 L521 184 L779 -44 L769 -65 L466 128 L455 153 L437 145 L486 35 L611 -71 L593 -88 L452 2 C409 40 387 94 349 199 L467 220 C485 223 499 241 496 260 L489 347 L237 615 L197 577 L311 398 C305 343 300 310 312 263 L223 236 L238 180 L329 196 C367 88 390 28 440 -14 L595 -114 L641 -69 L503 47 L481 95 L777 -93 L803 -40 Z M247 222 L336 249 L330 273 C318 319 326 349 331 402 L223 573 L237 587 L469 339 L476 258 C477 249 471 241 463 240 L252 202 L247 222 Z M561 395 L597 441 C597 475 563 517 529 517 C515 517 499 509 490 496 L440 424 L497 385 C517 372 546 376 561 395 L561 395 Z M507 485 C512 492 519 497 527 497 C551 497 577 470 577 449 L545 407 C537 397 520 394 510 401 L468 430 L507 485 Z M670 277 C712 277 745 311 745 353 C745 394 712 428 670 428 C628 428 594 395 594 353 C594 310 628 277 670 277 L670 277 Z M670 408 C701 408 725 383 725 353 C725 322 701 297 670 297 C639 297 614 321 614 353 C614 384 639 408 670 408 L670 408 Z " />
<glyph glyph-name="d" unicode="d" horiz-adv-x="1000" d="M419 497 L427 559 C419 582 387 600 351 600 C323 600 300 582 298 555 L290 459 L365 454 C391 452 416 472 419 497 L419 497 Z M318 553 C319 570 333 580 351 580 C375 580 399 569 407 556 L399 499 C397 484 382 473 367 474 L312 477 L318 553 Z M767 552 C725 552 691 519 691 477 C691 435 725 401 767 401 C809 401 842 435 842 477 C842 518 808 552 767 552 L767 552 Z M767 421 C735 421 711 445 711 477 C711 508 736 532 767 532 C798 532 822 508 822 477 C822 446 798 421 767 421 L767 421 Z M270 301 L322 231 C336 212 352 199 368 192 L401 56 L406 -100 L453 -100 C466 -100 481 -91 482 -79 L491 56 L487 216 L589 257 L776 284 L784 316 C788 334 775 350 756 350 L574 343 L435 301 L394 338 L359 391 L341 413 C313 447 280 453 254 427 L168 342 C157 331 154 319 156 299 L169 178 L228 195 L230 293 L313 346 L303 364 L210 305 L208 209 L187 204 L176 301 C174 316 175 321 182 328 L268 413 C285 430 305 426 325 401 L343 379 L378 324 L431 279 L578 323 L756 330 C762 330 765 326 764 320 L760 302 L583 277 L415 209 C390 199 362 210 338 243 L288 311 L270 301 Z M471 56 L462 -75 C462 -77 457 -80 453 -80 L425 -80 L421 59 L390 186 C400 185 413 187 423 191 L467 209 L471 56 Z " />
<glyph glyph-name="e" unicode="e" horiz-adv-x="1000" d="M502 449 C544 449 577 483 577 525 C577 566 544 600 502 600 C460 600 426 567 426 525 C426 482 460 449 502 449 L502 449 Z M502 580 C533 580 557 555 557 525 C557 494 533 469 502 469 C471 469 446 493 446 525 C446 556 471 580 502 580 L502 580 Z M535 281 L490 275 L424 284 L424 264 L492 254 L551 265 L591 383 L681 528 C684 533 689 534 694 530 L708 518 L635 365 L598 220 C591 191 566 171 530 166 L446 154 L448 134 L532 146 C545 148 556 151 567 156 L657 131 L644 -15 L687 -32 C697 -36 711 -31 714 -19 L762 163 C766 180 760 194 746 200 L627 251 L653 359 L732 522 L706 546 C691 557 673 553 664 538 L573 391 L535 281 Z M257 225 L321 190 C319 181 319 171 319 161 L321 124 L342 38 L502 -15 L514 38 L426 100 L424 173 L404 173 L406 90 L492 30 L488 11 L358 54 L341 126 L339 162 C338 190 346 219 361 239 L410 301 L355 423 L375 435 L448 306 L470 308 L396 441 C391 451 368 456 357 449 L329 431 L386 303 L370 283 C366 292 359 300 351 305 L302 336 C270 336 232 295 232 267 C232 250 242 233 257 225 L257 225 Z M297 316 L341 288 C350 282 359 269 353 261 L345 251 C337 240 330 226 325 210 L267 243 C258 248 253 258 253 267 C253 286 282 316 297 316 L297 316 Z M738 182 C743 180 745 174 743 168 L695 -14 L666 -3 L679 143 L589 169 C606 184 615 200 622 231 L738 182 Z M176 -80 L176 -100 L824 -100 L824 -80 L176 -80 Z " />
<glyph glyph-name="f" unicode="f" horiz-adv-x="1000" d="M500 600 C316 600 150 481 150 404 C150 397 151 390 153 385 L203 258 L423 177 L423 21 L409 20 L379 101 L338 101 C326 101 318 91 321 81 L353 -37 C355 -46 364 -51 373 -51 L427 -51 L433 -100 L453 -100 L446 -33 L373 -31 L341 81 L365 81 L395 0 L500 6 L605 0 L635 81 L659 81 L627 -31 L555 -33 L547 -100 L567 -100 L573 -51 L627 -51 C637 -51 645 -46 647 -37 L679 81 C681 90 674 101 663 101 L621 101 L591 20 L577 21 L577 177 L797 258 L847 385 C849 392 850 398 850 404 C850 481 684 600 500 600 L500 600 Z M174 385 C172 391 170 401 170 404 C170 481 353 580 500 580 C647 580 829 481 829 404 C829 401 828 391 826 385 L807 337 C789 368 763 381 743 381 C734 381 731 381 723 378 C712 413 644 435 601 435 C587 435 575 430 567 423 C553 442 527 450 500 450 C473 450 447 442 434 423 C426 430 413 435 399 435 C356 435 289 413 277 378 C269 380 268 381 257 381 C237 381 211 368 193 337 L174 385 Z M557 393 L557 197 L443 197 L443 393 C443 417 470 430 500 430 C530 430 557 416 557 393 L557 393 Z M295 369 C303 396 361 415 400 415 C414 415 423 410 423 397 L423 223 L295 369 Z M577 397 C577 409 586 415 600 415 C643 415 697 396 705 369 L577 223 L577 397 Z M782 274 L584 201 L711 345 C724 360 729 362 743 361 C762 360 785 341 797 313 L782 274 Z M289 345 L416 201 L218 274 L203 313 C215 341 238 361 257 361 C271 361 276 359 289 345 L289 345 Z M443 22 L443 177 L557 177 L557 22 L537 25 L545 85 C539 102 522 109 500 109 C478 109 461 102 456 85 L463 25 L443 22 Z M520 34 L500 26 L480 34 L476 79 C479 86 487 89 500 89 C513 89 521 86 525 79 L520 34 Z " />
<glyph glyph-name="g" unicode="g" horiz-adv-x="1000" d="M509 447 C521 449 557 460 563 474 C569 488 575 540 575 564 C564 589 539 600 509 600 C479 600 454 589 442 565 C442 535 448 488 454 475 C461 461 495 449 509 447 L509 447 Z M509 580 C532 580 547 573 555 559 C554 535 549 495 545 483 C540 478 522 470 509 467 C495 470 476 479 472 484 C467 496 462 535 462 560 C470 573 486 580 509 580 L509 580 Z M656 301 L655 230 C655 211 666 198 686 199 L721 200 L739 367 L586 438 L353 438 L252 381 C239 374 235 358 239 345 L254 306 L357 339 L417 339 L417 316 L394 264 L328 126 C317 103 325 72 349 61 L379 47 L330 -63 L366 -87 C384 -99 402 -99 412 -78 L460 21 L507 -4 C518 -10 528 -7 534 4 L560 50 L507 120 L608 327 L656 301 Z M394 -69 C391 -75 384 -76 378 -71 L356 -55 L475 212 L451 236 L437 222 L451 208 L387 65 L357 79 C344 85 339 103 346 118 L412 256 L437 316 L437 379 L417 379 L417 359 L353 359 L266 332 L257 351 C254 357 256 360 262 363 L359 418 L582 418 L717 355 L703 220 L685 219 C679 219 674 223 674 230 L676 313 L600 355 L394 -69 Z M536 48 L518 17 C517 15 514 14 512 15 L468 39 L497 99 L536 48 Z M690 51 C648 51 614 18 614 -24 C614 -67 648 -100 690 -100 C732 -100 765 -66 765 -24 C765 17 732 51 690 51 L690 51 Z M690 -80 C659 -80 634 -56 634 -24 C634 7 659 31 690 31 C721 31 745 6 745 -24 C745 -55 721 -80 690 -80 L690 -80 Z " />
<glyph glyph-name="h" unicode="h" horiz-adv-x="1000" d="M779 73 L594 216 C572 233 554 248 531 248 C513 248 494 240 482 228 L396 142 L353 142 L353 122 L404 122 L496 214 C504 222 517 228 531 228 C547 228 560 217 579 203 L763 61 C773 53 770 44 761 37 L746 26 L547 114 L566 142 L553 159 L519 108 C474 40 435 0 363 0 C259 0 226 109 226 206 C226 241 230 274 237 300 C247 337 269 349 298 349 C316 349 334 339 350 325 L283 325 L283 305 L422 305 L372 412 L386 424 C394 430 403 430 407 423 L465 325 C472 313 474 303 474 291 C474 272 464 255 436 255 L317 255 L279 228 L291 212 L323 235 L384 235 L371 177 L375 166 L395 166 L391 177 L404 235 L436 235 C474 235 494 260 494 290 C494 307 490 322 482 335 L459 374 L491 435 C489 475 430 520 390 520 C363 520 332 506 323 481 L281 368 C253 363 226 344 217 305 C211 280 206 247 206 212 C206 106 241 -20 363 -20 C445 -20 487 26 536 95 L744 0 L774 21 C789 32 794 61 779 73 L779 73 Z M341 475 C347 491 370 500 391 500 C420 500 465 466 471 439 L447 396 L424 436 C415 451 393 456 377 442 L348 418 L390 325 L377 325 C358 350 328 365 302 369 L341 475 Z " />
<glyph glyph-name="i" unicode="i" horiz-adv-x="1000" d="M289 466 L285 355 L370 355 C400 355 422 375 426 406 L435 477 C425 503 390 521 346 521 C317 521 290 496 289 466 L289 466 Z M309 465 C310 484 327 501 346 501 C371 501 403 493 414 474 L406 408 C403 384 386 375 370 375 L306 375 L309 465 Z M850 -17 L850 38 C850 53 835 68 820 69 L664 84 L618 198 C607 225 585 240 562 240 C546 240 529 233 515 219 L453 159 L437 216 C416 290 354 323 305 323 C293 323 282 321 272 317 L150 -21 L197 -21 C218 -21 238 -9 247 13 L297 132 L311 47 C319 -3 349 -17 403 -17 L850 -17 Z M830 3 L403 3 C357 3 337 11 331 51 L313 165 L334 209 L316 219 L229 23 C220 3 210 -1 197 -1 L179 -1 L288 301 C294 302 299 303 305 303 C346 303 399 275 417 210 L456 72 L580 72 L817 49 C825 48 830 44 830 36 L830 3 Z M459 137 L529 205 C540 215 550 220 561 220 C577 220 592 210 600 190 L642 86 L575 92 L562 128 L528 92 L472 92 L459 137 Z " />
<glyph glyph-name="j" unicode="j" horiz-adv-x="1000" d="M633 600 L633 458 L650 458 L602 353 L529 248 L438 248 L438 228 L539 228 L620 343 L673 457 C677 465 671 478 663 478 L653 478 L653 580 L730 580 L730 480 L727 480 L702 552 L682 551 L713 461 L649 313 L534 121 L528 -23 L528 -100 L548 -100 L548 -23 L554 115 L667 303 L734 459 L750 459 L750 600 L633 600 Z M483 295 L500 400 C489 428 462 444 425 444 C388 444 365 432 350 405 L358 300 L373 287 L350 237 L318 237 C295 237 273 223 264 200 C256 179 250 158 250 131 C250 92 294 39 328 33 L282 -100 L302 -100 L432 271 L483 295 Z M335 52 C315 49 270 101 270 131 C270 154 276 173 282 193 C287 209 302 217 318 217 L362 217 L392 280 C396 288 393 298 385 303 L376 310 L370 399 C381 417 397 424 425 424 C453 424 471 414 480 396 L465 306 L440 294 L433 348 L413 348 L420 296 L335 52 Z M436 127 L506 127 L506 153 L436 153 L436 127 Z " />
<glyph glyph-name="k" unicode="k" horiz-adv-x="1000" d="M499 568 L506 482 L557 456 L606 476 L623 563 C614 586 591 600 561 600 C530 600 511 590 499 568 L499 568 Z M519 562 C527 575 539 580 561 580 C582 580 596 573 603 559 L592 489 L557 476 L524 492 L519 562 Z M281 352 L480 352 L484 228 L467 -79 C466 -93 476 -100 491 -100 L534 -100 L568 144 L571 144 L605 -100 L647 -100 C660 -100 672 -92 671 -78 L654 229 L659 353 L734 361 C744 362 754 366 761 373 L839 459 C849 469 848 487 837 497 L809 522 L731 443 L641 442 L285 428 L281 408 L641 422 L739 423 L809 494 L829 477 L747 387 C744 384 739 382 732 381 L639 371 L634 228 L651 -80 L623 -80 L589 164 L550 164 L516 -80 L489 -80 L504 227 L500 372 L277 372 L281 352 Z M265 428 L160 428 C154 416 151 389 151 361 C151 326 153 288 160 273 L265 273 C259 288 255 325 255 361 C256 389 258 415 265 428 L265 428 Z M239 408 C237 396 235 381 235 362 C235 336 237 312 240 293 L175 293 C172 308 168 334 171 360 C173 380 172 397 175 408 L239 408 Z M621 350 L581 350 L581 370 L621 370 L621 350 Z " />
<glyph glyph-name="l" unicode="l" horiz-adv-x="1000" d="M353 600 C242 600 160 515 160 402 C160 271 340 242 377 144 L421 157 L442 92 L458 98 L437 163 L469 173 C455 277 543 321 541 422 C539 529 466 600 353 600 L353 600 Z M353 580 C454 580 519 519 521 422 C523 339 443 289 447 187 L387 168 C337 266 180 287 180 402 C180 505 253 580 353 580 L353 580 Z M749 338 C765 338 779 335 793 329 C808 355 828 375 850 388 L850 409 C826 397 802 377 785 353 C773 356 761 358 749 358 C686 358 639 308 639 239 C639 232 639 226 640 220 C598 211 571 177 571 131 C571 80 610 41 661 41 L803 41 L803 61 L739 61 C732 70 728 80 728 92 C728 113 743 127 765 125 L762 132 C760 138 760 140 760 144 C760 169 779 188 802 188 C809 188 816 186 825 185 C831 195 839 204 850 210 L850 233 C836 227 825 218 816 207 C811 207 807 208 802 208 C768 208 740 180 740 144 L740 141 C721 133 708 114 708 92 C708 81 711 71 716 61 L661 61 C621 61 591 90 591 131 C591 174 619 202 662 203 C661 215 659 226 659 239 C659 297 697 338 749 338 L749 338 Z M266 128 C266 150 253 169 234 176 L234 179 C234 215 206 243 172 243 C166 243 156 242 150 241 L150 220 C156 222 165 223 172 223 C195 223 214 204 214 179 C214 173 214 174 211 163 C232 161 246 148 246 128 C246 109 233 96 214 96 L150 96 L150 76 L214 76 C243 76 266 99 266 128 L266 128 Z M505 79 L531 88 L524 33 L424 1 L389 43 L409 49 L385 125 L405 131 L428 56 L486 74 L463 150 L481 155 L505 79 Z M668 -50 L644 -43 L593 -57 L546 -80 L313 -80 L313 -19 L241 39 L150 15 L150 -100 L170 -100 L170 -1 L237 17 L293 -28 L293 -80 L246 -80 L246 -100 L550 -100 L601 -75 L644 -63 L668 -70 L801 -32 L830 -41 L830 -100 L850 -100 L850 -25 L801 -12 L668 -50 Z " />
<glyph glyph-name="m" unicode="m" horiz-adv-x="1000" d="M850 505 L150 505 L150 -5 L850 -5 L850 505 Z M490 485 L490 420 L170 420 L170 485 L490 485 Z M830 485 L830 420 L510 420 L510 485 L830 485 Z M170 261 L170 400 L383 400 L383 102 L170 102 L170 241 L192 241 L192 261 L170 261 Z M403 400 L490 400 L490 261 L403 261 L403 400 Z M510 241 L601 241 L601 261 L510 261 L510 400 L602 400 L602 102 L510 102 L510 241 Z M830 241 L830 102 L622 102 L622 400 L830 400 L830 261 L808 261 L808 241 L830 241 Z M403 241 L490 241 L490 102 L403 102 L403 241 Z M170 15 L170 82 L490 82 L490 15 L170 15 Z M510 15 L510 82 L830 82 L830 15 L510 15 Z " />
<glyph glyph-name="n" unicode="n" horiz-adv-x="1000" d="M150 505 L150 -5 L850 -5 L850 505 L150 505 Z M170 134 L174 134 C205 134 228 157 228 188 L228 292 C228 323 205 346 174 346 L170 346 L170 485 L231 485 C299 430 341 346 341 250 C341 155 299 71 231 15 L170 15 L170 134 Z M261 15 C323 74 361 156 361 250 C361 344 323 426 261 485 L490 485 L490 286 C475 281 464 268 464 251 C464 234 475 220 490 215 L490 15 L261 15 Z M510 215 C525 220 536 234 536 251 C536 268 525 281 510 286 L510 485 L738 485 C676 426 638 344 638 250 C638 157 677 74 738 15 L510 15 L510 215 Z M768 15 C701 70 658 155 658 250 C658 346 701 430 769 485 L830 485 L830 346 L825 346 C794 346 771 323 771 292 L771 188 C771 157 794 134 825 134 L830 134 L830 15 L768 15 Z M170 326 L174 326 C194 326 208 312 208 292 L208 188 C208 168 194 154 174 154 L170 154 L170 326 Z M830 154 L825 154 C805 154 791 168 791 188 L791 292 C791 312 805 326 825 326 L830 326 L830 154 Z " />
<glyph glyph-name="o" unicode="o" horiz-adv-x="1000" d="M150 495 L150 5 L850 5 L850 495 L150 495 Z M170 114 L217 114 C220 114 222 117 222 120 L222 380 C222 383 220 385 217 385 L170 385 L170 475 L310 475 L310 25 L170 25 L170 114 Z M490 314 C459 309 435 283 435 250 C435 217 459 191 490 186 L490 25 L330 25 L330 475 L490 475 L490 314 Z M510 186 C541 191 565 217 565 250 C565 283 541 309 510 314 L510 475 L670 475 L670 25 L510 25 L510 186 Z M690 25 L690 475 L830 475 L830 385 L785 385 C782 385 780 383 780 380 L780 120 C780 117 782 114 785 114 L830 114 L830 25 L690 25 Z M170 365 L202 365 L202 134 L170 134 L170 365 Z M830 365 L830 134 L800 134 L800 365 L830 365 Z M490 206 C470 211 455 228 455 250 C455 272 470 289 490 294 L490 206 Z M510 294 C530 289 545 272 545 250 C545 228 530 211 510 206 L510 294 Z " />
<glyph glyph-name="p" unicode="p" horiz-adv-x="1000" d="M850 505 L150 505 L150 -5 L850 -5 L850 505 Z M200 485 L200 450 L170 450 L170 485 L200 485 Z M490 450 L220 450 L220 485 L490 485 L490 450 Z M780 485 L780 450 L510 450 L510 485 L780 485 Z M830 450 L800 450 L800 485 L830 485 L830 450 Z M200 261 L170 261 L170 430 L200 430 L200 261 Z M383 261 L220 261 L220 430 L383 430 L383 261 Z M403 430 L490 430 L490 72 L403 72 L403 430 Z M510 430 L602 430 L602 72 L510 72 L510 430 Z M622 430 L780 430 L780 261 L622 261 L622 430 Z M800 261 L800 430 L830 430 L830 261 L800 261 Z M200 241 L200 72 L170 72 L170 241 L200 241 Z M220 241 L383 241 L383 72 L220 72 L220 241 Z M622 241 L780 241 L780 72 L622 72 L622 241 Z M800 241 L830 241 L830 72 L800 72 L800 241 Z M170 15 L170 52 L200 52 L200 15 L170 15 Z M220 15 L220 52 L490 52 L490 15 L220 15 Z M510 15 L510 52 L780 52 L780 15 L510 15 Z M800 15 L800 52 L830 52 L830 15 L800 15 Z " />
<glyph glyph-name="q" unicode="q" horiz-adv-x="1000" d="M795 306 C795 468 662 600 500 600 C337 600 205 468 205 306 L205 194 C205 32 337 -100 500 -100 C662 -100 795 32 795 194 L795 306 Z M775 306 L775 194 C775 43 651 -80 500 -80 C348 -80 225 43 225 194 L225 306 C225 457 348 580 500 580 C651 580 775 457 775 306 L775 306 Z M732 306 C732 434 628 538 500 538 C372 538 267 434 267 306 L267 194 C267 66 372 -38 500 -38 C628 -38 732 66 732 194 L732 306 Z M712 306 L712 194 C712 77 617 -18 500 -18 C383 -18 287 77 287 194 L287 306 C287 423 383 518 500 518 C617 518 712 423 712 306 L712 306 Z M676 306 C676 402 597 481 500 481 C403 481 324 402 324 306 L324 194 C324 98 403 19 500 19 C597 19 676 98 676 194 L676 306 Z M656 306 L656 194 C656 109 586 39 500 39 C414 39 344 109 344 194 L344 306 C344 391 414 461 500 461 C586 461 656 391 656 306 L656 306 Z M455 392 L440 392 L440 339 L560 339 L560 392 L545 392 L545 355 L455 355 L455 392 Z M393 230 L607 230 L607 250 L393 250 L393 230 Z M544 108 L560 108 L560 167 L440 167 L440 108 L456 108 L456 152 L544 152 L544 108 Z " />
<glyph glyph-name="r" unicode="r" horiz-adv-x="1000" d="M150 515 L150 -15 L850 -15 L850 515 L150 515 Z M170 5 L170 114 L275 114 C278 114 280 117 280 120 L280 380 C280 383 278 385 275 385 L170 385 L170 495 L489 495 L489 354 C436 349 395 304 395 250 C395 196 436 151 489 146 L489 5 L170 5 Z M830 385 L726 385 C723 385 721 383 721 380 L721 120 C721 117 723 114 726 114 L830 114 L830 5 L509 5 L509 145 C563 150 605 195 605 250 C605 305 563 350 509 355 L509 495 L830 495 L830 385 Z M170 365 L260 365 L260 134 L170 134 L170 365 Z M830 134 L741 134 L741 365 L830 365 L830 134 Z M509 335 C552 330 585 294 585 250 C585 206 552 170 509 165 L509 335 Z M489 166 C447 171 415 207 415 250 C415 293 447 329 489 334 L489 166 Z " />
<glyph glyph-name="s" unicode="s" horiz-adv-x="1000" d="M150 505 L150 -5 L850 -5 L850 505 L150 505 Z M170 15 L170 36 C289 36 383 131 383 250 C383 369 289 463 170 463 L170 485 L490 485 L490 286 C475 281 464 268 464 251 C464 234 475 220 490 215 L490 15 L170 15 Z M830 15 L510 15 L510 215 C525 220 536 234 536 251 C536 268 525 281 510 286 L510 485 L830 485 L830 463 C711 463 617 369 617 250 C617 131 711 36 830 36 L830 15 Z M170 300 L170 443 C261 443 335 383 357 300 L170 300 Z M643 300 C665 383 739 443 830 443 L830 300 L643 300 Z M170 221 L170 280 L210 280 L210 221 L170 221 Z M363 250 C363 240 362 230 361 221 L230 221 L230 280 L361 280 C362 270 363 260 363 250 L363 250 Z M637 250 C637 260 638 270 639 280 L770 280 L770 221 L639 221 C638 230 637 240 637 250 L637 250 Z M790 221 L790 280 L830 280 L830 221 L790 221 Z M170 201 L357 201 C336 117 261 56 170 56 L170 201 Z M830 201 L830 56 C739 56 664 117 643 201 L830 201 Z " />
<glyph glyph-name="t" unicode="t" horiz-adv-x="1000" d="M244 600 L480 -100 L520 -100 L756 600 L244 600 Z M728 580 L688 461 L312 461 L272 580 L728 580 Z M216 540 L216 520 L250 520 L244 540 L216 540 Z M756 540 L750 520 L784 520 L784 540 L756 540 Z M506 -80 L494 -80 L319 441 L681 441 L506 -80 Z M500 269 L465 250 L470 292 L442 320 L481 325 L500 363 L519 325 L558 320 L530 292 L536 250 L500 269 Z " />
<glyph glyph-name="u" unicode="u" horiz-adv-x="1000" d="M252 122 L262 116 L262 -7 L282 -7 L282 103 L348 62 L348 -60 L368 -60 L368 49 L434 8 L434 -100 L454 -100 L454 -4 L500 -33 L547 -4 L547 -100 L567 -100 L567 9 L633 50 L633 -60 L653 -60 L653 63 L719 104 L719 -7 L739 -7 L739 116 L748 122 L748 600 L252 600 L252 122 Z M272 580 L728 580 L728 133 L500 -9 L272 133 L272 580 Z M698 154 L698 550 L302 550 L302 154 L500 34 L698 154 Z M204 510 L232 510 L232 530 L204 530 L204 510 Z M678 530 L678 451 L322 451 L322 530 L678 530 Z M768 530 L768 510 L796 510 L796 530 L768 530 Z M322 431 L678 431 L678 165 L500 57 L322 165 L322 431 Z M500 235 L465 216 L470 258 L442 286 L481 291 L500 329 L519 291 L558 286 L530 258 L536 216 L500 235 Z " />
<glyph glyph-name="v" unicode="v" horiz-adv-x="1000" d="M505 414 C485 414 466 414 446 415 L446 483 C471 488 491 500 531 500 C543 500 557 499 574 496 L574 596 C556 599 542 600 529 600 C489 600 470 588 446 583 L446 600 L426 600 L426 416 C329 421 235 435 150 456 L150 435 C258 408 379 394 505 394 C626 394 744 408 850 433 L850 453 C745 428 627 414 505 414 L505 414 Z M554 578 L554 519 C545 520 537 521 530 521 C493 521 473 508 446 502 L446 563 C470 568 489 580 528 580 C536 580 544 579 554 578 L554 578 Z M178 369 C187 369 194 376 194 385 C194 394 187 401 178 401 C169 401 162 394 162 385 C162 376 169 369 178 369 L178 369 Z M838 385 C838 394 831 401 822 401 C813 401 806 394 806 385 C806 376 813 369 822 369 C831 369 838 376 838 385 L838 385 Z M307 352 C316 352 323 359 323 367 C323 376 316 383 307 383 C298 383 291 376 291 367 C291 359 298 352 307 352 L307 352 Z M693 383 C684 383 677 376 677 367 C677 359 684 352 693 352 C702 352 709 359 709 367 C709 376 702 383 693 383 L693 383 Z M451 354 C451 363 444 370 436 370 C427 370 420 363 420 354 C420 346 427 339 436 339 C444 339 451 346 451 354 L451 354 Z M580 354 C580 363 573 370 564 370 C556 370 549 363 549 354 C549 346 556 339 564 339 C573 339 580 346 580 354 L580 354 Z M786 314 C786 322 779 329 770 329 C761 329 754 322 754 314 C754 305 761 298 770 298 C779 298 786 305 786 314 L786 314 Z M246 307 C246 315 239 322 230 322 C221 322 214 315 214 307 C214 298 221 291 230 291 C239 291 246 298 246 307 L246 307 Z M333 312 L333 186 L353 186 L353 292 L647 292 L647 184 L667 184 L667 312 L333 312 Z M150 235 C150 226 157 219 166 219 C174 219 181 226 181 235 C181 244 174 251 166 251 C157 251 150 244 150 235 L150 235 Z M278 251 C270 251 263 244 263 235 C263 226 270 219 278 219 C287 219 294 226 294 235 C294 244 287 251 278 251 L278 251 Z M720 219 C728 219 735 226 735 235 C735 244 728 251 720 251 C711 251 704 244 704 235 C704 226 711 219 720 219 L720 219 Z M834 251 C826 251 819 244 819 235 C819 226 826 219 834 219 C843 219 850 226 850 235 C850 244 843 251 834 251 L834 251 Z M850 161 L150 161 L150 141 L240 141 L181 17 L337 17 C339 -47 413 -100 500 -100 C587 -100 661 -47 663 17 L819 17 L760 141 L850 141 L850 161 Z M738 141 L787 37 L213 37 L262 141 L738 141 Z M500 -80 C421 -80 359 -35 357 17 L643 17 C641 -35 579 -80 500 -80 L500 -80 Z " />
<glyph glyph-name="w" unicode="w" horiz-adv-x="1000" d="M208 533 L208 568 L188 568 L188 533 L208 533 Z M258 533 L258 568 L238 568 L238 533 L258 533 Z M308 533 L308 568 L288 568 L288 533 L308 533 Z M728 533 L728 568 L708 568 L708 533 L728 533 Z M778 533 L778 568 L758 568 L758 533 L778 533 Z M828 533 L828 568 L808 568 L808 533 L828 533 Z M208 458 L208 493 L188 493 L188 458 L208 458 Z M258 458 L258 493 L238 493 L238 458 L258 458 Z M308 458 L308 493 L288 493 L288 458 L308 458 Z M728 458 L728 493 L708 493 L708 458 L728 458 Z M778 458 L778 493 L758 493 L758 458 L778 458 Z M828 458 L828 493 L808 493 L808 458 L828 458 Z M208 383 L208 418 L188 418 L188 383 L208 383 Z M258 383 L258 418 L238 418 L238 383 L258 383 Z M308 383 L308 418 L288 418 L288 383 L308 383 Z M728 383 L728 418 L708 418 L708 383 L728 383 Z M778 383 L778 418 L758 418 L758 383 L778 383 Z M828 383 L828 418 L808 418 L808 383 L828 383 Z M800 -80 L822 113 L850 119 L850 141 C827 135 802 130 778 125 L778 329 L758 329 L758 122 C718 115 676 110 633 106 L633 222 L375 222 L375 106 C335 109 296 114 258 120 L258 329 L238 329 L238 123 C208 129 178 135 150 142 L150 122 L198 110 L221 -80 L150 -80 L150 -100 L850 -100 L850 -80 L800 -80 Z M633 247 L633 272 L375 272 L375 247 L633 247 Z M395 105 L395 202 L613 202 L613 105 C578 102 542 101 505 101 C468 101 431 102 395 105 L395 105 Z M801 109 L779 -80 L646 -80 L668 89 C714 94 759 100 801 109 L801 109 Z M241 -80 L219 106 C258 99 300 93 342 89 L364 -80 L241 -80 Z M495 81 L495 -80 L384 -80 L363 87 C405 83 450 81 495 81 L495 81 Z M515 -80 L515 81 C560 81 604 83 647 87 L626 -80 L515 -80 Z " />
<glyph glyph-name="x" unicode="x" horiz-adv-x="1000" d="M501 564 C327 564 183 420 183 246 C183 73 327 -71 501 -71 C674 -71 818 73 818 246 C818 420 674 564 501 564 L501 564 Z M684 480 C576 444 481 336 373 328 C386 430 423 509 471 542 C481 543 491 544 501 544 C570 544 634 520 684 480 L684 480 Z M435 537 C395 493 365 418 353 328 C285 331 263 369 255 414 C297 475 361 520 435 537 L435 537 Z M798 256 L368 256 C368 274 369 291 371 308 C494 315 595 435 703 464 C759 412 795 338 798 256 L798 256 Z M348 256 L203 256 C205 304 218 350 240 389 C253 348 284 312 351 308 C349 291 348 274 348 256 L348 256 Z M351 185 C282 182 253 145 240 103 C218 143 205 188 203 236 L348 236 C348 219 349 201 351 185 L351 185 Z M702 28 C594 58 493 178 371 185 C369 201 368 218 368 236 L798 236 C795 154 759 80 702 28 L702 28 Z M255 79 C263 124 285 162 353 165 C365 76 395 0 436 -44 C361 -27 297 18 255 79 L255 79 Z M470 -49 C423 -15 386 64 373 165 C481 157 575 49 684 12 C633 -27 570 -51 501 -51 C491 -51 480 -50 470 -49 L470 -49 Z " />
<glyph glyph-name="y" unicode="y" horiz-adv-x="1000" d="M500 578 C318 578 172 431 172 250 C172 68 319 -78 500 -78 C679 -78 828 65 828 250 C828 431 681 578 500 578 L500 578 Z M338 445 C360 504 431 543 498 543 C534 543 569 530 593 501 L654 501 L648 522 C721 483 776 417 799 337 C786 342 772 349 759 358 L732 322 C759 300 773 264 773 224 C773 204 770 184 764 164 L796 154 L788 130 L754 141 C741 109 707 67 660 55 L636 3 C651 2 666 0 679 -3 C630 -38 569 -58 504 -58 C473 -58 443 -53 414 -45 C424 -39 435 -33 447 -28 L410 11 C401 8 392 6 383 6 C337 6 285 39 252 94 C234 124 226 157 226 187 C226 211 231 232 241 250 L219 264 C212 251 204 239 196 228 L196 250 C196 326 223 396 269 449 C269 442 268 435 268 427 L338 445 Z M664 476 L607 476 C611 465 613 454 613 442 C612 413 597 383 572 360 L605 315 C628 333 654 342 679 342 C690 342 701 339 711 335 L739 373 C709 401 683 434 664 476 L664 476 Z M332 418 L264 400 C258 360 246 321 230 286 L256 270 C275 285 293 293 317 294 C325 294 335 292 345 289 L366 339 C343 359 332 382 332 409 L332 418 Z M587 298 L552 345 C525 326 489 312 452 312 C430 312 409 316 388 326 L368 281 C420 255 451 207 467 154 L536 165 C536 219 554 265 587 298 L587 298 Z M539 140 L471 129 C472 123 472 117 472 111 C472 74 459 42 433 23 L472 -18 C510 -7 555 3 609 3 L631 51 C615 51 600 55 586 64 C561 81 545 108 539 140 L539 140 Z " />
<glyph glyph-name="z" unicode="z" horiz-adv-x="1000" d="M501 481 C373 481 270 378 270 250 C270 123 373 21 501 21 C627 21 730 123 730 250 C730 377 627 481 501 481 L501 481 Z M501 461 C552 461 599 442 636 411 C573 371 512 331 445 331 C392 331 360 351 346 393 C384 435 439 461 501 461 L501 461 Z M331 375 C351 333 389 311 445 311 C521 311 587 355 651 397 C687 359 710 307 710 250 C710 193 687 141 650 103 C585 145 519 188 445 188 C389 188 351 167 331 126 C305 160 290 203 290 250 C290 297 305 340 331 375 L331 375 Z M346 107 C362 149 394 168 445 168 C512 168 572 129 634 89 C598 59 552 41 501 41 C440 41 385 66 346 107 L346 107 Z " />
<glyph glyph-name="braceleft" unicode="&#x7b;" horiz-adv-x="1000" d="M288 -47 C241 -47 203 -9 203 38 L203 462 C203 509 241 547 288 547 L712 547 C759 547 797 509 797 462 L797 38 C797 -9 759 -47 712 -47 L288 -47 Z M288 -27 L712 -27 C748 -27 777 2 777 38 L777 462 C777 498 748 527 712 527 L288 527 C252 527 223 498 223 462 L223 38 C223 2 252 -27 288 -27 L288 -27 Z M465 373 L535 373 L535 285 L624 285 L623 215 L535 215 L535 130 L465 130 L465 216 L376 216 L377 286 L465 286 L465 373 Z " />
<glyph glyph-name="braceright" unicode="&#x7d;" horiz-adv-x="1000" d="M288 -47 C241 -47 203 -9 203 38 L203 462 C203 509 241 547 288 547 L712 547 C759 547 797 509 797 462 L797 38 C797 -9 759 -47 712 -47 L288 -47 Z M288 -27 L712 -27 C748 -27 777 2 777 38 L777 462 C777 498 748 527 712 527 L288 527 C252 527 223 498 223 462 L223 38 C223 2 252 -27 288 -27 L288 -27 Z M625 282 L625 218 L375 218 L375 282 L625 282 Z " />
</font>
</svg>
