<?xml version="1.0" encoding="UTF-8"?>
<svg xmlns="http://www.w3.org/2000/svg" xmlns:xlink="http://www.w3.org/1999/xlink" version="1.2" >
<font id="Informative Black It">
<font-face  font-family="Informative" units-per-em="1000" ascent="770" descent="-230" font-style="normal" font-weight="800" font-stretch="normal" slope="-8" cap-height="642" x-height="472" underline-position="-75" underline-thickness="50" />
<missing-glyph  horiz-adv-x="824" d="M569 750 L259 750 C204 750 159 705 159 650 L159 -150 C159 -205 204 -250 259 -250 L569 -250 C624 -250 669 -205 669 -150 L669 650 C669 705 624 750 569 750 L569 750 Z M572 485 L513 530 L501 514 L530 492 L509 470 C504.6 465.4 499 462 492 462 C486.9 462 481.1 463.2 476 467 L409 517 L452 577 C463.7 593.3 477 600 497 600 C524 600 562 572 561 537 L554 525 L585 502 L572 485 Z M450 -94 L409 -94 L366 131 C323 185 296.7 230 301 286 L309 389 C312.7 436 345 476 385 476 C417 476 458 450 460 408 C462 367 452 293 446 247 L427 231 L396 309 C391.2 321.1 390.9 332 393 345 L402 402 L382 406 L373 349 C370.3 331.9 372.7 314.9 378 301 L410 217 L391 201 L344 272 L326 262 L388 171 L448 222 L469 -69 C469.9 -81 461 -94 450 -94 L450 -94 Z M370 -65 C364.8 -91 353 -94 336 -94 L307 -94 L327 56 L318 160 L347 123 L376 -35 L370 -65 Z " />
<glyph glyph-name="NULL" d="" />
<glyph glyph-name="CR" unicode="&#xd;" horiz-adv-x="250" d="" />
<glyph glyph-name="space" unicode="&#x20;" horiz-adv-x="188" d="" />
<glyph glyph-name="exclam" unicode="&#x21;" horiz-adv-x="271" d="M144.7 652.2 L109.6 255.4 L233.4 255.4 L309.2 652.2 L144.7 652.2 Z M132.1 -21 C197 -21 257.2 34.6 257.2 99.3 C257.2 152.3 217.7 196 163.1 196 C100.6 196 39 139.4 39 74.9 C39 22 79.4 -21 132.1 -21 L132.1 -21 Z " />
<glyph glyph-name="quotedbl" unicode="&#x22;" horiz-adv-x="350" d="M115 428.4 L189.3 428.4 L252.7 662.8 L118.1 662.8 L115 428.4 Z M280.1 428.4 L354.3 428.4 L417.8 662.8 L283.2 662.8 L280.1 428.4 Z " />
<glyph glyph-name="numbersign" unicode="&#x23;" horiz-adv-x="695" d="M664.2 334 L731.7 470 L662.93 470 L730.3 615 L594.9 615 L527.5 470 L422.12 470 L489.49 615 L354.09 615 L286.72 470 L203.99 470 L136.49 334 L223.52 334 L176.13 232 L109.39 232 L41.99 96 L112.94 96 L46.49 -47 L181.89 -47 L248.34 96 L353.66 96 L287.19 -47 L422.69 -47 L489.14 96 L569.69 96 L637.09 232 L552.33 232 L599.72 334 L664.2 334 Z M416.87 232 L311.53 232 L358.92 334 L464.28 334 L416.87 232 Z " />
<glyph glyph-name="dollar" unicode="&#x24;" horiz-adv-x="569" d="M403.6 397 C343.4 422 285.9 430.6 285.9 460.3 C285.9 482.4 309.3 497 358.2 497 C425.3 497 480 472.3 508.9 446 L610.2 592 C585.74 617.54 531.51 649.04 449.47 658.9 L460.31 736 L339.31 736 L328.29 657.57 C186.15 638 110.01 554.89 110.01 433.79 C110.01 327.29 187.51 280.59 256.61 252.99 C323.01 226.49 387.41 216.19 387.41 182.39 C387.41 159.29 361.71 146.99 312.11 146.99 C259.81 146.99 202.61 163.19 150.61 206.19 L39.01 68.89 C81.14 23.41 150.46 -6.76001 233.76 -15.44 L222.72 -94.02 L343.72 -94.02 L355.08 -13.19 C497.8 7.63 563.22 93.73 563.22 206.17 C563.22 322.97 480.62 364.97 403.62 396.97 L403.6 397 Z " />
<glyph glyph-name="percent" unicode="&#x25;" horiz-adv-x="771" d="M111.1 -18 L228.3 -18 L756.3 662 L639.1 662 L111.1 -18 Z M239.1 342 C346.8 342 422.9 418.9 422.9 525.1 C422.9 600.8 374 653 282.9 653 C174.8 653 98.3 577.5 98.3 470.6 C98.3 394.6 147.1 342 239.1 342 L239.1 342 Z M251.8 432 C218.2 432 203.1 452.1 203.1 481.9 C203.1 524.2 225.1 564 270.3 564 C303.3 564 318 543.2 318 513.5 C318 470.7 296.6 432 251.8 432 L251.8 432 Z M581 -20.5 C688.7 -20.5 764.8 56.4 764.8 162.6 C764.8 238.3 715.9 290.5 624.8 290.5 C516.7 290.5 440.2 215 440.2 108.1 C440.2 32.1 489 -20.5 581 -20.5 L581 -20.5 Z M593.7 69.5 C560.1 69.5 545 89.6 545 119.4 C545 161.7 567 201.5 612.2 201.5 C645.2 201.5 659.9 180.7 659.9 151 C659.9 108.2 638.5 69.5 593.7 69.5 L593.7 69.5 Z " />
<glyph glyph-name="ampersand" unicode="&#x26;" horiz-adv-x="675" d="M685.1 0 L570.34 131.41 C604.61 179.98 628.49 239.36 639.3 307.99 L642.3 326.99 L487.3 326.99 L483.3 296.99 C481.17 280.93 475.8 264.55 467.92 248.67 L404.03 321.83 C480.95 359.89 554.79 409.68 554.79 508.58 C554.79 600.18 486.59 661.98 376.49 661.98 C235.49 661.98 132.99 581.98 132.99 478.38 C132.99 434.93 146.32 404.14 187.83 353.25 C112.66 310.84 45.9 250.34 45.9 147.08 C45.9 37.28 134.7 -18.02 267.4 -18.02 C341.27 -18.02 408.48 -0.019989 465.08 33.67 L494.3 -0.019989 L685.1 0 Z M288.7 474.38 C288.7 499.48 311.6 515.98 349.3 515.98 C373.3 515.98 395.5 505.38 395.5 479.78 C395.5 454.97 365.01 436.41 322.04 416.48 C295.98 447.71 288.69 460.4 288.69 474.37 L288.7 474.38 Z M307.19 133.97 C257.39 133.97 233.19 155.47 233.19 191.27 C233.19 217.38 248.83 237.37 273.22 254.88 L365.86 148.06 C346.71 139.13 326.74 133.97 307.18 133.97 L307.19 133.97 Z " />
<glyph glyph-name="quotesingle" unicode="&#x27;" horiz-adv-x="186" d="M116 428.4 L190.3 428.4 L253.8 662.8 L119.2 662.8 L116 428.4 Z " />
<glyph glyph-name="parenleft" unicode="&#x28;" horiz-adv-x="286" d="M248.2 710 C125.8 536 54.6 351.1 54.6 125.7 C54.6 5.90001 76.5 -104.9 119.4 -204 L254.3 -151 C226.8 -63.3 204.2 30 204.2 161.2 C204.2 369.9 279.4 510.8 368 657 L248.2 710 Z " />
<glyph glyph-name="parenright" unicode="&#x29;" horiz-adv-x="287" d="M238.6 710 L103.6 657 C135.5 569.2 153.8 482.2 153.8 356.3 C153.8 133.8 75.1 -10.2 -10 -151 L112.9 -206.6 C237.9 -21.9 303.6 178 303.6 389.4 C303.6 510.1 281 609.4 238.6 710 L238.6 710 Z " />
<glyph glyph-name="asterisk" unicode="&#x2a;" horiz-adv-x="388" d="M429.8 532 L407.2 650.9 L316 595.4 L352.3 696.3 L230.2 696.3 L239.1 598.1 L162.7 650.9 L106 532 L202.6 523.3 L119.8 459.3 L209.6 384.7 L260 475.7 L284.7 384.7 L395.9 459.3 L330.9 520.6 L429.8 532 Z " />
<glyph glyph-name="plus" unicode="&#x2b;" horiz-adv-x="549" d="M563.6 320.3 L386.31 320.3 L412.4 504.8 L270.5 504.8 L244.41 320.3 L75.1 320.3 L57 193.8 L226.52 193.8 L200.4 9.10001 L342.3 9.10001 L368.42 193.8 L545.5 193.8 L563.6 320.3 Z " />
<glyph glyph-name="comma" unicode="&#x2c;" horiz-adv-x="272" d="M154.6 196 C85.4 196 37 140.5 37 75.9 C37 29.7 67.5 -9.90001 110 -19 C97.1 -67.4 76.1 -94.9 47.9 -127.7 L98.7 -174.3 C167.7 -120.6 254.8 -20.8 254.8 98.1 C254.8 156.3 215 196 154.6 196 L154.6 196 Z " />
<glyph glyph-name="hyphen" unicode="&#x2d;" horiz-adv-x="348" d="M72 189.8 L328.8 189.8 L346.8 315.8 L90 315.8 L72 189.8 Z " />
<glyph glyph-name="period" unicode="&#x2e;" horiz-adv-x="267" d="M255.2 100.3 C255.2 153.1 215.6 196 161 196 C98.5 196 37 140.5 37 75.9 C37 22.8 77.3 -21 130 -21 C194.9 -21 255.2 35.7 255.2 100.3 L255.2 100.3 Z " />
<glyph glyph-name="slash" unicode="&#x2f;" horiz-adv-x="590" d="M-3 -185 L139.6 -185 L658.1 662 L515.5 662 L-3 -185 Z " />
<glyph glyph-name="zero" unicode="0" horiz-adv-x="649" d="M667.6 390.7 C667.6 543.6 589.6 662 418 662 C203.3 662 72.9 477.3 72.9 251.9 C72.9 94.6 151.6 -18 322.4 -18 C534 -18 667.6 169.5 667.6 390.7 L667.6 390.7 Z M344.2 137 C279.9 137 258.9 184.2 258.9 258.4 C258.9 377.6 292.9 497 394.8 497 C459.8 497 481.6 453 481.6 382.7 C481.6 265.6 443.6 137 344.2 137 L344.2 137 Z " />
<glyph glyph-name="one" unicode="1" horiz-adv-x="418" d="M298 642 L73 518.6 L115.5 372 L238.55 430.7 L178.1 0 L358.2 0 L448.4 642 L298 642 Z " />
<glyph glyph-name="two" unicode="2" horiz-adv-x="553" d="M337.56 156.85 L370.2 176.7 C490.5 272.8 572.4 375.9 572.4 472 C572.4 595.1 485.9 662 357.6 662 C243.3 662 158.2 608 94.9 536 L197.3 422.4 C235.9 459.2 273 489 315.6 489 C354.9 489 376.3 468.8 376.3 439.7 C376.3 392.5 362.8 362.9 64.9 139.7 L45 3.05176e-05 L515.9 3.05176e-05 L538.9 161 L374.9 160.2 L337.56 156.85 Z " />
<glyph glyph-name="three" unicode="3" horiz-adv-x="569" d="M479.39 336.16 C528.41 362.83 574.5 412.83 574.5 493.8 C574.5 589 488.8 662 363.7 662 C244.5 662 173.9 629.6 104.7 552.6 L211.1 443.6 C251.6 480.4 279.7 492.8 316.8 492.8 C358.6 492.8 380 472 380 447.8 C380 400.2 332.4 387 290.4 387 L222.5 387 L203.8 258 L271.9 258 C337.6 258 379.6 245 379.6 207.3 C379.6 171 350.2 143 284.6 143 C233.4 143 181.9 172.3 153.3 209.2 L27 72.7 C79.9 20.3 145.6 -18 279.7 -18 C436.9 -18 565.5 50.3 565.5 196.2 C565.5 276.42 523.61 316.72 479.39 336.16 L479.39 336.16 Z " />
<glyph glyph-name="four" unicode="4" horiz-adv-x="601" d="M612.1 244 L527.98 244 L583.9 642 L415 642 L55.4 250.7 L33 94 L338 94 L324.79 0 L493.69 0 L506.9 94 L589.59 94 L612.1 244 Z M228.59 244 L382.64 411.78 L359.07 244 L228.59 244 Z " />
<glyph glyph-name="five" unicode="5" horiz-adv-x="558" d="M256.4 -18 C455.3 -18 565.1 71.8 565.1 233 C565.1 331.5 498.5 425 349.4 425 C319.6 425 291 421.1 276.4 418 L285.5 486 L555.9 486 L577.2 642 L147.9 642 L96.1 273.8 L187.3 251.7 C187.3 251.7 225.2 276 291.1 276 C350.4 276 378.6 250.5 378.6 214.5 C378.6 170.9 343.9 141 279.7 141 C206.3 141 155.2 172.5 135.9 190 L34 49 C58.5 23.1 134.1 -18 256.4 -18 L256.4 -18 Z " />
<glyph glyph-name="six" unicode="6" horiz-adv-x="578" d="M381.8 408 C345.03 408 313.07 399.65 285.14 386.54 C352.64 473.36 474.15 498.41 565.2 506.7 L536 665 C313.6 647.7 63 481.7 63 210 C63 76.7 145.9 -18 304.4 -18 C493.8 -18 588.9 85.8 588.9 223 C588.9 339.6 513.2 408 381.8 408 L381.8 408 Z M324.4 132.2 C270.2 132.2 234.5 167.6 234.5 223.3 C234.5 231.6 234.77 239.66 235.3 247.48 C262.19 268.28 293.16 283.9 335.59 283.9 C386.39 283.9 417.59 261.2 417.59 218.5 C417.59 164 373.99 132.2 324.39 132.2 L324.4 132.2 Z " />
<glyph glyph-name="seven" unicode="7" horiz-adv-x="515" d="M572.6 642 L110.6 642 L88 483.9 L352.3 483.9 C246.64 363.66 144.29 227.52 112.1 -1.52588e-05 L303.7 -1.52588e-05 C339.7 257.9 454.9 395.3 576.2 514.9 L572.6 642 Z " />
<glyph glyph-name="eight" unicode="8" horiz-adv-x="600" d="M529.49 332.75 C578.55 368.29 617.2 420.57 617.2 496.09 C617.2 594.19 529 661.99 392.4 661.99 C230.3 661.99 114.6 584.59 114.6 450.99 C114.6 400.71 135.11 362.98 163.89 335.12 C103.5 295.36 58 236.27 58 159.78 C58 31.38 169.4 -18.02 296.9 -18.02 C455.2 -18.02 592.7 45.68 592.7 206.08 C592.7 258.43 567.14 301.23 529.49 332.73 L529.49 332.75 Z M374.5 535.48 C415.3 535.48 446.5 514.08 446.5 472.88 C446.5 433.68 412.1 393.98 360 393.98 L350 393.98 C305.8 393.98 282.6 424.78 282.6 456.18 C282.6 507.28 325.9 535.48 374.5 535.48 L374.5 535.48 Z M315.6 113.18 C259.7 113.18 234.9 138.98 234.9 172.88 C234.9 212.98 267.6 250.28 334.4 250.28 C390.4 250.28 414.9 221.78 414.9 188.78 C414.9 147.38 382.8 113.18 315.6 113.18 L315.6 113.18 Z " />
<glyph glyph-name="nine" unicode="9" horiz-adv-x="579" d="M358.1 662 C203.7 662 74 558.9 74 404.5 C74 284 158.4 210.1 269.1 210.1 C313.71 210.1 349.76 220.93 379.44 238.49 C328.53 171.77 235.66 139.55 113.91 127.1 L165.21 -18.3 C455.71 14 602.41 195.6 602.41 409.1 C602.41 557.8 522.11 662 358.11 662 L358.1 662 Z M319.81 353.6 C280.61 353.6 249.91 378.4 249.91 420.5 C249.91 463.4 282.41 500 337.51 500 C398.51 500 423.21 447.7 423.21 385 C423.21 383.67 423.21 382.35 423.2 381.04 C394.69 362.15 363.27 353.6 319.83 353.6 L319.81 353.6 Z " />
<glyph glyph-name="colon" unicode="&#x3a;" horiz-adv-x="288" d="M307 399.3 C307 452.1 267.5 495 212.9 495 C150.3 495 88.9 439.5 88.9 374.9 C88.9 321.8 129.1 278 181.9 278 C246.7 278 307 334.7 307 399.3 L307 399.3 Z M265.2 100.3 C265.2 153.1 225.6 196 171 196 C108.5 196 47 140.5 47 75.9 C47 22.8 87.3 -21 140 -21 C204.9 -21 265.2 35.7 265.2 100.3 L265.2 100.3 Z " />
<glyph glyph-name="semicolon" unicode="&#x3b;" horiz-adv-x="294" d="M214.6 495 C151.8 495 90.4 439.6 90.4 375.1 C90.4 321.9 130.9 278 184.1 278 C249.1 278 309.4 334.6 309.4 399.1 C309.4 452 269.5 495 214.6 495 L214.6 495 Z M172.5 196 C109.8 196 48.3 140.6 48.3 76.1 C48.3 29.8 79.1 -9.89998 122.1 -19 C109.3 -67.4 87.9 -94.9 59.4 -127.7 L110.6 -174.3 C180.1 -120.7 267 -21.1 267 97.8 C267 156.2 226.9 196 172.5 196 L172.5 196 Z " />
<glyph glyph-name="less" unicode="&#x3c;" horiz-adv-x="586" d="M54 165 L543.4 20 L563.5 160.5 L192.7 256.5 L589.8 355 L612 506 L82.2 361 L54 165 Z " />
<glyph glyph-name="equal" unicode="&#x3d;" horiz-adv-x="590" d="M92.4 301.7 L580.7 301.7 L598.8 428.2 L110.4 428.2 L92.4 301.7 Z M60 72.8 L548.4 72.8 L566.5 199.3 L78.1 199.3 L60 72.8 Z " />
<glyph glyph-name="greater" unicode="&#x3e;" horiz-adv-x="586" d="M576.7 165 L604.9 361 L115.5 506 L95.4 365.5 L465.2 270.5 L68 171 L47 20 L576.7 165 Z " />
<glyph glyph-name="question" unicode="&#x3f;" horiz-adv-x="508" d="M542.7 495.2 C542.7 603 443.9 671.4 332.3 671.4 C221.1 671.4 150.7 627.2 106 576.2 L187.6 464.4 C212.5 491.6 247.2 522.4 293.4 522.4 C334.2 522.4 363.7 503.1 363.7 467.3 C363.7 432 334.2 398.6 270.6 398.6 L218.8 398.6 L196.5 240.6 L344.3 240.6 L352 296.1 C441.5 307.8 542.7 371.8 542.7 495.1 L542.7 495.2 Z M134.1 74.6 C134.1 21.8 173.7 -21.1 228.2 -21.1 C290.8 -21.1 352.3 34.4 352.3 99 C352.3 152.1 312 195.9 259.2 195.9 C194.4 195.9 134.1 139.2 134.1 74.6 L134.1 74.6 Z " />
<glyph glyph-name="at" unicode="&#x40;" horiz-adv-x="907" d="M553.9 665 C284.1 665 63 507 63 206.6 C63 -22.4 218.5 -130.4 396.7 -130.4 C472.2 -130.4 538.8 -117.4 574.8 -99 L547.1 25.9 C505.6 6.89999 470.5 -2.8 414.5 -2.8 C308.3 -2.8 201.8 65.2 201.8 217.9 C201.8 442.9 358 539 536.9 539 C694.2 539 782 449.5 782 326.5 C782 241.6 749.3 178.2 711.7 178.2 C688.4 178.2 675.9 193.4 679.9 224 L690.9 304 C709.1 429.5 649.3 481.6 506.6 481.6 C437 481.6 380.7 463.4 351 449.4 L361.8 342.5 C387 352.1 427.9 364 476.7 364 C539 364 549.6 344 546.9 322 L545.9 314 L488.2 314 C374.7 314 297.1 267.7 297.1 174.6 C297.1 100 357.1 69.9 417.9 69.9 C472.2 69.9 516.6 95.8 554.2 142.7 C562.5 98.6 600.6 50.7 680.8 50.7 C861.1 50.7 917.7 219.7 917.7 344.5 C917.7 539.5 757.5 665 553.9 665 L553.9 665 Z M474.2 166.4 C455.1 166.4 444.5 177.1 444.5 197.2 C444.5 221.9 463.1 241.9 493.9 242 L536.6 242 L535.1 231.4 C526.1 179.9 499 166.4 474.2 166.4 L474.2 166.4 Z " />
<glyph glyph-name="A" unicode="A" horiz-adv-x="631" d="M454.5 0 L633.5 0 L496.7 642 L317.1 642 L-6.00002 0 L180.1 0 L228.57 103 L434.4 103 L454.5 0 Z M298.69 252 L348.9 358.7 L374.53 414.12 L384.5 358.7 L405.32 252 L298.69 252 Z " />
<glyph glyph-name="B" unicode="B" horiz-adv-x="575" d="M474.35 322.03 C539.85 345.29 591.4 392.92 591.4 488.21 C591.4 577.41 516.5 642.01 359.2 642.01 L146.3 642.01 L56 0.00999451 L294.4 0.00999451 C507.1 0.00999451 576.5 67.31 576.5 187.51 C576.5 254.92 539.26 298.62 474.35 322.03 L474.35 322.03 Z M353.8 500 C391 500 414.6 482.8 414.6 449.2 C414.6 414.4 388.4 390 338.4 390 L290.86 390 L306.33 500 L353.8 500 Z M312.7 142 L255.97 142 L271.58 253 L328.89 253 C375.89 253 393.99 231.6 393.99 200.8 C393.99 165.4 372.59 142 312.69 142 L312.7 142 Z " />
<glyph glyph-name="C" unicode="C" horiz-adv-x="572" d="M453.2 662 C216.7 662 66 504.8 66 269.2 C66 108.3 180.7 -18 359.9 -18 C461.2 -18 530.9 11 576.6 46 L498.4 198 C469.3 173.4 434.8 156 385.2 156 C308.2 156 264.1 205.1 264.1 290.9 C264.1 411 336.2 490 434.6 490 C466.2 490 491.8 482.5 522 458 L639.5 601 C601.8 634.3 541.9 662 453.2 662 L453.2 662 Z " />
<glyph glyph-name="D" unicode="D" horiz-adv-x="652" d="M361.5 642 L145.3 642 L55 0 L270.5 0 C532.7 0 674.3 134.4 674.3 363.3 C674.3 540.1 550.2 642 361.5 642 L361.5 642 Z M305.4 171 L259.05 171 L301.25 471 L347.1 471 C424.7 471 473.5 439 473.5 353.5 C473.5 237.7 410.5 171 305.4 171 L305.4 171 Z " />
<glyph glyph-name="E" unicode="E" horiz-adv-x="520" d="M542.6 483 L565.5 642 L145.3 642 L55 0 L483.7 0 L506.5 159 L257.74 159 L269.47 244 L482.1 244 L504.6 401 L291.14 401 L302.46 483 L542.6 483 Z " />
<glyph glyph-name="F" unicode="F" horiz-adv-x="504" d="M537.2 480 L560.4 642 L146.2 642 L56 0 L236 0 L264.57 205 L473.6 205 L496.5 364 L286.73 364 L302.9 480 L537.2 480 Z " />
<glyph glyph-name="G" unicode="G" horiz-adv-x="631" d="M388.5 393 L365 229 L451.31 229 L440.87 154.52 C425.86 152.12 408.98 151 389.5 151 C309.2 151 265.1 201.9 265.1 290.9 C265.1 411 337.2 490 435.6 490 C467.2 490 501.7 484.5 536.5 460 L649.4 603 C611.7 636.3 542.9 662 454.2 662 C217.7 662 67 504.8 67 269.2 C67 108.3 178 -18 365.2 -18 C471.3 -18 536.5 2.60002 598.8 34 L649.7 393 L388.5 393 Z " />
<glyph glyph-name="H" unicode="H" horiz-adv-x="659" d="M514 642 L480.7 405 L292.96 405 L326.3 642 L146.3 642 L56 0 L236 0 L269.76 240 L457.52 240 L423.8 0 L603.8 0 L694 642 L514 642 Z " />
<glyph glyph-name="I" unicode="I" horiz-adv-x="422" d="M450.5 483 L473.4 642 L128.3 642 L105.5 483 L188.54 483 L142.97 159 L60.91 159 L38.01 0 L383.11 0 L405.91 159 L322.87 159 L368.44 483 L450.5 483 Z " />
<glyph glyph-name="J" unicode="J" horiz-adv-x="452" d="M490.6 642 L200.7 642 L177.9 483 L288.2 483 L248.6 202 C244.3 170 224.9 151 195.7 151 C162.2 151 148.1 170 130.9 195.5 L14 63.9 C57.1 3.59999 118.4 -18 195.9 -18 C342.8 -18 409.4 62.7 429.6 207 L490.6 642 Z " />
<glyph glyph-name="K" unicode="K" horiz-adv-x="619" d="M512.4 227.9 L441.89 359.08 L706.9 642 L493 642 L294.63 417.31 L326.2 642 L146.2 642 L56 -1.52588e-05 L236 -1.52588e-05 L259.02 163.85 L308.12 216.27 L354.4 130 C423.9 0.499985 484.3 -6.00002 595.9 -6.00002 L620.1 162.7 C566.3 162.7 537.5 181.2 512.4 227.9 L512.4 227.9 Z " />
<glyph glyph-name="L" unicode="L" horiz-adv-x="493" d="M259.11 162 L326.2 642 L146.2 642 L56 0 L471.9 0 L495.1 162 L259.11 162 Z " />
<glyph glyph-name="M" unicode="M" horiz-adv-x="778" d="M610 642 L436.4 277 L423.31 247.73 L417.4 277 L340.7 642 L146.2 642 L56 0 L220.6 0 L258.6 274 L266.83 361 L282.5 275 L326 51 L474.4 51 L572 275 L615.1 372.2 L597.5 274 L559.6 0 L723.1 0 L813.3 642 L610 642 Z " />
<glyph glyph-name="N" unicode="N" horiz-adv-x="670" d="M523.6 642 L480.5 330 L476 271.5 L456.7 320 L318.1 642 L145.2 642 L55 0 L235.1 0 L275.9 297 L278.69 359.22 L299.9 307 L439.1 0 L613.5 0 L703.7 642 L523.6 642 Z " />
<glyph glyph-name="O" unicode="O" horiz-adv-x="707" d="M444.7 662 C224.4 662 64.4 485.1 64.4 262.5 C64.4 88.9 178.6 -18 351 -18 C569.3 -18 731.4 157.2 731.4 378.8 C731.4 555 618.2 662 444.8 662 L444.7 662 Z M422.3 499 C494.4 499 537.6 450.3 537.8 364.2 C537.8 253.8 481.1 145 373.5 145 C301 145 258.1 196.4 258.1 282 C258.1 391.8 314.8 499 422.3 499 L422.3 499 Z " />
<glyph glyph-name="P" unicode="P" horiz-adv-x="585" d="M360.9 642 L145.3 642 L55 0 L235 0 L260.04 178 L305.7 178 C500.5 178 627.2 269.3 627.2 436.1 C627.2 567 522 642 360.9 642 L360.9 642 Z M327.5 333 L281.84 333 L303.5 487 L348.2 487 C414.5 487 440.6 460.9 440.6 415.4 C440.6 371.5 411.6 333 327.5 333 L327.5 333 Z " />
<glyph glyph-name="Q" unicode="Q" horiz-adv-x="712" d="M731.3 378.8 C731.3 555 618.1 662 444.7 662 C224.4 662 64.4 485.1 64.4 262.5 C64.4 88.9 178.6 -18 351 -18 L351.28 -18 C392.35 -111.04 470.96 -168.9 618.3 -168.9 L640.5 -10.7 C578.09 -10.7 539.76 -8.98999 505.65 14.2 C641.59 74.62 731.4 213.86 731.4 378.8 L731.3 378.8 Z M258.1 282 C258.1 391.8 314.8 499 422.3 499 C494.4 499 537.6 450.3 537.8 364.2 C537.8 253.8 481.1 145 373.5 145 C301 145 258.1 196.4 258.1 282 L258.1 282 Z " />
<glyph glyph-name="R" unicode="R" horiz-adv-x="595" d="M489.4 209.5 L477.42 241.5 C561.82 280.29 616.9 350.36 616.9 439 C616.9 571.2 523.1 642 364.5 642 L146.2 642 L56 0 L236 0 L265.22 208 L290.25 208 L331.7 106.2 C378.7 -9.2 472.7 -6 556.8 -6 L581 162.7 C527.4 162.7 502.6 174.2 489.4 209.5 L489.4 209.5 Z M305.13 492 L362.2 492 C408.9 492 430.3 465.2 430.3 429.6 C430.3 389.2 401.3 355 343.4 355 L285.88 355 L305.13 492 Z " />
<glyph glyph-name="S" unicode="S" horiz-adv-x="543" d="M381.4 662 C195.6 662 95 573 95 433.8 C95 327.3 172.5 280.6 241.6 253 C308 226.5 372.4 216.2 372.4 182.4 C372.4 159.3 346.7 147 297.1 147 C244.8 147 187.6 163.2 135.6 206.2 L24 68.9 C74.4 14.5 163.7 -18 269.3 -18 C461.3 -18 548.2 76.6 548.2 206.2 C548.2 323 465.6 365 388.6 397 C328.4 422 270.9 430.6 270.9 460.3 C270.9 482.4 294.3 497 343.2 497 C410.3 497 465 472.3 493.9 446 L595.2 592 C565.8 622.7 493.4 662 381.4 662 L381.4 662 Z " />
<glyph glyph-name="T" unicode="T" horiz-adv-x="544" d="M614.5 642 L109.7 642 L87 483 L249.71 483 L181.9 0 L361.9 0 L429.31 483 L591.8 483 L614.5 642 Z " />
<glyph glyph-name="U" unicode="U" horiz-adv-x="647" d="M324.9 -18 C531.1 -18 609.3 69.4 637 266 L690 642 L513 642 L460 263 C449.9 190.9 422.4 149 348.1 149 C292.5 149 255.5 187.7 266 263 L319 642 L139 642 L85 259 C59.4 77.5 160.1 -18 324.9 -18 L324.9 -18 Z " />
<glyph glyph-name="V" unicode="V" horiz-adv-x="608" d="M504 642 L340.4 208.2 L336.35 198 L335 208.2 L284.2 642 L89 642 L208.8 0 L398.7 0 L697.7 642 L504 642 Z " />
<glyph glyph-name="W" unicode="W" horiz-adv-x="944" d="M838.5 642 L716.2 269.1 L695.29 210.88 L690.2 269.1 L650.4 606 L467.8 606 L340.6 269.1 L321.14 212.85 L316.5 269.1 L291.7 642 L90 642 L180.4 0 L385 0 L513.5 319 L529.55 365.86 L532.9 319.4 L577.4 0 L764 0 L1031.1 642 L838.5 642 Z " />
<glyph glyph-name="X" unicode="X" horiz-adv-x="620" d="M696.5 642 L482.9 642 L373.85 462.66 L309.3 642 L91.7 642 L231.52 318.95 L-1.00002 0 L217.5 0 L340 183.38 L413 0 L628.3 0 L470.01 323.19 L696.5 642 Z " />
<glyph glyph-name="Y" unicode="Y" horiz-adv-x="630" d="M720.5 642 L511 642 L404 467 L370.85 415.31 L354.4 467 L294.2 642 L85 642 L258.36 232.97 L225.4 0 L405.4 0 L438.66 235.1 L720.5 642 Z " />
<glyph glyph-name="Z" unicode="Z" horiz-adv-x="567" d="M591.1 505.8 L610.7 642 L130.9 642 L107.8 481 L360.21 481 L329 450.1 L49.3 135.9 L30 1.52588e-05 L538.7 1.52588e-05 L561.8 161 L289.96 161 L321.4 193.6 L591.1 505.8 Z " />
<glyph glyph-name="bracketleft" unicode="&#x5b;" horiz-adv-x="315" d="M376.1 586 L393.6 708 L152.2 708 L24 -202 L265.4 -202 L282.7 -80 L192.62 -80 L286.28 586 L376.1 586 Z " />
<glyph glyph-name="backslash" unicode="&#x5c;" horiz-adv-x="590" d="M540.1 -185 L259.6 662 L117 662 L397.5 -185 L540.1 -185 Z " />
<glyph glyph-name="bracketright" unicode="&#x5d;" horiz-adv-x="309" d="M118.2 708 L100.9 586 L197.07 586 L103.32 -80 L7.48999 -80 L-10.01 -202 L226.29 -202 L354.49 708 L118.2 708 Z " />
<glyph glyph-name="asciicircum" unicode="&#x5e;" horiz-adv-x="635" d="M468.3 332.1 L652.2 332.1 L496.6 696.5 L334.7 696.5 L76 332.1 L269.1 332.1 L398.7 515.7 L468.3 332.1 Z " />
<glyph glyph-name="underscore" unicode="&#x5f;" horiz-adv-x="466" d="M5 -136.1 L422.1 -136.1 L438 -24.1 L20.9 -24.1 L5 -136.1 Z " />
<glyph glyph-name="grave" unicode="&#x60;" horiz-adv-x="342" d="M329.9 513.5 L399.2 596.1 L224.3 759.3 L121 632.6 L329.9 513.5 Z " />
<glyph glyph-name="a" unicode="a" horiz-adv-x="558" d="M534.4 121 L576.4 421 C538.6 451.2 465.1 490 358.5 490 C168.6 490 53 372.7 53 189.4 C53 56.5 124.9 -18 229.9 -18 C280.37 -18 319.28 -3.37 349.37 17.77 C350.9 3.29001 353.87 -9.29999 358.3 -21 L536.2 4.20001 C526.7 33.8 527.9 74.2 534.4 121 L534.4 121 Z M234.9 212.3 C234.9 289.6 272.5 339 336.7 339 C355.82 339 370.98 337.57 384.22 330.88 L362.2 170.64 C351.43 151.33 331.16 132 295.9 132 C253.8 132 234.9 165.6 234.9 212.3 L234.9 212.3 Z " />
<glyph glyph-name="b" unicode="b" horiz-adv-x="556" d="M396.8 490 C349.91 490 312.9 478.19 283.6 460.46 L311.21 657 L131.21 657 L43.01 29.1 C97.51 -6 197.51 -18 250.41 -18 C447.21 -18 570.21 98.1 570.21 287.5 C570.21 417.1 507.11 490 396.81 490 L396.8 490 Z M286.01 133 C269.33 133 253.06 133.72 238.53 139.58 L261.11 300.3 C271.9 320.01 292.32 339.98 330.81 339.98 C374.91 339.98 388.61 309.18 388.61 266.68 C388.61 180.28 341.01 132.98 286.01 132.98 L286.01 133 Z " />
<glyph glyph-name="c" unicode="c" horiz-adv-x="451" d="M488.2 456.1 C458 474.9 408.3 490 351 490 C185.9 490 52 379.8 52 194.9 C52 59.7 134.9 -18 283.6 -18 C357.7 -18 414.1 9.20003 453 36.9 L404.6 162.7 C377.7 138.5 340.8 129 316.9 129 C259.5 129 234.3 168 234.3 219.6 C234.3 293.3 281.1 341 347.8 341 C378.3 341 405.2 333.7 430.8 315.1 L488.2 456.1 Z " />
<glyph glyph-name="d" unicode="d" horiz-adv-x="559" d="M534.4 121 L609.4 657 L429.4 657 L405.34 485.63 C389.19 488.6 370.29 490 347.01 490 C170.21 490 53.01 372.8 53.01 189.4 C53.01 56.5 124.71 -18 229.71 -18 C280.31 -18 319.32 -3.29999 349.48 17.93 C351.06 3.38 354.02 -9.25999 358.4 -21.01 L536.3 4.19 C526.7 33.79 527.9 74.19 534.4 120.99 L534.4 121 Z M234.9 212.29 C234.9 289.59 272.6 338.99 336.7 338.99 C355.59 338.99 370.59 337.61 383.66 331.22 L360.78 168.3 C349.65 149.79 329.55 131.98 295.7 131.98 C253.7 131.98 234.9 165.58 234.9 212.28 L234.9 212.29 Z " />
<glyph glyph-name="e" unicode="e" horiz-adv-x="511" d="M317.3 122 C274.45 122 249.3 134.26 237.45 159.85 C360.66 164.08 529.7 200.13 529.7 345.8 C529.7 426.6 467.1 490 345.4 490 C172.5 490 52 365.7 52 193.2 C52 54.7 142.7 -18 269.8 -18 C376.8 -18 446.3 10.9 493.4 40.5 L448.8 161.4 C407 136.6 363.1 122 317.3 122 L317.3 122 Z M321 357 C346.2 357 359 343.5 359 324.4 C359 275.95 290.5 264.13 234.38 262.21 C247.29 324.64 282.24 357 321 357 L321 357 Z " />
<glyph glyph-name="f" unicode="f" horiz-adv-x="369" d="M386.9 528.5 C402.1 528.5 414.9 525.7 434.2 514 L503.2 637.9 C477.6 655.2 439.9 668 384.3 668 C251.18 668 174.97 598.38 147.8 464 L88 464 L67 317 L126.26 317 L81.7 0 L261.7 0 L306.5 317 L399.2 317 L420.2 464 L327.28 464 L327.7 467 C333.2 506 354.5 528.5 386.9 528.5 L386.9 528.5 Z " />
<glyph glyph-name="g" unicode="g" horiz-adv-x="555" d="M575.5 421 C537.7 451.2 464 490 357.4 490 C168 490 53.2 375.4 53.2 198.7 C53.2 71.4 125.8 0 231.5 0 C276.33 0 312.04 11.55 340.54 28.95 L336.2 -2 C330.7 -42 303.8 -66 239.1 -66 C191.3 -66 147.5 -51 109.5 -31.8 L38 -160.7 C88.8 -189 152.1 -205 220.3 -205 C374.1 -205 497.2 -138 521.6 36 L575.6 421 L575.5 421 Z M297.4 150 C254.4 150 235.1 180.3 235.1 222.1 C235.1 292.5 272 339 335.7 339 C354.68 339 369.72 337.59 382.89 331.02 L362.68 186.88 C351.64 168.17 331.53 150 297.4 150 L297.4 150 Z " />
<glyph glyph-name="h" unicode="h" horiz-adv-x="556" d="M403 490 C371.13 490 327.21 481.87 283.39 451.71 L312.2 656.99 L132.3 656.99 L40 -0.0100098 L220 -0.0100098 L260.88 291.27 C278.91 316.29 300.58 329.99 325.9 329.99 C368.8 329.99 383.6 304.59 376 249.99 L341 -0.0100098 L521 -0.0100098 L559 270.99 C579.5 417.19 531 489.99 403 489.99 L403 490 Z " />
<glyph glyph-name="i" unicode="i" horiz-adv-x="286" d="M342.4 644.3 C342.4 694.8 303.9 736 251.1 736 C189.7 736 131.4 682.8 131.4 620.7 C131.4 569.4 169.7 528.4 221.5 528.4 C284.2 528.4 342.4 581.7 342.4 644.3 L342.4 644.3 Z M311.3 472 L87.5 472 L65 314.3 L108.8 314.3 L65 0 L245 0 L311.3 472 Z " />
<glyph glyph-name="j" unicode="j" horiz-adv-x="280" d="M336.5 644.3 C336.5 694.8 298 736 245.2 736 C183.8 736 125.5 682.8 125.5 620.7 C125.5 569.4 163.8 528.4 215.6 528.4 C278.3 528.4 336.5 581.7 336.5 644.3 L336.5 644.3 Z M310.7 472 L86.8 472 L64.2 314.3 L108.7 314 L64.7 0 C59.3 -40.1 33.8 -56 2.60001 -56 C-13.1 -56 -29.3 -52.1 -44.8 -38.2 L-121.6 -161.6 C-89.6 -193.7 -39.3 -204 5.50002 -204 C146.3 -204 226.5 -128 245.7 8.99998 L310.7 472 Z " />
<glyph glyph-name="k" unicode="k" horiz-adv-x="559" d="M462.9 197.9 L409.18 282.04 L619.6 472 L400 471.8 L266.37 330.08 L312.3 657 L132.3 657 L40 0 L220 0 L237.9 127.43 L281.79 167.06 L330.89 94 C366.99 40.5 389.29 -6 535.79 -6 L556.09 138.9 C512.79 138.9 489.19 156.7 462.89 197.9 L462.9 197.9 Z " />
<glyph glyph-name="l" unicode="l" horiz-adv-x="313" d="M311 657 L129 657 L60 168 C37.9 11.5 124.8 -12 219.7 -12 C245.8 -12 281.2 -8.3 303.6 1.89999 L324.3 146.1 C314.3 140.9 295.6 138 284.5 138 C253.8 138 239.9 152.6 245 190 L311 657 Z " />
<glyph glyph-name="m" unicode="m" horiz-adv-x="839" d="M694 490 C652.88 490 593.1 476.47 538.85 419.55 C516.38 466.55 471.12 490 402 490 C368.58 490 322.83 481.06 277.74 447.15 C276.55 466.5 273.18 482.47 267.6 497.19 L89.8 471.99 C99.4 442.39 98.5 401.79 92 354.99 L42 -0.0100098 L222 -0.0100098 L263.31 292.52 C280.31 316.75 300.01 329.99 324.9 329.99 C358.4 329.99 375.6 304.59 368 249.99 L333 -0.0100098 L513 -0.0100098 L551 270.99 C551.8 276.69 552.5 282.28 553.09 287.75 C570.55 314.86 590.57 330 616.91 330 C650.41 330 667.61 304.6 660.01 250 L625.01 -1.52588e-05 L805.01 -1.52588e-05 L843.01 271 C863.51 417.2 815.81 490 694.01 490 L694 490 Z " />
<glyph glyph-name="n" unicode="n" horiz-adv-x="558" d="M405 490 C371.29 490 324.09 480.91 277.79 446.27 C276.65 466.02 273.26 482.26 267.6 497.21 L89.8 472.01 C99.4 442.41 98.5 401.81 92 355.01 L42 0.00999451 L222 0.00999451 L263.19 291.73 C281.16 316.47 302.73 330.01 327.9 330.01 C370.8 330.01 385.6 304.61 378 250.01 L343 0.00999451 L523 0.00999451 L561 271.01 C581.5 417.21 533 490.01 405 490.01 L405 490 Z " />
<glyph glyph-name="o" unicode="o" horiz-adv-x="549" d="M288.8 -18 C445.2 -18 565.4 93.6 565.4 277.1 C565.4 416.3 465.9 490 328.5 490 C173.1 490 50.9 380.1 50.9 200.2 C50.9 54.5 149.9 -18 288.8 -18 L288.8 -18 Z M296.3 126.7 C255.9 126.7 232.2 153.8 232.2 208.3 C232.2 282.2 258.9 348.4 321.4 348.4 C362.3 348.4 384.4 321.7 384.4 265 C384.4 190.9 358.2 126.7 296.3 126.7 L296.3 126.7 Z " />
<glyph glyph-name="p" unicode="p" horiz-adv-x="558" d="M399.1 490 C347.44 490 307.77 475.67 277.19 454.88 C275.67 470.83 272.51 484.48 267.69 497.19 L89.79 471.99 C99.49 442.39 98.49 401.79 91.99 354.99 L15.99 -185.01 L195.99 -185.01 L220.14 -13.73 C236.23 -16.64 255.05 -18.02 278.19 -18.02 C446.29 -18.02 572.39 97.78 572.39 286.68 C572.39 416.78 507.89 489.98 399.09 489.98 L399.1 490 Z M288.29 132.98 C271.29 132.98 255.81 134.38 241.94 140.92 L264.76 302.78 C275.9 321.65 296.22 339.98 333.09 339.98 C377.19 339.98 390.89 309.18 390.89 266.68 C390.89 180.28 343.39 132.98 288.29 132.98 L288.29 132.98 Z " />
<glyph glyph-name="q" unicode="q" horiz-adv-x="555" d="M357.4 490 C167.6 490 52 372.7 52 189.4 C52 56.5 123.9 -18 228.8 -18 C273.65 -18 309.38 -6.42999 337.9 11 L310.71 -182.89 L490.71 -182.89 L575.41 421.01 C537.71 451.21 464.01 490.01 357.41 490.01 L357.4 490 Z M294.81 132.01 C252.71 132.01 233.91 165.61 233.91 212.31 C233.91 289.61 271.41 339.01 335.71 339.01 C354.64 339.01 369.65 337.61 382.79 331.08 L360.03 168.8 C348.98 150.13 328.88 132.01 294.8 132.01 L294.81 132.01 Z " />
<glyph glyph-name="r" unicode="r" horiz-adv-x="399" d="M411.5 490 C366.83 490 320.14 468.07 278.2 423.54 C278.86 454.2 275.4 476.89 267.7 497.2 L89.9 472 C99.5 442.4 98.5 401.8 92 355 L42 0 L222 0 L258.19 256.26 C281.69 299.28 323.46 317.5 358.9 317.5 C381.3 317.5 395 313.6 407.4 307.6 L468.9 483.4 C452.7 488 432.4 490 411.5 490 L411.5 490 Z " />
<glyph glyph-name="s" unicode="s" horiz-adv-x="472" d="M328.5 490 C184.1 490 74.1 429 74.1 308 C74.1 153.3 285.1 186.7 285.1 132.2 C285.1 119.2 274.5 112 249.8 112 C189.9 112 131.8 132.2 92.8 158 L21 39 C50.2 12 123.2 -18 227.6 -18 C384.8 -18 468.4 56 468.4 168 C468.4 320.6 246.3 285 246.3 335.9 C246.3 350.4 261.4 358 304.5 358 C357.7 358 422 337.7 451 319.5 L501.7 450.9 C468.5 466.5 405.9 490 328.5 490 L328.5 490 Z " />
<glyph glyph-name="t" unicode="t" horiz-adv-x="459" d="M319.2 316 L471.5 316 L492.7 464 L339.86 464 L357.6 591 L174.6 572 L159.47 464 L81.2 464 L60 316 L138.75 316 L117.6 165 C98.9 31.8 179.5 -18 292.9 -18 C366.8 -18 418.8 -5.39999 465.1 29.6 L414.6 154.7 C392.6 138.6 375.7 132 349.6 132 C310.6 132 296.1 150 301.6 190 L319.2 316 Z " />
<glyph glyph-name="u" unicode="u" horiz-adv-x="549" d="M523 121 L572 472 L393 472 L351.34 175.2 C334.99 153.03 311.75 142 291.19 142 C250.89 142 238.49 167.4 245.99 222 L280.99 472 L100.99 472 L62.99 201 C42.49 54.8 91.19 -18 209.49 -18 C249.77 -18 294.9 -5.5 337.51 31.78 C338.31 11.17 341.48 -5.68001 347.28 -21 L524.98 4.19998 C515.48 33.8 516.38 74.2 522.98 121 L523 121 Z " />
<glyph glyph-name="v" unicode="v" horiz-adv-x="526" d="M394.8 472 L279.68 129.7 L273 472 L73 472 L149.3 0 L369.6 0 L589 472 L394.8 472 Z " />
<glyph glyph-name="w" unicode="w" horiz-adv-x="770" d="M637.5 472 L538.81 144.8 L523.81 472 L384.01 472 L276.01 147.66 L270.22 472 L70.02 472 L143.32 0 L340.42 0 L422.79 253.44 L430.52 0 L627.72 0 L831.72 472 L637.5 472 Z " />
<glyph glyph-name="x" unicode="x" horiz-adv-x="545" d="M607.6 472 L406.6 472 L322.13 352.94 L269.7 472 L68.8 472 L198.81 236.09 L1.00002 0 L200.3 0 L282.57 117.95 L339.9 0 L543.9 0 L404.46 233.22 L607.6 472 Z " />
<glyph glyph-name="y" unicode="y" horiz-adv-x="547" d="M392.8 472 L353.5 192.28 C337.2 170.73 314.27 160.01 294 160.01 C253.8 160.01 241.4 185.41 249 240.01 L282 472.01 L102 472.01 L66 219.01 C45.3 72.81 94 0.00999451 212.3 0.00999451 C250.18 0.00999451 292.28 11.03 332.55 43.26 L326.19 -1.99001 C320.79 -41.99 293.79 -65.99 229.09 -65.99 C181.29 -65.99 137.49 -50.99 99.49 -31.79 L27.99 -160.69 C78.79 -188.99 142.19 -204.99 210.39 -204.99 C364.19 -204.99 487.59 -138.09 511.99 36.01 L572.99 472.01 L392.8 472 Z " />
<glyph glyph-name="z" unicode="z" horiz-adv-x="477" d="M507.4 470 L104 470 L83 324 L271.78 324 L53.8 146 L33 0 L446.6 0 L467.4 146 L268.88 144.28 L487.2 328.5 L507.4 470 Z " />
<glyph glyph-name="braceleft" unicode="&#x7b;" horiz-adv-x="355" d="M335.3 708 C234.3 708 186 657.8 171.1 547 L149.1 383 C144.2 348.4 126.7 332 100.9 332 L57.1 332 L36 184 L79.8 184 C105.6 184 116.9 164.2 111.1 123 L88.1 -41 C75.9 -128.9 106.1 -202 207.1 -202 L306.4 -202 L323.8 -80 L279.4 -80 C248.5 -80 234.4 -67.6 238.1 -41 L265.1 148 C271.35 192.14 258.28 232.01 219.28 258 C265.61 283.99 289.91 323.86 296.1 368.01 L321.1 547.01 C324.7 573.61 341.9 586.01 372.8 586.01 L417.2 586.01 L434.6 708.01 L335.3 708 Z " />
<glyph glyph-name="bar" unicode="&#x7c;" horiz-adv-x="217" d="M32 -145.5 L143.3 -145.5 L261.7 694 L150.4 694 L32 -145.5 Z " />
<glyph glyph-name="braceright" unicode="&#x7d;" horiz-adv-x="353" d="M347.3 332 C321.6 332 309.6 348.5 314.4 383 L337.4 547 C349.6 635 314.4 708 218.5 708 L119.2 708 L101.9 586 L146.3 586 C177.1 586 191.1 573.6 187.4 547 L162.4 368 C156.21 323.86 169.11 283.99 207.98 258 C161.79 232.01 137.66 192.14 131.41 147.99 L104.41 -41.01 C100.71 -67.61 83.71 -80.01 52.91 -80.01 L8.50999 -80.01 L-8.99001 -202.01 L90.31 -202.01 C196.71 -202.01 241.81 -131.01 254.41 -41.01 L277.41 122.99 C283.01 164.19 300.41 183.99 326.21 183.99 L370.01 183.99 L391.11 331.99 L347.3 332 Z " />
<glyph glyph-name="asciitilde" unicode="&#x7e;" horiz-adv-x="555" d="M138.1 163.2 C162.4 190.8 186.7 209.2 219.4 209.2 C271.7 209.2 312.6 163.2 381.1 163.2 C445.3 163.2 520.5 190.6 564.7 254.8 L485.2 339.1 C460.9 311.5 431.1 293.1 403 293.1 C339.8 293.1 310.4 339.1 231.7 339.1 C169.1 339.1 106.1 311.1 58.9 247 L138.1 163.2 Z " />
<glyph glyph-name="exclamdown" unicode="&#xa1;" horiz-adv-x="265" d="M299.1 425.6 C299.1 478.5 259.5 521.4 204.9 521.4 C142.4 521.4 81 465.9 81 401.2 C81 348.2 121.2 304.4 174 304.4 C238.8 304.4 299.1 361.1 299.1 425.6 L299.1 425.6 Z M28 -151.8 L192.6 -151.8 L227.5 245 L103.7 245 L28 -151.8 Z " />
<glyph glyph-name="cent" unicode="&#xa2;" horiz-adv-x="520" d="M459.9 261.4 C428.6 231.9 390.3 214 345 214 C283.9 214 259.8 252.7 259.8 298.6 C259.8 359.3 298.3 413 370.9 413 C419.3 413 456.1 400 475.3 378.1 L537.8 513.5 C514.39 532.29 478.36 548.91 428.34 556.15 L442.8 659 L321.8 659 L307.14 554.75 C167.18 531.24 78 430.33 78 283.99 C78 170.56 141.77 94.53 239.19 70.85 L224.2 -36.02 L345.2 -36.02 L359.53 66.16 C428.21 74.85 478.85 100.24 512.09 127.98 L459.9 261.4 Z " />
<glyph glyph-name="sterling" unicode="&#xa3;" horiz-adv-x="584" d="M336.2 260.7 L462.9 260.7 L477.5 363 L335.03 363 C334.83 368.34 334.7 373.65 334.7 379 C334.7 450.2 377.3 488 432 488 C473.4 488 498.3 477.5 519.6 462.7 L638.2 598.3 C599 636.3 533.5 662 443.9 662 C268.3 662 157.7 548 157.7 396.1 C157.7 383.41 157.76 372.45 157.86 363 L95.2 363 L80.6 260.7 L157.92 260.7 C154.58 221.37 146.64 192.33 134.95 166.01 L65.81 166.01 L42.01 0.00999451 L540.61 0.00999451 L564.41 166.01 L310.74 166.01 C321.07 191 332 224.12 336.21 260.72 L336.2 260.7 Z " />
<glyph glyph-name="currency" unicode="&#xa4;" horiz-adv-x="612" d="M597.7 354 C597.7 386.56 591.43 417.31 579.9 444.9 L649.4 506.7 L560.7 610.7 L489.3 547.11 C459.37 563.66 424.5 573 386.3 573 C347.52 573 309.59 564.17 274.78 548.39 L222.3 610.7 L103.9 506.7 L153.8 447.5 C123.31 403.56 105 351.15 105 295.39 C105 263.15 111.13 232.69 122.41 205.31 L53 143.58 L141.8 39.58 L212.53 102.62 C242.62 85.79 277.77 76.28 316.31 76.28 C355.29 76.28 393.4 85.19 428.35 101.1 L480.21 39.58 L598.51 143.58 L549.16 202.18 C579.5 246.06 597.71 298.35 597.71 353.99 L597.7 354 Z M255.81 312.09 C255.81 374.89 307.71 425.89 364.71 425.89 C412.71 425.89 447.11 387.39 447.11 337.19 C447.11 274.09 390.31 223.49 336.81 223.49 C289.51 223.49 255.81 262.19 255.81 312.09 L255.81 312.09 Z " />
<glyph glyph-name="yen" unicode="&#xa5;" horiz-adv-x="692" d="M757.7 642 L552.3 642 L437 485.8 L412.12 450.89 L396.8 486.1 L325 641.5 L112 641.5 L274.97 319.2 L178.2 319.2 L167.9 246.2 L290.33 246.2 L282.97 194.2 L160.6 194.2 L150.2 121.2 L272.64 121.2 L255.5 0 L435.4 0 L452.54 121.2 L574.6 121.2 L584.9 194.2 L462.87 194.2 L470.23 246.2 L592.2 246.2 L602.5 319.2 L510.49 319.2 L757.7 642 Z " />
<glyph glyph-name="brokenbar" unicode="&#xa6;" horiz-adv-x="221" d="M105.8 364 L217.2 364 L263.7 694 L152.4 694 L105.8 364 Z M34 -145.5 L145.3 -145.5 L191.8 184.5 L80.5 184.5 L34 -145.5 Z " />
<glyph glyph-name="section" unicode="&#xa7;" horiz-adv-x="557" d="M546.9 222.3 C546.9 397.1 279.9 415 279.9 476.4 C279.9 506.2 316.2 518 357.3 518 C435.4 518 469 501.2 507.9 472.1 L604.7 586.5 C541.4 638.5 471.1 662 376.8 662 C193.8 662 100.2 583.8 100.2 472 C100.2 429.96 116.63 397.51 141.63 371.35 C101.37 346.45 74.7 300.3 74.7 249.1 C74.7 66.6 343.7 65.5 343.7 0 C343.7 -24.2 307.5 -34.3 266.4 -34.3 C188.3 -34.3 154.7 -17.5 115.7 11.6 L19 -102.8 C82.2 -154.8 152.5 -178.3 271.9 -178.3 C423 -178.3 523.2 -111.8 523.2 12.4 C523.2 45.72 510.81 72.56 491.17 94.93 C527.68 126.41 546.89 174.65 546.89 222.29 L546.9 222.3 Z M234.79 267.69 C234.79 281.68 241.11 291.65 252.71 299.65 C321.2 267.78 386.89 245.49 386.89 206.38 C386.89 193.04 381.18 182.24 369.4 172.97 C300.63 203.89 234.79 227.26 234.79 267.68 L234.79 267.69 Z " />
<glyph glyph-name="dieresis" unicode="&#xa8;" horiz-adv-x="461" d="M284.2 634.1 C284.2 675.8 252.6 709.7 209.1 709.7 C158.5 709.7 110.6 665.8 110.6 614.5 C110.6 572.1 142.4 538 184.4 538 C236.1 538 284.2 582.3 284.2 634.1 L284.2 634.1 Z M520.3 634.1 C520.3 675.8 488.7 709.7 445.3 709.7 C394.7 709.7 346.7 665.8 346.7 614.5 C346.7 572.1 378.2 538.4 420.9 538.4 C472.5 538.4 520.3 582.3 520.3 634.1 L520.3 634.1 Z " />
<glyph glyph-name="copyright" unicode="&#xa9;" horiz-adv-x="763" d="M778.3 369.1 C778.3 543.3 659.5 673 477.2 673 C250 673 70.6 489.6 70.6 251.9 C70.6 70.7 195.5 -56 374.7 -56 C618.1 -56 778.3 137.9 778.3 369.1 L778.3 369.1 Z M680.3 353.2 C680.3 184.3 553.1 38 388 38 C257.5 38 168.6 127.6 168.6 265.2 C168.6 432.5 293.6 579 464 579 C590.3 579 680.3 491 680.3 353.2 L680.3 353.2 Z M591.5 480 C558.7 505.5 519 518.6 477.3 518.6 C339.2 518.6 228.7 424.6 228.7 272.3 C228.7 160.6 297 96.3 417.7 96.3 C486.6 96.3 533.3 124.1 563.1 149.5 L512.8 247.2 C491 227.7 472.9 217.8 443.6 217.8 C400.6 217.8 375.5 245.7 375.5 292.5 C375.5 360.6 414.3 397.1 469.9 397.1 C495.2 397.1 514.5 389.3 535.6 368.5 L591.5 480 Z " />
<glyph glyph-name="ordfeminine" unicode="&#xaa;" horiz-adv-x="389" d="M261.1 675.8 C196.9 675.8 153.7 661 128.7 650.1 L145.1 553.1 C165.2 560.1 202.6 570.5 238.8 570.5 C279 570.5 296.3 554.5 293.9 540 L292.9 534 L255.2 534 C162.8 534 87 510.1 87 424.9 C87 362.9 139.1 343.6 181.7 343.6 C212.68 343.6 245.28 356.43 273.36 380.97 C272.94 364.7 273.97 350.79 277.2 340.11 L407.2 360.91 C401.5 387.21 407 419.01 410.9 447.01 L418.9 503.01 L418.47 503.01 L422.9 534.01 C438.3 642.01 377.2 675.81 261.1 675.81 L261.1 675.8 Z M229.7 431.21 C215 431.21 207.2 440.11 207.2 451.91 C207.2 468.21 219.5 484.81 250.9 485.01 L283.33 485.01 C273.95 450.47 256.44 431.21 229.7 431.21 L229.7 431.21 Z " />
<glyph glyph-name="guillemotleft" unicode="&#xab;" horiz-adv-x="521" d="M59 252.7 L192.2 66.3 L284.7 132.8 L208.3 246.9 L324.2 366.8 L244.9 439.1 L59 252.7 Z M275.2 252.7 L408.4 66.3 L500.9 132.8 L424.5 246.9 L540.4 366.8 L461.1 439.1 L275.2 252.7 Z " />
<glyph glyph-name="registered" unicode="&#xae;" horiz-adv-x="763" d="M477.2 673 C250 673 70.6 489.6 70.6 251.9 C70.6 70.7 195.5 -56 374.7 -56 C618.1 -56 778.3 137.9 778.3 369.1 C778.3 543.3 659.5 673 477.2 673 L477.2 673 Z M388 38 C257.5 38 168.6 127.6 168.6 265.2 C168.6 432.5 293.6 579 464 579 C590.3 579 680.3 491 680.3 353.2 C680.3 184.3 553.1 38 388 38 L388 38 Z M464 519 L310.3 519 L254.7 123 L360.9 123 L378.2 246 L399.25 246 L437.4 178 C464 130.6 489.7 118 564.2 118 L576.9 207.6 C547.5 207.6 540.1 221.9 527.4 244 L515.79 264.25 C569.54 288.21 609.8 334.77 609.8 398 C609.8 479.6 553.1 519 464 519 L464 519 Z M403.3 425 L455.7 425 C487.8 425 499.4 410.6 499.4 389.6 C499.4 361.4 486.7 341 444.2 341 L391.5 341 L403.3 425 Z " />
<glyph glyph-name="macron" unicode="&#xaf;" horiz-adv-x="404" d="M115 572.7 L447.5 572.7 L466.3 704.7 L133.8 704.7 L115 572.7 Z " />
<glyph glyph-name="degree" unicode="&#xb0;" horiz-adv-x="344" d="M228.6 385.5 C320 385.5 399 455.4 399 555.8 C399 630.6 343.4 690 267.9 690 C173.5 690 95 618.7 95 520.1 C95 444.6 149.4 385.5 228.6 385.5 L228.6 385.5 Z M238.8 479.4 C210.6 479.4 189.4 503.1 189.4 531.4 C189.4 567.5 216.1 596 255.1 596 C283.1 596 304.6 574.2 304.6 544.7 C304.6 507.3 276.1 479.4 238.8 479.4 L238.8 479.4 Z " />
<glyph glyph-name="plusminus" unicode="&#xb1;" horiz-adv-x="580" d="M415.35 428.6 L436.6 578.7 L298.8 578.7 L277.55 428.6 L106.2 428.6 L88.1 302.1 L259.65 302.1 L238.4 152 L376.2 152 L397.45 302.1 L576.6 302.1 L594.7 428.6 L415.35 428.6 Z M40 -37.9 L528.5 -37.9 L546.6 88.6 L58.1 88.6 L40 -37.9 Z " />
<glyph glyph-name="acute" unicode="&#xb4;" horiz-adv-x="342" d="M149.7 513.5 L384.4 628.9 L312.4 761.8 L99.1 602.3 L149.7 513.5 Z " />
<glyph glyph-name="paragraph" unicode="&#xb6;" horiz-adv-x="685" d="M498.8 642 L354.3 642 C188.4 642 89 540.1 89 413.8 C89 311.4 158.7 237.3 280.8 237.3 L282.1 237.3 L251.5 20 L411.4 20 L498.8 642 Z M552.8 642 L469.6 50 C459.2 -23.8 420.3 -56.7 340.4 -56.7 L319.1 -205.7 C511.1 -205.7 602.1 -145.5 629.6 50 L712.8 642 L552.8 642 Z " />
<glyph glyph-name="periodcentered" unicode="&#xb7;" horiz-adv-x="241" d="M154.9 251.8 C209.5 251.8 260 299.5 260 353.9 C260 398.3 227.5 434 180.5 434 C128 434 77 387.6 77 333.2 C77 288.6 110.6 251.8 154.9 251.8 L154.9 251.8 Z " />
<glyph glyph-name="cedilla" unicode="&#xb8;" horiz-adv-x="277" d="M82.8 11 L39.5 -74 C73.3 -74.9 97.9 -81.3 97.9 -104.1 C97.9 -126.7 79.5 -137 59.2 -137 C41.2 -137 27.5 -132 16.1 -123 L-30 -202 C-12.6 -219.4 33.9 -233 79.1 -233 C145.7 -233 231.8 -204.1 231.8 -112.4 C231.8 -60.6 190.3 -36 152.1 -36 L175.3 11 L82.8 11 Z " />
<glyph glyph-name="ordmasculine" unicode="&#xba;" horiz-adv-x="406" d="M250.6 336.8 C371.5 336.8 456.2 413.2 456.2 531.4 C456.2 622.5 396.3 675.8 298.2 675.8 C178.3 675.8 92 600.2 92 480.2 C92 388.3 152.6 336.8 250.6 336.8 L250.6 336.8 Z M265.1 439.3 C237.4 439.3 226.6 458.7 226.6 489 C226.6 533.5 239.1 573.3 283.7 573.3 C311.1 573.3 321.5 554.1 321.5 523.7 C321.5 480.3 310.7 439.3 265.1 439.3 L265.1 439.3 Z " />
<glyph glyph-name="guillemotright" unicode="&#xbb;" horiz-adv-x="520" d="M315.9 252.7 L182.6 439.1 L88.1 370.8 L165.4 257.8 L51.5 139.7 L130 66.3 L315.9 252.7 Z M532.1 252.7 L398.8 439.1 L304.3 370.8 L381.6 257.8 L267.7 139.7 L346.2 66.3 L532.1 252.7 Z " />
<glyph glyph-name="onequarter" unicode="&#xbc;" horiz-adv-x="810" d="M661.3 662 L133.3 -18 L250.4 -18 L778.4 662 L661.3 662 Z M174.4 262.4 L300.6 262.4 L355.9 655.5 L264.3 655.5 L108 598 L130.2 497.6 L211.52 526.21 L174.4 262.4 Z M791.5 144.3 L750.86 144.3 L787.6 404.7 L665.4 404.7 L443.6 147.5 L429.5 48.2 L615.19 48.2 L608.4 0 L730.5 0 L737.3 48.2 L777.8 48.2 L791.5 144.3 Z M557.5 144.3 L642.24 240.25 L628.73 144.3 L557.5 144.3 Z " />
<glyph glyph-name="onehalf" unicode="&#xbd;" horiz-adv-x="864" d="M661.2 662 L133.1 -18 L250.3 -18 L778.3 662 L661.2 662 Z M174.4 262.4 L300.6 262.4 L355.9 655.5 L264.2 655.5 L108 598 L130.2 497.6 L211.52 526.21 L174.4 262.4 Z M703.15 100.45 L727.8 112.49 C800 161.89 851.4 217.29 851.4 278.49 C851.4 349.49 795.7 393.49 716.2 393.49 C641.6 393.49 581.4 354.39 541.8 297.19 L623.9 238.29 C643.8 262.09 664.1 281.49 687.4 281.49 C705.8 281.49 715.5 270.69 715.5 254.79 C715.5 217.99 653.7 185.79 530.9 90.99 L517.9 -0.0100098 L825.2 -0.0100098 L840.3 104.99 L738.5 104.49 L703.15 100.45 Z " />
<glyph glyph-name="threequarters" unicode="&#xbe;" horiz-adv-x="862" d="M711.3 662 L183.1 -18 L300.3 -18 L828.4 662 L711.3 662 Z M409.9 370.9 C409.9 422.25 373.85 443.16 337.94 451.62 C379.29 464.12 419.1 493.09 419.1 554.71 C419.1 614.51 359.3 652.71 287.4 652.71 C201.5 652.71 144.8 618.91 119.7 594.51 L171.7 514.41 C193.6 534.71 217.2 545.11 240.8 545.11 C263.8 545.11 278.3 534.21 278.3 519.61 C278.3 497.11 262.2 484.01 222.9 484.01 L183.2 484.01 L174.2 419.61 L212.1 419.61 C250.9 419.61 275.4 407.41 275.4 389.31 C275.4 368.81 253.7 356.31 222.6 356.31 C192.2 356.31 169.4 369.91 151.3 387.01 L71 306.91 C89.7 282.51 135.5 248.71 225 248.71 C339.2 248.71 409.9 290.41 409.9 370.91 L409.9 370.9 Z M849.3 144.31 L808.72 144.31 L845.4 404.71 L723.2 404.71 L501.5 147.51 L487.3 48.21 L672.99 48.21 L666.2 0.00999451 L788.4 0.00999451 L795.19 48.21 L835.6 48.21 L849.3 144.31 Z M615.3 144.31 L700.03 240.2 L686.52 144.31 L615.3 144.31 Z " />
<glyph glyph-name="questiondown" unicode="&#xbf;" horiz-adv-x="503" d="M440.6 425.6 C440.6 478.5 401 521.4 346.5 521.4 C283.9 521.4 222.5 465.9 222.5 401.2 C222.5 348.2 262.7 304.4 315.5 304.4 C380.3 304.4 440.6 361.1 440.6 425.6 L440.6 425.6 Z M470.7 -78.2 L387.2 36 C365.1 8.99998 330.6 -22 281.3 -22 C240.5 -22 211.2 -2.70001 211.2 33 C211.2 67.5 234.1 101.8 308 101.8 L355.9 101.8 L378.2 259.7 L230.4 259.7 L222.7 204.2 C133.2 188.6 32 128.1 32 8.59998 C32 -102.4 125.3 -171 242.5 -171 C353.8 -171 429.9 -129.2 470.7 -78.2 L470.7 -78.2 Z " />
<glyph glyph-name="Agrave" unicode="&#xc0;" horiz-adv-x="631" d="M559.1 770.6 L323.6 873.8 L259.2 726.3 L516.5 679.8 L559.1 770.6 Z M454.5 0 L633.5 0 L496.7 642 L317.1 642 L-6 0 L180.1 0 L228.57 103 L434.4 103 L454.5 0 Z M298.69 252 L348.9 358.7 L374.53 414.12 L384.5 358.7 L405.32 252 L298.69 252 Z " />
<glyph glyph-name="Aacute" unicode="&#xc1;" horiz-adv-x="631" d="M566.3 726.3 L536.8 876.2 L275.4 777.9 L295.9 679.8 L566.3 726.3 Z M454.5 -1.52588e-05 L633.5 -1.52588e-05 L496.7 642 L317.1 642 L-6 -1.52588e-05 L180.1 -1.52588e-05 L228.57 103 L434.4 103 L454.5 -1.52588e-05 Z M298.69 252 L348.9 358.7 L374.53 414.12 L384.5 358.7 L405.32 252 L298.69 252 Z " />
<glyph glyph-name="Acircumflex" unicode="&#xc2;" horiz-adv-x="631" d="M421.8 747 L546.1 683 L612 767 L483.9 868.2 L383.5 868.2 L226.9 767 L280 683 L421.8 747 Z M454.5 0 L633.5 0 L496.7 642 L317.1 642 L-6.00002 0 L180.1 0 L228.57 103 L434.4 103 L454.5 0 Z M298.69 252 L348.9 358.7 L374.53 414.12 L384.5 358.7 L405.32 252 L298.69 252 Z " />
<glyph glyph-name="Atilde" unicode="&#xc3;" horiz-adv-x="631" d="M363.3 733.6 C410.7 733.6 433.2 691.5 504.7 691.5 C561 691.5 623.4 729.9 653.3 813.2 L541.1 860.9 C530.6 836.5 512.9 821.2 492.9 821.2 C449 821.2 424.8 864.6 350.9 864.6 C288.6 864.6 225.7 822.6 194.7 733.4 L307.4 687.1 C318 713.4 337.7 733.6 363.3 733.6 L363.3 733.6 Z M317.1 642 L-5.99998 -1.52588e-05 L180.1 -1.52588e-05 L228.57 103 L434.4 103 L454.5 -1.52588e-05 L633.5 -1.52588e-05 L496.7 642 L317.1 642 Z M298.69 252 L348.9 358.7 L374.53 414.12 L384.5 358.7 L405.32 252 L298.69 252 Z " />
<glyph glyph-name="Adieresis" unicode="&#xc4;" horiz-adv-x="631" d="M285.8 698.4 C337.4 698.4 385.3 742.3 385.3 794.1 C385.3 835.8 353.6 869.7 310.2 869.7 C259.6 869.7 211.7 825.8 211.7 774.5 C211.7 732.1 243.1 698.4 285.8 698.4 L285.8 698.4 Z M538.5 698.4 C590 698.4 637.9 742.3 637.9 794.1 C637.9 835.8 606.2 869.7 562.9 869.7 C512.3 869.7 464.3 825.8 464.3 774.5 C464.3 732.1 495.8 698.4 538.5 698.4 L538.5 698.4 Z M317.1 642 L-6.00002 0 L180.1 0 L228.57 103 L434.4 103 L454.5 0 L633.5 0 L496.7 642 L317.1 642 Z M298.69 252 L348.9 358.7 L374.53 414.12 L384.5 358.7 L405.32 252 L298.69 252 Z " />
<glyph glyph-name="Aring" unicode="&#xc5;" horiz-adv-x="631" d="M407.8 661 C496.5 661 556.4 727.2 556.4 807.4 C556.4 872 509.1 923.3 445.1 923.3 C354.9 923.3 295.3 853.8 295.3 776.7 C295.3 712.3 342.7 661 407.8 661 L407.8 661 Z M430.7 834 C452.7 834 465.8 817.6 465.8 797.3 C465.8 771.8 448.8 750.5 419.9 750.5 C399.7 750.5 385.8 767.1 385.8 786.9 C385.8 811.9 404.8 834 430.7 834 L430.7 834 Z M454.5 1.52588e-05 L633.5 1.52588e-05 L496.7 642 L317.1 642 L-6.00002 1.52588e-05 L180.1 1.52588e-05 L228.57 103 L434.4 103 L454.5 1.52588e-05 Z M298.69 252 L348.9 358.7 L374.53 414.12 L384.5 358.7 L405.32 252 L298.69 252 Z " />
<glyph glyph-name="AE" unicode="&#xc6;" horiz-adv-x="905" d="M929 483 L951.9 642 L446.3 642 L-12.1 0 L176.2 0 L265 123 L458.7 123 L441.4 0 L870.1 0 L892.9 159 L644.14 159 L655.87 244 L868.5 244 L891 401 L677.54 401 L688.86 483 L929 483 Z M372.57 272 L505.57 456.23 L479.66 272 L372.57 272 Z " />
<glyph glyph-name="Ccedilla" unicode="&#xc7;" horiz-adv-x="572" d="M576.6 46 L498.4 198 C469.3 173.4 434.8 156 385.2 156 C308.2 156 264.1 205.1 264.1 290.9 C264.1 411 336.2 490 434.6 490 C466.2 490 491.8 482.5 522 458 L639.5 601 C601.8 634.3 541.9 662 453.2 662 C216.7 662 66 504.8 66 269.2 C66 127.56 154.89 12.73 298.42 -12.73 L267.21 -74 C301.01 -74.9 325.61 -81.3 325.61 -104.1 C325.61 -126.7 307.21 -137 286.91 -137 C268.91 -137 255.21 -132 243.81 -123 L197.71 -202 C215.11 -219.4 261.61 -233 306.81 -233 C373.41 -233 459.51 -204.1 459.51 -112.4 C459.51 -60.6 418.01 -36 379.81 -36 L389.11 -17.17 C474.79 -12.19 535.44 14.47 576.61 46 L576.6 46 Z " />
<glyph glyph-name="Egrave" unicode="&#xc8;" horiz-adv-x="520" d="M518.9 770.6 L283.4 873.8 L219 726.3 L476.3 679.8 L518.9 770.6 Z M542.6 483 L565.5 642 L145.3 642 L55 0 L483.7 0 L506.5 159 L257.74 159 L269.47 244 L482.1 244 L504.6 401 L291.14 401 L302.46 483 L542.6 483 Z " />
<glyph glyph-name="Eacute" unicode="&#xc9;" horiz-adv-x="520" d="M526.1 726.3 L496.6 876.2 L235.2 777.9 L255.7 679.8 L526.1 726.3 Z M542.6 483 L565.5 642 L145.3 642 L55 -1.52588e-05 L483.7 -1.52588e-05 L506.5 159 L257.74 159 L269.47 244 L482.1 244 L504.6 401 L291.14 401 L302.46 483 L542.6 483 Z " />
<glyph glyph-name="Ecircumflex" unicode="&#xca;" horiz-adv-x="520" d="M381.6 747 L505.9 683 L571.8 767 L443.7 868.2 L343.3 868.2 L186.7 767 L239.8 683 L381.6 747 Z M55 0 L483.7 0 L506.5 159 L257.74 159 L269.47 244 L482.1 244 L504.6 401 L291.14 401 L302.46 483 L542.6 483 L565.5 642 L145.3 642 L55 0 Z " />
<glyph glyph-name="Edieresis" unicode="&#xcb;" horiz-adv-x="520" d="M245.6 698.4 C297.2 698.4 345.1 742.3 345.1 794.1 C345.1 835.8 313.4 869.7 270 869.7 C219.4 869.7 171.5 825.8 171.5 774.5 C171.5 732.1 202.9 698.4 245.6 698.4 L245.6 698.4 Z M522.7 869.7 C472.1 869.7 424.1 825.8 424.1 774.5 C424.1 732.1 455.6 698.4 498.3 698.4 C549.8 698.4 597.7 742.3 597.7 794.1 C597.7 835.8 566 869.7 522.7 869.7 L522.7 869.7 Z M55 0 L483.7 0 L506.5 159 L257.74 159 L269.47 244 L482.1 244 L504.6 401 L291.14 401 L302.46 483 L542.6 483 L565.5 642 L145.3 642 L55 0 Z " />
<glyph glyph-name="Igrave" unicode="&#xcc;" horiz-adv-x="422" d="M451.9 770.6 L216.3 873.8 L151.9 726.3 L409.3 679.8 L451.9 770.6 Z M450.5 483 L473.4 642 L128.3 642 L105.5 483 L188.54 483 L142.97 159 L60.91 159 L38.01 0 L383.11 0 L405.91 159 L322.87 159 L368.44 483 L450.5 483 Z " />
<glyph glyph-name="Iacute" unicode="&#xcd;" horiz-adv-x="423" d="M463.6 726.3 L434.1 876.2 L172.7 777.9 L193.2 679.8 L463.6 726.3 Z M451.5 483 L474.4 642 L129.3 642 L106.5 483 L189.54 483 L143.97 159 L61.91 159 L39.01 -1.52588e-05 L384.11 -1.52588e-05 L406.91 159 L323.87 159 L369.44 483 L451.5 483 Z " />
<glyph glyph-name="Icircumflex" unicode="&#xce;" horiz-adv-x="423" d="M317.9 747 L442.2 683 L508.1 767 L380 868.2 L279.6 868.2 L123 767 L176.1 683 L317.9 747 Z M473.4 642 L128.3 642 L105.5 483 L188.54 483 L142.97 159 L60.91 159 L38.01 0 L383.11 0 L405.91 159 L322.87 159 L368.44 483 L450.5 483 L473.4 642 Z " />
<glyph glyph-name="Idieresis" unicode="&#xcf;" horiz-adv-x="423" d="M207.1 698.4 C258.7 698.4 306.6 742.3 306.6 794.1 C306.6 835.8 275 869.7 231.6 869.7 C181.1 869.7 133 825.8 133 774.5 C133 732.1 164.6 698.4 207.1 698.4 L207.1 698.4 Z M434.7 869.7 C384.1 869.7 335.9 825.8 335.9 774.5 C335.9 732.1 367.6 698.4 410.2 698.4 C461.7 698.4 509.6 742.3 509.6 794.1 C509.6 835.8 478 869.7 434.7 869.7 L434.7 869.7 Z M473.4 642 L128.3 642 L105.5 483 L188.54 483 L142.97 159 L60.91 159 L38.01 0 L383.11 0 L405.91 159 L322.87 159 L368.44 483 L450.5 483 L473.4 642 Z " />
<glyph glyph-name="Eth" unicode="&#xd0;" horiz-adv-x="652" d="M361.5 642 L145.3 642 L107.86 375.8 L41.7 375.8 L27.7 258.2 L91.32 258.2 L55 0 L270.5 0 C532.7 0 674.3 134.4 674.3 363.3 C674.3 540.1 550.2 642 361.5 642 L361.5 642 Z M305.4 171 L259.05 171 L271.31 258.2 L360.59 258.2 L374.59 375.8 L287.85 375.8 L301.24 471 L347.09 471 C424.69 471 473.49 439 473.49 353.5 C473.49 237.7 410.49 171 305.39 171 L305.4 171 Z " />
<glyph glyph-name="Ntilde" unicode="&#xd1;" horiz-adv-x="670" d="M390.3 733.6 C437.7 733.6 460.2 691.5 531.7 691.5 C588 691.5 650.4 729.9 680.3 813.2 L568.1 860.9 C557.6 836.5 539.9 821.2 519.9 821.2 C476 821.2 451.8 864.6 377.9 864.6 C315.6 864.6 252.7 822.6 221.7 733.4 L334.4 687.1 C345 713.4 364.7 733.6 390.3 733.6 L390.3 733.6 Z M523.6 642 L480.5 330 L476 271.5 L456.7 320 L318.1 642 L145.2 642 L55 -1.52588e-05 L235.1 -1.52588e-05 L275.9 297 L278.69 359.22 L299.9 307 L439.1 -1.52588e-05 L613.5 -1.52588e-05 L703.7 642 L523.6 642 Z " />
<glyph glyph-name="Ograve" unicode="&#xd2;" horiz-adv-x="707" d="M562.8 679.8 L605.4 770.6 L369.9 873.8 L305.5 726.3 L562.8 679.8 Z M444.7 662 C224.4 662 64.4 485.1 64.4 262.5 C64.4 88.9 178.6 -18 351 -18 C569.3 -18 731.4 157.2 731.4 378.8 C731.4 555 618.2 662 444.8 662 L444.7 662 Z M422.3 499 C494.4 499 537.6 450.3 537.8 364.2 C537.8 253.8 481.1 145 373.5 145 C301 145 258.1 196.4 258.1 282 C258.1 391.8 314.8 499 422.3 499 L422.3 499 Z " />
<glyph glyph-name="Oacute" unicode="&#xd3;" horiz-adv-x="707" d="M342.2 679.8 L612.6 726.3 L583.1 876.2 L321.7 777.9 L342.2 679.8 Z M444.7 662 C224.4 662 64.4 485.1 64.4 262.5 C64.4 88.9 178.6 -18 351 -18 C569.3 -18 731.4 157.2 731.4 378.8 C731.4 555 618.2 662 444.8 662 L444.7 662 Z M422.3 499 C494.4 499 537.6 450.3 537.8 364.2 C537.8 253.8 481.1 145 373.5 145 C301 145 258.1 196.4 258.1 282 C258.1 391.8 314.8 499 422.3 499 L422.3 499 Z " />
<glyph glyph-name="Ocircumflex" unicode="&#xd4;" horiz-adv-x="707" d="M530.2 868.2 L429.8 868.2 L273.2 767 L326.3 683 L468.1 747 L592.4 683 L658.3 767 L530.2 868.2 Z M444.7 662 C224.4 662 64.4 485.1 64.4 262.5 C64.4 88.9 178.6 -18 351 -18 C569.3 -18 731.4 157.2 731.4 378.8 C731.4 555 618.2 662 444.8 662 L444.7 662 Z M422.3 499 C494.4 499 537.6 450.3 537.8 364.2 C537.8 253.8 481.1 145 373.5 145 C301 145 258.1 196.4 258.1 282 C258.1 391.8 314.8 499 422.3 499 L422.3 499 Z " />
<glyph glyph-name="Otilde" unicode="&#xd5;" horiz-adv-x="707" d="M587.4 860.9 C576.9 836.5 559.2 821.2 539.2 821.2 C495.3 821.2 471.1 864.6 397.2 864.6 C334.9 864.6 272 822.6 241 733.4 L353.7 687.1 C364.3 713.4 384 733.6 409.6 733.6 C457 733.6 479.5 691.5 551 691.5 C607.3 691.5 669.7 729.9 699.6 813.2 L587.4 860.9 Z M444.7 662 C224.4 662 64.4 485.1 64.4 262.5 C64.4 88.9 178.6 -18 351 -18 C569.3 -18 731.4 157.2 731.4 378.8 C731.4 555 618.2 662 444.8 662 L444.7 662 Z M422.3 499 C494.4 499 537.6 450.3 537.8 364.2 C537.8 253.8 481.1 145 373.5 145 C301 145 258.1 196.4 258.1 282 C258.1 391.8 314.8 499 422.3 499 L422.3 499 Z " />
<glyph glyph-name="Odieresis" unicode="&#xd6;" horiz-adv-x="707" d="M431.6 794.1 C431.6 835.8 399.9 869.7 356.5 869.7 C305.9 869.7 258 825.8 258 774.5 C258 732.1 289.4 698.4 332.1 698.4 C383.7 698.4 431.6 742.3 431.6 794.1 L431.6 794.1 Z M684.2 794.1 C684.2 835.8 652.5 869.7 609.2 869.7 C558.6 869.7 510.6 825.8 510.6 774.5 C510.6 732.1 542.1 698.4 584.8 698.4 C636.3 698.4 684.2 742.3 684.2 794.1 L684.2 794.1 Z M444.7 662 C224.4 662 64.4 485.1 64.4 262.5 C64.4 88.9 178.6 -18 351 -18 C569.3 -18 731.4 157.2 731.4 378.8 C731.4 555 618.2 662 444.8 662 L444.7 662 Z M422.3 499 C494.4 499 537.6 450.3 537.8 364.2 C537.8 253.8 481.1 145 373.5 145 C301 145 258.1 196.4 258.1 282 C258.1 391.8 314.8 499 422.3 499 L422.3 499 Z " />
<glyph glyph-name="multiply" unicode="&#xd7;" horiz-adv-x="508" d="M535.3 392 L454.8 486.4 L300.38 349.34 L186.6 484.2 L84.8 394.7 L199.01 259.37 L43.9 121.7 L124.5 27.3 L279.06 164.52 L392.5 30.1 L494.3 119.5 L380.41 254.5 L535.3 392 Z " />
<glyph glyph-name="Oslash" unicode="&#xd8;" horiz-adv-x="714" d="M776.9 625.1 L714.6 694.8 L627.14 610.17 C580.14 643.75 519.8 662 449.8 662 C237.1 662 67.2 503.6 67.2 272 C67.2 208.36 81.85 153.1 108.58 108.39 L19.1 21.8 L83.2 -48.2 L171.79 37.78 C219.51 1.74001 281.62 -18.01 354 -18.01 C566.4 -18.01 736.4 141.99 736.4 372.49 C736.4 439.23 720.46 496.55 691.46 542.16 L776.9 625.1 Z M265 288.09 C265 417.19 331.7 498.99 426.3 498.99 C452.01 498.99 473.92 492.01 491.38 478.79 L266.4 261.09 C265.47 269.69 265 278.69 265 288.08 L265 288.09 Z M538.7 356.98 C538.7 229.28 471.5 144.98 377.4 144.98 C349.32 144.98 325.79 153.63 307.64 169.62 L536.37 391.62 C537.91 380.79 538.7 369.23 538.7 356.97 L538.7 356.98 Z " />
<glyph glyph-name="Ugrave" unicode="&#xd9;" horiz-adv-x="647" d="M526.7 679.8 L569.3 770.6 L333.8 873.8 L269.4 726.3 L526.7 679.8 Z M324.9 -18 C531.1 -18 609.3 69.4 637 266 L690 642 L513 642 L460 263 C449.9 190.9 422.4 149 348.1 149 C292.5 149 255.5 187.7 266 263 L319 642 L139 642 L85 259 C59.4 77.5 160.1 -18 324.9 -18 L324.9 -18 Z " />
<glyph glyph-name="Uacute" unicode="&#xda;" horiz-adv-x="647" d="M306.1 679.8 L576.5 726.3 L547 876.2 L285.6 777.9 L306.1 679.8 Z M324.9 -18 C531.1 -18 609.3 69.4 637 266 L690 642 L513 642 L460 263 C449.9 190.9 422.4 149 348.1 149 C292.5 149 255.5 187.7 266 263 L319 642 L139 642 L85 259 C59.4 77.5 160.1 -18 324.9 -18 L324.9 -18 Z " />
<glyph glyph-name="Ucircumflex" unicode="&#xdb;" horiz-adv-x="647" d="M494.1 868.2 L393.7 868.2 L237.1 767 L290.2 683 L432 747 L556.3 683 L622.2 767 L494.1 868.2 Z M324.9 -18 C531.1 -18 609.3 69.4 637 266 L690 642 L513 642 L460 263 C449.9 190.9 422.4 149 348.1 149 C292.5 149 255.5 187.7 266 263 L319 642 L139 642 L85 259 C59.4 77.5 160.1 -18 324.9 -18 L324.9 -18 Z " />
<glyph glyph-name="Udieresis" unicode="&#xdc;" horiz-adv-x="647" d="M395.5 794.1 C395.5 835.8 363.8 869.7 320.4 869.7 C269.8 869.7 221.9 825.8 221.9 774.5 C221.9 732.1 253.3 698.4 296 698.4 C347.6 698.4 395.5 742.3 395.5 794.1 L395.5 794.1 Z M648.1 794.1 C648.1 835.8 616.4 869.7 573.1 869.7 C522.5 869.7 474.5 825.8 474.5 774.5 C474.5 732.1 506 698.4 548.7 698.4 C600.2 698.4 648.1 742.3 648.1 794.1 L648.1 794.1 Z M324.9 -18 C531.1 -18 609.3 69.4 637 266 L690 642 L513 642 L460 263 C449.9 190.9 422.4 149 348.1 149 C292.5 149 255.5 187.7 266 263 L319 642 L139 642 L85 259 C59.4 77.5 160.1 -18 324.9 -18 L324.9 -18 Z " />
<glyph glyph-name="Yacute" unicode="&#xdd;" horiz-adv-x="630" d="M572.7 726.3 L543.2 876.2 L281.8 777.9 L302.3 679.8 L572.7 726.3 Z M720.5 642 L511 642 L404 467 L370.85 415.31 L354.4 467 L294.2 642 L85 642 L258.36 232.97 L225.4 -1.52588e-05 L405.4 -1.52588e-05 L438.66 235.1 L720.5 642 Z " />
<glyph glyph-name="Thorn" unicode="&#xde;" horiz-adv-x="584" d="M347.6 560 L312.75 560 L324 640 L144 640 L54 0 L234 0 L247.5 96 L292.4 96 C487.2 96 613.9 187.3 613.9 354.1 C613.9 485 508.7 560 347.6 560 L347.6 560 Z M314.2 251 L269.3 251 L290.96 405 L334.91 405 C401.21 405 427.31 378.9 427.31 333.4 C427.31 289.5 398.31 251 314.21 251 L314.2 251 Z " />
<glyph glyph-name="germandbls" unicode="&#xdf;" horiz-adv-x="639" d="M431.7 703.5 C257.5 703.5 128.3 623.6 103 445.1 L40 0 L222 0 L285 428.9 C297.1 511.1 341.5 562.5 403 562.5 C441.3 562.5 459.3 541.5 459.3 512.5 C459.3 441 335.3 440.6 335.3 312.3 C335.3 195.3 472.6 185.8 472.6 139.2 C472.6 123.6 458.6 117 438 117 C406.1 117 372.8 137.7 347.4 155.1 L257.2 41.7 C283.4 14.2 344.7 -18 431.3 -18 C585.2 -18 648.6 65.9 648.6 154.4 C648.6 293.6 525.1 285 525.1 340.2 C525.1 397 644.7 411.9 644.7 540.8 C644.7 625.9 564.3 703.5 431.7 703.5 L431.7 703.5 Z " />
<glyph glyph-name="agrave" unicode="&#xe0;" horiz-adv-x="558" d="M497.7 596.1 L322.8 759.3 L219.5 632.6 L428.4 513.5 L497.7 596.1 Z M534.4 121 L576.4 421 C538.6 451.2 465.1 490 358.5 490 C168.6 490 53 372.7 53 189.4 C53 56.5 124.9 -18 229.9 -18 C280.37 -18 319.28 -3.37 349.37 17.77 C350.9 3.29001 353.87 -9.29999 358.3 -21 L536.2 4.20001 C526.7 33.8 527.9 74.2 534.4 121 L534.4 121 Z M234.9 212.3 C234.9 289.6 272.5 339 336.7 339 C355.82 339 370.98 337.57 384.22 330.88 L362.2 170.64 C351.43 151.33 331.16 132 295.9 132 C253.8 132 234.9 165.6 234.9 212.3 L234.9 212.3 Z " />
<glyph glyph-name="aacute" unicode="&#xe1;" horiz-adv-x="558" d="M497.7 628.9 L425.7 761.8 L212.4 602.3 L263 513.5 L497.7 628.9 Z M534.4 121 L576.4 421 C538.6 451.2 465.1 490 358.5 490 C168.6 490 53 372.7 53 189.4 C53 56.5 124.9 -18 229.9 -18 C280.37 -18 319.28 -3.37001 349.37 17.77 C350.9 3.28999 353.87 -9.3 358.3 -21 L536.2 4.2 C526.7 33.8 527.9 74.2 534.4 121 L534.4 121 Z M234.9 212.3 C234.9 289.6 272.5 339 336.7 339 C355.82 339 370.98 337.57 384.22 330.88 L362.2 170.64 C351.43 151.33 331.16 132 295.9 132 C253.8 132 234.9 165.6 234.9 212.3 L234.9 212.3 Z " />
<glyph glyph-name="acircumflex" unicode="&#xe2;" horiz-adv-x="558" d="M364.5 618 L462.1 518.8 L545 595.6 L426.9 737.6 L326.1 737.6 L167.7 595.6 L242 518.8 L364.5 618 Z M534.4 121 L576.4 421 C538.6 451.2 465.1 490 358.5 490 C168.6 490 53 372.7 53 189.4 C53 56.5 124.9 -18 229.9 -18 C280.37 -18 319.28 -3.37 349.37 17.77 C350.9 3.29001 353.87 -9.29999 358.3 -21 L536.2 4.20001 C526.7 33.8 527.9 74.2 534.4 121 L534.4 121 Z M234.9 212.3 C234.9 289.6 272.5 339 336.7 339 C355.82 339 370.98 337.57 384.22 330.88 L362.2 170.64 C351.43 151.33 331.16 132 295.9 132 C253.8 132 234.9 165.6 234.9 212.3 L234.9 212.3 Z " />
<glyph glyph-name="atilde" unicode="&#xe3;" horiz-adv-x="558" d="M314.8 589 C361.3 589 378.7 554 442.8 554 C512.7 554 555.8 604 581.3 690 L472.8 731 C463.7 705.7 447.8 689 426.2 689 C387.5 689 364.9 726 299.1 726 C238.1 726 169.6 674.3 148.3 584 L259.7 543 C269.3 571 291.5 589 314.8 589 L314.8 589 Z M576.4 421 C538.6 451.2 465.1 490 358.5 490 C168.6 490 53 372.7 53 189.4 C53 56.5 124.9 -18 229.9 -18 C280.37 -18 319.28 -3.37 349.37 17.77 C350.9 3.29001 353.87 -9.29999 358.3 -21 L536.2 4.20001 C526.7 33.8 527.9 74.2 534.4 121 L576.4 421 Z M234.9 212.3 C234.9 289.6 272.5 339 336.7 339 C355.82 339 370.98 337.57 384.22 330.88 L362.2 170.64 C351.43 151.33 331.16 132 295.9 132 C253.8 132 234.9 165.6 234.9 212.3 L234.9 212.3 Z " />
<glyph glyph-name="adieresis" unicode="&#xe4;" horiz-adv-x="558" d="M232.3 538 C284 538 332.1 582.3 332.1 634.1 C332.1 675.8 300.5 709.7 257 709.7 C206.4 709.7 158.5 665.8 158.5 614.5 C158.5 572.1 190.3 538 232.3 538 L232.3 538 Z M468.8 538.4 C520.4 538.4 568.2 582.3 568.2 634.1 C568.2 675.8 536.6 709.7 493.2 709.7 C442.6 709.7 394.6 665.8 394.6 614.5 C394.6 572.1 426.1 538.4 468.8 538.4 L468.8 538.4 Z M534.4 121 L576.4 421 C538.6 451.2 465.1 490 358.5 490 C168.6 490 53 372.7 53 189.4 C53 56.5 124.9 -18 229.9 -18 C280.37 -18 319.28 -3.37 349.37 17.77 C350.9 3.29001 353.87 -9.29999 358.3 -21 L536.2 4.20001 C526.7 33.8 527.9 74.2 534.4 121 L534.4 121 Z M234.9 212.3 C234.9 289.6 272.5 339 336.7 339 C355.82 339 370.98 337.57 384.22 330.88 L362.2 170.64 C351.43 151.33 331.16 132 295.9 132 C253.8 132 234.9 165.6 234.9 212.3 L234.9 212.3 Z " />
<glyph glyph-name="aring" unicode="&#xe5;" horiz-adv-x="558" d="M349.8 508 C436.7 508 498 565.7 498 654.2 C498 718.9 450 770.3 384.8 770.3 C300.1 770.3 233 707.3 233 623.9 C233 559.5 281.3 508 349.8 508 L349.8 508 Z M371.4 681 C392.4 681 405.4 664.6 405.4 644.3 C405.4 619.7 388.6 597.5 359.6 597.5 C339.4 597.5 325.6 614.1 325.6 633.9 C325.6 658.9 343.9 681 371.4 681 L371.4 681 Z M534.4 121 L576.4 421 C538.6 451.2 465.1 490 358.5 490 C168.6 490 53 372.7 53 189.4 C53 56.5 124.9 -18 229.9 -18 C280.37 -18 319.28 -3.36998 349.37 17.77 C350.9 3.29002 353.87 -9.29997 358.3 -21 L536.2 4.20003 C526.7 33.8 527.9 74.2 534.4 121 L534.4 121 Z M234.9 212.3 C234.9 289.6 272.5 339 336.7 339 C355.82 339 370.98 337.57 384.22 330.88 L362.2 170.64 C351.43 151.33 331.16 132 295.9 132 C253.8 132 234.9 165.6 234.9 212.3 L234.9 212.3 Z " />
<glyph glyph-name="ae" unicode="&#xe6;" horiz-adv-x="795" d="M810.6 301.5 C810.6 417.6 737.2 490 617.3 490 C562.79 490 511.95 475.38 468.69 449.33 C430.48 477.25 372.43 490.01 293.81 490.01 C207.21 490.01 137.61 467.71 101.11 450.41 L114.91 318.31 C145.81 330.21 196.21 345.01 256.71 345.01 C333.41 345.01 346.71 320.11 343.71 293.01 L342.71 284.01 L270.41 284.01 C131.01 284.01 35.01 225.81 35.01 111.11 C35.01 19.21 109.11 -17.99 184.11 -17.99 C259.29 -17.99 323.09 13.72 366.34 71.37 C406.03 12.93 475.96 -17.99 559.52 -17.99 C657.22 -17.99 723.62 9.70999 769.32 39.01 L729.02 158.01 C687.92 136.51 644.02 122.01 602.32 122.01 C544.65 122.01 514.62 141.61 511.94 194.01 L792.32 194.01 C799.52 217.51 810.62 243.61 810.62 301.51 L810.6 301.5 Z M645.12 286.51 L523.07 286.51 C534.8 331.51 559 358.02 599.52 358.02 C640.52 358.02 650.32 324.42 645.12 286.52 L645.12 286.51 Z M329.72 188.02 C318.22 119.22 284.82 101.02 253.62 101.02 C230.22 101.02 217.02 114.22 217.02 139.02 C217.02 169.62 240.02 194.02 277.42 194.02 L330.72 194.02 L329.72 188.02 Z " />
<glyph glyph-name="ccedilla" unicode="&#xe7;" horiz-adv-x="451" d="M453 36.9 L404.6 162.7 C377.7 138.5 340.8 129 316.9 129 C259.5 129 234.3 168 234.3 219.6 C234.3 293.3 281.1 341 347.8 341 C378.3 341 405.2 333.7 430.8 315.1 L488.2 456.1 C458 474.9 408.3 490 351 490 C185.9 490 52 379.8 52 194.9 C52 82.63 109.16 10.01 213.69 -11.4 L181.8 -74.01 C215.6 -74.91 240.2 -81.31 240.2 -104.11 C240.2 -126.71 221.8 -137.01 201.5 -137.01 C183.5 -137.01 169.8 -132.01 158.4 -123.01 L112.3 -202.01 C129.7 -219.41 176.2 -233.01 221.4 -233.01 C288 -233.01 374.1 -204.11 374.1 -112.41 C374.1 -60.61 332.6 -36.01 294.4 -36.01 L303.62 -17.34 C367.94 -13 417.68 11.74 453 36.89 L453 36.9 Z " />
<glyph glyph-name="egrave" unicode="&#xe8;" horiz-adv-x="511" d="M488.8 596.1 L313.9 759.3 L210.6 632.6 L419.5 513.5 L488.8 596.1 Z M317.3 122 C274.45 122 249.3 134.26 237.45 159.85 C360.66 164.08 529.7 200.13 529.7 345.8 C529.7 426.6 467.1 490 345.4 490 C172.5 490 52 365.7 52 193.2 C52 54.7 142.7 -18 269.8 -18 C376.8 -18 446.3 10.9 493.4 40.5 L448.8 161.4 C407 136.6 363.1 122 317.3 122 L317.3 122 Z M321 357 C346.2 357 359 343.5 359 324.4 C359 275.95 290.5 264.13 234.38 262.21 C247.29 324.64 282.24 357 321 357 L321 357 Z " />
<glyph glyph-name="eacute" unicode="&#xe9;" horiz-adv-x="511" d="M488.8 628.9 L416.8 761.8 L203.5 602.3 L254.1 513.5 L488.8 628.9 Z M317.3 122 C274.45 122 249.3 134.26 237.45 159.85 C360.66 164.08 529.7 200.13 529.7 345.8 C529.7 426.6 467.1 490 345.4 490 C172.5 490 52 365.7 52 193.2 C52 54.7 142.7 -18 269.8 -18 C376.8 -18 446.3 10.9 493.4 40.5 L448.8 161.4 C407 136.6 363.1 122 317.3 122 L317.3 122 Z M321 357 C346.2 357 359 343.5 359 324.4 C359 275.95 290.5 264.13 234.38 262.21 C247.29 324.64 282.24 357 321 357 L321 357 Z " />
<glyph glyph-name="ecircumflex" unicode="&#xea;" horiz-adv-x="511" d="M355.6 618 L453.2 518.8 L536.1 595.6 L418 737.6 L317.2 737.6 L158.8 595.6 L233.1 518.8 L355.6 618 Z M529.7 345.8 C529.7 426.6 467.1 490 345.4 490 C172.5 490 52 365.7 52 193.2 C52 54.7 142.7 -18 269.8 -18 C376.8 -18 446.3 10.9 493.4 40.5 L448.8 161.4 C407 136.6 363.1 122 317.3 122 C274.45 122 249.3 134.26 237.45 159.85 C360.66 164.08 529.7 200.13 529.7 345.8 L529.7 345.8 Z M234.38 262.21 C247.29 324.64 282.24 357 321 357 C346.2 357 359 343.5 359 324.4 C359 275.95 290.5 264.13 234.38 262.21 L234.38 262.21 Z " />
<glyph glyph-name="edieresis" unicode="&#xeb;" horiz-adv-x="511" d="M223.4 538 C275.1 538 323.2 582.3 323.2 634.1 C323.2 675.8 291.6 709.7 248.1 709.7 C197.5 709.7 149.6 665.8 149.6 614.5 C149.6 572.1 181.4 538 223.4 538 L223.4 538 Z M484.3 709.7 C433.7 709.7 385.7 665.8 385.7 614.5 C385.7 572.1 417.2 538.4 459.9 538.4 C511.5 538.4 559.3 582.3 559.3 634.1 C559.3 675.8 527.7 709.7 484.3 709.7 L484.3 709.7 Z M529.7 345.8 C529.7 426.6 467.1 490 345.4 490 C172.5 490 52 365.7 52 193.2 C52 54.7 142.7 -18 269.8 -18 C376.8 -18 446.3 10.9 493.4 40.5 L448.8 161.4 C407 136.6 363.1 122 317.3 122 C274.45 122 249.3 134.26 237.45 159.85 C360.66 164.08 529.7 200.13 529.7 345.8 L529.7 345.8 Z M234.38 262.21 C247.29 324.64 282.24 357 321 357 C346.2 357 359 343.5 359 324.4 C359 275.95 290.5 264.13 234.38 262.21 L234.38 262.21 Z " />
<glyph glyph-name="igrave" unicode="&#xec;" horiz-adv-x="286" d="M325.1 513.5 L394.5 596.1 L219.5 759.3 L116.3 632.6 L325.1 513.5 Z M311.3 472 L87.5 472 L65 314.3 L108.8 314.3 L65 0 L245 0 L311.3 472 Z " />
<glyph glyph-name="iacute" unicode="&#xed;" horiz-adv-x="286" d="M134.5 513.5 L369.2 628.9 L297.2 761.8 L83.9 602.3 L134.5 513.5 Z M311.3 472 L87.5 472 L65 314.3 L108.8 314.3 L65 -1.52588e-05 L245 -1.52588e-05 L311.3 472 Z " />
<glyph glyph-name="icircumflex" unicode="&#xee;" horiz-adv-x="285" d="M291.2 737.6 L190.4 737.6 L32 595.6 L106.3 518.8 L228.8 618 L326.4 518.8 L409.3 595.6 L291.2 737.6 Z M310.9 472 L87.1 472 L64.6 314.3 L108.4 314.3 L64.6 0 L244.6 0 L310.9 472 Z " />
<glyph glyph-name="idieresis" unicode="&#xef;" horiz-adv-x="286" d="M218.6 634.1 C218.6 675.8 187 709.7 143.5 709.7 C92.9 709.7 45 665.8 45 614.5 C45 572.1 76.4 538.4 119 538.4 C170.7 538.4 218.6 582.3 218.6 634.1 L218.6 634.1 Z M415.1 634.1 C415.1 675.8 383.5 709.7 340.1 709.7 C289.5 709.7 241.5 665.8 241.5 614.5 C241.5 572.1 273 538.4 315.7 538.4 C367.3 538.4 415.1 582.3 415.1 634.1 L415.1 634.1 Z M311.4 472 L87.6 472 L65 314.3 L108.8 314.3 L65 0 L245 0 L311.4 472 Z " />
<glyph glyph-name="eth" unicode="&#xf0;" horiz-adv-x="540" d="M410.29 596.11 L461.3 647 L401.6 704.1 L339.96 643.31 C307.92 660.91 271.66 676.35 230.79 689.1 L164.79 554.1 C186.28 549.03 208.02 542.47 229.12 534.01 L191.08 496.5 L253.08 439.3 L305.26 491.35 C326.9 474.61 346.01 454.41 361.09 430.05 C349.3 432 337.77 433 326.77 433 C170.97 433 48.97 338.7 48.97 177.9 C48.97 64.1 139.17 -18 263.37 -18 C410.87 -18 505.64 56.43 536.21 167.39 C573.7 299.19 556.78 476.3 410.26 596.11 L410.29 596.11 Z M288.97 129.5 C248.07 129.5 230.77 161.3 230.77 199 C230.77 256.9 261.67 298.7 310.07 298.7 C349.27 298.7 364.67 265.3 364.67 228.5 C364.67 172.6 340.27 129.5 288.97 129.5 L288.97 129.5 Z " />
<glyph glyph-name="ntilde" unicode="&#xf1;" horiz-adv-x="558" d="M316.4 589 C362.9 589 380.3 554 444.4 554 C514.3 554 557.4 604 582.9 690 L474.4 731 C465.3 705.7 449.4 689 427.8 689 C389.1 689 366.5 726 300.7 726 C239.7 726 171.2 674.3 149.9 584 L261.3 543 C270.9 571 293.1 589 316.4 589 L316.4 589 Z M405 490 C371.29 490 324.09 480.91 277.79 446.27 C276.65 466.02 273.26 482.26 267.6 497.21 L89.8 472.01 C99.4 442.41 98.5 401.81 92 355.01 L42 0.00999451 L222 0.00999451 L263.19 291.73 C281.16 316.47 302.73 330.01 327.9 330.01 C370.8 330.01 385.6 304.61 378 250.01 L343 0.00999451 L523 0.00999451 L561 271.01 C581.5 417.21 533 490.01 405 490.01 L405 490 Z " />
<glyph glyph-name="ograve" unicode="&#xf2;" horiz-adv-x="549" d="M428.2 513.5 L497.5 596.1 L322.6 759.3 L219.3 632.6 L428.2 513.5 Z M288.8 -18 C445.2 -18 565.4 93.6 565.4 277.1 C565.4 416.3 465.9 490 328.5 490 C173.1 490 50.9 380.1 50.9 200.2 C50.9 54.5 149.9 -18 288.8 -18 L288.8 -18 Z M296.3 126.7 C255.9 126.7 232.2 153.8 232.2 208.3 C232.2 282.2 258.9 348.4 321.4 348.4 C362.3 348.4 384.4 321.7 384.4 265 C384.4 190.9 358.2 126.7 296.3 126.7 L296.3 126.7 Z " />
<glyph glyph-name="oacute" unicode="&#xf3;" horiz-adv-x="549" d="M262.8 513.5 L497.5 628.9 L425.5 761.8 L212.2 602.3 L262.8 513.5 Z M288.8 -18 C445.2 -18 565.4 93.6 565.4 277.1 C565.4 416.3 465.9 490 328.5 490 C173.1 490 50.9 380.1 50.9 200.2 C50.9 54.5 149.9 -18 288.8 -18 L288.8 -18 Z M296.3 126.7 C255.9 126.7 232.2 153.8 232.2 208.3 C232.2 282.2 258.9 348.4 321.4 348.4 C362.3 348.4 384.4 321.7 384.4 265 C384.4 190.9 358.2 126.7 296.3 126.7 L296.3 126.7 Z " />
<glyph glyph-name="ocircumflex" unicode="&#xf4;" horiz-adv-x="549" d="M426.7 737.6 L325.9 737.6 L167.5 595.6 L241.8 518.8 L364.3 618 L461.9 518.8 L544.8 595.6 L426.7 737.6 Z M288.8 -18 C445.2 -18 565.4 93.6 565.4 277.1 C565.4 416.3 465.9 490 328.5 490 C173.1 490 50.9 380.1 50.9 200.2 C50.9 54.5 149.9 -18 288.8 -18 L288.8 -18 Z M296.3 126.7 C255.9 126.7 232.2 153.8 232.2 208.3 C232.2 282.2 258.9 348.4 321.4 348.4 C362.3 348.4 384.4 321.7 384.4 265 C384.4 190.9 358.2 126.7 296.3 126.7 L296.3 126.7 Z " />
<glyph glyph-name="otilde" unicode="&#xf5;" horiz-adv-x="549" d="M472.6 731 C463.5 705.7 447.6 689 426 689 C387.3 689 364.7 726 298.9 726 C237.9 726 169.4 674.3 148.1 584 L259.5 543 C269.1 571 291.3 589 314.6 589 C361.1 589 378.5 554 442.6 554 C512.5 554 555.6 604 581.1 690 L472.6 731 Z M288.8 -18 C445.2 -18 565.4 93.6 565.4 277.1 C565.4 416.3 465.9 490 328.5 490 C173.1 490 50.9 380.1 50.9 200.2 C50.9 54.5 149.9 -18 288.8 -18 L288.8 -18 Z M296.3 126.7 C255.9 126.7 232.2 153.8 232.2 208.3 C232.2 282.2 258.9 348.4 321.4 348.4 C362.3 348.4 384.4 321.7 384.4 265 C384.4 190.9 358.2 126.7 296.3 126.7 L296.3 126.7 Z " />
<glyph glyph-name="odieresis" unicode="&#xf6;" horiz-adv-x="549" d="M331.9 634.1 C331.9 675.8 300.3 709.7 256.8 709.7 C206.2 709.7 158.3 665.8 158.3 614.5 C158.3 572.1 190.1 538 232.1 538 C283.8 538 331.9 582.3 331.9 634.1 L331.9 634.1 Z M568 634.1 C568 675.8 536.4 709.7 493 709.7 C442.4 709.7 394.4 665.8 394.4 614.5 C394.4 572.1 425.9 538.4 468.6 538.4 C520.2 538.4 568 582.3 568 634.1 L568 634.1 Z M288.8 -18 C445.2 -18 565.4 93.6 565.4 277.1 C565.4 416.3 465.9 490 328.5 490 C173.1 490 50.9 380.1 50.9 200.2 C50.9 54.5 149.9 -18 288.8 -18 L288.8 -18 Z M296.3 126.7 C255.9 126.7 232.2 153.8 232.2 208.3 C232.2 282.2 258.9 348.4 321.4 348.4 C362.3 348.4 384.4 321.7 384.4 265 C384.4 190.9 358.2 126.7 296.3 126.7 L296.3 126.7 Z " />
<glyph glyph-name="divide" unicode="&#xf7;" horiz-adv-x="537" d="M319.1 366.1 C379.9 366.1 436.4 417.8 436.4 478.8 C436.4 527.9 399.1 567.9 347.8 567.9 C288.3 567.9 231.8 516.1 231.8 455.8 C231.8 405.9 269 366.1 319.1 366.1 L319.1 366.1 Z M61 218.1 L536.6 218.1 L552.7 331.9 L77.1 331.9 L61 218.1 Z M264.8 -17.9 C325.6 -17.9 382 33.8 382 94.8 C382 143.9 344.7 183.9 293.5 183.9 C234 183.9 177.4 132.2 177.4 71.8 C177.4 21.9 214.6 -17.9 264.8 -17.9 L264.8 -17.9 Z " />
<glyph glyph-name="oslash" unicode="&#xf8;" horiz-adv-x="559" d="M587.1 453.9 L536.6 508.6 L478.46 452.01 C438.79 477.11 388.03 489.96 330.66 489.96 C175.26 489.96 53.06 380.06 53.06 200.16 C53.06 148.18 65.66 105.52 88.18 72.14 L38.31 23.6 L88.21 -35.1 L143.49 19.08 C183.08 -5.68999 233.63 -18.05 290.98 -18.05 C447.38 -18.05 567.58 93.55 567.58 277.05 C567.58 326.59 554.98 367.83 532.55 400.41 L587.1 453.9 Z M323.58 348.35 C338.56 348.35 351.02 344.77 360.79 337.45 L234.45 214.48 C235.92 285.83 262.85 348.35 323.59 348.35 L323.58 348.35 Z M298.49 126.65 C284.62 126.65 272.72 129.85 263.07 136.25 L386.5 257.23 C384.72 186.45 358.23 126.65 298.49 126.65 L298.49 126.65 Z " />
<glyph glyph-name="ugrave" unicode="&#xf9;" horiz-adv-x="549" d="M492.9 596.1 L318 759.3 L214.7 632.6 L423.6 513.5 L492.9 596.1 Z M523 121 L572 472 L393 472 L351.34 175.2 C334.99 153.03 311.75 142 291.19 142 C250.89 142 238.49 167.4 245.99 222 L280.99 472 L100.99 472 L62.99 201 C42.49 54.8 91.19 -18 209.49 -18 C249.77 -18 294.9 -5.5 337.51 31.78 C338.31 11.17 341.48 -5.68001 347.28 -21 L524.98 4.19998 C515.48 33.8 516.38 74.2 522.98 121 L523 121 Z " />
<glyph glyph-name="uacute" unicode="&#xfa;" horiz-adv-x="549" d="M492.9 628.9 L420.9 761.8 L207.6 602.3 L258.2 513.5 L492.9 628.9 Z M523 121 L572 472 L393 472 L351.34 175.2 C334.99 153.03 311.75 142 291.19 142 C250.89 142 238.49 167.4 245.99 222 L280.99 472 L100.99 472 L62.99 201 C42.49 54.8 91.19 -18 209.49 -18 C249.77 -18 294.9 -5.50002 337.51 31.78 C338.31 11.17 341.48 -5.68002 347.28 -21 L524.98 4.19997 C515.48 33.8 516.38 74.2 522.98 121 L523 121 Z " />
<glyph glyph-name="ucircumflex" unicode="&#xfb;" horiz-adv-x="549" d="M359.7 618 L457.3 518.8 L540.2 595.6 L422.1 737.6 L321.3 737.6 L162.9 595.6 L237.2 518.8 L359.7 618 Z M523 121 L572 472 L393 472 L351.34 175.2 C334.99 153.03 311.75 142 291.19 142 C250.89 142 238.49 167.4 245.99 222 L280.99 472 L100.99 472 L62.99 201 C42.49 54.8 91.19 -18 209.49 -18 C249.77 -18 294.9 -5.5 337.51 31.78 C338.31 11.17 341.48 -5.68001 347.28 -21 L524.98 4.19998 C515.48 33.8 516.38 74.2 522.98 121 L523 121 Z " />
<glyph glyph-name="udieresis" unicode="&#xfc;" horiz-adv-x="549" d="M227.5 538 C279.2 538 327.3 582.3 327.3 634.1 C327.3 675.8 295.7 709.7 252.2 709.7 C201.6 709.7 153.7 665.8 153.7 614.5 C153.7 572.1 185.5 538 227.5 538 L227.5 538 Z M464 538.4 C515.6 538.4 563.4 582.3 563.4 634.1 C563.4 675.8 531.8 709.7 488.4 709.7 C437.8 709.7 389.8 665.8 389.8 614.5 C389.8 572.1 421.3 538.4 464 538.4 L464 538.4 Z M523 121 L572 472 L393 472 L351.34 175.2 C334.99 153.03 311.75 142 291.19 142 C250.89 142 238.49 167.4 245.99 222 L280.99 472 L100.99 472 L62.99 201 C42.49 54.8 91.19 -18 209.49 -18 C249.77 -18 294.9 -5.5 337.51 31.78 C338.31 11.17 341.48 -5.68001 347.28 -21 L524.98 4.19998 C515.48 33.8 516.38 74.2 522.98 121 L523 121 Z " />
<glyph glyph-name="yacute" unicode="&#xfd;" horiz-adv-x="547" d="M493.1 628.9 L421.1 761.8 L207.8 602.3 L258.4 513.5 L493.1 628.9 Z M392.8 472 L353.5 192.28 C337.2 170.73 314.27 160.01 294 160.01 C253.8 160.01 241.4 185.41 249 240.01 L282 472.01 L102 472.01 L66 219.01 C45.3 72.81 94 0.00997925 212.3 0.00997925 C250.18 0.00997925 292.28 11.03 332.55 43.26 L326.19 -1.99002 C320.79 -41.99 293.79 -65.99 229.09 -65.99 C181.29 -65.99 137.49 -50.99 99.49 -31.79 L27.99 -160.69 C78.79 -188.99 142.19 -204.99 210.39 -204.99 C364.19 -204.99 487.59 -138.09 511.99 36.01 L572.99 472.01 L392.8 472 Z " />
<glyph glyph-name="thorn" unicode="&#xfe;" horiz-adv-x="557" d="M397.3 490 C350.74 490 313.93 478.36 284.74 460.84 L312.3 657 L132.3 657 L14 -185 L194 -185 L218.07 -13.67 C234.22 -16.61 253.13 -18 276.4 -18 C444.6 -18 570.6 97.8 570.6 286.7 C570.6 416.8 506.1 490 397.3 490 L397.3 490 Z M286.5 133 C269.37 133 253.77 134.42 239.81 141.1 L262.38 301.72 C273.37 320.97 293.72 340 331.3 340 C375.4 340 389.1 309.2 389.1 266.7 C389.1 180.3 341.6 133 286.5 133 L286.5 133 Z " />
<glyph glyph-name="ydieresis" unicode="&#xff;" horiz-adv-x="547" d="M227.7 538 C279.4 538 327.5 582.3 327.5 634.1 C327.5 675.8 295.9 709.7 252.4 709.7 C201.8 709.7 153.9 665.8 153.9 614.5 C153.9 572.1 185.7 538 227.7 538 L227.7 538 Z M464.2 538.4 C515.8 538.4 563.6 582.3 563.6 634.1 C563.6 675.8 532 709.7 488.6 709.7 C438 709.7 390 665.8 390 614.5 C390 572.1 421.5 538.4 464.2 538.4 L464.2 538.4 Z M392.8 472 L353.5 192.28 C337.2 170.73 314.27 160.01 294 160.01 C253.8 160.01 241.4 185.41 249 240.01 L282 472.01 L102 472.01 L66 219.01 C45.3 72.81 94 0.00999451 212.3 0.00999451 C250.18 0.00999451 292.28 11.03 332.55 43.26 L326.19 -1.99001 C320.79 -41.99 293.79 -65.99 229.09 -65.99 C181.29 -65.99 137.49 -50.99 99.49 -31.79 L27.99 -160.69 C78.79 -188.99 142.19 -204.99 210.39 -204.99 C364.19 -204.99 487.59 -138.09 511.99 36.01 L572.99 472.01 L392.8 472 Z " />
<glyph glyph-name="Amacron" unicode="&#x100;" horiz-adv-x="631" d="M599 833.7 L266.8 833.7 L250.3 717.7 L582.5 717.7 L599 833.7 Z M454.5 0 L633.5 0 L496.7 642 L317.1 642 L-6.00002 0 L180.1 0 L228.57 103 L434.4 103 L454.5 0 Z M298.69 252 L348.9 358.7 L374.53 414.12 L384.5 358.7 L405.32 252 L298.69 252 Z " />
<glyph glyph-name="amacron" unicode="&#x101;" horiz-adv-x="558" d="M540.7 704.7 L208.2 704.7 L189.4 572.7 L521.9 572.7 L540.7 704.7 Z M534.4 121 L576.4 421 C538.6 451.2 465.1 490 358.5 490 C168.6 490 53 372.7 53 189.4 C53 56.5 124.9 -18 229.9 -18 C280.37 -18 319.28 -3.37 349.37 17.77 C350.9 3.29001 353.87 -9.29999 358.3 -21 L536.2 4.20001 C526.7 33.8 527.9 74.2 534.4 121 L534.4 121 Z M234.9 212.3 C234.9 289.6 272.5 339 336.7 339 C355.82 339 370.98 337.57 384.22 330.88 L362.2 170.64 C351.43 151.33 331.16 132 295.9 132 C253.8 132 234.9 165.6 234.9 212.3 L234.9 212.3 Z " />
<glyph glyph-name="Abreve" unicode="&#x102;" horiz-adv-x="631" d="M420.7 688 C556 688 610.6 758.3 629.7 844.6 L501 861.6 C489.7 823.2 465.8 806 431.5 806 C400.5 806 371.6 822 365.8 860.4 L240.9 844.6 C244.6 755.2 304.1 688 420.7 688 L420.7 688 Z M454.5 1.52588e-05 L633.5 1.52588e-05 L496.7 642 L317.1 642 L-5.99998 1.52588e-05 L180.1 1.52588e-05 L228.57 103 L434.4 103 L454.5 1.52588e-05 Z M298.69 252 L348.9 358.7 L374.53 414.12 L384.5 358.7 L405.32 252 L298.69 252 Z " />
<glyph glyph-name="abreve" unicode="&#x103;" horiz-adv-x="558" d="M357.4 527 C514.6 527 559.8 618 576.3 701.3 L445.7 715.8 C434.8 668.5 413.5 649 371.4 649 C336.2 649 309.3 666.3 303.7 715.8 L181.1 701.3 C174 618 236 527 357.4 527 L357.4 527 Z M534.4 121 L576.4 421 C538.6 451.2 465.1 490 358.5 490 C168.6 490 53 372.7 53 189.4 C53 56.5 124.9 -18 229.9 -18 C280.37 -18 319.28 -3.37 349.37 17.77 C350.9 3.29001 353.87 -9.29999 358.3 -21 L536.2 4.20001 C526.7 33.8 527.9 74.2 534.4 121 L534.4 121 Z M234.9 212.3 C234.9 289.6 272.5 339 336.7 339 C355.82 339 370.98 337.57 384.22 330.88 L362.2 170.64 C351.43 151.33 331.16 132 295.9 132 C253.8 132 234.9 165.6 234.9 212.3 L234.9 212.3 Z " />
<glyph glyph-name="Aogonek" unicode="&#x104;" horiz-adv-x="631" d="M596.4 -89 C585.7 -95.1 574.6 -101 559.8 -101 C546.2 -101 533.7 -92.8 533.7 -74.7 C533.7 -54.8 554 -12.1 633.5 0 L496.7 642 L317.1 642 L-6.00003 0 L180.1 0 L228.57 103 L434.4 103 L454.5 0 L486.3 0 C438.1 -35.5 406.3 -76.5 406.3 -130.8 C406.3 -185.5 445.6 -220 517 -220 C574.5 -220 614.2 -198.5 639.1 -177 L596.4 -89 Z M298.69 252 L348.9 358.7 L374.53 414.12 L384.5 358.7 L405.32 252 L298.69 252 Z " />
<glyph glyph-name="aogonek" unicode="&#x105;" horiz-adv-x="558" d="M460.5 -101 C447.2 -101 434.9 -92.8 434.9 -74.8 C434.9 -52.2 450.8 -21.4 536.2 4.20001 C526.7 33.8 527.9 74.2 534.4 121 L576.4 421 C538.6 451.2 465.1 490 358.5 490 C168.6 490 53 372.7 53 189.4 C53 56.5 124.9 -18 229.9 -18 C280.37 -18 319.28 -3.36998 349.37 17.77 C350.77 4.57002 353.36 -7.05998 357.17 -17.88 C329.95 -47.78 308.21 -82.11 308.21 -131.11 C308.21 -185.61 346.81 -220.01 417.61 -220.01 C474.81 -220.01 513.91 -198.51 538.51 -177.01 L496.31 -89.01 C485.61 -95.11 474.91 -101.01 460.51 -101.01 L460.5 -101 Z M234.91 212.29 C234.91 289.59 272.51 338.99 336.71 338.99 C355.83 338.99 370.99 337.56 384.23 330.87 L362.21 170.63 C351.44 151.32 331.17 131.99 295.91 131.99 C253.81 131.99 234.91 165.59 234.91 212.29 L234.91 212.29 Z " />
<glyph glyph-name="Cacute" unicode="&#x106;" horiz-adv-x="572" d="M314.8 679.8 L585.2 726.3 L555.7 876.2 L294.3 777.9 L314.8 679.8 Z M453.2 662 C216.7 662 66 504.8 66 269.2 C66 108.3 180.7 -18 359.9 -18 C461.2 -18 530.9 11 576.6 46 L498.4 198 C469.3 173.4 434.8 156 385.2 156 C308.2 156 264.1 205.1 264.1 290.9 C264.1 411 336.2 490 434.6 490 C466.2 490 491.8 482.5 522 458 L639.5 601 C601.8 634.3 541.9 662 453.2 662 L453.2 662 Z " />
<glyph glyph-name="cacute" unicode="&#x107;" horiz-adv-x="451" d="M253.6 513.5 L488.3 628.9 L416.3 761.8 L203 602.3 L253.6 513.5 Z M488.2 456.1 C458 474.9 408.3 490 351 490 C185.9 490 52 379.8 52 194.9 C52 59.7 134.9 -18 283.6 -18 C357.7 -18 414.1 9.20001 453 36.9 L404.6 162.7 C377.7 138.5 340.8 129 316.9 129 C259.5 129 234.3 168 234.3 219.6 C234.3 293.3 281.1 341 347.8 341 C378.3 341 405.2 333.7 430.8 315.1 L488.2 456.1 Z " />
<glyph glyph-name="Cdotaccent" unicode="&#x10a;" horiz-adv-x="572" d="M429.4 687.7 C492.1 687.7 550.4 741 550.4 803.6 C550.4 854.2 511.9 895.3 459.1 895.3 C397.6 895.3 339.3 842.2 339.3 780 C339.3 728.7 377.6 687.7 429.4 687.7 L429.4 687.7 Z M453.2 662 C216.7 662 66 504.8 66 269.2 C66 108.3 180.7 -18 359.9 -18 C461.2 -18 530.9 11 576.6 46 L498.4 198 C469.3 173.4 434.8 156 385.2 156 C308.2 156 264.1 205.1 264.1 290.9 C264.1 411 336.2 490 434.6 490 C466.2 490 491.8 482.5 522 458 L639.5 601 C601.8 634.3 541.9 662 453.2 662 L453.2 662 Z " />
<glyph glyph-name="cdotaccent" unicode="&#x10b;" horiz-adv-x="451" d="M461.6 644.3 C461.6 694.8 423.1 736 370.3 736 C308.9 736 250.6 682.8 250.6 620.7 C250.6 569.4 288.9 528.4 340.7 528.4 C403.4 528.4 461.6 581.7 461.6 644.3 L461.6 644.3 Z M488.2 456.1 C458 474.9 408.3 490 351 490 C185.9 490 52 379.8 52 194.9 C52 59.7 134.9 -18 283.6 -18 C357.7 -18 414.1 9.20003 453 36.9 L404.6 162.7 C377.7 138.5 340.8 129 316.9 129 C259.5 129 234.3 168 234.3 219.6 C234.3 293.3 281.1 341 347.8 341 C378.3 341 405.2 333.7 430.8 315.1 L488.2 456.1 Z " />
<glyph glyph-name="Ccaron" unicode="&#x10c;" horiz-adv-x="572" d="M475.6 684 L632.3 785.2 L590.4 869.2 L442.7 805.2 L313.1 869.2 L247.2 785.2 L375.1 684 L475.6 684 Z M453.2 662 C216.7 662 66 504.8 66 269.2 C66 108.3 180.7 -18 359.9 -18 C461.2 -18 530.9 11 576.6 46 L498.4 198 C469.3 173.4 434.8 156 385.2 156 C308.2 156 264.1 205.1 264.1 290.9 C264.1 411 336.2 490 434.6 490 C466.2 490 491.8 482.5 522 458 L639.5 601 C601.8 634.3 541.9 662 453.2 662 L453.2 662 Z " />
<glyph glyph-name="ccaron" unicode="&#x10d;" horiz-adv-x="451" d="M285.8 519.8 L386.6 519.8 L544.9 661.8 L472 738.6 L350.2 639.4 L250.5 738.6 L167.6 661.8 L285.8 519.8 Z M488.2 456.1 C458 474.9 408.3 490 351 490 C185.9 490 52 379.8 52 194.9 C52 59.7 134.9 -18 283.6 -18 C357.7 -18 414.1 9.20003 453 36.9 L404.6 162.7 C377.7 138.5 340.8 129 316.9 129 C259.5 129 234.3 168 234.3 219.6 C234.3 293.3 281.1 341 347.8 341 C378.3 341 405.2 333.7 430.8 315.1 L488.2 456.1 Z " />
<glyph glyph-name="Dcaron" unicode="&#x10e;" horiz-adv-x="652" d="M443.9 684 L600.6 785.2 L558.7 869.2 L411 805.2 L281.4 869.2 L215.5 785.2 L343.4 684 L443.9 684 Z M361.5 642 L145.3 642 L55 0 L270.5 0 C532.7 0 674.3 134.4 674.3 363.3 C674.3 540.1 550.2 642 361.5 642 L361.5 642 Z M305.4 171 L259.05 171 L301.25 471 L347.1 471 C424.7 471 473.5 439 473.5 353.5 C473.5 237.7 410.5 171 305.4 171 L305.4 171 Z " />
<glyph glyph-name="dcaron" unicode="&#x10f;" horiz-adv-x="589" d="M808.2 733.1 L669.6 733.1 C672.9 716.6 674.8 694.2 674.8 675.1 C674.8 626.2 665.1 576.4 619.9 510.8 L691.6 474.2 C757.3 522.2 809.1 610.6 809.1 702.4 C809.1 712.7 808.8 723.8 808.2 733.1 L808.2 733.1 Z M609.4 657 L429.4 657 L405.34 485.63 C389.19 488.6 370.29 490 347.01 490 C170.21 490 53.01 372.8 53.01 189.4 C53.01 56.5 124.71 -18 229.71 -18 C280.31 -18 319.32 -3.29999 349.48 17.93 C351.06 3.38 354.02 -9.25999 358.4 -21.01 L536.3 4.19 C526.7 33.79 527.9 74.19 534.4 120.99 L609.4 657 Z M234.9 212.29 C234.9 289.59 272.6 338.99 336.7 338.99 C355.59 338.99 370.59 337.61 383.66 331.22 L360.78 168.3 C349.65 149.79 329.55 131.98 295.7 131.98 C253.7 131.98 234.9 165.58 234.9 212.28 L234.9 212.29 Z " />
<glyph glyph-name="Dcroat" unicode="&#x110;" horiz-adv-x="652" d="M361.5 642 L145.3 642 L107.86 375.8 L41.7 375.8 L27.7 258.2 L91.32 258.2 L55 0 L270.5 0 C532.7 0 674.3 134.4 674.3 363.3 C674.3 540.1 550.2 642 361.5 642 L361.5 642 Z M305.4 171 L259.05 171 L271.31 258.2 L360.59 258.2 L374.59 375.8 L287.85 375.8 L301.24 471 L347.09 471 C424.69 471 473.49 439 473.49 353.5 C473.49 237.7 410.49 171 305.39 171 L305.4 171 Z " />
<glyph glyph-name="dcroat" unicode="&#x111;" horiz-adv-x="560" d="M589.53 515 L649.2 515 L663.2 613 L603.24 613 L609.4 657 L429.4 657 L423.22 613 L330.3 613 L316.3 515 L409.46 515 L405.34 485.63 C389.19 488.6 370.29 490 347.01 490 C170.21 490 53.01 372.8 53.01 189.4 C53.01 56.5 124.71 -18 229.71 -18 C280.31 -18 319.32 -3.29999 349.48 17.93 C351.06 3.38 354.02 -9.25999 358.4 -21.01 L536.3 4.19 C526.7 33.79 527.9 74.19 534.4 120.99 L589.53 515 Z M234.9 212.29 C234.9 289.59 272.6 338.99 336.7 338.99 C355.59 338.99 370.59 337.61 383.66 331.22 L360.78 168.3 C349.65 149.79 329.55 131.98 295.7 131.98 C253.7 131.98 234.9 165.58 234.9 212.28 L234.9 212.29 Z " />
<glyph glyph-name="Emacron" unicode="&#x112;" horiz-adv-x="520" d="M558.8 833.7 L226.6 833.7 L210.1 717.7 L542.3 717.7 L558.8 833.7 Z M542.6 483 L565.5 642 L145.3 642 L55 0 L483.7 0 L506.5 159 L257.74 159 L269.47 244 L482.1 244 L504.6 401 L291.14 401 L302.46 483 L542.6 483 Z " />
<glyph glyph-name="emacron" unicode="&#x113;" horiz-adv-x="511" d="M531.8 704.7 L199.3 704.7 L180.5 572.7 L513 572.7 L531.8 704.7 Z M529.7 345.8 C529.7 426.6 467.1 490 345.4 490 C172.5 490 52 365.7 52 193.2 C52 54.7 142.7 -18 269.8 -18 C376.8 -18 446.3 10.9 493.4 40.5 L448.8 161.4 C407 136.6 363.1 122 317.3 122 C274.45 122 249.3 134.26 237.45 159.85 C360.66 164.08 529.7 200.13 529.7 345.8 L529.7 345.8 Z M234.38 262.21 C247.29 324.64 282.24 357 321 357 C346.2 357 359 343.5 359 324.4 C359 275.95 290.5 264.13 234.38 262.21 L234.38 262.21 Z " />
<glyph glyph-name="Edotaccent" unicode="&#x116;" horiz-adv-x="520" d="M370.3 687.7 C433 687.7 491.3 741 491.3 803.6 C491.3 854.2 452.8 895.3 400 895.3 C338.5 895.3 280.2 842.2 280.2 780 C280.2 728.7 318.5 687.7 370.3 687.7 L370.3 687.7 Z M542.6 483 L565.5 642 L145.3 642 L55 1.52588e-05 L483.7 1.52588e-05 L506.5 159 L257.74 159 L269.47 244 L482.1 244 L504.6 401 L291.14 401 L302.46 483 L542.6 483 Z " />
<glyph glyph-name="edotaccent" unicode="&#x117;" horiz-adv-x="511" d="M341.2 528.4 C403.9 528.4 462.1 581.7 462.1 644.3 C462.1 694.8 423.6 736 370.8 736 C309.4 736 251.1 682.8 251.1 620.7 C251.1 569.4 289.4 528.4 341.2 528.4 L341.2 528.4 Z M317.3 122 C274.45 122 249.3 134.26 237.45 159.85 C360.66 164.08 529.7 200.13 529.7 345.8 C529.7 426.6 467.1 490 345.4 490 C172.5 490 52 365.7 52 193.2 C52 54.7 142.7 -18 269.8 -18 C376.8 -18 446.3 10.9 493.4 40.5 L448.8 161.4 C407 136.6 363.1 122 317.3 122 L317.3 122 Z M321 357 C346.2 357 359 343.5 359 324.4 C359 275.95 290.5 264.13 234.38 262.21 C247.29 324.64 282.24 357 321 357 L321 357 Z " />
<glyph glyph-name="Eogonek" unicode="&#x118;" horiz-adv-x="520" d="M542.6 483 L565.5 642 L145.3 642 L55 0 L336.5 0 C288.3 -35.5 256.5 -76.5 256.5 -130.8 C256.5 -185.5 295.8 -220 367.2 -220 C424.7 -220 464.4 -198.5 489.3 -177 L446.6 -89 C435.9 -95.1 424.8 -101 410 -101 C396.4 -101 383.9 -92.8 383.9 -74.7 C383.9 -54.8 404.2 -12.1 483.7 0 L506.5 159 L257.74 159 L269.47 244 L482.1 244 L504.6 401 L291.14 401 L302.46 483 L542.6 483 Z " />
<glyph glyph-name="eogonek" unicode="&#x119;" horiz-adv-x="511" d="M444.62 14.84 C463.16 22.82 479.28 31.63 493.39 40.5 L448.79 161.4 C406.99 136.6 363.09 122 317.29 122 C274.44 122 249.29 134.26 237.44 159.85 C360.65 164.08 529.69 200.13 529.69 345.8 C529.69 426.6 467.09 490 345.39 490 C172.49 490 51.99 365.7 51.99 193.2 C51.99 54.7 142.69 -18 269.79 -18 C276.9 -18 283.85 -17.87 290.64 -17.62 C255.94 -48.47 234.09 -84.8 234.09 -131.09 C234.09 -185.59 272.69 -219.99 343.49 -219.99 C400.69 -219.99 439.79 -198.49 464.39 -176.99 L422.19 -88.99 C411.49 -95.09 400.79 -100.99 386.39 -100.99 C373.09 -100.99 360.79 -92.79 360.79 -74.79 C360.79 -47.55 392.18 -14.44 444.61 14.85 L444.62 14.84 Z M320.99 357.01 C346.19 357.01 358.99 343.51 358.99 324.41 C358.99 275.96 290.49 264.14 234.37 262.22 C247.28 324.65 282.23 357.01 320.99 357.01 L320.99 357.01 Z " />
<glyph glyph-name="Ecaron" unicode="&#x11a;" horiz-adv-x="520" d="M416.5 684 L573.2 785.2 L531.3 869.2 L383.6 805.2 L254 869.2 L188.1 785.2 L316 684 L416.5 684 Z M55 0 L483.7 0 L506.5 159 L257.74 159 L269.47 244 L482.1 244 L504.6 401 L291.14 401 L302.46 483 L542.6 483 L565.5 642 L145.3 642 L55 0 Z " />
<glyph glyph-name="ecaron" unicode="&#x11b;" horiz-adv-x="511" d="M387.1 519.8 L545.4 661.8 L472.5 738.6 L350.7 639.4 L251 738.6 L168.1 661.8 L286.3 519.8 L387.1 519.8 Z M529.7 345.8 C529.7 426.6 467.1 490 345.4 490 C172.5 490 52 365.7 52 193.2 C52 54.7 142.7 -18 269.8 -18 C376.8 -18 446.3 10.9 493.4 40.5 L448.8 161.4 C407 136.6 363.1 122 317.3 122 C274.45 122 249.3 134.26 237.45 159.85 C360.66 164.08 529.7 200.13 529.7 345.8 L529.7 345.8 Z M234.38 262.21 C247.29 324.64 282.24 357 321 357 C346.2 357 359 343.5 359 324.4 C359 275.95 290.5 264.13 234.38 262.21 L234.38 262.21 Z " />
<glyph glyph-name="Gbreve" unicode="&#x11e;" horiz-adv-x="631" d="M449.5 688 C584.8 688 639.4 758.3 658.5 844.6 L529.8 861.6 C518.5 823.2 494.6 806 460.3 806 C429.3 806 400.4 822 394.6 860.4 L269.7 844.6 C273.4 755.2 332.9 688 449.5 688 L449.5 688 Z M365 229 L451.31 229 L440.87 154.52 C425.86 152.12 408.98 151 389.5 151 C309.2 151 265.1 201.9 265.1 290.9 C265.1 411 337.2 490 435.6 490 C467.2 490 501.7 484.5 536.5 460 L649.4 603 C611.7 636.3 542.9 662 454.2 662 C217.7 662 67 504.8 67 269.2 C67 108.3 178 -18 365.2 -18 C471.3 -18 536.5 2.60004 598.8 34 L649.7 393 L388.5 393 L365 229 Z " />
<glyph glyph-name="gbreve" unicode="&#x11f;" horiz-adv-x="555" d="M370.4 527 C527.6 527 572.8 618 589.3 701.3 L458.7 715.8 C447.8 668.5 426.5 649 384.4 649 C349.2 649 322.3 666.3 316.7 715.8 L194.1 701.3 C187 618 249 527 370.4 527 L370.4 527 Z M357.4 490 C168 490 53.2 375.4 53.2 198.7 C53.2 71.4 125.8 0 231.5 0 C276.33 0 312.04 11.55 340.54 28.95 L336.2 -2 C330.7 -42 303.8 -66 239.1 -66 C191.3 -66 147.5 -51 109.5 -31.8 L38 -160.7 C88.8 -189 152.1 -205 220.3 -205 C374.1 -205 497.2 -138 521.6 36 L575.6 421 L575.5 421 C537.7 451.2 464 490 357.4 490 L357.4 490 Z M297.4 150 C254.4 150 235.1 180.3 235.1 222.1 C235.1 292.5 272 339 335.7 339 C354.68 339 369.72 337.59 382.89 331.02 L362.68 186.88 C351.64 168.17 331.53 150 297.4 150 L297.4 150 Z " />
<glyph glyph-name="Gdotaccent" unicode="&#x120;" horiz-adv-x="631" d="M439.3 687.7 C502 687.7 560.3 741 560.3 803.6 C560.3 854.2 521.8 895.3 469 895.3 C407.5 895.3 349.2 842.2 349.2 780 C349.2 728.7 387.5 687.7 439.3 687.7 L439.3 687.7 Z M388.5 393 L365 229 L451.31 229 L440.87 154.52 C425.86 152.12 408.98 151 389.5 151 C309.2 151 265.1 201.9 265.1 290.9 C265.1 411 337.2 490 435.6 490 C467.2 490 501.7 484.5 536.5 460 L649.4 603 C611.7 636.3 542.9 662 454.2 662 C217.7 662 67 504.8 67 269.2 C67 108.3 178 -18 365.2 -18 C471.3 -18 536.5 2.60004 598.8 34 L649.7 393 L388.5 393 Z " />
<glyph glyph-name="gdotaccent" unicode="&#x121;" horiz-adv-x="555" d="M363.1 528.4 C425.8 528.4 484 581.7 484 644.3 C484 694.8 445.5 736 392.7 736 C331.3 736 273 682.8 273 620.7 C273 569.4 311.3 528.4 363.1 528.4 L363.1 528.4 Z M575.5 421 C537.7 451.2 464 490 357.4 490 C168 490 53.2 375.4 53.2 198.7 C53.2 71.4 125.8 0 231.5 0 C276.33 0 312.04 11.55 340.54 28.95 L336.2 -2 C330.7 -42 303.8 -66 239.1 -66 C191.3 -66 147.5 -51 109.5 -31.8 L38 -160.7 C88.8 -189 152.1 -205 220.3 -205 C374.1 -205 497.2 -138 521.6 36 L575.6 421 L575.5 421 Z M297.4 150 C254.4 150 235.1 180.3 235.1 222.1 C235.1 292.5 272 339 335.7 339 C354.68 339 369.72 337.59 382.89 331.02 L362.68 186.88 C351.64 168.17 331.53 150 297.4 150 L297.4 150 Z " />
<glyph glyph-name="Gcommaaccent" unicode="&#x122;" horiz-adv-x="631" d="M388.5 393 L365 229 L451.31 229 L440.87 154.52 C425.86 152.12 408.98 151 389.5 151 C309.2 151 265.1 201.9 265.1 290.9 C265.1 411 337.2 490 435.6 490 C467.2 490 501.7 484.5 536.5 460 L649.4 603 C611.7 636.3 542.9 662 454.2 662 C217.7 662 67 504.8 67 269.2 C67 108.3 178 -18 365.2 -18 C471.3 -18 536.5 2.60002 598.8 34 L649.7 393 L388.5 393 Z M349.6 -39.6 C292.9 -39.6 237.1 -90 237.1 -148.8 C237.1 -190 263.5 -225.5 300.8 -234.5 C291.5 -267.2 274.2 -286.7 254.3 -308.2 L303.4 -345.9 C366 -296.2 435.3 -218.5 435.3 -126.6 C435.3 -78.5 399.3 -39.6 349.6 -39.6 L349.6 -39.6 Z " />
<glyph glyph-name="gcommaaccent" unicode="&#x123;" horiz-adv-x="555" d="M364.6 522.6 C421.3 522.6 477.1 573 477.1 631.8 C477.1 673 450.7 708.5 413.4 717.5 C422.7 750.2 440 769.7 459.9 791.2 L410.8 828.9 C348.2 779.2 278.9 701.5 278.9 609.6 C278.9 561.5 314.9 522.6 364.6 522.6 L364.6 522.6 Z M575.5 421 C537.7 451.2 464 490 357.4 490 C168 490 53.2 375.4 53.2 198.7 C53.2 71.4 125.8 0 231.5 0 C276.33 0 312.04 11.55 340.54 28.95 L336.2 -2 C330.7 -42 303.8 -66 239.1 -66 C191.3 -66 147.5 -51 109.5 -31.8 L38 -160.7 C88.8 -189 152.1 -205 220.3 -205 C374.1 -205 497.2 -138 521.6 36 L575.6 421 L575.5 421 Z M297.4 150 C254.4 150 235.1 180.3 235.1 222.1 C235.1 292.5 272 339 335.7 339 C354.68 339 369.72 337.59 382.89 331.02 L362.68 186.88 C351.64 168.17 331.53 150 297.4 150 L297.4 150 Z " />
<glyph glyph-name="Hbar" unicode="&#x126;" horiz-adv-x="752" d="M811.9 566 L727.62 566 L738.3 642 L558.4 642 L547.71 566 L359.81 566 L370.5 642 L190.6 642 L179.91 566 L96.1 566 L81 460 L165 460 L100.3 0 L280.2 0 L313.96 240 L501.86 240 L468.1 0 L648.1 0 L712.73 460 L796.8 460 L811.9 566 Z M525.06 405 L337.16 405 L344.9 460 L532.8 460 L525.06 405 Z " />
<glyph glyph-name="hbar" unicode="&#x127;" horiz-adv-x="556" d="M413.3 490 C375.73 490 328.71 481.69 283.26 450.71 L292.28 515 L385.71 515 L399.71 613 L306.04 613 L312.21 657 L132.31 657 L126.13 613 L66.81 613 L52.81 515 L112.36 515 L40.01 0 L220.01 0 L260.87 291.16 C280.81 316.26 309.6 330 331.6 330 C371.6 330 383.5 304.6 375.9 250 L340.9 1.52588e-05 L520.9 1.52588e-05 L558.9 271 C579.4 417.2 531.4 490 413.3 490 L413.3 490 Z " />
<glyph glyph-name="Itilde" unicode="&#x128;" horiz-adv-x="428" d="M439.4 860.9 C428.9 836.5 411.2 821.2 391.2 821.2 C347.3 821.2 323.1 864.6 249.2 864.6 C186.9 864.6 124 822.6 93 733.4 L205.7 687.1 C216.3 713.4 236 733.6 261.6 733.6 C309 733.6 331.5 691.5 403 691.5 C459.3 691.5 521.7 729.9 551.6 813.2 L439.4 860.9 Z M477.7 642 L129.8 642 L107.4 483 L191.44 483 L145.87 159 L61.91 159 L39.51 -1.52588e-05 L387.41 -1.52588e-05 L409.81 159 L325.77 159 L371.34 483 L455.3 483 L477.7 642 Z " />
<glyph glyph-name="itilde" unicode="&#x129;" horiz-adv-x="286" d="M128.6 543 C137.4 571 154.3 590 172.1 590 C202.3 590 221.3 554 271.9 554 C329 554 389 604 412.8 690 L319.1 731 C310.7 705.7 294.1 689 276.9 689 C247.1 689 225 726 176.2 726 C118.6 726 59.2 674 35 584 L128.6 543 Z M311.7 472 L88 472 L65.4 314.3 L109.2 314.3 L65.5 0 L245.4 0 L311.7 472 Z " />
<glyph glyph-name="Imacron" unicode="&#x12a;" horiz-adv-x="422" d="M162.9 833.7 L146.4 717.7 L478.6 717.7 L495.1 833.7 L162.9 833.7 Z M473.4 642 L128.3 642 L105.5 483 L188.54 483 L142.97 159 L60.91 159 L38.01 0 L383.11 0 L405.91 159 L322.87 159 L368.44 483 L450.5 483 L473.4 642 Z " />
<glyph glyph-name="imacron" unicode="&#x12b;" horiz-adv-x="286" d="M84.2 572.7 L349.6 572.7 L368.5 704.7 L103.1 704.7 L84.2 572.7 Z M311.3 472 L87.5 472 L65 314.3 L108.8 314.3 L65 0 L245 0 L311.3 472 Z " />
<glyph glyph-name="Iogonek" unicode="&#x12e;" horiz-adv-x="428" d="M455.3 483 L477.7 642 L129.8 642 L107.4 483 L191.44 483 L145.87 159 L61.91 159 L39.51 0 L166.91 0 C117.31 -34.3 88.01 -75.5 88.01 -131.1 C88.01 -185.6 126.61 -220 197.41 -220 C254.61 -220 293.71 -198.5 318.31 -177 L276.11 -89 C265.41 -95.1 254.71 -101 240.31 -101 C227.01 -101 214.71 -92.8 214.71 -74.8 C214.71 -52 234.51 -25.1 274.61 0 L387.41 0 L409.81 159 L325.77 159 L371.34 483 L455.3 483 Z " />
<glyph glyph-name="iogonek" unicode="&#x12f;" horiz-adv-x="286" d="M221.5 528.4 C284.2 528.4 342.4 581.7 342.4 644.3 C342.4 694.8 303.9 736 251.1 736 C189.7 736 131.4 682.8 131.4 620.7 C131.4 569.4 169.7 528.4 221.5 528.4 L221.5 528.4 Z M65 314.3 L108.8 314.3 L65 -1.52588e-05 L93.6 -1.52588e-05 C39 -34.3 14 -72.6 14 -131.1 C14 -185.6 52.6 -220 123.4 -220 C180.6 -220 219.7 -198.5 244.3 -177 L202.1 -89 C191.4 -95.1 180.7 -101 166.3 -101 C153 -101 140.7 -92.8 140.7 -74.8 C140.7 -52.2 156.6 -21.4 245 -1.52588e-05 L311.3 472 L87.5 472 L65 314.3 Z " />
<glyph glyph-name="Idotaccent" unicode="&#x130;" horiz-adv-x="422" d="M306.6 687.7 C369.4 687.7 427.6 741 427.6 803.6 C427.6 854.2 389.8 895 336 895 C274.6 895 216.5 842.2 216.5 780 C216.5 728.7 254.8 687.7 306.6 687.7 L306.6 687.7 Z M450.5 483 L473.4 642 L128.3 642 L105.5 483 L188.54 483 L142.97 159 L60.91 159 L38.01 1.52588e-05 L383.11 1.52588e-05 L405.91 159 L322.87 159 L368.44 483 L450.5 483 Z " />
<glyph glyph-name="dotlessi" unicode="&#x131;" horiz-adv-x="286" d="M311.3 472 L87.5 472 L65 314.3 L108.8 314.3 L65 0 L245 0 L311.3 472 Z " />
<glyph glyph-name="IJ" unicode="&#x132;" horiz-adv-x="859" d="M368.44 483 L450.5 483 L473.4 642 L128.3 642 L105.4 483 L188.54 483 L142.97 159 L60.81 159 L38.01 0 L383.11 0 L405.91 159 L322.87 159 L368.44 483 Z M898.61 642 L608.21 642 L585.41 483 L696.21 483 L656.61 202 C652.21 170 632.51 151 603.31 151 C569.81 151 555.61 170 538.31 195.5 L421.41 63.9 C461.31 3.59999 521.91 -18 589.31 -18 C735.41 -18 818.71 72.2 837.61 207 L898.61 642 Z " />
<glyph glyph-name="ij" unicode="&#x133;" horiz-adv-x="567" d="M342.3 644.3 C342.3 694.8 303.9 736 251 736 C189.6 736 131.3 682.8 131.3 620.7 C131.3 569.4 169.6 528.4 221.4 528.4 C284.1 528.4 342.3 581.7 342.3 644.3 L342.3 644.3 Z M623.1 644.3 C623.1 694.8 584.7 736 531.8 736 C470.4 736 412.1 682.8 412.1 620.7 C412.1 569.4 450.4 528.4 502.2 528.4 C564.9 528.4 623.1 581.7 623.1 644.3 L623.1 644.3 Z M311.3 472 L87.5 472 L65 314.3 L108.8 314.3 L65 0 L245 0 L311.3 472 Z M597 472 L373.1 472 L350.5 314.3 L395 314 L351 0 C345.4 -40.1 320.1 -56 288.9 -56 C273.2 -56 257 -52.1 241.5 -38.2 L164.7 -161.6 C196.7 -193.7 247 -204 291.8 -204 C432.6 -204 512.8 -128 532 8.99998 L597 472 Z " />
<glyph glyph-name="Kcommaaccent" unicode="&#x136;" horiz-adv-x="619" d="M512.4 227.9 L441.89 359.08 L706.9 642 L493 642 L294.63 417.31 L326.2 642 L146.2 642 L56 -1.52588e-05 L236 -1.52588e-05 L259.02 163.85 L308.12 216.27 L354.4 130 C423.9 0.499985 484.3 -6.00002 595.9 -6.00002 L620.1 162.7 C566.3 162.7 537.5 181.2 512.4 227.9 L512.4 227.9 Z M336.63 -39.6 C279.93 -39.6 224.13 -90 224.13 -148.8 C224.13 -190 250.53 -225.5 287.83 -234.5 C278.53 -267.2 261.23 -286.7 241.33 -308.2 L290.43 -345.9 C353.03 -296.2 422.33 -218.5 422.33 -126.6 C422.33 -78.5 386.33 -39.6 336.63 -39.6 L336.63 -39.6 Z " />
<glyph glyph-name="kcommaaccent" unicode="&#x137;" horiz-adv-x="559" d="M462.9 197.9 L409.18 282.04 L619.6 472 L400 471.8 L266.37 330.08 L312.3 657 L132.3 657 L40 0 L220 0 L237.9 127.43 L281.79 167.06 L330.89 94 C366.99 40.5 389.29 -6 535.79 -6 L556.09 138.9 C512.79 138.9 489.19 156.7 462.89 197.9 L462.9 197.9 Z M291.09 -39.6 C234.39 -39.6 178.59 -90 178.59 -148.8 C178.59 -190 204.99 -225.5 242.29 -234.5 C232.99 -267.2 215.69 -286.7 195.79 -308.2 L244.89 -345.9 C307.49 -296.2 376.79 -218.5 376.79 -126.6 C376.79 -78.5 340.79 -39.6 291.09 -39.6 L291.09 -39.6 Z " />
<glyph glyph-name="kgreenlandic" unicode="&#x138;" horiz-adv-x="559" d="M462.9 197.9 L409.18 282.04 L619.6 472 L400 471.8 L266.36 330.08 L286.3 472 L106.3 472 L40 0 L220 0 L237.9 127.43 L281.8 167.06 L330.9 94 C367 40.5 389.3 -6 535.8 -6 L556.1 138.9 C512.8 138.9 489.2 156.7 462.9 197.9 L462.9 197.9 Z " />
<glyph glyph-name="Lacute" unicode="&#x139;" horiz-adv-x="493" d="M432.6 726.3 L403.1 876.2 L141.7 777.9 L162.2 679.8 L432.6 726.3 Z M259.11 162 L326.2 642 L146.2 642 L56 -1.52588e-05 L471.9 -1.52588e-05 L495.1 162 L259.11 162 Z " />
<glyph glyph-name="lacute" unicode="&#x13a;" horiz-adv-x="313" d="M108.2 679.8 L378.6 726.3 L349.1 876.2 L87.7 777.9 L108.2 679.8 Z M311 657 L129 657 L60 168 C37.9 11.5 124.8 -12 219.7 -12 C245.8 -12 281.2 -8.3 303.6 1.89999 L324.3 146.1 C314.3 140.9 295.6 138 284.5 138 C253.8 138 239.9 152.6 245 190 L311 657 Z " />
<glyph glyph-name="Lcommaaccent" unicode="&#x13b;" horiz-adv-x="493" d="M259.11 162 L326.2 642 L146.2 642 L56 0 L471.9 0 L495.1 162 L259.11 162 Z M253.4 -39.6 C196.7 -39.6 140.9 -90 140.9 -148.8 C140.9 -190 167.3 -225.5 204.6 -234.5 C195.3 -267.2 178 -286.7 158.1 -308.2 L207.2 -345.9 C269.8 -296.2 339.1 -218.5 339.1 -126.6 C339.1 -78.5 303.1 -39.6 253.4 -39.6 L253.4 -39.6 Z " />
<glyph glyph-name="lcommaaccent" unicode="&#x13c;" horiz-adv-x="313" d="M311 657 L129 657 L60 168 C37.9 11.5 124.8 -12 219.7 -12 C245.8 -12 281.2 -8.3 303.6 1.89999 L324.3 146.1 C314.3 140.9 295.6 138 284.5 138 C253.8 138 239.9 152.6 245 190 L311 657 Z M166.1 -39.6 C109.4 -39.6 53.6 -90 53.6 -148.8 C53.6 -190 80 -225.5 117.3 -234.5 C108 -267.2 90.7 -286.7 70.8 -308.2 L119.9 -345.9 C182.5 -296.2 251.8 -218.5 251.8 -126.6 C251.8 -78.5 215.8 -39.6 166.1 -39.6 L166.1 -39.6 Z " />
<glyph glyph-name="Lcaron" unicode="&#x13d;" horiz-adv-x="499" d="M444.3 474.2 C509.9 522.2 561.7 610.6 561.7 702.4 C561.7 712.7 561.4 723.8 560.8 733.1 L422.2 733.1 C425.6 716.6 427.4 694.2 427.4 675.1 C427.4 626.2 417.7 576.4 372.5 510.8 L444.3 474.2 Z M326.2 642 L146.2 642 L56 0 L471.9 0 L495.1 162 L259.11 162 L326.2 642 Z " />
<glyph glyph-name="lcaron" unicode="&#x13e;" horiz-adv-x="327" d="M392.1 474.2 C457.6 522.2 509.4 610.6 509.4 702.4 C509.4 712.7 509.1 723.8 508.6 733.1 L370 733.1 C373.4 716.6 375.2 694.2 375.2 675.1 C375.2 626.2 365.4 576.4 320.2 510.8 L392.1 474.2 Z M311 657 L129 657 L60 168 C37.9 11.5 124.8 -12 219.7 -12 C245.8 -12 281.2 -8.3 303.6 1.89999 L324.3 146.1 C314.3 140.9 295.6 138 284.5 138 C253.8 138 239.9 152.6 245 190 L311 657 Z " />
<glyph glyph-name="Ldot" unicode="&#x13f;" horiz-adv-x="500" d="M326.2 642 L146.2 642 L56 0 L471.9 0 L495.1 162 L259.11 162 L326.2 642 Z M450.2 443 C397.8 443 345.8 396.7 345.8 342.3 C345.8 297.7 379.4 260.9 423.8 260.9 C478.3 260.9 528.8 308.6 528.8 363 C528.8 407.4 496.2 443 450.2 443 L450.2 443 Z " />
<glyph glyph-name="ldot" unicode="&#x140;" horiz-adv-x="420" d="M311 657 L129 657 L60 168 C37.9 11.5 124.8 -12 219.7 -12 C245.8 -12 281.2 -8.3 303.6 1.89999 L324.3 146.1 C314.3 140.9 295.6 138 284.5 138 C253.8 138 239.9 152.6 245 190 L311 657 Z M363 234.9 C417.5 234.9 467.9 282.6 467.9 337 C467.9 381.4 434.8 417.4 388.9 417.4 C336.4 417.4 285 370.7 285 316.3 C285 271.7 318.6 234.9 363 234.9 L363 234.9 Z " />
<glyph glyph-name="Lslash" unicode="&#x141;" horiz-adv-x="524" d="M289.81 162 L310.92 313.26 L418.8 368.1 L382.4 463.2 L327.93 435.16 L356.8 642 L176.9 642 L133.8 335.22 L38 285.9 L72 191.8 L116.85 214.6 L86.7 -1.52588e-05 L502.6 -1.52588e-05 L525.8 162 L289.81 162 Z " />
<glyph glyph-name="lslash" unicode="&#x142;" horiz-adv-x="377" d="M294.5 190 L313.69 325.8 L409.1 373 L375.4 467.8 L330.62 445.58 L360.5 657 L178.5 657 L134.97 348.51 L37 299.9 L71.1 205.8 L118.12 229.06 L109.5 168 C87.4 11.5 173.7 -12 268.6 -12 C294.7 -12 330.1 -8.30002 352.5 1.89998 L373.2 146.1 C363.2 140.9 344.6 138 333.5 138 C302.7 138 289.4 152.6 294.5 190 L294.5 190 Z " />
<glyph glyph-name="Nacute" unicode="&#x143;" horiz-adv-x="670" d="M593.3 726.3 L563.8 876.2 L302.4 777.9 L322.9 679.8 L593.3 726.3 Z M523.6 642 L480.5 330 L476 271.5 L456.7 320 L318.1 642 L145.2 642 L55 -1.52588e-05 L235.1 -1.52588e-05 L275.9 297 L278.69 359.22 L299.9 307 L439.1 -1.52588e-05 L613.5 -1.52588e-05 L703.7 642 L523.6 642 Z " />
<glyph glyph-name="nacute" unicode="&#x144;" horiz-adv-x="558" d="M499.3 628.9 L427.3 761.8 L214 602.3 L264.6 513.5 L499.3 628.9 Z M405 490 C371.29 490 324.09 480.91 277.79 446.27 C276.65 466.02 273.26 482.26 267.6 497.21 L89.8 472.01 C99.4 442.41 98.5 401.81 92 355.01 L42 0.00997925 L222 0.00997925 L263.19 291.73 C281.16 316.47 302.73 330.01 327.9 330.01 C370.8 330.01 385.6 304.61 378 250.01 L343 0.00997925 L523 0.00997925 L561 271.01 C581.5 417.21 533 490.01 405 490.01 L405 490 Z " />
<glyph glyph-name="Ncommaaccent" unicode="&#x145;" horiz-adv-x="670" d="M523.6 642 L480.5 330 L476 271.5 L456.7 320 L318.1 642 L145.2 642 L55 0 L235.1 0 L275.9 297 L278.69 359.22 L299.9 307 L439.1 0 L613.5 0 L703.7 642 L523.6 642 Z M334.4 -39.6 C277.7 -39.6 221.9 -90 221.9 -148.8 C221.9 -190 248.3 -225.5 285.6 -234.5 C276.3 -267.2 259 -286.7 239.1 -308.2 L288.2 -345.9 C350.8 -296.2 420.1 -218.5 420.1 -126.6 C420.1 -78.5 384.1 -39.6 334.4 -39.6 L334.4 -39.6 Z " />
<glyph glyph-name="ncommaaccent" unicode="&#x146;" horiz-adv-x="558" d="M405 490 C371.29 490 324.09 480.91 277.79 446.27 C276.65 466.02 273.26 482.26 267.6 497.21 L89.8 472.01 C99.4 442.41 98.5 401.81 92 355.01 L42 0.00999451 L222 0.00999451 L263.19 291.73 C281.16 316.47 302.73 330.01 327.9 330.01 C370.8 330.01 385.6 304.61 378 250.01 L343 0.00999451 L523 0.00999451 L561 271.01 C581.5 417.21 533 490.01 405 490.01 L405 490 Z M272.7 -39.59 C216 -39.59 160.2 -89.99 160.2 -148.79 C160.2 -189.99 186.6 -225.49 223.9 -234.49 C214.6 -267.19 197.3 -286.69 177.4 -308.19 L226.5 -345.89 C289.1 -296.19 358.4 -218.49 358.4 -126.59 C358.4 -78.49 322.4 -39.59 272.7 -39.59 L272.7 -39.59 Z " />
<glyph glyph-name="Ncaron" unicode="&#x147;" horiz-adv-x="670" d="M483.7 684 L640.4 785.2 L598.5 869.2 L450.8 805.2 L321.2 869.2 L255.3 785.2 L383.2 684 L483.7 684 Z M523.6 642 L480.5 330 L476 271.5 L456.7 320 L318.1 642 L145.2 642 L55 0 L235.1 0 L275.9 297 L278.69 359.22 L299.9 307 L439.1 0 L613.5 0 L703.7 642 L523.6 642 Z " />
<glyph glyph-name="ncaron" unicode="&#x148;" horiz-adv-x="558" d="M397.6 519.8 L555.9 661.8 L483 738.6 L361.2 639.4 L261.5 738.6 L178.6 661.8 L296.8 519.8 L397.6 519.8 Z M405 490 C371.29 490 324.09 480.91 277.79 446.27 C276.65 466.02 273.26 482.26 267.6 497.21 L89.8 472.01 C99.4 442.41 98.5 401.81 92 355.01 L42 0.00999451 L222 0.00999451 L263.19 291.73 C281.16 316.47 302.73 330.01 327.9 330.01 C370.8 330.01 385.6 304.61 378 250.01 L343 0.00999451 L523 0.00999451 L561 271.01 C581.5 417.21 533 490.01 405 490.01 L405 490 Z " />
<glyph glyph-name="napostrophe" unicode="&#x149;" horiz-adv-x="653" d="M266.6 710.2 C266.6 765.5 228.9 803.2 177.6 803.2 C118.3 803.2 60 750.5 60 689.1 C60 645.2 88.9 607.6 129.2 599 C117 553 97 526.8 70.2 495.7 L118.5 451.4 C184 502.4 266.6 597.3 266.6 710.2 L266.6 710.2 Z M510.9 490 C471.3 490 421.19 480.77 373.49 445.48 C372.52 465.59 369.24 482.06 363.5 497.2 L185.7 472 C195.3 442.4 193.8 401.8 187.3 355 L137.3 -1.52588e-05 L317.3 -1.52588e-05 L358.41 291.11 C378.33 316.24 407.1 330 429.2 330 C469.2 330 480.8 304.6 473.3 250 L438.3 -1.52588e-05 L618.3 -1.52588e-05 L656.3 271 C676.8 417.2 629 490 510.9 490 L510.9 490 Z " />
<glyph glyph-name="Eng" unicode="&#x14a;" horiz-adv-x="670" d="M703.7 642 L523.6 642 L480.5 330 L476 271.5 L456.7 320 L318.1 642 L145.2 642 L55 0 L235.1 0 L275.9 297 L278.69 359.22 L299.9 307 L435.15 8.71001 L432.8 -8.89999 C428.4 -41.7 406.5 -59.5 370.7 -59.5 C343.9 -59.5 318 -45.5 306.4 -34.4 L207.7 -179.5 C234.8 -205 291 -228.5 365 -228.5 C529.1 -228.5 593.7 -141.9 613.1 -3 L617.83 30.83 L703.7 642 Z " />
<glyph glyph-name="eng" unicode="&#x14b;" horiz-adv-x="559" d="M405.7 490 C371.99 490 324.79 480.91 278.49 446.27 C277.35 466.02 273.96 482.26 268.3 497.21 L90.5 472.01 C100.1 442.41 99.2 401.81 92.7 355.01 L42.7 0.00999451 L222.7 0.00999451 L263.89 291.73 C281.86 316.47 303.43 330.01 328.6 330.01 C371.5 330.01 386.3 304.61 378.7 250.01 L342.2 -10.69 C335.3 -59.69 319 -73.99 282 -73.99 C258 -73.99 241.5 -62.99 231.8 -53.99 L145.8 -174.99 C172 -202.39 217.3 -220.99 280.3 -220.99 C419.4 -220.99 500.2 -141.79 520.9 -16.89 L523.7 0.00997925 L561.7 271.01 C582.2 417.21 533.7 490.01 405.7 490.01 L405.7 490 Z " />
<glyph glyph-name="Omacron" unicode="&#x14c;" horiz-adv-x="707" d="M296.6 717.7 L628.8 717.7 L645.3 833.7 L313.1 833.7 L296.6 717.7 Z M444.7 662 C224.4 662 64.4 485.1 64.4 262.5 C64.4 88.9 178.6 -18 351 -18 C569.3 -18 731.4 157.2 731.4 378.8 C731.4 555 618.2 662 444.8 662 L444.7 662 Z M422.3 499 C494.4 499 537.6 450.3 537.8 364.2 C537.8 253.8 481.1 145 373.5 145 C301 145 258.1 196.4 258.1 282 C258.1 391.8 314.8 499 422.3 499 L422.3 499 Z " />
<glyph glyph-name="omacron" unicode="&#x14d;" horiz-adv-x="549" d="M189.2 572.7 L521.7 572.7 L540.5 704.7 L208 704.7 L189.2 572.7 Z M288.8 -18 C445.2 -18 565.4 93.6 565.4 277.1 C565.4 416.3 465.9 490 328.5 490 C173.1 490 50.9 380.1 50.9 200.2 C50.9 54.5 149.9 -18 288.8 -18 L288.8 -18 Z M296.3 126.7 C255.9 126.7 232.2 153.8 232.2 208.3 C232.2 282.2 258.9 348.4 321.4 348.4 C362.3 348.4 384.4 321.7 384.4 265 C384.4 190.9 358.2 126.7 296.3 126.7 L296.3 126.7 Z " />
<glyph glyph-name="Ohungarumlaut" unicode="&#x150;" horiz-adv-x="707" d="M325.2 665.5 L510.7 783.3 L439.8 885.7 L272.4 736.6 L325.2 665.5 Z M552.7 665.5 L738.2 783.3 L667.3 885.7 L499.9 736.6 L552.7 665.5 Z M444.7 662 C224.4 662 64.4 485.1 64.4 262.5 C64.4 88.9 178.6 -18 351 -18 C569.3 -18 731.4 157.2 731.4 378.8 C731.4 555 618.2 662 444.8 662 L444.7 662 Z M422.3 499 C494.4 499 537.6 450.3 537.8 364.2 C537.8 253.8 481.1 145 373.5 145 C301 145 258.1 196.4 258.1 282 C258.1 391.8 314.8 499 422.3 499 L422.3 499 Z " />
<glyph glyph-name="ohungarumlaut" unicode="&#x151;" horiz-adv-x="549" d="M237.1 514.6 L413.8 677.7 L325.8 764.8 L169.1 577.4 L237.1 514.6 Z M429.1 514.6 L605.8 677.7 L517.8 764.8 L361.1 577.4 L429.1 514.6 Z M288.8 -18 C445.2 -18 565.4 93.6001 565.4 277.1 C565.4 416.3 465.9 490 328.5 490 C173.1 490 50.9 380.1 50.9 200.2 C50.9 54.5001 149.9 -17.9999 288.8 -17.9999 L288.8 -18 Z M296.3 126.7 C255.9 126.7 232.2 153.8 232.2 208.3 C232.2 282.2 258.9 348.4 321.4 348.4 C362.3 348.4 384.4 321.7 384.4 265 C384.4 190.9 358.2 126.7 296.3 126.7 L296.3 126.7 Z " />
<glyph glyph-name="OE" unicode="&#x152;" horiz-adv-x="916" d="M939.2 483 L962.1 642 L557.88 642 C524.83 652.32 481.21 660 445.2 660 C228.6 660 65.6 497.6 65.6 273.1 C65.6 81.6 179.1 -16 350.2 -16 C389.5 -16 427.23 -10.46 462.86 0 L880.3 0 L903.1 159 L654.34 159 L666.07 244 L878.7 244 L901.2 401 L687.74 401 L699.06 483 L939.2 483 Z M257.9 285.9 C257.9 414.3 329.7 497 432.2 497 C468.57 497 498.73 487.62 518.09 472.72 L476.25 175.26 C449.99 156.05 418.51 147 380.9 147 C307.3 147 257.9 190.9 257.9 285.9 L257.9 285.9 Z " />
<glyph glyph-name="oe" unicode="&#x153;" horiz-adv-x="851" d="M654.5 122 C611.65 122 586.5 134.26 574.65 159.85 C697.86 164.08 866.9 200.13 866.9 345.8 C866.9 426.6 804.3 490 682.6 490 C611.99 490 550.12 469.27 501.63 433 C459.41 470.63 398.93 490 328.49 490 C173.09 490 50.89 380.1 50.89 200.2 C50.89 54.5 149.89 -18 288.79 -18 C351.26 -18 407.95 -0.199997 453.52 32.88 C491.88 -0.779999 545.12 -18.01 606.99 -18.01 C713.99 -18.01 783.49 10.89 830.59 40.49 L785.99 161.39 C744.19 136.59 700.29 121.99 654.49 121.99 L654.5 122 Z M658.19 356.99 C683.39 356.99 696.19 343.49 696.19 324.39 C696.19 275.94 627.69 264.12 571.57 262.2 C584.48 324.63 619.43 356.99 658.19 356.99 L658.19 356.99 Z M296.29 126.69 C255.89 126.69 232.19 153.79 232.19 208.29 C232.19 282.19 258.89 348.39 321.39 348.39 C362.29 348.39 384.39 321.69 384.39 264.99 C384.39 190.89 358.19 126.69 296.29 126.69 L296.29 126.69 Z " />
<glyph glyph-name="Racute" unicode="&#x154;" horiz-adv-x="595" d="M533.8 726.3 L504.3 876.2 L242.9 777.9 L263.4 679.8 L533.8 726.3 Z M489.4 209.5 L477.42 241.5 C561.82 280.29 616.9 350.36 616.9 439 C616.9 571.2 523.1 642 364.5 642 L146.2 642 L56 -1.52588e-05 L236 -1.52588e-05 L265.22 208 L290.25 208 L331.7 106.2 C378.7 -9.20001 472.7 -6.00002 556.8 -6.00002 L581 162.7 C527.4 162.7 502.6 174.2 489.4 209.5 L489.4 209.5 Z M305.13 492 L362.2 492 C408.9 492 430.3 465.2 430.3 429.6 C430.3 389.2 401.3 355 343.4 355 L285.88 355 L305.13 492 Z " />
<glyph glyph-name="racute" unicode="&#x155;" horiz-adv-x="399" d="M446.3 628.9 L374.3 761.8 L161 602.3 L211.6 513.5 L446.3 628.9 Z M411.5 490 C366.83 490 320.14 468.07 278.2 423.54 C278.86 454.2 275.4 476.89 267.7 497.2 L89.9 472 C99.5 442.4 98.5 401.8 92 355 L42 -1.52588e-05 L222 -1.52588e-05 L258.19 256.26 C281.69 299.28 323.46 317.5 358.9 317.5 C381.3 317.5 395 313.6 407.4 307.6 L468.9 483.4 C452.7 488 432.4 490 411.5 490 L411.5 490 Z " />
<glyph glyph-name="Rcommaaccent" unicode="&#x156;" horiz-adv-x="595" d="M489.4 209.5 L477.42 241.5 C561.82 280.29 616.9 350.36 616.9 439 C616.9 571.2 523.1 642 364.5 642 L146.2 642 L56 0 L236 0 L265.22 208 L290.25 208 L331.7 106.2 C378.7 -9.2 472.7 -6 556.8 -6 L581 162.7 C527.4 162.7 502.6 174.2 489.4 209.5 L489.4 209.5 Z M305.13 492 L362.2 492 C408.9 492 430.3 465.2 430.3 429.6 C430.3 389.2 401.3 355 343.4 355 L285.88 355 L305.13 492 Z M321.9 -39.6 C265.2 -39.6 209.4 -90 209.4 -148.8 C209.4 -190 235.8 -225.5 273.1 -234.5 C263.8 -267.2 246.5 -286.7 226.6 -308.2 L275.7 -345.9 C338.3 -296.2 407.6 -218.5 407.6 -126.6 C407.6 -78.5 371.6 -39.6 321.9 -39.6 L321.9 -39.6 Z " />
<glyph glyph-name="rcommaaccent" unicode="&#x157;" horiz-adv-x="399" d="M411.5 490 C366.83 490 320.14 468.07 278.2 423.54 C278.86 454.2 275.4 476.89 267.7 497.2 L89.9 472 C99.5 442.4 98.5 401.8 92 355 L42 0 L222 0 L258.19 256.26 C281.69 299.28 323.46 317.5 358.9 317.5 C381.3 317.5 395 313.6 407.4 307.6 L468.9 483.4 C452.7 488 432.4 490 411.5 490 L411.5 490 Z M124 -39.6 C67.3 -39.6 11.5 -90 11.5 -148.8 C11.5 -190 37.9 -225.5 75.2 -234.5 C65.9 -267.2 48.6 -286.7 28.7 -308.2 L77.8 -345.9 C140.4 -296.2 209.7 -218.5 209.7 -126.6 C209.7 -78.5 173.7 -39.6 124 -39.6 L124 -39.6 Z " />
<glyph glyph-name="Rcaron" unicode="&#x158;" horiz-adv-x="595" d="M424.2 684 L580.9 785.2 L539 869.2 L391.3 805.2 L261.7 869.2 L195.8 785.2 L323.7 684 L424.2 684 Z M489.4 209.5 L477.42 241.5 C561.82 280.29 616.9 350.36 616.9 439 C616.9 571.2 523.1 642 364.5 642 L146.2 642 L56 0 L236 0 L265.22 208 L290.25 208 L331.7 106.2 C378.7 -9.2 472.7 -6 556.8 -6 L581 162.7 C527.4 162.7 502.6 174.2 489.4 209.5 L489.4 209.5 Z M305.13 492 L362.2 492 C408.9 492 430.3 465.2 430.3 429.6 C430.3 389.2 401.3 355 343.4 355 L285.88 355 L305.13 492 Z " />
<glyph glyph-name="rcaron" unicode="&#x159;" horiz-adv-x="399" d="M344.6 519.8 L502.9 661.8 L430 738.6 L308.2 639.4 L208.5 738.6 L125.6 661.8 L243.8 519.8 L344.6 519.8 Z M278.19 423.54 C278.85 454.2 275.39 476.89 267.69 497.2 L89.89 472 C99.49 442.4 98.49 401.8 91.99 355 L41.99 0 L221.99 0 L258.18 256.26 C281.68 299.28 323.45 317.5 358.89 317.5 C381.29 317.5 394.99 313.6 407.39 307.6 L468.89 483.4 C452.69 488 432.39 490 411.49 490 C366.82 490 320.13 468.07 278.19 423.54 L278.19 423.54 Z " />
<glyph glyph-name="Sacute" unicode="&#x15a;" horiz-adv-x="543" d="M259.4 679.8 L529.8 726.3 L500.3 876.2 L238.9 777.9 L259.4 679.8 Z M381.4 662 C195.6 662 95 573 95 433.8 C95 327.3 172.5 280.6 241.6 253 C308 226.5 372.4 216.2 372.4 182.4 C372.4 159.3 346.7 147 297.1 147 C244.8 147 187.6 163.2 135.6 206.2 L24 68.9 C74.4 14.5 163.7 -18 269.3 -18 C461.3 -18 548.2 76.6 548.2 206.2 C548.2 323 465.6 365 388.6 397 C328.4 422 270.9 430.6 270.9 460.3 C270.9 482.4 294.3 497 343.2 497 C410.3 497 465 472.3 493.9 446 L595.2 592 C565.8 622.7 493.4 662 381.4 662 L381.4 662 Z " />
<glyph glyph-name="sacute" unicode="&#x15b;" horiz-adv-x="472" d="M227.3 513.5 L462 628.9 L390 761.8 L176.7 602.3 L227.3 513.5 Z M328.5 490 C184.1 490 74.1 429 74.1 308 C74.1 153.3 285.1 186.7 285.1 132.2 C285.1 119.2 274.5 112 249.8 112 C189.9 112 131.8 132.2 92.8 158 L21 39 C50.2 12 123.2 -18 227.6 -18 C384.8 -18 468.4 56 468.4 168 C468.4 320.6 246.3 285 246.3 335.9 C246.3 350.4 261.4 358 304.5 358 C357.7 358 422 337.7 451 319.5 L501.7 450.9 C468.5 466.5 405.9 490 328.5 490 L328.5 490 Z " />
<glyph glyph-name="Scedilla" unicode="&#x15e;" horiz-adv-x="543" d="M388.6 397 C328.4 422 270.9 430.6 270.9 460.3 C270.9 482.4 294.3 497 343.2 497 C410.3 497 465 472.3 493.9 446 L595.2 592 C565.8 622.7 493.4 662 381.4 662 C195.6 662 95 573 95 433.8 C95 327.3 172.5 280.6 241.6 253 C308 226.5 372.4 216.2 372.4 182.4 C372.4 159.3 346.7 147 297.1 147 C244.8 147 187.6 163.2 135.6 206.2 L24 68.9 C67.44 22.01 139.78 -8.61 226.55 -16.17 L197.09 -74 C230.89 -74.9 255.49 -81.3 255.49 -104.1 C255.49 -126.7 237.09 -137 216.79 -137 C198.79 -137 185.09 -132 173.69 -123 L127.59 -202 C144.99 -219.4 191.49 -233 236.69 -233 C303.29 -233 389.39 -204.1 389.39 -112.4 C389.39 -60.6 347.89 -36 309.69 -36 L319.74 -15.63 C476.58 -0.25 548.19 88.56 548.19 206.21 C548.19 323.01 465.59 365.01 388.59 397.01 L388.6 397 Z " />
<glyph glyph-name="scedilla" unicode="&#x15f;" horiz-adv-x="472" d="M246.3 335.9 C246.3 350.4 261.4 358 304.5 358 C357.7 358 422 337.7 451 319.5 L501.7 450.9 C468.5 466.5 405.9 490 328.5 490 C184.1 490 74.1 429 74.1 308 C74.1 153.3 285.1 186.7 285.1 132.2 C285.1 119.2 274.5 112 249.8 112 C189.9 112 131.8 132.2 92.8 158 L21 39 C46.4 15.51 104.94 -10.25 188.46 -16.56 L159.19 -74.01 C192.99 -74.91 217.59 -81.31 217.59 -104.11 C217.59 -126.71 199.19 -137.01 178.89 -137.01 C160.89 -137.01 147.19 -132.01 135.79 -123.01 L89.69 -202.01 C107.09 -219.41 153.59 -233.01 198.79 -233.01 C265.39 -233.01 351.49 -204.11 351.49 -112.41 C351.49 -60.61 309.99 -36.01 271.79 -36.01 L282.3 -14.71 C404.11 0.790009 468.39 69.78 468.39 167.99 C468.39 320.59 246.29 284.99 246.29 335.89 L246.3 335.9 Z " />
<glyph glyph-name="Scaron" unicode="&#x160;" horiz-adv-x="543" d="M420.2 684 L576.9 785.2 L535 869.2 L387.3 805.2 L257.7 869.2 L191.8 785.2 L319.7 684 L420.2 684 Z M381.4 662 C195.6 662 95 573 95 433.8 C95 327.3 172.5 280.6 241.6 253 C308 226.5 372.4 216.2 372.4 182.4 C372.4 159.3 346.7 147 297.1 147 C244.8 147 187.6 163.2 135.6 206.2 L24 68.9 C74.4 14.5 163.7 -18 269.3 -18 C461.3 -18 548.2 76.6 548.2 206.2 C548.2 323 465.6 365 388.6 397 C328.4 422 270.9 430.6 270.9 460.3 C270.9 482.4 294.3 497 343.2 497 C410.3 497 465 472.3 493.9 446 L595.2 592 C565.8 622.7 493.4 662 381.4 662 L381.4 662 Z " />
<glyph glyph-name="scaron" unicode="&#x161;" horiz-adv-x="472" d="M259.5 519.8 L360.3 519.8 L518.6 661.8 L445.7 738.6 L323.9 639.4 L224.2 738.6 L141.3 661.8 L259.5 519.8 Z M328.5 490 C184.1 490 74.1 429 74.1 308 C74.1 153.3 285.1 186.7 285.1 132.2 C285.1 119.2 274.5 112 249.8 112 C189.9 112 131.8 132.2 92.8 158 L21 39 C50.2 12 123.2 -18 227.6 -18 C384.8 -18 468.4 56 468.4 168 C468.4 320.6 246.3 285 246.3 335.9 C246.3 350.4 261.4 358 304.5 358 C357.7 358 422 337.7 451 319.5 L501.7 450.9 C468.5 466.5 405.9 490 328.5 490 L328.5 490 Z " />
<glyph glyph-name="uni0162" unicode="&#x162;" horiz-adv-x="544" d="M361.9 0 L429.31 483 L591.8 483 L614.5 642 L109.7 642 L87 483 L249.71 483 L181.9 0 L225.5 0 L187.8 -74 C221.6 -74.9 246.2 -81.3 246.2 -104.1 C246.2 -126.7 227.8 -137 207.5 -137 C189.5 -137 175.8 -132 164.4 -123 L118.3 -202 C135.7 -219.4 182.2 -233 227.4 -233 C294 -233 380.1 -204.1 380.1 -112.4 C380.1 -60.6 338.6 -36 300.4 -36 L318.17 0 L361.9 0 Z " />
<glyph glyph-name="uni0163" unicode="&#x163;" horiz-adv-x="465" d="M319.2 316 L471.5 316 L492.7 464 L339.86 464 L357.6 591 L174.6 572 L159.47 464 L81.2 464 L60 316 L138.75 316 L117.6 165 C103.66 65.72 144.89 12.77 213.75 -7.75999 L180 -74 C213.8 -74.9 238.4 -81.3 238.4 -104.1 C238.4 -126.7 220 -137 199.7 -137 C181.7 -137 168 -132 156.6 -123 L110.5 -202 C127.9 -219.4 174.4 -233 219.6 -233 C286.2 -233 372.3 -204.1 372.3 -112.4 C372.3 -60.6 330.8 -36 292.6 -36 L301.51 -17.94 C370.88 -16.97 420.62 -4.02 465.1 29.6 L414.6 154.7 C392.6 138.6 375.7 132 349.6 132 C310.6 132 296.1 150 301.6 190 L319.2 316 Z " />
<glyph glyph-name="Tcaron" unicode="&#x164;" horiz-adv-x="544" d="M414.2 684 L570.9 785.2 L529 869.2 L381.3 805.2 L251.7 869.2 L185.8 785.2 L313.7 684 L414.2 684 Z M614.5 642 L109.7 642 L87 483 L249.71 483 L181.9 0 L361.9 0 L429.31 483 L591.8 483 L614.5 642 Z " />
<glyph glyph-name="tcaron" unicode="&#x165;" horiz-adv-x="459" d="M582.7 772.1 L444 772.1 C447.4 755.6 449.2 733.2 449.2 714.1 C449.2 665.2 439.5 615.4 394.3 549.8 L466.1 513.2 C531.7 561.2 583.5 649.6 583.5 741.4 C583.5 751.7 583.2 762.8 582.7 772.1 L582.7 772.1 Z M357.6 591 L174.6 572 L159.47 464 L81.2 464 L60 316 L138.75 316 L117.6 165 C98.9 31.8 179.5 -18 292.9 -18 C366.8 -18 418.8 -5.39999 465.1 29.6 L414.6 154.7 C392.6 138.6 375.7 132 349.6 132 C310.6 132 296.1 150 301.6 190 L319.2 316 L471.5 316 L492.7 464 L339.86 464 L357.6 591 Z " />
<glyph glyph-name="Tbar" unicode="&#x166;" horiz-adv-x="544" d="M591.8 483 L614.5 642 L109.7 642 L87 483 L249.71 483 L233.26 365.8 L155.8 365.8 L141.8 248.2 L216.75 248.2 L181.9 0 L361.9 0 L396.54 248.2 L474.7 248.2 L488.7 365.8 L412.96 365.8 L429.32 483 L591.8 483 Z " />
<glyph glyph-name="tbar" unicode="&#x167;" horiz-adv-x="460" d="M472.5 316 L493.7 464 L340.96 464 L358.7 591 L175.7 572 L160.57 464 L82.2 464 L61 316 L139.85 316 L135.51 285 L67 285 L53 187 L121.78 187 L118.7 165 C100 31.8 180.5 -18 293.9 -18 C367.9 -18 419.8 -5.39999 466.1 29.6 L415.7 154.7 C393.6 138.6 376.7 132 350.6 132 C312.59 132 297.95 149.1 302.32 187 L385.1 187 L399 285 L315.97 285 L320.3 316 L472.5 316 Z " />
<glyph glyph-name="Utilde" unicode="&#x168;" horiz-adv-x="647" d="M551.3 860.9 C540.8 836.5 523.1 821.2 503.1 821.2 C459.2 821.2 435 864.6 361.1 864.6 C298.8 864.6 235.9 822.6 204.9 733.4 L317.6 687.1 C328.2 713.4 347.9 733.6 373.5 733.6 C420.9 733.6 443.4 691.5 514.9 691.5 C571.2 691.5 633.6 729.9 663.5 813.2 L551.3 860.9 Z M324.9 -18 C531.1 -18 609.3 69.4 637 266 L690 642 L513 642 L460 263 C449.9 190.9 422.4 149 348.1 149 C292.5 149 255.5 187.7 266 263 L319 642 L139 642 L85 259 C59.4 77.5 160.1 -18 324.9 -18 L324.9 -18 Z " />
<glyph glyph-name="utilde" unicode="&#x169;" horiz-adv-x="549" d="M310 589 C356.5 589 373.9 554 438 554 C507.9 554 551 604 576.5 690 L468 731 C458.9 705.7 443 689 421.4 689 C382.7 689 360.1 726 294.3 726 C233.3 726 164.8 674.3 143.5 584 L254.9 543 C264.5 571 286.7 589 310 589 L310 589 Z M572 472 L393 472 L351.34 175.2 C334.99 153.03 311.75 142 291.19 142 C250.89 142 238.49 167.4 245.99 222 L280.99 472 L100.99 472 L62.99 201 C42.49 54.8 91.19 -18 209.49 -18 C249.77 -18 294.9 -5.5 337.51 31.78 C338.31 11.17 341.48 -5.68001 347.28 -21 L524.98 4.19998 C515.48 33.8 516.38 74.2 522.98 121 L572 472 Z " />
<glyph glyph-name="Umacron" unicode="&#x16a;" horiz-adv-x="647" d="M260.5 717.7 L592.7 717.7 L609.2 833.7 L277 833.7 L260.5 717.7 Z M324.9 -18 C531.1 -18 609.3 69.4 637 266 L690 642 L513 642 L460 263 C449.9 190.9 422.4 149 348.1 149 C292.5 149 255.5 187.7 266 263 L319 642 L139 642 L85 259 C59.4 77.5 160.1 -18 324.9 -18 L324.9 -18 Z " />
<glyph glyph-name="umacron" unicode="&#x16b;" horiz-adv-x="549" d="M535.9 704.7 L203.4 704.7 L184.6 572.7 L517.1 572.7 L535.9 704.7 Z M523 121 L572 472 L393 472 L351.34 175.2 C334.99 153.03 311.75 142 291.19 142 C250.89 142 238.49 167.4 245.99 222 L280.99 472 L100.99 472 L62.99 201 C42.49 54.8 91.19 -18 209.49 -18 C249.77 -18 294.9 -5.5 337.51 31.78 C338.31 11.17 341.48 -5.68001 347.28 -21 L524.98 4.19998 C515.48 33.8 516.38 74.2 522.98 121 L523 121 Z " />
<glyph glyph-name="Uring" unicode="&#x16e;" horiz-adv-x="647" d="M566.6 807.4 C566.6 872 519.3 923.3 455.3 923.3 C365.1 923.3 305.5 853.8 305.5 776.7 C305.5 712.3 352.9 661 418 661 C506.7 661 566.6 727.2 566.6 807.4 L566.6 807.4 Z M440.9 834 C462.9 834 476 817.6 476 797.3 C476 771.8 459 750.5 430.1 750.5 C409.9 750.5 396 767.1 396 786.9 C396 811.9 415 834 440.9 834 L440.9 834 Z M324.9 -18 C531.1 -18 609.3 69.4 637 266 L690 642 L513 642 L460 263 C449.9 190.9 422.4 149 348.1 149 C292.5 149 255.5 187.7 266 263 L319 642 L139 642 L85 259 C59.4 77.5 160.1 -18 324.9 -18 L324.9 -18 Z " />
<glyph glyph-name="uring" unicode="&#x16f;" horiz-adv-x="549" d="M345 508 C431.9 508 493.2 565.7 493.2 654.2 C493.2 718.9 445.2 770.3 380 770.3 C295.3 770.3 228.2 707.3 228.2 623.9 C228.2 559.5 276.5 508 345 508 L345 508 Z M366.6 681 C387.6 681 400.6 664.6 400.6 644.3 C400.6 619.7 383.8 597.5 354.8 597.5 C334.6 597.5 320.8 614.1 320.8 633.9 C320.8 658.9 339.1 681 366.6 681 L366.6 681 Z M523 121 L572 472 L393 472 L351.34 175.2 C334.99 153.03 311.75 142 291.19 142 C250.89 142 238.49 167.4 245.99 222 L280.99 472 L100.99 472 L62.99 201 C42.49 54.8 91.19 -18 209.49 -18 C249.77 -18 294.9 -5.49998 337.51 31.78 C338.31 11.17 341.48 -5.67999 347.28 -21 L524.98 4.2 C515.48 33.8 516.38 74.2 522.98 121 L523 121 Z " />
<glyph glyph-name="Uhungarumlaut" unicode="&#x170;" horiz-adv-x="647" d="M289.1 665.5 L474.6 783.3 L403.7 885.7 L236.3 736.6 L289.1 665.5 Z M516.6 665.5 L702.1 783.3 L631.2 885.7 L463.8 736.6 L516.6 665.5 Z M324.9 -18 C531.1 -18 609.3 69.4 637 266 L690 642 L513 642 L460 263 C449.9 190.9 422.4 149 348.1 149 C292.5 149 255.5 187.7 266 263 L319 642 L139 642 L85 259 C59.4 77.5 160.1 -18 324.9 -18 L324.9 -18 Z " />
<glyph glyph-name="uhungarumlaut" unicode="&#x171;" horiz-adv-x="549" d="M409.2 677.7 L321.2 764.8 L164.5 577.4 L232.5 514.6 L409.2 677.7 Z M424.5 514.6 L601.2 677.7 L513.2 764.8 L356.5 577.4 L424.5 514.6 Z M572 472 L393 472 L351.34 175.2 C334.99 153.03 311.75 142 291.19 142 C250.89 142 238.49 167.4 245.99 222 L280.99 472 L100.99 472 L62.99 201 C42.49 54.8 91.19 -18 209.49 -18 C249.77 -18 294.9 -5.49997 337.51 31.78 C338.31 11.17 341.48 -5.67998 347.28 -21 L524.98 4.20001 C515.48 33.8 516.38 74.2 522.98 121 L572 472 Z " />
<glyph glyph-name="Uogonek" unicode="&#x172;" horiz-adv-x="647" d="M513 642 L460 263 C449.9 190.9 422.4 149 348.1 149 C292.5 149 255.5 187.7 266 263 L319 642 L139 642 L85 259 C60.27 83.68 153.39 -11.4 308.3 -17.67 C273.63 -48.51 251.8 -84.83 251.8 -131.1 C251.8 -185.6 290.4 -220 361.2 -220 C418.4 -220 457.5 -198.5 482.1 -177 L439.9 -89 C429.2 -95.1 418.5 -101 404.1 -101 C390.8 -101 378.5 -92.8 378.5 -74.8 C378.5 -54.82 395.38 -31.68 425.07 -9.21002 C557.85 17.36 614.34 105.12 637.01 266 L690.01 642 L513 642 Z " />
<glyph glyph-name="uogonek" unicode="&#x173;" horiz-adv-x="549" d="M449.3 -101 C436 -101 423.7 -92.8 423.7 -74.8 C423.7 -52.2 439.6 -21.4 525 4.20001 C515.5 33.8 516.4 74.2 523 121 L572 472 L393 472 L351.34 175.2 C334.99 153.03 311.75 142 291.19 142 C250.89 142 238.49 167.4 245.99 222 L280.99 472 L100.99 472 L62.99 201 C42.49 54.8 91.19 -18 209.49 -18 C249.77 -18 294.9 -5.49998 337.51 31.78 C338.25 12.63 341.04 -3.26997 346.09 -17.71 C318.81 -47.64 296.99 -82.01 296.99 -131.09 C296.99 -185.59 335.59 -219.99 406.39 -219.99 C463.59 -219.99 502.69 -198.49 527.29 -176.99 L485.09 -88.99 C474.39 -95.09 463.69 -100.99 449.29 -100.99 L449.3 -101 Z " />
<glyph glyph-name="Wcircumflex" unicode="&#x174;" horiz-adv-x="960" d="M586.5 738 L710.8 674 L776.7 758 L648.6 859.2 L548.2 859.2 L391.6 758 L444.7 674 L586.5 738 Z M838.5 642 L716.2 269.1 L695.29 210.88 L690.2 269.1 L650.4 606 L467.8 606 L340.6 269.1 L321.14 212.85 L316.5 269.1 L291.7 642 L90 642 L180.4 0 L385 0 L513.5 319 L529.55 365.86 L532.9 319.4 L577.4 0 L764 0 L1031.1 642 L838.5 642 Z " />
<glyph glyph-name="wcircumflex" unicode="&#x175;" horiz-adv-x="770" d="M468.3 618 L565.9 518.8 L648.8 595.6 L530.7 737.6 L429.9 737.6 L271.5 595.6 L345.8 518.8 L468.3 618 Z M637.5 472 L538.81 144.8 L523.81 472 L384.01 472 L276.01 147.66 L270.22 472 L70.02 472 L143.32 0 L340.42 0 L422.79 253.44 L430.52 0 L627.72 0 L831.72 472 L637.5 472 Z " />
<glyph glyph-name="Ycircumflex" unicode="&#x176;" horiz-adv-x="630" d="M428.2 747 L552.5 683 L618.4 767 L490.3 868.2 L389.9 868.2 L233.3 767 L286.4 683 L428.2 747 Z M720.5 642 L511 642 L404 467 L370.85 415.31 L354.4 467 L294.2 642 L85 642 L258.36 232.97 L225.4 0 L405.4 0 L438.66 235.1 L720.5 642 Z " />
<glyph glyph-name="ycircumflex" unicode="&#x177;" horiz-adv-x="547" d="M359.9 618 L457.5 518.8 L540.4 595.6 L422.3 737.6 L321.5 737.6 L163.1 595.6 L237.4 518.8 L359.9 618 Z M392.8 472 L353.5 192.28 C337.2 170.73 314.27 160.01 294 160.01 C253.8 160.01 241.4 185.41 249 240.01 L282 472.01 L102 472.01 L66 219.01 C45.3 72.81 94 0.00999451 212.3 0.00999451 C250.18 0.00999451 292.28 11.03 332.55 43.26 L326.19 -1.99001 C320.79 -41.99 293.79 -65.99 229.09 -65.99 C181.29 -65.99 137.49 -50.99 99.49 -31.79 L27.99 -160.69 C78.79 -188.99 142.19 -204.99 210.39 -204.99 C364.19 -204.99 487.59 -138.09 511.99 36.01 L572.99 472.01 L392.8 472 Z " />
<glyph glyph-name="Ydieresis" unicode="&#x178;" horiz-adv-x="630" d="M292.2 698.4 C343.8 698.4 391.7 742.3 391.7 794.1 C391.7 835.8 360 869.7 316.6 869.7 C266 869.7 218.1 825.8 218.1 774.5 C218.1 732.1 249.5 698.4 292.2 698.4 L292.2 698.4 Z M544.9 698.4 C596.4 698.4 644.3 742.3 644.3 794.1 C644.3 835.8 612.6 869.7 569.3 869.7 C518.7 869.7 470.7 825.8 470.7 774.5 C470.7 732.1 502.2 698.4 544.9 698.4 L544.9 698.4 Z M720.5 642 L511 642 L404 467 L370.85 415.31 L354.4 467 L294.2 642 L85 642 L258.36 232.97 L225.4 0 L405.4 0 L438.66 235.1 L720.5 642 Z " />
<glyph glyph-name="Zacute" unicode="&#x179;" horiz-adv-x="567" d="M537.3 726.3 L507.8 876.2 L246.4 777.9 L266.9 679.8 L537.3 726.3 Z M591.1 505.8 L610.7 642 L130.9 642 L107.8 481 L360.21 481 L329 450.1 L49.3 135.9 L30 0 L538.7 0 L561.8 161 L289.96 161 L321.4 193.6 L591.1 505.8 Z " />
<glyph glyph-name="zacute" unicode="&#x17a;" horiz-adv-x="477" d="M459.1 628.9 L387.1 761.8 L173.8 602.3 L224.4 513.5 L459.1 628.9 Z M507.4 470 L104 470 L83 324 L271.78 324 L53.8 146 L33 -1.52588e-05 L446.6 -1.52588e-05 L467.4 146 L268.88 144.28 L487.2 328.5 L507.4 470 Z " />
<glyph glyph-name="Zdotaccent" unicode="&#x17b;" horiz-adv-x="567" d="M381.5 687.7 C444.2 687.7 502.5 741 502.5 803.6 C502.5 854.2 464 895.3 411.2 895.3 C349.7 895.3 291.4 842.2 291.4 780 C291.4 728.7 329.7 687.7 381.5 687.7 L381.5 687.7 Z M591.1 505.8 L610.7 642 L130.9 642 L107.8 481 L360.21 481 L329 450.1 L49.3 135.9 L30 3.05176e-05 L538.7 3.05176e-05 L561.8 161 L289.96 161 L321.4 193.6 L591.1 505.8 Z " />
<glyph glyph-name="zdotaccent" unicode="&#x17c;" horiz-adv-x="477" d="M311.5 528.4 C374.2 528.4 432.4 581.7 432.4 644.3 C432.4 694.8 393.9 736 341.1 736 C279.7 736 221.4 682.8 221.4 620.7 C221.4 569.4 259.7 528.4 311.5 528.4 L311.5 528.4 Z M507.4 470 L104 470 L83 324 L271.78 324 L53.8 146 L33 0 L446.6 0 L467.4 146 L268.88 144.28 L487.2 328.5 L507.4 470 Z " />
<glyph glyph-name="Zcaron" unicode="&#x17d;" horiz-adv-x="567" d="M427.7 684 L584.4 785.2 L542.5 869.2 L394.8 805.2 L265.2 869.2 L199.3 785.2 L327.2 684 L427.7 684 Z M591.1 505.8 L610.7 642 L130.9 642 L107.8 481 L360.21 481 L329 450.1 L49.3 135.9 L30 1.52588e-05 L538.7 1.52588e-05 L561.8 161 L289.96 161 L321.4 193.6 L591.1 505.8 Z " />
<glyph glyph-name="zcaron" unicode="&#x17e;" horiz-adv-x="477" d="M357.4 519.8 L515.7 661.8 L442.8 738.6 L321 639.4 L221.3 738.6 L138.4 661.8 L256.6 519.8 L357.4 519.8 Z M83 324 L271.78 324 L53.8 146 L33 0 L446.6 0 L467.4 146 L268.88 144.28 L487.2 328.5 L507.4 470 L104 470 L83 324 Z " />
<glyph glyph-name="uni01EA" unicode="&#x1ea;" horiz-adv-x="707" d="M493.22 9 C636.04 66.32 731.3 208.93 731.3 378.81 C731.3 555.01 618.1 662.01 444.7 662.01 C224.4 662.01 64.4 485.11 64.4 262.51 C64.3 89.57 177.63 -17.18 348.93 -17.99 C314.48 -48.76 292.8 -84.99 292.8 -131.1 C292.8 -185.6 331.4 -220 402.2 -220 C459.4 -220 498.5 -198.5 523.1 -177 L480.9 -89 C470.2 -95.1 459.5 -101 445.1 -101 C431.8 -101 419.5 -92.8 419.5 -74.8 C419.5 -49.36 446.88 -18.8 493.22 8.99001 L493.22 9 Z M258 281.99 C258 391.79 314.7 498.99 422.2 498.99 C494.3 498.99 537.5 450.29 537.7 364.19 C537.7 253.79 481 144.99 373.4 144.99 C300.9 144.99 258 196.39 258 281.99 L258 281.99 Z " />
<glyph glyph-name="uni01EB" unicode="&#x1eb;" horiz-adv-x="549" d="M376.02 -5.42 C487.73 28.54 565.4 129.59 565.4 277.1 C565.4 416.3 465.9 490 328.5 490 C173.1 490 50.9 380.1 50.9 200.2 C50.9 66.48 134.29 -5.57999 255.39 -16.52 C219.98 -47.61 197.6 -84.25 197.6 -131.09 C197.6 -185.59 236.2 -219.99 307 -219.99 C364.2 -219.99 403.3 -198.49 427.9 -176.99 L385.7 -88.99 C375 -95.09 364.3 -100.99 349.9 -100.99 C336.6 -100.99 324.3 -92.79 324.3 -74.79 C324.3 -53.68 343.14 -29.05 376.01 -5.39998 L376.02 -5.42 Z M232.19 208.32 C232.19 282.22 258.89 348.42 321.39 348.42 C362.29 348.42 384.39 321.72 384.39 265.02 C384.39 190.92 358.19 126.72 296.29 126.72 C255.89 126.72 232.19 153.82 232.19 208.32 L232.19 208.32 Z " />
<glyph glyph-name="AEacute" unicode="&#x1fc;" horiz-adv-x="905" d="M834.8 726.3 L805.3 876.2 L543.9 777.9 L564.4 679.8 L834.8 726.3 Z M929 483 L951.9 642 L446.3 642 L-12.1 -1.52588e-05 L176.2 -1.52588e-05 L265 123 L458.7 123 L441.4 -1.52588e-05 L870.1 -1.52588e-05 L892.9 159 L644.14 159 L655.87 244 L868.5 244 L891 401 L677.54 401 L688.86 483 L929 483 Z M372.57 272 L505.57 456.23 L479.66 272 L372.57 272 Z " />
<glyph glyph-name="aeacute" unicode="&#x1fd;" horiz-adv-x="795" d="M642.6 628.9 L570.6 761.8 L357.3 602.3 L407.9 513.5 L642.6 628.9 Z M810.6 301.5 C810.6 417.6 737.2 490 617.3 490 C562.79 490 511.95 475.38 468.69 449.33 C430.48 477.25 372.43 490.01 293.81 490.01 C207.21 490.01 137.61 467.71 101.11 450.41 L114.91 318.31 C145.81 330.21 196.21 345.01 256.71 345.01 C333.41 345.01 346.71 320.11 343.71 293.01 L342.71 284.01 L270.41 284.01 C131.01 284.01 35.01 225.81 35.01 111.11 C35.01 19.21 109.11 -17.99 184.11 -17.99 C259.29 -17.99 323.09 13.72 366.34 71.37 C406.03 12.93 475.96 -17.99 559.52 -17.99 C657.22 -17.99 723.62 9.70998 769.32 39.01 L729.02 158.01 C687.92 136.51 644.02 122.01 602.32 122.01 C544.65 122.01 514.62 141.61 511.94 194.01 L792.32 194.01 C799.52 217.51 810.62 243.61 810.62 301.51 L810.6 301.5 Z M645.12 286.51 L523.07 286.51 C534.8 331.51 559 358.02 599.52 358.02 C640.52 358.02 650.32 324.42 645.12 286.52 L645.12 286.51 Z M329.72 188.02 C318.22 119.22 284.82 101.02 253.62 101.02 C230.22 101.02 217.02 114.22 217.02 139.02 C217.02 169.62 240.02 194.02 277.42 194.02 L330.72 194.02 L329.72 188.02 Z " />
<glyph glyph-name="Oslashacute" unicode="&#x1fe;" horiz-adv-x="714" d="M617.6 726.3 L588.1 876.2 L326.7 777.9 L347.2 679.8 L617.6 726.3 Z M776.9 625.1 L714.6 694.8 L627.14 610.17 C580.14 643.75 519.8 662 449.8 662 C237.1 662 67.2 503.6 67.2 272 C67.2 208.36 81.85 153.1 108.58 108.39 L19.1 21.8 L83.2 -48.2 L171.79 37.78 C219.51 1.73999 281.62 -18.01 354 -18.01 C566.4 -18.01 736.4 141.99 736.4 372.49 C736.4 439.23 720.46 496.55 691.46 542.16 L776.9 625.1 Z M265 288.09 C265 417.19 331.7 498.99 426.3 498.99 C452.01 498.99 473.92 492.01 491.38 478.79 L266.4 261.09 C265.47 269.69 265 278.69 265 288.08 L265 288.09 Z M538.7 356.98 C538.7 229.28 471.5 144.98 377.4 144.98 C349.32 144.98 325.79 153.63 307.64 169.62 L536.37 391.62 C537.91 380.79 538.7 369.23 538.7 356.97 L538.7 356.98 Z " />
<glyph glyph-name="oslashacute" unicode="&#x1ff;" horiz-adv-x="558" d="M504.4 628.9 L432.4 761.8 L219.1 602.3 L269.7 513.5 L504.4 628.9 Z M587.1 453.9 L536.6 508.6 L478.46 452.01 C438.79 477.11 388.03 489.96 330.66 489.96 C175.26 489.96 53.06 380.06 53.06 200.16 C53.06 148.18 65.66 105.52 88.18 72.14 L38.31 23.6 L88.21 -35.1 L143.49 19.08 C183.08 -5.69 233.63 -18.05 290.98 -18.05 C447.38 -18.05 567.58 93.55 567.58 277.05 C567.58 326.59 554.98 367.83 532.55 400.41 L587.1 453.9 Z M323.58 348.35 C338.56 348.35 351.02 344.77 360.79 337.45 L234.45 214.48 C235.92 285.83 262.85 348.35 323.59 348.35 L323.58 348.35 Z M298.49 126.65 C284.62 126.65 272.72 129.85 263.07 136.25 L386.5 257.23 C384.72 186.45 358.23 126.65 298.49 126.65 L298.49 126.65 Z " />
<glyph glyph-name="Scommaaccent" unicode="&#x218;" horiz-adv-x="543" d="M381.4 662 C195.6 662 95 573 95 433.8 C95 327.3 172.5 280.6 241.6 253 C308 226.5 372.4 216.2 372.4 182.4 C372.4 159.3 346.7 147 297.1 147 C244.8 147 187.6 163.2 135.6 206.2 L24 68.9 C74.4 14.5 163.7 -18 269.3 -18 C461.3 -18 548.2 76.6 548.2 206.2 C548.2 323 465.6 365 388.6 397 C328.4 422 270.9 430.6 270.9 460.3 C270.9 482.4 294.3 497 343.2 497 C410.3 497 465 472.3 493.9 446 L595.2 592 C565.8 622.7 493.4 662 381.4 662 L381.4 662 Z M271.5 -39.6 C214.8 -39.6 159 -90 159 -148.8 C159 -190 185.4 -225.5 222.7 -234.5 C213.4 -267.2 196.1 -286.7 176.2 -308.2 L225.3 -345.9 C287.9 -296.2 357.2 -218.5 357.2 -126.6 C357.2 -78.5 321.2 -39.6 271.5 -39.6 L271.5 -39.6 Z " />
<glyph glyph-name="scommaaccent" unicode="&#x219;" horiz-adv-x="472" d="M328.5 490 C184.1 490 74.1 429 74.1 308 C74.1 153.3 285.1 186.7 285.1 132.2 C285.1 119.2 274.5 112 249.8 112 C189.9 112 131.8 132.2 92.8 158 L21 39 C50.2 12 123.2 -18 227.6 -18 C384.8 -18 468.4 56 468.4 168 C468.4 320.6 246.3 285 246.3 335.9 C246.3 350.4 261.4 358 304.5 358 C357.7 358 422 337.7 451 319.5 L501.7 450.9 C468.5 466.5 405.9 490 328.5 490 L328.5 490 Z M233.6 -39.6 C176.9 -39.6 121.1 -90 121.1 -148.8 C121.1 -190 147.5 -225.5 184.8 -234.5 C175.5 -267.2 158.2 -286.7 138.3 -308.2 L187.4 -345.9 C250 -296.2 319.3 -218.5 319.3 -126.6 C319.3 -78.5 283.3 -39.6 233.6 -39.6 L233.6 -39.6 Z " />
<glyph glyph-name="uni021A" unicode="&#x21a;" horiz-adv-x="544" d="M614.5 642 L109.7 642 L87 483 L249.71 483 L181.9 0 L361.9 0 L429.31 483 L591.8 483 L614.5 642 Z M262.2 -39.6 C205.5 -39.6 149.7 -90 149.7 -148.8 C149.7 -190 176.1 -225.5 213.4 -234.5 C204.1 -267.2 186.8 -286.7 166.9 -308.2 L216 -345.9 C278.6 -296.2 347.9 -218.5 347.9 -126.6 C347.9 -78.5 311.9 -39.6 262.2 -39.6 L262.2 -39.6 Z " />
<glyph glyph-name="uni021B" unicode="&#x21b;" horiz-adv-x="459" d="M319.2 316 L471.5 316 L492.7 464 L339.86 464 L357.6 591 L174.6 572 L159.47 464 L81.2 464 L60 316 L138.75 316 L117.6 165 C98.9 31.8 179.5 -18 292.9 -18 C366.8 -18 418.8 -5.39999 465.1 29.6 L414.6 154.7 C392.6 138.6 375.7 132 349.6 132 C310.6 132 296.1 150 301.6 190 L319.2 316 Z M262.8 -39.6 C206.1 -39.6 150.3 -90 150.3 -148.8 C150.3 -190 176.7 -225.5 214 -234.5 C204.7 -267.2 187.4 -286.7 167.5 -308.2 L216.6 -345.9 C279.2 -296.2 348.5 -218.5 348.5 -126.6 C348.5 -78.5 312.5 -39.6 262.8 -39.6 L262.8 -39.6 Z " />
<glyph glyph-name="uni0237" unicode="&#x237;" horiz-adv-x="280" d="M310.7 472 L86.8 472 L64.2 314.3 L108.7 314 L64.7 0 C59.3 -40.1 33.8 -56 2.60001 -56 C-13.1 -56 -29.3 -52.1 -44.8 -38.2 L-121.6 -161.6 C-89.6 -193.7 -39.3 -204 5.50002 -204 C146.3 -204 226.5 -128 245.7 8.99998 L310.7 472 Z " />
<glyph glyph-name="circumflex" unicode="&#x2c6;" horiz-adv-x="449" d="M374.2 737.6 L273.4 737.6 L115 595.6 L189.3 518.8 L311.8 618 L409.4 518.8 L492.3 595.6 L374.2 737.6 Z " />
<glyph glyph-name="caron" unicode="&#x2c7;" horiz-adv-x="444" d="M243.2 519.8 L344 519.8 L502.3 661.8 L429.4 738.6 L307.6 639.4 L207.9 738.6 L125 661.8 L243.2 519.8 Z " />
<glyph glyph-name="breve" unicode="&#x2d8;" horiz-adv-x="470" d="M315 527 C472.2 527 517.4 618 533.9 701.3 L403.3 715.8 C392.4 668.5 371.1 649 329 649 C293.8 649 266.9 666.3 261.3 715.8 L138.7 701.3 C131.6 618 193.6 527 315 527 L315 527 Z " />
<glyph glyph-name="dotaccent" unicode="&#x2d9;" horiz-adv-x="319" d="M352.7 644.3 C352.7 694.8 314.2 736 261.4 736 C200 736 141.7 682.8 141.7 620.7 C141.7 569.4 180 528.4 231.8 528.4 C294.5 528.4 352.7 581.7 352.7 644.3 L352.7 644.3 Z " />
<glyph glyph-name="ring" unicode="&#x2da;" horiz-adv-x="310" d="M375.6 654.2 C375.6 718.9 327.6 770.3 262.4 770.3 C177.7 770.3 110.6 707.3 110.6 623.9 C110.6 559.5 158.9 508 227.4 508 C314.3 508 375.6 565.7 375.6 654.2 L375.6 654.2 Z M237.2 597.5 C217 597.5 203.2 614.1 203.2 633.9 C203.2 658.9 221.5 681 249 681 C270 681 283 664.6 283 644.3 C283 619.7 266.2 597.5 237.2 597.5 L237.2 597.5 Z " />
<glyph glyph-name="ogonek" unicode="&#x2db;" horiz-adv-x="290" d="M79.4 -220 C136.6 -220 175.7 -198.5 200.3 -177 L158.1 -89 C147.4 -95.1 136.7 -101 122.3 -101 C109 -101 96.7 -92.8 96.7 -74.8 C96.7 -42.4 141.1 -1.70001 212.5 31 L97.4 31 C24.2 -10 -30 -58.2 -30 -131.1 C-30 -185.6 8.60001 -220 79.4 -220 L79.4 -220 Z " />
<glyph glyph-name="tilde" unicode="&#x2dc;" horiz-adv-x="490" d="M440.5 731 C431.4 705.7 415.5 689 393.9 689 C355.2 689 332.6 726 266.8 726 C205.8 726 137.3 674.3 116 584 L227.4 543 C237 571 259.2 589 282.5 589 C329 589 346.4 554 410.5 554 C480.4 554 523.5 604 549 690 L440.5 731 Z " />
<glyph glyph-name="hungarumlaut" unicode="&#x2dd;" horiz-adv-x="420" d="M163.7 514.6 L340.4 677.7 L252.4 764.8 L95.7 577.4 L163.7 514.6 Z M355.7 514.6 L532.4 677.7 L444.4 764.8 L287.7 577.4 L355.7 514.6 Z " />
<glyph glyph-name="gravecomb" unicode="&#x300;" d="M-9.3 513.5 L60 596.1 L-114.9 759.3 L-218.2 632.6 L-9.3 513.5 Z " />
<glyph glyph-name="acutecomb" unicode="&#x301;" d="M-170.5 513.5 L64.2 628.9 L-7.8 761.8 L-221.1 602.3 L-170.5 513.5 Z " />
<glyph glyph-name="uni0302" unicode="&#x302;" d="M-72.1 737.6 L-172.9 737.6 L-331.3 595.6 L-257 518.8 L-134.5 618 L-36.9 518.8 L46 595.6 L-72.1 737.6 Z " />
<glyph glyph-name="tildecomb" unicode="&#x303;" d="M-45.5 731 C-54.6 705.7 -70.5 689 -92.1 689 C-130.8 689 -153.4 726 -219.2 726 C-280.2 726 -348.7 674.3 -370 584 L-258.6 543 C-249 571 -226.8 589 -203.5 589 C-157 589 -139.6 554 -75.5 554 C-5.60002 554 37.5 604 63 690 L-45.5 731 Z " />
<glyph glyph-name="uni0304" unicode="&#x304;" d="M-284.3 572.7 L48.2 572.7 L67 704.7 L-265.5 704.7 L-284.3 572.7 Z " />
<glyph glyph-name="uni0306" unicode="&#x306;" d="M-151.9 527 C5.3 527 50.5 618 67 701.3 L-63.6 715.8 C-74.5 668.5 -95.8 649 -137.9 649 C-173.1 649 -200 666.3 -205.6 715.8 L-328.2 701.3 C-335.3 618 -273.3 527 -151.9 527 L-151.9 527 Z " />
<glyph glyph-name="uni0307" unicode="&#x307;" d="M36 644.3 C36 694.8 -2.5 736 -55.3 736 C-116.7 736 -175 682.8 -175 620.7 C-175 569.4 -136.7 528.4 -84.9 528.4 C-22.2 528.4 36 581.7 36 644.3 L36 644.3 Z " />
<glyph glyph-name="uni0308" unicode="&#x308;" d="M-171.1 634.1 C-171.1 675.8 -202.7 709.7 -246.2 709.7 C-296.8 709.7 -344.7 665.8 -344.7 614.5 C-344.7 572.1 -312.9 538 -270.9 538 C-219.2 538 -171.1 582.3 -171.1 634.1 L-171.1 634.1 Z M65 634.1 C65 675.8 33.4 709.7 -10 709.7 C-60.6 709.7 -108.6 665.8 -108.6 614.5 C-108.6 572.1 -77.1 538.4 -34.4 538.4 C17.2 538.4 65 582.3 65 634.1 L65 634.1 Z " />
<glyph glyph-name="uni030A" unicode="&#x30a;" d="M79 654.2 C79 718.9 31 770.3 -34.2 770.3 C-118.9 770.3 -186 707.3 -186 623.9 C-186 559.5 -137.7 508 -69.2 508 C17.7 508 79 565.7 79 654.2 L79 654.2 Z M-59.4 597.5 C-79.6 597.5 -93.4 614.1 -93.4 633.9 C-93.4 658.9 -75.1 681 -47.6 681 C-26.6 681 -13.6 664.6 -13.6 644.3 C-13.6 619.7 -30.4 597.5 -59.4 597.5 L-59.4 597.5 Z " />
<glyph glyph-name="uni030B" unicode="&#x30b;" d="M-288.7 514.6 L-112 677.7 L-200 764.8 L-356.7 577.4 L-288.7 514.6 Z M-96.7 514.6 L80 677.7 L-8 764.8 L-164.7 577.4 L-96.7 514.6 Z " />
<glyph glyph-name="uni030C" unicode="&#x30c;" d="M-204.1 519.8 L-103.3 519.8 L55 661.8 L-17.9 738.6 L-139.7 639.4 L-239.4 738.6 L-322.3 661.8 L-204.1 519.8 Z " />
<glyph glyph-name="uni0326" unicode="&#x326;" d="M-163.7 -39.6 C-220.4 -39.6 -276.2 -90 -276.2 -148.8 C-276.2 -190 -249.8 -225.5 -212.5 -234.5 C-221.8 -267.2 -239.1 -286.7 -259 -308.2 L-209.9 -345.9 C-147.3 -296.2 -78 -218.5 -78 -126.6 C-78 -78.5 -114 -39.6 -163.7 -39.6 L-163.7 -39.6 Z " />
<glyph glyph-name="uni0327" unicode="&#x327;" d="M-208 11 L-251.3 -74 C-217.5 -74.9 -192.9 -81.3 -192.9 -104.1 C-192.9 -126.7 -211.3 -137 -231.6 -137 C-249.6 -137 -263.3 -132 -274.7 -123 L-320.8 -202 C-303.4 -219.4 -256.9 -233 -211.7 -233 C-145.1 -233 -59 -204.1 -59 -112.4 C-59 -60.6 -100.5 -36 -138.7 -36 L-115.5 11 L-208 11 Z " />
<glyph glyph-name="uni0328" unicode="&#x328;" d="M-225.1 -220 C-167.9 -220 -128.8 -198.5 -104.2 -177 L-146.4 -89 C-157.1 -95.1 -167.8 -101 -182.2 -101 C-195.5 -101 -207.8 -92.8 -207.8 -74.8 C-207.8 -42.4 -163.4 -1.70001 -92 31 L-207.1 31 C-280.3 -10 -334.5 -58.2 -334.5 -131.1 C-334.5 -185.6 -295.9 -220 -225.1 -220 L-225.1 -220 Z " />
<glyph glyph-name="uni0335" unicode="&#x335;" d="M-311.9 454 L21 454 L35 552 L-297.9 552 L-311.9 454 Z " />
<glyph glyph-name="uni0336" unicode="&#x336;" d="M-689.9 420 L25.9 420 L41 526 L-674.8 526 L-689.9 420 Z " />
<glyph glyph-name="uni0337" unicode="&#x337;" d="M-310 247.1 L28 414.3 L-5.7 509.1 L-344 341.2 L-310 247.1 Z " />
<glyph glyph-name="uni0338" unicode="&#x338;" d="M-505 -37 L-6 452 L-52.2 502 L-550.6 17 L-505 -37 Z " />
<glyph glyph-name="Wgrave" unicode="&#x1e80;" horiz-adv-x="944" d="M716.5 766.6 L481 869.8 L416.6 722.3 L673.9 675.8 L716.5 766.6 Z M838.5 642 L716.2 269.1 L695.29 210.88 L690.2 269.1 L650.4 606 L467.8 606 L340.6 269.1 L321.14 212.85 L316.5 269.1 L291.7 642 L90 642 L180.4 0 L385 0 L513.5 319 L529.55 365.86 L532.9 319.4 L577.4 0 L764 0 L1031.1 642 L838.5 642 Z " />
<glyph glyph-name="wgrave" unicode="&#x1e81;" horiz-adv-x="770" d="M601.5 596.1 L426.6 759.3 L323.3 632.6 L532.2 513.5 L601.5 596.1 Z M637.5 472 L538.81 144.8 L523.81 472 L384.01 472 L276.01 147.66 L270.22 472 L70.02 472 L143.32 0 L340.42 0 L422.79 253.44 L430.52 0 L627.72 0 L831.72 472 L637.5 472 Z " />
<glyph glyph-name="Wacute" unicode="&#x1e82;" horiz-adv-x="944" d="M723.7 722.3 L694.2 872.2 L432.8 773.9 L453.3 675.8 L723.7 722.3 Z M838.5 642 L716.2 269.1 L695.29 210.88 L690.2 269.1 L650.4 606 L467.8 606 L340.6 269.1 L321.14 212.85 L316.5 269.1 L291.7 642 L90 642 L180.4 -1.52588e-05 L385 -1.52588e-05 L513.5 319 L529.55 365.86 L532.9 319.4 L577.4 -1.52588e-05 L764 -1.52588e-05 L1031.1 642 L838.5 642 Z " />
<glyph glyph-name="wacute" unicode="&#x1e83;" horiz-adv-x="770" d="M601.5 628.9 L529.5 761.8 L316.2 602.3 L366.8 513.5 L601.5 628.9 Z M637.5 472 L538.81 144.8 L523.81 472 L384.01 472 L276.01 147.66 L270.22 472 L70.02 472 L143.32 -1.52588e-05 L340.42 -1.52588e-05 L422.79 253.44 L430.52 -1.52588e-05 L627.72 -1.52588e-05 L831.72 472 L637.5 472 Z " />
<glyph glyph-name="Wdieresis" unicode="&#x1e84;" horiz-adv-x="944" d="M443.2 694.4 C494.8 694.4 542.7 738.3 542.7 790.1 C542.7 831.8 511 865.7 467.6 865.7 C417 865.7 369.1 821.8 369.1 770.5 C369.1 728.1 400.5 694.4 443.2 694.4 L443.2 694.4 Z M695.9 694.4 C747.4 694.4 795.3 738.3 795.3 790.1 C795.3 831.8 763.6 865.7 720.3 865.7 C669.7 865.7 621.7 821.8 621.7 770.5 C621.7 728.1 653.2 694.4 695.9 694.4 L695.9 694.4 Z M838.5 642 L716.2 269.1 L695.29 210.88 L690.2 269.1 L650.4 606 L467.8 606 L340.6 269.1 L321.14 212.85 L316.5 269.1 L291.7 642 L90 642 L180.4 0 L385 0 L513.5 319 L529.55 365.86 L532.9 319.4 L577.4 0 L764 0 L1031.1 642 L838.5 642 Z " />
<glyph glyph-name="wdieresis" unicode="&#x1e85;" horiz-adv-x="770" d="M336.1 538 C387.8 538 435.9 582.3 435.9 634.1 C435.9 675.8 404.3 709.7 360.8 709.7 C310.2 709.7 262.3 665.8 262.3 614.5 C262.3 572.1 294.1 538 336.1 538 L336.1 538 Z M572.6 538.4 C624.2 538.4 672 582.3 672 634.1 C672 675.8 640.4 709.7 597 709.7 C546.4 709.7 498.4 665.8 498.4 614.5 C498.4 572.1 529.9 538.4 572.6 538.4 L572.6 538.4 Z M637.5 472 L538.81 144.8 L523.81 472 L384.01 472 L276.01 147.66 L270.22 472 L70.02 472 L143.32 0 L340.42 0 L422.79 253.44 L430.52 0 L627.72 0 L831.72 472 L637.5 472 Z " />
<glyph glyph-name="uni1E9E" unicode="&#x1e9e;" horiz-adv-x="681" d="M548.82 368.32 L655 477.5 L678.3 642 L417.8 642 C213.4 642 124.6 541.9 99 361 L48 0 L228 0 L278 356 C287.3 422.2 330.8 477.5 394.4 477.5 L466.75 477.5 L378.6 382.5 L358.3 241.3 L398.7 241.3 C474.7 241.3 503.6 217.5 503.6 187.7 C503.6 160.4 483.6 144 448.2 144 C425 144 391.8 152.6 363.5 174.4 L254.5 36.8 C295.4 -2.3 358.8 -18 428.4 -18 C586.6 -18 686.2 61 686.2 198.8 C686.2 305.1 615.2 349.93 548.82 368.32 L548.82 368.32 Z " />
<glyph glyph-name="Ygrave" unicode="&#x1ef2;" horiz-adv-x="630" d="M565.5 770.6 L330 873.8 L265.6 726.3 L522.9 679.8 L565.5 770.6 Z M720.5 642 L511 642 L404 467 L370.85 415.31 L354.4 467 L294.2 642 L85 642 L258.36 232.97 L225.4 0 L405.4 0 L438.66 235.1 L720.5 642 Z " />
<glyph glyph-name="ygrave" unicode="&#x1ef3;" horiz-adv-x="547" d="M493.1 596.1 L318.2 759.3 L214.9 632.6 L423.8 513.5 L493.1 596.1 Z M392.8 472 L353.5 192.28 C337.2 170.73 314.27 160.01 294 160.01 C253.8 160.01 241.4 185.41 249 240.01 L282 472.01 L102 472.01 L66 219.01 C45.3 72.81 94 0.00999451 212.3 0.00999451 C250.18 0.00999451 292.28 11.03 332.55 43.26 L326.19 -1.99001 C320.79 -41.99 293.79 -65.99 229.09 -65.99 C181.29 -65.99 137.49 -50.99 99.49 -31.79 L27.99 -160.69 C78.79 -188.99 142.19 -204.99 210.39 -204.99 C364.19 -204.99 487.59 -138.09 511.99 36.01 L572.99 472.01 L392.8 472 Z " />
<glyph glyph-name="uni1EF8" unicode="&#x1ef8;" horiz-adv-x="630" d="M369.7 733.6 C417.1 733.6 439.6 691.5 511.1 691.5 C567.4 691.5 629.8 729.9 659.7 813.2 L547.5 860.9 C537 836.5 519.3 821.2 499.3 821.2 C455.4 821.2 431.2 864.6 357.3 864.6 C295 864.6 232.1 822.6 201.1 733.4 L313.8 687.1 C324.4 713.4 344.1 733.6 369.7 733.6 L369.7 733.6 Z M720.5 642 L511 642 L404 467 L370.85 415.31 L354.4 467 L294.2 642 L85 642 L258.36 232.97 L225.4 -1.52588e-05 L405.4 -1.52588e-05 L438.66 235.1 L720.5 642 Z " />
<glyph glyph-name="uni1EF9" unicode="&#x1ef9;" horiz-adv-x="547" d="M310.2 589 C356.7 589 374.1 554 438.2 554 C508.1 554 551.2 604 576.7 690 L468.2 731 C459.1 705.7 443.2 689 421.6 689 C382.9 689 360.3 726 294.5 726 C233.5 726 165 674.3 143.7 584 L255.1 543 C264.7 571 286.9 589 310.2 589 L310.2 589 Z M353.5 192.28 C337.2 170.73 314.27 160.01 294 160.01 C253.8 160.01 241.4 185.41 249 240.01 L282 472.01 L102 472.01 L66 219.01 C45.3 72.81 94 0.00999451 212.3 0.00999451 C250.18 0.00999451 292.28 11.03 332.55 43.26 L326.19 -1.99001 C320.79 -41.99 293.79 -65.99 229.09 -65.99 C181.29 -65.99 137.49 -50.99 99.49 -31.79 L27.99 -160.69 C78.79 -188.99 142.19 -204.99 210.39 -204.99 C364.19 -204.99 487.59 -138.09 511.99 36.01 L572.99 472.01 L392.79 472.01 L353.5 192.28 Z " />
<glyph glyph-name="endash" unicode="&#x2013;" horiz-adv-x="524" d="M73 196.8 L506.2 196.8 L522.1 308.8 L88.9 308.8 L73 196.8 Z " />
<glyph glyph-name="emdash" unicode="&#x2014;" horiz-adv-x="1017" d="M74 194.8 L997.5 194.8 L1014 310.8 L90.5 310.8 L74 194.8 Z " />
<glyph glyph-name="quoteleft" unicode="&#x2018;" horiz-adv-x="248" d="M179 371.5 C238.3 371.5 296.6 424.2 296.6 485.6 C296.6 529.5 267.7 567.1 227.4 575.8 C239.6 621.7 259.6 647.9 286.3 679 L238.1 723.3 C172.6 672.3 90 577.4 90 464.5 C90 409.2 127.8 371.5 179 371.5 L179 371.5 Z " />
<glyph glyph-name="quoteright" unicode="&#x2019;" horiz-adv-x="243" d="M222.6 723.2 C163.3 723.2 105 670.5 105 609.1 C105 565.2 133.9 527.6 174.2 519 C162 473 142 446.8 115.3 415.7 L163.5 371.4 C229 422.4 311.6 517.3 311.6 630.2 C311.6 685.5 273.8 723.2 222.6 723.2 L222.6 723.2 Z " />
<glyph glyph-name="quotesinglbase" unicode="&#x201a;" horiz-adv-x="263" d="M155.6 188.2 C96.3 188.2 38 135.5 38 74.1 C38 30.2 66.9 -7.39999 107.2 -16.1 C95 -62 75.1 -88.2 48.3 -119.3 L96.6 -163.6 C162 -112.6 244.6 -17.7 244.6 95.2 C244.6 150.5 207 188.2 155.6 188.2 L155.6 188.2 Z " />
<glyph glyph-name="quotedblleft" unicode="&#x201c;" horiz-adv-x="485" d="M178 371.5 C237.3 371.5 295.6 424.2 295.6 485.6 C295.6 529.5 266.6 567.1 226.4 575.8 C238.5 621.7 258.5 647.9 285.3 679 L237 723.3 C171.5 672.3 89 577.4 89 464.5 C89 409.2 126.7 371.5 178 371.5 L178 371.5 Z M415.7 371.5 C475.1 371.5 533.4 424.2 533.4 485.6 C533.4 529.5 504.4 567.1 464.2 575.8 C476.3 621.7 496.3 647.9 523.1 679 L474.8 723.3 C409.2 672.3 326.8 577.4 326.8 464.5 C326.8 409.2 364.4 371.5 415.7 371.5 L415.7 371.5 Z " />
<glyph glyph-name="quotedblright" unicode="&#x201d;" horiz-adv-x="480" d="M221.6 723.2 C162.3 723.2 104 670.5 104 609.1 C104 565.2 132.9 527.6 173.2 519 C161 473 141 446.8 114.3 415.7 L162.5 371.4 C228 422.4 310.6 517.3 310.6 630.2 C310.6 685.5 272.8 723.2 221.6 723.2 L221.6 723.2 Z M459.5 723.2 C400.2 723.2 341.9 670.5 341.9 609.1 C341.9 565.2 370.8 527.6 411.1 519 C398.9 473 378.9 446.8 352.2 415.7 L400.3 371.4 C465.9 422.4 548.5 517.3 548.5 630.2 C548.5 685.5 510.7 723.2 459.5 723.2 L459.5 723.2 Z " />
<glyph glyph-name="quotedblbase" unicode="&#x201e;" horiz-adv-x="500" d="M154.6 188.2 C95.3 188.2 37 135.5 37 74.1 C37 30.2 65.9 -7.39999 106.2 -16.1 C94 -62 74.1 -88.2 47.3 -119.3 L95.6 -163.6 C161 -112.6 243.6 -17.7 243.6 95.2 C243.6 150.5 206 188.2 154.6 188.2 L154.6 188.2 Z M392.6 188 C333.3 188 274.9 135.5 274.9 74.1 C274.9 30.2 303.8 -7.39999 344.1 -16.1 C331.9 -62 312 -88.2 285.2 -119.3 L333.4 -163.6 C398.9 -112.6 481.5 -17.7 481.5 95.2 C481.5 150.5 444.2 188 392.6 188 L392.6 188 Z " />
<glyph glyph-name="dagger" unicode="&#x2020;" horiz-adv-x="538" d="M564.9 512 L414.73 512 L433 642 L281.1 642 L262.83 512 L116.9 512 L94 352 L240.34 352 L190.8 -0.5 L342.7 -0.5 L392.24 352 L542 352 L564.9 512 Z " />
<glyph glyph-name="daggerdbl" unicode="&#x2021;" horiz-adv-x="537" d="M546.7 387 L569.6 547 L416.25 547 L429.6 642 L277.7 642 L264.35 547 L121.6 547 L98.7 387 L241.86 387 L222.75 251 L79.9 251 L57 91 L200.26 91 L187.4 -0.5 L339.3 -0.5 L352.16 91 L505 91 L527.9 251 L374.65 251 L393.76 387 L546.7 387 Z " />
<glyph glyph-name="bullet" unicode="&#x2022;" horiz-adv-x="367" d="M353.6 286.9 C353.6 352.1 306.1 403.7 240.5 403.7 C162.2 403.7 90 336.2 90 255.9 C90 190.8 137.4 139.1 203.1 139.1 C281.3 139.1 353.6 206.7 353.6 286.9 L353.6 286.9 Z " />
<glyph glyph-name="ellipsis" unicode="&#x2026;" horiz-adv-x="781" d="M255.2 100.3 C255.2 153.1 215.6 196 161 196 C98.5 196 37 140.5 37 75.9 C37 22.8 77.3 -21 130 -21 C194.9 -21 255.2 35.7 255.2 100.3 L255.2 100.3 Z M512.1 100.3 C512.1 153.1 472.1 196 418.4 196 C355.9 196 294 140.5 294 75.9 C294 22.8 334.2 -21 387 -21 C451.9 -21 512.1 35.7 512.1 100.3 L512.1 100.3 Z M769.1 100.3 C769.1 153.1 729.5 196 674.9 196 C612.4 196 550.9 140.5 550.9 75.9 C550.9 22.8 591.3 -21 643.9 -21 C708.7 -21 769.1 35.7 769.1 100.3 L769.1 100.3 Z " />
<glyph glyph-name="perthousand" unicode="&#x2030;" horiz-adv-x="1141" d="M111 -18 L228.2 -18 L756.2 662 L639 662 L111 -18 Z M239 342 C346.7 342 422.8 418.9 422.8 525.1 C422.8 600.8 373.9 653 282.8 653 C174.7 653 98.2 577.5 98.2 470.6 C98.2 394.6 147 342 239 342 L239 342 Z M251.7 432 C218.1 432 203 452.1 203 481.9 C203 524.2 225 564 270.2 564 C303.2 564 317.9 543.2 317.9 513.5 C317.9 470.7 296.5 432 251.7 432 L251.7 432 Z M580.9 -20.5 C688.6 -20.5 764.7 56.4 764.7 162.6 C764.7 238.3 715.8 290.5 624.7 290.5 C516.6 290.5 440.1 215 440.1 108.1 C440.1 32.1 488.9 -20.5 580.9 -20.5 L580.9 -20.5 Z M951 -20.5 C1058.7 -20.5 1134.8 56.4 1134.8 162.6 C1134.8 238.3 1085.9 290.5 994.8 290.5 C886.7 290.5 810.2 215 810.2 108.1 C810.2 32.1 859 -20.5 951 -20.5 L951 -20.5 Z M593.6 69.5 C560 69.5 544.9 89.6 544.9 119.4 C544.9 161.7 566.9 201.5 612.1 201.5 C645.1 201.5 659.8 180.7 659.8 151 C659.8 108.2 638.4 69.5 593.6 69.5 L593.6 69.5 Z M963.7 69.5 C930.1 69.5 915 89.6 915 119.4 C915 161.7 937 201.5 982.2 201.5 C1015.2 201.5 1029.9 180.7 1029.9 151 C1029.9 108.2 1008.5 69.5 963.7 69.5 L963.7 69.5 Z " />
<glyph glyph-name="guilsinglleft" unicode="&#x2039;" horiz-adv-x="305" d="M59 252.7 L192.2 66.3 L284.7 132.8 L208.3 246.9 L324.2 366.8 L244.9 439.1 L59 252.7 Z " />
<glyph glyph-name="guilsinglright" unicode="&#x203a;" horiz-adv-x="304" d="M315.9 252.7 L182.6 439.1 L88.1 370.8 L165.4 257.8 L51.5 139.7 L130 66.3 L315.9 252.7 Z " />
<glyph glyph-name="fraction" unicode="&#x2044;" horiz-adv-x="539" d="M-7 -18 L110.2 -18 L638.3 662 L521.1 662 L-7 -18 Z " />
<glyph glyph-name="Euro" unicode="&#x20ac;" horiz-adv-x="633" d="M435.2 156 C389.29 156 356.99 179.61 341.5 222.7 L454.89 222.7 L465.19 295.7 L331.13 295.7 C331.39 313.32 333.06 330.03 336 345.7 L472.1 345.7 L482.4 418.7 L363.02 418.7 C390.46 463.82 433.61 490 484.61 490 C512.61 490 531.81 482.5 562.01 458 L679.51 601 C641.81 634.3 587.11 662 503.21 662 C329.24 662 203.82 568.94 155.23 418.7 L92.51 418.7 L82.21 345.7 L138.4 345.7 C136.04 329.51 134.44 312.83 133.63 295.7 L75.31 295.7 L65.01 222.7 L136.12 222.7 C154.92 84.62 257.76 -18 409.92 -18 C504.22 -18 565.92 11 611.62 46 L533.42 198 C504.32 173.4 478.22 156 435.22 156 L435.2 156 Z " />
<glyph glyph-name="trademark" unicode="&#x2122;" horiz-adv-x="805" d="M398.8 553 L414.4 662 L124.5 662 L109 553 L193.66 553 L158.3 300.8 L279.2 300.8 L314.53 553 L398.8 553 Z M709.3 662 L621 496.9 L611.62 470.82 L608.8 496.9 L564.5 662 L437.5 662 L386.8 300.8 L499.3 300.8 L513.4 405.2 L513.4 450.49 L526.86 405.8 L552.96 329.5 L636.16 329.5 L707.19 456.4 L692.66 405.2 L678.56 300.8 L790.56 300.8 L841.36 662 L709.3 662 Z " />
<glyph glyph-name="arrowleft" unicode="&#x2190;" horiz-adv-x="1200" d="M1000 750 L200 750 C145 750 100 705 100 650 L100 -150 C100 -205 145 -250 200 -250 L1000 -250 C1055 -250 1100 -205 1100 -150 L1100 650 C1100 705 1055 750 1000 750 L1000 750 Z M549 533 L621 466 L445 300 L890 300 L890 200 L445 200 L621 34 L549 -33 L265 250 L549 533 Z " />
<glyph glyph-name="arrowup" unicode="&#x2191;" horiz-adv-x="1200" d="M1000 750 L200 750 C145 750 100 705 100 650 L100 -150 C100 -205 145 -250 200 -250 L1000 -250 C1055 -250 1100 -205 1100 -150 L1100 650 C1100 705 1055 750 1000 750 L1000 750 Z M884 279 L817 207 L651 383 L651 -63 L551 -63 L551 383 L385 207 L318 279 L601 563 L884 279 Z " />
<glyph glyph-name="arrowright" unicode="&#x2192;" horiz-adv-x="1200" d="M1000 750 L200 750 C145 750 100 705 100 650 L100 -150 C100 -205 145 -250 200 -250 L1000 -250 C1055 -250 1100 -205 1100 -150 L1100 650 C1100 705 1055 750 1000 750 L1000 750 Z M651 533 L935 250 L651 -33 L579 34 L755 200 L310 200 L310 300 L755 300 L579 466 L651 533 Z " />
<glyph glyph-name="arrowdown" unicode="&#x2193;" horiz-adv-x="1200" d="M1000 750 L200 750 C145 750 100 705 100 650 L100 -150 C100 -205 145 -250 200 -250 L1000 -250 C1055 -250 1100 -205 1100 -150 L1100 650 C1100 705 1055 750 1000 750 L1000 750 Z M884 221 L601 -63 L318 221 L385 293 L551 117 L551 563 L651 563 L651 117 L817 293 L884 221 Z " />
<glyph glyph-name="uni2196" unicode="&#x2196;" horiz-adv-x="1200" d="M1000 750 L200 750 C145 750 100 705 100 650 L100 -150 C100 -205 145 -250 200 -250 L1000 -250 C1055 -250 1100 -205 1100 -150 L1100 650 C1100 705 1055 750 1000 750 L1000 750 Z M780 478 L779 379 L549 379 L856 72 L786 1 L479 308 L479 78 L380 78 L379 478 L780 478 Z " />
<glyph glyph-name="uni2197" unicode="&#x2197;" horiz-adv-x="1200" d="M1000 750 L200 750 C145 750 100 705 100 650 L100 -150 C100 -205 145 -250 200 -250 L1000 -250 C1055 -250 1100 -205 1100 -150 L1100 650 C1100 705 1055 750 1000 750 L1000 750 Z M438 478 L839 478 L838 78 L739 78 L739 308 L432 1 L362 72 L669 379 L439 379 L438 478 Z " />
<glyph glyph-name="uni2198" unicode="&#x2198;" horiz-adv-x="1200" d="M1000 750 L200 750 C145 750 100 705 100 650 L100 -150 C100 -205 145 -250 200 -250 L1000 -250 C1055 -250 1100 -205 1100 -150 L1100 650 C1100 705 1055 750 1000 750 L1000 750 Z M438 12 L439 111 L669 111 L362 418 L432 489 L739 182 L739 412 L838 412 L839 12 L438 12 Z " />
<glyph glyph-name="uni2199" unicode="&#x2199;" horiz-adv-x="1200" d="M1000 750 L200 750 C145 750 100 705 100 650 L100 -150 C100 -205 145 -250 200 -250 L1000 -250 C1055 -250 1100 -205 1100 -150 L1100 650 C1100 705 1055 750 1000 750 L1000 750 Z M763 12 L362 12 L363 412 L462 412 L462 182 L769 489 L839 418 L532 111 L762 111 L763 12 Z " />
<glyph glyph-name="minus" unicode="&#x2212;" horiz-adv-x="588" d="M76 193.8 L564.5 193.8 L582.6 320.2 L94.1 320.2 L76 193.8 Z " />
<glyph glyph-name="approxequal" unicode="&#x2248;" horiz-adv-x="571" d="M164.1 279.2 C188.4 306.8 212.7 325.2 245.4 325.2 C297.7 325.2 338.6 279.2 407.1 279.2 C471.3 279.2 546.5 306.6 590.7 370.8 L511.2 455.1 C486.9 427.5 457.1 409.1 429 409.1 C365.8 409.1 336.4 455.1 257.7 455.1 C195.1 455.1 132.1 427.1 84.9 363 L164.1 279.2 Z M132.1 53.2 C156.4 80.8 180.7 99.2 213.4 99.2 C265.7 99.2 306.6 53.2 375.1 53.2 C439.3 53.2 514.5 80.6 558.7 144.8 L479.2 229.1 C454.9 201.5 425.1 183.1 397 183.1 C333.8 183.1 304.4 229.1 225.7 229.1 C163.1 229.1 100.1 201.1 52.9 137 L132.1 53.2 Z " />
<glyph glyph-name="notequal" unicode="&#x2260;" horiz-adv-x="590" d="M580.7 302 L598.8 428.5 L511.86 428.5 L567.5 504.3 L502.7 548.9 L413.6 428.5 L110.4 428.5 L92.3 302 L319.99 302 L244.29 199.7 L78.1 199.7 L60 73.2 L150.68 73.2 L82.6 -18.8 L147.4 -68 L251.05 73.2 L548.4 73.2 L566.5 199.7 L343.91 199.7 L419 302 L580.7 302 Z " />
<glyph glyph-name="uniF8FF" unicode="&#xf8ff;" horiz-adv-x="1471" d="M731 583 C731 549 758 522 792 522 C827 522 854 549 854 583 C854 618 827 645 792 645 C758 645 731 618 731 583 L731 583 Z M259 270 C259 425 251 544 249 584 L149 584 C147 544 140 423 140 270 L259 270 Z M734 270 L852 270 C852 351 849 464 842 509 L664 509 L663 526 L544 496 L544 417 L566 417 C566 411 562 351 562 330 C562 287 590 264 644 264 C673 264 702 268 712 279 L712 353 C708 349 700 348 694 348 C687 348 681 350 679 352 L676 417 L737 417 C735 380 734 332 734 270 L734 270 Z M368 265 C416 265 435 290 443 331 L451 270 L534 270 L534 397 C534 471 495 514 410 514 C318 514 276 464 276 379 C276 301 311 265 368 265 L368 265 Z M1130 270 L1127 408 C1125 479 1109 514 1050 514 C984 514 972 450 970 433 C970 453 967 487 964 509 L884 509 C877 464 874 351 874 270 L988 270 C988 316 985 343 985 363 C985 380 987 392 1003 392 C1016 392 1018 383 1018 363 C1018 343 1016 316 1016 270 L1130 270 Z M1391 391 C1391 454 1367 514 1270 514 C1172 514 1146 453 1146 389 C1146 313 1183 265 1268 265 C1353 265 1391 312 1391 391 L1391 391 Z M430 375 C430 356 421 345 406 345 C391 345 384 356 384 375 C384 394 391 401 406 401 C421 401 430 394 430 375 L430 375 Z M1291 375 C1291 356 1282 345 1268 345 C1254 345 1247 356 1247 375 C1247 394 1254 401 1268 401 C1282 401 1291 394 1291 375 L1291 375 Z M468 238 L468 119 C468 99 464 92 452 92 C440 92 437 98 437 119 L437 238 L260 238 L261 256 L144 227 L144 147 L162 147 C161 133 159 81 159 66 C159 18 179 -5 240 -5 C290 -5 303 6 308 10 L308 83 C306 81 301 78 290 78 C282 78 278 80 275 82 L272 147 L327 147 L327 134 C327 77 358 51 417 51 C447 51 460 58 466 62 C466 56 458 34 412 34 C369 34 348 46 342 50 L342 -33 C350 -38 371 -50 430 -50 C545 -50 582 -6 582 100 C582 153 576 217 572 238 L468 238 Z M773 243 C710 243 696 176 693 162 C693 180 688 226 686 238 L608 238 C606 210 598 126 598 -44 L717 -44 C717 -37 717 -20 716 -5 C808 -5 853 40 853 130 C853 204 822 243 773 243 L773 243 Z M1110 127 C1110 202 1067 243 994 243 C914 243 869 195 869 117 C869 38 915 -5 1010 -5 C1053 -5 1078 4 1088 11 L1088 86 C1074 78 1052 74 1033 74 C1002 74 988 84 983 92 L1107 92 C1109 101 1110 116 1110 127 L1110 127 Z M1018 109 L978 109 C978 127 987 136 1001 136 C1014 136 1020 127 1018 109 L1018 109 Z M710 72 C709 75 705 85 705 101 C705 123 713 132 727 132 C739 132 747 125 747 109 C747 78 717 72 710 72 L710 72 Z M1114 13 C1114 27 1124 36 1138 36 C1152 36 1162 27 1162 13 C1162 -1 1152 -10 1138 -10 C1124 -10 1114 -1 1114 13 L1114 13 Z M1120 13 C1120 1 1127 -5 1138 -5 C1149 -5 1156 1 1156 13 C1156 25 1149 31 1138 31 C1127 31 1120 25 1120 13 L1120 13 Z M1148 2 L1142 2 L1138 11 L1133 11 L1133 2 L1128 2 L1128 25 L1139 25 C1146 25 1149 22 1149 18 C1149 13 1145 11 1142 11 L1148 2 Z M1140 15 C1143 15 1144 16 1144 18 C1144 20 1143 21 1140 21 L1133 21 L1133 15 L1140 15 Z " />
<glyph glyph-name="fi" unicode="&#xfb01;" horiz-adv-x="636" d="M660.8 464 L327.88 464 L328.3 467 C333.7 506.3 367.7 528.5 414.3 528.5 C459.7 528.5 481.2 516.1 498.8 506.3 L591.2 619.2 C568.3 640 507.9 668 418.5 668 C283.04 668 179.61 598.38 148.8 464 L88.59 464 L67.99 320 L127.27 320 L82.29 0 L262.29 0 L307.51 320 L460.29 320 L415.69 0 L595.59 0 L660.8 464 Z " />
<glyph glyph-name="fl" unicode="&#xfb02;" horiz-adv-x="686" d="M657 138 C626.2 138 612.5 151.6 617.6 189 L674.6 596 L673.69 595.84 L673.9 596.1 C651.3 618.8 590.7 668 450.9 668 C284.28 668 179.02 598.38 148.11 464 L87.7 464 L67 320 L126.58 320 L81.6 -1.52588e-05 L261.6 -1.52588e-05 L306.82 320 L389 320 L409.7 464 L327.18 464 L327.6 467 C333 506.3 371.4 528.5 433.1 528.5 C449.95 528.5 466.77 526.27 482.77 522.76 L432.6 168 C410.5 11.5 497.2 -12 592.1 -12 C618.2 -12 653.6 -8.3 676 1.89999 L696.7 146.1 C686.7 140.9 668.1 138 657 138 L657 138 Z " />
</font>
</svg>
