<?xml version="1.0" encoding="UTF-8"?>
<svg xmlns="http://www.w3.org/2000/svg" xmlns:xlink="http://www.w3.org/1999/xlink" version="1.2" >
<font id="Informative Energy">
<font-face  font-family="Informative" units-per-em="1000" ascent="750" descent="-250" font-style="normal" font-weight="900" font-stretch="normal" cap-height="700" x-height="400" underline-position="-75" underline-thickness="50" />
<missing-glyph  horiz-adv-x="500" d="M410 750 L93 750 L93 -250 L410 -250 L410 750 Z M333 683 L333 650 L267 650 L267 613 L333 613 L333 580 L167 580 L167 613 L233 613 L233 650 L168 650 L168 683 L333 683 Z M267 554 L267 484 L333 484 L333 450 L167 450 L167 554 L267 554 Z M233 520 L200 520 L200 484 L233 484 L233 520 Z M333 423 L333 390 L267 390 L267 320 L167 320 L167 353 L233 353 L233 390 L167 390 L167 423 L333 423 Z M333 363 L333 263 L167 263 L167 297 L300 297 L300 363 L333 363 Z M333 241 L333 128 L167 128 L167 241 L200 241 L200 161 L300 161 L300 208 L267 208 L267 185 L233 185 L233 241 L333 241 Z M333 68 L333 -45 L167 -45 L167 68 L333 68 Z M300 35 L200 35 L200 -12 L300 -12 L300 35 Z M333 -68 L333 -101 L301 -101 L231 -148 L333 -148 L333 -181 L167 -181 L167 -148 L237 -101 L167 -101 L167 -68 L333 -68 Z " />
<glyph glyph-name="NULL" d="" />
<glyph glyph-name="CR" unicode="&#xd;" horiz-adv-x="250" d="" />
<glyph glyph-name="space" unicode="&#x20;" horiz-adv-x="600" d="" />
<glyph glyph-name="exclam" unicode="&#x21;" horiz-adv-x="1000" d="M697 260 L655 303 L781 429 L767 443 L641 317 L519 438 L646 566 L633 579 L506 452 L463 494 L449 479 L683 246 L697 260 Z M634 267 L533 166 C510 143 477 132 448 132 C429 132 412 137 401 148 L351 198 C340 209 335 227 335 246 C335 275 347 308 369 330 L470 431 L456 445 L355 344 C329 318 315 280 315 246 C315 222 322 199 337 184 L356 166 L271 81 C238 48 220 11 220 -34 C220 -55 224 -77 233 -98 L255 -98 C244 -77 238 -57 238 -35 C238 2 257 41 284 68 L369 153 L387 134 C402 119 425 112 449 112 C483 112 521 126 547 152 L648 253 L634 267 Z " />
<glyph glyph-name="numbersign" unicode="&#x23;" horiz-adv-x="1000" d="M774 7 L734 7 L721 -100 L846 -100 L834 7 L794 7 L794 310 L810 306 L820 344 L519 421 C515 445 492 465 467 465 C451 465 436 457 426 445 L286 480 L324 583 L223 613 L175 365 C172 347 182 326 196 320 L196 -50 L216 -50 L216 323 C226 327 234 337 238 347 L273 443 L414 406 C418 381 442 360 467 360 C484 360 499 369 509 382 L774 315 L774 7 Z M239 587 L298 569 L282 526 L231 544 L239 587 Z M227 525 L276 508 L246 425 L210 438 L227 525 Z M467 380 C450 380 434 395 434 413 C434 430 450 445 467 445 C485 445 500 430 500 413 C500 395 485 380 467 380 L467 380 Z M240 408 L220 353 C217 345 211 340 206 340 C196 340 193 351 195 361 L206 419 L240 408 Z M520 309 L533 309 L533 329 L402 329 L402 309 L415 309 L325 -100 L377 -100 L567 -1 L589 -100 L610 -100 L520 309 Z M500 309 L503 294 L416 220 L435 309 L500 309 Z M508 272 L529 178 L406 178 L409 187 L508 272 Z M553 66 L402 155 L402 158 L533 158 L553 66 Z M397 134 L558 39 L376 39 L397 134 Z M561 19 L348 -92 L372 19 L561 19 Z M802 -50 C802 -61 794 -69 784 -69 C773 -69 765 -61 765 -50 C765 -40 773 -32 784 -32 C794 -32 802 -40 802 -50 L802 -50 Z M154 -80 L154 -100 L257 -100 L257 -80 L154 -80 Z " />
<glyph glyph-name="dollar" unicode="&#x24;" horiz-adv-x="1000" d="M276 201 L276 235 L356 235 L356 201 L376 201 L376 211 L496 211 C569 211 631 273 631 346 C631 422 570 484 496 484 L490 484 L490 514 L503 514 C509 514 513 518 513 524 C513 530 509 534 503 534 L406 534 C400 534 396 530 396 524 C396 518 400 514 406 514 L418 514 L418 484 L356 484 L356 442 L276 442 L276 484 L256 484 L256 201 L276 201 Z M438 484 L438 514 L470 514 L470 484 L438 484 Z M237 220 L237 241 C198 259 170 297 170 346 C170 395 194 434 237 454 L237 475 C185 457 150 404 150 346 C150 291 186 239 237 220 L237 220 Z M376 464 L496 464 C557 464 611 415 611 346 C611 283 559 231 496 231 L376 231 L376 464 Z M850 95 L850 263 L824 452 L680 452 C665 452 650 437 650 423 L650 215 L670 215 L670 423 C670 428 674 432 680 432 L806 432 L812 390 L718 390 L718 252 L830 252 L830 115 L802 115 C797 151 764 181 726 181 C689 181 656 151 651 115 L483 115 C478 151 446 181 408 181 C370 181 338 151 333 115 L301 115 C296 151 263 181 226 181 C185 181 150 145 150 105 C150 64 185 29 226 29 C263 29 296 58 301 95 L333 95 C338 58 370 29 408 29 C446 29 478 58 483 95 L651 95 C656 58 689 29 726 29 C764 29 797 58 802 95 L850 95 Z M276 422 L356 422 L356 380 L276 380 L276 422 Z M498 273 C523 273 543 293 543 318 C543 343 511 384 498 422 C482 384 453 343 453 318 C453 293 473 273 498 273 L498 273 Z M738 272 L738 370 L815 370 L828 272 L738 272 Z M356 360 L356 317 L276 317 L276 360 L356 360 Z M498 328 C509 328 518 319 518 308 C518 297 509 288 498 288 C487 288 478 297 478 308 C478 319 487 328 498 328 L498 328 Z M356 255 L276 255 L276 297 L356 297 L356 255 Z M226 49 C195 49 170 74 170 105 C170 135 195 161 226 161 C256 161 282 135 282 105 C282 74 256 49 226 49 L226 49 Z M408 49 C377 49 352 74 352 105 C352 135 377 161 408 161 C439 161 464 135 464 105 C464 74 439 49 408 49 L408 49 Z M726 49 C696 49 670 74 670 105 C670 135 696 161 726 161 C757 161 783 135 783 105 C783 74 757 49 726 49 L726 49 Z " />
<glyph glyph-name="percent" unicode="&#x25;" horiz-adv-x="1000" d="M720 578 L280 578 C265 578 249 562 249 547 L249 -42 C249 -57 265 -73 280 -73 L720 -73 C736 -73 751 -57 751 -42 L751 547 C751 562 736 578 720 578 L720 578 Z M731 547 L731 -42 C731 -49 727 -53 720 -53 L280 -53 C274 -53 269 -48 269 -42 L269 547 C269 553 274 558 280 558 L720 558 C727 558 731 554 731 547 L731 547 Z M611 266 L591 309 C586 320 583 335 583 345 L583 410 C583 425 568 440 552 440 L448 440 C433 440 417 425 417 410 L417 345 C417 335 414 320 409 309 L389 266 C383 254 380 235 380 222 L380 201 C380 186 395 171 411 171 L590 171 C605 171 621 186 621 201 L621 222 C621 235 616 255 611 266 L611 266 Z M437 337 L437 410 C437 416 441 420 448 420 L552 420 C559 420 563 416 563 410 L563 337 L437 337 Z M405 253 L427 301 C429 305 431 311 433 317 L567 317 C569 311 571 305 573 301 L595 253 L405 253 Z M600 233 L601 201 C601 195 597 191 590 191 L411 191 C404 191 400 195 400 201 L401 233 L600 233 Z M427 141 L427 79 C427 68 437 58 448 58 L552 58 C564 58 573 68 573 79 L573 141 L427 141 Z " />
<glyph glyph-name="ampersand" unicode="&#x26;" horiz-adv-x="1000" d="M726 455 L711 455 L711 510 L726 510 C732 510 736 514 736 520 C736 526 732 530 726 530 L669 530 L669 579 L560 579 L560 530 L274 530 C268 530 264 526 264 520 C264 514 268 510 274 510 L289 510 L289 455 L274 455 C268 455 264 451 264 445 C264 439 268 435 274 435 L726 435 C732 435 736 439 736 445 C736 451 732 455 726 455 L726 455 Z M580 530 L580 559 L649 559 L649 530 L580 530 Z M309 455 L309 510 L691 510 L691 455 L309 455 Z M309 417 L289 417 L289 30 L309 30 L309 417 Z M711 411 L691 411 L691 30 L711 30 L711 411 Z M641 222 C641 299 576 363 500 363 C424 363 359 299 359 222 C359 146 424 81 500 81 C576 81 641 146 641 222 L641 222 Z M379 222 C379 289 434 343 500 343 C566 343 621 289 621 222 C621 156 566 101 500 101 C434 101 379 156 379 222 L379 222 Z M545 197 C545 222 513 263 500 301 C484 263 455 222 455 197 C455 172 475 152 500 152 C525 152 545 172 545 197 L545 197 Z M480 187 C480 198 489 207 500 207 C511 207 520 198 520 187 C520 176 511 167 500 167 C489 167 480 176 480 187 L480 187 Z M711 -10 L726 -10 C732 -10 736 -6 736 0 C736 6 732 10 726 10 L274 10 C268 10 264 6 264 0 C264 -6 268 -10 274 -10 L289 -10 L289 -78 L274 -78 C268 -78 264 -82 264 -88 C264 -94 268 -98 274 -98 L726 -98 C732 -98 736 -94 736 -88 C736 -82 732 -78 726 -78 L711 -78 L711 -10 Z M691 -10 L691 -78 L309 -78 L309 -10 L691 -10 Z " />
<glyph glyph-name="quotesingle" unicode="&#x27;" horiz-adv-x="1000" d="M820 249 L806 263 L772 229 L773 250 C773 399 649 523 500 523 C387 523 289 452 248 352 L267 346 C305 438 395 503 500 503 C639 503 753 389 753 250 C753 243 753 236 752 229 L718 263 L704 249 L762 191 L820 249 Z M501 413 C446 413 399 366 399 311 C399 273 433 239 436 236 C440 232 441 230 441 225 L441 203 L461 203 L461 225 C461 234 458 242 452 249 C446 255 419 284 419 311 C419 356 456 393 501 393 C545 393 582 356 582 311 C582 282 554 252 552 250 C545 243 541 235 541 226 L541 203 L561 203 L561 226 C561 231 561 231 566 236 C568 238 602 274 602 311 C602 366 555 413 501 413 L501 413 Z M500 -3 C361 -3 248 111 248 250 C248 257 248 264 249 271 L283 237 L297 251 L239 309 L180 251 L194 237 L229 271 C228 264 228 257 228 250 C228 101 351 -23 500 -23 C615 -23 711 47 753 149 L734 154 C696 62 605 -3 500 -3 L500 -3 Z M510 300 L490 300 L490 203 L510 203 L510 300 Z M470 111 L530 111 L530 127 L551 127 C559 127 570 135 570 145 L570 188 L430 188 L430 145 C430 135 441 127 448 127 L470 127 L470 111 Z M450 147 L450 168 L550 168 L550 147 L450 147 Z " />
<glyph glyph-name="parenleft" unicode="&#x28;" horiz-adv-x="1000" d="M383 176 L383 114 L403 114 L403 176 C403 192 399 207 385 221 C382 224 313 294 313 362 C313 465 397 549 499 549 C602 549 686 465 686 362 C686 295 620 226 617 223 C605 209 598 195 598 178 L598 114 L618 114 L618 178 C618 191 621 197 632 210 C636 214 706 283 706 362 C706 475 612 569 499 569 C387 569 293 475 293 362 C293 286 368 210 371 207 C381 197 383 190 383 176 L383 176 Z M440 338 L460 114 L480 114 L460 340 L440 338 Z M560 338 L540 340 L520 114 L540 114 L560 338 Z M360 86 L360 5 C360 -9 374 -24 389 -24 L424 -24 L424 -78 L575 -78 L575 -24 L610 -24 C624 -24 639 -9 639 5 L639 86 L360 86 Z M380 5 L380 66 L619 66 L619 5 C619 0 615 -4 610 -4 L389 -4 C383 -4 380 -1 380 5 L380 5 Z M555 -24 L555 -58 L444 -58 L444 -24 L555 -24 Z " />
<glyph glyph-name="parenright" unicode="&#x29;" horiz-adv-x="1000" d="M500 559 C391 559 303 471 303 362 C303 290 375 217 378 214 C392 200 394 193 394 176 L394 114 L460 114 L440 338 L460 340 L480 114 L520 114 L540 340 L560 338 L540 114 L609 114 L609 178 C609 194 614 203 624 216 C626 219 697 291 697 362 C697 471 608 559 500 559 L500 559 Z M425 -78 L575 -78 L575 -24 L612 -24 C626 -24 640 -9 640 5 L640 86 L361 86 L361 5 C361 -9 375 -24 390 -24 L425 -24 L425 -78 Z M390 -4 C384 -4 381 0 381 5 L381 66 L620 66 L620 5 C620 -1 616 -4 612 -4 L390 -4 Z M445 -58 L445 -24 L555 -24 L555 -58 L445 -58 Z " />
<glyph glyph-name="asterisk" unicode="&#x2a;" horiz-adv-x="1000" d="M726 455 L711 455 L711 510 L726 510 C732 510 736 514 736 520 C736 526 732 530 726 530 L669 530 L669 579 L560 579 L560 530 L274 530 C268 530 264 526 264 520 C264 514 268 510 274 510 L289 510 L289 455 L274 455 C268 455 264 451 264 445 C264 439 268 435 274 435 L726 435 C732 435 736 439 736 445 C736 451 732 455 726 455 L726 455 Z M580 530 L580 559 L649 559 L649 530 L580 530 Z M309 455 L309 510 L691 510 L691 455 L309 455 Z M309 417 L289 417 L289 30 L309 30 L309 417 Z M711 411 L691 411 L691 30 L711 30 L711 411 Z M640 222 C640 298 576 362 500 362 C424 362 360 298 360 222 C360 146 424 82 500 82 C576 82 640 146 640 222 L640 222 Z M380 222 C380 288 434 342 500 342 C566 342 620 288 620 222 C620 156 566 102 500 102 C434 102 380 156 380 222 L380 222 Z M500 256 C506 256 512 255 517 252 C526 267 536 285 543 296 C530 303 516 307 500 307 C485 307 470 303 458 296 L483 252 C488 255 494 256 500 256 L500 256 Z M516 222 C516 231 509 238 500 238 C491 238 484 231 484 222 C484 213 491 206 500 206 C509 206 516 213 516 222 L516 222 Z M467 222 L416 222 C416 191 433 164 458 149 L484 193 C474 199 467 210 467 222 L467 222 Z M516 193 C525 178 536 160 542 149 C567 164 584 191 584 222 L533 222 C533 210 527 199 516 193 L516 193 Z M711 -10 L726 -10 C732 -10 736 -6 736 0 C736 6 732 10 726 10 L274 10 C268 10 264 6 264 0 C264 -6 268 -10 274 -10 L289 -10 L289 -78 L274 -78 C268 -78 264 -82 264 -88 C264 -94 268 -98 274 -98 L726 -98 C732 -98 736 -94 736 -88 C736 -82 732 -78 726 -78 L711 -78 L711 -10 Z M691 -10 L691 -78 L309 -78 L309 -10 L691 -10 Z " />
<glyph glyph-name="plus" unicode="&#x2b;" horiz-adv-x="1000" d="M530 585 L470 585 C444 585 420 562 420 536 L420 260 L440 260 L440 536 C440 551 454 565 470 565 L530 565 C546 565 560 551 560 536 L560 260 L580 260 L580 536 C580 562 556 585 530 585 L530 585 Z M415 558 L415 578 C389 578 365 554 365 528 L365 260 L385 260 L385 528 C385 544 399 558 415 558 L415 558 Z M584 578 L584 558 C600 558 614 544 614 528 L614 260 L634 260 L634 528 C634 554 610 578 584 578 L584 578 Z M510 260 L510 511 L490 511 L490 260 L510 260 Z M640 180 L640 220 L360 220 L360 180 C360 122 400 73 450 53 L450 13 L550 13 L550 53 C600 73 640 122 640 180 L640 180 Z M380 200 L620 200 L620 180 C620 124 581 82 530 67 L530 33 L470 33 L470 67 C419 82 380 124 380 180 L380 200 Z M537 -60 L537 3 L517 3 L517 -40 L484 -40 L484 3 L464 3 L464 -60 L537 -60 Z " />
<glyph glyph-name="comma" unicode="&#x2c;" horiz-adv-x="1000" d="M500 546 C335 546 199 410 199 245 C199 80 335 -56 500 -56 C665 -56 801 80 801 245 C801 410 665 546 500 546 L500 546 Z M510 -36 L510 50 C510 56 506 60 500 60 C494 60 490 56 490 50 L490 -36 C341 -31 219 93 219 245 C219 396 340 521 490 526 L490 439 C490 433 494 429 500 429 C506 429 510 433 510 439 L510 526 C659 524 781 397 781 245 C781 93 659 -31 510 -36 L510 -36 Z M370 317 C331 317 297 284 297 245 C297 206 331 172 370 172 C409 172 442 206 442 245 C442 284 409 317 370 317 L370 317 Z M639 317 C600 317 566 284 566 245 C566 206 600 172 639 172 C677 172 711 206 711 245 C711 284 677 317 639 317 L639 317 Z M370 192 C341 192 317 217 317 245 C317 273 341 297 370 297 C399 297 422 273 422 245 C422 217 399 192 370 192 L370 192 Z M639 192 C610 192 586 217 586 245 C586 273 610 297 639 297 C667 297 691 273 691 245 C691 217 667 192 639 192 L639 192 Z " />
<glyph glyph-name="hyphen" unicode="&#x2d;" horiz-adv-x="1000" d="M750 117 C729 117 708 109 692 97 L575 192 C585 205 590 222 590 240 C590 249 589 259 586 267 L734 336 C747 323 764 314 785 314 C824 314 854 345 854 384 C854 422 824 453 785 453 C747 453 716 422 716 384 C716 373 719 362 723 352 L578 285 C565 307 544 324 517 329 L524 421 C571 424 608 463 608 510 C608 560 568 599 519 599 C469 599 430 560 430 510 C430 466 461 429 504 422 L497 330 C466 329 441 313 425 290 L306 349 C309 356 310 364 310 372 C310 410 279 441 241 441 C202 441 171 410 171 372 C171 333 202 302 241 302 C264 302 284 313 297 331 L416 272 C412 262 410 251 410 240 C410 228 412 217 416 207 L314 154 C299 184 269 203 234 203 C184 203 145 164 145 114 C145 65 184 25 234 25 C284 25 323 65 323 114 C323 121 322 128 321 135 L426 190 C439 170 460 155 485 151 L478 36 C444 32 417 2 417 -33 C417 -72 448 -102 486 -102 C525 -102 555 -72 555 -33 C555 0 532 29 499 35 L505 150 C528 151 549 161 563 176 L678 81 C667 67 661 48 661 28 C661 -21 701 -61 750 -61 C801 -61 840 -21 840 28 C840 78 800 117 750 117 L750 117 Z M450 510 C450 549 480 580 519 580 C557 580 588 549 588 510 C588 472 557 441 519 441 C480 441 450 472 450 510 L450 510 Z M785 433 C813 433 835 411 835 384 C835 356 813 334 785 334 C757 334 736 356 736 384 C736 411 757 433 785 433 L785 433 Z M241 322 C213 322 191 344 191 372 C191 399 213 421 241 421 C268 421 290 399 290 372 C290 344 268 322 241 322 L241 322 Z M234 45 C195 45 164 76 164 114 C164 153 195 184 234 184 C272 184 303 153 303 114 C303 76 272 45 234 45 L234 45 Z M750 -41 C712 -41 681 -10 681 28 C681 67 712 98 750 98 C789 98 820 67 820 28 C820 -10 789 -41 750 -41 L750 -41 Z M536 -33 C536 -61 514 -83 486 -83 C458 -83 437 -61 437 -33 C437 -5 458 16 486 16 C514 16 536 -5 536 -33 L536 -33 Z " />
<glyph glyph-name="period" unicode="&#x2e;" horiz-adv-x="1000" d="M374 -10 L627 -10 C727 -10 809 115 809 265 C809 414 727 539 627 539 L374 539 C273 539 191 414 191 265 C191 115 273 -10 374 -10 L374 -10 Z M627 10 L374 10 C285 10 211 123 211 265 C211 406 285 519 374 519 L627 519 C715 519 789 406 789 265 C789 123 715 10 627 10 L627 10 Z M378 236 L408 236 L408 401 L378 401 L378 236 Z M589 236 L619 236 L619 401 L589 401 L589 236 Z M441 82 L560 82 L560 129 C560 163 534 189 501 189 C467 189 441 163 441 129 L441 82 Z " />
<glyph glyph-name="slash" unicode="&#x2f;" horiz-adv-x="1000" d="M820 249 L806 263 L772 229 L773 250 C773 399 649 523 500 523 C387 523 289 452 248 352 L267 346 C305 438 395 503 500 503 C639 503 753 389 753 250 C753 243 753 236 752 229 L718 263 L704 249 L762 191 L820 249 Z M510 354 L490 354 L490 260 L396 260 L396 240 L490 240 L490 146 L510 146 L510 240 L604 240 L604 260 L510 260 L510 354 Z M500 -3 C361 -3 248 111 248 250 C248 257 248 264 249 271 L283 237 L297 251 L239 309 L180 251 L194 237 L229 271 C228 264 228 257 228 250 C228 101 351 -23 500 -23 C615 -23 711 47 753 149 L734 154 C696 62 605 -3 500 -3 L500 -3 Z " />
<glyph glyph-name="zero" unicode="0" horiz-adv-x="1000" d="M850 57 L850 77 L660 77 L660 103 C692 145 715 204 715 252 C715 385 604 532 454 593 C454 515 413 471 365 419 C324 374 280 326 280 252 C280 201 302 143 335 104 L335 77 L150 77 L150 57 L335 57 L335 -59 L150 -59 L150 -79 L335 -79 L335 -107 L660 -107 L660 -79 L850 -79 L850 -59 L660 -59 L660 57 L850 57 Z M635 105 L613 105 C632 199 574 308 473 341 C476 294 466 276 430 225 C406 191 382 157 382 118 C382 114 382 109 383 105 L361 105 C320 145 300 208 300 252 C300 318 338 361 380 406 C422 451 463 495 472 563 C601 500 695 370 695 252 C695 199 667 139 635 105 L635 105 Z M640 -87 L355 -87 L355 85 L640 85 L640 -87 Z " />
<glyph glyph-name="one" unicode="1" horiz-adv-x="1000" d="M705 553 L755 553 L755 573 L245 573 L245 553 L295 553 C285 472 224 423 167 423 L167 403 C235 403 305 461 315 553 L685 553 C695 461 765 403 833 403 L833 423 C776 423 715 472 705 553 L705 553 Z M625 528 L605 528 L629 424 L542 528 L516 528 L609 417 L391 417 L484 528 L458 528 L372 426 L396 528 L375 528 L237 -73 L257 -77 L271 -17 L272 -19 L500 133 L728 -19 L729 -17 L743 -77 L763 -73 L625 528 Z M490 366 L328 231 L366 397 L490 397 L490 366 Z M673 231 L510 366 L510 397 L635 397 L673 231 Z M676 202 L324 202 L500 348 L676 202 Z M490 182 L490 150 L277 8 L317 182 L490 182 Z M724 8 L510 150 L510 182 L684 182 L724 8 Z " />
<glyph glyph-name="two" unicode="2" horiz-adv-x="1000" d="M539 456 L562 650 L439 650 L461 456 C479 460 490 462 500 462 C511 462 522 460 539 456 L539 456 Z M461 630 L540 630 L521 480 C515 481 507 482 500 482 C493 482 485 481 479 480 L461 630 Z M441 447 L320 600 L233 514 L386 392 C398 416 417 434 441 447 L441 447 Z M614 392 L768 513 L681 600 L559 447 C584 434 601 416 614 392 L614 392 Z M381 421 L263 516 L318 570 L412 452 C400 443 390 433 381 421 L381 421 Z M589 452 L683 570 L738 515 L619 421 C611 433 600 443 589 452 L589 452 Z M546 323 L597 323 C598 325 598 328 598 331 C598 337 597 342 597 343 L546 343 C544 348 542 353 539 358 L576 395 C572 400 567 405 562 409 L525 372 C521 375 516 377 510 378 L510 431 L500 432 L490 431 L490 378 C485 377 479 375 475 372 L438 409 C433 405 428 400 424 395 L461 358 C458 353 456 348 454 343 L403 343 C402 340 402 337 402 334 C402 329 403 324 403 323 L454 323 C456 317 458 312 461 307 L424 271 C429 266 433 261 439 257 L475 293 C477 292 478 291 480 291 L480 333 L520 333 L520 291 C522 291 524 292 525 293 L562 257 C567 261 571 266 576 271 L539 307 C542 312 544 317 546 323 L546 323 Z M377 372 L183 394 L183 272 L382 294 C375 300 373 317 373 334 C373 349 375 364 377 372 L377 372 Z M817 393 L623 372 C625 364 627 348 627 333 C627 316 625 300 619 294 L817 271 L817 393 Z M354 311 L203 294 L203 372 L354 354 C353 347 352 340 352 332 C352 325 353 318 354 311 L354 311 Z M797 371 L797 293 L646 311 C647 318 647 325 647 333 C647 340 647 348 646 354 L797 371 Z M387 274 L232 152 L319 65 L441 219 C417 231 400 250 387 274 L387 274 Z M558 219 L681 65 L767 151 L613 274 C600 250 583 232 558 219 L558 219 Z M412 214 L317 95 L262 150 L382 245 C390 233 400 223 412 214 L412 214 Z M618 245 L737 149 L683 95 L588 214 C599 223 610 233 618 245 L618 245 Z M552 159 L565 159 L565 179 L434 179 L434 159 L447 159 L390 -100 L411 -100 L429 -16 L572 -100 L609 -100 L552 159 Z M448 70 L467 159 L532 159 L535 144 L448 70 Z M540 122 L560 28 L439 28 L441 38 L540 122 Z M565 8 L584 -84 L434 5 L434 8 L565 8 Z " />
<glyph glyph-name="three" unicode="3" horiz-adv-x="1000" d="M836 133 L532 211 C527 227 513 240 497 246 L557 307 C563 313 565 321 565 329 C565 343 558 358 553 369 L480 545 C475 557 466 576 443 574 L427 573 C421 572 417 567 418 562 L452 243 C435 234 422 217 419 197 L328 215 C303 220 284 195 273 180 L160 29 C154 21 148 12 148 1 C148 -6 150 -15 157 -24 C161 -29 166 -32 172 -32 C176 -32 181 -30 185 -27 L432 152 C436 147 441 143 447 140 L429 -100 L448 -100 L465 132 C470 131 473 130 478 130 C483 130 487 131 491 132 L509 -100 L528 -100 L510 140 C515 144 521 148 526 154 L560 89 C571 68 601 68 621 69 L809 78 C834 79 852 90 852 114 C852 123 847 130 836 133 L836 133 Z M463 538 L537 363 C542 352 546 341 546 332 C546 327 545 322 542 319 L511 287 C497 288 481 287 468 285 L438 555 C454 556 458 549 463 538 L463 538 Z M478 229 C500 229 518 211 518 189 C518 167 500 149 478 149 C456 149 438 167 438 189 C438 211 456 229 478 229 L478 229 Z M173 -13 C169 -8 167 -4 167 0 C167 5 170 11 175 17 L289 168 C301 183 311 199 324 196 L377 185 C382 172 389 161 397 150 L173 -13 Z M809 97 L620 88 C601 87 582 87 576 99 L554 143 C563 154 569 167 570 183 L833 113 C829 98 824 98 809 97 L809 97 Z " />
<glyph glyph-name="four" unicode="4" horiz-adv-x="1000" d="M455 357 L391 357 L391 337 L609 337 L609 357 L564 357 C572 368 584 376 594 381 C599 384 601 387 601 391 C601 396 596 400 589 400 C587 400 584 399 581 398 C563 391 545 375 539 357 L514 357 C521 393 547 437 584 457 C593 462 595 467 595 471 C595 475 591 479 583 479 C580 479 577 478 573 477 C549 469 526 444 510 413 C519 470 536 543 555 569 C561 577 564 584 564 589 C564 595 560 599 554 599 C548 599 541 595 534 587 C510 561 496 493 489 435 C484 477 473 521 449 542 C442 548 435 550 429 550 C421 550 415 546 415 540 C415 535 418 528 428 520 C451 500 463 451 469 408 C461 429 448 449 429 460 C424 463 419 464 414 464 C408 464 404 462 404 457 C404 452 406 446 414 438 C435 417 446 387 455 357 L455 357 Z M361 532 C372 528 380 527 389 510 L392 516 C390 529 384 553 368 559 C366 560 365 560 364 560 C357 560 352 553 352 546 C352 541 354 535 361 532 L361 532 Z M689 -55 L558 317 L537 317 L552 275 L447 275 L462 317 L441 317 L311 -55 L311 -101 L331 -101 L331 -63 L500 26 L669 -63 L669 -101 L689 -101 L689 -55 Z M440 255 L490 255 L490 210 L397 131 L440 255 Z M559 255 L602 131 L510 210 L510 255 L559 255 Z M610 96 L389 96 L500 191 L610 96 Z M339 -36 L378 76 L490 76 L490 43 L339 -36 Z M510 43 L510 76 L622 76 L661 -36 L510 43 Z " />
<glyph glyph-name="five" unicode="5" horiz-adv-x="1000" d="M629 542 L609 552 L393 305 C388 299 385 292 385 285 C385 276 388 268 395 262 L449 212 C455 206 457 197 455 191 L371 -42 L391 -52 L607 195 C613 201 615 209 615 216 C615 224 611 232 605 238 L551 288 C545 294 542 302 545 309 L629 542 Z M408 291 L596 507 L527 316 C526 313 525 309 525 305 C525 294 530 281 537 274 L591 223 C593 221 595 219 595 216 C595 214 594 211 592 209 L404 -8 L473 184 C475 189 475 192 475 196 C475 207 470 219 463 226 L409 277 C406 280 405 282 405 285 C405 287 406 289 408 291 L408 291 Z " />
<glyph glyph-name="six" unicode="6" horiz-adv-x="1000" d="M484 373 L519 590 L362 544 L341 226 L481 268 L465 28 L386 38 L490 -113 L629 0 L553 14 L658 426 L484 373 Z M382 528 L495 562 L460 345 L630 396 L529 -2 L583 -12 L494 -83 L428 12 L483 6 L503 296 L363 254 L382 528 Z " />
<glyph glyph-name="seven" unicode="7" horiz-adv-x="1000" d="M500 560 C330 560 190 420 190 250 C190 80 330 -60 500 -60 C670 -60 810 80 810 250 C810 420 670 560 500 560 L500 560 Z M500 540 C660 540 790 410 790 250 C790 90 660 -40 500 -40 C340 -40 210 90 210 250 C210 410 340 540 500 540 L500 540 Z M497 428 C458 332 384 230 384 167 C384 104 435 54 497 54 C559 54 610 104 610 167 C610 230 531 332 497 428 L497 428 Z M497 192 C525 192 548 169 548 141 C548 114 525 91 497 91 C469 91 447 114 447 141 C447 169 469 192 497 192 L497 192 Z " />
<glyph glyph-name="eight" unicode="8" horiz-adv-x="1000" d="M500 556 C330 556 190 416 190 246 C190 77 330 -64 500 -64 C669 -64 810 77 810 246 C810 416 669 556 500 556 L500 556 Z M500 536 C659 536 790 406 790 246 C790 87 659 -44 500 -44 C340 -44 210 87 210 246 C210 406 340 536 500 536 L500 536 Z M500 462 C460 462 423 452 391 433 L456 321 C469 328 484 332 500 332 C515 332 530 328 543 321 C566 360 592 405 608 433 C576 452 539 462 500 462 L500 462 Z M500 283 C479 283 463 267 463 246 C463 226 479 210 500 210 C520 210 536 226 536 246 C536 267 520 283 500 283 L500 283 Z M414 245 L284 245 C284 165 328 95 393 57 L458 170 C432 185 414 213 414 245 L414 245 Z M715 245 L585 245 C585 213 567 185 542 170 C564 131 591 85 607 57 C671 95 715 165 715 245 L715 245 Z " />
<glyph glyph-name="nine" unicode="9" horiz-adv-x="1000" d="M783 521 L816 555 L802 569 L769 535 C754 547 735 555 715 557 L715 600 L695 600 L695 557 C675 555 656 547 641 534 L610 566 L596 552 L627 520 C614 505 605 486 603 465 L560 465 L560 445 L603 445 C605 424 614 404 627 388 L594 355 L608 341 L642 375 C657 363 675 355 695 353 L695 310 L715 310 L715 353 C735 355 754 363 770 375 L801 344 L815 358 L784 389 C797 405 805 424 807 445 L850 445 L850 465 L807 465 C805 486 796 505 783 521 L783 521 Z M705 372 C660 372 622 409 622 455 C622 500 660 538 705 538 C751 538 788 500 788 455 C788 409 751 372 705 372 L705 372 Z M150 258 L150 -24 L431 -24 L431 -80 L206 -80 L206 -100 L677 -100 L677 -80 L451 -80 L451 -24 L732 -24 L732 258 L150 258 Z M170 -4 L170 238 L712 238 L712 -4 L170 -4 Z M204 204 L204 129 L279 129 L279 204 L204 204 Z M304 204 L304 129 L379 129 L379 204 L304 204 Z M404 204 L404 129 L479 129 L479 204 L404 204 Z M504 204 L504 129 L579 129 L579 204 L504 204 Z M604 204 L604 129 L679 129 L679 204 L604 204 Z M204 104 L204 29 L279 29 L279 104 L204 104 Z M304 104 L304 29 L379 29 L379 104 L304 104 Z M404 104 L404 29 L479 29 L479 104 L404 104 Z M504 104 L504 29 L579 29 L579 104 L504 104 Z M604 104 L604 29 L679 29 L679 104 L604 104 Z " />
<glyph glyph-name="colon" unicode="&#x3a;" horiz-adv-x="1000" d="M762 191 L820 249 L806 263 L772 229 L773 250 C773 399 649 523 500 523 C387 523 289 452 248 352 L267 346 C305 438 395 503 500 503 C639 503 753 389 753 250 C753 243 753 236 752 229 L718 263 L704 249 L762 191 Z M424 375 L470 296 C479 302 489 305 500 305 C511 305 521 302 530 296 L576 375 C554 388 528 396 500 396 C472 396 446 388 424 375 L424 375 Z M500 -3 C361 -3 248 111 248 250 C248 257 248 264 249 271 L283 237 L297 251 L239 309 L180 251 L194 237 L229 271 C228 264 228 257 228 250 C228 101 351 -23 500 -23 C615 -23 711 47 753 149 L734 154 C696 62 605 -3 500 -3 L500 -3 Z M474 245 C474 230 486 219 500 219 C514 219 526 230 526 245 C526 259 514 270 500 270 C486 270 474 259 474 245 L474 245 Z M425 112 L471 191 C452 202 440 221 440 244 L349 244 C349 188 380 138 425 112 L425 112 Z M529 191 C545 164 564 132 575 112 C620 138 651 188 651 244 L560 244 C560 221 547 202 529 191 L529 191 Z " />
<glyph glyph-name="semicolon" unicode="&#x3b;" horiz-adv-x="1000" d="M743 361 C694 361 654 328 641 283 L485 350 L396 561 C382 594 356 606 329 606 C311 606 293 600 278 593 L356 404 L164 483 C156 471 150 453 150 434 C150 407 162 378 193 365 L384 286 L373 313 L200 384 C178 393 169 416 169 437 C169 444 170 451 172 457 L367 378 L477 114 C433 102 400 61 400 12 C400 -47 447 -94 506 -94 C565 -94 612 -47 612 12 C612 51 591 85 560 103 L516 213 L534 231 L495 324 L657 255 C657 303 695 341 743 341 C791 341 829 303 829 255 C829 206 791 169 743 169 C710 169 681 187 667 215 L553 264 L570 235 L652 200 C670 169 704 149 743 149 C802 149 849 196 849 255 C849 314 802 361 743 361 L743 361 Z M545 89 C573 75 592 46 592 12 C592 -37 554 -74 506 -74 C458 -74 420 -37 420 12 C420 60 458 98 506 98 L304 582 C312 585 321 586 329 586 C349 586 368 577 378 553 L510 235 L492 217 L545 89 Z M448 296 C458 296 466 304 466 314 C466 324 458 332 448 332 C438 332 430 324 430 314 C430 304 438 296 448 296 L448 296 Z M743 189 C781 189 809 217 809 255 C809 292 780 321 743 321 C706 321 677 292 677 255 C677 217 705 189 743 189 L743 189 Z M743 209 C717 209 697 229 697 255 C697 281 717 301 743 301 C769 301 789 281 789 255 C789 229 769 209 743 209 L743 209 Z M506 -54 C544 -54 572 -26 572 12 C572 49 543 78 506 78 C469 78 440 49 440 12 C440 -26 468 -54 506 -54 L506 -54 Z M506 -34 C480 -34 460 -14 460 12 C460 38 480 58 506 58 C532 58 552 38 552 12 C552 -14 532 -34 506 -34 L506 -34 Z " />
<glyph glyph-name="equal" unicode="&#x3d;" horiz-adv-x="1000" d="M850 -80 L790 -80 L790 -3 L780 -3 L780 158 C780 183 757 206 731 206 L731 216 L705 216 L705 379 C705 418 670 454 630 455 L630 479 C630 507 600 530 570 530 L482 530 L482 580 L543 580 L543 600 L401 600 L401 580 L462 580 L462 530 L375 530 C343 530 315 507 315 479 L315 455 C275 454 240 419 240 379 L240 -80 L150 -80 L150 -100 L850 -100 L850 -80 Z M375 510 L570 510 C591 510 610 495 610 479 L610 455 L335 455 L335 479 C335 495 353 510 375 510 L375 510 Z M685 -80 L593 -80 L593 328 L573 328 L573 298 L493 298 L493 328 L473 328 L473 -80 L260 -80 L260 379 C260 409 286 435 316 435 L628 435 C659 435 685 409 685 379 L685 -80 Z M493 235 L493 278 L573 278 L573 235 L493 235 Z M493 173 L493 215 L573 215 L573 173 L493 173 Z M705 -80 L705 176 L731 176 L731 186 C747 186 760 173 760 158 L760 -3 L750 -3 L750 -80 L705 -80 Z M493 110 L493 153 L573 153 L573 110 L493 110 Z M493 48 L493 90 L573 90 L573 48 L493 48 Z M493 -15 L493 28 L573 28 L573 -15 L493 -15 Z M573 -80 L493 -80 L493 -35 L573 -35 L573 -80 Z " />
<glyph glyph-name="question" unicode="&#x3f;" horiz-adv-x="1000" d="M820 249 L806 263 L772 229 L773 250 C773 399 649 523 500 523 C387 523 289 452 248 352 L267 346 C305 438 395 503 500 503 C639 503 753 389 753 250 C753 243 753 236 752 229 L718 263 L704 249 L762 191 L820 249 Z M500 -3 C361 -3 248 111 248 250 C248 257 248 264 249 271 L283 237 L297 251 L239 309 L180 251 L194 237 L229 271 C228 264 228 257 228 250 C228 101 351 -23 500 -23 C615 -23 711 47 753 149 L734 154 C696 62 605 -3 500 -3 L500 -3 Z M607 240 L607 260 L399 260 L399 240 L607 240 Z " />
<glyph glyph-name="at" unicode="&#x40;" horiz-adv-x="1000" d="M755 457 L730 524 C722 546 694 566 670 566 L531 566 C507 566 479 546 471 524 L449 465 L419 465 L419 515 L393 515 L379 590 L295 590 L283 515 L257 515 L257 465 L245 465 L245 -60 L316 -88 L685 -88 L755 -60 L755 457 Z M304 515 L313 570 L363 570 L372 515 L304 515 Z M735 453 L735 -46 L681 -68 L320 -68 L265 -46 L265 445 L463 445 L489 518 C495 534 513 546 531 546 L670 546 C688 546 706 534 712 518 L735 453 Z M658 516 L543 516 L511 432 L511 412 L690 412 L690 432 L658 516 Z M533 432 L557 496 L644 496 L668 432 L533 432 Z M277 465 L277 495 L399 495 L399 465 L277 465 Z M599 287 L656 344 L642 358 L585 301 L413 301 L356 358 L342 344 L399 287 L399 80 L342 23 L356 9 L413 66 L585 66 L642 9 L656 23 L599 80 L599 287 Z M579 281 L579 86 L419 86 L419 281 L579 281 Z " />
<glyph glyph-name="A" unicode="A" horiz-adv-x="1000" d="M453 581 C436 524 379 452 379 408 C379 370 414 336 452 336 C491 336 525 370 525 408 C525 453 464 525 453 581 L453 581 Z M452 528 C473 481 505 435 505 408 C505 380 481 356 452 356 C424 356 399 380 399 408 C399 436 429 481 452 528 L452 528 Z M695 449 C678 392 621 319 621 275 C621 237 655 203 694 203 C732 203 766 237 766 275 C766 320 704 392 695 449 L695 449 Z M452 388 C442 388 433 396 433 407 C433 417 442 425 452 425 C462 425 471 417 471 407 C471 396 462 388 452 388 L452 388 Z M693 394 C714 347 746 302 746 275 C746 247 722 223 694 223 C665 223 641 247 641 275 C641 302 671 348 693 394 L693 394 Z M694 255 C683 255 675 263 675 274 C675 284 683 292 694 292 C704 292 712 284 712 274 C712 263 704 255 694 255 L694 255 Z M380 177 L234 105 L240 82 L384 157 L536 127 C528 100 511 93 481 98 L409 111 L396 70 L396 64 C403 42 496 8 515 5 L602 29 L659 81 C668 89 677 93 686 93 C696 93 706 88 715 78 L624 -13 L539 -71 C531 -77 522 -80 510 -80 C499 -80 486 -77 468 -73 L268 -27 L274 -48 L463 -93 C480 -97 495 -100 508 -100 C525 -100 538 -96 551 -87 L593 -58 L720 -13 C740 -6 750 15 747 36 L741 77 C727 99 707 112 685 112 C672 112 658 107 645 95 L592 47 L512 25 C495 26 427 56 416 68 L423 89 L477 78 C523 69 553 91 559 143 L380 177 Z M713 6 L647 -17 L723 59 L727 33 C729 18 719 8 713 6 L713 6 Z " />
<glyph glyph-name="B" unicode="B" horiz-adv-x="1000" d="M642 598 L358 598 C327 598 298 569 298 538 L298 -37 C298 -69 327 -97 358 -97 L642 -97 C673 -97 702 -69 702 -37 L702 538 C702 569 673 598 642 598 L642 598 Z M642 -77 L358 -77 C337 -77 318 -59 318 -37 L318 70 L388 70 L388 90 L318 90 L318 140 L363 140 L363 160 L318 160 L318 210 L388 210 L388 230 L318 230 L318 280 L363 280 L363 300 L318 300 L318 350 L388 350 L388 370 L318 370 L318 420 L363 420 L363 440 L318 440 L318 490 L388 490 L388 510 L318 510 L318 538 C318 559 337 578 358 578 L642 578 C663 578 682 559 682 538 L682 510 L612 510 L612 490 L682 490 L682 440 L637 440 L637 420 L682 420 L682 370 L612 370 L612 350 L682 350 L682 300 L637 300 L637 280 L682 280 L682 230 L612 230 L612 210 L682 210 L682 160 L637 160 L637 140 L682 140 L682 90 L612 90 L612 70 L682 70 L682 -37 C682 -59 663 -77 642 -77 L642 -77 Z M531 92 L531 445 C531 469 518 486 501 486 C484 486 471 469 471 445 L471 92 C446 80 428 55 428 27 C428 -12 462 -46 501 -46 C539 -46 573 -12 573 27 C573 54 555 80 531 92 L531 92 Z M501 -26 C472 -26 448 -2 448 27 C448 52 467 73 491 78 L491 314 C491 320 495 324 501 324 C507 324 511 320 511 314 L511 78 C534 73 553 52 553 27 C553 -2 529 -26 501 -26 L501 -26 Z " />
<glyph glyph-name="C" unicode="C" horiz-adv-x="1000" d="M549 321 L569 317 C577 333 590 339 605 339 C643 339 696 300 717 271 C693 255 648 240 613 240 C586 240 565 250 562 277 L599 271 L602 291 L491 311 C496 321 500 331 506 340 C515 341 523 344 529 350 C541 362 541 382 537 402 C553 413 564 429 564 445 C564 461 553 477 537 488 C541 508 541 528 529 540 C517 552 496 552 476 547 C464 565 449 575 434 575 C419 575 404 565 392 547 C372 552 351 552 339 540 C327 528 327 508 331 488 C315 477 304 461 304 445 C304 429 315 413 331 402 C327 382 327 362 339 350 C351 338 372 338 392 343 C404 325 419 315 434 315 C449 315 464 325 476 343 L485 341 C461 297 449 237 449 200 L469 200 C469 225 474 259 484 291 L541 281 C541 237 573 221 612 221 C664 221 729 248 744 266 C734 294 656 360 600 360 C578 360 559 349 549 321 L549 321 Z M466 367 C454 342 446 335 434 335 C422 335 414 342 402 367 C378 358 361 356 353 364 C345 372 347 388 355 412 C332 423 324 432 324 445 C324 458 332 467 355 478 C347 502 345 518 353 526 C361 534 378 532 402 523 C414 548 422 555 434 555 C446 555 454 548 466 523 C490 532 507 534 515 526 C523 518 521 502 513 478 C536 467 544 458 544 445 C544 432 536 423 513 412 C521 388 523 372 515 364 C507 356 490 358 466 367 L466 367 Z M434 486 C411 486 392 467 392 444 C392 422 411 403 434 403 C457 403 475 422 475 444 C475 467 457 486 434 486 L434 486 Z M257 180 L257 90 L294 90 L344 -105 L549 -105 L599 90 L636 90 L636 180 L257 180 Z M277 110 L277 160 L616 160 L616 110 L277 110 Z M578 90 L533 -85 L360 -85 L315 90 L578 90 Z " />
<glyph glyph-name="D" unicode="D" horiz-adv-x="1000" d="M747 588 C722 512 651 420 651 364 C651 313 695 269 746 269 C797 269 841 313 841 364 C841 420 766 512 747 588 L747 588 Z M746 534 C774 468 821 403 821 364 C821 323 787 289 746 289 C705 289 671 323 671 364 C671 403 715 468 746 534 L746 534 Z M255 470 C229 394 159 302 159 246 C159 195 203 151 254 151 C305 151 349 195 349 246 C349 303 272 394 255 470 L255 470 Z M539 420 C493 293 384 148 384 58 C384 -26 454 -96 538 -96 C622 -96 692 -25 692 58 C692 148 575 292 539 420 L539 420 Z M253 416 C282 350 329 285 329 246 C329 205 295 171 254 171 C213 171 179 205 179 246 C179 285 222 350 253 416 L253 416 Z M746 325 C729 325 715 339 715 356 C715 373 729 387 746 387 C764 387 778 373 778 356 C778 339 764 325 746 325 L746 325 Z M537 365 C584 248 672 131 672 58 C672 -15 612 -76 538 -76 C464 -76 404 -16 404 58 C404 131 486 249 537 365 L537 365 Z M254 216 C236 216 223 230 223 247 C223 264 236 278 254 278 C271 278 285 264 285 247 C285 230 271 216 254 216 L254 216 Z M538 -24 C503 -24 476 4 476 39 C476 73 503 101 538 101 C573 101 601 74 601 39 C601 4 573 -24 538 -24 L538 -24 Z " />
<glyph glyph-name="E" unicode="E" horiz-adv-x="1000" d="M793 346 C796 378 788 410 764 433 C739 457 704 466 667 457 C640 494 601 516 560 516 C514 516 478 500 453 468 C445 470 436 471 428 471 C403 471 379 464 360 445 C343 428 327 396 330 354 C295 363 261 354 236 330 C214 308 204 277 207 242 C173 233 150 203 150 165 C150 120 184 85 230 85 L647 85 C693 85 727 120 727 165 C727 173 726 181 724 189 L770 189 C816 189 850 224 850 269 C850 307 827 337 793 346 L793 346 Z M770 209 L715 209 C705 225 689 237 670 242 C673 278 663 308 641 329 C616 353 581 362 544 353 C517 390 478 412 437 412 C405 412 375 399 350 376 C352 399 362 419 373 430 C387 444 406 451 428 451 C438 451 449 449 461 444 C487 486 524 496 560 496 C595 496 633 476 659 434 C695 447 728 441 750 419 C769 400 779 368 770 329 C810 329 830 299 830 269 C830 239 809 209 770 209 L770 209 Z M647 105 L230 105 C191 105 170 135 170 165 C170 195 189 225 230 225 C221 264 230 296 250 316 C271 337 303 344 338 330 C364 372 401 392 437 392 C472 392 510 372 536 330 C572 343 605 337 627 315 C646 296 656 264 647 225 C687 225 707 195 707 165 C707 135 686 105 647 105 L647 105 Z " />
<glyph glyph-name="F" unicode="F" horiz-adv-x="1000" d="M502 553 C452 417 335 262 335 166 C335 76 411 1 501 1 C591 1 666 76 666 166 C666 262 541 417 502 553 L502 553 Z M500 498 C550 373 646 245 646 166 C646 86 581 21 501 21 C421 21 355 86 355 166 C355 245 444 373 500 498 L500 498 Z M501 87 C462 87 431 118 431 157 C431 195 462 226 501 226 C539 226 570 195 570 157 C570 118 539 87 501 87 L501 87 Z " />
<glyph glyph-name="G" unicode="G" horiz-adv-x="1000" d="M251 43 L251 546 C260 550 266 559 266 569 C266 583 255 594 241 594 C227 594 216 583 216 569 C216 559 222 550 231 546 L231 43 L211 43 L211 -100 L271 -100 L271 43 L251 43 Z M743 398 L299 497 L299 148 L743 249 C768 255 788 280 788 304 L788 342 C788 367 767 392 743 398 L743 398 Z M319 174 L319 473 L416 451 L417 196 L319 174 Z M491 434 L597 410 L597 237 L491 213 L491 434 Z M768 342 L768 304 C768 288 755 273 739 269 L672 254 L672 393 L739 378 C755 374 768 359 768 342 L768 342 Z " />
<glyph glyph-name="H" unicode="H" horiz-adv-x="1000" d="M793 77 C795 106 786 132 767 150 C747 169 718 176 687 170 C666 197 637 215 607 218 C516 372 344 479 150 479 L150 459 C334 459 494 362 584 217 C577 216 570 215 563 212 C478 344 318 439 150 439 L150 419 C312 419 461 330 544 204 C538 200 533 197 528 192 C449 315 307 399 150 399 L150 379 C303 379 437 298 514 178 C511 176 509 173 507 170 C477 177 450 170 429 149 C411 131 401 105 403 77 C375 68 356 43 356 11 C356 -30 385 -59 426 -59 L771 -59 C811 -59 840 -29 840 11 C840 42 821 68 793 77 L793 77 Z M771 -39 L426 -39 C393 -39 376 -15 376 11 C376 35 392 60 426 60 C418 93 426 119 443 135 C460 153 486 158 515 147 C536 182 567 198 597 198 C626 198 657 182 679 147 C708 157 734 152 753 135 C771 119 778 93 771 60 C803 60 820 35 820 11 C820 -15 803 -39 771 -39 L771 -39 Z " />
<glyph glyph-name="I" unicode="I" horiz-adv-x="1000" d="M696 445 L617 436 L609 357 L596 357 L587 436 L509 445 L509 455 L587 464 L596 543 L609 543 L617 464 L696 455 L696 445 Z M358 311 C358 396 397 475 467 526 C304 528 177 388 177 229 C177 69 312 -62 476 -62 C564 -62 660 -13 708 61 C675 52 659 49 626 49 C478 49 358 163 358 311 L358 311 Z M338 311 C338 150 469 29 626 29 C636 29 647 30 657 31 C609 -14 541 -42 476 -42 C323 -42 197 80 197 229 C197 357 285 473 409 500 C363 448 338 380 338 311 L338 311 Z M823 196 L744 187 L735 108 L723 108 L714 187 L635 196 L635 206 L714 215 L723 294 L735 294 L744 215 L823 206 L823 196 Z " />
<glyph glyph-name="J" unicode="J" horiz-adv-x="1000" d="M828 369 C828 440 768 500 698 500 C627 500 567 440 567 369 L587 369 C587 430 637 480 698 480 C758 480 808 430 808 369 C808 308 758 258 698 258 L150 258 L150 238 L698 238 C768 238 828 298 828 369 L828 369 Z M497 371 C497 409 463 442 426 442 C389 442 356 409 356 371 L376 371 C376 399 399 422 426 422 C453 422 477 399 477 371 C477 344 453 321 426 321 L150 321 L150 301 L426 301 C463 301 497 334 497 371 L497 371 Z M761 196 L150 196 L150 176 L761 176 C798 176 830 145 830 107 C830 70 798 39 761 39 C724 39 692 70 692 107 L672 107 C672 60 714 19 761 19 C808 19 850 60 850 107 C850 155 808 196 761 196 L761 196 Z M426 126 L150 126 L150 106 L426 106 C453 106 477 83 477 56 C477 28 453 5 426 5 C399 5 376 28 376 56 L356 56 C356 18 389 -15 426 -15 C463 -15 497 18 497 56 C497 93 463 126 426 126 L426 126 Z " />
<glyph glyph-name="K" unicode="K" horiz-adv-x="1000" d="M500 434 C352 434 225 326 202 185 C219 195 239 201 261 201 C292 201 320 188 340 166 C360 188 389 201 420 201 C447 201 471 192 490 176 L490 11 C490 -8 474 -25 455 -25 C436 -25 420 -8 420 11 L420 37 L400 37 L400 11 C400 -18 426 -45 455 -45 C484 -45 510 -18 510 11 L510 176 C529 192 553 201 580 201 C611 201 640 188 660 166 C680 188 708 201 739 201 C761 201 781 195 798 185 C775 326 648 434 500 434 L500 434 Z M738 221 C710 221 681 210 659 193 C637 210 607 221 579 221 C550 221 521 210 499 193 C477 210 448 221 419 221 C391 221 361 210 339 193 C317 210 288 221 260 221 C250 221 239 220 229 217 C264 331 373 414 499 414 C625 414 734 331 769 217 C759 220 748 221 738 221 L738 221 Z " />
<glyph glyph-name="L" unicode="L" horiz-adv-x="1000" d="M153 600 L153 577 L173 577 L173 600 L153 600 Z M286 577 L286 600 L266 600 L266 577 L286 577 Z M398 577 L398 600 L378 600 L378 577 L398 577 Z M511 577 L511 600 L491 600 L491 577 L511 577 Z M623 577 L623 600 L603 600 L603 577 L623 577 Z M736 577 L736 600 L716 600 L716 577 L736 577 Z M848 600 L828 600 L828 577 L848 577 L848 600 Z M229 479 L229 501 L209 501 L209 479 L229 479 Z M342 479 L342 501 L322 501 L322 479 L342 479 Z M454 479 L454 501 L434 501 L434 479 L454 479 Z M567 479 L567 501 L547 501 L547 479 L567 479 Z M679 479 L679 501 L659 501 L659 479 L679 479 Z M792 479 L792 501 L772 501 L772 479 L792 479 Z M501 404 C353 404 226 296 203 155 C220 165 240 171 262 171 C293 171 321 158 341 136 C361 158 390 171 421 171 C448 171 472 162 491 146 L491 -19 C491 -38 475 -55 456 -55 C437 -55 421 -38 421 -19 L421 7 L401 7 L401 -19 C401 -48 427 -75 456 -75 C485 -75 511 -48 511 -19 L511 146 C530 162 554 171 581 171 C612 171 641 158 661 136 C681 158 709 171 740 171 C762 171 782 165 799 155 C776 296 649 404 501 404 L501 404 Z M153 403 L153 380 L173 380 L173 403 L153 403 Z M270 403 L270 380 L290 380 L290 403 L270 403 Z M736 380 L736 403 L716 403 L716 380 L736 380 Z M828 403 L828 380 L848 380 L848 403 L828 403 Z M739 191 C711 191 682 180 660 163 C638 180 608 191 580 191 C551 191 522 180 500 163 C478 180 449 191 420 191 C392 191 362 180 340 163 C318 180 289 191 261 191 C251 191 240 190 230 187 C265 301 374 384 500 384 C626 384 735 301 770 187 C760 190 749 191 739 191 L739 191 Z M212 292 L232 298 L225 320 L205 314 L212 292 Z M786 307 L783 285 L803 283 L806 305 L786 307 Z " />
<glyph glyph-name="M" unicode="M" horiz-adv-x="1000" d="M401 486 C401 501 414 514 429 514 C444 514 457 501 457 486 L460 267 L480 266 L480 303 C481 325 495 335 508 335 C522 335 535 325 535 303 L535 255 L555 246 L555 273 C555 294 567 305 580 305 C592 305 604 294 604 273 L604 226 L625 217 L625 226 C625 247 637 257 650 257 C663 257 675 247 675 226 L675 102 C671 64 655 28 627 -8 L627 -100 L647 -100 L647 -15 C674 22 691 61 695 101 L695 226 C695 256 670 277 650 277 C642 277 632 273 624 267 L624 273 C624 305 602 325 580 325 C571 325 561 322 554 316 C548 340 526 355 508 355 C499 355 488 351 479 343 L479 377 C518 394 548 436 548 483 C548 545 495 598 433 598 C371 598 318 545 318 483 C318 439 344 399 381 380 L381 253 C350 253 322 241 317 197 L307 112 C301 62 337 16 384 -18 L384 -100 L404 -100 L404 -8 C355 26 321 65 327 109 L338 194 C342 226 357 232 377 232 L377 201 L372 143 L395 143 L401 204 L401 486 Z M477 486 C477 512 455 534 429 534 C403 534 381 512 381 486 L381 403 C354 420 338 448 338 483 C338 535 381 578 433 578 C485 578 528 535 528 483 C528 445 509 415 478 399 L477 486 Z " />
<glyph glyph-name="N" unicode="N" horiz-adv-x="1000" d="M650 247 C642 247 632 243 624 237 L624 243 C624 275 602 295 580 295 C571 295 561 292 554 286 C548 310 526 325 508 325 C499 325 488 321 479 313 L478 354 L528 354 L528 600 L331 600 L331 354 L381 354 L381 223 C350 223 322 212 317 167 L307 82 C301 32 337 -14 384 -48 L384 -100 L404 -100 L404 -38 C355 -4 321 35 327 79 L338 164 C342 196 357 202 377 202 L377 170 L372 113 L395 113 L401 174 L401 456 C401 471 414 484 429 484 C444 484 457 471 457 456 L460 237 L480 236 L480 273 C481 295 495 305 508 305 C522 305 535 295 535 273 L535 225 L555 216 L555 243 C555 264 567 275 580 275 C592 275 604 264 604 243 L604 196 L625 187 L625 196 C625 217 637 227 650 227 C663 227 675 217 675 196 L675 72 C671 34 655 -2 627 -38 L627 -100 L647 -100 L647 -45 C674 -8 691 31 695 71 L695 196 C695 226 670 247 650 247 L650 247 Z M429 504 C403 504 381 482 381 456 L381 374 L351 374 L351 580 L508 580 L508 374 L478 374 L477 456 C477 482 455 504 429 504 L429 504 Z M389 526 L466 526 L466 547 L389 547 L389 526 Z " />
<glyph glyph-name="O" unicode="O" horiz-adv-x="1000" d="M829 147 L823 167 L722 139 L609 205 L638 255 L609 305 L723 371 L823 343 L829 363 L732 389 L759 485 L739 491 L711 388 L598 323 L569 373 L511 373 L511 504 L586 579 L572 593 L501 522 L430 593 L416 579 L491 504 L491 373 L433 373 L404 324 L290 391 L263 491 L243 485 L270 389 L172 363 L178 343 L282 372 L394 306 L364 255 L393 205 L280 139 L178 167 L172 147 L270 121 L243 25 L263 19 L290 121 L404 187 L433 137 L491 137 L491 6 L416 -69 L430 -83 L501 -12 L572 -83 L586 -69 L511 6 L511 137 L569 137 L598 187 L712 121 L739 19 L759 25 L732 121 L829 147 Z M422 314 L445 353 L491 353 L491 273 L422 314 Z M511 353 L557 353 L581 312 L511 272 L511 353 Z M411 215 L388 255 L412 296 L481 255 L411 215 Z M591 295 L614 255 L591 215 L522 255 L591 295 Z M581 197 L557 157 L511 157 L511 238 L581 197 Z M491 157 L445 157 L422 197 L491 237 L491 157 Z " />
<glyph glyph-name="P" unicode="P" horiz-adv-x="1000" d="M312 233 L332 233 C332 325 408 401 500 401 C593 401 668 325 668 233 L688 233 L688 243 L766 243 L766 263 L686 263 C680 299 663 332 639 358 L705 424 L691 438 L625 372 C594 400 554 418 510 421 L510 510 L490 510 L490 421 C447 418 407 400 375 373 L310 439 L296 425 L361 359 C337 332 321 299 315 263 L222 263 L222 243 L312 243 L312 233 Z M850 181 L150 181 L150 161 L850 161 L850 181 Z M150 118 L150 98 L850 98 L850 118 L150 118 Z M150 56 L150 36 L850 36 L850 56 L150 56 Z M150 -7 L150 -27 L850 -27 L850 -7 L150 -7 Z " />
<glyph glyph-name="Q" unicode="Q" horiz-adv-x="1000" d="M793 425 C796 457 788 489 764 512 C739 536 704 545 667 536 C640 573 601 595 560 595 C514 595 478 579 453 547 C445 549 436 550 428 550 C403 550 379 543 360 524 C343 507 327 475 330 433 C295 442 261 432 236 409 C213 388 204 356 207 321 C173 312 150 282 150 244 C150 199 184 164 230 164 L647 164 C693 164 727 199 727 244 C727 252 726 260 724 268 L770 268 C816 268 850 303 850 348 C850 386 827 416 793 425 L793 425 Z M770 288 L715 288 C705 304 689 316 670 321 C673 357 663 387 641 408 C616 432 581 441 544 432 C517 469 478 491 437 491 C405 491 375 478 350 455 C352 478 362 498 373 509 C387 523 406 530 428 530 C438 530 449 528 461 523 C487 565 524 575 560 575 C595 575 633 555 659 513 C695 526 728 520 750 498 C769 479 779 447 770 408 C810 408 830 378 830 348 C830 318 809 288 770 288 L770 288 Z M647 184 L230 184 C191 184 170 214 170 244 C170 274 189 304 230 304 C221 343 230 375 250 395 C271 416 303 423 338 409 C364 451 401 471 437 471 C472 471 510 451 536 409 C572 422 604 415 627 394 C647 375 656 343 647 304 C687 304 707 274 707 244 C707 214 686 184 647 184 L647 184 Z M198 153 L198 131 L218 131 L218 153 L198 153 Z M761 153 L761 131 L781 131 L781 153 L761 153 Z M311 141 L311 118 L331 118 L331 141 L311 141 Z M648 141 L648 118 L668 118 L668 141 L648 141 Z M423 128 L423 106 L443 106 L443 128 L423 128 Z M536 128 L536 106 L556 106 L556 128 L536 128 Z M255 52 L255 30 L275 30 L275 52 L255 52 Z M817 52 L817 30 L837 30 L837 52 L817 52 Z M367 40 L367 17 L387 17 L387 40 L367 40 Z M704 40 L704 17 L724 17 L724 40 L704 40 Z M479 27 L479 5 L499 5 L499 27 L479 27 Z M592 27 L592 5 L612 5 L612 27 L592 27 Z M311 -55 L311 -78 L331 -78 L331 -55 L311 -55 Z M761 -55 L761 -78 L781 -78 L781 -55 L761 -55 Z M423 -68 L423 -90 L443 -90 L443 -68 L423 -68 Z M648 -68 L648 -90 L668 -90 L668 -68 L648 -68 Z M536 -80 L536 -103 L556 -103 L556 -80 L536 -80 Z " />
<glyph glyph-name="R" unicode="R" horiz-adv-x="1000" d="M796 267 L796 287 L713 287 C711 326 696 363 673 393 L737 457 L723 471 L661 409 C626 447 578 472 525 475 L525 558 L505 558 L505 475 C458 472 414 452 381 421 L322 480 L308 466 L367 407 C338 374 319 332 316 287 L233 287 L233 267 L316 267 C317 243 323 219 333 199 C316 195 301 186 289 174 C267 153 257 121 260 86 C226 77 203 47 203 9 C203 -36 237 -71 283 -71 L700 -71 C746 -71 780 -36 780 9 C780 47 757 77 723 86 C726 122 716 152 694 173 C692 175 690 177 687 179 C701 205 711 235 713 267 L796 267 Z M670 190 C649 201 623 203 597 197 C570 234 531 256 490 256 C449 256 411 235 383 198 C373 201 363 202 354 201 C342 224 336 250 336 277 C336 375 416 455 515 455 C613 455 693 375 693 277 C693 245 685 216 670 190 L670 190 Z M700 69 C740 69 760 39 760 9 C760 -21 739 -51 700 -51 L283 -51 C244 -51 223 -21 223 9 C223 39 242 69 283 69 C274 108 283 140 303 160 C324 181 356 188 391 174 C417 216 454 236 490 236 C525 236 563 216 589 174 C625 187 657 180 680 159 C700 140 709 108 700 69 L700 69 Z " />
<glyph glyph-name="S" unicode="S" horiz-adv-x="1000" d="M772 523 L772 570 L827 570 L827 590 L630 590 L630 570 L752 570 L752 503 L849 503 L849 523 L772 523 Z M792 413 C792 401 782 391 770 391 L693 391 C681 391 671 401 671 413 L671 428 L617 428 C609 428 583 428 571 409 L490 409 C500 463 546 503 610 503 L705 503 L705 523 L610 523 C529 523 470 464 468 389 L585 389 C586 408 607 408 617 408 L651 408 C651 389 669 371 693 371 L770 371 C794 371 812 389 812 408 L849 408 L849 428 L792 428 L792 413 Z M597 227 C597 265 544 325 538 371 C525 324 476 265 476 227 C476 195 505 166 537 166 C569 166 597 195 597 227 L597 227 Z M496 227 C496 248 518 282 536 318 C553 281 577 248 577 227 C577 205 559 186 537 186 C515 186 496 205 496 227 L496 227 Z M699 77 C685 98 665 112 643 112 C630 112 616 107 603 95 L550 47 L470 25 C453 26 385 56 374 68 L381 89 L435 78 C481 69 511 91 517 143 L338 177 L192 105 L198 82 L342 157 L494 127 C486 100 469 93 439 98 L367 111 L354 70 L354 64 C361 42 454 3 473 5 L560 29 L617 81 C626 89 635 93 644 93 C654 93 664 87 673 78 L582 -13 L497 -71 C489 -77 480 -80 468 -80 C457 -80 444 -77 426 -73 L226 -27 L232 -48 L421 -93 C438 -97 453 -100 466 -100 C483 -100 497 -96 509 -87 L551 -58 L678 -13 C698 -6 708 15 705 36 L699 77 Z M671 6 L605 -17 L681 59 L685 33 C687 18 677 8 671 6 L671 6 Z " />
<glyph glyph-name="T" unicode="T" horiz-adv-x="1000" d="M826 228 C801 218 776 213 751 213 C644 213 558 300 558 404 C558 466 589 528 645 566 C608 568 571 559 536 540 C463 501 420 425 420 345 C420 318 425 289 436 262 C405 255 377 236 355 207 C320 216 286 207 261 183 C239 162 229 130 232 95 C198 86 175 56 175 18 C175 -27 209 -62 255 -62 L672 -62 C718 -62 752 -27 752 18 C752 56 729 86 695 95 C696 108 695 120 693 131 C709 135 723 141 742 151 C778 170 805 196 826 228 L826 228 Z M687 151 C682 163 675 173 666 182 C641 206 606 215 569 206 C542 243 503 265 462 265 L456 265 C445 291 440 318 440 345 C440 417 479 486 546 522 C559 529 572 535 586 539 C555 500 538 451 538 403 C538 287 634 193 751 193 C757 193 764 193 770 194 C759 184 747 176 733 169 C717 161 703 155 687 151 L687 151 Z M732 18 C732 -12 711 -42 672 -42 L255 -42 C216 -42 195 -12 195 18 C195 48 214 78 255 78 C246 117 255 149 275 169 C296 190 328 197 363 183 C389 225 426 245 462 245 C497 245 535 225 561 183 C597 196 630 190 652 168 C671 149 681 117 672 78 C712 78 732 48 732 18 L732 18 Z " />
<glyph glyph-name="U" unicode="U" horiz-adv-x="1000" d="M702 248 L800 248 L800 268 L702 268 C699 317 679 362 646 396 L721 472 L707 486 L632 410 C599 440 556 458 510 461 L510 558 L490 558 L490 461 C442 458 399 439 365 409 L294 480 L280 466 L351 395 C320 361 300 316 297 268 L199 268 L199 248 L297 248 C300 199 320 154 353 120 L278 44 L292 30 L367 106 C400 76 443 58 490 55 L490 -42 L510 -42 L510 55 C557 58 600 77 634 107 L705 36 L719 50 L648 121 C679 155 699 200 702 248 L702 248 Z M500 75 C399 75 317 158 317 258 C317 358 399 441 500 441 C600 441 682 358 682 258 C682 158 600 75 500 75 L500 75 Z " />
<glyph glyph-name="V" unicode="V" horiz-adv-x="1000" d="M539 373 L482 340 L655 280 L689 460 L632 427 L572 533 L448 533 L341 348 L435 295 L509 425 L539 373 Z M498 446 L427 323 L369 356 L459 513 L498 446 Z M567 365 L483 513 L561 513 L624 399 L661 420 L639 306 L530 344 L567 365 Z M315 90 L345 141 L402 108 L368 288 L195 228 L252 195 L174 61 L252 -18 L435 -18 L435 90 L315 90 Z M827 90 L721 273 L628 220 L702 90 L643 90 L643 156 L505 36 L643 -83 L643 -17 L720 -18 L827 90 Z M337 169 L248 15 L199 64 L280 203 L243 224 L352 262 L374 148 L337 169 Z M803 90 L726 90 L656 212 L713 245 L803 90 Z M779 70 L712 2 L623 3 L623 -39 L535 36 L623 112 L623 70 L779 70 Z M303 70 L415 70 L415 2 L264 2 L303 70 Z " />
<glyph glyph-name="W" unicode="W" horiz-adv-x="1000" d="M770 273 C816 273 850 308 850 353 C850 391 827 421 793 430 C796 462 788 494 764 517 C739 541 704 550 667 541 C640 578 601 600 560 600 C514 600 478 584 453 552 C445 554 436 555 428 555 C403 555 379 548 360 529 C343 512 327 480 330 438 C295 447 261 437 236 414 C214 393 204 361 207 326 C173 317 150 287 150 249 C150 204 184 169 230 169 L347 169 L347 189 L230 189 C191 189 170 219 170 249 C170 279 189 309 230 309 C221 348 230 380 250 400 C271 421 303 428 338 414 C364 456 401 476 437 476 C472 476 510 456 536 414 C572 427 605 421 627 399 C647 380 656 348 647 309 C687 309 707 279 707 249 C707 219 686 189 647 189 L647 169 C693 169 727 204 727 249 C727 257 726 265 724 273 L770 273 Z M670 326 C673 362 663 392 641 413 C616 437 581 446 544 437 C517 474 478 496 437 496 C405 496 375 483 350 460 C352 483 362 503 373 514 C387 528 406 535 428 535 C438 535 449 533 461 528 C487 570 524 580 560 580 C595 580 633 560 659 518 C695 531 728 525 750 503 C769 484 779 452 770 413 C810 413 830 383 830 353 C830 323 809 293 770 293 L715 293 C705 309 689 321 670 326 L670 326 Z M608 263 L461 263 L378 53 L490 53 L433 -85 L474 -105 L660 148 L543 148 L608 263 Z M620 128 L468 -79 L459 -75 L520 73 L408 73 L475 243 L574 243 L509 128 L620 128 Z M754 154 L774 154 L774 177 L754 177 L754 154 Z M169 75 L189 75 L189 98 L169 98 L169 75 Z M287 75 L307 75 L307 98 L287 98 L287 75 Z M700 75 L720 75 L720 98 L700 98 L700 75 Z M812 75 L832 75 L832 98 L812 98 L812 75 Z M227 -4 L247 -4 L247 18 L227 18 L227 -4 Z M341 -4 L361 -4 L361 18 L341 18 L341 -4 Z M640 -4 L660 -4 L660 18 L640 18 L640 -4 Z M754 -4 L774 -4 L774 18 L754 18 L754 -4 Z M287 -90 L307 -90 L307 -68 L287 -68 L287 -90 Z M700 -90 L720 -90 L720 -68 L700 -68 L700 -90 Z M590 -92 L610 -92 L610 -69 L590 -69 L590 -92 Z " />
<glyph glyph-name="X" unicode="X" horiz-adv-x="1000" d="M756 39 L750 80 C736 101 716 115 695 115 C682 115 669 110 657 100 C648 179 606 304 518 311 L521 362 L570 380 C583 358 600 349 618 349 C676 350 748 436 753 468 C739 480 694 492 650 492 C597 492 547 474 557 418 L576 425 C574 461 610 473 650 473 C678 473 708 467 727 459 C710 425 660 371 622 371 C610 371 599 375 591 387 L626 400 L618 419 L524 384 C528 410 533 430 540 442 L522 452 C519 447 516 440 514 432 L417 489 L406 471 L439 452 C431 444 422 441 413 441 C372 441 328 508 317 547 C328 549 341 551 356 551 C407 551 471 534 460 487 L477 477 C504 548 414 571 349 571 C324 571 303 567 293 561 C291 527 356 419 416 419 C431 419 445 426 458 441 L508 412 C503 384 499 347 498 310 C442 302 407 239 388 179 L243 108 L249 85 L393 160 L545 130 C537 103 520 96 490 101 L418 114 L405 73 L405 67 C412 45 505 6 524 8 L611 32 L668 84 C687 101 707 99 724 81 L633 -10 L548 -68 C540 -74 531 -77 519 -77 C508 -77 495 -74 477 -70 L277 -24 L283 -45 L472 -90 C489 -94 504 -97 517 -97 C534 -97 548 -93 560 -84 L602 -55 L729 -10 C749 -3 759 18 756 39 L756 39 Z M601 50 L521 28 C504 29 436 59 425 71 L432 92 L486 81 C532 72 562 94 568 146 L409 176 C425 231 454 281 498 290 C498 273 499 256 500 240 L520 242 C519 258 518 274 518 291 C593 283 634 153 638 83 L601 50 Z M722 9 L656 -14 L732 62 L736 36 C738 21 728 11 722 9 L722 9 Z " />
<glyph glyph-name="Y" unicode="Y" horiz-adv-x="1000" d="M540 559 L553 559 L562 481 L640 472 L640 461 L562 452 L553 374 L540 374 L532 452 L453 461 L453 472 L532 481 L540 559 Z M730 401 L742 401 L751 322 L830 313 L830 303 L751 294 L742 215 L730 215 L721 294 L642 303 L642 313 L721 322 L730 401 Z M564 196 C537 233 498 255 457 255 C416 255 378 234 350 197 C315 206 281 197 256 173 C234 152 224 120 227 85 C193 76 170 46 170 8 C170 -37 204 -72 250 -72 L667 -72 C713 -72 747 -37 747 8 C747 46 724 76 690 85 C693 121 683 151 661 172 C636 196 601 205 564 196 L564 196 Z M556 173 C592 186 625 180 647 158 C667 138 676 107 667 68 C707 68 727 38 727 8 C727 -22 706 -52 667 -52 L250 -52 C211 -52 190 -22 190 8 C190 38 209 68 250 68 C241 107 250 139 270 159 C291 180 323 187 358 173 C384 215 421 235 457 235 C492 235 530 215 556 173 L556 173 Z " />
<glyph glyph-name="Z" unicode="Z" horiz-adv-x="1000" d="M756 38 L750 79 C736 100 717 114 696 114 C690 114 685 114 679 112 C660 158 623 199 579 212 L579 268 L600 295 L626 369 C652 369 683 389 683 416 C683 437 666 461 642 474 C644 483 645 491 645 500 C645 556 612 610 541 610 C474 610 438 555 438 500 C438 492 439 484 441 476 C412 462 400 435 400 409 C400 379 420 352 454 351 C463 351 471 353 484 358 L519 289 L518 212 C489 206 465 190 446 168 L389 179 L243 107 L249 84 L393 159 L545 129 C537 102 520 94 490 100 L418 113 L405 72 L405 66 C412 44 505 5 524 7 L611 31 L668 83 C687 100 707 98 724 80 L633 -11 L548 -69 C540 -75 531 -78 519 -78 C508 -78 495 -75 477 -71 L277 -25 L283 -46 L472 -91 C489 -95 504 -98 517 -98 C534 -98 548 -94 560 -85 L602 -56 L729 -11 C749 -4 759 17 756 38 L756 38 Z M496 400 C492 385 479 371 458 371 C434 371 420 390 420 411 C420 433 434 457 466 463 C461 475 458 487 458 500 C458 546 487 590 541 590 C598 590 625 549 625 503 C625 489 623 475 618 462 C645 455 663 432 663 416 C663 402 643 388 619 388 C598 388 567 399 555 421 C546 407 527 399 496 400 L496 400 Z M501 370 C504 373 507 377 509 380 C517 380 524 382 531 384 L551 309 L571 329 L578 378 L588 374 C594 372 600 370 605 369 L582 303 L559 274 L559 216 L538 216 L539 293 L501 370 Z M601 49 L521 27 C504 28 436 58 425 70 L432 91 L486 80 C532 71 562 93 568 145 L470 164 C490 185 517 196 550 196 C596 196 639 158 662 104 L601 49 Z M722 8 L656 -15 L732 61 L736 35 C738 20 728 10 722 8 L722 8 Z " />
<glyph glyph-name="bracketleft" unicode="&#x5b;" horiz-adv-x="1000" d="M273 237 C282 243 287 253 287 264 C287 277 280 288 269 294 L381 508 L409 513 L538 382 L532 376 C519 363 511 340 511 319 C511 307 513 295 518 285 L581 163 L781 348 L657 422 C647 428 634 431 621 431 C601 431 580 424 567 411 L552 396 L421 527 C423 531 424 536 424 541 C424 560 409 575 390 575 C371 575 356 560 356 541 C356 532 359 524 364 518 L248 298 C231 295 219 281 219 264 C219 245 234 230 253 230 L477 -62 L321 -75 L321 -100 L636 -100 L636 -75 L504 -64 L273 237 Z M581 397 C591 407 605 412 619 412 C629 412 639 410 647 405 L747 344 L587 195 L536 295 C532 303 530 312 530 322 C530 337 536 352 546 362 L581 397 Z " />
<glyph glyph-name="backslash" unicode="&#x5c;" horiz-adv-x="1000" d="M728 249 L676 545 C673 559 656 574 640 574 L361 574 C345 574 328 559 325 545 L272 249 C269 232 284 216 300 216 L700 216 C716 216 731 232 728 249 L728 249 Z M700 236 L300 236 C295 236 291 240 292 245 L345 541 C346 548 353 554 361 554 L640 554 C648 554 655 548 656 541 L708 245 C709 240 705 236 700 236 L700 236 Z M510 -64 L510 75 C528 79 540 95 540 115 L540 187 L460 187 L460 115 C460 95 472 79 490 75 L490 -64 L342 -75 L342 -100 L658 -100 L658 -75 L510 -64 Z " />
<glyph glyph-name="bracketright" unicode="&#x5d;" horiz-adv-x="1000" d="M767 -56 L743 -56 L743 116 C743 240 648 344 527 357 L579 409 C592 422 598 439 598 456 C598 490 572 522 532 522 C515 522 498 515 486 503 L395 413 C381 419 366 422 351 422 C335 422 319 418 304 411 L213 367 L444 137 L485 230 C492 245 496 263 496 280 C496 294 493 306 488 318 L509 339 C628 334 723 236 723 116 L723 -55 L650 -55 L533 -68 L533 -95 L767 -95 L767 -56 Z M479 337 L413 403 L500 489 C509 497 521 502 532 502 C559 502 578 482 578 456 C578 443 574 432 565 423 L479 337 Z M467 239 L438 171 L247 361 L313 393 C325 399 338 402 351 402 C372 402 393 395 407 381 L457 331 C469 319 475 300 475 281 C475 267 472 251 467 239 L467 239 Z " />
<glyph glyph-name="asciicircum" unicode="&#x5e;" horiz-adv-x="1000" d="M503 288 L443 276 L385 549 L293 504 L272 600 L150 600 L231 358 L324 403 L373 259 L313 242 L435 163 L503 288 Z M465 260 L427 191 L361 234 L399 245 L336 431 L243 386 L178 580 L256 580 L279 474 L371 519 L427 252 L465 260 Z M850 218 L850 267 C850 283 842 299 827 316 C817 328 807 336 796 336 C788 336 777 332 769 326 L701 278 C695 280 688 281 682 281 C599 280 546 204 546 107 C546 85 548 63 551 45 L442 -25 L462 -82 L579 -37 C596 -31 616 -18 621 -4 L637 39 L677 -2 L677 -119 L744 -119 L756 22 C757 37 753 48 743 57 L673 126 L677 149 L701 178 L731 158 C737 154 751 151 760 153 L850 171 L850 191 L757 173 C751 172 745 173 742 175 L697 204 L658 158 L651 119 L728 43 C733 37 737 32 736 23 L725 -99 L697 -99 L697 6 L629 76 L603 4 C600 -4 588 -12 573 -18 L474 -56 L466 -33 L573 35 C568 54 565 81 565 108 C565 190 609 259 682 261 C696 261 708 256 721 245 C736 233 744 218 752 202 L850 218 Z M779 309 C786 314 792 316 796 316 C801 316 804 314 810 305 C828 277 833 267 826 248 C811 231 779 223 761 227 L729 275 L779 309 Z " />
<glyph glyph-name="underscore" unicode="&#x5f;" horiz-adv-x="1000" d="M365 280 L365 194 C365 170 383 141 403 129 L469 91 C478 86 491 83 504 83 C518 83 533 86 543 93 L598 128 C618 141 635 170 635 194 L635 284 L673 318 L673 411 C673 510 594 593 500 593 C406 593 327 510 327 411 L327 319 L365 280 Z M347 327 L347 411 C347 500 416 573 500 573 C584 573 653 500 653 411 L653 328 L581 266 L595 250 L615 267 L615 194 C615 176 603 155 588 145 L533 109 C525 104 515 102 505 102 C496 102 487 104 479 109 L413 147 C398 156 385 176 385 194 L385 259 L405 238 L419 252 L347 327 Z M467 354 C467 378 447 398 423 398 C398 398 378 378 378 354 C378 329 398 309 423 309 C447 309 467 329 467 354 L467 354 Z M574 309 C599 309 619 329 619 354 C619 378 599 398 574 398 C550 398 530 378 530 354 C530 329 550 309 574 309 L574 309 Z M500 262 C511 262 521 271 521 283 C521 294 511 303 500 303 C489 303 479 294 479 283 C479 271 489 262 500 262 L500 262 Z M565 225 L565 194 L535 194 L535 225 L515 225 L515 194 L485 194 L485 225 L465 225 L465 194 L435 194 L435 225 L415 225 L415 174 L585 174 L585 225 L565 225 Z M767 -54 C779 -54 790 -65 790 -77 C790 -89 779 -100 767 -100 C757 -100 748 -93 745 -84 L501 8 L255 -84 C252 -93 243 -100 233 -100 C221 -100 210 -89 210 -77 C210 -65 221 -54 233 -54 C240 -54 247 -58 251 -64 L472 19 L247 104 C243 101 238 99 233 99 C221 99 210 110 210 122 C210 134 221 145 233 145 C245 145 256 134 256 122 L749 -63 C753 -58 760 -54 767 -54 L767 -54 Z M560 31 L531 41 L744 121 C744 134 755 145 767 145 C779 145 790 134 790 122 C790 110 779 99 767 99 C762 99 758 101 754 103 L560 31 Z " />
<glyph glyph-name="a" unicode="a" horiz-adv-x="1000" d="M395 600 L272 600 C254 600 237 585 237 566 L237 520 C237 502 254 486 272 486 L395 486 C412 486 430 502 430 520 L430 541 L368 541 L367 520 L410 520 C410 511 403 505 395 505 L272 505 C262 505 257 510 257 520 L257 566 C257 575 262 580 272 580 L395 580 C405 580 410 575 411 566 L430 566 C430 585 413 600 395 600 L395 600 Z M728 600 L605 600 C587 600 570 582 570 565 L590 564 C590 574 596 580 605 580 L728 580 C736 580 744 574 744 565 L744 519 C744 511 736 504 728 504 L605 504 C596 504 590 510 589 519 L632 519 L632 539 L570 539 L570 519 C570 502 587 484 605 484 L728 484 C745 484 763 502 763 519 L763 565 C763 582 745 600 728 600 L728 600 Z M539 552 L501 591 L461 551 L500 513 L539 552 Z M526 440 L540 426 C530 416 515 410 500 410 C485 410 470 416 460 426 L474 440 C481 433 491 430 500 430 C509 430 519 433 526 440 L526 440 Z M554 412 L568 398 C552 381 524 370 500 370 C476 370 448 381 432 398 L446 412 C459 399 481 390 500 390 C519 390 541 399 554 412 L554 412 Z M583 383 L597 369 C574 347 533 330 500 330 C467 330 426 347 403 369 L417 383 C437 364 471 350 500 350 C529 350 563 364 583 383 L583 383 Z M500 283 C396 283 308 196 308 92 C308 -13 396 -100 500 -100 C604 -100 691 -13 691 92 C691 196 604 283 500 283 L500 283 Z M568 164 L432 164 C445 203 469 237 500 263 C531 237 555 203 568 164 L568 164 Z M474 261 C446 234 425 201 412 164 L344 164 C368 215 417 252 474 261 L474 261 Z M655 164 L588 164 C575 201 554 234 526 261 C583 252 631 215 655 164 L655 164 Z M336 144 L406 144 C402 127 400 110 400 92 C400 71 403 50 409 30 L340 30 C332 49 328 70 328 92 C328 110 331 128 336 144 L336 144 Z M580 92 C580 71 577 50 571 30 L429 30 C423 50 420 71 420 92 C420 110 422 127 426 144 L574 144 C578 127 580 110 580 92 L580 92 Z M660 30 L591 30 C597 50 600 71 600 92 C600 110 598 127 594 144 L663 144 C668 128 671 110 671 92 C671 70 667 49 660 30 L660 30 Z M349 10 L416 10 C429 -23 449 -53 474 -78 C421 -70 374 -36 349 10 L349 10 Z M500 -80 C471 -56 449 -25 436 10 L564 10 C551 -25 529 -56 500 -80 L500 -80 Z M526 -78 C551 -53 571 -23 584 10 L650 10 C625 -36 579 -70 526 -78 L526 -78 Z " />
<glyph glyph-name="b" unicode="b" horiz-adv-x="1000" d="M820 410 L758 410 L758 467 L613 467 L613 410 L386 410 L386 467 L242 467 L242 410 L180 410 L180 45 L820 45 L820 410 Z M800 390 L800 65 L200 65 L200 390 L262 390 L262 447 L366 447 L366 390 L633 390 L633 447 L738 447 L738 390 L800 390 Z M692 279 L692 323 L672 323 L672 279 L628 279 L628 259 L672 259 L672 214 L692 214 L692 259 L737 259 L737 279 L692 279 Z M258 267 L258 247 L375 247 L375 267 L258 267 Z " />
<glyph glyph-name="c" unicode="c" horiz-adv-x="1000" d="M694 523 L645 474 L645 446 L714 515 L714 559 L625 559 L625 562 C625 579 608 597 590 597 L409 597 C392 597 374 579 374 562 L374 559 L285 559 L285 515 L354 446 L354 474 L305 523 L305 539 L374 539 L374 384 L285 384 L285 340 L354 271 L354 299 L305 348 L305 364 L374 364 L374 209 L285 209 L285 165 L354 96 L354 124 L305 173 L305 189 L374 189 L374 60 C374 42 392 25 409 25 L490 25 L490 -101 L510 -101 L510 25 L590 25 C608 25 625 42 625 60 L625 189 L694 189 L694 173 L645 124 L645 96 L714 165 L714 209 L625 209 L625 364 L694 364 L694 348 L645 299 L645 271 L714 340 L714 384 L625 384 L625 539 L694 539 L694 523 Z M605 562 L605 60 C605 51 599 45 590 45 L409 45 C400 45 394 51 394 60 L394 562 C394 570 401 577 409 577 L590 577 C599 577 605 571 605 562 L605 562 Z M500 433 C531 433 556 458 556 490 C556 521 531 546 500 546 C468 546 443 521 443 490 C443 458 468 433 500 433 L500 433 Z M500 258 C531 258 556 283 556 315 C556 346 531 371 500 371 C468 371 443 346 443 315 C443 283 468 258 500 258 L500 258 Z M500 200 C468 200 440 171 440 140 C440 108 468 80 500 80 C531 80 560 108 560 140 C560 171 531 200 500 200 L500 200 Z M500 100 C478 100 460 118 460 140 C460 161 478 180 500 180 C521 180 540 161 540 140 C540 118 521 100 500 100 L500 100 Z " />
<glyph glyph-name="d" unicode="d" horiz-adv-x="1000" d="M373 600 L373 580 L632 580 L632 -98 L652 -98 L652 5 L775 -99 L815 -99 L815 600 L373 600 Z M795 470 L664 580 L795 580 L795 470 Z M652 564 L780 457 L652 457 L652 564 Z M469 310 L469 430 C469 504 432 560 381 560 C330 560 293 504 293 430 L293 310 L204 181 C193 166 186 144 186 124 L186 19 L576 19 L576 124 C576 144 569 166 558 181 L469 310 Z M220 170 L283 260 L293 130 L313 130 L313 430 C313 497 345 540 381 540 C417 540 449 497 449 430 L449 130 L469 130 L479 261 L542 170 C551 157 556 140 556 124 L556 89 L206 89 L206 124 C206 140 211 157 220 170 L220 170 Z M652 437 L779 437 L652 330 L652 437 Z M795 318 L668 318 L795 425 L795 318 Z M411 300 C421 300 429 312 429 328 C429 343 421 355 411 355 C401 355 393 343 393 328 C393 312 401 300 411 300 L411 300 Z M795 191 L667 298 L795 298 L795 191 Z M652 285 L780 178 L652 178 L652 285 Z M411 190 C421 190 429 202 429 218 C429 233 421 245 411 245 C401 245 393 233 393 218 C393 202 401 190 411 190 L411 190 Z M652 158 L779 158 L652 51 L652 158 Z M795 38 L667 38 L795 146 L795 38 Z M206 39 L206 69 L556 69 L556 39 L206 39 Z M795 -90 L667 18 L795 18 L795 -90 Z M247 -1 C210 -1 176 -57 189 -100 L305 -100 C318 -57 284 -1 247 -1 L247 -1 Z M380 -1 C343 -1 309 -57 322 -100 L438 -100 C451 -57 417 -1 380 -1 L380 -1 Z M515 -1 C478 -1 444 -57 457 -100 L573 -100 C586 -57 552 -1 515 -1 L515 -1 Z M206 -80 C206 -58 224 -21 247 -21 C270 -21 288 -58 288 -80 L206 -80 Z M339 -80 C339 -58 357 -21 380 -21 C403 -21 421 -58 421 -80 L339 -80 Z M474 -80 C474 -58 492 -21 515 -21 C538 -21 556 -58 556 -80 L474 -80 Z " />
<glyph glyph-name="e" unicode="e" horiz-adv-x="1000" d="M500 598 C310 598 153 441 153 251 C153 60 310 -97 500 -97 C691 -97 848 60 848 251 C848 441 691 598 500 598 L500 598 Z M500 -77 C320 -77 173 70 173 251 C173 431 320 578 500 578 C510 578 519 578 528 577 C523 537 486 492 464 492 C421 492 423 442 430 429 C439 416 450 414 465 412 L536 403 L566 424 L560 466 L606 509 C614 517 630 510 617 488 C600 457 592 429 611 418 C626 409 651 418 661 434 C667 445 684 436 675 421 L632 344 L540 316 L514 400 L479 373 L470 333 L449 327 C417 316 388 288 358 256 L320 242 L297 206 C333 204 363 185 363 172 L363 152 L281 151 C289 143 265 139 267 94 C267 77 286 43 302 23 L352 23 C382 23 401 45 413 85 C416 98 415 111 442 118 C471 125 459 134 468 137 L497 79 L497 33 C473 -18 476 -41 507 -63 L552 -26 L560 22 L593 -6 L614 16 L551 149 L541 179 L552 185 C559 190 574 189 579 184 C602 166 614 148 610 120 L607 89 C610 64 622 46 640 32 C657 18 679 4 716 35 L695 102 L722 126 L730 192 C739 191 758 189 775 198 C787 205 787 234 791 263 C793 275 806 287 826 291 C827 278 828 264 828 251 C828 70 681 -77 500 -77 L500 -77 Z M823 311 C796 305 774 287 771 265 C767 236 765 216 765 216 C752 208 727 215 716 209 L711 201 L704 136 L671 108 L692 43 C674 31 666 36 652 48 C638 60 630 70 627 89 L630 118 C634 154 616 180 592 200 C582 209 554 210 542 203 L517 189 L533 141 L591 22 L546 60 L534 -16 L509 -36 C500 -28 496 -11 517 30 L517 84 L480 157 C444 159 446 140 438 138 C395 127 396 100 393 91 C384 57 370 43 352 43 L312 43 C299 62 287 84 287 94 C286 119 287 110 297 131 L383 132 L383 172 C383 193 359 212 330 220 L334 226 L370 238 C400 272 427 298 455 308 L488 317 L497 361 L504 366 L526 292 L646 328 L693 411 C716 452 665 477 644 444 C639 436 626 432 621 435 C618 438 619 451 635 478 C660 524 613 543 592 523 L538 474 L544 434 L530 423 L467 432 C452 434 451 434 447 440 C442 448 440 472 464 472 C497 472 542 526 548 574 C687 554 797 447 823 311 L823 311 Z M362 332 L350 467 L306 468 L276 444 L270 354 L230 290 L245 265 L313 274 C347 279 365 300 362 332 L362 332 Z M311 294 L255 287 L254 290 L290 348 L296 434 L312 448 L332 447 L342 330 C344 308 335 297 311 294 L311 294 Z " />
<glyph glyph-name="f" unicode="f" horiz-adv-x="1000" d="M693 327 L798 432 C830 464 845 504 845 533 C845 558 835 576 803 576 C774 576 734 561 701 528 L597 423 L237 542 L164 496 L464 292 L314 141 L155 136 L162 77 L287 18 L346 -108 L406 -115 L410 44 L562 195 L765 -105 L812 -32 L693 327 Z M671 333 L790 -30 L765 -69 L564 227 L390 52 L386 -93 L360 -90 L303 32 L180 91 L177 116 L322 121 L496 294 L200 496 L239 520 L581 408 L536 367 L550 353 L607 405 L715 514 C746 545 781 557 802 557 C820 557 826 550 826 532 C826 510 814 476 784 446 L671 333 Z " />
<glyph glyph-name="g" unicode="g" horiz-adv-x="1000" d="M659 239 L679 239 L679 322 L637 322 L637 382 L552 382 L552 430 L594 430 L594 500 L405 500 L405 430 L447 430 L447 382 L363 382 L363 322 L320 322 L320 239 L340 239 L340 302 L383 302 L383 362 L467 362 L467 450 L425 450 L425 480 L574 480 L574 450 L532 450 L532 362 L617 362 L617 302 L659 302 L659 239 Z M327 14 L345 23 C330 52 312 61 303 70 C287 85 283 90 283 115 L283 156 L499 241 L716 156 L716 115 C716 90 712 82 696 69 C687 61 670 50 655 24 L673 14 C685 36 700 45 710 55 C726 71 736 70 736 115 L736 170 L499 262 L263 170 L263 115 C263 70 272 71 289 55 C300 44 315 37 327 14 L327 14 Z M800 -16 L800 4 C756 4 736 -18 700 -18 C664 -18 644 4 600 4 C556 4 536 -18 500 -18 C464 -18 444 4 400 4 C356 4 336 -18 300 -18 C264 -18 244 4 200 4 L200 -16 C236 -16 256 -38 300 -38 C344 -38 364 -16 400 -16 C436 -16 456 -38 500 -38 C544 -38 564 -16 600 -16 C636 -16 656 -38 700 -38 C744 -38 764 -16 800 -16 L800 -16 Z " />
<glyph glyph-name="h" unicode="h" horiz-adv-x="1000" d="M795 595 L205 595 L205 23 C205 4 223 -13 242 -13 L252 -13 L252 -60 C252 -79 271 -100 291 -100 L350 -100 C369 -100 390 -79 390 -60 L390 -13 L610 -13 L610 -60 C610 -79 629 -100 649 -100 L708 -100 C727 -100 748 -79 748 -60 L748 -13 L758 -13 C777 -13 795 4 795 23 L795 595 Z M775 575 L775 23 C775 15 767 7 758 7 L242 7 C233 7 225 15 225 23 L225 575 L775 575 Z M716 510 L716 530 L283 530 L283 510 L716 510 Z M732 187 L732 463 L268 463 L268 187 L732 187 Z M712 443 L712 207 L288 207 L288 443 L712 443 Z M321 41 C355 41 380 67 380 100 C380 132 355 159 321 159 C286 159 262 132 262 100 C262 67 286 41 321 41 L321 41 Z M679 159 C644 159 620 132 620 100 C620 67 644 41 679 41 C713 41 738 67 738 100 C738 132 713 159 679 159 L679 159 Z M321 139 C343 139 360 122 360 100 C360 78 343 61 321 61 C298 61 282 77 282 100 C282 122 299 139 321 139 L321 139 Z M679 61 C656 61 640 77 640 100 C640 122 657 139 679 139 C701 139 718 122 718 100 C718 78 701 61 679 61 L679 61 Z M370 -13 L370 -60 C370 -71 361 -80 350 -80 L291 -80 C280 -80 272 -71 272 -60 L272 -13 L370 -13 Z M728 -13 L728 -60 C728 -71 719 -80 708 -80 L649 -80 C638 -80 630 -71 630 -60 L630 -13 L728 -13 Z " />
<glyph glyph-name="i" unicode="i" horiz-adv-x="1000" d="M514 577 C374 577 252 489 202 365 L221 359 C268 475 382 557 514 557 C688 557 830 415 830 241 C830 67 688 -75 514 -75 C340 -75 198 67 198 241 C198 252 199 262 200 272 L255 217 C268 86 380 -19 514 -19 C621 -19 714 48 753 142 L754 144 C766 174 773 207 773 241 C773 383 656 501 514 501 C374 501 257 386 254 246 L189 311 L119 240 L133 226 L179 273 C178 263 178 252 178 241 C178 57 330 -95 514 -95 C698 -95 850 57 850 241 C850 425 698 577 514 577 L514 577 Z M469 477 C418 439 379 388 360 329 L291 329 C321 404 388 461 469 477 L469 477 Z M736 329 L668 329 C649 388 610 439 559 477 C640 461 707 404 736 329 L736 329 Z M557 329 L471 329 C478 381 493 428 514 472 C535 428 550 381 557 329 L557 329 Z M451 329 L380 329 C400 385 439 434 490 469 C472 426 458 379 451 329 L451 329 Z M648 329 L577 329 C570 379 556 426 538 469 C589 434 628 385 648 329 L648 329 Z M284 309 L354 309 C348 287 345 264 345 240 C345 213 349 187 356 162 L287 162 C279 187 274 213 274 241 C274 265 277 287 284 309 L284 309 Z M365 240 C365 264 368 287 374 309 L448 309 C445 287 444 265 444 242 C444 215 446 188 450 162 L376 162 C369 187 365 213 365 240 L365 240 Z M464 242 C464 265 465 287 468 309 L560 309 C563 287 564 265 564 242 C564 214 562 188 558 162 L470 162 C466 188 464 214 464 242 L464 242 Z M663 240 C663 213 659 187 652 162 L578 162 C582 188 584 215 584 242 C584 265 583 287 580 309 L654 309 C660 287 663 264 663 240 L663 240 Z M753 241 C753 213 748 187 740 162 L672 162 C679 187 683 213 683 240 C683 264 680 287 674 309 L743 309 C750 287 753 265 753 241 L753 241 Z M295 142 L363 142 C383 88 419 41 466 6 C390 21 327 73 295 142 L295 142 Z M383 142 L453 142 C461 94 476 49 494 9 C443 42 405 88 383 142 L383 142 Z M473 142 L555 142 C547 96 533 53 514 14 C495 53 481 96 473 142 L473 142 Z M575 142 L645 142 C623 88 585 42 534 9 C552 49 567 94 575 142 L575 142 Z M562 6 C609 41 645 88 665 142 L732 142 C700 73 638 21 562 6 L562 6 Z " />
<glyph glyph-name="j" unicode="j" horiz-adv-x="1000" d="M783 597 L217 597 L217 6 C217 -11 233 -27 249 -27 L312 -27 L351 35 L654 35 L689 -27 L750 -27 C767 -27 783 -11 783 6 L783 597 Z M237 6 L237 577 L763 577 L763 6 C763 -2 758 -7 750 -7 L701 -7 L666 55 L339 55 L300 -7 L249 -7 C242 -7 237 -2 237 6 L237 6 Z M279 232 L721 232 L721 535 L279 535 L279 232 Z M701 515 L701 252 L299 252 L299 515 L701 515 Z M388 101 C369 101 354 116 354 134 C354 153 369 168 388 168 C406 168 421 153 421 134 C421 116 406 101 388 101 L388 101 Z M613 101 C595 101 580 116 580 134 C580 153 595 168 613 168 C632 168 646 153 646 134 C646 116 632 101 613 101 L613 101 Z M310 116 C299 116 291 124 291 134 C291 145 299 153 310 153 C320 153 328 145 328 134 C328 124 320 116 310 116 L310 116 Z M703 116 C692 116 684 124 684 134 C684 145 692 153 703 153 C713 153 722 145 722 134 C722 124 713 116 703 116 L703 116 Z M415 13 L392 13 L335 -90 L353 -100 L415 13 Z M648 -100 L666 -90 L609 13 L586 13 L648 -100 Z M425 -5 L414 -25 L587 -25 L577 -5 L425 -5 Z M391 -67 L380 -87 L621 -87 L610 -67 L391 -67 Z " />
<glyph glyph-name="k" unicode="k" horiz-adv-x="1000" d="M813 286 L801 286 L760 481 C751 525 730 539 700 539 L300 539 C270 539 250 527 240 482 L198 286 L187 286 C169 286 153 270 153 252 L153 79 C153 61 168 46 186 45 L186 -20 C186 -35 201 -50 216 -50 L275 -50 C290 -50 305 -35 305 -20 L305 45 L695 45 L695 -20 C695 -35 710 -50 724 -50 L784 -50 C798 -50 813 -35 813 -20 L813 45 C830 45 847 61 847 79 L847 252 C847 270 830 286 813 286 L813 286 Z M261 286 L219 286 L260 477 C267 512 278 519 300 519 L700 519 C722 519 733 511 740 477 L780 286 L739 286 L702 476 L298 476 L261 286 Z M314 456 L686 456 L719 286 L281 286 L314 456 Z M827 252 L827 79 C827 70 822 65 813 65 L187 65 C178 65 173 70 173 79 L173 252 C173 261 178 266 187 266 L813 266 C822 266 827 261 827 252 L827 252 Z M310 219 C282 219 256 194 256 165 C256 137 282 112 310 112 C338 112 364 137 364 165 C364 194 338 219 310 219 L310 219 Z M689 219 C661 219 636 194 636 165 C636 137 661 112 689 112 C718 112 743 137 743 165 C743 194 718 219 689 219 L689 219 Z M310 132 C292 132 276 147 276 165 C276 184 292 199 310 199 C328 199 344 184 344 165 C344 147 328 132 310 132 L310 132 Z M689 132 C671 132 656 147 656 165 C656 184 671 199 689 199 C708 199 723 184 723 165 C723 147 708 132 689 132 L689 132 Z M206 45 L285 45 L285 -20 C285 -26 281 -30 275 -30 L216 -30 C210 -30 206 -26 206 -20 L206 45 Z M715 45 L793 45 L793 -20 C793 -26 789 -30 784 -30 L724 -30 C719 -30 715 -26 715 -20 L715 45 Z " />
<glyph glyph-name="l" unicode="l" horiz-adv-x="1000" d="M826 113 L713 225 C687 251 649 258 614 255 L291 579 L263 551 L253 561 C245 569 233 573 222 573 C196 573 179 554 179 530 C179 519 183 508 191 500 L202 490 L173 461 L498 138 C495 103 503 65 528 40 L641 -73 L826 113 Z M216 504 L205 514 C201 518 199 524 199 530 C199 544 210 554 222 554 C228 554 234 551 238 547 L248 536 L216 504 Z M202 461 L291 550 L330 512 L241 423 L202 461 Z M503 161 L255 409 L344 497 L591 250 C570 245 551 234 535 218 C519 202 508 182 503 161 L503 161 Z M463 252 C482 252 498 268 498 287 C498 306 482 322 463 322 C444 322 428 306 428 287 C428 268 444 252 463 252 L463 252 Z M549 204 C570 225 599 236 628 236 C653 236 678 227 699 211 L542 54 C526 74 517 100 517 125 C517 154 527 182 549 204 L549 204 Z M641 -44 L556 40 L713 197 L798 113 L641 -44 Z " />
<glyph glyph-name="m" unicode="m" horiz-adv-x="1000" d="M252 -26 L533 -26 L568 256 L568 518 C568 532 554 546 540 546 L244 546 C230 546 216 532 216 518 L216 256 L252 -26 Z M236 258 L236 518 C236 523 239 526 244 526 L540 526 C545 526 548 523 548 518 L548 258 L515 -6 L270 -6 L236 258 Z M770 241 C760 264 752 285 752 344 C752 419 705 484 641 492 L641 503 L588 503 L588 463 L641 463 L641 472 C693 464 732 411 732 344 C732 281 742 256 752 233 C761 211 769 190 769 142 C769 95 740 66 703 66 C671 66 638 91 638 138 L638 271 C638 297 626 318 602 318 L588 318 L588 298 L602 298 C612 298 618 289 618 271 L618 138 C618 79 663 46 703 46 C750 46 789 85 789 142 C789 194 779 219 770 241 L770 241 Z M505 289 L505 484 L278 484 L278 289 L505 289 Z M485 464 L485 309 L298 309 L298 464 L485 464 Z M211 -56 L211 -100 L231 -100 L231 -76 L566 -76 L566 -100 L586 -100 L586 -56 L211 -56 Z " />
<glyph glyph-name="n" unicode="n" horiz-adv-x="1000" d="M500 468 C327 468 185 323 190 148 L325 148 L325 168 L210 168 C212 242 243 308 291 358 L357 292 L371 306 L305 372 C354 417 419 445 490 448 L490 359 L510 359 L510 448 C580 445 644 418 694 374 L632 312 L646 298 L708 360 C757 310 788 242 790 168 L675 168 L675 148 L810 148 C815 323 673 468 500 468 L500 468 Z M538 318 L474 125 C468 108 484 91 499 91 C512 91 524 98 526 112 L559 313 L538 318 Z " />
<glyph glyph-name="o" unicode="o" horiz-adv-x="1000" d="M798 304 C798 389 763 469 709 527 L750 568 L736 582 L681 527 C741 471 778 392 778 304 C778 136 641 -1 472 -1 C385 -1 305 36 250 95 L235 81 C290 22 373 -17 460 -21 L460 -61 L335 -84 L335 -109 L610 -109 L610 -84 L485 -61 L485 -21 C656 -14 798 132 798 304 L798 304 Z M468 43 C617 43 733 159 733 307 C733 456 617 574 469 574 C320 574 202 458 202 309 C202 161 314 43 468 43 L468 43 Z M579 529 C519 533 459 518 407 488 L362 533 C395 549 431 556 467 556 C506 556 544 547 579 529 L579 529 Z M293 484 C310 501 329 515 349 526 L345 522 L390 477 C373 466 357 453 342 438 C323 419 307 399 294 378 L248 424 C260 445 275 466 293 484 L293 484 Z M624 500 C574 481 524 454 477 418 L421 474 C464 498 512 510 561 510 C580 510 599 509 618 505 L624 500 Z M641 485 L645 481 C627 430 600 379 563 332 L491 404 C539 440 590 468 641 485 L641 485 Z M663 460 C667 439 670 419 670 399 C670 350 657 304 633 262 L577 318 C613 365 641 415 660 464 L663 460 Z M404 463 L462 405 C446 393 431 379 417 365 C399 346 381 327 365 307 L308 364 C321 385 337 405 356 424 C371 439 387 452 404 463 L404 463 Z M692 203 L648 247 C678 299 693 358 689 419 C707 384 715 346 715 307 C715 272 707 236 692 203 L692 203 Z M239 404 L283 360 C256 310 243 254 247 197 C229 232 220 270 220 309 C220 341 227 373 239 404 L239 404 Z M452 220 L379 293 C395 313 412 332 431 351 C445 365 460 379 476 391 L551 316 C539 301 525 286 511 272 C492 253 472 236 452 220 L452 220 Z M273 156 C268 177 266 197 266 218 C266 263 277 306 298 345 L353 290 C319 246 293 200 275 153 L273 156 Z M523 149 L466 206 C487 222 506 239 525 258 C539 272 552 287 565 302 L623 244 C611 227 598 211 583 196 C564 177 545 162 523 149 L523 149 Z M367 276 L436 207 C390 174 343 148 295 131 L293 133 L291 135 C308 183 333 231 367 276 L367 276 Z M643 134 C625 116 604 101 583 89 L538 134 C559 147 579 163 598 182 C613 197 626 213 637 230 L681 186 L685 190 C674 170 660 151 643 134 L643 134 Z M312 116 C359 133 406 160 450 193 L505 138 C466 117 422 106 377 106 C357 106 337 108 316 113 L312 116 Z M356 87 C414 83 470 96 520 123 L563 80 C532 68 500 61 468 61 C429 61 391 70 356 87 L356 87 Z " />
<glyph glyph-name="p" unicode="p" horiz-adv-x="1000" d="M726 276 L822 360 C845 380 851 404 852 426 C853 446 846 464 842 474 C835 475 828 476 821 476 C790 476 760 462 740 427 L678 316 L726 276 Z M408 8 C517 8 609 93 619 200 C649 224 676 248 700 273 L685 286 C650 250 608 214 560 180 C398 63 236 18 198 70 C185 88 188 117 207 154 C217 123 234 95 257 72 L281 76 C267 88 256 102 246 117 L325 117 C328 108 332 99 336 91 L353 97 L344 117 L402 117 L442 137 L337 137 C329 163 325 192 325 222 C325 237 326 252 328 266 L488 266 C490 252 491 237 491 222 C491 201 489 182 485 163 L507 176 C510 191 511 206 511 222 C511 237 510 252 508 266 L594 266 C596 258 598 250 599 241 L617 256 C600 355 512 432 408 432 C292 432 196 336 196 220 C196 207 197 195 199 183 C171 134 161 87 182 58 C202 30 247 23 305 35 C336 18 371 8 408 8 L408 8 Z M787 385 C782 385 773 388 773 399 C773 412 786 425 799 425 C808 425 813 419 813 411 C813 398 800 385 787 385 L787 385 Z M332 286 C344 338 371 382 407 412 L409 412 C445 382 472 338 484 286 L332 286 Z M228 286 C252 351 310 400 381 410 C348 378 324 335 312 286 L228 286 Z M504 286 C492 335 468 378 435 410 C506 400 564 351 588 286 L504 286 Z M235 137 C223 162 216 190 216 220 C216 236 218 251 222 266 L308 266 C306 252 305 237 305 222 C305 192 310 164 318 137 L235 137 Z M435 30 C457 51 475 79 488 110 C516 126 544 144 572 164 L596 182 C580 103 516 41 435 30 L435 30 Z M408 28 C397 37 388 46 379 57 C405 67 433 80 462 95 C448 68 429 45 408 28 L408 28 Z M382 30 C365 32 349 36 335 42 L362 51 C368 44 375 36 382 30 L382 30 Z " />
<glyph glyph-name="q" unicode="q" horiz-adv-x="1000" d="M500 580 C442 580 387 565 339 540 L320 496 L346 411 L402 411 C409 430 412 432 426 432 C465 432 486 426 508 418 L647 364 C681 351 683 332 683 292 C683 264 654 191 590 159 L586 156 L525 73 C524 73 522 72 520 72 L512 62 L512 36 L504 28 C504 17 504 -21 532 -29 C528 -32 521 -34 508 -34 C498 -34 469 -23 469 -20 L469 38 C469 49 460 58 450 62 L448 69 C469 77 475 104 459 115 L435 130 L455 209 C456 221 445 240 427 240 C417 240 411 248 399 263 C379 286 364 327 369 354 L373 381 L335 394 L252 475 C190 413 152 327 152 232 C152 42 309 -115 500 -115 C690 -115 847 42 847 232 C847 422 690 580 500 580 L500 580 Z M500 -95 C319 -95 172 52 172 232 C172 315 202 389 252 447 L325 376 L351 367 L349 358 C344 325 361 276 383 250 C395 236 407 220 427 220 C432 220 435 217 435 211 L413 122 L448 99 C453 95 448 82 421 89 L435 43 L436 37 L448 34 L449 0 L449 -20 C449 -40 492 -54 508 -54 C530 -54 545 -46 550 -39 L552 -33 L552 -8 C529 -16 525 3 524 20 L532 28 L532 55 L539 58 L601 142 C671 179 703 260 703 292 C703 334 699 365 655 382 L516 436 C492 446 467 452 426 452 C412 452 398 447 389 431 L360 431 L342 494 L355 526 C399 547 448 560 500 560 C680 560 827 412 827 232 C827 52 680 -95 500 -95 L500 -95 Z " />
<glyph glyph-name="r" unicode="r" horiz-adv-x="1000" d="M500 597 C309 597 152 440 152 250 C152 59 309 -98 500 -98 C690 -98 847 59 847 250 C847 440 690 597 500 597 L500 597 Z M500 577 C680 577 827 430 827 250 C827 69 680 -78 500 -78 C319 -78 172 69 172 250 C172 430 319 577 500 577 L500 577 Z M495 513 L440 513 C410 493 376 469 357 437 C347 419 340 390 340 370 C340 353 346 330 369 309 C380 299 399 290 462 290 C474 290 492 284 492 260 C492 211 517 224 517 206 C517 185 511 166 500 161 L535 61 C543 35 568 22 598 23 C617 34 649 73 659 100 C662 106 662 122 662 130 L695 152 C697 162 699 175 697 192 C694 208 686 219 686 230 C686 243 693 236 716 259 C733 275 760 319 758 355 L741 370 L710 355 L630 476 C602 486 569 483 566 484 C565 472 564 469 563 468 C557 469 539 480 525 488 L495 513 Z M446 493 L487 493 L513 472 C529 463 555 447 565 448 C572 449 579 455 582 464 C592 464 605 463 618 459 L702 329 L738 346 C736 318 715 287 702 273 C690 262 666 253 666 230 C666 211 676 200 677 189 C679 175 678 171 676 163 C660 153 642 144 642 130 C642 123 643 114 641 108 C633 87 608 55 592 43 C571 44 559 51 553 67 L523 155 C532 168 537 188 537 206 C537 238 512 235 512 260 C512 299 478 310 462 310 C403 310 392 315 383 323 C364 340 360 355 360 370 C360 388 365 411 375 427 C390 453 418 474 446 493 L446 493 Z M718 116 L728 100 L745 110 L762 160 L744 166 L729 124 L718 116 Z " />
<glyph glyph-name="s" unicode="s" horiz-adv-x="1000" d="M381 292 L419 330 L352 397 L400 445 L442 402 C445 399 447 395 447 391 C447 388 445 384 442 381 L419 358 L433 344 L456 367 C463 374 466 382 466 391 C466 400 462 410 456 416 L291 581 C284 588 275 591 266 591 C257 591 250 589 242 581 L167 506 C160 499 157 490 157 481 C157 473 160 464 167 457 L332 293 C339 286 348 283 358 283 C366 283 375 286 381 292 L381 292 Z M219 530 L255 566 C258 569 262 571 266 571 C270 571 274 570 277 567 L319 525 L271 478 L219 530 Z M181 492 L205 516 L257 464 L223 430 L182 472 C179 475 177 478 177 482 C177 485 178 489 181 492 L181 492 Z M385 459 L338 412 L285 464 L333 511 L385 459 Z M324 398 L290 364 L237 416 L271 450 L324 398 Z M638 287 L631 377 L542 384 L383 225 L479 129 L638 287 Z M338 383 L391 330 L367 306 C364 303 360 302 357 302 C353 302 350 303 346 307 L304 349 L338 383 Z M617 295 L479 157 L411 225 L550 363 L613 358 L617 295 Z M530 258 C540 258 548 266 548 276 C548 286 540 294 530 294 C520 294 512 286 512 276 C512 266 520 258 530 258 L530 258 Z M834 39 L669 204 C660 213 653 213 644 213 C635 213 626 210 620 204 L582 166 L649 99 L602 52 L559 94 C556 97 554 101 554 104 C554 108 556 112 559 115 L582 138 L568 152 L545 129 C538 122 535 113 535 104 C535 95 539 86 545 80 L710 -85 C717 -92 726 -95 735 -95 C744 -95 753 -91 759 -85 L834 -10 C841 -3 844 5 844 14 C844 23 841 32 834 39 L834 39 Z M663 113 L610 166 L634 190 C637 193 641 194 644 194 C648 194 651 193 655 189 L697 147 L663 113 Z M361 165 L341 165 C341 141 350 119 366 103 C382 87 405 78 428 78 L428 98 C409 98 393 103 380 117 C368 130 361 145 361 165 L361 165 Z M264 146 L244 146 C244 103 261 59 293 28 C323 -2 366 -19 410 -20 L410 0 C370 1 334 15 307 42 C279 71 264 107 264 146 L264 146 Z M711 133 L764 81 L730 47 L677 99 L711 133 Z M616 38 L663 85 L716 33 L668 -15 L616 38 Z M820 4 L796 -20 L744 32 L778 66 L819 25 C823 21 824 18 824 14 C824 10 823 7 820 4 L820 4 Z M782 -34 L745 -71 C743 -73 739 -75 735 -75 C731 -75 727 -74 724 -71 L682 -29 L730 18 L782 -34 Z " />
<glyph glyph-name="t" unicode="t" horiz-adv-x="1000" d="M499 580 C309 580 152 422 152 232 C152 42 309 -115 499 -115 C558 -115 616 -100 664 -74 L683 -42 C676 -38 669 -30 667 -23 L738 23 C756 38 757 69 748 81 L725 107 L760 107 L812 79 C834 124 847 177 847 232 C847 422 690 580 499 580 L499 580 Z M499 560 C680 560 827 412 827 232 C827 187 818 145 802 107 L766 127 L681 127 L732 67 C735 64 735 47 726 39 L647 -12 C643 -22 651 -40 663 -51 C615 -80 559 -95 499 -95 C319 -95 172 52 172 232 C172 412 319 560 499 560 L499 560 Z M542 501 C534 489 517 489 509 496 C483 517 449 504 442 493 C428 471 437 444 465 428 C488 415 527 431 548 415 L595 375 L642 317 L678 317 L697 371 L644 420 L643 443 C623 475 589 498 542 501 L542 501 Z M374 449 C385 449 394 458 394 469 C394 480 385 489 374 489 C363 489 354 480 354 469 C354 458 363 449 374 449 L374 449 Z M549 481 C584 476 607 461 623 437 L624 412 L673 365 L664 337 L652 337 L609 389 L561 431 C534 451 487 439 475 446 C455 457 451 470 458 482 C461 486 481 493 497 480 C508 471 533 469 549 481 L549 481 Z M424 416 C430 416 434 420 434 426 C434 432 430 436 424 436 C418 436 414 432 414 426 C414 420 418 416 424 416 L424 416 Z M542 341 L495 370 L494 312 C494 295 491 283 486 279 C482 276 475 278 461 288 L462 301 C465 332 441 341 423 334 C412 331 404 324 400 324 C394 324 386 325 380 327 C369 330 340 324 333 314 C321 298 323 290 317 281 C305 263 275 245 251 228 C237 217 231 196 239 180 L260 131 C262 128 262 127 261 124 L258 103 C254 76 289 74 307 81 C344 95 388 111 423 111 C458 111 491 50 508 42 C517 37 549 39 590 59 C613 79 638 148 638 186 C638 225 598 260 572 283 L542 341 Z M720 325 C725 325 730 329 730 335 C730 340 725 345 720 345 C714 345 710 340 710 335 C710 329 714 325 720 325 L720 325 Z M514 312 L515 334 L526 327 L556 271 C582 248 618 217 618 186 C618 152 597 95 578 75 C543 59 521 58 517 60 C505 66 470 131 423 131 C384 131 336 113 300 99 C291 96 278 99 278 101 L281 121 C282 127 280 134 278 139 L257 188 C253 197 255 205 263 212 C287 229 319 249 333 269 C347 289 340 290 349 302 C351 305 368 309 374 308 C382 305 394 304 400 304 C412 304 422 313 429 316 C439 319 443 316 442 303 L439 278 C464 260 481 251 498 263 C509 271 514 293 514 312 L514 312 Z M452 13 C457 13 462 17 462 23 C462 28 457 33 452 33 C446 33 442 28 442 23 C442 17 446 13 452 13 L452 13 Z M542 0 L514 0 L502 7 C496 10 490 9 487 3 C485 -2 486 -7 491 -10 L508 -20 L542 -20 C548 -20 552 -16 552 -10 C552 -4 548 0 542 0 L542 0 Z " />
<glyph glyph-name="u" unicode="u" horiz-adv-x="1000" d="M738 43 L733 77 C727 85 721 93 714 98 C753 145 776 203 776 267 C776 411 658 529 514 529 C371 529 252 411 252 267 C252 219 265 175 288 136 L225 105 L231 82 L375 157 L527 127 C519 100 498 78 468 83 L396 96 L387 70 L387 64 C395 39 487 4 506 5 L593 29 L650 81 C659 89 668 93 677 93 C687 93 697 88 706 78 L615 -13 L530 -71 C522 -77 513 -80 500 -80 C490 -80 476 -77 459 -73 L259 -27 L265 -48 L454 -93 C471 -97 486 -100 499 -100 C516 -100 530 -95 542 -87 L584 -58 L712 -13 C735 -5 742 17 738 43 L738 43 Z M518 509 C539 459 554 405 562 347 L466 347 C474 405 489 459 510 509 L518 509 Z M488 506 C467 457 453 404 446 347 L380 347 C397 410 435 464 488 506 L488 506 Z M648 347 L582 347 C575 404 561 457 540 506 C593 464 631 410 648 347 L648 347 Z M451 501 C407 459 375 406 359 347 L286 347 C312 422 374 480 451 501 L451 501 Z M743 347 L669 347 C653 406 621 459 577 501 C655 480 716 422 743 347 L743 347 Z M280 327 L355 327 C351 308 349 287 349 267 C349 247 351 227 355 207 L280 207 C275 226 272 246 272 267 C272 288 275 308 280 327 L280 327 Z M444 207 L375 207 C371 227 369 247 369 267 C369 288 371 308 375 327 L444 327 C442 307 441 287 441 267 C441 246 442 226 444 207 L444 207 Z M461 267 C461 287 462 307 464 327 L564 327 C566 307 567 287 567 267 C567 247 566 227 564 207 L464 207 C462 227 461 247 461 267 L461 267 Z M653 207 L584 207 C586 227 587 247 587 267 C587 287 586 307 584 327 L653 327 C657 308 659 288 659 267 C659 246 657 226 653 207 L653 207 Z M748 207 L673 207 C677 227 679 247 679 267 C679 287 677 308 673 327 L749 327 C753 308 756 288 756 267 C756 246 753 226 748 207 L748 207 Z M286 187 L360 187 L364 174 L305 145 C298 158 291 172 286 187 L286 187 Z M380 187 L446 187 L450 162 L384 175 L380 187 Z M554 143 L471 158 L467 187 L562 187 C560 172 557 158 554 143 L554 143 Z M553 39 L544 36 C562 83 575 134 582 187 L648 187 C631 130 598 79 553 39 L553 39 Z M636 95 L612 73 C638 107 657 146 668 187 L742 187 C732 158 716 132 696 108 C690 111 683 112 676 112 C663 112 649 107 636 95 L636 95 Z M704 6 L638 -17 L715 59 L719 33 C721 20 714 10 704 6 L704 6 Z " />
<glyph glyph-name="v" unicode="v" horiz-adv-x="1000" d="M500 506 C522 506 540 524 540 546 C540 568 522 586 500 586 C478 586 460 568 460 546 C460 524 478 506 500 506 L500 506 Z M500 465 C347 465 220 338 220 185 C220 32 347 -95 500 -95 C653 -95 780 32 780 185 C780 338 653 465 500 465 L500 465 Z M686 175 L760 175 C758 111 732 52 691 8 L652 47 L638 33 L677 -6 C633 -47 574 -73 510 -75 L510 -1 L490 -1 L490 -75 C426 -73 367 -47 323 -6 L362 33 L348 47 L309 8 C268 52 242 111 240 175 L314 175 L314 195 L240 195 C242 259 268 318 309 362 L348 323 L362 337 L323 376 C367 417 426 443 490 445 L490 360 L510 360 L510 445 C574 443 633 417 677 376 L638 337 L652 323 L691 362 C732 318 758 259 760 195 L686 195 L686 175 Z M454 206 L412 0 L546 164 L583 373 L454 206 Z M500 215 C517 215 530 202 530 185 C530 169 517 155 500 155 C484 155 470 169 470 185 C470 202 484 215 500 215 L500 215 Z " />
<glyph glyph-name="w" unicode="w" horiz-adv-x="1000" d="M499 580 C309 580 152 422 152 232 C152 42 309 -115 499 -115 C689 -115 847 42 847 232 C847 422 689 580 499 580 L499 580 Z M644 526 C633 512 623 506 605 507 L549 509 C524 510 503 512 484 525 L440 555 C459 558 479 560 499 560 C551 560 600 548 644 526 L644 526 Z M641 -63 L651 -12 C656 14 623 46 592 23 C569 6 552 10 535 20 C503 38 489 88 508 97 C540 112 603 126 612 109 L646 41 C710 64 682 98 670 137 C657 178 673 236 712 236 C726 236 755 266 762 296 C769 328 758 403 727 410 C690 417 667 420 654 415 C630 406 635 326 622 315 C609 304 597 273 595 267 C593 262 583 265 583 272 C584 285 591 314 578 327 C556 349 550 342 550 356 C550 376 619 424 592 443 C573 456 541 463 515 452 C512 451 462 476 445 476 C398 476 422 386 393 422 C372 447 363 464 306 464 L268 464 C308 504 358 533 414 549 L472 509 C495 492 522 490 549 489 L605 487 C631 486 647 497 662 516 C761 459 827 353 827 232 C827 103 751 -10 641 -63 L641 -63 Z M564 313 C569 308 564 289 563 274 C561 246 605 233 614 261 C615 267 625 292 634 299 C652 314 654 394 662 397 C669 400 686 397 723 390 C738 387 748 326 742 300 C737 278 715 256 712 256 C655 256 636 180 650 131 C663 93 673 79 655 68 L630 118 C612 152 536 131 500 115 C463 99 485 25 525 2 C544 -8 573 -16 604 7 C619 19 634 5 631 -8 L618 -73 C607 -77 595 -81 583 -84 L548 -49 C503 -3 470 -29 434 19 C424 33 428 55 415 73 C371 135 342 141 306 141 C294 156 296 200 305 227 C311 244 329 264 318 287 C311 300 327 334 308 363 C290 389 251 402 232 383 L191 342 C205 380 225 414 250 444 L306 444 C351 444 356 435 377 410 C426 350 443 456 445 456 C459 456 508 428 523 434 C543 443 565 438 580 427 C581 427 530 378 530 356 C530 330 554 323 564 313 L564 313 Z M172 232 C172 256 175 280 180 303 L246 369 C256 379 279 371 292 351 C306 331 288 302 300 278 C306 267 294 258 286 233 C277 202 273 145 294 125 L320 51 L339 14 L357 24 L338 59 L316 121 C344 119 364 111 399 61 C406 51 402 27 418 7 C460 -49 505 -33 534 -63 L560 -89 C540 -93 520 -95 499 -95 C319 -95 172 52 172 232 L172 232 Z " />
<glyph glyph-name="x" unicode="x" horiz-adv-x="1000" d="M694 523 L645 474 L645 446 L714 515 L714 559 L625 559 L625 562 C625 579 608 597 590 597 L409 597 C392 597 374 579 374 562 L374 559 L285 559 L285 515 L354 446 L354 474 L305 523 L305 539 L374 539 L374 384 L285 384 L285 340 L354 271 L354 299 L305 348 L305 364 L374 364 L374 209 L285 209 L285 165 L354 96 L354 124 L305 173 L305 189 L374 189 L374 60 C374 42 392 25 409 25 L490 25 L490 -101 L510 -101 L510 25 L590 25 C608 25 625 42 625 60 L625 189 L694 189 L694 173 L645 124 L645 96 L714 165 L714 209 L625 209 L625 364 L694 364 L694 348 L645 299 L645 271 L714 340 L714 384 L625 384 L625 539 L694 539 L694 523 Z M605 562 L605 60 C605 51 599 45 590 45 L409 45 C400 45 394 51 394 60 L394 562 C394 570 401 577 409 577 L590 577 C599 577 605 571 605 562 L605 562 Z M500 429 C531 429 556 454 556 485 C556 517 531 542 500 542 C468 542 443 517 443 485 C443 454 468 429 500 429 L500 429 Z M500 371 C468 371 440 343 440 311 C440 280 468 251 500 251 C531 251 560 280 560 311 C560 343 531 371 500 371 L500 371 Z M500 271 C478 271 460 290 460 311 C460 333 478 351 500 351 C521 351 540 333 540 311 C540 290 521 271 500 271 L500 271 Z M500 193 C468 193 443 168 443 136 C443 105 468 80 500 80 C531 80 556 105 556 136 C556 168 531 193 500 193 L500 193 Z " />
<glyph glyph-name="y" unicode="y" horiz-adv-x="1000" d="M499 597 C309 597 152 440 152 250 C152 59 309 -98 499 -98 C690 -98 847 59 847 250 C847 440 690 597 499 597 L499 597 Z M702 506 L585 516 L557 483 L481 518 L356 518 L297 506 C353 550 423 577 499 577 C575 577 646 550 702 506 L702 506 Z M267 479 L358 498 L477 498 L563 459 L593 496 L728 483 C740 471 752 458 763 444 L726 433 L745 380 L740 379 L706 430 L645 431 L631 388 L678 364 L682 285 L638 334 L608 300 C620 281 643 259 642 236 C641 217 627 206 602 206 C586 206 574 198 574 186 C574 180 577 174 583 167 L599 146 C602 142 602 137 599 135 L576 119 L563 130 L563 164 L530 209 C521 219 514 222 502 222 C490 222 482 215 473 197 L454 161 L451 103 L436 103 L413 170 L403 206 L332 264 L280 282 L257 248 L292 195 L318 193 L330 177 L267 135 L179 319 C193 380 224 436 267 479 L267 479 Z M499 -78 C320 -78 172 70 172 250 C172 261 173 273 174 284 L248 127 C253 116 267 112 277 118 L358 171 L328 213 L304 215 L281 248 L288 258 L322 246 L385 194 L395 162 L423 83 L469 83 L474 155 L491 188 C497 201 499 202 502 202 C508 202 510 202 514 196 L543 158 L543 120 L574 95 L611 119 C622 127 625 145 615 158 L599 179 L594 186 L602 186 C638 186 661 205 662 236 C663 260 646 282 634 299 L638 304 L682 255 L702 277 L698 376 L655 398 L659 411 L696 410 L730 357 L749 359 C762 360 767 375 764 387 L752 419 L775 425 C796 393 812 356 820 317 L790 254 L747 228 L753 208 L827 253 L827 250 C827 70 679 -78 499 -78 L499 -78 Z M678 179 L666 154 L690 111 L705 133 C705 154 689 178 678 179 L678 179 Z M498 126 C491 126 488 121 488 116 L488 87 C488 81 493 77 498 77 C503 77 508 81 508 86 L508 115 C508 121 504 126 498 126 L498 126 Z M571 68 L563 97 L553 105 L535 82 L553 57 L574 17 L654 -15 L660 -4 L600 27 L571 68 Z M666 95 L653 104 L613 72 L624 44 L658 44 C672 63 671 92 666 95 L666 95 Z " />
<glyph glyph-name="z" unicode="z" horiz-adv-x="1000" d="M694 523 L645 474 L645 446 L714 515 L714 559 L625 559 L625 562 C625 579 608 597 590 597 L409 597 C392 597 374 579 374 562 L374 559 L285 559 L285 515 L354 446 L354 474 L305 523 L305 539 L374 539 L374 384 L285 384 L285 340 L354 271 L354 299 L305 348 L305 364 L374 364 L374 209 L285 209 L285 165 L354 96 L354 124 L305 173 L305 189 L374 189 L374 60 C374 42 392 25 409 25 L490 25 L490 -101 L510 -101 L510 25 L590 25 C608 25 625 42 625 60 L625 189 L694 189 L694 173 L645 124 L645 96 L714 165 L714 209 L625 209 L625 364 L694 364 L694 348 L645 299 L645 271 L714 340 L714 384 L625 384 L625 539 L694 539 L694 523 Z M605 562 L605 60 C605 51 599 45 590 45 L409 45 C400 45 394 51 394 60 L394 562 C394 570 401 577 409 577 L590 577 C599 577 605 571 605 562 L605 562 Z M500 546 C468 546 440 518 440 486 C440 455 468 426 500 426 C531 426 560 455 560 486 C560 518 531 546 500 546 L500 546 Z M500 446 C478 446 460 465 460 486 C460 508 478 526 500 526 C521 526 540 508 540 486 C540 465 521 446 500 446 L500 446 Z M500 368 C468 368 443 343 443 311 C443 280 468 255 500 255 C531 255 556 280 556 311 C556 343 531 368 500 368 L500 368 Z M500 193 C468 193 443 168 443 136 C443 105 468 80 500 80 C531 80 556 105 556 136 C556 168 531 193 500 193 L500 193 Z " />
<glyph glyph-name="braceleft" unicode="&#x7b;" horiz-adv-x="1000" d="M500 523 C385 523 286 450 247 348 L266 343 C303 436 394 503 500 503 C639 503 753 389 753 250 C753 111 639 -3 500 -3 C361 -3 248 111 248 250 L249 271 L283 237 L297 251 L239 309 L180 251 L194 237 L229 271 L228 250 C228 101 351 -23 500 -23 C649 -23 773 101 773 250 C773 399 649 523 500 523 L500 523 Z " />
<glyph glyph-name="braceright" unicode="&#x7d;" horiz-adv-x="1000" d="M820 249 L806 263 L772 229 L773 250 C773 399 649 523 500 523 C387 523 289 452 248 352 L267 346 C305 438 395 503 500 503 C639 503 753 389 753 250 C753 243 753 236 752 229 L718 263 L704 249 L762 191 L820 249 Z M500 -3 C361 -3 248 111 248 250 C248 257 248 264 249 271 L283 237 L297 251 L239 309 L180 251 L194 237 L229 271 C228 264 228 257 228 250 C228 101 351 -23 500 -23 C615 -23 711 47 753 149 L734 154 C696 62 605 -3 500 -3 L500 -3 Z " />
</font>
</svg>
